solid OpenSCAD_Model
  facet normal 0 0 1
    outer loop
      vertex -3.88388 0.623731 2.75
      vertex -3.75 0.625 2.75
      vertex -3.88261 0.625 2.75
    endloop
  endfacet
  facet normal 0 0 1
    outer loop
      vertex -3.75 0.625 2.75
      vertex -3.88388 0.623731 2.75
      vertex -3.75 -0.625 2.75
    endloop
  endfacet
  facet normal -0 0 1
    outer loop
      vertex -3.88388 -0.623731 2.75
      vertex -3.75 -0.625 2.75
      vertex -3.88388 0.623731 2.75
    endloop
  endfacet
  facet normal 0 0 1
    outer loop
      vertex -3.75 -0.625 2.75
      vertex -3.88388 -0.623731 2.75
      vertex -3.88261 -0.625 2.75
    endloop
  endfacet
  facet normal -0.706828 0.707385 0
    outer loop
      vertex -3.88261 0.625 2
      vertex -3.88388 0.623731 2.75
      vertex -3.88261 0.625 2.75
    endloop
  endfacet
  facet normal -0.707104 0.707109 0
    outer loop
      vertex -4.5 0.00761414 2.13388
      vertex -3.88261 0.625 2
      vertex -4.5 0.00761414 2
    endloop
  endfacet
  facet normal -0.707105 0.707109 -9.35126e-07
    outer loop
      vertex -3.88261 0.625 2
      vertex -4.5 0.00761414 2.13388
      vertex -3.88388 0.623731 2.75
    endloop
  endfacet
  facet normal -0.707104 -0.707109 0
    outer loop
      vertex -3.88261 -0.625 2
      vertex -4.5 -0.00761414 2.13388
      vertex -4.5 -0.00761414 2
    endloop
  endfacet
  facet normal -0.707105 -0.707109 -9.35126e-07
    outer loop
      vertex -4.5 -0.00761414 2.13388
      vertex -3.88261 -0.625 2
      vertex -3.88388 -0.623731 2.75
    endloop
  endfacet
  facet normal -0.706828 -0.707385 0
    outer loop
      vertex -3.88388 -0.623731 2.75
      vertex -3.88261 -0.625 2
      vertex -3.88261 -0.625 2.75
    endloop
  endfacet
  facet normal -0.707107 0 0.707107
    outer loop
      vertex -4.5 -0.00761414 2.13388
      vertex -3.88388 0.623731 2.75
      vertex -4.5 0.00761414 2.13388
    endloop
  endfacet
  facet normal -0.707107 0 0.707107
    outer loop
      vertex -3.88388 0.623731 2.75
      vertex -4.5 -0.00761414 2.13388
      vertex -3.88388 -0.623731 2.75
    endloop
  endfacet
  facet normal 0 -1 0
    outer loop
      vertex -3.88261 -0.625 2
      vertex -3.75 -0.625 2.75
      vertex -3.88261 -0.625 2.75
    endloop
  endfacet
  facet normal 0 -1 -0
    outer loop
      vertex -3.75 -0.625 2.75
      vertex -3.88261 -0.625 2
      vertex -3.75 -0.625 2
    endloop
  endfacet
  facet normal 0 1 -0
    outer loop
      vertex -3.75 0.625 2
      vertex -3.88261 0.625 2.75
      vertex -3.75 0.625 2.75
    endloop
  endfacet
  facet normal 0 1 0
    outer loop
      vertex -3.88261 0.625 2.75
      vertex -3.75 0.625 2
      vertex -3.88261 0.625 2
    endloop
  endfacet
  facet normal 0.706828 0.707385 0
    outer loop
      vertex 3.88388 0.623731 2.75
      vertex 3.88261 0.625 2
      vertex 3.88261 0.625 2.75
    endloop
  endfacet
  facet normal 0.707105 0.707109 -9.35126e-07
    outer loop
      vertex 4.5 0.00761414 2.13388
      vertex 3.88261 0.625 2
      vertex 3.88388 0.623731 2.75
    endloop
  endfacet
  facet normal 0.707104 0.707109 0
    outer loop
      vertex 3.88261 0.625 2
      vertex 4.5 0.00761414 2.13388
      vertex 4.5 0.00761414 2
    endloop
  endfacet
  facet normal -0 0 1
    outer loop
      vertex 3.75 0.625 2.75
      vertex 3.88388 0.623731 2.75
      vertex 3.88261 0.625 2.75
    endloop
  endfacet
  facet normal 0 0 1
    outer loop
      vertex 3.88388 0.623731 2.75
      vertex 3.75 0.625 2.75
      vertex 3.88388 -0.623731 2.75
    endloop
  endfacet
  facet normal 0 0 1
    outer loop
      vertex 3.75 -0.625 2.75
      vertex 3.88388 -0.623731 2.75
      vertex 3.75 0.625 2.75
    endloop
  endfacet
  facet normal 0 0 1
    outer loop
      vertex 3.88388 -0.623731 2.75
      vertex 3.75 -0.625 2.75
      vertex 3.88261 -0.625 2.75
    endloop
  endfacet
  facet normal 0.707105 -0.707109 -9.35126e-07
    outer loop
      vertex 3.88261 -0.625 2
      vertex 4.5 -0.00761414 2.13388
      vertex 3.88388 -0.623731 2.75
    endloop
  endfacet
  facet normal 0.706828 -0.707385 0
    outer loop
      vertex 3.88261 -0.625 2
      vertex 3.88388 -0.623731 2.75
      vertex 3.88261 -0.625 2.75
    endloop
  endfacet
  facet normal 0.707104 -0.707109 0
    outer loop
      vertex 4.5 -0.00761414 2.13388
      vertex 3.88261 -0.625 2
      vertex 4.5 -0.00761414 2
    endloop
  endfacet
  facet normal 0.707107 0 0.707107
    outer loop
      vertex 3.88388 0.623731 2.75
      vertex 4.5 -0.00761414 2.13388
      vertex 4.5 0.00761414 2.13388
    endloop
  endfacet
  facet normal 0.707107 0 0.707107
    outer loop
      vertex 4.5 -0.00761414 2.13388
      vertex 3.88388 0.623731 2.75
      vertex 3.88388 -0.623731 2.75
    endloop
  endfacet
  facet normal 0 -1 0
    outer loop
      vertex 3.75 -0.625 2
      vertex 3.88261 -0.625 2.75
      vertex 3.75 -0.625 2.75
    endloop
  endfacet
  facet normal 0 -1 -0
    outer loop
      vertex 3.88261 -0.625 2.75
      vertex 3.75 -0.625 2
      vertex 3.88261 -0.625 2
    endloop
  endfacet
  facet normal 0 1 -0
    outer loop
      vertex 3.88261 0.625 2
      vertex 3.75 0.625 2.75
      vertex 3.88261 0.625 2.75
    endloop
  endfacet
  facet normal 0 1 0
    outer loop
      vertex 3.75 0.625 2.75
      vertex 3.88261 0.625 2
      vertex 3.75 0.625 2
    endloop
  endfacet
  facet normal -1 0 0
    outer loop
      vertex -3.75 -0.625 2
      vertex -3.75 -2.42417 2
      vertex -3.75 -0.625 2.75
    endloop
  endfacet
  facet normal -1 0 0
    outer loop
      vertex -3.75 0.625 2.75
      vertex -3.75 3.75 2
      vertex -3.75 0.625 2
    endloop
  endfacet
  facet normal -1 0 0
    outer loop
      vertex -3.75 3.75 2
      vertex -3.75 0.625 2.75
      vertex -3.75 3.75 3.85484
    endloop
  endfacet
  facet normal -1 0 0
    outer loop
      vertex -3.75 -2.42417 3.85484
      vertex -3.75 0.625 2.75
      vertex -3.75 -0.625 2.75
    endloop
  endfacet
  facet normal -1 0 0
    outer loop
      vertex -3.75 0.625 2.75
      vertex -3.75 -2.42417 3.85484
      vertex -3.75 3.75 3.85484
    endloop
  endfacet
  facet normal -1 0 0
    outer loop
      vertex -3.75 -2.42417 3.85484
      vertex -3.75 -0.625 2.75
      vertex -3.75 -2.42417 2
    endloop
  endfacet
  facet normal 1 0 0
    outer loop
      vertex 3.75 2.42417 3.86
      vertex 3.75 0.625 2.75
      vertex 3.75 2.42417 2
    endloop
  endfacet
  facet normal 1 0 0
    outer loop
      vertex 3.75 2.42417 3.86
      vertex 3.75 -0.625 2.75
      vertex 3.75 0.625 2.75
    endloop
  endfacet
  facet normal 1 -0 0
    outer loop
      vertex 3.75 -3.74483 3.86
      vertex 3.75 -0.625 2.75
      vertex 3.75 2.42417 3.86
    endloop
  endfacet
  facet normal 1 0 0
    outer loop
      vertex 3.75 -3.75 2
      vertex 3.75 -0.625 2.75
      vertex 3.75 -3.74483 3.86
    endloop
  endfacet
  facet normal 1 0 0
    outer loop
      vertex 3.75 -3.75 2
      vertex 3.75 -3.74483 3.86
      vertex 3.75 -3.75 3.85484
    endloop
  endfacet
  facet normal 1 0 0
    outer loop
      vertex 3.75 -0.625 2.75
      vertex 3.75 -3.75 2
      vertex 3.75 -0.625 2
    endloop
  endfacet
  facet normal 1 0 0
    outer loop
      vertex 3.75 2.42417 2
      vertex 3.75 0.625 2.75
      vertex 3.75 0.625 2
    endloop
  endfacet
  facet normal 0 1 -0
    outer loop
      vertex 2.42417 3.75 2
      vertex -3.74483 3.75 3.86
      vertex 2.42417 3.75 3.86
    endloop
  endfacet
  facet normal 0 1 0
    outer loop
      vertex -3.75 3.75 2
      vertex -3.74483 3.75 3.86
      vertex 2.42417 3.75 2
    endloop
  endfacet
  facet normal 0 1 0
    outer loop
      vertex -3.74483 3.75 3.86
      vertex -3.75 3.75 2
      vertex -3.75 3.75 3.85484
    endloop
  endfacet
  facet normal 0 0 -1
    outer loop
      vertex 4.33013 -7.5 0
      vertex 4.33013 7.5 0
      vertex 8.66025 0 0
    endloop
  endfacet
  facet normal 0 0 -1
    outer loop
      vertex -4.33013 -7.5 0
      vertex 4.33013 7.5 0
      vertex 4.33013 -7.5 0
    endloop
  endfacet
  facet normal 0 0 -1
    outer loop
      vertex -4.33013 -7.5 0
      vertex -4.33013 7.5 0
      vertex 4.33013 7.5 0
    endloop
  endfacet
  facet normal 0 -0 -1
    outer loop
      vertex -4.33013 7.5 0
      vertex -4.33013 -7.5 0
      vertex -8.66025 0 0
    endloop
  endfacet
  facet normal 0 -1 0
    outer loop
      vertex -2.42417 -3.75 2
      vertex 3.75 -3.75 3.85484
      vertex -2.42417 -3.75 3.85484
    endloop
  endfacet
  facet normal 0 -1 -0
    outer loop
      vertex 3.75 -3.75 3.85484
      vertex -2.42417 -3.75 2
      vertex 3.75 -3.75 2
    endloop
  endfacet
  facet normal 0.707107 0.707107 0
    outer loop
      vertex 4.45082 3.125 3.15918
      vertex 3.125 4.45082 3.15918
      vertex 3.78791 3.78791 3.82209
    endloop
  endfacet
  facet normal 0.707107 0.707107 0
    outer loop
      vertex 3.125 4.45082 3.15918
      vertex 4.45082 3.125 3.15918
      vertex 3.125 4.45082 2
    endloop
  endfacet
  facet normal 0.707107 0.707107 0
    outer loop
      vertex 3.125 4.45082 2
      vertex 4.45082 3.125 3.15918
      vertex 4.45082 3.125 2
    endloop
  endfacet
  facet normal -0.707102 0.707112 0
    outer loop
      vertex 2.42417 3.75 2
      vertex 3.125 4.45082 3.15918
      vertex 3.125 4.45082 2
    endloop
  endfacet
  facet normal -0.707102 0.707112 0
    outer loop
      vertex 3.125 4.45082 3.15918
      vertex 2.42417 3.75 2
      vertex 2.42417 3.75 3.86
    endloop
  endfacet
  facet normal 0.707112 -0.707102 0
    outer loop
      vertex 3.75 2.42417 2
      vertex 4.45082 3.125 3.15918
      vertex 3.75 2.42417 3.86
    endloop
  endfacet
  facet normal 0.707112 -0.707102 0
    outer loop
      vertex 4.45082 3.125 3.15918
      vertex 3.75 2.42417 2
      vertex 4.45082 3.125 2
    endloop
  endfacet
  facet normal -0.707112 0.707102 0
    outer loop
      vertex -4.45082 -3.125 3.15492
      vertex -3.75 -2.42417 2
      vertex -4.45082 -3.125 2
    endloop
  endfacet
  facet normal -0.707112 0.707102 0
    outer loop
      vertex -3.75 -2.42417 2
      vertex -4.45082 -3.125 3.15492
      vertex -3.75 -2.42417 3.85484
    endloop
  endfacet
  facet normal -0.707107 -0.707107 0
    outer loop
      vertex -3.125 -4.45082 3.15492
      vertex -4.45082 -3.125 3.15492
      vertex -4.45082 -3.125 2
    endloop
  endfacet
  facet normal -0.707107 -0.707107 -0
    outer loop
      vertex -3.125 -4.45082 3.15492
      vertex -4.45082 -3.125 2
      vertex -3.125 -4.45082 2
    endloop
  endfacet
  facet normal -0.707107 -0.707107 0
    outer loop
      vertex -4.45082 -3.125 3.15492
      vertex -3.125 -4.45082 3.15492
      vertex -3.78791 -3.78791 3.81698
    endloop
  endfacet
  facet normal 0.707102 -0.707112 0
    outer loop
      vertex -2.42417 -3.75 2
      vertex -3.125 -4.45082 3.15492
      vertex -3.125 -4.45082 2
    endloop
  endfacet
  facet normal 0.707102 -0.707112 0
    outer loop
      vertex -3.125 -4.45082 3.15492
      vertex -2.42417 -3.75 2
      vertex -2.42417 -3.75 3.85484
    endloop
  endfacet
  facet normal 3.81537e-07 -0.70665 0.707563
    outer loop
      vertex -2.42417 -3.75 3.85484
      vertex 3.75 -3.74483 3.86
      vertex 0.609999 -0.600775 7
    endloop
  endfacet
  facet normal 0 -0.70665 0.707563
    outer loop
      vertex -2.42417 -3.75 3.85484
      vertex 0.609999 -0.600775 7
      vertex -0.600775 -0.600775 7
    endloop
  endfacet
  facet normal 0 -0.706422 0.707791
    outer loop
      vertex 3.75 -3.74483 3.86
      vertex -2.42417 -3.75 3.85484
      vertex 3.75 -3.75 3.85484
    endloop
  endfacet
  facet normal 5.62136e-07 -0.70665 0.707563
    outer loop
      vertex -3.78791 -3.78791 3.81698
      vertex -2.42417 -3.75 3.85484
      vertex -0.600775 -0.600775 7
    endloop
  endfacet
  facet normal 7.02102e-07 -0.706653 0.707561
    outer loop
      vertex -2.42417 -3.75 3.85484
      vertex -3.78791 -3.78791 3.81698
      vertex -3.125 -4.45082 3.15492
    endloop
  endfacet
  facet normal -0.70665 3.81537e-07 0.707563
    outer loop
      vertex -3.75 -2.42417 3.85484
      vertex -0.600775 0.609999 7
      vertex -3.74483 3.75 3.86
    endloop
  endfacet
  facet normal -0.706422 0 0.707791
    outer loop
      vertex -3.75 -2.42417 3.85484
      vertex -3.74483 3.75 3.86
      vertex -3.75 3.75 3.85484
    endloop
  endfacet
  facet normal -0.70665 0 0.707563
    outer loop
      vertex -0.600775 0.609999 7
      vertex -3.75 -2.42417 3.85484
      vertex -0.600775 -0.600775 7
    endloop
  endfacet
  facet normal -0.70665 5.62136e-07 0.707563
    outer loop
      vertex -3.75 -2.42417 3.85484
      vertex -3.78791 -3.78791 3.81698
      vertex -0.600775 -0.600775 7
    endloop
  endfacet
  facet normal -0.706653 7.02102e-07 0.707561
    outer loop
      vertex -3.78791 -3.78791 3.81698
      vertex -3.75 -2.42417 3.85484
      vertex -4.45082 -3.125 3.15492
    endloop
  endfacet
  facet normal 0.707107 -2.24424e-16 0.707107
    outer loop
      vertex 3.78791 3.78791 3.82209
      vertex 3.75 2.42417 3.86
      vertex 4.45082 3.125 3.15918
    endloop
  endfacet
  facet normal 0.707107 6.36223e-09 0.707107
    outer loop
      vertex 0.609999 0.609999 7
      vertex 3.75 2.42417 3.86
      vertex 3.78791 3.78791 3.82209
    endloop
  endfacet
  facet normal 0.707107 -0 0.707107
    outer loop
      vertex 0.609999 -0.600775 7
      vertex 3.75 2.42417 3.86
      vertex 0.609999 0.609999 7
    endloop
  endfacet
  facet normal 0.707107 0 0.707107
    outer loop
      vertex 3.75 2.42417 3.86
      vertex 0.609999 -0.600775 7
      vertex 3.75 -3.74483 3.86
    endloop
  endfacet
  facet normal -2.24424e-16 0.707107 0.707107
    outer loop
      vertex 2.42417 3.75 3.86
      vertex 3.78791 3.78791 3.82209
      vertex 3.125 4.45082 3.15918
    endloop
  endfacet
  facet normal 6.36223e-09 0.707107 0.707107
    outer loop
      vertex 2.42417 3.75 3.86
      vertex 0.609999 0.609999 7
      vertex 3.78791 3.78791 3.82209
    endloop
  endfacet
  facet normal 0 0.707107 0.707107
    outer loop
      vertex 2.42417 3.75 3.86
      vertex -0.600775 0.609999 7
      vertex 0.609999 0.609999 7
    endloop
  endfacet
  facet normal 0 0.707107 0.707107
    outer loop
      vertex -0.600775 0.609999 7
      vertex 2.42417 3.75 3.86
      vertex -3.74483 3.75 3.86
    endloop
  endfacet
  facet normal -1 0 0
    outer loop
      vertex -4.5 -0.00761414 2
      vertex -4.5 0.00761414 2.13388
      vertex -4.5 0.00761414 2
    endloop
  endfacet
  facet normal -1 -0 0
    outer loop
      vertex -4.5 0.00761414 2.13388
      vertex -4.5 -0.00761414 2
      vertex -4.5 -0.00761414 2.13388
    endloop
  endfacet
  facet normal 0 0 1
    outer loop
      vertex 0.609999 0.609999 7
      vertex 0.25 0 7
      vertex 0.609999 -0.600775 7
    endloop
  endfacet
  facet normal 0 0 1
    outer loop
      vertex 0.609999 0.609999 7
      vertex 0.0772533 0.237763 7
      vertex 0.25 0 7
    endloop
  endfacet
  facet normal -0 0 1
    outer loop
      vertex -0.600775 0.609999 7
      vertex 0.0772533 0.237763 7
      vertex 0.609999 0.609999 7
    endloop
  endfacet
  facet normal 0 0 1
    outer loop
      vertex -0.202253 0.146946 7
      vertex -0.600775 0.609999 7
      vertex -0.202253 -0.146946 7
    endloop
  endfacet
  facet normal 0 0 1
    outer loop
      vertex 0.0772533 0.237763 7
      vertex -0.600775 0.609999 7
      vertex -0.202253 0.146946 7
    endloop
  endfacet
  facet normal -0 0 1
    outer loop
      vertex 0.0772533 -0.237763 7
      vertex 0.609999 -0.600775 7
      vertex 0.25 0 7
    endloop
  endfacet
  facet normal 0 0 1
    outer loop
      vertex -0.600775 -0.600775 7
      vertex 0.0772533 -0.237763 7
      vertex -0.202253 -0.146946 7
    endloop
  endfacet
  facet normal 0 0 1
    outer loop
      vertex 0.0772533 -0.237763 7
      vertex -0.600775 -0.600775 7
      vertex 0.609999 -0.600775 7
    endloop
  endfacet
  facet normal 0 0 1
    outer loop
      vertex -0.600775 -0.600775 7
      vertex -0.202253 -0.146946 7
      vertex -0.600775 0.609999 7
    endloop
  endfacet
  facet normal 1 -0 0
    outer loop
      vertex 4.5 -0.00761414 2.13388
      vertex 4.5 0.00761414 2
      vertex 4.5 0.00761414 2.13388
    endloop
  endfacet
  facet normal 1 0 0
    outer loop
      vertex 4.5 0.00761414 2
      vertex 4.5 -0.00761414 2.13388
      vertex 4.5 -0.00761414 2
    endloop
  endfacet
  facet normal -0.809014 -0.587789 0
    outer loop
      vertex 0.25 0 2
      vertex 0.0772533 0.237763 7
      vertex 0.0772533 0.237763 2
    endloop
  endfacet
  facet normal -0.809014 -0.587789 0
    outer loop
      vertex 0.0772533 0.237763 7
      vertex 0.25 0 2
      vertex 0.25 0 7
    endloop
  endfacet
  facet normal 1 -0 0
    outer loop
      vertex -0.202253 -0.146946 7
      vertex -0.202253 0.146946 2
      vertex -0.202253 0.146946 7
    endloop
  endfacet
  facet normal 1 0 0
    outer loop
      vertex -0.202253 0.146946 2
      vertex -0.202253 -0.146946 7
      vertex -0.202253 -0.146946 2
    endloop
  endfacet
  facet normal 0.309017 -0.951057 0
    outer loop
      vertex -0.202253 0.146946 2
      vertex 0.0772533 0.237763 7
      vertex -0.202253 0.146946 7
    endloop
  endfacet
  facet normal 0.309017 -0.951057 0
    outer loop
      vertex 0.0772533 0.237763 7
      vertex -0.202253 0.146946 2
      vertex 0.0772533 0.237763 2
    endloop
  endfacet
  facet normal -0.809014 0.587789 0
    outer loop
      vertex 0.0772533 -0.237763 2
      vertex 0.25 0 7
      vertex 0.25 0 2
    endloop
  endfacet
  facet normal -0.809014 0.587789 0
    outer loop
      vertex 0.25 0 7
      vertex 0.0772533 -0.237763 2
      vertex 0.0772533 -0.237763 7
    endloop
  endfacet
  facet normal 0.309017 0.951057 -0
    outer loop
      vertex 0.0772533 -0.237763 2
      vertex -0.202253 -0.146946 7
      vertex 0.0772533 -0.237763 7
    endloop
  endfacet
  facet normal 0.309017 0.951057 0
    outer loop
      vertex -0.202253 -0.146946 7
      vertex 0.0772533 -0.237763 2
      vertex -0.202253 -0.146946 2
    endloop
  endfacet
  facet normal 0 1 -0
    outer loop
      vertex 4.33013 7.5 0
      vertex -4.33013 7.5 2
      vertex 4.33013 7.5 2
    endloop
  endfacet
  facet normal 0 1 0
    outer loop
      vertex -4.33013 7.5 2
      vertex 4.33013 7.5 0
      vertex -4.33013 7.5 0
    endloop
  endfacet
  facet normal 0.866026 0.499999 0
    outer loop
      vertex 8.66025 0 2
      vertex 4.33013 7.5 0
      vertex 4.33013 7.5 2
    endloop
  endfacet
  facet normal 0.866026 0.499999 0
    outer loop
      vertex 4.33013 7.5 0
      vertex 8.66025 0 2
      vertex 8.66025 0 0
    endloop
  endfacet
  facet normal 0 -1 0
    outer loop
      vertex -4.33013 -7.5 0
      vertex 4.33013 -7.5 2
      vertex -4.33013 -7.5 2
    endloop
  endfacet
  facet normal 0 -1 -0
    outer loop
      vertex 4.33013 -7.5 2
      vertex -4.33013 -7.5 0
      vertex 4.33013 -7.5 0
    endloop
  endfacet
  facet normal 0.866026 -0.499999 0
    outer loop
      vertex 4.33013 -7.5 2
      vertex 8.66025 0 0
      vertex 8.66025 0 2
    endloop
  endfacet
  facet normal 0.866026 -0.499999 0
    outer loop
      vertex 8.66025 0 0
      vertex 4.33013 -7.5 2
      vertex 4.33013 -7.5 0
    endloop
  endfacet
  facet normal -0.866026 0.499999 0
    outer loop
      vertex -8.66025 0 0
      vertex -4.33013 7.5 2
      vertex -4.33013 7.5 0
    endloop
  endfacet
  facet normal -0.866026 0.499999 0
    outer loop
      vertex -4.33013 7.5 2
      vertex -8.66025 0 0
      vertex -8.66025 0 2
    endloop
  endfacet
  facet normal -0.866026 -0.499999 0
    outer loop
      vertex -4.33013 -7.5 0
      vertex -8.66025 0 2
      vertex -8.66025 0 0
    endloop
  endfacet
  facet normal -0.866026 -0.499999 0
    outer loop
      vertex -8.66025 0 2
      vertex -4.33013 -7.5 0
      vertex -4.33013 -7.5 2
    endloop
  endfacet
  facet normal -0 0 1
    outer loop
      vertex -3.88261 -0.625 2
      vertex -3.75 -2.42417 2
      vertex -3.75 -0.625 2
    endloop
  endfacet
  facet normal 0 0 1
    outer loop
      vertex -3.88261 -0.625 2
      vertex -4.45082 -3.125 2
      vertex -3.75 -2.42417 2
    endloop
  endfacet
  facet normal 0 -0 1
    outer loop
      vertex -4.45082 -3.125 2
      vertex -3.88261 -0.625 2
      vertex -4.5 -0.00761414 2
    endloop
  endfacet
  facet normal 0 0 1
    outer loop
      vertex 8.66025 0 2
      vertex 4.45082 3.125 2
      vertex 4.5 0.00761414 2
    endloop
  endfacet
  facet normal 0 0 1
    outer loop
      vertex 4.33013 7.5 2
      vertex 4.45082 3.125 2
      vertex 8.66025 0 2
    endloop
  endfacet
  facet normal 0 0 1
    outer loop
      vertex 4.33013 7.5 2
      vertex 3.125 4.45082 2
      vertex 4.45082 3.125 2
    endloop
  endfacet
  facet normal -0 0 1
    outer loop
      vertex -4.33013 7.5 2
      vertex 3.125 4.45082 2
      vertex 4.33013 7.5 2
    endloop
  endfacet
  facet normal 0 0 1
    outer loop
      vertex 3.125 4.45082 2
      vertex -4.33013 7.5 2
      vertex 2.42417 3.75 2
    endloop
  endfacet
  facet normal 0 0 1
    outer loop
      vertex -3.75 3.75 2
      vertex -3.88261 0.625 2
      vertex -3.75 0.625 2
    endloop
  endfacet
  facet normal 0 0 1
    outer loop
      vertex 2.42417 3.75 2
      vertex -4.33013 7.5 2
      vertex -3.75 3.75 2
    endloop
  endfacet
  facet normal 0 0 1
    outer loop
      vertex -8.66025 0 2
      vertex -3.75 3.75 2
      vertex -4.33013 7.5 2
    endloop
  endfacet
  facet normal 0 -0 1
    outer loop
      vertex -4.5 0.00761414 2
      vertex -3.75 3.75 2
      vertex -8.66025 0 2
    endloop
  endfacet
  facet normal 0 0 1
    outer loop
      vertex -4.5 0.00761414 2
      vertex -8.66025 0 2
      vertex -4.5 -0.00761414 2
    endloop
  endfacet
  facet normal 0 0 1
    outer loop
      vertex -3.75 3.75 2
      vertex -4.5 0.00761414 2
      vertex -3.88261 0.625 2
    endloop
  endfacet
  facet normal 0 0 1
    outer loop
      vertex 4.5 -0.00761414 2
      vertex 8.66025 0 2
      vertex 4.5 0.00761414 2
    endloop
  endfacet
  facet normal 0 0 1
    outer loop
      vertex 3.75 -3.75 2
      vertex 8.66025 0 2
      vertex 4.5 -0.00761414 2
    endloop
  endfacet
  facet normal 0 0 1
    outer loop
      vertex 3.75 -3.75 2
      vertex 4.5 -0.00761414 2
      vertex 3.88261 -0.625 2
    endloop
  endfacet
  facet normal 0 0 1
    outer loop
      vertex 3.75 -3.75 2
      vertex 3.88261 -0.625 2
      vertex 3.75 -0.625 2
    endloop
  endfacet
  facet normal 0 0 1
    outer loop
      vertex 8.66025 0 2
      vertex 3.75 -3.75 2
      vertex 4.33013 -7.5 2
    endloop
  endfacet
  facet normal -0 0 1
    outer loop
      vertex -2.42417 -3.75 2
      vertex 4.33013 -7.5 2
      vertex 3.75 -3.75 2
    endloop
  endfacet
  facet normal -0 0 1
    outer loop
      vertex -3.125 -4.45082 2
      vertex 4.33013 -7.5 2
      vertex -2.42417 -3.75 2
    endloop
  endfacet
  facet normal 0 0 1
    outer loop
      vertex -3.125 -4.45082 2
      vertex -4.33013 -7.5 2
      vertex 4.33013 -7.5 2
    endloop
  endfacet
  facet normal 0 0 1
    outer loop
      vertex -4.45082 -3.125 2
      vertex -4.33013 -7.5 2
      vertex -3.125 -4.45082 2
    endloop
  endfacet
  facet normal 0 0 1
    outer loop
      vertex -4.45082 -3.125 2
      vertex -8.66025 0 2
      vertex -4.33013 -7.5 2
    endloop
  endfacet
  facet normal 0 0 1
    outer loop
      vertex -8.66025 0 2
      vertex -4.45082 -3.125 2
      vertex -4.5 -0.00761414 2
    endloop
  endfacet
  facet normal 0 0 1
    outer loop
      vertex 4.45082 3.125 2
      vertex 3.88261 0.625 2
      vertex 4.5 0.00761414 2
    endloop
  endfacet
  facet normal -0 0 1
    outer loop
      vertex 3.75 2.42417 2
      vertex 3.88261 0.625 2
      vertex 4.45082 3.125 2
    endloop
  endfacet
  facet normal 0 0 1
    outer loop
      vertex 3.88261 0.625 2
      vertex 3.75 2.42417 2
      vertex 3.75 0.625 2
    endloop
  endfacet
  facet normal 0 0 1
    outer loop
      vertex 0.0772533 0.237763 2
      vertex 0.0772533 -0.237763 2
      vertex 0.25 0 2
    endloop
  endfacet
  facet normal -0 0 1
    outer loop
      vertex -0.202253 0.146946 2
      vertex 0.0772533 -0.237763 2
      vertex 0.0772533 0.237763 2
    endloop
  endfacet
  facet normal 0 0 1
    outer loop
      vertex 0.0772533 -0.237763 2
      vertex -0.202253 0.146946 2
      vertex -0.202253 -0.146946 2
    endloop
  endfacet
endsolid OpenSCAD_Model
