solid OpenSCAD_Model
  facet normal -0.705401 0.708809 0
    outer loop
      vertex -6.34368 1.01876 57.775
      vertex -6.3416 1.02083 58.5
      vertex -6.3416 1.02083 57.775
    endloop
  endfacet
  facet normal -0.707102 0.707112 9.72536e-06
    outer loop
      vertex -6.3416 1.02083 58.5
      vertex -6.34368 1.01876 57.775
      vertex -7.06868 0.29376 58.5
    endloop
  endfacet
  facet normal -0.705401 -0.708809 -0
    outer loop
      vertex -6.3416 -1.02083 58.5
      vertex -6.34368 -1.01876 57.775
      vertex -6.3416 -1.02083 57.775
    endloop
  endfacet
  facet normal -0.707102 -0.707112 9.72536e-06
    outer loop
      vertex -6.34368 -1.01876 57.775
      vertex -6.3416 -1.02083 58.5
      vertex -7.06868 -0.29376 58.5
    endloop
  endfacet
  facet normal 0 0 -1
    outer loop
      vertex -6.34368 -1.01876 57.775
      vertex -6.125 -1.02083 57.775
      vertex -6.3416 -1.02083 57.775
    endloop
  endfacet
  facet normal 0 0 -1
    outer loop
      vertex -6.125 -1.02083 57.775
      vertex -6.34368 -1.01876 57.775
      vertex -6.125 1.02083 57.775
    endloop
  endfacet
  facet normal 0 0 -1
    outer loop
      vertex -6.34368 1.01876 57.775
      vertex -6.125 1.02083 57.775
      vertex -6.34368 -1.01876 57.775
    endloop
  endfacet
  facet normal -0 0 -1
    outer loop
      vertex -6.125 1.02083 57.775
      vertex -6.34368 1.01876 57.775
      vertex -6.3416 1.02083 57.775
    endloop
  endfacet
  facet normal -0.707107 0 -0.707107
    outer loop
      vertex -7.06868 -0.29376 58.5
      vertex -6.34368 1.01876 57.775
      vertex -6.34368 -1.01876 57.775
    endloop
  endfacet
  facet normal -0.707107 0 -0.707107
    outer loop
      vertex -6.34368 1.01876 57.775
      vertex -7.06868 -0.29376 58.5
      vertex -7.06868 0.29376 58.5
    endloop
  endfacet
  facet normal 0 -1 0
    outer loop
      vertex -6.3416 -1.02083 57.775
      vertex -6.125 -1.02083 58.5
      vertex -6.3416 -1.02083 58.5
    endloop
  endfacet
  facet normal 0 -1 -0
    outer loop
      vertex -6.125 -1.02083 58.5
      vertex -6.3416 -1.02083 57.775
      vertex -6.125 -1.02083 57.775
    endloop
  endfacet
  facet normal 0 1 -0
    outer loop
      vertex -6.125 1.02083 57.775
      vertex -6.3416 1.02083 58.5
      vertex -6.125 1.02083 58.5
    endloop
  endfacet
  facet normal 0 1 0
    outer loop
      vertex -6.3416 1.02083 58.5
      vertex -6.125 1.02083 57.775
      vertex -6.3416 1.02083 57.775
    endloop
  endfacet
  facet normal 0.705401 0.708809 0
    outer loop
      vertex 6.3416 1.02083 58.5
      vertex 6.34368 1.01876 57.775
      vertex 6.3416 1.02083 57.775
    endloop
  endfacet
  facet normal 0.707102 0.707112 9.72536e-06
    outer loop
      vertex 6.34368 1.01876 57.775
      vertex 6.3416 1.02083 58.5
      vertex 7.06868 0.29376 58.5
    endloop
  endfacet
  facet normal 0 0 -1
    outer loop
      vertex 6.125 -1.02083 57.775
      vertex 6.34368 -1.01876 57.775
      vertex 6.3416 -1.02083 57.775
    endloop
  endfacet
  facet normal -0 0 -1
    outer loop
      vertex 6.34368 -1.01876 57.775
      vertex 6.125 -1.02083 57.775
      vertex 6.34368 1.01876 57.775
    endloop
  endfacet
  facet normal 0 0 -1
    outer loop
      vertex 6.125 1.02083 57.775
      vertex 6.34368 1.01876 57.775
      vertex 6.125 -1.02083 57.775
    endloop
  endfacet
  facet normal 0 0 -1
    outer loop
      vertex 6.34368 1.01876 57.775
      vertex 6.125 1.02083 57.775
      vertex 6.3416 1.02083 57.775
    endloop
  endfacet
  facet normal 0.707102 -0.707112 9.72536e-06
    outer loop
      vertex 6.3416 -1.02083 58.5
      vertex 6.34368 -1.01876 57.775
      vertex 7.06868 -0.29376 58.5
    endloop
  endfacet
  facet normal 0.705401 -0.708809 0
    outer loop
      vertex 6.34368 -1.01876 57.775
      vertex 6.3416 -1.02083 58.5
      vertex 6.3416 -1.02083 57.775
    endloop
  endfacet
  facet normal 0.707107 0 -0.707107
    outer loop
      vertex 6.34368 -1.01876 57.775
      vertex 7.06868 0.29376 58.5
      vertex 7.06868 -0.29376 58.5
    endloop
  endfacet
  facet normal 0.707107 0 -0.707107
    outer loop
      vertex 7.06868 0.29376 58.5
      vertex 6.34368 -1.01876 57.775
      vertex 6.34368 1.01876 57.775
    endloop
  endfacet
  facet normal 0 -1 0
    outer loop
      vertex 6.125 -1.02083 57.775
      vertex 6.3416 -1.02083 58.5
      vertex 6.125 -1.02083 58.5
    endloop
  endfacet
  facet normal 0 -1 -0
    outer loop
      vertex 6.3416 -1.02083 58.5
      vertex 6.125 -1.02083 57.775
      vertex 6.3416 -1.02083 57.775
    endloop
  endfacet
  facet normal 0 1 -0
    outer loop
      vertex 6.3416 1.02083 57.775
      vertex 6.125 1.02083 58.5
      vertex 6.3416 1.02083 58.5
    endloop
  endfacet
  facet normal 0 1 0
    outer loop
      vertex 6.125 1.02083 58.5
      vertex 6.3416 1.02083 57.775
      vertex 6.125 1.02083 57.775
    endloop
  endfacet
  facet normal -1 0 0
    outer loop
      vertex -6.125 6.125 0
      vertex -6.125 1.02083 57.775
      vertex -6.125 6.125 58.5
    endloop
  endfacet
  facet normal -1 0 0
    outer loop
      vertex -6.125 -3.95949 0
      vertex -6.125 1.02083 57.775
      vertex -6.125 6.125 0
    endloop
  endfacet
  facet normal -1 -0 0
    outer loop
      vertex -6.125 1.02083 57.775
      vertex -6.125 -3.95949 0
      vertex -6.125 -1.02083 57.775
    endloop
  endfacet
  facet normal -1 0 0
    outer loop
      vertex -6.125 -3.95949 58.5
      vertex -6.125 -1.02083 57.775
      vertex -6.125 -3.95949 0
    endloop
  endfacet
  facet normal -1 0 0
    outer loop
      vertex -6.125 -1.02083 57.775
      vertex -6.125 -3.95949 58.5
      vertex -6.125 -1.02083 58.5
    endloop
  endfacet
  facet normal -1 -0 0
    outer loop
      vertex -6.125 6.125 58.5
      vertex -6.125 1.02083 57.775
      vertex -6.125 1.02083 58.5
    endloop
  endfacet
  facet normal 1 0 0
    outer loop
      vertex 6.125 -1.02083 58.5
      vertex 6.125 -6.125 58.5
      vertex 6.125 -1.02083 57.775
    endloop
  endfacet
  facet normal 1 0 0
    outer loop
      vertex 6.125 1.02083 57.775
      vertex 6.125 3.95949 58.5
      vertex 6.125 1.02083 58.5
    endloop
  endfacet
  facet normal 1 0 0
    outer loop
      vertex 6.125 3.95949 58.5
      vertex 6.125 1.02083 57.775
      vertex 6.125 3.95949 0
    endloop
  endfacet
  facet normal 1 -0 0
    outer loop
      vertex 6.125 -1.02083 57.775
      vertex 6.125 3.95949 0
      vertex 6.125 1.02083 57.775
    endloop
  endfacet
  facet normal 1 0 0
    outer loop
      vertex 6.125 -6.125 0
      vertex 6.125 -1.02083 57.775
      vertex 6.125 -6.125 58.5
    endloop
  endfacet
  facet normal 1 0 0
    outer loop
      vertex 6.125 -1.02083 57.775
      vertex 6.125 -6.125 0
      vertex 6.125 3.95949 0
    endloop
  endfacet
  facet normal 0 1 -0
    outer loop
      vertex 3.95949 6.125 0
      vertex -6.125 6.125 58.5
      vertex 3.95949 6.125 58.5
    endloop
  endfacet
  facet normal 0 1 0
    outer loop
      vertex -6.125 6.125 58.5
      vertex 3.95949 6.125 0
      vertex -6.125 6.125 0
    endloop
  endfacet
  facet normal 0 0 -1
    outer loop
      vertex -5.10417 -7.26968 0
      vertex -7.26968 -5.10417 0
      vertex -6.125 -3.95949 0
    endloop
  endfacet
  facet normal 0 0 -1
    outer loop
      vertex 4.285 -4.28199 0
      vertex 6.125 3.95949 0
      vertex 6.125 -6.125 0
    endloop
  endfacet
  facet normal -0 0 -1
    outer loop
      vertex 6.125 3.95949 0
      vertex 4.285 -4.28199 0
      vertex 4.285 4.285 0
    endloop
  endfacet
  facet normal 0 0 -1
    outer loop
      vertex -3.95949 -6.125 0
      vertex 4.285 -4.28199 0
      vertex 6.125 -6.125 0
    endloop
  endfacet
  facet normal 0 0 -1
    outer loop
      vertex -3.95949 -6.125 0
      vertex -4.28199 -4.28199 0
      vertex 4.285 -4.28199 0
    endloop
  endfacet
  facet normal 0 0 -1
    outer loop
      vertex -3.95949 -6.125 0
      vertex -6.125 -3.95949 0
      vertex -4.28199 -4.28199 0
    endloop
  endfacet
  facet normal 0 0 -1
    outer loop
      vertex -6.125 -3.95949 0
      vertex -3.95949 -6.125 0
      vertex -5.10417 -7.26968 0
    endloop
  endfacet
  facet normal -0 0 -1
    outer loop
      vertex 7.26968 5.10417 0
      vertex 6.125 3.95949 0
      vertex 5.10417 7.26968 0
    endloop
  endfacet
  facet normal 0 0 -1
    outer loop
      vertex 3.95949 6.125 0
      vertex 6.125 3.95949 0
      vertex 4.285 4.285 0
    endloop
  endfacet
  facet normal 0 0 -1
    outer loop
      vertex 6.125 3.95949 0
      vertex 3.95949 6.125 0
      vertex 5.10417 7.26968 0
    endloop
  endfacet
  facet normal 0 0 -1
    outer loop
      vertex -4.28199 4.285 0
      vertex 3.95949 6.125 0
      vertex 4.285 4.285 0
    endloop
  endfacet
  facet normal 0 0 -1
    outer loop
      vertex -4.28199 -4.28199 0
      vertex -6.125 -3.95949 0
      vertex -4.28199 4.285 0
    endloop
  endfacet
  facet normal 0 0 -1
    outer loop
      vertex -4.28199 4.285 0
      vertex -6.125 6.125 0
      vertex 3.95949 6.125 0
    endloop
  endfacet
  facet normal 0 0 -1
    outer loop
      vertex -6.125 6.125 0
      vertex -4.28199 4.285 0
      vertex -6.125 -3.95949 0
    endloop
  endfacet
  facet normal 0 -1 0
    outer loop
      vertex -3.95949 -6.125 0
      vertex 6.125 -6.125 58.5
      vertex -3.95949 -6.125 58.5
    endloop
  endfacet
  facet normal 0 -1 -0
    outer loop
      vertex 6.125 -6.125 58.5
      vertex -3.95949 -6.125 0
      vertex 6.125 -6.125 0
    endloop
  endfacet
  facet normal 0.707107 0.707107 0
    outer loop
      vertex 7.26968 5.10417 58.5
      vertex 5.10417 7.26968 0
      vertex 5.10417 7.26968 58.5
    endloop
  endfacet
  facet normal 0.707107 0.707107 0
    outer loop
      vertex 5.10417 7.26968 0
      vertex 7.26968 5.10417 58.5
      vertex 7.26968 5.10417 0
    endloop
  endfacet
  facet normal 0.707107 -0.707107 0
    outer loop
      vertex 6.125 3.95949 0
      vertex 7.26968 5.10417 58.5
      vertex 6.125 3.95949 58.5
    endloop
  endfacet
  facet normal 0.707107 -0.707107 0
    outer loop
      vertex 7.26968 5.10417 58.5
      vertex 6.125 3.95949 0
      vertex 7.26968 5.10417 0
    endloop
  endfacet
  facet normal -0.707107 0.707107 0
    outer loop
      vertex 3.95949 6.125 0
      vertex 5.10417 7.26968 58.5
      vertex 5.10417 7.26968 0
    endloop
  endfacet
  facet normal -0.707107 0.707107 0
    outer loop
      vertex 5.10417 7.26968 58.5
      vertex 3.95949 6.125 0
      vertex 3.95949 6.125 58.5
    endloop
  endfacet
  facet normal -0.707107 0.707107 0
    outer loop
      vertex -6.125 -3.95949 0
      vertex -7.26968 -5.10417 58.5
      vertex -6.125 -3.95949 58.5
    endloop
  endfacet
  facet normal -0.707107 0.707107 0
    outer loop
      vertex -7.26968 -5.10417 58.5
      vertex -6.125 -3.95949 0
      vertex -7.26968 -5.10417 0
    endloop
  endfacet
  facet normal -0.707107 -0.707107 0
    outer loop
      vertex -5.10417 -7.26968 0
      vertex -7.26968 -5.10417 58.5
      vertex -7.26968 -5.10417 0
    endloop
  endfacet
  facet normal -0.707107 -0.707107 0
    outer loop
      vertex -7.26968 -5.10417 58.5
      vertex -5.10417 -7.26968 0
      vertex -5.10417 -7.26968 58.5
    endloop
  endfacet
  facet normal 0.707107 -0.707107 0
    outer loop
      vertex -5.10417 -7.26968 58.5
      vertex -3.95949 -6.125 0
      vertex -3.95949 -6.125 58.5
    endloop
  endfacet
  facet normal 0.707107 -0.707107 0
    outer loop
      vertex -3.95949 -6.125 0
      vertex -5.10417 -7.26968 58.5
      vertex -5.10417 -7.26968 0
    endloop
  endfacet
  facet normal 0 0.706529 -0.707684
    outer loop
      vertex 4.285 -4.28199 0
      vertex 0 0 4.275
      vertex 0.00999928 0 4.275
    endloop
  endfacet
  facet normal 0 0.706529 -0.707684
    outer loop
      vertex 0 0 4.275
      vertex 4.285 -4.28199 0
      vertex -4.28199 -4.28199 0
    endloop
  endfacet
  facet normal 0.706529 0 -0.707684
    outer loop
      vertex -4.28199 -4.28199 0
      vertex 0 0.00999928 4.275
      vertex 0 0 4.275
    endloop
  endfacet
  facet normal 0.706529 0 -0.707684
    outer loop
      vertex 0 0.00999928 4.275
      vertex -4.28199 -4.28199 0
      vertex -4.28199 4.285 0
    endloop
  endfacet
  facet normal -0.707107 0 -0.707107
    outer loop
      vertex 0.00999928 0 4.275
      vertex 4.285 4.285 0
      vertex 4.285 -4.28199 0
    endloop
  endfacet
  facet normal -0.707107 0 -0.707107
    outer loop
      vertex 4.285 4.285 0
      vertex 0.00999928 0 4.275
      vertex 0.00999928 0.00999928 4.275
    endloop
  endfacet
  facet normal 0 -0.707107 -0.707107
    outer loop
      vertex 0 0.00999928 4.275
      vertex 4.285 4.285 0
      vertex 0.00999928 0.00999928 4.275
    endloop
  endfacet
  facet normal -0 -0.707107 -0.707107
    outer loop
      vertex 4.285 4.285 0
      vertex 0 0.00999928 4.275
      vertex -4.28199 4.285 0
    endloop
  endfacet
  facet normal 0 0 -1
    outer loop
      vertex 0 0 4.275
      vertex 0.00999928 0.00999928 4.275
      vertex 0.00999928 0 4.275
    endloop
  endfacet
  facet normal -0 0 -1
    outer loop
      vertex 0.00999928 0.00999928 4.275
      vertex 0 0 4.275
      vertex 0 0.00999928 4.275
    endloop
  endfacet
  facet normal 0 0 1
    outer loop
      vertex -7.06868 0.29376 58.5
      vertex -6.125 1.02083 58.5
      vertex -6.3416 1.02083 58.5
    endloop
  endfacet
  facet normal 0 0 1
    outer loop
      vertex -6.125 1.02083 58.5
      vertex -7.06868 0.29376 58.5
      vertex -6.125 -1.02083 58.5
    endloop
  endfacet
  facet normal -0 0 1
    outer loop
      vertex -7.06868 -0.29376 58.5
      vertex -6.125 -1.02083 58.5
      vertex -7.06868 0.29376 58.5
    endloop
  endfacet
  facet normal 0 0 1
    outer loop
      vertex -6.125 -1.02083 58.5
      vertex -7.06868 -0.29376 58.5
      vertex -6.3416 -1.02083 58.5
    endloop
  endfacet
  facet normal -0 0 1
    outer loop
      vertex 4.56773 2.03368 58.5
      vertex 6.125 1.02083 58.5
      vertex 6.125 3.95949 58.5
    endloop
  endfacet
  facet normal 0 0 1
    outer loop
      vertex 6.125 1.02083 58.5
      vertex 6.07725 0.237763 58.5
      vertex 6.10644 0.226206 58.5
    endloop
  endfacet
  facet normal 0 0 1
    outer loop
      vertex 5.10417 7.26968 58.5
      vertex 6.125 3.95949 58.5
      vertex 7.26968 5.10417 58.5
    endloop
  endfacet
  facet normal -0 0 1
    outer loop
      vertex 3.95949 6.125 58.5
      vertex 6.125 3.95949 58.5
      vertex 5.10417 7.26968 58.5
    endloop
  endfacet
  facet normal -0 -0 1
    outer loop
      vertex 4.89074 1.03956 58.5
      vertex 6.125 1.02083 58.5
      vertex 4.56773 2.03368 58.5
    endloop
  endfacet
  facet normal 0 0 1
    outer loop
      vertex 6.125 1.02083 58.5
      vertex 4.93852 0.584928 58.5
      vertex 6.07725 0.237763 58.5
    endloop
  endfacet
  facet normal 0 -0 1
    outer loop
      vertex 4.93852 0.584928 58.5
      vertex 6.125 1.02083 58.5
      vertex 4.89074 1.03956 58.5
    endloop
  endfacet
  facet normal 0 0 1
    outer loop
      vertex 6.125 3.95949 58.5
      vertex 4.04508 2.93893 58.5
      vertex 4.56773 2.03368 58.5
    endloop
  endfacet
  facet normal 0 0 1
    outer loop
      vertex 3.34565 3.71572 58.5
      vertex 6.125 3.95949 58.5
      vertex 3.95949 6.125 58.5
    endloop
  endfacet
  facet normal 0 0 1
    outer loop
      vertex 6.125 3.95949 58.5
      vertex 3.34565 3.71572 58.5
      vertex 4.04508 2.93893 58.5
    endloop
  endfacet
  facet normal 0 0 1
    outer loop
      vertex 3.95949 6.125 58.5
      vertex 2.5 4.33013 58.5
      vertex 3.34565 3.71572 58.5
    endloop
  endfacet
  facet normal 0 0 1
    outer loop
      vertex 3.95949 6.125 58.5
      vertex 1.54508 4.75528 58.5
      vertex 2.5 4.33013 58.5
    endloop
  endfacet
  facet normal 0 0 1
    outer loop
      vertex 3.95949 6.125 58.5
      vertex 0.522642 4.97261 58.5
      vertex 1.54508 4.75528 58.5
    endloop
  endfacet
  facet normal 0 0 1
    outer loop
      vertex 3.95949 6.125 58.5
      vertex -0.522642 4.97261 58.5
      vertex 0.522642 4.97261 58.5
    endloop
  endfacet
  facet normal -0 0 1
    outer loop
      vertex -6.125 6.125 58.5
      vertex -0.522642 4.97261 58.5
      vertex 3.95949 6.125 58.5
    endloop
  endfacet
  facet normal 0 0 1
    outer loop
      vertex -0.522642 4.97261 58.5
      vertex -6.125 6.125 58.5
      vertex -1.54508 4.75528 58.5
    endloop
  endfacet
  facet normal 0 0 1
    outer loop
      vertex -6.125 6.125 58.5
      vertex -2.5 4.33013 58.5
      vertex -1.54508 4.75528 58.5
    endloop
  endfacet
  facet normal 0 0 1
    outer loop
      vertex -6.125 6.125 58.5
      vertex -3.34565 3.71572 58.5
      vertex -2.5 4.33013 58.5
    endloop
  endfacet
  facet normal 0 0 1
    outer loop
      vertex -6.125 6.125 58.5
      vertex -4.04508 2.93893 58.5
      vertex -3.34565 3.71572 58.5
    endloop
  endfacet
  facet normal 0 0 1
    outer loop
      vertex -6.125 6.125 58.5
      vertex -4.56773 2.03368 58.5
      vertex -4.04508 2.93893 58.5
    endloop
  endfacet
  facet normal 0 0 1
    outer loop
      vertex -6.125 1.02083 58.5
      vertex -4.56773 2.03368 58.5
      vertex -6.125 6.125 58.5
    endloop
  endfacet
  facet normal 0 0 1
    outer loop
      vertex -4.56773 2.03368 58.5
      vertex -6.125 1.02083 58.5
      vertex -4.89074 1.03956 58.5
    endloop
  endfacet
  facet normal 0 0 1
    outer loop
      vertex -4.89074 1.03956 58.5
      vertex -6.125 1.02083 58.5
      vertex -5 0 58.5
    endloop
  endfacet
  facet normal 0 0 1
    outer loop
      vertex -6.125 -1.02083 58.5
      vertex -5 0 58.5
      vertex -6.125 1.02083 58.5
    endloop
  endfacet
  facet normal 0 0 1
    outer loop
      vertex -6.125 -3.95949 58.5
      vertex -5 0 58.5
      vertex -6.125 -1.02083 58.5
    endloop
  endfacet
  facet normal 0 0 1
    outer loop
      vertex -5 0 58.5
      vertex -6.125 -3.95949 58.5
      vertex -5.10417 -7.26968 58.5
    endloop
  endfacet
  facet normal 0 0 1
    outer loop
      vertex -5.10417 -7.26968 58.5
      vertex -6.125 -3.95949 58.5
      vertex -7.26968 -5.10417 58.5
    endloop
  endfacet
  facet normal 0 0 1
    outer loop
      vertex 6.18224 0.171136 58.5
      vertex 7.06868 0.29376 58.5
      vertex 6.3416 1.02083 58.5
    endloop
  endfacet
  facet normal 0 -0 1
    outer loop
      vertex 6.23244 0.0920305 58.5
      vertex 7.06868 0.29376 58.5
      vertex 6.21908 0.120438 58.5
    endloop
  endfacet
  facet normal -0 0 1
    outer loop
      vertex 6.24803 -0.031333 58.5
      vertex 7.06868 -0.29376 58.5
      vertex 6.25 0 58.5
    endloop
  endfacet
  facet normal 0 0 1
    outer loop
      vertex 7.06868 0.29376 58.5
      vertex 6.25 0 58.5
      vertex 7.06868 -0.29376 58.5
    endloop
  endfacet
  facet normal 0 -0 1
    outer loop
      vertex 6.25 0 58.5
      vertex 7.06868 0.29376 58.5
      vertex 6.24803 0.031333 58.5
    endloop
  endfacet
  facet normal 0 -0 1
    outer loop
      vertex 6.24803 0.031333 58.5
      vertex 7.06868 0.29376 58.5
      vertex 6.24215 0.0621719 58.5
    endloop
  endfacet
  facet normal 0 -0 1
    outer loop
      vertex 6.24215 0.0621719 58.5
      vertex 7.06868 0.29376 58.5
      vertex 6.23244 0.0920305 58.5
    endloop
  endfacet
  facet normal 0 0 1
    outer loop
      vertex 7.06868 0.29376 58.5
      vertex 6.20225 0.146946 58.5
      vertex 6.21908 0.120438 58.5
    endloop
  endfacet
  facet normal 0 0 1
    outer loop
      vertex 7.06868 0.29376 58.5
      vertex 6.18224 0.171136 58.5
      vertex 6.20225 0.146946 58.5
    endloop
  endfacet
  facet normal 0 0 1
    outer loop
      vertex 6.3416 1.02083 58.5
      vertex 6.15936 0.192628 58.5
      vertex 6.18224 0.171136 58.5
    endloop
  endfacet
  facet normal 0 0 1
    outer loop
      vertex 6.3416 1.02083 58.5
      vertex 6.13396 0.211082 58.5
      vertex 6.15936 0.192628 58.5
    endloop
  endfacet
  facet normal 0 0 1
    outer loop
      vertex 6.10644 0.226206 58.5
      vertex 6.3416 1.02083 58.5
      vertex 6.125 1.02083 58.5
    endloop
  endfacet
  facet normal 0 0 1
    outer loop
      vertex 6.3416 1.02083 58.5
      vertex 6.10644 0.226206 58.5
      vertex 6.13396 0.211082 58.5
    endloop
  endfacet
  facet normal -0 0 1
    outer loop
      vertex 6.24215 -0.0621719 58.5
      vertex 7.06868 -0.29376 58.5
      vertex 6.24803 -0.031333 58.5
    endloop
  endfacet
  facet normal -0 0 1
    outer loop
      vertex 6.23244 -0.0920305 58.5
      vertex 7.06868 -0.29376 58.5
      vertex 6.24215 -0.0621719 58.5
    endloop
  endfacet
  facet normal -0 0 1
    outer loop
      vertex 6.21908 -0.120438 58.5
      vertex 7.06868 -0.29376 58.5
      vertex 6.23244 -0.0920305 58.5
    endloop
  endfacet
  facet normal -0 0 1
    outer loop
      vertex 6.20225 -0.146946 58.5
      vertex 7.06868 -0.29376 58.5
      vertex 6.21908 -0.120438 58.5
    endloop
  endfacet
  facet normal -0 0 1
    outer loop
      vertex 6.18224 -0.171136 58.5
      vertex 7.06868 -0.29376 58.5
      vertex 6.20225 -0.146946 58.5
    endloop
  endfacet
  facet normal 0 0 1
    outer loop
      vertex 7.06868 -0.29376 58.5
      vertex 6.18224 -0.171136 58.5
      vertex 6.3416 -1.02083 58.5
    endloop
  endfacet
  facet normal -0 0 1
    outer loop
      vertex 6.15936 -0.192628 58.5
      vertex 6.3416 -1.02083 58.5
      vertex 6.18224 -0.171136 58.5
    endloop
  endfacet
  facet normal -0 0 1
    outer loop
      vertex 6.13396 -0.211082 58.5
      vertex 6.3416 -1.02083 58.5
      vertex 6.15936 -0.192628 58.5
    endloop
  endfacet
  facet normal -0 0 1
    outer loop
      vertex 6.10644 -0.226206 58.5
      vertex 6.3416 -1.02083 58.5
      vertex 6.13396 -0.211082 58.5
    endloop
  endfacet
  facet normal -0 0 1
    outer loop
      vertex 6.07725 -0.237763 58.5
      vertex 6.3416 -1.02083 58.5
      vertex 6.10644 -0.226206 58.5
    endloop
  endfacet
  facet normal 0 0 1
    outer loop
      vertex 6.3416 -1.02083 58.5
      vertex 6.07725 -0.237763 58.5
      vertex 6.125 -1.02083 58.5
    endloop
  endfacet
  facet normal -0 0 1
    outer loop
      vertex 4.93852 -0.584928 58.5
      vertex 6.125 -1.02083 58.5
      vertex 6.07725 -0.237763 58.5
    endloop
  endfacet
  facet normal 0 0 1
    outer loop
      vertex 6.125 -1.02083 58.5
      vertex 4.93852 -0.584928 58.5
      vertex 4.89074 -1.03956 58.5
    endloop
  endfacet
  facet normal 0 0 1
    outer loop
      vertex 6.125 -1.02083 58.5
      vertex 4.89074 -1.03956 58.5
      vertex 4.56773 -2.03368 58.5
    endloop
  endfacet
  facet normal 0 0 1
    outer loop
      vertex 6.125 -1.02083 58.5
      vertex 4.56773 -2.03368 58.5
      vertex 6.125 -6.125 58.5
    endloop
  endfacet
  facet normal -0 0 1
    outer loop
      vertex 4.04508 -2.93893 58.5
      vertex 6.125 -6.125 58.5
      vertex 4.56773 -2.03368 58.5
    endloop
  endfacet
  facet normal -0 0 1
    outer loop
      vertex 3.34565 -3.71572 58.5
      vertex 6.125 -6.125 58.5
      vertex 4.04508 -2.93893 58.5
    endloop
  endfacet
  facet normal -0 0 1
    outer loop
      vertex 2.5 -4.33013 58.5
      vertex 6.125 -6.125 58.5
      vertex 3.34565 -3.71572 58.5
    endloop
  endfacet
  facet normal -0 0 1
    outer loop
      vertex 1.54508 -4.75528 58.5
      vertex 6.125 -6.125 58.5
      vertex 2.5 -4.33013 58.5
    endloop
  endfacet
  facet normal -0 0 1
    outer loop
      vertex 0.522642 -4.97261 58.5
      vertex 6.125 -6.125 58.5
      vertex 1.54508 -4.75528 58.5
    endloop
  endfacet
  facet normal 0 0 1
    outer loop
      vertex -3.95949 -6.125 58.5
      vertex 0.522642 -4.97261 58.5
      vertex -0.522642 -4.97261 58.5
    endloop
  endfacet
  facet normal 0 0 1
    outer loop
      vertex 0.522642 -4.97261 58.5
      vertex -3.95949 -6.125 58.5
      vertex 6.125 -6.125 58.5
    endloop
  endfacet
  facet normal 0 0 1
    outer loop
      vertex -1.54508 -4.75528 58.5
      vertex -3.95949 -6.125 58.5
      vertex -0.522642 -4.97261 58.5
    endloop
  endfacet
  facet normal 0 0 1
    outer loop
      vertex -2.5 -4.33013 58.5
      vertex -3.95949 -6.125 58.5
      vertex -1.54508 -4.75528 58.5
    endloop
  endfacet
  facet normal 0 0 1
    outer loop
      vertex -3.34565 -3.71572 58.5
      vertex -3.95949 -6.125 58.5
      vertex -2.5 -4.33013 58.5
    endloop
  endfacet
  facet normal 0 0 1
    outer loop
      vertex -4.04508 -2.93893 58.5
      vertex -3.95949 -6.125 58.5
      vertex -3.34565 -3.71572 58.5
    endloop
  endfacet
  facet normal 0 0 1
    outer loop
      vertex -5.10417 -7.26968 58.5
      vertex -4.04508 -2.93893 58.5
      vertex -4.56773 -2.03368 58.5
    endloop
  endfacet
  facet normal 0 0 1
    outer loop
      vertex -5.10417 -7.26968 58.5
      vertex -4.56773 -2.03368 58.5
      vertex -4.89074 -1.03956 58.5
    endloop
  endfacet
  facet normal 0 0 1
    outer loop
      vertex -4.04508 -2.93893 58.5
      vertex -5.10417 -7.26968 58.5
      vertex -3.95949 -6.125 58.5
    endloop
  endfacet
  facet normal 0 0 1
    outer loop
      vertex -5.10417 -7.26968 58.5
      vertex -4.89074 -1.03956 58.5
      vertex -5 0 58.5
    endloop
  endfacet
  facet normal 0.994523 0.10452 0
    outer loop
      vertex 4.93852 0.584928 93.49
      vertex 4.89074 1.03956 58.5
      vertex 4.89074 1.03956 93.49
    endloop
  endfacet
  facet normal 0.994523 0.10452 0
    outer loop
      vertex 4.89074 1.03956 58.5
      vertex 4.93852 0.584928 93.49
      vertex 4.93852 0.584928 58.5
    endloop
  endfacet
  facet normal -0.994522 0.104526 0
    outer loop
      vertex -5 0 58.5
      vertex -4.89074 1.03956 93.49
      vertex -4.89074 1.03956 58.5
    endloop
  endfacet
  facet normal -0.994522 0.104526 0
    outer loop
      vertex -4.89074 1.03956 93.49
      vertex -5 0 58.5
      vertex -5 0 93.49
    endloop
  endfacet
  facet normal 0 1 -0
    outer loop
      vertex 0.522642 4.97261 58.5
      vertex -0.522642 4.97261 93.49
      vertex 0.522642 4.97261 93.49
    endloop
  endfacet
  facet normal 0 1 0
    outer loop
      vertex -0.522642 4.97261 93.49
      vertex 0.522642 4.97261 58.5
      vertex -0.522642 4.97261 58.5
    endloop
  endfacet
  facet normal 0 -1 0
    outer loop
      vertex -0.522642 -4.97261 58.5
      vertex 0.522642 -4.97261 93.49
      vertex -0.522642 -4.97261 93.49
    endloop
  endfacet
  facet normal 0 -1 -0
    outer loop
      vertex 0.522642 -4.97261 93.49
      vertex -0.522642 -4.97261 58.5
      vertex 0.522642 -4.97261 58.5
    endloop
  endfacet
  facet normal 0.587791 0.809013 -0
    outer loop
      vertex 3.34565 3.71572 58.5
      vertex 2.5 4.33013 93.49
      vertex 3.34565 3.71572 93.49
    endloop
  endfacet
  facet normal 0.587791 0.809013 0
    outer loop
      vertex 2.5 4.33013 93.49
      vertex 3.34565 3.71572 58.5
      vertex 2.5 4.33013 58.5
    endloop
  endfacet
  facet normal 0.40673 0.913548 -0
    outer loop
      vertex 2.5 4.33013 58.5
      vertex 1.54508 4.75528 93.49
      vertex 2.5 4.33013 93.49
    endloop
  endfacet
  facet normal 0.40673 0.913548 0
    outer loop
      vertex 1.54508 4.75528 93.49
      vertex 2.5 4.33013 58.5
      vertex 1.54508 4.75528 58.5
    endloop
  endfacet
  facet normal -0.587791 0.809013 0
    outer loop
      vertex -2.5 4.33013 58.5
      vertex -3.34565 3.71572 93.49
      vertex -2.5 4.33013 93.49
    endloop
  endfacet
  facet normal -0.587791 0.809013 0
    outer loop
      vertex -3.34565 3.71572 93.49
      vertex -2.5 4.33013 58.5
      vertex -3.34565 3.71572 58.5
    endloop
  endfacet
  facet normal -0.207915 0.978147 0
    outer loop
      vertex -0.522642 4.97261 58.5
      vertex -1.54508 4.75528 93.49
      vertex -0.522642 4.97261 93.49
    endloop
  endfacet
  facet normal -0.207915 0.978147 0
    outer loop
      vertex -1.54508 4.75528 93.49
      vertex -0.522642 4.97261 58.5
      vertex -1.54508 4.75528 58.5
    endloop
  endfacet
  facet normal 0.866024 0.500003 0
    outer loop
      vertex 4.56773 2.03368 93.49
      vertex 4.04508 2.93893 58.5
      vertex 4.04508 2.93893 93.49
    endloop
  endfacet
  facet normal 0.866024 0.500003 0
    outer loop
      vertex 4.04508 2.93893 58.5
      vertex 4.56773 2.03368 93.49
      vertex 4.56773 2.03368 58.5
    endloop
  endfacet
  facet normal 0.951056 0.309018 0
    outer loop
      vertex 4.89074 1.03956 93.49
      vertex 4.56773 2.03368 58.5
      vertex 4.56773 2.03368 93.49
    endloop
  endfacet
  facet normal 0.951056 0.309018 0
    outer loop
      vertex 4.56773 2.03368 58.5
      vertex 4.89074 1.03956 93.49
      vertex 4.89074 1.03956 58.5
    endloop
  endfacet
  facet normal 0.743142 0.669133 0
    outer loop
      vertex 4.04508 2.93893 93.49
      vertex 3.34565 3.71572 58.5
      vertex 3.34565 3.71572 93.49
    endloop
  endfacet
  facet normal 0.743142 0.669133 0
    outer loop
      vertex 3.34565 3.71572 58.5
      vertex 4.04508 2.93893 93.49
      vertex 4.04508 2.93893 58.5
    endloop
  endfacet
  facet normal 0.207915 0.978147 -0
    outer loop
      vertex 1.54508 4.75528 58.5
      vertex 0.522642 4.97261 93.49
      vertex 1.54508 4.75528 93.49
    endloop
  endfacet
  facet normal 0.207915 0.978147 0
    outer loop
      vertex 0.522642 4.97261 93.49
      vertex 1.54508 4.75528 58.5
      vertex 0.522642 4.97261 58.5
    endloop
  endfacet
  facet normal -0.866024 0.500003 0
    outer loop
      vertex -4.56773 2.03368 58.5
      vertex -4.04508 2.93893 93.49
      vertex -4.04508 2.93893 58.5
    endloop
  endfacet
  facet normal -0.866024 0.500003 0
    outer loop
      vertex -4.04508 2.93893 93.49
      vertex -4.56773 2.03368 58.5
      vertex -4.56773 2.03368 93.49
    endloop
  endfacet
  facet normal -0.743142 0.669133 0
    outer loop
      vertex -4.04508 2.93893 58.5
      vertex -3.34565 3.71572 93.49
      vertex -3.34565 3.71572 58.5
    endloop
  endfacet
  facet normal -0.743142 0.669133 0
    outer loop
      vertex -3.34565 3.71572 93.49
      vertex -4.04508 2.93893 58.5
      vertex -4.04508 2.93893 93.49
    endloop
  endfacet
  facet normal -0.951056 0.309018 0
    outer loop
      vertex -4.89074 1.03956 58.5
      vertex -4.56773 2.03368 93.49
      vertex -4.56773 2.03368 58.5
    endloop
  endfacet
  facet normal -0.951056 0.309018 0
    outer loop
      vertex -4.56773 2.03368 93.49
      vertex -4.89074 1.03956 58.5
      vertex -4.89074 1.03956 93.49
    endloop
  endfacet
  facet normal 0 0 1
    outer loop
      vertex 6.24803 0.031333 93.49
      vertex 6.24803 -0.031333 93.49
      vertex 6.25 0 93.49
    endloop
  endfacet
  facet normal 0 0 1
    outer loop
      vertex 6.24215 0.0621719 93.49
      vertex 6.24803 -0.031333 93.49
      vertex 6.24803 0.031333 93.49
    endloop
  endfacet
  facet normal 0 0 1
    outer loop
      vertex 6.24215 0.0621719 93.49
      vertex 6.24215 -0.0621719 93.49
      vertex 6.24803 -0.031333 93.49
    endloop
  endfacet
  facet normal 0 0 1
    outer loop
      vertex 6.23244 0.0920305 93.49
      vertex 6.24215 -0.0621719 93.49
      vertex 6.24215 0.0621719 93.49
    endloop
  endfacet
  facet normal 0 0 1
    outer loop
      vertex 6.23244 0.0920305 93.49
      vertex 6.23244 -0.0920305 93.49
      vertex 6.24215 -0.0621719 93.49
    endloop
  endfacet
  facet normal 0 0 1
    outer loop
      vertex 6.21908 0.120438 93.49
      vertex 6.23244 -0.0920305 93.49
      vertex 6.23244 0.0920305 93.49
    endloop
  endfacet
  facet normal 0 0 1
    outer loop
      vertex 6.21908 0.120438 93.49
      vertex 6.21908 -0.120438 93.49
      vertex 6.23244 -0.0920305 93.49
    endloop
  endfacet
  facet normal 0 0 1
    outer loop
      vertex 6.20225 0.146946 93.49
      vertex 6.21908 -0.120438 93.49
      vertex 6.21908 0.120438 93.49
    endloop
  endfacet
  facet normal 0 0 1
    outer loop
      vertex 6.20225 0.146946 93.49
      vertex 6.20225 -0.146946 93.49
      vertex 6.21908 -0.120438 93.49
    endloop
  endfacet
  facet normal 0 0 1
    outer loop
      vertex 6.18224 0.171136 93.49
      vertex 6.20225 -0.146946 93.49
      vertex 6.20225 0.146946 93.49
    endloop
  endfacet
  facet normal 0 0 1
    outer loop
      vertex 6.18224 0.171136 93.49
      vertex 6.18224 -0.171136 93.49
      vertex 6.20225 -0.146946 93.49
    endloop
  endfacet
  facet normal 0 0 1
    outer loop
      vertex 6.15936 0.192628 93.49
      vertex 6.18224 -0.171136 93.49
      vertex 6.18224 0.171136 93.49
    endloop
  endfacet
  facet normal 0 0 1
    outer loop
      vertex 6.15936 0.192628 93.49
      vertex 6.15936 -0.192628 93.49
      vertex 6.18224 -0.171136 93.49
    endloop
  endfacet
  facet normal 0 0 1
    outer loop
      vertex 6.13396 0.211082 93.49
      vertex 6.15936 -0.192628 93.49
      vertex 6.15936 0.192628 93.49
    endloop
  endfacet
  facet normal 0 0 1
    outer loop
      vertex 6.13396 0.211082 93.49
      vertex 6.13396 -0.211082 93.49
      vertex 6.15936 -0.192628 93.49
    endloop
  endfacet
  facet normal 0 0 1
    outer loop
      vertex 6.10644 0.226206 93.49
      vertex 6.13396 -0.211082 93.49
      vertex 6.13396 0.211082 93.49
    endloop
  endfacet
  facet normal 0 0 1
    outer loop
      vertex 6.10644 0.226206 93.49
      vertex 6.10644 -0.226206 93.49
      vertex 6.13396 -0.211082 93.49
    endloop
  endfacet
  facet normal 0 0 1
    outer loop
      vertex 6.07725 0.237763 93.49
      vertex 6.10644 -0.226206 93.49
      vertex 6.10644 0.226206 93.49
    endloop
  endfacet
  facet normal 0 0 1
    outer loop
      vertex 6.07725 0.237763 93.49
      vertex 6.07725 -0.237763 93.49
      vertex 6.10644 -0.226206 93.49
    endloop
  endfacet
  facet normal 0 0 1
    outer loop
      vertex 4.93852 0.584928 93.49
      vertex 6.07725 -0.237763 93.49
      vertex 6.07725 0.237763 93.49
    endloop
  endfacet
  facet normal 0 0 1
    outer loop
      vertex 4.93852 0.584928 93.49
      vertex 4.93852 -0.584928 93.49
      vertex 6.07725 -0.237763 93.49
    endloop
  endfacet
  facet normal 0 0 1
    outer loop
      vertex 4.56773 2.03368 93.49
      vertex 4.93852 0.584928 93.49
      vertex 4.89074 1.03956 93.49
    endloop
  endfacet
  facet normal 0 0 1
    outer loop
      vertex 4.04508 2.93893 93.49
      vertex 4.93852 0.584928 93.49
      vertex 4.56773 2.03368 93.49
    endloop
  endfacet
  facet normal 0 0 1
    outer loop
      vertex 3.34565 3.71572 93.49
      vertex 4.93852 0.584928 93.49
      vertex 4.04508 2.93893 93.49
    endloop
  endfacet
  facet normal 0 0 1
    outer loop
      vertex 4.93852 -0.584928 93.49
      vertex 4.56773 -2.03368 93.49
      vertex 4.89074 -1.03956 93.49
    endloop
  endfacet
  facet normal 0 0 1
    outer loop
      vertex 2.5 4.33013 93.49
      vertex 4.93852 0.584928 93.49
      vertex 3.34565 3.71572 93.49
    endloop
  endfacet
  facet normal 0 0 1
    outer loop
      vertex 4.93852 -0.584928 93.49
      vertex 4.04508 -2.93893 93.49
      vertex 4.56773 -2.03368 93.49
    endloop
  endfacet
  facet normal 0 0 1
    outer loop
      vertex 4.93852 0.584928 93.49
      vertex 2.5 4.33013 93.49
      vertex 4.93852 -0.584928 93.49
    endloop
  endfacet
  facet normal 0 0 1
    outer loop
      vertex 4.93852 -0.584928 93.49
      vertex 3.34565 -3.71572 93.49
      vertex 4.04508 -2.93893 93.49
    endloop
  endfacet
  facet normal 0 0 1
    outer loop
      vertex 2.5 -4.33013 93.49
      vertex 4.93852 -0.584928 93.49
      vertex 2.5 4.33013 93.49
    endloop
  endfacet
  facet normal 0 0 1
    outer loop
      vertex 4.93852 -0.584928 93.49
      vertex 2.5 -4.33013 93.49
      vertex 3.34565 -3.71572 93.49
    endloop
  endfacet
  facet normal 0 0 1
    outer loop
      vertex 1.54508 4.75528 93.49
      vertex 2.5 -4.33013 93.49
      vertex 2.5 4.33013 93.49
    endloop
  endfacet
  facet normal 0 0 1
    outer loop
      vertex 1.54508 4.75528 93.49
      vertex 1.54508 -4.75528 93.49
      vertex 2.5 -4.33013 93.49
    endloop
  endfacet
  facet normal 0 0 1
    outer loop
      vertex 0.522642 4.97261 93.49
      vertex 1.54508 -4.75528 93.49
      vertex 1.54508 4.75528 93.49
    endloop
  endfacet
  facet normal 0 0 1
    outer loop
      vertex 0.522642 4.97261 93.49
      vertex 0.522642 -4.97261 93.49
      vertex 1.54508 -4.75528 93.49
    endloop
  endfacet
  facet normal -0 0 1
    outer loop
      vertex -0.522642 4.97261 93.49
      vertex 0.522642 -4.97261 93.49
      vertex 0.522642 4.97261 93.49
    endloop
  endfacet
  facet normal 0 0 1
    outer loop
      vertex -0.522642 4.97261 93.49
      vertex -0.522642 -4.97261 93.49
      vertex 0.522642 -4.97261 93.49
    endloop
  endfacet
  facet normal -0 0 1
    outer loop
      vertex -1.54508 4.75528 93.49
      vertex -0.522642 -4.97261 93.49
      vertex -0.522642 4.97261 93.49
    endloop
  endfacet
  facet normal 0 0 1
    outer loop
      vertex -1.54508 4.75528 93.49
      vertex -1.54508 -4.75528 93.49
      vertex -0.522642 -4.97261 93.49
    endloop
  endfacet
  facet normal -0 0 1
    outer loop
      vertex -2.5 4.33013 93.49
      vertex -1.54508 -4.75528 93.49
      vertex -1.54508 4.75528 93.49
    endloop
  endfacet
  facet normal 0 0 1
    outer loop
      vertex -2.5 4.33013 93.49
      vertex -2.5 -4.33013 93.49
      vertex -1.54508 -4.75528 93.49
    endloop
  endfacet
  facet normal -0 0 1
    outer loop
      vertex -3.34565 3.71572 93.49
      vertex -2.5 -4.33013 93.49
      vertex -2.5 4.33013 93.49
    endloop
  endfacet
  facet normal 0 0 1
    outer loop
      vertex -3.34565 3.71572 93.49
      vertex -3.34565 -3.71572 93.49
      vertex -2.5 -4.33013 93.49
    endloop
  endfacet
  facet normal -0 0 1
    outer loop
      vertex -4.04508 2.93893 93.49
      vertex -3.34565 -3.71572 93.49
      vertex -3.34565 3.71572 93.49
    endloop
  endfacet
  facet normal 0 0 1
    outer loop
      vertex -4.04508 2.93893 93.49
      vertex -4.04508 -2.93893 93.49
      vertex -3.34565 -3.71572 93.49
    endloop
  endfacet
  facet normal -0 0 1
    outer loop
      vertex -4.56773 2.03368 93.49
      vertex -4.04508 -2.93893 93.49
      vertex -4.04508 2.93893 93.49
    endloop
  endfacet
  facet normal 0 0 1
    outer loop
      vertex -4.56773 2.03368 93.49
      vertex -4.56773 -2.03368 93.49
      vertex -4.04508 -2.93893 93.49
    endloop
  endfacet
  facet normal -0 0 1
    outer loop
      vertex -4.89074 1.03956 93.49
      vertex -4.56773 -2.03368 93.49
      vertex -4.56773 2.03368 93.49
    endloop
  endfacet
  facet normal 0 0 1
    outer loop
      vertex -4.89074 1.03956 93.49
      vertex -4.89074 -1.03956 93.49
      vertex -4.56773 -2.03368 93.49
    endloop
  endfacet
  facet normal 0 -0 1
    outer loop
      vertex -4.89074 -1.03956 93.49
      vertex -4.89074 1.03956 93.49
      vertex -5 0 93.49
    endloop
  endfacet
  facet normal -0.40673 0.913548 0
    outer loop
      vertex -1.54508 4.75528 58.5
      vertex -2.5 4.33013 93.49
      vertex -1.54508 4.75528 93.49
    endloop
  endfacet
  facet normal -0.40673 0.913548 0
    outer loop
      vertex -2.5 4.33013 93.49
      vertex -1.54508 4.75528 58.5
      vertex -2.5 4.33013 58.5
    endloop
  endfacet
  facet normal 0.994523 -0.10452 0
    outer loop
      vertex 4.89074 -1.03956 93.49
      vertex 4.93852 -0.584928 58.5
      vertex 4.93852 -0.584928 93.49
    endloop
  endfacet
  facet normal 0.994523 -0.10452 0
    outer loop
      vertex 4.93852 -0.584928 58.5
      vertex 4.89074 -1.03956 93.49
      vertex 4.89074 -1.03956 58.5
    endloop
  endfacet
  facet normal 0.207915 -0.978147 0
    outer loop
      vertex 0.522642 -4.97261 58.5
      vertex 1.54508 -4.75528 93.49
      vertex 0.522642 -4.97261 93.49
    endloop
  endfacet
  facet normal 0.207915 -0.978147 0
    outer loop
      vertex 1.54508 -4.75528 93.49
      vertex 0.522642 -4.97261 58.5
      vertex 1.54508 -4.75528 58.5
    endloop
  endfacet
  facet normal 0.743142 -0.669133 0
    outer loop
      vertex 3.34565 -3.71572 93.49
      vertex 4.04508 -2.93893 58.5
      vertex 4.04508 -2.93893 93.49
    endloop
  endfacet
  facet normal 0.743142 -0.669133 0
    outer loop
      vertex 4.04508 -2.93893 58.5
      vertex 3.34565 -3.71572 93.49
      vertex 3.34565 -3.71572 58.5
    endloop
  endfacet
  facet normal 0.951056 -0.309018 0
    outer loop
      vertex 4.56773 -2.03368 93.49
      vertex 4.89074 -1.03956 58.5
      vertex 4.89074 -1.03956 93.49
    endloop
  endfacet
  facet normal 0.951056 -0.309018 0
    outer loop
      vertex 4.89074 -1.03956 58.5
      vertex 4.56773 -2.03368 93.49
      vertex 4.56773 -2.03368 58.5
    endloop
  endfacet
  facet normal 0.866024 -0.500003 0
    outer loop
      vertex 4.04508 -2.93893 93.49
      vertex 4.56773 -2.03368 58.5
      vertex 4.56773 -2.03368 93.49
    endloop
  endfacet
  facet normal 0.866024 -0.500003 0
    outer loop
      vertex 4.56773 -2.03368 58.5
      vertex 4.04508 -2.93893 93.49
      vertex 4.04508 -2.93893 58.5
    endloop
  endfacet
  facet normal -0.40673 -0.913548 0
    outer loop
      vertex -2.5 -4.33013 58.5
      vertex -1.54508 -4.75528 93.49
      vertex -2.5 -4.33013 93.49
    endloop
  endfacet
  facet normal -0.40673 -0.913548 -0
    outer loop
      vertex -1.54508 -4.75528 93.49
      vertex -2.5 -4.33013 58.5
      vertex -1.54508 -4.75528 58.5
    endloop
  endfacet
  facet normal -0.866024 -0.500003 0
    outer loop
      vertex -4.04508 -2.93893 58.5
      vertex -4.56773 -2.03368 93.49
      vertex -4.56773 -2.03368 58.5
    endloop
  endfacet
  facet normal -0.866024 -0.500003 0
    outer loop
      vertex -4.56773 -2.03368 93.49
      vertex -4.04508 -2.93893 58.5
      vertex -4.04508 -2.93893 93.49
    endloop
  endfacet
  facet normal -0.994522 -0.104526 0
    outer loop
      vertex -4.89074 -1.03956 58.5
      vertex -5 0 93.49
      vertex -5 0 58.5
    endloop
  endfacet
  facet normal -0.994522 -0.104526 0
    outer loop
      vertex -5 0 93.49
      vertex -4.89074 -1.03956 58.5
      vertex -4.89074 -1.03956 93.49
    endloop
  endfacet
  facet normal 0.587791 -0.809013 0
    outer loop
      vertex 2.5 -4.33013 58.5
      vertex 3.34565 -3.71572 93.49
      vertex 2.5 -4.33013 93.49
    endloop
  endfacet
  facet normal 0.587791 -0.809013 0
    outer loop
      vertex 3.34565 -3.71572 93.49
      vertex 2.5 -4.33013 58.5
      vertex 3.34565 -3.71572 58.5
    endloop
  endfacet
  facet normal 0.40673 -0.913548 0
    outer loop
      vertex 1.54508 -4.75528 58.5
      vertex 2.5 -4.33013 93.49
      vertex 1.54508 -4.75528 93.49
    endloop
  endfacet
  facet normal 0.40673 -0.913548 0
    outer loop
      vertex 2.5 -4.33013 93.49
      vertex 1.54508 -4.75528 58.5
      vertex 2.5 -4.33013 58.5
    endloop
  endfacet
  facet normal -0.207915 -0.978147 0
    outer loop
      vertex -1.54508 -4.75528 58.5
      vertex -0.522642 -4.97261 93.49
      vertex -1.54508 -4.75528 93.49
    endloop
  endfacet
  facet normal -0.207915 -0.978147 -0
    outer loop
      vertex -0.522642 -4.97261 93.49
      vertex -1.54508 -4.75528 58.5
      vertex -0.522642 -4.97261 58.5
    endloop
  endfacet
  facet normal -0.587791 -0.809013 0
    outer loop
      vertex -3.34565 -3.71572 58.5
      vertex -2.5 -4.33013 93.49
      vertex -3.34565 -3.71572 93.49
    endloop
  endfacet
  facet normal -0.587791 -0.809013 -0
    outer loop
      vertex -2.5 -4.33013 93.49
      vertex -3.34565 -3.71572 58.5
      vertex -2.5 -4.33013 58.5
    endloop
  endfacet
  facet normal -0.743142 -0.669133 0
    outer loop
      vertex -3.34565 -3.71572 58.5
      vertex -4.04508 -2.93893 93.49
      vertex -4.04508 -2.93893 58.5
    endloop
  endfacet
  facet normal -0.743142 -0.669133 0
    outer loop
      vertex -4.04508 -2.93893 93.49
      vertex -3.34565 -3.71572 58.5
      vertex -3.34565 -3.71572 93.49
    endloop
  endfacet
  facet normal -0.951056 -0.309018 0
    outer loop
      vertex -4.56773 -2.03368 58.5
      vertex -4.89074 -1.03956 93.49
      vertex -4.89074 -1.03956 58.5
    endloop
  endfacet
  facet normal -0.951056 -0.309018 0
    outer loop
      vertex -4.89074 -1.03956 93.49
      vertex -4.56773 -2.03368 58.5
      vertex -4.56773 -2.03368 93.49
    endloop
  endfacet
  facet normal 0.291619 0.956535 -0
    outer loop
      vertex 6.07725 0.237763 58.5
      vertex 4.93852 0.584928 93.49
      vertex 6.07725 0.237763 93.49
    endloop
  endfacet
  facet normal 0.291619 0.956535 0
    outer loop
      vertex 4.93852 0.584928 93.49
      vertex 6.07725 0.237763 58.5
      vertex 4.93852 0.584928 58.5
    endloop
  endfacet
  facet normal 0.291619 -0.956535 0
    outer loop
      vertex 4.93852 -0.584928 58.5
      vertex 6.07725 -0.237763 93.49
      vertex 4.93852 -0.584928 93.49
    endloop
  endfacet
  facet normal 0.291619 -0.956535 0
    outer loop
      vertex 6.07725 -0.237763 93.49
      vertex 4.93852 -0.584928 58.5
      vertex 6.07725 -0.237763 58.5
    endloop
  endfacet
  facet normal 0.368121 -0.929778 0
    outer loop
      vertex 6.07725 -0.237763 58.5
      vertex 6.10644 -0.226206 93.49
      vertex 6.07725 -0.237763 93.49
    endloop
  endfacet
  facet normal 0.368121 -0.929778 0
    outer loop
      vertex 6.10644 -0.226206 93.49
      vertex 6.07725 -0.237763 58.5
      vertex 6.10644 -0.226206 58.5
    endloop
  endfacet
  facet normal 0.998029 -0.0627491 0
    outer loop
      vertex 6.24803 -0.031333 93.49
      vertex 6.25 0 58.5
      vertex 6.25 0 93.49
    endloop
  endfacet
  facet normal 0.998029 -0.0627491 0
    outer loop
      vertex 6.25 0 58.5
      vertex 6.24803 -0.031333 93.49
      vertex 6.24803 -0.031333 58.5
    endloop
  endfacet
  facet normal 0.481625 -0.876377 0
    outer loop
      vertex 6.10644 -0.226206 58.5
      vertex 6.13396 -0.211082 93.49
      vertex 6.10644 -0.226206 93.49
    endloop
  endfacet
  facet normal 0.481625 -0.876377 0
    outer loop
      vertex 6.13396 -0.211082 93.49
      vertex 6.10644 -0.226206 58.5
      vertex 6.13396 -0.211082 58.5
    endloop
  endfacet
  facet normal 0.950978 -0.309258 0
    outer loop
      vertex 6.23244 -0.0920305 93.49
      vertex 6.24215 -0.0621719 58.5
      vertex 6.24215 -0.0621719 93.49
    endloop
  endfacet
  facet normal 0.950978 -0.309258 0
    outer loop
      vertex 6.24215 -0.0621719 58.5
      vertex 6.23244 -0.0920305 93.49
      vertex 6.23244 -0.0920305 58.5
    endloop
  endfacet
  facet normal 0.84422 -0.535997 0
    outer loop
      vertex 6.20225 -0.146946 93.49
      vertex 6.21908 -0.120438 58.5
      vertex 6.21908 -0.120438 93.49
    endloop
  endfacet
  facet normal 0.84422 -0.535997 0
    outer loop
      vertex 6.21908 -0.120438 58.5
      vertex 6.20225 -0.146946 93.49
      vertex 6.20225 -0.146946 58.5
    endloop
  endfacet
  facet normal 0.684653 -0.728869 0
    outer loop
      vertex 6.15936 -0.192628 58.5
      vertex 6.18224 -0.171136 93.49
      vertex 6.15936 -0.192628 93.49
    endloop
  endfacet
  facet normal 0.684653 -0.728869 0
    outer loop
      vertex 6.18224 -0.171136 93.49
      vertex 6.15936 -0.192628 58.5
      vertex 6.18224 -0.171136 58.5
    endloop
  endfacet
  facet normal 0.90492 -0.425582 0
    outer loop
      vertex 6.21908 -0.120438 93.49
      vertex 6.23244 -0.0920305 58.5
      vertex 6.23244 -0.0920305 93.49
    endloop
  endfacet
  facet normal 0.90492 -0.425582 0
    outer loop
      vertex 6.23244 -0.0920305 58.5
      vertex 6.21908 -0.120438 93.49
      vertex 6.21908 -0.120438 58.5
    endloop
  endfacet
  facet normal 0.587781 0.80902 -0
    outer loop
      vertex 6.15936 0.192628 58.5
      vertex 6.13396 0.211082 93.49
      vertex 6.15936 0.192628 93.49
    endloop
  endfacet
  facet normal 0.587781 0.80902 0
    outer loop
      vertex 6.13396 0.211082 93.49
      vertex 6.15936 0.192628 58.5
      vertex 6.13396 0.211082 58.5
    endloop
  endfacet
  facet normal 0.368121 0.929778 -0
    outer loop
      vertex 6.10644 0.226206 58.5
      vertex 6.07725 0.237763 93.49
      vertex 6.10644 0.226206 93.49
    endloop
  endfacet
  facet normal 0.368121 0.929778 0
    outer loop
      vertex 6.07725 0.237763 93.49
      vertex 6.10644 0.226206 58.5
      vertex 6.07725 0.237763 58.5
    endloop
  endfacet
  facet normal 0.481625 0.876377 -0
    outer loop
      vertex 6.13396 0.211082 58.5
      vertex 6.10644 0.226206 93.49
      vertex 6.13396 0.211082 93.49
    endloop
  endfacet
  facet normal 0.481625 0.876377 0
    outer loop
      vertex 6.10644 0.226206 93.49
      vertex 6.13396 0.211082 58.5
      vertex 6.10644 0.226206 58.5
    endloop
  endfacet
  facet normal 0.84422 0.535997 0
    outer loop
      vertex 6.21908 0.120438 93.49
      vertex 6.20225 0.146946 58.5
      vertex 6.20225 0.146946 93.49
    endloop
  endfacet
  facet normal 0.84422 0.535997 0
    outer loop
      vertex 6.20225 0.146946 58.5
      vertex 6.21908 0.120438 93.49
      vertex 6.21908 0.120438 58.5
    endloop
  endfacet
  facet normal 0.90492 0.425582 0
    outer loop
      vertex 6.23244 0.0920305 93.49
      vertex 6.21908 0.120438 58.5
      vertex 6.21908 0.120438 93.49
    endloop
  endfacet
  facet normal 0.90492 0.425582 0
    outer loop
      vertex 6.21908 0.120438 58.5
      vertex 6.23244 0.0920305 93.49
      vertex 6.23244 0.0920305 58.5
    endloop
  endfacet
  facet normal 0.77054 0.637392 0
    outer loop
      vertex 6.20225 0.146946 93.49
      vertex 6.18224 0.171136 58.5
      vertex 6.18224 0.171136 93.49
    endloop
  endfacet
  facet normal 0.77054 0.637392 0
    outer loop
      vertex 6.18224 0.171136 58.5
      vertex 6.20225 0.146946 93.49
      vertex 6.20225 0.146946 58.5
    endloop
  endfacet
  facet normal 0.950978 0.309258 0
    outer loop
      vertex 6.24215 0.0621719 93.49
      vertex 6.23244 0.0920305 58.5
      vertex 6.23244 0.0920305 93.49
    endloop
  endfacet
  facet normal 0.950978 0.309258 0
    outer loop
      vertex 6.23244 0.0920305 58.5
      vertex 6.24215 0.0621719 93.49
      vertex 6.24215 0.0621719 58.5
    endloop
  endfacet
  facet normal 0.998029 0.0627491 0
    outer loop
      vertex 6.25 0 93.49
      vertex 6.24803 0.031333 58.5
      vertex 6.24803 0.031333 93.49
    endloop
  endfacet
  facet normal 0.998029 0.0627491 0
    outer loop
      vertex 6.24803 0.031333 58.5
      vertex 6.25 0 93.49
      vertex 6.25 0 58.5
    endloop
  endfacet
  facet normal 0.982304 -0.187294 0
    outer loop
      vertex 6.24215 -0.0621719 93.49
      vertex 6.24803 -0.031333 58.5
      vertex 6.24803 -0.031333 93.49
    endloop
  endfacet
  facet normal 0.982304 -0.187294 0
    outer loop
      vertex 6.24803 -0.031333 58.5
      vertex 6.24215 -0.0621719 93.49
      vertex 6.24215 -0.0621719 58.5
    endloop
  endfacet
  facet normal 0.587781 -0.80902 0
    outer loop
      vertex 6.13396 -0.211082 58.5
      vertex 6.15936 -0.192628 93.49
      vertex 6.13396 -0.211082 93.49
    endloop
  endfacet
  facet normal 0.587781 -0.80902 0
    outer loop
      vertex 6.15936 -0.192628 93.49
      vertex 6.13396 -0.211082 58.5
      vertex 6.15936 -0.192628 58.5
    endloop
  endfacet
  facet normal 0.684653 0.728869 -0
    outer loop
      vertex 6.18224 0.171136 58.5
      vertex 6.15936 0.192628 93.49
      vertex 6.18224 0.171136 93.49
    endloop
  endfacet
  facet normal 0.684653 0.728869 0
    outer loop
      vertex 6.15936 0.192628 93.49
      vertex 6.18224 0.171136 58.5
      vertex 6.15936 0.192628 58.5
    endloop
  endfacet
  facet normal 0.982304 0.187294 0
    outer loop
      vertex 6.24803 0.031333 93.49
      vertex 6.24215 0.0621719 58.5
      vertex 6.24215 0.0621719 93.49
    endloop
  endfacet
  facet normal 0.982304 0.187294 0
    outer loop
      vertex 6.24215 0.0621719 58.5
      vertex 6.24803 0.031333 93.49
      vertex 6.24803 0.031333 58.5
    endloop
  endfacet
  facet normal 0.77054 -0.637392 0
    outer loop
      vertex 6.18224 -0.171136 93.49
      vertex 6.20225 -0.146946 58.5
      vertex 6.20225 -0.146946 93.49
    endloop
  endfacet
  facet normal 0.77054 -0.637392 0
    outer loop
      vertex 6.20225 -0.146946 58.5
      vertex 6.18224 -0.171136 93.49
      vertex 6.18224 -0.171136 58.5
    endloop
  endfacet
endsolid OpenSCAD_Model
