solid OpenSCAD_Model
  facet normal -0.705401 0.708809 0
    outer loop
      vertex -6.34368 1.01876 57.775
      vertex -6.3416 1.02083 58.5
      vertex -6.3416 1.02083 57.775
    endloop
  endfacet
  facet normal -0.707102 0.707112 9.72536e-06
    outer loop
      vertex -6.3416 1.02083 58.5
      vertex -6.34368 1.01876 57.775
      vertex -7.06868 0.29376 58.5
    endloop
  endfacet
  facet normal -0.705401 -0.708809 -0
    outer loop
      vertex -6.3416 -1.02083 58.5
      vertex -6.34368 -1.01876 57.775
      vertex -6.3416 -1.02083 57.775
    endloop
  endfacet
  facet normal -0.707102 -0.707112 9.72536e-06
    outer loop
      vertex -6.34368 -1.01876 57.775
      vertex -6.3416 -1.02083 58.5
      vertex -7.06868 -0.29376 58.5
    endloop
  endfacet
  facet normal 0 0 -1
    outer loop
      vertex -6.34368 -1.01876 57.775
      vertex -6.125 -1.02083 57.775
      vertex -6.3416 -1.02083 57.775
    endloop
  endfacet
  facet normal 0 0 -1
    outer loop
      vertex -6.125 -1.02083 57.775
      vertex -6.34368 -1.01876 57.775
      vertex -6.125 1.02083 57.775
    endloop
  endfacet
  facet normal 0 0 -1
    outer loop
      vertex -6.34368 1.01876 57.775
      vertex -6.125 1.02083 57.775
      vertex -6.34368 -1.01876 57.775
    endloop
  endfacet
  facet normal -0 0 -1
    outer loop
      vertex -6.125 1.02083 57.775
      vertex -6.34368 1.01876 57.775
      vertex -6.3416 1.02083 57.775
    endloop
  endfacet
  facet normal -0.707107 0 -0.707107
    outer loop
      vertex -7.06868 -0.29376 58.5
      vertex -6.34368 1.01876 57.775
      vertex -6.34368 -1.01876 57.775
    endloop
  endfacet
  facet normal -0.707107 0 -0.707107
    outer loop
      vertex -6.34368 1.01876 57.775
      vertex -7.06868 -0.29376 58.5
      vertex -7.06868 0.29376 58.5
    endloop
  endfacet
  facet normal 0 -1 0
    outer loop
      vertex -6.3416 -1.02083 57.775
      vertex -6.125 -1.02083 58.5
      vertex -6.3416 -1.02083 58.5
    endloop
  endfacet
  facet normal 0 -1 -0
    outer loop
      vertex -6.125 -1.02083 58.5
      vertex -6.3416 -1.02083 57.775
      vertex -6.125 -1.02083 57.775
    endloop
  endfacet
  facet normal 0 1 -0
    outer loop
      vertex -6.125 1.02083 57.775
      vertex -6.3416 1.02083 58.5
      vertex -6.125 1.02083 58.5
    endloop
  endfacet
  facet normal 0 1 0
    outer loop
      vertex -6.3416 1.02083 58.5
      vertex -6.125 1.02083 57.775
      vertex -6.3416 1.02083 57.775
    endloop
  endfacet
  facet normal 0.705401 0.708809 0
    outer loop
      vertex 6.3416 1.02083 58.5
      vertex 6.34368 1.01876 57.775
      vertex 6.3416 1.02083 57.775
    endloop
  endfacet
  facet normal 0.707102 0.707112 9.72536e-06
    outer loop
      vertex 6.34368 1.01876 57.775
      vertex 6.3416 1.02083 58.5
      vertex 7.06868 0.29376 58.5
    endloop
  endfacet
  facet normal 0 0 -1
    outer loop
      vertex 6.125 -1.02083 57.775
      vertex 6.34368 -1.01876 57.775
      vertex 6.3416 -1.02083 57.775
    endloop
  endfacet
  facet normal -0 0 -1
    outer loop
      vertex 6.34368 -1.01876 57.775
      vertex 6.125 -1.02083 57.775
      vertex 6.34368 1.01876 57.775
    endloop
  endfacet
  facet normal 0 0 -1
    outer loop
      vertex 6.125 1.02083 57.775
      vertex 6.34368 1.01876 57.775
      vertex 6.125 -1.02083 57.775
    endloop
  endfacet
  facet normal 0 0 -1
    outer loop
      vertex 6.34368 1.01876 57.775
      vertex 6.125 1.02083 57.775
      vertex 6.3416 1.02083 57.775
    endloop
  endfacet
  facet normal 0.707102 -0.707112 9.72536e-06
    outer loop
      vertex 6.3416 -1.02083 58.5
      vertex 6.34368 -1.01876 57.775
      vertex 7.06868 -0.29376 58.5
    endloop
  endfacet
  facet normal 0.705401 -0.708809 0
    outer loop
      vertex 6.34368 -1.01876 57.775
      vertex 6.3416 -1.02083 58.5
      vertex 6.3416 -1.02083 57.775
    endloop
  endfacet
  facet normal 0.707107 0 -0.707107
    outer loop
      vertex 6.34368 -1.01876 57.775
      vertex 7.06868 0.29376 58.5
      vertex 7.06868 -0.29376 58.5
    endloop
  endfacet
  facet normal 0.707107 0 -0.707107
    outer loop
      vertex 7.06868 0.29376 58.5
      vertex 6.34368 -1.01876 57.775
      vertex 6.34368 1.01876 57.775
    endloop
  endfacet
  facet normal 0 -1 0
    outer loop
      vertex 6.125 -1.02083 57.775
      vertex 6.3416 -1.02083 58.5
      vertex 6.125 -1.02083 58.5
    endloop
  endfacet
  facet normal 0 -1 -0
    outer loop
      vertex 6.3416 -1.02083 58.5
      vertex 6.125 -1.02083 57.775
      vertex 6.3416 -1.02083 57.775
    endloop
  endfacet
  facet normal 0 1 -0
    outer loop
      vertex 6.3416 1.02083 57.775
      vertex 6.125 1.02083 58.5
      vertex 6.3416 1.02083 58.5
    endloop
  endfacet
  facet normal 0 1 0
    outer loop
      vertex 6.125 1.02083 58.5
      vertex 6.3416 1.02083 57.775
      vertex 6.125 1.02083 57.775
    endloop
  endfacet
  facet normal -1 0 0
    outer loop
      vertex -6.125 6.125 0
      vertex -6.125 1.02083 57.775
      vertex -6.125 6.125 58.5
    endloop
  endfacet
  facet normal -1 0 0
    outer loop
      vertex -6.125 -3.95949 0
      vertex -6.125 1.02083 57.775
      vertex -6.125 6.125 0
    endloop
  endfacet
  facet normal -1 -0 0
    outer loop
      vertex -6.125 1.02083 57.775
      vertex -6.125 -3.95949 0
      vertex -6.125 -1.02083 57.775
    endloop
  endfacet
  facet normal -1 0 0
    outer loop
      vertex -6.125 -3.95949 58.5
      vertex -6.125 -1.02083 57.775
      vertex -6.125 -3.95949 0
    endloop
  endfacet
  facet normal -1 0 0
    outer loop
      vertex -6.125 -1.02083 57.775
      vertex -6.125 -3.95949 58.5
      vertex -6.125 -1.02083 58.5
    endloop
  endfacet
  facet normal -1 -0 0
    outer loop
      vertex -6.125 6.125 58.5
      vertex -6.125 1.02083 57.775
      vertex -6.125 1.02083 58.5
    endloop
  endfacet
  facet normal 1 0 0
    outer loop
      vertex 6.125 -1.02083 58.5
      vertex 6.125 -6.125 58.5
      vertex 6.125 -1.02083 57.775
    endloop
  endfacet
  facet normal 1 0 0
    outer loop
      vertex 6.125 1.02083 57.775
      vertex 6.125 3.95949 58.5
      vertex 6.125 1.02083 58.5
    endloop
  endfacet
  facet normal 1 0 0
    outer loop
      vertex 6.125 3.95949 58.5
      vertex 6.125 1.02083 57.775
      vertex 6.125 3.95949 0
    endloop
  endfacet
  facet normal 1 -0 0
    outer loop
      vertex 6.125 -1.02083 57.775
      vertex 6.125 3.95949 0
      vertex 6.125 1.02083 57.775
    endloop
  endfacet
  facet normal 1 0 0
    outer loop
      vertex 6.125 -6.125 0
      vertex 6.125 -1.02083 57.775
      vertex 6.125 -6.125 58.5
    endloop
  endfacet
  facet normal 1 0 0
    outer loop
      vertex 6.125 -1.02083 57.775
      vertex 6.125 -6.125 0
      vertex 6.125 3.95949 0
    endloop
  endfacet
  facet normal 0 1 -0
    outer loop
      vertex 3.95949 6.125 0
      vertex -6.125 6.125 58.5
      vertex 3.95949 6.125 58.5
    endloop
  endfacet
  facet normal 0 1 0
    outer loop
      vertex -6.125 6.125 58.5
      vertex 3.95949 6.125 0
      vertex -6.125 6.125 0
    endloop
  endfacet
  facet normal 0 0 -1
    outer loop
      vertex -5.10417 -7.26968 0
      vertex -7.26968 -5.10417 0
      vertex -6.125 -3.95949 0
    endloop
  endfacet
  facet normal 0 0 -1
    outer loop
      vertex 4.285 -4.28199 0
      vertex 6.125 3.95949 0
      vertex 6.125 -6.125 0
    endloop
  endfacet
  facet normal -0 0 -1
    outer loop
      vertex 6.125 3.95949 0
      vertex 4.285 -4.28199 0
      vertex 4.285 4.285 0
    endloop
  endfacet
  facet normal 0 0 -1
    outer loop
      vertex -3.95949 -6.125 0
      vertex 4.285 -4.28199 0
      vertex 6.125 -6.125 0
    endloop
  endfacet
  facet normal 0 0 -1
    outer loop
      vertex -3.95949 -6.125 0
      vertex -4.28199 -4.28199 0
      vertex 4.285 -4.28199 0
    endloop
  endfacet
  facet normal 0 0 -1
    outer loop
      vertex -3.95949 -6.125 0
      vertex -6.125 -3.95949 0
      vertex -4.28199 -4.28199 0
    endloop
  endfacet
  facet normal 0 0 -1
    outer loop
      vertex -6.125 -3.95949 0
      vertex -3.95949 -6.125 0
      vertex -5.10417 -7.26968 0
    endloop
  endfacet
  facet normal -0 0 -1
    outer loop
      vertex 7.26968 5.10417 0
      vertex 6.125 3.95949 0
      vertex 5.10417 7.26968 0
    endloop
  endfacet
  facet normal 0 0 -1
    outer loop
      vertex 3.95949 6.125 0
      vertex 6.125 3.95949 0
      vertex 4.285 4.285 0
    endloop
  endfacet
  facet normal 0 0 -1
    outer loop
      vertex 6.125 3.95949 0
      vertex 3.95949 6.125 0
      vertex 5.10417 7.26968 0
    endloop
  endfacet
  facet normal 0 0 -1
    outer loop
      vertex -4.28199 4.285 0
      vertex 3.95949 6.125 0
      vertex 4.285 4.285 0
    endloop
  endfacet
  facet normal 0 0 -1
    outer loop
      vertex -4.28199 -4.28199 0
      vertex -6.125 -3.95949 0
      vertex -4.28199 4.285 0
    endloop
  endfacet
  facet normal 0 0 -1
    outer loop
      vertex -4.28199 4.285 0
      vertex -6.125 6.125 0
      vertex 3.95949 6.125 0
    endloop
  endfacet
  facet normal 0 0 -1
    outer loop
      vertex -6.125 6.125 0
      vertex -4.28199 4.285 0
      vertex -6.125 -3.95949 0
    endloop
  endfacet
  facet normal 0 -1 0
    outer loop
      vertex -3.95949 -6.125 0
      vertex 6.125 -6.125 58.5
      vertex -3.95949 -6.125 58.5
    endloop
  endfacet
  facet normal 0 -1 -0
    outer loop
      vertex 6.125 -6.125 58.5
      vertex -3.95949 -6.125 0
      vertex 6.125 -6.125 0
    endloop
  endfacet
  facet normal 0.707107 0.707107 0
    outer loop
      vertex 7.26968 5.10417 58.5
      vertex 5.10417 7.26968 0
      vertex 5.10417 7.26968 58.5
    endloop
  endfacet
  facet normal 0.707107 0.707107 0
    outer loop
      vertex 5.10417 7.26968 0
      vertex 7.26968 5.10417 58.5
      vertex 7.26968 5.10417 0
    endloop
  endfacet
  facet normal 0.707107 -0.707107 0
    outer loop
      vertex 6.125 3.95949 0
      vertex 7.26968 5.10417 58.5
      vertex 6.125 3.95949 58.5
    endloop
  endfacet
  facet normal 0.707107 -0.707107 0
    outer loop
      vertex 7.26968 5.10417 58.5
      vertex 6.125 3.95949 0
      vertex 7.26968 5.10417 0
    endloop
  endfacet
  facet normal -0.707107 0.707107 0
    outer loop
      vertex 3.95949 6.125 0
      vertex 5.10417 7.26968 58.5
      vertex 5.10417 7.26968 0
    endloop
  endfacet
  facet normal -0.707107 0.707107 0
    outer loop
      vertex 5.10417 7.26968 58.5
      vertex 3.95949 6.125 0
      vertex 3.95949 6.125 58.5
    endloop
  endfacet
  facet normal -0.707107 -0.707107 0
    outer loop
      vertex -5.10417 -7.26968 0
      vertex -7.26968 -5.10417 58.5
      vertex -7.26968 -5.10417 0
    endloop
  endfacet
  facet normal -0.707107 -0.707107 0
    outer loop
      vertex -7.26968 -5.10417 58.5
      vertex -5.10417 -7.26968 0
      vertex -5.10417 -7.26968 58.5
    endloop
  endfacet
  facet normal 0.707107 -0.707107 0
    outer loop
      vertex -5.10417 -7.26968 58.5
      vertex -3.95949 -6.125 0
      vertex -3.95949 -6.125 58.5
    endloop
  endfacet
  facet normal 0.707107 -0.707107 0
    outer loop
      vertex -3.95949 -6.125 0
      vertex -5.10417 -7.26968 58.5
      vertex -5.10417 -7.26968 0
    endloop
  endfacet
  facet normal -0.707107 0.707107 0
    outer loop
      vertex -6.125 -3.95949 0
      vertex -7.26968 -5.10417 58.5
      vertex -6.125 -3.95949 58.5
    endloop
  endfacet
  facet normal -0.707107 0.707107 0
    outer loop
      vertex -7.26968 -5.10417 58.5
      vertex -6.125 -3.95949 0
      vertex -7.26968 -5.10417 0
    endloop
  endfacet
  facet normal 0 0.706529 -0.707684
    outer loop
      vertex 4.285 -4.28199 0
      vertex 0 0 4.275
      vertex 0.00999928 0 4.275
    endloop
  endfacet
  facet normal 0 0.706529 -0.707684
    outer loop
      vertex 0 0 4.275
      vertex 4.285 -4.28199 0
      vertex -4.28199 -4.28199 0
    endloop
  endfacet
  facet normal 0.706529 0 -0.707684
    outer loop
      vertex -4.28199 -4.28199 0
      vertex 0 0.00999928 4.275
      vertex 0 0 4.275
    endloop
  endfacet
  facet normal 0.706529 0 -0.707684
    outer loop
      vertex 0 0.00999928 4.275
      vertex -4.28199 -4.28199 0
      vertex -4.28199 4.285 0
    endloop
  endfacet
  facet normal -0.707107 0 -0.707107
    outer loop
      vertex 0.00999928 0 4.275
      vertex 4.285 4.285 0
      vertex 4.285 -4.28199 0
    endloop
  endfacet
  facet normal -0.707107 0 -0.707107
    outer loop
      vertex 4.285 4.285 0
      vertex 0.00999928 0 4.275
      vertex 0.00999928 0.00999928 4.275
    endloop
  endfacet
  facet normal 0 -0.707107 -0.707107
    outer loop
      vertex 0 0.00999928 4.275
      vertex 4.285 4.285 0
      vertex 0.00999928 0.00999928 4.275
    endloop
  endfacet
  facet normal -0 -0.707107 -0.707107
    outer loop
      vertex 4.285 4.285 0
      vertex 0 0.00999928 4.275
      vertex -4.28199 4.285 0
    endloop
  endfacet
  facet normal 0 0 -1
    outer loop
      vertex 0 0 4.275
      vertex 0.00999928 0.00999928 4.275
      vertex 0.00999928 0 4.275
    endloop
  endfacet
  facet normal -0 0 -1
    outer loop
      vertex 0.00999928 0.00999928 4.275
      vertex 0 0 4.275
      vertex 0 0.00999928 4.275
    endloop
  endfacet
  facet normal 0 0 1
    outer loop
      vertex -7.06868 0.29376 58.5
      vertex -6.125 1.02083 58.5
      vertex -6.3416 1.02083 58.5
    endloop
  endfacet
  facet normal 0 0 1
    outer loop
      vertex -6.125 1.02083 58.5
      vertex -7.06868 0.29376 58.5
      vertex -6.125 -1.02083 58.5
    endloop
  endfacet
  facet normal -0 0 1
    outer loop
      vertex -7.06868 -0.29376 58.5
      vertex -6.125 -1.02083 58.5
      vertex -7.06868 0.29376 58.5
    endloop
  endfacet
  facet normal 0 0 1
    outer loop
      vertex -6.125 -1.02083 58.5
      vertex -7.06868 -0.29376 58.5
      vertex -6.3416 -1.02083 58.5
    endloop
  endfacet
  facet normal 0 0 1
    outer loop
      vertex -4.19335 -2.72319 58.5
      vertex -4.46539 -4.12914 58.5
      vertex -3.90567 -3.07846 58.5
    endloop
  endfacet
  facet normal -0 0 1
    outer loop
      vertex -6.125 -3.95949 58.5
      vertex -4.46539 -4.12914 58.5
      vertex -4.19335 -2.72319 58.5
    endloop
  endfacet
  facet normal 0 0 1
    outer loop
      vertex -4.46539 -4.12914 58.5
      vertex -6.125 -3.95949 58.5
      vertex -4.47786 -4.15796 58.5
    endloop
  endfacet
  facet normal 0 0 1
    outer loop
      vertex -6.125 -3.95949 58.5
      vertex -4.6679 -1.79184 58.5
      vertex -4.93844 -0.782173 58.5
    endloop
  endfacet
  facet normal 0 0 1
    outer loop
      vertex -4.47786 -4.15796 58.5
      vertex -6.125 -3.95949 58.5
      vertex -4.48662 -4.1881 58.5
    endloop
  endfacet
  facet normal 0 0 1
    outer loop
      vertex -6.125 -3.95949 58.5
      vertex -4.19335 -2.72319 58.5
      vertex -4.6679 -1.79184 58.5
    endloop
  endfacet
  facet normal 0 0 1
    outer loop
      vertex 6.125 1.02083 58.5
      vertex 4.93844 0.782173 58.5
      vertex 4.99315 -0.26168 58.5
    endloop
  endfacet
  facet normal 0 0 1
    outer loop
      vertex 6.125 3.95949 58.5
      vertex 4.84607 4.60405 58.5
      vertex 4.84508 4.57267 58.5
    endloop
  endfacet
  facet normal 0 0 1
    outer loop
      vertex 6.125 3.95949 58.5
      vertex 4.84312 4.6353 58.5
      vertex 4.84607 4.60405 58.5
    endloop
  endfacet
  facet normal 0 0 1
    outer loop
      vertex 6.125 3.95949 58.5
      vertex 4.83627 4.66594 58.5
      vertex 4.84312 4.6353 58.5
    endloop
  endfacet
  facet normal 0 0 1
    outer loop
      vertex 6.125 3.95949 58.5
      vertex 4.82563 4.69548 58.5
      vertex 4.83627 4.66594 58.5
    endloop
  endfacet
  facet normal 0 0 1
    outer loop
      vertex 7.26968 5.10417 58.5
      vertex 4.82563 4.69548 58.5
      vertex 6.125 3.95949 58.5
    endloop
  endfacet
  facet normal 0 -0 1
    outer loop
      vertex 4.82563 4.69548 58.5
      vertex 7.26968 5.10417 58.5
      vertex 4.81138 4.72345 58.5
    endloop
  endfacet
  facet normal 0 0 1
    outer loop
      vertex 5.10417 7.26968 58.5
      vertex 4.77297 4.77297 58.5
      vertex 4.79373 4.74942 58.5
    endloop
  endfacet
  facet normal 0 0 1
    outer loop
      vertex 5.10417 7.26968 58.5
      vertex 4.74942 4.79373 58.5
      vertex 4.77297 4.77297 58.5
    endloop
  endfacet
  facet normal 0 0 1
    outer loop
      vertex 5.10417 7.26968 58.5
      vertex 4.72345 4.81138 58.5
      vertex 4.74942 4.79373 58.5
    endloop
  endfacet
  facet normal 0 0 1
    outer loop
      vertex 5.10417 7.26968 58.5
      vertex 4.69548 4.82563 58.5
      vertex 4.72345 4.81138 58.5
    endloop
  endfacet
  facet normal -0 0 1
    outer loop
      vertex 3.95949 6.125 58.5
      vertex 4.69548 4.82563 58.5
      vertex 5.10417 7.26968 58.5
    endloop
  endfacet
  facet normal 0 0 1
    outer loop
      vertex 4.69548 4.82563 58.5
      vertex 3.95949 6.125 58.5
      vertex 4.66594 4.83627 58.5
    endloop
  endfacet
  facet normal 0 0 1
    outer loop
      vertex 4.66594 4.83627 58.5
      vertex 3.95949 6.125 58.5
      vertex 4.6353 4.84312 58.5
    endloop
  endfacet
  facet normal 0 0 1
    outer loop
      vertex 4.6353 4.84312 58.5
      vertex 3.95949 6.125 58.5
      vertex 4.60405 4.84607 58.5
    endloop
  endfacet
  facet normal 0 0 1
    outer loop
      vertex 4.60405 4.84607 58.5
      vertex 3.95949 6.125 58.5
      vertex 4.57267 4.84508 58.5
    endloop
  endfacet
  facet normal 0 0 1
    outer loop
      vertex 4.57267 4.84508 58.5
      vertex 3.95949 6.125 58.5
      vertex 4.54166 4.84017 58.5
    endloop
  endfacet
  facet normal 0 0 1
    outer loop
      vertex 4.54166 4.84017 58.5
      vertex 3.95949 6.125 58.5
      vertex 4.51151 4.83141 58.5
    endloop
  endfacet
  facet normal 0 0 1
    outer loop
      vertex 4.51151 4.83141 58.5
      vertex 3.95949 6.125 58.5
      vertex 4.4827 4.81894 58.5
    endloop
  endfacet
  facet normal 0 0 1
    outer loop
      vertex 2.72319 4.19335 58.5
      vertex 4.4827 4.81894 58.5
      vertex 3.95949 6.125 58.5
    endloop
  endfacet
  facet normal 0 0 1
    outer loop
      vertex 4.4827 4.81894 58.5
      vertex 2.72319 4.19335 58.5
      vertex 2.98948 3.97772 58.5
    endloop
  endfacet
  facet normal 0 0 1
    outer loop
      vertex 3.95949 6.125 58.5
      vertex 1.79184 4.6679 58.5
      vertex 2.72319 4.19335 58.5
    endloop
  endfacet
  facet normal 0 0 1
    outer loop
      vertex 3.95949 6.125 58.5
      vertex 0.782173 4.93844 58.5
      vertex 1.79184 4.6679 58.5
    endloop
  endfacet
  facet normal 0 0 1
    outer loop
      vertex 3.95949 6.125 58.5
      vertex -0.26168 4.99315 58.5
      vertex 0.782173 4.93844 58.5
    endloop
  endfacet
  facet normal -0 0 1
    outer loop
      vertex -6.125 6.125 58.5
      vertex -0.26168 4.99315 58.5
      vertex 3.95949 6.125 58.5
    endloop
  endfacet
  facet normal 0 0 1
    outer loop
      vertex -0.26168 4.99315 58.5
      vertex -6.125 6.125 58.5
      vertex -1.2941 4.82963 58.5
    endloop
  endfacet
  facet normal 0 0 1
    outer loop
      vertex -6.125 6.125 58.5
      vertex -2.26995 4.45503 58.5
      vertex -1.2941 4.82963 58.5
    endloop
  endfacet
  facet normal 0 0 1
    outer loop
      vertex -6.125 6.125 58.5
      vertex -3.1466 3.88573 58.5
      vertex -2.26995 4.45503 58.5
    endloop
  endfacet
  facet normal 0 0 1
    outer loop
      vertex -6.125 6.125 58.5
      vertex -3.88573 3.1466 58.5
      vertex -3.1466 3.88573 58.5
    endloop
  endfacet
  facet normal 0 0 1
    outer loop
      vertex -6.125 6.125 58.5
      vertex -4.45503 2.26995 58.5
      vertex -3.88573 3.1466 58.5
    endloop
  endfacet
  facet normal 0 0 1
    outer loop
      vertex -6.125 1.02083 58.5
      vertex -4.45503 2.26995 58.5
      vertex -6.125 6.125 58.5
    endloop
  endfacet
  facet normal 0 0 1
    outer loop
      vertex -4.45503 2.26995 58.5
      vertex -6.125 1.02083 58.5
      vertex -4.82963 1.2941 58.5
    endloop
  endfacet
  facet normal 0 0 1
    outer loop
      vertex -6.125 -1.02083 58.5
      vertex -4.99315 0.26168 58.5
      vertex -6.125 1.02083 58.5
    endloop
  endfacet
  facet normal 0 0 1
    outer loop
      vertex -4.99315 0.26168 58.5
      vertex -6.125 -1.02083 58.5
      vertex -4.93844 -0.782173 58.5
    endloop
  endfacet
  facet normal 0 0 1
    outer loop
      vertex -6.125 -3.95949 58.5
      vertex -4.93844 -0.782173 58.5
      vertex -6.125 -1.02083 58.5
    endloop
  endfacet
  facet normal 0 0 1
    outer loop
      vertex -4.49153 -4.21911 58.5
      vertex -6.125 -3.95949 58.5
      vertex -5.10417 -7.26968 58.5
    endloop
  endfacet
  facet normal 0 0 1
    outer loop
      vertex -5.10417 -7.26968 58.5
      vertex -6.125 -3.95949 58.5
      vertex -7.26968 -5.10417 58.5
    endloop
  endfacet
  facet normal 0 0 1
    outer loop
      vertex 4.93844 0.782173 58.5
      vertex 6.125 1.02083 58.5
      vertex 6.125 3.95949 58.5
    endloop
  endfacet
  facet normal 0 0 1
    outer loop
      vertex 6.125 1.02083 58.5
      vertex 4.99315 -0.26168 58.5
      vertex 6.125 -1.02083 58.5
    endloop
  endfacet
  facet normal 0 0 1
    outer loop
      vertex 4.79373 4.74942 58.5
      vertex 7.26968 5.10417 58.5
      vertex 5.10417 7.26968 58.5
    endloop
  endfacet
  facet normal 0 -0 1
    outer loop
      vertex 4.81138 4.72345 58.5
      vertex 7.26968 5.10417 58.5
      vertex 4.79373 4.74942 58.5
    endloop
  endfacet
  facet normal 0 0 1
    outer loop
      vertex 4.82963 -1.2941 58.5
      vertex 6.125 -1.02083 58.5
      vertex 4.99315 -0.26168 58.5
    endloop
  endfacet
  facet normal 0 0 1
    outer loop
      vertex 4.45503 -2.26995 58.5
      vertex 6.125 -1.02083 58.5
      vertex 4.82963 -1.2941 58.5
    endloop
  endfacet
  facet normal 0 0 1
    outer loop
      vertex 6.125 -1.02083 58.5
      vertex 4.45503 -2.26995 58.5
      vertex 6.125 -6.125 58.5
    endloop
  endfacet
  facet normal -0 0 1
    outer loop
      vertex 3.88573 -3.1466 58.5
      vertex 6.125 -6.125 58.5
      vertex 4.45503 -2.26995 58.5
    endloop
  endfacet
  facet normal -0 0 1
    outer loop
      vertex 3.1466 -3.88573 58.5
      vertex 6.125 -6.125 58.5
      vertex 3.88573 -3.1466 58.5
    endloop
  endfacet
  facet normal -0 0 1
    outer loop
      vertex 2.26995 -4.45503 58.5
      vertex 6.125 -6.125 58.5
      vertex 3.1466 -3.88573 58.5
    endloop
  endfacet
  facet normal -0 0 1
    outer loop
      vertex 1.2941 -4.82963 58.5
      vertex 6.125 -6.125 58.5
      vertex 2.26995 -4.45503 58.5
    endloop
  endfacet
  facet normal -0 0 1
    outer loop
      vertex 0.26168 -4.99315 58.5
      vertex 6.125 -6.125 58.5
      vertex 1.2941 -4.82963 58.5
    endloop
  endfacet
  facet normal 0 0 1
    outer loop
      vertex -3.95949 -6.125 58.5
      vertex 0.26168 -4.99315 58.5
      vertex -0.782173 -4.93844 58.5
    endloop
  endfacet
  facet normal 0 0 1
    outer loop
      vertex 0.26168 -4.99315 58.5
      vertex -3.95949 -6.125 58.5
      vertex 6.125 -6.125 58.5
    endloop
  endfacet
  facet normal 0 0 1
    outer loop
      vertex -1.79184 -4.6679 58.5
      vertex -3.95949 -6.125 58.5
      vertex -0.782173 -4.93844 58.5
    endloop
  endfacet
  facet normal 0 0 1
    outer loop
      vertex -2.72319 -4.19335 58.5
      vertex -3.95949 -6.125 58.5
      vertex -1.79184 -4.6679 58.5
    endloop
  endfacet
  facet normal 0 0 1
    outer loop
      vertex -4.12914 -4.46539 58.5
      vertex -2.72319 -4.19335 58.5
      vertex -3.07846 -3.90567 58.5
    endloop
  endfacet
  facet normal 0 0 1
    outer loop
      vertex -2.72319 -4.19335 58.5
      vertex -4.12914 -4.46539 58.5
      vertex -3.95949 -6.125 58.5
    endloop
  endfacet
  facet normal -0 0 1
    outer loop
      vertex -4.15796 -4.47786 58.5
      vertex -3.95949 -6.125 58.5
      vertex -4.12914 -4.46539 58.5
    endloop
  endfacet
  facet normal -0 0 1
    outer loop
      vertex -4.1881 -4.48662 58.5
      vertex -3.95949 -6.125 58.5
      vertex -4.15796 -4.47786 58.5
    endloop
  endfacet
  facet normal -0 0 1
    outer loop
      vertex -4.21911 -4.49153 58.5
      vertex -3.95949 -6.125 58.5
      vertex -4.1881 -4.48662 58.5
    endloop
  endfacet
  facet normal -0 0 1
    outer loop
      vertex -4.25049 -4.49252 58.5
      vertex -3.95949 -6.125 58.5
      vertex -4.21911 -4.49153 58.5
    endloop
  endfacet
  facet normal 0 0 1
    outer loop
      vertex -4.28175 -4.48956 58.5
      vertex -3.95949 -6.125 58.5
      vertex -4.25049 -4.49252 58.5
    endloop
  endfacet
  facet normal 0 0 1
    outer loop
      vertex -4.31239 -4.48271 58.5
      vertex -3.95949 -6.125 58.5
      vertex -4.28175 -4.48956 58.5
    endloop
  endfacet
  facet normal 0 0 1
    outer loop
      vertex -4.34193 -4.47208 58.5
      vertex -3.95949 -6.125 58.5
      vertex -4.31239 -4.48271 58.5
    endloop
  endfacet
  facet normal 0 0 1
    outer loop
      vertex -4.3699 -4.45783 58.5
      vertex -3.95949 -6.125 58.5
      vertex -4.34193 -4.47208 58.5
    endloop
  endfacet
  facet normal 0 0 1
    outer loop
      vertex -4.39587 -4.44018 58.5
      vertex -3.95949 -6.125 58.5
      vertex -4.3699 -4.45783 58.5
    endloop
  endfacet
  facet normal 0 0 1
    outer loop
      vertex -4.41942 -4.41942 58.5
      vertex -3.95949 -6.125 58.5
      vertex -4.39587 -4.44018 58.5
    endloop
  endfacet
  facet normal 0 0 1
    outer loop
      vertex -5.10417 -7.26968 58.5
      vertex -4.41942 -4.41942 58.5
      vertex -4.44018 -4.39587 58.5
    endloop
  endfacet
  facet normal 0 0 1
    outer loop
      vertex -5.10417 -7.26968 58.5
      vertex -4.44018 -4.39587 58.5
      vertex -4.45783 -4.3699 58.5
    endloop
  endfacet
  facet normal 0 0 1
    outer loop
      vertex -5.10417 -7.26968 58.5
      vertex -4.45783 -4.3699 58.5
      vertex -4.47208 -4.34193 58.5
    endloop
  endfacet
  facet normal 0 0 1
    outer loop
      vertex -5.10417 -7.26968 58.5
      vertex -4.47208 -4.34193 58.5
      vertex -4.48271 -4.31239 58.5
    endloop
  endfacet
  facet normal 0 0 1
    outer loop
      vertex -4.48662 -4.1881 58.5
      vertex -6.125 -3.95949 58.5
      vertex -4.49153 -4.21911 58.5
    endloop
  endfacet
  facet normal 0 0 1
    outer loop
      vertex -4.49153 -4.21911 58.5
      vertex -5.10417 -7.26968 58.5
      vertex -4.49252 -4.25049 58.5
    endloop
  endfacet
  facet normal 0 0 1
    outer loop
      vertex -4.41942 -4.41942 58.5
      vertex -5.10417 -7.26968 58.5
      vertex -3.95949 -6.125 58.5
    endloop
  endfacet
  facet normal 0 0 1
    outer loop
      vertex -4.48956 -4.28175 58.5
      vertex -5.10417 -7.26968 58.5
      vertex -4.48271 -4.31239 58.5
    endloop
  endfacet
  facet normal 0 0 1
    outer loop
      vertex -4.49252 -4.25049 58.5
      vertex -5.10417 -7.26968 58.5
      vertex -4.48956 -4.28175 58.5
    endloop
  endfacet
  facet normal 0 0 1
    outer loop
      vertex -4.82963 1.2941 58.5
      vertex -6.125 1.02083 58.5
      vertex -4.99315 0.26168 58.5
    endloop
  endfacet
  facet normal -0 0 1
    outer loop
      vertex 6.125 1.02083 58.5
      vertex 7.06868 0.29376 58.5
      vertex 6.3416 1.02083 58.5
    endloop
  endfacet
  facet normal 0 0 1
    outer loop
      vertex 7.06868 0.29376 58.5
      vertex 6.125 1.02083 58.5
      vertex 7.06868 -0.29376 58.5
    endloop
  endfacet
  facet normal 0 0 1
    outer loop
      vertex 6.125 -1.02083 58.5
      vertex 7.06868 -0.29376 58.5
      vertex 6.125 1.02083 58.5
    endloop
  endfacet
  facet normal 0 0 1
    outer loop
      vertex 7.06868 -0.29376 58.5
      vertex 6.125 -1.02083 58.5
      vertex 6.3416 -1.02083 58.5
    endloop
  endfacet
  facet normal -0 0 1
    outer loop
      vertex 4.84017 4.54166 58.5
      vertex 6.125 3.95949 58.5
      vertex 4.84508 4.57267 58.5
    endloop
  endfacet
  facet normal -0 0 1
    outer loop
      vertex 4.83141 4.51151 58.5
      vertex 6.125 3.95949 58.5
      vertex 4.84017 4.54166 58.5
    endloop
  endfacet
  facet normal -0 0 1
    outer loop
      vertex 4.81894 4.4827 58.5
      vertex 6.125 3.95949 58.5
      vertex 4.83141 4.51151 58.5
    endloop
  endfacet
  facet normal 0 0 1
    outer loop
      vertex 4.19335 2.72319 58.5
      vertex 6.125 3.95949 58.5
      vertex 4.81894 4.4827 58.5
    endloop
  endfacet
  facet normal 0 0 1
    outer loop
      vertex 6.125 3.95949 58.5
      vertex 4.6679 1.79184 58.5
      vertex 4.93844 0.782173 58.5
    endloop
  endfacet
  facet normal 0 0 1
    outer loop
      vertex 6.125 3.95949 58.5
      vertex 4.19335 2.72319 58.5
      vertex 4.6679 1.79184 58.5
    endloop
  endfacet
  facet normal 0 -0 1
    outer loop
      vertex 4.19335 2.72319 58.5
      vertex 4.81894 4.4827 58.5
      vertex 3.97772 2.98948 58.5
    endloop
  endfacet
  facet normal 0.629307 0.777157 -0
    outer loop
      vertex 2.98948 3.97772 58.5
      vertex 2.72319 4.19335 93.49
      vertex 2.98948 3.97772 93.49
    endloop
  endfacet
  facet normal 0.629307 0.777157 0
    outer loop
      vertex 2.72319 4.19335 93.49
      vertex 2.98948 3.97772 58.5
      vertex 2.72319 4.19335 58.5
    endloop
  endfacet
  facet normal -0.777159 -0.629305 0
    outer loop
      vertex -3.90567 -3.07846 58.5
      vertex -4.19335 -2.72319 93.49
      vertex -4.19335 -2.72319 58.5
    endloop
  endfacet
  facet normal -0.777159 -0.629305 0
    outer loop
      vertex -4.19335 -2.72319 93.49
      vertex -3.90567 -3.07846 58.5
      vertex -3.90567 -3.07846 93.49
    endloop
  endfacet
  facet normal -0.707107 0.707107 0
    outer loop
      vertex -3.88573 3.1466 58.5
      vertex -3.1466 3.88573 93.49
      vertex -3.1466 3.88573 58.5
    endloop
  endfacet
  facet normal -0.707107 0.707107 0
    outer loop
      vertex -3.1466 3.88573 93.49
      vertex -3.88573 3.1466 58.5
      vertex -3.88573 3.1466 93.49
    endloop
  endfacet
  facet normal 0.707107 -0.707107 0
    outer loop
      vertex 3.1466 -3.88573 93.49
      vertex 3.88573 -3.1466 58.5
      vertex 3.88573 -3.1466 93.49
    endloop
  endfacet
  facet normal 0.707107 -0.707107 0
    outer loop
      vertex 3.88573 -3.1466 58.5
      vertex 3.1466 -3.88573 93.49
      vertex 3.1466 -3.88573 58.5
    endloop
  endfacet
  facet normal -0.156435 0.987688 0
    outer loop
      vertex -0.26168 4.99315 58.5
      vertex -1.2941 4.82963 93.49
      vertex -0.26168 4.99315 93.49
    endloop
  endfacet
  facet normal -0.156435 0.987688 0
    outer loop
      vertex -1.2941 4.82963 93.49
      vertex -0.26168 4.99315 58.5
      vertex -1.2941 4.82963 58.5
    endloop
  endfacet
  facet normal -0.358373 0.933578 0
    outer loop
      vertex -1.2941 4.82963 58.5
      vertex -2.26995 4.45503 93.49
      vertex -1.2941 4.82963 93.49
    endloop
  endfacet
  facet normal -0.358373 0.933578 0
    outer loop
      vertex -2.26995 4.45503 93.49
      vertex -1.2941 4.82963 58.5
      vertex -2.26995 4.45503 58.5
    endloop
  endfacet
  facet normal -0.987688 0.156435 0
    outer loop
      vertex -4.99315 0.26168 58.5
      vertex -4.82963 1.2941 93.49
      vertex -4.82963 1.2941 58.5
    endloop
  endfacet
  facet normal -0.987688 0.156435 0
    outer loop
      vertex -4.82963 1.2941 93.49
      vertex -4.99315 0.26168 58.5
      vertex -4.99315 0.26168 93.49
    endloop
  endfacet
  facet normal -0.838672 0.544637 0
    outer loop
      vertex -4.45503 2.26995 58.5
      vertex -3.88573 3.1466 93.49
      vertex -3.88573 3.1466 58.5
    endloop
  endfacet
  facet normal -0.838672 0.544637 0
    outer loop
      vertex -3.88573 3.1466 93.49
      vertex -4.45503 2.26995 58.5
      vertex -4.45503 2.26995 93.49
    endloop
  endfacet
  facet normal 0.25882 0.965926 -0
    outer loop
      vertex 1.79184 4.6679 58.5
      vertex 0.782173 4.93844 93.49
      vertex 1.79184 4.6679 93.49
    endloop
  endfacet
  facet normal 0.25882 0.965926 0
    outer loop
      vertex 0.782173 4.93844 93.49
      vertex 1.79184 4.6679 58.5
      vertex 0.782173 4.93844 58.5
    endloop
  endfacet
  facet normal 0.453993 0.891005 -0
    outer loop
      vertex 2.72319 4.19335 58.5
      vertex 1.79184 4.6679 93.49
      vertex 2.72319 4.19335 93.49
    endloop
  endfacet
  facet normal 0.453993 0.891005 0
    outer loop
      vertex 1.79184 4.6679 93.49
      vertex 2.72319 4.19335 58.5
      vertex 1.79184 4.6679 58.5
    endloop
  endfacet
  facet normal 0.0523398 0.998629 -0
    outer loop
      vertex 0.782173 4.93844 58.5
      vertex -0.26168 4.99315 93.49
      vertex 0.782173 4.93844 93.49
    endloop
  endfacet
  facet normal 0.0523398 0.998629 0
    outer loop
      vertex -0.26168 4.99315 93.49
      vertex 0.782173 4.93844 58.5
      vertex -0.26168 4.99315 58.5
    endloop
  endfacet
  facet normal -0.544637 0.838672 0
    outer loop
      vertex -2.26995 4.45503 58.5
      vertex -3.1466 3.88573 93.49
      vertex -2.26995 4.45503 93.49
    endloop
  endfacet
  facet normal -0.544637 0.838672 0
    outer loop
      vertex -3.1466 3.88573 93.49
      vertex -2.26995 4.45503 58.5
      vertex -3.1466 3.88573 58.5
    endloop
  endfacet
  facet normal -0.965926 -0.25882 0
    outer loop
      vertex -4.6679 -1.79184 58.5
      vertex -4.93844 -0.782173 93.49
      vertex -4.93844 -0.782173 58.5
    endloop
  endfacet
  facet normal -0.965926 -0.25882 0
    outer loop
      vertex -4.93844 -0.782173 93.49
      vertex -4.6679 -1.79184 58.5
      vertex -4.6679 -1.79184 93.49
    endloop
  endfacet
  facet normal -0.998629 -0.0523398 0
    outer loop
      vertex -4.93844 -0.782173 58.5
      vertex -4.99315 0.26168 93.49
      vertex -4.99315 0.26168 58.5
    endloop
  endfacet
  facet normal -0.998629 -0.0523398 0
    outer loop
      vertex -4.99315 0.26168 93.49
      vertex -4.93844 -0.782173 58.5
      vertex -4.93844 -0.782173 93.49
    endloop
  endfacet
  facet normal -0.891005 -0.453993 0
    outer loop
      vertex -4.19335 -2.72319 58.5
      vertex -4.6679 -1.79184 93.49
      vertex -4.6679 -1.79184 58.5
    endloop
  endfacet
  facet normal -0.891005 -0.453993 0
    outer loop
      vertex -4.6679 -1.79184 93.49
      vertex -4.19335 -2.72319 58.5
      vertex -4.19335 -2.72319 93.49
    endloop
  endfacet
  facet normal -0 0 1
    outer loop
      vertex -4.45503 2.26995 93.49
      vertex -3.90567 -3.07846 93.49
      vertex -3.88573 3.1466 93.49
    endloop
  endfacet
  facet normal -0 0 1
    outer loop
      vertex -4.82963 1.2941 93.49
      vertex -3.90567 -3.07846 93.49
      vertex -4.45503 2.26995 93.49
    endloop
  endfacet
  facet normal 0 0 1
    outer loop
      vertex -3.90567 -3.07846 93.49
      vertex -4.6679 -1.79184 93.49
      vertex -4.19335 -2.72319 93.49
    endloop
  endfacet
  facet normal -0 0 1
    outer loop
      vertex -4.93844 -0.782173 93.49
      vertex -3.90567 -3.07846 93.49
      vertex -4.82963 1.2941 93.49
    endloop
  endfacet
  facet normal 0 0 1
    outer loop
      vertex -3.90567 -3.07846 93.49
      vertex -4.93844 -0.782173 93.49
      vertex -4.6679 -1.79184 93.49
    endloop
  endfacet
  facet normal 0 -0 1
    outer loop
      vertex -4.93844 -0.782173 93.49
      vertex -4.82963 1.2941 93.49
      vertex -4.99315 0.26168 93.49
    endloop
  endfacet
  facet normal 0 0 1
    outer loop
      vertex 4.84312 4.6353 93.49
      vertex 4.84508 4.57267 93.49
      vertex 4.84607 4.60405 93.49
    endloop
  endfacet
  facet normal 0 0 1
    outer loop
      vertex 4.84312 4.6353 93.49
      vertex 4.84017 4.54166 93.49
      vertex 4.84508 4.57267 93.49
    endloop
  endfacet
  facet normal 0 0 1
    outer loop
      vertex 4.83627 4.66594 93.49
      vertex 4.84017 4.54166 93.49
      vertex 4.84312 4.6353 93.49
    endloop
  endfacet
  facet normal 0 0 1
    outer loop
      vertex 4.83627 4.66594 93.49
      vertex 4.83141 4.51151 93.49
      vertex 4.84017 4.54166 93.49
    endloop
  endfacet
  facet normal 0 0 1
    outer loop
      vertex 4.82563 4.69548 93.49
      vertex 4.83141 4.51151 93.49
      vertex 4.83627 4.66594 93.49
    endloop
  endfacet
  facet normal 0 0 1
    outer loop
      vertex 4.82563 4.69548 93.49
      vertex 4.81894 4.4827 93.49
      vertex 4.83141 4.51151 93.49
    endloop
  endfacet
  facet normal 0 0 1
    outer loop
      vertex 4.81138 4.72345 93.49
      vertex 4.81894 4.4827 93.49
      vertex 4.82563 4.69548 93.49
    endloop
  endfacet
  facet normal 0 0 1
    outer loop
      vertex 4.79373 4.74942 93.49
      vertex 4.81894 4.4827 93.49
      vertex 4.81138 4.72345 93.49
    endloop
  endfacet
  facet normal 0 0 1
    outer loop
      vertex 4.77297 4.77297 93.49
      vertex 4.81894 4.4827 93.49
      vertex 4.79373 4.74942 93.49
    endloop
  endfacet
  facet normal 0 0 1
    outer loop
      vertex 4.74942 4.79373 93.49
      vertex 4.81894 4.4827 93.49
      vertex 4.77297 4.77297 93.49
    endloop
  endfacet
  facet normal 0 0 1
    outer loop
      vertex 4.72345 4.81138 93.49
      vertex 4.81894 4.4827 93.49
      vertex 4.74942 4.79373 93.49
    endloop
  endfacet
  facet normal 0 0 1
    outer loop
      vertex 4.69548 4.82563 93.49
      vertex 4.81894 4.4827 93.49
      vertex 4.72345 4.81138 93.49
    endloop
  endfacet
  facet normal 0 0 1
    outer loop
      vertex 4.66594 4.83627 93.49
      vertex 4.81894 4.4827 93.49
      vertex 4.69548 4.82563 93.49
    endloop
  endfacet
  facet normal 0 0 1
    outer loop
      vertex 4.6353 4.84312 93.49
      vertex 4.81894 4.4827 93.49
      vertex 4.66594 4.83627 93.49
    endloop
  endfacet
  facet normal 0 0 1
    outer loop
      vertex 4.60405 4.84607 93.49
      vertex 4.81894 4.4827 93.49
      vertex 4.6353 4.84312 93.49
    endloop
  endfacet
  facet normal -0 0 1
    outer loop
      vertex 4.57267 4.84508 93.49
      vertex 4.81894 4.4827 93.49
      vertex 4.60405 4.84607 93.49
    endloop
  endfacet
  facet normal -0 0 1
    outer loop
      vertex 4.54166 4.84017 93.49
      vertex 4.81894 4.4827 93.49
      vertex 4.57267 4.84508 93.49
    endloop
  endfacet
  facet normal -0 0 1
    outer loop
      vertex 4.51151 4.83141 93.49
      vertex 4.81894 4.4827 93.49
      vertex 4.54166 4.84017 93.49
    endloop
  endfacet
  facet normal -0 0 1
    outer loop
      vertex 4.4827 4.81894 93.49
      vertex 4.81894 4.4827 93.49
      vertex 4.51151 4.83141 93.49
    endloop
  endfacet
  facet normal 0 0 1
    outer loop
      vertex 4.4827 4.81894 93.49
      vertex 3.97772 2.98948 93.49
      vertex 4.81894 4.4827 93.49
    endloop
  endfacet
  facet normal 0 0 1
    outer loop
      vertex 3.97772 2.98948 93.49
      vertex 3.1466 -3.88573 93.49
      vertex 3.88573 -3.1466 93.49
    endloop
  endfacet
  facet normal -0 0 1
    outer loop
      vertex 2.98948 3.97772 93.49
      vertex 3.97772 2.98948 93.49
      vertex 4.4827 4.81894 93.49
    endloop
  endfacet
  facet normal 0 0 1
    outer loop
      vertex 2.98948 3.97772 93.49
      vertex 3.1466 -3.88573 93.49
      vertex 3.97772 2.98948 93.49
    endloop
  endfacet
  facet normal 0 0 1
    outer loop
      vertex 1.79184 4.6679 93.49
      vertex 2.98948 3.97772 93.49
      vertex 2.72319 4.19335 93.49
    endloop
  endfacet
  facet normal 0 0 1
    outer loop
      vertex 2.98948 3.97772 93.49
      vertex 2.26995 -4.45503 93.49
      vertex 3.1466 -3.88573 93.49
    endloop
  endfacet
  facet normal 0 0 1
    outer loop
      vertex 0.782173 4.93844 93.49
      vertex 2.98948 3.97772 93.49
      vertex 1.79184 4.6679 93.49
    endloop
  endfacet
  facet normal 0 0 1
    outer loop
      vertex 2.98948 3.97772 93.49
      vertex 1.2941 -4.82963 93.49
      vertex 2.26995 -4.45503 93.49
    endloop
  endfacet
  facet normal 0 0 1
    outer loop
      vertex -0.26168 4.99315 93.49
      vertex 2.98948 3.97772 93.49
      vertex 0.782173 4.93844 93.49
    endloop
  endfacet
  facet normal 0 0 1
    outer loop
      vertex 2.98948 3.97772 93.49
      vertex 0.26168 -4.99315 93.49
      vertex 1.2941 -4.82963 93.49
    endloop
  endfacet
  facet normal 0 0 1
    outer loop
      vertex -3.07846 -3.90567 93.49
      vertex 2.98948 3.97772 93.49
      vertex -0.26168 4.99315 93.49
    endloop
  endfacet
  facet normal 0 0 1
    outer loop
      vertex 2.98948 3.97772 93.49
      vertex -3.07846 -3.90567 93.49
      vertex 0.26168 -4.99315 93.49
    endloop
  endfacet
  facet normal 0 0 1
    outer loop
      vertex -3.07846 -3.90567 93.49
      vertex -0.26168 4.99315 93.49
      vertex -1.2941 4.82963 93.49
    endloop
  endfacet
  facet normal 0 0 1
    outer loop
      vertex 0.26168 -4.99315 93.49
      vertex -3.07846 -3.90567 93.49
      vertex -0.782173 -4.93844 93.49
    endloop
  endfacet
  facet normal 0 0 1
    outer loop
      vertex -3.07846 -3.90567 93.49
      vertex -1.2941 4.82963 93.49
      vertex -2.26995 4.45503 93.49
    endloop
  endfacet
  facet normal 0 0 1
    outer loop
      vertex -0.782173 -4.93844 93.49
      vertex -3.07846 -3.90567 93.49
      vertex -1.79184 -4.6679 93.49
    endloop
  endfacet
  facet normal 0 0 1
    outer loop
      vertex -1.79184 -4.6679 93.49
      vertex -3.07846 -3.90567 93.49
      vertex -2.72319 -4.19335 93.49
    endloop
  endfacet
  facet normal -0 0 1
    outer loop
      vertex -3.1466 3.88573 93.49
      vertex -3.07846 -3.90567 93.49
      vertex -2.26995 4.45503 93.49
    endloop
  endfacet
  facet normal -0 0 1
    outer loop
      vertex -3.88573 3.1466 93.49
      vertex -3.07846 -3.90567 93.49
      vertex -3.1466 3.88573 93.49
    endloop
  endfacet
  facet normal -0 0 1
    outer loop
      vertex -3.90567 -3.07846 93.49
      vertex -3.07846 -3.90567 93.49
      vertex -3.88573 3.1466 93.49
    endloop
  endfacet
  facet normal 0 0 1
    outer loop
      vertex -3.90567 -3.07846 93.49
      vertex -4.12914 -4.46539 93.49
      vertex -3.07846 -3.90567 93.49
    endloop
  endfacet
  facet normal -0 0 1
    outer loop
      vertex -4.46539 -4.12914 93.49
      vertex -4.12914 -4.46539 93.49
      vertex -3.90567 -3.07846 93.49
    endloop
  endfacet
  facet normal 0 0 1
    outer loop
      vertex -4.12914 -4.46539 93.49
      vertex -4.46539 -4.12914 93.49
      vertex -4.15796 -4.47786 93.49
    endloop
  endfacet
  facet normal 0 0 1
    outer loop
      vertex -4.15796 -4.47786 93.49
      vertex -4.46539 -4.12914 93.49
      vertex -4.1881 -4.48662 93.49
    endloop
  endfacet
  facet normal 0 0 1
    outer loop
      vertex -4.1881 -4.48662 93.49
      vertex -4.46539 -4.12914 93.49
      vertex -4.21911 -4.49153 93.49
    endloop
  endfacet
  facet normal 0 0 1
    outer loop
      vertex -4.21911 -4.49153 93.49
      vertex -4.46539 -4.12914 93.49
      vertex -4.25049 -4.49252 93.49
    endloop
  endfacet
  facet normal 0 0 1
    outer loop
      vertex -4.25049 -4.49252 93.49
      vertex -4.46539 -4.12914 93.49
      vertex -4.28175 -4.48956 93.49
    endloop
  endfacet
  facet normal 0 0 1
    outer loop
      vertex -4.28175 -4.48956 93.49
      vertex -4.46539 -4.12914 93.49
      vertex -4.31239 -4.48271 93.49
    endloop
  endfacet
  facet normal 0 0 1
    outer loop
      vertex -4.31239 -4.48271 93.49
      vertex -4.46539 -4.12914 93.49
      vertex -4.34193 -4.47208 93.49
    endloop
  endfacet
  facet normal 0 0 1
    outer loop
      vertex -4.34193 -4.47208 93.49
      vertex -4.46539 -4.12914 93.49
      vertex -4.3699 -4.45783 93.49
    endloop
  endfacet
  facet normal 0 0 1
    outer loop
      vertex -4.3699 -4.45783 93.49
      vertex -4.46539 -4.12914 93.49
      vertex -4.39587 -4.44018 93.49
    endloop
  endfacet
  facet normal 0 0 1
    outer loop
      vertex -4.39587 -4.44018 93.49
      vertex -4.46539 -4.12914 93.49
      vertex -4.41942 -4.41942 93.49
    endloop
  endfacet
  facet normal 0 0 1
    outer loop
      vertex -4.41942 -4.41942 93.49
      vertex -4.46539 -4.12914 93.49
      vertex -4.44018 -4.39587 93.49
    endloop
  endfacet
  facet normal 0 0 1
    outer loop
      vertex -4.44018 -4.39587 93.49
      vertex -4.46539 -4.12914 93.49
      vertex -4.45783 -4.3699 93.49
    endloop
  endfacet
  facet normal 0 0 1
    outer loop
      vertex -4.46539 -4.12914 93.49
      vertex -4.47208 -4.34193 93.49
      vertex -4.45783 -4.3699 93.49
    endloop
  endfacet
  facet normal -0 0 1
    outer loop
      vertex -4.47786 -4.15796 93.49
      vertex -4.47208 -4.34193 93.49
      vertex -4.46539 -4.12914 93.49
    endloop
  endfacet
  facet normal 0 0 1
    outer loop
      vertex -4.47786 -4.15796 93.49
      vertex -4.48271 -4.31239 93.49
      vertex -4.47208 -4.34193 93.49
    endloop
  endfacet
  facet normal -0 0 1
    outer loop
      vertex -4.48662 -4.1881 93.49
      vertex -4.48271 -4.31239 93.49
      vertex -4.47786 -4.15796 93.49
    endloop
  endfacet
  facet normal 0 0 1
    outer loop
      vertex -4.48662 -4.1881 93.49
      vertex -4.48956 -4.28175 93.49
      vertex -4.48271 -4.31239 93.49
    endloop
  endfacet
  facet normal -0 0 1
    outer loop
      vertex -4.49153 -4.21911 93.49
      vertex -4.48956 -4.28175 93.49
      vertex -4.48662 -4.1881 93.49
    endloop
  endfacet
  facet normal 0 0 1
    outer loop
      vertex -4.48956 -4.28175 93.49
      vertex -4.49153 -4.21911 93.49
      vertex -4.49252 -4.25049 93.49
    endloop
  endfacet
  facet normal 0 0 1
    outer loop
      vertex 4.93844 0.782173 93.49
      vertex 4.82963 -1.2941 93.49
      vertex 4.99315 -0.26168 93.49
    endloop
  endfacet
  facet normal 0 0 1
    outer loop
      vertex 3.97772 2.98948 93.49
      vertex 4.93844 0.782173 93.49
      vertex 4.6679 1.79184 93.49
    endloop
  endfacet
  facet normal 0 0 1
    outer loop
      vertex 4.93844 0.782173 93.49
      vertex 3.97772 2.98948 93.49
      vertex 4.82963 -1.2941 93.49
    endloop
  endfacet
  facet normal 0 0 1
    outer loop
      vertex 3.97772 2.98948 93.49
      vertex 4.6679 1.79184 93.49
      vertex 4.19335 2.72319 93.49
    endloop
  endfacet
  facet normal 0 0 1
    outer loop
      vertex 4.82963 -1.2941 93.49
      vertex 3.97772 2.98948 93.49
      vertex 4.45503 -2.26995 93.49
    endloop
  endfacet
  facet normal 0 0 1
    outer loop
      vertex 4.45503 -2.26995 93.49
      vertex 3.97772 2.98948 93.49
      vertex 3.88573 -3.1466 93.49
    endloop
  endfacet
  facet normal -0.933578 0.358373 0
    outer loop
      vertex -4.82963 1.2941 58.5
      vertex -4.45503 2.26995 93.49
      vertex -4.45503 2.26995 58.5
    endloop
  endfacet
  facet normal -0.933578 0.358373 0
    outer loop
      vertex -4.45503 2.26995 93.49
      vertex -4.82963 1.2941 58.5
      vertex -4.82963 1.2941 93.49
    endloop
  endfacet
  facet normal 0.777157 0.629307 0
    outer loop
      vertex 4.19335 2.72319 93.49
      vertex 3.97772 2.98948 58.5
      vertex 3.97772 2.98948 93.49
    endloop
  endfacet
  facet normal 0.777157 0.629307 0
    outer loop
      vertex 3.97772 2.98948 58.5
      vertex 4.19335 2.72319 93.49
      vertex 4.19335 2.72319 58.5
    endloop
  endfacet
  facet normal 0.838672 -0.544637 0
    outer loop
      vertex 3.88573 -3.1466 93.49
      vertex 4.45503 -2.26995 58.5
      vertex 4.45503 -2.26995 93.49
    endloop
  endfacet
  facet normal 0.838672 -0.544637 0
    outer loop
      vertex 4.45503 -2.26995 58.5
      vertex 3.88573 -3.1466 93.49
      vertex 3.88573 -3.1466 58.5
    endloop
  endfacet
  facet normal 0.965926 0.25882 0
    outer loop
      vertex 4.93844 0.782173 93.49
      vertex 4.6679 1.79184 58.5
      vertex 4.6679 1.79184 93.49
    endloop
  endfacet
  facet normal 0.965926 0.25882 0
    outer loop
      vertex 4.6679 1.79184 58.5
      vertex 4.93844 0.782173 93.49
      vertex 4.93844 0.782173 58.5
    endloop
  endfacet
  facet normal 0.156435 -0.987688 0
    outer loop
      vertex 0.26168 -4.99315 58.5
      vertex 1.2941 -4.82963 93.49
      vertex 0.26168 -4.99315 93.49
    endloop
  endfacet
  facet normal 0.156435 -0.987688 0
    outer loop
      vertex 1.2941 -4.82963 93.49
      vertex 0.26168 -4.99315 58.5
      vertex 1.2941 -4.82963 58.5
    endloop
  endfacet
  facet normal -0.25882 -0.965926 0
    outer loop
      vertex -1.79184 -4.6679 58.5
      vertex -0.782173 -4.93844 93.49
      vertex -1.79184 -4.6679 93.49
    endloop
  endfacet
  facet normal -0.25882 -0.965926 -0
    outer loop
      vertex -0.782173 -4.93844 93.49
      vertex -1.79184 -4.6679 58.5
      vertex -0.782173 -4.93844 58.5
    endloop
  endfacet
  facet normal -0.0523398 -0.998629 0
    outer loop
      vertex -0.782173 -4.93844 58.5
      vertex 0.26168 -4.99315 93.49
      vertex -0.782173 -4.93844 93.49
    endloop
  endfacet
  facet normal -0.0523398 -0.998629 -0
    outer loop
      vertex 0.26168 -4.99315 93.49
      vertex -0.782173 -4.93844 58.5
      vertex 0.26168 -4.99315 58.5
    endloop
  endfacet
  facet normal -0.629305 -0.777159 0
    outer loop
      vertex -3.07846 -3.90567 58.5
      vertex -2.72319 -4.19335 93.49
      vertex -3.07846 -3.90567 93.49
    endloop
  endfacet
  facet normal -0.629305 -0.777159 -0
    outer loop
      vertex -2.72319 -4.19335 93.49
      vertex -3.07846 -3.90567 58.5
      vertex -2.72319 -4.19335 58.5
    endloop
  endfacet
  facet normal 0.987688 -0.156435 0
    outer loop
      vertex 4.82963 -1.2941 93.49
      vertex 4.99315 -0.26168 58.5
      vertex 4.99315 -0.26168 93.49
    endloop
  endfacet
  facet normal 0.987688 -0.156435 0
    outer loop
      vertex 4.99315 -0.26168 58.5
      vertex 4.82963 -1.2941 93.49
      vertex 4.82963 -1.2941 58.5
    endloop
  endfacet
  facet normal 0.933578 -0.358373 0
    outer loop
      vertex 4.45503 -2.26995 93.49
      vertex 4.82963 -1.2941 58.5
      vertex 4.82963 -1.2941 93.49
    endloop
  endfacet
  facet normal 0.933578 -0.358373 0
    outer loop
      vertex 4.82963 -1.2941 58.5
      vertex 4.45503 -2.26995 93.49
      vertex 4.45503 -2.26995 58.5
    endloop
  endfacet
  facet normal 0.891005 0.453993 0
    outer loop
      vertex 4.6679 1.79184 93.49
      vertex 4.19335 2.72319 58.5
      vertex 4.19335 2.72319 93.49
    endloop
  endfacet
  facet normal 0.891005 0.453993 0
    outer loop
      vertex 4.19335 2.72319 58.5
      vertex 4.6679 1.79184 93.49
      vertex 4.6679 1.79184 58.5
    endloop
  endfacet
  facet normal 0.544637 -0.838672 0
    outer loop
      vertex 2.26995 -4.45503 58.5
      vertex 3.1466 -3.88573 93.49
      vertex 2.26995 -4.45503 93.49
    endloop
  endfacet
  facet normal 0.544637 -0.838672 0
    outer loop
      vertex 3.1466 -3.88573 93.49
      vertex 2.26995 -4.45503 58.5
      vertex 3.1466 -3.88573 58.5
    endloop
  endfacet
  facet normal -0.453993 -0.891005 0
    outer loop
      vertex -2.72319 -4.19335 58.5
      vertex -1.79184 -4.6679 93.49
      vertex -2.72319 -4.19335 93.49
    endloop
  endfacet
  facet normal -0.453993 -0.891005 -0
    outer loop
      vertex -1.79184 -4.6679 93.49
      vertex -2.72319 -4.19335 58.5
      vertex -1.79184 -4.6679 58.5
    endloop
  endfacet
  facet normal 0.998629 0.0523398 0
    outer loop
      vertex 4.99315 -0.26168 93.49
      vertex 4.93844 0.782173 58.5
      vertex 4.93844 0.782173 93.49
    endloop
  endfacet
  facet normal 0.998629 0.0523398 0
    outer loop
      vertex 4.93844 0.782173 58.5
      vertex 4.99315 -0.26168 93.49
      vertex 4.99315 -0.26168 58.5
    endloop
  endfacet
  facet normal 0.358373 -0.933578 0
    outer loop
      vertex 1.2941 -4.82963 58.5
      vertex 2.26995 -4.45503 93.49
      vertex 1.2941 -4.82963 93.49
    endloop
  endfacet
  facet normal 0.358373 -0.933578 0
    outer loop
      vertex 2.26995 -4.45503 93.49
      vertex 1.2941 -4.82963 58.5
      vertex 2.26995 -4.45503 58.5
    endloop
  endfacet
  facet normal -0.750145 -0.661274 0
    outer loop
      vertex -4.41942 -4.41942 58.5
      vertex -4.44018 -4.39587 93.49
      vertex -4.44018 -4.39587 58.5
    endloop
  endfacet
  facet normal -0.750145 -0.661274 0
    outer loop
      vertex -4.44018 -4.39587 93.49
      vertex -4.41942 -4.41942 58.5
      vertex -4.41942 -4.41942 93.49
    endloop
  endfacet
  facet normal -0.827069 -0.562101 0
    outer loop
      vertex -4.44018 -4.39587 58.5
      vertex -4.45783 -4.3699 93.49
      vertex -4.45783 -4.3699 58.5
    endloop
  endfacet
  facet normal -0.827069 -0.562101 0
    outer loop
      vertex -4.45783 -4.3699 93.49
      vertex -4.44018 -4.39587 58.5
      vertex -4.44018 -4.39587 93.49
    endloop
  endfacet
  facet normal -0.661274 -0.750145 0
    outer loop
      vertex -4.41942 -4.41942 58.5
      vertex -4.39587 -4.44018 93.49
      vertex -4.41942 -4.41942 93.49
    endloop
  endfacet
  facet normal -0.661274 -0.750145 -0
    outer loop
      vertex -4.39587 -4.44018 93.49
      vertex -4.41942 -4.41942 58.5
      vertex -4.39587 -4.44018 58.5
    endloop
  endfacet
  facet normal 0.917722 -0.397223 0
    outer loop
      vertex 4.81894 4.4827 93.49
      vertex 4.83141 4.51151 58.5
      vertex 4.83141 4.51151 93.49
    endloop
  endfacet
  facet normal 0.917722 -0.397223 0
    outer loop
      vertex 4.83141 4.51151 58.5
      vertex 4.81894 4.4827 93.49
      vertex 4.81894 4.4827 58.5
    endloop
  endfacet
  facet normal 0.470168 -0.882577 0
    outer loop
      vertex -4.12914 -4.46539 58.5
      vertex -3.07846 -3.90567 93.49
      vertex -4.12914 -4.46539 93.49
    endloop
  endfacet
  facet normal 0.470168 -0.882577 0
    outer loop
      vertex -3.07846 -3.90567 93.49
      vertex -4.12914 -4.46539 58.5
      vertex -3.07846 -3.90567 58.5
    endloop
  endfacet
  facet normal 0.975909 0.218178 0
    outer loop
      vertex 4.84312 4.6353 93.49
      vertex 4.83627 4.66594 58.5
      vertex 4.83627 4.66594 93.49
    endloop
  endfacet
  facet normal 0.975909 0.218178 0
    outer loop
      vertex 4.83627 4.66594 58.5
      vertex 4.84312 4.6353 93.49
      vertex 4.84312 4.6353 58.5
    endloop
  endfacet
  facet normal -0.882577 0.470168 0
    outer loop
      vertex -4.46539 -4.12914 58.5
      vertex -3.90567 -3.07846 93.49
      vertex -3.90567 -3.07846 58.5
    endloop
  endfacet
  facet normal -0.882577 0.470168 0
    outer loop
      vertex -3.90567 -3.07846 93.49
      vertex -4.46539 -4.12914 58.5
      vertex -4.46539 -4.12914 93.49
    endloop
  endfacet
  facet normal 0.397107 -0.917772 0
    outer loop
      vertex -4.15796 -4.47786 58.5
      vertex -4.12914 -4.46539 93.49
      vertex -4.15796 -4.47786 93.49
    endloop
  endfacet
  facet normal 0.397107 -0.917772 0
    outer loop
      vertex -4.12914 -4.46539 93.49
      vertex -4.15796 -4.47786 58.5
      vertex -4.12914 -4.46539 58.5
    endloop
  endfacet
  facet normal 0.871255 -0.49083 0
    outer loop
      vertex 3.97772 2.98948 93.49
      vertex 4.81894 4.4827 58.5
      vertex 4.81894 4.4827 93.49
    endloop
  endfacet
  facet normal 0.871255 -0.49083 0
    outer loop
      vertex 4.81894 4.4827 58.5
      vertex 3.97772 2.98948 93.49
      vertex 3.97772 2.98948 58.5
    endloop
  endfacet
  facet normal 0.891025 0.453954 0
    outer loop
      vertex 4.82563 4.69548 93.49
      vertex 4.81138 4.72345 58.5
      vertex 4.81138 4.72345 93.49
    endloop
  endfacet
  facet normal 0.891025 0.453954 0
    outer loop
      vertex 4.81138 4.72345 58.5
      vertex 4.82563 4.69548 93.49
      vertex 4.82563 4.69548 58.5
    endloop
  endfacet
  facet normal 0.218178 0.975909 -0
    outer loop
      vertex 4.66594 4.83627 58.5
      vertex 4.6353 4.84312 93.49
      vertex 4.66594 4.83627 93.49
    endloop
  endfacet
  facet normal 0.218178 0.975909 0
    outer loop
      vertex 4.6353 4.84312 93.49
      vertex 4.66594 4.83627 58.5
      vertex 4.6353 4.84312 58.5
    endloop
  endfacet
  facet normal -0.338595 -0.940932 0
    outer loop
      vertex -4.34193 -4.47208 58.5
      vertex -4.31239 -4.48271 93.49
      vertex -4.34193 -4.47208 93.49
    endloop
  endfacet
  facet normal -0.338595 -0.940932 -0
    outer loop
      vertex -4.31239 -4.48271 93.49
      vertex -4.34193 -4.47208 58.5
      vertex -4.31239 -4.48271 58.5
    endloop
  endfacet
  facet normal 0.279095 -0.960264 0
    outer loop
      vertex -4.1881 -4.48662 58.5
      vertex -4.15796 -4.47786 93.49
      vertex -4.1881 -4.48662 93.49
    endloop
  endfacet
  facet normal 0.279095 -0.960264 0
    outer loop
      vertex -4.15796 -4.47786 93.49
      vertex -4.1881 -4.48662 58.5
      vertex -4.15796 -4.47786 58.5
    endloop
  endfacet
  facet normal -0.218178 -0.975909 0
    outer loop
      vertex -4.31239 -4.48271 58.5
      vertex -4.28175 -4.48956 93.49
      vertex -4.31239 -4.48271 93.49
    endloop
  endfacet
  facet normal -0.218178 -0.975909 -0
    outer loop
      vertex -4.28175 -4.48956 93.49
      vertex -4.31239 -4.48271 58.5
      vertex -4.28175 -4.48956 58.5
    endloop
  endfacet
  facet normal 0.987696 -0.156388 0
    outer loop
      vertex 4.84017 4.54166 93.49
      vertex 4.84508 4.57267 58.5
      vertex 4.84508 4.57267 93.49
    endloop
  endfacet
  facet normal 0.987696 -0.156388 0
    outer loop
      vertex 4.84508 4.57267 58.5
      vertex 4.84017 4.54166 93.49
      vertex 4.84017 4.54166 58.5
    endloop
  endfacet
  facet normal 0.995574 0.0939822 0
    outer loop
      vertex 4.84607 4.60405 93.49
      vertex 4.84312 4.6353 58.5
      vertex 4.84312 4.6353 93.49
    endloop
  endfacet
  facet normal 0.995574 0.0939822 0
    outer loop
      vertex 4.84312 4.6353 58.5
      vertex 4.84607 4.60405 93.49
      vertex 4.84607 4.60405 58.5
    endloop
  endfacet
  facet normal 0.827069 0.562101 0
    outer loop
      vertex 4.81138 4.72345 93.49
      vertex 4.79373 4.74942 58.5
      vertex 4.79373 4.74942 93.49
    endloop
  endfacet
  facet normal 0.827069 0.562101 0
    outer loop
      vertex 4.79373 4.74942 58.5
      vertex 4.81138 4.72345 93.49
      vertex 4.81138 4.72345 58.5
    endloop
  endfacet
  facet normal -0.891025 -0.453954 0
    outer loop
      vertex -4.45783 -4.3699 58.5
      vertex -4.47208 -4.34193 93.49
      vertex -4.47208 -4.34193 58.5
    endloop
  endfacet
  facet normal -0.891025 -0.453954 0
    outer loop
      vertex -4.47208 -4.34193 93.49
      vertex -4.45783 -4.3699 58.5
      vertex -4.45783 -4.3699 93.49
    endloop
  endfacet
  facet normal -0.940932 -0.338595 0
    outer loop
      vertex -4.47208 -4.34193 58.5
      vertex -4.48271 -4.31239 93.49
      vertex -4.48271 -4.31239 58.5
    endloop
  endfacet
  facet normal -0.940932 -0.338595 0
    outer loop
      vertex -4.48271 -4.31239 93.49
      vertex -4.47208 -4.34193 58.5
      vertex -4.47208 -4.34193 93.49
    endloop
  endfacet
  facet normal -0.975909 -0.218178 0
    outer loop
      vertex -4.48271 -4.31239 58.5
      vertex -4.48956 -4.28175 93.49
      vertex -4.48956 -4.28175 58.5
    endloop
  endfacet
  facet normal -0.975909 -0.218178 0
    outer loop
      vertex -4.48956 -4.28175 93.49
      vertex -4.48271 -4.31239 58.5
      vertex -4.48271 -4.31239 93.49
    endloop
  endfacet
  facet normal -0.960264 0.279095 0
    outer loop
      vertex -4.48662 -4.1881 58.5
      vertex -4.47786 -4.15796 93.49
      vertex -4.47786 -4.15796 58.5
    endloop
  endfacet
  facet normal -0.960264 0.279095 0
    outer loop
      vertex -4.47786 -4.15796 93.49
      vertex -4.48662 -4.1881 58.5
      vertex -4.48662 -4.1881 93.49
    endloop
  endfacet
  facet normal -0.917772 0.397107 0
    outer loop
      vertex -4.47786 -4.15796 58.5
      vertex -4.46539 -4.12914 93.49
      vertex -4.46539 -4.12914 58.5
    endloop
  endfacet
  facet normal -0.917772 0.397107 0
    outer loop
      vertex -4.46539 -4.12914 93.49
      vertex -4.47786 -4.15796 58.5
      vertex -4.47786 -4.15796 93.49
    endloop
  endfacet
  facet normal -0.987696 0.156388 0
    outer loop
      vertex -4.49153 -4.21911 58.5
      vertex -4.48662 -4.1881 93.49
      vertex -4.48662 -4.1881 58.5
    endloop
  endfacet
  facet normal -0.987696 0.156388 0
    outer loop
      vertex -4.48662 -4.1881 93.49
      vertex -4.49153 -4.21911 58.5
      vertex -4.49153 -4.21911 93.49
    endloop
  endfacet
  facet normal -0.995547 -0.094268 0
    outer loop
      vertex -4.48956 -4.28175 58.5
      vertex -4.49252 -4.25049 93.49
      vertex -4.49252 -4.25049 58.5
    endloop
  endfacet
  facet normal -0.995547 -0.094268 0
    outer loop
      vertex -4.49252 -4.25049 93.49
      vertex -4.48956 -4.28175 58.5
      vertex -4.48956 -4.28175 93.49
    endloop
  endfacet
  facet normal 0.338877 0.940831 -0
    outer loop
      vertex 4.69548 4.82563 58.5
      vertex 4.66594 4.83627 93.49
      vertex 4.69548 4.82563 93.49
    endloop
  endfacet
  facet normal 0.338877 0.940831 0
    outer loop
      vertex 4.66594 4.83627 93.49
      vertex 4.69548 4.82563 58.5
      vertex 4.66594 4.83627 58.5
    endloop
  endfacet
  facet normal -0.49083 0.871255 0
    outer loop
      vertex 4.4827 4.81894 58.5
      vertex 2.98948 3.97772 93.49
      vertex 4.4827 4.81894 93.49
    endloop
  endfacet
  facet normal -0.49083 0.871255 0
    outer loop
      vertex 2.98948 3.97772 93.49
      vertex 4.4827 4.81894 58.5
      vertex 2.98948 3.97772 58.5
    endloop
  endfacet
  facet normal -0.453954 -0.891025 0
    outer loop
      vertex -4.3699 -4.45783 58.5
      vertex -4.34193 -4.47208 93.49
      vertex -4.3699 -4.45783 93.49
    endloop
  endfacet
  facet normal -0.453954 -0.891025 -0
    outer loop
      vertex -4.34193 -4.47208 93.49
      vertex -4.3699 -4.45783 58.5
      vertex -4.34193 -4.47208 58.5
    endloop
  endfacet
  facet normal 0.156388 -0.987696 0
    outer loop
      vertex -4.21911 -4.49153 58.5
      vertex -4.1881 -4.48662 93.49
      vertex -4.21911 -4.49153 93.49
    endloop
  endfacet
  facet normal 0.156388 -0.987696 0
    outer loop
      vertex -4.1881 -4.48662 93.49
      vertex -4.21911 -4.49153 58.5
      vertex -4.1881 -4.48662 58.5
    endloop
  endfacet
  facet normal 0.999503 -0.0315331 0
    outer loop
      vertex 4.84508 4.57267 93.49
      vertex 4.84607 4.60405 58.5
      vertex 4.84607 4.60405 93.49
    endloop
  endfacet
  facet normal 0.999503 -0.0315331 0
    outer loop
      vertex 4.84607 4.60405 58.5
      vertex 4.84508 4.57267 93.49
      vertex 4.84508 4.57267 58.5
    endloop
  endfacet
  facet normal 0.960288 -0.279009 0
    outer loop
      vertex 4.83141 4.51151 93.49
      vertex 4.84017 4.54166 58.5
      vertex 4.84017 4.54166 93.49
    endloop
  endfacet
  facet normal 0.960288 -0.279009 0
    outer loop
      vertex 4.84017 4.54166 58.5
      vertex 4.83141 4.51151 93.49
      vertex 4.83141 4.51151 58.5
    endloop
  endfacet
  facet normal 0.940831 0.338877 0
    outer loop
      vertex 4.83627 4.66594 93.49
      vertex 4.82563 4.69548 58.5
      vertex 4.82563 4.69548 93.49
    endloop
  endfacet
  facet normal 0.940831 0.338877 0
    outer loop
      vertex 4.82563 4.69548 58.5
      vertex 4.83627 4.66594 93.49
      vertex 4.83627 4.66594 58.5
    endloop
  endfacet
  facet normal 0.750145 0.661274 0
    outer loop
      vertex 4.79373 4.74942 93.49
      vertex 4.77297 4.77297 58.5
      vertex 4.77297 4.77297 93.49
    endloop
  endfacet
  facet normal 0.750145 0.661274 0
    outer loop
      vertex 4.77297 4.77297 58.5
      vertex 4.79373 4.74942 93.49
      vertex 4.79373 4.74942 58.5
    endloop
  endfacet
  facet normal -0.999503 0.0315331 0
    outer loop
      vertex -4.49252 -4.25049 58.5
      vertex -4.49153 -4.21911 93.49
      vertex -4.49153 -4.21911 58.5
    endloop
  endfacet
  facet normal -0.999503 0.0315331 0
    outer loop
      vertex -4.49153 -4.21911 93.49
      vertex -4.49252 -4.25049 58.5
      vertex -4.49252 -4.25049 93.49
    endloop
  endfacet
  facet normal 0.453954 0.891025 -0
    outer loop
      vertex 4.72345 4.81138 58.5
      vertex 4.69548 4.82563 93.49
      vertex 4.72345 4.81138 93.49
    endloop
  endfacet
  facet normal 0.453954 0.891025 0
    outer loop
      vertex 4.69548 4.82563 93.49
      vertex 4.72345 4.81138 58.5
      vertex 4.69548 4.82563 58.5
    endloop
  endfacet
  facet normal -0.156388 0.987696 0
    outer loop
      vertex 4.57267 4.84508 58.5
      vertex 4.54166 4.84017 93.49
      vertex 4.57267 4.84508 93.49
    endloop
  endfacet
  facet normal -0.156388 0.987696 0
    outer loop
      vertex 4.54166 4.84017 93.49
      vertex 4.57267 4.84508 58.5
      vertex 4.54166 4.84017 58.5
    endloop
  endfacet
  facet normal -0.279009 0.960288 0
    outer loop
      vertex 4.54166 4.84017 58.5
      vertex 4.51151 4.83141 93.49
      vertex 4.54166 4.84017 93.49
    endloop
  endfacet
  facet normal -0.279009 0.960288 0
    outer loop
      vertex 4.51151 4.83141 93.49
      vertex 4.54166 4.84017 58.5
      vertex 4.51151 4.83141 58.5
    endloop
  endfacet
  facet normal -0.0315331 0.999503 0
    outer loop
      vertex 4.60405 4.84607 58.5
      vertex 4.57267 4.84508 93.49
      vertex 4.60405 4.84607 93.49
    endloop
  endfacet
  facet normal -0.0315331 0.999503 0
    outer loop
      vertex 4.57267 4.84508 93.49
      vertex 4.60405 4.84607 58.5
      vertex 4.57267 4.84508 58.5
    endloop
  endfacet
  facet normal -0.397223 0.917722 0
    outer loop
      vertex 4.51151 4.83141 58.5
      vertex 4.4827 4.81894 93.49
      vertex 4.51151 4.83141 93.49
    endloop
  endfacet
  facet normal -0.397223 0.917722 0
    outer loop
      vertex 4.4827 4.81894 93.49
      vertex 4.51151 4.83141 58.5
      vertex 4.4827 4.81894 58.5
    endloop
  endfacet
  facet normal 0.0315331 -0.999503 0
    outer loop
      vertex -4.25049 -4.49252 58.5
      vertex -4.21911 -4.49153 93.49
      vertex -4.25049 -4.49252 93.49
    endloop
  endfacet
  facet normal 0.0315331 -0.999503 0
    outer loop
      vertex -4.21911 -4.49153 93.49
      vertex -4.25049 -4.49252 58.5
      vertex -4.21911 -4.49153 58.5
    endloop
  endfacet
  facet normal -0.094268 -0.995547 0
    outer loop
      vertex -4.28175 -4.48956 58.5
      vertex -4.25049 -4.49252 93.49
      vertex -4.28175 -4.48956 93.49
    endloop
  endfacet
  facet normal -0.094268 -0.995547 -0
    outer loop
      vertex -4.25049 -4.49252 93.49
      vertex -4.28175 -4.48956 58.5
      vertex -4.25049 -4.49252 58.5
    endloop
  endfacet
  facet normal -0.562101 -0.827069 0
    outer loop
      vertex -4.39587 -4.44018 58.5
      vertex -4.3699 -4.45783 93.49
      vertex -4.39587 -4.44018 93.49
    endloop
  endfacet
  facet normal -0.562101 -0.827069 -0
    outer loop
      vertex -4.3699 -4.45783 93.49
      vertex -4.39587 -4.44018 58.5
      vertex -4.3699 -4.45783 58.5
    endloop
  endfacet
  facet normal 0.562101 0.827069 -0
    outer loop
      vertex 4.74942 4.79373 58.5
      vertex 4.72345 4.81138 93.49
      vertex 4.74942 4.79373 93.49
    endloop
  endfacet
  facet normal 0.562101 0.827069 0
    outer loop
      vertex 4.72345 4.81138 93.49
      vertex 4.74942 4.79373 58.5
      vertex 4.72345 4.81138 58.5
    endloop
  endfacet
  facet normal 0.661274 0.750145 -0
    outer loop
      vertex 4.77297 4.77297 58.5
      vertex 4.74942 4.79373 93.49
      vertex 4.77297 4.77297 93.49
    endloop
  endfacet
  facet normal 0.661274 0.750145 0
    outer loop
      vertex 4.74942 4.79373 93.49
      vertex 4.77297 4.77297 58.5
      vertex 4.74942 4.79373 58.5
    endloop
  endfacet
  facet normal 0.0939822 0.995574 -0
    outer loop
      vertex 4.6353 4.84312 58.5
      vertex 4.60405 4.84607 93.49
      vertex 4.6353 4.84312 93.49
    endloop
  endfacet
  facet normal 0.0939822 0.995574 0
    outer loop
      vertex 4.60405 4.84607 93.49
      vertex 4.6353 4.84312 58.5
      vertex 4.60405 4.84607 58.5
    endloop
  endfacet
endsolid OpenSCAD_Model
