solid OpenSCAD_Model
  facet normal -0.777132 0.629337 0
    outer loop
      vertex -5.80384 22.2977 3.4
      vertex -5.52097 22.647 7
      vertex -5.52097 22.647 3.4
    endloop
  endfacet
  facet normal -0.777132 0.629337 0
    outer loop
      vertex -5.52097 22.647 7
      vertex -5.80384 22.2977 3.4
      vertex -5.80384 22.2977 7
    endloop
  endfacet
  facet normal 0.629367 -0.777109 0
    outer loop
      vertex -8.8444 25.3383 3.4
      vertex -8.49509 25.6212 7
      vertex -8.8444 25.3383 7
    endloop
  endfacet
  facet normal 0.629367 -0.777109 0
    outer loop
      vertex -8.49509 25.6212 7
      vertex -8.8444 25.3383 3.4
      vertex -8.49509 25.6212 3.4
    endloop
  endfacet
  facet normal -0.707073 -0.70714 0
    outer loop
      vertex -5.97108 25.4889 3.4
      vertex -5.65325 25.1711 7
      vertex -5.97108 25.4889 7
    endloop
  endfacet
  facet normal -0.707073 -0.70714 -0
    outer loop
      vertex -5.65325 25.1711 7
      vertex -5.97108 25.4889 3.4
      vertex -5.65325 25.1711 3.4
    endloop
  endfacet
  facet normal -0.998628 0.0523568 0
    outer loop
      vertex -5.20059 23.4817 3.4
      vertex -5.17706 23.9305 7
      vertex -5.17706 23.9305 3.4
    endloop
  endfacet
  facet normal -0.998628 0.0523568 0
    outer loop
      vertex -5.17706 23.9305 7
      vertex -5.20059 23.4817 3.4
      vertex -5.20059 23.4817 7
    endloop
  endfacet
  facet normal -0.156409 -0.987692 0
    outer loop
      vertex -7.21159 25.9651 3.4
      vertex -6.76766 25.8948 7
      vertex -7.21159 25.9651 7
    endloop
  endfacet
  facet normal -0.156409 -0.987692 -0
    outer loop
      vertex -6.76766 25.8948 7
      vertex -7.21159 25.9651 3.4
      vertex -6.76766 25.8948 3.4
    endloop
  endfacet
  facet normal -0.544638 -0.838671 0
    outer loop
      vertex -6.34804 25.7337 3.4
      vertex -5.97108 25.4889 7
      vertex -6.34804 25.7337 7
    endloop
  endfacet
  facet normal -0.544638 -0.838671 -0
    outer loop
      vertex -5.97108 25.4889 7
      vertex -6.34804 25.7337 3.4
      vertex -5.97108 25.4889 3.4
    endloop
  endfacet
  facet normal 0 0 1
    outer loop
      vertex -5.24738 24.3745 3.4
      vertex -5.20059 23.4817 3.4
      vertex -5.17706 23.9305 3.4
    endloop
  endfacet
  facet normal 0 0 1
    outer loop
      vertex -5.24738 24.3745 3.4
      vertex -5.31692 23.0475 3.4
      vertex -5.20059 23.4817 3.4
    endloop
  endfacet
  facet normal 0 0 1
    outer loop
      vertex -5.40845 24.7941 3.4
      vertex -5.31692 23.0475 3.4
      vertex -5.24738 24.3745 3.4
    endloop
  endfacet
  facet normal 0 0 1
    outer loop
      vertex -5.40845 24.7941 3.4
      vertex -5.52097 22.647 3.4
      vertex -5.31692 23.0475 3.4
    endloop
  endfacet
  facet normal 0 0 1
    outer loop
      vertex -5.65325 25.1711 3.4
      vertex -5.52097 22.647 3.4
      vertex -5.40845 24.7941 3.4
    endloop
  endfacet
  facet normal 0 0 1
    outer loop
      vertex -5.65325 25.1711 3.4
      vertex -5.80384 22.2977 3.4
      vertex -5.52097 22.647 3.4
    endloop
  endfacet
  facet normal 0 0 1
    outer loop
      vertex -5.97108 25.4889 3.4
      vertex -5.80384 22.2977 3.4
      vertex -5.65325 25.1711 3.4
    endloop
  endfacet
  facet normal 0 0 1
    outer loop
      vertex -5.97108 25.4889 3.4
      vertex -6.15314 22.0149 3.4
      vertex -5.80384 22.2977 3.4
    endloop
  endfacet
  facet normal 0 0 1
    outer loop
      vertex -6.34804 25.7337 3.4
      vertex -6.15314 22.0149 3.4
      vertex -5.97108 25.4889 3.4
    endloop
  endfacet
  facet normal 0 0 1
    outer loop
      vertex -6.34804 25.7337 3.4
      vertex -6.55363 21.8108 3.4
      vertex -6.15314 22.0149 3.4
    endloop
  endfacet
  facet normal 0 0 1
    outer loop
      vertex -6.76766 25.8948 3.4
      vertex -6.55363 21.8108 3.4
      vertex -6.34804 25.7337 3.4
    endloop
  endfacet
  facet normal 0 0 1
    outer loop
      vertex -6.76766 25.8948 3.4
      vertex -6.98778 21.6945 3.4
      vertex -6.55363 21.8108 3.4
    endloop
  endfacet
  facet normal 0 0 1
    outer loop
      vertex -7.21159 25.9651 3.4
      vertex -6.98778 21.6945 3.4
      vertex -6.76766 25.8948 3.4
    endloop
  endfacet
  facet normal 0 0 1
    outer loop
      vertex -7.21159 25.9651 3.4
      vertex -7.43664 21.671 3.4
      vertex -6.98778 21.6945 3.4
    endloop
  endfacet
  facet normal -0 0 1
    outer loop
      vertex -7.66045 25.9415 3.4
      vertex -7.43664 21.671 3.4
      vertex -7.21159 25.9651 3.4
    endloop
  endfacet
  facet normal 0 0 1
    outer loop
      vertex -7.66045 25.9415 3.4
      vertex -7.88058 21.7413 3.4
      vertex -7.43664 21.671 3.4
    endloop
  endfacet
  facet normal -0 0 1
    outer loop
      vertex -8.09461 25.8252 3.4
      vertex -7.88058 21.7413 3.4
      vertex -7.66045 25.9415 3.4
    endloop
  endfacet
  facet normal 0 0 1
    outer loop
      vertex -8.09461 25.8252 3.4
      vertex -8.3002 21.9024 3.4
      vertex -7.88058 21.7413 3.4
    endloop
  endfacet
  facet normal -0 0 1
    outer loop
      vertex -8.49509 25.6212 3.4
      vertex -8.3002 21.9024 3.4
      vertex -8.09461 25.8252 3.4
    endloop
  endfacet
  facet normal 0 0 1
    outer loop
      vertex -8.49509 25.6212 3.4
      vertex -8.67716 22.1472 3.4
      vertex -8.3002 21.9024 3.4
    endloop
  endfacet
  facet normal -0 0 1
    outer loop
      vertex -8.8444 25.3383 3.4
      vertex -8.67716 22.1472 3.4
      vertex -8.49509 25.6212 3.4
    endloop
  endfacet
  facet normal 0 0 1
    outer loop
      vertex -8.8444 25.3383 3.4
      vertex -8.99498 22.465 3.4
      vertex -8.67716 22.1472 3.4
    endloop
  endfacet
  facet normal -0 0 1
    outer loop
      vertex -9.12726 24.989 3.4
      vertex -8.99498 22.465 3.4
      vertex -8.8444 25.3383 3.4
    endloop
  endfacet
  facet normal 0 0 1
    outer loop
      vertex -9.12726 24.989 3.4
      vertex -9.23978 22.8419 3.4
      vertex -8.99498 22.465 3.4
    endloop
  endfacet
  facet normal -0 0 1
    outer loop
      vertex -9.33131 24.5885 3.4
      vertex -9.23978 22.8419 3.4
      vertex -9.12726 24.989 3.4
    endloop
  endfacet
  facet normal 0 0 1
    outer loop
      vertex -9.33131 24.5885 3.4
      vertex -9.40086 23.2616 3.4
      vertex -9.23978 22.8419 3.4
    endloop
  endfacet
  facet normal -0 0 1
    outer loop
      vertex -9.44765 24.1544 3.4
      vertex -9.40086 23.2616 3.4
      vertex -9.33131 24.5885 3.4
    endloop
  endfacet
  facet normal 0 0 1
    outer loop
      vertex -9.40086 23.2616 3.4
      vertex -9.44765 24.1544 3.4
      vertex -9.47117 23.7055 3.4
    endloop
  endfacet
  facet normal -0.965933 0.258791 0
    outer loop
      vertex -5.31692 23.0475 3.4
      vertex -5.20059 23.4817 7
      vertex -5.20059 23.4817 3.4
    endloop
  endfacet
  facet normal -0.965933 0.258791 0
    outer loop
      vertex -5.20059 23.4817 7
      vertex -5.31692 23.0475 3.4
      vertex -5.31692 23.0475 7
    endloop
  endfacet
  facet normal -0.89102 0.453964 0
    outer loop
      vertex -5.52097 22.647 3.4
      vertex -5.31692 23.0475 7
      vertex -5.31692 23.0475 3.4
    endloop
  endfacet
  facet normal -0.89102 0.453964 0
    outer loop
      vertex -5.31692 23.0475 7
      vertex -5.52097 22.647 3.4
      vertex -5.52097 22.647 7
    endloop
  endfacet
  facet normal -0.93358 -0.358369 0
    outer loop
      vertex -5.24738 24.3745 3.4
      vertex -5.40845 24.7941 7
      vertex -5.40845 24.7941 3.4
    endloop
  endfacet
  facet normal -0.93358 -0.358369 0
    outer loop
      vertex -5.40845 24.7941 7
      vertex -5.24738 24.3745 3.4
      vertex -5.24738 24.3745 7
    endloop
  endfacet
  facet normal -0.838698 -0.544597 0
    outer loop
      vertex -5.40845 24.7941 3.4
      vertex -5.65325 25.1711 7
      vertex -5.65325 25.1711 3.4
    endloop
  endfacet
  facet normal -0.838698 -0.544597 0
    outer loop
      vertex -5.65325 25.1711 7
      vertex -5.40845 24.7941 3.4
      vertex -5.40845 24.7941 7
    endloop
  endfacet
  facet normal -0.987689 -0.156429 0
    outer loop
      vertex -5.17706 23.9305 3.4
      vertex -5.24738 24.3745 7
      vertex -5.24738 24.3745 3.4
    endloop
  endfacet
  facet normal -0.987689 -0.156429 0
    outer loop
      vertex -5.24738 24.3745 7
      vertex -5.17706 23.9305 3.4
      vertex -5.17706 23.9305 7
    endloop
  endfacet
  facet normal 0.258751 -0.965944 0
    outer loop
      vertex -8.09461 25.8252 3.4
      vertex -7.66045 25.9415 7
      vertex -8.09461 25.8252 7
    endloop
  endfacet
  facet normal 0.258751 -0.965944 0
    outer loop
      vertex -7.66045 25.9415 7
      vertex -8.09461 25.8252 3.4
      vertex -7.66045 25.9415 3.4
    endloop
  endfacet
  facet normal 0.0525051 -0.998621 0
    outer loop
      vertex -7.66045 25.9415 3.4
      vertex -7.21159 25.9651 7
      vertex -7.66045 25.9415 7
    endloop
  endfacet
  facet normal 0.0525051 -0.998621 0
    outer loop
      vertex -7.21159 25.9651 7
      vertex -7.66045 25.9415 3.4
      vertex -7.21159 25.9651 3.4
    endloop
  endfacet
  facet normal 0.453894 -0.891056 0
    outer loop
      vertex -8.49509 25.6212 3.4
      vertex -8.09461 25.8252 7
      vertex -8.49509 25.6212 7
    endloop
  endfacet
  facet normal 0.453894 -0.891056 0
    outer loop
      vertex -8.09461 25.8252 7
      vertex -8.49509 25.6212 3.4
      vertex -8.09461 25.8252 3.4
    endloop
  endfacet
  facet normal -0.358412 -0.933563 0
    outer loop
      vertex -6.76766 25.8948 3.4
      vertex -6.34804 25.7337 7
      vertex -6.76766 25.8948 7
    endloop
  endfacet
  facet normal -0.358412 -0.933563 -0
    outer loop
      vertex -6.34804 25.7337 7
      vertex -6.76766 25.8948 3.4
      vertex -6.34804 25.7337 3.4
    endloop
  endfacet
  facet normal -0.629243 0.777209 0
    outer loop
      vertex -5.80384 22.2977 3.4
      vertex -6.15314 22.0149 7
      vertex -5.80384 22.2977 7
    endloop
  endfacet
  facet normal -0.629243 0.777209 0
    outer loop
      vertex -6.15314 22.0149 7
      vertex -5.80384 22.2977 3.4
      vertex -6.15314 22.0149 3.4
    endloop
  endfacet
  facet normal 0.838632 0.544699 0
    outer loop
      vertex -8.99498 22.465 7
      vertex -9.23978 22.8419 3.4
      vertex -9.23978 22.8419 7
    endloop
  endfacet
  facet normal 0.838632 0.544699 0
    outer loop
      vertex -9.23978 22.8419 3.4
      vertex -8.99498 22.465 7
      vertex -8.99498 22.465 3.4
    endloop
  endfacet
  facet normal 0.544638 0.838671 -0
    outer loop
      vertex -8.3002 21.9024 3.4
      vertex -8.67716 22.1472 7
      vertex -8.3002 21.9024 7
    endloop
  endfacet
  facet normal 0.544638 0.838671 0
    outer loop
      vertex -8.67716 22.1472 7
      vertex -8.3002 21.9024 3.4
      vertex -8.67716 22.1472 3.4
    endloop
  endfacet
  facet normal -0.0522832 0.998632 0
    outer loop
      vertex -6.98778 21.6945 3.4
      vertex -7.43664 21.671 7
      vertex -6.98778 21.6945 7
    endloop
  endfacet
  facet normal -0.0522832 0.998632 0
    outer loop
      vertex -7.43664 21.671 7
      vertex -6.98778 21.6945 3.4
      vertex -7.43664 21.671 3.4
    endloop
  endfacet
  facet normal -0.454061 0.89097 0
    outer loop
      vertex -6.15314 22.0149 3.4
      vertex -6.55363 21.8108 7
      vertex -6.15314 22.0149 7
    endloop
  endfacet
  facet normal -0.454061 0.89097 0
    outer loop
      vertex -6.55363 21.8108 7
      vertex -6.15314 22.0149 3.4
      vertex -6.55363 21.8108 3.4
    endloop
  endfacet
  facet normal -0.258756 0.965943 0
    outer loop
      vertex -6.55363 21.8108 3.4
      vertex -6.98778 21.6945 7
      vertex -6.55363 21.8108 7
    endloop
  endfacet
  facet normal -0.258756 0.965943 0
    outer loop
      vertex -6.98778 21.6945 7
      vertex -6.55363 21.8108 3.4
      vertex -6.98778 21.6945 3.4
    endloop
  endfacet
  facet normal 0.965913 -0.258867 0
    outer loop
      vertex -9.44765 24.1544 7
      vertex -9.33131 24.5885 3.4
      vertex -9.33131 24.5885 7
    endloop
  endfacet
  facet normal 0.965913 -0.258867 0
    outer loop
      vertex -9.33131 24.5885 3.4
      vertex -9.44765 24.1544 7
      vertex -9.44765 24.1544 3.4
    endloop
  endfacet
  facet normal 0.777143 -0.629324 0
    outer loop
      vertex -9.12726 24.989 7
      vertex -8.8444 25.3383 3.4
      vertex -8.8444 25.3383 7
    endloop
  endfacet
  facet normal 0.777143 -0.629324 0
    outer loop
      vertex -8.8444 25.3383 3.4
      vertex -9.12726 24.989 7
      vertex -9.12726 24.989 3.4
    endloop
  endfacet
  facet normal 0.89102 -0.453964 0
    outer loop
      vertex -9.33131 24.5885 7
      vertex -9.12726 24.989 3.4
      vertex -9.12726 24.989 7
    endloop
  endfacet
  facet normal 0.89102 -0.453964 0
    outer loop
      vertex -9.12726 24.989 3.4
      vertex -9.33131 24.5885 7
      vertex -9.33131 24.5885 3.4
    endloop
  endfacet
  facet normal 0.156406 0.987693 -0
    outer loop
      vertex -7.43664 21.671 3.4
      vertex -7.88058 21.7413 7
      vertex -7.43664 21.671 7
    endloop
  endfacet
  facet normal 0.156406 0.987693 0
    outer loop
      vertex -7.88058 21.7413 7
      vertex -7.43664 21.671 3.4
      vertex -7.88058 21.7413 3.4
    endloop
  endfacet
  facet normal 0.358412 0.933563 -0
    outer loop
      vertex -7.88058 21.7413 3.4
      vertex -8.3002 21.9024 7
      vertex -7.88058 21.7413 7
    endloop
  endfacet
  facet normal 0.358412 0.933563 0
    outer loop
      vertex -8.3002 21.9024 7
      vertex -7.88058 21.7413 3.4
      vertex -8.3002 21.9024 3.4
    endloop
  endfacet
  facet normal 0.707085 0.707129 0
    outer loop
      vertex -8.67716 22.1472 7
      vertex -8.99498 22.465 3.4
      vertex -8.99498 22.465 7
    endloop
  endfacet
  facet normal 0.707085 0.707129 0
    outer loop
      vertex -8.99498 22.465 3.4
      vertex -8.67716 22.1472 7
      vertex -8.67716 22.1472 3.4
    endloop
  endfacet
  facet normal 0.987687 0.156441 0
    outer loop
      vertex -9.40086 23.2616 7
      vertex -9.47117 23.7055 3.4
      vertex -9.47117 23.7055 7
    endloop
  endfacet
  facet normal 0.987687 0.156441 0
    outer loop
      vertex -9.47117 23.7055 3.4
      vertex -9.40086 23.2616 7
      vertex -9.40086 23.2616 3.4
    endloop
  endfacet
  facet normal 0.99863 -0.052323 0
    outer loop
      vertex -9.47117 23.7055 7
      vertex -9.44765 24.1544 3.4
      vertex -9.44765 24.1544 7
    endloop
  endfacet
  facet normal 0.99863 -0.052323 0
    outer loop
      vertex -9.44765 24.1544 3.4
      vertex -9.47117 23.7055 7
      vertex -9.47117 23.7055 3.4
    endloop
  endfacet
  facet normal 0.933601 0.358314 0
    outer loop
      vertex -9.23978 22.8419 7
      vertex -9.40086 23.2616 3.4
      vertex -9.40086 23.2616 7
    endloop
  endfacet
  facet normal 0.933601 0.358314 0
    outer loop
      vertex -9.40086 23.2616 3.4
      vertex -9.23978 22.8419 7
      vertex -9.23978 22.8419 3.4
    endloop
  endfacet
  facet normal -0.258827 -0.965924 0
    outer loop
      vertex -8.33998 27.6093 0
      vertex -4.54872 26.5934 3.2
      vertex -8.33998 27.6093 3.2
    endloop
  endfacet
  facet normal -0.258827 -0.965924 -0
    outer loop
      vertex -4.54872 26.5934 3.2
      vertex -8.33998 27.6093 0
      vertex -4.54872 26.5934 0
    endloop
  endfacet
  facet normal -0.707108 0.707106 0
    outer loop
      vertex -3.53286 22.8022 0
      vertex -6.30825 20.0268 3.2
      vertex -3.53286 22.8022 3.2
    endloop
  endfacet
  facet normal -0.707108 0.707106 0
    outer loop
      vertex -6.30825 20.0268 3.2
      vertex -3.53286 22.8022 0
      vertex -6.30825 20.0268 0
    endloop
  endfacet
  facet normal 0.707104 -0.707109 0
    outer loop
      vertex -11.1154 24.8339 3.2
      vertex -8.33998 27.6093 0
      vertex -8.33998 27.6093 3.2
    endloop
  endfacet
  facet normal 0.707104 -0.707109 0
    outer loop
      vertex -8.33998 27.6093 0
      vertex -11.1154 24.8339 3.2
      vertex -11.1154 24.8339 0
    endloop
  endfacet
  facet normal 0 0 -1
    outer loop
      vertex 8 -13 0
      vertex 3 -4 0
      vertex 8 -2.5 0
    endloop
  endfacet
  facet normal -0 0 -1
    outer loop
      vertex 3 -4 0
      vertex 0 -13 0
      vertex 3 4 0
    endloop
  endfacet
  facet normal 0 0 -1
    outer loop
      vertex 0 -13 0
      vertex 3 -4 0
      vertex 8 -13 0
    endloop
  endfacet
  facet normal 0 0 -1
    outer loop
      vertex 3 4 0
      vertex 8 15 0
      vertex 8 2.5 0
    endloop
  endfacet
  facet normal 0 0 -1
    outer loop
      vertex 8 15 0
      vertex 3 4 0
      vertex 0 13.0751 0
    endloop
  endfacet
  facet normal 0 0 -1
    outer loop
      vertex 0 13.0751 0
      vertex 3 4 0
      vertex 0 -13 0
    endloop
  endfacet
  facet normal 0 0 -1
    outer loop
      vertex -3.53286 22.8022 0
      vertex 8 15 0
      vertex 0 13.0751 0
    endloop
  endfacet
  facet normal 0 0 -1
    outer loop
      vertex 8 15 0
      vertex -3.53286 22.8022 0
      vertex 6.05888 29.8284 0
    endloop
  endfacet
  facet normal 0 0 -1
    outer loop
      vertex -4.54872 26.5934 0
      vertex 6.05888 29.8284 0
      vertex -3.53286 22.8022 0
    endloop
  endfacet
  facet normal 0 0 -1
    outer loop
      vertex -9.79899 29.8284 0
      vertex -4.54872 26.5934 0
      vertex -8.33998 27.6093 0
    endloop
  endfacet
  facet normal 0 0 -1
    outer loop
      vertex -4.54872 26.5934 0
      vertex -9.79899 29.8284 0
      vertex 6.05888 29.8284 0
    endloop
  endfacet
  facet normal 0 0 -1
    outer loop
      vertex -11.1154 24.8339 0
      vertex -9.79899 29.8284 0
      vertex -8.33998 27.6093 0
    endloop
  endfacet
  facet normal 0 0 -1
    outer loop
      vertex -9.79899 29.8284 0
      vertex -11.1154 24.8339 0
      vertex -16.8701 22.7574 0
    endloop
  endfacet
  facet normal 0 0 -1
    outer loop
      vertex 27 20 0
      vertex 31 23 0
      vertex 31 15 0
    endloop
  endfacet
  facet normal -0 0 -1
    outer loop
      vertex 31 23 0
      vertex 27 20 0
      vertex 28.7896 23 0
    endloop
  endfacet
  facet normal 0 -0 -1
    outer loop
      vertex 27 20 0
      vertex 31 15 0
      vertex 25.5 15 0
    endloop
  endfacet
  facet normal 0 0 -1
    outer loop
      vertex 19 20 0
      vertex 28.7896 23 0
      vertex 27 20 0
    endloop
  endfacet
  facet normal 0 0 -1
    outer loop
      vertex 14.1978 40.5329 0
      vertex 28.7896 23 0
      vertex 19 20 0
    endloop
  endfacet
  facet normal 0 0 -1
    outer loop
      vertex 28.7896 23 0
      vertex 14.1978 40.5329 0
      vertex 25.5563 42.5564 0
    endloop
  endfacet
  facet normal 0 0 -1
    outer loop
      vertex 15.9574 47.0995 0
      vertex 25.5563 42.5564 0
      vertex 16.9732 43.3083 0
    endloop
  endfacet
  facet normal 0 0 -1
    outer loop
      vertex 15.9574 47.0995 0
      vertex 14.2426 53.8701 0
      vertex 25.5563 42.5564 0
    endloop
  endfacet
  facet normal 0 0 -1
    outer loop
      vertex 12.1661 48.1154 0
      vertex 14.2426 53.8701 0
      vertex 15.9574 47.0995 0
    endloop
  endfacet
  facet normal 0 0 -1
    outer loop
      vertex 6.05888 45.6863 0
      vertex 12.1661 48.1154 0
      vertex 9.39072 45.34 0
    endloop
  endfacet
  facet normal 0 0 -1
    outer loop
      vertex 6.05888 45.6863 0
      vertex 10.4066 41.5487 0
      vertex 6.05888 29.8284 0
    endloop
  endfacet
  facet normal -0 0 -1
    outer loop
      vertex 12.1661 48.1154 0
      vertex 6.05888 45.6863 0
      vertex 14.2426 53.8701 0
    endloop
  endfacet
  facet normal 0 0 -1
    outer loop
      vertex 10.4066 41.5487 0
      vertex 6.05888 45.6863 0
      vertex 9.39072 45.34 0
    endloop
  endfacet
  facet normal 0 0 -1
    outer loop
      vertex -6.30825 20.0268 0
      vertex 0 13.0751 0
      vertex -5.55635 11.4437 0
    endloop
  endfacet
  facet normal 0 0 -1
    outer loop
      vertex 0 13.0751 0
      vertex -6.30825 20.0268 0
      vertex -3.53286 22.8022 0
    endloop
  endfacet
  facet normal 0 0 -1
    outer loop
      vertex -5.55635 11.4437 0
      vertex -10.0995 21.0426 0
      vertex -6.30825 20.0268 0
    endloop
  endfacet
  facet normal 0 0 -1
    outer loop
      vertex -10.0995 21.0426 0
      vertex -16.8701 22.7574 0
      vertex -11.1154 24.8339 0
    endloop
  endfacet
  facet normal 0 0 -1
    outer loop
      vertex -16.8701 22.7574 0
      vertex -10.0995 21.0426 0
      vertex -5.55635 11.4437 0
    endloop
  endfacet
  facet normal -0 0 -1
    outer loop
      vertex 25.5563 42.5564 0
      vertex 14.1978 40.5329 0
      vertex 16.9732 43.3083 0
    endloop
  endfacet
  facet normal 0 0 -1
    outer loop
      vertex 6.05888 29.8284 0
      vertex 14.1978 40.5329 0
      vertex 19 20 0
    endloop
  endfacet
  facet normal 0 0 -1
    outer loop
      vertex 8 15 0
      vertex 19 20 0
      vertex 20.5 15 0
    endloop
  endfacet
  facet normal -0 0 -1
    outer loop
      vertex 14.1978 40.5329 0
      vertex 6.05888 29.8284 0
      vertex 10.4066 41.5487 0
    endloop
  endfacet
  facet normal 0 0 -1
    outer loop
      vertex 6.05888 29.8284 0
      vertex 19 20 0
      vertex 8 15 0
    endloop
  endfacet
  facet normal -0.965925 -0.258822 0
    outer loop
      vertex -3.53286 22.8022 0
      vertex -4.54872 26.5934 3.2
      vertex -4.54872 26.5934 0
    endloop
  endfacet
  facet normal -0.965925 -0.258822 0
    outer loop
      vertex -4.54872 26.5934 3.2
      vertex -3.53286 22.8022 0
      vertex -3.53286 22.8022 3.2
    endloop
  endfacet
  facet normal 0 0 -1
    outer loop
      vertex -6.30825 20.0268 3.2
      vertex -4.54872 26.5934 3.2
      vertex -3.53286 22.8022 3.2
    endloop
  endfacet
  facet normal 0 0 -1
    outer loop
      vertex -6.30825 20.0268 3.2
      vertex -8.33998 27.6093 3.2
      vertex -4.54872 26.5934 3.2
    endloop
  endfacet
  facet normal 0 0 -1
    outer loop
      vertex -10.0995 21.0426 3.2
      vertex -8.33998 27.6093 3.2
      vertex -6.30825 20.0268 3.2
    endloop
  endfacet
  facet normal 0 0 -1
    outer loop
      vertex -8.33998 27.6093 3.2
      vertex -10.0995 21.0426 3.2
      vertex -11.1154 24.8339 3.2
    endloop
  endfacet
  facet normal 0.258804 0.96593 -0
    outer loop
      vertex -6.30825 20.0268 0
      vertex -10.0995 21.0426 3.2
      vertex -6.30825 20.0268 3.2
    endloop
  endfacet
  facet normal 0.258804 0.96593 0
    outer loop
      vertex -10.0995 21.0426 3.2
      vertex -6.30825 20.0268 0
      vertex -10.0995 21.0426 0
    endloop
  endfacet
  facet normal 0.965924 0.258825 0
    outer loop
      vertex -10.0995 21.0426 3.2
      vertex -11.1154 24.8339 0
      vertex -11.1154 24.8339 3.2
    endloop
  endfacet
  facet normal 0.965924 0.258825 0
    outer loop
      vertex -11.1154 24.8339 0
      vertex -10.0995 21.0426 3.2
      vertex -10.0995 21.0426 0
    endloop
  endfacet
  facet normal -0.96595 0.258729 0
    outer loop
      vertex 15.1892 43.5536 3.4
      vertex 15.3055 43.9878 7
      vertex 15.3055 43.9878 3.4
    endloop
  endfacet
  facet normal -0.96595 0.258729 0
    outer loop
      vertex 15.3055 43.9878 7
      vertex 15.1892 43.5536 3.4
      vertex 15.1892 43.5536 7
    endloop
  endfacet
  facet normal -0.998632 0.0522902 0
    outer loop
      vertex 15.3055 43.9878 3.4
      vertex 15.329 44.4366 7
      vertex 15.329 44.4366 3.4
    endloop
  endfacet
  facet normal -0.998632 0.0522902 0
    outer loop
      vertex 15.329 44.4366 7
      vertex 15.3055 43.9878 3.4
      vertex 15.3055 43.9878 7
    endloop
  endfacet
  facet normal -0.838698 -0.544597 0
    outer loop
      vertex 15.0976 45.3002 3.4
      vertex 14.8528 45.6772 7
      vertex 14.8528 45.6772 3.4
    endloop
  endfacet
  facet normal -0.838698 -0.544597 0
    outer loop
      vertex 14.8528 45.6772 7
      vertex 15.0976 45.3002 3.4
      vertex 15.0976 45.3002 7
    endloop
  endfacet
  facet normal -0.933558 -0.358427 0
    outer loop
      vertex 15.2587 44.8806 3.4
      vertex 15.0976 45.3002 7
      vertex 15.0976 45.3002 3.4
    endloop
  endfacet
  facet normal -0.933558 -0.358427 0
    outer loop
      vertex 15.0976 45.3002 7
      vertex 15.2587 44.8806 3.4
      vertex 15.2587 44.8806 7
    endloop
  endfacet
  facet normal -0.544699 -0.838632 0
    outer loop
      vertex 14.1581 46.2398 3.4
      vertex 14.535 45.995 7
      vertex 14.1581 46.2398 7
    endloop
  endfacet
  facet normal -0.544699 -0.838632 -0
    outer loop
      vertex 14.535 45.995 7
      vertex 14.1581 46.2398 3.4
      vertex 14.535 45.995 3.4
    endloop
  endfacet
  facet normal 0.258784 -0.965935 0
    outer loop
      vertex 12.4115 46.3313 3.4
      vertex 12.8456 46.4476 7
      vertex 12.4115 46.3313 7
    endloop
  endfacet
  facet normal 0.258784 -0.965935 0
    outer loop
      vertex 12.8456 46.4476 7
      vertex 12.4115 46.3313 3.4
      vertex 12.8456 46.4476 3.4
    endloop
  endfacet
  facet normal -0.629243 0.777209 0
    outer loop
      vertex 14.7023 42.8038 3.4
      vertex 14.353 42.521 7
      vertex 14.7023 42.8038 7
    endloop
  endfacet
  facet normal -0.629243 0.777209 0
    outer loop
      vertex 14.353 42.521 7
      vertex 14.7023 42.8038 3.4
      vertex 14.353 42.521 3.4
    endloop
  endfacet
  facet normal -0.707107 -0.707107 0
    outer loop
      vertex 14.8528 45.6772 3.4
      vertex 14.535 45.995 7
      vertex 14.535 45.995 3.4
    endloop
  endfacet
  facet normal -0.707107 -0.707107 0
    outer loop
      vertex 14.535 45.995 7
      vertex 14.8528 45.6772 3.4
      vertex 14.8528 45.6772 7
    endloop
  endfacet
  facet normal -0.987696 -0.156385 0
    outer loop
      vertex 15.329 44.4366 3.4
      vertex 15.2587 44.8806 7
      vertex 15.2587 44.8806 3.4
    endloop
  endfacet
  facet normal -0.987696 -0.156385 0
    outer loop
      vertex 15.2587 44.8806 7
      vertex 15.329 44.4366 3.4
      vertex 15.329 44.4366 7
    endloop
  endfacet
  facet normal 0.629377 -0.7771 0
    outer loop
      vertex 11.6617 45.8444 3.4
      vertex 12.011 46.1273 7
      vertex 11.6617 45.8444 7
    endloop
  endfacet
  facet normal 0.629377 -0.7771 0
    outer loop
      vertex 12.011 46.1273 7
      vertex 11.6617 45.8444 3.4
      vertex 12.011 46.1273 3.4
    endloop
  endfacet
  facet normal 0.0525005 -0.998621 0
    outer loop
      vertex 12.8456 46.4476 3.4
      vertex 13.2945 46.4712 7
      vertex 12.8456 46.4476 7
    endloop
  endfacet
  facet normal 0.0525005 -0.998621 0
    outer loop
      vertex 13.2945 46.4712 7
      vertex 12.8456 46.4476 3.4
      vertex 13.2945 46.4712 3.4
    endloop
  endfacet
  facet normal -0.358353 -0.933586 0
    outer loop
      vertex 13.7384 46.4009 3.4
      vertex 14.1581 46.2398 7
      vertex 13.7384 46.4009 7
    endloop
  endfacet
  facet normal -0.358353 -0.933586 -0
    outer loop
      vertex 14.1581 46.2398 7
      vertex 13.7384 46.4009 3.4
      vertex 14.1581 46.2398 3.4
    endloop
  endfacet
  facet normal -0.15642 -0.987691 0
    outer loop
      vertex 13.2945 46.4712 3.4
      vertex 13.7384 46.4009 7
      vertex 13.2945 46.4712 7
    endloop
  endfacet
  facet normal -0.15642 -0.987691 -0
    outer loop
      vertex 13.7384 46.4009 7
      vertex 13.2945 46.4712 3.4
      vertex 13.7384 46.4009 3.4
    endloop
  endfacet
  facet normal -0.777209 0.629243 0
    outer loop
      vertex 14.7023 42.8038 3.4
      vertex 14.9851 43.1531 7
      vertex 14.9851 43.1531 3.4
    endloop
  endfacet
  facet normal -0.777209 0.629243 0
    outer loop
      vertex 14.9851 43.1531 7
      vertex 14.7023 42.8038 3.4
      vertex 14.7023 42.8038 7
    endloop
  endfacet
  facet normal 0.987691 0.15642 0
    outer loop
      vertex 11.1052 43.7677 7
      vertex 11.0349 44.2116 3.4
      vertex 11.0349 44.2116 7
    endloop
  endfacet
  facet normal 0.987691 0.15642 0
    outer loop
      vertex 11.0349 44.2116 3.4
      vertex 11.1052 43.7677 7
      vertex 11.1052 43.7677 3.4
    endloop
  endfacet
  facet normal 0.96595 -0.258729 0
    outer loop
      vertex 11.0585 44.6604 7
      vertex 11.1748 45.0946 3.4
      vertex 11.1748 45.0946 7
    endloop
  endfacet
  facet normal 0.96595 -0.258729 0
    outer loop
      vertex 11.1748 45.0946 3.4
      vertex 11.0585 44.6604 7
      vertex 11.0585 44.6604 3.4
    endloop
  endfacet
  facet normal 0.156385 0.987696 -0
    outer loop
      vertex 13.0695 42.1771 3.4
      vertex 12.6255 42.2474 7
      vertex 13.0695 42.1771 7
    endloop
  endfacet
  facet normal 0.156385 0.987696 0
    outer loop
      vertex 12.6255 42.2474 7
      vertex 13.0695 42.1771 3.4
      vertex 12.6255 42.2474 3.4
    endloop
  endfacet
  facet normal -0.890975 0.454052 0
    outer loop
      vertex 14.9851 43.1531 3.4
      vertex 15.1892 43.5536 7
      vertex 15.1892 43.5536 3.4
    endloop
  endfacet
  facet normal -0.890975 0.454052 0
    outer loop
      vertex 15.1892 43.5536 7
      vertex 14.9851 43.1531 3.4
      vertex 14.9851 43.1531 7
    endloop
  endfacet
  facet normal 0.453876 -0.891065 0
    outer loop
      vertex 12.011 46.1273 3.4
      vertex 12.4115 46.3313 7
      vertex 12.011 46.1273 7
    endloop
  endfacet
  facet normal 0.453876 -0.891065 0
    outer loop
      vertex 12.4115 46.3313 7
      vertex 12.011 46.1273 3.4
      vertex 12.4115 46.3313 3.4
    endloop
  endfacet
  facet normal -0.258729 0.96595 0
    outer loop
      vertex 13.9525 42.3169 3.4
      vertex 13.5183 42.2006 7
      vertex 13.9525 42.3169 7
    endloop
  endfacet
  facet normal -0.258729 0.96595 0
    outer loop
      vertex 13.5183 42.2006 7
      vertex 13.9525 42.3169 3.4
      vertex 13.5183 42.2006 3.4
    endloop
  endfacet
  facet normal 0.707107 0.707107 0
    outer loop
      vertex 11.8289 42.6533 7
      vertex 11.5111 42.9711 3.4
      vertex 11.5111 42.9711 7
    endloop
  endfacet
  facet normal 0.707107 0.707107 0
    outer loop
      vertex 11.5111 42.9711 3.4
      vertex 11.8289 42.6533 7
      vertex 11.8289 42.6533 3.4
    endloop
  endfacet
  facet normal 0.7771 -0.629377 0
    outer loop
      vertex 11.3788 45.4951 7
      vertex 11.6617 45.8444 3.4
      vertex 11.6617 45.8444 7
    endloop
  endfacet
  facet normal 0.7771 -0.629377 0
    outer loop
      vertex 11.6617 45.8444 3.4
      vertex 11.3788 45.4951 7
      vertex 11.3788 45.4951 3.4
    endloop
  endfacet
  facet normal 0 0 1
    outer loop
      vertex 15.2587 44.8806 3.4
      vertex 15.3055 43.9878 3.4
      vertex 15.329 44.4366 3.4
    endloop
  endfacet
  facet normal 0 0 1
    outer loop
      vertex 15.2587 44.8806 3.4
      vertex 15.1892 43.5536 3.4
      vertex 15.3055 43.9878 3.4
    endloop
  endfacet
  facet normal 0 0 1
    outer loop
      vertex 15.0976 45.3002 3.4
      vertex 15.1892 43.5536 3.4
      vertex 15.2587 44.8806 3.4
    endloop
  endfacet
  facet normal 0 0 1
    outer loop
      vertex 15.0976 45.3002 3.4
      vertex 14.9851 43.1531 3.4
      vertex 15.1892 43.5536 3.4
    endloop
  endfacet
  facet normal 0 0 1
    outer loop
      vertex 14.8528 45.6772 3.4
      vertex 14.9851 43.1531 3.4
      vertex 15.0976 45.3002 3.4
    endloop
  endfacet
  facet normal 0 0 1
    outer loop
      vertex 14.8528 45.6772 3.4
      vertex 14.7023 42.8038 3.4
      vertex 14.9851 43.1531 3.4
    endloop
  endfacet
  facet normal 0 0 1
    outer loop
      vertex 14.535 45.995 3.4
      vertex 14.7023 42.8038 3.4
      vertex 14.8528 45.6772 3.4
    endloop
  endfacet
  facet normal 0 0 1
    outer loop
      vertex 14.535 45.995 3.4
      vertex 14.353 42.521 3.4
      vertex 14.7023 42.8038 3.4
    endloop
  endfacet
  facet normal 0 0 1
    outer loop
      vertex 14.1581 46.2398 3.4
      vertex 14.353 42.521 3.4
      vertex 14.535 45.995 3.4
    endloop
  endfacet
  facet normal 0 0 1
    outer loop
      vertex 14.1581 46.2398 3.4
      vertex 13.9525 42.3169 3.4
      vertex 14.353 42.521 3.4
    endloop
  endfacet
  facet normal 0 0 1
    outer loop
      vertex 13.7384 46.4009 3.4
      vertex 13.9525 42.3169 3.4
      vertex 14.1581 46.2398 3.4
    endloop
  endfacet
  facet normal 0 0 1
    outer loop
      vertex 13.7384 46.4009 3.4
      vertex 13.5183 42.2006 3.4
      vertex 13.9525 42.3169 3.4
    endloop
  endfacet
  facet normal 0 0 1
    outer loop
      vertex 13.2945 46.4712 3.4
      vertex 13.5183 42.2006 3.4
      vertex 13.7384 46.4009 3.4
    endloop
  endfacet
  facet normal 0 0 1
    outer loop
      vertex 13.2945 46.4712 3.4
      vertex 13.0695 42.1771 3.4
      vertex 13.5183 42.2006 3.4
    endloop
  endfacet
  facet normal -0 0 1
    outer loop
      vertex 12.8456 46.4476 3.4
      vertex 13.0695 42.1771 3.4
      vertex 13.2945 46.4712 3.4
    endloop
  endfacet
  facet normal 0 0 1
    outer loop
      vertex 12.8456 46.4476 3.4
      vertex 12.6255 42.2474 3.4
      vertex 13.0695 42.1771 3.4
    endloop
  endfacet
  facet normal -0 0 1
    outer loop
      vertex 12.4115 46.3313 3.4
      vertex 12.6255 42.2474 3.4
      vertex 12.8456 46.4476 3.4
    endloop
  endfacet
  facet normal 0 0 1
    outer loop
      vertex 12.4115 46.3313 3.4
      vertex 12.2059 42.4085 3.4
      vertex 12.6255 42.2474 3.4
    endloop
  endfacet
  facet normal -0 0 1
    outer loop
      vertex 12.011 46.1273 3.4
      vertex 12.2059 42.4085 3.4
      vertex 12.4115 46.3313 3.4
    endloop
  endfacet
  facet normal 0 0 1
    outer loop
      vertex 12.011 46.1273 3.4
      vertex 11.8289 42.6533 3.4
      vertex 12.2059 42.4085 3.4
    endloop
  endfacet
  facet normal -0 0 1
    outer loop
      vertex 11.6617 45.8444 3.4
      vertex 11.8289 42.6533 3.4
      vertex 12.011 46.1273 3.4
    endloop
  endfacet
  facet normal 0 0 1
    outer loop
      vertex 11.6617 45.8444 3.4
      vertex 11.5111 42.9711 3.4
      vertex 11.8289 42.6533 3.4
    endloop
  endfacet
  facet normal -0 0 1
    outer loop
      vertex 11.3788 45.4951 3.4
      vertex 11.5111 42.9711 3.4
      vertex 11.6617 45.8444 3.4
    endloop
  endfacet
  facet normal 0 0 1
    outer loop
      vertex 11.3788 45.4951 3.4
      vertex 11.2663 43.348 3.4
      vertex 11.5111 42.9711 3.4
    endloop
  endfacet
  facet normal -0 0 1
    outer loop
      vertex 11.1748 45.0946 3.4
      vertex 11.2663 43.348 3.4
      vertex 11.3788 45.4951 3.4
    endloop
  endfacet
  facet normal 0 0 1
    outer loop
      vertex 11.1748 45.0946 3.4
      vertex 11.1052 43.7677 3.4
      vertex 11.2663 43.348 3.4
    endloop
  endfacet
  facet normal -0 0 1
    outer loop
      vertex 11.0585 44.6604 3.4
      vertex 11.1052 43.7677 3.4
      vertex 11.1748 45.0946 3.4
    endloop
  endfacet
  facet normal 0 0 1
    outer loop
      vertex 11.1052 43.7677 3.4
      vertex 11.0585 44.6604 3.4
      vertex 11.0349 44.2116 3.4
    endloop
  endfacet
  facet normal 0.99862 -0.0525121 0
    outer loop
      vertex 11.0349 44.2116 7
      vertex 11.0585 44.6604 3.4
      vertex 11.0585 44.6604 7
    endloop
  endfacet
  facet normal 0.99862 -0.0525121 0
    outer loop
      vertex 11.0585 44.6604 3.4
      vertex 11.0349 44.2116 7
      vertex 11.0349 44.2116 3.4
    endloop
  endfacet
  facet normal 0.544597 0.838698 -0
    outer loop
      vertex 12.2059 42.4085 3.4
      vertex 11.8289 42.6533 7
      vertex 12.2059 42.4085 7
    endloop
  endfacet
  facet normal 0.544597 0.838698 0
    outer loop
      vertex 11.8289 42.6533 7
      vertex 12.2059 42.4085 3.4
      vertex 11.8289 42.6533 3.4
    endloop
  endfacet
  facet normal 0.358427 0.933558 -0
    outer loop
      vertex 12.6255 42.2474 3.4
      vertex 12.2059 42.4085 7
      vertex 12.6255 42.2474 7
    endloop
  endfacet
  facet normal 0.358427 0.933558 0
    outer loop
      vertex 12.2059 42.4085 7
      vertex 12.6255 42.2474 3.4
      vertex 12.2059 42.4085 3.4
    endloop
  endfacet
  facet normal -0.454052 0.890975 0
    outer loop
      vertex 14.353 42.521 3.4
      vertex 13.9525 42.3169 7
      vertex 14.353 42.521 7
    endloop
  endfacet
  facet normal -0.454052 0.890975 0
    outer loop
      vertex 13.9525 42.3169 7
      vertex 14.353 42.521 3.4
      vertex 13.9525 42.3169 3.4
    endloop
  endfacet
  facet normal 0.838632 0.544699 0
    outer loop
      vertex 11.5111 42.9711 7
      vertex 11.2663 43.348 3.4
      vertex 11.2663 43.348 7
    endloop
  endfacet
  facet normal 0.838632 0.544699 0
    outer loop
      vertex 11.2663 43.348 3.4
      vertex 11.5111 42.9711 7
      vertex 11.5111 42.9711 3.4
    endloop
  endfacet
  facet normal 0.891065 -0.453876 0
    outer loop
      vertex 11.1748 45.0946 7
      vertex 11.3788 45.4951 3.4
      vertex 11.3788 45.4951 7
    endloop
  endfacet
  facet normal 0.891065 -0.453876 0
    outer loop
      vertex 11.3788 45.4951 3.4
      vertex 11.1748 45.0946 7
      vertex 11.1748 45.0946 3.4
    endloop
  endfacet
  facet normal -0.0522902 0.998632 0
    outer loop
      vertex 13.5183 42.2006 3.4
      vertex 13.0695 42.1771 7
      vertex 13.5183 42.2006 7
    endloop
  endfacet
  facet normal -0.0522902 0.998632 0
    outer loop
      vertex 13.0695 42.1771 7
      vertex 13.5183 42.2006 3.4
      vertex 13.0695 42.1771 3.4
    endloop
  endfacet
  facet normal 0.933586 0.358353 0
    outer loop
      vertex 11.2663 43.348 7
      vertex 11.1052 43.7677 3.4
      vertex 11.1052 43.7677 7
    endloop
  endfacet
  facet normal 0.933586 0.358353 0
    outer loop
      vertex 11.1052 43.7677 3.4
      vertex 11.2663 43.348 7
      vertex 11.2663 43.348 3.4
    endloop
  endfacet
  facet normal -0.258825 -0.965924 0
    outer loop
      vertex 12.1661 48.1154 0
      vertex 15.9574 47.0995 3.2
      vertex 12.1661 48.1154 3.2
    endloop
  endfacet
  facet normal -0.258825 -0.965924 -0
    outer loop
      vertex 15.9574 47.0995 3.2
      vertex 12.1661 48.1154 0
      vertex 15.9574 47.0995 0
    endloop
  endfacet
  facet normal 0 0 -1
    outer loop
      vertex 14.1978 40.5329 3.2
      vertex 15.9574 47.0995 3.2
      vertex 16.9732 43.3083 3.2
    endloop
  endfacet
  facet normal 0 0 -1
    outer loop
      vertex 14.1978 40.5329 3.2
      vertex 12.1661 48.1154 3.2
      vertex 15.9574 47.0995 3.2
    endloop
  endfacet
  facet normal 0 0 -1
    outer loop
      vertex 10.4066 41.5487 3.2
      vertex 12.1661 48.1154 3.2
      vertex 14.1978 40.5329 3.2
    endloop
  endfacet
  facet normal 0 0 -1
    outer loop
      vertex 12.1661 48.1154 3.2
      vertex 10.4066 41.5487 3.2
      vertex 9.39072 45.34 3.2
    endloop
  endfacet
  facet normal -0.707107 0.707107 0
    outer loop
      vertex 16.9732 43.3083 0
      vertex 14.1978 40.5329 3.2
      vertex 16.9732 43.3083 3.2
    endloop
  endfacet
  facet normal -0.707107 0.707107 0
    outer loop
      vertex 14.1978 40.5329 3.2
      vertex 16.9732 43.3083 0
      vertex 14.1978 40.5329 0
    endloop
  endfacet
  facet normal 0.707109 -0.707104 0
    outer loop
      vertex 9.39072 45.34 3.2
      vertex 12.1661 48.1154 0
      vertex 12.1661 48.1154 3.2
    endloop
  endfacet
  facet normal 0.707109 -0.707104 0
    outer loop
      vertex 12.1661 48.1154 0
      vertex 9.39072 45.34 3.2
      vertex 9.39072 45.34 0
    endloop
  endfacet
  facet normal -0.965929 -0.258807 0
    outer loop
      vertex 16.9732 43.3083 0
      vertex 15.9574 47.0995 3.2
      vertex 15.9574 47.0995 0
    endloop
  endfacet
  facet normal -0.965929 -0.258807 0
    outer loop
      vertex 15.9574 47.0995 3.2
      vertex 16.9732 43.3083 0
      vertex 16.9732 43.3083 3.2
    endloop
  endfacet
  facet normal 0.258807 0.965929 -0
    outer loop
      vertex 14.1978 40.5329 0
      vertex 10.4066 41.5487 3.2
      vertex 14.1978 40.5329 3.2
    endloop
  endfacet
  facet normal 0.258807 0.965929 0
    outer loop
      vertex 10.4066 41.5487 3.2
      vertex 14.1978 40.5329 0
      vertex 10.4066 41.5487 0
    endloop
  endfacet
  facet normal 0.965926 0.25882 0
    outer loop
      vertex 10.4066 41.5487 3.2
      vertex 9.39072 45.34 0
      vertex 9.39072 45.34 3.2
    endloop
  endfacet
  facet normal 0.965926 0.25882 0
    outer loop
      vertex 9.39072 45.34 0
      vertex 10.4066 41.5487 3.2
      vertex 10.4066 41.5487 0
    endloop
  endfacet
  facet normal -0.70711 0.707103 0
    outer loop
      vertex 6.05888 45.6863 0
      vertex 14.2426 53.8701 7
      vertex 14.2426 53.8701 0
    endloop
  endfacet
  facet normal -0.70711 0.707103 0
    outer loop
      vertex 14.2426 53.8701 7
      vertex 6.05888 45.6863 0
      vertex 6.05888 45.6863 7
    endloop
  endfacet
  facet normal -0.707101 0.707112 0
    outer loop
      vertex -16.8701 22.7574 0
      vertex -9.79899 29.8284 7
      vertex -9.79899 29.8284 0
    endloop
  endfacet
  facet normal -0.707101 0.707112 0
    outer loop
      vertex -9.79899 29.8284 7
      vertex -16.8701 22.7574 0
      vertex -16.8701 22.7574 7
    endloop
  endfacet
  facet normal 0 0 1
    outer loop
      vertex 25.5563 42.5564 7
      vertex 15.2587 44.8806 7
      vertex 15.329 44.4366 7
    endloop
  endfacet
  facet normal 0 0 1
    outer loop
      vertex 25.5563 42.5564 7
      vertex 15.0976 45.3002 7
      vertex 15.2587 44.8806 7
    endloop
  endfacet
  facet normal 0 0 1
    outer loop
      vertex 25.5563 42.5564 7
      vertex 14.8528 45.6772 7
      vertex 15.0976 45.3002 7
    endloop
  endfacet
  facet normal 0 0 1
    outer loop
      vertex 14.2426 53.8701 7
      vertex 14.8528 45.6772 7
      vertex 25.5563 42.5564 7
    endloop
  endfacet
  facet normal 0 0 1
    outer loop
      vertex 14.8528 45.6772 7
      vertex 14.2426 53.8701 7
      vertex 14.535 45.995 7
    endloop
  endfacet
  facet normal 0 0 1
    outer loop
      vertex 14.2426 53.8701 7
      vertex 14.1581 46.2398 7
      vertex 14.535 45.995 7
    endloop
  endfacet
  facet normal 0 0 1
    outer loop
      vertex 14.2426 53.8701 7
      vertex 13.7384 46.4009 7
      vertex 14.1581 46.2398 7
    endloop
  endfacet
  facet normal 0 0 1
    outer loop
      vertex 14.2426 53.8701 7
      vertex 13.2945 46.4712 7
      vertex 13.7384 46.4009 7
    endloop
  endfacet
  facet normal 0 0 1
    outer loop
      vertex 14.2426 53.8701 7
      vertex 12.8456 46.4476 7
      vertex 13.2945 46.4712 7
    endloop
  endfacet
  facet normal 0 0 1
    outer loop
      vertex 14.2426 53.8701 7
      vertex 12.4115 46.3313 7
      vertex 12.8456 46.4476 7
    endloop
  endfacet
  facet normal 0 0 1
    outer loop
      vertex 14.2426 53.8701 7
      vertex 12.011 46.1273 7
      vertex 12.4115 46.3313 7
    endloop
  endfacet
  facet normal 0 0 1
    outer loop
      vertex 6.05888 45.6863 7
      vertex 12.011 46.1273 7
      vertex 14.2426 53.8701 7
    endloop
  endfacet
  facet normal 0 0 1
    outer loop
      vertex 12.011 46.1273 7
      vertex 6.05888 45.6863 7
      vertex 11.6617 45.8444 7
    endloop
  endfacet
  facet normal 0 0 1
    outer loop
      vertex 11.6617 45.8444 7
      vertex 6.05888 45.6863 7
      vertex 11.3788 45.4951 7
    endloop
  endfacet
  facet normal 0 0 1
    outer loop
      vertex 6.05888 45.6863 7
      vertex 11.0349 44.2116 7
      vertex 11.0585 44.6604 7
    endloop
  endfacet
  facet normal 0 0 1
    outer loop
      vertex 6.05888 45.6863 7
      vertex 11.0585 44.6604 7
      vertex 11.1748 45.0946 7
    endloop
  endfacet
  facet normal 0 0 1
    outer loop
      vertex 11.0349 44.2116 7
      vertex 6.05888 45.6863 7
      vertex 6.05888 29.8284 7
    endloop
  endfacet
  facet normal 0 0 1
    outer loop
      vertex 11.3788 45.4951 7
      vertex 6.05888 45.6863 7
      vertex 11.1748 45.0946 7
    endloop
  endfacet
  facet normal -0 0 1
    outer loop
      vertex 15.3055 43.9878 7
      vertex 25.5563 42.5564 7
      vertex 15.329 44.4366 7
    endloop
  endfacet
  facet normal -0 0 1
    outer loop
      vertex 15.1892 43.5536 7
      vertex 25.5563 42.5564 7
      vertex 15.3055 43.9878 7
    endloop
  endfacet
  facet normal -0 0 1
    outer loop
      vertex 14.9851 43.1531 7
      vertex 25.5563 42.5564 7
      vertex 15.1892 43.5536 7
    endloop
  endfacet
  facet normal -0 0 1
    outer loop
      vertex 14.7023 42.8038 7
      vertex 25.5563 42.5564 7
      vertex 14.9851 43.1531 7
    endloop
  endfacet
  facet normal 0 0 1
    outer loop
      vertex 14.353 42.521 7
      vertex 25.5563 42.5564 7
      vertex 14.7023 42.8038 7
    endloop
  endfacet
  facet normal 0 0 1
    outer loop
      vertex 25.5563 42.5564 7
      vertex 14.353 42.521 7
      vertex 28.7896 23 7
    endloop
  endfacet
  facet normal -0 0 1
    outer loop
      vertex 13.9525 42.3169 7
      vertex 28.7896 23 7
      vertex 14.353 42.521 7
    endloop
  endfacet
  facet normal 0 0 1
    outer loop
      vertex 6.05888 29.8284 7
      vertex 13.9525 42.3169 7
      vertex 13.5183 42.2006 7
    endloop
  endfacet
  facet normal 0 0 1
    outer loop
      vertex 6.05888 29.8284 7
      vertex 13.5183 42.2006 7
      vertex 13.0695 42.1771 7
    endloop
  endfacet
  facet normal 0 0 1
    outer loop
      vertex 6.05888 29.8284 7
      vertex 13.0695 42.1771 7
      vertex 12.6255 42.2474 7
    endloop
  endfacet
  facet normal 0 0 1
    outer loop
      vertex 6.05888 29.8284 7
      vertex 12.6255 42.2474 7
      vertex 12.2059 42.4085 7
    endloop
  endfacet
  facet normal 0 0 1
    outer loop
      vertex 6.05888 29.8284 7
      vertex 12.2059 42.4085 7
      vertex 11.8289 42.6533 7
    endloop
  endfacet
  facet normal 0 0 1
    outer loop
      vertex 6.05888 29.8284 7
      vertex 11.8289 42.6533 7
      vertex 11.5111 42.9711 7
    endloop
  endfacet
  facet normal 0 0 1
    outer loop
      vertex 6.05888 29.8284 7
      vertex 11.1052 43.7677 7
      vertex 11.0349 44.2116 7
    endloop
  endfacet
  facet normal 0 0 1
    outer loop
      vertex 6.05888 29.8284 7
      vertex 11.2663 43.348 7
      vertex 11.1052 43.7677 7
    endloop
  endfacet
  facet normal 0 0 1
    outer loop
      vertex 6.05888 29.8284 7
      vertex 11.5111 42.9711 7
      vertex 11.2663 43.348 7
    endloop
  endfacet
  facet normal 0 0 1
    outer loop
      vertex 13.9525 42.3169 7
      vertex 6.05888 29.8284 7
      vertex 28.7896 23 7
    endloop
  endfacet
  facet normal 0 0 1
    outer loop
      vertex 6.05888 29.8284 7
      vertex 0 23 7
      vertex 28.7896 23 7
    endloop
  endfacet
  facet normal -0 0 1
    outer loop
      vertex -5.20059 23.4817 7
      vertex 0 23 7
      vertex -5.17706 23.9305 7
    endloop
  endfacet
  facet normal -0 0 1
    outer loop
      vertex -5.65325 25.1711 7
      vertex 0 23 7
      vertex 6.05888 29.8284 7
    endloop
  endfacet
  facet normal 0 0 1
    outer loop
      vertex 0 23 7
      vertex -5.24738 24.3745 7
      vertex -5.17706 23.9305 7
    endloop
  endfacet
  facet normal 0 0 1
    outer loop
      vertex 0 23 7
      vertex -5.40845 24.7941 7
      vertex -5.24738 24.3745 7
    endloop
  endfacet
  facet normal 0 0 1
    outer loop
      vertex 0 23 7
      vertex -5.65325 25.1711 7
      vertex -5.40845 24.7941 7
    endloop
  endfacet
  facet normal 0 0 1
    outer loop
      vertex 6.05888 29.8284 7
      vertex -5.97108 25.4889 7
      vertex -5.65325 25.1711 7
    endloop
  endfacet
  facet normal 0 0 1
    outer loop
      vertex 6.05888 29.8284 7
      vertex -6.34804 25.7337 7
      vertex -5.97108 25.4889 7
    endloop
  endfacet
  facet normal -0 0 1
    outer loop
      vertex -9.79899 29.8284 7
      vertex -6.34804 25.7337 7
      vertex 6.05888 29.8284 7
    endloop
  endfacet
  facet normal 0 0 1
    outer loop
      vertex -6.34804 25.7337 7
      vertex -9.79899 29.8284 7
      vertex -6.76766 25.8948 7
    endloop
  endfacet
  facet normal 0 0 1
    outer loop
      vertex -6.76766 25.8948 7
      vertex -9.79899 29.8284 7
      vertex -7.21159 25.9651 7
    endloop
  endfacet
  facet normal 0 0 1
    outer loop
      vertex -7.21159 25.9651 7
      vertex -9.79899 29.8284 7
      vertex -7.66045 25.9415 7
    endloop
  endfacet
  facet normal 0 0 1
    outer loop
      vertex -9.33131 24.5885 7
      vertex -16.8701 22.7574 7
      vertex -9.44765 24.1544 7
    endloop
  endfacet
  facet normal 0 0 1
    outer loop
      vertex -16.8701 22.7574 7
      vertex -9.33131 24.5885 7
      vertex -9.79899 29.8284 7
    endloop
  endfacet
  facet normal 0 0 1
    outer loop
      vertex -9.12726 24.989 7
      vertex -9.79899 29.8284 7
      vertex -9.33131 24.5885 7
    endloop
  endfacet
  facet normal 0 0 1
    outer loop
      vertex -8.8444 25.3383 7
      vertex -9.79899 29.8284 7
      vertex -9.12726 24.989 7
    endloop
  endfacet
  facet normal 0 0 1
    outer loop
      vertex -8.49509 25.6212 7
      vertex -9.79899 29.8284 7
      vertex -8.8444 25.3383 7
    endloop
  endfacet
  facet normal 0 0 1
    outer loop
      vertex -8.09461 25.8252 7
      vertex -9.79899 29.8284 7
      vertex -8.49509 25.6212 7
    endloop
  endfacet
  facet normal 0 0 1
    outer loop
      vertex -7.66045 25.9415 7
      vertex -9.79899 29.8284 7
      vertex -8.09461 25.8252 7
    endloop
  endfacet
  facet normal -0 0 1
    outer loop
      vertex -5.31692 23.0475 7
      vertex 0 23 7
      vertex -5.20059 23.4817 7
    endloop
  endfacet
  facet normal 0 0 1
    outer loop
      vertex -5.52097 22.647 7
      vertex 0 23 7
      vertex -5.31692 23.0475 7
    endloop
  endfacet
  facet normal 0 0 1
    outer loop
      vertex -5.80384 22.2977 7
      vertex 0 23 7
      vertex -5.52097 22.647 7
    endloop
  endfacet
  facet normal 0 0 1
    outer loop
      vertex 0 23 7
      vertex -5.80384 22.2977 7
      vertex 0 13.0751 7
    endloop
  endfacet
  facet normal -0 0 1
    outer loop
      vertex -6.15314 22.0149 7
      vertex 0 13.0751 7
      vertex -5.80384 22.2977 7
    endloop
  endfacet
  facet normal -0 0 1
    outer loop
      vertex -6.55363 21.8108 7
      vertex 0 13.0751 7
      vertex -6.15314 22.0149 7
    endloop
  endfacet
  facet normal 0 0 1
    outer loop
      vertex 0 13.0751 7
      vertex -6.55363 21.8108 7
      vertex -5.55635 11.4437 7
    endloop
  endfacet
  facet normal -0 0 1
    outer loop
      vertex -6.98778 21.6945 7
      vertex -5.55635 11.4437 7
      vertex -6.55363 21.8108 7
    endloop
  endfacet
  facet normal -0 0 1
    outer loop
      vertex -7.43664 21.671 7
      vertex -5.55635 11.4437 7
      vertex -6.98778 21.6945 7
    endloop
  endfacet
  facet normal 0 0 1
    outer loop
      vertex -7.88058 21.7413 7
      vertex -5.55635 11.4437 7
      vertex -7.43664 21.671 7
    endloop
  endfacet
  facet normal 0 0 1
    outer loop
      vertex -8.3002 21.9024 7
      vertex -5.55635 11.4437 7
      vertex -7.88058 21.7413 7
    endloop
  endfacet
  facet normal 0 0 1
    outer loop
      vertex -8.67716 22.1472 7
      vertex -5.55635 11.4437 7
      vertex -8.3002 21.9024 7
    endloop
  endfacet
  facet normal 0 0 1
    outer loop
      vertex -16.8701 22.7574 7
      vertex -8.67716 22.1472 7
      vertex -8.99498 22.465 7
    endloop
  endfacet
  facet normal -0 0 1
    outer loop
      vertex -16.8701 22.7574 7
      vertex -8.99498 22.465 7
      vertex -9.23978 22.8419 7
    endloop
  endfacet
  facet normal 0 0 1
    outer loop
      vertex -16.8701 22.7574 7
      vertex -9.23978 22.8419 7
      vertex -9.40086 23.2616 7
    endloop
  endfacet
  facet normal 0 0 1
    outer loop
      vertex -8.67716 22.1472 7
      vertex -16.8701 22.7574 7
      vertex -5.55635 11.4437 7
    endloop
  endfacet
  facet normal 0 0 1
    outer loop
      vertex -9.47117 23.7055 7
      vertex -16.8701 22.7574 7
      vertex -9.40086 23.2616 7
    endloop
  endfacet
  facet normal 0 0 1
    outer loop
      vertex -9.44765 24.1544 7
      vertex -16.8701 22.7574 7
      vertex -9.47117 23.7055 7
    endloop
  endfacet
  facet normal 0.281718 -0.959497 0
    outer loop
      vertex -5.55635 11.4437 0
      vertex 0 13.0751 7
      vertex -5.55635 11.4437 7
    endloop
  endfacet
  facet normal 0.281718 -0.959497 0
    outer loop
      vertex 0 13.0751 7
      vertex -5.55635 11.4437 0
      vertex 0 13.0751 0
    endloop
  endfacet
  facet normal 0.707107 0.707107 -0
    outer loop
      vertex 25.5563 42.5564 0
      vertex 14.2426 53.8701 7
      vertex 25.5563 42.5564 7
    endloop
  endfacet
  facet normal 0.707107 0.707107 0
    outer loop
      vertex 14.2426 53.8701 7
      vertex 25.5563 42.5564 0
      vertex 14.2426 53.8701 0
    endloop
  endfacet
  facet normal -0.707105 -0.707108 0
    outer loop
      vertex -16.8701 22.7574 0
      vertex -5.55635 11.4437 7
      vertex -16.8701 22.7574 7
    endloop
  endfacet
  facet normal -0.707105 -0.707108 -0
    outer loop
      vertex -5.55635 11.4437 7
      vertex -16.8701 22.7574 0
      vertex -5.55635 11.4437 0
    endloop
  endfacet
  facet normal 0.986607 0.163118 0
    outer loop
      vertex 28.7896 23 7
      vertex 25.5563 42.5564 0
      vertex 25.5563 42.5564 7
    endloop
  endfacet
  facet normal 0.986607 0.163118 0
    outer loop
      vertex 25.5563 42.5564 0
      vertex 28.7896 23 7
      vertex 28.7896 23 0
    endloop
  endfacet
  facet normal -1 0 0
    outer loop
      vertex 6.05888 29.8284 0
      vertex 6.05888 45.6863 7
      vertex 6.05888 45.6863 0
    endloop
  endfacet
  facet normal -1 -0 0
    outer loop
      vertex 6.05888 45.6863 7
      vertex 6.05888 29.8284 0
      vertex 6.05888 29.8284 7
    endloop
  endfacet
  facet normal 0 1 -0
    outer loop
      vertex 6.05888 29.8284 0
      vertex -9.79899 29.8284 7
      vertex 6.05888 29.8284 7
    endloop
  endfacet
  facet normal 0 1 0
    outer loop
      vertex -9.79899 29.8284 7
      vertex 6.05888 29.8284 0
      vertex -9.79899 29.8284 0
    endloop
  endfacet
  facet normal -1 0 0
    outer loop
      vertex 0 13.0751 0
      vertex 0 -13 0
      vertex 0 13.0751 7
    endloop
  endfacet
  facet normal -1 0 0
    outer loop
      vertex 0 13.0751 7
      vertex 0 23 20
      vertex 0 23 7
    endloop
  endfacet
  facet normal -1 0 0
    outer loop
      vertex 0 -13 20
      vertex 0 13.0751 7
      vertex 0 -13 0
    endloop
  endfacet
  facet normal -1 0 0
    outer loop
      vertex 0 13.0751 7
      vertex 0 -13 20
      vertex 0 23 20
    endloop
  endfacet
  facet normal 0 0 1
    outer loop
      vertex 31 23 20
      vertex 27 20 20
      vertex 31 15 20
    endloop
  endfacet
  facet normal 0 0 1
    outer loop
      vertex 31 23 20
      vertex 19 20 20
      vertex 27 20 20
    endloop
  endfacet
  facet normal 0 0 1
    outer loop
      vertex 8 15 20
      vertex 3 4 20
      vertex 8 2.5 20
    endloop
  endfacet
  facet normal 0 0 1
    outer loop
      vertex 0 -13 20
      vertex 3 4 20
      vertex 0 23 20
    endloop
  endfacet
  facet normal 0 0 1
    outer loop
      vertex 8 15 20
      vertex 0 23 20
      vertex 3 4 20
    endloop
  endfacet
  facet normal 0 0 1
    outer loop
      vertex 19 20 20
      vertex 0 23 20
      vertex 8 15 20
    endloop
  endfacet
  facet normal -0 0 1
    outer loop
      vertex 0 23 20
      vertex 19 20 20
      vertex 31 23 20
    endloop
  endfacet
  facet normal 0 0 1
    outer loop
      vertex 31 15 20
      vertex 27 20 20
      vertex 25.5 15 20
    endloop
  endfacet
  facet normal 0 0 1
    outer loop
      vertex 20.5 15 20
      vertex 19 20 20
      vertex 8 15 20
    endloop
  endfacet
  facet normal -0 0 1
    outer loop
      vertex 3 -4 20
      vertex 8 -13 20
      vertex 8 -2.5 20
    endloop
  endfacet
  facet normal 0 0 1
    outer loop
      vertex 3 -4 20
      vertex 0 -13 20
      vertex 8 -13 20
    endloop
  endfacet
  facet normal 0 0 1
    outer loop
      vertex 3 4 20
      vertex 0 -13 20
      vertex 3 -4 20
    endloop
  endfacet
  facet normal 1 -0 0
    outer loop
      vertex 8 -13 20
      vertex 8 -2.5 0
      vertex 8 -2.5 20
    endloop
  endfacet
  facet normal 1 0 0
    outer loop
      vertex 8 -2.5 0
      vertex 8 -13 20
      vertex 8 -13 0
    endloop
  endfacet
  facet normal 1 -0 0
    outer loop
      vertex 8 2.5 20
      vertex 8 15 0
      vertex 8 15 20
    endloop
  endfacet
  facet normal 1 0 0
    outer loop
      vertex 8 15 0
      vertex 8 2.5 20
      vertex 8 2.5 0
    endloop
  endfacet
  facet normal 0 -1 0
    outer loop
      vertex 0 -13 0
      vertex 8 -13 20
      vertex 0 -13 20
    endloop
  endfacet
  facet normal 0 -1 -0
    outer loop
      vertex 8 -13 20
      vertex 0 -13 0
      vertex 8 -13 0
    endloop
  endfacet
  facet normal 0 1 0
    outer loop
      vertex 31 23 20
      vertex 28.7896 23 7
      vertex 0 23 20
    endloop
  endfacet
  facet normal 0 1 -0
    outer loop
      vertex 31 23 0
      vertex 28.7896 23 7
      vertex 31 23 20
    endloop
  endfacet
  facet normal 0 1 0
    outer loop
      vertex 28.7896 23 7
      vertex 31 23 0
      vertex 28.7896 23 0
    endloop
  endfacet
  facet normal 0 1 0
    outer loop
      vertex 0 23 20
      vertex 28.7896 23 7
      vertex 0 23 7
    endloop
  endfacet
  facet normal 1 -0 0
    outer loop
      vertex 31 15 20
      vertex 31 23 0
      vertex 31 23 20
    endloop
  endfacet
  facet normal 1 0 0
    outer loop
      vertex 31 23 0
      vertex 31 15 20
      vertex 31 15 0
    endloop
  endfacet
  facet normal 0 -1 0
    outer loop
      vertex 25.5 15 0
      vertex 31 15 20
      vertex 25.5 15 20
    endloop
  endfacet
  facet normal 0 -1 -0
    outer loop
      vertex 31 15 20
      vertex 25.5 15 0
      vertex 31 15 0
    endloop
  endfacet
  facet normal 0 -1 0
    outer loop
      vertex 8 15 0
      vertex 20.5 15 20
      vertex 8 15 20
    endloop
  endfacet
  facet normal 0 -1 -0
    outer loop
      vertex 20.5 15 20
      vertex 8 15 0
      vertex 20.5 15 0
    endloop
  endfacet
  facet normal -0.287348 0.957826 0
    outer loop
      vertex 8 -2.5 0
      vertex 3 -4 20
      vertex 8 -2.5 20
    endloop
  endfacet
  facet normal -0.287348 0.957826 0
    outer loop
      vertex 3 -4 20
      vertex 8 -2.5 0
      vertex 3 -4 0
    endloop
  endfacet
  facet normal -0.287348 -0.957826 0
    outer loop
      vertex 3 4 0
      vertex 8 2.5 20
      vertex 3 4 20
    endloop
  endfacet
  facet normal -0.287348 -0.957826 -0
    outer loop
      vertex 8 2.5 20
      vertex 3 4 0
      vertex 8 2.5 0
    endloop
  endfacet
  facet normal 1 -0 0
    outer loop
      vertex 3 -4 20
      vertex 3 4 0
      vertex 3 4 20
    endloop
  endfacet
  facet normal 1 0 0
    outer loop
      vertex 3 4 0
      vertex 3 -4 20
      vertex 3 -4 0
    endloop
  endfacet
  facet normal 0.957826 0.287348 0
    outer loop
      vertex 20.5 15 20
      vertex 19 20 0
      vertex 19 20 20
    endloop
  endfacet
  facet normal 0.957826 0.287348 0
    outer loop
      vertex 19 20 0
      vertex 20.5 15 20
      vertex 20.5 15 0
    endloop
  endfacet
  facet normal -0.957826 0.287348 0
    outer loop
      vertex 25.5 15 0
      vertex 27 20 20
      vertex 27 20 0
    endloop
  endfacet
  facet normal -0.957826 0.287348 0
    outer loop
      vertex 27 20 20
      vertex 25.5 15 0
      vertex 25.5 15 20
    endloop
  endfacet
  facet normal 0 -1 0
    outer loop
      vertex 19 20 0
      vertex 27 20 20
      vertex 19 20 20
    endloop
  endfacet
  facet normal 0 -1 -0
    outer loop
      vertex 27 20 20
      vertex 19 20 0
      vertex 27 20 0
    endloop
  endfacet
endsolid OpenSCAD_Model
