solid OpenSCAD_Model
  facet normal -0.104567 0.994518 0
    outer loop
      vertex 7.94701 30.897 3.4
      vertex 7.5 30.85 7
      vertex 7.94701 30.897 7
    endloop
  endfacet
  facet normal -0.104567 0.994518 0
    outer loop
      vertex 7.5 30.85 7
      vertex 7.94701 30.897 3.4
      vertex 7.5 30.85 3.4
    endloop
  endfacet
  facet normal -0.104567 -0.994518 0
    outer loop
      vertex 7.5 35.15 3.4
      vertex 7.94701 35.103 7
      vertex 7.5 35.15 7
    endloop
  endfacet
  facet normal -0.104567 -0.994518 -0
    outer loop
      vertex 7.94701 35.103 7
      vertex 7.5 35.15 3.4
      vertex 7.94701 35.103 3.4
    endloop
  endfacet
  facet normal -1 0 0
    outer loop
      vertex 9.63822 32.7753 3.4
      vertex 9.63822 33.2247 7
      vertex 9.63822 33.2247 3.4
    endloop
  endfacet
  facet normal -1 -0 0
    outer loop
      vertex 9.63822 33.2247 7
      vertex 9.63822 32.7753 3.4
      vertex 9.63822 32.7753 7
    endloop
  endfacet
  facet normal -0.669188 0.743093 0
    outer loop
      vertex 9.09776 31.5614 3.4
      vertex 8.76374 31.2606 7
      vertex 9.09776 31.5614 7
    endloop
  endfacet
  facet normal -0.669188 0.743093 0
    outer loop
      vertex 8.76374 31.2606 7
      vertex 9.09776 31.5614 3.4
      vertex 8.76374 31.2606 3.4
    endloop
  endfacet
  facet normal -0.808997 -0.587813 0
    outer loop
      vertex 9.36195 34.075 3.4
      vertex 9.09776 34.4386 7
      vertex 9.09776 34.4386 3.4
    endloop
  endfacet
  facet normal -0.808997 -0.587813 0
    outer loop
      vertex 9.09776 34.4386 7
      vertex 9.36195 34.075 3.4
      vertex 9.36195 34.075 7
    endloop
  endfacet
  facet normal -0.978153 -0.207888 0
    outer loop
      vertex 9.63822 33.2247 3.4
      vertex 9.54477 33.6644 7
      vertex 9.54477 33.6644 3.4
    endloop
  endfacet
  facet normal -0.978153 -0.207888 0
    outer loop
      vertex 9.54477 33.6644 7
      vertex 9.63822 33.2247 3.4
      vertex 9.63822 33.2247 7
    endloop
  endfacet
  facet normal 0 0 1
    outer loop
      vertex 9.54477 33.6644 3.4
      vertex 9.63822 32.7753 3.4
      vertex 9.63822 33.2247 3.4
    endloop
  endfacet
  facet normal 0 0 1
    outer loop
      vertex 9.54477 33.6644 3.4
      vertex 9.54477 32.3356 3.4
      vertex 9.63822 32.7753 3.4
    endloop
  endfacet
  facet normal 0 0 1
    outer loop
      vertex 9.36195 34.075 3.4
      vertex 9.54477 32.3356 3.4
      vertex 9.54477 33.6644 3.4
    endloop
  endfacet
  facet normal 0 0 1
    outer loop
      vertex 9.36195 34.075 3.4
      vertex 9.36195 31.925 3.4
      vertex 9.54477 32.3356 3.4
    endloop
  endfacet
  facet normal 0 0 1
    outer loop
      vertex 9.09776 34.4386 3.4
      vertex 9.36195 31.925 3.4
      vertex 9.36195 34.075 3.4
    endloop
  endfacet
  facet normal 0 0 1
    outer loop
      vertex 9.09776 34.4386 3.4
      vertex 9.09776 31.5614 3.4
      vertex 9.36195 31.925 3.4
    endloop
  endfacet
  facet normal 0 0 1
    outer loop
      vertex 8.76374 34.7394 3.4
      vertex 9.09776 31.5614 3.4
      vertex 9.09776 34.4386 3.4
    endloop
  endfacet
  facet normal 0 0 1
    outer loop
      vertex 8.76374 34.7394 3.4
      vertex 8.76374 31.2606 3.4
      vertex 9.09776 31.5614 3.4
    endloop
  endfacet
  facet normal 0 0 1
    outer loop
      vertex 8.37448 34.9641 3.4
      vertex 8.76374 31.2606 3.4
      vertex 8.76374 34.7394 3.4
    endloop
  endfacet
  facet normal 0 0 1
    outer loop
      vertex 8.37448 34.9641 3.4
      vertex 8.37448 31.0359 3.4
      vertex 8.76374 31.2606 3.4
    endloop
  endfacet
  facet normal 0 0 1
    outer loop
      vertex 7.94701 35.103 3.4
      vertex 8.37448 31.0359 3.4
      vertex 8.37448 34.9641 3.4
    endloop
  endfacet
  facet normal 0 0 1
    outer loop
      vertex 7.94701 35.103 3.4
      vertex 7.94701 30.897 3.4
      vertex 8.37448 31.0359 3.4
    endloop
  endfacet
  facet normal 0 0 1
    outer loop
      vertex 7.5 35.15 3.4
      vertex 7.94701 30.897 3.4
      vertex 7.94701 35.103 3.4
    endloop
  endfacet
  facet normal 0 0 1
    outer loop
      vertex 7.5 35.15 3.4
      vertex 7.5 30.85 3.4
      vertex 7.94701 30.897 3.4
    endloop
  endfacet
  facet normal -0 0 1
    outer loop
      vertex 7.05299 35.103 3.4
      vertex 7.5 30.85 3.4
      vertex 7.5 35.15 3.4
    endloop
  endfacet
  facet normal 0 0 1
    outer loop
      vertex 7.05299 35.103 3.4
      vertex 7.05299 30.897 3.4
      vertex 7.5 30.85 3.4
    endloop
  endfacet
  facet normal -0 0 1
    outer loop
      vertex 6.62552 34.9641 3.4
      vertex 7.05299 30.897 3.4
      vertex 7.05299 35.103 3.4
    endloop
  endfacet
  facet normal 0 0 1
    outer loop
      vertex 6.62552 34.9641 3.4
      vertex 6.62552 31.0359 3.4
      vertex 7.05299 30.897 3.4
    endloop
  endfacet
  facet normal -0 0 1
    outer loop
      vertex 6.23626 34.7394 3.4
      vertex 6.62552 31.0359 3.4
      vertex 6.62552 34.9641 3.4
    endloop
  endfacet
  facet normal 0 0 1
    outer loop
      vertex 6.23626 34.7394 3.4
      vertex 6.23626 31.2606 3.4
      vertex 6.62552 31.0359 3.4
    endloop
  endfacet
  facet normal -0 0 1
    outer loop
      vertex 5.90224 34.4386 3.4
      vertex 6.23626 31.2606 3.4
      vertex 6.23626 34.7394 3.4
    endloop
  endfacet
  facet normal 0 0 1
    outer loop
      vertex 5.90224 34.4386 3.4
      vertex 5.90224 31.5614 3.4
      vertex 6.23626 31.2606 3.4
    endloop
  endfacet
  facet normal -0 0 1
    outer loop
      vertex 5.63805 34.075 3.4
      vertex 5.90224 31.5614 3.4
      vertex 5.90224 34.4386 3.4
    endloop
  endfacet
  facet normal 0 0 1
    outer loop
      vertex 5.63805 34.075 3.4
      vertex 5.63805 31.925 3.4
      vertex 5.90224 31.5614 3.4
    endloop
  endfacet
  facet normal -0 0 1
    outer loop
      vertex 5.45523 33.6644 3.4
      vertex 5.63805 31.925 3.4
      vertex 5.63805 34.075 3.4
    endloop
  endfacet
  facet normal 0 0 1
    outer loop
      vertex 5.45523 33.6644 3.4
      vertex 5.45523 32.3356 3.4
      vertex 5.63805 31.925 3.4
    endloop
  endfacet
  facet normal -0 0 1
    outer loop
      vertex 5.36178 33.2247 3.4
      vertex 5.45523 32.3356 3.4
      vertex 5.45523 33.6644 3.4
    endloop
  endfacet
  facet normal 0 0 1
    outer loop
      vertex 5.45523 32.3356 3.4
      vertex 5.36178 33.2247 3.4
      vertex 5.36178 32.7753 3.4
    endloop
  endfacet
  facet normal -0.499934 0.866063 0
    outer loop
      vertex 8.76374 31.2606 3.4
      vertex 8.37448 31.0359 7
      vertex 8.76374 31.2606 7
    endloop
  endfacet
  facet normal -0.499934 0.866063 0
    outer loop
      vertex 8.37448 31.0359 7
      vertex 8.76374 31.2606 3.4
      vertex 8.37448 31.0359 3.4
    endloop
  endfacet
  facet normal -0.30903 0.951052 0
    outer loop
      vertex 8.37448 31.0359 3.4
      vertex 7.94701 30.897 7
      vertex 8.37448 31.0359 7
    endloop
  endfacet
  facet normal -0.30903 0.951052 0
    outer loop
      vertex 7.94701 30.897 7
      vertex 8.37448 31.0359 3.4
      vertex 7.94701 30.897 3.4
    endloop
  endfacet
  facet normal -0.913538 0.406754 0
    outer loop
      vertex 9.36195 31.925 3.4
      vertex 9.54477 32.3356 7
      vertex 9.54477 32.3356 3.4
    endloop
  endfacet
  facet normal -0.913538 0.406754 0
    outer loop
      vertex 9.54477 32.3356 7
      vertex 9.36195 31.925 3.4
      vertex 9.36195 31.925 7
    endloop
  endfacet
  facet normal -0.978153 0.207888 0
    outer loop
      vertex 9.54477 32.3356 3.4
      vertex 9.63822 32.7753 7
      vertex 9.63822 32.7753 3.4
    endloop
  endfacet
  facet normal -0.978153 0.207888 0
    outer loop
      vertex 9.63822 32.7753 7
      vertex 9.54477 32.3356 3.4
      vertex 9.54477 32.3356 7
    endloop
  endfacet
  facet normal -0.808997 0.587813 0
    outer loop
      vertex 9.09776 31.5614 3.4
      vertex 9.36195 31.925 7
      vertex 9.36195 31.925 3.4
    endloop
  endfacet
  facet normal -0.808997 0.587813 0
    outer loop
      vertex 9.36195 31.925 7
      vertex 9.09776 31.5614 3.4
      vertex 9.09776 31.5614 7
    endloop
  endfacet
  facet normal -0.499934 -0.866063 0
    outer loop
      vertex 8.37448 34.9641 3.4
      vertex 8.76374 34.7394 7
      vertex 8.37448 34.9641 7
    endloop
  endfacet
  facet normal -0.499934 -0.866063 -0
    outer loop
      vertex 8.76374 34.7394 7
      vertex 8.37448 34.9641 3.4
      vertex 8.76374 34.7394 3.4
    endloop
  endfacet
  facet normal -0.669188 -0.743093 0
    outer loop
      vertex 8.76374 34.7394 3.4
      vertex 9.09776 34.4386 7
      vertex 8.76374 34.7394 7
    endloop
  endfacet
  facet normal -0.669188 -0.743093 -0
    outer loop
      vertex 9.09776 34.4386 7
      vertex 8.76374 34.7394 3.4
      vertex 9.09776 34.4386 3.4
    endloop
  endfacet
  facet normal -0.30903 -0.951052 0
    outer loop
      vertex 7.94701 35.103 3.4
      vertex 8.37448 34.9641 7
      vertex 7.94701 35.103 7
    endloop
  endfacet
  facet normal -0.30903 -0.951052 -0
    outer loop
      vertex 8.37448 34.9641 7
      vertex 7.94701 35.103 3.4
      vertex 8.37448 34.9641 3.4
    endloop
  endfacet
  facet normal -0.913538 -0.406754 0
    outer loop
      vertex 9.54477 33.6644 3.4
      vertex 9.36195 34.075 7
      vertex 9.36195 34.075 3.4
    endloop
  endfacet
  facet normal -0.913538 -0.406754 0
    outer loop
      vertex 9.36195 34.075 7
      vertex 9.54477 33.6644 3.4
      vertex 9.54477 33.6644 7
    endloop
  endfacet
  facet normal 0.104567 0.994518 -0
    outer loop
      vertex 7.5 30.85 3.4
      vertex 7.05299 30.897 7
      vertex 7.5 30.85 7
    endloop
  endfacet
  facet normal 0.104567 0.994518 0
    outer loop
      vertex 7.05299 30.897 7
      vertex 7.5 30.85 3.4
      vertex 7.05299 30.897 3.4
    endloop
  endfacet
  facet normal 0.978153 -0.207888 0
    outer loop
      vertex 5.36178 33.2247 7
      vertex 5.45523 33.6644 3.4
      vertex 5.45523 33.6644 7
    endloop
  endfacet
  facet normal 0.978153 -0.207888 0
    outer loop
      vertex 5.45523 33.6644 3.4
      vertex 5.36178 33.2247 7
      vertex 5.36178 33.2247 3.4
    endloop
  endfacet
  facet normal 0.978153 0.207888 0
    outer loop
      vertex 5.45523 32.3356 7
      vertex 5.36178 32.7753 3.4
      vertex 5.36178 32.7753 7
    endloop
  endfacet
  facet normal 0.978153 0.207888 0
    outer loop
      vertex 5.36178 32.7753 3.4
      vertex 5.45523 32.3356 7
      vertex 5.45523 32.3356 3.4
    endloop
  endfacet
  facet normal 0.669188 0.743093 -0
    outer loop
      vertex 6.23626 31.2606 3.4
      vertex 5.90224 31.5614 7
      vertex 6.23626 31.2606 7
    endloop
  endfacet
  facet normal 0.669188 0.743093 0
    outer loop
      vertex 5.90224 31.5614 7
      vertex 6.23626 31.2606 3.4
      vertex 5.90224 31.5614 3.4
    endloop
  endfacet
  facet normal 0.30903 0.951052 -0
    outer loop
      vertex 7.05299 30.897 3.4
      vertex 6.62552 31.0359 7
      vertex 7.05299 30.897 7
    endloop
  endfacet
  facet normal 0.30903 0.951052 0
    outer loop
      vertex 6.62552 31.0359 7
      vertex 7.05299 30.897 3.4
      vertex 6.62552 31.0359 3.4
    endloop
  endfacet
  facet normal 0.499934 0.866063 -0
    outer loop
      vertex 6.62552 31.0359 3.4
      vertex 6.23626 31.2606 7
      vertex 6.62552 31.0359 7
    endloop
  endfacet
  facet normal 0.499934 0.866063 0
    outer loop
      vertex 6.23626 31.2606 7
      vertex 6.62552 31.0359 3.4
      vertex 6.23626 31.2606 3.4
    endloop
  endfacet
  facet normal 0.499934 -0.866063 0
    outer loop
      vertex 6.23626 34.7394 3.4
      vertex 6.62552 34.9641 7
      vertex 6.23626 34.7394 7
    endloop
  endfacet
  facet normal 0.499934 -0.866063 0
    outer loop
      vertex 6.62552 34.9641 7
      vertex 6.23626 34.7394 3.4
      vertex 6.62552 34.9641 3.4
    endloop
  endfacet
  facet normal 0.104567 -0.994518 0
    outer loop
      vertex 7.05299 35.103 3.4
      vertex 7.5 35.15 7
      vertex 7.05299 35.103 7
    endloop
  endfacet
  facet normal 0.104567 -0.994518 0
    outer loop
      vertex 7.5 35.15 7
      vertex 7.05299 35.103 3.4
      vertex 7.5 35.15 3.4
    endloop
  endfacet
  facet normal 0.30903 -0.951052 0
    outer loop
      vertex 6.62552 34.9641 3.4
      vertex 7.05299 35.103 7
      vertex 6.62552 34.9641 7
    endloop
  endfacet
  facet normal 0.30903 -0.951052 0
    outer loop
      vertex 7.05299 35.103 7
      vertex 6.62552 34.9641 3.4
      vertex 7.05299 35.103 3.4
    endloop
  endfacet
  facet normal 0.808997 0.587813 0
    outer loop
      vertex 5.90224 31.5614 7
      vertex 5.63805 31.925 3.4
      vertex 5.63805 31.925 7
    endloop
  endfacet
  facet normal 0.808997 0.587813 0
    outer loop
      vertex 5.63805 31.925 3.4
      vertex 5.90224 31.5614 7
      vertex 5.90224 31.5614 3.4
    endloop
  endfacet
  facet normal 0.913538 0.406754 0
    outer loop
      vertex 5.63805 31.925 7
      vertex 5.45523 32.3356 3.4
      vertex 5.45523 32.3356 7
    endloop
  endfacet
  facet normal 0.913538 0.406754 0
    outer loop
      vertex 5.45523 32.3356 3.4
      vertex 5.63805 31.925 7
      vertex 5.63805 31.925 3.4
    endloop
  endfacet
  facet normal 1 -0 0
    outer loop
      vertex 5.36178 32.7753 7
      vertex 5.36178 33.2247 3.4
      vertex 5.36178 33.2247 7
    endloop
  endfacet
  facet normal 1 0 0
    outer loop
      vertex 5.36178 33.2247 3.4
      vertex 5.36178 32.7753 7
      vertex 5.36178 32.7753 3.4
    endloop
  endfacet
  facet normal 0.808997 -0.587813 0
    outer loop
      vertex 5.63805 34.075 7
      vertex 5.90224 34.4386 3.4
      vertex 5.90224 34.4386 7
    endloop
  endfacet
  facet normal 0.808997 -0.587813 0
    outer loop
      vertex 5.90224 34.4386 3.4
      vertex 5.63805 34.075 7
      vertex 5.63805 34.075 3.4
    endloop
  endfacet
  facet normal 0.669188 -0.743093 0
    outer loop
      vertex 5.90224 34.4386 3.4
      vertex 6.23626 34.7394 7
      vertex 5.90224 34.4386 7
    endloop
  endfacet
  facet normal 0.669188 -0.743093 0
    outer loop
      vertex 6.23626 34.7394 7
      vertex 5.90224 34.4386 3.4
      vertex 6.23626 34.7394 3.4
    endloop
  endfacet
  facet normal 0.913538 -0.406754 0
    outer loop
      vertex 5.45523 33.6644 7
      vertex 5.63805 34.075 3.4
      vertex 5.63805 34.075 7
    endloop
  endfacet
  facet normal 0.913538 -0.406754 0
    outer loop
      vertex 5.63805 34.075 3.4
      vertex 5.45523 33.6644 7
      vertex 5.45523 33.6644 3.4
    endloop
  endfacet
  facet normal -0.866022 -0.500005 0
    outer loop
      vertex 11.425 33 0
      vertex 9.4625 36.3991 3.2
      vertex 9.4625 36.3991 0
    endloop
  endfacet
  facet normal -0.866022 -0.500005 0
    outer loop
      vertex 9.4625 36.3991 3.2
      vertex 11.425 33 0
      vertex 11.425 33 3.2
    endloop
  endfacet
  facet normal 0 1 -0
    outer loop
      vertex 9.4625 29.6009 0
      vertex 5.5375 29.6009 3.2
      vertex 9.4625 29.6009 3.2
    endloop
  endfacet
  facet normal 0 1 0
    outer loop
      vertex 5.5375 29.6009 3.2
      vertex 9.4625 29.6009 0
      vertex 5.5375 29.6009 0
    endloop
  endfacet
  facet normal 0 -1 0
    outer loop
      vertex 5.5375 36.3991 0
      vertex 9.4625 36.3991 3.2
      vertex 5.5375 36.3991 3.2
    endloop
  endfacet
  facet normal 0 -1 -0
    outer loop
      vertex 9.4625 36.3991 3.2
      vertex 5.5375 36.3991 0
      vertex 9.4625 36.3991 0
    endloop
  endfacet
  facet normal 0 0 -1
    outer loop
      vertex 8 -13 0
      vertex 3 -4 0
      vertex 8 -2.5 0
    endloop
  endfacet
  facet normal -0 0 -1
    outer loop
      vertex 3 -4 0
      vertex 0 -13 0
      vertex 3 4 0
    endloop
  endfacet
  facet normal 0 0 -1
    outer loop
      vertex 0 -13 0
      vertex 3 -4 0
      vertex 8 -13 0
    endloop
  endfacet
  facet normal 0 0 -1
    outer loop
      vertex 3 4 0
      vertex 8 15 0
      vertex 8 2.5 0
    endloop
  endfacet
  facet normal -0 0 -1
    outer loop
      vertex 8 15 0
      vertex 3 4 0
      vertex 5.5375 29.6009 0
    endloop
  endfacet
  facet normal -0 0 -1
    outer loop
      vertex 5.5375 29.6009 0
      vertex 3 4 0
      vertex 3.575 33 0
    endloop
  endfacet
  facet normal 0 0 -1
    outer loop
      vertex 8 15 0
      vertex 19 20 0
      vertex 20.5 15 0
    endloop
  endfacet
  facet normal 0 0 -1
    outer loop
      vertex 19 20 0
      vertex 9.4625 29.6009 0
      vertex 11.425 33 0
    endloop
  endfacet
  facet normal -0 0 -1
    outer loop
      vertex 19 20 0
      vertex 8 15 0
      vertex 9.4625 29.6009 0
    endloop
  endfacet
  facet normal -0 0 -1
    outer loop
      vertex 9.4625 29.6009 0
      vertex 8 15 0
      vertex 5.5375 29.6009 0
    endloop
  endfacet
  facet normal 0 0 -1
    outer loop
      vertex 31 15 0
      vertex 27 20 0
      vertex 31 21.0303 0
    endloop
  endfacet
  facet normal 0 -0 -1
    outer loop
      vertex 27 20 0
      vertex 31 15 0
      vertex 25.5 15 0
    endloop
  endfacet
  facet normal 0 0 -1
    outer loop
      vertex 44 23 0
      vertex 40.425 33 0
      vertex 44 39 0
    endloop
  endfacet
  facet normal 0 0 -1
    outer loop
      vertex 44 23 0
      vertex 38.4625 29.6009 0
      vertex 40.425 33 0
    endloop
  endfacet
  facet normal 0 0 -1
    outer loop
      vertex 31 21.0303 0
      vertex 38.4625 29.6009 0
      vertex 44 23 0
    endloop
  endfacet
  facet normal -0 0 -1
    outer loop
      vertex 38.4625 29.6009 0
      vertex 31 21.0303 0
      vertex 34.5375 29.6009 0
    endloop
  endfacet
  facet normal 0 0 -1
    outer loop
      vertex 21.2132 27.7868 0
      vertex 34.5375 29.6009 0
      vertex 31 21.0303 0
    endloop
  endfacet
  facet normal -0 0 -1
    outer loop
      vertex 34.5375 29.6009 0
      vertex 21.2132 27.7868 0
      vertex 32.575 33 0
    endloop
  endfacet
  facet normal 0 0 -1
    outer loop
      vertex 21.2132 27.7868 0
      vertex 31 21.0303 0
      vertex 27 20 0
    endloop
  endfacet
  facet normal -0 0 -1
    outer loop
      vertex 32.575 33 0
      vertex 21.2132 27.7868 0
      vertex 32.4264 39 0
    endloop
  endfacet
  facet normal 0 0 -1
    outer loop
      vertex 19 20 0
      vertex 21.2132 27.7868 0
      vertex 27 20 0
    endloop
  endfacet
  facet normal 0 0 -1
    outer loop
      vertex 11.425 33 0
      vertex 21.2132 27.7868 0
      vertex 19 20 0
    endloop
  endfacet
  facet normal 0 0 -1
    outer loop
      vertex 11.425 33 0
      vertex 10 39 0
      vertex 21.2132 27.7868 0
    endloop
  endfacet
  facet normal 0 0 -1
    outer loop
      vertex 9.4625 36.3991 0
      vertex 10 39 0
      vertex 11.425 33 0
    endloop
  endfacet
  facet normal 0 0 -1
    outer loop
      vertex 5.5375 36.3991 0
      vertex 10 39 0
      vertex 9.4625 36.3991 0
    endloop
  endfacet
  facet normal 0 0 -1
    outer loop
      vertex 0 39 0
      vertex 3 4 0
      vertex 0 -13 0
    endloop
  endfacet
  facet normal 0 0 -1
    outer loop
      vertex 5.5375 36.3991 0
      vertex 0 39 0
      vertex 10 39 0
    endloop
  endfacet
  facet normal 0 0 -1
    outer loop
      vertex 3.575 33 0
      vertex 0 39 0
      vertex 5.5375 36.3991 0
    endloop
  endfacet
  facet normal 0 0 -1
    outer loop
      vertex 3 4 0
      vertex 0 39 0
      vertex 3.575 33 0
    endloop
  endfacet
  facet normal 0 0 -1
    outer loop
      vertex 38.4625 36.3991 0
      vertex 44 39 0
      vertex 40.425 33 0
    endloop
  endfacet
  facet normal 0 0 -1
    outer loop
      vertex 32.4264 39 0
      vertex 38.4625 36.3991 0
      vertex 34.5375 36.3991 0
    endloop
  endfacet
  facet normal 0 0 -1
    outer loop
      vertex 38.4625 36.3991 0
      vertex 32.4264 39 0
      vertex 44 39 0
    endloop
  endfacet
  facet normal 0 0 -1
    outer loop
      vertex 32.4264 39 0
      vertex 34.5375 36.3991 0
      vertex 32.575 33 0
    endloop
  endfacet
  facet normal -0.866022 0.500005 0
    outer loop
      vertex 9.4625 29.6009 0
      vertex 11.425 33 3.2
      vertex 11.425 33 0
    endloop
  endfacet
  facet normal -0.866022 0.500005 0
    outer loop
      vertex 11.425 33 3.2
      vertex 9.4625 29.6009 0
      vertex 9.4625 29.6009 3.2
    endloop
  endfacet
  facet normal 0 0 -1
    outer loop
      vertex 9.4625 29.6009 3.2
      vertex 9.4625 36.3991 3.2
      vertex 11.425 33 3.2
    endloop
  endfacet
  facet normal 0 0 -1
    outer loop
      vertex 5.5375 29.6009 3.2
      vertex 9.4625 36.3991 3.2
      vertex 9.4625 29.6009 3.2
    endloop
  endfacet
  facet normal 0 0 -1
    outer loop
      vertex 5.5375 29.6009 3.2
      vertex 5.5375 36.3991 3.2
      vertex 9.4625 36.3991 3.2
    endloop
  endfacet
  facet normal 0 -0 -1
    outer loop
      vertex 5.5375 36.3991 3.2
      vertex 5.5375 29.6009 3.2
      vertex 3.575 33 3.2
    endloop
  endfacet
  facet normal 0.866022 0.500005 0
    outer loop
      vertex 5.5375 29.6009 3.2
      vertex 3.575 33 0
      vertex 3.575 33 3.2
    endloop
  endfacet
  facet normal 0.866022 0.500005 0
    outer loop
      vertex 3.575 33 0
      vertex 5.5375 29.6009 3.2
      vertex 5.5375 29.6009 0
    endloop
  endfacet
  facet normal 0.866022 -0.500005 0
    outer loop
      vertex 3.575 33 3.2
      vertex 5.5375 36.3991 0
      vertex 5.5375 36.3991 3.2
    endloop
  endfacet
  facet normal 0.866022 -0.500005 0
    outer loop
      vertex 5.5375 36.3991 0
      vertex 3.575 33 3.2
      vertex 3.575 33 0
    endloop
  endfacet
  facet normal -0.499992 0.86603 0
    outer loop
      vertex 37.7637 31.2606 3.4
      vertex 37.3745 31.0359 7
      vertex 37.7637 31.2606 7
    endloop
  endfacet
  facet normal -0.499992 0.86603 0
    outer loop
      vertex 37.3745 31.0359 7
      vertex 37.7637 31.2606 3.4
      vertex 37.3745 31.0359 3.4
    endloop
  endfacet
  facet normal -0.6691 0.743172 0
    outer loop
      vertex 38.0978 31.5614 3.4
      vertex 37.7637 31.2606 7
      vertex 38.0978 31.5614 7
    endloop
  endfacet
  facet normal -0.6691 0.743172 0
    outer loop
      vertex 37.7637 31.2606 7
      vertex 38.0978 31.5614 3.4
      vertex 37.7637 31.2606 3.4
    endloop
  endfacet
  facet normal -0.978175 0.207782 0
    outer loop
      vertex 38.5448 32.3356 3.4
      vertex 38.6382 32.7753 7
      vertex 38.6382 32.7753 3.4
    endloop
  endfacet
  facet normal -0.978175 0.207782 0
    outer loop
      vertex 38.6382 32.7753 7
      vertex 38.5448 32.3356 3.4
      vertex 38.5448 32.3356 7
    endloop
  endfacet
  facet normal -0.913554 0.406716 0
    outer loop
      vertex 38.362 31.925 3.4
      vertex 38.5448 32.3356 7
      vertex 38.5448 32.3356 3.4
    endloop
  endfacet
  facet normal -0.913554 0.406716 0
    outer loop
      vertex 38.5448 32.3356 7
      vertex 38.362 31.925 3.4
      vertex 38.362 31.925 7
    endloop
  endfacet
  facet normal -0.978175 -0.207782 0
    outer loop
      vertex 38.6382 33.2247 3.4
      vertex 38.5448 33.6644 7
      vertex 38.5448 33.6644 3.4
    endloop
  endfacet
  facet normal -0.978175 -0.207782 0
    outer loop
      vertex 38.5448 33.6644 7
      vertex 38.6382 33.2247 3.4
      vertex 38.6382 33.2247 7
    endloop
  endfacet
  facet normal -0.499992 -0.86603 0
    outer loop
      vertex 37.3745 34.9641 3.4
      vertex 37.7637 34.7394 7
      vertex 37.3745 34.9641 7
    endloop
  endfacet
  facet normal -0.499992 -0.86603 -0
    outer loop
      vertex 37.7637 34.7394 7
      vertex 37.3745 34.9641 3.4
      vertex 37.7637 34.7394 3.4
    endloop
  endfacet
  facet normal 0.104569 0.994518 -0
    outer loop
      vertex 36.5 30.85 3.4
      vertex 36.053 30.897 7
      vertex 36.5 30.85 7
    endloop
  endfacet
  facet normal 0.104569 0.994518 0
    outer loop
      vertex 36.053 30.897 7
      vertex 36.5 30.85 3.4
      vertex 36.053 30.897 3.4
    endloop
  endfacet
  facet normal -1 0 0
    outer loop
      vertex 38.6382 32.7753 3.4
      vertex 38.6382 33.2247 7
      vertex 38.6382 33.2247 3.4
    endloop
  endfacet
  facet normal -1 -0 0
    outer loop
      vertex 38.6382 33.2247 7
      vertex 38.6382 32.7753 3.4
      vertex 38.6382 32.7753 7
    endloop
  endfacet
  facet normal -0.808986 0.587828 0
    outer loop
      vertex 38.0978 31.5614 3.4
      vertex 38.362 31.925 7
      vertex 38.362 31.925 3.4
    endloop
  endfacet
  facet normal -0.808986 0.587828 0
    outer loop
      vertex 38.362 31.925 7
      vertex 38.0978 31.5614 3.4
      vertex 38.0978 31.5614 7
    endloop
  endfacet
  facet normal -0.104569 -0.994518 0
    outer loop
      vertex 36.5 35.15 3.4
      vertex 36.947 35.103 7
      vertex 36.5 35.15 7
    endloop
  endfacet
  facet normal -0.104569 -0.994518 -0
    outer loop
      vertex 36.947 35.103 7
      vertex 36.5 35.15 3.4
      vertex 36.947 35.103 3.4
    endloop
  endfacet
  facet normal -0.6691 -0.743172 0
    outer loop
      vertex 37.7637 34.7394 3.4
      vertex 38.0978 34.4386 7
      vertex 37.7637 34.7394 7
    endloop
  endfacet
  facet normal -0.6691 -0.743172 -0
    outer loop
      vertex 38.0978 34.4386 7
      vertex 37.7637 34.7394 3.4
      vertex 38.0978 34.4386 3.4
    endloop
  endfacet
  facet normal -0.913554 -0.406716 0
    outer loop
      vertex 38.5448 33.6644 3.4
      vertex 38.362 34.075 7
      vertex 38.362 34.075 3.4
    endloop
  endfacet
  facet normal -0.913554 -0.406716 0
    outer loop
      vertex 38.362 34.075 7
      vertex 38.5448 33.6644 3.4
      vertex 38.5448 33.6644 7
    endloop
  endfacet
  facet normal -0.808986 -0.587828 0
    outer loop
      vertex 38.362 34.075 3.4
      vertex 38.0978 34.4386 7
      vertex 38.0978 34.4386 3.4
    endloop
  endfacet
  facet normal -0.808986 -0.587828 0
    outer loop
      vertex 38.0978 34.4386 7
      vertex 38.362 34.075 3.4
      vertex 38.362 34.075 7
    endloop
  endfacet
  facet normal -0.104569 0.994518 0
    outer loop
      vertex 36.947 30.897 3.4
      vertex 36.5 30.85 7
      vertex 36.947 30.897 7
    endloop
  endfacet
  facet normal -0.104569 0.994518 0
    outer loop
      vertex 36.5 30.85 7
      vertex 36.947 30.897 3.4
      vertex 36.5 30.85 3.4
    endloop
  endfacet
  facet normal 0.808986 -0.587828 0
    outer loop
      vertex 34.638 34.075 7
      vertex 34.9022 34.4386 3.4
      vertex 34.9022 34.4386 7
    endloop
  endfacet
  facet normal 0.808986 -0.587828 0
    outer loop
      vertex 34.9022 34.4386 3.4
      vertex 34.638 34.075 7
      vertex 34.638 34.075 3.4
    endloop
  endfacet
  facet normal 0.499992 -0.86603 0
    outer loop
      vertex 35.2363 34.7394 3.4
      vertex 35.6255 34.9641 7
      vertex 35.2363 34.7394 7
    endloop
  endfacet
  facet normal 0.499992 -0.86603 0
    outer loop
      vertex 35.6255 34.9641 7
      vertex 35.2363 34.7394 3.4
      vertex 35.6255 34.9641 3.4
    endloop
  endfacet
  facet normal 0.808986 0.587828 0
    outer loop
      vertex 34.9022 31.5614 7
      vertex 34.638 31.925 3.4
      vertex 34.638 31.925 7
    endloop
  endfacet
  facet normal 0.808986 0.587828 0
    outer loop
      vertex 34.638 31.925 3.4
      vertex 34.9022 31.5614 7
      vertex 34.9022 31.5614 3.4
    endloop
  endfacet
  facet normal -0.309011 0.951059 0
    outer loop
      vertex 37.3745 31.0359 3.4
      vertex 36.947 30.897 7
      vertex 37.3745 31.0359 7
    endloop
  endfacet
  facet normal -0.309011 0.951059 0
    outer loop
      vertex 36.947 30.897 7
      vertex 37.3745 31.0359 3.4
      vertex 36.947 30.897 3.4
    endloop
  endfacet
  facet normal -0.309011 -0.951059 0
    outer loop
      vertex 36.947 35.103 3.4
      vertex 37.3745 34.9641 7
      vertex 36.947 35.103 7
    endloop
  endfacet
  facet normal -0.309011 -0.951059 -0
    outer loop
      vertex 37.3745 34.9641 7
      vertex 36.947 35.103 3.4
      vertex 37.3745 34.9641 3.4
    endloop
  endfacet
  facet normal 0.499992 0.86603 -0
    outer loop
      vertex 35.6255 31.0359 3.4
      vertex 35.2363 31.2606 7
      vertex 35.6255 31.0359 7
    endloop
  endfacet
  facet normal 0.499992 0.86603 0
    outer loop
      vertex 35.2363 31.2606 7
      vertex 35.6255 31.0359 3.4
      vertex 35.2363 31.2606 3.4
    endloop
  endfacet
  facet normal 1 -0 0
    outer loop
      vertex 34.3618 32.7753 7
      vertex 34.3618 33.2247 3.4
      vertex 34.3618 33.2247 7
    endloop
  endfacet
  facet normal 1 0 0
    outer loop
      vertex 34.3618 33.2247 3.4
      vertex 34.3618 32.7753 7
      vertex 34.3618 32.7753 3.4
    endloop
  endfacet
  facet normal 0.104569 -0.994518 0
    outer loop
      vertex 36.053 35.103 3.4
      vertex 36.5 35.15 7
      vertex 36.053 35.103 7
    endloop
  endfacet
  facet normal 0.104569 -0.994518 0
    outer loop
      vertex 36.5 35.15 7
      vertex 36.053 35.103 3.4
      vertex 36.5 35.15 3.4
    endloop
  endfacet
  facet normal 0 0 1
    outer loop
      vertex 38.5448 33.6644 3.4
      vertex 38.6382 32.7753 3.4
      vertex 38.6382 33.2247 3.4
    endloop
  endfacet
  facet normal 0 0 1
    outer loop
      vertex 38.5448 33.6644 3.4
      vertex 38.5448 32.3356 3.4
      vertex 38.6382 32.7753 3.4
    endloop
  endfacet
  facet normal 0 0 1
    outer loop
      vertex 38.362 34.075 3.4
      vertex 38.5448 32.3356 3.4
      vertex 38.5448 33.6644 3.4
    endloop
  endfacet
  facet normal 0 0 1
    outer loop
      vertex 38.362 34.075 3.4
      vertex 38.362 31.925 3.4
      vertex 38.5448 32.3356 3.4
    endloop
  endfacet
  facet normal 0 0 1
    outer loop
      vertex 38.0978 34.4386 3.4
      vertex 38.362 31.925 3.4
      vertex 38.362 34.075 3.4
    endloop
  endfacet
  facet normal 0 0 1
    outer loop
      vertex 38.0978 34.4386 3.4
      vertex 38.0978 31.5614 3.4
      vertex 38.362 31.925 3.4
    endloop
  endfacet
  facet normal 0 0 1
    outer loop
      vertex 37.7637 34.7394 3.4
      vertex 38.0978 31.5614 3.4
      vertex 38.0978 34.4386 3.4
    endloop
  endfacet
  facet normal 0 0 1
    outer loop
      vertex 37.7637 34.7394 3.4
      vertex 37.7637 31.2606 3.4
      vertex 38.0978 31.5614 3.4
    endloop
  endfacet
  facet normal 0 0 1
    outer loop
      vertex 37.3745 34.9641 3.4
      vertex 37.7637 31.2606 3.4
      vertex 37.7637 34.7394 3.4
    endloop
  endfacet
  facet normal 0 0 1
    outer loop
      vertex 37.3745 34.9641 3.4
      vertex 37.3745 31.0359 3.4
      vertex 37.7637 31.2606 3.4
    endloop
  endfacet
  facet normal 0 0 1
    outer loop
      vertex 36.947 35.103 3.4
      vertex 37.3745 31.0359 3.4
      vertex 37.3745 34.9641 3.4
    endloop
  endfacet
  facet normal 0 0 1
    outer loop
      vertex 36.947 35.103 3.4
      vertex 36.947 30.897 3.4
      vertex 37.3745 31.0359 3.4
    endloop
  endfacet
  facet normal 0 0 1
    outer loop
      vertex 36.5 35.15 3.4
      vertex 36.947 30.897 3.4
      vertex 36.947 35.103 3.4
    endloop
  endfacet
  facet normal 0 0 1
    outer loop
      vertex 36.5 35.15 3.4
      vertex 36.5 30.85 3.4
      vertex 36.947 30.897 3.4
    endloop
  endfacet
  facet normal -0 0 1
    outer loop
      vertex 36.053 35.103 3.4
      vertex 36.5 30.85 3.4
      vertex 36.5 35.15 3.4
    endloop
  endfacet
  facet normal 0 0 1
    outer loop
      vertex 36.053 35.103 3.4
      vertex 36.053 30.897 3.4
      vertex 36.5 30.85 3.4
    endloop
  endfacet
  facet normal -0 0 1
    outer loop
      vertex 35.6255 34.9641 3.4
      vertex 36.053 30.897 3.4
      vertex 36.053 35.103 3.4
    endloop
  endfacet
  facet normal 0 0 1
    outer loop
      vertex 35.6255 34.9641 3.4
      vertex 35.6255 31.0359 3.4
      vertex 36.053 30.897 3.4
    endloop
  endfacet
  facet normal -0 0 1
    outer loop
      vertex 35.2363 34.7394 3.4
      vertex 35.6255 31.0359 3.4
      vertex 35.6255 34.9641 3.4
    endloop
  endfacet
  facet normal 0 0 1
    outer loop
      vertex 35.2363 34.7394 3.4
      vertex 35.2363 31.2606 3.4
      vertex 35.6255 31.0359 3.4
    endloop
  endfacet
  facet normal -0 0 1
    outer loop
      vertex 34.9022 34.4386 3.4
      vertex 35.2363 31.2606 3.4
      vertex 35.2363 34.7394 3.4
    endloop
  endfacet
  facet normal 0 0 1
    outer loop
      vertex 34.9022 34.4386 3.4
      vertex 34.9022 31.5614 3.4
      vertex 35.2363 31.2606 3.4
    endloop
  endfacet
  facet normal -0 0 1
    outer loop
      vertex 34.638 34.075 3.4
      vertex 34.9022 31.5614 3.4
      vertex 34.9022 34.4386 3.4
    endloop
  endfacet
  facet normal 0 0 1
    outer loop
      vertex 34.638 34.075 3.4
      vertex 34.638 31.925 3.4
      vertex 34.9022 31.5614 3.4
    endloop
  endfacet
  facet normal -0 0 1
    outer loop
      vertex 34.4552 33.6644 3.4
      vertex 34.638 31.925 3.4
      vertex 34.638 34.075 3.4
    endloop
  endfacet
  facet normal 0 0 1
    outer loop
      vertex 34.4552 33.6644 3.4
      vertex 34.4552 32.3356 3.4
      vertex 34.638 31.925 3.4
    endloop
  endfacet
  facet normal -0 0 1
    outer loop
      vertex 34.3618 33.2247 3.4
      vertex 34.4552 32.3356 3.4
      vertex 34.4552 33.6644 3.4
    endloop
  endfacet
  facet normal 0 0 1
    outer loop
      vertex 34.4552 32.3356 3.4
      vertex 34.3618 33.2247 3.4
      vertex 34.3618 32.7753 3.4
    endloop
  endfacet
  facet normal 0.6691 -0.743172 0
    outer loop
      vertex 34.9022 34.4386 3.4
      vertex 35.2363 34.7394 7
      vertex 34.9022 34.4386 7
    endloop
  endfacet
  facet normal 0.6691 -0.743172 0
    outer loop
      vertex 35.2363 34.7394 7
      vertex 34.9022 34.4386 3.4
      vertex 35.2363 34.7394 3.4
    endloop
  endfacet
  facet normal 0.978175 0.207782 0
    outer loop
      vertex 34.4552 32.3356 7
      vertex 34.3618 32.7753 3.4
      vertex 34.3618 32.7753 7
    endloop
  endfacet
  facet normal 0.978175 0.207782 0
    outer loop
      vertex 34.3618 32.7753 3.4
      vertex 34.4552 32.3356 7
      vertex 34.4552 32.3356 3.4
    endloop
  endfacet
  facet normal 0.913554 0.406716 0
    outer loop
      vertex 34.638 31.925 7
      vertex 34.4552 32.3356 3.4
      vertex 34.4552 32.3356 7
    endloop
  endfacet
  facet normal 0.913554 0.406716 0
    outer loop
      vertex 34.4552 32.3356 3.4
      vertex 34.638 31.925 7
      vertex 34.638 31.925 3.4
    endloop
  endfacet
  facet normal 0.309011 0.951059 -0
    outer loop
      vertex 36.053 30.897 3.4
      vertex 35.6255 31.0359 7
      vertex 36.053 30.897 7
    endloop
  endfacet
  facet normal 0.309011 0.951059 0
    outer loop
      vertex 35.6255 31.0359 7
      vertex 36.053 30.897 3.4
      vertex 35.6255 31.0359 3.4
    endloop
  endfacet
  facet normal 0.978175 -0.207782 0
    outer loop
      vertex 34.3618 33.2247 7
      vertex 34.4552 33.6644 3.4
      vertex 34.4552 33.6644 7
    endloop
  endfacet
  facet normal 0.978175 -0.207782 0
    outer loop
      vertex 34.4552 33.6644 3.4
      vertex 34.3618 33.2247 7
      vertex 34.3618 33.2247 3.4
    endloop
  endfacet
  facet normal 0.309011 -0.951059 0
    outer loop
      vertex 35.6255 34.9641 3.4
      vertex 36.053 35.103 7
      vertex 35.6255 34.9641 7
    endloop
  endfacet
  facet normal 0.309011 -0.951059 0
    outer loop
      vertex 36.053 35.103 7
      vertex 35.6255 34.9641 3.4
      vertex 36.053 35.103 3.4
    endloop
  endfacet
  facet normal 0.6691 0.743172 -0
    outer loop
      vertex 35.2363 31.2606 3.4
      vertex 34.9022 31.5614 7
      vertex 35.2363 31.2606 7
    endloop
  endfacet
  facet normal 0.6691 0.743172 0
    outer loop
      vertex 34.9022 31.5614 7
      vertex 35.2363 31.2606 3.4
      vertex 34.9022 31.5614 3.4
    endloop
  endfacet
  facet normal 0.913554 -0.406716 0
    outer loop
      vertex 34.4552 33.6644 7
      vertex 34.638 34.075 3.4
      vertex 34.638 34.075 7
    endloop
  endfacet
  facet normal 0.913554 -0.406716 0
    outer loop
      vertex 34.638 34.075 3.4
      vertex 34.4552 33.6644 7
      vertex 34.4552 33.6644 3.4
    endloop
  endfacet
  facet normal -0.866022 -0.500005 0
    outer loop
      vertex 40.425 33 0
      vertex 38.4625 36.3991 3.2
      vertex 38.4625 36.3991 0
    endloop
  endfacet
  facet normal -0.866022 -0.500005 0
    outer loop
      vertex 38.4625 36.3991 3.2
      vertex 40.425 33 0
      vertex 40.425 33 3.2
    endloop
  endfacet
  facet normal 0 0 -1
    outer loop
      vertex 38.4625 29.6009 3.2
      vertex 38.4625 36.3991 3.2
      vertex 40.425 33 3.2
    endloop
  endfacet
  facet normal 0 0 -1
    outer loop
      vertex 34.5375 29.6009 3.2
      vertex 38.4625 36.3991 3.2
      vertex 38.4625 29.6009 3.2
    endloop
  endfacet
  facet normal 0 0 -1
    outer loop
      vertex 34.5375 29.6009 3.2
      vertex 34.5375 36.3991 3.2
      vertex 38.4625 36.3991 3.2
    endloop
  endfacet
  facet normal 0 -0 -1
    outer loop
      vertex 34.5375 36.3991 3.2
      vertex 34.5375 29.6009 3.2
      vertex 32.575 33 3.2
    endloop
  endfacet
  facet normal 0 1 -0
    outer loop
      vertex 38.4625 29.6009 0
      vertex 34.5375 29.6009 3.2
      vertex 38.4625 29.6009 3.2
    endloop
  endfacet
  facet normal 0 1 0
    outer loop
      vertex 34.5375 29.6009 3.2
      vertex 38.4625 29.6009 0
      vertex 34.5375 29.6009 0
    endloop
  endfacet
  facet normal 0 -1 0
    outer loop
      vertex 34.5375 36.3991 0
      vertex 38.4625 36.3991 3.2
      vertex 34.5375 36.3991 3.2
    endloop
  endfacet
  facet normal 0 -1 -0
    outer loop
      vertex 38.4625 36.3991 3.2
      vertex 34.5375 36.3991 0
      vertex 38.4625 36.3991 0
    endloop
  endfacet
  facet normal -0.866022 0.500005 0
    outer loop
      vertex 38.4625 29.6009 0
      vertex 40.425 33 3.2
      vertex 40.425 33 0
    endloop
  endfacet
  facet normal -0.866022 0.500005 0
    outer loop
      vertex 40.425 33 3.2
      vertex 38.4625 29.6009 0
      vertex 38.4625 29.6009 3.2
    endloop
  endfacet
  facet normal 0.866022 0.500005 0
    outer loop
      vertex 34.5375 29.6009 3.2
      vertex 32.575 33 0
      vertex 32.575 33 3.2
    endloop
  endfacet
  facet normal 0.866022 0.500005 0
    outer loop
      vertex 32.575 33 0
      vertex 34.5375 29.6009 3.2
      vertex 34.5375 29.6009 0
    endloop
  endfacet
  facet normal 0.866022 -0.500005 0
    outer loop
      vertex 32.575 33 3.2
      vertex 34.5375 36.3991 0
      vertex 34.5375 36.3991 3.2
    endloop
  endfacet
  facet normal 0.866022 -0.500005 0
    outer loop
      vertex 34.5375 36.3991 0
      vertex 32.575 33 3.2
      vertex 32.575 33 0
    endloop
  endfacet
  facet normal 0 1 -0
    outer loop
      vertex 44 39 0
      vertex 32.4264 39 7
      vertex 44 39 7
    endloop
  endfacet
  facet normal 0 1 0
    outer loop
      vertex 32.4264 39 7
      vertex 44 39 0
      vertex 32.4264 39 0
    endloop
  endfacet
  facet normal 0 1 -0
    outer loop
      vertex 10 39 0
      vertex 0 39 7
      vertex 10 39 7
    endloop
  endfacet
  facet normal 0 1 0
    outer loop
      vertex 0 39 7
      vertex 10 39 0
      vertex 0 39 0
    endloop
  endfacet
  facet normal 0.149806 -0.988715 0
    outer loop
      vertex 31 21.0303 0
      vertex 44 23 7
      vertex 31 21.0303 7
    endloop
  endfacet
  facet normal 0.149806 -0.988715 0
    outer loop
      vertex 44 23 7
      vertex 31 21.0303 0
      vertex 44 23 0
    endloop
  endfacet
  facet normal 0 0 1
    outer loop
      vertex 21.2132 27.7868 7
      vertex 9.54477 33.6644 7
      vertex 9.63822 33.2247 7
    endloop
  endfacet
  facet normal 0 0 1
    outer loop
      vertex 10 39 7
      vertex 9.36195 34.075 7
      vertex 9.54477 33.6644 7
    endloop
  endfacet
  facet normal 0 0 1
    outer loop
      vertex 10 39 7
      vertex 9.09776 34.4386 7
      vertex 9.36195 34.075 7
    endloop
  endfacet
  facet normal 0 0 1
    outer loop
      vertex 10 39 7
      vertex 8.76374 34.7394 7
      vertex 9.09776 34.4386 7
    endloop
  endfacet
  facet normal 0 0 1
    outer loop
      vertex 10 39 7
      vertex 8.37448 34.9641 7
      vertex 8.76374 34.7394 7
    endloop
  endfacet
  facet normal 0 0 1
    outer loop
      vertex 10 39 7
      vertex 7.94701 35.103 7
      vertex 8.37448 34.9641 7
    endloop
  endfacet
  facet normal 0 0 1
    outer loop
      vertex 10 39 7
      vertex 7.5 35.15 7
      vertex 7.94701 35.103 7
    endloop
  endfacet
  facet normal 0 0 1
    outer loop
      vertex 10 39 7
      vertex 7.05299 35.103 7
      vertex 7.5 35.15 7
    endloop
  endfacet
  facet normal 0 0 1
    outer loop
      vertex 10 39 7
      vertex 6.62552 34.9641 7
      vertex 7.05299 35.103 7
    endloop
  endfacet
  facet normal -0 0 1
    outer loop
      vertex 0 39 7
      vertex 6.62552 34.9641 7
      vertex 10 39 7
    endloop
  endfacet
  facet normal 0 0 1
    outer loop
      vertex 6.62552 34.9641 7
      vertex 0 39 7
      vertex 6.23626 34.7394 7
    endloop
  endfacet
  facet normal 0 0 1
    outer loop
      vertex 5.36178 33.2247 7
      vertex 0 39 7
      vertex 5.36178 32.7753 7
    endloop
  endfacet
  facet normal 0 0 1
    outer loop
      vertex 5.45523 33.6644 7
      vertex 0 39 7
      vertex 5.36178 33.2247 7
    endloop
  endfacet
  facet normal 0 0 1
    outer loop
      vertex 5.63805 34.075 7
      vertex 0 39 7
      vertex 5.45523 33.6644 7
    endloop
  endfacet
  facet normal 0 0 1
    outer loop
      vertex 5.90224 34.4386 7
      vertex 0 39 7
      vertex 5.63805 34.075 7
    endloop
  endfacet
  facet normal 0 0 1
    outer loop
      vertex 6.23626 34.7394 7
      vertex 0 39 7
      vertex 5.90224 34.4386 7
    endloop
  endfacet
  facet normal 0 0 1
    outer loop
      vertex 34.4552 32.3356 7
      vertex 21.2132 27.7868 7
      vertex 31 23 7
    endloop
  endfacet
  facet normal -0 0 1
    outer loop
      vertex 9.54477 33.6644 7
      vertex 21.2132 27.7868 7
      vertex 10 39 7
    endloop
  endfacet
  facet normal -0 0 1
    outer loop
      vertex 9.63822 32.7753 7
      vertex 21.2132 27.7868 7
      vertex 9.63822 33.2247 7
    endloop
  endfacet
  facet normal -0 0 1
    outer loop
      vertex 9.54477 32.3356 7
      vertex 21.2132 27.7868 7
      vertex 9.63822 32.7753 7
    endloop
  endfacet
  facet normal -0 0 1
    outer loop
      vertex 9.36195 31.925 7
      vertex 21.2132 27.7868 7
      vertex 9.54477 32.3356 7
    endloop
  endfacet
  facet normal -0 0 1
    outer loop
      vertex 9.09776 31.5614 7
      vertex 21.2132 27.7868 7
      vertex 9.36195 31.925 7
    endloop
  endfacet
  facet normal -0 0 1
    outer loop
      vertex 8.76374 31.2606 7
      vertex 21.2132 27.7868 7
      vertex 9.09776 31.5614 7
    endloop
  endfacet
  facet normal -0 0 1
    outer loop
      vertex 8.37448 31.0359 7
      vertex 21.2132 27.7868 7
      vertex 8.76374 31.2606 7
    endloop
  endfacet
  facet normal 0 0 1
    outer loop
      vertex 0 23 7
      vertex 21.2132 27.7868 7
      vertex 8.37448 31.0359 7
    endloop
  endfacet
  facet normal 0 0 1
    outer loop
      vertex 0 23 7
      vertex 8.37448 31.0359 7
      vertex 7.94701 30.897 7
    endloop
  endfacet
  facet normal 0 0 1
    outer loop
      vertex 0 23 7
      vertex 7.94701 30.897 7
      vertex 7.5 30.85 7
    endloop
  endfacet
  facet normal 0 0 1
    outer loop
      vertex 0 23 7
      vertex 7.5 30.85 7
      vertex 7.05299 30.897 7
    endloop
  endfacet
  facet normal 0 0 1
    outer loop
      vertex 0 23 7
      vertex 7.05299 30.897 7
      vertex 6.62552 31.0359 7
    endloop
  endfacet
  facet normal 0 0 1
    outer loop
      vertex 0 23 7
      vertex 5.36178 32.7753 7
      vertex 0 39 7
    endloop
  endfacet
  facet normal 0 0 1
    outer loop
      vertex 5.36178 32.7753 7
      vertex 0 23 7
      vertex 5.45523 32.3356 7
    endloop
  endfacet
  facet normal 0 0 1
    outer loop
      vertex 5.45523 32.3356 7
      vertex 0 23 7
      vertex 5.63805 31.925 7
    endloop
  endfacet
  facet normal 0 0 1
    outer loop
      vertex 21.2132 27.7868 7
      vertex 0 23 7
      vertex 31 23 7
    endloop
  endfacet
  facet normal 0 0 1
    outer loop
      vertex 6.23626 31.2606 7
      vertex 0 23 7
      vertex 6.62552 31.0359 7
    endloop
  endfacet
  facet normal 0 0 1
    outer loop
      vertex 5.90224 31.5614 7
      vertex 0 23 7
      vertex 6.23626 31.2606 7
    endloop
  endfacet
  facet normal 0 0 1
    outer loop
      vertex 5.63805 31.925 7
      vertex 0 23 7
      vertex 5.90224 31.5614 7
    endloop
  endfacet
  facet normal 0 0 1
    outer loop
      vertex 38.6382 32.7753 7
      vertex 44 39 7
      vertex 38.6382 33.2247 7
    endloop
  endfacet
  facet normal 0 0 1
    outer loop
      vertex 44 39 7
      vertex 38.5448 33.6644 7
      vertex 38.6382 33.2247 7
    endloop
  endfacet
  facet normal 0 0 1
    outer loop
      vertex 44 39 7
      vertex 38.362 34.075 7
      vertex 38.5448 33.6644 7
    endloop
  endfacet
  facet normal 0 0 1
    outer loop
      vertex 44 39 7
      vertex 38.0978 34.4386 7
      vertex 38.362 34.075 7
    endloop
  endfacet
  facet normal 0 0 1
    outer loop
      vertex 44 39 7
      vertex 37.7637 34.7394 7
      vertex 38.0978 34.4386 7
    endloop
  endfacet
  facet normal 0 0 1
    outer loop
      vertex 44 39 7
      vertex 37.3745 34.9641 7
      vertex 37.7637 34.7394 7
    endloop
  endfacet
  facet normal 0 0 1
    outer loop
      vertex 44 39 7
      vertex 36.947 35.103 7
      vertex 37.3745 34.9641 7
    endloop
  endfacet
  facet normal -0 0 1
    outer loop
      vertex 32.4264 39 7
      vertex 36.947 35.103 7
      vertex 44 39 7
    endloop
  endfacet
  facet normal 0 0 1
    outer loop
      vertex 36.947 35.103 7
      vertex 32.4264 39 7
      vertex 36.5 35.15 7
    endloop
  endfacet
  facet normal 0 0 1
    outer loop
      vertex 36.5 35.15 7
      vertex 32.4264 39 7
      vertex 36.053 35.103 7
    endloop
  endfacet
  facet normal 0 0 1
    outer loop
      vertex 21.2132 27.7868 7
      vertex 34.3618 33.2247 7
      vertex 32.4264 39 7
    endloop
  endfacet
  facet normal 0 0 1
    outer loop
      vertex 34.4552 33.6644 7
      vertex 32.4264 39 7
      vertex 34.3618 33.2247 7
    endloop
  endfacet
  facet normal 0 0 1
    outer loop
      vertex 34.638 34.075 7
      vertex 32.4264 39 7
      vertex 34.4552 33.6644 7
    endloop
  endfacet
  facet normal 0 0 1
    outer loop
      vertex 34.9022 34.4386 7
      vertex 32.4264 39 7
      vertex 34.638 34.075 7
    endloop
  endfacet
  facet normal 0 0 1
    outer loop
      vertex 35.2363 34.7394 7
      vertex 32.4264 39 7
      vertex 34.9022 34.4386 7
    endloop
  endfacet
  facet normal 0 0 1
    outer loop
      vertex 35.6255 34.9641 7
      vertex 32.4264 39 7
      vertex 35.2363 34.7394 7
    endloop
  endfacet
  facet normal 0 0 1
    outer loop
      vertex 36.053 35.103 7
      vertex 32.4264 39 7
      vertex 35.6255 34.9641 7
    endloop
  endfacet
  facet normal 0 0 1
    outer loop
      vertex 44 39 7
      vertex 38.6382 32.7753 7
      vertex 44 23 7
    endloop
  endfacet
  facet normal -0 0 1
    outer loop
      vertex 38.5448 32.3356 7
      vertex 44 23 7
      vertex 38.6382 32.7753 7
    endloop
  endfacet
  facet normal -0 0 1
    outer loop
      vertex 38.362 31.925 7
      vertex 44 23 7
      vertex 38.5448 32.3356 7
    endloop
  endfacet
  facet normal -0 0 1
    outer loop
      vertex 38.0978 31.5614 7
      vertex 44 23 7
      vertex 38.362 31.925 7
    endloop
  endfacet
  facet normal -0 0 1
    outer loop
      vertex 37.7637 31.2606 7
      vertex 44 23 7
      vertex 38.0978 31.5614 7
    endloop
  endfacet
  facet normal -0 0 1
    outer loop
      vertex 37.3745 31.0359 7
      vertex 44 23 7
      vertex 37.7637 31.2606 7
    endloop
  endfacet
  facet normal -0 0 1
    outer loop
      vertex 36.947 30.897 7
      vertex 44 23 7
      vertex 37.3745 31.0359 7
    endloop
  endfacet
  facet normal 0 0 1
    outer loop
      vertex 31 23 7
      vertex 36.947 30.897 7
      vertex 36.5 30.85 7
    endloop
  endfacet
  facet normal 0 0 1
    outer loop
      vertex 31 23 7
      vertex 36.5 30.85 7
      vertex 36.053 30.897 7
    endloop
  endfacet
  facet normal 0 0 1
    outer loop
      vertex 31 23 7
      vertex 36.053 30.897 7
      vertex 35.6255 31.0359 7
    endloop
  endfacet
  facet normal 0 0 1
    outer loop
      vertex 31 23 7
      vertex 35.6255 31.0359 7
      vertex 35.2363 31.2606 7
    endloop
  endfacet
  facet normal 0 0 1
    outer loop
      vertex 31 23 7
      vertex 35.2363 31.2606 7
      vertex 34.9022 31.5614 7
    endloop
  endfacet
  facet normal 0 0 1
    outer loop
      vertex 34.3618 33.2247 7
      vertex 21.2132 27.7868 7
      vertex 34.3618 32.7753 7
    endloop
  endfacet
  facet normal 0 0 1
    outer loop
      vertex 21.2132 27.7868 7
      vertex 34.4552 32.3356 7
      vertex 34.3618 32.7753 7
    endloop
  endfacet
  facet normal 0 0 1
    outer loop
      vertex 31 23 7
      vertex 34.638 31.925 7
      vertex 34.4552 32.3356 7
    endloop
  endfacet
  facet normal 0 0 1
    outer loop
      vertex 31 23 7
      vertex 34.9022 31.5614 7
      vertex 34.638 31.925 7
    endloop
  endfacet
  facet normal 0 0 1
    outer loop
      vertex 36.947 30.897 7
      vertex 31 23 7
      vertex 44 23 7
    endloop
  endfacet
  facet normal 0 0 1
    outer loop
      vertex 44 23 7
      vertex 31 23 7
      vertex 31 21.0303 7
    endloop
  endfacet
  facet normal 1 -0 0
    outer loop
      vertex 44 23 7
      vertex 44 39 0
      vertex 44 39 7
    endloop
  endfacet
  facet normal 1 0 0
    outer loop
      vertex 44 39 0
      vertex 44 23 7
      vertex 44 23 0
    endloop
  endfacet
  facet normal -1 0 0
    outer loop
      vertex 0 39 0
      vertex 0 23 7
      vertex 0 39 7
    endloop
  endfacet
  facet normal -1 0 0
    outer loop
      vertex 0 -13 0
      vertex 0 23 7
      vertex 0 39 0
    endloop
  endfacet
  facet normal -1 0 0
    outer loop
      vertex 0 -13 20
      vertex 0 23 7
      vertex 0 -13 0
    endloop
  endfacet
  facet normal -1 0 0
    outer loop
      vertex 0 23 7
      vertex 0 -13 20
      vertex 0 23 20
    endloop
  endfacet
  facet normal -0.707107 0.707107 0
    outer loop
      vertex 21.2132 27.7868 0
      vertex 32.4264 39 7
      vertex 32.4264 39 0
    endloop
  endfacet
  facet normal -0.707107 0.707107 0
    outer loop
      vertex 32.4264 39 7
      vertex 21.2132 27.7868 0
      vertex 21.2132 27.7868 7
    endloop
  endfacet
  facet normal 0.707107 0.707107 0
    outer loop
      vertex 21.2132 27.7868 7
      vertex 10 39 0
      vertex 10 39 7
    endloop
  endfacet
  facet normal 0.707107 0.707107 0
    outer loop
      vertex 10 39 0
      vertex 21.2132 27.7868 7
      vertex 21.2132 27.7868 0
    endloop
  endfacet
  facet normal 0 0 1
    outer loop
      vertex 31 23 20
      vertex 27 20 20
      vertex 31 15 20
    endloop
  endfacet
  facet normal 0 0 1
    outer loop
      vertex 31 23 20
      vertex 19 20 20
      vertex 27 20 20
    endloop
  endfacet
  facet normal 0 0 1
    outer loop
      vertex 8 15 20
      vertex 3 4 20
      vertex 8 2.5 20
    endloop
  endfacet
  facet normal 0 0 1
    outer loop
      vertex 0 -13 20
      vertex 3 4 20
      vertex 0 23 20
    endloop
  endfacet
  facet normal 0 0 1
    outer loop
      vertex 8 15 20
      vertex 0 23 20
      vertex 3 4 20
    endloop
  endfacet
  facet normal 0 0 1
    outer loop
      vertex 19 20 20
      vertex 0 23 20
      vertex 8 15 20
    endloop
  endfacet
  facet normal -0 0 1
    outer loop
      vertex 0 23 20
      vertex 19 20 20
      vertex 31 23 20
    endloop
  endfacet
  facet normal 0 0 1
    outer loop
      vertex 31 15 20
      vertex 27 20 20
      vertex 25.5 15 20
    endloop
  endfacet
  facet normal 0 0 1
    outer loop
      vertex 20.5 15 20
      vertex 19 20 20
      vertex 8 15 20
    endloop
  endfacet
  facet normal -0 0 1
    outer loop
      vertex 3 -4 20
      vertex 8 -13 20
      vertex 8 -2.5 20
    endloop
  endfacet
  facet normal 0 0 1
    outer loop
      vertex 3 -4 20
      vertex 0 -13 20
      vertex 8 -13 20
    endloop
  endfacet
  facet normal 0 0 1
    outer loop
      vertex 3 4 20
      vertex 0 -13 20
      vertex 3 -4 20
    endloop
  endfacet
  facet normal 1 -0 0
    outer loop
      vertex 8 -13 20
      vertex 8 -2.5 0
      vertex 8 -2.5 20
    endloop
  endfacet
  facet normal 1 0 0
    outer loop
      vertex 8 -2.5 0
      vertex 8 -13 20
      vertex 8 -13 0
    endloop
  endfacet
  facet normal 1 -0 0
    outer loop
      vertex 8 2.5 20
      vertex 8 15 0
      vertex 8 15 20
    endloop
  endfacet
  facet normal 1 0 0
    outer loop
      vertex 8 15 0
      vertex 8 2.5 20
      vertex 8 2.5 0
    endloop
  endfacet
  facet normal 0 1 -0
    outer loop
      vertex 31 23 7
      vertex 0 23 20
      vertex 31 23 20
    endloop
  endfacet
  facet normal 0 1 0
    outer loop
      vertex 0 23 20
      vertex 31 23 7
      vertex 0 23 7
    endloop
  endfacet
  facet normal 0 -1 0
    outer loop
      vertex 0 -13 0
      vertex 8 -13 20
      vertex 0 -13 20
    endloop
  endfacet
  facet normal 0 -1 -0
    outer loop
      vertex 8 -13 20
      vertex 0 -13 0
      vertex 8 -13 0
    endloop
  endfacet
  facet normal 1 0 0
    outer loop
      vertex 31 23 20
      vertex 31 21.0303 7
      vertex 31 23 7
    endloop
  endfacet
  facet normal 1 -0 0
    outer loop
      vertex 31 15 20
      vertex 31 21.0303 7
      vertex 31 23 20
    endloop
  endfacet
  facet normal 1 0 0
    outer loop
      vertex 31 15 0
      vertex 31 21.0303 7
      vertex 31 15 20
    endloop
  endfacet
  facet normal 1 0 0
    outer loop
      vertex 31 21.0303 7
      vertex 31 15 0
      vertex 31 21.0303 0
    endloop
  endfacet
  facet normal 0 -1 0
    outer loop
      vertex 25.5 15 0
      vertex 31 15 20
      vertex 25.5 15 20
    endloop
  endfacet
  facet normal 0 -1 -0
    outer loop
      vertex 31 15 20
      vertex 25.5 15 0
      vertex 31 15 0
    endloop
  endfacet
  facet normal 0 -1 0
    outer loop
      vertex 8 15 0
      vertex 20.5 15 20
      vertex 8 15 20
    endloop
  endfacet
  facet normal 0 -1 -0
    outer loop
      vertex 20.5 15 20
      vertex 8 15 0
      vertex 20.5 15 0
    endloop
  endfacet
  facet normal -0.287348 0.957826 0
    outer loop
      vertex 8 -2.5 0
      vertex 3 -4 20
      vertex 8 -2.5 20
    endloop
  endfacet
  facet normal -0.287348 0.957826 0
    outer loop
      vertex 3 -4 20
      vertex 8 -2.5 0
      vertex 3 -4 0
    endloop
  endfacet
  facet normal -0.287348 -0.957826 0
    outer loop
      vertex 3 4 0
      vertex 8 2.5 20
      vertex 3 4 20
    endloop
  endfacet
  facet normal -0.287348 -0.957826 -0
    outer loop
      vertex 8 2.5 20
      vertex 3 4 0
      vertex 8 2.5 0
    endloop
  endfacet
  facet normal 1 -0 0
    outer loop
      vertex 3 -4 20
      vertex 3 4 0
      vertex 3 4 20
    endloop
  endfacet
  facet normal 1 0 0
    outer loop
      vertex 3 4 0
      vertex 3 -4 20
      vertex 3 -4 0
    endloop
  endfacet
  facet normal 0.957826 0.287348 0
    outer loop
      vertex 20.5 15 20
      vertex 19 20 0
      vertex 19 20 20
    endloop
  endfacet
  facet normal 0.957826 0.287348 0
    outer loop
      vertex 19 20 0
      vertex 20.5 15 20
      vertex 20.5 15 0
    endloop
  endfacet
  facet normal -0.957826 0.287348 0
    outer loop
      vertex 25.5 15 0
      vertex 27 20 20
      vertex 27 20 0
    endloop
  endfacet
  facet normal -0.957826 0.287348 0
    outer loop
      vertex 27 20 20
      vertex 25.5 15 0
      vertex 25.5 15 20
    endloop
  endfacet
  facet normal 0 -1 0
    outer loop
      vertex 19 20 0
      vertex 27 20 20
      vertex 19 20 20
    endloop
  endfacet
  facet normal 0 -1 -0
    outer loop
      vertex 27 20 20
      vertex 19 20 0
      vertex 27 20 0
    endloop
  endfacet
endsolid OpenSCAD_Model
