solid OpenSCAD_Model
  facet normal -0.8910053913118172 0.45399272312810846 0
    outer loop
      vertex -19.03934669494629 6.305212497711182 12.5
      vertex -18.89905548095703 6.58054780960083 6.100943565368652
      vertex -19.03934669494629 6.305212497711182 5.960653305053711
    endloop
  endfacet
  facet normal -0.8910053913118172 0.45399272312810846 0
    outer loop
      vertex -18.89905548095703 6.58054780960083 6.100943565368652
      vertex -19.03934669494629 6.305212497711182 12.5
      vertex -18.89905548095703 6.58054780960083 12.5
    endloop
  endfacet
  facet normal 0.8910066634746459 -0.45399022637473074 0
    outer loop
      vertex -0.2009429931640625 -18.68054962158203 12.5
      vertex -0.06065177917480469 -18.40521240234375 -12.5
      vertex -0.06065177917480469 -18.40521240234375 12.5
    endloop
  endfacet
  facet normal 0.8910066634746459 -0.45399022637473074 0
    outer loop
      vertex -0.06065177917480469 -18.40521240234375 -12.5
      vertex -0.2009429931640625 -18.68054962158203 12.5
      vertex -0.2009429931640625 -18.68054962158203 -12.5
    endloop
  endfacet
  facet normal 0.45399147474843243 -0.8910060273958552 0
    outer loop
      vertex -0.6947870254516602 -19.039348602294922 -12.5
      vertex -0.4194507598876953 -18.899057388305664 12.5
      vertex -0.6947870254516602 -19.039348602294922 12.5
    endloop
  endfacet
  facet normal 0.45399147474843243 -0.8910060273958552 0
    outer loop
      vertex -0.4194507598876953 -18.899057388305664 12.5
      vertex -0.6947870254516602 -19.039348602294922 -12.5
      vertex -0.4194507598876953 -18.899057388305664 -12.5
    endloop
  endfacet
  facet normal 0.7071067811865475 -0.7071067811865475 0
    outer loop
      vertex -0.4194507598876953 -18.899057388305664 12.5
      vertex -0.2009429931640625 -18.68054962158203 -12.5
      vertex -0.2009429931640625 -18.68054962158203 12.5
    endloop
  endfacet
  facet normal 0.7071067811865475 -0.7071067811865475 0
    outer loop
      vertex -0.2009429931640625 -18.68054962158203 -12.5
      vertex -0.4194507598876953 -18.899057388305664 12.5
      vertex -0.4194507598876953 -18.899057388305664 -12.5
    endloop
  endfacet
  facet normal -0.987687958120447 0.15643687987128274 0
    outer loop
      vertex -19.087688446044922 5.999999523162842 12.5
      vertex -19.03934669494629 6.305212497711182 5.960653305053711
      vertex -19.087688446044922 5.999999523162842 5.9123125076293945
    endloop
  endfacet
  facet normal -0.987687958120447 0.15643687987128274 0
    outer loop
      vertex -19.03934669494629 6.305212497711182 5.960653305053711
      vertex -19.087688446044922 5.999999523162842 12.5
      vertex -19.03934669494629 6.305212497711182 12.5
    endloop
  endfacet
  facet normal 1 0 0
    outer loop
      vertex -0.012310981750488281 -18.100000381469727 12.5
      vertex -0.012310981750488281 -10.199999809265137 -12.5
      vertex -0.012310981750488281 -10.199999809265137 12.5
    endloop
  endfacet
  facet normal 1 0 0
    outer loop
      vertex -0.012310981750488281 -10.199999809265137 -12.5
      vertex -0.012310981750488281 -18.100000381469727 12.5
      vertex -0.012310981750488281 -18.100000381469727 -12.5
    endloop
  endfacet
  facet normal -0.7071067811865475 -0.7071067811865475 0
    outer loop
      vertex -18.6805477142334 -18.899057388305664 -12.5
      vertex -18.89905548095703 -18.68054962158203 12.5
      vertex -18.89905548095703 -18.68054962158203 -12.5
    endloop
  endfacet
  facet normal -0.7071067811865475 -0.7071067811865475 0
    outer loop
      vertex -18.89905548095703 -18.68054962158203 12.5
      vertex -18.6805477142334 -18.899057388305664 -12.5
      vertex -18.6805477142334 -18.899057388305664 12.5
    endloop
  endfacet
  facet normal -0.7071083242606883 0.7071052381090394 0
    outer loop
      vertex -18.89905548095703 6.58054780960083 12.5
      vertex -18.6805477142334 6.799056529998779 6.319452285766602
      vertex -18.89905548095703 6.58054780960083 6.100943565368652
    endloop
  endfacet
  facet normal -0.7071083242606883 0.7071052381090394 0
    outer loop
      vertex -18.6805477142334 6.799056529998779 6.319452285766602
      vertex -18.89905548095703 6.58054780960083 12.5
      vertex -18.6805477142334 6.799056529998779 12.5
    endloop
  endfacet
  facet normal -1 0 0
    outer loop
      vertex -19.087688446044922 -8 -12.5
      vertex -19.087688446044922 -18.100000381469727 -12.5
      vertex -19.087688446044922 -8 5.9123125076293945
    endloop
  endfacet
  facet normal -1 0 0
    outer loop
      vertex -19.087688446044922 4 -8.5
      vertex -19.087688446044922 -5 -8.5
      vertex -19.087688446044922 4 5.9123125076293945
    endloop
  endfacet
  facet normal -1 0 0
    outer loop
      vertex -19.087688446044922 4 5.9123125076293945
      vertex -19.087688446044922 5.999999523162842 12.5
      vertex -19.087688446044922 5.999999523162842 5.9123125076293945
    endloop
  endfacet
  facet normal -1 0 0
    outer loop
      vertex -19.087688446044922 -5 5.9123125076293945
      vertex -19.087688446044922 4 5.9123125076293945
      vertex -19.087688446044922 -5 -8.5
    endloop
  endfacet
  facet normal -1 0 0
    outer loop
      vertex -19.087688446044922 4 5.9123125076293945
      vertex -19.087688446044922 -5 5.9123125076293945
      vertex -19.087688446044922 5.999999523162842 12.5
    endloop
  endfacet
  facet normal -1 0 0
    outer loop
      vertex -19.087688446044922 -18.100000381469727 12.5
      vertex -19.087688446044922 -5 5.9123125076293945
      vertex -19.087688446044922 -8 5.9123125076293945
    endloop
  endfacet
  facet normal -1 0 0
    outer loop
      vertex -19.087688446044922 -5 5.9123125076293945
      vertex -19.087688446044922 -18.100000381469727 12.5
      vertex -19.087688446044922 5.999999523162842 12.5
    endloop
  endfacet
  facet normal -1 0 0
    outer loop
      vertex -19.087688446044922 -18.100000381469727 12.5
      vertex -19.087688446044922 -8 5.9123125076293945
      vertex -19.087688446044922 -18.100000381469727 -12.5
    endloop
  endfacet
  facet normal -0.45399272312810846 -0.8910053913118173 0
    outer loop
      vertex -18.6805477142334 -18.899057388305664 -12.5
      vertex -18.40521240234375 -19.039348602294922 12.5
      vertex -18.6805477142334 -18.899057388305664 12.5
    endloop
  endfacet
  facet normal -0.45399272312810846 -0.8910053913118173 0
    outer loop
      vertex -18.40521240234375 -19.039348602294922 12.5
      vertex -18.6805477142334 -18.899057388305664 -12.5
      vertex -18.40521240234375 -19.039348602294922 -12.5
    endloop
  endfacet
  facet normal 0 1 0
    outer loop
      vertex -16.5 6.987687587738037 8.5
      vertex -15.049999237060547 6.987687587738037 12.5
      vertex -15.5 6.987687587738037 8.5
    endloop
  endfacet
  facet normal 0 1 0
    outer loop
      vertex -15.049999237060547 6.987687587738037 -12.5
      vertex -15.5 6.987687587738037 8.5
      vertex -15.049999237060547 6.987687587738037 12.5
    endloop
  endfacet
  facet normal 0 1 0
    outer loop
      vertex -15.5 6.987687587738037 8.5
      vertex -15.049999237060547 6.987687587738037 -12.5
      vertex -15.5 6.987687587738037 -12.5
    endloop
  endfacet
  facet normal 0 1 0
    outer loop
      vertex -15.049999237060547 6.987687587738037 12.5
      vertex -16.5 6.987687587738037 8.5
      vertex -18.099998474121094 6.987687587738037 12.5
    endloop
  endfacet
  facet normal 0 1 0
    outer loop
      vertex -18.099998474121094 6.987687587738037 12.5
      vertex -16.5 6.987687587738037 8.5
      vertex -18.099998474121094 6.987687587738037 6.90000057220459
    endloop
  endfacet
  facet normal -0.8910066634746459 -0.45399022637473074 0
    outer loop
      vertex -18.89905548095703 -18.68054962158203 -12.5
      vertex -19.03934669494629 -18.40521240234375 12.5
      vertex -19.03934669494629 -18.40521240234375 -12.5
    endloop
  endfacet
  facet normal -0.8910066634746459 -0.45399022637473074 0
    outer loop
      vertex -19.03934669494629 -18.40521240234375 12.5
      vertex -18.89905548095703 -18.68054962158203 -12.5
      vertex -18.89905548095703 -18.68054962158203 12.5
    endloop
  endfacet
  facet normal -0.9876878825943346 -0.1564373567160988 0
    outer loop
      vertex -19.03934669494629 -18.40521240234375 -12.5
      vertex -19.087688446044922 -18.100000381469727 12.5
      vertex -19.087688446044922 -18.100000381469727 -12.5
    endloop
  endfacet
  facet normal -0.9876878825943346 -0.1564373567160988 0
    outer loop
      vertex -19.087688446044922 -18.100000381469727 12.5
      vertex -19.03934669494629 -18.40521240234375 -12.5
      vertex -19.03934669494629 -18.40521240234375 12.5
    endloop
  endfacet
  facet normal 0.15643085861660655 -0.9876889117897757 0
    outer loop
      vertex -1 -19.087688446044922 -12.5
      vertex -0.6947870254516602 -19.039348602294922 12.5
      vertex -1 -19.087688446044922 12.5
    endloop
  endfacet
  facet normal 0.15643085861660655 -0.9876889117897757 0
    outer loop
      vertex -0.6947870254516602 -19.039348602294922 12.5
      vertex -1 -19.087688446044922 -12.5
      vertex -0.6947870254516602 -19.039348602294922 -12.5
    endloop
  endfacet
  facet normal -0.15643339241289575 0.9876885104820209 0
    outer loop
      vertex -18.099998474121094 6.987687587738037 6.90000057220459
      vertex -18.40521240234375 6.939346790313721 12.5
      vertex -18.099998474121094 6.987687587738037 12.5
    endloop
  endfacet
  facet normal -0.15643339241289575 0.9876885104820209 0
    outer loop
      vertex -18.40521240234375 6.939346790313721 12.5
      vertex -18.099998474121094 6.987687587738037 6.90000057220459
      vertex -18.40521240234375 6.939346790313721 6.59478759765625
    endloop
  endfacet
  facet normal -0.45399027304914386 0.8910066396928611 0
    outer loop
      vertex -18.40521240234375 6.939346790313721 6.59478759765625
      vertex -18.6805477142334 6.799056529998779 12.5
      vertex -18.40521240234375 6.939346790313721 12.5
    endloop
  endfacet
  facet normal -0.45399027304914386 0.891006639692861 0
    outer loop
      vertex -18.6805477142334 6.799056529998779 12.5
      vertex -18.40521240234375 6.939346790313721 6.59478759765625
      vertex -18.6805477142334 6.799056529998779 6.319452285766602
    endloop
  endfacet
  facet normal 0.9876883594362276 -0.15643434608222442 0
    outer loop
      vertex -0.06065177917480469 -18.40521240234375 12.5
      vertex -0.012310981750488281 -18.100000381469727 -12.5
      vertex -0.012310981750488281 -18.100000381469727 12.5
    endloop
  endfacet
  facet normal 0.9876883594362276 -0.15643434608222442 0
    outer loop
      vertex -0.012310981750488281 -18.100000381469727 -12.5
      vertex -0.06065177917480469 -18.40521240234375 12.5
      vertex -0.06065177917480469 -18.40521240234375 -12.5
    endloop
  endfacet
  facet normal -0.1564303817920939 -0.9876889873094564 0
    outer loop
      vertex -18.40521240234375 -19.039348602294922 -12.5
      vertex -18.099998474121094 -19.087688446044922 12.5
      vertex -18.40521240234375 -19.039348602294922 12.5
    endloop
  endfacet
  facet normal -0.1564303817920939 -0.9876889873094564 0
    outer loop
      vertex -18.099998474121094 -19.087688446044922 12.5
      vertex -18.40521240234375 -19.039348602294922 -12.5
      vertex -18.099998474121094 -19.087688446044922 -12.5
    endloop
  endfacet
  facet normal 0 -1 0
    outer loop
      vertex -18.099998474121094 -19.087688446044922 -12.5
      vertex -1 -19.087688446044922 12.5
      vertex -18.099998474121094 -19.087688446044922 12.5
    endloop
  endfacet
  facet normal 0 -1 0
    outer loop
      vertex -1 -19.087688446044922 12.5
      vertex -18.099998474121094 -19.087688446044922 -12.5
      vertex -1 -19.087688446044922 -12.5
    endloop
  endfacet
  facet normal 0 0 1
    outer loop
      vertex -18.099998474121094 6.987687587738037 12.5
      vertex -15.049999237060547 2.515624761581421 12.5
      vertex -15.049999237060547 6.987687587738037 12.5
    endloop
  endfacet
  facet normal 0 0 1
    outer loop
      vertex -15.049999237060547 2.515624761581421 12.5
      vertex -19.087688446044922 5.999999523162842 12.5
      vertex -15.049999237060547 0 12.5
    endloop
  endfacet
  facet normal 0 0 1
    outer loop
      vertex -15.049999237060547 2.515624761581421 12.5
      vertex -18.099998474121094 6.987687587738037 12.5
      vertex -19.087688446044922 5.999999523162842 12.5
    endloop
  endfacet
  facet normal 0 0 1
    outer loop
      vertex -10.881831169128418 3.7869277000427246 12.5
      vertex -10.199999809265137 2.84302020072937 12.5
      vertex -10.33865737915039 3.1722984313964844 12.5
    endloop
  endfacet
  facet normal 0 0 1
    outer loop
      vertex -10.199999809265137 2.84302020072937 12.5
      vertex -10.881831169128418 3.7869277000427246 12.5
      vertex -15 2.5 12.5
    endloop
  endfacet
  facet normal 0 0 1
    outer loop
      vertex -10.199999809265137 2.84302020072937 12.5
      vertex -15 2.5 12.5
      vertex -10.199999809265137 0 12.5
    endloop
  endfacet
  facet normal 0 0 1
    outer loop
      vertex -15.049999237060547 0 12.5
      vertex -15 2.5 12.5
      vertex -15.049999237060547 2.515624761581421 12.5
    endloop
  endfacet
  facet normal 0 0 1
    outer loop
      vertex -15 2.5 12.5
      vertex -15.049999237060547 0 12.5
      vertex -10.199999809265137 0 12.5
    endloop
  endfacet
  facet normal 0 0 1
    outer loop
      vertex -2.5 -15 12.5
      vertex -0.012310981750488281 -18.100000381469727 12.5
      vertex -0.012310981750488281 -10.199999809265137 12.5
    endloop
  endfacet
  facet normal 0 0 1
    outer loop
      vertex -2.515624761581421 -15.049999237060547 12.5
      vertex -0.012310981750488281 -18.100000381469727 12.5
      vertex -2.5 -15 12.5
    endloop
  endfacet
  facet normal 0 0 1
    outer loop
      vertex -1 -19.087688446044922 12.5
      vertex -0.012310981750488281 -18.100000381469727 12.5
      vertex -2.515624761581421 -15.049999237060547 12.5
    endloop
  endfacet
  facet normal 0 0 1
    outer loop
      vertex -0.012310981750488281 -18.100000381469727 12.5
      vertex -1 -19.087688446044922 12.5
      vertex -0.06065177917480469 -18.40521240234375 12.5
    endloop
  endfacet
  facet normal 0 0 1
    outer loop
      vertex -0.06065177917480469 -18.40521240234375 12.5
      vertex -1 -19.087688446044922 12.5
      vertex -0.2009429931640625 -18.68054962158203 12.5
    endloop
  endfacet
  facet normal 0 0 1
    outer loop
      vertex -0.2009429931640625 -18.68054962158203 12.5
      vertex -1 -19.087688446044922 12.5
      vertex -0.4194507598876953 -18.899057388305664 12.5
    endloop
  endfacet
  facet normal 0 0 1
    outer loop
      vertex -2.84302020072937 -10.199999809265137 12.5
      vertex -2.5 -15 12.5
      vertex -0.012310981750488281 -10.199999809265137 12.5
    endloop
  endfacet
  facet normal 0 0 1
    outer loop
      vertex -3.7869277000427246 -10.881831169128418 12.5
      vertex -2.84302020072937 -10.199999809265137 12.5
      vertex -3.1722984313964844 -10.33865737915039 12.5
    endloop
  endfacet
  facet normal 0 0 1
    outer loop
      vertex -2.84302020072937 -10.199999809265137 12.5
      vertex -3.7869277000427246 -10.881831169128418 12.5
      vertex -2.5 -15 12.5
    endloop
  endfacet
  facet normal 0 0 1
    outer loop
      vertex -0.4194507598876953 -18.899057388305664 12.5
      vertex -1 -19.087688446044922 12.5
      vertex -0.6947870254516602 -19.039348602294922 12.5
    endloop
  endfacet
  facet normal 0 0 1
    outer loop
      vertex -15.049999237060547 -15.049999237060547 12.5
      vertex -1 -19.087688446044922 12.5
      vertex -2.515624761581421 -15.049999237060547 12.5
    endloop
  endfacet
  facet normal 0 0 1
    outer loop
      vertex -15.049999237060547 -15.049999237060547 12.5
      vertex -18.099998474121094 -19.087688446044922 12.5
      vertex -1 -19.087688446044922 12.5
    endloop
  endfacet
  facet normal 0 0 1
    outer loop
      vertex -19.087688446044922 -18.100000381469727 12.5
      vertex -15.049999237060547 0 12.5
      vertex -19.087688446044922 5.999999523162842 12.5
    endloop
  endfacet
  facet normal 0 0 1
    outer loop
      vertex -19.087688446044922 5.999999523162842 12.5
      vertex -18.099998474121094 6.987687587738037 12.5
      vertex -18.40521240234375 6.939346790313721 12.5
    endloop
  endfacet
  facet normal 0 0 1
    outer loop
      vertex -15.049999237060547 0 12.5
      vertex -19.087688446044922 -18.100000381469727 12.5
      vertex -15.049999237060547 -15.049999237060547 12.5
    endloop
  endfacet
  facet normal 0 0 1
    outer loop
      vertex -19.087688446044922 5.999999523162842 12.5
      vertex -18.40521240234375 6.939346790313721 12.5
      vertex -18.6805477142334 6.799056529998779 12.5
    endloop
  endfacet
  facet normal 0 0 1
    outer loop
      vertex -15.049999237060547 -15.049999237060547 12.5
      vertex -19.087688446044922 -18.100000381469727 12.5
      vertex -18.099998474121094 -19.087688446044922 12.5
    endloop
  endfacet
  facet normal 0 0 1
    outer loop
      vertex -19.087688446044922 5.999999523162842 12.5
      vertex -18.6805477142334 6.799056529998779 12.5
      vertex -18.89905548095703 6.58054780960083 12.5
    endloop
  endfacet
  facet normal 0 0 1
    outer loop
      vertex -18.099998474121094 -19.087688446044922 12.5
      vertex -19.087688446044922 -18.100000381469727 12.5
      vertex -18.40521240234375 -19.039348602294922 12.5
    endloop
  endfacet
  facet normal 0 0 1
    outer loop
      vertex -19.087688446044922 5.999999523162842 12.5
      vertex -18.89905548095703 6.58054780960083 12.5
      vertex -19.03934669494629 6.305212497711182 12.5
    endloop
  endfacet
  facet normal 0 0 1
    outer loop
      vertex -18.40521240234375 -19.039348602294922 12.5
      vertex -19.087688446044922 -18.100000381469727 12.5
      vertex -18.6805477142334 -18.899057388305664 12.5
    endloop
  endfacet
  facet normal 0 0 1
    outer loop
      vertex -18.6805477142334 -18.899057388305664 12.5
      vertex -19.087688446044922 -18.100000381469727 12.5
      vertex -18.89905548095703 -18.68054962158203 12.5
    endloop
  endfacet
  facet normal 0 0 1
    outer loop
      vertex -18.89905548095703 -18.68054962158203 12.5
      vertex -19.087688446044922 -18.100000381469727 12.5
      vertex -19.03934669494629 -18.40521240234375 12.5
    endloop
  endfacet
  facet normal 0 0 -1
    outer loop
      vertex -0.012310981750488281 -18.100000381469727 -12.5
      vertex -2.515624761581421 -15.049999237060547 -12.5
      vertex -2.5 -15 -12.5
    endloop
  endfacet
  facet normal 0 0 -1
    outer loop
      vertex -1 -19.087688446044922 -12.5
      vertex -15.049999237060547 -15.049999237060547 -12.5
      vertex -2.515624761581421 -15.049999237060547 -12.5
    endloop
  endfacet
  facet normal 0 0 -1
    outer loop
      vertex -19.087688446044922 -8 -12.5
      vertex -15.049999237060547 0 -12.5
      vertex -15.049999237060547 -15.049999237060547 -12.5
    endloop
  endfacet
  facet normal 0 0 -1
    outer loop
      vertex -35.5 7 -12.5
      vertex -15.049999237060547 0 -12.5
      vertex -19.087688446044922 -8 -12.5
    endloop
  endfacet
  facet normal 0 0 -1
    outer loop
      vertex -15.049999237060547 0 -12.5
      vertex -35.5 7 -12.5
      vertex -15.049999237060547 2.515624761581421 -12.5
    endloop
  endfacet
  facet normal 0 0 -1
    outer loop
      vertex -18.099998474121094 -19.087688446044922 -12.5
      vertex -15.049999237060547 -15.049999237060547 -12.5
      vertex -1 -19.087688446044922 -12.5
    endloop
  endfacet
  facet normal 0 0 -1
    outer loop
      vertex -19.087688446044922 -18.100000381469727 -12.5
      vertex -15.049999237060547 -15.049999237060547 -12.5
      vertex -18.099998474121094 -19.087688446044922 -12.5
    endloop
  endfacet
  facet normal 0 0 -1
    outer loop
      vertex -15.049999237060547 2.515624761581421 -12.5
      vertex -15.5 6.987687587738037 -12.5
      vertex -15.049999237060547 6.987687587738037 -12.5
    endloop
  endfacet
  facet normal 0 0 -1
    outer loop
      vertex -19.087688446044922 -18.100000381469727 -12.5
      vertex -18.099998474121094 -19.087688446044922 -12.5
      vertex -18.40521240234375 -19.039348602294922 -12.5
    endloop
  endfacet
  facet normal 0 0 -1
    outer loop
      vertex -19.087688446044922 -18.100000381469727 -12.5
      vertex -18.40521240234375 -19.039348602294922 -12.5
      vertex -18.6805477142334 -18.899057388305664 -12.5
    endloop
  endfacet
  facet normal 0 0 -1
    outer loop
      vertex -19.087688446044922 -18.100000381469727 -12.5
      vertex -18.6805477142334 -18.899057388305664 -12.5
      vertex -18.89905548095703 -18.68054962158203 -12.5
    endloop
  endfacet
  facet normal 0 0 -1
    outer loop
      vertex -19.087688446044922 -18.100000381469727 -12.5
      vertex -18.89905548095703 -18.68054962158203 -12.5
      vertex -19.03934669494629 -18.40521240234375 -12.5
    endloop
  endfacet
  facet normal 0 0 -1
    outer loop
      vertex -15.049999237060547 -15.049999237060547 -12.5
      vertex -19.087688446044922 -18.100000381469727 -12.5
      vertex -19.087688446044922 -8 -12.5
    endloop
  endfacet
  facet normal 0 0 -1
    outer loop
      vertex -15.049999237060547 2.515624761581421 -12.5
      vertex -35.5 7 -12.5
      vertex -15.5 6.987687587738037 -12.5
    endloop
  endfacet
  facet normal 0 0 -1
    outer loop
      vertex -35.5 7 -12.5
      vertex -19.087688446044922 -8 -12.5
      vertex -35.5 -8 -12.5
    endloop
  endfacet
  facet normal 0 0 -1
    outer loop
      vertex -15.5 6.987687587738037 -12.5
      vertex -35.5 7 -12.5
      vertex -15.5 7 -12.5
    endloop
  endfacet
  facet normal 0 0 -1
    outer loop
      vertex -1 -19.087688446044922 -12.5
      vertex -0.012310981750488281 -18.100000381469727 -12.5
      vertex -0.06065177917480469 -18.40521240234375 -12.5
    endloop
  endfacet
  facet normal 0 0 -1
    outer loop
      vertex -1 -19.087688446044922 -12.5
      vertex -0.06065177917480469 -18.40521240234375 -12.5
      vertex -0.2009429931640625 -18.68054962158203 -12.5
    endloop
  endfacet
  facet normal 0 0 -1
    outer loop
      vertex -1 -19.087688446044922 -12.5
      vertex -0.2009429931640625 -18.68054962158203 -12.5
      vertex -0.4194507598876953 -18.899057388305664 -12.5
    endloop
  endfacet
  facet normal 0 0 -1
    outer loop
      vertex -1 -19.087688446044922 -12.5
      vertex -0.4194507598876953 -18.899057388305664 -12.5
      vertex -0.6947870254516602 -19.039348602294922 -12.5
    endloop
  endfacet
  facet normal 0 0 -1
    outer loop
      vertex -2.515624761581421 -15.049999237060547 -12.5
      vertex -0.012310981750488281 -18.100000381469727 -12.5
      vertex -1 -19.087688446044922 -12.5
    endloop
  endfacet
  facet normal 0 0 -1
    outer loop
      vertex -0.012310981750488281 -18.100000381469727 -12.5
      vertex -2.5 -15 -12.5
      vertex -0.012310981750488281 -10.199999809265137 -12.5
    endloop
  endfacet
  facet normal 0 0 -1
    outer loop
      vertex -2.5 -15 -12.5
      vertex -2.84302020072937 -10.199999809265137 -12.5
      vertex -0.012310981750488281 -10.199999809265137 -12.5
    endloop
  endfacet
  facet normal 0 0 -1
    outer loop
      vertex -3.7869277000427246 -10.881831169128418 -12.5
      vertex -2.84302020072937 -10.199999809265137 -12.5
      vertex -2.5 -15 -12.5
    endloop
  endfacet
  facet normal 0 0 -1
    outer loop
      vertex -2.84302020072937 -10.199999809265137 -12.5
      vertex -3.7869277000427246 -10.881831169128418 -12.5
      vertex -3.1722984313964844 -10.33865737915039 -12.5
    endloop
  endfacet
  facet normal 0 0 -1
    outer loop
      vertex -15 2.5 -12.5
      vertex -10.199999809265137 2.84302020072937 -12.5
      vertex -10.199999809265137 0 -12.5
    endloop
  endfacet
  facet normal 0 0 -1
    outer loop
      vertex -10.881831169128418 3.7869277000427246 -12.5
      vertex -10.199999809265137 2.84302020072937 -12.5
      vertex -15 2.5 -12.5
    endloop
  endfacet
  facet normal 0 0 -1
    outer loop
      vertex -10.199999809265137 2.84302020072937 -12.5
      vertex -10.881831169128418 3.7869277000427246 -12.5
      vertex -10.33865737915039 3.1722984313964844 -12.5
    endloop
  endfacet
  facet normal 0 0 -1
    outer loop
      vertex -15.049999237060547 0 -12.5
      vertex -15 2.5 -12.5
      vertex -10.199999809265137 0 -12.5
    endloop
  endfacet
  facet normal 0 0 -1
    outer loop
      vertex -15 2.5 -12.5
      vertex -15.049999237060547 0 -12.5
      vertex -15.049999237060547 2.515624761581421 -12.5
    endloop
  endfacet
  facet normal -0.9544799780350297 0.2982749931359468 0
    outer loop
      vertex -2.515624761581421 -15.049999237060547 -12.5
      vertex -2.5 -15 12.5
      vertex -2.5 -15 -12.5
    endloop
  endfacet
  facet normal -0.9544799780350297 0.2982749931359468 0
    outer loop
      vertex -2.5 -15 12.5
      vertex -2.515624761581421 -15.049999237060547 -12.5
      vertex -2.515624761581421 -15.049999237060547 12.5
    endloop
  endfacet
  facet normal 0 1 0
    outer loop
      vertex -0.012310981750488281 -10.199999809265137 -12.5
      vertex -2.84302020072937 -10.199999809265137 12.5
      vertex -0.012310981750488281 -10.199999809265137 12.5
    endloop
  endfacet
  facet normal 0 1 0
    outer loop
      vertex -2.84302020072937 -10.199999809265137 12.5
      vertex -0.012310981750488281 -10.199999809265137 -12.5
      vertex -2.84302020072937 -10.199999809265137 -12.5
    endloop
  endfacet
  facet normal -0.9544799819680524 -0.2982749805502743 0
    outer loop
      vertex -2.5 -15 -12.5
      vertex -3.7869277000427246 -10.881831169128418 12.5
      vertex -3.7869277000427246 -10.881831169128418 -12.5
    endloop
  endfacet
  facet normal -0.9544799819680524 -0.2982749805502743 0
    outer loop
      vertex -3.7869277000427246 -10.881831169128418 12.5
      vertex -2.5 -15 -12.5
      vertex -2.5 -15 12.5
    endloop
  endfacet
  facet normal -0.3880905318849156 0.9216212557560091 0
    outer loop
      vertex -2.84302020072937 -10.199999809265137 -12.5
      vertex -3.1722984313964844 -10.33865737915039 12.5
      vertex -2.84302020072937 -10.199999809265137 12.5
    endloop
  endfacet
  facet normal -0.3880905318849156 0.9216212557560091 0
    outer loop
      vertex -3.1722984313964844 -10.33865737915039 12.5
      vertex -2.84302020072937 -10.199999809265137 -12.5
      vertex -3.1722984313964844 -10.33865737915039 -12.5
    endloop
  endfacet
  facet normal -0.6622067234942611 0.7493211963897694 0
    outer loop
      vertex -3.1722984313964844 -10.33865737915039 -12.5
      vertex -3.7869277000427246 -10.881831169128418 12.5
      vertex -3.1722984313964844 -10.33865737915039 12.5
    endloop
  endfacet
  facet normal -0.6622067234942611 0.7493211963897694 0
    outer loop
      vertex -3.7869277000427246 -10.881831169128418 12.5
      vertex -3.1722984313964844 -10.33865737915039 -12.5
      vertex -3.7869277000427246 -10.881831169128418 -12.5
    endloop
  endfacet
  facet normal 0.2982749931359468 0.9544799780350297 0
    outer loop
      vertex -15 2.5 -12.5
      vertex -15.049999237060547 2.515624761581421 12.5
      vertex -15 2.5 12.5
    endloop
  endfacet
  facet normal 0.2982749931359468 0.9544799780350297 0
    outer loop
      vertex -15.049999237060547 2.515624761581421 12.5
      vertex -15 2.5 -12.5
      vertex -15.049999237060547 2.515624761581421 -12.5
    endloop
  endfacet
  facet normal 1 0 0
    outer loop
      vertex -10.199999809265137 0 12.5
      vertex -10.199999809265137 2.84302020072937 -12.5
      vertex -10.199999809265137 2.84302020072937 12.5
    endloop
  endfacet
  facet normal 1 0 0
    outer loop
      vertex -10.199999809265137 2.84302020072937 -12.5
      vertex -10.199999809265137 0 12.5
      vertex -10.199999809265137 0 -12.5
    endloop
  endfacet
  facet normal -0.2982749805502743 0.9544799819680524 0
    outer loop
      vertex -10.881831169128418 3.7869277000427246 -12.5
      vertex -15 2.5 12.5
      vertex -10.881831169128418 3.7869277000427246 12.5
    endloop
  endfacet
  facet normal -0.2982749805502743 0.9544799819680524 0
    outer loop
      vertex -15 2.5 12.5
      vertex -10.881831169128418 3.7869277000427246 -12.5
      vertex -15 2.5 -12.5
    endloop
  endfacet
  facet normal 0.9216212557560091 0.3880905318849156 0
    outer loop
      vertex -10.199999809265137 2.84302020072937 12.5
      vertex -10.33865737915039 3.1722984313964844 -12.5
      vertex -10.33865737915039 3.1722984313964844 12.5
    endloop
  endfacet
  facet normal 0.9216212557560091 0.3880905318849156 0
    outer loop
      vertex -10.33865737915039 3.1722984313964844 -12.5
      vertex -10.199999809265137 2.84302020072937 12.5
      vertex -10.199999809265137 2.84302020072937 -12.5
    endloop
  endfacet
  facet normal 0.7493211963897694 0.6622067234942611 0
    outer loop
      vertex -10.33865737915039 3.1722984313964844 12.5
      vertex -10.881831169128418 3.7869277000427246 -12.5
      vertex -10.881831169128418 3.7869277000427246 12.5
    endloop
  endfacet
  facet normal 0.7493211963897694 0.6622067234942611 0
    outer loop
      vertex -10.881831169128418 3.7869277000427246 -12.5
      vertex -10.33865737915039 3.1722984313964844 12.5
      vertex -10.33865737915039 3.1722984313964844 -12.5
    endloop
  endfacet
  facet normal 0 -1 0
    outer loop
      vertex -15.049999237060547 0 -12.5
      vertex -10.199999809265137 0 12.5
      vertex -15.049999237060547 0 12.5
    endloop
  endfacet
  facet normal 0 -1 0
    outer loop
      vertex -10.199999809265137 0 12.5
      vertex -15.049999237060547 0 -12.5
      vertex -10.199999809265137 0 -12.5
    endloop
  endfacet
  facet normal 1 0 0
    outer loop
      vertex -15.049999237060547 2.515624761581421 12.5
      vertex -15.049999237060547 6.987687587738037 -12.5
      vertex -15.049999237060547 6.987687587738037 12.5
    endloop
  endfacet
  facet normal 1 0 0
    outer loop
      vertex -15.049999237060547 6.987687587738037 -12.5
      vertex -15.049999237060547 2.515624761581421 12.5
      vertex -15.049999237060547 2.515624761581421 -12.5
    endloop
  endfacet
  facet normal 1 0 0
    outer loop
      vertex -15.049999237060547 -15.049999237060547 12.5
      vertex -15.049999237060547 0 -12.5
      vertex -15.049999237060547 0 12.5
    endloop
  endfacet
  facet normal 1 0 0
    outer loop
      vertex -15.049999237060547 0 -12.5
      vertex -15.049999237060547 -15.049999237060547 12.5
      vertex -15.049999237060547 -15.049999237060547 -12.5
    endloop
  endfacet
  facet normal 0 1 0
    outer loop
      vertex -2.515624761581421 -15.049999237060547 -12.5
      vertex -15.049999237060547 -15.049999237060547 12.5
      vertex -2.515624761581421 -15.049999237060547 12.5
    endloop
  endfacet
  facet normal 0 1 0
    outer loop
      vertex -15.049999237060547 -15.049999237060547 12.5
      vertex -2.515624761581421 -15.049999237060547 -12.5
      vertex -15.049999237060547 -15.049999237060547 -12.5
    endloop
  endfacet
  facet normal 1 0 0
    outer loop
      vertex -22.5 -5 -3.5
      vertex -22.5 4 -8.5
      vertex -22.5 4 -3.5
    endloop
  endfacet
  facet normal 1 0 0
    outer loop
      vertex -22.5 4 -8.5
      vertex -22.5 -5 -3.5
      vertex -22.5 -5 -8.5
    endloop
  endfacet
  facet normal -1 0 0
    outer loop
      vertex -37.5 -8 -10.5
      vertex -37.5 7 -3.5
      vertex -37.5 7 -10.5
    endloop
  endfacet
  facet normal -1 0 0
    outer loop
      vertex -37.5 7 -3.5
      vertex -37.5 -8 -10.5
      vertex -37.5 -8 -3.5
    endloop
  endfacet
  facet normal 0 -1 0
    outer loop
      vertex -33.840110778808594 -8 -4.956351280212402
      vertex -35.5 -8 -1.5
      vertex -37.5 -8 -3.5
    endloop
  endfacet
  facet normal 0 -1 0
    outer loop
      vertex -35.5 -8 -1.5
      vertex -32.287452697753906 -8 -4.265064239501953
      vertex -26.5 -8 -1.5
    endloop
  endfacet
  facet normal 0 -1 0
    outer loop
      vertex -27.712547302246094 -8 -4.265064239501953
      vertex -26.5 -8 -1.5
      vertex -32.287452697753906 -8 -4.265064239501953
    endloop
  endfacet
  facet normal 0 -1 0
    outer loop
      vertex -27.150203704833984 -8 -4.384593963623047
      vertex -26.5 -8 -1.5
      vertex -27.712547302246094 -8 -4.265064239501953
    endloop
  endfacet
  facet normal 0 -1 0
    outer loop
      vertex -26.625 -8 -4.618430137634277
      vertex -26.5 -8 -1.5
      vertex -27.150203704833984 -8 -4.384593963623047
    endloop
  endfacet
  facet normal 0 -1 0
    outer loop
      vertex -26.159889221191406 -8 -4.956351280212402
      vertex -26.5 -8 -1.5
      vertex -26.625 -8 -4.618430137634277
    endloop
  endfacet
  facet normal 0 -1 0
    outer loop
      vertex -25.775203704833984 -8 -5.383589744567871
      vertex -26.5 -8 -1.5
      vertex -26.159889221191406 -8 -4.956351280212402
    endloop
  endfacet
  facet normal 0 -1 0
    outer loop
      vertex -25.487749099731445 -8 -5.881473541259766
      vertex -26.5 -8 -1.5
      vertex -25.775203704833984 -8 -5.383589744567871
    endloop
  endfacet
  facet normal 0 -1 0
    outer loop
      vertex -26.5 -8 -1.5
      vertex -25.487749099731445 -8 -5.881473541259766
      vertex -19.087688446044922 -8 5.9123125076293945
    endloop
  endfacet
  facet normal 0 -1 0
    outer loop
      vertex -25.31009292602539 -8 -6.4282426834106445
      vertex -19.087688446044922 -8 5.9123125076293945
      vertex -25.487749099731445 -8 -5.881473541259766
    endloop
  endfacet
  facet normal 0 -1 0
    outer loop
      vertex -19.087688446044922 -8 -12.5
      vertex -25.31009292602539 -8 -6.4282426834106445
      vertex -25.25 -8 -7
    endloop
  endfacet
  facet normal 0 -1 0
    outer loop
      vertex -19.087688446044922 -8 -12.5
      vertex -25.25 -8 -7
      vertex -25.31009292602539 -8 -7.571756362915039
    endloop
  endfacet
  facet normal 0 -1 0
    outer loop
      vertex -19.087688446044922 -8 -12.5
      vertex -25.31009292602539 -8 -7.571756362915039
      vertex -25.487749099731445 -8 -8.118525505065918
    endloop
  endfacet
  facet normal 0 -1 0
    outer loop
      vertex -32.287452697753906 -8 -9.73493480682373
      vertex -35.5 -8 -12.5
      vertex -27.712547302246094 -8 -9.73493480682373
    endloop
  endfacet
  facet normal 0 -1 0
    outer loop
      vertex -19.087688446044922 -8 -12.5
      vertex -27.712547302246094 -8 -9.73493480682373
      vertex -35.5 -8 -12.5
    endloop
  endfacet
  facet normal 0 -1 0
    outer loop
      vertex -25.31009292602539 -8 -6.4282426834106445
      vertex -19.087688446044922 -8 -12.5
      vertex -19.087688446044922 -8 5.9123125076293945
    endloop
  endfacet
  facet normal 0 -1 0
    outer loop
      vertex -25.775203704833984 -8 -8.616409301757812
      vertex -19.087688446044922 -8 -12.5
      vertex -25.487749099731445 -8 -8.118525505065918
    endloop
  endfacet
  facet normal 0 -1 0
    outer loop
      vertex -26.159889221191406 -8 -9.043647766113281
      vertex -19.087688446044922 -8 -12.5
      vertex -25.775203704833984 -8 -8.616409301757812
    endloop
  endfacet
  facet normal 0 -1 0
    outer loop
      vertex -26.625 -8 -9.381568908691406
      vertex -19.087688446044922 -8 -12.5
      vertex -26.159889221191406 -8 -9.043647766113281
    endloop
  endfacet
  facet normal 0 -1 0
    outer loop
      vertex -27.150203704833984 -8 -9.615405082702637
      vertex -19.087688446044922 -8 -12.5
      vertex -26.625 -8 -9.381568908691406
    endloop
  endfacet
  facet normal 0 -1 0
    outer loop
      vertex -27.712547302246094 -8 -9.73493480682373
      vertex -19.087688446044922 -8 -12.5
      vertex -27.150203704833984 -8 -9.615405082702637
    endloop
  endfacet
  facet normal 0 -1 0
    outer loop
      vertex -35.5 -8 -1.5
      vertex -32.849796295166016 -8 -4.384593963623047
      vertex -32.287452697753906 -8 -4.265064239501953
    endloop
  endfacet
  facet normal 0 -1 0
    outer loop
      vertex -35.5 -8 -1.5
      vertex -33.375 -8 -4.618430137634277
      vertex -32.849796295166016 -8 -4.384593963623047
    endloop
  endfacet
  facet normal 0 -1 0
    outer loop
      vertex -35.5 -8 -1.5
      vertex -33.840110778808594 -8 -4.956351280212402
      vertex -33.375 -8 -4.618430137634277
    endloop
  endfacet
  facet normal 0 -1 0
    outer loop
      vertex -37.5 -8 -3.5
      vertex -34.224796295166016 -8 -5.383589744567871
      vertex -33.840110778808594 -8 -4.956351280212402
    endloop
  endfacet
  facet normal 0 -1 0
    outer loop
      vertex -37.5 -8 -3.5
      vertex -34.51224899291992 -8 -5.881473541259766
      vertex -34.224796295166016 -8 -5.383589744567871
    endloop
  endfacet
  facet normal 0 -1 0
    outer loop
      vertex -37.5 -8 -3.5
      vertex -34.689903259277344 -8 -6.4282426834106445
      vertex -34.51224899291992 -8 -5.881473541259766
    endloop
  endfacet
  facet normal 0 -1 0
    outer loop
      vertex -37.5 -8 -3.5
      vertex -34.75 -8 -7
      vertex -34.689903259277344 -8 -6.4282426834106445
    endloop
  endfacet
  facet normal 0 -1 0
    outer loop
      vertex -37.5 -8 -10.5
      vertex -34.75 -8 -7
      vertex -37.5 -8 -3.5
    endloop
  endfacet
  facet normal 0 -1 0
    outer loop
      vertex -34.75 -8 -7
      vertex -37.5 -8 -10.5
      vertex -34.689903259277344 -8 -7.571756362915039
    endloop
  endfacet
  facet normal 0 -1 0
    outer loop
      vertex -34.689903259277344 -8 -7.571756362915039
      vertex -37.5 -8 -10.5
      vertex -34.51224899291992 -8 -8.118525505065918
    endloop
  endfacet
  facet normal 0 -1 0
    outer loop
      vertex -32.849796295166016 -8 -9.615405082702637
      vertex -35.5 -8 -12.5
      vertex -32.287452697753906 -8 -9.73493480682373
    endloop
  endfacet
  facet normal 0 -1 0
    outer loop
      vertex -33.375 -8 -9.381568908691406
      vertex -35.5 -8 -12.5
      vertex -32.849796295166016 -8 -9.615405082702637
    endloop
  endfacet
  facet normal 0 -1 0
    outer loop
      vertex -33.840110778808594 -8 -9.043647766113281
      vertex -35.5 -8 -12.5
      vertex -33.375 -8 -9.381568908691406
    endloop
  endfacet
  facet normal 0 -1 0
    outer loop
      vertex -35.5 -8 -12.5
      vertex -33.840110778808594 -8 -9.043647766113281
      vertex -37.5 -8 -10.5
    endloop
  endfacet
  facet normal 0 -1 0
    outer loop
      vertex -34.224796295166016 -8 -8.616409301757812
      vertex -37.5 -8 -10.5
      vertex -33.840110778808594 -8 -9.043647766113281
    endloop
  endfacet
  facet normal 0 -1 0
    outer loop
      vertex -34.51224899291992 -8 -8.118525505065918
      vertex -37.5 -8 -10.5
      vertex -34.224796295166016 -8 -8.616409301757812
    endloop
  endfacet
  facet normal 0.7071067811865476 0 0.7071067811865476
    outer loop
      vertex -24.5 -5 -1.5
      vertex -22.5 4 -3.5
      vertex -24.5 4 -1.5
    endloop
  endfacet
  facet normal 0.7071067811865476 0 0.7071067811865476
    outer loop
      vertex -22.5 4 -3.5
      vertex -24.5 -5 -1.5
      vertex -22.5 -5 -3.5
    endloop
  endfacet
  facet normal -0.7071067811865475 0 -0.7071067811865475
    outer loop
      vertex -35.5 -8 -12.5
      vertex -37.5 7 -10.5
      vertex -35.5 7 -12.5
    endloop
  endfacet
  facet normal -0.7071067811865475 0 -0.7071067811865475
    outer loop
      vertex -37.5 7 -10.5
      vertex -35.5 -8 -12.5
      vertex -37.5 -8 -10.5
    endloop
  endfacet
  facet normal 0 0 1
    outer loop
      vertex -35.5 7 -1.5
      vertex -26.5 4 -1.5
      vertex -26.5 7 -1.5
    endloop
  endfacet
  facet normal 0 0 1
    outer loop
      vertex -26.5 4 -1.5
      vertex -35.5 7 -1.5
      vertex -26.5 -5 -1.5
    endloop
  endfacet
  facet normal 0 0 1
    outer loop
      vertex -35.5 -8 -1.5
      vertex -26.5 -5 -1.5
      vertex -35.5 7 -1.5
    endloop
  endfacet
  facet normal 0 0 1
    outer loop
      vertex -26.5 -5 -1.5
      vertex -35.5 -8 -1.5
      vertex -26.5 -8 -1.5
    endloop
  endfacet
  facet normal 0 0 1
    outer loop
      vertex -26.5 4 -1.5
      vertex -24.5 -5 -1.5
      vertex -24.5 4 -1.5
    endloop
  endfacet
  facet normal 0 0 1
    outer loop
      vertex -24.5 -5 -1.5
      vertex -26.5 4 -1.5
      vertex -26.5 -5 -1.5
    endloop
  endfacet
  facet normal -0.7071067811865475 0 0.7071067811865475
    outer loop
      vertex -37.5 -8 -3.5
      vertex -35.5 7 -1.5
      vertex -37.5 7 -3.5
    endloop
  endfacet
  facet normal -0.7071067811865475 0 0.7071067811865475
    outer loop
      vertex -35.5 7 -1.5
      vertex -37.5 -8 -3.5
      vertex -35.5 -8 -1.5
    endloop
  endfacet
  facet normal 0 1 0
    outer loop
      vertex -15.5 7 8.5
      vertex -26.5 7 -1.5
      vertex -16.5 7 8.5
    endloop
  endfacet
  facet normal 0 1 0
    outer loop
      vertex -32.21950912475586 7 -4.911503791809082
      vertex -35.5 7 -1.5
      vertex -26.5 7 -1.5
    endloop
  endfacet
  facet normal 0 1 0
    outer loop
      vertex -32.21950912475586 7 -4.911503791809082
      vertex -26.5 7 -1.5
      vertex -27.78049087524414 7 -4.911503791809082
    endloop
  endfacet
  facet normal 0 1 0
    outer loop
      vertex -15.5 7 -12.5
      vertex -26.5 7 -1.5
      vertex -15.5 7 8.5
    endloop
  endfacet
  facet normal 0 1 0
    outer loop
      vertex -26.5 7 -1.5
      vertex -27.351062774658203 7 -5.002780914306641
      vertex -27.78049087524414 7 -4.911503791809082
    endloop
  endfacet
  facet normal 0 1 0
    outer loop
      vertex -26.5 7 -1.5
      vertex -26.950000762939453 7 -5.1813459396362305
      vertex -27.351062774658203 7 -5.002780914306641
    endloop
  endfacet
  facet normal 0 1 0
    outer loop
      vertex -26.5 7 -1.5
      vertex -26.594825744628906 7 -5.439394950866699
      vertex -26.950000762939453 7 -5.1813459396362305
    endloop
  endfacet
  facet normal 0 1 0
    outer loop
      vertex -26.5 7 -1.5
      vertex -26.301063537597656 7 -5.765650749206543
      vertex -26.594825744628906 7 -5.439394950866699
    endloop
  endfacet
  facet normal 0 1 0
    outer loop
      vertex -26.5 7 -1.5
      vertex -26.081554412841797 7 -6.145853042602539
      vertex -26.301063537597656 7 -5.765650749206543
    endloop
  endfacet
  facet normal 0 1 0
    outer loop
      vertex -26.5 7 -1.5
      vertex -15.5 7 -12.5
      vertex -26.081554412841797 7 -6.145853042602539
    endloop
  endfacet
  facet normal 0 1 0
    outer loop
      vertex -26.081554412841797 7 -6.145853042602539
      vertex -15.5 7 -12.5
      vertex -25.94588851928711 7 -6.563385009765625
    endloop
  endfacet
  facet normal 0 1 0
    outer loop
      vertex -25.94588851928711 7 -6.563385009765625
      vertex -15.5 7 -12.5
      vertex -25.899999618530273 7 -7
    endloop
  endfacet
  facet normal 0 1 0
    outer loop
      vertex -25.899999618530273 7 -7
      vertex -15.5 7 -12.5
      vertex -25.94588851928711 7 -7.436614036560059
    endloop
  endfacet
  facet normal 0 1 0
    outer loop
      vertex -25.94588851928711 7 -7.436614036560059
      vertex -15.5 7 -12.5
      vertex -26.081554412841797 7 -7.8541460037231445
    endloop
  endfacet
  facet normal 0 1 0
    outer loop
      vertex -35.5 7 -12.5
      vertex -32.21950912475586 7 -9.088495254516602
      vertex -27.78049087524414 7 -9.088495254516602
    endloop
  endfacet
  facet normal 0 1 0
    outer loop
      vertex -26.081554412841797 7 -7.8541460037231445
      vertex -15.5 7 -12.5
      vertex -26.301063537597656 7 -8.23434829711914
    endloop
  endfacet
  facet normal 0 1 0
    outer loop
      vertex -15.5 7 -12.5
      vertex -26.594825744628906 7 -8.560604095458984
      vertex -26.301063537597656 7 -8.23434829711914
    endloop
  endfacet
  facet normal 0 1 0
    outer loop
      vertex -15.5 7 -12.5
      vertex -26.950000762939453 7 -8.818653106689453
      vertex -26.594825744628906 7 -8.560604095458984
    endloop
  endfacet
  facet normal 0 1 0
    outer loop
      vertex -15.5 7 -12.5
      vertex -27.351062774658203 7 -8.997218132019043
      vertex -26.950000762939453 7 -8.818653106689453
    endloop
  endfacet
  facet normal 0 1 0
    outer loop
      vertex -15.5 7 -12.5
      vertex -27.78049087524414 7 -9.088495254516602
      vertex -27.351062774658203 7 -8.997218132019043
    endloop
  endfacet
  facet normal 0 1 0
    outer loop
      vertex -35.5 7 -12.5
      vertex -27.78049087524414 7 -9.088495254516602
      vertex -15.5 7 -12.5
    endloop
  endfacet
  facet normal 0 1 0
    outer loop
      vertex -32.21950912475586 7 -9.088495254516602
      vertex -35.5 7 -12.5
      vertex -37.5 7 -10.5
    endloop
  endfacet
  facet normal 0 1 0
    outer loop
      vertex -32.64893341064453 7 -5.002780914306641
      vertex -35.5 7 -1.5
      vertex -32.21950912475586 7 -4.911503791809082
    endloop
  endfacet
  facet normal 0 1 0
    outer loop
      vertex -33.04999923706055 7 -5.1813459396362305
      vertex -35.5 7 -1.5
      vertex -32.64893341064453 7 -5.002780914306641
    endloop
  endfacet
  facet normal 0 1 0
    outer loop
      vertex -33.405174255371094 7 -5.439394950866699
      vertex -35.5 7 -1.5
      vertex -33.04999923706055 7 -5.1813459396362305
    endloop
  endfacet
  facet normal 0 1 0
    outer loop
      vertex -35.5 7 -1.5
      vertex -33.405174255371094 7 -5.439394950866699
      vertex -37.5 7 -3.5
    endloop
  endfacet
  facet normal 0 1 0
    outer loop
      vertex -33.698936462402344 7 -5.765650749206543
      vertex -37.5 7 -3.5
      vertex -33.405174255371094 7 -5.439394950866699
    endloop
  endfacet
  facet normal 0 1 0
    outer loop
      vertex -33.9184455871582 7 -6.145853042602539
      vertex -37.5 7 -3.5
      vertex -33.698936462402344 7 -5.765650749206543
    endloop
  endfacet
  facet normal 0 1 0
    outer loop
      vertex -34.054107666015625 7 -6.563385009765625
      vertex -37.5 7 -3.5
      vertex -33.9184455871582 7 -6.145853042602539
    endloop
  endfacet
  facet normal 0 1 0
    outer loop
      vertex -34.099998474121094 7 -7
      vertex -37.5 7 -3.5
      vertex -34.054107666015625 7 -6.563385009765625
    endloop
  endfacet
  facet normal 0 1 0
    outer loop
      vertex -37.5 7 -10.5
      vertex -34.099998474121094 7 -7
      vertex -34.054107666015625 7 -7.436614036560059
    endloop
  endfacet
  facet normal 0 1 0
    outer loop
      vertex -37.5 7 -10.5
      vertex -34.054107666015625 7 -7.436614036560059
      vertex -33.9184455871582 7 -7.8541460037231445
    endloop
  endfacet
  facet normal 0 1 0
    outer loop
      vertex -37.5 7 -10.5
      vertex -33.9184455871582 7 -7.8541460037231445
      vertex -33.698936462402344 7 -8.23434829711914
    endloop
  endfacet
  facet normal 0 1 0
    outer loop
      vertex -34.099998474121094 7 -7
      vertex -37.5 7 -10.5
      vertex -37.5 7 -3.5
    endloop
  endfacet
  facet normal 0 1 0
    outer loop
      vertex -33.405174255371094 7 -8.560604095458984
      vertex -37.5 7 -10.5
      vertex -33.698936462402344 7 -8.23434829711914
    endloop
  endfacet
  facet normal 0 1 0
    outer loop
      vertex -33.04999923706055 7 -8.818653106689453
      vertex -37.5 7 -10.5
      vertex -33.405174255371094 7 -8.560604095458984
    endloop
  endfacet
  facet normal 0 1 0
    outer loop
      vertex -32.64893341064453 7 -8.997218132019043
      vertex -37.5 7 -10.5
      vertex -33.04999923706055 7 -8.818653106689453
    endloop
  endfacet
  facet normal 0 1 0
    outer loop
      vertex -37.5 7 -10.5
      vertex -32.64893341064453 7 -8.997218132019043
      vertex -32.21950912475586 7 -9.088495254516602
    endloop
  endfacet
  facet normal 0 0 1
    outer loop
      vertex -22.5 4 -8.5
      vertex -19.087688446044922 -5 -8.5
      vertex -19.087688446044922 4 -8.5
    endloop
  endfacet
  facet normal 0 0 1
    outer loop
      vertex -19.087688446044922 -5 -8.5
      vertex -22.5 4 -8.5
      vertex -22.5 -5 -8.5
    endloop
  endfacet
  facet normal 0 0 1
    outer loop
      vertex -16.5 7 8.5
      vertex -15.5 6.987687587738037 8.5
      vertex -15.5 7 8.5
    endloop
  endfacet
  facet normal 0 0 1
    outer loop
      vertex -15.5 6.987687587738037 8.5
      vertex -16.5 7 8.5
      vertex -16.5 6.987687587738037 8.5
    endloop
  endfacet
  facet normal 0 -1 0
    outer loop
      vertex -24.5 4 -1.5
      vertex -19.087688446044922 4 5.9123125076293945
      vertex -26.5 4 -1.5
    endloop
  endfacet
  facet normal 0 -1 0
    outer loop
      vertex -22.5 4 -3.5
      vertex -19.087688446044922 4 5.9123125076293945
      vertex -24.5 4 -1.5
    endloop
  endfacet
  facet normal 0 -1 0
    outer loop
      vertex -19.087688446044922 4 -8.5
      vertex -22.5 4 -3.5
      vertex -22.5 4 -8.5
    endloop
  endfacet
  facet normal 0 -1 0
    outer loop
      vertex -22.5 4 -3.5
      vertex -19.087688446044922 4 -8.5
      vertex -19.087688446044922 4 5.9123125076293945
    endloop
  endfacet
  facet normal 1 0 0
    outer loop
      vertex -15.5 6.987687587738037 8.5
      vertex -15.5 7 -12.5
      vertex -15.5 7 8.5
    endloop
  endfacet
  facet normal 1 0 0
    outer loop
      vertex -15.5 7 -12.5
      vertex -15.5 6.987687587738037 8.5
      vertex -15.5 6.987687587738037 -12.5
    endloop
  endfacet
  facet normal -0.7071067801259787 -0.00005476989892924199 0.7071067801259787
    outer loop
      vertex -26.5 7 -1.5
      vertex -18.099998474121094 6.987687587738037 6.90000057220459
      vertex -16.5 7 8.5
    endloop
  endfacet
  facet normal -0.7071067312221554 0.000013319769057911334 0.7071068310254839
    outer loop
      vertex -26.5 7 -1.5
      vertex -18.40521240234375 6.939346790313721 6.59478759765625
      vertex -18.099998474121094 6.987687587738037 6.90000057220459
    endloop
  endfacet
  facet normal -0.7071067811865476 0 0.7071067811865476
    outer loop
      vertex -26.5 7 -1.5
      vertex -18.6805477142334 6.799056529998779 6.319452285766602
      vertex -18.40521240234375 6.939346790313721 6.59478759765625
    endloop
  endfacet
  facet normal -0.7071068198435765 -0.000003008824621381399 0.7071067425231149
    outer loop
      vertex -26.5 7 -1.5
      vertex -18.89905548095703 6.58054780960083 6.100943565368652
      vertex -18.6805477142334 6.799056529998779 6.319452285766602
    endloop
  endfacet
  facet normal -0.7071066723079572 0.000002338242781396812 0.707106890061255
    outer loop
      vertex -26.5 7 -1.5
      vertex -19.03934669494629 6.305212497711182 5.960653305053711
      vertex -18.89905548095703 6.58054780960083 6.100943565368652
    endloop
  endfacet
  facet normal -0.7071066798011478 0.00000217732401804215 0.7071068825685803
    outer loop
      vertex -26.5 7 -1.5
      vertex -19.087688446044922 5.999999523162842 5.9123125076293945
      vertex -19.03934669494629 6.305212497711182 5.960653305053711
    endloop
  endfacet
  facet normal -0.7071068266750234 0 0.7071067356980687
    outer loop
      vertex -26.5 4 -1.5
      vertex -19.087688446044922 5.999999523162842 5.9123125076293945
      vertex -26.5 7 -1.5
    endloop
  endfacet
  facet normal -0.7071068266750234 0 0.7071067356980687
    outer loop
      vertex -19.087688446044922 5.999999523162842 5.9123125076293945
      vertex -26.5 4 -1.5
      vertex -19.087688446044922 4 5.9123125076293945
    endloop
  endfacet
  facet normal -0.7071069919208969 0 0.7071065704521354
    outer loop
      vertex -16.5 7 8.5
      vertex -18.099998474121094 6.987687587738037 6.90000057220459
      vertex -16.5 6.987687587738037 8.5
    endloop
  endfacet
  facet normal 0 1 0
    outer loop
      vertex -19.087688446044922 -5 5.9123125076293945
      vertex -22.5 -5 -3.5
      vertex -24.5 -5 -1.5
    endloop
  endfacet
  facet normal 0 1 0
    outer loop
      vertex -19.087688446044922 -5 -8.5
      vertex -22.5 -5 -3.5
      vertex -19.087688446044922 -5 5.9123125076293945
    endloop
  endfacet
  facet normal 0 1 0
    outer loop
      vertex -22.5 -5 -3.5
      vertex -19.087688446044922 -5 -8.5
      vertex -22.5 -5 -8.5
    endloop
  endfacet
  facet normal 0 1 0
    outer loop
      vertex -19.087688446044922 -5 5.9123125076293945
      vertex -24.5 -5 -1.5
      vertex -26.5 -5 -1.5
    endloop
  endfacet
  facet normal -0.7071068266750234 0 0.7071067356980687
    outer loop
      vertex -26.5 -8 -1.5
      vertex -19.087688446044922 -5 5.9123125076293945
      vertex -26.5 -5 -1.5
    endloop
  endfacet
  facet normal -0.7071068266750234 0 0.7071067356980687
    outer loop
      vertex -19.087688446044922 -5 5.9123125076293945
      vertex -26.5 -8 -1.5
      vertex -19.087688446044922 -8 5.9123125076293945
    endloop
  endfacet
  facet normal 0.5877841424255169 0 -0.8090178007393283
    outer loop
      vertex -33.405174255371094 5 -5.439394950866699
      vertex -33.04999923706055 7 -5.1813459396362305
      vertex -33.04999923706055 5 -5.1813459396362305
    endloop
  endfacet
  facet normal 0.5877841424255169 0 -0.8090178007393283
    outer loop
      vertex -33.04999923706055 7 -5.1813459396362305
      vertex -33.405174255371094 5 -5.439394950866699
      vertex -33.405174255371094 7 -5.439394950866699
    endloop
  endfacet
  facet normal 0.2079120673904275 0 -0.9781475206907383
    outer loop
      vertex -32.64893341064453 5 -5.002780914306641
      vertex -32.21950912475586 7 -4.911503791809082
      vertex -32.21950912475586 5 -4.911503791809082
    endloop
  endfacet
  facet normal 0.2079120673904275 0 -0.9781475206907383
    outer loop
      vertex -32.21950912475586 7 -4.911503791809082
      vertex -32.64893341064453 5 -5.002780914306641
      vertex -32.64893341064453 7 -5.002780914306641
    endloop
  endfacet
  facet normal 0.2079120673904275 0 0.9781475206907383
    outer loop
      vertex -32.64893341064453 7 -8.997218132019043
      vertex -32.21950912475586 5 -9.088495254516602
      vertex -32.21950912475586 7 -9.088495254516602
    endloop
  endfacet
  facet normal 0.2079120673904275 0 0.9781475206907383
    outer loop
      vertex -32.21950912475586 5 -9.088495254516602
      vertex -32.64893341064453 7 -8.997218132019043
      vertex -32.64893341064453 5 -8.997218132019043
    endloop
  endfacet
  facet normal 0 0 1
    outer loop
      vertex -32.21950912475586 7 -9.088495254516602
      vertex -27.78049087524414 5 -9.088495254516602
      vertex -27.78049087524414 7 -9.088495254516602
    endloop
  endfacet
  facet normal 0 0 1
    outer loop
      vertex -27.78049087524414 5 -9.088495254516602
      vertex -32.21950912475586 7 -9.088495254516602
      vertex -32.21950912475586 5 -9.088495254516602
    endloop
  endfacet
  facet normal 0.8660261649080296 0 -0.49999868169295236
    outer loop
      vertex -33.698936462402344 5 -5.765650749206543
      vertex -33.9184455871582 7 -6.145853042602539
      vertex -33.698936462402344 7 -5.765650749206543
    endloop
  endfacet
  facet normal 0.8660261649080296 0 -0.49999868169295236
    outer loop
      vertex -33.9184455871582 7 -6.145853042602539
      vertex -33.698936462402344 5 -5.765650749206543
      vertex -33.9184455871582 5 -6.145853042602539
    endloop
  endfacet
  facet normal -0.4067379987149493 0 -0.9135448540719596
    outer loop
      vertex -27.351062774658203 5 -5.002780914306641
      vertex -26.950000762939453 7 -5.1813459396362305
      vertex -26.950000762939453 5 -5.1813459396362305
    endloop
  endfacet
  facet normal -0.4067379987149493 0 -0.9135448540719596
    outer loop
      vertex -26.950000762939453 7 -5.1813459396362305
      vertex -27.351062774658203 5 -5.002780914306641
      vertex -27.351062774658203 7 -5.002780914306641
    endloop
  endfacet
  facet normal 0.951058043310266 0 0.3090122946661641
    outer loop
      vertex -34.054107666015625 5 -7.436614036560059
      vertex -33.9184455871582 7 -7.8541460037231445
      vertex -34.054107666015625 7 -7.436614036560059
    endloop
  endfacet
  facet normal 0.951058043310266 0 0.3090122946661641
    outer loop
      vertex -33.9184455871582 7 -7.8541460037231445
      vertex -34.054107666015625 5 -7.436614036560059
      vertex -33.9184455871582 5 -7.8541460037231445
    endloop
  endfacet
  facet normal -0.9945221519669915 0 0.10452602186510442
    outer loop
      vertex -25.94588851928711 5 -7.436614036560059
      vertex -25.899999618530273 7 -7
      vertex -25.94588851928711 7 -7.436614036560059
    endloop
  endfacet
  facet normal -0.9945221519669915 0 0.10452602186510442
    outer loop
      vertex -25.899999618530273 7 -7
      vertex -25.94588851928711 5 -7.436614036560059
      vertex -25.899999618530273 5 -7
    endloop
  endfacet
  facet normal 0.7431446366285152 0 0.6691308160967272
    outer loop
      vertex -33.698936462402344 5 -8.23434829711914
      vertex -33.405174255371094 7 -8.560604095458984
      vertex -33.698936462402344 7 -8.23434829711914
    endloop
  endfacet
  facet normal 0.7431446366285152 0 0.6691308160967272
    outer loop
      vertex -33.405174255371094 7 -8.560604095458984
      vertex -33.698936462402344 5 -8.23434829711914
      vertex -33.405174255371094 5 -8.560604095458984
    endloop
  endfacet
  facet normal 0.40673477007256964 0 0.9135462915550662
    outer loop
      vertex -33.04999923706055 7 -8.818653106689453
      vertex -32.64893341064453 5 -8.997218132019043
      vertex -32.64893341064453 7 -8.997218132019043
    endloop
  endfacet
  facet normal 0.40673477007256964 0 0.9135462915550662
    outer loop
      vertex -32.64893341064453 5 -8.997218132019043
      vertex -33.04999923706055 7 -8.818653106689453
      vertex -33.04999923706055 5 -8.818653106689453
    endloop
  endfacet
  facet normal -0.20791030030200325 0 -0.9781478962960207
    outer loop
      vertex -27.78049087524414 5 -4.911503791809082
      vertex -27.351062774658203 7 -5.002780914306641
      vertex -27.351062774658203 5 -5.002780914306641
    endloop
  endfacet
  facet normal -0.20791030030200325 0 -0.9781478962960207
    outer loop
      vertex -27.351062774658203 7 -5.002780914306641
      vertex -27.78049087524414 5 -4.911503791809082
      vertex -27.78049087524414 7 -4.911503791809082
    endloop
  endfacet
  facet normal 0.5877841424255169 0 0.8090178007393283
    outer loop
      vertex -33.405174255371094 7 -8.560604095458984
      vertex -33.04999923706055 5 -8.818653106689453
      vertex -33.04999923706055 7 -8.818653106689453
    endloop
  endfacet
  facet normal 0.5877841424255169 0 0.8090178007393283
    outer loop
      vertex -33.04999923706055 5 -8.818653106689453
      vertex -33.405174255371094 7 -8.560604095458984
      vertex -33.405174255371094 5 -8.560604095458984
    endloop
  endfacet
  facet normal -0.8660261649080296 0 -0.49999868169295236
    outer loop
      vertex -26.081554412841797 5 -6.145853042602539
      vertex -26.301063537597656 7 -5.765650749206543
      vertex -26.081554412841797 7 -6.145853042602539
    endloop
  endfacet
  facet normal -0.8660261649080296 0 -0.49999868169295236
    outer loop
      vertex -26.301063537597656 7 -5.765650749206543
      vertex -26.081554412841797 5 -6.145853042602539
      vertex -26.301063537597656 5 -5.765650749206543
    endloop
  endfacet
  facet normal 0.7431446366285152 0 -0.6691308160967272
    outer loop
      vertex -33.405174255371094 5 -5.439394950866699
      vertex -33.698936462402344 7 -5.765650749206543
      vertex -33.405174255371094 7 -5.439394950866699
    endloop
  endfacet
  facet normal 0.7431446366285152 0 -0.6691308160967272
    outer loop
      vertex -33.698936462402344 7 -5.765650749206543
      vertex -33.405174255371094 5 -5.439394950866699
      vertex -33.698936462402344 5 -5.765650749206543
    endloop
  endfacet
  facet normal -0.20791030030200325 0 0.9781478962960207
    outer loop
      vertex -27.78049087524414 7 -9.088495254516602
      vertex -27.351062774658203 5 -8.997218132019043
      vertex -27.351062774658203 7 -8.997218132019043
    endloop
  endfacet
  facet normal -0.20791030030200325 0 0.9781478962960207
    outer loop
      vertex -27.351062774658203 5 -8.997218132019043
      vertex -27.78049087524414 7 -9.088495254516602
      vertex -27.78049087524414 5 -9.088495254516602
    endloop
  endfacet
  facet normal 0 0 -1
    outer loop
      vertex -32.21950912475586 5 -4.911503791809082
      vertex -27.78049087524414 7 -4.911503791809082
      vertex -27.78049087524414 5 -4.911503791809082
    endloop
  endfacet
  facet normal 0 0 -1
    outer loop
      vertex -27.78049087524414 7 -4.911503791809082
      vertex -32.21950912475586 5 -4.911503791809082
      vertex -32.21950912475586 7 -4.911503791809082
    endloop
  endfacet
  facet normal 0.8660261649080296 0 0.49999868169295236
    outer loop
      vertex -33.9184455871582 5 -7.8541460037231445
      vertex -33.698936462402344 7 -8.23434829711914
      vertex -33.9184455871582 7 -7.8541460037231445
    endloop
  endfacet
  facet normal 0.8660261649080296 0 0.49999868169295236
    outer loop
      vertex -33.698936462402344 7 -8.23434829711914
      vertex -33.9184455871582 5 -7.8541460037231445
      vertex -33.698936462402344 5 -8.23434829711914
    endloop
  endfacet
  facet normal 0.9945217240604226 0 -0.10453009314013144
    outer loop
      vertex -34.054107666015625 5 -6.563385009765625
      vertex -34.099998474121094 7 -7
      vertex -34.054107666015625 7 -6.563385009765625
    endloop
  endfacet
  facet normal 0.9945217240604226 0 -0.10453009314013144
    outer loop
      vertex -34.099998474121094 7 -7
      vertex -34.054107666015625 5 -6.563385009765625
      vertex -34.099998474121094 5 -7
    endloop
  endfacet
  facet normal 0.40673477007256964 0 -0.9135462915550662
    outer loop
      vertex -33.04999923706055 5 -5.1813459396362305
      vertex -32.64893341064453 7 -5.002780914306641
      vertex -32.64893341064453 5 -5.002780914306641
    endloop
  endfacet
  facet normal 0.40673477007256964 0 -0.9135462915550662
    outer loop
      vertex -32.64893341064453 7 -5.002780914306641
      vertex -33.04999923706055 5 -5.1813459396362305
      vertex -33.04999923706055 7 -5.1813459396362305
    endloop
  endfacet
  facet normal -0.4067379987149493 0 0.9135448540719596
    outer loop
      vertex -27.351062774658203 7 -8.997218132019043
      vertex -26.950000762939453 5 -8.818653106689453
      vertex -26.950000762939453 7 -8.818653106689453
    endloop
  endfacet
  facet normal -0.4067379987149493 0 0.9135448540719596
    outer loop
      vertex -26.950000762939453 5 -8.818653106689453
      vertex -27.351062774658203 7 -8.997218132019043
      vertex -27.351062774658203 5 -8.997218132019043
    endloop
  endfacet
  facet normal 0.951058043310266 0 -0.3090122946661641
    outer loop
      vertex -33.9184455871582 5 -6.145853042602539
      vertex -34.054107666015625 7 -6.563385009765625
      vertex -33.9184455871582 7 -6.145853042602539
    endloop
  endfacet
  facet normal 0.951058043310266 0 -0.3090122946661641
    outer loop
      vertex -34.054107666015625 7 -6.563385009765625
      vertex -33.9184455871582 5 -6.145853042602539
      vertex -34.054107666015625 5 -6.563385009765625
    endloop
  endfacet
  facet normal -0.5877841424255169 0 0.8090178007393283
    outer loop
      vertex -26.950000762939453 7 -8.818653106689453
      vertex -26.594825744628906 5 -8.560604095458984
      vertex -26.594825744628906 7 -8.560604095458984
    endloop
  endfacet
  facet normal -0.5877841424255169 0 0.8090178007393283
    outer loop
      vertex -26.594825744628906 5 -8.560604095458984
      vertex -26.950000762939453 7 -8.818653106689453
      vertex -26.950000762939453 5 -8.818653106689453
    endloop
  endfacet
  facet normal -0.9510554896418336 0 -0.3090201540711094
    outer loop
      vertex -25.94588851928711 5 -6.563385009765625
      vertex -26.081554412841797 7 -6.145853042602539
      vertex -25.94588851928711 7 -6.563385009765625
    endloop
  endfacet
  facet normal -0.9510554896418336 0 -0.3090201540711094
    outer loop
      vertex -26.081554412841797 7 -6.145853042602539
      vertex -25.94588851928711 5 -6.563385009765625
      vertex -26.081554412841797 5 -6.145853042602539
    endloop
  endfacet
  facet normal 0.9945217003248453 0 0.10453031896525854
    outer loop
      vertex -34.099998474121094 5 -7
      vertex -34.054107666015625 7 -7.436614036560059
      vertex -34.099998474121094 7 -7
    endloop
  endfacet
  facet normal 0.9945217003248453 0 0.10453031896525854
    outer loop
      vertex -34.054107666015625 7 -7.436614036560059
      vertex -34.099998474121094 5 -7
      vertex -34.054107666015625 5 -7.436614036560059
    endloop
  endfacet
  facet normal -0.7431446366285152 0 0.6691308160967272
    outer loop
      vertex -26.594825744628906 5 -8.560604095458984
      vertex -26.301063537597656 7 -8.23434829711914
      vertex -26.594825744628906 7 -8.560604095458984
    endloop
  endfacet
  facet normal -0.7431446366285152 0 0.6691308160967272
    outer loop
      vertex -26.301063537597656 7 -8.23434829711914
      vertex -26.594825744628906 5 -8.560604095458984
      vertex -26.301063537597656 5 -8.23434829711914
    endloop
  endfacet
  facet normal -0.5877841424255169 0 -0.8090178007393283
    outer loop
      vertex -26.950000762939453 5 -5.1813459396362305
      vertex -26.594825744628906 7 -5.439394950866699
      vertex -26.594825744628906 5 -5.439394950866699
    endloop
  endfacet
  facet normal -0.5877841424255169 0 -0.8090178007393283
    outer loop
      vertex -26.594825744628906 7 -5.439394950866699
      vertex -26.950000762939453 5 -5.1813459396362305
      vertex -26.950000762939453 7 -5.1813459396362305
    endloop
  endfacet
  facet normal -0.9945221757006283 0 -0.1045257960490556
    outer loop
      vertex -25.899999618530273 5 -7
      vertex -25.94588851928711 7 -6.563385009765625
      vertex -25.899999618530273 7 -7
    endloop
  endfacet
  facet normal -0.9945221757006283 0 -0.1045257960490556
    outer loop
      vertex -25.94588851928711 7 -6.563385009765625
      vertex -25.899999618530273 5 -7
      vertex -25.94588851928711 5 -6.563385009765625
    endloop
  endfacet
  facet normal -0.7431446366285152 0 -0.6691308160967272
    outer loop
      vertex -26.301063537597656 5 -5.765650749206543
      vertex -26.594825744628906 7 -5.439394950866699
      vertex -26.301063537597656 7 -5.765650749206543
    endloop
  endfacet
  facet normal -0.7431446366285152 0 -0.6691308160967272
    outer loop
      vertex -26.594825744628906 7 -5.439394950866699
      vertex -26.301063537597656 5 -5.765650749206543
      vertex -26.594825744628906 5 -5.439394950866699
    endloop
  endfacet
  facet normal -0.8660261649080296 0 0.49999868169295236
    outer loop
      vertex -26.301063537597656 5 -8.23434829711914
      vertex -26.081554412841797 7 -7.8541460037231445
      vertex -26.301063537597656 7 -8.23434829711914
    endloop
  endfacet
  facet normal -0.8660261649080296 0 0.49999868169295236
    outer loop
      vertex -26.081554412841797 7 -7.8541460037231445
      vertex -26.301063537597656 5 -8.23434829711914
      vertex -26.081554412841797 5 -7.8541460037231445
    endloop
  endfacet
  facet normal -0.9510554896418336 0 0.3090201540711094
    outer loop
      vertex -26.081554412841797 5 -7.8541460037231445
      vertex -25.94588851928711 7 -7.436614036560059
      vertex -26.081554412841797 7 -7.8541460037231445
    endloop
  endfacet
  facet normal -0.9510554896418336 0 0.3090201540711094
    outer loop
      vertex -25.94588851928711 7 -7.436614036560059
      vertex -26.081554412841797 5 -7.8541460037231445
      vertex -25.94588851928711 5 -7.436614036560059
    endloop
  endfacet
  facet normal 0.40673725130175875 0 0.9135451868427144
    outer loop
      vertex -33.375 5 -9.381568908691406
      vertex -32.849796295166016 -8 -9.615405082702637
      vertex -32.849796295166016 5 -9.615405082702637
    endloop
  endfacet
  facet normal 0.40673725130175875 0 0.9135451868427144
    outer loop
      vertex -32.849796295166016 -8 -9.615405082702637
      vertex -33.375 5 -9.381568908691406
      vertex -33.375 -8 -9.381568908691406
    endloop
  endfacet
  facet normal 0.40673725130175875 0 -0.9135451868427144
    outer loop
      vertex -33.375 -8 -4.618430137634277
      vertex -32.849796295166016 5 -4.384593963623047
      vertex -32.849796295166016 -8 -4.384593963623047
    endloop
  endfacet
  facet normal 0.40673725130175875 0 -0.9135451868427144
    outer loop
      vertex -32.849796295166016 5 -4.384593963623047
      vertex -33.375 -8 -4.618430137634277
      vertex -33.375 5 -4.618430137634277
    endloop
  endfacet
  facet normal -0.7431463173562329 0 0.6691289494558349
    outer loop
      vertex -26.159889221191406 -8 -9.043647766113281
      vertex -25.775203704833984 5 -8.616409301757812
      vertex -26.159889221191406 5 -9.043647766113281
    endloop
  endfacet
  facet normal -0.7431463173562329 0 0.6691289494558349
    outer loop
      vertex -25.775203704833984 5 -8.616409301757812
      vertex -26.159889221191406 -8 -9.043647766113281
      vertex -25.775203704833984 -8 -8.616409301757812
    endloop
  endfacet
  facet normal 0.9945214206631415 0 -0.10453297968663593
    outer loop
      vertex -34.689903259277344 -8 -6.4282426834106445
      vertex -34.75 5 -7
      vertex -34.689903259277344 5 -6.4282426834106445
    endloop
  endfacet
  facet normal 0.9945214206631415 0 -0.10453297968663593
    outer loop
      vertex -34.75 5 -7
      vertex -34.689903259277344 -8 -6.4282426834106445
      vertex -34.75 -8 -7
    endloop
  endfacet
  facet normal -0.5877834097412029 0 0.8090183330635995
    outer loop
      vertex -26.625 5 -9.381568908691406
      vertex -26.159889221191406 -8 -9.043647766113281
      vertex -26.159889221191406 5 -9.043647766113281
    endloop
  endfacet
  facet normal -0.5877834097412029 0 0.8090183330635995
    outer loop
      vertex -26.159889221191406 -8 -9.043647766113281
      vertex -26.625 5 -9.381568908691406
      vertex -26.625 -8 -9.381568908691406
    endloop
  endfacet
  facet normal 0.20791152868589322 0 0.9781476351959836
    outer loop
      vertex -32.849796295166016 5 -9.615405082702637
      vertex -32.287452697753906 -8 -9.73493480682373
      vertex -32.287452697753906 5 -9.73493480682373
    endloop
  endfacet
  facet normal 0.20791152868589322 0 0.9781476351959836
    outer loop
      vertex -32.287452697753906 -8 -9.73493480682373
      vertex -32.849796295166016 5 -9.615405082702637
      vertex -32.849796295166016 -8 -9.615405082702637
    endloop
  endfacet
  facet normal 0 0 1
    outer loop
      vertex -32.287452697753906 5 -9.73493480682373
      vertex -27.712547302246094 -8 -9.73493480682373
      vertex -27.712547302246094 5 -9.73493480682373
    endloop
  endfacet
  facet normal 0 0 1
    outer loop
      vertex -27.712547302246094 -8 -9.73493480682373
      vertex -32.287452697753906 5 -9.73493480682373
      vertex -32.287452697753906 -8 -9.73493480682373
    endloop
  endfacet
  facet normal -0.40673725130175875 0 -0.9135451868427144
    outer loop
      vertex -27.150203704833984 -8 -4.384593963623047
      vertex -26.625 5 -4.618430137634277
      vertex -26.625 -8 -4.618430137634277
    endloop
  endfacet
  facet normal -0.40673725130175875 0 -0.9135451868427144
    outer loop
      vertex -26.625 5 -4.618430137634277
      vertex -27.150203704833984 -8 -4.384593963623047
      vertex -27.150203704833984 5 -4.384593963623047
    endloop
  endfacet
  facet normal -0.7431463173562329 0 -0.6691289494558349
    outer loop
      vertex -25.775203704833984 -8 -5.383589744567871
      vertex -26.159889221191406 5 -4.956351280212402
      vertex -25.775203704833984 5 -5.383589744567871
    endloop
  endfacet
  facet normal -0.7431463173562329 0 -0.6691289494558349
    outer loop
      vertex -26.159889221191406 5 -4.956351280212402
      vertex -25.775203704833984 -8 -5.383589744567871
      vertex -26.159889221191406 -8 -4.956351280212402
    endloop
  endfacet
  facet normal 0.20791152868589322 0 -0.9781476351959836
    outer loop
      vertex -32.849796295166016 -8 -4.384593963623047
      vertex -32.287452697753906 5 -4.265064239501953
      vertex -32.287452697753906 -8 -4.265064239501953
    endloop
  endfacet
  facet normal 0.20791152868589322 0 -0.9781476351959836
    outer loop
      vertex -32.287452697753906 5 -4.265064239501953
      vertex -32.849796295166016 -8 -4.384593963623047
      vertex -32.849796295166016 5 -4.384593963623047
    endloop
  endfacet
  facet normal -0.9510564599972432 0 -0.30901716764204573
    outer loop
      vertex -25.31009292602539 -8 -6.4282426834106445
      vertex -25.487749099731445 5 -5.881473541259766
      vertex -25.31009292602539 5 -6.4282426834106445
    endloop
  endfacet
  facet normal -0.9510564599972432 0 -0.30901716764204573
    outer loop
      vertex -25.487749099731445 5 -5.881473541259766
      vertex -25.31009292602539 -8 -6.4282426834106445
      vertex -25.487749099731445 -8 -5.881473541259766
    endloop
  endfacet
  facet normal -0.9945220923286388 0 0.10452658929797039
    outer loop
      vertex -25.31009292602539 -8 -7.571756362915039
      vertex -25.25 5 -7
      vertex -25.31009292602539 5 -7.571756362915039
    endloop
  endfacet
  facet normal -0.9945220923286388 0 0.10452658929797039
    outer loop
      vertex -25.25 5 -7
      vertex -25.31009292602539 -8 -7.571756362915039
      vertex -25.25 -8 -7
    endloop
  endfacet
  facet normal 0.7431463173562329 0 0.6691289494558349
    outer loop
      vertex -34.224796295166016 -8 -8.616409301757812
      vertex -33.840110778808594 5 -9.043647766113281
      vertex -34.224796295166016 5 -8.616409301757812
    endloop
  endfacet
  facet normal 0.7431463173562329 0 0.6691289494558349
    outer loop
      vertex -33.840110778808594 5 -9.043647766113281
      vertex -34.224796295166016 -8 -8.616409301757812
      vertex -33.840110778808594 -8 -9.043647766113281
    endloop
  endfacet
  facet normal -0.99452211045272 0 -0.10452641685558677
    outer loop
      vertex -25.25 -8 -7
      vertex -25.31009292602539 5 -6.4282426834106445
      vertex -25.25 5 -7
    endloop
  endfacet
  facet normal -0.99452211045272 0 -0.10452641685558677
    outer loop
      vertex -25.31009292602539 5 -6.4282426834106445
      vertex -25.25 -8 -7
      vertex -25.31009292602539 -8 -6.4282426834106445
    endloop
  endfacet
  facet normal -0.40673725130175875 0 0.9135451868427144
    outer loop
      vertex -27.150203704833984 5 -9.615405082702637
      vertex -26.625 -8 -9.381568908691406
      vertex -26.625 5 -9.381568908691406
    endloop
  endfacet
  facet normal -0.40673725130175875 0 0.9135451868427144
    outer loop
      vertex -26.625 -8 -9.381568908691406
      vertex -27.150203704833984 5 -9.615405082702637
      vertex -27.150203704833984 -8 -9.615405082702637
    endloop
  endfacet
  facet normal -0.8660244539709324 0 0.500001645121642
    outer loop
      vertex -25.775203704833984 -8 -8.616409301757812
      vertex -25.487749099731445 5 -8.118525505065918
      vertex -25.775203704833984 5 -8.616409301757812
    endloop
  endfacet
  facet normal -0.8660244539709324 0 0.500001645121642
    outer loop
      vertex -25.487749099731445 5 -8.118525505065918
      vertex -25.775203704833984 -8 -8.616409301757812
      vertex -25.487749099731445 -8 -8.118525505065918
    endloop
  endfacet
  facet normal -0.20791152868589322 0 0.9781476351959836
    outer loop
      vertex -27.712547302246094 5 -9.73493480682373
      vertex -27.150203704833984 -8 -9.615405082702637
      vertex -27.150203704833984 5 -9.615405082702637
    endloop
  endfacet
  facet normal -0.20791152868589322 0 0.9781476351959836
    outer loop
      vertex -27.150203704833984 -8 -9.615405082702637
      vertex -27.712547302246094 5 -9.73493480682373
      vertex -27.712547302246094 -8 -9.73493480682373
    endloop
  endfacet
  facet normal 0.8660258905630314 0 0.49999915687379765
    outer loop
      vertex -34.51224899291992 -8 -8.118525505065918
      vertex -34.224796295166016 5 -8.616409301757812
      vertex -34.51224899291992 5 -8.118525505065918
    endloop
  endfacet
  facet normal 0.8660258905630314 0 0.49999915687379765
    outer loop
      vertex -34.224796295166016 5 -8.616409301757812
      vertex -34.51224899291992 -8 -8.118525505065918
      vertex -34.224796295166016 -8 -8.616409301757812
    endloop
  endfacet
  facet normal -0.5877834097412029 0 -0.8090183330635995
    outer loop
      vertex -26.625 -8 -4.618430137634277
      vertex -26.159889221191406 5 -4.956351280212402
      vertex -26.159889221191406 -8 -4.956351280212402
    endloop
  endfacet
  facet normal -0.5877834097412029 0 -0.8090183330635995
    outer loop
      vertex -26.159889221191406 5 -4.956351280212402
      vertex -26.625 -8 -4.618430137634277
      vertex -26.625 5 -4.618430137634277
    endloop
  endfacet
  facet normal 0.5877834097412029 0 -0.8090183330635995
    outer loop
      vertex -33.840110778808594 -8 -4.956351280212402
      vertex -33.375 5 -4.618430137634277
      vertex -33.375 -8 -4.618430137634277
    endloop
  endfacet
  facet normal 0.5877834097412029 0 -0.8090183330635995
    outer loop
      vertex -33.375 5 -4.618430137634277
      vertex -33.840110778808594 -8 -4.956351280212402
      vertex -33.840110778808594 5 -4.956351280212402
    endloop
  endfacet
  facet normal 0 0 -1
    outer loop
      vertex -32.287452697753906 -8 -4.265064239501953
      vertex -27.712547302246094 5 -4.265064239501953
      vertex -27.712547302246094 -8 -4.265064239501953
    endloop
  endfacet
  facet normal 0 0 -1
    outer loop
      vertex -27.712547302246094 5 -4.265064239501953
      vertex -32.287452697753906 -8 -4.265064239501953
      vertex -32.287452697753906 5 -4.265064239501953
    endloop
  endfacet
  facet normal -0.9510564599972432 0 0.30901716764204573
    outer loop
      vertex -25.487749099731445 -8 -8.118525505065918
      vertex -25.31009292602539 5 -7.571756362915039
      vertex -25.487749099731445 5 -8.118525505065918
    endloop
  endfacet
  facet normal -0.9510564599972432 0 0.30901716764204573
    outer loop
      vertex -25.31009292602539 5 -7.571756362915039
      vertex -25.487749099731445 -8 -8.118525505065918
      vertex -25.31009292602539 -8 -7.571756362915039
    endloop
  endfacet
  facet normal 0.994521402536797 0 0.10453315213960736
    outer loop
      vertex -34.75 -8 -7
      vertex -34.689903259277344 5 -7.571756362915039
      vertex -34.75 5 -7
    endloop
  endfacet
  facet normal 0.994521402536797 0 0.10453315213960736
    outer loop
      vertex -34.689903259277344 5 -7.571756362915039
      vertex -34.75 -8 -7
      vertex -34.689903259277344 -8 -7.571756362915039
    endloop
  endfacet
  facet normal -0.8660244539709324 0 -0.500001645121642
    outer loop
      vertex -25.487749099731445 -8 -5.881473541259766
      vertex -25.775203704833984 5 -5.383589744567871
      vertex -25.487749099731445 5 -5.881473541259766
    endloop
  endfacet
  facet normal -0.8660244539709324 0 -0.500001645121642
    outer loop
      vertex -25.775203704833984 5 -5.383589744567871
      vertex -25.487749099731445 -8 -5.881473541259766
      vertex -25.775203704833984 -8 -5.383589744567871
    endloop
  endfacet
  facet normal 0.7431463173562329 0 -0.6691289494558349
    outer loop
      vertex -33.840110778808594 -8 -4.956351280212402
      vertex -34.224796295166016 5 -5.383589744567871
      vertex -33.840110778808594 5 -4.956351280212402
    endloop
  endfacet
  facet normal 0.7431463173562329 0 -0.6691289494558349
    outer loop
      vertex -34.224796295166016 5 -5.383589744567871
      vertex -33.840110778808594 -8 -4.956351280212402
      vertex -34.224796295166016 -8 -5.383589744567871
    endloop
  endfacet
  facet normal 0.9510574350309505 0 -0.3090141667826075
    outer loop
      vertex -34.51224899291992 -8 -5.881473541259766
      vertex -34.689903259277344 5 -6.4282426834106445
      vertex -34.51224899291992 5 -5.881473541259766
    endloop
  endfacet
  facet normal 0.9510574350309505 0 -0.3090141667826075
    outer loop
      vertex -34.689903259277344 5 -6.4282426834106445
      vertex -34.51224899291992 -8 -5.881473541259766
      vertex -34.689903259277344 -8 -6.4282426834106445
    endloop
  endfacet
  facet normal 0.5877834097412029 0 0.8090183330635995
    outer loop
      vertex -33.840110778808594 5 -9.043647766113281
      vertex -33.375 -8 -9.381568908691406
      vertex -33.375 5 -9.381568908691406
    endloop
  endfacet
  facet normal 0.5877834097412029 0 0.8090183330635995
    outer loop
      vertex -33.375 -8 -9.381568908691406
      vertex -33.840110778808594 5 -9.043647766113281
      vertex -33.840110778808594 -8 -9.043647766113281
    endloop
  endfacet
  facet normal -0.20791152868589322 0 -0.9781476351959836
    outer loop
      vertex -27.712547302246094 -8 -4.265064239501953
      vertex -27.150203704833984 5 -4.384593963623047
      vertex -27.150203704833984 -8 -4.384593963623047
    endloop
  endfacet
  facet normal -0.20791152868589322 0 -0.9781476351959836
    outer loop
      vertex -27.150203704833984 5 -4.384593963623047
      vertex -27.712547302246094 -8 -4.265064239501953
      vertex -27.712547302246094 5 -4.265064239501953
    endloop
  endfacet
  facet normal 0.8660258905630314 0 -0.49999915687379765
    outer loop
      vertex -34.224796295166016 -8 -5.383589744567871
      vertex -34.51224899291992 5 -5.881473541259766
      vertex -34.224796295166016 5 -5.383589744567871
    endloop
  endfacet
  facet normal 0.8660258905630314 0 -0.49999915687379765
    outer loop
      vertex -34.51224899291992 5 -5.881473541259766
      vertex -34.224796295166016 -8 -5.383589744567871
      vertex -34.51224899291992 -8 -5.881473541259766
    endloop
  endfacet
  facet normal 0 -1 0
    outer loop
      vertex -32.21950912475586 5 -4.911503791809082
      vertex -32.287452697753906 5 -4.265064239501953
      vertex -32.849796295166016 5 -4.384593963623047
    endloop
  endfacet
  facet normal 0 -1 0
    outer loop
      vertex -32.287452697753906 5 -4.265064239501953
      vertex -32.21950912475586 5 -4.911503791809082
      vertex -27.712547302246094 5 -4.265064239501953
    endloop
  endfacet
  facet normal 0 -1 0
    outer loop
      vertex -32.64893341064453 5 -5.002780914306641
      vertex -32.849796295166016 5 -4.384593963623047
      vertex -33.375 5 -4.618430137634277
    endloop
  endfacet
  facet normal 0 -1 0
    outer loop
      vertex -27.78049087524414 5 -4.911503791809082
      vertex -27.712547302246094 5 -4.265064239501953
      vertex -32.21950912475586 5 -4.911503791809082
    endloop
  endfacet
  facet normal 0 -1 0
    outer loop
      vertex -27.712547302246094 5 -4.265064239501953
      vertex -27.78049087524414 5 -4.911503791809082
      vertex -27.150203704833984 5 -4.384593963623047
    endloop
  endfacet
  facet normal 0 -1 0
    outer loop
      vertex -33.04999923706055 5 -5.1813459396362305
      vertex -33.375 5 -4.618430137634277
      vertex -33.840110778808594 5 -4.956351280212402
    endloop
  endfacet
  facet normal 0 -1 0
    outer loop
      vertex -32.849796295166016 5 -4.384593963623047
      vertex -32.64893341064453 5 -5.002780914306641
      vertex -32.21950912475586 5 -4.911503791809082
    endloop
  endfacet
  facet normal 0 -1 0
    outer loop
      vertex -33.375 5 -4.618430137634277
      vertex -33.04999923706055 5 -5.1813459396362305
      vertex -32.64893341064453 5 -5.002780914306641
    endloop
  endfacet
  facet normal 0 -1 0
    outer loop
      vertex -33.405174255371094 5 -5.439394950866699
      vertex -33.840110778808594 5 -4.956351280212402
      vertex -34.224796295166016 5 -5.383589744567871
    endloop
  endfacet
  facet normal 0 -1 0
    outer loop
      vertex -33.840110778808594 5 -4.956351280212402
      vertex -33.405174255371094 5 -5.439394950866699
      vertex -33.04999923706055 5 -5.1813459396362305
    endloop
  endfacet
  facet normal 0 -1 0
    outer loop
      vertex -34.224796295166016 5 -5.383589744567871
      vertex -33.698936462402344 5 -5.765650749206543
      vertex -33.405174255371094 5 -5.439394950866699
    endloop
  endfacet
  facet normal 0 -1 0
    outer loop
      vertex -34.51224899291992 5 -5.881473541259766
      vertex -33.698936462402344 5 -5.765650749206543
      vertex -34.224796295166016 5 -5.383589744567871
    endloop
  endfacet
  facet normal 0 -1 0
    outer loop
      vertex -34.51224899291992 5 -5.881473541259766
      vertex -33.9184455871582 5 -6.145853042602539
      vertex -33.698936462402344 5 -5.765650749206543
    endloop
  endfacet
  facet normal 0 -1 0
    outer loop
      vertex -34.689903259277344 5 -6.4282426834106445
      vertex -33.9184455871582 5 -6.145853042602539
      vertex -34.51224899291992 5 -5.881473541259766
    endloop
  endfacet
  facet normal 0 -1 0
    outer loop
      vertex -34.689903259277344 5 -6.4282426834106445
      vertex -34.054107666015625 5 -6.563385009765625
      vertex -33.9184455871582 5 -6.145853042602539
    endloop
  endfacet
  facet normal 0 -1 0
    outer loop
      vertex -34.75 5 -7
      vertex -34.054107666015625 5 -6.563385009765625
      vertex -34.689903259277344 5 -6.4282426834106445
    endloop
  endfacet
  facet normal 0 -1 0
    outer loop
      vertex -34.75 5 -7
      vertex -34.099998474121094 5 -7
      vertex -34.054107666015625 5 -6.563385009765625
    endloop
  endfacet
  facet normal 0 -1 0
    outer loop
      vertex -34.75 5 -7
      vertex -34.054107666015625 5 -7.436614036560059
      vertex -34.099998474121094 5 -7
    endloop
  endfacet
  facet normal 0 -1 0
    outer loop
      vertex -34.689903259277344 5 -7.571756362915039
      vertex -34.054107666015625 5 -7.436614036560059
      vertex -34.75 5 -7
    endloop
  endfacet
  facet normal 0 -1 0
    outer loop
      vertex -34.689903259277344 5 -7.571756362915039
      vertex -33.9184455871582 5 -7.8541460037231445
      vertex -34.054107666015625 5 -7.436614036560059
    endloop
  endfacet
  facet normal 0 -1 0
    outer loop
      vertex -34.51224899291992 5 -8.118525505065918
      vertex -33.9184455871582 5 -7.8541460037231445
      vertex -34.689903259277344 5 -7.571756362915039
    endloop
  endfacet
  facet normal 0 -1 0
    outer loop
      vertex -34.51224899291992 5 -8.118525505065918
      vertex -33.698936462402344 5 -8.23434829711914
      vertex -33.9184455871582 5 -7.8541460037231445
    endloop
  endfacet
  facet normal 0 -1 0
    outer loop
      vertex -34.224796295166016 5 -8.616409301757812
      vertex -33.698936462402344 5 -8.23434829711914
      vertex -34.51224899291992 5 -8.118525505065918
    endloop
  endfacet
  facet normal 0 -1 0
    outer loop
      vertex -33.698936462402344 5 -8.23434829711914
      vertex -34.224796295166016 5 -8.616409301757812
      vertex -33.405174255371094 5 -8.560604095458984
    endloop
  endfacet
  facet normal 0 -1 0
    outer loop
      vertex -33.840110778808594 5 -9.043647766113281
      vertex -33.405174255371094 5 -8.560604095458984
      vertex -34.224796295166016 5 -8.616409301757812
    endloop
  endfacet
  facet normal 0 -1 0
    outer loop
      vertex -33.405174255371094 5 -8.560604095458984
      vertex -33.840110778808594 5 -9.043647766113281
      vertex -33.04999923706055 5 -8.818653106689453
    endloop
  endfacet
  facet normal 0 -1 0
    outer loop
      vertex -33.375 5 -9.381568908691406
      vertex -33.04999923706055 5 -8.818653106689453
      vertex -33.840110778808594 5 -9.043647766113281
    endloop
  endfacet
  facet normal 0 -1 0
    outer loop
      vertex -33.04999923706055 5 -8.818653106689453
      vertex -33.375 5 -9.381568908691406
      vertex -32.64893341064453 5 -8.997218132019043
    endloop
  endfacet
  facet normal 0 -1 0
    outer loop
      vertex -32.64893341064453 5 -8.997218132019043
      vertex -32.849796295166016 5 -9.615405082702637
      vertex -32.21950912475586 5 -9.088495254516602
    endloop
  endfacet
  facet normal 0 -1 0
    outer loop
      vertex -32.849796295166016 5 -9.615405082702637
      vertex -32.64893341064453 5 -8.997218132019043
      vertex -33.375 5 -9.381568908691406
    endloop
  endfacet
  facet normal 0 -1 0
    outer loop
      vertex -27.351062774658203 5 -5.002780914306641
      vertex -27.150203704833984 5 -4.384593963623047
      vertex -27.78049087524414 5 -4.911503791809082
    endloop
  endfacet
  facet normal 0 -1 0
    outer loop
      vertex -27.150203704833984 5 -4.384593963623047
      vertex -27.351062774658203 5 -5.002780914306641
      vertex -26.625 5 -4.618430137634277
    endloop
  endfacet
  facet normal 0 -1 0
    outer loop
      vertex -26.950000762939453 5 -5.1813459396362305
      vertex -26.625 5 -4.618430137634277
      vertex -27.351062774658203 5 -5.002780914306641
    endloop
  endfacet
  facet normal 0 -1 0
    outer loop
      vertex -26.625 5 -4.618430137634277
      vertex -26.950000762939453 5 -5.1813459396362305
      vertex -26.159889221191406 5 -4.956351280212402
    endloop
  endfacet
  facet normal 0 -1 0
    outer loop
      vertex -26.594825744628906 5 -5.439394950866699
      vertex -26.159889221191406 5 -4.956351280212402
      vertex -26.950000762939453 5 -5.1813459396362305
    endloop
  endfacet
  facet normal 0 -1 0
    outer loop
      vertex -26.159889221191406 5 -4.956351280212402
      vertex -26.594825744628906 5 -5.439394950866699
      vertex -25.775203704833984 5 -5.383589744567871
    endloop
  endfacet
  facet normal 0 -1 0
    outer loop
      vertex -26.301063537597656 5 -5.765650749206543
      vertex -25.775203704833984 5 -5.383589744567871
      vertex -26.594825744628906 5 -5.439394950866699
    endloop
  endfacet
  facet normal 0 -1 0
    outer loop
      vertex -26.301063537597656 5 -5.765650749206543
      vertex -25.487749099731445 5 -5.881473541259766
      vertex -25.775203704833984 5 -5.383589744567871
    endloop
  endfacet
  facet normal 0 -1 0
    outer loop
      vertex -26.081554412841797 5 -6.145853042602539
      vertex -25.487749099731445 5 -5.881473541259766
      vertex -26.301063537597656 5 -5.765650749206543
    endloop
  endfacet
  facet normal 0 -1 0
    outer loop
      vertex -26.081554412841797 5 -6.145853042602539
      vertex -25.31009292602539 5 -6.4282426834106445
      vertex -25.487749099731445 5 -5.881473541259766
    endloop
  endfacet
  facet normal 0 -1 0
    outer loop
      vertex -25.94588851928711 5 -6.563385009765625
      vertex -25.31009292602539 5 -6.4282426834106445
      vertex -26.081554412841797 5 -6.145853042602539
    endloop
  endfacet
  facet normal 0 -1 0
    outer loop
      vertex -25.899999618530273 5 -7
      vertex -25.31009292602539 5 -6.4282426834106445
      vertex -25.94588851928711 5 -6.563385009765625
    endloop
  endfacet
  facet normal 0 -1 0
    outer loop
      vertex -25.899999618530273 5 -7
      vertex -25.25 5 -7
      vertex -25.31009292602539 5 -6.4282426834106445
    endloop
  endfacet
  facet normal 0 -1 0
    outer loop
      vertex -25.94588851928711 5 -7.436614036560059
      vertex -25.25 5 -7
      vertex -25.899999618530273 5 -7
    endloop
  endfacet
  facet normal 0 -1 0
    outer loop
      vertex -25.94588851928711 5 -7.436614036560059
      vertex -25.31009292602539 5 -7.571756362915039
      vertex -25.25 5 -7
    endloop
  endfacet
  facet normal 0 -1 0
    outer loop
      vertex -26.081554412841797 5 -7.8541460037231445
      vertex -25.31009292602539 5 -7.571756362915039
      vertex -25.94588851928711 5 -7.436614036560059
    endloop
  endfacet
  facet normal 0 -1 0
    outer loop
      vertex -26.081554412841797 5 -7.8541460037231445
      vertex -25.487749099731445 5 -8.118525505065918
      vertex -25.31009292602539 5 -7.571756362915039
    endloop
  endfacet
  facet normal 0 -1 0
    outer loop
      vertex -26.301063537597656 5 -8.23434829711914
      vertex -25.487749099731445 5 -8.118525505065918
      vertex -26.081554412841797 5 -7.8541460037231445
    endloop
  endfacet
  facet normal 0 -1 0
    outer loop
      vertex -25.775203704833984 5 -8.616409301757812
      vertex -26.301063537597656 5 -8.23434829711914
      vertex -26.594825744628906 5 -8.560604095458984
    endloop
  endfacet
  facet normal 0 -1 0
    outer loop
      vertex -26.301063537597656 5 -8.23434829711914
      vertex -25.775203704833984 5 -8.616409301757812
      vertex -25.487749099731445 5 -8.118525505065918
    endloop
  endfacet
  facet normal 0 -1 0
    outer loop
      vertex -26.159889221191406 5 -9.043647766113281
      vertex -26.594825744628906 5 -8.560604095458984
      vertex -26.950000762939453 5 -8.818653106689453
    endloop
  endfacet
  facet normal 0 -1 0
    outer loop
      vertex -26.625 5 -9.381568908691406
      vertex -26.950000762939453 5 -8.818653106689453
      vertex -27.351062774658203 5 -8.997218132019043
    endloop
  endfacet
  facet normal 0 -1 0
    outer loop
      vertex -26.594825744628906 5 -8.560604095458984
      vertex -26.159889221191406 5 -9.043647766113281
      vertex -25.775203704833984 5 -8.616409301757812
    endloop
  endfacet
  facet normal 0 -1 0
    outer loop
      vertex -27.150203704833984 5 -9.615405082702637
      vertex -27.351062774658203 5 -8.997218132019043
      vertex -27.78049087524414 5 -9.088495254516602
    endloop
  endfacet
  facet normal 0 -1 0
    outer loop
      vertex -32.21950912475586 5 -9.088495254516602
      vertex -32.287452697753906 5 -9.73493480682373
      vertex -27.78049087524414 5 -9.088495254516602
    endloop
  endfacet
  facet normal 0 -1 0
    outer loop
      vertex -27.712547302246094 5 -9.73493480682373
      vertex -27.78049087524414 5 -9.088495254516602
      vertex -32.287452697753906 5 -9.73493480682373
    endloop
  endfacet
  facet normal 0 -1 0
    outer loop
      vertex -32.21950912475586 5 -9.088495254516602
      vertex -32.849796295166016 5 -9.615405082702637
      vertex -32.287452697753906 5 -9.73493480682373
    endloop
  endfacet
  facet normal 0 -1 0
    outer loop
      vertex -27.150203704833984 5 -9.615405082702637
      vertex -27.78049087524414 5 -9.088495254516602
      vertex -27.712547302246094 5 -9.73493480682373
    endloop
  endfacet
  facet normal 0 -1 0
    outer loop
      vertex -26.950000762939453 5 -8.818653106689453
      vertex -26.625 5 -9.381568908691406
      vertex -26.159889221191406 5 -9.043647766113281
    endloop
  endfacet
  facet normal 0 -1 0
    outer loop
      vertex -27.351062774658203 5 -8.997218132019043
      vertex -27.150203704833984 5 -9.615405082702637
      vertex -26.625 5 -9.381568908691406
    endloop
  endfacet
  facet normal 0.9510574350309505 0 0.3090141667826075
    outer loop
      vertex -34.689903259277344 -8 -7.571756362915039
      vertex -34.51224899291992 5 -8.118525505065918
      vertex -34.689903259277344 5 -7.571756362915039
    endloop
  endfacet
  facet normal 0.9510574350309505 0 0.3090141667826075
    outer loop
      vertex -34.51224899291992 5 -8.118525505065918
      vertex -34.689903259277344 -8 -7.571756362915039
      vertex -34.51224899291992 -8 -8.118525505065918
    endloop
  endfacet
endsolid OpenSCAD_Model
