solid OpenSCAD_Model
  facet normal 0.691622 -0.399295 0.601849
    outer loop
      vertex 12.0378 30 5.5
      vertex 10.7431 27.0038 5
      vertex 12.4729 30 5
    endloop
  endfacet
  facet normal -0.691578 -0.399285 0.601907
    outer loop
      vertex -10.7431 27.0038 5
      vertex -6.01888 19.575 5.5
      vertex -12.0378 30 5.5
    endloop
  endfacet
  facet normal -0.691564 -0.399275 0.601929
    outer loop
      vertex -6.01888 19.575 5.5
      vertex -10.7431 27.0038 5
      vertex -6.23647 19.1981 5
    endloop
  endfacet
  facet normal 0.691622 0.399295 0.601849
    outer loop
      vertex 12.4729 30 5
      vertex 10.7431 32.9962 5
      vertex 12.0378 30 5.5
    endloop
  endfacet
  facet normal -0.691622 -0.399295 0.601849
    outer loop
      vertex -12.0378 30 5.5
      vertex -12.4729 30 5
      vertex -10.7431 27.0038 5
    endloop
  endfacet
  facet normal 0 0 1
    outer loop
      vertex 6.55292 39.5 5.5
      vertex 8.57365 30 5.5
      vertex 12.0378 30 5.5
    endloop
  endfacet
  facet normal 0 0 1
    outer loop
      vertex 6.55292 39.5 5.5
      vertex 4.28683 37.425 5.5
      vertex 8.57365 30 5.5
    endloop
  endfacet
  facet normal 0 0 1
    outer loop
      vertex 6.55292 39.5 5.5
      vertex -4.28683 37.425 5.5
      vertex 4.28683 37.425 5.5
    endloop
  endfacet
  facet normal -0 0 1
    outer loop
      vertex -6.55292 39.5 5.5
      vertex -4.28683 37.425 5.5
      vertex 6.55292 39.5 5.5
    endloop
  endfacet
  facet normal 0 0 1
    outer loop
      vertex -6.55292 39.5 5.5
      vertex -8.57365 30 5.5
      vertex -4.28683 37.425 5.5
    endloop
  endfacet
  facet normal 0 -0 1
    outer loop
      vertex -8.57365 30 5.5
      vertex -6.55292 39.5 5.5
      vertex -12.0378 30 5.5
    endloop
  endfacet
  facet normal -0 0 1
    outer loop
      vertex 8.57365 30 5.5
      vertex 6.01888 19.575 5.5
      vertex 12.0378 30 5.5
    endloop
  endfacet
  facet normal -0 0 1
    outer loop
      vertex 4.28683 22.575 5.5
      vertex 6.01888 19.575 5.5
      vertex 8.57365 30 5.5
    endloop
  endfacet
  facet normal -0 0 1
    outer loop
      vertex 0.5 10.65 5.5
      vertex 6 4.5 5.5
      vertex 6 19.575 5.5
    endloop
  endfacet
  facet normal 0 0 1
    outer loop
      vertex -6 4.5 5.5
      vertex 6 4.5 5.5
      vertex 0.5 10.65 5.5
    endloop
  endfacet
  facet normal -0 0 1
    outer loop
      vertex 0.5 22.575 5.5
      vertex 6 19.575 5.5
      vertex 4.28683 22.575 5.5
    endloop
  endfacet
  facet normal 0 0 1
    outer loop
      vertex 6.01888 19.575 5.5
      vertex 4.28683 22.575 5.5
      vertex 6 19.575 5.5
    endloop
  endfacet
  facet normal -0 0 1
    outer loop
      vertex 6 4.5 5.5
      vertex 10 -4.5 5.5
      vertex 10 4.5 5.5
    endloop
  endfacet
  facet normal 0 0 1
    outer loop
      vertex 10 -4.5 5.5
      vertex 6 4.5 5.5
      vertex 6 -4.5 5.5
    endloop
  endfacet
  facet normal 0 0 1
    outer loop
      vertex 6.01888 -19.575 5.5
      vertex 8.57365 -30 5.5
      vertex 12.0378 -30 5.5
    endloop
  endfacet
  facet normal 0 0 1
    outer loop
      vertex 4.28683 -22.575 5.5
      vertex 6.01888 -19.575 5.5
      vertex 6 -19.575 5.5
    endloop
  endfacet
  facet normal 0 0 1
    outer loop
      vertex 6.01888 -19.575 5.5
      vertex 4.28683 -22.575 5.5
      vertex 8.57365 -30 5.5
    endloop
  endfacet
  facet normal 0 0 1
    outer loop
      vertex -6 4.5 5.5
      vertex 0.5 10.65 5.5
      vertex -0.5 10.65 5.5
    endloop
  endfacet
  facet normal 0 0 1
    outer loop
      vertex 6 19.575 5.5
      vertex 0.5 22.575 5.5
      vertex 0.5 10.65 5.5
    endloop
  endfacet
  facet normal 0 0 1
    outer loop
      vertex 6 -4.5 5.5
      vertex 0.5 -10.65 5.5
      vertex 6 -19.575 5.5
    endloop
  endfacet
  facet normal 0 0 1
    outer loop
      vertex 0.5 -22.575 5.5
      vertex 6 -19.575 5.5
      vertex 0.5 -10.65 5.5
    endloop
  endfacet
  facet normal 0 0 1
    outer loop
      vertex 6 -19.575 5.5
      vertex 0.5 -22.575 5.5
      vertex 4.28683 -22.575 5.5
    endloop
  endfacet
  facet normal -0 0 1
    outer loop
      vertex 8.57365 -30 5.5
      vertex 6.55292 -39.5 5.5
      vertex 12.0378 -30 5.5
    endloop
  endfacet
  facet normal -0 0 1
    outer loop
      vertex 4.28683 -37.425 5.5
      vertex 6.55292 -39.5 5.5
      vertex 8.57365 -30 5.5
    endloop
  endfacet
  facet normal -0 0 1
    outer loop
      vertex -4.28683 -37.425 5.5
      vertex 6.55292 -39.5 5.5
      vertex 4.28683 -37.425 5.5
    endloop
  endfacet
  facet normal 0 0 1
    outer loop
      vertex -4.28683 -37.425 5.5
      vertex -6.55292 -39.5 5.5
      vertex 6.55292 -39.5 5.5
    endloop
  endfacet
  facet normal 0 0 1
    outer loop
      vertex -8.57365 -30 5.5
      vertex -6.55292 -39.5 5.5
      vertex -4.28683 -37.425 5.5
    endloop
  endfacet
  facet normal 0 0 1
    outer loop
      vertex -6.55292 -39.5 5.5
      vertex -8.57365 -30 5.5
      vertex -12.0378 -30 5.5
    endloop
  endfacet
  facet normal -0 0 1
    outer loop
      vertex -10 4.5 5.5
      vertex -6 -4.5 5.5
      vertex -6 4.5 5.5
    endloop
  endfacet
  facet normal 0 0 1
    outer loop
      vertex -6 -4.5 5.5
      vertex -10 4.5 5.5
      vertex -10 -4.5 5.5
    endloop
  endfacet
  facet normal -0 0 1
    outer loop
      vertex -6 19.575 5.5
      vertex -0.5 10.65 5.5
      vertex -0.5 22.575 5.5
    endloop
  endfacet
  facet normal 0 0 1
    outer loop
      vertex -6 -4.5 5.5
      vertex 6 -4.5 5.5
      vertex -6 4.5 5.5
    endloop
  endfacet
  facet normal 0 0 1
    outer loop
      vertex -6 19.575 5.5
      vertex -0.5 22.575 5.5
      vertex -4.28683 22.575 5.5
    endloop
  endfacet
  facet normal 0 0 1
    outer loop
      vertex 6 -4.5 5.5
      vertex -6 -4.5 5.5
      vertex -0.5 -10.65 5.5
    endloop
  endfacet
  facet normal 0 0 1
    outer loop
      vertex -0.5 10.65 5.5
      vertex -6 19.575 5.5
      vertex -6 4.5 5.5
    endloop
  endfacet
  facet normal 0 0 1
    outer loop
      vertex -4.28683 22.575 5.5
      vertex -6.01888 19.575 5.5
      vertex -6 19.575 5.5
    endloop
  endfacet
  facet normal 0 0 1
    outer loop
      vertex -8.57365 30 5.5
      vertex -6.01888 19.575 5.5
      vertex -4.28683 22.575 5.5
    endloop
  endfacet
  facet normal 0 0 1
    outer loop
      vertex -6.01888 19.575 5.5
      vertex -8.57365 30 5.5
      vertex -12.0378 30 5.5
    endloop
  endfacet
  facet normal 0 0 1
    outer loop
      vertex 6 4.5 5.5
      vertex -6 4.5 5.5
      vertex 6 -4.5 5.5
    endloop
  endfacet
  facet normal 0 0 1
    outer loop
      vertex 6 -4.5 5.5
      vertex -0.5 -10.65 5.5
      vertex 0.5 -10.65 5.5
    endloop
  endfacet
  facet normal 0 0 1
    outer loop
      vertex -6 -19.575 5.5
      vertex -0.5 -10.65 5.5
      vertex -6 -4.5 5.5
    endloop
  endfacet
  facet normal 0 0 1
    outer loop
      vertex -0.5 -10.65 5.5
      vertex -6 -19.575 5.5
      vertex -0.5 -22.575 5.5
    endloop
  endfacet
  facet normal 0 0 1
    outer loop
      vertex -0.5 -22.575 5.5
      vertex -6 -19.575 5.5
      vertex -4.28683 -22.575 5.5
    endloop
  endfacet
  facet normal -0 0 1
    outer loop
      vertex -6.01888 -19.575 5.5
      vertex -4.28683 -22.575 5.5
      vertex -6 -19.575 5.5
    endloop
  endfacet
  facet normal 0 0 1
    outer loop
      vertex -6.01888 -19.575 5.5
      vertex -8.57365 -30 5.5
      vertex -4.28683 -22.575 5.5
    endloop
  endfacet
  facet normal 0 -0 1
    outer loop
      vertex -8.57365 -30 5.5
      vertex -6.01888 -19.575 5.5
      vertex -12.0378 -30 5.5
    endloop
  endfacet
  facet normal 0.691566 0.399278 0.601925
    outer loop
      vertex 6.55292 39.5 5.5
      vertex 10.7431 32.9962 5
      vertex 6.98811 39.5 5
    endloop
  endfacet
  facet normal 0.691575 0.399285 0.60191
    outer loop
      vertex 10.7431 32.9962 5
      vertex 6.55292 39.5 5.5
      vertex 12.0378 30 5.5
    endloop
  endfacet
  facet normal 0.691578 -0.399285 0.601907
    outer loop
      vertex 6.01888 19.575 5.5
      vertex 10.7431 27.0038 5
      vertex 12.0378 30 5.5
    endloop
  endfacet
  facet normal 0.691564 -0.399275 0.601929
    outer loop
      vertex 10.7431 27.0038 5
      vertex 6.01888 19.575 5.5
      vertex 6.23647 19.1981 5
    endloop
  endfacet
  facet normal -0.691622 0.399295 0.601849
    outer loop
      vertex -10.7431 32.9962 5
      vertex -12.4729 30 5
      vertex -12.0378 30 5.5
    endloop
  endfacet
  facet normal -0.691566 0.399278 0.601925
    outer loop
      vertex -10.7431 32.9962 5
      vertex -6.55292 39.5 5.5
      vertex -6.98811 39.5 5
    endloop
  endfacet
  facet normal -0.691575 0.399285 0.60191
    outer loop
      vertex -6.55292 39.5 5.5
      vertex -10.7431 32.9962 5
      vertex -12.0378 30 5.5
    endloop
  endfacet
  facet normal 0 -0.798541 0.60194
    outer loop
      vertex -6.22222 19.1981 5
      vertex -6.01888 19.575 5.5
      vertex -6.23647 19.1981 5
    endloop
  endfacet
  facet normal 0 -0.798541 0.60194
    outer loop
      vertex -6.01888 19.575 5.5
      vertex -6.22222 19.1981 5
      vertex -6 19.575 5.5
    endloop
  endfacet
  facet normal 0 -0.798541 0.60194
    outer loop
      vertex 6.22222 19.1981 5
      vertex 6.01888 19.575 5.5
      vertex 6 19.575 5.5
    endloop
  endfacet
  facet normal 0 -0.798541 0.60194
    outer loop
      vertex 6.01888 19.575 5.5
      vertex 6.22222 19.1981 5
      vertex 6.23647 19.1981 5
    endloop
  endfacet
  facet normal 0.691622 -0.399295 0.601849
    outer loop
      vertex 12.0378 -30 5.5
      vertex 10.7431 -32.9962 5
      vertex 12.4729 -30 5
    endloop
  endfacet
  facet normal -0 0.798541 0.60194
    outer loop
      vertex 6.22222 -19.1981 5
      vertex 6.01888 -19.575 5.5
      vertex 6.23647 -19.1981 5
    endloop
  endfacet
  facet normal 0 0.798541 0.60194
    outer loop
      vertex 6.01888 -19.575 5.5
      vertex 6.22222 -19.1981 5
      vertex 6 -19.575 5.5
    endloop
  endfacet
  facet normal 0 0.798541 0.60194
    outer loop
      vertex -6.22222 -19.1981 5
      vertex -6.01888 -19.575 5.5
      vertex -6 -19.575 5.5
    endloop
  endfacet
  facet normal 0 0.798541 0.60194
    outer loop
      vertex -6.01888 -19.575 5.5
      vertex -6.22222 -19.1981 5
      vertex -6.23647 -19.1981 5
    endloop
  endfacet
  facet normal -0.691566 -0.399278 0.601925
    outer loop
      vertex -6.55292 -39.5 5.5
      vertex -10.7431 -32.9962 5
      vertex -6.98811 -39.5 5
    endloop
  endfacet
  facet normal -0.691575 -0.399285 0.60191
    outer loop
      vertex -10.7431 -32.9962 5
      vertex -6.55292 -39.5 5.5
      vertex -12.0378 -30 5.5
    endloop
  endfacet
  facet normal 0.691622 0.399295 0.601849
    outer loop
      vertex 12.4729 -30 5
      vertex 10.7431 -27.0038 5
      vertex 12.0378 -30 5.5
    endloop
  endfacet
  facet normal -0.691622 -0.399295 0.601849
    outer loop
      vertex -12.0378 -30 5.5
      vertex -12.4729 -30 5
      vertex -10.7431 -32.9962 5
    endloop
  endfacet
  facet normal 0.691564 0.399275 0.601929
    outer loop
      vertex 6.01888 -19.575 5.5
      vertex 10.7431 -27.0038 5
      vertex 6.23647 -19.1981 5
    endloop
  endfacet
  facet normal 0.691578 0.399285 0.601907
    outer loop
      vertex 10.7431 -27.0038 5
      vertex 6.01888 -19.575 5.5
      vertex 12.0378 -30 5.5
    endloop
  endfacet
  facet normal 0.691575 -0.399285 0.60191
    outer loop
      vertex 6.55292 -39.5 5.5
      vertex 10.7431 -32.9962 5
      vertex 12.0378 -30 5.5
    endloop
  endfacet
  facet normal 0.691566 -0.399278 0.601925
    outer loop
      vertex 10.7431 -32.9962 5
      vertex 6.55292 -39.5 5.5
      vertex 6.98811 -39.5 5
    endloop
  endfacet
  facet normal -0.691622 0.399295 0.601849
    outer loop
      vertex -10.7431 -27.0038 5
      vertex -12.4729 -30 5
      vertex -12.0378 -30 5.5
    endloop
  endfacet
  facet normal -0.691564 0.399275 0.601929
    outer loop
      vertex -10.7431 -27.0038 5
      vertex -6.01888 -19.575 5.5
      vertex -6.23647 -19.1981 5
    endloop
  endfacet
  facet normal -0.691578 0.399285 0.601907
    outer loop
      vertex -6.01888 -19.575 5.5
      vertex -10.7431 -27.0038 5
      vertex -12.0378 -30 5.5
    endloop
  endfacet
  facet normal -1 0 0
    outer loop
      vertex -15 -69.5 0
      vertex -15 -0.5 5
      vertex -15 -0.5 0
    endloop
  endfacet
  facet normal -1 -0 0
    outer loop
      vertex -15 -0.5 5
      vertex -15 -69.5 0
      vertex -15 -69.5 5
    endloop
  endfacet
  facet normal -1 0 0
    outer loop
      vertex -15 0.5 0
      vertex -15 69.5 5
      vertex -15 69.5 0
    endloop
  endfacet
  facet normal -1 -0 0
    outer loop
      vertex -15 69.5 5
      vertex -15 0.5 0
      vertex -15 0.5 5
    endloop
  endfacet
  facet normal 0 0 1
    outer loop
      vertex 10.7431 -32.9962 5
      vertex 6.98811 -39.5 5
      vertex 7.85714 -39.5 5
    endloop
  endfacet
  facet normal 0 0 1
    outer loop
      vertex 14.5 0.5 5
      vertex 10.5 4.5 5
      vertex 14.5 -0.5 5
    endloop
  endfacet
  facet normal 0 0 1
    outer loop
      vertex 10.5 -4.5 5
      vertex 14.5 -0.5 5
      vertex 10.5 4.5 5
    endloop
  endfacet
  facet normal 0 -0 1
    outer loop
      vertex 10.7431 -27.0038 5
      vertex 14.5 -0.5 5
      vertex 10.5 -4.5 5
    endloop
  endfacet
  facet normal -0 0 1
    outer loop
      vertex 6.23647 19.1981 5
      vertex 10.5 4.5 5
      vertex 10.7431 27.0038 5
    endloop
  endfacet
  facet normal 0 0 1
    outer loop
      vertex 10.5 4.5 5
      vertex 6.23647 19.1981 5
      vertex 10 5 5
    endloop
  endfacet
  facet normal 0 0 1
    outer loop
      vertex 6.22222 5 5
      vertex 6.23647 19.1981 5
      vertex 6.22222 19.1981 5
    endloop
  endfacet
  facet normal 0 0 1
    outer loop
      vertex 6.23647 19.1981 5
      vertex 6.22222 5 5
      vertex 10 5 5
    endloop
  endfacet
  facet normal -0 0 1
    outer loop
      vertex 12.4729 30 5
      vertex 15 0.5 5
      vertex 15 69.5 5
    endloop
  endfacet
  facet normal -0 0 1
    outer loop
      vertex 10.5 4.5 5
      vertex 15 0.5 5
      vertex 10.7431 27.0038 5
    endloop
  endfacet
  facet normal -0 0 1
    outer loop
      vertex 10.7431 27.0038 5
      vertex 15 0.5 5
      vertex 12.4729 30 5
    endloop
  endfacet
  facet normal 0 0 1
    outer loop
      vertex 15 69.5 5
      vertex 10.7431 32.9962 5
      vertex 12.4729 30 5
    endloop
  endfacet
  facet normal 0 0 1
    outer loop
      vertex 7.85714 39.5 5
      vertex 15 69.5 5
      vertex 7.85714 69.5 5
    endloop
  endfacet
  facet normal 0 0 1
    outer loop
      vertex 15 69.5 5
      vertex 7.85714 39.5 5
      vertex 10.7431 32.9962 5
    endloop
  endfacet
  facet normal 0 0 1
    outer loop
      vertex 10.7431 32.9962 5
      vertex 7.85714 39.5 5
      vertex 6.98811 39.5 5
    endloop
  endfacet
  facet normal 0 0 1
    outer loop
      vertex 12.4729 -30 5
      vertex 15 -0.5 5
      vertex 14.5 -0.5 5
    endloop
  endfacet
  facet normal 0 0 1
    outer loop
      vertex 15 0.5 5
      vertex 10.5 4.5 5
      vertex 14.5 0.5 5
    endloop
  endfacet
  facet normal 0 0 1
    outer loop
      vertex 15 -0.5 5
      vertex 12.4729 -30 5
      vertex 15 -69.5 5
    endloop
  endfacet
  facet normal -0 0 1
    outer loop
      vertex 10.7431 -32.9962 5
      vertex 15 -69.5 5
      vertex 12.4729 -30 5
    endloop
  endfacet
  facet normal -0 0 1
    outer loop
      vertex 7.85714 -39.5 5
      vertex 15 -69.5 5
      vertex 10.7431 -32.9962 5
    endloop
  endfacet
  facet normal 0 0 1
    outer loop
      vertex 15 -69.5 5
      vertex 7.85714 -39.5 5
      vertex 7.85714 -69.5 5
    endloop
  endfacet
  facet normal 0 0 1
    outer loop
      vertex 14.5 -0.5 5
      vertex 10.7431 -27.0038 5
      vertex 12.4729 -30 5
    endloop
  endfacet
  facet normal 0 0 1
    outer loop
      vertex 6.23647 -19.1981 5
      vertex 10.5 -4.5 5
      vertex 10 -5 5
    endloop
  endfacet
  facet normal 0 0 1
    outer loop
      vertex 10.5 -4.5 5
      vertex 6.23647 -19.1981 5
      vertex 10.7431 -27.0038 5
    endloop
  endfacet
  facet normal -0 0 1
    outer loop
      vertex 6.22222 -5 5
      vertex 6.23647 -19.1981 5
      vertex 10 -5 5
    endloop
  endfacet
  facet normal 0 0 1
    outer loop
      vertex 6.23647 -19.1981 5
      vertex 6.22222 -5 5
      vertex 6.22222 -19.1981 5
    endloop
  endfacet
  facet normal -0 0 1
    outer loop
      vertex -15 69.5 5
      vertex -7.85714 39.5 5
      vertex -7.85714 69.5 5
    endloop
  endfacet
  facet normal 0 0 1
    outer loop
      vertex -7.85714 39.5 5
      vertex -15 69.5 5
      vertex -10.7431 32.9962 5
    endloop
  endfacet
  facet normal -0 0 1
    outer loop
      vertex -15 -0.5 5
      vertex -10.5 -4.5 5
      vertex -14.5 -0.5 5
    endloop
  endfacet
  facet normal 0 0 1
    outer loop
      vertex -10.7431 32.9962 5
      vertex -15 69.5 5
      vertex -12.4729 30 5
    endloop
  endfacet
  facet normal 0 0 1
    outer loop
      vertex -15 0.5 5
      vertex -12.4729 30 5
      vertex -15 69.5 5
    endloop
  endfacet
  facet normal 0 0 1
    outer loop
      vertex -10.7431 27.0038 5
      vertex -15 0.5 5
      vertex -14.5 0.5 5
    endloop
  endfacet
  facet normal 0 0 1
    outer loop
      vertex -6.98811 39.5 5
      vertex -7.85714 39.5 5
      vertex -10.7431 32.9962 5
    endloop
  endfacet
  facet normal -0 0 1
    outer loop
      vertex -6.23647 19.1981 5
      vertex -6.22222 5 5
      vertex -6.22222 19.1981 5
    endloop
  endfacet
  facet normal 0 0 1
    outer loop
      vertex -6.23647 19.1981 5
      vertex -10 5 5
      vertex -6.22222 5 5
    endloop
  endfacet
  facet normal 0 0 1
    outer loop
      vertex -6.23647 19.1981 5
      vertex -10.5 4.5 5
      vertex -10 5 5
    endloop
  endfacet
  facet normal 0 0 1
    outer loop
      vertex -15 0.5 5
      vertex -10.7431 27.0038 5
      vertex -12.4729 30 5
    endloop
  endfacet
  facet normal 0 0 1
    outer loop
      vertex -10.7431 27.0038 5
      vertex -10.5 4.5 5
      vertex -6.23647 19.1981 5
    endloop
  endfacet
  facet normal 0 0 1
    outer loop
      vertex -6.22222 -5 5
      vertex -6.23647 -19.1981 5
      vertex -6.22222 -19.1981 5
    endloop
  endfacet
  facet normal -0 0 1
    outer loop
      vertex -10 -5 5
      vertex -6.23647 -19.1981 5
      vertex -6.22222 -5 5
    endloop
  endfacet
  facet normal 0 0 1
    outer loop
      vertex -10.5 -4.5 5
      vertex -6.23647 -19.1981 5
      vertex -10 -5 5
    endloop
  endfacet
  facet normal 0 0 1
    outer loop
      vertex -10.5 -4.5 5
      vertex -10.7431 -27.0038 5
      vertex -6.23647 -19.1981 5
    endloop
  endfacet
  facet normal 0 0 1
    outer loop
      vertex -10.7431 27.0038 5
      vertex -14.5 0.5 5
      vertex -10.5 4.5 5
    endloop
  endfacet
  facet normal 0 0 1
    outer loop
      vertex -10.5 4.5 5
      vertex -14.5 0.5 5
      vertex -10.5 -4.5 5
    endloop
  endfacet
  facet normal -0 0 1
    outer loop
      vertex -14.5 -0.5 5
      vertex -10.5 -4.5 5
      vertex -14.5 0.5 5
    endloop
  endfacet
  facet normal 0 0 1
    outer loop
      vertex -10.7431 -32.9962 5
      vertex -7.85714 -39.5 5
      vertex -6.98811 -39.5 5
    endloop
  endfacet
  facet normal 0 0 1
    outer loop
      vertex -15 -69.5 5
      vertex -7.85714 -39.5 5
      vertex -10.7431 -32.9962 5
    endloop
  endfacet
  facet normal 0 0 1
    outer loop
      vertex -15 -69.5 5
      vertex -10.7431 -32.9962 5
      vertex -12.4729 -30 5
    endloop
  endfacet
  facet normal 0 0 1
    outer loop
      vertex -10.5 -4.5 5
      vertex -15 -0.5 5
      vertex -10.7431 -27.0038 5
    endloop
  endfacet
  facet normal 0 0 1
    outer loop
      vertex -10.7431 -27.0038 5
      vertex -15 -0.5 5
      vertex -12.4729 -30 5
    endloop
  endfacet
  facet normal 0 0 1
    outer loop
      vertex -7.85714 -39.5 5
      vertex -15 -69.5 5
      vertex -7.85714 -69.5 5
    endloop
  endfacet
  facet normal 0 0 1
    outer loop
      vertex -15 -69.5 5
      vertex -12.4729 -30 5
      vertex -15 -0.5 5
    endloop
  endfacet
  facet normal 1 -0 0
    outer loop
      vertex 15 -69.5 5
      vertex 15 -0.5 0
      vertex 15 -0.5 5
    endloop
  endfacet
  facet normal 1 0 0
    outer loop
      vertex 15 -0.5 0
      vertex 15 -69.5 5
      vertex 15 -69.5 0
    endloop
  endfacet
  facet normal 1 -0 0
    outer loop
      vertex 15 0.5 5
      vertex 15 69.5 0
      vertex 15 69.5 5
    endloop
  endfacet
  facet normal 1 0 0
    outer loop
      vertex 15 69.5 0
      vertex 15 0.5 5
      vertex 15 0.5 0
    endloop
  endfacet
  facet normal 0 1 -0
    outer loop
      vertex 15 69.5 0
      vertex 7.85714 69.5 5
      vertex 15 69.5 5
    endloop
  endfacet
  facet normal 0 1 0
    outer loop
      vertex 2.503 69.5 0
      vertex 7.85714 69.5 5
      vertex 15 69.5 0
    endloop
  endfacet
  facet normal 0 1 0
    outer loop
      vertex 7.85714 69.5 5
      vertex 2.503 69.5 0
      vertex 4 69.5 4.99
    endloop
  endfacet
  facet normal 0 1 0
    outer loop
      vertex 7 69.5 8
      vertex 4 69.5 5.29
      vertex -7 69.5 8
    endloop
  endfacet
  facet normal 0 1 0
    outer loop
      vertex 7.85714 69.5 5
      vertex 4 69.5 5.29
      vertex 7 69.5 8
    endloop
  endfacet
  facet normal 0 1 0
    outer loop
      vertex 4 69.5 5.29
      vertex 7.85714 69.5 5
      vertex 4 69.5 4.99
    endloop
  endfacet
  facet normal 0 1 -0
    outer loop
      vertex -4 69.5 5.29
      vertex -7 69.5 8
      vertex 4 69.5 5.29
    endloop
  endfacet
  facet normal 0 1 0
    outer loop
      vertex -4 69.5 5.29
      vertex -7.85714 69.5 5
      vertex -7 69.5 8
    endloop
  endfacet
  facet normal 0 1 -0
    outer loop
      vertex -4 69.5 4.99
      vertex -7.85714 69.5 5
      vertex -4 69.5 5.29
    endloop
  endfacet
  facet normal 0 1 0
    outer loop
      vertex -2.503 69.5 0
      vertex -7.85714 69.5 5
      vertex -4 69.5 4.99
    endloop
  endfacet
  facet normal 0 1 0
    outer loop
      vertex -7.85714 69.5 5
      vertex -2.503 69.5 0
      vertex -15 69.5 0
    endloop
  endfacet
  facet normal 0 1 0
    outer loop
      vertex -7.85714 69.5 5
      vertex -15 69.5 0
      vertex -15 69.5 5
    endloop
  endfacet
  facet normal 0 0 -1
    outer loop
      vertex -15 -69.5 0
      vertex -2.503 -39.5 0
      vertex -2.503 -69.5 0
    endloop
  endfacet
  facet normal -0 0 -1
    outer loop
      vertex -2.503 -39.5 0
      vertex -15 -69.5 0
      vertex -4.28683 -37.425 0
    endloop
  endfacet
  facet normal -0 0 -1
    outer loop
      vertex -0.5 10.65 0
      vertex -14.5 0.5 0
      vertex -4.28683 22.575 0
    endloop
  endfacet
  facet normal -0 0 -1
    outer loop
      vertex -4.28683 -37.425 0
      vertex -15 -69.5 0
      vertex -8.57365 -30 0
    endloop
  endfacet
  facet normal 0 0 -1
    outer loop
      vertex -15 -0.5 0
      vertex -8.57365 -30 0
      vertex -15 -69.5 0
    endloop
  endfacet
  facet normal 0 0 -1
    outer loop
      vertex -4.28683 -22.575 0
      vertex -15 -0.5 0
      vertex -14.5 -0.5 0
    endloop
  endfacet
  facet normal 0 0 -1
    outer loop
      vertex -4.28683 -22.575 0
      vertex -0.5 -10.65 0
      vertex -0.5 -22.575 0
    endloop
  endfacet
  facet normal 0 0 -1
    outer loop
      vertex -15 -0.5 0
      vertex -4.28683 -22.575 0
      vertex -8.57365 -30 0
    endloop
  endfacet
  facet normal 0 0 -1
    outer loop
      vertex -4.28683 -22.575 0
      vertex -14.5 -0.5 0
      vertex -0.5 -10.65 0
    endloop
  endfacet
  facet normal 0 0 -1
    outer loop
      vertex -0.5 10.65 0
      vertex -4.28683 22.575 0
      vertex -0.5 22.575 0
    endloop
  endfacet
  facet normal 0 0 -1
    outer loop
      vertex -0.5 -10.65 0
      vertex -14.5 -0.5 0
      vertex -0.5 10.65 0
    endloop
  endfacet
  facet normal 0 0 -1
    outer loop
      vertex -14.5 0.5 0
      vertex -0.5 10.65 0
      vertex -14.5 -0.5 0
    endloop
  endfacet
  facet normal 0 0 -1
    outer loop
      vertex -0.5 -10.65 0
      vertex 0.5 10.65 0
      vertex 0.5 -10.65 0
    endloop
  endfacet
  facet normal -0 0 -1
    outer loop
      vertex 0.5 10.65 0
      vertex -0.5 -10.65 0
      vertex -0.5 10.65 0
    endloop
  endfacet
  facet normal 0 0 -1
    outer loop
      vertex 4.28683 37.425 0
      vertex -2.503 39.5 0
      vertex 2.503 39.5 0
    endloop
  endfacet
  facet normal 0 0 -1
    outer loop
      vertex -4.28683 37.425 0
      vertex -2.503 39.5 0
      vertex 4.28683 37.425 0
    endloop
  endfacet
  facet normal 0 0 -1
    outer loop
      vertex -15 69.5 0
      vertex -2.503 39.5 0
      vertex -4.28683 37.425 0
    endloop
  endfacet
  facet normal 0 0 -1
    outer loop
      vertex -15 69.5 0
      vertex -4.28683 37.425 0
      vertex -8.57365 30 0
    endloop
  endfacet
  facet normal 0 0 -1
    outer loop
      vertex -15 0.5 0
      vertex -4.28683 22.575 0
      vertex -14.5 0.5 0
    endloop
  endfacet
  facet normal -0 0 -1
    outer loop
      vertex -4.28683 22.575 0
      vertex -15 0.5 0
      vertex -8.57365 30 0
    endloop
  endfacet
  facet normal -0 0 -1
    outer loop
      vertex -8.57365 30 0
      vertex -15 0.5 0
      vertex -15 69.5 0
    endloop
  endfacet
  facet normal 0 0 -1
    outer loop
      vertex -2.503 39.5 0
      vertex -15 69.5 0
      vertex -2.503 69.5 0
    endloop
  endfacet
  facet normal -0 0 -1
    outer loop
      vertex 14.5 -0.5 0
      vertex 0.5 -10.65 0
      vertex 14.5 0.5 0
    endloop
  endfacet
  facet normal 0 0 -1
    outer loop
      vertex 0.5 10.65 0
      vertex 14.5 0.5 0
      vertex 0.5 -10.65 0
    endloop
  endfacet
  facet normal 0 0 -1
    outer loop
      vertex 0.5 -10.65 0
      vertex 4.28683 -22.575 0
      vertex 0.5 -22.575 0
    endloop
  endfacet
  facet normal 0 -0 -1
    outer loop
      vertex 4.28683 22.575 0
      vertex 14.5 0.5 0
      vertex 0.5 10.65 0
    endloop
  endfacet
  facet normal 0 0 -1
    outer loop
      vertex 14.5 0.5 0
      vertex 4.28683 22.575 0
      vertex 8.57365 30 0
    endloop
  endfacet
  facet normal -0 0 -1
    outer loop
      vertex 4.28683 22.575 0
      vertex 0.5 10.65 0
      vertex 0.5 22.575 0
    endloop
  endfacet
  facet normal 0 0 -1
    outer loop
      vertex 8.57365 -30 0
      vertex 15 -0.5 0
      vertex 15 -69.5 0
    endloop
  endfacet
  facet normal -0 0 -1
    outer loop
      vertex 15 -0.5 0
      vertex 4.28683 -22.575 0
      vertex 14.5 -0.5 0
    endloop
  endfacet
  facet normal 0 0 -1
    outer loop
      vertex 4.28683 -22.575 0
      vertex 15 -0.5 0
      vertex 8.57365 -30 0
    endloop
  endfacet
  facet normal 0 0 -1
    outer loop
      vertex 15 -69.5 0
      vertex 4.28683 -37.425 0
      vertex 8.57365 -30 0
    endloop
  endfacet
  facet normal 0 0 -1
    outer loop
      vertex 2.503 -39.5 0
      vertex 15 -69.5 0
      vertex 2.503 -69.5 0
    endloop
  endfacet
  facet normal 0 0 -1
    outer loop
      vertex 15 -69.5 0
      vertex 2.503 -39.5 0
      vertex 4.28683 -37.425 0
    endloop
  endfacet
  facet normal 0 0 -1
    outer loop
      vertex -2.503 -39.5 0
      vertex 4.28683 -37.425 0
      vertex 2.503 -39.5 0
    endloop
  endfacet
  facet normal -0 0 -1
    outer loop
      vertex 4.28683 -37.425 0
      vertex -2.503 -39.5 0
      vertex -4.28683 -37.425 0
    endloop
  endfacet
  facet normal 0 0 -1
    outer loop
      vertex 8.57365 30 0
      vertex 15 0.5 0
      vertex 14.5 0.5 0
    endloop
  endfacet
  facet normal 0 0 -1
    outer loop
      vertex 0.5 -10.65 0
      vertex 14.5 -0.5 0
      vertex 4.28683 -22.575 0
    endloop
  endfacet
  facet normal 0 0 -1
    outer loop
      vertex 15 0.5 0
      vertex 8.57365 30 0
      vertex 15 69.5 0
    endloop
  endfacet
  facet normal 0 0 -1
    outer loop
      vertex 4.28683 37.425 0
      vertex 15 69.5 0
      vertex 8.57365 30 0
    endloop
  endfacet
  facet normal 0 0 -1
    outer loop
      vertex 2.503 39.5 0
      vertex 15 69.5 0
      vertex 4.28683 37.425 0
    endloop
  endfacet
  facet normal -0 0 -1
    outer loop
      vertex 15 69.5 0
      vertex 2.503 39.5 0
      vertex 2.503 69.5 0
    endloop
  endfacet
  facet normal 0 -1 0
    outer loop
      vertex -15 -69.5 0
      vertex -7.85714 -69.5 5
      vertex -15 -69.5 5
    endloop
  endfacet
  facet normal 0 -1 0
    outer loop
      vertex -2.503 -69.5 0
      vertex -7.85714 -69.5 5
      vertex -15 -69.5 0
    endloop
  endfacet
  facet normal 0 -1 0
    outer loop
      vertex -7.85714 -69.5 5
      vertex -2.503 -69.5 0
      vertex -4 -69.5 4.99
    endloop
  endfacet
  facet normal 0 -1 0
    outer loop
      vertex -7 -69.5 8
      vertex -4 -69.5 5.29
      vertex 7 -69.5 8
    endloop
  endfacet
  facet normal 0 -1 0
    outer loop
      vertex -7.85714 -69.5 5
      vertex -4 -69.5 5.29
      vertex -7 -69.5 8
    endloop
  endfacet
  facet normal 0 -1 -0
    outer loop
      vertex -4 -69.5 5.29
      vertex -7.85714 -69.5 5
      vertex -4 -69.5 4.99
    endloop
  endfacet
  facet normal 0 -1 0
    outer loop
      vertex 4 -69.5 5.29
      vertex 7 -69.5 8
      vertex -4 -69.5 5.29
    endloop
  endfacet
  facet normal 0 -1 0
    outer loop
      vertex 4 -69.5 5.29
      vertex 7.85714 -69.5 5
      vertex 7 -69.5 8
    endloop
  endfacet
  facet normal 0 -1 0
    outer loop
      vertex 4 -69.5 4.99
      vertex 7.85714 -69.5 5
      vertex 4 -69.5 5.29
    endloop
  endfacet
  facet normal 0 -1 0
    outer loop
      vertex 2.503 -69.5 0
      vertex 7.85714 -69.5 5
      vertex 4 -69.5 4.99
    endloop
  endfacet
  facet normal 0 -1 -0
    outer loop
      vertex 7.85714 -69.5 5
      vertex 2.503 -69.5 0
      vertex 15 -69.5 0
    endloop
  endfacet
  facet normal 0 -1 0
    outer loop
      vertex 7.85714 -69.5 5
      vertex 15 -69.5 0
      vertex 15 -69.5 5
    endloop
  endfacet
  facet normal 0.961524 -0 0.27472
    outer loop
      vertex 7 39.5 8
      vertex 7.85714 69.5 5
      vertex 7 69.5 8
    endloop
  endfacet
  facet normal 0.961524 0 0.27472
    outer loop
      vertex 7.85714 69.5 5
      vertex 7 39.5 8
      vertex 7.85714 39.5 5
    endloop
  endfacet
  facet normal 0 -1 0
    outer loop
      vertex -7 39.5 8
      vertex -6.55292 39.5 5.5
      vertex 7 39.5 8
    endloop
  endfacet
  facet normal 0 -1 0
    outer loop
      vertex -7.85714 39.5 5
      vertex -6.55292 39.5 5.5
      vertex -7 39.5 8
    endloop
  endfacet
  facet normal 0 -1 0
    outer loop
      vertex -6.55292 39.5 5.5
      vertex -7.85714 39.5 5
      vertex -6.98811 39.5 5
    endloop
  endfacet
  facet normal 0 -1 0
    outer loop
      vertex 6.55292 39.5 5.5
      vertex 7 39.5 8
      vertex -6.55292 39.5 5.5
    endloop
  endfacet
  facet normal 0 -1 0
    outer loop
      vertex 7.85714 39.5 5
      vertex 6.55292 39.5 5.5
      vertex 6.98811 39.5 5
    endloop
  endfacet
  facet normal 0 -1 0
    outer loop
      vertex 6.55292 39.5 5.5
      vertex 7.85714 39.5 5
      vertex 7 39.5 8
    endloop
  endfacet
  facet normal -0 0 1
    outer loop
      vertex -7 69.5 8
      vertex 7 39.5 8
      vertex 7 69.5 8
    endloop
  endfacet
  facet normal 0 0 1
    outer loop
      vertex 7 39.5 8
      vertex -7 69.5 8
      vertex -7 39.5 8
    endloop
  endfacet
  facet normal -0.961524 0 0.27472
    outer loop
      vertex -7.85714 39.5 5
      vertex -7 69.5 8
      vertex -7.85714 69.5 5
    endloop
  endfacet
  facet normal -0.961524 0 0.27472
    outer loop
      vertex -7 69.5 8
      vertex -7.85714 39.5 5
      vertex -7 39.5 8
    endloop
  endfacet
  facet normal 0.961524 -0 0.27472
    outer loop
      vertex 7 -69.5 8
      vertex 7.85714 -39.5 5
      vertex 7 -39.5 8
    endloop
  endfacet
  facet normal 0.961524 0 0.27472
    outer loop
      vertex 7.85714 -39.5 5
      vertex 7 -69.5 8
      vertex 7.85714 -69.5 5
    endloop
  endfacet
  facet normal 0 1 0
    outer loop
      vertex 7 -39.5 8
      vertex 6.55292 -39.5 5.5
      vertex -7 -39.5 8
    endloop
  endfacet
  facet normal 0 1 0
    outer loop
      vertex 7.85714 -39.5 5
      vertex 6.55292 -39.5 5.5
      vertex 7 -39.5 8
    endloop
  endfacet
  facet normal 0 1 0
    outer loop
      vertex 6.55292 -39.5 5.5
      vertex 7.85714 -39.5 5
      vertex 6.98811 -39.5 5
    endloop
  endfacet
  facet normal 0 1 -0
    outer loop
      vertex -6.55292 -39.5 5.5
      vertex -7 -39.5 8
      vertex 6.55292 -39.5 5.5
    endloop
  endfacet
  facet normal 0 1 0
    outer loop
      vertex -7.85714 -39.5 5
      vertex -6.55292 -39.5 5.5
      vertex -6.98811 -39.5 5
    endloop
  endfacet
  facet normal 0 1 0
    outer loop
      vertex -6.55292 -39.5 5.5
      vertex -7.85714 -39.5 5
      vertex -7 -39.5 8
    endloop
  endfacet
  facet normal -0 0 1
    outer loop
      vertex -7 -39.5 8
      vertex 7 -69.5 8
      vertex 7 -39.5 8
    endloop
  endfacet
  facet normal 0 0 1
    outer loop
      vertex 7 -69.5 8
      vertex -7 -39.5 8
      vertex -7 -69.5 8
    endloop
  endfacet
  facet normal -0.961524 0 0.27472
    outer loop
      vertex -7.85714 -69.5 5
      vertex -7 -39.5 8
      vertex -7.85714 -39.5 5
    endloop
  endfacet
  facet normal -0.961524 0 0.27472
    outer loop
      vertex -7 -39.5 8
      vertex -7.85714 -69.5 5
      vertex -7 -69.5 8
    endloop
  endfacet
  facet normal 0.913813 -0 0.406135
    outer loop
      vertex 6 -19.575 5.5
      vertex 6.22222 -5 5
      vertex 6 -4.5 5.5
    endloop
  endfacet
  facet normal 0.913813 0 0.406135
    outer loop
      vertex 6.22222 -5 5
      vertex 6 -19.575 5.5
      vertex 6.22222 -19.1981 5
    endloop
  endfacet
  facet normal 0.913813 0 0.406135
    outer loop
      vertex 6 19.575 5.5
      vertex 6.22222 5 5
      vertex 6.22222 19.1981 5
    endloop
  endfacet
  facet normal 0.913813 0 0.406135
    outer loop
      vertex 6.22222 5 5
      vertex 6 19.575 5.5
      vertex 6 4.5 5.5
    endloop
  endfacet
  facet normal -0.913813 0 0.406135
    outer loop
      vertex -6 -19.575 5.5
      vertex -6.22222 -5 5
      vertex -6.22222 -19.1981 5
    endloop
  endfacet
  facet normal -0.913813 0 0.406135
    outer loop
      vertex -6.22222 -5 5
      vertex -6 -19.575 5.5
      vertex -6 -4.5 5.5
    endloop
  endfacet
  facet normal -0.913813 0 0.406135
    outer loop
      vertex -6.22222 5 5
      vertex -6 19.575 5.5
      vertex -6.22222 19.1981 5
    endloop
  endfacet
  facet normal -0.913813 0 0.406135
    outer loop
      vertex -6 19.575 5.5
      vertex -6.22222 5 5
      vertex -6 4.5 5.5
    endloop
  endfacet
  facet normal -0.957826 0 0.287348
    outer loop
      vertex 2.503 39.5 0
      vertex 4 69.5 4.99
      vertex 2.503 69.5 0
    endloop
  endfacet
  facet normal -0.957826 0 0.287348
    outer loop
      vertex 4 69.5 4.99
      vertex 2.503 39.5 0
      vertex 4 39.5 4.99
    endloop
  endfacet
  facet normal 0.957826 -0 0.287348
    outer loop
      vertex -4 39.5 4.99
      vertex -2.503 69.5 0
      vertex -4 69.5 4.99
    endloop
  endfacet
  facet normal 0.957826 0 0.287348
    outer loop
      vertex -2.503 69.5 0
      vertex -4 39.5 4.99
      vertex -2.503 39.5 0
    endloop
  endfacet
  facet normal 0 1 -0
    outer loop
      vertex 4 39.5 4.99
      vertex -4 39.5 5.29
      vertex 4 39.5 5.29
    endloop
  endfacet
  facet normal 0 1 0
    outer loop
      vertex 4 39.5 4.99
      vertex -4 39.5 4.99
      vertex -4 39.5 5.29
    endloop
  endfacet
  facet normal 0 1 -0
    outer loop
      vertex 2.503 39.5 0
      vertex -4 39.5 4.99
      vertex 4 39.5 4.99
    endloop
  endfacet
  facet normal 0 1 0
    outer loop
      vertex -4 39.5 4.99
      vertex 2.503 39.5 0
      vertex -2.503 39.5 0
    endloop
  endfacet
  facet normal -1 0 0
    outer loop
      vertex 4 39.5 4.99
      vertex 4 69.5 5.29
      vertex 4 69.5 4.99
    endloop
  endfacet
  facet normal -1 -0 0
    outer loop
      vertex 4 69.5 5.29
      vertex 4 39.5 4.99
      vertex 4 39.5 5.29
    endloop
  endfacet
  facet normal 1 -0 0
    outer loop
      vertex -4 39.5 5.29
      vertex -4 69.5 4.99
      vertex -4 69.5 5.29
    endloop
  endfacet
  facet normal 1 0 0
    outer loop
      vertex -4 69.5 4.99
      vertex -4 39.5 5.29
      vertex -4 39.5 4.99
    endloop
  endfacet
  facet normal 0 0 -1
    outer loop
      vertex -4 39.5 5.29
      vertex 4 69.5 5.29
      vertex 4 39.5 5.29
    endloop
  endfacet
  facet normal -0 0 -1
    outer loop
      vertex 4 69.5 5.29
      vertex -4 39.5 5.29
      vertex -4 69.5 5.29
    endloop
  endfacet
  facet normal -0.957826 0 0.287348
    outer loop
      vertex 2.503 -69.5 0
      vertex 4 -39.5 4.99
      vertex 2.503 -39.5 0
    endloop
  endfacet
  facet normal -0.957826 0 0.287348
    outer loop
      vertex 4 -39.5 4.99
      vertex 2.503 -69.5 0
      vertex 4 -69.5 4.99
    endloop
  endfacet
  facet normal 0.957826 -0 0.287348
    outer loop
      vertex -4 -69.5 4.99
      vertex -2.503 -39.5 0
      vertex -4 -39.5 4.99
    endloop
  endfacet
  facet normal 0.957826 0 0.287348
    outer loop
      vertex -2.503 -39.5 0
      vertex -4 -69.5 4.99
      vertex -2.503 -69.5 0
    endloop
  endfacet
  facet normal 0 -1 0
    outer loop
      vertex -4 -39.5 4.99
      vertex 4 -39.5 5.29
      vertex -4 -39.5 5.29
    endloop
  endfacet
  facet normal 0 -1 0
    outer loop
      vertex -4 -39.5 4.99
      vertex 4 -39.5 4.99
      vertex 4 -39.5 5.29
    endloop
  endfacet
  facet normal 0 -1 0
    outer loop
      vertex -2.503 -39.5 0
      vertex 4 -39.5 4.99
      vertex -4 -39.5 4.99
    endloop
  endfacet
  facet normal 0 -1 0
    outer loop
      vertex 4 -39.5 4.99
      vertex -2.503 -39.5 0
      vertex 2.503 -39.5 0
    endloop
  endfacet
  facet normal -1 0 0
    outer loop
      vertex 4 -69.5 4.99
      vertex 4 -39.5 5.29
      vertex 4 -39.5 4.99
    endloop
  endfacet
  facet normal -1 -0 0
    outer loop
      vertex 4 -39.5 5.29
      vertex 4 -69.5 4.99
      vertex 4 -69.5 5.29
    endloop
  endfacet
  facet normal 1 -0 0
    outer loop
      vertex -4 -69.5 5.29
      vertex -4 -39.5 4.99
      vertex -4 -39.5 5.29
    endloop
  endfacet
  facet normal 1 0 0
    outer loop
      vertex -4 -39.5 4.99
      vertex -4 -69.5 5.29
      vertex -4 -69.5 4.99
    endloop
  endfacet
  facet normal 0 0 -1
    outer loop
      vertex -4 -69.5 5.29
      vertex 4 -39.5 5.29
      vertex 4 -69.5 5.29
    endloop
  endfacet
  facet normal -0 0 -1
    outer loop
      vertex 4 -39.5 5.29
      vertex -4 -69.5 5.29
      vertex -4 -39.5 5.29
    endloop
  endfacet
  facet normal -1 0 0
    outer loop
      vertex -14.5 -0.5 0
      vertex -14.5 0.5 5
      vertex -14.5 0.5 0
    endloop
  endfacet
  facet normal -1 -0 0
    outer loop
      vertex -14.5 0.5 5
      vertex -14.5 -0.5 0
      vertex -14.5 -0.5 5
    endloop
  endfacet
  facet normal 0 1 -0
    outer loop
      vertex -14.5 -0.5 0
      vertex -15 -0.5 5
      vertex -14.5 -0.5 5
    endloop
  endfacet
  facet normal 0 1 0
    outer loop
      vertex -15 -0.5 5
      vertex -14.5 -0.5 0
      vertex -15 -0.5 0
    endloop
  endfacet
  facet normal 0 -1 0
    outer loop
      vertex -15 0.5 0
      vertex -14.5 0.5 5
      vertex -15 0.5 5
    endloop
  endfacet
  facet normal 0 -1 -0
    outer loop
      vertex -14.5 0.5 5
      vertex -15 0.5 0
      vertex -14.5 0.5 0
    endloop
  endfacet
  facet normal 1 -0 0
    outer loop
      vertex 14.5 -0.5 5
      vertex 14.5 0.5 0
      vertex 14.5 0.5 5
    endloop
  endfacet
  facet normal 1 0 0
    outer loop
      vertex 14.5 0.5 0
      vertex 14.5 -0.5 5
      vertex 14.5 -0.5 0
    endloop
  endfacet
  facet normal 0 1 -0
    outer loop
      vertex 15 -0.5 0
      vertex 14.5 -0.5 5
      vertex 15 -0.5 5
    endloop
  endfacet
  facet normal 0 1 0
    outer loop
      vertex 14.5 -0.5 5
      vertex 15 -0.5 0
      vertex 14.5 -0.5 0
    endloop
  endfacet
  facet normal 0 -1 0
    outer loop
      vertex 14.5 0.5 0
      vertex 15 0.5 5
      vertex 14.5 0.5 5
    endloop
  endfacet
  facet normal 0 -1 -0
    outer loop
      vertex 15 0.5 5
      vertex 14.5 0.5 0
      vertex 15 0.5 0
    endloop
  endfacet
  facet normal -0.866026 -0.499999 0
    outer loop
      vertex 8.57365 30 0
      vertex 4.28683 37.425 5.5
      vertex 4.28683 37.425 0
    endloop
  endfacet
  facet normal -0.866026 -0.499999 0
    outer loop
      vertex 4.28683 37.425 5.5
      vertex 8.57365 30 0
      vertex 8.57365 30 5.5
    endloop
  endfacet
  facet normal 0 1 -0
    outer loop
      vertex -0.5 22.575 0
      vertex -4.28683 22.575 5.5
      vertex -0.5 22.575 5.5
    endloop
  endfacet
  facet normal 0 1 0
    outer loop
      vertex -4.28683 22.575 5.5
      vertex -0.5 22.575 0
      vertex -4.28683 22.575 0
    endloop
  endfacet
  facet normal 0 1 -0
    outer loop
      vertex 4.28683 22.575 0
      vertex 0.5 22.575 5.5
      vertex 4.28683 22.575 5.5
    endloop
  endfacet
  facet normal 0 1 0
    outer loop
      vertex 0.5 22.575 5.5
      vertex 4.28683 22.575 0
      vertex 0.5 22.575 0
    endloop
  endfacet
  facet normal 0.866026 -0.499999 0
    outer loop
      vertex -8.57365 30 5.5
      vertex -4.28683 37.425 0
      vertex -4.28683 37.425 5.5
    endloop
  endfacet
  facet normal 0.866026 -0.499999 0
    outer loop
      vertex -4.28683 37.425 0
      vertex -8.57365 30 5.5
      vertex -8.57365 30 0
    endloop
  endfacet
  facet normal 0 -1 0
    outer loop
      vertex -4.28683 37.425 0
      vertex 4.28683 37.425 5.5
      vertex -4.28683 37.425 5.5
    endloop
  endfacet
  facet normal 0 -1 -0
    outer loop
      vertex 4.28683 37.425 5.5
      vertex -4.28683 37.425 0
      vertex 4.28683 37.425 0
    endloop
  endfacet
  facet normal 0.866026 0.499999 0
    outer loop
      vertex -4.28683 22.575 5.5
      vertex -8.57365 30 0
      vertex -8.57365 30 5.5
    endloop
  endfacet
  facet normal 0.866026 0.499999 0
    outer loop
      vertex -8.57365 30 0
      vertex -4.28683 22.575 5.5
      vertex -4.28683 22.575 0
    endloop
  endfacet
  facet normal -0.866026 0.499999 0
    outer loop
      vertex 4.28683 22.575 0
      vertex 8.57365 30 5.5
      vertex 8.57365 30 0
    endloop
  endfacet
  facet normal -0.866026 0.499999 0
    outer loop
      vertex 8.57365 30 5.5
      vertex 4.28683 22.575 0
      vertex 4.28683 22.575 5.5
    endloop
  endfacet
  facet normal -0.866026 -0.499999 0
    outer loop
      vertex 8.57365 -30 0
      vertex 4.28683 -22.575 5.5
      vertex 4.28683 -22.575 0
    endloop
  endfacet
  facet normal -0.866026 -0.499999 0
    outer loop
      vertex 4.28683 -22.575 5.5
      vertex 8.57365 -30 0
      vertex 8.57365 -30 5.5
    endloop
  endfacet
  facet normal 0.866026 -0.499999 0
    outer loop
      vertex -8.57365 -30 5.5
      vertex -4.28683 -22.575 0
      vertex -4.28683 -22.575 5.5
    endloop
  endfacet
  facet normal 0.866026 -0.499999 0
    outer loop
      vertex -4.28683 -22.575 0
      vertex -8.57365 -30 5.5
      vertex -8.57365 -30 0
    endloop
  endfacet
  facet normal 0 -1 0
    outer loop
      vertex 0.5 -22.575 0
      vertex 4.28683 -22.575 5.5
      vertex 0.5 -22.575 5.5
    endloop
  endfacet
  facet normal 0 -1 -0
    outer loop
      vertex 4.28683 -22.575 5.5
      vertex 0.5 -22.575 0
      vertex 4.28683 -22.575 0
    endloop
  endfacet
  facet normal 0 -1 0
    outer loop
      vertex -4.28683 -22.575 0
      vertex -0.5 -22.575 5.5
      vertex -4.28683 -22.575 5.5
    endloop
  endfacet
  facet normal 0 -1 -0
    outer loop
      vertex -0.5 -22.575 5.5
      vertex -4.28683 -22.575 0
      vertex -0.5 -22.575 0
    endloop
  endfacet
  facet normal 0 1 -0
    outer loop
      vertex 4.28683 -37.425 0
      vertex -4.28683 -37.425 5.5
      vertex 4.28683 -37.425 5.5
    endloop
  endfacet
  facet normal 0 1 0
    outer loop
      vertex -4.28683 -37.425 5.5
      vertex 4.28683 -37.425 0
      vertex -4.28683 -37.425 0
    endloop
  endfacet
  facet normal 0.866026 0.499999 0
    outer loop
      vertex -4.28683 -37.425 5.5
      vertex -8.57365 -30 0
      vertex -8.57365 -30 5.5
    endloop
  endfacet
  facet normal 0.866026 0.499999 0
    outer loop
      vertex -8.57365 -30 0
      vertex -4.28683 -37.425 5.5
      vertex -4.28683 -37.425 0
    endloop
  endfacet
  facet normal -0.866026 0.499999 0
    outer loop
      vertex 4.28683 -37.425 0
      vertex 8.57365 -30 5.5
      vertex 8.57365 -30 0
    endloop
  endfacet
  facet normal -0.866026 0.499999 0
    outer loop
      vertex 8.57365 -30 5.5
      vertex 4.28683 -37.425 0
      vertex 4.28683 -37.425 5.5
    endloop
  endfacet
  facet normal 1 -0 0
    outer loop
      vertex -0.5 10.65 5.5
      vertex -0.5 22.575 0
      vertex -0.5 22.575 5.5
    endloop
  endfacet
  facet normal 1 0 0
    outer loop
      vertex -0.5 22.575 0
      vertex -0.5 10.65 5.5
      vertex -0.5 10.65 0
    endloop
  endfacet
  facet normal -1 0 0
    outer loop
      vertex 0.5 10.65 0
      vertex 0.5 22.575 5.5
      vertex 0.5 22.575 0
    endloop
  endfacet
  facet normal -1 -0 0
    outer loop
      vertex 0.5 22.575 5.5
      vertex 0.5 10.65 0
      vertex 0.5 10.65 5.5
    endloop
  endfacet
  facet normal 0 1 -0
    outer loop
      vertex 0.5 10.65 0
      vertex -0.5 10.65 5.5
      vertex 0.5 10.65 5.5
    endloop
  endfacet
  facet normal 0 1 0
    outer loop
      vertex -0.5 10.65 5.5
      vertex 0.5 10.65 0
      vertex -0.5 10.65 0
    endloop
  endfacet
  facet normal 1 -0 0
    outer loop
      vertex -0.5 -22.575 5.5
      vertex -0.5 -10.65 0
      vertex -0.5 -10.65 5.5
    endloop
  endfacet
  facet normal 1 0 0
    outer loop
      vertex -0.5 -10.65 0
      vertex -0.5 -22.575 5.5
      vertex -0.5 -22.575 0
    endloop
  endfacet
  facet normal -1 0 0
    outer loop
      vertex 0.5 -22.575 0
      vertex 0.5 -10.65 5.5
      vertex 0.5 -10.65 0
    endloop
  endfacet
  facet normal -1 -0 0
    outer loop
      vertex 0.5 -10.65 5.5
      vertex 0.5 -22.575 0
      vertex 0.5 -22.575 5.5
    endloop
  endfacet
  facet normal 0 -1 0
    outer loop
      vertex -0.5 -10.65 0
      vertex 0.5 -10.65 5.5
      vertex -0.5 -10.65 5.5
    endloop
  endfacet
  facet normal 0 -1 -0
    outer loop
      vertex 0.5 -10.65 5.5
      vertex -0.5 -10.65 0
      vertex 0.5 -10.65 0
    endloop
  endfacet
  facet normal -0.613718 -3.20415e-05 0.789525
    outer loop
      vertex -9.50653 3.28993 9.78693
      vertex -9.02671 3.1324 10.1599
      vertex -9.31043 3.44862 9.93937
    endloop
  endfacet
  facet normal -0.613835 -0.000602524 0.789434
    outer loop
      vertex -9.51478 3.28324 9.78051
      vertex -9.02671 3.1324 10.1599
      vertex -9.50653 3.28993 9.78693
    endloop
  endfacet
  facet normal -0.613719 0 0.789525
    outer loop
      vertex -9.02671 3.1324 10.1599
      vertex -9.51478 3.28324 9.78051
      vertex -9.02671 -3.1324 10.1599
    endloop
  endfacet
  facet normal -0.613718 3.20415e-05 0.789525
    outer loop
      vertex -9.02671 -3.1324 10.1599
      vertex -9.50653 -3.28993 9.78693
      vertex -9.31043 -3.44862 9.93937
    endloop
  endfacet
  facet normal -0.613719 0 0.789525
    outer loop
      vertex -9.51478 -3.28324 9.78051
      vertex -9.02671 -3.1324 10.1599
      vertex -9.51478 3.28324 9.78051
    endloop
  endfacet
  facet normal -0.613835 0.000602524 0.789434
    outer loop
      vertex -9.02671 -3.1324 10.1599
      vertex -9.51478 -3.28324 9.78051
      vertex -9.50653 -3.28993 9.78693
    endloop
  endfacet
  facet normal -0.692526 0 0.721393
    outer loop
      vertex -9.95887 2.88807 9.35419
      vertex -9.51478 -3.28324 9.78051
      vertex -9.51478 3.28324 9.78051
    endloop
  endfacet
  facet normal -0.692526 0 0.721393
    outer loop
      vertex -9.51478 -3.28324 9.78051
      vertex -9.95887 2.88807 9.35419
      vertex -9.95887 -2.88807 9.35419
    endloop
  endfacet
  facet normal -0.764378 0 0.644768
    outer loop
      vertex -10 -2.84738 9.30543
      vertex -9.95887 2.88807 9.35419
      vertex -10 2.84738 9.30543
    endloop
  endfacet
  facet normal -0.764378 0 0.644768
    outer loop
      vertex -9.95887 2.88807 9.35419
      vertex -10 -2.84738 9.30543
      vertex -9.95887 -2.88807 9.35419
    endloop
  endfacet
  facet normal -0.52915 0 0.848528
    outer loop
      vertex -9.02671 3.1324 10.1599
      vertex -8.80205 -2.93158 10.3
      vertex -8.80205 2.93158 10.3
    endloop
  endfacet
  facet normal -0.52915 0 0.848528
    outer loop
      vertex -8.80205 -2.93158 10.3
      vertex -9.02671 3.1324 10.1599
      vertex -9.02671 -3.1324 10.1599
    endloop
  endfacet
  facet normal -1 0 0
    outer loop
      vertex -10 -2.091 5.5
      vertex -10 2.12803 6.11476
      vertex -10 2.091 5.5
    endloop
  endfacet
  facet normal -1 0 0
    outer loop
      vertex -10 -2.12803 6.11476
      vertex -10 2.12803 6.11476
      vertex -10 -2.091 5.5
    endloop
  endfacet
  facet normal -1 0 0
    outer loop
      vertex -10 2.12803 6.11476
      vertex -10 -2.12803 6.11476
      vertex -10 2.16354 6.70417
    endloop
  endfacet
  facet normal -1 0 0
    outer loop
      vertex -10 -2.16354 6.70417
      vertex -10 2.16354 6.70417
      vertex -10 -2.12803 6.11476
    endloop
  endfacet
  facet normal -1 0 0
    outer loop
      vertex -10 2.16354 6.70417
      vertex -10 -2.16354 6.70417
      vertex -10 2.27185 7.29918
    endloop
  endfacet
  facet normal -1 0 0
    outer loop
      vertex -10 -2.27185 7.29918
      vertex -10 2.27185 7.29918
      vertex -10 -2.16354 6.70417
    endloop
  endfacet
  facet normal -1 0 0
    outer loop
      vertex -10 2.27185 7.29918
      vertex -10 -2.27185 7.29918
      vertex -10 2.38034 7.89514
    endloop
  endfacet
  facet normal -1 0 0
    outer loop
      vertex -10 -2.38034 7.89514
      vertex -10 2.38034 7.89514
      vertex -10 -2.27185 7.29918
    endloop
  endfacet
  facet normal -1 0 0
    outer loop
      vertex -10 2.38034 7.89514
      vertex -10 -2.38034 7.89514
      vertex -10 2.55274 8.45493
    endloop
  endfacet
  facet normal -1 0 0
    outer loop
      vertex -10 -2.55274 8.45493
      vertex -10 2.55274 8.45493
      vertex -10 -2.38034 7.89514
    endloop
  endfacet
  facet normal -1 0 0
    outer loop
      vertex -10 2.55274 8.45493
      vertex -10 -2.55274 8.45493
      vertex -10 2.73904 9.05988
    endloop
  endfacet
  facet normal -1 0 0
    outer loop
      vertex -10 -2.73904 9.05988
      vertex -10 2.73904 9.05988
      vertex -10 -2.55274 8.45493
    endloop
  endfacet
  facet normal -1 0 0
    outer loop
      vertex -10 2.73904 9.05988
      vertex -10 -2.73904 9.05988
      vertex -10 2.84738 9.30543
    endloop
  endfacet
  facet normal -1 -0 0
    outer loop
      vertex -10 2.84738 9.30543
      vertex -10 -2.73904 9.05988
      vertex -10 -2.84738 9.30543
    endloop
  endfacet
  facet normal -0 0 1
    outer loop
      vertex -8.80205 2.93158 10.3
      vertex 8.80205 -2.93158 10.3
      vertex 8.80205 2.93158 10.3
    endloop
  endfacet
  facet normal 0 0 1
    outer loop
      vertex 8.80205 -2.93158 10.3
      vertex -8.80205 2.93158 10.3
      vertex -8.80205 -2.93158 10.3
    endloop
  endfacet
  facet normal 0 0.954479 -0.298278
    outer loop
      vertex 8.12694 3.61246 9.05988
      vertex -8.30034 3.8088 9.68816
      vertex 8.30034 3.8088 9.68816
    endloop
  endfacet
  facet normal 0 0.954479 -0.298278
    outer loop
      vertex 8.12694 3.61246 9.05988
      vertex -8.12694 3.61246 9.05988
      vertex -8.30034 3.8088 9.68816
    endloop
  endfacet
  facet normal 0 0.95448 -0.298275
    outer loop
      vertex 8.13661 3.30176 8.06564
      vertex -8.12694 3.61246 9.05988
      vertex 8.12694 3.61246 9.05988
    endloop
  endfacet
  facet normal 0 0.95448 -0.298275
    outer loop
      vertex 8.13661 3.30176 8.06564
      vertex -8.13661 3.30176 8.06564
      vertex -8.12694 3.61246 9.05988
    endloop
  endfacet
  facet normal 0 0.954482 -0.298269
    outer loop
      vertex 8.13826 3.24848 7.89514
      vertex -8.13661 3.30176 8.06564
      vertex 8.13661 3.30176 8.06564
    endloop
  endfacet
  facet normal 0 0.954482 -0.298269
    outer loop
      vertex 8.13826 3.24848 7.89514
      vertex -8.13826 3.24848 7.89514
      vertex -8.13661 3.30176 8.06564
    endloop
  endfacet
  facet normal 0 0.954479 -0.298278
    outer loop
      vertex 8.19253 3.18787 7.70119
      vertex -8.13826 3.24848 7.89514
      vertex 8.13826 3.24848 7.89514
    endloop
  endfacet
  facet normal 0 0.954479 -0.298278
    outer loop
      vertex 8.19253 3.18787 7.70119
      vertex -8.19253 3.18787 7.70119
      vertex -8.13826 3.24848 7.89514
    endloop
  endfacet
  facet normal 0 0.95448 -0.298276
    outer loop
      vertex 8.47147 2.8763 6.70417
      vertex -8.19253 3.18787 7.70119
      vertex 8.19253 3.18787 7.70119
    endloop
  endfacet
  facet normal 0 0.95448 -0.298276
    outer loop
      vertex 8.47147 2.8763 6.70417
      vertex -8.47147 2.8763 6.70417
      vertex -8.19253 3.18787 7.70119
    endloop
  endfacet
  facet normal 0 0.954482 -0.298268
    outer loop
      vertex 8.91915 2.6177 5.87663
      vertex -8.47147 2.8763 6.70417
      vertex 8.47147 2.8763 6.70417
    endloop
  endfacet
  facet normal 0 0.954482 -0.298268
    outer loop
      vertex 8.91915 2.6177 5.87663
      vertex -8.91915 2.6177 5.87663
      vertex -8.47147 2.8763 6.70417
    endloop
  endfacet
  facet normal 0 0.954478 -0.298282
    outer loop
      vertex 9.1229 2.5 5.5
      vertex -8.91915 2.6177 5.87663
      vertex 8.91915 2.6177 5.87663
    endloop
  endfacet
  facet normal 0 0.954478 -0.298282
    outer loop
      vertex -8.91915 2.6177 5.87663
      vertex 9.1229 2.5 5.5
      vertex -9.1229 2.5 5.5
    endloop
  endfacet
  facet normal 1 0 0
    outer loop
      vertex 10 2.12803 6.11476
      vertex 10 -2.091 5.5
      vertex 10 2.091 5.5
    endloop
  endfacet
  facet normal 1 0 0
    outer loop
      vertex 10 -2.12803 6.11476
      vertex 10 2.12803 6.11476
      vertex 10 2.16354 6.70417
    endloop
  endfacet
  facet normal 1 0 0
    outer loop
      vertex 10 -2.16354 6.70417
      vertex 10 2.16354 6.70417
      vertex 10 2.27185 7.29918
    endloop
  endfacet
  facet normal 1 0 0
    outer loop
      vertex 10 -2.27185 7.29918
      vertex 10 2.27185 7.29918
      vertex 10 2.38034 7.89514
    endloop
  endfacet
  facet normal 1 0 0
    outer loop
      vertex 10 -2.38034 7.89514
      vertex 10 2.38034 7.89514
      vertex 10 2.55274 8.45493
    endloop
  endfacet
  facet normal 1 0 0
    outer loop
      vertex 10 -2.55274 8.45493
      vertex 10 2.55274 8.45493
      vertex 10 2.73904 9.05988
    endloop
  endfacet
  facet normal 1 0 0
    outer loop
      vertex 10 -2.73904 9.05988
      vertex 10 2.73904 9.05988
      vertex 10 2.84738 9.30543
    endloop
  endfacet
  facet normal 1 0 0
    outer loop
      vertex 10 2.12803 6.11476
      vertex 10 -2.12803 6.11476
      vertex 10 -2.091 5.5
    endloop
  endfacet
  facet normal 1 0 0
    outer loop
      vertex 10 2.16354 6.70417
      vertex 10 -2.16354 6.70417
      vertex 10 -2.12803 6.11476
    endloop
  endfacet
  facet normal 1 0 0
    outer loop
      vertex 10 2.27185 7.29918
      vertex 10 -2.27185 7.29918
      vertex 10 -2.16354 6.70417
    endloop
  endfacet
  facet normal 1 0 0
    outer loop
      vertex 10 2.38034 7.89514
      vertex 10 -2.38034 7.89514
      vertex 10 -2.27185 7.29918
    endloop
  endfacet
  facet normal 1 0 0
    outer loop
      vertex 10 2.55274 8.45493
      vertex 10 -2.55274 8.45493
      vertex 10 -2.38034 7.89514
    endloop
  endfacet
  facet normal 1 0 0
    outer loop
      vertex 10 2.73904 9.05988
      vertex 10 -2.73904 9.05988
      vertex 10 -2.55274 8.45493
    endloop
  endfacet
  facet normal 1 0 -0
    outer loop
      vertex 10 -2.73904 9.05988
      vertex 10 2.84738 9.30543
      vertex 10 -2.84738 9.30543
    endloop
  endfacet
  facet normal 0 -0.954479 -0.298278
    outer loop
      vertex -8.12694 -3.61246 9.05988
      vertex 8.30034 -3.8088 9.68816
      vertex -8.30034 -3.8088 9.68816
    endloop
  endfacet
  facet normal 0 -0.954479 -0.298278
    outer loop
      vertex -8.12694 -3.61246 9.05988
      vertex 8.12694 -3.61246 9.05988
      vertex 8.30034 -3.8088 9.68816
    endloop
  endfacet
  facet normal 0 -0.95448 -0.298275
    outer loop
      vertex -8.13661 -3.30176 8.06564
      vertex 8.12694 -3.61246 9.05988
      vertex -8.12694 -3.61246 9.05988
    endloop
  endfacet
  facet normal 0 -0.95448 -0.298275
    outer loop
      vertex -8.13661 -3.30176 8.06564
      vertex 8.13661 -3.30176 8.06564
      vertex 8.12694 -3.61246 9.05988
    endloop
  endfacet
  facet normal 0 -0.954482 -0.298269
    outer loop
      vertex -8.13826 -3.24848 7.89514
      vertex 8.13661 -3.30176 8.06564
      vertex -8.13661 -3.30176 8.06564
    endloop
  endfacet
  facet normal 0 -0.954482 -0.298269
    outer loop
      vertex -8.13826 -3.24848 7.89514
      vertex 8.13826 -3.24848 7.89514
      vertex 8.13661 -3.30176 8.06564
    endloop
  endfacet
  facet normal 0 -0.954479 -0.298278
    outer loop
      vertex -8.19253 -3.18787 7.70119
      vertex 8.13826 -3.24848 7.89514
      vertex -8.13826 -3.24848 7.89514
    endloop
  endfacet
  facet normal 0 -0.954479 -0.298278
    outer loop
      vertex -8.19253 -3.18787 7.70119
      vertex 8.19253 -3.18787 7.70119
      vertex 8.13826 -3.24848 7.89514
    endloop
  endfacet
  facet normal 0 -0.95448 -0.298276
    outer loop
      vertex -8.47147 -2.8763 6.70417
      vertex 8.19253 -3.18787 7.70119
      vertex -8.19253 -3.18787 7.70119
    endloop
  endfacet
  facet normal 0 -0.95448 -0.298276
    outer loop
      vertex -8.47147 -2.8763 6.70417
      vertex 8.47147 -2.8763 6.70417
      vertex 8.19253 -3.18787 7.70119
    endloop
  endfacet
  facet normal 0 -0.954482 -0.298268
    outer loop
      vertex -8.91915 -2.6177 5.87663
      vertex 8.47147 -2.8763 6.70417
      vertex -8.47147 -2.8763 6.70417
    endloop
  endfacet
  facet normal 0 -0.954482 -0.298268
    outer loop
      vertex -8.91915 -2.6177 5.87663
      vertex 8.91915 -2.6177 5.87663
      vertex 8.47147 -2.8763 6.70417
    endloop
  endfacet
  facet normal 0 -0.954478 -0.298282
    outer loop
      vertex -9.1229 -2.5 5.5
      vertex 8.91915 -2.6177 5.87663
      vertex -8.91915 -2.6177 5.87663
    endloop
  endfacet
  facet normal 0 -0.954478 -0.298282
    outer loop
      vertex 8.91915 -2.6177 5.87663
      vertex -9.1229 -2.5 5.5
      vertex 9.1229 -2.5 5.5
    endloop
  endfacet
  facet normal -6.29359e-06 -0.572031 0.820232
    outer loop
      vertex 9.02671 -3.1324 10.1599
      vertex 9.07216 -3.53359 9.88011
      vertex 9.31043 -3.44862 9.93937
    endloop
  endfacet
  facet normal 0.000195342 -0.572015 0.820243
    outer loop
      vertex 8.80205 -2.93158 10.3
      vertex 9.07216 -3.53359 9.88011
      vertex 9.02671 -3.1324 10.1599
    endloop
  endfacet
  facet normal 3.20697e-06 -0.572073 0.820202
    outer loop
      vertex 8.80205 -2.93158 10.3
      vertex 8.30034 -3.8088 9.68816
      vertex 9.07216 -3.53359 9.88011
    endloop
  endfacet
  facet normal 0 -0.572072 0.820203
    outer loop
      vertex 8.80205 -2.93158 10.3
      vertex -8.30034 -3.8088 9.68816
      vertex 8.30034 -3.8088 9.68816
    endloop
  endfacet
  facet normal 0 -0.572072 0.820203
    outer loop
      vertex -8.80205 -2.93158 10.3
      vertex -8.30034 -3.8088 9.68816
      vertex 8.80205 -2.93158 10.3
    endloop
  endfacet
  facet normal -0.000195342 -0.572015 0.820243
    outer loop
      vertex -9.07216 -3.53359 9.88011
      vertex -8.80205 -2.93158 10.3
      vertex -9.02671 -3.1324 10.1599
    endloop
  endfacet
  facet normal -3.20697e-06 -0.572073 0.820202
    outer loop
      vertex -8.80205 -2.93158 10.3
      vertex -9.07216 -3.53359 9.88011
      vertex -8.30034 -3.8088 9.68816
    endloop
  endfacet
  facet normal 6.29359e-06 -0.572031 0.820232
    outer loop
      vertex -9.07216 -3.53359 9.88011
      vertex -9.02671 -3.1324 10.1599
      vertex -9.31043 -3.44862 9.93937
    endloop
  endfacet
  facet normal -6.29359e-06 0.572031 0.820232
    outer loop
      vertex 9.07216 3.53359 9.88011
      vertex 9.02671 3.1324 10.1599
      vertex 9.31043 3.44862 9.93937
    endloop
  endfacet
  facet normal 0.000195342 0.572015 0.820243
    outer loop
      vertex 9.07216 3.53359 9.88011
      vertex 8.80205 2.93158 10.3
      vertex 9.02671 3.1324 10.1599
    endloop
  endfacet
  facet normal 3.20697e-06 0.572073 0.820202
    outer loop
      vertex 8.30034 3.8088 9.68816
      vertex 8.80205 2.93158 10.3
      vertex 9.07216 3.53359 9.88011
    endloop
  endfacet
  facet normal -0 0.572072 0.820203
    outer loop
      vertex -8.30034 3.8088 9.68816
      vertex 8.80205 2.93158 10.3
      vertex 8.30034 3.8088 9.68816
    endloop
  endfacet
  facet normal 0 0.572072 0.820203
    outer loop
      vertex -8.30034 3.8088 9.68816
      vertex -8.80205 2.93158 10.3
      vertex 8.80205 2.93158 10.3
    endloop
  endfacet
  facet normal -3.20697e-06 0.572073 0.820202
    outer loop
      vertex -9.07216 3.53359 9.88011
      vertex -8.80205 2.93158 10.3
      vertex -8.30034 3.8088 9.68816
    endloop
  endfacet
  facet normal -0.000195342 0.572015 0.820243
    outer loop
      vertex -8.80205 2.93158 10.3
      vertex -9.07216 3.53359 9.88011
      vertex -9.02671 3.1324 10.1599
    endloop
  endfacet
  facet normal 6.29359e-06 0.572031 0.820232
    outer loop
      vertex -9.02671 3.1324 10.1599
      vertex -9.07216 3.53359 9.88011
      vertex -9.31043 3.44862 9.93937
    endloop
  endfacet
  facet normal 0.692526 0 0.721393
    outer loop
      vertex 9.51478 3.28324 9.78051
      vertex 9.95887 -2.88807 9.35419
      vertex 9.95887 2.88807 9.35419
    endloop
  endfacet
  facet normal 0.692526 0 0.721393
    outer loop
      vertex 9.95887 -2.88807 9.35419
      vertex 9.51478 3.28324 9.78051
      vertex 9.51478 -3.28324 9.78051
    endloop
  endfacet
  facet normal 0.764378 0 0.644768
    outer loop
      vertex 9.95887 2.88807 9.35419
      vertex 10 -2.84738 9.30543
      vertex 10 2.84738 9.30543
    endloop
  endfacet
  facet normal 0.764378 0 0.644768
    outer loop
      vertex 10 -2.84738 9.30543
      vertex 9.95887 2.88807 9.35419
      vertex 9.95887 -2.88807 9.35419
    endloop
  endfacet
  facet normal 0.613835 -0.000602524 0.789434
    outer loop
      vertex 9.02671 3.1324 10.1599
      vertex 9.51478 3.28324 9.78051
      vertex 9.50653 3.28993 9.78693
    endloop
  endfacet
  facet normal 0.613719 0 0.789525
    outer loop
      vertex 9.51478 3.28324 9.78051
      vertex 9.02671 3.1324 10.1599
      vertex 9.51478 -3.28324 9.78051
    endloop
  endfacet
  facet normal 0.613718 -3.20415e-05 0.789525
    outer loop
      vertex 9.02671 3.1324 10.1599
      vertex 9.50653 3.28993 9.78693
      vertex 9.31043 3.44862 9.93937
    endloop
  endfacet
  facet normal 0.613719 -0 0.789525
    outer loop
      vertex 9.02671 -3.1324 10.1599
      vertex 9.51478 -3.28324 9.78051
      vertex 9.02671 3.1324 10.1599
    endloop
  endfacet
  facet normal 0.613835 0.000602524 0.789434
    outer loop
      vertex 9.51478 -3.28324 9.78051
      vertex 9.02671 -3.1324 10.1599
      vertex 9.50653 -3.28993 9.78693
    endloop
  endfacet
  facet normal 0.613718 3.20415e-05 0.789525
    outer loop
      vertex 9.50653 -3.28993 9.78693
      vertex 9.02671 -3.1324 10.1599
      vertex 9.31043 -3.44862 9.93937
    endloop
  endfacet
  facet normal 0.52915 0 0.848528
    outer loop
      vertex 8.80205 2.93158 10.3
      vertex 9.02671 -3.1324 10.1599
      vertex 9.02671 3.1324 10.1599
    endloop
  endfacet
  facet normal 0.52915 0 0.848528
    outer loop
      vertex 9.02671 -3.1324 10.1599
      vertex 8.80205 2.93158 10.3
      vertex 8.80205 -2.93158 10.3
    endloop
  endfacet
  facet normal -0.391787 -0.841067 -0.372974
    outer loop
      vertex -9.51478 -3.28324 9.78051
      vertex -9.07216 -3.53359 9.88011
      vertex -9.50653 -3.28993 9.78693
    endloop
  endfacet
  facet normal -0.392431 -0.841524 -0.371261
    outer loop
      vertex -10 -2.73904 9.05988
      vertex -9.07216 -3.53359 9.88011
      vertex -9.51478 -3.28324 9.78051
    endloop
  endfacet
  facet normal -0.392397 -0.841529 -0.371288
    outer loop
      vertex -10 -2.73904 9.05988
      vertex -9.51478 -3.28324 9.78051
      vertex -9.95887 -2.88807 9.35419
    endloop
  endfacet
  facet normal -0.392359 -0.841541 -0.371299
    outer loop
      vertex -10 -2.73904 9.05988
      vertex -9.95887 -2.88807 9.35419
      vertex -10 -2.84738 9.30543
    endloop
  endfacet
  facet normal -0.392408 -0.841524 -0.371287
    outer loop
      vertex -9.07216 -3.53359 9.88011
      vertex -10 -2.73904 9.05988
      vertex -8.12694 -3.61246 9.05988
    endloop
  endfacet
  facet normal -0.392403 -0.841529 -0.371281
    outer loop
      vertex -9.07216 -3.53359 9.88011
      vertex -8.12694 -3.61246 9.05988
      vertex -8.30034 -3.8088 9.68816
    endloop
  endfacet
  facet normal -0.407058 -0.872942 -0.268842
    outer loop
      vertex -10 -2.38034 7.89514
      vertex -8.13661 -3.30176 8.06564
      vertex -10 -2.55274 8.45493
    endloop
  endfacet
  facet normal -0.407057 -0.87294 -0.268848
    outer loop
      vertex -8.13661 -3.30176 8.06564
      vertex -10 -2.38034 7.89514
      vertex -8.13826 -3.24848 7.89514
    endloop
  endfacet
  facet normal -0.39243 -0.841543 -0.37122
    outer loop
      vertex -9.07216 -3.53359 9.88011
      vertex -9.31043 -3.44862 9.93937
      vertex -9.50653 -3.28993 9.78693
    endloop
  endfacet
  facet normal -0.40706 -0.872944 -0.268831
    outer loop
      vertex -10 -2.55274 8.45493
      vertex -8.12694 -3.61246 9.05988
      vertex -10 -2.73904 9.05988
    endloop
  endfacet
  facet normal -0.407058 -0.872944 -0.268836
    outer loop
      vertex -8.12694 -3.61246 9.05988
      vertex -10 -2.55274 8.45493
      vertex -8.13661 -3.30176 8.06564
    endloop
  endfacet
  facet normal -0.416979 -0.894222 -0.162776
    outer loop
      vertex -8.47147 -2.8763 6.70417
      vertex -10 -2.27185 7.29918
      vertex -10 -2.16354 6.70417
    endloop
  endfacet
  facet normal -0.416982 -0.894219 -0.162784
    outer loop
      vertex -10 -2.27185 7.29918
      vertex -8.47147 -2.8763 6.70417
      vertex -8.19253 -3.18787 7.70119
    endloop
  endfacet
  facet normal -0.416981 -0.894222 -0.16277
    outer loop
      vertex -10 -2.38034 7.89514
      vertex -8.19253 -3.18787 7.70119
      vertex -8.13826 -3.24848 7.89514
    endloop
  endfacet
  facet normal -0.416981 -0.894219 -0.162786
    outer loop
      vertex -8.19253 -3.18787 7.70119
      vertex -10 -2.38034 7.89514
      vertex -10 -2.27185 7.29918
    endloop
  endfacet
  facet normal -0.421995 -0.904957 -0.0545207
    outer loop
      vertex -8.91915 -2.6177 5.87663
      vertex -10 -2.16354 6.70417
      vertex -10 -2.12803 6.11476
    endloop
  endfacet
  facet normal -0.421987 -0.904962 -0.0545082
    outer loop
      vertex -10 -2.16354 6.70417
      vertex -8.91915 -2.6177 5.87663
      vertex -8.47147 -2.8763 6.70417
    endloop
  endfacet
  facet normal -0.421991 -0.90496 -0.0545101
    outer loop
      vertex -9.1229 -2.5 5.5
      vertex -10 -2.12803 6.11476
      vertex -10 -2.091 5.5
    endloop
  endfacet
  facet normal -0.421994 -0.904958 -0.0545156
    outer loop
      vertex -10 -2.12803 6.11476
      vertex -9.1229 -2.5 5.5
      vertex -8.91915 -2.6177 5.87663
    endloop
  endfacet
  facet normal -0.421994 0.904958 -0.0545156
    outer loop
      vertex -9.1229 2.5 5.5
      vertex -10 2.12803 6.11476
      vertex -8.91915 2.6177 5.87663
    endloop
  endfacet
  facet normal -0.421991 0.90496 -0.0545101
    outer loop
      vertex -10 2.12803 6.11476
      vertex -9.1229 2.5 5.5
      vertex -10 2.091 5.5
    endloop
  endfacet
  facet normal -0.391787 0.841067 -0.372974
    outer loop
      vertex -9.07216 3.53359 9.88011
      vertex -9.51478 3.28324 9.78051
      vertex -9.50653 3.28993 9.78693
    endloop
  endfacet
  facet normal -0.392403 0.841529 -0.371281
    outer loop
      vertex -8.12694 3.61246 9.05988
      vertex -9.07216 3.53359 9.88011
      vertex -8.30034 3.8088 9.68816
    endloop
  endfacet
  facet normal -0.392408 0.841524 -0.371287
    outer loop
      vertex -10 2.73904 9.05988
      vertex -9.07216 3.53359 9.88011
      vertex -8.12694 3.61246 9.05988
    endloop
  endfacet
  facet normal -0.392431 0.841524 -0.371261
    outer loop
      vertex -9.07216 3.53359 9.88011
      vertex -10 2.73904 9.05988
      vertex -9.51478 3.28324 9.78051
    endloop
  endfacet
  facet normal -0.392397 0.841529 -0.371288
    outer loop
      vertex -9.51478 3.28324 9.78051
      vertex -10 2.73904 9.05988
      vertex -9.95887 2.88807 9.35419
    endloop
  endfacet
  facet normal -0.392359 0.841541 -0.371299
    outer loop
      vertex -9.95887 2.88807 9.35419
      vertex -10 2.73904 9.05988
      vertex -10 2.84738 9.30543
    endloop
  endfacet
  facet normal -0.421987 0.904962 -0.0545082
    outer loop
      vertex -8.91915 2.6177 5.87663
      vertex -10 2.16354 6.70417
      vertex -8.47147 2.8763 6.70417
    endloop
  endfacet
  facet normal -0.421995 0.904957 -0.0545207
    outer loop
      vertex -10 2.16354 6.70417
      vertex -8.91915 2.6177 5.87663
      vertex -10 2.12803 6.11476
    endloop
  endfacet
  facet normal -0.416981 0.894222 -0.16277
    outer loop
      vertex -8.19253 3.18787 7.70119
      vertex -10 2.38034 7.89514
      vertex -8.13826 3.24848 7.89514
    endloop
  endfacet
  facet normal -0.416981 0.894219 -0.162786
    outer loop
      vertex -10 2.38034 7.89514
      vertex -8.19253 3.18787 7.70119
      vertex -10 2.27185 7.29918
    endloop
  endfacet
  facet normal -0.40706 0.872944 -0.268831
    outer loop
      vertex -8.12694 3.61246 9.05988
      vertex -10 2.55274 8.45493
      vertex -10 2.73904 9.05988
    endloop
  endfacet
  facet normal -0.407058 0.872944 -0.268836
    outer loop
      vertex -10 2.55274 8.45493
      vertex -8.12694 3.61246 9.05988
      vertex -8.13661 3.30176 8.06564
    endloop
  endfacet
  facet normal -0.407057 0.87294 -0.268848
    outer loop
      vertex -10 2.38034 7.89514
      vertex -8.13661 3.30176 8.06564
      vertex -8.13826 3.24848 7.89514
    endloop
  endfacet
  facet normal -0.407058 0.872942 -0.268842
    outer loop
      vertex -8.13661 3.30176 8.06564
      vertex -10 2.38034 7.89514
      vertex -10 2.55274 8.45493
    endloop
  endfacet
  facet normal -0.39243 0.841543 -0.37122
    outer loop
      vertex -9.31043 3.44862 9.93937
      vertex -9.07216 3.53359 9.88011
      vertex -9.50653 3.28993 9.78693
    endloop
  endfacet
  facet normal -0.416982 0.894219 -0.162784
    outer loop
      vertex -8.47147 2.8763 6.70417
      vertex -10 2.27185 7.29918
      vertex -8.19253 3.18787 7.70119
    endloop
  endfacet
  facet normal -0.416979 0.894222 -0.162776
    outer loop
      vertex -10 2.27185 7.29918
      vertex -8.47147 2.8763 6.70417
      vertex -10 2.16354 6.70417
    endloop
  endfacet
  facet normal 0.391787 -0.841067 -0.372974
    outer loop
      vertex 9.07216 -3.53359 9.88011
      vertex 9.51478 -3.28324 9.78051
      vertex 9.50653 -3.28993 9.78693
    endloop
  endfacet
  facet normal 0.392403 -0.841529 -0.371281
    outer loop
      vertex 8.12694 -3.61246 9.05988
      vertex 9.07216 -3.53359 9.88011
      vertex 8.30034 -3.8088 9.68816
    endloop
  endfacet
  facet normal 0.392408 -0.841524 -0.371287
    outer loop
      vertex 10 -2.73904 9.05988
      vertex 9.07216 -3.53359 9.88011
      vertex 8.12694 -3.61246 9.05988
    endloop
  endfacet
  facet normal 0.392431 -0.841524 -0.371261
    outer loop
      vertex 9.07216 -3.53359 9.88011
      vertex 10 -2.73904 9.05988
      vertex 9.51478 -3.28324 9.78051
    endloop
  endfacet
  facet normal 0.392397 -0.841529 -0.371288
    outer loop
      vertex 9.51478 -3.28324 9.78051
      vertex 10 -2.73904 9.05988
      vertex 9.95887 -2.88807 9.35419
    endloop
  endfacet
  facet normal 0.392359 -0.841541 -0.371299
    outer loop
      vertex 9.95887 -2.88807 9.35419
      vertex 10 -2.73904 9.05988
      vertex 10 -2.84738 9.30543
    endloop
  endfacet
  facet normal 0.421987 -0.904962 -0.0545082
    outer loop
      vertex 8.91915 -2.6177 5.87663
      vertex 10 -2.16354 6.70417
      vertex 8.47147 -2.8763 6.70417
    endloop
  endfacet
  facet normal 0.421995 -0.904957 -0.0545207
    outer loop
      vertex 10 -2.16354 6.70417
      vertex 8.91915 -2.6177 5.87663
      vertex 10 -2.12803 6.11476
    endloop
  endfacet
  facet normal 0.416981 -0.894222 -0.16277
    outer loop
      vertex 8.19253 -3.18787 7.70119
      vertex 10 -2.38034 7.89514
      vertex 8.13826 -3.24848 7.89514
    endloop
  endfacet
  facet normal 0.416981 -0.894219 -0.162786
    outer loop
      vertex 10 -2.38034 7.89514
      vertex 8.19253 -3.18787 7.70119
      vertex 10 -2.27185 7.29918
    endloop
  endfacet
  facet normal 0.421994 -0.904958 -0.0545156
    outer loop
      vertex 9.1229 -2.5 5.5
      vertex 10 -2.12803 6.11476
      vertex 8.91915 -2.6177 5.87663
    endloop
  endfacet
  facet normal 0.421991 -0.90496 -0.0545101
    outer loop
      vertex 10 -2.12803 6.11476
      vertex 9.1229 -2.5 5.5
      vertex 10 -2.091 5.5
    endloop
  endfacet
  facet normal 0.39243 -0.841543 -0.37122
    outer loop
      vertex 9.50653 -3.28993 9.78693
      vertex 9.31043 -3.44862 9.93937
      vertex 9.07216 -3.53359 9.88011
    endloop
  endfacet
  facet normal 0.40706 -0.872944 -0.268831
    outer loop
      vertex 8.12694 -3.61246 9.05988
      vertex 10 -2.55274 8.45493
      vertex 10 -2.73904 9.05988
    endloop
  endfacet
  facet normal 0.407058 -0.872944 -0.268836
    outer loop
      vertex 10 -2.55274 8.45493
      vertex 8.12694 -3.61246 9.05988
      vertex 8.13661 -3.30176 8.06564
    endloop
  endfacet
  facet normal 0.407057 -0.87294 -0.268848
    outer loop
      vertex 10 -2.38034 7.89514
      vertex 8.13661 -3.30176 8.06564
      vertex 8.13826 -3.24848 7.89514
    endloop
  endfacet
  facet normal 0.407058 -0.872942 -0.268842
    outer loop
      vertex 8.13661 -3.30176 8.06564
      vertex 10 -2.38034 7.89514
      vertex 10 -2.55274 8.45493
    endloop
  endfacet
  facet normal 0.416982 -0.894219 -0.162784
    outer loop
      vertex 8.47147 -2.8763 6.70417
      vertex 10 -2.27185 7.29918
      vertex 8.19253 -3.18787 7.70119
    endloop
  endfacet
  facet normal 0.416979 -0.894222 -0.162776
    outer loop
      vertex 10 -2.27185 7.29918
      vertex 8.47147 -2.8763 6.70417
      vertex 10 -2.16354 6.70417
    endloop
  endfacet
  facet normal 0.421995 0.904957 -0.0545207
    outer loop
      vertex 8.91915 2.6177 5.87663
      vertex 10 2.16354 6.70417
      vertex 10 2.12803 6.11476
    endloop
  endfacet
  facet normal 0.421987 0.904962 -0.0545082
    outer loop
      vertex 10 2.16354 6.70417
      vertex 8.91915 2.6177 5.87663
      vertex 8.47147 2.8763 6.70417
    endloop
  endfacet
  facet normal 0.421991 0.90496 -0.0545101
    outer loop
      vertex 9.1229 2.5 5.5
      vertex 10 2.12803 6.11476
      vertex 10 2.091 5.5
    endloop
  endfacet
  facet normal 0.421994 0.904958 -0.0545156
    outer loop
      vertex 10 2.12803 6.11476
      vertex 9.1229 2.5 5.5
      vertex 8.91915 2.6177 5.87663
    endloop
  endfacet
  facet normal 0.391787 0.841067 -0.372974
    outer loop
      vertex 9.51478 3.28324 9.78051
      vertex 9.07216 3.53359 9.88011
      vertex 9.50653 3.28993 9.78693
    endloop
  endfacet
  facet normal 0.392431 0.841524 -0.371261
    outer loop
      vertex 10 2.73904 9.05988
      vertex 9.07216 3.53359 9.88011
      vertex 9.51478 3.28324 9.78051
    endloop
  endfacet
  facet normal 0.392397 0.841529 -0.371288
    outer loop
      vertex 10 2.73904 9.05988
      vertex 9.51478 3.28324 9.78051
      vertex 9.95887 2.88807 9.35419
    endloop
  endfacet
  facet normal 0.392359 0.841541 -0.371299
    outer loop
      vertex 10 2.73904 9.05988
      vertex 9.95887 2.88807 9.35419
      vertex 10 2.84738 9.30543
    endloop
  endfacet
  facet normal 0.392408 0.841524 -0.371287
    outer loop
      vertex 9.07216 3.53359 9.88011
      vertex 10 2.73904 9.05988
      vertex 8.12694 3.61246 9.05988
    endloop
  endfacet
  facet normal 0.392403 0.841529 -0.371281
    outer loop
      vertex 9.07216 3.53359 9.88011
      vertex 8.12694 3.61246 9.05988
      vertex 8.30034 3.8088 9.68816
    endloop
  endfacet
  facet normal 0.407058 0.872942 -0.268842
    outer loop
      vertex 10 2.38034 7.89514
      vertex 8.13661 3.30176 8.06564
      vertex 10 2.55274 8.45493
    endloop
  endfacet
  facet normal 0.407057 0.87294 -0.268848
    outer loop
      vertex 8.13661 3.30176 8.06564
      vertex 10 2.38034 7.89514
      vertex 8.13826 3.24848 7.89514
    endloop
  endfacet
  facet normal 0.416979 0.894222 -0.162776
    outer loop
      vertex 8.47147 2.8763 6.70417
      vertex 10 2.27185 7.29918
      vertex 10 2.16354 6.70417
    endloop
  endfacet
  facet normal 0.416982 0.894219 -0.162784
    outer loop
      vertex 10 2.27185 7.29918
      vertex 8.47147 2.8763 6.70417
      vertex 8.19253 3.18787 7.70119
    endloop
  endfacet
  facet normal 0.40706 0.872944 -0.268831
    outer loop
      vertex 10 2.55274 8.45493
      vertex 8.12694 3.61246 9.05988
      vertex 10 2.73904 9.05988
    endloop
  endfacet
  facet normal 0.407058 0.872944 -0.268836
    outer loop
      vertex 8.12694 3.61246 9.05988
      vertex 10 2.55274 8.45493
      vertex 8.13661 3.30176 8.06564
    endloop
  endfacet
  facet normal 0.39243 0.841543 -0.37122
    outer loop
      vertex 9.31043 3.44862 9.93937
      vertex 9.50653 3.28993 9.78693
      vertex 9.07216 3.53359 9.88011
    endloop
  endfacet
  facet normal 0.416981 0.894222 -0.16277
    outer loop
      vertex 10 2.38034 7.89514
      vertex 8.19253 3.18787 7.70119
      vertex 8.13826 3.24848 7.89514
    endloop
  endfacet
  facet normal 0.416981 0.894219 -0.162786
    outer loop
      vertex 8.19253 3.18787 7.70119
      vertex 10 2.38034 7.89514
      vertex 10 2.27185 7.29918
    endloop
  endfacet
  facet normal 0 0 -1
    outer loop
      vertex 9.1229 -2.5 5.5
      vertex 10 2.091 5.5
      vertex 10 -2.091 5.5
    endloop
  endfacet
  facet normal 0 0 -1
    outer loop
      vertex 9.1229 -2.5 5.5
      vertex 9.1229 2.5 5.5
      vertex 10 2.091 5.5
    endloop
  endfacet
  facet normal 0 0 -1
    outer loop
      vertex -9.1229 -2.5 5.5
      vertex 9.1229 2.5 5.5
      vertex 9.1229 -2.5 5.5
    endloop
  endfacet
  facet normal 0 0 -1
    outer loop
      vertex -9.1229 -2.5 5.5
      vertex -9.1229 2.5 5.5
      vertex 9.1229 2.5 5.5
    endloop
  endfacet
  facet normal 0 0 -1
    outer loop
      vertex -10 -2.091 5.5
      vertex -9.1229 2.5 5.5
      vertex -9.1229 -2.5 5.5
    endloop
  endfacet
  facet normal 0 0 -1
    outer loop
      vertex -9.1229 2.5 5.5
      vertex -10 -2.091 5.5
      vertex -10 2.091 5.5
    endloop
  endfacet
  facet normal 0.57735 -0.57735 0.57735
    outer loop
      vertex 10 -4.5 5.5
      vertex 10 -5 5
      vertex 10.5 -4.5 5
    endloop
  endfacet
  facet normal 0 -0.707107 0.707107
    outer loop
      vertex 6.22222 -5 5
      vertex 10 -4.5 5.5
      vertex 6 -4.5 5.5
    endloop
  endfacet
  facet normal 0 -0.707107 0.707107
    outer loop
      vertex 10 -4.5 5.5
      vertex 6.22222 -5 5
      vertex 10 -5 5
    endloop
  endfacet
  facet normal 0 -0.707107 0.707107
    outer loop
      vertex -6.22222 -5 5
      vertex -10 -4.5 5.5
      vertex -10 -5 5
    endloop
  endfacet
  facet normal 0 -0.707107 0.707107
    outer loop
      vertex -10 -4.5 5.5
      vertex -6.22222 -5 5
      vertex -6 -4.5 5.5
    endloop
  endfacet
  facet normal 0.707107 -0 0.707107
    outer loop
      vertex 10 -4.5 5.5
      vertex 10.5 4.5 5
      vertex 10 4.5 5.5
    endloop
  endfacet
  facet normal 0.707107 0 0.707107
    outer loop
      vertex 10.5 4.5 5
      vertex 10 -4.5 5.5
      vertex 10.5 -4.5 5
    endloop
  endfacet
  facet normal 0.57735 0.57735 0.57735
    outer loop
      vertex 10 5 5
      vertex 10 4.5 5.5
      vertex 10.5 4.5 5
    endloop
  endfacet
  facet normal 0 0.707107 0.707107
    outer loop
      vertex -6.22222 5 5
      vertex -10 4.5 5.5
      vertex -6 4.5 5.5
    endloop
  endfacet
  facet normal 0 0.707107 0.707107
    outer loop
      vertex -10 4.5 5.5
      vertex -6.22222 5 5
      vertex -10 5 5
    endloop
  endfacet
  facet normal -0 0.707107 0.707107
    outer loop
      vertex 6.22222 5 5
      vertex 10 4.5 5.5
      vertex 10 5 5
    endloop
  endfacet
  facet normal 0 0.707107 0.707107
    outer loop
      vertex 10 4.5 5.5
      vertex 6.22222 5 5
      vertex 6 4.5 5.5
    endloop
  endfacet
  facet normal -0.57735 -0.57735 0.57735
    outer loop
      vertex -10 -4.5 5.5
      vertex -10.5 -4.5 5
      vertex -10 -5 5
    endloop
  endfacet
  facet normal -0.707107 0 0.707107
    outer loop
      vertex -10.5 -4.5 5
      vertex -10 4.5 5.5
      vertex -10.5 4.5 5
    endloop
  endfacet
  facet normal -0.707107 0 0.707107
    outer loop
      vertex -10 4.5 5.5
      vertex -10.5 -4.5 5
      vertex -10 -4.5 5.5
    endloop
  endfacet
  facet normal -0.57735 0.57735 0.57735
    outer loop
      vertex -10 5 5
      vertex -10.5 4.5 5
      vertex -10 4.5 5.5
    endloop
  endfacet
endsolid OpenSCAD_Model
