solid OpenSCAD_Model
  facet normal 0 1 -0
    outer loop
      vertex 8 19.9961 0
      vertex 1.87442 19.9961 15
      vertex 8 19.9961 15
    endloop
  endfacet
  facet normal 0 1 0
    outer loop
      vertex 1.87442 19.9961 15
      vertex 8 19.9961 0
      vertex 1.87442 19.9961 0
    endloop
  endfacet
  facet normal -0.125334 -0.992115 0
    outer loop
      vertex 1.62524 0.0354252 0
      vertex 1.87442 0.0039463 15
      vertex 1.62524 0.0354252 15
    endloop
  endfacet
  facet normal -0.125334 -0.992115 -0
    outer loop
      vertex 1.87442 0.0039463 15
      vertex 1.62524 0.0354252 0
      vertex 1.87442 0.0039463 0
    endloop
  endfacet
  facet normal -0.125416 0.992104 0
    outer loop
      vertex 1.87442 19.9961 0
      vertex 1.62524 19.9646 15
      vertex 1.87442 19.9961 15
    endloop
  endfacet
  facet normal -0.125416 0.992104 0
    outer loop
      vertex 1.62524 19.9646 15
      vertex 1.87442 19.9961 0
      vertex 1.62524 19.9646 0
    endloop
  endfacet
  facet normal -0.248689 -0.968583 0
    outer loop
      vertex 1.38197 0.0978861 0
      vertex 1.62524 0.0354252 15
      vertex 1.38197 0.0978861 15
    endloop
  endfacet
  facet normal -0.248689 -0.968583 -0
    outer loop
      vertex 1.62524 0.0354252 15
      vertex 1.38197 0.0978861 0
      vertex 1.62524 0.0354252 0
    endloop
  endfacet
  facet normal -0.367914 0.92986 0
    outer loop
      vertex 1.38197 19.9021 0
      vertex 1.14844 19.8097 15
      vertex 1.38197 19.9021 15
    endloop
  endfacet
  facet normal -0.367914 0.92986 0
    outer loop
      vertex 1.14844 19.8097 15
      vertex 1.38197 19.9021 0
      vertex 1.14844 19.8097 0
    endloop
  endfacet
  facet normal -0.248835 0.968546 0
    outer loop
      vertex 1.62524 19.9646 0
      vertex 1.38197 19.9021 15
      vertex 1.62524 19.9646 15
    endloop
  endfacet
  facet normal -0.248835 0.968546 0
    outer loop
      vertex 1.38197 19.9021 15
      vertex 1.62524 19.9646 0
      vertex 1.38197 19.9021 0
    endloop
  endfacet
  facet normal -0.951056 -0.309019 0
    outer loop
      vertex 0.140447 1.26375 0
      vertex 0.0628328 1.50262 15
      vertex 0.0628328 1.50262 0
    endloop
  endfacet
  facet normal -0.951056 -0.309019 0
    outer loop
      vertex 0.0628328 1.50262 15
      vertex 0.140447 1.26375 0
      vertex 0.140447 1.26375 15
    endloop
  endfacet
  facet normal -1 0 0
    outer loop
      vertex 0 2.8 0
      vertex 0 2 0
      vertex 0 2.8 14
    endloop
  endfacet
  facet normal -1 0 0
    outer loop
      vertex 0 17.2 14
      vertex 0 18 0
      vertex 0 17.2 0
    endloop
  endfacet
  facet normal -1 0 0
    outer loop
      vertex 0 18 0
      vertex 0 17.2 14
      vertex 0 18 15
    endloop
  endfacet
  facet normal -1 0 0
    outer loop
      vertex 0 2.8 14
      vertex 0 18 15
      vertex 0 17.2 14
    endloop
  endfacet
  facet normal -1 0 0
    outer loop
      vertex 0 2.8 14
      vertex 0 2 15
      vertex 0 18 15
    endloop
  endfacet
  facet normal -1 0 0
    outer loop
      vertex 0 2 15
      vertex 0 2.8 14
      vertex 0 2 0
    endloop
  endfacet
  facet normal -0.998027 -0.0627873 0
    outer loop
      vertex 0.01577 1.74933 0
      vertex 0 2 15
      vertex 0 2 0
    endloop
  endfacet
  facet normal -0.998027 -0.0627873 0
    outer loop
      vertex 0 2 15
      vertex 0.01577 1.74933 0
      vertex 0.01577 1.74933 15
    endloop
  endfacet
  facet normal -0.684477 0.729034 0
    outer loop
      vertex 0.725152 19.541 0
      vertex 0.542062 19.3691 15
      vertex 0.725152 19.541 15
    endloop
  endfacet
  facet normal -0.684477 0.729034 0
    outer loop
      vertex 0.542062 19.3691 15
      vertex 0.725152 19.541 0
      vertex 0.542062 19.3691 0
    endloop
  endfacet
  facet normal -0.58797 0.808883 0
    outer loop
      vertex 0.928346 19.6887 0
      vertex 0.725152 19.541 15
      vertex 0.928346 19.6887 15
    endloop
  endfacet
  facet normal -0.58797 0.808883 0
    outer loop
      vertex 0.725152 19.541 15
      vertex 0.928346 19.6887 0
      vertex 0.725152 19.541 0
    endloop
  endfacet
  facet normal -0.770476 0.637469 0
    outer loop
      vertex 0.381966 19.1756 0
      vertex 0.542062 19.3691 15
      vertex 0.542062 19.3691 0
    endloop
  endfacet
  facet normal -0.770476 0.637469 0
    outer loop
      vertex 0.542062 19.3691 15
      vertex 0.381966 19.1756 0
      vertex 0.381966 19.1756 15
    endloop
  endfacet
  facet normal -0.982287 -0.187383 0
    outer loop
      vertex 0.0628328 1.50262 0
      vertex 0.01577 1.74933 15
      vertex 0.01577 1.74933 0
    endloop
  endfacet
  facet normal -0.982287 -0.187383 0
    outer loop
      vertex 0.01577 1.74933 15
      vertex 0.0628328 1.50262 0
      vertex 0.0628328 1.50262 15
    endloop
  endfacet
  facet normal -0.368121 -0.929778 0
    outer loop
      vertex 1.14844 0.190346 0
      vertex 1.38197 0.0978861 15
      vertex 1.14844 0.190346 15
    endloop
  endfacet
  facet normal -0.368121 -0.929778 -0
    outer loop
      vertex 1.38197 0.0978861 15
      vertex 1.14844 0.190346 0
      vertex 1.38197 0.0978861 0
    endloop
  endfacet
  facet normal -0.904858 0.425713 0
    outer loop
      vertex 0.140447 18.7362 0
      vertex 0.247386 18.9635 15
      vertex 0.247386 18.9635 0
    endloop
  endfacet
  facet normal -0.904858 0.425713 0
    outer loop
      vertex 0.247386 18.9635 15
      vertex 0.140447 18.7362 0
      vertex 0.140447 18.7362 15
    endloop
  endfacet
  facet normal -0.951029 0.309101 0
    outer loop
      vertex 0.0628328 18.4974 0
      vertex 0.140447 18.7362 15
      vertex 0.140447 18.7362 0
    endloop
  endfacet
  facet normal -0.951029 0.309101 0
    outer loop
      vertex 0.140447 18.7362 15
      vertex 0.0628328 18.4974 0
      vertex 0.0628328 18.4974 15
    endloop
  endfacet
  facet normal -0.844324 -0.535832 0
    outer loop
      vertex 0.381966 0.824429 0
      vertex 0.247386 1.03649 15
      vertex 0.247386 1.03649 0
    endloop
  endfacet
  facet normal -0.844324 -0.535832 0
    outer loop
      vertex 0.247386 1.03649 15
      vertex 0.381966 0.824429 0
      vertex 0.381966 0.824429 15
    endloop
  endfacet
  facet normal 0 -1 0
    outer loop
      vertex 1.87442 0.0039463 0
      vertex 8 0.0039463 15
      vertex 1.87442 0.0039463 15
    endloop
  endfacet
  facet normal 0 -1 -0
    outer loop
      vertex 8 0.0039463 15
      vertex 1.87442 0.0039463 0
      vertex 8 0.0039463 0
    endloop
  endfacet
  facet normal -0.481755 -0.876306 0
    outer loop
      vertex 0.928346 0.311344 0
      vertex 1.14844 0.190346 15
      vertex 0.928346 0.311344 15
    endloop
  endfacet
  facet normal -0.481755 -0.876306 -0
    outer loop
      vertex 1.14844 0.190346 15
      vertex 0.928346 0.311344 0
      vertex 1.14844 0.190346 0
    endloop
  endfacet
  facet normal -0.770515 -0.637422 0
    outer loop
      vertex 0.542062 0.630905 0
      vertex 0.381966 0.824429 15
      vertex 0.381966 0.824429 0
    endloop
  endfacet
  facet normal -0.770515 -0.637422 0
    outer loop
      vertex 0.381966 0.824429 15
      vertex 0.542062 0.630905 0
      vertex 0.542062 0.630905 15
    endloop
  endfacet
  facet normal -0.684545 -0.728971 0
    outer loop
      vertex 0.542062 0.630905 0
      vertex 0.725152 0.458973 15
      vertex 0.542062 0.630905 15
    endloop
  endfacet
  facet normal -0.684545 -0.728971 -0
    outer loop
      vertex 0.725152 0.458973 15
      vertex 0.542062 0.630905 0
      vertex 0.725152 0.458973 0
    endloop
  endfacet
  facet normal -0.481761 0.876303 0
    outer loop
      vertex 1.14844 19.8097 0
      vertex 0.928346 19.6887 15
      vertex 1.14844 19.8097 15
    endloop
  endfacet
  facet normal -0.481761 0.876303 0
    outer loop
      vertex 0.928346 19.6887 15
      vertex 1.14844 19.8097 0
      vertex 0.928346 19.6887 0
    endloop
  endfacet
  facet normal -0.982286 0.18739 0
    outer loop
      vertex 0.01577 18.2507 0
      vertex 0.0628328 18.4974 15
      vertex 0.0628328 18.4974 0
    endloop
  endfacet
  facet normal -0.982286 0.18739 0
    outer loop
      vertex 0.0628328 18.4974 15
      vertex 0.01577 18.2507 0
      vertex 0.01577 18.2507 15
    endloop
  endfacet
  facet normal -0.904829 -0.425775 0
    outer loop
      vertex 0.247386 1.03649 0
      vertex 0.140447 1.26375 15
      vertex 0.140447 1.26375 0
    endloop
  endfacet
  facet normal -0.904829 -0.425775 0
    outer loop
      vertex 0.140447 1.26375 15
      vertex 0.247386 1.03649 0
      vertex 0.247386 1.03649 15
    endloop
  endfacet
  facet normal -0.587785 -0.809017 0
    outer loop
      vertex 0.725152 0.458973 0
      vertex 0.928346 0.311344 15
      vertex 0.725152 0.458973 15
    endloop
  endfacet
  facet normal -0.587785 -0.809017 -0
    outer loop
      vertex 0.928346 0.311344 15
      vertex 0.725152 0.458973 0
      vertex 0.928346 0.311344 0
    endloop
  endfacet
  facet normal -0.844369 0.535762 0
    outer loop
      vertex 0.247386 18.9635 0
      vertex 0.381966 19.1756 15
      vertex 0.381966 19.1756 0
    endloop
  endfacet
  facet normal -0.844369 0.535762 0
    outer loop
      vertex 0.381966 19.1756 15
      vertex 0.247386 18.9635 0
      vertex 0.247386 18.9635 15
    endloop
  endfacet
  facet normal -0.998027 0.0627798 0
    outer loop
      vertex 0 18 0
      vertex 0.01577 18.2507 15
      vertex 0.01577 18.2507 0
    endloop
  endfacet
  facet normal -0.998027 0.0627798 0
    outer loop
      vertex 0.01577 18.2507 15
      vertex 0 18 0
      vertex 0 18 15
    endloop
  endfacet
  facet normal 0 0 1
    outer loop
      vertex 8 19.9961 15
      vertex 3.01 14 15
      vertex 8 12.503 15
    endloop
  endfacet
  facet normal -0 0 1
    outer loop
      vertex 0 18 15
      vertex 3.01 14 15
      vertex 1.87442 19.9961 15
    endloop
  endfacet
  facet normal -0 0 1
    outer loop
      vertex 1.87442 19.9961 15
      vertex 3.01 14 15
      vertex 8 19.9961 15
    endloop
  endfacet
  facet normal -0 0 1
    outer loop
      vertex 3.01 6 15
      vertex 8 0.0039463 15
      vertex 8 7.497 15
    endloop
  endfacet
  facet normal 0 0 1
    outer loop
      vertex 3.01 6 15
      vertex 1.87442 0.0039463 15
      vertex 8 0.0039463 15
    endloop
  endfacet
  facet normal 0 0 1
    outer loop
      vertex 3.01 14 15
      vertex 0 18 15
      vertex 3.01 6 15
    endloop
  endfacet
  facet normal 0 0 1
    outer loop
      vertex 0 18 15
      vertex 1.87442 19.9961 15
      vertex 1.62524 19.9646 15
    endloop
  endfacet
  facet normal 0 0 1
    outer loop
      vertex 0 2 15
      vertex 3.01 6 15
      vertex 0 18 15
    endloop
  endfacet
  facet normal 0 0 1
    outer loop
      vertex 0 18 15
      vertex 1.62524 19.9646 15
      vertex 1.38197 19.9021 15
    endloop
  endfacet
  facet normal 0 0 1
    outer loop
      vertex 3.01 6 15
      vertex 0 2 15
      vertex 1.87442 0.0039463 15
    endloop
  endfacet
  facet normal 0 0 1
    outer loop
      vertex 0 18 15
      vertex 1.38197 19.9021 15
      vertex 1.14844 19.8097 15
    endloop
  endfacet
  facet normal 0 0 1
    outer loop
      vertex 1.87442 0.0039463 15
      vertex 0 2 15
      vertex 1.62524 0.0354252 15
    endloop
  endfacet
  facet normal 0 0 1
    outer loop
      vertex 0 18 15
      vertex 1.14844 19.8097 15
      vertex 0.928346 19.6887 15
    endloop
  endfacet
  facet normal 0 0 1
    outer loop
      vertex 1.62524 0.0354252 15
      vertex 0 2 15
      vertex 1.38197 0.0978861 15
    endloop
  endfacet
  facet normal 0 0 1
    outer loop
      vertex 0 18 15
      vertex 0.928346 19.6887 15
      vertex 0.725152 19.541 15
    endloop
  endfacet
  facet normal 0 0 1
    outer loop
      vertex 1.38197 0.0978861 15
      vertex 0 2 15
      vertex 1.14844 0.190346 15
    endloop
  endfacet
  facet normal 0 0 1
    outer loop
      vertex 0 18 15
      vertex 0.725152 19.541 15
      vertex 0.542062 19.3691 15
    endloop
  endfacet
  facet normal 0 0 1
    outer loop
      vertex 1.14844 0.190346 15
      vertex 0 2 15
      vertex 0.928346 0.311344 15
    endloop
  endfacet
  facet normal 0 0 1
    outer loop
      vertex 0 18 15
      vertex 0.542062 19.3691 15
      vertex 0.381966 19.1756 15
    endloop
  endfacet
  facet normal 0 0 1
    outer loop
      vertex 0.928346 0.311344 15
      vertex 0 2 15
      vertex 0.725152 0.458973 15
    endloop
  endfacet
  facet normal 0 0 1
    outer loop
      vertex 0 18 15
      vertex 0.381966 19.1756 15
      vertex 0.247386 18.9635 15
    endloop
  endfacet
  facet normal 0 0 1
    outer loop
      vertex 0.725152 0.458973 15
      vertex 0 2 15
      vertex 0.542062 0.630905 15
    endloop
  endfacet
  facet normal 0 0 1
    outer loop
      vertex 0 18 15
      vertex 0.247386 18.9635 15
      vertex 0.140447 18.7362 15
    endloop
  endfacet
  facet normal 0 0 1
    outer loop
      vertex 0.542062 0.630905 15
      vertex 0 2 15
      vertex 0.381966 0.824429 15
    endloop
  endfacet
  facet normal 0 0 1
    outer loop
      vertex 0 18 15
      vertex 0.140447 18.7362 15
      vertex 0.0628328 18.4974 15
    endloop
  endfacet
  facet normal 0 0 1
    outer loop
      vertex 0.381966 0.824429 15
      vertex 0 2 15
      vertex 0.247386 1.03649 15
    endloop
  endfacet
  facet normal 0 0 1
    outer loop
      vertex 0 18 15
      vertex 0.0628328 18.4974 15
      vertex 0.01577 18.2507 15
    endloop
  endfacet
  facet normal 0 0 1
    outer loop
      vertex 0.247386 1.03649 15
      vertex 0 2 15
      vertex 0.140447 1.26375 15
    endloop
  endfacet
  facet normal 0 0 1
    outer loop
      vertex 0.140447 1.26375 15
      vertex 0 2 15
      vertex 0.0628328 1.50262 15
    endloop
  endfacet
  facet normal 0 0 1
    outer loop
      vertex 0.0628328 1.50262 15
      vertex 0 2 15
      vertex 0.01577 1.74933 15
    endloop
  endfacet
  facet normal 0 0 -1
    outer loop
      vertex 8 0.0039463 0
      vertex 3.01 6 0
      vertex 8 7.497 0
    endloop
  endfacet
  facet normal 0 0 -1
    outer loop
      vertex 0 2.8 0
      vertex 3.01 6 0
      vertex 1.87442 0.0039463 0
    endloop
  endfacet
  facet normal 0 0 -1
    outer loop
      vertex 1.87442 0.0039463 0
      vertex 3.01 6 0
      vertex 8 0.0039463 0
    endloop
  endfacet
  facet normal 0 0 -1
    outer loop
      vertex 3.01 14 0
      vertex 8 19.9961 0
      vertex 8 12.503 0
    endloop
  endfacet
  facet normal 0 0 -1
    outer loop
      vertex 3.01 14 0
      vertex 1.87442 19.9961 0
      vertex 8 19.9961 0
    endloop
  endfacet
  facet normal 0 0 -1
    outer loop
      vertex -2.85987 7.5 0
      vertex 3.01 6 0
      vertex 0 2.8 0
    endloop
  endfacet
  facet normal 0 0 -1
    outer loop
      vertex 0 2 0
      vertex 1.87442 0.0039463 0
      vertex 1.62524 0.0354252 0
    endloop
  endfacet
  facet normal 0 0 -1
    outer loop
      vertex 3.01 6 0
      vertex -2.21739 9.47736 0
      vertex 3.01 14 0
    endloop
  endfacet
  facet normal 0 0 -1
    outer loop
      vertex 0 2 0
      vertex 1.62524 0.0354252 0
      vertex 1.38197 0.0978861 0
    endloop
  endfacet
  facet normal 0 0 -1
    outer loop
      vertex 3.01 14 0
      vertex 0 17.2 0
      vertex 1.87442 19.9961 0
    endloop
  endfacet
  facet normal 0 0 -1
    outer loop
      vertex 0 2 0
      vertex 1.38197 0.0978861 0
      vertex 1.14844 0.190346 0
    endloop
  endfacet
  facet normal 0 0 -1
    outer loop
      vertex 0 18 0
      vertex 1.87442 19.9961 0
      vertex 0 17.2 0
    endloop
  endfacet
  facet normal 0 0 -1
    outer loop
      vertex 0 2 0
      vertex 1.14844 0.190346 0
      vertex 0.928346 0.311344 0
    endloop
  endfacet
  facet normal 0 0 -1
    outer loop
      vertex 1.87442 19.9961 0
      vertex 0 18 0
      vertex 1.62524 19.9646 0
    endloop
  endfacet
  facet normal 0 0 -1
    outer loop
      vertex 0 2 0
      vertex 0.928346 0.311344 0
      vertex 0.725152 0.458973 0
    endloop
  endfacet
  facet normal 0 0 -1
    outer loop
      vertex 1.62524 19.9646 0
      vertex 0 18 0
      vertex 1.38197 19.9021 0
    endloop
  endfacet
  facet normal 0 0 -1
    outer loop
      vertex 0 2 0
      vertex 0.725152 0.458973 0
      vertex 0.542062 0.630905 0
    endloop
  endfacet
  facet normal 0 0 -1
    outer loop
      vertex 1.38197 19.9021 0
      vertex 0 18 0
      vertex 1.14844 19.8097 0
    endloop
  endfacet
  facet normal 0 0 -1
    outer loop
      vertex 0 2 0
      vertex 0.542062 0.630905 0
      vertex 0.381966 0.824429 0
    endloop
  endfacet
  facet normal 0 0 -1
    outer loop
      vertex 1.14844 19.8097 0
      vertex 0 18 0
      vertex 0.928346 19.6887 0
    endloop
  endfacet
  facet normal 0 0 -1
    outer loop
      vertex 0 2 0
      vertex 0.381966 0.824429 0
      vertex 0.247386 1.03649 0
    endloop
  endfacet
  facet normal 0 0 -1
    outer loop
      vertex 0.928346 19.6887 0
      vertex 0 18 0
      vertex 0.725152 19.541 0
    endloop
  endfacet
  facet normal 0 0 -1
    outer loop
      vertex 0 2 0
      vertex 0.247386 1.03649 0
      vertex 0.140447 1.26375 0
    endloop
  endfacet
  facet normal 0 0 -1
    outer loop
      vertex 0.725152 19.541 0
      vertex 0 18 0
      vertex 0.542062 19.3691 0
    endloop
  endfacet
  facet normal 0 0 -1
    outer loop
      vertex 0 2 0
      vertex 0.140447 1.26375 0
      vertex 0.0628328 1.50262 0
    endloop
  endfacet
  facet normal 0 0 -1
    outer loop
      vertex 0.542062 19.3691 0
      vertex 0 18 0
      vertex 0.381966 19.1756 0
    endloop
  endfacet
  facet normal 0 0 -1
    outer loop
      vertex 0 2 0
      vertex 0.0628328 1.50262 0
      vertex 0.01577 1.74933 0
    endloop
  endfacet
  facet normal 0 0 -1
    outer loop
      vertex 0.381966 19.1756 0
      vertex 0 18 0
      vertex 0.247386 18.9635 0
    endloop
  endfacet
  facet normal 0 0 -1
    outer loop
      vertex 1.87442 0.0039463 0
      vertex 0 2 0
      vertex 0 2.8 0
    endloop
  endfacet
  facet normal 0 0 -1
    outer loop
      vertex 0.247386 18.9635 0
      vertex 0 18 0
      vertex 0.140447 18.7362 0
    endloop
  endfacet
  facet normal 0 0 -1
    outer loop
      vertex 0.140447 18.7362 0
      vertex 0 18 0
      vertex 0.0628328 18.4974 0
    endloop
  endfacet
  facet normal 0 0 -1
    outer loop
      vertex 0.0628328 18.4974 0
      vertex 0 18 0
      vertex 0.01577 18.2507 0
    endloop
  endfacet
  facet normal 0 0 -1
    outer loop
      vertex -2.21739 10.5226 0
      vertex 3.01 14 0
      vertex -2.21739 9.47736 0
    endloop
  endfacet
  facet normal 0 0 -1
    outer loop
      vertex 3.01 6 0
      vertex -2.43472 8.45492 0
      vertex -2.21739 9.47736 0
    endloop
  endfacet
  facet normal 0 0 -1
    outer loop
      vertex 3.01 6 0
      vertex -2.85987 7.5 0
      vertex -2.43472 8.45492 0
    endloop
  endfacet
  facet normal 0 0 -1
    outer loop
      vertex 0 2.8 0
      vertex -3.47428 6.65435 0
      vertex -2.85987 7.5 0
    endloop
  endfacet
  facet normal 0 0 -1
    outer loop
      vertex 0 2.8 0
      vertex -4.25107 5.95492 0
      vertex -3.47428 6.65435 0
    endloop
  endfacet
  facet normal 0 0 -1
    outer loop
      vertex 0 2.8 0
      vertex -5.15632 5.43227 0
      vertex -4.25107 5.95492 0
    endloop
  endfacet
  facet normal 0 0 -1
    outer loop
      vertex -7.19 2.8 0
      vertex -5.15632 5.43227 0
      vertex 0 2.8 0
    endloop
  endfacet
  facet normal 0 0 -1
    outer loop
      vertex -5.15632 5.43227 0
      vertex -7.19 2.8 0
      vertex -6.15044 5.10926 0
    endloop
  endfacet
  facet normal 0 0 -1
    outer loop
      vertex -7.19 2.8 0
      vertex -7.19 5 0
      vertex -6.15044 5.10926 0
    endloop
  endfacet
  facet normal 0 0 -1
    outer loop
      vertex -7.19 2.8 0
      vertex -8.22956 5.10926 0
      vertex -7.19 5 0
    endloop
  endfacet
  facet normal 0 0 -1
    outer loop
      vertex -8.68696 2.95734 0
      vertex -8.22956 5.10926 0
      vertex -7.19 2.8 0
    endloop
  endfacet
  facet normal 0 0 -1
    outer loop
      vertex -8.68696 2.95734 0
      vertex -9.22368 5.43227 0
      vertex -8.22956 5.10926 0
    endloop
  endfacet
  facet normal 0 0 -1
    outer loop
      vertex -10.1185 3.42247 0
      vertex -9.22368 5.43227 0
      vertex -8.68696 2.95734 0
    endloop
  endfacet
  facet normal -0 0 -1
    outer loop
      vertex -9.22368 5.43227 0
      vertex -10.1185 3.42247 0
      vertex -9.34099 5.5 0
    endloop
  endfacet
  facet normal 0 0 -1
    outer loop
      vertex -11.4221 4.17508 0
      vertex -9.34099 5.5 0
      vertex -10.1185 3.42247 0
    endloop
  endfacet
  facet normal 0 0 -1
    outer loop
      vertex -12.5406 5.18226 0
      vertex -9.34099 5.5 0
      vertex -11.4221 4.17508 0
    endloop
  endfacet
  facet normal -0 0 -1
    outer loop
      vertex -9.34099 5.5 0
      vertex -12.5406 5.18226 0
      vertex -12.7715 5.5 0
    endloop
  endfacet
  facet normal 0 0 -1
    outer loop
      vertex -2.43472 11.5451 0
      vertex 3.01 14 0
      vertex -2.21739 10.5226 0
    endloop
  endfacet
  facet normal 0 0 -1
    outer loop
      vertex -2.85987 12.5 0
      vertex 3.01 14 0
      vertex -2.43472 11.5451 0
    endloop
  endfacet
  facet normal -0 0 -1
    outer loop
      vertex 3.01 14 0
      vertex -2.85987 12.5 0
      vertex 0 17.2 0
    endloop
  endfacet
  facet normal 0 0 -1
    outer loop
      vertex -3.47428 13.3457 0
      vertex 0 17.2 0
      vertex -2.85987 12.5 0
    endloop
  endfacet
  facet normal 0 0 -1
    outer loop
      vertex -4.25107 14.0451 0
      vertex 0 17.2 0
      vertex -3.47428 13.3457 0
    endloop
  endfacet
  facet normal 0 0 -1
    outer loop
      vertex -5.15632 14.5677 0
      vertex 0 17.2 0
      vertex -4.25107 14.0451 0
    endloop
  endfacet
  facet normal 0 0 -1
    outer loop
      vertex -7.19 17.2 0
      vertex -5.15632 14.5677 0
      vertex -6.15044 14.8907 0
    endloop
  endfacet
  facet normal 0 0 -1
    outer loop
      vertex -7.19 17.2 0
      vertex -6.15044 14.8907 0
      vertex -7.19 15 0
    endloop
  endfacet
  facet normal 0 0 -1
    outer loop
      vertex -5.15632 14.5677 0
      vertex -7.19 17.2 0
      vertex 0 17.2 0
    endloop
  endfacet
  facet normal 0 0 -1
    outer loop
      vertex -8.22956 14.8907 0
      vertex -7.19 17.2 0
      vertex -7.19 15 0
    endloop
  endfacet
  facet normal 0 0 -1
    outer loop
      vertex -8.22956 14.8907 0
      vertex -8.68696 17.0427 0
      vertex -7.19 17.2 0
    endloop
  endfacet
  facet normal 0 0 -1
    outer loop
      vertex -9.22368 14.5677 0
      vertex -8.68696 17.0427 0
      vertex -8.22956 14.8907 0
    endloop
  endfacet
  facet normal 0 0 -1
    outer loop
      vertex -10.1185 16.5775 0
      vertex -9.22368 14.5677 0
      vertex -9.34099 14.5 0
    endloop
  endfacet
  facet normal 0 0 -1
    outer loop
      vertex -9.22368 14.5677 0
      vertex -10.1185 16.5775 0
      vertex -8.68696 17.0427 0
    endloop
  endfacet
  facet normal 0 0 -1
    outer loop
      vertex -9.34099 14.5 0
      vertex -11.4221 15.8249 0
      vertex -10.1185 16.5775 0
    endloop
  endfacet
  facet normal 0 0 -1
    outer loop
      vertex -9.34099 14.5 0
      vertex -12.5406 14.8177 0
      vertex -11.4221 15.8249 0
    endloop
  endfacet
  facet normal 0 -0 -1
    outer loop
      vertex -12.5406 14.8177 0
      vertex -9.34099 14.5 0
      vertex -12.7715 14.5 0
    endloop
  endfacet
  facet normal 1 -0 0
    outer loop
      vertex 8 12.503 15
      vertex 8 19.9961 0
      vertex 8 19.9961 15
    endloop
  endfacet
  facet normal 1 0 0
    outer loop
      vertex 8 19.9961 0
      vertex 8 12.503 15
      vertex 8 12.503 0
    endloop
  endfacet
  facet normal 1 -0 0
    outer loop
      vertex 8 0.0039463 15
      vertex 8 7.497 0
      vertex 8 7.497 15
    endloop
  endfacet
  facet normal 1 0 0
    outer loop
      vertex 8 7.497 0
      vertex 8 0.0039463 15
      vertex 8 0.0039463 0
    endloop
  endfacet
  facet normal -0.287348 0.957826 0
    outer loop
      vertex 8 7.497 0
      vertex 3.01 6 15
      vertex 8 7.497 15
    endloop
  endfacet
  facet normal -0.287348 0.957826 0
    outer loop
      vertex 3.01 6 15
      vertex 8 7.497 0
      vertex 3.01 6 0
    endloop
  endfacet
  facet normal -0.287348 -0.957826 0
    outer loop
      vertex 3.01 14 0
      vertex 8 12.503 15
      vertex 3.01 14 15
    endloop
  endfacet
  facet normal -0.287348 -0.957826 -0
    outer loop
      vertex 8 12.503 15
      vertex 3.01 14 0
      vertex 8 12.503 0
    endloop
  endfacet
  facet normal 1 -0 0
    outer loop
      vertex 3.01 6 15
      vertex 3.01 14 0
      vertex 3.01 14 15
    endloop
  endfacet
  facet normal 1 0 0
    outer loop
      vertex 3.01 14 0
      vertex 3.01 6 15
      vertex 3.01 6 0
    endloop
  endfacet
  facet normal -0.104504 0.994524 0
    outer loop
      vertex -7.19 17.2 0
      vertex -8.68696 17.0427 14
      vertex -7.19 17.2 14
    endloop
  endfacet
  facet normal -0.104504 0.994524 0
    outer loop
      vertex -8.68696 17.0427 14
      vertex -7.19 17.2 0
      vertex -8.68696 17.0427 0
    endloop
  endfacet
  facet normal -0.309056 0.951044 0
    outer loop
      vertex -8.68696 17.0427 0
      vertex -10.1185 16.5775 14
      vertex -8.68696 17.0427 14
    endloop
  endfacet
  facet normal -0.309056 0.951044 0
    outer loop
      vertex -10.1185 16.5775 14
      vertex -8.68696 17.0427 0
      vertex -10.1185 16.5775 0
    endloop
  endfacet
  facet normal 0 1 -0
    outer loop
      vertex 0 17.2 0
      vertex -7.19 17.2 14
      vertex 0 17.2 14
    endloop
  endfacet
  facet normal 0 1 0
    outer loop
      vertex -7.19 17.2 14
      vertex 0 17.2 0
      vertex -7.19 17.2 0
    endloop
  endfacet
  facet normal 0 0 1
    outer loop
      vertex 0 17.2 14
      vertex -1.22287 10.6272 14
      vertex 0 2.8 14
    endloop
  endfacet
  facet normal 0 0 1
    outer loop
      vertex 0 17.2 14
      vertex -1.48366 11.8541 14
      vertex -1.22287 10.6272 14
    endloop
  endfacet
  facet normal 0 0 1
    outer loop
      vertex 0 17.2 14
      vertex -1.99385 13 14
      vertex -1.48366 11.8541 14
    endloop
  endfacet
  facet normal 0 0 1
    outer loop
      vertex 0 17.2 14
      vertex -2.73113 14.0148 14
      vertex -1.99385 13 14
    endloop
  endfacet
  facet normal 0 0 1
    outer loop
      vertex 0 17.2 14
      vertex -3.66329 14.8541 14
      vertex -2.73113 14.0148 14
    endloop
  endfacet
  facet normal 0 0 1
    outer loop
      vertex 0 17.2 14
      vertex -4.74958 15.4813 14
      vertex -3.66329 14.8541 14
    endloop
  endfacet
  facet normal -0 0 1
    outer loop
      vertex -7.19 17.2 14
      vertex -4.74958 15.4813 14
      vertex 0 17.2 14
    endloop
  endfacet
  facet normal 0 0 1
    outer loop
      vertex -4.74958 15.4813 14
      vertex -7.19 17.2 14
      vertex -5.94253 15.8689 14
    endloop
  endfacet
  facet normal 0 0 1
    outer loop
      vertex -7.19 17.2 14
      vertex -7.19 16 14
      vertex -5.94253 15.8689 14
    endloop
  endfacet
  facet normal 0 0 1
    outer loop
      vertex -7.19 17.2 14
      vertex -8.43747 15.8689 14
      vertex -7.19 16 14
    endloop
  endfacet
  facet normal -0 0 1
    outer loop
      vertex -8.68696 17.0427 14
      vertex -8.43747 15.8689 14
      vertex -7.19 17.2 14
    endloop
  endfacet
  facet normal 0 0 1
    outer loop
      vertex -8.68696 17.0427 14
      vertex -9.63042 15.4813 14
      vertex -8.43747 15.8689 14
    endloop
  endfacet
  facet normal -0 0 1
    outer loop
      vertex -10.1185 16.5775 14
      vertex -9.63042 15.4813 14
      vertex -8.68696 17.0427 14
    endloop
  endfacet
  facet normal 0 0 1
    outer loop
      vertex -10.1185 16.5775 14
      vertex -10.7167 14.8541 14
      vertex -9.63042 15.4813 14
    endloop
  endfacet
  facet normal -0 0 1
    outer loop
      vertex -11.4221 15.8249 14
      vertex -10.7167 14.8541 14
      vertex -10.1185 16.5775 14
    endloop
  endfacet
  facet normal 0 0 1
    outer loop
      vertex -10.7167 14.8541 14
      vertex -11.4221 15.8249 14
      vertex -11.11 14.5 14
    endloop
  endfacet
  facet normal -0 0 1
    outer loop
      vertex -12.5406 14.8177 14
      vertex -11.11 14.5 14
      vertex -11.4221 15.8249 14
    endloop
  endfacet
  facet normal 0 0 1
    outer loop
      vertex -11.11 14.5 14
      vertex -12.5406 14.8177 14
      vertex -12.7715 14.5 14
    endloop
  endfacet
  facet normal -0 0 1
    outer loop
      vertex -1.22287 9.37283 14
      vertex 0 2.8 14
      vertex -1.22287 10.6272 14
    endloop
  endfacet
  facet normal -0 0 1
    outer loop
      vertex -1.48366 8.1459 14
      vertex 0 2.8 14
      vertex -1.22287 9.37283 14
    endloop
  endfacet
  facet normal -0 0 1
    outer loop
      vertex -1.99385 7 14
      vertex 0 2.8 14
      vertex -1.48366 8.1459 14
    endloop
  endfacet
  facet normal -0 0 1
    outer loop
      vertex -2.73113 5.98522 14
      vertex 0 2.8 14
      vertex -1.99385 7 14
    endloop
  endfacet
  facet normal -0 0 1
    outer loop
      vertex -3.66329 5.1459 14
      vertex 0 2.8 14
      vertex -2.73113 5.98522 14
    endloop
  endfacet
  facet normal -0 0 1
    outer loop
      vertex -4.74958 4.51873 14
      vertex 0 2.8 14
      vertex -3.66329 5.1459 14
    endloop
  endfacet
  facet normal 0 0 1
    outer loop
      vertex -7.19 2.8 14
      vertex -4.74958 4.51873 14
      vertex -5.94253 4.13111 14
    endloop
  endfacet
  facet normal 0 0 1
    outer loop
      vertex -7.19 2.8 14
      vertex -5.94253 4.13111 14
      vertex -7.19 4 14
    endloop
  endfacet
  facet normal 0 0 1
    outer loop
      vertex -4.74958 4.51873 14
      vertex -7.19 2.8 14
      vertex 0 2.8 14
    endloop
  endfacet
  facet normal 0 0 1
    outer loop
      vertex -8.43747 4.13111 14
      vertex -7.19 2.8 14
      vertex -7.19 4 14
    endloop
  endfacet
  facet normal 0 0 1
    outer loop
      vertex -8.43747 4.13111 14
      vertex -8.68696 2.95734 14
      vertex -7.19 2.8 14
    endloop
  endfacet
  facet normal 0 0 1
    outer loop
      vertex -9.63042 4.51873 14
      vertex -8.68696 2.95734 14
      vertex -8.43747 4.13111 14
    endloop
  endfacet
  facet normal 0 0 1
    outer loop
      vertex -9.63042 4.51873 14
      vertex -10.1185 3.42247 14
      vertex -8.68696 2.95734 14
    endloop
  endfacet
  facet normal 0 0 1
    outer loop
      vertex -10.7167 5.1459 14
      vertex -10.1185 3.42247 14
      vertex -9.63042 4.51873 14
    endloop
  endfacet
  facet normal 0 0 1
    outer loop
      vertex -11.4221 4.17508 14
      vertex -10.7167 5.1459 14
      vertex -11.11 5.5 14
    endloop
  endfacet
  facet normal 0 0 1
    outer loop
      vertex -10.7167 5.1459 14
      vertex -11.4221 4.17508 14
      vertex -10.1185 3.42247 14
    endloop
  endfacet
  facet normal 0 0 1
    outer loop
      vertex -11.11 5.5 14
      vertex -12.5406 5.18226 14
      vertex -11.4221 4.17508 14
    endloop
  endfacet
  facet normal 0 -0 1
    outer loop
      vertex -12.5406 5.18226 14
      vertex -11.11 5.5 14
      vertex -12.7715 5.5 14
    endloop
  endfacet
  facet normal -0.104531 -0.994522 0
    outer loop
      vertex -8.68696 2.95734 0
      vertex -7.19 2.8 14
      vertex -8.68696 2.95734 14
    endloop
  endfacet
  facet normal -0.104531 -0.994522 -0
    outer loop
      vertex -7.19 2.8 14
      vertex -8.68696 2.95734 0
      vertex -7.19 2.8 0
    endloop
  endfacet
  facet normal 0 -1 0
    outer loop
      vertex -7.19 2.8 0
      vertex 0 2.8 14
      vertex -7.19 2.8 14
    endloop
  endfacet
  facet normal 0 -1 -0
    outer loop
      vertex 0 2.8 14
      vertex -7.19 2.8 0
      vertex 0 2.8 0
    endloop
  endfacet
  facet normal -0.499983 0.866035 0
    outer loop
      vertex -10.1185 16.5775 0
      vertex -11.4221 15.8249 14
      vertex -10.1185 16.5775 14
    endloop
  endfacet
  facet normal -0.499983 0.866035 0
    outer loop
      vertex -11.4221 15.8249 14
      vertex -10.1185 16.5775 0
      vertex -11.4221 15.8249 0
    endloop
  endfacet
  facet normal -0.669167 0.743112 0
    outer loop
      vertex -11.4221 15.8249 0
      vertex -12.5406 14.8177 14
      vertex -11.4221 15.8249 14
    endloop
  endfacet
  facet normal -0.669167 0.743112 0
    outer loop
      vertex -12.5406 14.8177 14
      vertex -11.4221 15.8249 0
      vertex -12.5406 14.8177 0
    endloop
  endfacet
  facet normal -0.808923 0.587914 0
    outer loop
      vertex -12.7715 14.5 0
      vertex -12.5406 14.8177 14
      vertex -12.5406 14.8177 0
    endloop
  endfacet
  facet normal -0.808923 0.587914 0
    outer loop
      vertex -12.5406 14.8177 14
      vertex -12.7715 14.5 0
      vertex -12.7715 14.5 14
    endloop
  endfacet
  facet normal -0.309014 -0.951058 0
    outer loop
      vertex -10.1185 3.42247 0
      vertex -8.68696 2.95734 14
      vertex -10.1185 3.42247 14
    endloop
  endfacet
  facet normal -0.309014 -0.951058 -0
    outer loop
      vertex -8.68696 2.95734 14
      vertex -10.1185 3.42247 0
      vertex -8.68696 2.95734 0
    endloop
  endfacet
  facet normal -0.669159 -0.743119 0
    outer loop
      vertex -12.5406 5.18226 0
      vertex -11.4221 4.17508 14
      vertex -12.5406 5.18226 14
    endloop
  endfacet
  facet normal -0.669159 -0.743119 -0
    outer loop
      vertex -11.4221 4.17508 14
      vertex -12.5406 5.18226 0
      vertex -11.4221 4.17508 0
    endloop
  endfacet
  facet normal -0.808958 -0.587866 0
    outer loop
      vertex -12.5406 5.18226 0
      vertex -12.7715 5.5 14
      vertex -12.7715 5.5 0
    endloop
  endfacet
  facet normal -0.808958 -0.587866 0
    outer loop
      vertex -12.7715 5.5 14
      vertex -12.5406 5.18226 0
      vertex -12.5406 5.18226 14
    endloop
  endfacet
  facet normal -0.499988 -0.866032 0
    outer loop
      vertex -11.4221 4.17508 0
      vertex -10.1185 3.42247 14
      vertex -11.4221 4.17508 14
    endloop
  endfacet
  facet normal -0.499988 -0.866032 -0
    outer loop
      vertex -10.1185 3.42247 14
      vertex -11.4221 4.17508 0
      vertex -10.1185 3.42247 0
    endloop
  endfacet
  facet normal 0.104564 -0.994518 0
    outer loop
      vertex -8.22956 14.8907 0
      vertex -7.19 15 1
      vertex -8.22956 14.8907 1
    endloop
  endfacet
  facet normal 0.104564 -0.994518 0
    outer loop
      vertex -7.19 15 1
      vertex -8.22956 14.8907 0
      vertex -7.19 15 0
    endloop
  endfacet
  facet normal 0.104526 0.994522 -0
    outer loop
      vertex -7.19 5 0
      vertex -8.22956 5.10926 1
      vertex -7.19 5 1
    endloop
  endfacet
  facet normal 0.104526 0.994522 0
    outer loop
      vertex -8.22956 5.10926 1
      vertex -7.19 5 0
      vertex -8.22956 5.10926 0
    endloop
  endfacet
  facet normal 0.49984 -0.866118 0
    outer loop
      vertex -9.34099 14.5 0
      vertex -9.22368 14.5677 1
      vertex -9.34099 14.5 1
    endloop
  endfacet
  facet normal 0.49984 -0.866118 0
    outer loop
      vertex -9.22368 14.5677 1
      vertex -9.34099 14.5 0
      vertex -9.22368 14.5677 0
    endloop
  endfacet
  facet normal 0.309009 -0.951059 0
    outer loop
      vertex -9.22368 14.5677 0
      vertex -8.22956 14.8907 1
      vertex -9.22368 14.5677 1
    endloop
  endfacet
  facet normal 0.309009 -0.951059 0
    outer loop
      vertex -8.22956 14.8907 1
      vertex -9.22368 14.5677 0
      vertex -8.22956 14.8907 0
    endloop
  endfacet
  facet normal 0.500006 0.866022 -0
    outer loop
      vertex -9.22368 5.43227 0
      vertex -9.34099 5.5 1
      vertex -9.22368 5.43227 1
    endloop
  endfacet
  facet normal 0.500006 0.866022 0
    outer loop
      vertex -9.34099 5.5 1
      vertex -9.22368 5.43227 0
      vertex -9.34099 5.5 0
    endloop
  endfacet
  facet normal 0.309018 0.951056 -0
    outer loop
      vertex -8.22956 5.10926 0
      vertex -9.22368 5.43227 1
      vertex -8.22956 5.10926 1
    endloop
  endfacet
  facet normal 0.309018 0.951056 0
    outer loop
      vertex -9.22368 5.43227 1
      vertex -8.22956 5.10926 0
      vertex -9.22368 5.43227 0
    endloop
  endfacet
  facet normal -0.104564 -0.994518 0
    outer loop
      vertex -7.19 15 0
      vertex -6.15044 14.8907 1
      vertex -7.19 15 1
    endloop
  endfacet
  facet normal -0.104564 -0.994518 -0
    outer loop
      vertex -6.15044 14.8907 1
      vertex -7.19 15 0
      vertex -6.15044 14.8907 0
    endloop
  endfacet
  facet normal -0.978147 0.207915 0
    outer loop
      vertex -2.43472 8.45492 0
      vertex -2.21739 9.47736 1
      vertex -2.21739 9.47736 0
    endloop
  endfacet
  facet normal -0.978147 0.207915 0
    outer loop
      vertex -2.21739 9.47736 1
      vertex -2.43472 8.45492 0
      vertex -2.43472 8.45492 1
    endloop
  endfacet
  facet normal -0.978149 -0.207903 0
    outer loop
      vertex -2.21739 10.5226 0
      vertex -2.43472 11.5451 1
      vertex -2.43472 11.5451 0
    endloop
  endfacet
  facet normal -0.978149 -0.207903 0
    outer loop
      vertex -2.43472 11.5451 1
      vertex -2.21739 10.5226 0
      vertex -2.21739 10.5226 1
    endloop
  endfacet
  facet normal -0.669117 -0.743157 0
    outer loop
      vertex -4.25107 14.0451 0
      vertex -3.47428 13.3457 1
      vertex -4.25107 14.0451 1
    endloop
  endfacet
  facet normal -0.669117 -0.743157 -0
    outer loop
      vertex -3.47428 13.3457 1
      vertex -4.25107 14.0451 0
      vertex -3.47428 13.3457 0
    endloop
  endfacet
  facet normal -0.309009 -0.951059 0
    outer loop
      vertex -6.15044 14.8907 0
      vertex -5.15632 14.5677 1
      vertex -6.15044 14.8907 1
    endloop
  endfacet
  facet normal -0.309009 -0.951059 -0
    outer loop
      vertex -5.15632 14.5677 1
      vertex -6.15044 14.8907 0
      vertex -5.15632 14.5677 0
    endloop
  endfacet
  facet normal -0.499967 -0.866045 0
    outer loop
      vertex -5.15632 14.5677 0
      vertex -4.25107 14.0451 1
      vertex -5.15632 14.5677 1
    endloop
  endfacet
  facet normal -0.499967 -0.866045 -0
    outer loop
      vertex -4.25107 14.0451 1
      vertex -5.15632 14.5677 0
      vertex -4.25107 14.0451 0
    endloop
  endfacet
  facet normal -0.500003 0.866024 0
    outer loop
      vertex -4.25107 5.95492 0
      vertex -5.15632 5.43227 1
      vertex -4.25107 5.95492 1
    endloop
  endfacet
  facet normal -0.500003 0.866024 0
    outer loop
      vertex -5.15632 5.43227 1
      vertex -4.25107 5.95492 0
      vertex -5.15632 5.43227 0
    endloop
  endfacet
  facet normal -0.104526 0.994522 0
    outer loop
      vertex -6.15044 5.10926 0
      vertex -7.19 5 1
      vertex -6.15044 5.10926 1
    endloop
  endfacet
  facet normal -0.104526 0.994522 0
    outer loop
      vertex -7.19 5 1
      vertex -6.15044 5.10926 0
      vertex -7.19 5 0
    endloop
  endfacet
  facet normal -0.309018 0.951056 0
    outer loop
      vertex -5.15632 5.43227 0
      vertex -6.15044 5.10926 1
      vertex -5.15632 5.43227 1
    endloop
  endfacet
  facet normal -0.309018 0.951056 0
    outer loop
      vertex -6.15044 5.10926 1
      vertex -5.15632 5.43227 0
      vertex -6.15044 5.10926 0
    endloop
  endfacet
  facet normal -0.809029 -0.587768 0
    outer loop
      vertex -2.85987 12.5 0
      vertex -3.47428 13.3457 1
      vertex -3.47428 13.3457 0
    endloop
  endfacet
  facet normal -0.809029 -0.587768 0
    outer loop
      vertex -3.47428 13.3457 1
      vertex -2.85987 12.5 0
      vertex -2.85987 12.5 1
    endloop
  endfacet
  facet normal -0.913545 -0.406738 0
    outer loop
      vertex -2.43472 11.5451 0
      vertex -2.85987 12.5 1
      vertex -2.85987 12.5 0
    endloop
  endfacet
  facet normal -0.913545 -0.406738 0
    outer loop
      vertex -2.85987 12.5 1
      vertex -2.43472 11.5451 0
      vertex -2.43472 11.5451 1
    endloop
  endfacet
  facet normal -1 0 0
    outer loop
      vertex -2.21739 9.47736 0
      vertex -2.21739 10.5226 1
      vertex -2.21739 10.5226 0
    endloop
  endfacet
  facet normal -1 -0 0
    outer loop
      vertex -2.21739 10.5226 1
      vertex -2.21739 9.47736 0
      vertex -2.21739 9.47736 1
    endloop
  endfacet
  facet normal -0.809013 0.587791 0
    outer loop
      vertex -3.47428 6.65435 0
      vertex -2.85987 7.5 1
      vertex -2.85987 7.5 0
    endloop
  endfacet
  facet normal -0.809013 0.587791 0
    outer loop
      vertex -2.85987 7.5 1
      vertex -3.47428 6.65435 0
      vertex -3.47428 6.65435 1
    endloop
  endfacet
  facet normal -0.669133 0.743142 0
    outer loop
      vertex -3.47428 6.65435 0
      vertex -4.25107 5.95492 1
      vertex -3.47428 6.65435 1
    endloop
  endfacet
  facet normal -0.669133 0.743142 0
    outer loop
      vertex -4.25107 5.95492 1
      vertex -3.47428 6.65435 0
      vertex -4.25107 5.95492 0
    endloop
  endfacet
  facet normal -0.913548 0.40673 0
    outer loop
      vertex -2.85987 7.5 0
      vertex -2.43472 8.45492 1
      vertex -2.43472 8.45492 0
    endloop
  endfacet
  facet normal -0.913548 0.40673 0
    outer loop
      vertex -2.43472 8.45492 1
      vertex -2.85987 7.5 0
      vertex -2.85987 7.5 1
    endloop
  endfacet
  facet normal 0.104517 -0.994523 0
    outer loop
      vertex -8.43747 15.8689 1
      vertex -7.19 16 14
      vertex -8.43747 15.8689 14
    endloop
  endfacet
  facet normal 0.104517 -0.994523 0
    outer loop
      vertex -7.19 16 14
      vertex -8.43747 15.8689 1
      vertex -7.19 16 1
    endloop
  endfacet
  facet normal 0.104525 0.994522 -0
    outer loop
      vertex -7.19 4 1
      vertex -8.43747 4.13111 14
      vertex -7.19 4 14
    endloop
  endfacet
  facet normal 0.104525 0.994522 0
    outer loop
      vertex -8.43747 4.13111 14
      vertex -7.19 4 1
      vertex -8.43747 4.13111 1
    endloop
  endfacet
  facet normal 0.6691 0.743172 -0
    outer loop
      vertex -10.7167 5.1459 1
      vertex -11.11 5.5 14
      vertex -10.7167 5.1459 14
    endloop
  endfacet
  facet normal 0.6691 0.743172 0
    outer loop
      vertex -11.11 5.5 14
      vertex -10.7167 5.1459 1
      vertex -11.11 5.5 1
    endloop
  endfacet
  facet normal 0.500004 0.866023 -0
    outer loop
      vertex -9.63042 4.51873 1
      vertex -10.7167 5.1459 14
      vertex -9.63042 4.51873 14
    endloop
  endfacet
  facet normal 0.500004 0.866023 0
    outer loop
      vertex -10.7167 5.1459 14
      vertex -9.63042 4.51873 1
      vertex -10.7167 5.1459 1
    endloop
  endfacet
  facet normal 0.500021 -0.866013 0
    outer loop
      vertex -10.7167 14.8541 1
      vertex -9.63042 15.4813 14
      vertex -10.7167 14.8541 14
    endloop
  endfacet
  facet normal 0.500021 -0.866013 0
    outer loop
      vertex -9.63042 15.4813 14
      vertex -10.7167 14.8541 1
      vertex -9.63042 15.4813 1
    endloop
  endfacet
  facet normal 0.309008 -0.95106 0
    outer loop
      vertex -9.63042 15.4813 1
      vertex -8.43747 15.8689 14
      vertex -9.63042 15.4813 14
    endloop
  endfacet
  facet normal 0.309008 -0.95106 0
    outer loop
      vertex -8.43747 15.8689 14
      vertex -9.63042 15.4813 1
      vertex -8.43747 15.8689 1
    endloop
  endfacet
  facet normal 0.6691 -0.743172 0
    outer loop
      vertex -11.11 14.5 1
      vertex -10.7167 14.8541 14
      vertex -11.11 14.5 14
    endloop
  endfacet
  facet normal 0.6691 -0.743172 0
    outer loop
      vertex -10.7167 14.8541 14
      vertex -11.11 14.5 1
      vertex -10.7167 14.8541 1
    endloop
  endfacet
  facet normal 0.309022 0.951055 -0
    outer loop
      vertex -8.43747 4.13111 1
      vertex -9.63042 4.51873 14
      vertex -8.43747 4.13111 14
    endloop
  endfacet
  facet normal 0.309022 0.951055 0
    outer loop
      vertex -9.63042 4.51873 14
      vertex -8.43747 4.13111 1
      vertex -9.63042 4.51873 1
    endloop
  endfacet
  facet normal -0.104517 -0.994523 0
    outer loop
      vertex -7.19 16 1
      vertex -5.94253 15.8689 14
      vertex -7.19 16 14
    endloop
  endfacet
  facet normal -0.104517 -0.994523 -0
    outer loop
      vertex -5.94253 15.8689 14
      vertex -7.19 16 1
      vertex -5.94253 15.8689 1
    endloop
  endfacet
  facet normal -0.978148 0.20791 0
    outer loop
      vertex -1.48366 8.1459 1
      vertex -1.22287 9.37283 14
      vertex -1.22287 9.37283 1
    endloop
  endfacet
  facet normal -0.978148 0.20791 0
    outer loop
      vertex -1.22287 9.37283 14
      vertex -1.48366 8.1459 1
      vertex -1.48366 8.1459 14
    endloop
  endfacet
  facet normal -0.978147 -0.207915 0
    outer loop
      vertex -1.22287 10.6272 1
      vertex -1.48366 11.8541 14
      vertex -1.48366 11.8541 1
    endloop
  endfacet
  facet normal -0.978147 -0.207915 0
    outer loop
      vertex -1.48366 11.8541 14
      vertex -1.22287 10.6272 1
      vertex -1.22287 10.6272 14
    endloop
  endfacet
  facet normal -0.669122 -0.743153 0
    outer loop
      vertex -3.66329 14.8541 1
      vertex -2.73113 14.0148 14
      vertex -3.66329 14.8541 14
    endloop
  endfacet
  facet normal -0.669122 -0.743153 -0
    outer loop
      vertex -2.73113 14.0148 14
      vertex -3.66329 14.8541 1
      vertex -2.73113 14.0148 1
    endloop
  endfacet
  facet normal -0.309008 -0.95106 0
    outer loop
      vertex -5.94253 15.8689 1
      vertex -4.74958 15.4813 14
      vertex -5.94253 15.8689 14
    endloop
  endfacet
  facet normal -0.309008 -0.95106 -0
    outer loop
      vertex -4.74958 15.4813 14
      vertex -5.94253 15.8689 1
      vertex -4.74958 15.4813 1
    endloop
  endfacet
  facet normal -0.500018 -0.866015 0
    outer loop
      vertex -4.74958 15.4813 1
      vertex -3.66329 14.8541 14
      vertex -4.74958 15.4813 14
    endloop
  endfacet
  facet normal -0.500018 -0.866015 -0
    outer loop
      vertex -3.66329 14.8541 14
      vertex -4.74958 15.4813 1
      vertex -3.66329 14.8541 1
    endloop
  endfacet
  facet normal -0.5 0.866025 0
    outer loop
      vertex -3.66329 5.1459 1
      vertex -4.74958 4.51873 14
      vertex -3.66329 5.1459 14
    endloop
  endfacet
  facet normal -0.5 0.866025 0
    outer loop
      vertex -4.74958 4.51873 14
      vertex -3.66329 5.1459 1
      vertex -4.74958 4.51873 1
    endloop
  endfacet
  facet normal -0.104525 0.994522 0
    outer loop
      vertex -5.94253 4.13111 1
      vertex -7.19 4 14
      vertex -5.94253 4.13111 14
    endloop
  endfacet
  facet normal -0.104525 0.994522 0
    outer loop
      vertex -7.19 4 14
      vertex -5.94253 4.13111 1
      vertex -7.19 4 1
    endloop
  endfacet
  facet normal -0.309022 0.951055 0
    outer loop
      vertex -4.74958 4.51873 1
      vertex -5.94253 4.13111 14
      vertex -4.74958 4.51873 14
    endloop
  endfacet
  facet normal -0.309022 0.951055 0
    outer loop
      vertex -5.94253 4.13111 14
      vertex -4.74958 4.51873 1
      vertex -5.94253 4.13111 1
    endloop
  endfacet
  facet normal -0.809023 -0.587777 0
    outer loop
      vertex -1.99385 13 1
      vertex -2.73113 14.0148 14
      vertex -2.73113 14.0148 1
    endloop
  endfacet
  facet normal -0.809023 -0.587777 0
    outer loop
      vertex -2.73113 14.0148 14
      vertex -1.99385 13 1
      vertex -1.99385 13 14
    endloop
  endfacet
  facet normal -0.913545 -0.406738 0
    outer loop
      vertex -1.48366 11.8541 1
      vertex -1.99385 13 14
      vertex -1.99385 13 1
    endloop
  endfacet
  facet normal -0.913545 -0.406738 0
    outer loop
      vertex -1.99385 13 14
      vertex -1.48366 11.8541 1
      vertex -1.48366 11.8541 14
    endloop
  endfacet
  facet normal -1 0 0
    outer loop
      vertex -1.22287 9.37283 1
      vertex -1.22287 10.6272 14
      vertex -1.22287 10.6272 1
    endloop
  endfacet
  facet normal -1 -0 0
    outer loop
      vertex -1.22287 10.6272 14
      vertex -1.22287 9.37283 1
      vertex -1.22287 9.37283 14
    endloop
  endfacet
  facet normal -0.913545 0.406738 0
    outer loop
      vertex -1.99385 7 1
      vertex -1.48366 8.1459 14
      vertex -1.48366 8.1459 1
    endloop
  endfacet
  facet normal -0.913545 0.406738 0
    outer loop
      vertex -1.48366 8.1459 14
      vertex -1.99385 7 1
      vertex -1.99385 7 14
    endloop
  endfacet
  facet normal -0.66913 0.743145 0
    outer loop
      vertex -2.73113 5.98522 1
      vertex -3.66329 5.1459 14
      vertex -2.73113 5.98522 14
    endloop
  endfacet
  facet normal -0.66913 0.743145 0
    outer loop
      vertex -3.66329 5.1459 14
      vertex -2.73113 5.98522 1
      vertex -3.66329 5.1459 1
    endloop
  endfacet
  facet normal 0 0 1
    outer loop
      vertex -2.21739 10.5226 1
      vertex -1.22287 10.6272 1
      vertex -1.48366 11.8541 1
    endloop
  endfacet
  facet normal 0 0 1
    outer loop
      vertex -1.22287 10.6272 1
      vertex -2.21739 10.5226 1
      vertex -1.22287 9.37283 1
    endloop
  endfacet
  facet normal 0 0 1
    outer loop
      vertex -2.43472 11.5451 1
      vertex -1.48366 11.8541 1
      vertex -1.99385 13 1
    endloop
  endfacet
  facet normal -0 0 1
    outer loop
      vertex -2.21739 9.47736 1
      vertex -1.22287 9.37283 1
      vertex -2.21739 10.5226 1
    endloop
  endfacet
  facet normal 0 0 1
    outer loop
      vertex -1.22287 9.37283 1
      vertex -2.21739 9.47736 1
      vertex -1.48366 8.1459 1
    endloop
  endfacet
  facet normal 0 0 1
    outer loop
      vertex -1.48366 11.8541 1
      vertex -2.43472 11.5451 1
      vertex -2.21739 10.5226 1
    endloop
  endfacet
  facet normal 0 0 1
    outer loop
      vertex -2.85987 12.5 1
      vertex -1.99385 13 1
      vertex -2.73113 14.0148 1
    endloop
  endfacet
  facet normal 0 0 1
    outer loop
      vertex -1.99385 13 1
      vertex -2.85987 12.5 1
      vertex -2.43472 11.5451 1
    endloop
  endfacet
  facet normal 0 0 1
    outer loop
      vertex -2.73113 14.0148 1
      vertex -3.47428 13.3457 1
      vertex -2.85987 12.5 1
    endloop
  endfacet
  facet normal 0 0 1
    outer loop
      vertex -3.66329 14.8541 1
      vertex -3.47428 13.3457 1
      vertex -2.73113 14.0148 1
    endloop
  endfacet
  facet normal 0 0 1
    outer loop
      vertex -3.66329 14.8541 1
      vertex -4.25107 14.0451 1
      vertex -3.47428 13.3457 1
    endloop
  endfacet
  facet normal 0 0 1
    outer loop
      vertex -4.74958 15.4813 1
      vertex -4.25107 14.0451 1
      vertex -3.66329 14.8541 1
    endloop
  endfacet
  facet normal 0 0 1
    outer loop
      vertex -4.74958 15.4813 1
      vertex -5.15632 14.5677 1
      vertex -4.25107 14.0451 1
    endloop
  endfacet
  facet normal 0 0 1
    outer loop
      vertex -5.94253 15.8689 1
      vertex -5.15632 14.5677 1
      vertex -4.74958 15.4813 1
    endloop
  endfacet
  facet normal 0 0 1
    outer loop
      vertex -5.94253 15.8689 1
      vertex -6.15044 14.8907 1
      vertex -5.15632 14.5677 1
    endloop
  endfacet
  facet normal 0 0 1
    outer loop
      vertex -7.19 16 1
      vertex -6.15044 14.8907 1
      vertex -5.94253 15.8689 1
    endloop
  endfacet
  facet normal 0 0 1
    outer loop
      vertex -7.19 16 1
      vertex -7.19 15 1
      vertex -6.15044 14.8907 1
    endloop
  endfacet
  facet normal 0 0 1
    outer loop
      vertex -7.19 16 1
      vertex -8.22956 14.8907 1
      vertex -7.19 15 1
    endloop
  endfacet
  facet normal -0 0 1
    outer loop
      vertex -8.43747 15.8689 1
      vertex -8.22956 14.8907 1
      vertex -7.19 16 1
    endloop
  endfacet
  facet normal 0 0 1
    outer loop
      vertex -8.43747 15.8689 1
      vertex -9.22368 14.5677 1
      vertex -8.22956 14.8907 1
    endloop
  endfacet
  facet normal -0 0 1
    outer loop
      vertex -9.63042 15.4813 1
      vertex -9.22368 14.5677 1
      vertex -8.43747 15.8689 1
    endloop
  endfacet
  facet normal 0 0 1
    outer loop
      vertex -9.22368 14.5677 1
      vertex -9.63042 15.4813 1
      vertex -9.34099 14.5 1
    endloop
  endfacet
  facet normal -0 0 1
    outer loop
      vertex -10.7167 14.8541 1
      vertex -9.34099 14.5 1
      vertex -9.63042 15.4813 1
    endloop
  endfacet
  facet normal 0 0 1
    outer loop
      vertex -9.34099 14.5 1
      vertex -10.7167 14.8541 1
      vertex -11.11 14.5 1
    endloop
  endfacet
  facet normal -0 0 1
    outer loop
      vertex -2.43472 8.45492 1
      vertex -1.48366 8.1459 1
      vertex -2.21739 9.47736 1
    endloop
  endfacet
  facet normal 0 0 1
    outer loop
      vertex -1.48366 8.1459 1
      vertex -2.43472 8.45492 1
      vertex -1.99385 7 1
    endloop
  endfacet
  facet normal -0 0 1
    outer loop
      vertex -2.85987 7.5 1
      vertex -1.99385 7 1
      vertex -2.43472 8.45492 1
    endloop
  endfacet
  facet normal 0 0 1
    outer loop
      vertex -1.99385 7 1
      vertex -2.85987 7.5 1
      vertex -2.73113 5.98522 1
    endloop
  endfacet
  facet normal -0 0 1
    outer loop
      vertex -3.47428 6.65435 1
      vertex -2.73113 5.98522 1
      vertex -2.85987 7.5 1
    endloop
  endfacet
  facet normal 0 0 1
    outer loop
      vertex -3.47428 6.65435 1
      vertex -3.66329 5.1459 1
      vertex -2.73113 5.98522 1
    endloop
  endfacet
  facet normal -0 0 1
    outer loop
      vertex -4.25107 5.95492 1
      vertex -3.66329 5.1459 1
      vertex -3.47428 6.65435 1
    endloop
  endfacet
  facet normal 0 0 1
    outer loop
      vertex -4.25107 5.95492 1
      vertex -4.74958 4.51873 1
      vertex -3.66329 5.1459 1
    endloop
  endfacet
  facet normal -0 0 1
    outer loop
      vertex -5.15632 5.43227 1
      vertex -4.74958 4.51873 1
      vertex -4.25107 5.95492 1
    endloop
  endfacet
  facet normal 0 0 1
    outer loop
      vertex -5.15632 5.43227 1
      vertex -5.94253 4.13111 1
      vertex -4.74958 4.51873 1
    endloop
  endfacet
  facet normal -0 0 1
    outer loop
      vertex -6.15044 5.10926 1
      vertex -5.94253 4.13111 1
      vertex -5.15632 5.43227 1
    endloop
  endfacet
  facet normal -0 0 1
    outer loop
      vertex -7.19 5 1
      vertex -5.94253 4.13111 1
      vertex -6.15044 5.10926 1
    endloop
  endfacet
  facet normal 0 0 1
    outer loop
      vertex -7.19 5 1
      vertex -7.19 4 1
      vertex -5.94253 4.13111 1
    endloop
  endfacet
  facet normal 0 0 1
    outer loop
      vertex -8.22956 5.10926 1
      vertex -7.19 4 1
      vertex -7.19 5 1
    endloop
  endfacet
  facet normal 0 0 1
    outer loop
      vertex -8.22956 5.10926 1
      vertex -8.43747 4.13111 1
      vertex -7.19 4 1
    endloop
  endfacet
  facet normal 0 0 1
    outer loop
      vertex -9.22368 5.43227 1
      vertex -8.43747 4.13111 1
      vertex -8.22956 5.10926 1
    endloop
  endfacet
  facet normal 0 0 1
    outer loop
      vertex -9.63042 4.51873 1
      vertex -9.22368 5.43227 1
      vertex -9.34099 5.5 1
    endloop
  endfacet
  facet normal 0 0 1
    outer loop
      vertex -9.22368 5.43227 1
      vertex -9.63042 4.51873 1
      vertex -8.43747 4.13111 1
    endloop
  endfacet
  facet normal 0 0 1
    outer loop
      vertex -9.34099 5.5 1
      vertex -10.7167 5.1459 1
      vertex -9.63042 4.51873 1
    endloop
  endfacet
  facet normal 0 -0 1
    outer loop
      vertex -10.7167 5.1459 1
      vertex -9.34099 5.5 1
      vertex -11.11 5.5 1
    endloop
  endfacet
  facet normal -0.809017 0.587785 0
    outer loop
      vertex -2.73113 5.98522 1
      vertex -1.99385 7 14
      vertex -1.99385 7 1
    endloop
  endfacet
  facet normal -0.809017 0.587785 0
    outer loop
      vertex -1.99385 7 14
      vertex -2.73113 5.98522 1
      vertex -2.73113 5.98522 14
    endloop
  endfacet
  facet normal 0 1 0
    outer loop
      vertex -9.34099 5.5 1
      vertex -9.34099 5.5 0
      vertex -11.11 5.5 1
    endloop
  endfacet
  facet normal 0 1 -0
    outer loop
      vertex -11.11 5.5 1
      vertex -12.7715 5.5 14
      vertex -11.11 5.5 14
    endloop
  endfacet
  facet normal 0 1 0
    outer loop
      vertex -11.11 5.5 1
      vertex -12.7715 5.5 0
      vertex -12.7715 5.5 14
    endloop
  endfacet
  facet normal 0 1 0
    outer loop
      vertex -12.7715 5.5 0
      vertex -11.11 5.5 1
      vertex -9.34099 5.5 0
    endloop
  endfacet
  facet normal 0 -1 0
    outer loop
      vertex -12.7715 14.5 14
      vertex -11.11 14.5 1
      vertex -11.11 14.5 14
    endloop
  endfacet
  facet normal 0 -1 0
    outer loop
      vertex -12.7715 14.5 0
      vertex -11.11 14.5 1
      vertex -12.7715 14.5 14
    endloop
  endfacet
  facet normal 0 -1 0
    outer loop
      vertex -9.34099 14.5 0
      vertex -11.11 14.5 1
      vertex -12.7715 14.5 0
    endloop
  endfacet
  facet normal 0 -1 0
    outer loop
      vertex -11.11 14.5 1
      vertex -9.34099 14.5 0
      vertex -9.34099 14.5 1
    endloop
  endfacet
endsolid OpenSCAD_Model
