solid OpenSCAD_Model
  facet normal -1 0 0
    outer loop
      vertex 68.33333587646484 13.458542823791504 24.129535675048828
      vertex 68.33333587646484 13.938227653503418 24.395078659057617
      vertex 68.33333587646484 16.688283920288086 21.117691040039062
    endloop
  endfacet
  facet normal -1 0 0
    outer loop
      vertex 68.33333587646484 13.938227653503418 24.395078659057617
      vertex 68.33333587646484 13.458542823791504 24.129535675048828
      vertex 68.33333587646484 13.833311080932617 24.444002151489258
    endloop
  endfacet
  facet normal -1 0 0
    outer loop
      vertex 68.33333587646484 6.383243560791016 -0.9815394282341003
      vertex 68.33333587646484 13.458542823791504 24.129535675048828
      vertex 68.33333587646484 16.688283920288086 21.117691040039062
    endloop
  endfacet
  facet normal -1 0 0
    outer loop
      vertex 68.33333587646484 1.9999996423721313 -0.44339004158973694
      vertex 68.33333587646484 6.383243560791016 -0.9815394282341003
      vertex 68.33333587646484 2.1049177646636963 -0.9815393090248108
    endloop
  endfacet
  facet normal -1 0 0
    outer loop
      vertex 68.33333587646484 1.9999996423721313 -0.44339004158973694
      vertex 68.33333587646484 2.1049177646636963 -0.9815393090248108
      vertex 68.33333587646484 1.9999998807907104 -0.9326152205467224
    endloop
  endfacet
  facet normal -1 0 0
    outer loop
      vertex 68.33333587646484 6.383243560791016 -0.9815394282341003
      vertex 68.33333587646484 1.9999996423721313 -0.44339004158973694
      vertex 68.33333587646484 13.458542823791504 24.129535675048828
    endloop
  endfacet
  facet normal 1 0 0
    outer loop
      vertex 78.33333587646484 13.458542823791504 24.129535675048828
      vertex 78.33333587646484 13.938227653503418 24.395078659057617
      vertex 78.33333587646484 13.833311080932617 24.444002151489258
    endloop
  endfacet
  facet normal 1 0 0
    outer loop
      vertex 78.33333587646484 13.938227653503418 24.395078659057617
      vertex 78.33333587646484 13.458542823791504 24.129535675048828
      vertex 78.33333587646484 16.688283920288086 21.117691040039062
    endloop
  endfacet
  facet normal 1 0 0
    outer loop
      vertex 78.33333587646484 13.458542823791504 24.129535675048828
      vertex 78.33333587646484 6.383243560791016 -0.9815394282341003
      vertex 78.33333587646484 16.688283920288086 21.117691040039062
    endloop
  endfacet
  facet normal 1 0 0
    outer loop
      vertex 78.33333587646484 1.9999996423721313 -0.44339004158973694
      vertex 78.33333587646484 6.383243560791016 -0.9815394282341003
      vertex 78.33333587646484 13.458542823791504 24.129535675048828
    endloop
  endfacet
  facet normal 1 0 0
    outer loop
      vertex 78.33333587646484 6.383243560791016 -0.9815394282341003
      vertex 78.33333587646484 1.9999996423721313 -0.44339004158973694
      vertex 78.33333587646484 2.1049177646636963 -0.9815393090248108
    endloop
  endfacet
  facet normal 1 0 0
    outer loop
      vertex 78.33333587646484 2.1049177646636963 -0.9815393090248108
      vertex 78.33333587646484 1.9999996423721313 -0.44339004158973694
      vertex 78.33333587646484 1.9999998807907104 -0.9326152205467224
    endloop
  endfacet
  facet normal -0.7071079341296493 0.6408553203031077 -0.2988357875658481
    outer loop
      vertex 70.13333129882812 8.36932373046875 -0.9815394282341003
      vertex 68.33333587646484 16.688283920288086 21.117691040039062
      vertex 70.13333129882812 17.96491241455078 19.596263885498047
    endloop
  endfacet
  facet normal -0.7071076655748124 0.6408555810509774 -0.29883586384695093
    outer loop
      vertex 68.33333587646484 16.688283920288086 21.117691040039062
      vertex 70.13333129882812 8.36932373046875 -0.9815394282341003
      vertex 68.33333587646484 6.383243560791016 -0.9815394282341003
    endloop
  endfacet
  facet normal 0 0.9063077632358693 -0.42261831278163436
    outer loop
      vertex 76.53333282470703 8.36932373046875 -0.9815394282341003
      vertex 70.13333129882812 17.96491241455078 19.596263885498047
      vertex 76.53333282470703 17.96491241455078 19.596263885498047
    endloop
  endfacet
  facet normal 0 0.9063077632358693 -0.42261831278163436
    outer loop
      vertex 70.13333129882812 17.96491241455078 19.596263885498047
      vertex 76.53333282470703 8.36932373046875 -0.9815394282341003
      vertex 70.13333129882812 8.36932373046875 -0.9815394282341003
    endloop
  endfacet
  facet normal 0 -0.42261879922288215 -0.906307536404398
    outer loop
      vertex 68.33333587646484 1.9999998807907104 -0.9326152205467224
      vertex 78.33333587646484 2.1049177646636963 -0.9815393090248108
      vertex 78.33333587646484 1.9999998807907104 -0.9326152205467224
    endloop
  endfacet
  facet normal 0 -0.42261879922288215 -0.906307536404398
    outer loop
      vertex 78.33333587646484 2.1049177646636963 -0.9815393090248108
      vertex 68.33333587646484 1.9999998807907104 -0.9326152205467224
      vertex 68.33333587646484 2.1049177646636963 -0.9815393090248108
    endloop
  endfacet
  facet normal 0 0.4226189086691051 0.906307485368699
    outer loop
      vertex 68.33333587646484 13.833311080932617 24.444002151489258
      vertex 69.8108139038086 13.938227653503418 24.395078659057617
      vertex 68.33333587646484 13.938227653503418 24.395078659057617
    endloop
  endfacet
  facet normal 0 0.4226189086691051 0.9063074853686991
    outer loop
      vertex 69.8108139038086 13.938227653503418 24.395078659057617
      vertex 68.33333587646484 13.833311080932617 24.444002151489258
      vertex 69.92658233642578 13.833311080932617 24.444002151489258
    endloop
  endfacet
  facet normal 0 0.4226189086691051 0.9063074853686991
    outer loop
      vertex 76.85585021972656 13.938227653503418 24.395078659057617
      vertex 78.33333587646484 13.833311080932617 24.444002151489258
      vertex 78.33333587646484 13.938227653503418 24.395078659057617
    endloop
  endfacet
  facet normal 0 0.4226189086691051 0.9063074853686991
    outer loop
      vertex 78.33333587646484 13.833311080932617 24.444002151489258
      vertex 76.85585021972656 13.938227653503418 24.395078659057617
      vertex 76.7400894165039 13.833311080932617 24.444002151489258
    endloop
  endfacet
  facet normal 0.7071064355752559 0.6408566784561387 -0.2988364208831006
    outer loop
      vertex 78.33333587646484 16.688283920288086 21.117691040039062
      vertex 76.53333282470703 8.36932373046875 -0.9815394282341003
      vertex 76.53333282470703 17.96491241455078 19.596263885498047
    endloop
  endfacet
  facet normal 0.7071061670198499 0.6408569392035294 -0.29883649716388394
    outer loop
      vertex 76.53333282470703 8.36932373046875 -0.9815394282341003
      vertex 78.33333587646484 16.688283920288086 21.117691040039062
      vertex 78.33333587646484 6.383243560791016 -0.9815394282341003
    endloop
  endfacet
  facet normal 0 -0.9063077864897524 0.42261826291352483
    outer loop
      vertex -110 0.46630772948265076 1.0000001192092896
      vertex 110 11.367003440856934 24.376617431640625
      vertex -110 11.367003440856934 24.376617431640625
    endloop
  endfacet
  facet normal 0 -0.9063077864897524 0.42261826291352483
    outer loop
      vertex 110 11.367003440856934 24.376617431640625
      vertex -110 0.46630772948265076 1.0000001192092896
      vertex 110 0.46630772948265076 1.0000001192092896
    endloop
  endfacet
  facet normal -1 0 0
    outer loop
      vertex -5.000000476837158 13.458542823791504 24.129535675048828
      vertex -5.000000476837158 13.938227653503418 24.395078659057617
      vertex -5.000000476837158 16.688283920288086 21.117691040039062
    endloop
  endfacet
  facet normal -1 0 0
    outer loop
      vertex -5.000000476837158 13.938227653503418 24.395078659057617
      vertex -5.000000476837158 13.458542823791504 24.129535675048828
      vertex -5.000000476837158 13.833311080932617 24.444002151489258
    endloop
  endfacet
  facet normal -1 0 0
    outer loop
      vertex -5.000000476837158 6.383243560791016 -0.9815394282341003
      vertex -5.000000476837158 13.458542823791504 24.129535675048828
      vertex -5.000000476837158 16.688283920288086 21.117691040039062
    endloop
  endfacet
  facet normal -1 0 0
    outer loop
      vertex -5.000000476837158 1.9999996423721313 -0.44339004158973694
      vertex -5.000000476837158 6.383243560791016 -0.9815394282341003
      vertex -5.000000476837158 2.1049177646636963 -0.9815393090248108
    endloop
  endfacet
  facet normal -1 0 0
    outer loop
      vertex -5.000000476837158 1.9999996423721313 -0.44339004158973694
      vertex -5.000000476837158 2.1049177646636963 -0.9815393090248108
      vertex -5.000000476837158 1.9999998807907104 -0.9326152205467224
    endloop
  endfacet
  facet normal -1 0 0
    outer loop
      vertex -5.000000476837158 6.383243560791016 -0.9815394282341003
      vertex -5.000000476837158 1.9999996423721313 -0.44339004158973694
      vertex -5.000000476837158 13.458542823791504 24.129535675048828
    endloop
  endfacet
  facet normal 1 0 0
    outer loop
      vertex 4.999999523162842 13.458542823791504 24.129535675048828
      vertex 4.999999523162842 13.938227653503418 24.395078659057617
      vertex 4.999999523162842 13.833311080932617 24.444002151489258
    endloop
  endfacet
  facet normal 1 0 0
    outer loop
      vertex 4.999999523162842 13.938227653503418 24.395078659057617
      vertex 4.999999523162842 13.458542823791504 24.129535675048828
      vertex 4.999999523162842 16.688283920288086 21.117691040039062
    endloop
  endfacet
  facet normal 1 0 0
    outer loop
      vertex 4.999999523162842 13.458542823791504 24.129535675048828
      vertex 4.999999523162842 6.383243560791016 -0.9815394282341003
      vertex 4.999999523162842 16.688283920288086 21.117691040039062
    endloop
  endfacet
  facet normal 1 0 0
    outer loop
      vertex 4.999999523162842 1.9999996423721313 -0.44339004158973694
      vertex 4.999999523162842 6.383243560791016 -0.9815394282341003
      vertex 4.999999523162842 13.458542823791504 24.129535675048828
    endloop
  endfacet
  facet normal 1 0 0
    outer loop
      vertex 4.999999523162842 6.383243560791016 -0.9815394282341003
      vertex 4.999999523162842 1.9999996423721313 -0.44339004158973694
      vertex 4.999999523162842 2.1049177646636963 -0.9815393090248108
    endloop
  endfacet
  facet normal 1 0 0
    outer loop
      vertex 4.999999523162842 2.1049177646636963 -0.9815393090248108
      vertex 4.999999523162842 1.9999996423721313 -0.44339004158973694
      vertex 4.999999523162842 1.9999998807907104 -0.9326152205467224
    endloop
  endfacet
  facet normal -0.7071070443625952 0.6408561267075112 -0.2988361635984524
    outer loop
      vertex -3.200000524520874 8.36932373046875 -0.9815394282341003
      vertex -5.000000476837158 16.688283920288086 21.117691040039062
      vertex -3.200000524520874 17.96491241455078 19.596263885498047
    endloop
  endfacet
  facet normal -0.7071067758074203 0.6408563874550965 -0.29883623987936553
    outer loop
      vertex -5.000000476837158 16.688283920288086 21.117691040039062
      vertex -3.200000524520874 8.36932373046875 -0.9815394282341003
      vertex -5.000000476837158 6.383243560791016 -0.9815394282341003
    endloop
  endfacet
  facet normal 0 0.9063077632358694 -0.42261831278163436
    outer loop
      vertex 3.1999990940093994 8.36932373046875 -0.9815394282341003
      vertex -3.200000524520874 17.96491241455078 19.596263885498047
      vertex 3.1999990940093994 17.96491241455078 19.596263885498047
    endloop
  endfacet
  facet normal 0 0.9063077632358694 -0.42261831278163436
    outer loop
      vertex -3.200000524520874 17.96491241455078 19.596263885498047
      vertex 3.1999990940093994 8.36932373046875 -0.9815394282341003
      vertex -3.200000524520874 8.36932373046875 -0.9815394282341003
    endloop
  endfacet
  facet normal 0 -0.42261879922288215 -0.906307536404398
    outer loop
      vertex -5.000000476837158 1.9999998807907104 -0.9326152205467224
      vertex 4.999999523162842 2.1049177646636963 -0.9815393090248108
      vertex 4.999999523162842 1.9999998807907104 -0.9326152205467224
    endloop
  endfacet
  facet normal 0 -0.42261879922288215 -0.906307536404398
    outer loop
      vertex 4.999999523162842 2.1049177646636963 -0.9815393090248108
      vertex -5.000000476837158 1.9999998807907104 -0.9326152205467224
      vertex -5.000000476837158 2.1049177646636963 -0.9815393090248108
    endloop
  endfacet
  facet normal 0 0.42261890866910506 0.906307485368699
    outer loop
      vertex -5.000000476837158 13.833311080932617 24.444002151489258
      vertex -3.5225179195404053 13.938227653503418 24.395078659057617
      vertex -5.000000476837158 13.938227653503418 24.395078659057617
    endloop
  endfacet
  facet normal 0 0.4226189086691051 0.906307485368699
    outer loop
      vertex -3.5225179195404053 13.938227653503418 24.395078659057617
      vertex -5.000000476837158 13.833311080932617 24.444002151489258
      vertex -3.406755208969116 13.833311080932617 24.444002151489258
    endloop
  endfacet
  facet normal 0 0.4226189086691051 0.9063074853686991
    outer loop
      vertex 3.5225167274475098 13.938227653503418 24.395078659057617
      vertex 4.999999523162842 13.833311080932617 24.444002151489258
      vertex 4.999999523162842 13.938227653503418 24.395078659057617
    endloop
  endfacet
  facet normal 0 0.42261890866910506 0.906307485368699
    outer loop
      vertex 4.999999523162842 13.833311080932617 24.444002151489258
      vertex 3.5225167274475098 13.938227653503418 24.395078659057617
      vertex 3.4067540168762207 13.833311080932617 24.444002151489258
    endloop
  endfacet
  facet normal 0.7071069507029705 0.6408562115920082 -0.2988362031807492
    outer loop
      vertex 4.999999523162842 16.688283920288086 21.117691040039062
      vertex 3.1999990940093994 8.36932373046875 -0.9815394282341003
      vertex 3.1999990940093994 17.96491241455078 19.596263885498047
    endloop
  endfacet
  facet normal 0.7071066821477601 0.6408564723395637 -0.2988362794616424
    outer loop
      vertex 3.1999990940093994 8.36932373046875 -0.9815394282341003
      vertex 4.999999523162842 16.688283920288086 21.117691040039062
      vertex 4.999999523162842 6.383243560791016 -0.9815394282341003
    endloop
  endfacet
  facet normal -1 0 0
    outer loop
      vertex -78.33333587646484 13.458542823791504 24.129535675048828
      vertex -78.33333587646484 13.938227653503418 24.395078659057617
      vertex -78.33333587646484 16.688283920288086 21.117691040039062
    endloop
  endfacet
  facet normal -1 0 0
    outer loop
      vertex -78.33333587646484 13.938227653503418 24.395078659057617
      vertex -78.33333587646484 13.458542823791504 24.129535675048828
      vertex -78.33333587646484 13.833311080932617 24.444002151489258
    endloop
  endfacet
  facet normal -1 0 0
    outer loop
      vertex -78.33333587646484 6.383243560791016 -0.9815394282341003
      vertex -78.33333587646484 13.458542823791504 24.129535675048828
      vertex -78.33333587646484 16.688283920288086 21.117691040039062
    endloop
  endfacet
  facet normal -1 0 0
    outer loop
      vertex -78.33333587646484 1.9999996423721313 -0.44339004158973694
      vertex -78.33333587646484 6.383243560791016 -0.9815394282341003
      vertex -78.33333587646484 2.1049177646636963 -0.9815393090248108
    endloop
  endfacet
  facet normal -1 0 0
    outer loop
      vertex -78.33333587646484 1.9999996423721313 -0.44339004158973694
      vertex -78.33333587646484 2.1049177646636963 -0.9815393090248108
      vertex -78.33333587646484 1.9999998807907104 -0.9326152205467224
    endloop
  endfacet
  facet normal -1 0 0
    outer loop
      vertex -78.33333587646484 6.383243560791016 -0.9815394282341003
      vertex -78.33333587646484 1.9999996423721313 -0.44339004158973694
      vertex -78.33333587646484 13.458542823791504 24.129535675048828
    endloop
  endfacet
  facet normal 1 0 0
    outer loop
      vertex -68.33333587646484 13.458542823791504 24.129535675048828
      vertex -68.33333587646484 13.938227653503418 24.395078659057617
      vertex -68.33333587646484 13.833311080932617 24.444002151489258
    endloop
  endfacet
  facet normal 1 0 0
    outer loop
      vertex -68.33333587646484 13.938227653503418 24.395078659057617
      vertex -68.33333587646484 13.458542823791504 24.129535675048828
      vertex -68.33333587646484 16.688283920288086 21.117691040039062
    endloop
  endfacet
  facet normal 1 0 0
    outer loop
      vertex -68.33333587646484 13.458542823791504 24.129535675048828
      vertex -68.33333587646484 6.383243560791016 -0.9815394282341003
      vertex -68.33333587646484 16.688283920288086 21.117691040039062
    endloop
  endfacet
  facet normal 1 0 0
    outer loop
      vertex -68.33333587646484 1.9999996423721313 -0.44339004158973694
      vertex -68.33333587646484 6.383243560791016 -0.9815394282341003
      vertex -68.33333587646484 13.458542823791504 24.129535675048828
    endloop
  endfacet
  facet normal 1 0 0
    outer loop
      vertex -68.33333587646484 6.383243560791016 -0.9815394282341003
      vertex -68.33333587646484 1.9999996423721313 -0.44339004158973694
      vertex -68.33333587646484 2.1049177646636963 -0.9815393090248108
    endloop
  endfacet
  facet normal 1 0 0
    outer loop
      vertex -68.33333587646484 2.1049177646636963 -0.9815393090248108
      vertex -68.33333587646484 1.9999996423721313 -0.44339004158973694
      vertex -68.33333587646484 1.9999998807907104 -0.9326152205467224
    endloop
  endfacet
  facet normal -0.7071064355752559 0.6408566784561387 -0.2988364208831006
    outer loop
      vertex -76.53333282470703 8.36932373046875 -0.9815394282341003
      vertex -78.33333587646484 16.688283920288086 21.117691040039062
      vertex -76.53333282470703 17.96491241455078 19.596263885498047
    endloop
  endfacet
  facet normal -0.7071061670198499 0.6408569392035294 -0.29883649716388394
    outer loop
      vertex -78.33333587646484 16.688283920288086 21.117691040039062
      vertex -76.53333282470703 8.36932373046875 -0.9815394282341003
      vertex -78.33333587646484 6.383243560791016 -0.9815394282341003
    endloop
  endfacet
  facet normal 0 0.9063077632358693 -0.42261831278163436
    outer loop
      vertex -70.13333129882812 8.36932373046875 -0.9815394282341003
      vertex -76.53333282470703 17.96491241455078 19.596263885498047
      vertex -70.13333129882812 17.96491241455078 19.596263885498047
    endloop
  endfacet
  facet normal 0 0.9063077632358693 -0.42261831278163436
    outer loop
      vertex -76.53333282470703 17.96491241455078 19.596263885498047
      vertex -70.13333129882812 8.36932373046875 -0.9815394282341003
      vertex -76.53333282470703 8.36932373046875 -0.9815394282341003
    endloop
  endfacet
  facet normal 0 -0.42261879922288215 -0.906307536404398
    outer loop
      vertex -78.33333587646484 1.9999998807907104 -0.9326152205467224
      vertex -68.33333587646484 2.1049177646636963 -0.9815393090248108
      vertex -68.33333587646484 1.9999998807907104 -0.9326152205467224
    endloop
  endfacet
  facet normal 0 -0.42261879922288215 -0.906307536404398
    outer loop
      vertex -68.33333587646484 2.1049177646636963 -0.9815393090248108
      vertex -78.33333587646484 1.9999998807907104 -0.9326152205467224
      vertex -78.33333587646484 2.1049177646636963 -0.9815393090248108
    endloop
  endfacet
  facet normal 0 0.4226189086691051 0.9063074853686991
    outer loop
      vertex -78.33333587646484 13.833311080932617 24.444002151489258
      vertex -76.85585021972656 13.938227653503418 24.395078659057617
      vertex -78.33333587646484 13.938227653503418 24.395078659057617
    endloop
  endfacet
  facet normal 0 0.4226189086691051 0.9063074853686991
    outer loop
      vertex -76.85585021972656 13.938227653503418 24.395078659057617
      vertex -78.33333587646484 13.833311080932617 24.444002151489258
      vertex -76.7400894165039 13.833311080932617 24.444002151489258
    endloop
  endfacet
  facet normal 0 0.4226189086691051 0.906307485368699
    outer loop
      vertex -69.8108139038086 13.938227653503418 24.395078659057617
      vertex -68.33333587646484 13.833311080932617 24.444002151489258
      vertex -68.33333587646484 13.938227653503418 24.395078659057617
    endloop
  endfacet
  facet normal 0 0.42261890866910506 0.9063074853686989
    outer loop
      vertex -68.33333587646484 13.833311080932617 24.444002151489258
      vertex -69.8108139038086 13.938227653503418 24.395078659057617
      vertex -69.92657470703125 13.833311080932617 24.444002151489258
    endloop
  endfacet
  facet normal 0.7071079341296493 0.6408553203031077 -0.2988357875658481
    outer loop
      vertex -68.33333587646484 16.688283920288086 21.117691040039062
      vertex -70.13333129882812 8.36932373046875 -0.9815394282341003
      vertex -70.13333129882812 17.96491241455078 19.596263885498047
    endloop
  endfacet
  facet normal 0.7071076655748124 0.6408555810509774 -0.29883586384695093
    outer loop
      vertex -70.13333129882812 8.36932373046875 -0.9815394282341003
      vertex -68.33333587646484 16.688283920288086 21.117691040039062
      vertex -68.33333587646484 6.383243560791016 -0.9815394282341003
    endloop
  endfacet
  facet normal 1 0 0
    outer loop
      vertex 110 13.87078857421875 24.47545051574707
      vertex 110 11.367003440856934 24.376617431640625
      vertex 110 13.458542823791504 24.129535675048828
    endloop
  endfacet
  facet normal 1 0 0
    outer loop
      vertex 110 8.085700988769531 31.369850158691406
      vertex 110 11.367003440856934 24.376617431640625
      vertex 110 13.87078857421875 24.47545051574707
    endloop
  endfacet
  facet normal 1 0 0
    outer loop
      vertex 110 11.367003440856934 24.376617431640625
      vertex 110 8.085700988769531 31.369850158691406
      vertex 110 6.567753791809082 30.096139907836914
    endloop
  endfacet
  facet normal 1 0 0
    outer loop
      vertex 110 11.367003440856934 24.376617431640625
      vertex 110 1.9999996423721313 -0.44339004158973694
      vertex 110 13.458542823791504 24.129535675048828
    endloop
  endfacet
  facet normal 1 0 0
    outer loop
      vertex 110 1.9999996423721313 -0.44339004158973694
      vertex 110 11.367003440856934 24.376617431640625
      vertex 110 0.46630772948265076 1.0000001192092896
    endloop
  endfacet
  facet normal 1 0 0
    outer loop
      vertex 110 0.46630772948265076 1.0000001192092896
      vertex 110 1.9999998807907104 -0.9815393090248108
      vertex 110 1.9999996423721313 -0.44339004158973694
    endloop
  endfacet
  facet normal 1 0 0
    outer loop
      vertex 110 -6.999999046325684 -0.9815390706062317
      vertex 110 0.46630772948265076 1.0000001192092896
      vertex 110 -6.999999046325684 1.0000005960464478
    endloop
  endfacet
  facet normal 1 0 0
    outer loop
      vertex 110 0.46630772948265076 1.0000001192092896
      vertex 110 -6.999999046325684 -0.9815390706062317
      vertex 110 1.9999998807907104 -0.9815393090248108
    endloop
  endfacet
  facet normal -1 0 0
    outer loop
      vertex -110 1.9999998807907104 -0.9815393090248108
      vertex -110 0.46630772948265076 1.0000001192092896
      vertex -110 1.9999996423721313 -0.44339004158973694
    endloop
  endfacet
  facet normal -1 0 0
    outer loop
      vertex -110 -6.999999046325684 -0.9815390706062317
      vertex -110 0.46630772948265076 1.0000001192092896
      vertex -110 1.9999998807907104 -0.9815393090248108
    endloop
  endfacet
  facet normal -1 0 0
    outer loop
      vertex -110 0.46630772948265076 1.0000001192092896
      vertex -110 -6.999999046325684 -0.9815390706062317
      vertex -110 -6.999999046325684 1.0000005960464478
    endloop
  endfacet
  facet normal -1 0 0
    outer loop
      vertex -110 1.9999996423721313 -0.44339004158973694
      vertex -110 11.367003440856934 24.376617431640625
      vertex -110 13.458542823791504 24.129535675048828
    endloop
  endfacet
  facet normal -1 0 0
    outer loop
      vertex -110 11.367003440856934 24.376617431640625
      vertex -110 1.9999996423721313 -0.44339004158973694
      vertex -110 0.46630772948265076 1.0000001192092896
    endloop
  endfacet
  facet normal -1 0 0
    outer loop
      vertex -110 11.367003440856934 24.376617431640625
      vertex -110 13.87078857421875 24.47545051574707
      vertex -110 13.458542823791504 24.129535675048828
    endloop
  endfacet
  facet normal -1 0 0
    outer loop
      vertex -110 11.367003440856934 24.376617431640625
      vertex -110 8.085700988769531 31.369850158691406
      vertex -110 13.87078857421875 24.47545051574707
    endloop
  endfacet
  facet normal -1 0 0
    outer loop
      vertex -110 8.085700988769531 31.369850158691406
      vertex -110 11.367003440856934 24.376617431640625
      vertex -110 6.567753791809082 30.096139907836914
    endloop
  endfacet
  facet normal 0 0.9063077907593797 -0.42261825375727985
    outer loop
      vertex -78.33333587646484 1.9999996423721313 -0.44339004158973694
      vertex -110 13.458542823791504 24.129535675048828
      vertex -78.33333587646484 13.458542823791504 24.129535675048828
    endloop
  endfacet
  facet normal 0 0.9063077907593797 -0.42261825375727985
    outer loop
      vertex -110 13.458542823791504 24.129535675048828
      vertex -78.33333587646484 1.9999996423721313 -0.44339004158973694
      vertex -110 1.9999996423721313 -0.44339004158973694
    endloop
  endfacet
  facet normal 0 0.9063077907593797 -0.42261825375727985
    outer loop
      vertex 110 1.9999996423721313 -0.44339004158973694
      vertex 78.33333587646484 13.458542823791504 24.129535675048828
      vertex 110 13.458542823791504 24.129535675048828
    endloop
  endfacet
  facet normal 0 0.9063077907593797 -0.42261825375727985
    outer loop
      vertex 78.33333587646484 13.458542823791504 24.129535675048828
      vertex 110 1.9999996423721313 -0.44339004158973694
      vertex 78.33333587646484 1.9999996423721313 -0.44339004158973694
    endloop
  endfacet
  facet normal 0 0.9063077907593796 -0.4226182537572798
    outer loop
      vertex -5.000000476837158 1.9999996423721313 -0.44339004158973694
      vertex -68.33333587646484 13.458542823791504 24.129535675048828
      vertex -5.000000476837158 13.458542823791504 24.129535675048828
    endloop
  endfacet
  facet normal 0 0.9063077907593796 -0.4226182537572798
    outer loop
      vertex -68.33333587646484 13.458542823791504 24.129535675048828
      vertex -5.000000476837158 1.9999996423721313 -0.44339004158973694
      vertex -68.33333587646484 1.9999996423721313 -0.44339004158973694
    endloop
  endfacet
  facet normal 0 0.9063077907593796 -0.4226182537572799
    outer loop
      vertex 68.33333587646484 1.9999996423721313 -0.44339004158973694
      vertex 4.999999523162842 13.458542823791504 24.129535675048828
      vertex 68.33333587646484 13.458542823791504 24.129535675048828
    endloop
  endfacet
  facet normal 0 0.9063077907593796 -0.4226182537572799
    outer loop
      vertex 4.999999523162842 13.458542823791504 24.129535675048828
      vertex 68.33333587646484 1.9999996423721313 -0.44339004158973694
      vertex 4.999999523162842 1.9999996423721313 -0.44339004158973694
    endloop
  endfacet
  facet normal 0 0.9999999999998812 4.873391422940168e-7
    outer loop
      vertex 110 1.9999996423721313 -0.44339004158973694
      vertex 78.33333587646484 1.9999998807907104 -0.9326152205467224
      vertex 78.33333587646484 1.9999996423721313 -0.44339004158973694
    endloop
  endfacet
  facet normal 0 0 0
    outer loop
      vertex 78.33333587646484 1.9999998807907104 -0.9326152205467224
      vertex 4.999999523162842 1.9999998807907104 -0.9326152205467224
      vertex 68.33333587646484 1.9999998807907104 -0.9326152205467224
    endloop
  endfacet
  facet normal 0 0 0
    outer loop
      vertex 78.33333587646484 1.9999998807907104 -0.9326152205467224
      vertex -5.000000476837158 1.9999998807907104 -0.9326152205467224
      vertex 4.999999523162842 1.9999998807907104 -0.9326152205467224
    endloop
  endfacet
  facet normal 0 0 0
    outer loop
      vertex 78.33333587646484 1.9999998807907104 -0.9326152205467224
      vertex -68.33333587646484 1.9999998807907104 -0.9326152205467224
      vertex -5.000000476837158 1.9999998807907104 -0.9326152205467224
    endloop
  endfacet
  facet normal 0 0 0
    outer loop
      vertex 78.33333587646484 1.9999998807907104 -0.9326152205467224
      vertex -78.33333587646484 1.9999998807907104 -0.9326152205467224
      vertex -68.33333587646484 1.9999998807907104 -0.9326152205467224
    endloop
  endfacet
  facet normal 0 1 0
    outer loop
      vertex 78.33333587646484 1.9999998807907104 -0.9326152205467224
      vertex 110 1.9999998807907104 -0.9815393090248108
      vertex -78.33333587646484 1.9999998807907104 -0.9326152205467224
    endloop
  endfacet
  facet normal 6.844752817260581e-10 0.9999999999999019 4.430342909094522e-7
    outer loop
      vertex 110 1.9999998807907104 -0.9815393090248108
      vertex 78.33333587646484 1.9999998807907104 -0.9326152205467224
      vertex 110 1.9999996423721313 -0.44339004158973694
    endloop
  endfacet
  facet normal 0 0.9999999999998812 4.873391422940168e-7
    outer loop
      vertex 68.33333587646484 1.9999998807907104 -0.9326152205467224
      vertex 4.999999523162842 1.9999996423721313 -0.44339004158973694
      vertex 68.33333587646484 1.9999996423721313 -0.44339004158973694
    endloop
  endfacet
  facet normal 0 0.9999999999998812 4.873391422940168e-7
    outer loop
      vertex 4.999999523162842 1.9999996423721313 -0.44339004158973694
      vertex 68.33333587646484 1.9999998807907104 -0.9326152205467224
      vertex 4.999999523162842 1.9999998807907104 -0.9326152205467224
    endloop
  endfacet
  facet normal 0 0.9999999999998812 4.873391422940168e-7
    outer loop
      vertex -5.000000476837158 1.9999998807907104 -0.9326152205467224
      vertex -68.33333587646484 1.9999996423721313 -0.44339004158973694
      vertex -5.000000476837158 1.9999996423721313 -0.44339004158973694
    endloop
  endfacet
  facet normal 0 0.9999999999998812 4.873391422940168e-7
    outer loop
      vertex -68.33333587646484 1.9999996423721313 -0.44339004158973694
      vertex -5.000000476837158 1.9999998807907104 -0.9326152205467224
      vertex -68.33333587646484 1.9999998807907104 -0.9326152205467224
    endloop
  endfacet
  facet normal 0 0.9999999999998812 4.873391422940168e-7
    outer loop
      vertex -78.33333587646484 1.9999998807907104 -0.9326152205467224
      vertex -110 1.9999996423721313 -0.44339004158973694
      vertex -78.33333587646484 1.9999996423721313 -0.44339004158973694
    endloop
  endfacet
  facet normal -6.844752817260581e-10 0.9999999999999019 4.430342909094522e-7
    outer loop
      vertex -78.33333587646484 1.9999998807907104 -0.9326152205467224
      vertex -110 1.9999998807907104 -0.9815393090248108
      vertex -110 1.9999996423721313 -0.44339004158973694
    endloop
  endfacet
  facet normal 0 1 0
    outer loop
      vertex -110 1.9999998807907104 -0.9815393090248108
      vertex -78.33333587646484 1.9999998807907104 -0.9326152205467224
      vertex 110 1.9999998807907104 -0.9815393090248108
    endloop
  endfacet
  facet normal 0 6.386519768356285e-8 0.9999999999999979
    outer loop
      vertex -110 0.46630772948265076 1.0000001192092896
      vertex 110 -6.999999046325684 1.0000005960464478
      vertex 110 0.46630772948265076 1.0000001192092896
    endloop
  endfacet
  facet normal 0 6.386519768356285e-8 0.9999999999999979
    outer loop
      vertex 110 -6.999999046325684 1.0000005960464478
      vertex -110 0.46630772948265076 1.0000001192092896
      vertex -110 -6.999999046325684 1.0000005960464478
    endloop
  endfacet
  facet normal 0 -1 0
    outer loop
      vertex -110 -6.999999046325684 -0.9815390706062317
      vertex 110 -6.999999046325684 1.0000005960464478
      vertex -110 -6.999999046325684 1.0000005960464478
    endloop
  endfacet
  facet normal 0 -1 0
    outer loop
      vertex 110 -6.999999046325684 1.0000005960464478
      vertex -110 -6.999999046325684 -0.9815390706062317
      vertex 110 -6.999999046325684 -0.9815390706062317
    endloop
  endfacet
  facet normal 0 -0.7660444135231067 -0.6427876449575237
    outer loop
      vertex -110 11.367003440856934 24.376617431640625
      vertex 110 6.567753791809082 30.096139907836914
      vertex -110 6.567753791809082 30.096139907836914
    endloop
  endfacet
  facet normal 0 -0.7660444135231067 -0.6427876449575237
    outer loop
      vertex 110 6.567753791809082 30.096139907836914
      vertex -110 11.367003440856934 24.376617431640625
      vertex 110 11.367003440856934 24.376617431640625
    endloop
  endfacet
  facet normal 0 0.6427858945168494 -0.7660458823139602
    outer loop
      vertex -78.33333587646484 13.458542823791504 24.129535675048828
      vertex -110 13.458542823791504 24.129535675048828
      vertex -78.33333587646484 13.833311080932617 24.444002151489258
    endloop
  endfacet
  facet normal 0 0.6427997656952793 -0.7660342428521679
    outer loop
      vertex -78.33333587646484 13.833311080932617 24.444002151489258
      vertex -76.7607650756836 13.87078857421875 24.47545051574707
      vertex -76.7400894165039 13.833311080932617 24.444002151489258
    endloop
  endfacet
  facet normal -2.543243378589564e-8 0.6427871555796187 -0.7660448241596981
    outer loop
      vertex -110 13.87078857421875 24.47545051574707
      vertex -78.33333587646484 13.833311080932617 24.444002151489258
      vertex -110 13.458542823791504 24.129535675048828
    endloop
  endfacet
  facet normal 0 0.6427997656952793 -0.7660342428521678
    outer loop
      vertex -78.33333587646484 13.833311080932617 24.444002151489258
      vertex -110 13.87078857421875 24.47545051574707
      vertex -76.7607650756836 13.87078857421875 24.47545051574707
    endloop
  endfacet
  facet normal 0 0.6427871555796189 -0.7660448241596982
    outer loop
      vertex 78.33333587646484 13.458542823791504 24.129535675048828
      vertex 110 13.87078857421875 24.47545051574707
      vertex 110 13.458542823791504 24.129535675048828
    endloop
  endfacet
  facet normal 2.7975761110567682e-8 0.6427858945168491 -0.7660458823139599
    outer loop
      vertex 78.33333587646484 13.833311080932617 24.444002151489258
      vertex 110 13.87078857421875 24.47545051574707
      vertex 78.33333587646484 13.458542823791504 24.129535675048828
    endloop
  endfacet
  facet normal 0 0.6427997656952793 -0.7660342428521678
    outer loop
      vertex 78.33333587646484 13.833311080932617 24.444002151489258
      vertex 76.7607650756836 13.87078857421875 24.47545051574707
      vertex 110 13.87078857421875 24.47545051574707
    endloop
  endfacet
  facet normal 0 0.6427997656952793 -0.7660342428521679
    outer loop
      vertex 76.7607650756836 13.87078857421875 24.47545051574707
      vertex 78.33333587646484 13.833311080932617 24.444002151489258
      vertex 76.7400894165039 13.833311080932617 24.444002151489258
    endloop
  endfacet
  facet normal 0 0.6427858945168494 -0.7660458823139602
    outer loop
      vertex -5.000000476837158 13.458542823791504 24.129535675048828
      vertex -68.33333587646484 13.458542823791504 24.129535675048828
      vertex -5.000000476837158 13.833311080932617 24.444002151489258
    endloop
  endfacet
  facet normal 0 0.6427997656952793 -0.7660342428521678
    outer loop
      vertex -5.000000476837158 13.833311080932617 24.444002151489258
      vertex -3.427431106567383 13.87078857421875 24.47545051574707
      vertex -3.406755208969116 13.833311080932617 24.444002151489258
    endloop
  endfacet
  facet normal 0 0.6427858945168494 -0.7660458823139602
    outer loop
      vertex -68.33333587646484 13.833311080932617 24.444002151489258
      vertex -5.000000476837158 13.833311080932617 24.444002151489258
      vertex -68.33333587646484 13.458542823791504 24.129535675048828
    endloop
  endfacet
  facet normal 0 0.6427997656952793 -0.7660342428521678
    outer loop
      vertex -5.000000476837158 13.833311080932617 24.444002151489258
      vertex -68.33333587646484 13.833311080932617 24.444002151489258
      vertex -3.427431106567383 13.87078857421875 24.47545051574707
    endloop
  endfacet
  facet normal 0 0.6427997656952793 -0.7660342428521678
    outer loop
      vertex -68.33333587646484 13.833311080932617 24.444002151489258
      vertex -69.90589904785156 13.87078857421875 24.47545051574707
      vertex -3.427431106567383 13.87078857421875 24.47545051574707
    endloop
  endfacet
  facet normal 0 0.6427997656952793 -0.7660342428521678
    outer loop
      vertex -69.90589904785156 13.87078857421875 24.47545051574707
      vertex -68.33333587646484 13.833311080932617 24.444002151489258
      vertex -69.92657470703125 13.833311080932617 24.444002151489258
    endloop
  endfacet
  facet normal 0 0.6427858945168493 -0.7660458823139601
    outer loop
      vertex 68.33333587646484 13.458542823791504 24.129535675048828
      vertex 4.999999523162842 13.458542823791504 24.129535675048828
      vertex 68.33333587646484 13.833311080932617 24.444002151489258
    endloop
  endfacet
  facet normal 0 0.6427997656952793 -0.7660342428521679
    outer loop
      vertex 68.33333587646484 13.833311080932617 24.444002151489258
      vertex 69.90589904785156 13.87078857421875 24.47545051574707
      vertex 69.92658233642578 13.833311080932617 24.444002151489258
    endloop
  endfacet
  facet normal 0 0.6427858945168493 -0.7660458823139601
    outer loop
      vertex 4.999999523162842 13.833311080932617 24.444002151489258
      vertex 68.33333587646484 13.833311080932617 24.444002151489258
      vertex 4.999999523162842 13.458542823791504 24.129535675048828
    endloop
  endfacet
  facet normal 0 0.6427997656952793 -0.7660342428521678
    outer loop
      vertex 68.33333587646484 13.833311080932617 24.444002151489258
      vertex 4.999999523162842 13.833311080932617 24.444002151489258
      vertex 69.90589904785156 13.87078857421875 24.47545051574707
    endloop
  endfacet
  facet normal 0 0.6427997656952793 -0.7660342428521678
    outer loop
      vertex 4.999999523162842 13.833311080932617 24.444002151489258
      vertex 3.4274299144744873 13.87078857421875 24.47545051574707
      vertex 69.90589904785156 13.87078857421875 24.47545051574707
    endloop
  endfacet
  facet normal 0 0.6427997656952793 -0.7660342428521678
    outer loop
      vertex 3.4274299144744873 13.87078857421875 24.47545051574707
      vertex 4.999999523162842 13.833311080932617 24.444002151489258
      vertex 3.4067540168762207 13.833311080932617 24.444002151489258
    endloop
  endfacet
  facet normal 0 -0.6427879999286719 0.7660441156667792
    outer loop
      vertex -110 8.085700988769531 31.369850158691406
      vertex 110 6.567753791809082 30.096139907836914
      vertex 110 8.085700988769531 31.369850158691406
    endloop
  endfacet
  facet normal 0 -0.6427879999286719 0.7660441156667792
    outer loop
      vertex 110 6.567753791809082 30.096139907836914
      vertex -110 8.085700988769531 31.369850158691406
      vertex -110 6.567753791809082 30.096139907836914
    endloop
  endfacet
  facet normal 1 0 0
    outer loop
      vertex 69.73333740234375 3.0203757286071777 0.7983314990997314
      vertex 69.73333740234375 16.262741088867188 21.624832153320312
      vertex 69.73333740234375 13.993181228637695 24.329587936401367
    endloop
  endfacet
  facet normal 1 0 0
    outer loop
      vertex 69.73333740234375 16.262741088867188 21.624832153320312
      vertex 69.73333740234375 3.0203757286071777 0.7983314990997314
      vertex 69.73333740234375 5.920559406280518 -0.5540464520454407
    endloop
  endfacet
  facet normal -1 0 0
    outer loop
      vertex 76.93333435058594 3.0203757286071777 0.7983314990997314
      vertex 76.93333435058594 16.262741088867188 21.624832153320312
      vertex 76.93333435058594 5.920559406280518 -0.5540464520454407
    endloop
  endfacet
  facet normal -1 0 0
    outer loop
      vertex 76.93333435058594 16.262741088867188 21.624832153320312
      vertex 76.93333435058594 3.0203757286071777 0.7983314990997314
      vertex 76.93333435058594 13.993181228637695 24.329587936401367
    endloop
  endfacet
  facet normal 0.7071068085671081 -0.6408563490549718 0.2988362447126708
    outer loop
      vertex 69.73333740234375 5.920559406280518 -0.5540464520454407
      vertex 70.73333740234375 16.97197914123535 20.77959632873535
      vertex 69.73333740234375 16.262741088867188 21.624832153320312
    endloop
  endfacet
  facet normal 0.7071069064453808 -0.6408562637934369 0.2988361959568491
    outer loop
      vertex 70.73333740234375 16.97197914123535 20.77959632873535
      vertex 69.73333740234375 5.920559406280518 -0.5540464520454407
      vertex 70.73333740234375 6.826867580413818 -0.9766647219657898
    endloop
  endfacet
  facet normal 0.7070804754473791 0.6409224002826261 -0.29875688788221394
    outer loop
      vertex 69.90589904785156 13.87078857421875 24.47545051574707
      vertex 70.73333740234375 13.283943176269531 25.17482566833496
      vertex 69.92658233642578 13.833311080932617 24.444002151489258
    endloop
  endfacet
  facet normal 0.7070891626451627 0.6409532590723735 -0.29867011191993303
    outer loop
      vertex 69.92658233642578 13.833311080932617 24.444002151489258
      vertex 69.73333740234375 13.993181228637695 24.329587936401367
      vertex 69.8108139038086 13.938227653503418 24.395078659057617
    endloop
  endfacet
  facet normal 0.7071070769358668 0.6408561201869438 -0.29883610050686876
    outer loop
      vertex 70.73333740234375 2.114068031311035 1.2209497690200806
      vertex 69.73333740234375 13.993181228637695 24.329587936401367
      vertex 69.92658233642578 13.833311080932617 24.444002151489258
    endloop
  endfacet
  facet normal 0.7071070875479655 0.6408561108474304 -0.29883609542513406
    outer loop
      vertex 70.73333740234375 2.114068031311035 1.2209497690200806
      vertex 69.92658233642578 13.833311080932617 24.444002151489258
      vertex 70.73333740234375 13.283943176269531 25.17482566833496
    endloop
  endfacet
  facet normal 0.7071067536533456 0.6408564026562701 -0.2988362597013482
    outer loop
      vertex 69.73333740234375 13.993181228637695 24.329587936401367
      vertex 70.73333740234375 2.114068031311035 1.2209497690200806
      vertex 69.73333740234375 3.0203757286071777 0.7983314990997314
    endloop
  endfacet
  facet normal -0.707112475431627 0.6408268144754417 -0.29888616719114713
    outer loop
      vertex 76.93333435058594 13.993181228637695 24.329587936401367
      vertex 76.7400894165039 13.833311080932617 24.444002151489258
      vertex 76.85585021972656 13.938227653503418 24.395078659057617
    endloop
  endfacet
  facet normal -0.7071067536533456 0.6408564026562701 -0.2988362597013482
    outer loop
      vertex 75.93333435058594 2.114068031311035 1.2209497690200806
      vertex 76.93333435058594 13.993181228637695 24.329587936401367
      vertex 76.93333435058594 3.0203757286071777 0.7983314990997314
    endloop
  endfacet
  facet normal -0.7071070769358668 0.6408561201869438 -0.29883610050686876
    outer loop
      vertex 76.93333435058594 13.993181228637695 24.329587936401367
      vertex 75.93333435058594 2.114068031311035 1.2209497690200806
      vertex 76.7400894165039 13.833311080932617 24.444002151489258
    endloop
  endfacet
  facet normal -0.7071070875479655 0.6408561108474304 -0.29883609542513406
    outer loop
      vertex 76.7400894165039 13.833311080932617 24.444002151489258
      vertex 75.93333435058594 2.114068031311035 1.2209497690200806
      vertex 75.93333435058594 13.283943176269531 25.17482566833496
    endloop
  endfacet
  facet normal -0.7071064570246861 0.6408576817660673 -0.2988342185149114
    outer loop
      vertex 76.7607650756836 13.87078857421875 24.47545051574707
      vertex 76.7400894165039 13.833311080932617 24.444002151489258
      vertex 75.93333435058594 13.283943176269531 25.17482566833496
    endloop
  endfacet
  facet normal 0 -0.9063077803343009 0.42261827611393293
    outer loop
      vertex 70.73333740234375 6.826867580413818 -0.9766647219657898
      vertex 75.93333435058594 16.97197914123535 20.77959632873535
      vertex 70.73333740234375 16.97197914123535 20.77959632873535
    endloop
  endfacet
  facet normal 0 -0.9063077803343009 0.42261827611393293
    outer loop
      vertex 75.93333435058594 16.97197914123535 20.77959632873535
      vertex 70.73333740234375 6.826867580413818 -0.9766647219657898
      vertex 75.93333435058594 6.826867580413818 -0.9766647219657898
    endloop
  endfacet
  facet normal 1.82291004792069e-7 0.4226182854045354 0.9063077760020032
    outer loop
      vertex 75.93333435058594 6.826867580413818 -0.9766647219657898
      vertex 76.93333435058594 3.0203757286071777 0.7983314990997314
      vertex 76.93333435058594 5.920559406280518 -0.5540464520454407
    endloop
  endfacet
  facet normal 5.058716044647085e-8 0.4226182569844832 0.9063077892545086
    outer loop
      vertex 75.93333435058594 6.826867580413818 -0.9766647219657898
      vertex 75.93333435058594 2.114068031311035 1.2209497690200806
      vertex 76.93333435058594 3.0203757286071777 0.7983314990997314
    endloop
  endfacet
  facet normal 0 0.4226182569844837 0.9063077892545097
    outer loop
      vertex 70.73333740234375 6.826867580413818 -0.9766647219657898
      vertex 75.93333435058594 2.114068031311035 1.2209497690200806
      vertex 75.93333435058594 6.826867580413818 -0.9766647219657898
    endloop
  endfacet
  facet normal 0 0.4226182569844837 0.9063077892545097
    outer loop
      vertex 70.73333740234375 6.826867580413818 -0.9766647219657898
      vertex 70.73333740234375 2.114068031311035 1.2209497690200806
      vertex 75.93333435058594 2.114068031311035 1.2209497690200806
    endloop
  endfacet
  facet normal -1.5093292821876658e-7 0.4226182569844789 0.9063077892544995
    outer loop
      vertex 69.73333740234375 5.920559406280518 -0.5540464520454407
      vertex 70.73333740234375 2.114068031311035 1.2209497690200806
      vertex 70.73333740234375 6.826867580413818 -0.9766647219657898
    endloop
  endfacet
  facet normal -1.92290974249072e-8 0.4226182854045424 0.9063077760020182
    outer loop
      vertex 70.73333740234375 2.114068031311035 1.2209497690200806
      vertex 69.73333740234375 5.920559406280518 -0.5540464520454407
      vertex 69.73333740234375 3.0203757286071777 0.7983314990997314
    endloop
  endfacet
  facet normal -0.7071069064453808 -0.6408562637934369 0.2988361959568491
    outer loop
      vertex 76.93333435058594 5.920559406280518 -0.5540464520454407
      vertex 75.93333435058594 16.97197914123535 20.77959632873535
      vertex 75.93333435058594 6.826867580413818 -0.9766647219657898
    endloop
  endfacet
  facet normal -0.7071068085671081 -0.6408563490549718 0.2988362447126708
    outer loop
      vertex 75.93333435058594 16.97197914123535 20.77959632873535
      vertex 76.93333435058594 5.920559406280518 -0.5540464520454407
      vertex 76.93333435058594 16.262741088867188 21.624832153320312
    endloop
  endfacet
  facet normal 0 0.9063077961576256 -0.42261824218070354
    outer loop
      vertex 75.93333435058594 2.114068031311035 1.2209497690200806
      vertex 70.73333740234375 13.283943176269531 25.17482566833496
      vertex 75.93333435058594 13.283943176269531 25.17482566833496
    endloop
  endfacet
  facet normal 0 0.9063077961576256 -0.42261824218070354
    outer loop
      vertex 70.73333740234375 13.283943176269531 25.17482566833496
      vertex 75.93333435058594 2.114068031311035 1.2209497690200806
      vertex 70.73333740234375 2.114068031311035 1.2209497690200806
    endloop
  endfacet
  facet normal 1 0 0
    outer loop
      vertex -3.6000001430511475 3.0203757286071777 0.7983314990997314
      vertex -3.6000001430511475 16.262741088867188 21.624832153320312
      vertex -3.6000001430511475 13.993181228637695 24.329587936401367
    endloop
  endfacet
  facet normal 1 0 0
    outer loop
      vertex -3.6000001430511475 16.262741088867188 21.624832153320312
      vertex -3.6000001430511475 3.0203757286071777 0.7983314990997314
      vertex -3.6000001430511475 5.920559406280518 -0.5540464520454407
    endloop
  endfacet
  facet normal -1 0 0
    outer loop
      vertex 3.599998712539673 3.0203757286071777 0.7983314990997314
      vertex 3.599998712539673 16.262741088867188 21.624832153320312
      vertex 3.599998712539673 5.920559406280518 -0.5540464520454407
    endloop
  endfacet
  facet normal -1 0 0
    outer loop
      vertex 3.599998712539673 16.262741088867188 21.624832153320312
      vertex 3.599998712539673 3.0203757286071777 0.7983314990997314
      vertex 3.599998712539673 13.993181228637695 24.329587936401367
    endloop
  endfacet
  facet normal 0.7071068085671081 -0.6408563490549718 0.2988362447126708
    outer loop
      vertex -3.6000001430511475 5.920559406280518 -0.5540464520454407
      vertex -2.6000001430511475 16.97197914123535 20.77959632873535
      vertex -3.6000001430511475 16.262741088867188 21.624832153320312
    endloop
  endfacet
  facet normal 0.7071069064453808 -0.6408562637934369 0.2988361959568491
    outer loop
      vertex -2.6000001430511475 16.97197914123535 20.77959632873535
      vertex -3.6000001430511475 5.920559406280518 -0.5540464520454407
      vertex -2.6000001430511475 6.826867580413818 -0.9766647219657898
    endloop
  endfacet
  facet normal 0.7071056451875589 0.6408597043968938 -0.29883180189566827
    outer loop
      vertex -3.427431106567383 13.87078857421875 24.47545051574707
      vertex -2.6000001430511475 13.283943176269531 25.17482566833496
      vertex -3.406755208969116 13.833311080932617 24.444002151489258
    endloop
  endfacet
  facet normal 0.7071066512813403 0.6408584302041808 -0.29883215380865946
    outer loop
      vertex -3.406755208969116 13.833311080932617 24.444002151489258
      vertex -3.6000001430511475 13.993181228637695 24.329587936401367
      vertex -3.5225179195404053 13.938227653503418 24.395078659057617
    endloop
  endfacet
  facet normal 0.7071070769358668 0.6408561201869438 -0.29883610050686876
    outer loop
      vertex -2.6000001430511475 2.114068031311035 1.2209497690200806
      vertex -3.6000001430511475 13.993181228637695 24.329587936401367
      vertex -3.406755208969116 13.833311080932617 24.444002151489258
    endloop
  endfacet
  facet normal 0.7071070875479655 0.6408561108474304 -0.29883609542513406
    outer loop
      vertex -2.6000001430511475 2.114068031311035 1.2209497690200806
      vertex -3.406755208969116 13.833311080932617 24.444002151489258
      vertex -2.6000001430511475 13.283943176269531 25.17482566833496
    endloop
  endfacet
  facet normal 0.7071067536533456 0.6408564026562701 -0.2988362597013482
    outer loop
      vertex -3.6000001430511475 13.993181228637695 24.329587936401367
      vertex -2.6000001430511475 2.114068031311035 1.2209497690200806
      vertex -3.6000001430511475 3.0203757286071777 0.7983314990997314
    endloop
  endfacet
  facet normal -0.7071066512569061 0.6408604021607713 -0.29882792488416904
    outer loop
      vertex 3.599998712539673 13.993181228637695 24.329587936401367
      vertex 3.4067540168762207 13.833311080932617 24.444002151489258
      vertex 3.5225167274475098 13.938227653503418 24.395078659057617
    endloop
  endfacet
  facet normal -0.7071067536533456 0.6408564026562701 -0.2988362597013482
    outer loop
      vertex 2.599998712539673 2.114068031311035 1.2209497690200806
      vertex 3.599998712539673 13.993181228637695 24.329587936401367
      vertex 3.599998712539673 3.0203757286071777 0.7983314990997314
    endloop
  endfacet
  facet normal -0.7071075100184963 0.6408557417789444 -0.29883588724315097
    outer loop
      vertex 3.599998712539673 13.993181228637695 24.329587936401367
      vertex 2.599998712539673 2.114068031311035 1.2209497690200806
      vertex 3.4067540168762207 13.833311080932617 24.444002151489258
    endloop
  endfacet
  facet normal -0.7071069830631499 0.6408562055429015 -0.2988361395823549
    outer loop
      vertex 3.4067540168762207 13.833311080932617 24.444002151489258
      vertex 2.599998712539673 2.114068031311035 1.2209497690200806
      vertex 2.599998712539673 13.283943176269531 25.17482566833496
    endloop
  endfacet
  facet normal -0.7071055615087405 0.640859747255733 -0.29883190798629083
    outer loop
      vertex 3.4274299144744873 13.87078857421875 24.47545051574707
      vertex 3.4067540168762207 13.833311080932617 24.444002151489258
      vertex 2.599998712539673 13.283943176269531 25.17482566833496
    endloop
  endfacet
  facet normal 0 -0.906307780334301 0.42261827611393293
    outer loop
      vertex -2.6000001430511475 6.826867580413818 -0.9766647219657898
      vertex 2.599998712539673 16.97197914123535 20.77959632873535
      vertex -2.6000001430511475 16.97197914123535 20.77959632873535
    endloop
  endfacet
  facet normal 0 -0.906307780334301 0.42261827611393293
    outer loop
      vertex 2.599998712539673 16.97197914123535 20.77959632873535
      vertex -2.6000001430511475 6.826867580413818 -0.9766647219657898
      vertex 2.599998712539673 6.826867580413818 -0.9766647219657898
    endloop
  endfacet
  facet normal 1.82291004792069e-7 0.4226182854045354 0.9063077760020032
    outer loop
      vertex 2.599998712539673 6.826867580413818 -0.9766647219657898
      vertex 3.599998712539673 3.0203757286071777 0.7983314990997314
      vertex 3.599998712539673 5.920559406280518 -0.5540464520454407
    endloop
  endfacet
  facet normal 5.058716044647085e-8 0.4226182569844832 0.9063077892545086
    outer loop
      vertex 2.599998712539673 6.826867580413818 -0.9766647219657898
      vertex 2.599998712539673 2.114068031311035 1.2209497690200806
      vertex 3.599998712539673 3.0203757286071777 0.7983314990997314
    endloop
  endfacet
  facet normal 0 0.42261825698448374 0.9063077892545098
    outer loop
      vertex -2.6000001430511475 6.826867580413818 -0.9766647219657898
      vertex 2.599998712539673 2.114068031311035 1.2209497690200806
      vertex 2.599998712539673 6.826867580413818 -0.9766647219657898
    endloop
  endfacet
  facet normal 0 0.42261825698448374 0.9063077892545098
    outer loop
      vertex -2.6000001430511475 6.826867580413818 -0.9766647219657898
      vertex -2.6000001430511475 2.114068031311035 1.2209497690200806
      vertex 2.599998712539673 2.114068031311035 1.2209497690200806
    endloop
  endfacet
  facet normal -1.5093292821876658e-7 0.4226182569844789 0.9063077892544995
    outer loop
      vertex -3.6000001430511475 5.920559406280518 -0.5540464520454407
      vertex -2.6000001430511475 2.114068031311035 1.2209497690200806
      vertex -2.6000001430511475 6.826867580413818 -0.9766647219657898
    endloop
  endfacet
  facet normal -1.92290974249072e-8 0.4226182854045424 0.9063077760020182
    outer loop
      vertex -2.6000001430511475 2.114068031311035 1.2209497690200806
      vertex -3.6000001430511475 5.920559406280518 -0.5540464520454407
      vertex -3.6000001430511475 3.0203757286071777 0.7983314990997314
    endloop
  endfacet
  facet normal -0.7071069064453808 -0.6408562637934369 0.2988361959568491
    outer loop
      vertex 3.599998712539673 5.920559406280518 -0.5540464520454407
      vertex 2.599998712539673 16.97197914123535 20.77959632873535
      vertex 2.599998712539673 6.826867580413818 -0.9766647219657898
    endloop
  endfacet
  facet normal -0.7071068085671081 -0.6408563490549718 0.2988362447126708
    outer loop
      vertex 2.599998712539673 16.97197914123535 20.77959632873535
      vertex 3.599998712539673 5.920559406280518 -0.5540464520454407
      vertex 3.599998712539673 16.262741088867188 21.624832153320312
    endloop
  endfacet
  facet normal 0 0.9063077961576256 -0.4226182421807035
    outer loop
      vertex 2.599998712539673 2.114068031311035 1.2209497690200806
      vertex -2.6000001430511475 13.283943176269531 25.17482566833496
      vertex 2.599998712539673 13.283943176269531 25.17482566833496
    endloop
  endfacet
  facet normal 0 0.9063077961576256 -0.4226182421807035
    outer loop
      vertex -2.6000001430511475 13.283943176269531 25.17482566833496
      vertex 2.599998712539673 2.114068031311035 1.2209497690200806
      vertex -2.6000001430511475 2.114068031311035 1.2209497690200806
    endloop
  endfacet
  facet normal 1 0 0
    outer loop
      vertex -76.93333435058594 3.0203757286071777 0.7983314990997314
      vertex -76.93333435058594 16.262741088867188 21.624832153320312
      vertex -76.93333435058594 13.993181228637695 24.329587936401367
    endloop
  endfacet
  facet normal 1 0 0
    outer loop
      vertex -76.93333435058594 16.262741088867188 21.624832153320312
      vertex -76.93333435058594 3.0203757286071777 0.7983314990997314
      vertex -76.93333435058594 5.920559406280518 -0.5540464520454407
    endloop
  endfacet
  facet normal -1 0 0
    outer loop
      vertex -69.73332977294922 3.0203757286071777 0.7983314990997314
      vertex -69.73332977294922 16.262741088867188 21.624832153320312
      vertex -69.73332977294922 5.920559406280518 -0.5540464520454407
    endloop
  endfacet
  facet normal -1 0 0
    outer loop
      vertex -69.73332977294922 16.262741088867188 21.624832153320312
      vertex -69.73332977294922 3.0203757286071777 0.7983314990997314
      vertex -69.73332977294922 13.993181228637695 24.329587936401367
    endloop
  endfacet
  facet normal 0.7071068085671081 -0.6408563490549718 0.2988362447126708
    outer loop
      vertex -76.93333435058594 5.920559406280518 -0.5540464520454407
      vertex -75.93333435058594 16.97197914123535 20.77959632873535
      vertex -76.93333435058594 16.262741088867188 21.624832153320312
    endloop
  endfacet
  facet normal 0.7071069064453808 -0.6408562637934369 0.2988361959568491
    outer loop
      vertex -75.93333435058594 16.97197914123535 20.77959632873535
      vertex -76.93333435058594 5.920559406280518 -0.5540464520454407
      vertex -75.93333435058594 6.826867580413818 -0.9766647219657898
    endloop
  endfacet
  facet normal 0.7071064570246861 0.6408576817660673 -0.2988342185149114
    outer loop
      vertex -76.7607650756836 13.87078857421875 24.47545051574707
      vertex -75.93333435058594 13.283943176269531 25.17482566833496
      vertex -76.7400894165039 13.833311080932617 24.444002151489258
    endloop
  endfacet
  facet normal 0.707112475431627 0.6408268144754417 -0.29888616719114713
    outer loop
      vertex -76.7400894165039 13.833311080932617 24.444002151489258
      vertex -76.93333435058594 13.993181228637695 24.329587936401367
      vertex -76.85585021972656 13.938227653503418 24.395078659057617
    endloop
  endfacet
  facet normal 0.7071070769358668 0.6408561201869438 -0.29883610050686876
    outer loop
      vertex -75.93333435058594 2.114068031311035 1.2209497690200806
      vertex -76.93333435058594 13.993181228637695 24.329587936401367
      vertex -76.7400894165039 13.833311080932617 24.444002151489258
    endloop
  endfacet
  facet normal 0.7071070875479655 0.6408561108474304 -0.29883609542513406
    outer loop
      vertex -75.93333435058594 2.114068031311035 1.2209497690200806
      vertex -76.7400894165039 13.833311080932617 24.444002151489258
      vertex -75.93333435058594 13.283943176269531 25.17482566833496
    endloop
  endfacet
  facet normal 0.7071067536533456 0.6408564026562701 -0.2988362597013482
    outer loop
      vertex -76.93333435058594 13.993181228637695 24.329587936401367
      vertex -75.93333435058594 2.114068031311035 1.2209497690200806
      vertex -76.93333435058594 3.0203757286071777 0.7983314990997314
    endloop
  endfacet
  facet normal -0.707112475431627 0.6408268144754417 -0.29888616719114713
    outer loop
      vertex -69.73332977294922 13.993181228637695 24.329587936401367
      vertex -69.92657470703125 13.833311080932617 24.444002151489258
      vertex -69.8108139038086 13.938227653503418 24.395078659057617
    endloop
  endfacet
  facet normal -0.7071067536533456 0.6408564026562701 -0.2988362597013482
    outer loop
      vertex -70.73332977294922 2.114068031311035 1.2209497690200806
      vertex -69.73332977294922 13.993181228637695 24.329587936401367
      vertex -69.73332977294922 3.0203757286071777 0.7983314990997314
    endloop
  endfacet
  facet normal -0.7071070769358668 0.6408561201869438 -0.29883610050686876
    outer loop
      vertex -69.73332977294922 13.993181228637695 24.329587936401367
      vertex -70.73332977294922 2.114068031311035 1.2209497690200806
      vertex -69.92657470703125 13.833311080932617 24.444002151489258
    endloop
  endfacet
  facet normal -0.7071070875479655 0.6408561108474304 -0.29883609542513406
    outer loop
      vertex -69.92657470703125 13.833311080932617 24.444002151489258
      vertex -70.73332977294922 2.114068031311035 1.2209497690200806
      vertex -70.73332977294922 13.283943176269531 25.17482566833496
    endloop
  endfacet
  facet normal -0.7071064570246861 0.6408576817660673 -0.2988342185149114
    outer loop
      vertex -69.90589904785156 13.87078857421875 24.47545051574707
      vertex -69.92657470703125 13.833311080932617 24.444002151489258
      vertex -70.73332977294922 13.283943176269531 25.17482566833496
    endloop
  endfacet
  facet normal 0 -0.9063077803343009 0.42261827611393293
    outer loop
      vertex -75.93333435058594 6.826867580413818 -0.9766647219657898
      vertex -70.73332977294922 16.97197914123535 20.77959632873535
      vertex -75.93333435058594 16.97197914123535 20.77959632873535
    endloop
  endfacet
  facet normal 0 -0.9063077803343009 0.42261827611393293
    outer loop
      vertex -70.73332977294922 16.97197914123535 20.77959632873535
      vertex -75.93333435058594 6.826867580413818 -0.9766647219657898
      vertex -70.73332977294922 6.826867580413818 -0.9766647219657898
    endloop
  endfacet
  facet normal 1.82291004792069e-7 0.4226182854045354 0.9063077760020032
    outer loop
      vertex -70.73332977294922 6.826867580413818 -0.9766647219657898
      vertex -69.73332977294922 3.0203757286071777 0.7983314990997314
      vertex -69.73332977294922 5.920559406280518 -0.5540464520454407
    endloop
  endfacet
  facet normal 5.058716044647085e-8 0.4226182569844832 0.9063077892545086
    outer loop
      vertex -70.73332977294922 6.826867580413818 -0.9766647219657898
      vertex -70.73332977294922 2.114068031311035 1.2209497690200806
      vertex -69.73332977294922 3.0203757286071777 0.7983314990997314
    endloop
  endfacet
  facet normal 0 0.4226182569844837 0.9063077892545097
    outer loop
      vertex -75.93333435058594 6.826867580413818 -0.9766647219657898
      vertex -70.73332977294922 2.114068031311035 1.2209497690200806
      vertex -70.73332977294922 6.826867580413818 -0.9766647219657898
    endloop
  endfacet
  facet normal 0 0.4226182569844837 0.9063077892545097
    outer loop
      vertex -75.93333435058594 6.826867580413818 -0.9766647219657898
      vertex -75.93333435058594 2.114068031311035 1.2209497690200806
      vertex -70.73332977294922 2.114068031311035 1.2209497690200806
    endloop
  endfacet
  facet normal -1.5093292821876658e-7 0.4226182569844789 0.9063077892544995
    outer loop
      vertex -76.93333435058594 5.920559406280518 -0.5540464520454407
      vertex -75.93333435058594 2.114068031311035 1.2209497690200806
      vertex -75.93333435058594 6.826867580413818 -0.9766647219657898
    endloop
  endfacet
  facet normal -1.92290974249072e-8 0.4226182854045424 0.9063077760020182
    outer loop
      vertex -75.93333435058594 2.114068031311035 1.2209497690200806
      vertex -76.93333435058594 5.920559406280518 -0.5540464520454407
      vertex -76.93333435058594 3.0203757286071777 0.7983314990997314
    endloop
  endfacet
  facet normal -0.7071069064453808 -0.6408562637934369 0.2988361959568491
    outer loop
      vertex -69.73332977294922 5.920559406280518 -0.5540464520454407
      vertex -70.73332977294922 16.97197914123535 20.77959632873535
      vertex -70.73332977294922 6.826867580413818 -0.9766647219657898
    endloop
  endfacet
  facet normal -0.7071068085671081 -0.6408563490549718 0.2988362447126708
    outer loop
      vertex -70.73332977294922 16.97197914123535 20.77959632873535
      vertex -69.73332977294922 5.920559406280518 -0.5540464520454407
      vertex -69.73332977294922 16.262741088867188 21.624832153320312
    endloop
  endfacet
  facet normal 0 0.9063077961576255 -0.4226182421807035
    outer loop
      vertex -70.73332977294922 2.114068031311035 1.2209497690200806
      vertex -75.93333435058594 13.283943176269531 25.17482566833496
      vertex -70.73332977294922 13.283943176269531 25.17482566833496
    endloop
  endfacet
  facet normal 0 0.9063077961576255 -0.4226182421807035
    outer loop
      vertex -75.93333435058594 13.283943176269531 25.17482566833496
      vertex -70.73332977294922 2.114068031311035 1.2209497690200806
      vertex -75.93333435058594 2.114068031311035 1.2209497690200806
    endloop
  endfacet
  facet normal 0 0.7660444618028169 0.6427875874200066
    outer loop
      vertex -3.427431106567383 13.87078857421875 24.47545051574707
      vertex -70.73332977294922 13.283943176269531 25.17482566833496
      vertex -2.6000001430511475 13.283943176269531 25.17482566833496
    endloop
  endfacet
  facet normal 0 0.7660444618028169 0.6427875874200066
    outer loop
      vertex -70.73332977294922 13.283943176269531 25.17482566833496
      vertex -3.427431106567383 13.87078857421875 24.47545051574707
      vertex -69.90589904785156 13.87078857421875 24.47545051574707
    endloop
  endfacet
  facet normal 0 0.7660444618028169 0.6427875874200065
    outer loop
      vertex 69.90589904785156 13.87078857421875 24.47545051574707
      vertex 2.599998712539673 13.283943176269531 25.17482566833496
      vertex 70.73333740234375 13.283943176269531 25.17482566833496
    endloop
  endfacet
  facet normal 0 0.7660444618028168 0.6427875874200065
    outer loop
      vertex 2.599998712539673 13.283943176269531 25.17482566833496
      vertex 69.90589904785156 13.87078857421875 24.47545051574707
      vertex 3.4274299144744873 13.87078857421875 24.47545051574707
    endloop
  endfacet
  facet normal 0 0.7660444782813863 0.6427875677816104
    outer loop
      vertex 70.73333740234375 13.283943176269531 25.17482566833496
      vertex 110 8.085700988769531 31.369850158691406
      vertex 75.93333435058594 13.283943176269531 25.17482566833496
    endloop
  endfacet
  facet normal 0 0.766044476609783 0.6427875697737501
    outer loop
      vertex 76.7607650756836 13.87078857421875 24.47545051574707
      vertex 110 8.085700988769531 31.369850158691406
      vertex 110 13.87078857421875 24.47545051574707
    endloop
  endfacet
  facet normal -5.008212053212909e-9 0.7660444647204161 0.6427875839429472
    outer loop
      vertex 110 8.085700988769531 31.369850158691406
      vertex 76.7607650756836 13.87078857421875 24.47545051574707
      vertex 75.93333435058594 13.283943176269531 25.17482566833496
    endloop
  endfacet
  facet normal 0 0.7660444782813864 0.6427875677816105
    outer loop
      vertex 2.599998712539673 13.283943176269531 25.17482566833496
      vertex 110 8.085700988769531 31.369850158691406
      vertex 70.73333740234375 13.283943176269531 25.17482566833496
    endloop
  endfacet
  facet normal 0 0.7660444782813864 0.6427875677816105
    outer loop
      vertex 110 8.085700988769531 31.369850158691406
      vertex 2.599998712539673 13.283943176269531 25.17482566833496
      vertex -110 8.085700988769531 31.369850158691406
    endloop
  endfacet
  facet normal 0 0.7660444782813863 0.6427875677816104
    outer loop
      vertex -2.6000001430511475 13.283943176269531 25.17482566833496
      vertex -110 8.085700988769531 31.369850158691406
      vertex 2.599998712539673 13.283943176269531 25.17482566833496
    endloop
  endfacet
  facet normal 0 0.7660444782813864 0.6427875677816105
    outer loop
      vertex -70.73332977294922 13.283943176269531 25.17482566833496
      vertex -110 8.085700988769531 31.369850158691406
      vertex -2.6000001430511475 13.283943176269531 25.17482566833496
    endloop
  endfacet
  facet normal 0 0.7660444782813864 0.6427875677816105
    outer loop
      vertex -75.93333435058594 13.283943176269531 25.17482566833496
      vertex -110 8.085700988769531 31.369850158691406
      vertex -70.73332977294922 13.283943176269531 25.17482566833496
    endloop
  endfacet
  facet normal 5.008212053212909e-9 0.7660444647204161 0.6427875839429472
    outer loop
      vertex -76.7607650756836 13.87078857421875 24.47545051574707
      vertex -110 8.085700988769531 31.369850158691406
      vertex -75.93333435058594 13.283943176269531 25.17482566833496
    endloop
  endfacet
  facet normal 0 0.766044476609783 0.6427875697737501
    outer loop
      vertex -110 8.085700988769531 31.369850158691406
      vertex -76.7607650756836 13.87078857421875 24.47545051574707
      vertex -110 13.87078857421875 24.47545051574707
    endloop
  endfacet
  facet normal 0 0.7660425199298061 0.6427899016471811
    outer loop
      vertex -68.33333587646484 13.938227653503418 24.395078659057617
      vertex -69.73332977294922 13.993181228637695 24.329587936401367
      vertex -69.8108139038086 13.938227653503418 24.395078659057617
    endloop
  endfacet
  facet normal 1.7899407610841522e-7 0.766044404039473 0.6427876562596521
    outer loop
      vertex -68.33333587646484 13.938227653503418 24.395078659057617
      vertex -69.73332977294922 16.262741088867188 21.624832153320312
      vertex -69.73332977294922 13.993181228637695 24.329587936401367
    endloop
  endfacet
  facet normal -3.690273433944673e-7 0.7660442676669457 0.6427878187819653
    outer loop
      vertex -68.33333587646484 16.688283920288086 21.117691040039062
      vertex -69.73332977294922 16.262741088867188 21.624832153320312
      vertex -68.33333587646484 13.938227653503418 24.395078659057617
    endloop
  endfacet
  facet normal -4.086750072506561e-7 0.766044321560401 0.6427877545542524
    outer loop
      vertex -70.13333129882812 17.96491241455078 19.596263885498047
      vertex -69.73332977294922 16.262741088867188 21.624832153320312
      vertex -68.33333587646484 16.688283920288086 21.117691040039062
    endloop
  endfacet
  facet normal 0 0.7660446163239796 0.6427874032687998
    outer loop
      vertex -70.73332977294922 16.97197914123535 20.77959632873535
      vertex -70.13333129882812 17.96491241455078 19.596263885498047
      vertex -75.93333435058594 16.97197914123535 20.77959632873535
    endloop
  endfacet
  facet normal 7.356126166011266e-7 0.766044432664001 0.6427876221458747
    outer loop
      vertex -69.73332977294922 16.262741088867188 21.624832153320312
      vertex -70.13333129882812 17.96491241455078 19.596263885498047
      vertex -70.73332977294922 16.97197914123535 20.77959632873535
    endloop
  endfacet
  facet normal 0 0.7660425199298061 0.6427899016471811
    outer loop
      vertex -76.93333435058594 13.993181228637695 24.329587936401367
      vertex -78.33333587646484 13.938227653503418 24.395078659057617
      vertex -76.85585021972656 13.938227653503418 24.395078659057617
    endloop
  endfacet
  facet normal -1.7899310066917452e-7 0.7660444040394729 0.6427876562596521
    outer loop
      vertex -76.93333435058594 16.262741088867188 21.624832153320312
      vertex -78.33333587646484 13.938227653503418 24.395078659057617
      vertex -76.93333435058594 13.993181228637695 24.329587936401367
    endloop
  endfacet
  facet normal 3.6902533235723373e-7 0.7660442676669457 0.6427878187819653
    outer loop
      vertex -76.93333435058594 16.262741088867188 21.624832153320312
      vertex -78.33333587646484 16.688283920288086 21.117691040039062
      vertex -78.33333587646484 13.938227653503418 24.395078659057617
    endloop
  endfacet
  facet normal -7.356126166011266e-7 0.766044432664001 0.6427876221458747
    outer loop
      vertex -76.53333282470703 17.96491241455078 19.596263885498047
      vertex -76.93333435058594 16.262741088867188 21.624832153320312
      vertex -75.93333435058594 16.97197914123535 20.77959632873535
    endloop
  endfacet
  facet normal 0 0.7660446163239796 0.6427874032687998
    outer loop
      vertex -76.53333282470703 17.96491241455078 19.596263885498047
      vertex -75.93333435058594 16.97197914123535 20.77959632873535
      vertex -70.13333129882812 17.96491241455078 19.596263885498047
    endloop
  endfacet
  facet normal 4.086729286245694e-7 0.766044321560603 0.6427877545540119
    outer loop
      vertex -76.93333435058594 16.262741088867188 21.624832153320312
      vertex -76.53333282470703 17.96491241455078 19.596263885498047
      vertex -78.33333587646484 16.688283920288086 21.117691040039062
    endloop
  endfacet
  facet normal 0 0.7660425199298061 0.6427899016471811
    outer loop
      vertex 4.999999523162842 13.938227653503418 24.395078659057617
      vertex 3.599998712539673 13.993181228637695 24.329587936401367
      vertex 3.5225167274475098 13.938227653503418 24.395078659057617
    endloop
  endfacet
  facet normal 1.7899319211615172e-7 0.766044404039473 0.6427876562596521
    outer loop
      vertex 4.999999523162842 13.938227653503418 24.395078659057617
      vertex 3.599998712539673 16.262741088867188 21.624832153320312
      vertex 3.599998712539673 13.993181228637695 24.329587936401367
    endloop
  endfacet
  facet normal -3.6902552089104326e-7 0.7660442676669457 0.6427878187819653
    outer loop
      vertex 4.999999523162842 16.688283920288086 21.117691040039062
      vertex 3.599998712539673 16.262741088867188 21.624832153320312
      vertex 4.999999523162842 13.938227653503418 24.395078659057617
    endloop
  endfacet
  facet normal -4.0867325340835825e-7 0.7660443215607606 0.6427877545538241
    outer loop
      vertex 3.1999990940093994 17.96491241455078 19.596263885498047
      vertex 3.599998712539673 16.262741088867188 21.624832153320312
      vertex 4.999999523162842 16.688283920288086 21.117691040039062
    endloop
  endfacet
  facet normal 0 0.7660446163239798 0.6427874032687999
    outer loop
      vertex 2.599998712539673 16.97197914123535 20.77959632873535
      vertex 3.1999990940093994 17.96491241455078 19.596263885498047
      vertex -2.6000001430511475 16.97197914123535 20.77959632873535
    endloop
  endfacet
  facet normal 7.356119150669585e-7 0.7660444326635923 0.6427876221463618
    outer loop
      vertex 3.599998712539673 16.262741088867188 21.624832153320312
      vertex 3.1999990940093994 17.96491241455078 19.596263885498047
      vertex 2.599998712539673 16.97197914123535 20.77959632873535
    endloop
  endfacet
  facet normal 0 0.7660425199298061 0.6427899016471811
    outer loop
      vertex -3.6000001430511475 13.993181228637695 24.329587936401367
      vertex -5.000000476837158 13.938227653503418 24.395078659057617
      vertex -3.5225179195404053 13.938227653503418 24.395078659057617
    endloop
  endfacet
  facet normal -1.7899325308085508e-7 0.766044404039473 0.6427876562596521
    outer loop
      vertex -3.6000001430511475 16.262741088867188 21.624832153320312
      vertex -5.000000476837158 13.938227653503418 24.395078659057617
      vertex -3.6000001430511475 13.993181228637695 24.329587936401367
    endloop
  endfacet
  facet normal 3.6902564658035664e-7 0.7660442676669457 0.6427878187819653
    outer loop
      vertex -3.6000001430511475 16.262741088867188 21.624832153320312
      vertex -5.000000476837158 16.688283920288086 21.117691040039062
      vertex -5.000000476837158 13.938227653503418 24.395078659057617
    endloop
  endfacet
  facet normal -7.356119150669585e-7 0.7660444326635923 0.6427876221463618
    outer loop
      vertex -3.200000524520874 17.96491241455078 19.596263885498047
      vertex -3.6000001430511475 16.262741088867188 21.624832153320312
      vertex -2.6000001430511475 16.97197914123535 20.77959632873535
    endloop
  endfacet
  facet normal 0 0.7660446163239797 0.6427874032687998
    outer loop
      vertex -3.200000524520874 17.96491241455078 19.596263885498047
      vertex -2.6000001430511475 16.97197914123535 20.77959632873535
      vertex 3.1999990940093994 17.96491241455078 19.596263885498047
    endloop
  endfacet
  facet normal 4.0867338332207566e-7 0.766044321560748 0.6427877545538391
    outer loop
      vertex -3.6000001430511475 16.262741088867188 21.624832153320312
      vertex -3.200000524520874 17.96491241455078 19.596263885498047
      vertex -5.000000476837158 16.688283920288086 21.117691040039062
    endloop
  endfacet
  facet normal 0 0.7660425199298061 0.6427899016471811
    outer loop
      vertex 78.33333587646484 13.938227653503418 24.395078659057617
      vertex 76.93333435058594 13.993181228637695 24.329587936401367
      vertex 76.85585021972656 13.938227653503418 24.395078659057617
    endloop
  endfacet
  facet normal 1.7899310066917452e-7 0.7660444040394729 0.6427876562596521
    outer loop
      vertex 78.33333587646484 13.938227653503418 24.395078659057617
      vertex 76.93333435058594 16.262741088867188 21.624832153320312
      vertex 76.93333435058594 13.993181228637695 24.329587936401367
    endloop
  endfacet
  facet normal -3.6902533235723373e-7 0.7660442676669457 0.6427878187819653
    outer loop
      vertex 78.33333587646484 16.688283920288086 21.117691040039062
      vertex 76.93333435058594 16.262741088867188 21.624832153320312
      vertex 78.33333587646484 13.938227653503418 24.395078659057617
    endloop
  endfacet
  facet normal -4.086729286245694e-7 0.766044321560603 0.6427877545540119
    outer loop
      vertex 76.53333282470703 17.96491241455078 19.596263885498047
      vertex 76.93333435058594 16.262741088867188 21.624832153320312
      vertex 78.33333587646484 16.688283920288086 21.117691040039062
    endloop
  endfacet
  facet normal 0 0.7660446163239797 0.6427874032687999
    outer loop
      vertex 75.93333435058594 16.97197914123535 20.77959632873535
      vertex 76.53333282470703 17.96491241455078 19.596263885498047
      vertex 70.73333740234375 16.97197914123535 20.77959632873535
    endloop
  endfacet
  facet normal 7.356126166011266e-7 0.766044432664001 0.6427876221458747
    outer loop
      vertex 76.93333435058594 16.262741088867188 21.624832153320312
      vertex 76.53333282470703 17.96491241455078 19.596263885498047
      vertex 75.93333435058594 16.97197914123535 20.77959632873535
    endloop
  endfacet
  facet normal 0 0.7660425199298061 0.6427899016471811
    outer loop
      vertex 69.73333740234375 13.993181228637695 24.329587936401367
      vertex 68.33333587646484 13.938227653503418 24.395078659057617
      vertex 69.8108139038086 13.938227653503418 24.395078659057617
    endloop
  endfacet
  facet normal -1.7899310066917452e-7 0.7660444040394729 0.6427876562596521
    outer loop
      vertex 69.73333740234375 16.262741088867188 21.624832153320312
      vertex 68.33333587646484 13.938227653503418 24.395078659057617
      vertex 69.73333740234375 13.993181228637695 24.329587936401367
    endloop
  endfacet
  facet normal 3.6902533235723373e-7 0.7660442676669457 0.6427878187819653
    outer loop
      vertex 69.73333740234375 16.262741088867188 21.624832153320312
      vertex 68.33333587646484 16.688283920288086 21.117691040039062
      vertex 68.33333587646484 13.938227653503418 24.395078659057617
    endloop
  endfacet
  facet normal -7.356098104724827e-7 0.7660444326623663 0.6427876221478229
    outer loop
      vertex 70.13333129882812 17.96491241455078 19.596263885498047
      vertex 69.73333740234375 16.262741088867188 21.624832153320312
      vertex 70.73333740234375 16.97197914123535 20.77959632873535
    endloop
  endfacet
  facet normal 0 0.7660446163239796 0.6427874032687998
    outer loop
      vertex 70.13333129882812 17.96491241455078 19.596263885498047
      vertex 70.73333740234375 16.97197914123535 20.77959632873535
      vertex 76.53333282470703 17.96491241455078 19.596263885498047
    endloop
  endfacet
  facet normal 4.0867344827853533e-7 0.7660443215613093 0.6427877545531702
    outer loop
      vertex 69.73333740234375 16.262741088867188 21.624832153320312
      vertex 70.13333129882812 17.96491241455078 19.596263885498047
      vertex 68.33333587646484 16.688283920288086 21.117691040039062
    endloop
  endfacet
  facet normal 0 -2.6490956391475025e-8 -0.9999999999999997
    outer loop
      vertex -110 -6.999999046325684 -0.9815390706062317
      vertex 110 1.9999998807907104 -0.9815393090248108
      vertex 110 -6.999999046325684 -0.9815390706062317
    endloop
  endfacet
  facet normal 0 -2.6490956391475025e-8 -0.9999999999999997
    outer loop
      vertex 110 1.9999998807907104 -0.9815393090248108
      vertex -110 -6.999999046325684 -0.9815390706062317
      vertex -110 1.9999998807907104 -0.9815393090248108
    endloop
  endfacet
  facet normal -3.074408846041517e-8 -2.7863537101051942e-8 -0.9999999999999992
    outer loop
      vertex -68.33333587646484 2.1049177646636963 -0.9815393090248108
      vertex -70.13333129882812 8.36932373046875 -0.9815394282341003
      vertex -68.33333587646484 6.383243560791016 -0.9815394282341003
    endloop
  endfacet
  facet normal 0 -1.90296239103114e-8 -0.9999999999999998
    outer loop
      vertex -68.33333587646484 2.1049177646636963 -0.9815393090248108
      vertex -76.53333282470703 8.36932373046875 -0.9815394282341003
      vertex -70.13333129882812 8.36932373046875 -0.9815394282341003
    endloop
  endfacet
  facet normal 0 -1.9029623910311402e-8 -0.9999999999999999
    outer loop
      vertex -78.33333587646484 2.1049177646636963 -0.9815393090248108
      vertex -76.53333282470703 8.36932373046875 -0.9815394282341003
      vertex -68.33333587646484 2.1049177646636963 -0.9815393090248108
    endloop
  endfacet
  facet normal 3.0743958150202566e-8 -2.7863537101051942e-8 -0.9999999999999992
    outer loop
      vertex -76.53333282470703 8.36932373046875 -0.9815394282341003
      vertex -78.33333587646484 2.1049177646636963 -0.9815393090248108
      vertex -78.33333587646484 6.383243560791016 -0.9815394282341003
    endloop
  endfacet
  facet normal -3.0744002944213555e-8 -2.7863537101051942e-8 -0.9999999999999992
    outer loop
      vertex 4.999999523162842 2.1049177646636963 -0.9815393090248108
      vertex 3.1999990940093994 8.36932373046875 -0.9815394282341003
      vertex 4.999999523162842 6.383243560791016 -0.9815394282341003
    endloop
  endfacet
  facet normal 0 -1.90296239103114e-8 -0.9999999999999998
    outer loop
      vertex 4.999999523162842 2.1049177646636963 -0.9815393090248108
      vertex -3.200000524520874 8.36932373046875 -0.9815394282341003
      vertex 3.1999990940093994 8.36932373046875 -0.9815394282341003
    endloop
  endfacet
  facet normal 0 -1.9029623910311402e-8 -0.9999999999999999
    outer loop
      vertex -5.000000476837158 2.1049177646636963 -0.9815393090248108
      vertex -3.200000524520874 8.36932373046875 -0.9815394282341003
      vertex 4.999999523162842 2.1049177646636963 -0.9815393090248108
    endloop
  endfacet
  facet normal 3.074401108859321e-8 -2.7863537101051942e-8 -0.9999999999999992
    outer loop
      vertex -3.200000524520874 8.36932373046875 -0.9815394282341003
      vertex -5.000000476837158 2.1049177646636963 -0.9815393090248108
      vertex -5.000000476837158 6.383243560791016 -0.9815394282341003
    endloop
  endfacet
  facet normal -3.0743958150202566e-8 -2.7863537101051942e-8 -0.9999999999999992
    outer loop
      vertex 78.33333587646484 2.1049177646636963 -0.9815393090248108
      vertex 76.53333282470703 8.36932373046875 -0.9815394282341003
      vertex 78.33333587646484 6.383243560791016 -0.9815394282341003
    endloop
  endfacet
  facet normal 0 -1.90296239103114e-8 -0.9999999999999998
    outer loop
      vertex 78.33333587646484 2.1049177646636963 -0.9815393090248108
      vertex 70.13333129882812 8.36932373046875 -0.9815394282341003
      vertex 76.53333282470703 8.36932373046875 -0.9815394282341003
    endloop
  endfacet
  facet normal 0 -1.9029623910311402e-8 -0.9999999999999999
    outer loop
      vertex 68.33333587646484 2.1049177646636963 -0.9815393090248108
      vertex 70.13333129882812 8.36932373046875 -0.9815394282341003
      vertex 78.33333587646484 2.1049177646636963 -0.9815393090248108
    endloop
  endfacet
  facet normal 3.074408846041517e-8 -2.7863537101051942e-8 -0.9999999999999992
    outer loop
      vertex 70.13333129882812 8.36932373046875 -0.9815394282341003
      vertex 68.33333587646484 2.1049177646636963 -0.9815393090248108
      vertex 68.33333587646484 6.383243560791016 -0.9815394282341003
    endloop
  endfacet
endsolid OpenSCAD_Model
