solid OpenSCAD_Model
  facet normal -0.951056 -0.309018 -0
    outer loop
      vertex 0.717573 -9.37591 9.12409
      vertex 0.181375 -7.72567 0
      vertex 0.717573 -9.37591 0
    endloop
  endfacet
  facet normal -0.951056 -0.309018 0
    outer loop
      vertex 0.181375 -7.72567 0
      vertex 0.717573 -9.37591 9.12409
      vertex 0.181375 -7.72567 10.7743
    endloop
  endfacet
  facet normal -0.951056 -0.309018 0
    outer loop
      vertex 0.717573 -9.37591 40.8759
      vertex 0.181375 -7.72567 50
      vertex 0.181375 -7.72567 39.2257
    endloop
  endfacet
  facet normal -0.951056 -0.309018 0
    outer loop
      vertex 0.181375 -7.72567 50
      vertex 0.717573 -9.37591 40.8759
      vertex 0.717573 -9.37591 50
    endloop
  endfacet
  facet normal -1 0 0
    outer loop
      vertex 7.62939e-07 0 0
      vertex 7.62939e-07 -0.5 18
      vertex 7.62939e-07 0 23.5
    endloop
  endfacet
  facet normal -1 0 0
    outer loop
      vertex 7.62939e-07 -6 12.5
      vertex 7.62939e-07 0 0
      vertex 7.62939e-07 -6 0
    endloop
  endfacet
  facet normal -1 0 0
    outer loop
      vertex 7.62939e-07 0 0
      vertex 7.62939e-07 -6 12.5
      vertex 7.62939e-07 -0.5 18
    endloop
  endfacet
  facet normal -1 -0 0
    outer loop
      vertex 7.62939e-07 0 23.5
      vertex 7.62939e-07 -0.5 18
      vertex 7.62939e-07 -0.5 23.5
    endloop
  endfacet
  facet normal -1 0 0
    outer loop
      vertex 7.62939e-07 -0.5 32
      vertex 7.62939e-07 0 26.5
      vertex 7.62939e-07 -0.5 26.5
    endloop
  endfacet
  facet normal -1 0 0
    outer loop
      vertex 7.62939e-07 0 26.5
      vertex 7.62939e-07 -0.5 32
      vertex 7.62939e-07 0 50
    endloop
  endfacet
  facet normal -1 0 0
    outer loop
      vertex 7.62939e-07 -6 37.5
      vertex 7.62939e-07 0 50
      vertex 7.62939e-07 -0.5 32
    endloop
  endfacet
  facet normal -1 -0 0
    outer loop
      vertex 7.62939e-07 0 50
      vertex 7.62939e-07 -6 37.5
      vertex 7.62939e-07 -6 50
    endloop
  endfacet
  facet normal -0.994522 -0.104528 -0
    outer loop
      vertex 0.181375 -7.72567 10.7743
      vertex 7.62939e-07 -6 0
      vertex 0.181375 -7.72567 0
    endloop
  endfacet
  facet normal -0.994522 -0.104528 0
    outer loop
      vertex 7.62939e-07 -6 0
      vertex 0.181375 -7.72567 10.7743
      vertex 7.62939e-07 -6 12.5
    endloop
  endfacet
  facet normal -0.994522 -0.104528 0
    outer loop
      vertex 0.181375 -7.72567 39.2257
      vertex 7.62939e-07 -6 50
      vertex 7.62939e-07 -6 37.5
    endloop
  endfacet
  facet normal -0.994522 -0.104528 0
    outer loop
      vertex 7.62939e-07 -6 50
      vertex 0.181375 -7.72567 39.2257
      vertex 0.181375 -7.72567 50
    endloop
  endfacet
  facet normal -0.587783 -0.809019 0
    outer loop
      vertex 2.74622 -12.1681 0
      vertex 4.15 -13.188 5.31199
      vertex 2.74622 -12.1681 6.3319
    endloop
  endfacet
  facet normal -0.587783 -0.809019 -0
    outer loop
      vertex 4.15 -13.188 5.31199
      vertex 2.74622 -12.1681 0
      vertex 4.15 -13.188 0
    endloop
  endfacet
  facet normal -0.587783 -0.809019 0
    outer loop
      vertex 2.74622 -12.1681 50
      vertex 4.15 -13.188 44.688
      vertex 4.15 -13.188 50
    endloop
  endfacet
  facet normal -0.587783 -0.809019 0
    outer loop
      vertex 4.15 -13.188 44.688
      vertex 2.74622 -12.1681 50
      vertex 2.74622 -12.1681 43.6681
    endloop
  endfacet
  facet normal 0.99452 -0.104543 0
    outer loop
      vertex 16.4186 -7.72567 10.7743
      vertex 16.6 -6 0
      vertex 16.6 -6 12.5
    endloop
  endfacet
  facet normal 0.99452 -0.104543 0
    outer loop
      vertex 16.6 -6 0
      vertex 16.4186 -7.72567 10.7743
      vertex 16.4186 -7.72567 0
    endloop
  endfacet
  facet normal 0.99452 -0.104543 0
    outer loop
      vertex 16.4186 -7.72567 39.2257
      vertex 16.6 -6 50
      vertex 16.4186 -7.72567 50
    endloop
  endfacet
  facet normal 0.99452 -0.104543 0
    outer loop
      vertex 16.6 -6 50
      vertex 16.4186 -7.72567 39.2257
      vertex 16.6 -6 37.5
    endloop
  endfacet
  facet normal 1 0 0
    outer loop
      vertex 16.6 -0.5 18
      vertex 16.6 0 23.5
      vertex 16.6 -0.5 23.5
    endloop
  endfacet
  facet normal 1 0 0
    outer loop
      vertex 16.6 0 23.5
      vertex 16.6 -0.5 18
      vertex 16.6 0 0
    endloop
  endfacet
  facet normal 1 -0 0
    outer loop
      vertex 16.6 -6 12.5
      vertex 16.6 0 0
      vertex 16.6 -0.5 18
    endloop
  endfacet
  facet normal 1 0 0
    outer loop
      vertex 16.6 0 0
      vertex 16.6 -6 12.5
      vertex 16.6 -6 0
    endloop
  endfacet
  facet normal 1 0 0
    outer loop
      vertex 16.6 0 50
      vertex 16.6 -0.5 32
      vertex 16.6 0 26.5
    endloop
  endfacet
  facet normal 1 0 0
    outer loop
      vertex 16.6 -6 37.5
      vertex 16.6 0 50
      vertex 16.6 -6 50
    endloop
  endfacet
  facet normal 1 0 0
    outer loop
      vertex 16.6 0 50
      vertex 16.6 -6 37.5
      vertex 16.6 -0.5 32
    endloop
  endfacet
  facet normal 1 0 0
    outer loop
      vertex 16.6 0 26.5
      vertex 16.6 -0.5 32
      vertex 16.6 -0.5 26.5
    endloop
  endfacet
  facet normal -0.866023 -0.500004 -0
    outer loop
      vertex 1.58516 -10.8786 7.62138
      vertex 0.717573 -9.37591 0
      vertex 1.58516 -10.8786 0
    endloop
  endfacet
  facet normal -0.866023 -0.500004 0
    outer loop
      vertex 0.717573 -9.37591 0
      vertex 1.58516 -10.8786 7.62138
      vertex 0.717573 -9.37591 9.12409
    endloop
  endfacet
  facet normal -0.866023 -0.500004 0
    outer loop
      vertex 1.58516 -10.8786 42.3786
      vertex 0.717573 -9.37591 50
      vertex 0.717573 -9.37591 40.8759
    endloop
  endfacet
  facet normal -0.866023 -0.500004 0
    outer loop
      vertex 0.717573 -9.37591 50
      vertex 1.58516 -10.8786 42.3786
      vertex 1.58516 -10.8786 50
    endloop
  endfacet
  facet normal -0.743148 -0.669127 -0
    outer loop
      vertex 2.74622 -12.1681 6.3319
      vertex 1.58516 -10.8786 0
      vertex 2.74622 -12.1681 0
    endloop
  endfacet
  facet normal -0.743148 -0.669127 0
    outer loop
      vertex 1.58516 -10.8786 0
      vertex 2.74622 -12.1681 6.3319
      vertex 1.58516 -10.8786 7.62138
    endloop
  endfacet
  facet normal -0.743148 -0.669127 0
    outer loop
      vertex 2.74622 -12.1681 43.6681
      vertex 1.58516 -10.8786 50
      vertex 1.58516 -10.8786 42.3786
    endloop
  endfacet
  facet normal -0.743148 -0.669127 0
    outer loop
      vertex 1.58516 -10.8786 50
      vertex 2.74622 -12.1681 43.6681
      vertex 2.74622 -12.1681 50
    endloop
  endfacet
  facet normal 0.406816 -0.91351 0
    outer loop
      vertex 12.45 -13.188 0
      vertex 12.3 -13.2548 5.24521
      vertex 12.3 -13.2548 0
    endloop
  endfacet
  facet normal 0.406816 -0.91351 0
    outer loop
      vertex 12.3 -13.2548 5.24521
      vertex 12.45 -13.188 0
      vertex 12.45 -13.188 5.31199
    endloop
  endfacet
  facet normal 0.406816 -0.91351 0
    outer loop
      vertex 12.3 -13.2548 44.7548
      vertex 12.45 -13.188 50
      vertex 12.3 -13.2548 50
    endloop
  endfacet
  facet normal 0.406816 -0.91351 0
    outer loop
      vertex 12.45 -13.188 50
      vertex 12.3 -13.2548 44.7548
      vertex 12.45 -13.188 44.688
    endloop
  endfacet
  facet normal 0.951056 -0.309019 0
    outer loop
      vertex 15.8824 -9.37591 9.12409
      vertex 16.4186 -7.72567 0
      vertex 16.4186 -7.72567 10.7743
    endloop
  endfacet
  facet normal 0.951056 -0.309019 0
    outer loop
      vertex 16.4186 -7.72567 0
      vertex 15.8824 -9.37591 9.12409
      vertex 15.8824 -9.37591 0
    endloop
  endfacet
  facet normal 0.951056 -0.309019 0
    outer loop
      vertex 15.8824 -9.37591 40.8759
      vertex 16.4186 -7.72567 50
      vertex 15.8824 -9.37591 50
    endloop
  endfacet
  facet normal 0.951056 -0.309019 0
    outer loop
      vertex 16.4186 -7.72567 50
      vertex 15.8824 -9.37591 40.8759
      vertex 16.4186 -7.72567 39.2257
    endloop
  endfacet
  facet normal 0.743165 -0.669108 0
    outer loop
      vertex 13.8538 -12.1681 6.3319
      vertex 15.0148 -10.8786 0
      vertex 15.0148 -10.8786 7.62138
    endloop
  endfacet
  facet normal 0.743165 -0.669108 0
    outer loop
      vertex 15.0148 -10.8786 0
      vertex 13.8538 -12.1681 6.3319
      vertex 13.8538 -12.1681 0
    endloop
  endfacet
  facet normal 0.743165 -0.669108 0
    outer loop
      vertex 13.8538 -12.1681 43.6681
      vertex 15.0148 -10.8786 50
      vertex 13.8538 -12.1681 50
    endloop
  endfacet
  facet normal 0.743165 -0.669108 0
    outer loop
      vertex 15.0148 -10.8786 50
      vertex 13.8538 -12.1681 43.6681
      vertex 15.0148 -10.8786 42.3786
    endloop
  endfacet
  facet normal 0.587778 -0.809023 0
    outer loop
      vertex 13.8538 -12.1681 0
      vertex 12.45 -13.188 5.31199
      vertex 12.45 -13.188 0
    endloop
  endfacet
  facet normal 0.587778 -0.809023 0
    outer loop
      vertex 12.45 -13.188 5.31199
      vertex 13.8538 -12.1681 0
      vertex 13.8538 -12.1681 6.3319
    endloop
  endfacet
  facet normal 0.587778 -0.809023 0
    outer loop
      vertex 12.45 -13.188 44.688
      vertex 13.8538 -12.1681 50
      vertex 12.45 -13.188 50
    endloop
  endfacet
  facet normal 0.587778 -0.809023 0
    outer loop
      vertex 13.8538 -12.1681 50
      vertex 12.45 -13.188 44.688
      vertex 13.8538 -12.1681 43.6681
    endloop
  endfacet
  facet normal 0.86602 -0.500009 0
    outer loop
      vertex 15.0148 -10.8786 7.62138
      vertex 15.8824 -9.37591 0
      vertex 15.8824 -9.37591 9.12409
    endloop
  endfacet
  facet normal 0.86602 -0.500009 0
    outer loop
      vertex 15.8824 -9.37591 0
      vertex 15.0148 -10.8786 7.62138
      vertex 15.0148 -10.8786 0
    endloop
  endfacet
  facet normal 0.86602 -0.500009 0
    outer loop
      vertex 15.0148 -10.8786 42.3786
      vertex 15.8824 -9.37591 50
      vertex 15.0148 -10.8786 50
    endloop
  endfacet
  facet normal 0.86602 -0.500009 0
    outer loop
      vertex 15.8824 -9.37591 50
      vertex 15.0148 -10.8786 42.3786
      vertex 15.8824 -9.37591 40.8759
    endloop
  endfacet
  facet normal -0.406816 -0.91351 0
    outer loop
      vertex 4.15 -13.188 0
      vertex 4.3 -13.2548 5.24521
      vertex 4.15 -13.188 5.31199
    endloop
  endfacet
  facet normal -0.406816 -0.91351 -0
    outer loop
      vertex 4.3 -13.2548 5.24521
      vertex 4.15 -13.188 0
      vertex 4.3 -13.2548 0
    endloop
  endfacet
  facet normal -0.406816 -0.91351 0
    outer loop
      vertex 4.15 -13.188 50
      vertex 4.3 -13.2548 44.7548
      vertex 4.3 -13.2548 50
    endloop
  endfacet
  facet normal -0.406816 -0.91351 0
    outer loop
      vertex 4.3 -13.2548 44.7548
      vertex 4.15 -13.188 50
      vertex 4.15 -13.188 44.688
    endloop
  endfacet
  facet normal 0.994522 0.104525 0
    outer loop
      vertex 2.62674 -7.20589 11.2941
      vertex 2.5 -6 0
      vertex 2.5 -6 12.5
    endloop
  endfacet
  facet normal 0.994522 0.104525 0
    outer loop
      vertex 2.5 -6 0
      vertex 2.62674 -7.20589 11.2941
      vertex 2.62674 -7.20589 0
    endloop
  endfacet
  facet normal 0.994522 0.104525 -0
    outer loop
      vertex 2.62674 -7.20589 38.7059
      vertex 2.5 -6 50
      vertex 2.62674 -7.20589 50
    endloop
  endfacet
  facet normal 0.994522 0.104525 0
    outer loop
      vertex 2.5 -6 50
      vertex 2.62674 -7.20589 38.7059
      vertex 2.5 -6 37.5
    endloop
  endfacet
  facet normal -0.994526 0.104492 0
    outer loop
      vertex 13.9733 -7.20589 11.2941
      vertex 14.1 -6 0
      vertex 13.9733 -7.20589 0
    endloop
  endfacet
  facet normal -0.994526 0.104492 0
    outer loop
      vertex 14.1 -6 0
      vertex 13.9733 -7.20589 11.2941
      vertex 14.1 -6 12.5
    endloop
  endfacet
  facet normal -0.994526 0.104492 0
    outer loop
      vertex 13.9733 -7.20589 38.7059
      vertex 14.1 -6 50
      vertex 14.1 -6 37.5
    endloop
  endfacet
  facet normal -0.994526 0.104492 0
    outer loop
      vertex 14.1 -6 50
      vertex 13.9733 -7.20589 38.7059
      vertex 13.9733 -7.20589 50
    endloop
  endfacet
  facet normal 0 -1 0
    outer loop
      vertex 7.69374 -0.231773 0
      vertex 8.90627 -0.231773 50
      vertex 7.69374 -0.231773 50
    endloop
  endfacet
  facet normal 0 -1 -0
    outer loop
      vertex 8.90627 -0.231773 50
      vertex 7.69374 -0.231773 0
      vertex 8.90627 -0.231773 0
    endloop
  endfacet
  facet normal -0.743133 0.669144 0
    outer loop
      vertex 12.3 -10.178 8.32197
      vertex 12.9923 -9.40915 0
      vertex 12.3 -10.178 0
    endloop
  endfacet
  facet normal -0.743133 0.669144 0
    outer loop
      vertex 12.9923 -9.40915 0
      vertex 12.3 -10.178 8.32197
      vertex 12.9923 -9.40915 9.09085
    endloop
  endfacet
  facet normal -0.743133 0.669144 0
    outer loop
      vertex 12.3 -10.178 41.678
      vertex 12.9923 -9.40915 50
      vertex 12.9923 -9.40915 40.9092
    endloop
  endfacet
  facet normal -0.743133 0.669144 0
    outer loop
      vertex 12.9923 -9.40915 50
      vertex 12.3 -10.178 41.678
      vertex 12.3 -10.178 50
    endloop
  endfacet
  facet normal 0.866027 -0.499998 0
    outer loop
      vertex 3.00144 -3.64093 14.8591
      vertex 3.6077 -2.59085 0
      vertex 3.6077 -2.59085 15.9092
    endloop
  endfacet
  facet normal 0.866027 -0.499998 0
    outer loop
      vertex 3.6077 -2.59085 0
      vertex 3.00144 -3.64093 14.8591
      vertex 3.00144 -3.64093 0
    endloop
  endfacet
  facet normal 0.866027 -0.499998 0
    outer loop
      vertex 3.00144 -3.64093 35.1409
      vertex 3.6077 -2.59085 50
      vertex 3.00144 -3.64093 50
    endloop
  endfacet
  facet normal 0.866027 -0.499998 0
    outer loop
      vertex 3.6077 -2.59085 50
      vertex 3.00144 -3.64093 35.1409
      vertex 3.6077 -2.59085 34.0908
    endloop
  endfacet
  facet normal 0.866027 0.499998 0
    outer loop
      vertex 3.6077 -9.40915 9.09085
      vertex 3.00144 -8.35907 0
      vertex 3.00144 -8.35907 10.1409
    endloop
  endfacet
  facet normal 0.866027 0.499998 0
    outer loop
      vertex 3.00144 -8.35907 0
      vertex 3.6077 -9.40915 9.09085
      vertex 3.6077 -9.40915 0
    endloop
  endfacet
  facet normal 0.866027 0.499998 -0
    outer loop
      vertex 3.6077 -9.40915 40.9092
      vertex 3.00144 -8.35907 50
      vertex 3.6077 -9.40915 50
    endloop
  endfacet
  facet normal 0.866027 0.499998 0
    outer loop
      vertex 3.00144 -8.35907 50
      vertex 3.6077 -9.40915 40.9092
      vertex 3.00144 -8.35907 39.8591
    endloop
  endfacet
  facet normal 0.951054 0.309024 0
    outer loop
      vertex 3.00144 -8.35907 10.1409
      vertex 2.62674 -7.20589 0
      vertex 2.62674 -7.20589 11.2941
    endloop
  endfacet
  facet normal 0.951054 0.309024 0
    outer loop
      vertex 2.62674 -7.20589 0
      vertex 3.00144 -8.35907 10.1409
      vertex 3.00144 -8.35907 0
    endloop
  endfacet
  facet normal 0.951054 0.309024 -0
    outer loop
      vertex 3.00144 -8.35907 39.8591
      vertex 2.62674 -7.20589 50
      vertex 3.00144 -8.35907 50
    endloop
  endfacet
  facet normal 0.951054 0.309024 0
    outer loop
      vertex 2.62674 -7.20589 50
      vertex 3.00144 -8.35907 39.8591
      vertex 2.62674 -7.20589 38.7059
    endloop
  endfacet
  facet normal 0.743133 0.669144 0
    outer loop
      vertex 4.3 -10.178 8.32197
      vertex 3.6077 -9.40915 0
      vertex 3.6077 -9.40915 9.09085
    endloop
  endfacet
  facet normal 0.743133 0.669144 0
    outer loop
      vertex 3.6077 -9.40915 0
      vertex 4.3 -10.178 8.32197
      vertex 4.3 -10.178 0
    endloop
  endfacet
  facet normal 0.743133 0.669144 -0
    outer loop
      vertex 4.3 -10.178 41.678
      vertex 3.6077 -9.40915 50
      vertex 4.3 -10.178 50
    endloop
  endfacet
  facet normal 0.743133 0.669144 0
    outer loop
      vertex 3.6077 -9.40915 50
      vertex 4.3 -10.178 41.678
      vertex 3.6077 -9.40915 40.9092
    endloop
  endfacet
  facet normal -0.866013 0.500022 0
    outer loop
      vertex 12.9923 -9.40915 9.09085
      vertex 13.5986 -8.35907 0
      vertex 12.9923 -9.40915 0
    endloop
  endfacet
  facet normal -0.866013 0.500022 0
    outer loop
      vertex 13.5986 -8.35907 0
      vertex 12.9923 -9.40915 9.09085
      vertex 13.5986 -8.35907 10.1409
    endloop
  endfacet
  facet normal -0.866013 0.500022 0
    outer loop
      vertex 12.9923 -9.40915 40.9092
      vertex 13.5986 -8.35907 50
      vertex 13.5986 -8.35907 39.8591
    endloop
  endfacet
  facet normal -0.866013 0.500022 0
    outer loop
      vertex 13.5986 -8.35907 50
      vertex 12.9923 -9.40915 40.9092
      vertex 12.9923 -9.40915 50
    endloop
  endfacet
  facet normal -0.951054 0.309024 0
    outer loop
      vertex 13.5986 -8.35907 10.1409
      vertex 13.9733 -7.20589 0
      vertex 13.5986 -8.35907 0
    endloop
  endfacet
  facet normal -0.951054 0.309024 0
    outer loop
      vertex 13.9733 -7.20589 0
      vertex 13.5986 -8.35907 10.1409
      vertex 13.9733 -7.20589 11.2941
    endloop
  endfacet
  facet normal -0.951054 0.309024 0
    outer loop
      vertex 13.5986 -8.35907 39.8591
      vertex 13.9733 -7.20589 50
      vertex 13.9733 -7.20589 38.7059
    endloop
  endfacet
  facet normal -0.951054 0.309024 0
    outer loop
      vertex 13.9733 -7.20589 50
      vertex 13.5986 -8.35907 39.8591
      vertex 13.5986 -8.35907 50
    endloop
  endfacet
  facet normal 0.994522 -0.104525 0
    outer loop
      vertex 2.5 -6 12.5
      vertex 2.62674 -4.79411 0
      vertex 2.62674 -4.79411 13.7059
    endloop
  endfacet
  facet normal 0.994522 -0.104525 0
    outer loop
      vertex 2.62674 -4.79411 0
      vertex 2.5 -6 12.5
      vertex 2.5 -6 0
    endloop
  endfacet
  facet normal 0.994522 -0.104525 0
    outer loop
      vertex 2.5 -6 37.5
      vertex 2.62674 -4.79411 50
      vertex 2.5 -6 50
    endloop
  endfacet
  facet normal 0.994522 -0.104525 0
    outer loop
      vertex 2.62674 -4.79411 50
      vertex 2.5 -6 37.5
      vertex 2.62674 -4.79411 36.2941
    endloop
  endfacet
  facet normal 0.20791 -0.978148 0
    outer loop
      vertex 6.5077 -0.483872 0
      vertex 7.69374 -0.231773 50
      vertex 6.5077 -0.483872 50
    endloop
  endfacet
  facet normal 0.20791 -0.978148 0
    outer loop
      vertex 7.69374 -0.231773 50
      vertex 6.5077 -0.483872 0
      vertex 7.69374 -0.231773 0
    endloop
  endfacet
  facet normal 0.951054 -0.309024 0
    outer loop
      vertex 2.62674 -4.79411 13.7059
      vertex 3.00144 -3.64093 0
      vertex 3.00144 -3.64093 14.8591
    endloop
  endfacet
  facet normal 0.951054 -0.309024 0
    outer loop
      vertex 3.00144 -3.64093 0
      vertex 2.62674 -4.79411 13.7059
      vertex 2.62674 -4.79411 0
    endloop
  endfacet
  facet normal 0.951054 -0.309024 0
    outer loop
      vertex 2.62674 -4.79411 36.2941
      vertex 3.00144 -3.64093 50
      vertex 2.62674 -4.79411 50
    endloop
  endfacet
  facet normal 0.951054 -0.309024 0
    outer loop
      vertex 3.00144 -3.64093 50
      vertex 2.62674 -4.79411 36.2941
      vertex 3.00144 -3.64093 35.1409
    endloop
  endfacet
  facet normal 0.587784 -0.809018 0
    outer loop
      vertex 5.4 -0.977053 0
      vertex 4.41904 -1.68976 16.8102
      vertex 4.41904 -1.68976 0
    endloop
  endfacet
  facet normal 0.587784 -0.809018 0
    outer loop
      vertex 4.41904 -1.68976 16.8102
      vertex 5.4 -0.977053 0
      vertex 5.4 -0.977053 17.5229
    endloop
  endfacet
  facet normal 0.587784 -0.809018 0
    outer loop
      vertex 4.41904 -1.68976 33.1898
      vertex 5.4 -0.977053 50
      vertex 4.41904 -1.68976 50
    endloop
  endfacet
  facet normal 0.587784 -0.809018 0
    outer loop
      vertex 5.4 -0.977053 50
      vertex 4.41904 -1.68976 33.1898
      vertex 5.4 -0.977053 32.4771
    endloop
  endfacet
  facet normal 0.406737 -0.913545 0
    outer loop
      vertex 5.4 -0.977053 32.4771
      vertex 6.5077 -0.483872 50
      vertex 5.4 -0.977053 50
    endloop
  endfacet
  facet normal 0.406736 -0.913546 9.32186e-08
    outer loop
      vertex 6.47148 -0.5 32
      vertex 6.5077 -0.483872 50
      vertex 5.4 -0.977053 32.4771
    endloop
  endfacet
  facet normal 0.406775 -0.913528 0
    outer loop
      vertex 6.47148 -0.5 18
      vertex 6.5077 -0.483872 50
      vertex 6.47148 -0.5 32
    endloop
  endfacet
  facet normal 0.406737 -0.913545 0
    outer loop
      vertex 6.5077 -0.483872 0
      vertex 5.4 -0.977053 17.5229
      vertex 5.4 -0.977053 0
    endloop
  endfacet
  facet normal 0.406775 -0.913528 0
    outer loop
      vertex 6.47148 -0.5 18
      vertex 6.5077 -0.483872 0
      vertex 6.5077 -0.483872 50
    endloop
  endfacet
  facet normal 0.406736 -0.913546 -9.32186e-08
    outer loop
      vertex 5.4 -0.977053 17.5229
      vertex 6.5077 -0.483872 0
      vertex 6.47148 -0.5 18
    endloop
  endfacet
  facet normal -0.743163 -0.66911 -0
    outer loop
      vertex 12.9923 -2.59085 15.9092
      vertex 12.181 -1.68976 0
      vertex 12.9923 -2.59085 0
    endloop
  endfacet
  facet normal -0.743163 -0.66911 0
    outer loop
      vertex 12.181 -1.68976 0
      vertex 12.9923 -2.59085 15.9092
      vertex 12.181 -1.68976 16.8102
    endloop
  endfacet
  facet normal -0.743163 -0.66911 0
    outer loop
      vertex 12.9923 -2.59085 34.0908
      vertex 12.181 -1.68976 50
      vertex 12.181 -1.68976 33.1898
    endloop
  endfacet
  facet normal -0.743163 -0.66911 0
    outer loop
      vertex 12.181 -1.68976 50
      vertex 12.9923 -2.59085 34.0908
      vertex 12.9923 -2.59085 50
    endloop
  endfacet
  facet normal -0.866013 -0.500022 -0
    outer loop
      vertex 13.5986 -3.64093 14.8591
      vertex 12.9923 -2.59085 0
      vertex 13.5986 -3.64093 0
    endloop
  endfacet
  facet normal -0.866013 -0.500022 0
    outer loop
      vertex 12.9923 -2.59085 0
      vertex 13.5986 -3.64093 14.8591
      vertex 12.9923 -2.59085 15.9092
    endloop
  endfacet
  facet normal -0.866013 -0.500022 0
    outer loop
      vertex 13.5986 -3.64093 35.1409
      vertex 12.9923 -2.59085 50
      vertex 12.9923 -2.59085 34.0908
    endloop
  endfacet
  facet normal -0.866013 -0.500022 0
    outer loop
      vertex 12.9923 -2.59085 50
      vertex 13.5986 -3.64093 35.1409
      vertex 13.5986 -3.64093 50
    endloop
  endfacet
  facet normal -0.951054 -0.309024 -0
    outer loop
      vertex 13.9733 -4.79411 13.7059
      vertex 13.5986 -3.64093 0
      vertex 13.9733 -4.79411 0
    endloop
  endfacet
  facet normal -0.951054 -0.309024 0
    outer loop
      vertex 13.5986 -3.64093 0
      vertex 13.9733 -4.79411 13.7059
      vertex 13.5986 -3.64093 14.8591
    endloop
  endfacet
  facet normal -0.951054 -0.309024 0
    outer loop
      vertex 13.9733 -4.79411 36.2941
      vertex 13.5986 -3.64093 50
      vertex 13.5986 -3.64093 35.1409
    endloop
  endfacet
  facet normal -0.951054 -0.309024 0
    outer loop
      vertex 13.5986 -3.64093 50
      vertex 13.9733 -4.79411 36.2941
      vertex 13.9733 -4.79411 50
    endloop
  endfacet
  facet normal -0.994526 -0.104492 -0
    outer loop
      vertex 14.1 -6 12.5
      vertex 13.9733 -4.79411 0
      vertex 14.1 -6 0
    endloop
  endfacet
  facet normal -0.994526 -0.104492 0
    outer loop
      vertex 13.9733 -4.79411 0
      vertex 14.1 -6 12.5
      vertex 13.9733 -4.79411 13.7059
    endloop
  endfacet
  facet normal -0.994526 -0.104492 0
    outer loop
      vertex 14.1 -6 37.5
      vertex 13.9733 -4.79411 50
      vertex 13.9733 -4.79411 36.2941
    endloop
  endfacet
  facet normal -0.994526 -0.104492 0
    outer loop
      vertex 13.9733 -4.79411 50
      vertex 14.1 -6 37.5
      vertex 14.1 -6 50
    endloop
  endfacet
  facet normal 0.743147 -0.669128 0
    outer loop
      vertex 3.6077 -2.59085 15.9092
      vertex 4.41904 -1.68976 0
      vertex 4.41904 -1.68976 16.8102
    endloop
  endfacet
  facet normal 0.743147 -0.669128 0
    outer loop
      vertex 4.41904 -1.68976 0
      vertex 3.6077 -2.59085 15.9092
      vertex 3.6077 -2.59085 0
    endloop
  endfacet
  facet normal 0.743147 -0.669128 0
    outer loop
      vertex 3.6077 -2.59085 34.0908
      vertex 4.41904 -1.68976 50
      vertex 3.6077 -2.59085 50
    endloop
  endfacet
  facet normal 0.743147 -0.669128 0
    outer loop
      vertex 4.41904 -1.68976 50
      vertex 3.6077 -2.59085 34.0908
      vertex 4.41904 -1.68976 33.1898
    endloop
  endfacet
  facet normal -0.406737 -0.913545 0
    outer loop
      vertex 10.0923 -0.483872 50
      vertex 11.2 -0.977053 32.4771
      vertex 11.2 -0.977053 50
    endloop
  endfacet
  facet normal -0.40673 -0.913548 5.6e-07
    outer loop
      vertex 10.0923 -0.483872 50
      vertex 10.1285 -0.5 32
      vertex 11.2 -0.977053 32.4771
    endloop
  endfacet
  facet normal -0.406962 -0.913445 0
    outer loop
      vertex 10.0923 -0.483872 50
      vertex 10.1285 -0.5 18
      vertex 10.1285 -0.5 32
    endloop
  endfacet
  facet normal -0.406962 -0.913445 0
    outer loop
      vertex 10.0923 -0.483872 0
      vertex 10.1285 -0.5 18
      vertex 10.0923 -0.483872 50
    endloop
  endfacet
  facet normal -0.40673 -0.913548 -5.6e-07
    outer loop
      vertex 10.0923 -0.483872 0
      vertex 11.2 -0.977053 17.5229
      vertex 10.1285 -0.5 18
    endloop
  endfacet
  facet normal -0.406737 -0.913545 -0
    outer loop
      vertex 11.2 -0.977053 17.5229
      vertex 10.0923 -0.483872 0
      vertex 11.2 -0.977053 0
    endloop
  endfacet
  facet normal -0.587768 -0.809029 0
    outer loop
      vertex 11.2 -0.977053 0
      vertex 12.181 -1.68976 16.8102
      vertex 11.2 -0.977053 17.5229
    endloop
  endfacet
  facet normal -0.587768 -0.809029 -0
    outer loop
      vertex 12.181 -1.68976 16.8102
      vertex 11.2 -0.977053 0
      vertex 12.181 -1.68976 0
    endloop
  endfacet
  facet normal -0.587768 -0.809029 0
    outer loop
      vertex 11.2 -0.977053 50
      vertex 12.181 -1.68976 33.1898
      vertex 12.181 -1.68976 50
    endloop
  endfacet
  facet normal -0.587768 -0.809029 0
    outer loop
      vertex 12.181 -1.68976 33.1898
      vertex 11.2 -0.977053 50
      vertex 11.2 -0.977053 32.4771
    endloop
  endfacet
  facet normal -0.207912 -0.978148 0
    outer loop
      vertex 8.90627 -0.231773 0
      vertex 10.0923 -0.483872 50
      vertex 8.90627 -0.231773 50
    endloop
  endfacet
  facet normal -0.207912 -0.978148 -0
    outer loop
      vertex 10.0923 -0.483872 50
      vertex 8.90627 -0.231773 0
      vertex 10.0923 -0.483872 0
    endloop
  endfacet
  facet normal -1 0 0
    outer loop
      vertex 12.3 -13.2548 5.24521
      vertex 12.3 -10.178 0
      vertex 12.3 -13.2548 0
    endloop
  endfacet
  facet normal -1 0 0
    outer loop
      vertex 12.3 -10.178 0
      vertex 12.3 -13.2548 5.24521
      vertex 12.3 -10.178 8.32197
    endloop
  endfacet
  facet normal -1 0 0
    outer loop
      vertex 12.3 -13.2548 44.7548
      vertex 12.3 -10.178 50
      vertex 12.3 -10.178 41.678
    endloop
  endfacet
  facet normal -1 -0 0
    outer loop
      vertex 12.3 -10.178 50
      vertex 12.3 -13.2548 44.7548
      vertex 12.3 -13.2548 50
    endloop
  endfacet
  facet normal 1 -0 0
    outer loop
      vertex 4.3 -13.2548 5.24521
      vertex 4.3 -10.178 0
      vertex 4.3 -10.178 8.32197
    endloop
  endfacet
  facet normal 1 0 0
    outer loop
      vertex 4.3 -10.178 0
      vertex 4.3 -13.2548 5.24521
      vertex 4.3 -13.2548 0
    endloop
  endfacet
  facet normal 1 0 0
    outer loop
      vertex 4.3 -13.2548 44.7548
      vertex 4.3 -10.178 50
      vertex 4.3 -13.2548 50
    endloop
  endfacet
  facet normal 1 0 0
    outer loop
      vertex 4.3 -10.178 50
      vertex 4.3 -13.2548 44.7548
      vertex 4.3 -10.178 41.678
    endloop
  endfacet
  facet normal -1 0 0
    outer loop
      vertex 0 8 0
      vertex 0 0.274129 23.5
      vertex 0 8 50
    endloop
  endfacet
  facet normal -1 0 0
    outer loop
      vertex 0 0 0
      vertex 0 0.274129 23.5
      vertex 0 8 0
    endloop
  endfacet
  facet normal -1 -0 0
    outer loop
      vertex 0 0.274129 23.5
      vertex 0 0 0
      vertex 0 0 23.5
    endloop
  endfacet
  facet normal -1 0 0
    outer loop
      vertex 0 0.274129 26.5
      vertex 0 8 50
      vertex 0 0.274129 23.5
    endloop
  endfacet
  facet normal -1 0 0
    outer loop
      vertex 0 0 50
      vertex 0 0.274129 26.5
      vertex 0 0 26.5
    endloop
  endfacet
  facet normal -1 0 0
    outer loop
      vertex 0 0.274129 26.5
      vertex 0 0 50
      vertex 0 8 50
    endloop
  endfacet
  facet normal -0 0 1
    outer loop
      vertex 12.3 3.01 50
      vertex 16.6 0 50
      vertex 16.6 8 50
    endloop
  endfacet
  facet normal 0 -0 1
    outer loop
      vertex 13.5986 -3.64093 50
      vertex 16.6 0 50
      vertex 12.9923 -2.59085 50
    endloop
  endfacet
  facet normal -0 -0 1
    outer loop
      vertex 13.9733 -4.79411 50
      vertex 16.6 -6 50
      vertex 13.5986 -3.64093 50
    endloop
  endfacet
  facet normal 0 0 1
    outer loop
      vertex 16.6 -6 50
      vertex 14.1 -6 50
      vertex 16.4186 -7.72567 50
    endloop
  endfacet
  facet normal 0 0 1
    outer loop
      vertex 16.4186 -7.72567 50
      vertex 13.9733 -7.20589 50
      vertex 15.8824 -9.37591 50
    endloop
  endfacet
  facet normal -0 0 1
    outer loop
      vertex 13.9733 -7.20589 50
      vertex 16.4186 -7.72567 50
      vertex 14.1 -6 50
    endloop
  endfacet
  facet normal 0 -0 1
    outer loop
      vertex 14.1 -6 50
      vertex 16.6 -6 50
      vertex 13.9733 -4.79411 50
    endloop
  endfacet
  facet normal 0 0 1
    outer loop
      vertex 16.6 0 50
      vertex 13.5986 -3.64093 50
      vertex 16.6 -6 50
    endloop
  endfacet
  facet normal 0 0 1
    outer loop
      vertex 12.181 -1.68976 50
      vertex 16.6 0 50
      vertex 12.3 3.01 50
    endloop
  endfacet
  facet normal 0 -0 1
    outer loop
      vertex 12.3 3.01 50
      vertex 16.6 8 50
      vertex 10.803 8 50
    endloop
  endfacet
  facet normal -0 0 1
    outer loop
      vertex 13.5986 -8.35907 50
      vertex 15.8824 -9.37591 50
      vertex 13.9733 -7.20589 50
    endloop
  endfacet
  facet normal 0 0 1
    outer loop
      vertex 15.8824 -9.37591 50
      vertex 13.5986 -8.35907 50
      vertex 15.0148 -10.8786 50
    endloop
  endfacet
  facet normal -0 0 1
    outer loop
      vertex 12.9923 -9.40915 50
      vertex 15.0148 -10.8786 50
      vertex 13.5986 -8.35907 50
    endloop
  endfacet
  facet normal -0 0 1
    outer loop
      vertex 12.3 -10.178 50
      vertex 15.0148 -10.8786 50
      vertex 12.9923 -9.40915 50
    endloop
  endfacet
  facet normal 0 0 1
    outer loop
      vertex 15.0148 -10.8786 50
      vertex 12.3 -10.178 50
      vertex 13.8538 -12.1681 50
    endloop
  endfacet
  facet normal 0 0 1
    outer loop
      vertex 13.8538 -12.1681 50
      vertex 12.3 -10.178 50
      vertex 12.45 -13.188 50
    endloop
  endfacet
  facet normal 0 0 1
    outer loop
      vertex 12.45 -13.188 50
      vertex 12.3 -10.178 50
      vertex 12.3 -13.2548 50
    endloop
  endfacet
  facet normal 0 0 1
    outer loop
      vertex 16.6 0 50
      vertex 12.181 -1.68976 50
      vertex 12.9923 -2.59085 50
    endloop
  endfacet
  facet normal 0 0 1
    outer loop
      vertex 12.3 3.01 50
      vertex 11.2 -0.977053 50
      vertex 12.181 -1.68976 50
    endloop
  endfacet
  facet normal 0 0 1
    outer loop
      vertex 12.3 3.01 50
      vertex 10.0923 -0.483872 50
      vertex 11.2 -0.977053 50
    endloop
  endfacet
  facet normal 0 0 1
    outer loop
      vertex 12.3 3.01 50
      vertex 8.90627 -0.231773 50
      vertex 10.0923 -0.483872 50
    endloop
  endfacet
  facet normal 0 0 1
    outer loop
      vertex 12.3 3.01 50
      vertex 7.69374 -0.231773 50
      vertex 8.90627 -0.231773 50
    endloop
  endfacet
  facet normal -0 0 1
    outer loop
      vertex 4.3 3.01 50
      vertex 7.69374 -0.231773 50
      vertex 12.3 3.01 50
    endloop
  endfacet
  facet normal 0 0 1
    outer loop
      vertex 7.69374 -0.231773 50
      vertex 4.3 3.01 50
      vertex 6.5077 -0.483872 50
    endloop
  endfacet
  facet normal 0 0 1
    outer loop
      vertex 6.5077 -0.483872 50
      vertex 4.3 3.01 50
      vertex 5.4 -0.977053 50
    endloop
  endfacet
  facet normal 0 0 1
    outer loop
      vertex 4.3 3.01 50
      vertex 4.41904 -1.68976 50
      vertex 5.4 -0.977053 50
    endloop
  endfacet
  facet normal -0 0 1
    outer loop
      vertex 7.62939e-07 0 50
      vertex 4.41904 -1.68976 50
      vertex 4.3 3.01 50
    endloop
  endfacet
  facet normal 0 0 1
    outer loop
      vertex 4.41904 -1.68976 50
      vertex 7.62939e-07 0 50
      vertex 3.6077 -2.59085 50
    endloop
  endfacet
  facet normal 0 0 1
    outer loop
      vertex 3.6077 -2.59085 50
      vertex 7.62939e-07 0 50
      vertex 3.00144 -3.64093 50
    endloop
  endfacet
  facet normal 0 0 1
    outer loop
      vertex 7.62939e-07 -6 50
      vertex 2.5 -6 50
      vertex 2.62674 -4.79411 50
    endloop
  endfacet
  facet normal 0 0 1
    outer loop
      vertex 2.5 -6 50
      vertex 0.717573 -9.37591 50
      vertex 1.58516 -10.8786 50
    endloop
  endfacet
  facet normal 0 0 1
    outer loop
      vertex 7.62939e-07 -6 50
      vertex 3.00144 -3.64093 50
      vertex 7.62939e-07 0 50
    endloop
  endfacet
  facet normal 0 0 1
    outer loop
      vertex 2.5 -6 50
      vertex 7.62939e-07 -6 50
      vertex 0.181375 -7.72567 50
    endloop
  endfacet
  facet normal -0 0 1
    outer loop
      vertex 0 8 50
      vertex 4.3 3.01 50
      vertex 5.797 8 50
    endloop
  endfacet
  facet normal 0 0 1
    outer loop
      vertex 3.00144 -3.64093 50
      vertex 7.62939e-07 -6 50
      vertex 2.62674 -4.79411 50
    endloop
  endfacet
  facet normal 0 0 1
    outer loop
      vertex 4.3 3.01 50
      vertex 0 8 50
      vertex 7.62939e-07 0 50
    endloop
  endfacet
  facet normal 0 0 1
    outer loop
      vertex 7.62939e-07 0 50
      vertex 0 8 50
      vertex 0 0 50
    endloop
  endfacet
  facet normal 0 0 1
    outer loop
      vertex 4.3 -10.178 50
      vertex 4.15 -13.188 50
      vertex 4.3 -13.2548 50
    endloop
  endfacet
  facet normal 0 0 1
    outer loop
      vertex 1.58516 -10.8786 50
      vertex 4.3 -10.178 50
      vertex 3.6077 -9.40915 50
    endloop
  endfacet
  facet normal 0 0 1
    outer loop
      vertex 1.58516 -10.8786 50
      vertex 3.6077 -9.40915 50
      vertex 3.00144 -8.35907 50
    endloop
  endfacet
  facet normal 0 0 1
    outer loop
      vertex 4.3 -10.178 50
      vertex 2.74622 -12.1681 50
      vertex 4.15 -13.188 50
    endloop
  endfacet
  facet normal 0 0 1
    outer loop
      vertex 1.58516 -10.8786 50
      vertex 3.00144 -8.35907 50
      vertex 2.62674 -7.20589 50
    endloop
  endfacet
  facet normal 0 0 1
    outer loop
      vertex 1.58516 -10.8786 50
      vertex 2.62674 -7.20589 50
      vertex 2.5 -6 50
    endloop
  endfacet
  facet normal 0 0 1
    outer loop
      vertex 4.3 -10.178 50
      vertex 1.58516 -10.8786 50
      vertex 2.74622 -12.1681 50
    endloop
  endfacet
  facet normal 0 0 1
    outer loop
      vertex 2.5 -6 50
      vertex 0.181375 -7.72567 50
      vertex 0.717573 -9.37591 50
    endloop
  endfacet
  facet normal 1 0 0
    outer loop
      vertex 16.6 8 50
      vertex 16.6 0.274129 26.5
      vertex 16.6 8 0
    endloop
  endfacet
  facet normal 1 -0 0
    outer loop
      vertex 16.6 0 50
      vertex 16.6 0.274129 26.5
      vertex 16.6 8 50
    endloop
  endfacet
  facet normal 1 0 0
    outer loop
      vertex 16.6 0.274129 26.5
      vertex 16.6 0 50
      vertex 16.6 0 26.5
    endloop
  endfacet
  facet normal 1 -0 0
    outer loop
      vertex 16.6 0.274129 23.5
      vertex 16.6 8 0
      vertex 16.6 0.274129 26.5
    endloop
  endfacet
  facet normal 1 0 0
    outer loop
      vertex 16.6 0 0
      vertex 16.6 0.274129 23.5
      vertex 16.6 0 23.5
    endloop
  endfacet
  facet normal 1 0 0
    outer loop
      vertex 16.6 0.274129 23.5
      vertex 16.6 0 0
      vertex 16.6 8 0
    endloop
  endfacet
  facet normal 0 0 -1
    outer loop
      vertex 4.15 -13.188 0
      vertex 4.3 -10.178 0
      vertex 4.3 -13.2548 0
    endloop
  endfacet
  facet normal 0 0 -1
    outer loop
      vertex 2.74622 -12.1681 0
      vertex 4.3 -10.178 0
      vertex 4.15 -13.188 0
    endloop
  endfacet
  facet normal 0 0 -1
    outer loop
      vertex 1.58516 -10.8786 0
      vertex 4.3 -10.178 0
      vertex 2.74622 -12.1681 0
    endloop
  endfacet
  facet normal -0 0 -1
    outer loop
      vertex 4.3 -10.178 0
      vertex 1.58516 -10.8786 0
      vertex 3.6077 -9.40915 0
    endloop
  endfacet
  facet normal -0 0 -1
    outer loop
      vertex 3.6077 -9.40915 0
      vertex 1.58516 -10.8786 0
      vertex 3.00144 -8.35907 0
    endloop
  endfacet
  facet normal 0 0 -1
    outer loop
      vertex 0.717573 -9.37591 0
      vertex 3.00144 -8.35907 0
      vertex 1.58516 -10.8786 0
    endloop
  endfacet
  facet normal -0 0 -1
    outer loop
      vertex 3.00144 -8.35907 0
      vertex 0.717573 -9.37591 0
      vertex 2.62674 -7.20589 0
    endloop
  endfacet
  facet normal -0 0 -1
    outer loop
      vertex 16.6 0 0
      vertex 12.181 -1.68976 0
      vertex 12.3 3.01 0
    endloop
  endfacet
  facet normal 0 0 -1
    outer loop
      vertex 11.2 -0.977053 0
      vertex 12.3 3.01 0
      vertex 12.181 -1.68976 0
    endloop
  endfacet
  facet normal 0 0 -1
    outer loop
      vertex 10.0923 -0.483872 0
      vertex 12.3 3.01 0
      vertex 11.2 -0.977053 0
    endloop
  endfacet
  facet normal 0 0 -1
    outer loop
      vertex 8.90627 -0.231773 0
      vertex 12.3 3.01 0
      vertex 10.0923 -0.483872 0
    endloop
  endfacet
  facet normal 0 0 -1
    outer loop
      vertex 7.69374 -0.231773 0
      vertex 12.3 3.01 0
      vertex 8.90627 -0.231773 0
    endloop
  endfacet
  facet normal 0 0 -1
    outer loop
      vertex 4.3 3.01 0
      vertex 7.69374 -0.231773 0
      vertex 6.5077 -0.483872 0
    endloop
  endfacet
  facet normal 0 0 -1
    outer loop
      vertex 4.3 3.01 0
      vertex 6.5077 -0.483872 0
      vertex 5.4 -0.977053 0
    endloop
  endfacet
  facet normal 0 0 -1
    outer loop
      vertex 7.69374 -0.231773 0
      vertex 4.3 3.01 0
      vertex 12.3 3.01 0
    endloop
  endfacet
  facet normal 0 0 -1
    outer loop
      vertex 4.41904 -1.68976 0
      vertex 4.3 3.01 0
      vertex 5.4 -0.977053 0
    endloop
  endfacet
  facet normal 0 0 -1
    outer loop
      vertex 7.62939e-07 0 0
      vertex 4.41904 -1.68976 0
      vertex 3.6077 -2.59085 0
    endloop
  endfacet
  facet normal 0 0 -1
    outer loop
      vertex 16.4186 -7.72567 0
      vertex 13.9733 -7.20589 0
      vertex 14.1 -6 0
    endloop
  endfacet
  facet normal 0 0 -1
    outer loop
      vertex 12.3 -10.178 0
      vertex 15.0148 -10.8786 0
      vertex 13.8538 -12.1681 0
    endloop
  endfacet
  facet normal 0 0 -1
    outer loop
      vertex 15.8824 -9.37591 0
      vertex 13.5986 -8.35907 0
      vertex 13.9733 -7.20589 0
    endloop
  endfacet
  facet normal 0 0 -1
    outer loop
      vertex 15.0148 -10.8786 0
      vertex 12.9923 -9.40915 0
      vertex 13.5986 -8.35907 0
    endloop
  endfacet
  facet normal 0 0 -1
    outer loop
      vertex 12.3 -10.178 0
      vertex 13.8538 -12.1681 0
      vertex 12.45 -13.188 0
    endloop
  endfacet
  facet normal 0 0 -1
    outer loop
      vertex 12.3 -10.178 0
      vertex 12.45 -13.188 0
      vertex 12.3 -13.2548 0
    endloop
  endfacet
  facet normal 0 0 -1
    outer loop
      vertex 15.0148 -10.8786 0
      vertex 12.3 -10.178 0
      vertex 12.9923 -9.40915 0
    endloop
  endfacet
  facet normal 0 0 -1
    outer loop
      vertex 13.5986 -3.64093 0
      vertex 16.6 0 0
      vertex 16.6 -6 0
    endloop
  endfacet
  facet normal 0 0 -1
    outer loop
      vertex 14.1 -6 0
      vertex 16.6 -6 0
      vertex 16.4186 -7.72567 0
    endloop
  endfacet
  facet normal 0 0 -1
    outer loop
      vertex 13.9733 -7.20589 0
      vertex 16.4186 -7.72567 0
      vertex 15.8824 -9.37591 0
    endloop
  endfacet
  facet normal 0 0 -1
    outer loop
      vertex 13.5986 -8.35907 0
      vertex 15.8824 -9.37591 0
      vertex 15.0148 -10.8786 0
    endloop
  endfacet
  facet normal 0 0 -1
    outer loop
      vertex 16.6 -6 0
      vertex 14.1 -6 0
      vertex 13.9733 -4.79411 0
    endloop
  endfacet
  facet normal 0 0 -1
    outer loop
      vertex 16.6 -6 0
      vertex 13.9733 -4.79411 0
      vertex 13.5986 -3.64093 0
    endloop
  endfacet
  facet normal 0 0 -1
    outer loop
      vertex 16.6 0 0
      vertex 13.5986 -3.64093 0
      vertex 12.9923 -2.59085 0
    endloop
  endfacet
  facet normal 0 0 -1
    outer loop
      vertex 12.181 -1.68976 0
      vertex 16.6 0 0
      vertex 12.9923 -2.59085 0
    endloop
  endfacet
  facet normal 0 0 -1
    outer loop
      vertex 16.6 0 0
      vertex 12.3 3.01 0
      vertex 16.6 8 0
    endloop
  endfacet
  facet normal -0 0 -1
    outer loop
      vertex 16.6 8 0
      vertex 12.3 3.01 0
      vertex 10.803 8 0
    endloop
  endfacet
  facet normal 0 0 -1
    outer loop
      vertex 7.62939e-07 0 0
      vertex 3.6077 -2.59085 0
      vertex 3.00144 -3.64093 0
    endloop
  endfacet
  facet normal 0 0 -1
    outer loop
      vertex 7.62939e-07 -6 0
      vertex 3.00144 -3.64093 0
      vertex 2.62674 -4.79411 0
    endloop
  endfacet
  facet normal 0 0 -1
    outer loop
      vertex 0.181375 -7.72567 0
      vertex 2.62674 -7.20589 0
      vertex 0.717573 -9.37591 0
    endloop
  endfacet
  facet normal -0 0 -1
    outer loop
      vertex 2.62674 -7.20589 0
      vertex 0.181375 -7.72567 0
      vertex 2.5 -6 0
    endloop
  endfacet
  facet normal 0 0 -1
    outer loop
      vertex 7.62939e-07 -6 0
      vertex 2.5 -6 0
      vertex 0.181375 -7.72567 0
    endloop
  endfacet
  facet normal 0 0 -1
    outer loop
      vertex 2.5 -6 0
      vertex 7.62939e-07 -6 0
      vertex 2.62674 -4.79411 0
    endloop
  endfacet
  facet normal -0 0 -1
    outer loop
      vertex 3.00144 -3.64093 0
      vertex 7.62939e-07 -6 0
      vertex 7.62939e-07 0 0
    endloop
  endfacet
  facet normal 0 0 -1
    outer loop
      vertex 4.41904 -1.68976 0
      vertex 7.62939e-07 0 0
      vertex 4.3 3.01 0
    endloop
  endfacet
  facet normal 0 0 -1
    outer loop
      vertex 0 8 0
      vertex 4.3 3.01 0
      vertex 7.62939e-07 0 0
    endloop
  endfacet
  facet normal 0 0 -1
    outer loop
      vertex 0 8 0
      vertex 7.62939e-07 0 0
      vertex 0 0 0
    endloop
  endfacet
  facet normal 0 0 -1
    outer loop
      vertex 4.3 3.01 0
      vertex 0 8 0
      vertex 5.797 8 0
    endloop
  endfacet
  facet normal 0 -1 0
    outer loop
      vertex 0 0 0
      vertex 7.62939e-07 0 23.5
      vertex 0 0 23.5
    endloop
  endfacet
  facet normal 0 -1 -0
    outer loop
      vertex 7.62939e-07 0 23.5
      vertex 0 0 0
      vertex 7.62939e-07 0 0
    endloop
  endfacet
  facet normal 0 -1 0
    outer loop
      vertex 0 0 26.5
      vertex 7.62939e-07 0 50
      vertex 0 0 50
    endloop
  endfacet
  facet normal 0 -1 -0
    outer loop
      vertex 7.62939e-07 0 50
      vertex 0 0 26.5
      vertex 7.62939e-07 0 26.5
    endloop
  endfacet
  facet normal 0 -1 0
    outer loop
      vertex 7.35814 2.7704 23.5
      vertex 9.24186 2.7704 26.5
      vertex 7.35814 2.7704 26.5
    endloop
  endfacet
  facet normal 0 -1 -0
    outer loop
      vertex 9.24186 2.7704 26.5
      vertex 7.35814 2.7704 23.5
      vertex 9.24186 2.7704 23.5
    endloop
  endfacet
  facet normal 0.368127 -0.929775 0
    outer loop
      vertex 1.91331 1.3724 23.5
      vertex 3.66475 2.06585 26.5
      vertex 1.91331 1.3724 26.5
    endloop
  endfacet
  facet normal 0.368127 -0.929775 0
    outer loop
      vertex 3.66475 2.06585 26.5
      vertex 1.91331 1.3724 23.5
      vertex 3.66475 2.06585 23.5
    endloop
  endfacet
  facet normal -0.368135 -0.929773 0
    outer loop
      vertex 12.9353 2.06585 23.5
      vertex 14.6867 1.3724 26.5
      vertex 12.9353 2.06585 26.5
    endloop
  endfacet
  facet normal -0.368135 -0.929773 -0
    outer loop
      vertex 14.6867 1.3724 26.5
      vertex 12.9353 2.06585 23.5
      vertex 14.6867 1.3724 23.5
    endloop
  endfacet
  facet normal -0.481754 -0.876306 0
    outer loop
      vertex 14.6867 1.3724 23.5
      vertex 16.3374 0.464918 26.5
      vertex 14.6867 1.3724 26.5
    endloop
  endfacet
  facet normal -0.481754 -0.876306 -0
    outer loop
      vertex 16.3374 0.464918 26.5
      vertex 14.6867 1.3724 23.5
      vertex 16.3374 0.464918 23.5
    endloop
  endfacet
  facet normal 0.24869 -0.968583 0
    outer loop
      vertex 3.66475 2.06585 23.5
      vertex 5.48928 2.53431 26.5
      vertex 3.66475 2.06585 26.5
    endloop
  endfacet
  facet normal 0.24869 -0.968583 0
    outer loop
      vertex 5.48928 2.53431 26.5
      vertex 3.66475 2.06585 23.5
      vertex 5.48928 2.53431 23.5
    endloop
  endfacet
  facet normal -0.248681 -0.968585 0
    outer loop
      vertex 11.1107 2.53431 23.5
      vertex 12.9353 2.06585 26.5
      vertex 11.1107 2.53431 26.5
    endloop
  endfacet
  facet normal -0.248681 -0.968585 -0
    outer loop
      vertex 12.9353 2.06585 26.5
      vertex 11.1107 2.53431 23.5
      vertex 12.9353 2.06585 23.5
    endloop
  endfacet
  facet normal -0.125334 -0.992115 0
    outer loop
      vertex 9.24186 2.7704 23.5
      vertex 11.1107 2.53431 26.5
      vertex 9.24186 2.7704 26.5
    endloop
  endfacet
  facet normal -0.125334 -0.992115 -0
    outer loop
      vertex 11.1107 2.53431 26.5
      vertex 9.24186 2.7704 23.5
      vertex 11.1107 2.53431 23.5
    endloop
  endfacet
  facet normal -0.587783 -0.809019 0
    outer loop
      vertex 16.3374 0.464918 23.5
      vertex 16.6 0.274129 26.5
      vertex 16.3374 0.464918 26.5
    endloop
  endfacet
  facet normal -0.587783 -0.809019 -0
    outer loop
      vertex 16.6 0.274129 26.5
      vertex 16.3374 0.464918 23.5
      vertex 16.6 0.274129 23.5
    endloop
  endfacet
  facet normal 0 0 -1
    outer loop
      vertex 14.9851 -0.5 26.5
      vertex 16.6 0 26.5
      vertex 16.6 -0.5 26.5
    endloop
  endfacet
  facet normal 0 0 -1
    outer loop
      vertex 16.6 0 26.5
      vertex 16.3374 0.464918 26.5
      vertex 16.6 0.274129 26.5
    endloop
  endfacet
  facet normal -0 0 -1
    outer loop
      vertex 16.6 0 26.5
      vertex 14.9851 -0.5 26.5
      vertex 16.3374 0.464918 26.5
    endloop
  endfacet
  facet normal 0 0 -1
    outer loop
      vertex 14.9851 -0.5 26.5
      vertex 14.6867 1.3724 26.5
      vertex 16.3374 0.464918 26.5
    endloop
  endfacet
  facet normal 0 0 -1
    outer loop
      vertex 14.048 0.0151651 26.5
      vertex 14.6867 1.3724 26.5
      vertex 14.9851 -0.5 26.5
    endloop
  endfacet
  facet normal 0 0 -1
    outer loop
      vertex 14.048 0.0151651 26.5
      vertex 12.9353 2.06585 26.5
      vertex 14.6867 1.3724 26.5
    endloop
  endfacet
  facet normal 0 0 -1
    outer loop
      vertex 12.4717 0.639263 26.5
      vertex 12.9353 2.06585 26.5
      vertex 14.048 0.0151651 26.5
    endloop
  endfacet
  facet normal 0 0 -1
    outer loop
      vertex 12.4717 0.639263 26.5
      vertex 11.1107 2.53431 26.5
      vertex 12.9353 2.06585 26.5
    endloop
  endfacet
  facet normal 0 0 -1
    outer loop
      vertex 10.8296 1.06088 26.5
      vertex 11.1107 2.53431 26.5
      vertex 12.4717 0.639263 26.5
    endloop
  endfacet
  facet normal 0 0 -1
    outer loop
      vertex 10.8296 1.06088 26.5
      vertex 9.24186 2.7704 26.5
      vertex 11.1107 2.53431 26.5
    endloop
  endfacet
  facet normal 0 0 -1
    outer loop
      vertex 9.14767 1.27336 26.5
      vertex 9.24186 2.7704 26.5
      vertex 10.8296 1.06088 26.5
    endloop
  endfacet
  facet normal 0 0 -1
    outer loop
      vertex 7.45233 1.27336 26.5
      vertex 9.24186 2.7704 26.5
      vertex 9.14767 1.27336 26.5
    endloop
  endfacet
  facet normal 0 0 -1
    outer loop
      vertex 7.45233 1.27336 26.5
      vertex 7.35814 2.7704 26.5
      vertex 9.24186 2.7704 26.5
    endloop
  endfacet
  facet normal 0 0 -1
    outer loop
      vertex 5.77035 1.06088 26.5
      vertex 7.35814 2.7704 26.5
      vertex 7.45233 1.27336 26.5
    endloop
  endfacet
  facet normal 0 0 -1
    outer loop
      vertex 5.77035 1.06088 26.5
      vertex 5.48928 2.53431 26.5
      vertex 7.35814 2.7704 26.5
    endloop
  endfacet
  facet normal 0 0 -1
    outer loop
      vertex 4.12827 0.639263 26.5
      vertex 5.48928 2.53431 26.5
      vertex 5.77035 1.06088 26.5
    endloop
  endfacet
  facet normal 0 0 -1
    outer loop
      vertex 4.12827 0.639263 26.5
      vertex 3.66475 2.06585 26.5
      vertex 5.48928 2.53431 26.5
    endloop
  endfacet
  facet normal 0 0 -1
    outer loop
      vertex 2.55198 0.0151651 26.5
      vertex 3.66475 2.06585 26.5
      vertex 4.12827 0.639263 26.5
    endloop
  endfacet
  facet normal 0 0 -1
    outer loop
      vertex 2.55198 0.0151651 26.5
      vertex 1.91331 1.3724 26.5
      vertex 3.66475 2.06585 26.5
    endloop
  endfacet
  facet normal 0 0 -1
    outer loop
      vertex 1.6149 -0.5 26.5
      vertex 1.91331 1.3724 26.5
      vertex 2.55198 0.0151651 26.5
    endloop
  endfacet
  facet normal 0 0 -1
    outer loop
      vertex 1.6149 -0.5 26.5
      vertex 0.262599 0.464918 26.5
      vertex 1.91331 1.3724 26.5
    endloop
  endfacet
  facet normal 0 0 -1
    outer loop
      vertex 7.62939e-07 0 26.5
      vertex 1.6149 -0.5 26.5
      vertex 7.62939e-07 -0.5 26.5
    endloop
  endfacet
  facet normal 0 0 -1
    outer loop
      vertex 1.6149 -0.5 26.5
      vertex 7.62939e-07 0 26.5
      vertex 0.262599 0.464918 26.5
    endloop
  endfacet
  facet normal 0 0 -1
    outer loop
      vertex 0 0.274129 26.5
      vertex 7.62939e-07 0 26.5
      vertex 0 0 26.5
    endloop
  endfacet
  facet normal 0 0 -1
    outer loop
      vertex 7.62939e-07 0 26.5
      vertex 0 0.274129 26.5
      vertex 0.262599 0.464918 26.5
    endloop
  endfacet
  facet normal 0.481752 -0.876308 0
    outer loop
      vertex 0.262599 0.464918 23.5
      vertex 1.91331 1.3724 26.5
      vertex 0.262599 0.464918 26.5
    endloop
  endfacet
  facet normal 0.481752 -0.876308 0
    outer loop
      vertex 1.91331 1.3724 26.5
      vertex 0.262599 0.464918 23.5
      vertex 1.91331 1.3724 23.5
    endloop
  endfacet
  facet normal 0.587785 -0.809017 0
    outer loop
      vertex 0 0.274129 23.5
      vertex 0.262599 0.464918 26.5
      vertex 0 0.274129 26.5
    endloop
  endfacet
  facet normal 0.587785 -0.809017 0
    outer loop
      vertex 0.262599 0.464918 26.5
      vertex 0 0.274129 23.5
      vertex 0.262599 0.464918 23.5
    endloop
  endfacet
  facet normal 0.125332 -0.992115 0
    outer loop
      vertex 5.48928 2.53431 23.5
      vertex 7.35814 2.7704 26.5
      vertex 5.48928 2.53431 26.5
    endloop
  endfacet
  facet normal 0.125332 -0.992115 0
    outer loop
      vertex 7.35814 2.7704 26.5
      vertex 5.48928 2.53431 23.5
      vertex 7.35814 2.7704 23.5
    endloop
  endfacet
  facet normal -0 0 1
    outer loop
      vertex 0 0.274129 23.5
      vertex 7.62939e-07 0 23.5
      vertex 0.262599 0.464918 23.5
    endloop
  endfacet
  facet normal 0 0 1
    outer loop
      vertex 7.62939e-07 0 23.5
      vertex 0 0.274129 23.5
      vertex 0 0 23.5
    endloop
  endfacet
  facet normal 0 0 1
    outer loop
      vertex 16.3374 0.464918 23.5
      vertex 16.6 0 23.5
      vertex 16.6 0.274129 23.5
    endloop
  endfacet
  facet normal 0 0 1
    outer loop
      vertex 14.9851 -0.5 23.5
      vertex 16.6 0 23.5
      vertex 16.3374 0.464918 23.5
    endloop
  endfacet
  facet normal 0 0 1
    outer loop
      vertex 16.6 0 23.5
      vertex 14.9851 -0.5 23.5
      vertex 16.6 -0.5 23.5
    endloop
  endfacet
  facet normal 0 0 1
    outer loop
      vertex 14.6867 1.3724 23.5
      vertex 14.9851 -0.5 23.5
      vertex 16.3374 0.464918 23.5
    endloop
  endfacet
  facet normal 0 0 1
    outer loop
      vertex 14.6867 1.3724 23.5
      vertex 14.048 0.0151651 23.5
      vertex 14.9851 -0.5 23.5
    endloop
  endfacet
  facet normal 0 0 1
    outer loop
      vertex 12.9353 2.06585 23.5
      vertex 14.048 0.0151651 23.5
      vertex 14.6867 1.3724 23.5
    endloop
  endfacet
  facet normal 0 0 1
    outer loop
      vertex 12.9353 2.06585 23.5
      vertex 12.4717 0.639263 23.5
      vertex 14.048 0.0151651 23.5
    endloop
  endfacet
  facet normal 0 0 1
    outer loop
      vertex 11.1107 2.53431 23.5
      vertex 12.4717 0.639263 23.5
      vertex 12.9353 2.06585 23.5
    endloop
  endfacet
  facet normal 0 0 1
    outer loop
      vertex 11.1107 2.53431 23.5
      vertex 10.8296 1.06088 23.5
      vertex 12.4717 0.639263 23.5
    endloop
  endfacet
  facet normal 0 0 1
    outer loop
      vertex 9.24186 2.7704 23.5
      vertex 10.8296 1.06088 23.5
      vertex 11.1107 2.53431 23.5
    endloop
  endfacet
  facet normal 0 0 1
    outer loop
      vertex 9.24186 2.7704 23.5
      vertex 9.14767 1.27336 23.5
      vertex 10.8296 1.06088 23.5
    endloop
  endfacet
  facet normal 0 0 1
    outer loop
      vertex 9.24186 2.7704 23.5
      vertex 7.45233 1.27336 23.5
      vertex 9.14767 1.27336 23.5
    endloop
  endfacet
  facet normal -0 0 1
    outer loop
      vertex 7.35814 2.7704 23.5
      vertex 7.45233 1.27336 23.5
      vertex 9.24186 2.7704 23.5
    endloop
  endfacet
  facet normal 0 0 1
    outer loop
      vertex 7.35814 2.7704 23.5
      vertex 5.77035 1.06088 23.5
      vertex 7.45233 1.27336 23.5
    endloop
  endfacet
  facet normal -0 0 1
    outer loop
      vertex 5.48928 2.53431 23.5
      vertex 5.77035 1.06088 23.5
      vertex 7.35814 2.7704 23.5
    endloop
  endfacet
  facet normal 0 0 1
    outer loop
      vertex 5.48928 2.53431 23.5
      vertex 4.12827 0.639263 23.5
      vertex 5.77035 1.06088 23.5
    endloop
  endfacet
  facet normal -0 0 1
    outer loop
      vertex 3.66475 2.06585 23.5
      vertex 4.12827 0.639263 23.5
      vertex 5.48928 2.53431 23.5
    endloop
  endfacet
  facet normal 0 0 1
    outer loop
      vertex 3.66475 2.06585 23.5
      vertex 2.55198 0.0151651 23.5
      vertex 4.12827 0.639263 23.5
    endloop
  endfacet
  facet normal -0 0 1
    outer loop
      vertex 1.91331 1.3724 23.5
      vertex 2.55198 0.0151651 23.5
      vertex 3.66475 2.06585 23.5
    endloop
  endfacet
  facet normal 0 0 1
    outer loop
      vertex 1.91331 1.3724 23.5
      vertex 1.6149 -0.5 23.5
      vertex 2.55198 0.0151651 23.5
    endloop
  endfacet
  facet normal -0 0 1
    outer loop
      vertex 0.262599 0.464918 23.5
      vertex 1.6149 -0.5 23.5
      vertex 1.91331 1.3724 23.5
    endloop
  endfacet
  facet normal -0 0 1
    outer loop
      vertex 7.62939e-07 0 23.5
      vertex 1.6149 -0.5 23.5
      vertex 0.262599 0.464918 23.5
    endloop
  endfacet
  facet normal 0 0 1
    outer loop
      vertex 1.6149 -0.5 23.5
      vertex 7.62939e-07 0 23.5
      vertex 7.62939e-07 -0.5 23.5
    endloop
  endfacet
  facet normal 0 1 -0
    outer loop
      vertex 9.14767 1.27336 23.5
      vertex 7.45233 1.27336 26.5
      vertex 9.14767 1.27336 26.5
    endloop
  endfacet
  facet normal 0 1 0
    outer loop
      vertex 7.45233 1.27336 26.5
      vertex 9.14767 1.27336 23.5
      vertex 7.45233 1.27336 23.5
    endloop
  endfacet
  facet normal -0.368125 0.929776 0
    outer loop
      vertex 4.12827 0.639263 23.5
      vertex 2.55198 0.0151651 26.5
      vertex 4.12827 0.639263 26.5
    endloop
  endfacet
  facet normal -0.368125 0.929776 0
    outer loop
      vertex 2.55198 0.0151651 26.5
      vertex 4.12827 0.639263 23.5
      vertex 2.55198 0.0151651 23.5
    endloop
  endfacet
  facet normal 0.368123 0.929777 -0
    outer loop
      vertex 14.048 0.0151651 23.5
      vertex 12.4717 0.639263 26.5
      vertex 14.048 0.0151651 26.5
    endloop
  endfacet
  facet normal 0.368123 0.929777 0
    outer loop
      vertex 12.4717 0.639263 26.5
      vertex 14.048 0.0151651 23.5
      vertex 12.4717 0.639263 23.5
    endloop
  endfacet
  facet normal 0.248688 0.968584 -0
    outer loop
      vertex 12.4717 0.639263 23.5
      vertex 10.8296 1.06088 26.5
      vertex 12.4717 0.639263 26.5
    endloop
  endfacet
  facet normal 0.248688 0.968584 0
    outer loop
      vertex 10.8296 1.06088 26.5
      vertex 12.4717 0.639263 23.5
      vertex 10.8296 1.06088 23.5
    endloop
  endfacet
  facet normal 0.481747 0.876311 -0
    outer loop
      vertex 14.9851 -0.5 23.5
      vertex 14.048 0.0151651 26.5
      vertex 14.9851 -0.5 26.5
    endloop
  endfacet
  facet normal 0.481747 0.876311 0
    outer loop
      vertex 14.048 0.0151651 26.5
      vertex 14.9851 -0.5 23.5
      vertex 14.048 0.0151651 23.5
    endloop
  endfacet
  facet normal -0.248691 0.968583 0
    outer loop
      vertex 5.77035 1.06088 23.5
      vertex 4.12827 0.639263 26.5
      vertex 5.77035 1.06088 26.5
    endloop
  endfacet
  facet normal -0.248691 0.968583 0
    outer loop
      vertex 4.12827 0.639263 26.5
      vertex 5.77035 1.06088 23.5
      vertex 4.12827 0.639263 23.5
    endloop
  endfacet
  facet normal 0.125335 0.992114 -0
    outer loop
      vertex 10.8296 1.06088 23.5
      vertex 9.14767 1.27336 26.5
      vertex 10.8296 1.06088 26.5
    endloop
  endfacet
  facet normal 0.125335 0.992114 0
    outer loop
      vertex 9.14767 1.27336 26.5
      vertex 10.8296 1.06088 23.5
      vertex 9.14767 1.27336 23.5
    endloop
  endfacet
  facet normal -0.481754 0.876306 0
    outer loop
      vertex 2.55198 0.0151651 23.5
      vertex 1.6149 -0.5 26.5
      vertex 2.55198 0.0151651 26.5
    endloop
  endfacet
  facet normal -0.481754 0.876306 0
    outer loop
      vertex 1.6149 -0.5 26.5
      vertex 2.55198 0.0151651 23.5
      vertex 1.6149 -0.5 23.5
    endloop
  endfacet
  facet normal -0.125331 0.992115 0
    outer loop
      vertex 7.45233 1.27336 23.5
      vertex 5.77035 1.06088 26.5
      vertex 7.45233 1.27336 26.5
    endloop
  endfacet
  facet normal -0.125331 0.992115 0
    outer loop
      vertex 5.77035 1.06088 26.5
      vertex 7.45233 1.27336 23.5
      vertex 5.77035 1.06088 23.5
    endloop
  endfacet
  facet normal 0 1 -0
    outer loop
      vertex 5.797 8 0
      vertex 0 8 50
      vertex 5.797 8 50
    endloop
  endfacet
  facet normal 0 1 0
    outer loop
      vertex 0 8 50
      vertex 5.797 8 0
      vertex 0 8 0
    endloop
  endfacet
  facet normal 0 1 -0
    outer loop
      vertex 16.6 8 0
      vertex 10.803 8 50
      vertex 16.6 8 50
    endloop
  endfacet
  facet normal 0 1 0
    outer loop
      vertex 10.803 8 50
      vertex 16.6 8 0
      vertex 10.803 8 0
    endloop
  endfacet
  facet normal 0 -1 0
    outer loop
      vertex 7.62939e-07 -0.5 23.5
      vertex 7.62939e-07 -0.5 18
      vertex 1.6149 -0.5 23.5
    endloop
  endfacet
  facet normal 0 -1 0
    outer loop
      vertex 1.6149 -0.5 26.5
      vertex 7.62939e-07 -0.5 32
      vertex 7.62939e-07 -0.5 26.5
    endloop
  endfacet
  facet normal 0 -1 0
    outer loop
      vertex 7.62939e-07 -0.5 32
      vertex 1.6149 -0.5 26.5
      vertex 6.47148 -0.5 32
    endloop
  endfacet
  facet normal 0 -1 0
    outer loop
      vertex 1.6149 -0.5 23.5
      vertex 6.47148 -0.5 32
      vertex 1.6149 -0.5 26.5
    endloop
  endfacet
  facet normal 0 -1 0
    outer loop
      vertex 6.47148 -0.5 18
      vertex 1.6149 -0.5 23.5
      vertex 7.62939e-07 -0.5 18
    endloop
  endfacet
  facet normal 0 -1 0
    outer loop
      vertex 1.6149 -0.5 23.5
      vertex 6.47148 -0.5 18
      vertex 6.47148 -0.5 32
    endloop
  endfacet
  facet normal 0 -1 0
    outer loop
      vertex 10.1285 -0.5 32
      vertex 14.9851 -0.5 26.5
      vertex 16.6 -0.5 32
    endloop
  endfacet
  facet normal 0 -1 0
    outer loop
      vertex 10.1285 -0.5 32
      vertex 14.9851 -0.5 23.5
      vertex 14.9851 -0.5 26.5
    endloop
  endfacet
  facet normal 0 -1 0
    outer loop
      vertex 10.1285 -0.5 18
      vertex 14.9851 -0.5 23.5
      vertex 10.1285 -0.5 32
    endloop
  endfacet
  facet normal 0 -1 0
    outer loop
      vertex 16.6 -0.5 18
      vertex 14.9851 -0.5 23.5
      vertex 10.1285 -0.5 18
    endloop
  endfacet
  facet normal 0 -1 0
    outer loop
      vertex 14.9851 -0.5 23.5
      vertex 16.6 -0.5 18
      vertex 16.6 -0.5 23.5
    endloop
  endfacet
  facet normal 0 -1 -0
    outer loop
      vertex 16.6 -0.5 32
      vertex 14.9851 -0.5 26.5
      vertex 16.6 -0.5 26.5
    endloop
  endfacet
  facet normal 0 -0.707142 0.707072
    outer loop
      vertex 7.62939e-07 -0.5 18
      vertex 5.4 -0.977053 17.5229
      vertex 6.47148 -0.5 18
    endloop
  endfacet
  facet normal 6.03425e-06 -0.707107 0.707106
    outer loop
      vertex 7.62939e-07 -0.5 18
      vertex 4.41904 -1.68976 16.8102
      vertex 5.4 -0.977053 17.5229
    endloop
  endfacet
  facet normal 2.04571e-05 -0.707081 0.707133
    outer loop
      vertex 7.62939e-07 -0.5 18
      vertex 3.6077 -2.59085 15.9092
      vertex 4.41904 -1.68976 16.8102
    endloop
  endfacet
  facet normal -1.31913e-05 -0.70711 0.707104
    outer loop
      vertex 7.62939e-07 -0.5 18
      vertex 3.00144 -3.64093 14.8591
      vertex 3.6077 -2.59085 15.9092
    endloop
  endfacet
  facet normal -7.06768e-06 -0.707107 0.707107
    outer loop
      vertex 7.62939e-07 -6 12.5
      vertex 3.00144 -3.64093 14.8591
      vertex 7.62939e-07 -0.5 18
    endloop
  endfacet
  facet normal 3.45311e-06 -0.707113 0.7071
    outer loop
      vertex 3.00144 -3.64093 14.8591
      vertex 7.62939e-07 -6 12.5
      vertex 2.62674 -4.79411 13.7059
    endloop
  endfacet
  facet normal 0 -0.70711 0.707104
    outer loop
      vertex 7.62939e-07 -6 12.5
      vertex 2.5 -6 12.5
      vertex 2.62674 -4.79411 13.7059
    endloop
  endfacet
  facet normal 0 -0.70711 0.707104
    outer loop
      vertex 7.62939e-07 -6 12.5
      vertex 2.62674 -7.20589 11.2941
      vertex 2.5 -6 12.5
    endloop
  endfacet
  facet normal -3.10102e-06 -0.707113 0.7071
    outer loop
      vertex 0.181375 -7.72567 10.7743
      vertex 2.62674 -7.20589 11.2941
      vertex 7.62939e-07 -6 12.5
    endloop
  endfacet
  facet normal -2.97128e-06 -0.707113 0.7071
    outer loop
      vertex 0.181375 -7.72567 10.7743
      vertex 3.00144 -8.35907 10.1409
      vertex 2.62674 -7.20589 11.2941
    endloop
  endfacet
  facet normal 3.11453e-06 -0.7071 0.707114
    outer loop
      vertex 0.717573 -9.37591 9.12409
      vertex 3.00144 -8.35907 10.1409
      vertex 0.181375 -7.72567 10.7743
    endloop
  endfacet
  facet normal 2.33899e-07 -0.707097 0.707117
    outer loop
      vertex 0.717573 -9.37591 9.12409
      vertex 3.6077 -9.40915 9.09085
      vertex 3.00144 -8.35907 10.1409
    endloop
  endfacet
  facet normal -1.08963e-07 -0.707112 0.707102
    outer loop
      vertex 1.58516 -10.8786 7.62138
      vertex 3.6077 -9.40915 9.09085
      vertex 0.717573 -9.37591 9.12409
    endloop
  endfacet
  facet normal 7.891e-06 -0.707117 0.707097
    outer loop
      vertex 3.6077 -9.40915 9.09085
      vertex 1.58516 -10.8786 7.62138
      vertex 4.3 -10.178 8.32197
    endloop
  endfacet
  facet normal -1.83079e-07 -0.707101 0.707112
    outer loop
      vertex 2.74622 -12.1681 6.3319
      vertex 4.3 -10.178 8.32197
      vertex 1.58516 -10.8786 7.62138
    endloop
  endfacet
  facet normal 8.15547e-06 -0.707105 0.707109
    outer loop
      vertex 4.15 -13.188 5.31199
      vertex 4.3 -10.178 8.32197
      vertex 2.74622 -12.1681 6.3319
    endloop
  endfacet
  facet normal -9.01876e-05 -0.707102 0.707111
    outer loop
      vertex 4.3 -10.178 8.32197
      vertex 4.15 -13.188 5.31199
      vertex 4.3 -13.2548 5.24521
    endloop
  endfacet
  facet normal 0 -0.707142 0.707072
    outer loop
      vertex 11.2 -0.977053 17.5229
      vertex 16.6 -0.5 18
      vertex 10.1285 -0.5 18
    endloop
  endfacet
  facet normal -6.03423e-06 -0.707107 0.707106
    outer loop
      vertex 12.181 -1.68976 16.8102
      vertex 16.6 -0.5 18
      vertex 11.2 -0.977053 17.5229
    endloop
  endfacet
  facet normal -2.04574e-05 -0.707081 0.707133
    outer loop
      vertex 12.9923 -2.59085 15.9092
      vertex 16.6 -0.5 18
      vertex 12.181 -1.68976 16.8102
    endloop
  endfacet
  facet normal 1.31911e-05 -0.70711 0.707104
    outer loop
      vertex 13.5986 -3.64093 14.8591
      vertex 16.6 -0.5 18
      vertex 12.9923 -2.59085 15.9092
    endloop
  endfacet
  facet normal -3.45318e-06 -0.707113 0.7071
    outer loop
      vertex 16.6 -6 12.5
      vertex 13.5986 -3.64093 14.8591
      vertex 13.9733 -4.79411 13.7059
    endloop
  endfacet
  facet normal 0 -0.70711 0.707104
    outer loop
      vertex 16.6 -6 12.5
      vertex 13.9733 -4.79411 13.7059
      vertex 14.1 -6 12.5
    endloop
  endfacet
  facet normal 7.06777e-06 -0.707107 0.707107
    outer loop
      vertex 13.5986 -3.64093 14.8591
      vertex 16.6 -6 12.5
      vertex 16.6 -0.5 18
    endloop
  endfacet
  facet normal 0 -0.70711 0.707104
    outer loop
      vertex 13.9733 -7.20589 11.2941
      vertex 16.6 -6 12.5
      vertex 14.1 -6 12.5
    endloop
  endfacet
  facet normal 3.1011e-06 -0.707113 0.7071
    outer loop
      vertex 13.9733 -7.20589 11.2941
      vertex 16.4186 -7.72567 10.7743
      vertex 16.6 -6 12.5
    endloop
  endfacet
  facet normal 2.97136e-06 -0.707113 0.7071
    outer loop
      vertex 13.5986 -8.35907 10.1409
      vertex 16.4186 -7.72567 10.7743
      vertex 13.9733 -7.20589 11.2941
    endloop
  endfacet
  facet normal -3.11461e-06 -0.7071 0.707114
    outer loop
      vertex 13.5986 -8.35907 10.1409
      vertex 15.8824 -9.37591 9.12409
      vertex 16.4186 -7.72567 10.7743
    endloop
  endfacet
  facet normal -2.33901e-07 -0.707097 0.707117
    outer loop
      vertex 12.9923 -9.40915 9.09085
      vertex 15.8824 -9.37591 9.12409
      vertex 13.5986 -8.35907 10.1409
    endloop
  endfacet
  facet normal -7.8911e-06 -0.707117 0.707097
    outer loop
      vertex 15.0148 -10.8786 7.62138
      vertex 12.9923 -9.40915 9.09085
      vertex 12.3 -10.178 8.32197
    endloop
  endfacet
  facet normal 1.08964e-07 -0.707112 0.707102
    outer loop
      vertex 12.9923 -9.40915 9.09085
      vertex 15.0148 -10.8786 7.62138
      vertex 15.8824 -9.37591 9.12409
    endloop
  endfacet
  facet normal 1.83083e-07 -0.707101 0.707112
    outer loop
      vertex 12.3 -10.178 8.32197
      vertex 13.8538 -12.1681 6.3319
      vertex 15.0148 -10.8786 7.62138
    endloop
  endfacet
  facet normal -8.15535e-06 -0.707105 0.707109
    outer loop
      vertex 12.3 -10.178 8.32197
      vertex 12.45 -13.188 5.31199
      vertex 13.8538 -12.1681 6.3319
    endloop
  endfacet
  facet normal 9.01876e-05 -0.707102 0.707111
    outer loop
      vertex 12.45 -13.188 5.31199
      vertex 12.3 -10.178 8.32197
      vertex 12.3 -13.2548 5.24521
    endloop
  endfacet
  facet normal -8.60646e-16 -0.707107 -0.707107
    outer loop
      vertex 4.3 -10.178 41.678
      vertex 4.15 -13.188 44.688
      vertex 2.74622 -12.1681 43.6681
    endloop
  endfacet
  facet normal 3.63934e-17 -0.707107 -0.707107
    outer loop
      vertex 4.3 -10.178 41.678
      vertex 2.74622 -12.1681 43.6681
      vertex 1.58516 -10.8786 42.3786
    endloop
  endfacet
  facet normal 7.65451e-15 -0.707107 -0.707107
    outer loop
      vertex 4.15 -13.188 44.688
      vertex 4.3 -10.178 41.678
      vertex 4.3 -13.2548 44.7548
    endloop
  endfacet
  facet normal -9.62964e-06 -0.707088 -0.707125
    outer loop
      vertex 1.58516 -10.8786 42.3786
      vertex 3.6077 -9.40915 40.9092
      vertex 4.3 -10.178 41.678
    endloop
  endfacet
  facet normal 1.47235e-05 -0.707105 -0.707109
    outer loop
      vertex 0.717573 -9.37591 40.8759
      vertex 3.6077 -9.40915 40.9092
      vertex 1.58516 -10.8786 42.3786
    endloop
  endfacet
  facet normal 1.46219e-05 -0.707109 -0.707104
    outer loop
      vertex 0.717573 -9.37591 40.8759
      vertex 3.00144 -8.35907 39.8591
      vertex 3.6077 -9.40915 40.9092
    endloop
  endfacet
  facet normal 4.15272e-06 -0.707098 -0.707116
    outer loop
      vertex 0.181375 -7.72567 39.2257
      vertex 3.00144 -8.35907 39.8591
      vertex 0.717573 -9.37591 40.8759
    endloop
  endfacet
  facet normal -2.97128e-06 -0.707113 -0.7071
    outer loop
      vertex 0.181375 -7.72567 39.2257
      vertex 2.62674 -7.20589 38.7059
      vertex 3.00144 -8.35907 39.8591
    endloop
  endfacet
  facet normal -3.10102e-06 -0.707113 -0.7071
    outer loop
      vertex 7.62939e-07 -6 37.5
      vertex 2.62674 -7.20589 38.7059
      vertex 0.181375 -7.72567 39.2257
    endloop
  endfacet
  facet normal 0 -0.70711 -0.707104
    outer loop
      vertex 7.62939e-07 -6 37.5
      vertex 2.5 -6 37.5
      vertex 2.62674 -7.20589 38.7059
    endloop
  endfacet
  facet normal 0 -0.70711 -0.707104
    outer loop
      vertex 7.62939e-07 -6 37.5
      vertex 2.62674 -4.79411 36.2941
      vertex 2.5 -6 37.5
    endloop
  endfacet
  facet normal 3.45311e-06 -0.707113 -0.7071
    outer loop
      vertex 7.62939e-07 -6 37.5
      vertex 3.00144 -3.64093 35.1409
      vertex 2.62674 -4.79411 36.2941
    endloop
  endfacet
  facet normal -7.06768e-06 -0.707107 -0.707107
    outer loop
      vertex 7.62939e-07 -0.5 32
      vertex 3.00144 -3.64093 35.1409
      vertex 7.62939e-07 -6 37.5
    endloop
  endfacet
  facet normal -1.31913e-05 -0.70711 -0.707104
    outer loop
      vertex 3.00144 -3.64093 35.1409
      vertex 7.62939e-07 -0.5 32
      vertex 3.6077 -2.59085 34.0908
    endloop
  endfacet
  facet normal 2.04571e-05 -0.707081 -0.707133
    outer loop
      vertex 3.6077 -2.59085 34.0908
      vertex 7.62939e-07 -0.5 32
      vertex 4.41904 -1.68976 33.1898
    endloop
  endfacet
  facet normal 6.03425e-06 -0.707107 -0.707106
    outer loop
      vertex 7.62939e-07 -0.5 32
      vertex 5.4 -0.977053 32.4771
      vertex 4.41904 -1.68976 33.1898
    endloop
  endfacet
  facet normal 0 -0.707142 -0.707072
    outer loop
      vertex 5.4 -0.977053 32.4771
      vertex 7.62939e-07 -0.5 32
      vertex 6.47148 -0.5 32
    endloop
  endfacet
  facet normal -8.16481e-15 -0.707107 -0.707107
    outer loop
      vertex 12.3 -10.178 41.678
      vertex 12.45 -13.188 44.688
      vertex 12.3 -13.2548 44.7548
    endloop
  endfacet
  facet normal 9.32354e-16 -0.707107 -0.707107
    outer loop
      vertex 12.45 -13.188 44.688
      vertex 12.3 -10.178 41.678
      vertex 13.8538 -12.1681 43.6681
    endloop
  endfacet
  facet normal 0 -0.707107 -0.707107
    outer loop
      vertex 13.8538 -12.1681 43.6681
      vertex 12.3 -10.178 41.678
      vertex 15.0148 -10.8786 42.3786
    endloop
  endfacet
  facet normal 9.62975e-06 -0.707088 -0.707125
    outer loop
      vertex 12.9923 -9.40915 40.9092
      vertex 15.0148 -10.8786 42.3786
      vertex 12.3 -10.178 41.678
    endloop
  endfacet
  facet normal -1.47236e-05 -0.707105 -0.707109
    outer loop
      vertex 12.9923 -9.40915 40.9092
      vertex 15.8824 -9.37591 40.8759
      vertex 15.0148 -10.8786 42.3786
    endloop
  endfacet
  facet normal -1.46221e-05 -0.707109 -0.707104
    outer loop
      vertex 13.5986 -8.35907 39.8591
      vertex 15.8824 -9.37591 40.8759
      vertex 12.9923 -9.40915 40.9092
    endloop
  endfacet
  facet normal -4.15283e-06 -0.707098 -0.707116
    outer loop
      vertex 13.5986 -8.35907 39.8591
      vertex 16.4186 -7.72567 39.2257
      vertex 15.8824 -9.37591 40.8759
    endloop
  endfacet
  facet normal 2.97136e-06 -0.707113 -0.7071
    outer loop
      vertex 13.9733 -7.20589 38.7059
      vertex 16.4186 -7.72567 39.2257
      vertex 13.5986 -8.35907 39.8591
    endloop
  endfacet
  facet normal 4.43784e-06 -0.70711 -0.707104
    outer loop
      vertex 14.1 -6 37.5
      vertex 16.4186 -7.72567 39.2257
      vertex 13.9733 -7.20589 38.7059
    endloop
  endfacet
  facet normal 0 -0.707113 -0.707101
    outer loop
      vertex 14.1 -6 37.5
      vertex 16.6 -6 37.5
      vertex 16.4186 -7.72567 39.2257
    endloop
  endfacet
  facet normal 0 -0.70711 -0.707104
    outer loop
      vertex 13.9733 -4.79411 36.2941
      vertex 16.6 -6 37.5
      vertex 14.1 -6 37.5
    endloop
  endfacet
  facet normal -3.45318e-06 -0.707113 -0.7071
    outer loop
      vertex 13.5986 -3.64093 35.1409
      vertex 16.6 -6 37.5
      vertex 13.9733 -4.79411 36.2941
    endloop
  endfacet
  facet normal 1.31911e-05 -0.70711 -0.707104
    outer loop
      vertex 16.6 -0.5 32
      vertex 13.5986 -3.64093 35.1409
      vertex 12.9923 -2.59085 34.0908
    endloop
  endfacet
  facet normal -2.04574e-05 -0.707081 -0.707133
    outer loop
      vertex 16.6 -0.5 32
      vertex 12.9923 -2.59085 34.0908
      vertex 12.181 -1.68976 33.1898
    endloop
  endfacet
  facet normal 7.06777e-06 -0.707107 -0.707107
    outer loop
      vertex 13.5986 -3.64093 35.1409
      vertex 16.6 -0.5 32
      vertex 16.6 -6 37.5
    endloop
  endfacet
  facet normal -6.03423e-06 -0.707107 -0.707106
    outer loop
      vertex 11.2 -0.977053 32.4771
      vertex 16.6 -0.5 32
      vertex 12.181 -1.68976 33.1898
    endloop
  endfacet
  facet normal -0 -0.707142 -0.707072
    outer loop
      vertex 16.6 -0.5 32
      vertex 11.2 -0.977053 32.4771
      vertex 10.1285 -0.5 32
    endloop
  endfacet
  facet normal -0.957826 -0.287348 0
    outer loop
      vertex 12.3 3.01 0
      vertex 10.803 8 50
      vertex 10.803 8 0
    endloop
  endfacet
  facet normal -0.957826 -0.287348 0
    outer loop
      vertex 10.803 8 50
      vertex 12.3 3.01 0
      vertex 12.3 3.01 50
    endloop
  endfacet
  facet normal 0.957826 -0.287348 0
    outer loop
      vertex 4.3 3.01 50
      vertex 5.797 8 0
      vertex 5.797 8 50
    endloop
  endfacet
  facet normal 0.957826 -0.287348 0
    outer loop
      vertex 5.797 8 0
      vertex 4.3 3.01 50
      vertex 4.3 3.01 0
    endloop
  endfacet
  facet normal 0 1 -0
    outer loop
      vertex 12.3 3.01 0
      vertex 4.3 3.01 50
      vertex 12.3 3.01 50
    endloop
  endfacet
  facet normal 0 1 0
    outer loop
      vertex 4.3 3.01 50
      vertex 12.3 3.01 0
      vertex 4.3 3.01 0
    endloop
  endfacet
endsolid OpenSCAD_Model
