solid OpenSCAD_Model
  facet normal -0.998629 -0.0523415 0
    outer loop
      vertex -7.45891 5.66604 0
      vertex -7.5 6.45 15
      vertex -7.5 6.45 0
    endloop
  endfacet
  facet normal -0.998629 -0.0523415 0
    outer loop
      vertex -7.5 6.45 15
      vertex -7.45891 5.66604 0
      vertex -7.45891 5.66604 15
    endloop
  endfacet
  facet normal 0.998629 -0.0523415 0
    outer loop
      vertex 7.45891 5.66604 15
      vertex 7.5 6.45 0
      vertex 7.5 6.45 15
    endloop
  endfacet
  facet normal 0.998629 -0.0523415 0
    outer loop
      vertex 7.5 6.45 0
      vertex 7.45891 5.66604 15
      vertex 7.45891 5.66604 0
    endloop
  endfacet
  facet normal -0.707104 -0.707109 0
    outer loop
      vertex -5.01848 0.876414 0
      vertex -5.57359 1.43152 15
      vertex -5.57359 1.43152 0
    endloop
  endfacet
  facet normal -0.707104 -0.707109 0
    outer loop
      vertex -5.57359 1.43152 15
      vertex -5.01848 0.876414 0
      vertex -5.01848 0.876414 15
    endloop
  endfacet
  facet normal 0.62932 -0.777146 0
    outer loop
      vertex 4.40839 0.382373 0
      vertex 5.01848 0.876414 15
      vertex 4.40839 0.382373 15
    endloop
  endfacet
  facet normal 0.62932 -0.777146 0
    outer loop
      vertex 5.01848 0.876414 15
      vertex 4.40839 0.382373 0
      vertex 5.01848 0.876414 0
    endloop
  endfacet
  facet normal 0.358379 -0.933576 0
    outer loop
      vertex 2.88907 -0.463567 0
      vertex 3.05052 -0.40159 15
      vertex 2.88907 -0.463567 15
    endloop
  endfacet
  facet normal 0.358379 -0.933576 0
    outer loop
      vertex 3.05052 -0.40159 15
      vertex 2.88907 -0.463567 0
      vertex 3.05052 -0.40159 0
    endloop
  endfacet
  facet normal -0.93358 -0.358368 0
    outer loop
      vertex -6.85159 3.39948 0
      vertex -7.13292 4.13237 15
      vertex -7.13292 4.13237 0
    endloop
  endfacet
  facet normal -0.93358 -0.358368 0
    outer loop
      vertex -7.13292 4.13237 15
      vertex -6.85159 3.39948 0
      vertex -6.85159 3.39948 15
    endloop
  endfacet
  facet normal -0.98769 -0.156424 0
    outer loop
      vertex -7.33611 4.89066 0
      vertex -7.45891 5.66604 15
      vertex -7.45891 5.66604 0
    endloop
  endfacet
  facet normal -0.98769 -0.156424 0
    outer loop
      vertex -7.45891 5.66604 15
      vertex -7.33611 4.89066 0
      vertex -7.33611 4.89066 15
    endloop
  endfacet
  facet normal -0.453988 -0.891008 0
    outer loop
      vertex -3.75 -0.0451897 0
      vertex -3.05052 -0.40159 15
      vertex -3.75 -0.0451897 15
    endloop
  endfacet
  facet normal -0.453988 -0.891008 -0
    outer loop
      vertex -3.05052 -0.40159 15
      vertex -3.75 -0.0451897 0
      vertex -3.05052 -0.40159 0
    endloop
  endfacet
  facet normal -0.62932 -0.777146 0
    outer loop
      vertex -5.01848 0.876414 0
      vertex -4.40839 0.382373 15
      vertex -5.01848 0.876414 15
    endloop
  endfacet
  facet normal -0.62932 -0.777146 -0
    outer loop
      vertex -4.40839 0.382373 15
      vertex -5.01848 0.876414 0
      vertex -4.40839 0.382373 0
    endloop
  endfacet
  facet normal 0.891008 -0.453988 0
    outer loop
      vertex 6.49519 2.7 15
      vertex 6.85159 3.39948 0
      vertex 6.85159 3.39948 15
    endloop
  endfacet
  facet normal 0.891008 -0.453988 0
    outer loop
      vertex 6.85159 3.39948 0
      vertex 6.49519 2.7 15
      vertex 6.49519 2.7 0
    endloop
  endfacet
  facet normal -0.965924 0.258827 0
    outer loop
      vertex -7.33611 8.00934 0
      vertex -7.13292 8.76763 15
      vertex -7.13292 8.76763 0
    endloop
  endfacet
  facet normal -0.965924 0.258827 0
    outer loop
      vertex -7.13292 8.76763 15
      vertex -7.33611 8.00934 0
      vertex -7.33611 8.00934 15
    endloop
  endfacet
  facet normal 0.998629 0.0523415 0
    outer loop
      vertex 7.5 6.45 15
      vertex 7.45891 7.23396 0
      vertex 7.45891 7.23396 15
    endloop
  endfacet
  facet normal 0.998629 0.0523415 0
    outer loop
      vertex 7.45891 7.23396 0
      vertex 7.5 6.45 15
      vertex 7.5 6.45 0
    endloop
  endfacet
  facet normal -0.965924 -0.258827 0
    outer loop
      vertex -7.13292 4.13237 0
      vertex -7.33611 4.89066 15
      vertex -7.33611 4.89066 0
    endloop
  endfacet
  facet normal -0.965924 -0.258827 0
    outer loop
      vertex -7.33611 4.89066 15
      vertex -7.13292 4.13237 0
      vertex -7.13292 4.13237 15
    endloop
  endfacet
  facet normal -0.838673 -0.544636 0
    outer loop
      vertex -6.06763 2.04161 0
      vertex -6.49519 2.7 15
      vertex -6.49519 2.7 0
    endloop
  endfacet
  facet normal -0.838673 -0.544636 0
    outer loop
      vertex -6.49519 2.7 15
      vertex -6.06763 2.04161 0
      vertex -6.06763 2.04161 15
    endloop
  endfacet
  facet normal -0.777147 -0.62932 0
    outer loop
      vertex -5.57359 1.43152 0
      vertex -6.06763 2.04161 15
      vertex -6.06763 2.04161 0
    endloop
  endfacet
  facet normal -0.777147 -0.62932 0
    outer loop
      vertex -6.06763 2.04161 15
      vertex -5.57359 1.43152 0
      vertex -5.57359 1.43152 15
    endloop
  endfacet
  facet normal -0.891008 -0.453988 0
    outer loop
      vertex -6.49519 2.7 0
      vertex -6.85159 3.39948 15
      vertex -6.85159 3.39948 0
    endloop
  endfacet
  facet normal -0.891008 -0.453988 0
    outer loop
      vertex -6.85159 3.39948 15
      vertex -6.49519 2.7 0
      vertex -6.49519 2.7 15
    endloop
  endfacet
  facet normal -0.358379 -0.933576 0
    outer loop
      vertex -3.05052 -0.40159 0
      vertex -2.88907 -0.463567 15
      vertex -3.05052 -0.40159 15
    endloop
  endfacet
  facet normal -0.358379 -0.933576 -0
    outer loop
      vertex -2.88907 -0.463567 15
      vertex -3.05052 -0.40159 0
      vertex -2.88907 -0.463567 0
    endloop
  endfacet
  facet normal -0.544638 -0.838671 0
    outer loop
      vertex -4.40839 0.382373 0
      vertex -3.75 -0.0451897 15
      vertex -4.40839 0.382373 15
    endloop
  endfacet
  facet normal -0.544638 -0.838671 -0
    outer loop
      vertex -3.75 -0.0451897 15
      vertex -4.40839 0.382373 0
      vertex -3.75 -0.0451897 0
    endloop
  endfacet
  facet normal 0.965924 -0.258827 0
    outer loop
      vertex 7.13292 4.13237 15
      vertex 7.33611 4.89066 0
      vertex 7.33611 4.89066 15
    endloop
  endfacet
  facet normal 0.965924 -0.258827 0
    outer loop
      vertex 7.33611 4.89066 0
      vertex 7.13292 4.13237 15
      vertex 7.13292 4.13237 0
    endloop
  endfacet
  facet normal 0.777147 -0.62932 0
    outer loop
      vertex 5.57359 1.43152 15
      vertex 6.06763 2.04161 0
      vertex 6.06763 2.04161 15
    endloop
  endfacet
  facet normal 0.777147 -0.62932 0
    outer loop
      vertex 6.06763 2.04161 0
      vertex 5.57359 1.43152 15
      vertex 5.57359 1.43152 0
    endloop
  endfacet
  facet normal 0.707104 -0.707109 0
    outer loop
      vertex 5.01848 0.876414 15
      vertex 5.57359 1.43152 0
      vertex 5.57359 1.43152 15
    endloop
  endfacet
  facet normal 0.707104 -0.707109 0
    outer loop
      vertex 5.57359 1.43152 0
      vertex 5.01848 0.876414 15
      vertex 5.01848 0.876414 0
    endloop
  endfacet
  facet normal 0.838673 -0.544636 0
    outer loop
      vertex 6.06763 2.04161 15
      vertex 6.49519 2.7 0
      vertex 6.49519 2.7 15
    endloop
  endfacet
  facet normal 0.838673 -0.544636 0
    outer loop
      vertex 6.49519 2.7 0
      vertex 6.06763 2.04161 15
      vertex 6.06763 2.04161 0
    endloop
  endfacet
  facet normal 0.93358 -0.358368 0
    outer loop
      vertex 6.85159 3.39948 15
      vertex 7.13292 4.13237 0
      vertex 7.13292 4.13237 15
    endloop
  endfacet
  facet normal 0.93358 -0.358368 0
    outer loop
      vertex 7.13292 4.13237 0
      vertex 6.85159 3.39948 15
      vertex 6.85159 3.39948 0
    endloop
  endfacet
  facet normal 0.98769 -0.156424 0
    outer loop
      vertex 7.33611 4.89066 15
      vertex 7.45891 5.66604 0
      vertex 7.45891 5.66604 15
    endloop
  endfacet
  facet normal 0.98769 -0.156424 0
    outer loop
      vertex 7.45891 5.66604 0
      vertex 7.33611 4.89066 15
      vertex 7.33611 4.89066 0
    endloop
  endfacet
  facet normal 0 0 1
    outer loop
      vertex 6 6.45 15
      vertex 7.5 6.45 15
      vertex 7.45891 7.23396 15
    endloop
  endfacet
  facet normal 0 0 1
    outer loop
      vertex 5.96713 7.07717 15
      vertex 7.45891 7.23396 15
      vertex 7.33611 8.00934 15
    endloop
  endfacet
  facet normal 0 0 1
    outer loop
      vertex 7.5 6.45 15
      vertex 6 6.45 15
      vertex 7.45891 5.66604 15
    endloop
  endfacet
  facet normal 0 0 1
    outer loop
      vertex 5.86889 7.69747 15
      vertex 7.33611 8.00934 15
      vertex 7.13292 8.76763 15
    endloop
  endfacet
  facet normal -0 0 1
    outer loop
      vertex 5.96713 5.82283 15
      vertex 7.45891 5.66604 15
      vertex 6 6.45 15
    endloop
  endfacet
  facet normal 0 0 1
    outer loop
      vertex 5.70634 8.3041 15
      vertex 7.13292 8.76763 15
      vertex 6.85159 9.50052 15
    endloop
  endfacet
  facet normal 0 0 1
    outer loop
      vertex 7.45891 5.66604 15
      vertex 5.96713 5.82283 15
      vertex 7.33611 4.89066 15
    endloop
  endfacet
  facet normal 0 0 1
    outer loop
      vertex 5.48127 8.89042 15
      vertex 6.85159 9.50052 15
      vertex 6.49519 10.2 15
    endloop
  endfacet
  facet normal -0 0 1
    outer loop
      vertex 5.86889 5.20253 15
      vertex 7.33611 4.89066 15
      vertex 5.96713 5.82283 15
    endloop
  endfacet
  facet normal 0 0 1
    outer loop
      vertex 5.19615 9.45 15
      vertex 6.49519 10.2 15
      vertex 6.06763 10.8584 15
    endloop
  endfacet
  facet normal 0 0 1
    outer loop
      vertex 7.33611 4.89066 15
      vertex 5.86889 5.20253 15
      vertex 7.13292 4.13237 15
    endloop
  endfacet
  facet normal -0 0 1
    outer loop
      vertex 5.70634 4.5959 15
      vertex 7.13292 4.13237 15
      vertex 5.86889 5.20253 15
    endloop
  endfacet
  facet normal 0 0 1
    outer loop
      vertex 7.45891 7.23396 15
      vertex 5.96713 7.07717 15
      vertex 6 6.45 15
    endloop
  endfacet
  facet normal 0 0 1
    outer loop
      vertex 7.33611 8.00934 15
      vertex 5.86889 7.69747 15
      vertex 5.96713 7.07717 15
    endloop
  endfacet
  facet normal 0 0 1
    outer loop
      vertex 7.13292 8.76763 15
      vertex 5.70634 8.3041 15
      vertex 5.86889 7.69747 15
    endloop
  endfacet
  facet normal 0 0 1
    outer loop
      vertex 4.8541 9.97671 15
      vertex 6.06763 10.8584 15
      vertex 5.57359 11.4685 15
    endloop
  endfacet
  facet normal 0 0 1
    outer loop
      vertex 6.85159 9.50052 15
      vertex 5.48127 8.89042 15
      vertex 5.70634 8.3041 15
    endloop
  endfacet
  facet normal 0 0 1
    outer loop
      vertex 6.49519 10.2 15
      vertex 5.19615 9.45 15
      vertex 5.48127 8.89042 15
    endloop
  endfacet
  facet normal 0 0 1
    outer loop
      vertex 4.45887 10.4648 15
      vertex 5.57359 11.4685 15
      vertex 5.01848 12.0236 15
    endloop
  endfacet
  facet normal 0 0 1
    outer loop
      vertex 6.06763 10.8584 15
      vertex 4.8541 9.97671 15
      vertex 5.19615 9.45 15
    endloop
  endfacet
  facet normal 0 0 1
    outer loop
      vertex 5.57359 11.4685 15
      vertex 4.45887 10.4648 15
      vertex 4.8541 9.97671 15
    endloop
  endfacet
  facet normal 0 0 1
    outer loop
      vertex 4.01478 10.9089 15
      vertex 5.01848 12.0236 15
      vertex 4.40839 12.5176 15
    endloop
  endfacet
  facet normal 0 0 1
    outer loop
      vertex 5.01848 12.0236 15
      vertex 4.01478 10.9089 15
      vertex 4.45887 10.4648 15
    endloop
  endfacet
  facet normal 0 0 1
    outer loop
      vertex 3.52671 11.3041 15
      vertex 4.40839 12.5176 15
      vertex 3.75 12.9452 15
    endloop
  endfacet
  facet normal 0 0 1
    outer loop
      vertex 4.40839 12.5176 15
      vertex 3.52671 11.3041 15
      vertex 4.01478 10.9089 15
    endloop
  endfacet
  facet normal 0 0 1
    outer loop
      vertex 3 11.6462 15
      vertex 3.75 12.9452 15
      vertex 3.05052 13.3016 15
    endloop
  endfacet
  facet normal 0 0 1
    outer loop
      vertex 3.75 12.9452 15
      vertex 3 11.6462 15
      vertex 3.52671 11.3041 15
    endloop
  endfacet
  facet normal 0 0 1
    outer loop
      vertex 3.05052 13.3016 15
      vertex 2.44042 11.9313 15
      vertex 3 11.6462 15
    endloop
  endfacet
  facet normal 0 0 1
    outer loop
      vertex 2.31763 13.5829 15
      vertex 2.44042 11.9313 15
      vertex 3.05052 13.3016 15
    endloop
  endfacet
  facet normal 0 0 1
    outer loop
      vertex 2.31763 13.5829 15
      vertex 1.8541 12.1563 15
      vertex 2.44042 11.9313 15
    endloop
  endfacet
  facet normal 0 0 1
    outer loop
      vertex 1.55934 13.7861 15
      vertex 1.8541 12.1563 15
      vertex 2.31763 13.5829 15
    endloop
  endfacet
  facet normal 0 0 1
    outer loop
      vertex 1.55934 13.7861 15
      vertex 1.24747 12.3189 15
      vertex 1.8541 12.1563 15
    endloop
  endfacet
  facet normal 0 0 1
    outer loop
      vertex 0.783963 13.9089 15
      vertex 1.24747 12.3189 15
      vertex 1.55934 13.7861 15
    endloop
  endfacet
  facet normal 0 0 1
    outer loop
      vertex 0.783963 13.9089 15
      vertex 0.627171 12.4171 15
      vertex 1.24747 12.3189 15
    endloop
  endfacet
  facet normal 0 0 1
    outer loop
      vertex 0 13.95 15
      vertex 0.627171 12.4171 15
      vertex 0.783963 13.9089 15
    endloop
  endfacet
  facet normal 0 0 1
    outer loop
      vertex 0 13.95 15
      vertex 0 12.45 15
      vertex 0.627171 12.4171 15
    endloop
  endfacet
  facet normal 0 0 1
    outer loop
      vertex 0 13.95 15
      vertex -0.627171 12.4171 15
      vertex 0 12.45 15
    endloop
  endfacet
  facet normal -0 0 1
    outer loop
      vertex -0.783963 13.9089 15
      vertex -0.627171 12.4171 15
      vertex 0 13.95 15
    endloop
  endfacet
  facet normal 0 0 1
    outer loop
      vertex -0.783963 13.9089 15
      vertex -1.24747 12.3189 15
      vertex -0.627171 12.4171 15
    endloop
  endfacet
  facet normal -0 0 1
    outer loop
      vertex -1.55934 13.7861 15
      vertex -1.24747 12.3189 15
      vertex -0.783963 13.9089 15
    endloop
  endfacet
  facet normal 0 0 1
    outer loop
      vertex -1.55934 13.7861 15
      vertex -1.8541 12.1563 15
      vertex -1.24747 12.3189 15
    endloop
  endfacet
  facet normal -0 0 1
    outer loop
      vertex -2.31763 13.5829 15
      vertex -1.8541 12.1563 15
      vertex -1.55934 13.7861 15
    endloop
  endfacet
  facet normal 0 0 1
    outer loop
      vertex -2.31763 13.5829 15
      vertex -2.44042 11.9313 15
      vertex -1.8541 12.1563 15
    endloop
  endfacet
  facet normal -0 0 1
    outer loop
      vertex -3.05052 13.3016 15
      vertex -2.44042 11.9313 15
      vertex -2.31763 13.5829 15
    endloop
  endfacet
  facet normal 0 0 1
    outer loop
      vertex -2.44042 11.9313 15
      vertex -3.05052 13.3016 15
      vertex -3 11.6462 15
    endloop
  endfacet
  facet normal -0 0 1
    outer loop
      vertex -3.75 12.9452 15
      vertex -3 11.6462 15
      vertex -3.05052 13.3016 15
    endloop
  endfacet
  facet normal 0 0 1
    outer loop
      vertex -3 11.6462 15
      vertex -3.75 12.9452 15
      vertex -3.52671 11.3041 15
    endloop
  endfacet
  facet normal -0 0 1
    outer loop
      vertex -4.40839 12.5176 15
      vertex -3.52671 11.3041 15
      vertex -3.75 12.9452 15
    endloop
  endfacet
  facet normal 0 0 1
    outer loop
      vertex -3.52671 11.3041 15
      vertex -4.40839 12.5176 15
      vertex -4.01478 10.9089 15
    endloop
  endfacet
  facet normal -0 0 1
    outer loop
      vertex -5.01848 12.0236 15
      vertex -4.01478 10.9089 15
      vertex -4.40839 12.5176 15
    endloop
  endfacet
  facet normal 0 0 1
    outer loop
      vertex -4.01478 10.9089 15
      vertex -5.01848 12.0236 15
      vertex -4.45887 10.4648 15
    endloop
  endfacet
  facet normal -0 0 1
    outer loop
      vertex -5.57359 11.4685 15
      vertex -4.45887 10.4648 15
      vertex -5.01848 12.0236 15
    endloop
  endfacet
  facet normal 0 0 1
    outer loop
      vertex -4.45887 10.4648 15
      vertex -5.57359 11.4685 15
      vertex -4.8541 9.97671 15
    endloop
  endfacet
  facet normal -0 0 1
    outer loop
      vertex -6.06763 10.8584 15
      vertex -4.8541 9.97671 15
      vertex -5.57359 11.4685 15
    endloop
  endfacet
  facet normal 0 0 1
    outer loop
      vertex -4.8541 9.97671 15
      vertex -6.06763 10.8584 15
      vertex -5.19615 9.45 15
    endloop
  endfacet
  facet normal -0 0 1
    outer loop
      vertex -6.49519 10.2 15
      vertex -5.19615 9.45 15
      vertex -6.06763 10.8584 15
    endloop
  endfacet
  facet normal 0 0 1
    outer loop
      vertex -5.19615 9.45 15
      vertex -6.49519 10.2 15
      vertex -5.48127 8.89042 15
    endloop
  endfacet
  facet normal -0 0 1
    outer loop
      vertex -6.85159 9.50052 15
      vertex -5.48127 8.89042 15
      vertex -6.49519 10.2 15
    endloop
  endfacet
  facet normal -0 0 1
    outer loop
      vertex -7.13292 8.76763 15
      vertex -5.70634 8.3041 15
      vertex -6.85159 9.50052 15
    endloop
  endfacet
  facet normal 0 0 1
    outer loop
      vertex -5.48127 8.89042 15
      vertex -6.85159 9.50052 15
      vertex -5.70634 8.3041 15
    endloop
  endfacet
  facet normal 0 0 1
    outer loop
      vertex 7.13292 4.13237 15
      vertex 5.70634 4.5959 15
      vertex 6.85159 3.39948 15
    endloop
  endfacet
  facet normal -0 0 1
    outer loop
      vertex 5.48127 4.00958 15
      vertex 6.85159 3.39948 15
      vertex 5.70634 4.5959 15
    endloop
  endfacet
  facet normal 0 0 1
    outer loop
      vertex 6.85159 3.39948 15
      vertex 5.48127 4.00958 15
      vertex 6.49519 2.7 15
    endloop
  endfacet
  facet normal -0 0 1
    outer loop
      vertex 5.19615 3.45 15
      vertex 6.49519 2.7 15
      vertex 5.48127 4.00958 15
    endloop
  endfacet
  facet normal 0 0 1
    outer loop
      vertex 6.49519 2.7 15
      vertex 5.19615 3.45 15
      vertex 6.06763 2.04161 15
    endloop
  endfacet
  facet normal -0 0 1
    outer loop
      vertex 4.8541 2.92329 15
      vertex 6.06763 2.04161 15
      vertex 5.19615 3.45 15
    endloop
  endfacet
  facet normal 0 0 1
    outer loop
      vertex 6.06763 2.04161 15
      vertex 4.8541 2.92329 15
      vertex 5.57359 1.43152 15
    endloop
  endfacet
  facet normal -0 0 1
    outer loop
      vertex 4.45887 2.43522 15
      vertex 5.57359 1.43152 15
      vertex 4.8541 2.92329 15
    endloop
  endfacet
  facet normal 0 0 1
    outer loop
      vertex 5.57359 1.43152 15
      vertex 4.45887 2.43522 15
      vertex 5.01848 0.876414 15
    endloop
  endfacet
  facet normal -0 0 1
    outer loop
      vertex 4.01478 1.99113 15
      vertex 5.01848 0.876414 15
      vertex 4.45887 2.43522 15
    endloop
  endfacet
  facet normal 0 0 1
    outer loop
      vertex 5.01848 0.876414 15
      vertex 4.01478 1.99113 15
      vertex 4.40839 0.382373 15
    endloop
  endfacet
  facet normal -0 0 1
    outer loop
      vertex 3.52671 1.5959 15
      vertex 4.40839 0.382373 15
      vertex 4.01478 1.99113 15
    endloop
  endfacet
  facet normal 0 0 1
    outer loop
      vertex 4.40839 0.382373 15
      vertex 3.52671 1.5959 15
      vertex 3.75 -0.0451897 15
    endloop
  endfacet
  facet normal -0 0 1
    outer loop
      vertex 3 1.25385 15
      vertex 3.75 -0.0451897 15
      vertex 3.52671 1.5959 15
    endloop
  endfacet
  facet normal 0 0 1
    outer loop
      vertex 3.75 -0.0451897 15
      vertex 3 1.25385 15
      vertex 3.05052 -0.40159 15
    endloop
  endfacet
  facet normal -0 0 1
    outer loop
      vertex 2.44042 0.968727 15
      vertex 3.05052 -0.40159 15
      vertex 3 1.25385 15
    endloop
  endfacet
  facet normal 0 0 1
    outer loop
      vertex 3.05052 -0.40159 15
      vertex 2.44042 0.968727 15
      vertex 2.88907 -0.463567 15
    endloop
  endfacet
  facet normal -0 0 1
    outer loop
      vertex 1.8541 0.743661 15
      vertex 2.88907 -0.463567 15
      vertex 2.44042 0.968727 15
    endloop
  endfacet
  facet normal 0 -0 1
    outer loop
      vertex 1.88358 -5.5 15
      vertex 2.88907 -0.463567 15
      vertex 1.01246 -8.12262e-07 15
    endloop
  endfacet
  facet normal 0 0 1
    outer loop
      vertex 2.88907 -0.463567 15
      vertex 1.8541 0.743661 15
      vertex 1.01246 -8.12262e-07 15
    endloop
  endfacet
  facet normal 0 0 1
    outer loop
      vertex 1.01246 -8.12262e-07 15
      vertex 1.8541 0.743661 15
      vertex 1.24747 0.581115 15
    endloop
  endfacet
  facet normal 0 0 1
    outer loop
      vertex 1.01246 -8.12262e-07 15
      vertex 1.24747 0.581115 15
      vertex 1.10083 0.557889 15
    endloop
  endfacet
  facet normal 0 0 1
    outer loop
      vertex 2.88907 -0.463567 15
      vertex 1.88358 -5.5 15
      vertex 4.4 -5.5 15
    endloop
  endfacet
  facet normal 0 0 1
    outer loop
      vertex -3.05052 -0.40159 15
      vertex -2.44042 0.968727 15
      vertex -3 1.25385 15
    endloop
  endfacet
  facet normal 0 0 1
    outer loop
      vertex -2.44042 0.968727 15
      vertex -3.05052 -0.40159 15
      vertex -2.88907 -0.463567 15
    endloop
  endfacet
  facet normal 0 0 1
    outer loop
      vertex -3.75 -0.0451897 15
      vertex -3 1.25385 15
      vertex -3.52671 1.5959 15
    endloop
  endfacet
  facet normal 0 0 1
    outer loop
      vertex -3 1.25385 15
      vertex -3.75 -0.0451897 15
      vertex -3.05052 -0.40159 15
    endloop
  endfacet
  facet normal 0 0 1
    outer loop
      vertex -4.40839 0.382373 15
      vertex -3.52671 1.5959 15
      vertex -4.01478 1.99113 15
    endloop
  endfacet
  facet normal 0 0 1
    outer loop
      vertex -3.52671 1.5959 15
      vertex -4.40839 0.382373 15
      vertex -3.75 -0.0451897 15
    endloop
  endfacet
  facet normal 0 0 1
    outer loop
      vertex -5.01848 0.876414 15
      vertex -4.01478 1.99113 15
      vertex -4.45887 2.43522 15
    endloop
  endfacet
  facet normal 0 0 1
    outer loop
      vertex -5.57359 1.43152 15
      vertex -4.45887 2.43522 15
      vertex -4.8541 2.92329 15
    endloop
  endfacet
  facet normal 0 0 1
    outer loop
      vertex -4.01478 1.99113 15
      vertex -5.01848 0.876414 15
      vertex -4.40839 0.382373 15
    endloop
  endfacet
  facet normal 0 0 1
    outer loop
      vertex -6.06763 2.04161 15
      vertex -4.8541 2.92329 15
      vertex -5.19615 3.45 15
    endloop
  endfacet
  facet normal 0 0 1
    outer loop
      vertex -6.49519 2.7 15
      vertex -5.19615 3.45 15
      vertex -5.48127 4.00958 15
    endloop
  endfacet
  facet normal 0 0 1
    outer loop
      vertex -4.45887 2.43522 15
      vertex -5.57359 1.43152 15
      vertex -5.01848 0.876414 15
    endloop
  endfacet
  facet normal 0 0 1
    outer loop
      vertex -6.85159 3.39948 15
      vertex -5.48127 4.00958 15
      vertex -5.70634 4.5959 15
    endloop
  endfacet
  facet normal 0 0 1
    outer loop
      vertex -7.13292 4.13237 15
      vertex -5.70634 4.5959 15
      vertex -5.86889 5.20253 15
    endloop
  endfacet
  facet normal 0 0 1
    outer loop
      vertex -7.33611 4.89066 15
      vertex -5.86889 5.20253 15
      vertex -5.96713 5.82283 15
    endloop
  endfacet
  facet normal 0 0 1
    outer loop
      vertex -4.8541 2.92329 15
      vertex -6.06763 2.04161 15
      vertex -5.57359 1.43152 15
    endloop
  endfacet
  facet normal 0 0 1
    outer loop
      vertex -7.45891 5.66604 15
      vertex -5.96713 5.82283 15
      vertex -6 6.45 15
    endloop
  endfacet
  facet normal 0 0 1
    outer loop
      vertex -5.70634 8.3041 15
      vertex -7.13292 8.76763 15
      vertex -5.86889 7.69747 15
    endloop
  endfacet
  facet normal -0 0 1
    outer loop
      vertex -7.33611 8.00934 15
      vertex -5.86889 7.69747 15
      vertex -7.13292 8.76763 15
    endloop
  endfacet
  facet normal 0 0 1
    outer loop
      vertex -5.19615 3.45 15
      vertex -6.49519 2.7 15
      vertex -6.06763 2.04161 15
    endloop
  endfacet
  facet normal 0 0 1
    outer loop
      vertex -5.86889 7.69747 15
      vertex -7.33611 8.00934 15
      vertex -5.96713 7.07717 15
    endloop
  endfacet
  facet normal 0 0 1
    outer loop
      vertex -5.48127 4.00958 15
      vertex -6.85159 3.39948 15
      vertex -6.49519 2.7 15
    endloop
  endfacet
  facet normal -0 0 1
    outer loop
      vertex -7.45891 7.23396 15
      vertex -5.96713 7.07717 15
      vertex -7.33611 8.00934 15
    endloop
  endfacet
  facet normal 0 0 1
    outer loop
      vertex -5.70634 4.5959 15
      vertex -7.13292 4.13237 15
      vertex -6.85159 3.39948 15
    endloop
  endfacet
  facet normal 0 0 1
    outer loop
      vertex -5.96713 7.07717 15
      vertex -7.45891 7.23396 15
      vertex -6 6.45 15
    endloop
  endfacet
  facet normal 0 0 1
    outer loop
      vertex -5.86889 5.20253 15
      vertex -7.33611 4.89066 15
      vertex -7.13292 4.13237 15
    endloop
  endfacet
  facet normal 0 0 1
    outer loop
      vertex -7.5 6.45 15
      vertex -6 6.45 15
      vertex -7.45891 7.23396 15
    endloop
  endfacet
  facet normal 0 0 1
    outer loop
      vertex -5.96713 5.82283 15
      vertex -7.45891 5.66604 15
      vertex -7.33611 4.89066 15
    endloop
  endfacet
  facet normal 0 0 1
    outer loop
      vertex -6 6.45 15
      vertex -7.5 6.45 15
      vertex -7.45891 5.66604 15
    endloop
  endfacet
  facet normal 0 0 1
    outer loop
      vertex -1.24747 0.581115 15
      vertex -1.01246 -8.12262e-07 15
      vertex -1.10083 0.557889 15
    endloop
  endfacet
  facet normal 0 0 1
    outer loop
      vertex -1.8541 0.743661 15
      vertex -1.01246 -8.12262e-07 15
      vertex -1.24747 0.581115 15
    endloop
  endfacet
  facet normal 0 0 1
    outer loop
      vertex -2.88907 -0.463567 15
      vertex -1.01246 -8.12262e-07 15
      vertex -1.8541 0.743661 15
    endloop
  endfacet
  facet normal 0 0 1
    outer loop
      vertex -2.88907 -0.463567 15
      vertex -1.8541 0.743661 15
      vertex -2.44042 0.968727 15
    endloop
  endfacet
  facet normal 0 0 1
    outer loop
      vertex -1.01246 -8.12262e-07 15
      vertex -2.88907 -0.463567 15
      vertex -1.88358 -5.5 15
    endloop
  endfacet
  facet normal 0 0 1
    outer loop
      vertex -1.88358 -5.5 15
      vertex -2.88907 -0.463567 15
      vertex -4.4 -5.5 15
    endloop
  endfacet
  facet normal 0.453988 -0.891008 0
    outer loop
      vertex 3.05052 -0.40159 0
      vertex 3.75 -0.0451897 15
      vertex 3.05052 -0.40159 15
    endloop
  endfacet
  facet normal 0.453988 -0.891008 0
    outer loop
      vertex 3.75 -0.0451897 15
      vertex 3.05052 -0.40159 0
      vertex 3.75 -0.0451897 0
    endloop
  endfacet
  facet normal 0.544638 -0.838671 0
    outer loop
      vertex 3.75 -0.0451897 0
      vertex 4.40839 0.382373 15
      vertex 3.75 -0.0451897 15
    endloop
  endfacet
  facet normal 0.544638 -0.838671 0
    outer loop
      vertex 4.40839 0.382373 15
      vertex 3.75 -0.0451897 0
      vertex 4.40839 0.382373 0
    endloop
  endfacet
  facet normal -0.052354 0.998629 0
    outer loop
      vertex 0 13.95 0
      vertex -0.783963 13.9089 15
      vertex 0 13.95 15
    endloop
  endfacet
  facet normal -0.052354 0.998629 0
    outer loop
      vertex -0.783963 13.9089 15
      vertex 0 13.95 0
      vertex -0.783963 13.9089 0
    endloop
  endfacet
  facet normal -0.258839 0.96592 0
    outer loop
      vertex -1.55934 13.7861 0
      vertex -2.31763 13.5829 15
      vertex -1.55934 13.7861 15
    endloop
  endfacet
  facet normal -0.258839 0.96592 0
    outer loop
      vertex -2.31763 13.5829 15
      vertex -1.55934 13.7861 0
      vertex -2.31763 13.5829 0
    endloop
  endfacet
  facet normal -0.629289 0.777172 0
    outer loop
      vertex -4.40839 12.5176 0
      vertex -5.01848 12.0236 15
      vertex -4.40839 12.5176 15
    endloop
  endfacet
  facet normal -0.629289 0.777172 0
    outer loop
      vertex -5.01848 12.0236 15
      vertex -4.40839 12.5176 0
      vertex -5.01848 12.0236 0
    endloop
  endfacet
  facet normal -0.453988 0.891008 0
    outer loop
      vertex -3.05052 13.3016 0
      vertex -3.75 12.9452 15
      vertex -3.05052 13.3016 15
    endloop
  endfacet
  facet normal -0.453988 0.891008 0
    outer loop
      vertex -3.75 12.9452 15
      vertex -3.05052 13.3016 0
      vertex -3.75 12.9452 0
    endloop
  endfacet
  facet normal -0.777152 0.629313 0
    outer loop
      vertex -6.06763 10.8584 0
      vertex -5.57359 11.4685 15
      vertex -5.57359 11.4685 0
    endloop
  endfacet
  facet normal -0.777152 0.629313 0
    outer loop
      vertex -5.57359 11.4685 15
      vertex -6.06763 10.8584 0
      vertex -6.06763 10.8584 15
    endloop
  endfacet
  facet normal -0.891008 0.453988 0
    outer loop
      vertex -6.85159 9.50052 0
      vertex -6.49519 10.2 15
      vertex -6.49519 10.2 0
    endloop
  endfacet
  facet normal -0.891008 0.453988 0
    outer loop
      vertex -6.49519 10.2 15
      vertex -6.85159 9.50052 0
      vertex -6.85159 9.50052 15
    endloop
  endfacet
  facet normal 0.7071 0.707113 0
    outer loop
      vertex 5.57359 11.4685 15
      vertex 5.01848 12.0236 0
      vertex 5.01848 12.0236 15
    endloop
  endfacet
  facet normal 0.7071 0.707113 0
    outer loop
      vertex 5.01848 12.0236 0
      vertex 5.57359 11.4685 15
      vertex 5.57359 11.4685 0
    endloop
  endfacet
  facet normal 0.544672 0.838649 -0
    outer loop
      vertex 4.40839 12.5176 0
      vertex 3.75 12.9452 15
      vertex 4.40839 12.5176 15
    endloop
  endfacet
  facet normal 0.544672 0.838649 0
    outer loop
      vertex 3.75 12.9452 15
      vertex 4.40839 12.5176 0
      vertex 3.75 12.9452 0
    endloop
  endfacet
  facet normal 0.358335 0.933593 -0
    outer loop
      vertex 3.05052 13.3016 0
      vertex 2.31763 13.5829 15
      vertex 3.05052 13.3016 15
    endloop
  endfacet
  facet normal 0.358335 0.933593 0
    outer loop
      vertex 2.31763 13.5829 15
      vertex 3.05052 13.3016 0
      vertex 2.31763 13.5829 0
    endloop
  endfacet
  facet normal 0.156425 0.98769 -0
    outer loop
      vertex 1.55934 13.7861 0
      vertex 0.783963 13.9089 15
      vertex 1.55934 13.7861 15
    endloop
  endfacet
  facet normal 0.156425 0.98769 0
    outer loop
      vertex 0.783963 13.9089 15
      vertex 1.55934 13.7861 0
      vertex 0.783963 13.9089 0
    endloop
  endfacet
  facet normal 0.891008 0.453988 0
    outer loop
      vertex 6.85159 9.50052 15
      vertex 6.49519 10.2 0
      vertex 6.49519 10.2 15
    endloop
  endfacet
  facet normal 0.891008 0.453988 0
    outer loop
      vertex 6.49519 10.2 0
      vertex 6.85159 9.50052 15
      vertex 6.85159 9.50052 0
    endloop
  endfacet
  facet normal 0.777152 0.629313 0
    outer loop
      vertex 6.06763 10.8584 15
      vertex 5.57359 11.4685 0
      vertex 5.57359 11.4685 15
    endloop
  endfacet
  facet normal 0.777152 0.629313 0
    outer loop
      vertex 5.57359 11.4685 0
      vertex 6.06763 10.8584 15
      vertex 6.06763 10.8584 0
    endloop
  endfacet
  facet normal 0.965924 0.258827 0
    outer loop
      vertex 7.33611 8.00934 15
      vertex 7.13292 8.76763 0
      vertex 7.13292 8.76763 15
    endloop
  endfacet
  facet normal 0.965924 0.258827 0
    outer loop
      vertex 7.13292 8.76763 0
      vertex 7.33611 8.00934 15
      vertex 7.33611 8.00934 0
    endloop
  endfacet
  facet normal 0 0 -1
    outer loop
      vertex -1.01246 -8.12262e-07 0
      vertex -1.24747 0.581115 0
      vertex -1.10083 0.557889 0
    endloop
  endfacet
  facet normal 0 0 -1
    outer loop
      vertex -1.01246 -8.12262e-07 0
      vertex -1.8541 0.743661 0
      vertex -1.24747 0.581115 0
    endloop
  endfacet
  facet normal 0 0 -1
    outer loop
      vertex -2.88907 -0.463567 0
      vertex -1.01246 -8.12262e-07 0
      vertex -1.88358 -5.5 0
    endloop
  endfacet
  facet normal -0 0 -1
    outer loop
      vertex -1.01246 -8.12262e-07 0
      vertex -2.88907 -0.463567 0
      vertex -1.8541 0.743661 0
    endloop
  endfacet
  facet normal -0 0 -1
    outer loop
      vertex -1.8541 0.743661 0
      vertex -2.88907 -0.463567 0
      vertex -2.44042 0.968727 0
    endloop
  endfacet
  facet normal 0 -0 -1
    outer loop
      vertex -2.88907 -0.463567 0
      vertex -1.88358 -5.5 0
      vertex -4.4 -5.5 0
    endloop
  endfacet
  facet normal 0 0 -1
    outer loop
      vertex -3.05052 -0.40159 0
      vertex -2.44042 0.968727 0
      vertex -2.88907 -0.463567 0
    endloop
  endfacet
  facet normal -0 0 -1
    outer loop
      vertex -2.44042 0.968727 0
      vertex -3.05052 -0.40159 0
      vertex -3 1.25385 0
    endloop
  endfacet
  facet normal 0 0 -1
    outer loop
      vertex -3.75 -0.0451897 0
      vertex -3 1.25385 0
      vertex -3.05052 -0.40159 0
    endloop
  endfacet
  facet normal -0 0 -1
    outer loop
      vertex -3 1.25385 0
      vertex -3.75 -0.0451897 0
      vertex -3.52671 1.5959 0
    endloop
  endfacet
  facet normal 0 0 -1
    outer loop
      vertex -4.40839 0.382373 0
      vertex -3.52671 1.5959 0
      vertex -3.75 -0.0451897 0
    endloop
  endfacet
  facet normal -0 0 -1
    outer loop
      vertex -3.52671 1.5959 0
      vertex -4.40839 0.382373 0
      vertex -4.01478 1.99113 0
    endloop
  endfacet
  facet normal 0 0 -1
    outer loop
      vertex -5.01848 0.876414 0
      vertex -4.01478 1.99113 0
      vertex -4.40839 0.382373 0
    endloop
  endfacet
  facet normal -0 0 -1
    outer loop
      vertex -4.01478 1.99113 0
      vertex -5.01848 0.876414 0
      vertex -4.45887 2.43522 0
    endloop
  endfacet
  facet normal 0 0 -1
    outer loop
      vertex -5.57359 1.43152 0
      vertex -4.45887 2.43522 0
      vertex -5.01848 0.876414 0
    endloop
  endfacet
  facet normal -0 0 -1
    outer loop
      vertex -4.45887 2.43522 0
      vertex -5.57359 1.43152 0
      vertex -4.8541 2.92329 0
    endloop
  endfacet
  facet normal 0 0 -1
    outer loop
      vertex -6.06763 2.04161 0
      vertex -4.8541 2.92329 0
      vertex -5.57359 1.43152 0
    endloop
  endfacet
  facet normal -0 0 -1
    outer loop
      vertex -4.8541 2.92329 0
      vertex -6.06763 2.04161 0
      vertex -5.19615 3.45 0
    endloop
  endfacet
  facet normal 0 0 -1
    outer loop
      vertex -6.49519 2.7 0
      vertex -5.19615 3.45 0
      vertex -6.06763 2.04161 0
    endloop
  endfacet
  facet normal -0 0 -1
    outer loop
      vertex -5.19615 3.45 0
      vertex -6.49519 2.7 0
      vertex -5.48127 4.00958 0
    endloop
  endfacet
  facet normal 0 0 -1
    outer loop
      vertex -6.85159 3.39948 0
      vertex -5.48127 4.00958 0
      vertex -6.49519 2.7 0
    endloop
  endfacet
  facet normal 0 0 -1
    outer loop
      vertex -7.13292 4.13237 0
      vertex -5.70634 4.5959 0
      vertex -6.85159 3.39948 0
    endloop
  endfacet
  facet normal -0 0 -1
    outer loop
      vertex -5.48127 4.00958 0
      vertex -6.85159 3.39948 0
      vertex -5.70634 4.5959 0
    endloop
  endfacet
  facet normal 0 0 -1
    outer loop
      vertex 1.88358 -5.5 0
      vertex 2.88907 -0.463567 0
      vertex 4.4 -5.5 0
    endloop
  endfacet
  facet normal -0 0 -1
    outer loop
      vertex 2.88907 -0.463567 0
      vertex 1.88358 -5.5 0
      vertex 1.01246 -8.12262e-07 0
    endloop
  endfacet
  facet normal 0 -0 -1
    outer loop
      vertex 1.8541 0.743661 0
      vertex 2.88907 -0.463567 0
      vertex 1.01246 -8.12262e-07 0
    endloop
  endfacet
  facet normal 0 0 -1
    outer loop
      vertex 2.88907 -0.463567 0
      vertex 1.8541 0.743661 0
      vertex 2.44042 0.968727 0
    endloop
  endfacet
  facet normal 0 0 -1
    outer loop
      vertex 1.8541 0.743661 0
      vertex 1.01246 -8.12262e-07 0
      vertex 1.24747 0.581115 0
    endloop
  endfacet
  facet normal 0 0 -1
    outer loop
      vertex 1.24747 0.581115 0
      vertex 1.01246 -8.12262e-07 0
      vertex 1.10083 0.557889 0
    endloop
  endfacet
  facet normal 0 0 -1
    outer loop
      vertex 6 6.45 0
      vertex 7.5 6.45 0
      vertex 7.45891 5.66604 0
    endloop
  endfacet
  facet normal 0 0 -1
    outer loop
      vertex 5.96713 5.82283 0
      vertex 7.45891 5.66604 0
      vertex 7.33611 4.89066 0
    endloop
  endfacet
  facet normal 0 0 -1
    outer loop
      vertex 7.5 6.45 0
      vertex 6 6.45 0
      vertex 7.45891 7.23396 0
    endloop
  endfacet
  facet normal 0 0 -1
    outer loop
      vertex 5.86889 5.20253 0
      vertex 7.33611 4.89066 0
      vertex 7.13292 4.13237 0
    endloop
  endfacet
  facet normal 0 0 -1
    outer loop
      vertex 5.96713 7.07717 0
      vertex 7.45891 7.23396 0
      vertex 6 6.45 0
    endloop
  endfacet
  facet normal 0 0 -1
    outer loop
      vertex 5.70634 4.5959 0
      vertex 7.13292 4.13237 0
      vertex 6.85159 3.39948 0
    endloop
  endfacet
  facet normal -0 0 -1
    outer loop
      vertex 7.45891 7.23396 0
      vertex 5.96713 7.07717 0
      vertex 7.33611 8.00934 0
    endloop
  endfacet
  facet normal 0 0 -1
    outer loop
      vertex 5.48127 4.00958 0
      vertex 6.85159 3.39948 0
      vertex 6.49519 2.7 0
    endloop
  endfacet
  facet normal 0 0 -1
    outer loop
      vertex 5.86889 7.69747 0
      vertex 7.33611 8.00934 0
      vertex 5.96713 7.07717 0
    endloop
  endfacet
  facet normal 0 0 -1
    outer loop
      vertex 5.19615 3.45 0
      vertex 6.49519 2.7 0
      vertex 6.06763 2.04161 0
    endloop
  endfacet
  facet normal -0 0 -1
    outer loop
      vertex 7.33611 8.00934 0
      vertex 5.86889 7.69747 0
      vertex 7.13292 8.76763 0
    endloop
  endfacet
  facet normal 0 0 -1
    outer loop
      vertex 5.70634 8.3041 0
      vertex 7.13292 8.76763 0
      vertex 5.86889 7.69747 0
    endloop
  endfacet
  facet normal 0 0 -1
    outer loop
      vertex 7.45891 5.66604 0
      vertex 5.96713 5.82283 0
      vertex 6 6.45 0
    endloop
  endfacet
  facet normal 0 0 -1
    outer loop
      vertex 7.33611 4.89066 0
      vertex 5.86889 5.20253 0
      vertex 5.96713 5.82283 0
    endloop
  endfacet
  facet normal 0 0 -1
    outer loop
      vertex 7.13292 4.13237 0
      vertex 5.70634 4.5959 0
      vertex 5.86889 5.20253 0
    endloop
  endfacet
  facet normal 0 0 -1
    outer loop
      vertex 4.8541 2.92329 0
      vertex 6.06763 2.04161 0
      vertex 5.57359 1.43152 0
    endloop
  endfacet
  facet normal 0 0 -1
    outer loop
      vertex 6.85159 3.39948 0
      vertex 5.48127 4.00958 0
      vertex 5.70634 4.5959 0
    endloop
  endfacet
  facet normal 0 0 -1
    outer loop
      vertex 6.49519 2.7 0
      vertex 5.19615 3.45 0
      vertex 5.48127 4.00958 0
    endloop
  endfacet
  facet normal 0 0 -1
    outer loop
      vertex 4.45887 2.43522 0
      vertex 5.57359 1.43152 0
      vertex 5.01848 0.876414 0
    endloop
  endfacet
  facet normal 0 0 -1
    outer loop
      vertex 6.06763 2.04161 0
      vertex 4.8541 2.92329 0
      vertex 5.19615 3.45 0
    endloop
  endfacet
  facet normal 0 0 -1
    outer loop
      vertex 5.57359 1.43152 0
      vertex 4.45887 2.43522 0
      vertex 4.8541 2.92329 0
    endloop
  endfacet
  facet normal 0 0 -1
    outer loop
      vertex 4.01478 1.99113 0
      vertex 5.01848 0.876414 0
      vertex 4.40839 0.382373 0
    endloop
  endfacet
  facet normal 0 0 -1
    outer loop
      vertex 5.01848 0.876414 0
      vertex 4.01478 1.99113 0
      vertex 4.45887 2.43522 0
    endloop
  endfacet
  facet normal 0 0 -1
    outer loop
      vertex 3.52671 1.5959 0
      vertex 4.40839 0.382373 0
      vertex 3.75 -0.0451897 0
    endloop
  endfacet
  facet normal 0 0 -1
    outer loop
      vertex 4.40839 0.382373 0
      vertex 3.52671 1.5959 0
      vertex 4.01478 1.99113 0
    endloop
  endfacet
  facet normal 0 0 -1
    outer loop
      vertex 3 1.25385 0
      vertex 3.75 -0.0451897 0
      vertex 3.05052 -0.40159 0
    endloop
  endfacet
  facet normal 0 0 -1
    outer loop
      vertex 3.75 -0.0451897 0
      vertex 3 1.25385 0
      vertex 3.52671 1.5959 0
    endloop
  endfacet
  facet normal 0 0 -1
    outer loop
      vertex 2.44042 0.968727 0
      vertex 3.05052 -0.40159 0
      vertex 2.88907 -0.463567 0
    endloop
  endfacet
  facet normal 0 0 -1
    outer loop
      vertex 3.05052 -0.40159 0
      vertex 2.44042 0.968727 0
      vertex 3 1.25385 0
    endloop
  endfacet
  facet normal -0 0 -1
    outer loop
      vertex 7.13292 8.76763 0
      vertex 5.70634 8.3041 0
      vertex 6.85159 9.50052 0
    endloop
  endfacet
  facet normal 0 0 -1
    outer loop
      vertex 5.48127 8.89042 0
      vertex 6.85159 9.50052 0
      vertex 5.70634 8.3041 0
    endloop
  endfacet
  facet normal -0 0 -1
    outer loop
      vertex 6.85159 9.50052 0
      vertex 5.48127 8.89042 0
      vertex 6.49519 10.2 0
    endloop
  endfacet
  facet normal 0 0 -1
    outer loop
      vertex 5.19615 9.45 0
      vertex 6.49519 10.2 0
      vertex 5.48127 8.89042 0
    endloop
  endfacet
  facet normal -0 0 -1
    outer loop
      vertex 6.49519 10.2 0
      vertex 5.19615 9.45 0
      vertex 6.06763 10.8584 0
    endloop
  endfacet
  facet normal 0 0 -1
    outer loop
      vertex 4.8541 9.97671 0
      vertex 6.06763 10.8584 0
      vertex 5.19615 9.45 0
    endloop
  endfacet
  facet normal -0 0 -1
    outer loop
      vertex 6.06763 10.8584 0
      vertex 4.8541 9.97671 0
      vertex 5.57359 11.4685 0
    endloop
  endfacet
  facet normal 0 0 -1
    outer loop
      vertex 4.45887 10.4648 0
      vertex 5.57359 11.4685 0
      vertex 4.8541 9.97671 0
    endloop
  endfacet
  facet normal -0 0 -1
    outer loop
      vertex 5.57359 11.4685 0
      vertex 4.45887 10.4648 0
      vertex 5.01848 12.0236 0
    endloop
  endfacet
  facet normal 0 0 -1
    outer loop
      vertex 4.01478 10.9089 0
      vertex 5.01848 12.0236 0
      vertex 4.45887 10.4648 0
    endloop
  endfacet
  facet normal -0 0 -1
    outer loop
      vertex 5.01848 12.0236 0
      vertex 4.01478 10.9089 0
      vertex 4.40839 12.5176 0
    endloop
  endfacet
  facet normal 0 0 -1
    outer loop
      vertex 3.52671 11.3041 0
      vertex 4.40839 12.5176 0
      vertex 4.01478 10.9089 0
    endloop
  endfacet
  facet normal -0 0 -1
    outer loop
      vertex 4.40839 12.5176 0
      vertex 3.52671 11.3041 0
      vertex 3.75 12.9452 0
    endloop
  endfacet
  facet normal 0 0 -1
    outer loop
      vertex 3 11.6462 0
      vertex 3.75 12.9452 0
      vertex 3.52671 11.3041 0
    endloop
  endfacet
  facet normal -0 0 -1
    outer loop
      vertex 3.75 12.9452 0
      vertex 3 11.6462 0
      vertex 3.05052 13.3016 0
    endloop
  endfacet
  facet normal 0 0 -1
    outer loop
      vertex 2.44042 11.9313 0
      vertex 3.05052 13.3016 0
      vertex 3 11.6462 0
    endloop
  endfacet
  facet normal 0 0 -1
    outer loop
      vertex 2.44042 11.9313 0
      vertex 2.31763 13.5829 0
      vertex 3.05052 13.3016 0
    endloop
  endfacet
  facet normal 0 0 -1
    outer loop
      vertex 1.8541 12.1563 0
      vertex 2.31763 13.5829 0
      vertex 2.44042 11.9313 0
    endloop
  endfacet
  facet normal 0 0 -1
    outer loop
      vertex 1.8541 12.1563 0
      vertex 1.55934 13.7861 0
      vertex 2.31763 13.5829 0
    endloop
  endfacet
  facet normal 0 0 -1
    outer loop
      vertex 1.24747 12.3189 0
      vertex 1.55934 13.7861 0
      vertex 1.8541 12.1563 0
    endloop
  endfacet
  facet normal 0 0 -1
    outer loop
      vertex 1.24747 12.3189 0
      vertex 0.783963 13.9089 0
      vertex 1.55934 13.7861 0
    endloop
  endfacet
  facet normal 0 0 -1
    outer loop
      vertex 0.627171 12.4171 0
      vertex 0.783963 13.9089 0
      vertex 1.24747 12.3189 0
    endloop
  endfacet
  facet normal 0 0 -1
    outer loop
      vertex 0 12.45 0
      vertex 0.783963 13.9089 0
      vertex 0.627171 12.4171 0
    endloop
  endfacet
  facet normal 0 0 -1
    outer loop
      vertex 0 12.45 0
      vertex 0 13.95 0
      vertex 0.783963 13.9089 0
    endloop
  endfacet
  facet normal 0 0 -1
    outer loop
      vertex -0.627171 12.4171 0
      vertex 0 13.95 0
      vertex 0 12.45 0
    endloop
  endfacet
  facet normal 0 0 -1
    outer loop
      vertex -0.627171 12.4171 0
      vertex -0.783963 13.9089 0
      vertex 0 13.95 0
    endloop
  endfacet
  facet normal 0 0 -1
    outer loop
      vertex -1.24747 12.3189 0
      vertex -0.783963 13.9089 0
      vertex -0.627171 12.4171 0
    endloop
  endfacet
  facet normal 0 0 -1
    outer loop
      vertex -1.24747 12.3189 0
      vertex -1.55934 13.7861 0
      vertex -0.783963 13.9089 0
    endloop
  endfacet
  facet normal 0 0 -1
    outer loop
      vertex -1.8541 12.1563 0
      vertex -1.55934 13.7861 0
      vertex -1.24747 12.3189 0
    endloop
  endfacet
  facet normal 0 0 -1
    outer loop
      vertex -1.8541 12.1563 0
      vertex -2.31763 13.5829 0
      vertex -1.55934 13.7861 0
    endloop
  endfacet
  facet normal 0 0 -1
    outer loop
      vertex -2.44042 11.9313 0
      vertex -2.31763 13.5829 0
      vertex -1.8541 12.1563 0
    endloop
  endfacet
  facet normal 0 0 -1
    outer loop
      vertex -3.05052 13.3016 0
      vertex -2.44042 11.9313 0
      vertex -3 11.6462 0
    endloop
  endfacet
  facet normal 0 0 -1
    outer loop
      vertex -2.44042 11.9313 0
      vertex -3.05052 13.3016 0
      vertex -2.31763 13.5829 0
    endloop
  endfacet
  facet normal 0 0 -1
    outer loop
      vertex -3.75 12.9452 0
      vertex -3 11.6462 0
      vertex -3.52671 11.3041 0
    endloop
  endfacet
  facet normal 0 0 -1
    outer loop
      vertex -3 11.6462 0
      vertex -3.75 12.9452 0
      vertex -3.05052 13.3016 0
    endloop
  endfacet
  facet normal 0 0 -1
    outer loop
      vertex -4.40839 12.5176 0
      vertex -3.52671 11.3041 0
      vertex -4.01478 10.9089 0
    endloop
  endfacet
  facet normal 0 0 -1
    outer loop
      vertex -3.52671 11.3041 0
      vertex -4.40839 12.5176 0
      vertex -3.75 12.9452 0
    endloop
  endfacet
  facet normal 0 0 -1
    outer loop
      vertex -5.01848 12.0236 0
      vertex -4.01478 10.9089 0
      vertex -4.45887 10.4648 0
    endloop
  endfacet
  facet normal 0 0 -1
    outer loop
      vertex -5.57359 11.4685 0
      vertex -4.45887 10.4648 0
      vertex -4.8541 9.97671 0
    endloop
  endfacet
  facet normal 0 0 -1
    outer loop
      vertex -4.01478 10.9089 0
      vertex -5.01848 12.0236 0
      vertex -4.40839 12.5176 0
    endloop
  endfacet
  facet normal 0 0 -1
    outer loop
      vertex -6.06763 10.8584 0
      vertex -4.8541 9.97671 0
      vertex -5.19615 9.45 0
    endloop
  endfacet
  facet normal 0 0 -1
    outer loop
      vertex -6.49519 10.2 0
      vertex -5.19615 9.45 0
      vertex -5.48127 8.89042 0
    endloop
  endfacet
  facet normal 0 0 -1
    outer loop
      vertex -4.45887 10.4648 0
      vertex -5.57359 11.4685 0
      vertex -5.01848 12.0236 0
    endloop
  endfacet
  facet normal 0 0 -1
    outer loop
      vertex -6.85159 9.50052 0
      vertex -5.48127 8.89042 0
      vertex -5.70634 8.3041 0
    endloop
  endfacet
  facet normal 0 0 -1
    outer loop
      vertex -7.13292 8.76763 0
      vertex -5.70634 8.3041 0
      vertex -5.86889 7.69747 0
    endloop
  endfacet
  facet normal 0 0 -1
    outer loop
      vertex -7.33611 8.00934 0
      vertex -5.86889 7.69747 0
      vertex -5.96713 7.07717 0
    endloop
  endfacet
  facet normal 0 0 -1
    outer loop
      vertex -4.8541 9.97671 0
      vertex -6.06763 10.8584 0
      vertex -5.57359 11.4685 0
    endloop
  endfacet
  facet normal 0 0 -1
    outer loop
      vertex -7.45891 7.23396 0
      vertex -5.96713 7.07717 0
      vertex -6 6.45 0
    endloop
  endfacet
  facet normal -0 0 -1
    outer loop
      vertex -5.70634 4.5959 0
      vertex -7.13292 4.13237 0
      vertex -5.86889 5.20253 0
    endloop
  endfacet
  facet normal 0 0 -1
    outer loop
      vertex -7.33611 4.89066 0
      vertex -5.86889 5.20253 0
      vertex -7.13292 4.13237 0
    endloop
  endfacet
  facet normal 0 0 -1
    outer loop
      vertex -5.19615 9.45 0
      vertex -6.49519 10.2 0
      vertex -6.06763 10.8584 0
    endloop
  endfacet
  facet normal -0 0 -1
    outer loop
      vertex -5.86889 5.20253 0
      vertex -7.33611 4.89066 0
      vertex -5.96713 5.82283 0
    endloop
  endfacet
  facet normal 0 0 -1
    outer loop
      vertex -5.48127 8.89042 0
      vertex -6.85159 9.50052 0
      vertex -6.49519 10.2 0
    endloop
  endfacet
  facet normal 0 0 -1
    outer loop
      vertex -7.45891 5.66604 0
      vertex -5.96713 5.82283 0
      vertex -7.33611 4.89066 0
    endloop
  endfacet
  facet normal 0 0 -1
    outer loop
      vertex -5.70634 8.3041 0
      vertex -7.13292 8.76763 0
      vertex -6.85159 9.50052 0
    endloop
  endfacet
  facet normal -0 0 -1
    outer loop
      vertex -5.96713 5.82283 0
      vertex -7.45891 5.66604 0
      vertex -6 6.45 0
    endloop
  endfacet
  facet normal 0 0 -1
    outer loop
      vertex -5.86889 7.69747 0
      vertex -7.33611 8.00934 0
      vertex -7.13292 8.76763 0
    endloop
  endfacet
  facet normal 0 0 -1
    outer loop
      vertex -7.5 6.45 0
      vertex -6 6.45 0
      vertex -7.45891 5.66604 0
    endloop
  endfacet
  facet normal 0 0 -1
    outer loop
      vertex -5.96713 7.07717 0
      vertex -7.45891 7.23396 0
      vertex -7.33611 8.00934 0
    endloop
  endfacet
  facet normal 0 0 -1
    outer loop
      vertex -6 6.45 0
      vertex -7.5 6.45 0
      vertex -7.45891 7.23396 0
    endloop
  endfacet
  facet normal -0.156425 0.98769 0
    outer loop
      vertex -0.783963 13.9089 0
      vertex -1.55934 13.7861 15
      vertex -0.783963 13.9089 15
    endloop
  endfacet
  facet normal -0.156425 0.98769 0
    outer loop
      vertex -1.55934 13.7861 15
      vertex -0.783963 13.9089 0
      vertex -1.55934 13.7861 0
    endloop
  endfacet
  facet normal -0.358335 0.933593 0
    outer loop
      vertex -2.31763 13.5829 0
      vertex -3.05052 13.3016 15
      vertex -2.31763 13.5829 15
    endloop
  endfacet
  facet normal -0.358335 0.933593 0
    outer loop
      vertex -3.05052 13.3016 15
      vertex -2.31763 13.5829 0
      vertex -3.05052 13.3016 0
    endloop
  endfacet
  facet normal -0.7071 0.707113 0
    outer loop
      vertex -5.57359 11.4685 0
      vertex -5.01848 12.0236 15
      vertex -5.01848 12.0236 0
    endloop
  endfacet
  facet normal -0.7071 0.707113 0
    outer loop
      vertex -5.01848 12.0236 15
      vertex -5.57359 11.4685 0
      vertex -5.57359 11.4685 15
    endloop
  endfacet
  facet normal -0.544672 0.838649 0
    outer loop
      vertex -3.75 12.9452 0
      vertex -4.40839 12.5176 15
      vertex -3.75 12.9452 15
    endloop
  endfacet
  facet normal -0.544672 0.838649 0
    outer loop
      vertex -4.40839 12.5176 15
      vertex -3.75 12.9452 0
      vertex -4.40839 12.5176 0
    endloop
  endfacet
  facet normal -0.838676 0.54463 0
    outer loop
      vertex -6.49519 10.2 0
      vertex -6.06763 10.8584 15
      vertex -6.06763 10.8584 0
    endloop
  endfacet
  facet normal -0.838676 0.54463 0
    outer loop
      vertex -6.06763 10.8584 15
      vertex -6.49519 10.2 0
      vertex -6.49519 10.2 15
    endloop
  endfacet
  facet normal -0.93358 0.358368 0
    outer loop
      vertex -7.13292 8.76763 0
      vertex -6.85159 9.50052 15
      vertex -6.85159 9.50052 0
    endloop
  endfacet
  facet normal -0.93358 0.358368 0
    outer loop
      vertex -6.85159 9.50052 15
      vertex -7.13292 8.76763 0
      vertex -7.13292 8.76763 15
    endloop
  endfacet
  facet normal -0.98769 0.156424 0
    outer loop
      vertex -7.45891 7.23396 0
      vertex -7.33611 8.00934 15
      vertex -7.33611 8.00934 0
    endloop
  endfacet
  facet normal -0.98769 0.156424 0
    outer loop
      vertex -7.33611 8.00934 15
      vertex -7.45891 7.23396 0
      vertex -7.45891 7.23396 15
    endloop
  endfacet
  facet normal -0.998629 0.0523415 0
    outer loop
      vertex -7.5 6.45 0
      vertex -7.45891 7.23396 15
      vertex -7.45891 7.23396 0
    endloop
  endfacet
  facet normal -0.998629 0.0523415 0
    outer loop
      vertex -7.45891 7.23396 15
      vertex -7.5 6.45 0
      vertex -7.5 6.45 15
    endloop
  endfacet
  facet normal 0.629289 0.777172 -0
    outer loop
      vertex 5.01848 12.0236 0
      vertex 4.40839 12.5176 15
      vertex 5.01848 12.0236 15
    endloop
  endfacet
  facet normal 0.629289 0.777172 0
    outer loop
      vertex 4.40839 12.5176 15
      vertex 5.01848 12.0236 0
      vertex 4.40839 12.5176 0
    endloop
  endfacet
  facet normal 0.453988 0.891008 -0
    outer loop
      vertex 3.75 12.9452 0
      vertex 3.05052 13.3016 15
      vertex 3.75 12.9452 15
    endloop
  endfacet
  facet normal 0.453988 0.891008 0
    outer loop
      vertex 3.05052 13.3016 15
      vertex 3.75 12.9452 0
      vertex 3.05052 13.3016 0
    endloop
  endfacet
  facet normal 0.258839 0.96592 -0
    outer loop
      vertex 2.31763 13.5829 0
      vertex 1.55934 13.7861 15
      vertex 2.31763 13.5829 15
    endloop
  endfacet
  facet normal 0.258839 0.96592 0
    outer loop
      vertex 1.55934 13.7861 15
      vertex 2.31763 13.5829 0
      vertex 1.55934 13.7861 0
    endloop
  endfacet
  facet normal 0.052354 0.998629 -0
    outer loop
      vertex 0.783963 13.9089 0
      vertex 0 13.95 15
      vertex 0.783963 13.9089 15
    endloop
  endfacet
  facet normal 0.052354 0.998629 0
    outer loop
      vertex 0 13.95 15
      vertex 0.783963 13.9089 0
      vertex 0 13.95 0
    endloop
  endfacet
  facet normal 0.838676 0.54463 0
    outer loop
      vertex 6.49519 10.2 15
      vertex 6.06763 10.8584 0
      vertex 6.06763 10.8584 15
    endloop
  endfacet
  facet normal 0.838676 0.54463 0
    outer loop
      vertex 6.06763 10.8584 0
      vertex 6.49519 10.2 15
      vertex 6.49519 10.2 0
    endloop
  endfacet
  facet normal 0.93358 0.358368 0
    outer loop
      vertex 7.13292 8.76763 15
      vertex 6.85159 9.50052 0
      vertex 6.85159 9.50052 15
    endloop
  endfacet
  facet normal 0.93358 0.358368 0
    outer loop
      vertex 6.85159 9.50052 0
      vertex 7.13292 8.76763 15
      vertex 7.13292 8.76763 0
    endloop
  endfacet
  facet normal 0.98769 0.156424 0
    outer loop
      vertex 7.45891 7.23396 15
      vertex 7.33611 8.00934 0
      vertex 7.33611 8.00934 15
    endloop
  endfacet
  facet normal 0.98769 0.156424 0
    outer loop
      vertex 7.33611 8.00934 0
      vertex 7.45891 7.23396 15
      vertex 7.45891 7.23396 0
    endloop
  endfacet
  facet normal 0.998629 0.0523382 0
    outer loop
      vertex -5.96713 5.82283 15
      vertex -6 6.45 0
      vertex -6 6.45 15
    endloop
  endfacet
  facet normal 0.998629 0.0523382 0
    outer loop
      vertex -6 6.45 0
      vertex -5.96713 5.82283 15
      vertex -5.96713 5.82283 0
    endloop
  endfacet
  facet normal -0.998629 0.0523382 0
    outer loop
      vertex 5.96713 5.82283 0
      vertex 6 6.45 15
      vertex 6 6.45 0
    endloop
  endfacet
  facet normal -0.998629 0.0523382 0
    outer loop
      vertex 6 6.45 15
      vertex 5.96713 5.82283 0
      vertex 5.96713 5.82283 15
    endloop
  endfacet
  facet normal -0.0523858 -0.998627 0
    outer loop
      vertex 0 12.45 0
      vertex 0.627171 12.4171 15
      vertex 0 12.45 15
    endloop
  endfacet
  facet normal -0.0523858 -0.998627 -0
    outer loop
      vertex 0.627171 12.4171 15
      vertex 0 12.45 0
      vertex 0.627171 12.4171 0
    endloop
  endfacet
  facet normal 0.707107 0.707107 0
    outer loop
      vertex -4.01478 1.99113 15
      vertex -4.45887 2.43522 0
      vertex -4.45887 2.43522 15
    endloop
  endfacet
  facet normal 0.707107 0.707107 0
    outer loop
      vertex -4.45887 2.43522 0
      vertex -4.01478 1.99113 15
      vertex -4.01478 1.99113 0
    endloop
  endfacet
  facet normal -0.629319 0.777147 0
    outer loop
      vertex 4.01478 1.99113 0
      vertex 3.52671 1.5959 15
      vertex 4.01478 1.99113 15
    endloop
  endfacet
  facet normal -0.629319 0.777147 0
    outer loop
      vertex 3.52671 1.5959 15
      vertex 4.01478 1.99113 0
      vertex 3.52671 1.5959 0
    endloop
  endfacet
  facet normal -0.358366 0.933581 0
    outer loop
      vertex 2.44042 0.968727 0
      vertex 1.8541 0.743661 15
      vertex 2.44042 0.968727 15
    endloop
  endfacet
  facet normal -0.358366 0.933581 0
    outer loop
      vertex 1.8541 0.743661 15
      vertex 2.44042 0.968727 0
      vertex 1.8541 0.743661 0
    endloop
  endfacet
  facet normal 0.933579 0.358372 0
    outer loop
      vertex -5.48127 4.00958 15
      vertex -5.70634 4.5959 0
      vertex -5.70634 4.5959 15
    endloop
  endfacet
  facet normal 0.933579 0.358372 0
    outer loop
      vertex -5.70634 4.5959 0
      vertex -5.48127 4.00958 15
      vertex -5.48127 4.00958 0
    endloop
  endfacet
  facet normal 0.453994 0.891005 -0
    outer loop
      vertex -2.44042 0.968727 0
      vertex -3 1.25385 15
      vertex -2.44042 0.968727 15
    endloop
  endfacet
  facet normal 0.453994 0.891005 0
    outer loop
      vertex -3 1.25385 15
      vertex -2.44042 0.968727 0
      vertex -3 1.25385 0
    endloop
  endfacet
  facet normal 0.629319 0.777147 -0
    outer loop
      vertex -3.52671 1.5959 0
      vertex -4.01478 1.99113 15
      vertex -3.52671 1.5959 15
    endloop
  endfacet
  facet normal 0.629319 0.777147 0
    outer loop
      vertex -4.01478 1.99113 15
      vertex -3.52671 1.5959 0
      vertex -4.01478 1.99113 0
    endloop
  endfacet
  facet normal -0.891007 0.45399 0
    outer loop
      vertex 5.19615 3.45 0
      vertex 5.48127 4.00958 15
      vertex 5.48127 4.00958 0
    endloop
  endfacet
  facet normal -0.891007 0.45399 0
    outer loop
      vertex 5.48127 4.00958 15
      vertex 5.19615 3.45 0
      vertex 5.19615 3.45 15
    endloop
  endfacet
  facet normal -0.156438 0.987688 0
    outer loop
      vertex 1.24747 0.581115 0
      vertex 1.10083 0.557889 15
      vertex 1.24747 0.581115 15
    endloop
  endfacet
  facet normal -0.156438 0.987688 0
    outer loop
      vertex 1.10083 0.557889 15
      vertex 1.24747 0.581115 0
      vertex 1.10083 0.557889 0
    endloop
  endfacet
  facet normal 0.965924 -0.258825 0
    outer loop
      vertex -5.86889 7.69747 15
      vertex -5.70634 8.3041 0
      vertex -5.70634 8.3041 15
    endloop
  endfacet
  facet normal 0.965924 -0.258825 0
    outer loop
      vertex -5.70634 8.3041 0
      vertex -5.86889 7.69747 15
      vertex -5.86889 7.69747 0
    endloop
  endfacet
  facet normal -0.998629 -0.0523382 0
    outer loop
      vertex 6 6.45 0
      vertex 5.96713 7.07717 15
      vertex 5.96713 7.07717 0
    endloop
  endfacet
  facet normal -0.998629 -0.0523382 0
    outer loop
      vertex 5.96713 7.07717 15
      vertex 6 6.45 0
      vertex 6 6.45 15
    endloop
  endfacet
  facet normal 0.965924 0.258825 0
    outer loop
      vertex -5.70634 4.5959 15
      vertex -5.86889 5.20253 0
      vertex -5.86889 5.20253 15
    endloop
  endfacet
  facet normal 0.965924 0.258825 0
    outer loop
      vertex -5.86889 5.20253 0
      vertex -5.70634 4.5959 15
      vertex -5.70634 4.5959 0
    endloop
  endfacet
  facet normal 0.98769 0.156425 0
    outer loop
      vertex -5.86889 5.20253 15
      vertex -5.96713 5.82283 0
      vertex -5.96713 5.82283 15
    endloop
  endfacet
  facet normal 0.98769 0.156425 0
    outer loop
      vertex -5.96713 5.82283 0
      vertex -5.86889 5.20253 15
      vertex -5.86889 5.20253 0
    endloop
  endfacet
  facet normal 0.83867 0.54464 0
    outer loop
      vertex -4.8541 2.92329 15
      vertex -5.19615 3.45 0
      vertex -5.19615 3.45 15
    endloop
  endfacet
  facet normal 0.83867 0.54464 0
    outer loop
      vertex -5.19615 3.45 0
      vertex -4.8541 2.92329 15
      vertex -4.8541 2.92329 0
    endloop
  endfacet
  facet normal 0.777147 0.629319 0
    outer loop
      vertex -4.45887 2.43522 15
      vertex -4.8541 2.92329 0
      vertex -4.8541 2.92329 15
    endloop
  endfacet
  facet normal 0.777147 0.629319 0
    outer loop
      vertex -4.8541 2.92329 0
      vertex -4.45887 2.43522 15
      vertex -4.45887 2.43522 0
    endloop
  endfacet
  facet normal 0.891007 0.45399 0
    outer loop
      vertex -5.19615 3.45 15
      vertex -5.48127 4.00958 0
      vertex -5.48127 4.00958 15
    endloop
  endfacet
  facet normal 0.891007 0.45399 0
    outer loop
      vertex -5.48127 4.00958 0
      vertex -5.19615 3.45 15
      vertex -5.19615 3.45 0
    endloop
  endfacet
  facet normal 0.258819 0.965926 -0
    outer loop
      vertex -1.24747 0.581115 0
      vertex -1.8541 0.743661 15
      vertex -1.24747 0.581115 15
    endloop
  endfacet
  facet normal 0.258819 0.965926 0
    outer loop
      vertex -1.8541 0.743661 15
      vertex -1.24747 0.581115 0
      vertex -1.8541 0.743661 0
    endloop
  endfacet
  facet normal 0.358366 0.933581 -0
    outer loop
      vertex -1.8541 0.743661 0
      vertex -2.44042 0.968727 15
      vertex -1.8541 0.743661 15
    endloop
  endfacet
  facet normal 0.358366 0.933581 0
    outer loop
      vertex -2.44042 0.968727 15
      vertex -1.8541 0.743661 0
      vertex -2.44042 0.968727 0
    endloop
  endfacet
  facet normal 0.156438 0.987688 -0
    outer loop
      vertex -1.10083 0.557889 0
      vertex -1.24747 0.581115 15
      vertex -1.10083 0.557889 15
    endloop
  endfacet
  facet normal 0.156438 0.987688 0
    outer loop
      vertex -1.24747 0.581115 15
      vertex -1.10083 0.557889 0
      vertex -1.24747 0.581115 0
    endloop
  endfacet
  facet normal 0.54464 0.83867 -0
    outer loop
      vertex -3 1.25385 0
      vertex -3.52671 1.5959 15
      vertex -3 1.25385 15
    endloop
  endfacet
  facet normal 0.54464 0.83867 0
    outer loop
      vertex -3.52671 1.5959 15
      vertex -3 1.25385 0
      vertex -3.52671 1.5959 0
    endloop
  endfacet
  facet normal -0.965924 0.258825 0
    outer loop
      vertex 5.70634 4.5959 0
      vertex 5.86889 5.20253 15
      vertex 5.86889 5.20253 0
    endloop
  endfacet
  facet normal -0.965924 0.258825 0
    outer loop
      vertex 5.86889 5.20253 15
      vertex 5.70634 4.5959 0
      vertex 5.70634 4.5959 15
    endloop
  endfacet
  facet normal -0.777147 0.629319 0
    outer loop
      vertex 4.45887 2.43522 0
      vertex 4.8541 2.92329 15
      vertex 4.8541 2.92329 0
    endloop
  endfacet
  facet normal -0.777147 0.629319 0
    outer loop
      vertex 4.8541 2.92329 15
      vertex 4.45887 2.43522 0
      vertex 4.45887 2.43522 15
    endloop
  endfacet
  facet normal -0.707107 0.707107 0
    outer loop
      vertex 4.01478 1.99113 0
      vertex 4.45887 2.43522 15
      vertex 4.45887 2.43522 0
    endloop
  endfacet
  facet normal -0.707107 0.707107 0
    outer loop
      vertex 4.45887 2.43522 15
      vertex 4.01478 1.99113 0
      vertex 4.01478 1.99113 15
    endloop
  endfacet
  facet normal -0.83867 0.54464 0
    outer loop
      vertex 4.8541 2.92329 0
      vertex 5.19615 3.45 15
      vertex 5.19615 3.45 0
    endloop
  endfacet
  facet normal -0.83867 0.54464 0
    outer loop
      vertex 5.19615 3.45 15
      vertex 4.8541 2.92329 0
      vertex 4.8541 2.92329 15
    endloop
  endfacet
  facet normal -0.933579 0.358372 0
    outer loop
      vertex 5.48127 4.00958 0
      vertex 5.70634 4.5959 15
      vertex 5.70634 4.5959 0
    endloop
  endfacet
  facet normal -0.933579 0.358372 0
    outer loop
      vertex 5.70634 4.5959 15
      vertex 5.48127 4.00958 0
      vertex 5.48127 4.00958 15
    endloop
  endfacet
  facet normal -0.98769 0.156425 0
    outer loop
      vertex 5.86889 5.20253 0
      vertex 5.96713 5.82283 15
      vertex 5.96713 5.82283 0
    endloop
  endfacet
  facet normal -0.98769 0.156425 0
    outer loop
      vertex 5.96713 5.82283 15
      vertex 5.86889 5.20253 0
      vertex 5.86889 5.20253 15
    endloop
  endfacet
  facet normal -0.453994 0.891005 0
    outer loop
      vertex 3 1.25385 0
      vertex 2.44042 0.968727 15
      vertex 3 1.25385 15
    endloop
  endfacet
  facet normal -0.453994 0.891005 0
    outer loop
      vertex 2.44042 0.968727 15
      vertex 3 1.25385 0
      vertex 2.44042 0.968727 0
    endloop
  endfacet
  facet normal -0.54464 0.83867 0
    outer loop
      vertex 3.52671 1.5959 0
      vertex 3 1.25385 15
      vertex 3.52671 1.5959 15
    endloop
  endfacet
  facet normal -0.54464 0.83867 0
    outer loop
      vertex 3 1.25385 15
      vertex 3.52671 1.5959 0
      vertex 3 1.25385 0
    endloop
  endfacet
  facet normal -0.258819 0.965926 0
    outer loop
      vertex 1.8541 0.743661 0
      vertex 1.24747 0.581115 15
      vertex 1.8541 0.743661 15
    endloop
  endfacet
  facet normal -0.258819 0.965926 0
    outer loop
      vertex 1.24747 0.581115 15
      vertex 1.8541 0.743661 0
      vertex 1.24747 0.581115 0
    endloop
  endfacet
  facet normal 0.998629 -0.0523382 0
    outer loop
      vertex -6 6.45 15
      vertex -5.96713 7.07717 0
      vertex -5.96713 7.07717 15
    endloop
  endfacet
  facet normal 0.998629 -0.0523382 0
    outer loop
      vertex -5.96713 7.07717 0
      vertex -6 6.45 15
      vertex -6 6.45 0
    endloop
  endfacet
  facet normal 0.0523858 -0.998627 0
    outer loop
      vertex -0.627171 12.4171 0
      vertex 0 12.45 15
      vertex -0.627171 12.4171 15
    endloop
  endfacet
  facet normal 0.0523858 -0.998627 0
    outer loop
      vertex 0 12.45 15
      vertex -0.627171 12.4171 0
      vertex 0 12.45 0
    endloop
  endfacet
  facet normal 0.258899 -0.965904 0
    outer loop
      vertex -1.8541 12.1563 0
      vertex -1.24747 12.3189 15
      vertex -1.8541 12.1563 15
    endloop
  endfacet
  facet normal 0.258899 -0.965904 0
    outer loop
      vertex -1.24747 12.3189 15
      vertex -1.8541 12.1563 0
      vertex -1.24747 12.3189 0
    endloop
  endfacet
  facet normal 0.62929 -0.77717 0
    outer loop
      vertex -4.01478 10.9089 0
      vertex -3.52671 11.3041 15
      vertex -4.01478 10.9089 15
    endloop
  endfacet
  facet normal 0.62929 -0.77717 0
    outer loop
      vertex -3.52671 11.3041 15
      vertex -4.01478 10.9089 0
      vertex -3.52671 11.3041 0
    endloop
  endfacet
  facet normal 0.453965 -0.89102 0
    outer loop
      vertex -3 11.6462 0
      vertex -2.44042 11.9313 15
      vertex -3 11.6462 15
    endloop
  endfacet
  facet normal 0.453965 -0.89102 0
    outer loop
      vertex -2.44042 11.9313 15
      vertex -3 11.6462 0
      vertex -2.44042 11.9313 0
    endloop
  endfacet
  facet normal 0.77716 -0.629304 0
    outer loop
      vertex -4.8541 9.97671 15
      vertex -4.45887 10.4648 0
      vertex -4.45887 10.4648 15
    endloop
  endfacet
  facet normal 0.77716 -0.629304 0
    outer loop
      vertex -4.45887 10.4648 0
      vertex -4.8541 9.97671 15
      vertex -4.8541 9.97671 0
    endloop
  endfacet
  facet normal 0.891007 -0.45399 0
    outer loop
      vertex -5.48127 8.89042 15
      vertex -5.19615 9.45 0
      vertex -5.19615 9.45 15
    endloop
  endfacet
  facet normal 0.891007 -0.45399 0
    outer loop
      vertex -5.19615 9.45 0
      vertex -5.48127 8.89042 15
      vertex -5.48127 8.89042 0
    endloop
  endfacet
  facet normal -0.707115 -0.707099 0
    outer loop
      vertex 4.45887 10.4648 0
      vertex 4.01478 10.9089 15
      vertex 4.01478 10.9089 0
    endloop
  endfacet
  facet normal -0.707115 -0.707099 0
    outer loop
      vertex 4.01478 10.9089 15
      vertex 4.45887 10.4648 0
      vertex 4.45887 10.4648 15
    endloop
  endfacet
  facet normal -0.544696 -0.838634 0
    outer loop
      vertex 3 11.6462 0
      vertex 3.52671 11.3041 15
      vertex 3 11.6462 15
    endloop
  endfacet
  facet normal -0.544696 -0.838634 -0
    outer loop
      vertex 3.52671 11.3041 15
      vertex 3 11.6462 0
      vertex 3.52671 11.3041 0
    endloop
  endfacet
  facet normal -0.358275 -0.933616 0
    outer loop
      vertex 1.8541 12.1563 0
      vertex 2.44042 11.9313 15
      vertex 1.8541 12.1563 15
    endloop
  endfacet
  facet normal -0.358275 -0.933616 -0
    outer loop
      vertex 2.44042 11.9313 15
      vertex 1.8541 12.1563 0
      vertex 2.44042 11.9313 0
    endloop
  endfacet
  facet normal -0.156363 -0.9877 0
    outer loop
      vertex 0.627171 12.4171 0
      vertex 1.24747 12.3189 15
      vertex 0.627171 12.4171 15
    endloop
  endfacet
  facet normal -0.156363 -0.9877 -0
    outer loop
      vertex 1.24747 12.3189 15
      vertex 0.627171 12.4171 0
      vertex 1.24747 12.3189 0
    endloop
  endfacet
  facet normal -0.891007 -0.45399 0
    outer loop
      vertex 5.48127 8.89042 0
      vertex 5.19615 9.45 15
      vertex 5.19615 9.45 0
    endloop
  endfacet
  facet normal -0.891007 -0.45399 0
    outer loop
      vertex 5.19615 9.45 15
      vertex 5.48127 8.89042 0
      vertex 5.48127 8.89042 15
    endloop
  endfacet
  facet normal -0.77716 -0.629304 0
    outer loop
      vertex 4.8541 9.97671 0
      vertex 4.45887 10.4648 15
      vertex 4.45887 10.4648 0
    endloop
  endfacet
  facet normal -0.77716 -0.629304 0
    outer loop
      vertex 4.45887 10.4648 15
      vertex 4.8541 9.97671 0
      vertex 4.8541 9.97671 15
    endloop
  endfacet
  facet normal -0.965924 -0.258825 0
    outer loop
      vertex 5.86889 7.69747 0
      vertex 5.70634 8.3041 15
      vertex 5.70634 8.3041 0
    endloop
  endfacet
  facet normal -0.965924 -0.258825 0
    outer loop
      vertex 5.70634 8.3041 15
      vertex 5.86889 7.69747 0
      vertex 5.86889 7.69747 15
    endloop
  endfacet
  facet normal -0.98769 -0.156425 0
    outer loop
      vertex 5.96713 7.07717 0
      vertex 5.86889 7.69747 15
      vertex 5.86889 7.69747 0
    endloop
  endfacet
  facet normal -0.98769 -0.156425 0
    outer loop
      vertex 5.86889 7.69747 15
      vertex 5.96713 7.07717 0
      vertex 5.96713 7.07717 15
    endloop
  endfacet
  facet normal 0.156363 -0.9877 0
    outer loop
      vertex -1.24747 12.3189 0
      vertex -0.627171 12.4171 15
      vertex -1.24747 12.3189 15
    endloop
  endfacet
  facet normal 0.156363 -0.9877 0
    outer loop
      vertex -0.627171 12.4171 15
      vertex -1.24747 12.3189 0
      vertex -0.627171 12.4171 0
    endloop
  endfacet
  facet normal 0.358275 -0.933616 0
    outer loop
      vertex -2.44042 11.9313 0
      vertex -1.8541 12.1563 15
      vertex -2.44042 11.9313 15
    endloop
  endfacet
  facet normal 0.358275 -0.933616 0
    outer loop
      vertex -1.8541 12.1563 15
      vertex -2.44042 11.9313 0
      vertex -1.8541 12.1563 0
    endloop
  endfacet
  facet normal 0.707115 -0.707099 0
    outer loop
      vertex -4.45887 10.4648 15
      vertex -4.01478 10.9089 0
      vertex -4.01478 10.9089 15
    endloop
  endfacet
  facet normal 0.707115 -0.707099 0
    outer loop
      vertex -4.01478 10.9089 0
      vertex -4.45887 10.4648 15
      vertex -4.45887 10.4648 0
    endloop
  endfacet
  facet normal 0.544696 -0.838634 0
    outer loop
      vertex -3.52671 11.3041 0
      vertex -3 11.6462 15
      vertex -3.52671 11.3041 15
    endloop
  endfacet
  facet normal 0.544696 -0.838634 0
    outer loop
      vertex -3 11.6462 15
      vertex -3.52671 11.3041 0
      vertex -3 11.6462 0
    endloop
  endfacet
  facet normal 0.83867 -0.54464 0
    outer loop
      vertex -5.19615 9.45 15
      vertex -4.8541 9.97671 0
      vertex -4.8541 9.97671 15
    endloop
  endfacet
  facet normal 0.83867 -0.54464 0
    outer loop
      vertex -4.8541 9.97671 0
      vertex -5.19615 9.45 15
      vertex -5.19615 9.45 0
    endloop
  endfacet
  facet normal 0.933579 -0.358372 0
    outer loop
      vertex -5.70634 8.3041 15
      vertex -5.48127 8.89042 0
      vertex -5.48127 8.89042 15
    endloop
  endfacet
  facet normal 0.933579 -0.358372 0
    outer loop
      vertex -5.48127 8.89042 0
      vertex -5.70634 8.3041 15
      vertex -5.70634 8.3041 0
    endloop
  endfacet
  facet normal 0.98769 -0.156425 0
    outer loop
      vertex -5.96713 7.07717 15
      vertex -5.86889 7.69747 0
      vertex -5.86889 7.69747 15
    endloop
  endfacet
  facet normal 0.98769 -0.156425 0
    outer loop
      vertex -5.86889 7.69747 0
      vertex -5.96713 7.07717 15
      vertex -5.96713 7.07717 0
    endloop
  endfacet
  facet normal -0.62929 -0.77717 0
    outer loop
      vertex 3.52671 11.3041 0
      vertex 4.01478 10.9089 15
      vertex 3.52671 11.3041 15
    endloop
  endfacet
  facet normal -0.62929 -0.77717 -0
    outer loop
      vertex 4.01478 10.9089 15
      vertex 3.52671 11.3041 0
      vertex 4.01478 10.9089 0
    endloop
  endfacet
  facet normal -0.453965 -0.89102 0
    outer loop
      vertex 2.44042 11.9313 0
      vertex 3 11.6462 15
      vertex 2.44042 11.9313 15
    endloop
  endfacet
  facet normal -0.453965 -0.89102 -0
    outer loop
      vertex 3 11.6462 15
      vertex 2.44042 11.9313 0
      vertex 3 11.6462 0
    endloop
  endfacet
  facet normal -0.258899 -0.965904 0
    outer loop
      vertex 1.24747 12.3189 0
      vertex 1.8541 12.1563 15
      vertex 1.24747 12.3189 15
    endloop
  endfacet
  facet normal -0.258899 -0.965904 -0
    outer loop
      vertex 1.8541 12.1563 15
      vertex 1.24747 12.3189 0
      vertex 1.8541 12.1563 0
    endloop
  endfacet
  facet normal -0.83867 -0.54464 0
    outer loop
      vertex 5.19615 9.45 0
      vertex 4.8541 9.97671 15
      vertex 4.8541 9.97671 0
    endloop
  endfacet
  facet normal -0.83867 -0.54464 0
    outer loop
      vertex 4.8541 9.97671 15
      vertex 5.19615 9.45 0
      vertex 5.19615 9.45 15
    endloop
  endfacet
  facet normal -0.933579 -0.358372 0
    outer loop
      vertex 5.70634 8.3041 0
      vertex 5.48127 8.89042 15
      vertex 5.48127 8.89042 0
    endloop
  endfacet
  facet normal -0.933579 -0.358372 0
    outer loop
      vertex 5.48127 8.89042 15
      vertex 5.70634 8.3041 0
      vertex 5.70634 8.3041 15
    endloop
  endfacet
  facet normal -0.957826 0.287348 0
    outer loop
      vertex -4.4 -5.5 0
      vertex -2.88907 -0.463567 15
      vertex -2.88907 -0.463567 0
    endloop
  endfacet
  facet normal -0.957826 0.287348 0
    outer loop
      vertex -2.88907 -0.463567 15
      vertex -4.4 -5.5 0
      vertex -4.4 -5.5 15
    endloop
  endfacet
  facet normal 0 -1 0
    outer loop
      vertex -4.4 -5.5 0
      vertex -1.88358 -5.5 15
      vertex -4.4 -5.5 15
    endloop
  endfacet
  facet normal 0 -1 -0
    outer loop
      vertex -1.88358 -5.5 15
      vertex -4.4 -5.5 0
      vertex -1.88358 -5.5 0
    endloop
  endfacet
  facet normal 0 -1 0
    outer loop
      vertex 1.88358 -5.5 0
      vertex 4.4 -5.5 15
      vertex 1.88358 -5.5 15
    endloop
  endfacet
  facet normal 0 -1 -0
    outer loop
      vertex 4.4 -5.5 15
      vertex 1.88358 -5.5 0
      vertex 4.4 -5.5 0
    endloop
  endfacet
  facet normal 0.957826 0.287348 0
    outer loop
      vertex 4.4 -5.5 15
      vertex 2.88907 -0.463567 0
      vertex 2.88907 -0.463567 15
    endloop
  endfacet
  facet normal 0.957826 0.287348 0
    outer loop
      vertex 2.88907 -0.463567 0
      vertex 4.4 -5.5 15
      vertex 4.4 -5.5 0
    endloop
  endfacet
  facet normal -0.987686 0.15645 0
    outer loop
      vertex 1.01246 -8.12262e-07 0
      vertex 1.10083 0.557889 15
      vertex 1.10083 0.557889 0
    endloop
  endfacet
  facet normal -0.987686 0.15645 0
    outer loop
      vertex 1.10083 0.557889 15
      vertex 1.01246 -8.12262e-07 0
      vertex 1.01246 -8.12262e-07 15
    endloop
  endfacet
  facet normal 0.987688 -0.156435 0
    outer loop
      vertex -1.88358 -5.5 15
      vertex -1.01246 -8.12262e-07 0
      vertex -1.01246 -8.12262e-07 15
    endloop
  endfacet
  facet normal 0.987688 -0.156435 0
    outer loop
      vertex -1.01246 -8.12262e-07 0
      vertex -1.88358 -5.5 15
      vertex -1.88358 -5.5 0
    endloop
  endfacet
  facet normal 0.987686 0.15645 0
    outer loop
      vertex -1.01246 -8.12262e-07 15
      vertex -1.10083 0.557889 0
      vertex -1.10083 0.557889 15
    endloop
  endfacet
  facet normal 0.987686 0.15645 0
    outer loop
      vertex -1.10083 0.557889 0
      vertex -1.01246 -8.12262e-07 15
      vertex -1.01246 -8.12262e-07 0
    endloop
  endfacet
  facet normal -0.987688 -0.156435 0
    outer loop
      vertex 1.88358 -5.5 0
      vertex 1.01246 -8.12262e-07 15
      vertex 1.01246 -8.12262e-07 0
    endloop
  endfacet
  facet normal -0.987688 -0.156435 0
    outer loop
      vertex 1.01246 -8.12262e-07 15
      vertex 1.88358 -5.5 0
      vertex 1.88358 -5.5 15
    endloop
  endfacet
endsolid OpenSCAD_Model
