solid OpenSCAD_Model
  facet normal -0.99863 -0.0523267 0
    outer loop
      vertex -3.48083 1.84415 -9.80154e-017
      vertex -3.5 2.21 15
      vertex -3.5 2.21 6.21064e-017
    endloop
  endfacet
  facet normal -0.99863 -0.0523267 0
    outer loop
      vertex -3.5 2.21 15
      vertex -3.48083 1.84415 -9.80154e-017
      vertex -3.48083 1.84415 15
    endloop
  endfacet
  facet normal 0.99863 -0.0523267 0
    outer loop
      vertex 3.48083 1.84415 15
      vertex 3.5 2.21 9.19331e-016
      vertex 3.5 2.21 15
    endloop
  endfacet
  facet normal 0.99863 -0.0523267 0
    outer loop
      vertex 3.5 2.21 9.19331e-016
      vertex 3.48083 1.84415 15
      vertex 3.48083 1.84415 7.54513e-016
    endloop
  endfacet
  facet normal -0.707105 -0.707108 0
    outer loop
      vertex -2.34196 -0.391006 -9.51158e-016
      vertex -2.60101 -0.131957 -3.47821e-016
      vertex -2.60101 -0.131957 -8.6784e-016
    endloop
  endfacet
  facet normal -0.707105 -0.707108 0
    outer loop
      vertex -2.60101 -0.131957 -3.47821e-016
      vertex -2.34196 -0.391006 -9.51158e-016
      vertex -2.34196 -0.391006 -3.73618e-016
    endloop
  endfacet
  facet normal 0.629319 -0.777147 0
    outer loop
      vertex 2.05725 -0.621559 1.13918e-016
      vertex 2.34196 -0.391006 -3.77563e-016
      vertex 2.34196 -0.391006 1.99977e-016
    endloop
  endfacet
  facet normal 0.629319 -0.777147 0
    outer loop
      vertex 2.34196 -0.391006 -3.77563e-016
      vertex 2.05725 -0.621559 1.13918e-016
      vertex 2.05725 -0.621559 -5.14814e-016
    endloop
  endfacet
  facet normal -0.891007 -0.45399 0
    outer loop
      vertex -3.03109 0.460001 -6.57626e-016
      vertex -3.19741 0.786423 15
      vertex -3.19741 0.786423 -5.33033e-016
    endloop
  endfacet
  facet normal -0.891007 -0.45399 0
    outer loop
      vertex -3.19741 0.786423 15
      vertex -3.03109 0.460001 -6.57626e-016
      vertex -3.03109 0.460001 15
    endloop
  endfacet
  facet normal -0.83867 -0.544639 0
    outer loop
      vertex -2.83156 0.152752 -7.69638e-016
      vertex -3.03109 0.460001 15
      vertex -3.03109 0.460001 -6.57626e-016
    endloop
  endfacet
  facet normal -0.83867 -0.544639 0
    outer loop
      vertex -3.03109 0.460001 15
      vertex -2.83156 0.152752 -7.69638e-016
      vertex -2.83156 0.152752 15
    endloop
  endfacet
  facet normal -0.358347 -0.933589 0
    outer loop
      vertex -1.42358 -0.987409 -1.10355e-015
      vertex -1.18345 -1.07958 -3.84642e-016
      vertex -1.42358 -0.987409 -3.93581e-016
    endloop
  endfacet
  facet normal -0.358347 -0.933589 -0
    outer loop
      vertex -1.18345 -1.07958 -3.84642e-016
      vertex -1.42358 -0.987409 -1.10355e-015
      vertex -1.18345 -1.07958 -1.11508e-015
    endloop
  endfacet
  facet normal -0.544638 -0.838671 0
    outer loop
      vertex -2.05725 -0.621559 -1.01868e-015
      vertex -1.75 -0.821089 -3.96624e-016
      vertex -2.05725 -0.621559 -3.89946e-016
    endloop
  endfacet
  facet normal -0.544638 -0.838671 -0
    outer loop
      vertex -1.75 -0.821089 -3.96624e-016
      vertex -2.05725 -0.621559 -1.01868e-015
      vertex -1.75 -0.821089 -1.06966e-015
    endloop
  endfacet
  facet normal 0.891007 -0.45399 0
    outer loop
      vertex 3.03109 0.460001 15
      vertex 3.19741 0.786423 2.5008e-016
      vertex 3.19741 0.786423 15
    endloop
  endfacet
  facet normal 0.891007 -0.45399 0
    outer loop
      vertex 3.19741 0.786423 2.5008e-016
      vertex 3.03109 0.460001 15
      vertex 3.03109 0.460001 8.47519e-017
    endloop
  endfacet
  facet normal -0.965925 0.258821 0
    outer loop
      vertex -3.42352 2.93769 3.94632e-016
      vertex -3.3287 3.29156 15
      vertex -3.3287 3.29156 5.63393e-016
    endloop
  endfacet
  facet normal -0.965925 0.258821 0
    outer loop
      vertex -3.3287 3.29156 15
      vertex -3.42352 2.93769 3.94632e-016
      vertex -3.42352 2.93769 15
    endloop
  endfacet
  facet normal 0.99863 0.0523267 0
    outer loop
      vertex 3.5 2.21 15
      vertex 3.48083 2.57585 1.07945e-015
      vertex 3.48083 2.57585 15
    endloop
  endfacet
  facet normal 0.99863 0.0523267 0
    outer loop
      vertex 3.48083 2.57585 1.07945e-015
      vertex 3.5 2.21 15
      vertex 3.5 2.21 9.19331e-016
    endloop
  endfacet
  facet normal -0.965925 -0.258821 0
    outer loop
      vertex -3.3287 1.12844 -3.97225e-016
      vertex -3.42352 1.48231 15
      vertex -3.42352 1.48231 -2.51687e-016
    endloop
  endfacet
  facet normal -0.965925 -0.258821 0
    outer loop
      vertex -3.42352 1.48231 15
      vertex -3.3287 1.12844 -3.97225e-016
      vertex -3.3287 1.12844 15
    endloop
  endfacet
  facet normal -0.987688 -0.156435 0
    outer loop
      vertex -3.42352 1.48231 -2.51687e-016
      vertex -3.48083 1.84415 15
      vertex -3.48083 1.84415 -9.80154e-017
    endloop
  endfacet
  facet normal -0.987688 -0.156435 0
    outer loop
      vertex -3.48083 1.84415 15
      vertex -3.42352 1.48231 -2.51687e-016
      vertex -3.42352 1.48231 15
    endloop
  endfacet
  facet normal -0.933579 -0.358373 0
    outer loop
      vertex -3.19741 0.786423 -5.33033e-016
      vertex -3.3287 1.12844 15
      vertex -3.3287 1.12844 -3.97225e-016
    endloop
  endfacet
  facet normal -0.933579 -0.358373 0
    outer loop
      vertex -3.3287 1.12844 15
      vertex -3.19741 0.786423 -5.33033e-016
      vertex -3.19741 0.786423 15
    endloop
  endfacet
  facet normal -0.777136 -0.629332 0
    outer loop
      vertex -2.83156 0.152752 -7.69638e-016
      vertex -2.70786 0 -3.31607e-016
      vertex -2.83156 0.152752 15
    endloop
  endfacet
  facet normal -9.13329e-011 -7.39594e-011 1
    outer loop
      vertex -2.60101 -0.131957 -8.6784e-016
      vertex -2.70786 0 -3.31607e-016
      vertex -2.83156 0.152752 -7.69638e-016
    endloop
  endfacet
  facet normal -0.777165 -0.629297 0
    outer loop
      vertex -2.70786 0 -3.31607e-016
      vertex -2.60101 -0.131957 -8.6784e-016
      vertex -2.60101 -0.131957 -3.47821e-016
    endloop
  endfacet
  facet normal -0.777136 -0.629332 -1.40032e-016
    outer loop
      vertex -2.83156 0.152752 15
      vertex -2.70786 0 -3.31607e-016
      vertex -2.70786 -3.33067e-015 15
    endloop
  endfacet
  facet normal -0.453992 -0.891006 0
    outer loop
      vertex -1.75 -0.821089 -1.06966e-015
      vertex -1.42358 -0.987409 -3.93581e-016
      vertex -1.75 -0.821089 -3.96624e-016
    endloop
  endfacet
  facet normal -0.453992 -0.891006 -0
    outer loop
      vertex -1.42358 -0.987409 -3.93581e-016
      vertex -1.75 -0.821089 -1.06966e-015
      vertex -1.42358 -0.987409 -1.10355e-015
    endloop
  endfacet
  facet normal -0.629319 -0.777147 0
    outer loop
      vertex -2.34196 -0.391006 -9.51158e-016
      vertex -2.05725 -0.621559 -3.89946e-016
      vertex -2.34196 -0.391006 -3.73618e-016
    endloop
  endfacet
  facet normal -0.629319 -0.777147 -0
    outer loop
      vertex -2.05725 -0.621559 -3.89946e-016
      vertex -2.34196 -0.391006 -9.51158e-016
      vertex -2.05725 -0.621559 -1.01868e-015
    endloop
  endfacet
  facet normal 0.965925 -0.258821 0
    outer loop
      vertex 3.3287 1.12844 15
      vertex 3.42352 1.48231 5.86805e-016
      vertex 3.42352 1.48231 15
    endloop
  endfacet
  facet normal 0.965925 -0.258821 0
    outer loop
      vertex 3.42352 1.48231 5.86805e-016
      vertex 3.3287 1.12844 15
      vertex 3.3287 1.12844 4.18044e-016
    endloop
  endfacet
  facet normal 0.777136 -0.629332 0
    outer loop
      vertex 2.83156 0.152752 15
      vertex 2.70786 0 3.31607e-016
      vertex 2.83156 0.152752 -7.61286e-017
    endloop
  endfacet
  facet normal 0.777136 -0.629332 -1.3974e-016
    outer loop
      vertex 2.70786 0 3.31607e-016
      vertex 2.83156 0.152752 15
      vertex 2.70786 -3.33067e-015 15
    endloop
  endfacet
  facet normal 0.777165 -0.629297 0
    outer loop
      vertex 2.60101 -0.131957 -2.30798e-016
      vertex 2.70786 0 3.31607e-016
      vertex 2.60101 -0.131957 2.89221e-016
    endloop
  endfacet
  facet normal 9.1333e-011 -7.39596e-011 1
    outer loop
      vertex 2.70786 0 3.31607e-016
      vertex 2.60101 -0.131957 -2.30798e-016
      vertex 2.83156 0.152752 -7.61286e-017
    endloop
  endfacet
  facet normal 0.707105 -0.707108 0
    outer loop
      vertex 2.34196 -0.391006 1.99977e-016
      vertex 2.60101 -0.131957 -2.30798e-016
      vertex 2.60101 -0.131957 2.89221e-016
    endloop
  endfacet
  facet normal 0.707105 -0.707108 0
    outer loop
      vertex 2.60101 -0.131957 -2.30798e-016
      vertex 2.34196 -0.391006 1.99977e-016
      vertex 2.34196 -0.391006 -3.77563e-016
    endloop
  endfacet
  facet normal 0.83867 -0.544639 0
    outer loop
      vertex 2.83156 0.152752 15
      vertex 3.03109 0.460001 8.47519e-017
      vertex 3.03109 0.460001 15
    endloop
  endfacet
  facet normal 0.83867 -0.544639 0
    outer loop
      vertex 3.03109 0.460001 8.47519e-017
      vertex 2.83156 0.152752 15
      vertex 2.83156 0.152752 -7.61286e-017
    endloop
  endfacet
  facet normal 0.933579 -0.358373 0
    outer loop
      vertex 3.19741 0.786423 15
      vertex 3.3287 1.12844 4.18044e-016
      vertex 3.3287 1.12844 15
    endloop
  endfacet
  facet normal 0.933579 -0.358373 0
    outer loop
      vertex 3.3287 1.12844 4.18044e-016
      vertex 3.19741 0.786423 15
      vertex 3.19741 0.786423 2.5008e-016
    endloop
  endfacet
  facet normal 0.987688 -0.156435 0
    outer loop
      vertex 3.42352 1.48231 15
      vertex 3.48083 1.84415 7.54513e-016
      vertex 3.48083 1.84415 15
    endloop
  endfacet
  facet normal 0.987688 -0.156435 0
    outer loop
      vertex 3.48083 1.84415 7.54513e-016
      vertex 3.42352 1.48231 15
      vertex 3.42352 1.48231 5.86805e-016
    endloop
  endfacet
  facet normal 0 0 1
    outer loop
      vertex 3.48083 2.57585 15
      vertex 1.98904 2.41906 15
      vertex 2 2.21 15
    endloop
  endfacet
  facet normal 0 0 1
    outer loop
      vertex 2.34196 4.81101 15
      vertex 1.9563 2.62582 15
      vertex 1.98904 2.41906 15
    endloop
  endfacet
  facet normal 0 0 1
    outer loop
      vertex 2.34196 4.81101 15
      vertex 1.90211 2.82803 15
      vertex 1.9563 2.62582 15
    endloop
  endfacet
  facet normal 0 0 1
    outer loop
      vertex 2.34196 4.81101 15
      vertex 1.82709 3.02347 15
      vertex 1.90211 2.82803 15
    endloop
  endfacet
  facet normal 0 0 1
    outer loop
      vertex 1.17557 3.82803 15
      vertex 2.05725 5.04156 15
      vertex 1.75 5.24109 15
    endloop
  endfacet
  facet normal 0 0 1
    outer loop
      vertex 2.34196 4.81101 15
      vertex 1.73205 3.21 15
      vertex 1.82709 3.02347 15
    endloop
  endfacet
  facet normal 0 0 1
    outer loop
      vertex 2.34196 4.81101 15
      vertex 1.61803 3.38557 15
      vertex 1.73205 3.21 15
    endloop
  endfacet
  facet normal 0 0 1
    outer loop
      vertex 2.34196 4.81101 15
      vertex 1.48629 3.54826 15
      vertex 1.61803 3.38557 15
    endloop
  endfacet
  facet normal 0 0 1
    outer loop
      vertex 1 3.94205 15
      vertex 1.75 5.24109 15
      vertex 1.42358 5.40741 15
    endloop
  endfacet
  facet normal 0 0 1
    outer loop
      vertex 2.34196 4.81101 15
      vertex 1.33826 3.69629 15
      vertex 1.48629 3.54826 15
    endloop
  endfacet
  facet normal 0 0 1
    outer loop
      vertex 2.05725 5.04156 15
      vertex 1.17557 3.82803 15
      vertex 1.33826 3.69629 15
    endloop
  endfacet
  facet normal 0 0 1
    outer loop
      vertex 0.813473 4.03709 15
      vertex 1.42358 5.40741 15
      vertex 1.08156 5.5387 15
    endloop
  endfacet
  facet normal 0 0 1
    outer loop
      vertex 1.75 5.24109 15
      vertex 1 3.94205 15
      vertex 1.17557 3.82803 15
    endloop
  endfacet
  facet normal 0 0 1
    outer loop
      vertex 1.42358 5.40741 15
      vertex 0.813473 4.03709 15
      vertex 1 3.94205 15
    endloop
  endfacet
  facet normal 0 0 1
    outer loop
      vertex 0.618033 4.11211 15
      vertex 1.08156 5.5387 15
      vertex 0.727691 5.63352 15
    endloop
  endfacet
  facet normal 0 0 1
    outer loop
      vertex 1.08156 5.5387 15
      vertex 0.618033 4.11211 15
      vertex 0.813473 4.03709 15
    endloop
  endfacet
  facet normal 0 0 1
    outer loop
      vertex 0.727691 5.63352 15
      vertex 0.415823 4.1663 15
      vertex 0.618033 4.11211 15
    endloop
  endfacet
  facet normal 0 0 1
    outer loop
      vertex 0.365849 5.69083 15
      vertex 0.415823 4.1663 15
      vertex 0.727691 5.63352 15
    endloop
  endfacet
  facet normal 0 0 1
    outer loop
      vertex 0.365849 5.69083 15
      vertex 0.209057 4.19904 15
      vertex 0.415823 4.1663 15
    endloop
  endfacet
  facet normal 0 0 1
    outer loop
      vertex -1.83691e-015 5.71 15
      vertex 0.209057 4.19904 15
      vertex 0.365849 5.69083 15
    endloop
  endfacet
  facet normal 0 0 1
    outer loop
      vertex -1.83691e-015 5.71 15
      vertex -1.83691e-015 4.21 15
      vertex 0.209057 4.19904 15
    endloop
  endfacet
  facet normal 0 0 1
    outer loop
      vertex -1.83691e-015 5.71 15
      vertex -0.209057 4.19904 15
      vertex -1.83691e-015 4.21 15
    endloop
  endfacet
  facet normal -0 0 1
    outer loop
      vertex -0.365849 5.69083 15
      vertex -0.209057 4.19904 15
      vertex -1.83691e-015 5.71 15
    endloop
  endfacet
  facet normal 0 0 1
    outer loop
      vertex -0.365849 5.69083 15
      vertex -0.415823 4.1663 15
      vertex -0.209057 4.19904 15
    endloop
  endfacet
  facet normal -0 0 1
    outer loop
      vertex -0.727691 5.63352 15
      vertex -0.415823 4.1663 15
      vertex -0.365849 5.69083 15
    endloop
  endfacet
  facet normal 0 0 1
    outer loop
      vertex -0.415823 4.1663 15
      vertex -0.727691 5.63352 15
      vertex -0.618033 4.11211 15
    endloop
  endfacet
  facet normal -0 0 1
    outer loop
      vertex -1.08156 5.5387 15
      vertex -0.618033 4.11211 15
      vertex -0.727691 5.63352 15
    endloop
  endfacet
  facet normal 0 0 1
    outer loop
      vertex -0.618033 4.11211 15
      vertex -1.08156 5.5387 15
      vertex -0.813473 4.03709 15
    endloop
  endfacet
  facet normal -0 0 1
    outer loop
      vertex -1.42358 5.40741 15
      vertex -0.813473 4.03709 15
      vertex -1.08156 5.5387 15
    endloop
  endfacet
  facet normal 0 0 1
    outer loop
      vertex -0.813473 4.03709 15
      vertex -1.42358 5.40741 15
      vertex -1 3.94205 15
    endloop
  endfacet
  facet normal -0 0 1
    outer loop
      vertex -1.75 5.24109 15
      vertex -1 3.94205 15
      vertex -1.42358 5.40741 15
    endloop
  endfacet
  facet normal 0 0 1
    outer loop
      vertex -1 3.94205 15
      vertex -1.75 5.24109 15
      vertex -1.17557 3.82803 15
    endloop
  endfacet
  facet normal -0 0 1
    outer loop
      vertex -2.05725 5.04156 15
      vertex -1.17557 3.82803 15
      vertex -1.75 5.24109 15
    endloop
  endfacet
  facet normal 0 0 1
    outer loop
      vertex -1.17557 3.82803 15
      vertex -2.05725 5.04156 15
      vertex -1.33826 3.69629 15
    endloop
  endfacet
  facet normal -0 0 1
    outer loop
      vertex -2.34196 4.81101 15
      vertex -1.33826 3.69629 15
      vertex -2.05725 5.04156 15
    endloop
  endfacet
  facet normal 0 0 1
    outer loop
      vertex -1.33826 3.69629 15
      vertex -2.34196 4.81101 15
      vertex -1.48629 3.54826 15
    endloop
  endfacet
  facet normal -0 0 1
    outer loop
      vertex -2.60101 4.55196 15
      vertex -1.48629 3.54826 15
      vertex -2.34196 4.81101 15
    endloop
  endfacet
  facet normal 0 0 1
    outer loop
      vertex -1.48629 3.54826 15
      vertex -2.60101 4.55196 15
      vertex -1.61803 3.38557 15
    endloop
  endfacet
  facet normal -0 0 1
    outer loop
      vertex -2.83156 4.26725 15
      vertex -1.61803 3.38557 15
      vertex -2.60101 4.55196 15
    endloop
  endfacet
  facet normal 0 0 1
    outer loop
      vertex -1.61803 3.38557 15
      vertex -2.83156 4.26725 15
      vertex -1.73205 3.21 15
    endloop
  endfacet
  facet normal 0 0 1
    outer loop
      vertex -1.73205 3.21 15
      vertex -3.03109 3.96 15
      vertex -1.82709 3.02347 15
    endloop
  endfacet
  facet normal -0 0 1
    outer loop
      vertex -3.03109 3.96 15
      vertex -1.73205 3.21 15
      vertex -2.83156 4.26725 15
    endloop
  endfacet
  facet normal 0 0 1
    outer loop
      vertex 2 2.21 15
      vertex 3.5 2.21 15
      vertex 3.48083 2.57585 15
    endloop
  endfacet
  facet normal 0 0 1
    outer loop
      vertex 1.98904 2.41906 15
      vertex 3.48083 2.57585 15
      vertex 3.42352 2.93769 15
    endloop
  endfacet
  facet normal 0 0 1
    outer loop
      vertex 3.5 2.21 15
      vertex 2 2.21 15
      vertex 3.48083 1.84415 15
    endloop
  endfacet
  facet normal 0 0 1
    outer loop
      vertex 1.98904 2.41906 15
      vertex 3.42352 2.93769 15
      vertex 3.3287 3.29156 15
    endloop
  endfacet
  facet normal -0 0 1
    outer loop
      vertex 1.98904 2.00094 15
      vertex 3.48083 1.84415 15
      vertex 2 2.21 15
    endloop
  endfacet
  facet normal 0 0 1
    outer loop
      vertex 1.98904 2.41906 15
      vertex 3.3287 3.29156 15
      vertex 3.19741 3.63358 15
    endloop
  endfacet
  facet normal 0 0 1
    outer loop
      vertex 3.48083 1.84415 15
      vertex 1.98904 2.00094 15
      vertex 3.42352 1.48231 15
    endloop
  endfacet
  facet normal 0 0 1
    outer loop
      vertex 1.98904 2.41906 15
      vertex 3.19741 3.63358 15
      vertex 3.03109 3.96 15
    endloop
  endfacet
  facet normal -0 0 1
    outer loop
      vertex 1.9563 1.79418 15
      vertex 3.42352 1.48231 15
      vertex 1.98904 2.00094 15
    endloop
  endfacet
  facet normal 0 0 1
    outer loop
      vertex 1.98904 2.41906 15
      vertex 3.03109 3.96 15
      vertex 2.83156 4.26725 15
    endloop
  endfacet
  facet normal 0 0 1
    outer loop
      vertex 3.42352 1.48231 15
      vertex 1.9563 1.79418 15
      vertex 3.3287 1.12844 15
    endloop
  endfacet
  facet normal -0 0 1
    outer loop
      vertex 1.90211 1.59197 15
      vertex 3.3287 1.12844 15
      vertex 1.9563 1.79418 15
    endloop
  endfacet
  facet normal 0 0 1
    outer loop
      vertex 1.98904 2.41906 15
      vertex 2.83156 4.26725 15
      vertex 2.60101 4.55196 15
    endloop
  endfacet
  facet normal 0 0 1
    outer loop
      vertex 1.98904 2.41906 15
      vertex 2.60101 4.55196 15
      vertex 2.34196 4.81101 15
    endloop
  endfacet
  facet normal 0 0 1
    outer loop
      vertex 1.33826 3.69629 15
      vertex 2.34196 4.81101 15
      vertex 2.05725 5.04156 15
    endloop
  endfacet
  facet normal 0 0 1
    outer loop
      vertex 3.3287 1.12844 15
      vertex 1.90211 1.59197 15
      vertex 3.19741 0.786423 15
    endloop
  endfacet
  facet normal -0 0 1
    outer loop
      vertex 1.82709 1.39653 15
      vertex 3.19741 0.786423 15
      vertex 1.90211 1.59197 15
    endloop
  endfacet
  facet normal 0 0 1
    outer loop
      vertex 3.19741 0.786423 15
      vertex 1.82709 1.39653 15
      vertex 3.03109 0.460001 15
    endloop
  endfacet
  facet normal -0 0 1
    outer loop
      vertex 1.73205 1.21 15
      vertex 3.03109 0.460001 15
      vertex 1.82709 1.39653 15
    endloop
  endfacet
  facet normal 0 0 1
    outer loop
      vertex 3.03109 0.460001 15
      vertex 1.73205 1.21 15
      vertex 2.83156 0.152752 15
    endloop
  endfacet
  facet normal -0 0 1
    outer loop
      vertex 1.61803 1.03443 15
      vertex 2.83156 0.152752 15
      vertex 1.73205 1.21 15
    endloop
  endfacet
  facet normal 0 0 1
    outer loop
      vertex 2.83156 0.152752 15
      vertex 1.61803 1.03443 15
      vertex 2.70786 -3.33067e-015 15
    endloop
  endfacet
  facet normal -0 0 1
    outer loop
      vertex 1.48629 0.871739 15
      vertex 2.70786 -3.33067e-015 15
      vertex 1.61803 1.03443 15
    endloop
  endfacet
  facet normal -0 0 1
    outer loop
      vertex 1.33826 0.723711 15
      vertex 2.70786 -3.33067e-015 15
      vertex 1.48629 0.871739 15
    endloop
  endfacet
  facet normal 0 0 1
    outer loop
      vertex 1.01246 -3.33067e-015 15
      vertex 1.33826 0.723711 15
      vertex 1.17557 0.591967 15
    endloop
  endfacet
  facet normal 0 0 1
    outer loop
      vertex 1.01246 -3.33067e-015 15
      vertex 1.17557 0.591967 15
      vertex 1.09827 0.541769 15
    endloop
  endfacet
  facet normal 0 0 1
    outer loop
      vertex 1.33826 0.723711 15
      vertex 1.01246 -3.33067e-015 15
      vertex 2.70786 -3.33067e-015 15
    endloop
  endfacet
  facet normal 0 0 1
    outer loop
      vertex -1.17557 0.591967 15
      vertex -1.01246 -3.33067e-015 15
      vertex -1.09827 0.541769 15
    endloop
  endfacet
  facet normal 0 0 1
    outer loop
      vertex -1.33826 0.723711 15
      vertex -1.01246 -3.33067e-015 15
      vertex -1.17557 0.591967 15
    endloop
  endfacet
  facet normal 0 0 1
    outer loop
      vertex -2.70786 -3.33067e-015 15
      vertex -1.33826 0.723711 15
      vertex -1.48629 0.871739 15
    endloop
  endfacet
  facet normal 0 0 1
    outer loop
      vertex -2.70786 -3.33067e-015 15
      vertex -1.48629 0.871739 15
      vertex -1.61803 1.03443 15
    endloop
  endfacet
  facet normal 0 0 1
    outer loop
      vertex -2.83156 0.152752 15
      vertex -1.61803 1.03443 15
      vertex -1.73205 1.21 15
    endloop
  endfacet
  facet normal -0 0 1
    outer loop
      vertex -3.19741 3.63358 15
      vertex -1.82709 3.02347 15
      vertex -3.03109 3.96 15
    endloop
  endfacet
  facet normal 0 0 1
    outer loop
      vertex -1.82709 3.02347 15
      vertex -3.19741 3.63358 15
      vertex -1.90211 2.82803 15
    endloop
  endfacet
  facet normal -0 0 1
    outer loop
      vertex -3.3287 3.29156 15
      vertex -1.90211 2.82803 15
      vertex -3.19741 3.63358 15
    endloop
  endfacet
  facet normal 0 0 1
    outer loop
      vertex -1.90211 2.82803 15
      vertex -3.3287 3.29156 15
      vertex -1.9563 2.62582 15
    endloop
  endfacet
  facet normal 0 0 1
    outer loop
      vertex -1.33826 0.723711 15
      vertex -2.70786 -3.33067e-015 15
      vertex -1.01246 -3.33067e-015 15
    endloop
  endfacet
  facet normal 0 0 1
    outer loop
      vertex -3.03109 0.460001 15
      vertex -1.73205 1.21 15
      vertex -1.82709 1.39653 15
    endloop
  endfacet
  facet normal 0 0 1
    outer loop
      vertex -3.19741 0.786423 15
      vertex -1.82709 1.39653 15
      vertex -1.90211 1.59197 15
    endloop
  endfacet
  facet normal 0 0 1
    outer loop
      vertex -3.3287 1.12844 15
      vertex -1.90211 1.59197 15
      vertex -1.9563 1.79418 15
    endloop
  endfacet
  facet normal -0 0 1
    outer loop
      vertex -3.42352 2.93769 15
      vertex -1.9563 2.62582 15
      vertex -3.3287 3.29156 15
    endloop
  endfacet
  facet normal 0 0 1
    outer loop
      vertex -1.9563 2.62582 15
      vertex -3.42352 2.93769 15
      vertex -1.98904 2.41906 15
    endloop
  endfacet
  facet normal -0 0 1
    outer loop
      vertex -3.48083 2.57585 15
      vertex -1.98904 2.41906 15
      vertex -3.42352 2.93769 15
    endloop
  endfacet
  facet normal 0 0 1
    outer loop
      vertex -1.73205 1.21 15
      vertex -3.03109 0.460001 15
      vertex -2.83156 0.152752 15
    endloop
  endfacet
  facet normal 0 0 1
    outer loop
      vertex -1.61803 1.03443 15
      vertex -2.83156 0.152752 15
      vertex -2.70786 -3.33067e-015 15
    endloop
  endfacet
  facet normal 0 0 1
    outer loop
      vertex -1.98904 2.41906 15
      vertex -3.48083 2.57585 15
      vertex -2 2.21 15
    endloop
  endfacet
  facet normal 0 0 1
    outer loop
      vertex -1.82709 1.39653 15
      vertex -3.19741 0.786423 15
      vertex -3.03109 0.460001 15
    endloop
  endfacet
  facet normal 0 0 1
    outer loop
      vertex -3.5 2.21 15
      vertex -2 2.21 15
      vertex -3.48083 2.57585 15
    endloop
  endfacet
  facet normal 0 0 1
    outer loop
      vertex -1.90211 1.59197 15
      vertex -3.3287 1.12844 15
      vertex -3.19741 0.786423 15
    endloop
  endfacet
  facet normal 0 0 1
    outer loop
      vertex -2 2.21 15
      vertex -3.5 2.21 15
      vertex -1.98904 2.00094 15
    endloop
  endfacet
  facet normal 0 0 1
    outer loop
      vertex -1.9563 1.79418 15
      vertex -3.42352 1.48231 15
      vertex -3.3287 1.12844 15
    endloop
  endfacet
  facet normal 0 -0 1
    outer loop
      vertex -3.48083 1.84415 15
      vertex -1.98904 2.00094 15
      vertex -3.5 2.21 15
    endloop
  endfacet
  facet normal 0 0 1
    outer loop
      vertex -1.9563 1.79418 15
      vertex -3.48083 1.84415 15
      vertex -3.42352 1.48231 15
    endloop
  endfacet
  facet normal 0 0 1
    outer loop
      vertex -1.98904 2.00094 15
      vertex -3.48083 1.84415 15
      vertex -1.9563 1.79418 15
    endloop
  endfacet
  facet normal 0 0 1
    outer loop
      vertex -2.05725 -0.621559 15
      vertex -1.01246 -8.12262e-007 15
      vertex -1.01246 -2.83006e-009 15
    endloop
  endfacet
  facet normal 0 0 1
    outer loop
      vertex -1.01246 -8.12262e-007 15
      vertex -1.42358 -0.987409 15
      vertex -1.18345 -1.07958 15
    endloop
  endfacet
  facet normal 0 0 1
    outer loop
      vertex -1.01246 -8.12262e-007 15
      vertex -1.75 -0.821089 15
      vertex -1.42358 -0.987409 15
    endloop
  endfacet
  facet normal 0 0 1
    outer loop
      vertex -1.01246 -8.12262e-007 15
      vertex -2.05725 -0.621559 15
      vertex -1.75 -0.821089 15
    endloop
  endfacet
  facet normal 0 0 1
    outer loop
      vertex -1.01246 -2.83006e-009 15
      vertex -2.34196 -0.391006 15
      vertex -2.05725 -0.621559 15
    endloop
  endfacet
  facet normal 0 0 1
    outer loop
      vertex -1.01246 -2.83006e-009 15
      vertex -2.60101 -0.131957 15
      vertex -2.34196 -0.391006 15
    endloop
  endfacet
  facet normal 0 -0 1
    outer loop
      vertex -2.60101 -0.131957 15
      vertex -1.01246 -2.83006e-009 15
      vertex -2.70786 -2.83006e-009 15
    endloop
  endfacet
  facet normal -0 0 1
    outer loop
      vertex 1.01246 -2.83006e-009 15
      vertex 2.60101 -0.131957 15
      vertex 2.70786 -2.83006e-009 15
    endloop
  endfacet
  facet normal 0 0 1
    outer loop
      vertex 2.60101 -0.131957 15
      vertex 1.01246 -2.83006e-009 15
      vertex 2.34196 -0.391006 15
    endloop
  endfacet
  facet normal 0 0 1
    outer loop
      vertex 2.34196 -0.391006 15
      vertex 1.01246 -2.83006e-009 15
      vertex 2.05725 -0.621559 15
    endloop
  endfacet
  facet normal -0 0 1
    outer loop
      vertex 1.01246 -8.12262e-007 15
      vertex 2.05725 -0.621559 15
      vertex 1.01246 -2.83006e-009 15
    endloop
  endfacet
  facet normal 0 0 1
    outer loop
      vertex 1.75 -0.821089 15
      vertex 1.01246 -8.12262e-007 15
      vertex 1.42358 -0.987409 15
    endloop
  endfacet
  facet normal 0 0 1
    outer loop
      vertex 2.05725 -0.621559 15
      vertex 1.01246 -8.12262e-007 15
      vertex 1.75 -0.821089 15
    endloop
  endfacet
  facet normal 0 0 1
    outer loop
      vertex 1.42358 -0.987409 15
      vertex 1.01246 -8.12262e-007 15
      vertex 1.18345 -1.07958 15
    endloop
  endfacet
  facet normal 0.453992 -0.891006 0
    outer loop
      vertex 1.42358 -0.987409 -4.49166e-017
      vertex 1.75 -0.821089 -6.41049e-016
      vertex 1.75 -0.821089 3.19877e-017
    endloop
  endfacet
  facet normal 0.453992 -0.891006 0
    outer loop
      vertex 1.75 -0.821089 -6.41049e-016
      vertex 1.42358 -0.987409 -4.49166e-017
      vertex 1.42358 -0.987409 -7.54884e-016
    endloop
  endfacet
  facet normal 0.358347 -0.933589 0
    outer loop
      vertex 1.18345 -1.07958 -9.47892e-017
      vertex 1.42358 -0.987409 -7.54884e-016
      vertex 1.42358 -0.987409 -4.49166e-017
    endloop
  endfacet
  facet normal 0.358347 -0.933589 0
    outer loop
      vertex 1.42358 -0.987409 -7.54884e-016
      vertex 1.18345 -1.07958 -9.47892e-017
      vertex 1.18345 -1.07958 -8.25223e-016
    endloop
  endfacet
  facet normal 0.544638 -0.838671 0
    outer loop
      vertex 1.75 -0.821089 3.19877e-017
      vertex 2.05725 -0.621559 -5.14814e-016
      vertex 2.05725 -0.621559 1.13918e-016
    endloop
  endfacet
  facet normal 0.544638 -0.838671 0
    outer loop
      vertex 2.05725 -0.621559 -5.14814e-016
      vertex 1.75 -0.821089 3.19877e-017
      vertex 1.75 -0.821089 -6.41049e-016
    endloop
  endfacet
  facet normal -0.0523269 0.99863 -6.40798e-018
    outer loop
      vertex -2.35933e-031 5.71 2.04503e-015
      vertex -0.365849 5.69083 15
      vertex -1.83691e-015 5.71 15
    endloop
  endfacet
  facet normal -0.0523269 0.99863 0
    outer loop
      vertex -0.365849 5.69083 15
      vertex -2.35933e-031 5.71 2.04503e-015
      vertex -0.365849 5.69083 1.99171e-015
    endloop
  endfacet
  facet normal -0.258822 0.965925 0
    outer loop
      vertex -0.727691 5.63352 1.92195e-015
      vertex -1.08156 5.5387 15
      vertex -0.727691 5.63352 15
    endloop
  endfacet
  facet normal -0.258822 0.965925 0
    outer loop
      vertex -1.08156 5.5387 15
      vertex -0.727691 5.63352 1.92195e-015
      vertex -1.08156 5.5387 1.83651e-015
    endloop
  endfacet
  facet normal -0.629314 0.777151 0
    outer loop
      vertex -2.05725 5.04156 1.49625e-015
      vertex -2.34196 4.81101 15
      vertex -2.05725 5.04156 15
    endloop
  endfacet
  facet normal -0.629314 0.777151 0
    outer loop
      vertex -2.34196 4.81101 15
      vertex -2.05725 5.04156 1.49625e-015
      vertex -2.34196 4.81101 1.359e-015
    endloop
  endfacet
  facet normal -0.453992 0.891006 0
    outer loop
      vertex -1.42358 5.40741 1.73632e-015
      vertex -1.75 5.24109 15
      vertex -1.42358 5.40741 15
    endloop
  endfacet
  facet normal -0.453992 0.891006 0
    outer loop
      vertex -1.75 5.24109 15
      vertex -1.42358 5.40741 1.73632e-015
      vertex -1.75 5.24109 1.62249e-015
    endloop
  endfacet
  facet normal -0.777151 0.629314 0
    outer loop
      vertex -2.83156 4.26725 1.05757e-015
      vertex -2.60101 4.55196 15
      vertex -2.60101 4.55196 1.21224e-015
    endloop
  endfacet
  facet normal -0.777151 0.629314 0
    outer loop
      vertex -2.60101 4.55196 15
      vertex -2.83156 4.26725 1.05757e-015
      vertex -2.83156 4.26725 15
    endloop
  endfacet
  facet normal -0.891006 0.453992 0
    outer loop
      vertex -3.19741 3.63358 7.31357e-016
      vertex -3.03109 3.96 15
      vertex -3.03109 3.96 8.96685e-016
    endloop
  endfacet
  facet normal -0.891006 0.453992 0
    outer loop
      vertex -3.03109 3.96 15
      vertex -3.19741 3.63358 7.31357e-016
      vertex -3.19741 3.63358 15
    endloop
  endfacet
  facet normal 0.707107 0.707107 0
    outer loop
      vertex 2.60101 4.55196 15
      vertex 2.34196 4.81101 1.9326e-015
      vertex 2.34196 4.81101 15
    endloop
  endfacet
  facet normal 0.707107 0.707107 0
    outer loop
      vertex 2.34196 4.81101 1.9326e-015
      vertex 2.60101 4.55196 15
      vertex 2.60101 4.55196 1.84928e-015
    endloop
  endfacet
  facet normal 0.544638 0.838671 0
    outer loop
      vertex 2.05725 5.04156 15
      vertex 1.75 5.24109 2.0511e-015
      vertex 1.75 5.24109 15
    endloop
  endfacet
  facet normal 0.544638 0.838671 0
    outer loop
      vertex 1.75 5.24109 2.0511e-015
      vertex 2.05725 5.04156 15
      vertex 2.05725 5.04156 2.00012e-015
    endloop
  endfacet
  facet normal 0.35837 0.93358 0
    outer loop
      vertex 1.42358 5.40741 15
      vertex 1.08156 5.5387 2.10141e-015
      vertex 1.08156 5.5387 15
    endloop
  endfacet
  facet normal 0.35837 0.93358 0
    outer loop
      vertex 1.08156 5.5387 2.10141e-015
      vertex 1.42358 5.40741 15
      vertex 1.42358 5.40741 2.08499e-015
    endloop
  endfacet
  facet normal 0.156434 0.987688 -0
    outer loop
      vertex 0.727691 5.63352 2.10018e-015
      vertex 0.365849 5.69083 15
      vertex 0.727691 5.63352 15
    endloop
  endfacet
  facet normal 0.156434 0.987688 0
    outer loop
      vertex 0.365849 5.69083 15
      vertex 0.727691 5.63352 2.10018e-015
      vertex 0.365849 5.69083 2.08132e-015
    endloop
  endfacet
  facet normal 0.93358 0.35837 0
    outer loop
      vertex 3.3287 3.29156 15
      vertex 3.19741 3.63358 1.51447e-015
      vertex 3.19741 3.63358 15
    endloop
  endfacet
  facet normal 0.93358 0.35837 0
    outer loop
      vertex 3.19741 3.63358 1.51447e-015
      vertex 3.3287 3.29156 15
      vertex 3.3287 3.29156 1.37866e-015
    endloop
  endfacet
  facet normal 0.838671 0.544638 0
    outer loop
      vertex 3.03109 3.96 15
      vertex 2.83156 4.26725 1.75107e-015
      vertex 2.83156 4.26725 15
    endloop
  endfacet
  facet normal 0.838671 0.544638 0
    outer loop
      vertex 2.83156 4.26725 1.75107e-015
      vertex 3.03109 3.96 15
      vertex 3.03109 3.96 1.63906e-015
    endloop
  endfacet
  facet normal 0.965925 0.258821 0
    outer loop
      vertex 3.42352 2.93769 15
      vertex 3.3287 3.29156 1.37866e-015
      vertex 3.3287 3.29156 15
    endloop
  endfacet
  facet normal 0.965925 0.258821 0
    outer loop
      vertex 3.3287 3.29156 1.37866e-015
      vertex 3.42352 2.93769 15
      vertex 3.42352 2.93769 1.23312e-015
    endloop
  endfacet
  facet normal 1.22464e-016 4.4409e-016 -1
    outer loop
      vertex -1.01246 -8.12262e-007 -6.14706e-016
      vertex -1.17557 0.591967 -3.71794e-016
      vertex -1.09827 0.541769 -3.8462e-016
    endloop
  endfacet
  facet normal 1.22445e-016 4.44096e-016 -1
    outer loop
      vertex -1.42358 -0.987409 -1.10355e-015
      vertex -1.01246 -8.12262e-007 -6.14706e-016
      vertex -1.18345 -1.07958 -1.11508e-015
    endloop
  endfacet
  facet normal 1.22454e-016 4.44093e-016 -1
    outer loop
      vertex -1.75 -0.821089 -1.06966e-015
      vertex -1.01246 -8.12262e-007 -6.14706e-016
      vertex -1.42358 -0.987409 -1.10355e-015
    endloop
  endfacet
  facet normal 1.22466e-016 4.44082e-016 -1
    outer loop
      vertex -2.05725 -0.621559 -1.01868e-015
      vertex -1.01246 -8.12262e-007 -6.14706e-016
      vertex -1.75 -0.821089 -1.06966e-015
    endloop
  endfacet
  facet normal 1.22459e-016 4.44094e-016 -1
    outer loop
      vertex -2.34196 -0.391006 -9.51158e-016
      vertex -1.01246 -8.12262e-007 -6.14706e-016
      vertex -2.05725 -0.621559 -1.01868e-015
    endloop
  endfacet
  facet normal 1.2246e-016 4.44089e-016 -1
    outer loop
      vertex -1.01246 -8.12262e-007 -6.14706e-016
      vertex -1.33826 0.723711 -3.33211e-016
      vertex -1.17557 0.591967 -3.71794e-016
    endloop
  endfacet
  facet normal 1.2246e-016 4.44089e-016 -1
    outer loop
      vertex -1.01246 -8.12262e-007 -6.14706e-016
      vertex -2.34196 -0.391006 -9.51158e-016
      vertex -1.33826 0.723711 -3.33211e-016
    endloop
  endfacet
  facet normal 1.22456e-016 4.44093e-016 -1
    outer loop
      vertex -1.33826 0.723711 -3.33211e-016
      vertex -2.34196 -0.391006 -9.51158e-016
      vertex -1.48629 0.871739 -2.856e-016
    endloop
  endfacet
  facet normal 1.2246e-016 4.4409e-016 -1
    outer loop
      vertex -2.60101 -0.131957 -8.6784e-016
      vertex -1.48629 0.871739 -2.856e-016
      vertex -2.34196 -0.391006 -9.51158e-016
    endloop
  endfacet
  facet normal 1.22465e-016 4.44084e-016 -1
    outer loop
      vertex -1.48629 0.871739 -2.856e-016
      vertex -2.60101 -0.131957 -8.6784e-016
      vertex -1.61803 1.03443 -2.29485e-016
    endloop
  endfacet
  facet normal 1.22462e-016 4.44087e-016 -1
    outer loop
      vertex -2.83156 0.152752 -7.69638e-016
      vertex -1.61803 1.03443 -2.29485e-016
      vertex -2.60101 -0.131957 -8.6784e-016
    endloop
  endfacet
  facet normal 1.22457e-016 4.44094e-016 -1
    outer loop
      vertex -1.61803 1.03443 -2.29485e-016
      vertex -2.83156 0.152752 -7.69638e-016
      vertex -1.73205 1.21 -1.65478e-016
    endloop
  endfacet
  facet normal 1.22465e-016 4.44082e-016 -1
    outer loop
      vertex -1.73205 1.21 -1.65478e-016
      vertex -3.03109 0.460001 -6.57626e-016
      vertex -1.82709 1.39653 -9.42825e-017
    endloop
  endfacet
  facet normal 1.2246e-016 4.44091e-016 -1
    outer loop
      vertex -3.03109 0.460001 -6.57626e-016
      vertex -1.73205 1.21 -1.65478e-016
      vertex -2.83156 0.152752 -7.69638e-016
    endloop
  endfacet
  facet normal 1.22461e-016 4.4409e-016 -1
    outer loop
      vertex 2 2.21 7.3564e-016
      vertex 3.5 2.21 9.19331e-016
      vertex 3.48083 1.84415 7.54513e-016
    endloop
  endfacet
  facet normal 1.2246e-016 4.44091e-016 -1
    outer loop
      vertex 1.98904 2.00094 6.41458e-016
      vertex 3.48083 1.84415 7.54513e-016
      vertex 3.42352 1.48231 5.86805e-016
    endloop
  endfacet
  facet normal 1.22461e-016 4.4408e-016 -1
    outer loop
      vertex 3.5 2.21 9.19331e-016
      vertex 2 2.21 7.3564e-016
      vertex 3.48083 2.57585 1.07945e-015
    endloop
  endfacet
  facet normal 1.22461e-016 4.44087e-016 -1
    outer loop
      vertex 1.9563 1.79418 5.45625e-016
      vertex 3.42352 1.48231 5.86805e-016
      vertex 3.3287 1.12844 4.18044e-016
    endloop
  endfacet
  facet normal 1.2246e-016 4.44084e-016 -1
    outer loop
      vertex 1.98904 2.41906 8.27138e-016
      vertex 3.48083 2.57585 1.07945e-015
      vertex 2 2.21 7.3564e-016
    endloop
  endfacet
  facet normal 1.22461e-016 4.44089e-016 -1
    outer loop
      vertex 1.90211 1.59197 4.49191e-016
      vertex 3.3287 1.12844 4.18044e-016
      vertex 3.19741 0.786423 2.5008e-016
    endloop
  endfacet
  facet normal 1.22459e-016 4.44086e-016 -1
    outer loop
      vertex 3.48083 2.57585 1.07945e-015
      vertex 1.98904 2.41906 8.27138e-016
      vertex 3.42352 2.93769 1.23312e-015
    endloop
  endfacet
  facet normal 1.22461e-016 4.44089e-016 -1
    outer loop
      vertex 1.82709 1.39653 3.53211e-016
      vertex 3.19741 0.786423 2.5008e-016
      vertex 3.03109 0.460001 8.47519e-017
    endloop
  endfacet
  facet normal 1.22456e-016 4.44096e-016 -1
    outer loop
      vertex 1.9563 2.62582 9.1495e-016
      vertex 3.42352 2.93769 1.23312e-015
      vertex 1.98904 2.41906 8.27138e-016
    endloop
  endfacet
  facet normal 1.2246e-016 4.44089e-016 -1
    outer loop
      vertex 1.73205 1.21 2.58738e-016
      vertex 3.03109 0.460001 8.47519e-017
      vertex 2.83156 0.152752 -7.61286e-017
    endloop
  endfacet
  facet normal 1.22456e-016 4.44093e-016 -1
    outer loop
      vertex 3.42352 2.93769 1.23312e-015
      vertex 1.9563 2.62582 9.1495e-016
      vertex 3.3287 3.29156 1.37866e-015
    endloop
  endfacet
  facet normal 1.2246e-016 4.44089e-016 -1
    outer loop
      vertex 1.61803 1.03443 1.66806e-016
      vertex 2.83156 0.152752 -7.61286e-017
      vertex 2.60101 -0.131957 -2.30798e-016
    endloop
  endfacet
  facet normal 1.22455e-016 4.44097e-016 -1
    outer loop
      vertex 1.90211 2.82803 9.98115e-016
      vertex 3.3287 3.29156 1.37866e-015
      vertex 1.9563 2.62582 9.1495e-016
    endloop
  endfacet
  facet normal 1.22462e-016 4.44091e-016 -1
    outer loop
      vertex 1.48629 0.871739 7.84234e-017
      vertex 2.60101 -0.131957 -2.30798e-016
      vertex 2.34196 -0.391006 -3.77563e-016
    endloop
  endfacet
  facet normal 1.22457e-016 4.44089e-016 -1
    outer loop
      vertex 3.3287 3.29156 1.37866e-015
      vertex 1.90211 2.82803 9.98115e-016
      vertex 3.19741 3.63358 1.51447e-015
    endloop
  endfacet
  facet normal 1.22459e-016 4.44087e-016 -1
    outer loop
      vertex 1.01246 -8.12262e-007 -3.66732e-016
      vertex 2.34196 -0.391006 -3.77563e-016
      vertex 2.05725 -0.621559 -5.14814e-016
    endloop
  endfacet
  facet normal 1.2246e-016 4.44085e-016 -1
    outer loop
      vertex 1.82709 3.02347 1.07572e-015
      vertex 3.19741 3.63358 1.51447e-015
      vertex 1.90211 2.82803 9.98115e-016
    endloop
  endfacet
  facet normal 1.22461e-016 4.44083e-016 -1
    outer loop
      vertex 3.19741 3.63358 1.51447e-015
      vertex 1.82709 3.02347 1.07572e-015
      vertex 3.03109 3.96 1.63906e-015
    endloop
  endfacet
  facet normal 1.22459e-016 4.44082e-016 -1
    outer loop
      vertex 3.48083 1.84415 7.54513e-016
      vertex 1.98904 2.00094 6.41458e-016
      vertex 2 2.21 7.3564e-016
    endloop
  endfacet
  facet normal 1.22465e-016 4.44107e-016 -1
    outer loop
      vertex 3.42352 1.48231 5.86805e-016
      vertex 1.9563 1.79418 5.45625e-016
      vertex 1.98904 2.00094 6.41458e-016
    endloop
  endfacet
  facet normal 1.22459e-016 4.44083e-016 -1
    outer loop
      vertex 3.3287 1.12844 4.18044e-016
      vertex 1.90211 1.59197 4.49191e-016
      vertex 1.9563 1.79418 5.45625e-016
    endloop
  endfacet
  facet normal 1.22461e-016 4.4409e-016 -1
    outer loop
      vertex 3.19741 0.786423 2.5008e-016
      vertex 1.82709 1.39653 3.53211e-016
      vertex 1.90211 1.59197 4.49191e-016
    endloop
  endfacet
  facet normal 1.2246e-016 4.44089e-016 -1
    outer loop
      vertex 1.01246 -8.12262e-007 -3.66732e-016
      vertex 2.05725 -0.621559 -5.14814e-016
      vertex 1.75 -0.821089 -6.41049e-016
    endloop
  endfacet
  facet normal 1.22456e-016 4.44083e-016 -1
    outer loop
      vertex 3.03109 0.460001 8.47519e-017
      vertex 1.73205 1.21 2.58738e-016
      vertex 1.82709 1.39653 3.53211e-016
    endloop
  endfacet
  facet normal 1.22461e-016 4.44091e-016 -1
    outer loop
      vertex 2.83156 0.152752 -7.61286e-017
      vertex 1.61803 1.03443 1.66806e-016
      vertex 1.73205 1.21 2.58738e-016
    endloop
  endfacet
  facet normal 1.22462e-016 4.4409e-016 -1
    outer loop
      vertex 2.60101 -0.131957 -2.30798e-016
      vertex 1.48629 0.871739 7.84234e-017
      vertex 1.61803 1.03443 1.66806e-016
    endloop
  endfacet
  facet normal 1.22462e-016 4.4409e-016 -1
    outer loop
      vertex 1.01246 -8.12262e-007 -3.66732e-016
      vertex 1.75 -0.821089 -6.41049e-016
      vertex 1.42358 -0.987409 -7.54884e-016
    endloop
  endfacet
  facet normal 1.2246e-016 4.4409e-016 -1
    outer loop
      vertex 2.34196 -0.391006 -3.77563e-016
      vertex 1.33826 0.723711 -5.44209e-018
      vertex 1.48629 0.871739 7.84234e-017
    endloop
  endfacet
  facet normal 1.22462e-016 4.4409e-016 -1
    outer loop
      vertex 1.01246 -8.12262e-007 -3.66732e-016
      vertex 1.42358 -0.987409 -7.54884e-016
      vertex 1.18345 -1.07958 -8.25223e-016
    endloop
  endfacet
  facet normal 1.2246e-016 4.44089e-016 -1
    outer loop
      vertex 2.34196 -0.391006 -3.77563e-016
      vertex 1.01246 -8.12262e-007 -3.66732e-016
      vertex 1.33826 0.723711 -5.44209e-018
    endloop
  endfacet
  facet normal 1.22463e-016 4.44088e-016 -1
    outer loop
      vertex 1.33826 0.723711 -5.44209e-018
      vertex 1.01246 -8.12262e-007 -3.66732e-016
      vertex 1.17557 0.591967 -8.38715e-017
    endloop
  endfacet
  facet normal 1.2246e-016 4.44088e-016 -1
    outer loop
      vertex 1.17557 0.591967 -8.38715e-017
      vertex 1.01246 -8.12262e-007 -3.66732e-016
      vertex 1.09827 0.541769 -1.1563e-016
    endloop
  endfacet
  facet normal 1.22449e-016 4.44098e-016 -1
    outer loop
      vertex 1.73205 3.21 1.14692e-015
      vertex 3.03109 3.96 1.63906e-015
      vertex 1.82709 3.02347 1.07572e-015
    endloop
  endfacet
  facet normal 1.22459e-016 4.44082e-016 -1
    outer loop
      vertex 3.03109 3.96 1.63906e-015
      vertex 1.73205 3.21 1.14692e-015
      vertex 2.83156 4.26725 1.75107e-015
    endloop
  endfacet
  facet normal 1.22475e-016 4.44065e-016 -1
    outer loop
      vertex 1.61803 3.38557 1.21092e-015
      vertex 2.83156 4.26725 1.75107e-015
      vertex 1.73205 3.21 1.14692e-015
    endloop
  endfacet
  facet normal 1.22448e-016 4.44102e-016 -1
    outer loop
      vertex 2.83156 4.26725 1.75107e-015
      vertex 1.61803 3.38557 1.21092e-015
      vertex 2.60101 4.55196 1.84928e-015
    endloop
  endfacet
  facet normal 1.22447e-016 4.44103e-016 -1
    outer loop
      vertex 1.48629 3.54826 1.26704e-015
      vertex 2.60101 4.55196 1.84928e-015
      vertex 1.61803 3.38557 1.21092e-015
    endloop
  endfacet
  facet normal 1.22456e-016 4.44093e-016 -1
    outer loop
      vertex 2.60101 4.55196 1.84928e-015
      vertex 1.48629 3.54826 1.26704e-015
      vertex 2.34196 4.81101 1.9326e-015
    endloop
  endfacet
  facet normal 1.22464e-016 4.44088e-016 -1
    outer loop
      vertex 1.33826 3.69629 1.31465e-015
      vertex 2.34196 4.81101 1.9326e-015
      vertex 1.48629 3.54826 1.26704e-015
    endloop
  endfacet
  facet normal 1.22459e-016 4.44092e-016 -1
    outer loop
      vertex 2.34196 4.81101 1.9326e-015
      vertex 1.33826 3.69629 1.31465e-015
      vertex 2.05725 5.04156 2.00012e-015
    endloop
  endfacet
  facet normal 1.22467e-016 4.44088e-016 -1
    outer loop
      vertex 1.17557 3.82803 1.35323e-015
      vertex 2.05725 5.04156 2.00012e-015
      vertex 1.33826 3.69629 1.31465e-015
    endloop
  endfacet
  facet normal 1.22469e-016 4.44086e-016 -1
    outer loop
      vertex 2.05725 5.04156 2.00012e-015
      vertex 1.17557 3.82803 1.35323e-015
      vertex 1.75 5.24109 2.0511e-015
    endloop
  endfacet
  facet normal 1.22482e-016 4.44081e-016 -1
    outer loop
      vertex 1 3.94205 1.38236e-015
      vertex 1.75 5.24109 2.0511e-015
      vertex 1.17557 3.82803 1.35323e-015
    endloop
  endfacet
  facet normal 1.22456e-016 4.44096e-016 -1
    outer loop
      vertex 1.75 5.24109 2.0511e-015
      vertex 1 3.94205 1.38236e-015
      vertex 1.42358 5.40741 2.08499e-015
    endloop
  endfacet
  facet normal 1.22435e-016 4.44102e-016 -1
    outer loop
      vertex 0.813473 4.03709 1.40173e-015
      vertex 1.42358 5.40741 2.08499e-015
      vertex 1 3.94205 1.38236e-015
    endloop
  endfacet
  facet normal 1.22462e-016 4.4409e-016 -1
    outer loop
      vertex 1.42358 5.40741 2.08499e-015
      vertex 0.813473 4.03709 1.40173e-015
      vertex 1.08156 5.5387 2.10141e-015
    endloop
  endfacet
  facet normal 1.2247e-016 4.44088e-016 -1
    outer loop
      vertex 0.618033 4.11211 1.41111e-015
      vertex 1.08156 5.5387 2.10141e-015
      vertex 0.813473 4.03709 1.40173e-015
    endloop
  endfacet
  facet normal 1.2247e-016 4.44088e-016 -1
    outer loop
      vertex 1.08156 5.5387 2.10141e-015
      vertex 0.618033 4.11211 1.41111e-015
      vertex 0.727691 5.63352 2.10018e-015
    endloop
  endfacet
  facet normal 1.22472e-016 4.44088e-016 -1
    outer loop
      vertex 0.415823 4.1663 1.41041e-015
      vertex 0.727691 5.63352 2.10018e-015
      vertex 0.618033 4.11211 1.41111e-015
    endloop
  endfacet
  facet normal 1.22459e-016 4.44091e-016 -1
    outer loop
      vertex 0.415823 4.1663 1.41041e-015
      vertex 0.365849 5.69083 2.08132e-015
      vertex 0.727691 5.63352 2.10018e-015
    endloop
  endfacet
  facet normal 1.22455e-016 4.44091e-016 -1
    outer loop
      vertex 0.209057 4.19904 1.39963e-015
      vertex 0.365849 5.69083 2.08132e-015
      vertex 0.415823 4.1663 1.41041e-015
    endloop
  endfacet
  facet normal 1.22441e-016 4.44092e-016 -1
    outer loop
      vertex -1.58168e-031 4.21 1.3789e-015
      vertex 0.365849 5.69083 2.08132e-015
      vertex 0.209057 4.19904 1.39963e-015
    endloop
  endfacet
  facet normal 1.22463e-016 4.44087e-016 -1
    outer loop
      vertex -1.58168e-031 4.21 1.3789e-015
      vertex -2.35933e-031 5.71 2.04503e-015
      vertex 0.365849 5.69083 2.08132e-015
    endloop
  endfacet
  facet normal 1.22468e-016 4.44087e-016 -1
    outer loop
      vertex -0.209057 4.19904 1.34843e-015
      vertex -2.35933e-031 5.71 2.04503e-015
      vertex -1.58168e-031 4.21 1.3789e-015
    endloop
  endfacet
  facet normal 1.22474e-016 4.44086e-016 -1
    outer loop
      vertex -0.209057 4.19904 1.34843e-015
      vertex -0.365849 5.69083 1.99171e-015
      vertex -2.35933e-031 5.71 2.04503e-015
    endloop
  endfacet
  facet normal 1.22461e-016 4.44085e-016 -1
    outer loop
      vertex -0.415823 4.1663 1.30857e-015
      vertex -0.365849 5.69083 1.99171e-015
      vertex -0.209057 4.19904 1.34843e-015
    endloop
  endfacet
  facet normal 1.22471e-016 4.44088e-016 -1
    outer loop
      vertex -0.727691 5.63352 1.92195e-015
      vertex -0.415823 4.1663 1.30857e-015
      vertex -0.618033 4.11211 1.25974e-015
    endloop
  endfacet
  facet normal 1.22455e-016 4.44085e-016 -1
    outer loop
      vertex -0.415823 4.1663 1.30857e-015
      vertex -0.727691 5.63352 1.92195e-015
      vertex -0.365849 5.69083 1.99171e-015
    endloop
  endfacet
  facet normal 1.22464e-016 4.44091e-016 -1
    outer loop
      vertex -1.08156 5.5387 1.83651e-015
      vertex -0.618033 4.11211 1.25974e-015
      vertex -0.813473 4.03709 1.20249e-015
    endloop
  endfacet
  facet normal 1.22467e-016 4.44092e-016 -1
    outer loop
      vertex -1.42358 5.40741 1.73632e-015
      vertex -0.813473 4.03709 1.20249e-015
      vertex -1 3.94205 1.13744e-015
    endloop
  endfacet
  facet normal 1.22451e-016 4.44087e-016 -1
    outer loop
      vertex -0.618033 4.11211 1.25974e-015
      vertex -1.08156 5.5387 1.83651e-015
      vertex -0.727691 5.63352 1.92195e-015
    endloop
  endfacet
  facet normal 1.22436e-016 4.44079e-016 -1
    outer loop
      vertex -1.75 5.24109 1.62249e-015
      vertex -1 3.94205 1.13744e-015
      vertex -1.17557 3.82803 1.06531e-015
    endloop
  endfacet
  facet normal 1.22476e-016 4.44097e-016 -1
    outer loop
      vertex -2.05725 5.04156 1.49625e-015
      vertex -1.17557 3.82803 1.06531e-015
      vertex -1.33826 3.69629 9.86879e-016
    endloop
  endfacet
  facet normal 1.22465e-016 4.44091e-016 -1
    outer loop
      vertex -0.813473 4.03709 1.20249e-015
      vertex -1.42358 5.40741 1.73632e-015
      vertex -1.08156 5.5387 1.83651e-015
    endloop
  endfacet
  facet normal 1.22456e-016 4.44085e-016 -1
    outer loop
      vertex -2.34196 4.81101 1.359e-015
      vertex -1.33826 3.69629 9.86879e-016
      vertex -1.48629 3.54826 9.03014e-016
    endloop
  endfacet
  facet normal 1.22463e-016 4.44095e-016 -1
    outer loop
      vertex -2.60101 4.55196 1.21224e-015
      vertex -1.48629 3.54826 9.03014e-016
      vertex -1.61803 3.38557 8.14631e-016
    endloop
  endfacet
  facet normal 1.22459e-016 4.44092e-016 -1
    outer loop
      vertex -2.83156 4.26725 1.05757e-015
      vertex -1.61803 3.38557 8.14631e-016
      vertex -1.73205 3.21 7.22699e-016
    endloop
  endfacet
  facet normal 1.22448e-016 4.44087e-016 -1
    outer loop
      vertex -1 3.94205 1.13744e-015
      vertex -1.75 5.24109 1.62249e-015
      vertex -1.42358 5.40741 1.73632e-015
    endloop
  endfacet
  facet normal 1.22457e-016 4.44083e-016 -1
    outer loop
      vertex -3.03109 3.96 8.96685e-016
      vertex -1.73205 3.21 7.22699e-016
      vertex -1.82709 3.02347 6.28226e-016
    endloop
  endfacet
  facet normal 1.2246e-016 4.44085e-016 -1
    outer loop
      vertex -3.19741 3.63358 7.31357e-016
      vertex -1.82709 3.02347 6.28226e-016
      vertex -1.90211 2.82803 5.32247e-016
    endloop
  endfacet
  facet normal 1.22461e-016 4.44087e-016 -1
    outer loop
      vertex -3.3287 3.29156 5.63393e-016
      vertex -1.90211 2.82803 5.32247e-016
      vertex -1.9563 2.62582 4.35812e-016
    endloop
  endfacet
  facet normal 1.22465e-016 4.44107e-016 -1
    outer loop
      vertex -3.42352 2.93769 3.94632e-016
      vertex -1.9563 2.62582 4.35812e-016
      vertex -1.98904 2.41906 3.39979e-016
    endloop
  endfacet
  facet normal 1.22473e-016 4.44094e-016 -1
    outer loop
      vertex -1.17557 3.82803 1.06531e-015
      vertex -2.05725 5.04156 1.49625e-015
      vertex -1.75 5.24109 1.62249e-015
    endloop
  endfacet
  facet normal 1.22459e-016 4.44082e-016 -1
    outer loop
      vertex -3.48083 2.57585 2.26924e-016
      vertex -1.98904 2.41906 3.39979e-016
      vertex -2 2.21 2.45797e-016
    endloop
  endfacet
  facet normal 1.22459e-016 4.44089e-016 -1
    outer loop
      vertex -3.19741 0.786423 -5.33033e-016
      vertex -1.82709 1.39653 -9.42825e-017
      vertex -3.03109 0.460001 -6.57626e-016
    endloop
  endfacet
  facet normal 1.22461e-016 4.44086e-016 -1
    outer loop
      vertex -1.82709 1.39653 -9.42825e-017
      vertex -3.19741 0.786423 -5.33033e-016
      vertex -1.90211 1.59197 -1.66774e-017
    endloop
  endfacet
  facet normal 1.2246e-016 4.44088e-016 -1
    outer loop
      vertex -1.33826 3.69629 9.86879e-016
      vertex -2.34196 4.81101 1.359e-015
      vertex -2.05725 5.04156 1.49625e-015
    endloop
  endfacet
  facet normal 1.22459e-016 4.44088e-016 -1
    outer loop
      vertex -3.3287 1.12844 -3.97225e-016
      vertex -1.90211 1.59197 -1.66774e-017
      vertex -3.19741 0.786423 -5.33033e-016
    endloop
  endfacet
  facet normal 1.22451e-016 4.44081e-016 -1
    outer loop
      vertex -1.48629 3.54826 9.03014e-016
      vertex -2.60101 4.55196 1.21224e-015
      vertex -2.34196 4.81101 1.359e-015
    endloop
  endfacet
  facet normal 1.22458e-016 4.44094e-016 -1
    outer loop
      vertex -1.90211 1.59197 -1.66774e-017
      vertex -3.3287 1.12844 -3.97225e-016
      vertex -1.9563 1.79418 6.64869e-017
    endloop
  endfacet
  facet normal 1.22459e-016 4.44091e-016 -1
    outer loop
      vertex -1.61803 3.38557 8.14631e-016
      vertex -2.83156 4.26725 1.05757e-015
      vertex -2.60101 4.55196 1.21224e-015
    endloop
  endfacet
  facet normal 1.2246e-016 4.44089e-016 -1
    outer loop
      vertex -3.42352 1.48231 -2.51687e-016
      vertex -1.9563 1.79418 6.64869e-017
      vertex -3.3287 1.12844 -3.97225e-016
    endloop
  endfacet
  facet normal 1.22466e-016 4.44099e-016 -1
    outer loop
      vertex -1.73205 3.21 7.22699e-016
      vertex -3.03109 3.96 8.96685e-016
      vertex -2.83156 4.26725 1.05757e-015
    endloop
  endfacet
  facet normal 1.22458e-016 4.44096e-016 -1
    outer loop
      vertex -1.9563 1.79418 6.64869e-017
      vertex -3.42352 1.48231 -2.51687e-016
      vertex -1.98904 2.00094 1.54299e-016
    endloop
  endfacet
  facet normal 1.22463e-016 4.4409e-016 -1
    outer loop
      vertex -1.82709 3.02347 6.28226e-016
      vertex -3.19741 3.63358 7.31357e-016
      vertex -3.03109 3.96 8.96685e-016
    endloop
  endfacet
  facet normal 1.22461e-016 4.44091e-016 -1
    outer loop
      vertex -3.48083 1.84415 -9.80154e-017
      vertex -1.98904 2.00094 1.54299e-016
      vertex -3.42352 1.48231 -2.51687e-016
    endloop
  endfacet
  facet normal 1.22461e-016 4.44086e-016 -1
    outer loop
      vertex -1.90211 2.82803 5.32247e-016
      vertex -3.3287 3.29156 5.63393e-016
      vertex -3.19741 3.63358 7.31357e-016
    endloop
  endfacet
  facet normal 1.22461e-016 4.44084e-016 -1
    outer loop
      vertex -1.98904 2.00094 1.54299e-016
      vertex -3.48083 1.84415 -9.80154e-017
      vertex -2 2.21 2.45797e-016
    endloop
  endfacet
  facet normal 1.22461e-016 4.44087e-016 -1
    outer loop
      vertex -1.9563 2.62582 4.35812e-016
      vertex -3.42352 2.93769 3.94632e-016
      vertex -3.3287 3.29156 5.63393e-016
    endloop
  endfacet
  facet normal 1.2246e-016 4.44087e-016 -1
    outer loop
      vertex -3.5 2.21 6.21064e-017
      vertex -2 2.21 2.45797e-016
      vertex -3.48083 1.84415 -9.80154e-017
    endloop
  endfacet
  facet normal 1.2246e-016 4.44091e-016 -1
    outer loop
      vertex -1.98904 2.41906 3.39979e-016
      vertex -3.48083 2.57585 2.26924e-016
      vertex -3.42352 2.93769 3.94632e-016
    endloop
  endfacet
  facet normal 1.2246e-016 4.44089e-016 -1
    outer loop
      vertex -2 2.21 2.45797e-016
      vertex -3.5 2.21 6.21064e-017
      vertex -3.48083 2.57585 2.26924e-016
    endloop
  endfacet
  facet normal -0.156434 0.987688 0
    outer loop
      vertex -0.365849 5.69083 1.99171e-015
      vertex -0.727691 5.63352 15
      vertex -0.365849 5.69083 15
    endloop
  endfacet
  facet normal -0.156434 0.987688 0
    outer loop
      vertex -0.727691 5.63352 15
      vertex -0.365849 5.69083 1.99171e-015
      vertex -0.727691 5.63352 1.92195e-015
    endloop
  endfacet
  facet normal -0.35837 0.93358 0
    outer loop
      vertex -1.08156 5.5387 1.83651e-015
      vertex -1.42358 5.40741 15
      vertex -1.08156 5.5387 15
    endloop
  endfacet
  facet normal -0.35837 0.93358 0
    outer loop
      vertex -1.42358 5.40741 15
      vertex -1.08156 5.5387 1.83651e-015
      vertex -1.42358 5.40741 1.73632e-015
    endloop
  endfacet
  facet normal -0.707107 0.707107 0
    outer loop
      vertex -2.60101 4.55196 1.21224e-015
      vertex -2.34196 4.81101 15
      vertex -2.34196 4.81101 1.359e-015
    endloop
  endfacet
  facet normal -0.707107 0.707107 0
    outer loop
      vertex -2.34196 4.81101 15
      vertex -2.60101 4.55196 1.21224e-015
      vertex -2.60101 4.55196 15
    endloop
  endfacet
  facet normal -0.544638 0.838671 0
    outer loop
      vertex -1.75 5.24109 1.62249e-015
      vertex -2.05725 5.04156 15
      vertex -1.75 5.24109 15
    endloop
  endfacet
  facet normal -0.544638 0.838671 0
    outer loop
      vertex -2.05725 5.04156 15
      vertex -1.75 5.24109 1.62249e-015
      vertex -2.05725 5.04156 1.49625e-015
    endloop
  endfacet
  facet normal -0.838671 0.544638 0
    outer loop
      vertex -3.03109 3.96 8.96685e-016
      vertex -2.83156 4.26725 15
      vertex -2.83156 4.26725 1.05757e-015
    endloop
  endfacet
  facet normal -0.838671 0.544638 0
    outer loop
      vertex -2.83156 4.26725 15
      vertex -3.03109 3.96 8.96685e-016
      vertex -3.03109 3.96 15
    endloop
  endfacet
  facet normal -0.93358 0.35837 0
    outer loop
      vertex -3.3287 3.29156 5.63393e-016
      vertex -3.19741 3.63358 15
      vertex -3.19741 3.63358 7.31357e-016
    endloop
  endfacet
  facet normal -0.93358 0.35837 0
    outer loop
      vertex -3.19741 3.63358 15
      vertex -3.3287 3.29156 5.63393e-016
      vertex -3.3287 3.29156 15
    endloop
  endfacet
  facet normal -0.987688 0.156435 0
    outer loop
      vertex -3.48083 2.57585 2.26924e-016
      vertex -3.42352 2.93769 15
      vertex -3.42352 2.93769 3.94632e-016
    endloop
  endfacet
  facet normal -0.987688 0.156435 0
    outer loop
      vertex -3.42352 2.93769 15
      vertex -3.48083 2.57585 2.26924e-016
      vertex -3.48083 2.57585 15
    endloop
  endfacet
  facet normal -0.99863 0.0523267 0
    outer loop
      vertex -3.5 2.21 6.21064e-017
      vertex -3.48083 2.57585 15
      vertex -3.48083 2.57585 2.26924e-016
    endloop
  endfacet
  facet normal -0.99863 0.0523267 0
    outer loop
      vertex -3.48083 2.57585 15
      vertex -3.5 2.21 6.21064e-017
      vertex -3.5 2.21 15
    endloop
  endfacet
  facet normal 0.629314 0.777151 0
    outer loop
      vertex 2.34196 4.81101 15
      vertex 2.05725 5.04156 2.00012e-015
      vertex 2.05725 5.04156 15
    endloop
  endfacet
  facet normal 0.629314 0.777151 0
    outer loop
      vertex 2.05725 5.04156 2.00012e-015
      vertex 2.34196 4.81101 15
      vertex 2.34196 4.81101 1.9326e-015
    endloop
  endfacet
  facet normal 0.453992 0.891006 0
    outer loop
      vertex 1.75 5.24109 15
      vertex 1.42358 5.40741 2.08499e-015
      vertex 1.42358 5.40741 15
    endloop
  endfacet
  facet normal 0.453992 0.891006 0
    outer loop
      vertex 1.42358 5.40741 2.08499e-015
      vertex 1.75 5.24109 15
      vertex 1.75 5.24109 2.0511e-015
    endloop
  endfacet
  facet normal 0.258822 0.965925 -0
    outer loop
      vertex 1.08156 5.5387 2.10141e-015
      vertex 0.727691 5.63352 15
      vertex 1.08156 5.5387 15
    endloop
  endfacet
  facet normal 0.258822 0.965925 0
    outer loop
      vertex 0.727691 5.63352 15
      vertex 1.08156 5.5387 2.10141e-015
      vertex 0.727691 5.63352 2.10018e-015
    endloop
  endfacet
  facet normal 0.0523269 0.99863 -0
    outer loop
      vertex 0.365849 5.69083 2.08132e-015
      vertex -1.83691e-015 5.71 15
      vertex 0.365849 5.69083 15
    endloop
  endfacet
  facet normal 0.0523269 0.99863 6.40798e-018
    outer loop
      vertex -1.83691e-015 5.71 15
      vertex 0.365849 5.69083 2.08132e-015
      vertex -2.35933e-031 5.71 2.04503e-015
    endloop
  endfacet
  facet normal 0.891006 0.453992 0
    outer loop
      vertex 3.19741 3.63358 15
      vertex 3.03109 3.96 1.63906e-015
      vertex 3.03109 3.96 15
    endloop
  endfacet
  facet normal 0.891006 0.453992 0
    outer loop
      vertex 3.03109 3.96 1.63906e-015
      vertex 3.19741 3.63358 15
      vertex 3.19741 3.63358 1.51447e-015
    endloop
  endfacet
  facet normal 0.777151 0.629314 0
    outer loop
      vertex 2.83156 4.26725 15
      vertex 2.60101 4.55196 1.84928e-015
      vertex 2.60101 4.55196 15
    endloop
  endfacet
  facet normal 0.777151 0.629314 0
    outer loop
      vertex 2.60101 4.55196 1.84928e-015
      vertex 2.83156 4.26725 15
      vertex 2.83156 4.26725 1.75107e-015
    endloop
  endfacet
  facet normal 0.987688 0.156435 0
    outer loop
      vertex 3.48083 2.57585 15
      vertex 3.42352 2.93769 1.23312e-015
      vertex 3.42352 2.93769 15
    endloop
  endfacet
  facet normal 0.987688 0.156435 0
    outer loop
      vertex 3.42352 2.93769 1.23312e-015
      vertex 3.48083 2.57585 15
      vertex 3.48083 2.57585 1.07945e-015
    endloop
  endfacet
  facet normal 0.629321 0.777145 0
    outer loop
      vertex -1.17557 0.591967 15
      vertex -1.33826 0.723711 -3.33211e-016
      vertex -1.33826 0.723711 15
    endloop
  endfacet
  facet normal 0.629321 0.777145 0
    outer loop
      vertex -1.33826 0.723711 -3.33211e-016
      vertex -1.17557 0.591967 15
      vertex -1.17557 0.591967 -3.71794e-016
    endloop
  endfacet
  facet normal -0.89101 0.453984 0
    outer loop
      vertex 1.73205 1.21 2.58738e-016
      vertex 1.82709 1.39653 15
      vertex 1.82709 1.39653 3.53211e-016
    endloop
  endfacet
  facet normal -0.89101 0.453984 0
    outer loop
      vertex 1.82709 1.39653 15
      vertex 1.73205 1.21 2.58738e-016
      vertex 1.73205 1.21 15
    endloop
  endfacet
  facet normal 0.933584 0.358358 0
    outer loop
      vertex -1.82709 1.39653 15
      vertex -1.90211 1.59197 -1.66774e-017
      vertex -1.90211 1.59197 15
    endloop
  endfacet
  facet normal 0.933584 0.358358 0
    outer loop
      vertex -1.90211 1.59197 -1.66774e-017
      vertex -1.82709 1.39653 15
      vertex -1.82709 1.39653 -9.42825e-017
    endloop
  endfacet
  facet normal 0.89101 0.453984 0
    outer loop
      vertex -1.73205 1.21 15
      vertex -1.82709 1.39653 -9.42825e-017
      vertex -1.82709 1.39653 15
    endloop
  endfacet
  facet normal 0.89101 0.453984 0
    outer loop
      vertex -1.82709 1.39653 -9.42825e-017
      vertex -1.73205 1.21 15
      vertex -1.73205 1.21 -1.65478e-016
    endloop
  endfacet
  facet normal -0.987694 0.156399 0
    outer loop
      vertex 1.9563 1.79418 5.45625e-016
      vertex 1.98904 2.00094 15
      vertex 1.98904 2.00094 6.41458e-016
    endloop
  endfacet
  facet normal -0.987694 0.156399 0
    outer loop
      vertex 1.98904 2.00094 15
      vertex 1.9563 1.79418 5.45625e-016
      vertex 1.9563 1.79418 15
    endloop
  endfacet
  facet normal -0.707102 0.707112 0
    outer loop
      vertex 1.33826 0.723711 -5.44209e-018
      vertex 1.48629 0.871739 15
      vertex 1.48629 0.871739 7.84234e-017
    endloop
  endfacet
  facet normal -0.707102 0.707112 0
    outer loop
      vertex 1.48629 0.871739 15
      vertex 1.33826 0.723711 -5.44209e-018
      vertex 1.33826 0.723711 15
    endloop
  endfacet
  facet normal 0.998629 -0.0523532 0
    outer loop
      vertex -2 2.21 15
      vertex -1.98904 2.41906 3.39979e-016
      vertex -1.98904 2.41906 15
    endloop
  endfacet
  facet normal 0.998629 -0.0523532 0
    outer loop
      vertex -1.98904 2.41906 3.39979e-016
      vertex -2 2.21 15
      vertex -2 2.21 2.45797e-016
    endloop
  endfacet
  facet normal 0.777155 -0.62931 0
    outer loop
      vertex -1.61803 3.38557 15
      vertex -1.48629 3.54826 9.03014e-016
      vertex -1.48629 3.54826 15
    endloop
  endfacet
  facet normal 0.777155 -0.62931 0
    outer loop
      vertex -1.48629 3.54826 9.03014e-016
      vertex -1.61803 3.38557 15
      vertex -1.61803 3.38557 8.14631e-016
    endloop
  endfacet
  facet normal -0.156395 -0.987695 0
    outer loop
      vertex 0.209057 4.19904 15
      vertex 0.415823 4.1663 1.41041e-015
      vertex 0.415823 4.1663 15
    endloop
  endfacet
  facet normal -0.156395 -0.987695 0
    outer loop
      vertex 0.415823 4.1663 1.41041e-015
      vertex 0.209057 4.19904 15
      vertex 0.209057 4.19904 1.39963e-015
    endloop
  endfacet
  facet normal -0.707107 -0.707107 0
    outer loop
      vertex 1.48629 3.54826 1.26704e-015
      vertex 1.33826 3.69629 15
      vertex 1.33826 3.69629 1.31465e-015
    endloop
  endfacet
  facet normal -0.707107 -0.707107 0
    outer loop
      vertex 1.33826 3.69629 15
      vertex 1.48629 3.54826 1.26704e-015
      vertex 1.48629 3.54826 15
    endloop
  endfacet
  facet normal -0.987694 -0.156399 0
    outer loop
      vertex 1.98904 2.41906 8.27138e-016
      vertex 1.9563 2.62582 15
      vertex 1.9563 2.62582 9.1495e-016
    endloop
  endfacet
  facet normal -0.987694 -0.156399 0
    outer loop
      vertex 1.9563 2.62582 15
      vertex 1.98904 2.41906 8.27138e-016
      vertex 1.98904 2.41906 15
    endloop
  endfacet
  facet normal 0.987694 0.156399 0
    outer loop
      vertex -1.9563 1.79418 15
      vertex -1.98904 2.00094 1.54299e-016
      vertex -1.98904 2.00094 15
    endloop
  endfacet
  facet normal 0.987694 0.156399 0
    outer loop
      vertex -1.98904 2.00094 1.54299e-016
      vertex -1.9563 1.79418 15
      vertex -1.9563 1.79418 6.64869e-017
    endloop
  endfacet
  facet normal 0.965916 0.258855 0
    outer loop
      vertex -1.90211 1.59197 15
      vertex -1.9563 1.79418 6.64869e-017
      vertex -1.9563 1.79418 15
    endloop
  endfacet
  facet normal 0.965916 0.258855 0
    outer loop
      vertex -1.9563 1.79418 6.64869e-017
      vertex -1.90211 1.59197 15
      vertex -1.90211 1.59197 -1.66774e-017
    endloop
  endfacet
  facet normal 0.777157 0.629307 0
    outer loop
      vertex -1.48629 0.871739 15
      vertex -1.61803 1.03443 -2.29485e-016
      vertex -1.61803 1.03443 15
    endloop
  endfacet
  facet normal 0.777157 0.629307 0
    outer loop
      vertex -1.61803 1.03443 -2.29485e-016
      vertex -1.48629 0.871739 15
      vertex -1.48629 0.871739 -2.856e-016
    endloop
  endfacet
  facet normal 0.838663 0.544651 0
    outer loop
      vertex -1.61803 1.03443 15
      vertex -1.73205 1.21 -1.65478e-016
      vertex -1.73205 1.21 15
    endloop
  endfacet
  facet normal 0.838663 0.544651 0
    outer loop
      vertex -1.73205 1.21 -1.65478e-016
      vertex -1.61803 1.03443 15
      vertex -1.61803 1.03443 -2.29485e-016
    endloop
  endfacet
  facet normal 0.707102 0.707112 0
    outer loop
      vertex -1.33826 0.723711 15
      vertex -1.48629 0.871739 -2.856e-016
      vertex -1.48629 0.871739 15
    endloop
  endfacet
  facet normal 0.707102 0.707112 0
    outer loop
      vertex -1.48629 0.871739 -2.856e-016
      vertex -1.33826 0.723711 15
      vertex -1.33826 0.723711 -3.33211e-016
    endloop
  endfacet
  facet normal 0.54463 0.838677 0
    outer loop
      vertex -1.09827 0.541769 15
      vertex -1.17557 0.591967 -3.71794e-016
      vertex -1.17557 0.591967 15
    endloop
  endfacet
  facet normal 0.54463 0.838677 0
    outer loop
      vertex -1.17557 0.591967 -3.71794e-016
      vertex -1.09827 0.541769 15
      vertex -1.09827 0.541769 -3.8462e-016
    endloop
  endfacet
  facet normal -0.998629 0.0523532 0
    outer loop
      vertex 1.98904 2.00094 6.41458e-016
      vertex 2 2.21 15
      vertex 2 2.21 7.3564e-016
    endloop
  endfacet
  facet normal -0.998629 0.0523532 0
    outer loop
      vertex 2 2.21 15
      vertex 1.98904 2.00094 6.41458e-016
      vertex 1.98904 2.00094 15
    endloop
  endfacet
  facet normal -0.933584 0.358358 0
    outer loop
      vertex 1.82709 1.39653 3.53211e-016
      vertex 1.90211 1.59197 15
      vertex 1.90211 1.59197 4.49191e-016
    endloop
  endfacet
  facet normal -0.933584 0.358358 0
    outer loop
      vertex 1.90211 1.59197 15
      vertex 1.82709 1.39653 3.53211e-016
      vertex 1.82709 1.39653 15
    endloop
  endfacet
  facet normal -0.965916 0.258855 0
    outer loop
      vertex 1.90211 1.59197 4.49191e-016
      vertex 1.9563 1.79418 15
      vertex 1.9563 1.79418 5.45625e-016
    endloop
  endfacet
  facet normal -0.965916 0.258855 0
    outer loop
      vertex 1.9563 1.79418 15
      vertex 1.90211 1.59197 4.49191e-016
      vertex 1.90211 1.59197 15
    endloop
  endfacet
  facet normal -0.838663 0.544651 0
    outer loop
      vertex 1.61803 1.03443 1.66806e-016
      vertex 1.73205 1.21 15
      vertex 1.73205 1.21 2.58738e-016
    endloop
  endfacet
  facet normal -0.838663 0.544651 0
    outer loop
      vertex 1.73205 1.21 15
      vertex 1.61803 1.03443 1.66806e-016
      vertex 1.61803 1.03443 15
    endloop
  endfacet
  facet normal -0.777157 0.629307 0
    outer loop
      vertex 1.48629 0.871739 7.84234e-017
      vertex 1.61803 1.03443 15
      vertex 1.61803 1.03443 1.66806e-016
    endloop
  endfacet
  facet normal -0.777157 0.629307 0
    outer loop
      vertex 1.61803 1.03443 15
      vertex 1.48629 0.871739 7.84234e-017
      vertex 1.48629 0.871739 15
    endloop
  endfacet
  facet normal -0.54463 0.838677 0
    outer loop
      vertex 1.17557 0.591967 -8.38715e-017
      vertex 1.09827 0.541769 15
      vertex 1.17557 0.591967 15
    endloop
  endfacet
  facet normal -0.54463 0.838677 0
    outer loop
      vertex 1.09827 0.541769 15
      vertex 1.17557 0.591967 -8.38715e-017
      vertex 1.09827 0.541769 -1.1563e-016
    endloop
  endfacet
  facet normal -0.629321 0.777145 0
    outer loop
      vertex 1.33826 0.723711 -5.44209e-018
      vertex 1.17557 0.591967 15
      vertex 1.33826 0.723711 15
    endloop
  endfacet
  facet normal -0.629321 0.777145 0
    outer loop
      vertex 1.17557 0.591967 15
      vertex 1.33826 0.723711 -5.44209e-018
      vertex 1.17557 0.591967 -8.38715e-017
    endloop
  endfacet
  facet normal 0.998629 0.0523532 0
    outer loop
      vertex -1.98904 2.00094 15
      vertex -2 2.21 2.45797e-016
      vertex -2 2.21 15
    endloop
  endfacet
  facet normal 0.998629 0.0523532 0
    outer loop
      vertex -2 2.21 2.45797e-016
      vertex -1.98904 2.00094 15
      vertex -1.98904 2.00094 1.54299e-016
    endloop
  endfacet
  facet normal 0.052354 -0.998629 6.49107e-018
    outer loop
      vertex -0.209057 4.19904 15
      vertex -1.58168e-031 4.21 1.3789e-015
      vertex -1.83691e-015 4.21 15
    endloop
  endfacet
  facet normal 0.052354 -0.998629 0
    outer loop
      vertex -1.58168e-031 4.21 1.3789e-015
      vertex -0.209057 4.19904 15
      vertex -0.209057 4.19904 1.34843e-015
    endloop
  endfacet
  facet normal 0.156395 -0.987695 0
    outer loop
      vertex -0.415823 4.1663 15
      vertex -0.209057 4.19904 1.34843e-015
      vertex -0.209057 4.19904 15
    endloop
  endfacet
  facet normal 0.156395 -0.987695 0
    outer loop
      vertex -0.209057 4.19904 1.34843e-015
      vertex -0.415823 4.1663 15
      vertex -0.415823 4.1663 1.30857e-015
    endloop
  endfacet
  facet normal 0.258855 -0.965916 0
    outer loop
      vertex -0.618033 4.11211 15
      vertex -0.415823 4.1663 1.30857e-015
      vertex -0.415823 4.1663 15
    endloop
  endfacet
  facet normal 0.258855 -0.965916 0
    outer loop
      vertex -0.415823 4.1663 1.30857e-015
      vertex -0.618033 4.11211 15
      vertex -0.618033 4.11211 1.25974e-015
    endloop
  endfacet
  facet normal 0.62931 -0.777155 0
    outer loop
      vertex -1.33826 3.69629 15
      vertex -1.17557 3.82803 1.06531e-015
      vertex -1.17557 3.82803 15
    endloop
  endfacet
  facet normal 0.62931 -0.777155 0
    outer loop
      vertex -1.17557 3.82803 1.06531e-015
      vertex -1.33826 3.69629 15
      vertex -1.33826 3.69629 9.86879e-016
    endloop
  endfacet
  facet normal 0.45399 -0.891007 0
    outer loop
      vertex -1 3.94205 15
      vertex -0.813473 4.03709 1.20249e-015
      vertex -0.813473 4.03709 15
    endloop
  endfacet
  facet normal 0.45399 -0.891007 0
    outer loop
      vertex -0.813473 4.03709 1.20249e-015
      vertex -1 3.94205 15
      vertex -1 3.94205 1.13744e-015
    endloop
  endfacet
  facet normal 0.89101 -0.453984 0
    outer loop
      vertex -1.82709 3.02347 15
      vertex -1.73205 3.21 7.22699e-016
      vertex -1.73205 3.21 15
    endloop
  endfacet
  facet normal 0.89101 -0.453984 0
    outer loop
      vertex -1.73205 3.21 7.22699e-016
      vertex -1.82709 3.02347 15
      vertex -1.82709 3.02347 6.28226e-016
    endloop
  endfacet
  facet normal -0.052354 -0.998629 0
    outer loop
      vertex -1.83691e-015 4.21 15
      vertex 0.209057 4.19904 1.39963e-015
      vertex 0.209057 4.19904 15
    endloop
  endfacet
  facet normal -0.052354 -0.998629 -6.35296e-018
    outer loop
      vertex 0.209057 4.19904 1.39963e-015
      vertex -1.83691e-015 4.21 15
      vertex -1.58168e-031 4.21 1.3789e-015
    endloop
  endfacet
  facet normal -0.358358 -0.933584 0
    outer loop
      vertex 0.618033 4.11211 1.41111e-015
      vertex 0.813473 4.03709 15
      vertex 0.618033 4.11211 15
    endloop
  endfacet
  facet normal -0.358358 -0.933584 -0
    outer loop
      vertex 0.813473 4.03709 15
      vertex 0.618033 4.11211 1.41111e-015
      vertex 0.813473 4.03709 1.40173e-015
    endloop
  endfacet
  facet normal -0.544651 -0.838663 0
    outer loop
      vertex 1 3.94205 1.38236e-015
      vertex 1.17557 3.82803 15
      vertex 1 3.94205 15
    endloop
  endfacet
  facet normal -0.544651 -0.838663 -0
    outer loop
      vertex 1.17557 3.82803 15
      vertex 1 3.94205 1.38236e-015
      vertex 1.17557 3.82803 1.35323e-015
    endloop
  endfacet
  facet normal -0.965916 -0.258855 0
    outer loop
      vertex 1.9563 2.62582 9.1495e-016
      vertex 1.90211 2.82803 15
      vertex 1.90211 2.82803 9.98115e-016
    endloop
  endfacet
  facet normal -0.965916 -0.258855 0
    outer loop
      vertex 1.90211 2.82803 15
      vertex 1.9563 2.62582 9.1495e-016
      vertex 1.9563 2.62582 15
    endloop
  endfacet
  facet normal -0.998629 -0.0523532 0
    outer loop
      vertex 2 2.21 7.3564e-016
      vertex 1.98904 2.41906 15
      vertex 1.98904 2.41906 8.27138e-016
    endloop
  endfacet
  facet normal -0.998629 -0.0523532 0
    outer loop
      vertex 1.98904 2.41906 15
      vertex 2 2.21 7.3564e-016
      vertex 2 2.21 15
    endloop
  endfacet
  facet normal -0.838663 -0.544651 0
    outer loop
      vertex 1.73205 3.21 1.14692e-015
      vertex 1.61803 3.38557 15
      vertex 1.61803 3.38557 1.21092e-015
    endloop
  endfacet
  facet normal -0.838663 -0.544651 0
    outer loop
      vertex 1.61803 3.38557 15
      vertex 1.73205 3.21 1.14692e-015
      vertex 1.73205 3.21 15
    endloop
  endfacet
  facet normal -0.933584 -0.358358 0
    outer loop
      vertex 1.90211 2.82803 9.98115e-016
      vertex 1.82709 3.02347 15
      vertex 1.82709 3.02347 1.07572e-015
    endloop
  endfacet
  facet normal -0.933584 -0.358358 0
    outer loop
      vertex 1.82709 3.02347 15
      vertex 1.90211 2.82803 9.98115e-016
      vertex 1.90211 2.82803 15
    endloop
  endfacet
  facet normal -0.777155 -0.62931 0
    outer loop
      vertex 1.61803 3.38557 1.21092e-015
      vertex 1.48629 3.54826 15
      vertex 1.48629 3.54826 1.26704e-015
    endloop
  endfacet
  facet normal -0.777155 -0.62931 0
    outer loop
      vertex 1.48629 3.54826 15
      vertex 1.61803 3.38557 1.21092e-015
      vertex 1.61803 3.38557 15
    endloop
  endfacet
  facet normal 0.987694 -0.156399 0
    outer loop
      vertex -1.98904 2.41906 15
      vertex -1.9563 2.62582 4.35812e-016
      vertex -1.9563 2.62582 15
    endloop
  endfacet
  facet normal 0.987694 -0.156399 0
    outer loop
      vertex -1.9563 2.62582 4.35812e-016
      vertex -1.98904 2.41906 15
      vertex -1.98904 2.41906 3.39979e-016
    endloop
  endfacet
  facet normal 0.965916 -0.258855 0
    outer loop
      vertex -1.9563 2.62582 15
      vertex -1.90211 2.82803 5.32247e-016
      vertex -1.90211 2.82803 15
    endloop
  endfacet
  facet normal 0.965916 -0.258855 0
    outer loop
      vertex -1.90211 2.82803 5.32247e-016
      vertex -1.9563 2.62582 15
      vertex -1.9563 2.62582 4.35812e-016
    endloop
  endfacet
  facet normal 0.358358 -0.933584 0
    outer loop
      vertex -0.813473 4.03709 15
      vertex -0.618033 4.11211 1.25974e-015
      vertex -0.618033 4.11211 15
    endloop
  endfacet
  facet normal 0.358358 -0.933584 0
    outer loop
      vertex -0.618033 4.11211 1.25974e-015
      vertex -0.813473 4.03709 15
      vertex -0.813473 4.03709 1.20249e-015
    endloop
  endfacet
  facet normal 0.707107 -0.707107 0
    outer loop
      vertex -1.48629 3.54826 15
      vertex -1.33826 3.69629 9.86879e-016
      vertex -1.33826 3.69629 15
    endloop
  endfacet
  facet normal 0.707107 -0.707107 0
    outer loop
      vertex -1.33826 3.69629 9.86879e-016
      vertex -1.48629 3.54826 15
      vertex -1.48629 3.54826 9.03014e-016
    endloop
  endfacet
  facet normal 0.544651 -0.838663 0
    outer loop
      vertex -1.17557 3.82803 15
      vertex -1 3.94205 1.13744e-015
      vertex -1 3.94205 15
    endloop
  endfacet
  facet normal 0.544651 -0.838663 0
    outer loop
      vertex -1 3.94205 1.13744e-015
      vertex -1.17557 3.82803 15
      vertex -1.17557 3.82803 1.06531e-015
    endloop
  endfacet
  facet normal 0.933584 -0.358358 0
    outer loop
      vertex -1.90211 2.82803 15
      vertex -1.82709 3.02347 6.28226e-016
      vertex -1.82709 3.02347 15
    endloop
  endfacet
  facet normal 0.933584 -0.358358 0
    outer loop
      vertex -1.82709 3.02347 6.28226e-016
      vertex -1.90211 2.82803 15
      vertex -1.90211 2.82803 5.32247e-016
    endloop
  endfacet
  facet normal 0.838663 -0.544651 0
    outer loop
      vertex -1.73205 3.21 15
      vertex -1.61803 3.38557 8.14631e-016
      vertex -1.61803 3.38557 15
    endloop
  endfacet
  facet normal 0.838663 -0.544651 0
    outer loop
      vertex -1.61803 3.38557 8.14631e-016
      vertex -1.73205 3.21 15
      vertex -1.73205 3.21 7.22699e-016
    endloop
  endfacet
  facet normal -0.258855 -0.965916 0
    outer loop
      vertex 0.415823 4.1663 15
      vertex 0.618033 4.11211 1.41111e-015
      vertex 0.618033 4.11211 15
    endloop
  endfacet
  facet normal -0.258855 -0.965916 0
    outer loop
      vertex 0.618033 4.11211 1.41111e-015
      vertex 0.415823 4.1663 15
      vertex 0.415823 4.1663 1.41041e-015
    endloop
  endfacet
  facet normal -0.45399 -0.891007 0
    outer loop
      vertex 0.813473 4.03709 1.40173e-015
      vertex 1 3.94205 15
      vertex 0.813473 4.03709 15
    endloop
  endfacet
  facet normal -0.45399 -0.891007 -0
    outer loop
      vertex 1 3.94205 15
      vertex 0.813473 4.03709 1.40173e-015
      vertex 1 3.94205 1.38236e-015
    endloop
  endfacet
  facet normal -0.62931 -0.777155 0
    outer loop
      vertex 1.17557 3.82803 1.35323e-015
      vertex 1.33826 3.69629 15
      vertex 1.17557 3.82803 15
    endloop
  endfacet
  facet normal -0.62931 -0.777155 -0
    outer loop
      vertex 1.33826 3.69629 15
      vertex 1.17557 3.82803 1.35323e-015
      vertex 1.33826 3.69629 1.31465e-015
    endloop
  endfacet
  facet normal -0.89101 -0.453984 0
    outer loop
      vertex 1.82709 3.02347 1.07572e-015
      vertex 1.73205 3.21 15
      vertex 1.73205 3.21 1.14692e-015
    endloop
  endfacet
  facet normal -0.89101 -0.453984 0
    outer loop
      vertex 1.73205 3.21 15
      vertex 1.82709 3.02347 1.07572e-015
      vertex 1.82709 3.02347 15
    endloop
  endfacet
  facet normal 1.22455e-016 2.22045e-016 -1
    outer loop
      vertex -1.88358 -5.5 -1.45191e-015
      vertex -1.42358 -0.987409 -3.93581e-016
      vertex -1.18345 -1.07958 -3.84642e-016
    endloop
  endfacet
  facet normal 1.2246e-016 2.22045e-016 -1
    outer loop
      vertex -1.88358 -5.5 -1.45191e-015
      vertex -1.75 -0.821089 -3.96624e-016
      vertex -1.42358 -0.987409 -3.93581e-016
    endloop
  endfacet
  facet normal 1.2246e-016 2.22045e-016 -1
    outer loop
      vertex -4.4 -5.5 -1.76007e-015
      vertex -1.75 -0.821089 -3.96624e-016
      vertex -1.88358 -5.5 -1.45191e-015
    endloop
  endfacet
  facet normal 1.22462e-016 2.22044e-016 -1
    outer loop
      vertex -1.75 -0.821089 -3.96624e-016
      vertex -4.4 -5.5 -1.76007e-015
      vertex -2.05725 -0.621559 -3.89946e-016
    endloop
  endfacet
  facet normal 1.22459e-016 2.22045e-016 -1
    outer loop
      vertex -2.05725 -0.621559 -3.89946e-016
      vertex -4.4 -5.5 -1.76007e-015
      vertex -2.34196 -0.391006 -3.73618e-016
    endloop
  endfacet
  facet normal 1.2246e-016 2.22044e-016 -1
    outer loop
      vertex -2.34196 -0.391006 -3.73618e-016
      vertex -4.4 -5.5 -1.76007e-015
      vertex -2.60101 -0.131957 -3.47821e-016
    endloop
  endfacet
  facet normal 1.22449e-016 2.22024e-016 -1
    outer loop
      vertex -2.60101 -0.131957 -3.47821e-016
      vertex -2.75 0 -3.36767e-016
      vertex -2.70786 0 -3.31607e-016
    endloop
  endfacet
  facet normal 1.22465e-016 2.22043e-016 -1
    outer loop
      vertex -2.60101 -0.131957 -3.47821e-016
      vertex -4.4 -5.5 -1.76007e-015
      vertex -2.75 0 -3.36767e-016
    endloop
  endfacet
  facet normal 1.22462e-016 2.22045e-016 -1
    outer loop
      vertex 2.60101 -0.131957 2.89221e-016
      vertex 2.75 0 3.36767e-016
      vertex 4.4 -5.5 -6.82419e-016
    endloop
  endfacet
  facet normal 1.22449e-016 2.2206e-016 -1
    outer loop
      vertex 2.75 0 3.36767e-016
      vertex 2.60101 -0.131957 2.89221e-016
      vertex 2.70786 0 3.31607e-016
    endloop
  endfacet
  facet normal 1.22461e-016 2.22045e-016 -1
    outer loop
      vertex 4.4 -5.5 -6.82419e-016
      vertex 2.34196 -0.391006 1.99977e-016
      vertex 2.60101 -0.131957 2.89221e-016
    endloop
  endfacet
  facet normal 1.22461e-016 2.22045e-016 -1
    outer loop
      vertex 4.4 -5.5 -6.82419e-016
      vertex 2.05725 -0.621559 1.13918e-016
      vertex 2.34196 -0.391006 1.99977e-016
    endloop
  endfacet
  facet normal 1.2246e-016 2.22045e-016 -1
    outer loop
      vertex 1.75 -0.821089 3.19877e-017
      vertex 4.4 -5.5 -6.82419e-016
      vertex 1.88358 -5.5 -9.90581e-016
    endloop
  endfacet
  facet normal 1.2246e-016 2.22044e-016 -1
    outer loop
      vertex 4.4 -5.5 -6.82419e-016
      vertex 1.75 -0.821089 3.19877e-017
      vertex 2.05725 -0.621559 1.13918e-016
    endloop
  endfacet
  facet normal 1.22461e-016 2.22045e-016 -1
    outer loop
      vertex 1.88358 -5.5 -9.90581e-016
      vertex 1.42358 -0.987409 -4.49166e-017
      vertex 1.75 -0.821089 3.19877e-017
    endloop
  endfacet
  facet normal 1.22461e-016 2.22045e-016 -1
    outer loop
      vertex 1.42358 -0.987409 -4.49166e-017
      vertex 1.88358 -5.5 -9.90581e-016
      vertex 1.18345 -1.07958 -9.47892e-017
    endloop
  endfacet
  facet normal -0.957826 0.287348 8.24941e-017
    outer loop
      vertex -4.4 -5.5 -1.76007e-015
      vertex -2.75 -3.33067e-015 15
      vertex -2.75 0 -3.36767e-016
    endloop
  endfacet
  facet normal -0.957826 0.287348 0
    outer loop
      vertex -2.75 -3.33067e-015 15
      vertex -4.4 -5.5 -1.76007e-015
      vertex -4.4 -5.5 15
    endloop
  endfacet
  facet normal -0 0 1
    outer loop
      vertex 1.01246 -3.33067e-015 15
      vertex 2.70786 -2.83006e-009 15
      vertex 2.75 -3.33067e-015 15
    endloop
  endfacet
  facet normal 0 0 1
    outer loop
      vertex 2.70786 -2.83006e-009 15
      vertex 1.01246 -3.33067e-015 15
      vertex 1.01246 -2.83006e-009 15
    endloop
  endfacet
  facet normal 0 0 1
    outer loop
      vertex 2.60101 -0.131957 15
      vertex 2.75 -3.33067e-015 15
      vertex 2.70786 -2.83006e-009 15
    endloop
  endfacet
  facet normal 0 0 1
    outer loop
      vertex 2.75 -3.33067e-015 15
      vertex 2.60101 -0.131957 15
      vertex 4.4 -5.5 15
    endloop
  endfacet
  facet normal -0 0 1
    outer loop
      vertex 2.34196 -0.391006 15
      vertex 4.4 -5.5 15
      vertex 2.60101 -0.131957 15
    endloop
  endfacet
  facet normal -0 0 1
    outer loop
      vertex 2.05725 -0.621559 15
      vertex 4.4 -5.5 15
      vertex 2.34196 -0.391006 15
    endloop
  endfacet
  facet normal -0 0 1
    outer loop
      vertex 1.75 -0.821089 15
      vertex 4.4 -5.5 15
      vertex 2.05725 -0.621559 15
    endloop
  endfacet
  facet normal 0 0 1
    outer loop
      vertex 4.4 -5.5 15
      vertex 1.75 -0.821089 15
      vertex 1.88358 -5.5 15
    endloop
  endfacet
  facet normal -0 0 1
    outer loop
      vertex 1.42358 -0.987409 15
      vertex 1.88358 -5.5 15
      vertex 1.75 -0.821089 15
    endloop
  endfacet
  facet normal 0 0 1
    outer loop
      vertex 1.88358 -5.5 15
      vertex 1.42358 -0.987409 15
      vertex 1.18345 -1.07958 15
    endloop
  endfacet
  facet normal 0 0 1
    outer loop
      vertex -1.42358 -0.987409 15
      vertex -1.88358 -5.5 15
      vertex -1.18345 -1.07958 15
    endloop
  endfacet
  facet normal 0 0 1
    outer loop
      vertex -1.75 -0.821089 15
      vertex -1.88358 -5.5 15
      vertex -1.42358 -0.987409 15
    endloop
  endfacet
  facet normal 0 0 1
    outer loop
      vertex -4.4 -5.5 15
      vertex -1.75 -0.821089 15
      vertex -2.05725 -0.621559 15
    endloop
  endfacet
  facet normal 0 0 1
    outer loop
      vertex -4.4 -5.5 15
      vertex -2.05725 -0.621559 15
      vertex -2.34196 -0.391006 15
    endloop
  endfacet
  facet normal 0 0 1
    outer loop
      vertex -4.4 -5.5 15
      vertex -2.34196 -0.391006 15
      vertex -2.60101 -0.131957 15
    endloop
  endfacet
  facet normal 0 0 1
    outer loop
      vertex -2.75 -3.33067e-015 15
      vertex -2.60101 -0.131957 15
      vertex -2.70786 -2.83006e-009 15
    endloop
  endfacet
  facet normal 0 0 1
    outer loop
      vertex -4.4 -5.5 15
      vertex -2.60101 -0.131957 15
      vertex -2.75 -3.33067e-015 15
    endloop
  endfacet
  facet normal 0 0 1
    outer loop
      vertex -1.75 -0.821089 15
      vertex -4.4 -5.5 15
      vertex -1.88358 -5.5 15
    endloop
  endfacet
  facet normal 0 0 1
    outer loop
      vertex -1.01246 -3.33067e-015 15
      vertex -2.70786 -2.83006e-009 15
      vertex -1.01246 -2.83006e-009 15
    endloop
  endfacet
  facet normal 0 -0 1
    outer loop
      vertex -2.70786 -2.83006e-009 15
      vertex -1.01246 -3.33067e-015 15
      vertex -2.75 -3.33067e-015 15
    endloop
  endfacet
  facet normal 0 -1 0
    outer loop
      vertex -4.4 -5.5 15
      vertex -1.88358 -5.5 -1.45191e-015
      vertex -1.88358 -5.5 15
    endloop
  endfacet
  facet normal -0 -1 0
    outer loop
      vertex -1.88358 -5.5 -1.45191e-015
      vertex -4.4 -5.5 15
      vertex -4.4 -5.5 -1.76007e-015
    endloop
  endfacet
  facet normal 0 -1 0
    outer loop
      vertex 1.88358 -5.5 15
      vertex 4.4 -5.5 -6.82419e-016
      vertex 4.4 -5.5 15
    endloop
  endfacet
  facet normal -0 -1 0
    outer loop
      vertex 4.4 -5.5 -6.82419e-016
      vertex 1.88358 -5.5 15
      vertex 1.88358 -5.5 -9.90581e-016
    endloop
  endfacet
  facet normal 0.957826 0.287348 8.24941e-017
    outer loop
      vertex 4.4 -5.5 15
      vertex 2.75 0 3.36767e-016
      vertex 2.75 -3.33067e-015 15
    endloop
  endfacet
  facet normal 0.957826 0.287348 0
    outer loop
      vertex 2.75 0 3.36767e-016
      vertex 4.4 -5.5 15
      vertex 4.4 -5.5 -6.82419e-016
    endloop
  endfacet
  facet normal 0 1 2.22045e-016
    outer loop
      vertex -2.70786 0 -3.31607e-016
      vertex -2.75 -3.33067e-015 15
      vertex -2.70786 -3.33067e-015 15
    endloop
  endfacet
  facet normal 0 1 2.22045e-016
    outer loop
      vertex -2.75 -3.33067e-015 15
      vertex -2.70786 0 -3.31607e-016
      vertex -2.75 0 -3.36767e-016
    endloop
  endfacet
  facet normal 0 0 0
    outer loop
      vertex -1.01246 -3.33067e-015 15
      vertex -2.70786 -3.33067e-015 15
      vertex -2.75 -3.33067e-015 15
    endloop
  endfacet
  facet normal 0 1 2.22045e-016
    outer loop
      vertex 2.75 0 3.36767e-016
      vertex 2.70786 -3.33067e-015 15
      vertex 2.75 -3.33067e-015 15
    endloop
  endfacet
  facet normal 0 1 2.22045e-016
    outer loop
      vertex 2.70786 -3.33067e-015 15
      vertex 2.75 0 3.36767e-016
      vertex 2.70786 0 3.31607e-016
    endloop
  endfacet
  facet normal 0 0 0
    outer loop
      vertex 2.75 -3.33067e-015 15
      vertex 2.70786 -3.33067e-015 15
      vertex 1.01246 -3.33067e-015 15
    endloop
  endfacet
  facet normal -0.987688 0.156438 0
    outer loop
      vertex 1.09827 0.541769 -1.1563e-016
      vertex 1.01246 -3.33067e-015 15
      vertex 1.09827 0.541769 15
    endloop
  endfacet
  facet normal -0.987688 0.156438 -8.47125e-009
    outer loop
      vertex 1.01246 -8.12262e-007 -3.66732e-016
      vertex 1.01246 -3.33067e-015 15
      vertex 1.09827 0.541769 -1.1563e-016
    endloop
  endfacet
  facet normal -1 -0 0
    outer loop
      vertex 1.01246 -3.33067e-015 15
      vertex 1.01246 -8.12262e-007 -3.66732e-016
      vertex 1.01246 -2.83006e-009 15
    endloop
  endfacet
  facet normal -1 -0 0
    outer loop
      vertex 1.01246 -2.83006e-009 15
      vertex 1.01246 -8.12262e-007 -3.66732e-016
      vertex 1.01246 -8.12262e-007 15
    endloop
  endfacet
  facet normal 0.987688 -0.156435 0
    outer loop
      vertex -1.88358 -5.5 15
      vertex -1.18345 -1.07958 -3.84642e-016
      vertex -1.18345 -1.07958 15
    endloop
  endfacet
  facet normal 0.987688 -0.156435 0
    outer loop
      vertex -1.18345 -1.07958 -3.84642e-016
      vertex -1.88358 -5.5 15
      vertex -1.88358 -5.5 -1.45191e-015
    endloop
  endfacet
  facet normal 0.987688 -0.156436 0
    outer loop
      vertex -1.18345 -1.07958 15
      vertex -1.01246 -8.12262e-007 -6.14706e-016
      vertex -1.01246 -8.12262e-007 15
    endloop
  endfacet
  facet normal 0.987688 -0.156436 0
    outer loop
      vertex -1.18345 -1.07958 -3.84642e-016
      vertex -1.01246 -8.12262e-007 -6.14706e-016
      vertex -1.18345 -1.07958 15
    endloop
  endfacet
  facet normal 0.987688 -0.156436 0
    outer loop
      vertex -1.01246 -8.12262e-007 -6.14706e-016
      vertex -1.18345 -1.07958 -3.84642e-016
      vertex -1.18345 -1.07958 -1.11508e-015
    endloop
  endfacet
  facet normal 0.987688 0.156438 0
    outer loop
      vertex -1.01246 -3.33067e-015 15
      vertex -1.09827 0.541769 -3.8462e-016
      vertex -1.09827 0.541769 15
    endloop
  endfacet
  facet normal 1 0 0
    outer loop
      vertex -1.01246 -8.12262e-007 -6.14706e-016
      vertex -1.01246 -3.33067e-015 15
      vertex -1.01246 -2.83006e-009 15
    endloop
  endfacet
  facet normal 1 0 0
    outer loop
      vertex -1.01246 -8.12262e-007 -6.14706e-016
      vertex -1.01246 -2.83006e-009 15
      vertex -1.01246 -8.12262e-007 15
    endloop
  endfacet
  facet normal 0.987688 0.156438 -8.47125e-009
    outer loop
      vertex -1.01246 -3.33067e-015 15
      vertex -1.01246 -8.12262e-007 -6.14706e-016
      vertex -1.09827 0.541769 -3.8462e-016
    endloop
  endfacet
  facet normal -0.987688 -0.156436 -0
    outer loop
      vertex 1.18345 -1.07958 -9.47892e-017
      vertex 1.01246 -8.12262e-007 -3.66732e-016
      vertex 1.18345 -1.07958 -8.25223e-016
    endloop
  endfacet
  facet normal -0.987688 -0.156436 0
    outer loop
      vertex 1.01246 -8.12262e-007 -3.66732e-016
      vertex 1.18345 -1.07958 -9.47892e-017
      vertex 1.01246 -8.12262e-007 15
    endloop
  endfacet
  facet normal -0.987688 -0.156436 0
    outer loop
      vertex 1.18345 -1.07958 -9.47892e-017
      vertex 1.18345 -1.07958 15
      vertex 1.01246 -8.12262e-007 15
    endloop
  endfacet
  facet normal -0.987688 -0.156435 0
    outer loop
      vertex 1.88358 -5.5 -9.90581e-016
      vertex 1.18345 -1.07958 15
      vertex 1.18345 -1.07958 -9.47892e-017
    endloop
  endfacet
  facet normal -0.987688 -0.156435 0
    outer loop
      vertex 1.18345 -1.07958 15
      vertex 1.88358 -5.5 -9.90581e-016
      vertex 1.88358 -5.5 15
    endloop
  endfacet
endsolid OpenSCAD_Model
