solid OpenSCAD_Model
  facet normal -0 0 1
    outer loop
      vertex 0 12.5 0
      vertex 12.5 0 0
      vertex 12.5 12.5 0
    endloop
  endfacet
  facet normal 0 0 1
    outer loop
      vertex 12.5 0 0
      vertex 0 12.5 0
      vertex 0 0 0
    endloop
  endfacet
  facet normal 0 0 1
    outer loop
      vertex 23 112 0
      vertex 17.5 117.5 0
      vertex 23 23 0
    endloop
  endfacet
  facet normal -0 0 1
    outer loop
      vertex 23 23 0
      vertex 117.5 17.5 0
      vertex 112 23 0
    endloop
  endfacet
  facet normal 0 0 1
    outer loop
      vertex 23 23 0
      vertex 17.5 17.5 0
      vertex 117.5 17.5 0
    endloop
  endfacet
  facet normal 0 0 1
    outer loop
      vertex 17.5 17.5 0
      vertex 23 23 0
      vertex 17.5 117.5 0
    endloop
  endfacet
  facet normal 0 0 1
    outer loop
      vertex 17.5 12.5 0
      vertex 119 0 0
      vertex 119 12.5 0
    endloop
  endfacet
  facet normal 0 0 1
    outer loop
      vertex 119 0 0
      vertex 17.5 12.5 0
      vertex 17.5 0 0
    endloop
  endfacet
  facet normal -0 0 1
    outer loop
      vertex 0 119 0
      vertex 12.5 17.5 0
      vertex 12.5 119 0
    endloop
  endfacet
  facet normal 0 0 1
    outer loop
      vertex 12.5 17.5 0
      vertex 0 119 0
      vertex 0 17.5 0
    endloop
  endfacet
  facet normal 0 -1 0
    outer loop
      vertex 0 0 0
      vertex 11 0 -5
      vertex 12.5 0 0
    endloop
  endfacet
  facet normal 0 -1 -0
    outer loop
      vertex 11 0 -5
      vertex 0 0 -7
      vertex 19 0 -5
    endloop
  endfacet
  facet normal 0 -1 0
    outer loop
      vertex 0 0 -7
      vertex 11 0 -5
      vertex 0 0 0
    endloop
  endfacet
  facet normal 0 -1 0
    outer loop
      vertex 19 0 -5
      vertex 119 0 0
      vertex 17.5 0 0
    endloop
  endfacet
  facet normal 0 -1 0
    outer loop
      vertex 119 0 -7
      vertex 19 0 -5
      vertex 0 0 -7
    endloop
  endfacet
  facet normal 0 -1 0
    outer loop
      vertex 19 0 -5
      vertex 119 0 -7
      vertex 119 0 0
    endloop
  endfacet
  facet normal 0.707107 0.707107 0
    outer loop
      vertex 117.5 17.5 0
      vertex 112 23 -3
      vertex 112 23 0
    endloop
  endfacet
  facet normal 0.707107 0.707107 0
    outer loop
      vertex 112 23 -3
      vertex 117.5 17.5 0
      vertex 116 19 -5
    endloop
  endfacet
  facet normal 0.707107 0.707107 -0
    outer loop
      vertex 23 112 -3
      vertex 17.5 117.5 0
      vertex 23 112 0
    endloop
  endfacet
  facet normal 0.707107 0.707107 0
    outer loop
      vertex 19 116 -5
      vertex 16 119 -7
      vertex 16 119 -5
    endloop
  endfacet
  facet normal 0.707107 0.707107 0
    outer loop
      vertex 17.5 117.5 0
      vertex 23 112 -3
      vertex 19 116 -5
    endloop
  endfacet
  facet normal 0.707107 0.707107 0
    outer loop
      vertex 23 112 -3
      vertex 16 119 -7
      vertex 19 116 -5
    endloop
  endfacet
  facet normal 0.707107 0.707107 0
    outer loop
      vertex 112 23 -3
      vertex 16 119 -7
      vertex 23 112 -3
    endloop
  endfacet
  facet normal 0.707107 0.707107 0
    outer loop
      vertex 119 16 -7
      vertex 112 23 -3
      vertex 116 19 -5
    endloop
  endfacet
  facet normal 0.707107 0.707107 -0
    outer loop
      vertex 119 16 -7
      vertex 116 19 -5
      vertex 119 16 -5
    endloop
  endfacet
  facet normal 0.707107 0.707107 0
    outer loop
      vertex 112 23 -3
      vertex 119 16 -7
      vertex 16 119 -7
    endloop
  endfacet
  facet normal 0 0 -1
    outer loop
      vertex 0 0 -7
      vertex 119 16 -7
      vertex 119 0 -7
    endloop
  endfacet
  facet normal -0 0 -1
    outer loop
      vertex 119 16 -7
      vertex 0 0 -7
      vertex 16 119 -7
    endloop
  endfacet
  facet normal -0 0 -1
    outer loop
      vertex 16 119 -7
      vertex 0 0 -7
      vertex 0 119 -7
    endloop
  endfacet
  facet normal -1 0 0
    outer loop
      vertex 0 119 -7
      vertex 0 19 -5
      vertex 0 119 0
    endloop
  endfacet
  facet normal -1 0 0
    outer loop
      vertex 0 0 -7
      vertex 0 19 -5
      vertex 0 119 -7
    endloop
  endfacet
  facet normal -1 -0 0
    outer loop
      vertex 0 19 -5
      vertex 0 0 -7
      vertex 0 11 -5
    endloop
  endfacet
  facet normal -1 -0 0
    outer loop
      vertex 0 119 0
      vertex 0 19 -5
      vertex 0 17.5 0
    endloop
  endfacet
  facet normal -1 0 0
    outer loop
      vertex 0 0 0
      vertex 0 11 -5
      vertex 0 0 -7
    endloop
  endfacet
  facet normal -1 0 0
    outer loop
      vertex 0 11 -5
      vertex 0 0 0
      vertex 0 12.5 0
    endloop
  endfacet
  facet normal 0 1 -0
    outer loop
      vertex 112 23 -3
      vertex 23 23 0
      vertex 112 23 0
    endloop
  endfacet
  facet normal 0 1 0
    outer loop
      vertex 23 23 0
      vertex 112 23 -3
      vertex 23 23 -3
    endloop
  endfacet
  facet normal 0 0 1
    outer loop
      vertex 23 23 -3
      vertex 112 23 -3
      vertex 23 112 -3
    endloop
  endfacet
  facet normal 1 -0 0
    outer loop
      vertex 23 23 0
      vertex 23 112 -3
      vertex 23 112 0
    endloop
  endfacet
  facet normal 1 0 0
    outer loop
      vertex 23 112 -3
      vertex 23 23 0
      vertex 23 23 -3
    endloop
  endfacet
  facet normal 1 0 0
    outer loop
      vertex 119 12.5 0
      vertex 119 0 0
      vertex 119 11 -5
    endloop
  endfacet
  facet normal 1 -0 0
    outer loop
      vertex 119 11 -5
      vertex 119 16 -7
      vertex 119 16 -5
    endloop
  endfacet
  facet normal 1 0 0
    outer loop
      vertex 119 11 -5
      vertex 119 0 -7
      vertex 119 16 -7
    endloop
  endfacet
  facet normal 1 0 0
    outer loop
      vertex 119 0 -7
      vertex 119 11 -5
      vertex 119 0 0
    endloop
  endfacet
  facet normal 0 1 0
    outer loop
      vertex 16 119 -5
      vertex 16 119 -7
      vertex 11 119 -5
    endloop
  endfacet
  facet normal 0 1 -0
    outer loop
      vertex 11 119 -5
      vertex 0 119 0
      vertex 12.5 119 0
    endloop
  endfacet
  facet normal 0 1 0
    outer loop
      vertex 11 119 -5
      vertex 0 119 -7
      vertex 0 119 0
    endloop
  endfacet
  facet normal 0 1 0
    outer loop
      vertex 0 119 -7
      vertex 11 119 -5
      vertex 16 119 -7
    endloop
  endfacet
  facet normal 0 0.957826 -0.287348
    outer loop
      vertex 11 11 -5
      vertex 0 12.5 0
      vertex 12.5 12.5 0
    endloop
  endfacet
  facet normal 0 0.957826 -0.287348
    outer loop
      vertex 0 12.5 0
      vertex 11 11 -5
      vertex 0 11 -5
    endloop
  endfacet
  facet normal 9.13454e-009 0.957826 -0.287348
    outer loop
      vertex 19 11 -5
      vertex 119 12.5 0
      vertex 119 11 -5
    endloop
  endfacet
  facet normal 8.99955e-009 0.957826 -0.287348
    outer loop
      vertex 119 12.5 0
      vertex 19 11 -5
      vertex 17.5 12.5 0
    endloop
  endfacet
  facet normal -0 -0.957826 -0.287348
    outer loop
      vertex 11 19 -5
      vertex 0 17.5 0
      vertex 0 19 -5
    endloop
  endfacet
  facet normal 0 -0.957826 -0.287348
    outer loop
      vertex 0 17.5 0
      vertex 11 19 -5
      vertex 12.5 17.5 0
    endloop
  endfacet
  facet normal 0 -0.957826 -0.287348
    outer loop
      vertex 19 19 -5
      vertex 117.5 17.5 0
      vertex 17.5 17.5 0
    endloop
  endfacet
  facet normal 0 -0.957826 -0.287348
    outer loop
      vertex 117.5 17.5 0
      vertex 19 19 -5
      vertex 116 19 -5
    endloop
  endfacet
  facet normal -0 0 1
    outer loop
      vertex 0 19 -5
      vertex 11 11 -5
      vertex 11 19 -5
    endloop
  endfacet
  facet normal 0 0 1
    outer loop
      vertex 11 11 -5
      vertex 0 19 -5
      vertex 0 11 -5
    endloop
  endfacet
  facet normal 0 0 1
    outer loop
      vertex 11 19 -5
      vertex 19 19 -5
      vertex 19 116 -5
    endloop
  endfacet
  facet normal 0 0 1
    outer loop
      vertex 19 19 -5
      vertex 11 19 -5
      vertex 19 11 -5
    endloop
  endfacet
  facet normal -0 0 1
    outer loop
      vertex 11 119 -5
      vertex 19 116 -5
      vertex 16 119 -5
    endloop
  endfacet
  facet normal 0 0 1
    outer loop
      vertex 19 116 -5
      vertex 11 119 -5
      vertex 11 19 -5
    endloop
  endfacet
  facet normal 0 0 1
    outer loop
      vertex 11 11 -5
      vertex 19 11 -5
      vertex 11 19 -5
    endloop
  endfacet
  facet normal 0 0 1
    outer loop
      vertex 19 11 -5
      vertex 11 11 -5
      vertex 19 0 -5
    endloop
  endfacet
  facet normal 0 0 1
    outer loop
      vertex 19 0 -5
      vertex 11 11 -5
      vertex 11 0 -5
    endloop
  endfacet
  facet normal 0 0 1
    outer loop
      vertex 116 19 -5
      vertex 119 11 -5
      vertex 119 16 -5
    endloop
  endfacet
  facet normal 0 0 1
    outer loop
      vertex 19 11 -5
      vertex 116 19 -5
      vertex 19 19 -5
    endloop
  endfacet
  facet normal 0 0 1
    outer loop
      vertex 116 19 -5
      vertex 19 11 -5
      vertex 119 11 -5
    endloop
  endfacet
  facet normal -0.957826 0 -0.287348
    outer loop
      vertex 17.5 0 0
      vertex 19 11 -5
      vertex 19 0 -5
    endloop
  endfacet
  facet normal -0.957826 0 -0.287348
    outer loop
      vertex 19 11 -5
      vertex 17.5 0 0
      vertex 17.5 12.5 0
    endloop
  endfacet
  facet normal -0.957826 0 -0.287348
    outer loop
      vertex 19 19 -5
      vertex 17.5 117.5 0
      vertex 19 116 -5
    endloop
  endfacet
  facet normal -0.957826 -0 -0.287348
    outer loop
      vertex 17.5 117.5 0
      vertex 19 19 -5
      vertex 17.5 17.5 0
    endloop
  endfacet
  facet normal 0.957826 0 -0.287348
    outer loop
      vertex 12.5 0 0
      vertex 11 11 -5
      vertex 12.5 12.5 0
    endloop
  endfacet
  facet normal 0.957826 0 -0.287348
    outer loop
      vertex 11 11 -5
      vertex 12.5 0 0
      vertex 11 0 -5
    endloop
  endfacet
  facet normal 0.957826 0 -0.287348
    outer loop
      vertex 12.5 119 0
      vertex 11 19 -5
      vertex 11 119 -5
    endloop
  endfacet
  facet normal 0.957826 0 -0.287348
    outer loop
      vertex 11 19 -5
      vertex 12.5 119 0
      vertex 12.5 17.5 0
    endloop
  endfacet
endsolid OpenSCAD_Model
