solid OpenSCAD_Model
  facet normal -1 0 0
    outer loop
      vertex -52 -4.3101 -0.4
      vertex -52 -2.38584 -2.6033
      vertex -52 -2.86772 -3.26656
    endloop
  endfacet
  facet normal -1 0 0
    outer loop
      vertex -52 -3.49449 -0.4
      vertex -52 -4.3101 -0.4
      vertex -52 -3.56155 0.4
    endloop
  endfacet
  facet normal -1 0 0
    outer loop
      vertex -52 -2.38584 -2.6033
      vertex -52 -4.3101 -0.4
      vertex -52 -3.49449 -0.4
    endloop
  endfacet
  facet normal -1 0 0
    outer loop
      vertex -52 -1.89384 -0.4
      vertex -52 -0.785044 0.4
      vertex -52 -0.785044 -0.4
    endloop
  endfacet
  facet normal -1 -0 0
    outer loop
      vertex -52 -0.785044 0.4
      vertex -52 -1.89384 -0.4
      vertex -52 -1.92749 0.4
    endloop
  endfacet
  facet normal -1 0 0
    outer loop
      vertex -52 2.50555 -0.4
      vertex -52 1.89384 -0.4
      vertex -52 1.92749 0.4
    endloop
  endfacet
  facet normal -1 0 0
    outer loop
      vertex -52 1.44014 -1.30167
      vertex -52 2.50555 -0.4
      vertex -52 1.80155 -1.79911
    endloop
  endfacet
  facet normal -1 -0 0
    outer loop
      vertex -52 2.50555 -0.4
      vertex -52 1.44014 -1.30167
      vertex -52 1.89384 -0.4
    endloop
  endfacet
  facet normal -1 0 0
    outer loop
      vertex -52 1.13453 -2.24207
      vertex -52 1.80155 -1.79911
      vertex -52 1.72967 -3.06121
    endloop
  endfacet
  facet normal -1 -0 0
    outer loop
      vertex -52 1.80155 -1.79911
      vertex -52 1.13453 -2.24207
      vertex -52 1.44014 -1.30167
    endloop
  endfacet
  facet normal -1 0 0
    outer loop
      vertex -52 0.766406 -1.73539
      vertex -52 1.44014 -1.30167
      vertex -52 1.13453 -2.24207
    endloop
  endfacet
  facet normal -1 0 0
    outer loop
      vertex -52 0 0.68052
      vertex -52 0.785044 0.4
      vertex -52 0.785044 -0.4
    endloop
  endfacet
  facet normal -1 0 0
    outer loop
      vertex -52 0 -0.68052
      vertex -52 0.785044 -0.4
      vertex -52 0.766406 -1.73539
    endloop
  endfacet
  facet normal -1 -0 0
    outer loop
      vertex -52 1.44014 -1.30167
      vertex -52 0.766406 -1.73539
      vertex -52 0.785044 -0.4
    endloop
  endfacet
  facet normal -1 0 0
    outer loop
      vertex -52 1.13453 -2.24207
      vertex -52 -0.766406 -1.73539
      vertex -52 0.766406 -1.73539
    endloop
  endfacet
  facet normal -1 0 0
    outer loop
      vertex -52 -0.785044 0.4
      vertex -52 0 0.68052
      vertex -52 -0.785044 -0.4
    endloop
  endfacet
  facet normal -1 0 0
    outer loop
      vertex -52 -1.13453 -2.24207
      vertex -52 -0.766406 -1.73539
      vertex -52 1.13453 -2.24207
    endloop
  endfacet
  facet normal -1 0 0
    outer loop
      vertex -52 -1.44014 -1.30167
      vertex -52 -0.766406 -1.73539
      vertex -52 -1.13453 -2.24207
    endloop
  endfacet
  facet normal -1 0 0
    outer loop
      vertex -52 -0.766406 -1.73539
      vertex -52 -1.44014 -1.30167
      vertex -52 -0.785044 -0.4
    endloop
  endfacet
  facet normal -1 0 0
    outer loop
      vertex -52 -1.80155 -1.79911
      vertex -52 -1.13453 -2.24207
      vertex -52 -1.72967 -3.06121
    endloop
  endfacet
  facet normal -1 0 0
    outer loop
      vertex -52 -1.13453 -2.24207
      vertex -52 -1.80155 -1.79911
      vertex -52 -1.44014 -1.30167
    endloop
  endfacet
  facet normal -1 0 0
    outer loop
      vertex -52 -2.50555 -0.4
      vertex -52 -1.44014 -1.30167
      vertex -52 -1.80155 -1.79911
    endloop
  endfacet
  facet normal -1 0 0
    outer loop
      vertex -52 -1.89384 -0.4
      vertex -52 -2.50555 -0.4
      vertex -52 -1.92749 0.4
    endloop
  endfacet
  facet normal -1 0 0
    outer loop
      vertex -52 -1.44014 -1.30167
      vertex -52 -2.50555 -0.4
      vertex -52 -1.89384 -0.4
    endloop
  endfacet
  facet normal -1 -0 0
    outer loop
      vertex -52 2.86772 -3.26656
      vertex -52 2.22051 -3.73678
      vertex -52 2.38584 -2.6033
    endloop
  endfacet
  facet normal -1 0 0
    outer loop
      vertex -52 1.72967 -3.06121
      vertex -52 2.38584 -2.6033
      vertex -52 2.22051 -3.73678
    endloop
  endfacet
  facet normal -1 -0 0
    outer loop
      vertex -52 2.38584 -2.6033
      vertex -52 1.72967 -3.06121
      vertex -52 1.80155 -1.79911
    endloop
  endfacet
  facet normal -1 0 0
    outer loop
      vertex -52 2.22051 -3.73678
      vertex -52 -1.72967 -3.06121
      vertex -52 1.72967 -3.06121
    endloop
  endfacet
  facet normal -1 0 0
    outer loop
      vertex -52 -2.22051 -3.73678
      vertex -52 -1.72967 -3.06121
      vertex -52 2.22051 -3.73678
    endloop
  endfacet
  facet normal -1 0 0
    outer loop
      vertex -52 -2.38584 -2.6033
      vertex -52 -1.72967 -3.06121
      vertex -52 -2.22051 -3.73678
    endloop
  endfacet
  facet normal -1 0 0
    outer loop
      vertex -52 -1.72967 -3.06121
      vertex -52 -2.38584 -2.6033
      vertex -52 -1.80155 -1.79911
    endloop
  endfacet
  facet normal -1 0 0
    outer loop
      vertex -52 -2.22051 -3.73678
      vertex -52 -2.86772 -3.26656
      vertex -52 -2.38584 -2.6033
    endloop
  endfacet
  facet normal -1 0 0
    outer loop
      vertex -52 4.3101 -0.4
      vertex -52 3.49449 -0.4
      vertex -52 3.56155 0.4
    endloop
  endfacet
  facet normal -1 0 0
    outer loop
      vertex -52 2.38584 -2.6033
      vertex -52 4.3101 -0.4
      vertex -52 2.86772 -3.26656
    endloop
  endfacet
  facet normal -1 -0 0
    outer loop
      vertex -52 4.3101 -0.4
      vertex -52 2.38584 -2.6033
      vertex -52 3.49449 -0.4
    endloop
  endfacet
  facet normal -1 0 0
    outer loop
      vertex -52 3.56155 0.4
      vertex -52 4.39419 0.4
      vertex -52 4.3101 -0.4
    endloop
  endfacet
  facet normal -1 0 0
    outer loop
      vertex -52 3.56155 0.4
      vertex -52 2.87458 3.276
      vertex -52 4.39419 0.4
    endloop
  endfacet
  facet normal -1 0 0
    outer loop
      vertex -52 2.39252 2.6125
      vertex -52 2.87458 3.276
      vertex -52 3.56155 0.4
    endloop
  endfacet
  facet normal -1 -0 0
    outer loop
      vertex -52 2.87458 3.276
      vertex -52 2.39252 2.6125
      vertex -52 2.60095 3.5799
    endloop
  endfacet
  facet normal -1 0 0
    outer loop
      vertex -52 1.73529 3.06894
      vertex -52 2.60095 3.5799
      vertex -52 2.39252 2.6125
    endloop
  endfacet
  facet normal -1 0 0
    outer loop
      vertex -52 1.73529 3.06894
      vertex -52 2.39252 2.6125
      vertex -52 1.80802 1.808
    endloop
  endfacet
  facet normal -1 -0 0
    outer loop
      vertex -52 2.60095 3.5799
      vertex -52 1.73529 3.06894
      vertex -52 2.22737 3.74623
    endloop
  endfacet
  facet normal -1 0 0
    outer loop
      vertex -52 -1.73529 3.06894
      vertex -52 2.22737 3.74623
      vertex -52 1.73529 3.06894
    endloop
  endfacet
  facet normal -1 0 0
    outer loop
      vertex -52 -1.73529 3.06894
      vertex -52 -2.22737 3.74623
      vertex -52 2.22737 3.74623
    endloop
  endfacet
  facet normal -1 0 0
    outer loop
      vertex -52 -2.39252 2.6125
      vertex -52 -1.73529 3.06894
      vertex -52 -1.80802 1.808
    endloop
  endfacet
  facet normal -1 0 0
    outer loop
      vertex -52 -2.60095 3.5799
      vertex -52 -1.73529 3.06894
      vertex -52 -2.39252 2.6125
    endloop
  endfacet
  facet normal -1 0 0
    outer loop
      vertex -52 -1.73529 3.06894
      vertex -52 -2.60095 3.5799
      vertex -52 -2.22737 3.74623
    endloop
  endfacet
  facet normal -1 0 0
    outer loop
      vertex -52 -2.39252 2.6125
      vertex -52 -2.87458 3.276
      vertex -52 -2.60095 3.5799
    endloop
  endfacet
  facet normal -1 0 0
    outer loop
      vertex -52 -3.56155 0.4
      vertex -52 -2.87458 3.276
      vertex -52 -2.39252 2.6125
    endloop
  endfacet
  facet normal -1 0 0
    outer loop
      vertex -52 -4.39419 0.4
      vertex -52 -3.56155 0.4
      vertex -52 -4.3101 -0.4
    endloop
  endfacet
  facet normal -1 0 0
    outer loop
      vertex -52 -3.56155 0.4
      vertex -52 -4.39419 0.4
      vertex -52 -2.87458 3.276
    endloop
  endfacet
  facet normal -1 0 0
    outer loop
      vertex -52 3.49449 -0.4
      vertex -52 2.55197 0.4
      vertex -52 3.56155 0.4
    endloop
  endfacet
  facet normal -1 0 0
    outer loop
      vertex -52 2.50555 -0.4
      vertex -52 2.55197 0.4
      vertex -52 3.49449 -0.4
    endloop
  endfacet
  facet normal -1 0 0
    outer loop
      vertex -52 1.92749 0.4
      vertex -52 2.55197 0.4
      vertex -52 2.50555 -0.4
    endloop
  endfacet
  facet normal -1 0 0
    outer loop
      vertex -52 1.92749 0.4
      vertex -52 1.80802 1.808
      vertex -52 2.55197 0.4
    endloop
  endfacet
  facet normal -1 0 0
    outer loop
      vertex -52 1.44647 1.31038
      vertex -52 1.80802 1.808
      vertex -52 1.92749 0.4
    endloop
  endfacet
  facet normal -1 0 0
    outer loop
      vertex -52 1.13865 2.24774
      vertex -52 1.80802 1.808
      vertex -52 1.44647 1.31038
    endloop
  endfacet
  facet normal -1 0 0
    outer loop
      vertex -52 1.80802 1.808
      vertex -52 1.13865 2.24774
      vertex -52 1.73529 3.06894
    endloop
  endfacet
  facet normal -1 0 0
    outer loop
      vertex -52 0.769593 1.73977
      vertex -52 1.44647 1.31038
      vertex -52 0.785044 0.4
    endloop
  endfacet
  facet normal -1 0 0
    outer loop
      vertex -52 1.44647 1.31038
      vertex -52 0.769593 1.73977
      vertex -52 1.13865 2.24774
    endloop
  endfacet
  facet normal -1 0 0
    outer loop
      vertex -52 -0.769593 1.73977
      vertex -52 1.13865 2.24774
      vertex -52 0.769593 1.73977
    endloop
  endfacet
  facet normal -1 -0 0
    outer loop
      vertex -52 0 0.68052
      vertex -52 -0.785044 0.4
      vertex -52 -0.769593 1.73977
    endloop
  endfacet
  facet normal -1 0 0
    outer loop
      vertex -52 -0.769593 1.73977
      vertex -52 -1.13865 2.24774
      vertex -52 1.13865 2.24774
    endloop
  endfacet
  facet normal -1 0 0
    outer loop
      vertex -52 -1.44647 1.31038
      vertex -52 -0.769593 1.73977
      vertex -52 -0.785044 0.4
    endloop
  endfacet
  facet normal -1 -0 0
    outer loop
      vertex -52 -0.769593 1.73977
      vertex -52 -1.44647 1.31038
      vertex -52 -1.13865 2.24774
    endloop
  endfacet
  facet normal -1 0 0
    outer loop
      vertex -52 -1.80802 1.808
      vertex -52 -1.13865 2.24774
      vertex -52 -1.44647 1.31038
    endloop
  endfacet
  facet normal -1 -0 0
    outer loop
      vertex -52 -1.13865 2.24774
      vertex -52 -1.80802 1.808
      vertex -52 -1.73529 3.06894
    endloop
  endfacet
  facet normal -1 0 0
    outer loop
      vertex -52 -1.92749 0.4
      vertex -52 -1.80802 1.808
      vertex -52 -1.44647 1.31038
    endloop
  endfacet
  facet normal -1 0 0
    outer loop
      vertex -52 -2.55197 0.4
      vertex -52 -1.92749 0.4
      vertex -52 -2.50555 -0.4
    endloop
  endfacet
  facet normal -1 0 0
    outer loop
      vertex -52 -1.92749 0.4
      vertex -52 -2.55197 0.4
      vertex -52 -1.80802 1.808
    endloop
  endfacet
  facet normal -1 0 0
    outer loop
      vertex -52 -3.49449 -0.4
      vertex -52 -2.55197 0.4
      vertex -52 -2.50555 -0.4
    endloop
  endfacet
  facet normal -1 -0 0
    outer loop
      vertex -52 -2.55197 0.4
      vertex -52 -3.49449 -0.4
      vertex -52 -3.56155 0.4
    endloop
  endfacet
  facet normal -1 0 0
    outer loop
      vertex -52 0.785044 0.4
      vertex -52 1.89384 -0.4
      vertex -52 0.785044 -0.4
    endloop
  endfacet
  facet normal -1 0 0
    outer loop
      vertex -52 1.89384 -0.4
      vertex -52 0.785044 0.4
      vertex -52 1.92749 0.4
    endloop
  endfacet
  facet normal -1 0 0
    outer loop
      vertex -52 0 0.68052
      vertex -52 0.785044 -0.4
      vertex -52 0 -0.68052
    endloop
  endfacet
  facet normal -1 0 0
    outer loop
      vertex -52 0.785044 0.4
      vertex -52 0 0.68052
      vertex -52 0.769593 1.73977
    endloop
  endfacet
  facet normal -1 0 0
    outer loop
      vertex -52 -0.785044 -0.4
      vertex -52 0 -0.68052
      vertex -52 -0.766406 -1.73539
    endloop
  endfacet
  facet normal -1 0 0
    outer loop
      vertex -52 0 -0.68052
      vertex -52 -0.785044 -0.4
      vertex -52 0 0.68052
    endloop
  endfacet
  facet normal 1 -0 0
    outer loop
      vertex 52 2.55197 0.4
      vertex 52 3.49449 -0.4
      vertex 52 3.56155 0.4
    endloop
  endfacet
  facet normal 1 0 0
    outer loop
      vertex 52 2.55197 0.4
      vertex 52 2.50555 -0.4
      vertex 52 3.49449 -0.4
    endloop
  endfacet
  facet normal 1 0 0
    outer loop
      vertex 52 2.55197 0.4
      vertex 52 1.92749 0.4
      vertex 52 2.50555 -0.4
    endloop
  endfacet
  facet normal 1 0 0
    outer loop
      vertex 52 1.80802 1.808
      vertex 52 1.92749 0.4
      vertex 52 2.55197 0.4
    endloop
  endfacet
  facet normal 1 0 0
    outer loop
      vertex 52 1.80802 1.808
      vertex 52 1.44647 1.31038
      vertex 52 1.92749 0.4
    endloop
  endfacet
  facet normal 1 -0 0
    outer loop
      vertex 52 1.13865 2.24774
      vertex 52 1.80802 1.808
      vertex 52 1.73529 3.06894
    endloop
  endfacet
  facet normal 1 0 0
    outer loop
      vertex 52 1.80802 1.808
      vertex 52 1.13865 2.24774
      vertex 52 1.44647 1.31038
    endloop
  endfacet
  facet normal 1 -0 0
    outer loop
      vertex 52 0.769593 1.73977
      vertex 52 1.44647 1.31038
      vertex 52 1.13865 2.24774
    endloop
  endfacet
  facet normal 1 -0 0
    outer loop
      vertex 52 0 0.68052
      vertex 52 0.785044 0.4
      vertex 52 0.769593 1.73977
    endloop
  endfacet
  facet normal 1 0 0
    outer loop
      vertex 52 1.44647 1.31038
      vertex 52 0.769593 1.73977
      vertex 52 0.785044 0.4
    endloop
  endfacet
  facet normal 1 0 0
    outer loop
      vertex 52 1.13865 2.24774
      vertex 52 -0.769593 1.73977
      vertex 52 0.769593 1.73977
    endloop
  endfacet
  facet normal 1 -0 0
    outer loop
      vertex 52 -1.13865 2.24774
      vertex 52 -0.769593 1.73977
      vertex 52 1.13865 2.24774
    endloop
  endfacet
  facet normal 1 0 0
    outer loop
      vertex 52 -1.44647 1.31038
      vertex 52 -0.769593 1.73977
      vertex 52 -1.13865 2.24774
    endloop
  endfacet
  facet normal 1 0 0
    outer loop
      vertex 52 -0.769593 1.73977
      vertex 52 -1.44647 1.31038
      vertex 52 -0.785044 0.4
    endloop
  endfacet
  facet normal 1 0 0
    outer loop
      vertex 52 -1.80802 1.808
      vertex 52 -1.13865 2.24774
      vertex 52 -1.73529 3.06894
    endloop
  endfacet
  facet normal 1 0 0
    outer loop
      vertex 52 -1.13865 2.24774
      vertex 52 -1.80802 1.808
      vertex 52 -1.44647 1.31038
    endloop
  endfacet
  facet normal 1 0 0
    outer loop
      vertex 52 -1.80802 1.808
      vertex 52 -1.92749 0.4
      vertex 52 -1.44647 1.31038
    endloop
  endfacet
  facet normal 1 0 0
    outer loop
      vertex 52 -2.55197 0.4
      vertex 52 -1.92749 0.4
      vertex 52 -1.80802 1.808
    endloop
  endfacet
  facet normal 1 0 0
    outer loop
      vertex 52 -1.92749 0.4
      vertex 52 -2.55197 0.4
      vertex 52 -2.50555 -0.4
    endloop
  endfacet
  facet normal 1 0 0
    outer loop
      vertex 52 -2.55197 0.4
      vertex 52 -3.49449 -0.4
      vertex 52 -2.50555 -0.4
    endloop
  endfacet
  facet normal 1 0 -0
    outer loop
      vertex 52 -3.49449 -0.4
      vertex 52 -2.55197 0.4
      vertex 52 -3.56155 0.4
    endloop
  endfacet
  facet normal 1 0 0
    outer loop
      vertex 52 4.39419 0.4
      vertex 52 3.56155 0.4
      vertex 52 4.3101 -0.4
    endloop
  endfacet
  facet normal 1 0 0
    outer loop
      vertex 52 2.87458 3.276
      vertex 52 3.56155 0.4
      vertex 52 4.39419 0.4
    endloop
  endfacet
  facet normal 1 0 0
    outer loop
      vertex 52 2.39252 2.6125
      vertex 52 2.87458 3.276
      vertex 52 2.60095 3.5799
    endloop
  endfacet
  facet normal 1 0 0
    outer loop
      vertex 52 2.87458 3.276
      vertex 52 2.39252 2.6125
      vertex 52 3.56155 0.4
    endloop
  endfacet
  facet normal 1 0 0
    outer loop
      vertex 52 1.73529 3.06894
      vertex 52 2.60095 3.5799
      vertex 52 2.22737 3.74623
    endloop
  endfacet
  facet normal 1 0 0
    outer loop
      vertex 52 2.60095 3.5799
      vertex 52 1.73529 3.06894
      vertex 52 2.39252 2.6125
    endloop
  endfacet
  facet normal 1 0 0
    outer loop
      vertex 52 2.39252 2.6125
      vertex 52 1.73529 3.06894
      vertex 52 1.80802 1.808
    endloop
  endfacet
  facet normal 1 0 0
    outer loop
      vertex 52 2.22737 3.74623
      vertex 52 -1.73529 3.06894
      vertex 52 1.73529 3.06894
    endloop
  endfacet
  facet normal 1 -0 0
    outer loop
      vertex 52 -2.22737 3.74623
      vertex 52 -1.73529 3.06894
      vertex 52 2.22737 3.74623
    endloop
  endfacet
  facet normal 1 -0 0
    outer loop
      vertex 52 -2.60095 3.5799
      vertex 52 -1.73529 3.06894
      vertex 52 -2.22737 3.74623
    endloop
  endfacet
  facet normal 1 0 0
    outer loop
      vertex 52 -1.73529 3.06894
      vertex 52 -2.39252 2.6125
      vertex 52 -1.80802 1.808
    endloop
  endfacet
  facet normal 1 0 0
    outer loop
      vertex 52 -1.73529 3.06894
      vertex 52 -2.60095 3.5799
      vertex 52 -2.39252 2.6125
    endloop
  endfacet
  facet normal 1 -0 0
    outer loop
      vertex 52 -2.87458 3.276
      vertex 52 -2.39252 2.6125
      vertex 52 -2.60095 3.5799
    endloop
  endfacet
  facet normal 1 0 0
    outer loop
      vertex 52 -2.87458 3.276
      vertex 52 -3.56155 0.4
      vertex 52 -2.39252 2.6125
    endloop
  endfacet
  facet normal 1 0 0
    outer loop
      vertex 52 -4.39419 0.4
      vertex 52 -3.56155 0.4
      vertex 52 -2.87458 3.276
    endloop
  endfacet
  facet normal 1 0 0
    outer loop
      vertex 52 -3.56155 0.4
      vertex 52 -4.39419 0.4
      vertex 52 -4.3101 -0.4
    endloop
  endfacet
  facet normal 1 0 0
    outer loop
      vertex 52 3.49449 -0.4
      vertex 52 4.3101 -0.4
      vertex 52 3.56155 0.4
    endloop
  endfacet
  facet normal 1 0 0
    outer loop
      vertex 52 2.38584 -2.6033
      vertex 52 4.3101 -0.4
      vertex 52 3.49449 -0.4
    endloop
  endfacet
  facet normal 1 0 0
    outer loop
      vertex 52 4.3101 -0.4
      vertex 52 2.38584 -2.6033
      vertex 52 2.86772 -3.26656
    endloop
  endfacet
  facet normal 1 0 0
    outer loop
      vertex 52 2.22051 -3.73678
      vertex 52 2.86772 -3.26656
      vertex 52 2.38584 -2.6033
    endloop
  endfacet
  facet normal 1 0 0
    outer loop
      vertex 52 1.72967 -3.06121
      vertex 52 2.38584 -2.6033
      vertex 52 1.80155 -1.79911
    endloop
  endfacet
  facet normal 1 0 0
    outer loop
      vertex 52 2.38584 -2.6033
      vertex 52 1.72967 -3.06121
      vertex 52 2.22051 -3.73678
    endloop
  endfacet
  facet normal 1 -0 0
    outer loop
      vertex 52 -1.72967 -3.06121
      vertex 52 2.22051 -3.73678
      vertex 52 1.72967 -3.06121
    endloop
  endfacet
  facet normal 1 0 0
    outer loop
      vertex 52 -1.72967 -3.06121
      vertex 52 -2.22051 -3.73678
      vertex 52 2.22051 -3.73678
    endloop
  endfacet
  facet normal 1 -0 0
    outer loop
      vertex 52 -2.38584 -2.6033
      vertex 52 -1.72967 -3.06121
      vertex 52 -1.80155 -1.79911
    endloop
  endfacet
  facet normal 1 0 0
    outer loop
      vertex 52 -1.72967 -3.06121
      vertex 52 -2.38584 -2.6033
      vertex 52 -2.22051 -3.73678
    endloop
  endfacet
  facet normal 1 -0 0
    outer loop
      vertex 52 -2.86772 -3.26656
      vertex 52 -2.22051 -3.73678
      vertex 52 -2.38584 -2.6033
    endloop
  endfacet
  facet normal 1 -0 0
    outer loop
      vertex 52 -4.3101 -0.4
      vertex 52 -2.38584 -2.6033
      vertex 52 -3.49449 -0.4
    endloop
  endfacet
  facet normal 1 0 0
    outer loop
      vertex 52 -2.38584 -2.6033
      vertex 52 -4.3101 -0.4
      vertex 52 -2.86772 -3.26656
    endloop
  endfacet
  facet normal 1 0 0
    outer loop
      vertex 52 -4.3101 -0.4
      vertex 52 -3.49449 -0.4
      vertex 52 -3.56155 0.4
    endloop
  endfacet
  facet normal 1 0 0
    outer loop
      vertex 52 -0.785044 0.4
      vertex 52 -1.89384 -0.4
      vertex 52 -0.785044 -0.4
    endloop
  endfacet
  facet normal 1 0 -0
    outer loop
      vertex 52 -1.89384 -0.4
      vertex 52 -0.785044 0.4
      vertex 52 -1.92749 0.4
    endloop
  endfacet
  facet normal 1 0 0
    outer loop
      vertex 52 0 -0.68052
      vertex 52 0.785044 -0.4
      vertex 52 0 0.68052
    endloop
  endfacet
  facet normal 1 0 0
    outer loop
      vertex 52 0.785044 -0.4
      vertex 52 0 -0.68052
      vertex 52 0.766406 -1.73539
    endloop
  endfacet
  facet normal 1 -0 0
    outer loop
      vertex 52 -0.785044 -0.4
      vertex 52 0 -0.68052
      vertex 52 0 0.68052
    endloop
  endfacet
  facet normal 1 0 0
    outer loop
      vertex 52 -0.785044 0.4
      vertex 52 0 0.68052
      vertex 52 -0.769593 1.73977
    endloop
  endfacet
  facet normal 1 -0 0
    outer loop
      vertex 52 0.785044 0.4
      vertex 52 1.89384 -0.4
      vertex 52 1.92749 0.4
    endloop
  endfacet
  facet normal 1 0 0
    outer loop
      vertex 52 1.89384 -0.4
      vertex 52 0.785044 0.4
      vertex 52 0.785044 -0.4
    endloop
  endfacet
  facet normal 1 0 0
    outer loop
      vertex 52 1.89384 -0.4
      vertex 52 2.50555 -0.4
      vertex 52 1.92749 0.4
    endloop
  endfacet
  facet normal 1 0 0
    outer loop
      vertex 52 1.44014 -1.30167
      vertex 52 2.50555 -0.4
      vertex 52 1.89384 -0.4
    endloop
  endfacet
  facet normal 1 0 0
    outer loop
      vertex 52 2.50555 -0.4
      vertex 52 1.44014 -1.30167
      vertex 52 1.80155 -1.79911
    endloop
  endfacet
  facet normal 1 0 0
    outer loop
      vertex 52 1.13453 -2.24207
      vertex 52 1.80155 -1.79911
      vertex 52 1.44014 -1.30167
    endloop
  endfacet
  facet normal 1 0 0
    outer loop
      vertex 52 1.80155 -1.79911
      vertex 52 1.13453 -2.24207
      vertex 52 1.72967 -3.06121
    endloop
  endfacet
  facet normal 1 0 0
    outer loop
      vertex 52 0.766406 -1.73539
      vertex 52 1.44014 -1.30167
      vertex 52 0.785044 -0.4
    endloop
  endfacet
  facet normal 1 0 0
    outer loop
      vertex 52 0.785044 0.4
      vertex 52 0 0.68052
      vertex 52 0.785044 -0.4
    endloop
  endfacet
  facet normal 1 0 0
    outer loop
      vertex 52 1.44014 -1.30167
      vertex 52 0.766406 -1.73539
      vertex 52 1.13453 -2.24207
    endloop
  endfacet
  facet normal 1 -0 0
    outer loop
      vertex 52 -0.766406 -1.73539
      vertex 52 1.13453 -2.24207
      vertex 52 0.766406 -1.73539
    endloop
  endfacet
  facet normal 1 0 0
    outer loop
      vertex 52 -0.785044 -0.4
      vertex 52 0 0.68052
      vertex 52 -0.785044 0.4
    endloop
  endfacet
  facet normal 1 0 0
    outer loop
      vertex 52 0 -0.68052
      vertex 52 -0.785044 -0.4
      vertex 52 -0.766406 -1.73539
    endloop
  endfacet
  facet normal 1 0 0
    outer loop
      vertex 52 -0.766406 -1.73539
      vertex 52 -1.13453 -2.24207
      vertex 52 1.13453 -2.24207
    endloop
  endfacet
  facet normal 1 -0 0
    outer loop
      vertex 52 -1.44014 -1.30167
      vertex 52 -0.766406 -1.73539
      vertex 52 -0.785044 -0.4
    endloop
  endfacet
  facet normal 1 0 0
    outer loop
      vertex 52 -0.766406 -1.73539
      vertex 52 -1.44014 -1.30167
      vertex 52 -1.13453 -2.24207
    endloop
  endfacet
  facet normal 1 -0 0
    outer loop
      vertex 52 -1.80155 -1.79911
      vertex 52 -1.13453 -2.24207
      vertex 52 -1.44014 -1.30167
    endloop
  endfacet
  facet normal 1 0 0
    outer loop
      vertex 52 -1.13453 -2.24207
      vertex 52 -1.80155 -1.79911
      vertex 52 -1.72967 -3.06121
    endloop
  endfacet
  facet normal 1 -0 0
    outer loop
      vertex 52 -2.50555 -0.4
      vertex 52 -1.44014 -1.30167
      vertex 52 -1.89384 -0.4
    endloop
  endfacet
  facet normal 1 0 0
    outer loop
      vertex 52 -1.44014 -1.30167
      vertex 52 -2.50555 -0.4
      vertex 52 -1.80155 -1.79911
    endloop
  endfacet
  facet normal 1 0 0
    outer loop
      vertex 52 -2.50555 -0.4
      vertex 52 -1.89384 -0.4
      vertex 52 -1.92749 0.4
    endloop
  endfacet
  facet normal 0 0.809016 0.587787
    outer loop
      vertex 52 0 0.68052
      vertex -52 -0.769593 1.73977
      vertex 52 -0.769593 1.73977
    endloop
  endfacet
  facet normal 0 0.809016 0.587787
    outer loop
      vertex -52 -0.769593 1.73977
      vertex 52 0 0.68052
      vertex -52 0 0.68052
    endloop
  endfacet
  facet normal 0 0.809019 0.587782
    outer loop
      vertex 52 1.44014 -1.30167
      vertex -52 0.785044 -0.4
      vertex 52 0.785044 -0.4
    endloop
  endfacet
  facet normal 0 0.809019 0.587782
    outer loop
      vertex -52 0.785044 -0.4
      vertex 52 1.44014 -1.30167
      vertex -52 1.44014 -1.30167
    endloop
  endfacet
  facet normal 0 0.809011 0.587793
    outer loop
      vertex 52 2.38584 -2.6033
      vertex -52 1.80155 -1.79911
      vertex 52 1.80155 -1.79911
    endloop
  endfacet
  facet normal 0 0.809011 0.587793
    outer loop
      vertex -52 1.80155 -1.79911
      vertex 52 2.38584 -2.6033
      vertex -52 2.38584 -2.6033
    endloop
  endfacet
  facet normal 0 0.809015 0.587787
    outer loop
      vertex 52 -1.13865 2.24774
      vertex -52 -1.73529 3.06894
      vertex 52 -1.73529 3.06894
    endloop
  endfacet
  facet normal 0 0.809015 0.587787
    outer loop
      vertex -52 -1.73529 3.06894
      vertex 52 -1.13865 2.24774
      vertex -52 -1.13865 2.24774
    endloop
  endfacet
  facet normal 0 -0.809018 -0.587784
    outer loop
      vertex -52 0.766406 -1.73539
      vertex 52 0 -0.68052
      vertex -52 0 -0.68052
    endloop
  endfacet
  facet normal 0 -0.809018 -0.587784
    outer loop
      vertex 52 0 -0.68052
      vertex -52 0.766406 -1.73539
      vertex 52 0.766406 -1.73539
    endloop
  endfacet
  facet normal 0 -0.809019 -0.587783
    outer loop
      vertex -52 -0.785044 0.4
      vertex 52 -1.44647 1.31038
      vertex -52 -1.44647 1.31038
    endloop
  endfacet
  facet normal 0 -0.809019 -0.587783
    outer loop
      vertex 52 -1.44647 1.31038
      vertex -52 -0.785044 0.4
      vertex 52 -0.785044 0.4
    endloop
  endfacet
  facet normal 0 -0.809019 -0.587783
    outer loop
      vertex -52 -1.80802 1.808
      vertex 52 -2.39252 2.6125
      vertex -52 -2.39252 2.6125
    endloop
  endfacet
  facet normal 0 -0.809019 -0.587783
    outer loop
      vertex 52 -2.39252 2.6125
      vertex -52 -1.80802 1.808
      vertex 52 -1.80802 1.808
    endloop
  endfacet
  facet normal 0 -0.809017 -0.587785
    outer loop
      vertex -52 1.72967 -3.06121
      vertex 52 1.13453 -2.24207
      vertex -52 1.13453 -2.24207
    endloop
  endfacet
  facet normal 0 -0.809017 -0.587785
    outer loop
      vertex 52 1.13453 -2.24207
      vertex -52 1.72967 -3.06121
      vertex 52 1.72967 -3.06121
    endloop
  endfacet
  facet normal 0 0.809018 -0.587784
    outer loop
      vertex 52 -0.766406 -1.73539
      vertex -52 0 -0.68052
      vertex 52 0 -0.68052
    endloop
  endfacet
  facet normal 0 0.809018 -0.587784
    outer loop
      vertex -52 0 -0.68052
      vertex 52 -0.766406 -1.73539
      vertex -52 -0.766406 -1.73539
    endloop
  endfacet
  facet normal 0 0.809019 -0.587783
    outer loop
      vertex 52 0.785044 0.4
      vertex -52 1.44647 1.31038
      vertex 52 1.44647 1.31038
    endloop
  endfacet
  facet normal 0 0.809019 -0.587783
    outer loop
      vertex -52 1.44647 1.31038
      vertex 52 0.785044 0.4
      vertex -52 0.785044 0.4
    endloop
  endfacet
  facet normal 0 0.809019 -0.587783
    outer loop
      vertex 52 1.80802 1.808
      vertex -52 2.39252 2.6125
      vertex 52 2.39252 2.6125
    endloop
  endfacet
  facet normal 0 0.809019 -0.587783
    outer loop
      vertex -52 2.39252 2.6125
      vertex 52 1.80802 1.808
      vertex -52 1.80802 1.808
    endloop
  endfacet
  facet normal 0 0.809017 -0.587785
    outer loop
      vertex 52 -1.72967 -3.06121
      vertex -52 -1.13453 -2.24207
      vertex 52 -1.13453 -2.24207
    endloop
  endfacet
  facet normal 0 0.809017 -0.587785
    outer loop
      vertex -52 -1.13453 -2.24207
      vertex 52 -1.72967 -3.06121
      vertex -52 -1.72967 -3.06121
    endloop
  endfacet
  facet normal 0 -0.809016 0.587787
    outer loop
      vertex -52 0 0.68052
      vertex 52 0.769593 1.73977
      vertex -52 0.769593 1.73977
    endloop
  endfacet
  facet normal 0 -0.809016 0.587787
    outer loop
      vertex 52 0.769593 1.73977
      vertex -52 0 0.68052
      vertex 52 0 0.68052
    endloop
  endfacet
  facet normal 0 -0.809019 0.587782
    outer loop
      vertex -52 -1.44014 -1.30167
      vertex 52 -0.785044 -0.4
      vertex -52 -0.785044 -0.4
    endloop
  endfacet
  facet normal 0 -0.809019 0.587782
    outer loop
      vertex 52 -0.785044 -0.4
      vertex -52 -1.44014 -1.30167
      vertex 52 -1.44014 -1.30167
    endloop
  endfacet
  facet normal 0 -0.809011 0.587793
    outer loop
      vertex -52 -2.38584 -2.6033
      vertex 52 -1.80155 -1.79911
      vertex -52 -1.80155 -1.79911
    endloop
  endfacet
  facet normal 0 -0.809011 0.587793
    outer loop
      vertex 52 -1.80155 -1.79911
      vertex -52 -2.38584 -2.6033
      vertex 52 -2.38584 -2.6033
    endloop
  endfacet
  facet normal 0 -0.809015 0.587787
    outer loop
      vertex -52 1.13865 2.24774
      vertex 52 1.73529 3.06894
      vertex -52 1.73529 3.06894
    endloop
  endfacet
  facet normal 0 -0.809015 0.587787
    outer loop
      vertex 52 1.73529 3.06894
      vertex -52 1.13865 2.24774
      vertex 52 1.13865 2.24774
    endloop
  endfacet
  facet normal -0 0 1
    outer loop
      vertex -52 -0.785044 0.4
      vertex 52 -1.92749 0.4
      vertex 52 -0.785044 0.4
    endloop
  endfacet
  facet normal 0 0 1
    outer loop
      vertex 52 -1.92749 0.4
      vertex -52 -0.785044 0.4
      vertex -52 -1.92749 0.4
    endloop
  endfacet
  facet normal -0 0 1
    outer loop
      vertex -52 1.92749 0.4
      vertex 52 0.785044 0.4
      vertex 52 1.92749 0.4
    endloop
  endfacet
  facet normal 0 0 1
    outer loop
      vertex 52 0.785044 0.4
      vertex -52 1.92749 0.4
      vertex -52 0.785044 0.4
    endloop
  endfacet
  facet normal -0 0 1
    outer loop
      vertex -52 -2.55197 0.4
      vertex 52 -3.56155 0.4
      vertex 52 -2.55197 0.4
    endloop
  endfacet
  facet normal 0 0 1
    outer loop
      vertex 52 -3.56155 0.4
      vertex -52 -2.55197 0.4
      vertex -52 -3.56155 0.4
    endloop
  endfacet
  facet normal -0 0 1
    outer loop
      vertex -52 3.56155 0.4
      vertex 52 2.55197 0.4
      vertex 52 3.56155 0.4
    endloop
  endfacet
  facet normal 0 0 1
    outer loop
      vertex 52 2.55197 0.4
      vertex -52 3.56155 0.4
      vertex -52 2.55197 0.4
    endloop
  endfacet
  facet normal 0 0 -1
    outer loop
      vertex -52 0.785044 -0.4
      vertex 52 1.89384 -0.4
      vertex 52 0.785044 -0.4
    endloop
  endfacet
  facet normal -0 0 -1
    outer loop
      vertex 52 1.89384 -0.4
      vertex -52 0.785044 -0.4
      vertex -52 1.89384 -0.4
    endloop
  endfacet
  facet normal 0 0 -1
    outer loop
      vertex -52 -1.89384 -0.4
      vertex 52 -0.785044 -0.4
      vertex 52 -1.89384 -0.4
    endloop
  endfacet
  facet normal -0 0 -1
    outer loop
      vertex 52 -0.785044 -0.4
      vertex -52 -1.89384 -0.4
      vertex -52 -0.785044 -0.4
    endloop
  endfacet
  facet normal 0 0 -1
    outer loop
      vertex -52 2.50555 -0.4
      vertex 52 3.49449 -0.4
      vertex 52 2.50555 -0.4
    endloop
  endfacet
  facet normal -0 0 -1
    outer loop
      vertex 52 3.49449 -0.4
      vertex -52 2.50555 -0.4
      vertex -52 3.49449 -0.4
    endloop
  endfacet
  facet normal 0 0 -1
    outer loop
      vertex -52 -3.49449 -0.4
      vertex 52 -2.50555 -0.4
      vertex 52 -3.49449 -0.4
    endloop
  endfacet
  facet normal -0 0 -1
    outer loop
      vertex 52 -2.50555 -0.4
      vertex -52 -3.49449 -0.4
      vertex -52 -2.50555 -0.4
    endloop
  endfacet
  facet normal 0 0.743148 0.669127
    outer loop
      vertex -22.495 2.87458 3.276
      vertex -52 2.60095 3.5799
      vertex -22.495 2.60095 3.5799
    endloop
  endfacet
  facet normal 0 0.743148 0.669127
    outer loop
      vertex -52 2.60095 3.5799
      vertex -22.495 2.87458 3.276
      vertex -52 2.87458 3.276
    endloop
  endfacet
  facet normal 0 0.743148 0.669127
    outer loop
      vertex 52 2.87458 3.276
      vertex -21.505 2.60095 3.5799
      vertex 52 2.60095 3.5799
    endloop
  endfacet
  facet normal 0 0.743148 0.669127
    outer loop
      vertex -21.505 2.60095 3.5799
      vertex 52 2.87458 3.276
      vertex -21.505 2.87458 3.276
    endloop
  endfacet
  facet normal 0 -0.994521 -0.104537
    outer loop
      vertex -52 -4.3101 -0.4
      vertex -22.495 -4.39419 0.4
      vertex -52 -4.39419 0.4
    endloop
  endfacet
  facet normal 0 -0.994521 -0.104537
    outer loop
      vertex -22.495 -4.39419 0.4
      vertex -52 -4.3101 -0.4
      vertex -22.495 -4.3101 -0.4
    endloop
  endfacet
  facet normal 0 -0.994521 -0.104537
    outer loop
      vertex -21.505 -4.3101 -0.4
      vertex 52 -4.39419 0.4
      vertex -21.505 -4.39419 0.4
    endloop
  endfacet
  facet normal 0 -0.994521 -0.104537
    outer loop
      vertex 52 -4.39419 0.4
      vertex -21.505 -4.3101 -0.4
      vertex 52 -4.3101 -0.4
    endloop
  endfacet
  facet normal 0 0.587781 -0.80902
    outer loop
      vertex 52 2.22051 -3.73678
      vertex -21.505 2.22051 -3.73678
      vertex 52 2.86772 -3.26656
    endloop
  endfacet
  facet normal 0 0 0
    outer loop
      vertex 52 2.22051 -3.73678
      vertex -22.495 2.22051 -3.73678
      vertex -21.505 2.22051 -3.73678
    endloop
  endfacet
  facet normal 0 0 0
    outer loop
      vertex -52 2.22051 -3.73678
      vertex -22.495 2.22051 -3.73678
      vertex 52 2.22051 -3.73678
    endloop
  endfacet
  facet normal 0 0.587781 -0.80902
    outer loop
      vertex -52 2.22051 -3.73678
      vertex -22.495 2.86772 -3.26656
      vertex -22.495 2.22051 -3.73678
    endloop
  endfacet
  facet normal 0 0.587781 -0.80902
    outer loop
      vertex -22.495 2.86772 -3.26656
      vertex -52 2.22051 -3.73678
      vertex -52 2.86772 -3.26656
    endloop
  endfacet
  facet normal 0 0.587781 -0.80902
    outer loop
      vertex 52 2.86772 -3.26656
      vertex -21.505 2.22051 -3.73678
      vertex -21.505 2.86772 -3.26656
    endloop
  endfacet
  facet normal 0 0.994521 -0.104537
    outer loop
      vertex -22.495 4.3101 -0.4
      vertex -52 4.39419 0.4
      vertex -22.495 4.39419 0.4
    endloop
  endfacet
  facet normal 0 0.994521 -0.104537
    outer loop
      vertex -52 4.39419 0.4
      vertex -22.495 4.3101 -0.4
      vertex -52 4.3101 -0.4
    endloop
  endfacet
  facet normal 0 0.994521 -0.104537
    outer loop
      vertex 52 4.3101 -0.4
      vertex -21.505 4.39419 0.4
      vertex 52 4.39419 0.4
    endloop
  endfacet
  facet normal 0 0.994521 -0.104537
    outer loop
      vertex -21.505 4.39419 0.4
      vertex 52 4.3101 -0.4
      vertex -21.505 4.3101 -0.4
    endloop
  endfacet
  facet normal 0 0.40674 0.913544
    outer loop
      vertex -22.495 2.60095 3.5799
      vertex -52 2.60095 3.5799
      vertex -22.495 2.22737 3.74623
    endloop
  endfacet
  facet normal -0 0.40674 0.913544
    outer loop
      vertex -21.505 2.60095 3.5799
      vertex 52 2.22737 3.74623
      vertex 52 2.60095 3.5799
    endloop
  endfacet
  facet normal -0 0.40674 0.913544
    outer loop
      vertex -21.505 2.22737 3.74623
      vertex 52 2.22737 3.74623
      vertex -21.505 2.60095 3.5799
    endloop
  endfacet
  facet normal 0 0 0
    outer loop
      vertex -22.495 2.22737 3.74623
      vertex 52 2.22737 3.74623
      vertex -21.505 2.22737 3.74623
    endloop
  endfacet
  facet normal 0 0 -0
    outer loop
      vertex -22.495 2.22737 3.74623
      vertex -52 2.22737 3.74623
      vertex 52 2.22737 3.74623
    endloop
  endfacet
  facet normal -0 0.40674 0.913544
    outer loop
      vertex -52 2.22737 3.74623
      vertex -22.495 2.22737 3.74623
      vertex -52 2.60095 3.5799
    endloop
  endfacet
  facet normal -0 -0.587781 -0.80902
    outer loop
      vertex -22.495 -2.86772 -3.26656
      vertex -52 -2.86772 -3.26656
      vertex -22.495 -2.22051 -3.73678
    endloop
  endfacet
  facet normal 0 -0.587781 -0.80902
    outer loop
      vertex -21.505 -2.86772 -3.26656
      vertex 52 -2.22051 -3.73678
      vertex 52 -2.86772 -3.26656
    endloop
  endfacet
  facet normal 0 -0.587781 -0.80902
    outer loop
      vertex -21.505 -2.22051 -3.73678
      vertex 52 -2.22051 -3.73678
      vertex -21.505 -2.86772 -3.26656
    endloop
  endfacet
  facet normal 0 0 0
    outer loop
      vertex -22.495 -2.22051 -3.73678
      vertex 52 -2.22051 -3.73678
      vertex -21.505 -2.22051 -3.73678
    endloop
  endfacet
  facet normal 0 0 -0
    outer loop
      vertex -22.495 -2.22051 -3.73678
      vertex -52 -2.22051 -3.73678
      vertex 52 -2.22051 -3.73678
    endloop
  endfacet
  facet normal 0 -0.587781 -0.80902
    outer loop
      vertex -52 -2.22051 -3.73678
      vertex -22.495 -2.22051 -3.73678
      vertex -52 -2.86772 -3.26656
    endloop
  endfacet
  facet normal 0 -0.743148 0.669127
    outer loop
      vertex -52 -2.87458 3.276
      vertex -22.495 -2.60095 3.5799
      vertex -52 -2.60095 3.5799
    endloop
  endfacet
  facet normal 0 -0.743148 0.669127
    outer loop
      vertex -22.495 -2.60095 3.5799
      vertex -52 -2.87458 3.276
      vertex -22.495 -2.87458 3.276
    endloop
  endfacet
  facet normal 0 -0.743148 0.669127
    outer loop
      vertex -21.505 -2.87458 3.276
      vertex 52 -2.60095 3.5799
      vertex -21.505 -2.60095 3.5799
    endloop
  endfacet
  facet normal 0 -0.743148 0.669127
    outer loop
      vertex 52 -2.60095 3.5799
      vertex -21.505 -2.87458 3.276
      vertex 52 -2.87458 3.276
    endloop
  endfacet
  facet normal 0 -0.40674 0.913544
    outer loop
      vertex 52 -2.22737 3.74623
      vertex -21.505 -2.22737 3.74623
      vertex 52 -2.60095 3.5799
    endloop
  endfacet
  facet normal 0 0 0
    outer loop
      vertex 52 -2.22737 3.74623
      vertex -22.495 -2.22737 3.74623
      vertex -21.505 -2.22737 3.74623
    endloop
  endfacet
  facet normal 0 0 0
    outer loop
      vertex -52 -2.22737 3.74623
      vertex -22.495 -2.22737 3.74623
      vertex 52 -2.22737 3.74623
    endloop
  endfacet
  facet normal 0 -0.40674 0.913544
    outer loop
      vertex -52 -2.22737 3.74623
      vertex -22.495 -2.60095 3.5799
      vertex -22.495 -2.22737 3.74623
    endloop
  endfacet
  facet normal 0 -0.40674 0.913544
    outer loop
      vertex -22.495 -2.60095 3.5799
      vertex -52 -2.22737 3.74623
      vertex -52 -2.60095 3.5799
    endloop
  endfacet
  facet normal 0 -0.40674 0.913544
    outer loop
      vertex 52 -2.60095 3.5799
      vertex -21.505 -2.22737 3.74623
      vertex -21.505 -2.60095 3.5799
    endloop
  endfacet
  facet normal 0 0 -1
    outer loop
      vertex -52 -2.22051 -3.73678
      vertex 52 2.22051 -3.73678
      vertex 52 -2.22051 -3.73678
    endloop
  endfacet
  facet normal -0 0 -1
    outer loop
      vertex 52 2.22051 -3.73678
      vertex -52 -2.22051 -3.73678
      vertex -52 2.22051 -3.73678
    endloop
  endfacet
  facet normal 0 0 -1
    outer loop
      vertex -22.2933 -2.55605 -3.73678
      vertex -21.505 -2.22051 -3.73678
      vertex -21.7554 -2.6372 -3.73678
    endloop
  endfacet
  facet normal 0 0 -1
    outer loop
      vertex -22.2933 -2.55605 -3.73678
      vertex -21.7554 -2.6372 -3.73678
      vertex -22 -3.04421 -3.73678
    endloop
  endfacet
  facet normal 0 0 -1
    outer loop
      vertex -22.2933 -2.55605 -3.73678
      vertex -22.495 -2.22051 -3.73678
      vertex -21.505 -2.22051 -3.73678
    endloop
  endfacet
  facet normal 0 0 -1
    outer loop
      vertex -22.495 2.22051 -3.73678
      vertex -21.7067 2.55605 -3.73678
      vertex -21.505 2.22051 -3.73678
    endloop
  endfacet
  facet normal 0 0 -1
    outer loop
      vertex -21.7067 2.55605 -3.73678
      vertex -22.2446 2.6372 -3.73678
      vertex -22 3.04421 -3.73678
    endloop
  endfacet
  facet normal -0 0 -1
    outer loop
      vertex -21.7067 2.55605 -3.73678
      vertex -22.495 2.22051 -3.73678
      vertex -22.2446 2.6372 -3.73678
    endloop
  endfacet
  facet normal -1.48843e-05 0.884167 0.467172
    outer loop
      vertex -22.3986 4.20651 0.755199
      vertex -22.495 2.87458 3.276
      vertex -22.3013 3.23661 2.59083
    endloop
  endfacet
  facet normal 3.0527e-05 0.884168 0.46717
    outer loop
      vertex -22.3986 4.20651 0.755199
      vertex -22.3013 3.23661 2.59083
      vertex -22.1449 3.52899 2.03746
    endloop
  endfacet
  facet normal 1.18877e-05 0.884166 0.467172
    outer loop
      vertex -22.495 2.87458 3.276
      vertex -22.3986 4.20651 0.755199
      vertex -22.495 4.39419 0.4
    endloop
  endfacet
  facet normal 2.57811e-05 0.884168 0.467169
    outer loop
      vertex -22.495 4.39419 0.4
      vertex -22.3986 4.20651 0.755199
      vertex -22.4572 4.36323 0.458593
    endloop
  endfacet
  facet normal 0 0.884166 0.467172
    outer loop
      vertex -22.495 2.87458 3.276
      vertex -22.495 4.39419 0.4
      vertex -52 2.87458 3.276
    endloop
  endfacet
  facet normal 0 0.884166 0.467172
    outer loop
      vertex -52 2.87458 3.276
      vertex -22.495 4.39419 0.4
      vertex -52 4.39419 0.4
    endloop
  endfacet
  facet normal 0 0.884166 0.467172
    outer loop
      vertex -21.505 4.39419 0.4
      vertex -21.505 2.87458 3.276
      vertex 52 2.87458 3.276
    endloop
  endfacet
  facet normal -1.09413e-05 0.884166 0.467172
    outer loop
      vertex -21.505 2.87458 3.276
      vertex -21.7287 3.86665 1.39841
      vertex -21.8551 3.52899 2.03746
    endloop
  endfacet
  facet normal -1.54194e-05 0.884166 0.467172
    outer loop
      vertex -21.505 2.87458 3.276
      vertex -21.505 4.39419 0.4
      vertex -21.7287 3.86665 1.39841
    endloop
  endfacet
  facet normal 0.000285845 0.884142 0.467219
    outer loop
      vertex -21.7287 3.86665 1.39841
      vertex -21.5177 4.3838 0.419652
      vertex -21.5428 4.36323 0.458593
    endloop
  endfacet
  facet normal -0 0.884166 0.467172
    outer loop
      vertex -21.505 4.39419 0.4
      vertex 52 2.87458 3.276
      vertex 52 4.39419 0.4
    endloop
  endfacet
  facet normal -0.000668622 0.884226 0.467058
    outer loop
      vertex -21.7287 3.86665 1.39841
      vertex -21.505 4.39419 0.4
      vertex -21.5177 4.3838 0.419652
    endloop
  endfacet
  facet normal -0 0 1
    outer loop
      vertex -52 2.22737 3.74623
      vertex 52 -2.22737 3.74623
      vertex 52 2.22737 3.74623
    endloop
  endfacet
  facet normal 0 0 1
    outer loop
      vertex 52 -2.22737 3.74623
      vertex -52 2.22737 3.74623
      vertex -52 -2.22737 3.74623
    endloop
  endfacet
  facet normal 0 0 1
    outer loop
      vertex -21.505 -2.22737 3.74623
      vertex -22.4282 -2.388 3.74623
      vertex -21.7106 -2.72179 3.74623
    endloop
  endfacet
  facet normal 0 0 1
    outer loop
      vertex -21.7106 -2.72179 3.74623
      vertex -22.0655 -3.01641 3.74623
      vertex -22 -3.10269 3.74623
    endloop
  endfacet
  facet normal 0 0 1
    outer loop
      vertex -21.7106 -2.72179 3.74623
      vertex -22.2894 -2.72179 3.74623
      vertex -22.0655 -3.01641 3.74623
    endloop
  endfacet
  facet normal 0 0 1
    outer loop
      vertex -21.7106 -2.72179 3.74623
      vertex -22.4282 -2.388 3.74623
      vertex -22.2894 -2.72179 3.74623
    endloop
  endfacet
  facet normal -0 0 1
    outer loop
      vertex -22.495 -2.22737 3.74623
      vertex -22.4282 -2.388 3.74623
      vertex -21.505 -2.22737 3.74623
    endloop
  endfacet
  facet normal 0 0 1
    outer loop
      vertex -22.2894 2.72179 3.74623
      vertex -21.7106 2.72179 3.74623
      vertex -21.9345 3.01641 3.74623
    endloop
  endfacet
  facet normal 0 0 1
    outer loop
      vertex -21.7106 2.72179 3.74623
      vertex -22.2894 2.72179 3.74623
      vertex -21.5718 2.388 3.74623
    endloop
  endfacet
  facet normal 0 0 1
    outer loop
      vertex -22.2894 2.72179 3.74623
      vertex -21.9345 3.01641 3.74623
      vertex -22 3.10269 3.74623
    endloop
  endfacet
  facet normal 0 0 1
    outer loop
      vertex -22.495 2.22737 3.74623
      vertex -21.5718 2.388 3.74623
      vertex -22.2894 2.72179 3.74623
    endloop
  endfacet
  facet normal 0 0 1
    outer loop
      vertex -21.5718 2.388 3.74623
      vertex -22.495 2.22737 3.74623
      vertex -21.505 2.22737 3.74623
    endloop
  endfacet
  facet normal 3.01076e-05 0.893291 -0.449478
    outer loop
      vertex -22.1874 3.56758 -1.87566
      vertex -22.495 4.3101 -0.4
      vertex -22.3354 4.11174 -0.794209
    endloop
  endfacet
  facet normal -3.0999e-05 0.893288 -0.449485
    outer loop
      vertex -22.1874 3.56758 -1.87566
      vertex -22.3354 4.11174 -0.794209
      vertex -22.147 3.87744 -1.25986
    endloop
  endfacet
  facet normal 1.58653e-05 0.89329 -0.449481
    outer loop
      vertex -22.495 4.3101 -0.4
      vertex -22.1874 3.56758 -1.87566
      vertex -22.495 2.86772 -3.26656
    endloop
  endfacet
  facet normal -4.06983e-05 0.893295 -0.449471
    outer loop
      vertex -22.495 2.86772 -3.26656
      vertex -22.1874 3.56758 -1.87566
      vertex -22.2478 3.10474 -2.79552
    endloop
  endfacet
  facet normal 0 0.89329 -0.449481
    outer loop
      vertex -22.495 4.3101 -0.4
      vertex -22.495 2.86772 -3.26656
      vertex -52 4.3101 -0.4
    endloop
  endfacet
  facet normal 0 0.89329 -0.449481
    outer loop
      vertex -52 4.3101 -0.4
      vertex -22.495 2.86772 -3.26656
      vertex -52 2.86772 -3.26656
    endloop
  endfacet
  facet normal 0 0.89329 -0.449481
    outer loop
      vertex -21.505 2.86772 -3.26656
      vertex -21.505 4.3101 -0.4
      vertex 52 4.3101 -0.4
    endloop
  endfacet
  facet normal -1.41339e-05 0.89329 -0.449481
    outer loop
      vertex -21.7971 3.44857 -2.11218
      vertex -21.505 4.3101 -0.4
      vertex -21.505 2.86772 -3.26656
    endloop
  endfacet
  facet normal 8.77807e-06 0.893288 -0.449484
    outer loop
      vertex -21.505 4.3101 -0.4
      vertex -21.7971 3.44857 -2.11218
      vertex -21.853 3.87744 -1.25986
    endloop
  endfacet
  facet normal 7.16564e-05 0.893297 -0.449467
    outer loop
      vertex -21.7971 3.44857 -2.11218
      vertex -21.6012 2.95997 -3.08322
      vertex -21.7522 3.10474 -2.79552
    endloop
  endfacet
  facet normal 0 0.89329 -0.449481
    outer loop
      vertex -21.505 2.86772 -3.26656
      vertex 52 4.3101 -0.4
      vertex 52 2.86772 -3.26656
    endloop
  endfacet
  facet normal -2.30555e-05 0.893289 -0.449483
    outer loop
      vertex -21.7971 3.44857 -2.11218
      vertex -21.505 2.86772 -3.26656
      vertex -21.6012 2.95997 -3.08322
    endloop
  endfacet
  facet normal 1.48843e-05 -0.884167 0.467172
    outer loop
      vertex -21.6014 -4.20651 0.755199
      vertex -21.505 -2.87458 3.276
      vertex -21.6987 -3.23661 2.59083
    endloop
  endfacet
  facet normal -3.0527e-05 -0.884168 0.46717
    outer loop
      vertex -21.6014 -4.20651 0.755199
      vertex -21.6987 -3.23661 2.59083
      vertex -21.8551 -3.52899 2.03746
    endloop
  endfacet
  facet normal -1.18877e-05 -0.884166 0.467172
    outer loop
      vertex -21.505 -2.87458 3.276
      vertex -21.6014 -4.20651 0.755199
      vertex -21.505 -4.39419 0.4
    endloop
  endfacet
  facet normal -2.57811e-05 -0.884168 0.467169
    outer loop
      vertex -21.505 -4.39419 0.4
      vertex -21.6014 -4.20651 0.755199
      vertex -21.5428 -4.36323 0.458593
    endloop
  endfacet
  facet normal 0 -0.884166 0.467172
    outer loop
      vertex -21.505 -2.87458 3.276
      vertex -21.505 -4.39419 0.4
      vertex 52 -2.87458 3.276
    endloop
  endfacet
  facet normal 0 -0.884166 0.467172
    outer loop
      vertex 52 -2.87458 3.276
      vertex -21.505 -4.39419 0.4
      vertex 52 -4.39419 0.4
    endloop
  endfacet
  facet normal 0 -0.884166 0.467172
    outer loop
      vertex -22.495 -4.39419 0.4
      vertex -22.495 -2.87458 3.276
      vertex -52 -2.87458 3.276
    endloop
  endfacet
  facet normal 1.09413e-05 -0.884166 0.467172
    outer loop
      vertex -22.495 -2.87458 3.276
      vertex -22.2713 -3.86665 1.39841
      vertex -22.1449 -3.52899 2.03746
    endloop
  endfacet
  facet normal 1.54194e-05 -0.884166 0.467172
    outer loop
      vertex -22.495 -2.87458 3.276
      vertex -22.495 -4.39419 0.4
      vertex -22.2713 -3.86665 1.39841
    endloop
  endfacet
  facet normal -0.000285845 -0.884142 0.467219
    outer loop
      vertex -22.2713 -3.86665 1.39841
      vertex -22.4823 -4.3838 0.419652
      vertex -22.4572 -4.36323 0.458593
    endloop
  endfacet
  facet normal 0 -0.884166 0.467172
    outer loop
      vertex -22.495 -4.39419 0.4
      vertex -52 -2.87458 3.276
      vertex -52 -4.39419 0.4
    endloop
  endfacet
  facet normal 0.000668622 -0.884226 0.467058
    outer loop
      vertex -22.2713 -3.86665 1.39841
      vertex -22.495 -4.39419 0.4
      vertex -22.4823 -4.3838 0.419652
    endloop
  endfacet
  facet normal 0 -0.89329 -0.449481
    outer loop
      vertex -22.495 -2.86772 -3.26656
      vertex -22.495 -4.3101 -0.4
      vertex -52 -4.3101 -0.4
    endloop
  endfacet
  facet normal 1.41339e-05 -0.89329 -0.449481
    outer loop
      vertex -22.2029 -3.44857 -2.11218
      vertex -22.495 -4.3101 -0.4
      vertex -22.495 -2.86772 -3.26656
    endloop
  endfacet
  facet normal -8.77807e-06 -0.893288 -0.449484
    outer loop
      vertex -22.495 -4.3101 -0.4
      vertex -22.2029 -3.44857 -2.11218
      vertex -22.147 -3.87744 -1.25986
    endloop
  endfacet
  facet normal -7.16564e-05 -0.893297 -0.449467
    outer loop
      vertex -22.2029 -3.44857 -2.11218
      vertex -22.3988 -2.95997 -3.08322
      vertex -22.2478 -3.10474 -2.79552
    endloop
  endfacet
  facet normal -0 -0.89329 -0.449481
    outer loop
      vertex -22.495 -2.86772 -3.26656
      vertex -52 -4.3101 -0.4
      vertex -52 -2.86772 -3.26656
    endloop
  endfacet
  facet normal 2.30555e-05 -0.893289 -0.449483
    outer loop
      vertex -22.2029 -3.44857 -2.11218
      vertex -22.495 -2.86772 -3.26656
      vertex -22.3988 -2.95997 -3.08322
    endloop
  endfacet
  facet normal -3.01076e-05 -0.893291 -0.449478
    outer loop
      vertex -21.8126 -3.56758 -1.87566
      vertex -21.505 -4.3101 -0.4
      vertex -21.6646 -4.11174 -0.794209
    endloop
  endfacet
  facet normal 3.0999e-05 -0.893288 -0.449485
    outer loop
      vertex -21.8126 -3.56758 -1.87566
      vertex -21.6646 -4.11174 -0.794209
      vertex -21.853 -3.87744 -1.25986
    endloop
  endfacet
  facet normal -1.58653e-05 -0.89329 -0.449481
    outer loop
      vertex -21.505 -4.3101 -0.4
      vertex -21.8126 -3.56758 -1.87566
      vertex -21.505 -2.86772 -3.26656
    endloop
  endfacet
  facet normal 4.06983e-05 -0.893295 -0.449471
    outer loop
      vertex -21.505 -2.86772 -3.26656
      vertex -21.8126 -3.56758 -1.87566
      vertex -21.7522 -3.10474 -2.79552
    endloop
  endfacet
  facet normal 0 -0.89329 -0.449481
    outer loop
      vertex -21.505 -4.3101 -0.4
      vertex -21.505 -2.86772 -3.26656
      vertex 52 -4.3101 -0.4
    endloop
  endfacet
  facet normal 0 -0.89329 -0.449481
    outer loop
      vertex 52 -4.3101 -0.4
      vertex -21.505 -2.86772 -3.26656
      vertex 52 -2.86772 -3.26656
    endloop
  endfacet
  facet normal -0 0 1
    outer loop
      vertex -52 1.72967 -3.06121
      vertex 52 -1.72967 -3.06121
      vertex 52 1.72967 -3.06121
    endloop
  endfacet
  facet normal 0 0 1
    outer loop
      vertex 52 -1.72967 -3.06121
      vertex -52 1.72967 -3.06121
      vertex -52 -1.72967 -3.06121
    endloop
  endfacet
  facet normal 0 -0.884167 -0.467172
    outer loop
      vertex -52 3.56155 0.4
      vertex 52 2.39252 2.6125
      vertex -52 2.39252 2.6125
    endloop
  endfacet
  facet normal 0 -0.884167 -0.467172
    outer loop
      vertex 52 2.39252 2.6125
      vertex -52 3.56155 0.4
      vertex 52 3.56155 0.4
    endloop
  endfacet
  facet normal 0 0 -1
    outer loop
      vertex -52 -1.73529 3.06894
      vertex 52 1.73529 3.06894
      vertex 52 -1.73529 3.06894
    endloop
  endfacet
  facet normal -0 0 -1
    outer loop
      vertex 52 1.73529 3.06894
      vertex -52 -1.73529 3.06894
      vertex -52 1.73529 3.06894
    endloop
  endfacet
  facet normal 0 -0.893289 0.449483
    outer loop
      vertex -52 2.38584 -2.6033
      vertex 52 3.49449 -0.4
      vertex -52 3.49449 -0.4
    endloop
  endfacet
  facet normal 0 -0.893289 0.449483
    outer loop
      vertex 52 3.49449 -0.4
      vertex -52 2.38584 -2.6033
      vertex 52 2.38584 -2.6033
    endloop
  endfacet
  facet normal 0 0.884167 -0.467172
    outer loop
      vertex 52 -3.56155 0.4
      vertex -52 -2.39252 2.6125
      vertex 52 -2.39252 2.6125
    endloop
  endfacet
  facet normal 0 0.884167 -0.467172
    outer loop
      vertex -52 -2.39252 2.6125
      vertex 52 -3.56155 0.4
      vertex -52 -3.56155 0.4
    endloop
  endfacet
  facet normal 0 0.893289 0.449483
    outer loop
      vertex 52 -2.38584 -2.6033
      vertex -52 -3.49449 -0.4
      vertex 52 -3.49449 -0.4
    endloop
  endfacet
  facet normal 0 0.893289 0.449483
    outer loop
      vertex -52 -3.49449 -0.4
      vertex 52 -2.38584 -2.6033
      vertex -52 -2.38584 -2.6033
    endloop
  endfacet
  facet normal 0 0 -1
    outer loop
      vertex -52 -1.13453 -2.24207
      vertex 52 1.13453 -2.24207
      vertex 52 -1.13453 -2.24207
    endloop
  endfacet
  facet normal -0 0 -1
    outer loop
      vertex 52 1.13453 -2.24207
      vertex -52 -1.13453 -2.24207
      vertex -52 1.13453 -2.24207
    endloop
  endfacet
  facet normal 0 0.884167 0.467171
    outer loop
      vertex 52 2.55197 0.4
      vertex -52 1.80802 1.808
      vertex 52 1.80802 1.808
    endloop
  endfacet
  facet normal 0 0.884167 0.467171
    outer loop
      vertex -52 1.80802 1.808
      vertex 52 2.55197 0.4
      vertex -52 2.55197 0.4
    endloop
  endfacet
  facet normal -0 0 1
    outer loop
      vertex -52 1.13865 2.24774
      vertex 52 -1.13865 2.24774
      vertex 52 1.13865 2.24774
    endloop
  endfacet
  facet normal 0 0 1
    outer loop
      vertex 52 -1.13865 2.24774
      vertex -52 1.13865 2.24774
      vertex -52 -1.13865 2.24774
    endloop
  endfacet
  facet normal 0 0.893289 -0.449483
    outer loop
      vertex 52 1.80155 -1.79911
      vertex -52 2.50555 -0.4
      vertex 52 2.50555 -0.4
    endloop
  endfacet
  facet normal 0 0.893289 -0.449483
    outer loop
      vertex -52 2.50555 -0.4
      vertex 52 1.80155 -1.79911
      vertex -52 1.80155 -1.79911
    endloop
  endfacet
  facet normal 0 -0.884167 0.467171
    outer loop
      vertex -52 -2.55197 0.4
      vertex 52 -1.80802 1.808
      vertex -52 -1.80802 1.808
    endloop
  endfacet
  facet normal 0 -0.884167 0.467171
    outer loop
      vertex 52 -1.80802 1.808
      vertex -52 -2.55197 0.4
      vertex 52 -2.55197 0.4
    endloop
  endfacet
  facet normal 0 -0.893289 -0.449483
    outer loop
      vertex -52 -1.80155 -1.79911
      vertex 52 -2.50555 -0.4
      vertex -52 -2.50555 -0.4
    endloop
  endfacet
  facet normal 0 -0.893289 -0.449483
    outer loop
      vertex 52 -2.50555 -0.4
      vertex -52 -1.80155 -1.79911
      vertex 52 -1.80155 -1.79911
    endloop
  endfacet
  facet normal -0 0 1
    outer loop
      vertex -52 0.766406 -1.73539
      vertex 52 -0.766406 -1.73539
      vertex 52 0.766406 -1.73539
    endloop
  endfacet
  facet normal 0 0 1
    outer loop
      vertex 52 -0.766406 -1.73539
      vertex -52 0.766406 -1.73539
      vertex -52 -0.766406 -1.73539
    endloop
  endfacet
  facet normal 0 -0.884167 -0.46717
    outer loop
      vertex -52 1.92749 0.4
      vertex 52 1.44647 1.31038
      vertex -52 1.44647 1.31038
    endloop
  endfacet
  facet normal 0 -0.884167 -0.46717
    outer loop
      vertex 52 1.44647 1.31038
      vertex -52 1.92749 0.4
      vertex 52 1.92749 0.4
    endloop
  endfacet
  facet normal 0 0 -1
    outer loop
      vertex -52 -0.769593 1.73977
      vertex 52 0.769593 1.73977
      vertex 52 -0.769593 1.73977
    endloop
  endfacet
  facet normal -0 0 -1
    outer loop
      vertex 52 0.769593 1.73977
      vertex -52 -0.769593 1.73977
      vertex -52 0.769593 1.73977
    endloop
  endfacet
  facet normal 0 -0.893289 0.449483
    outer loop
      vertex -52 1.44014 -1.30167
      vertex 52 1.89384 -0.4
      vertex -52 1.89384 -0.4
    endloop
  endfacet
  facet normal 0 -0.893289 0.449483
    outer loop
      vertex 52 1.89384 -0.4
      vertex -52 1.44014 -1.30167
      vertex 52 1.44014 -1.30167
    endloop
  endfacet
  facet normal 0 0.884167 -0.46717
    outer loop
      vertex 52 -1.92749 0.4
      vertex -52 -1.44647 1.31038
      vertex 52 -1.44647 1.31038
    endloop
  endfacet
  facet normal 0 0.884167 -0.46717
    outer loop
      vertex -52 -1.44647 1.31038
      vertex 52 -1.92749 0.4
      vertex -52 -1.92749 0.4
    endloop
  endfacet
  facet normal 0 0.893289 0.449483
    outer loop
      vertex 52 -1.44014 -1.30167
      vertex -52 -1.89384 -0.4
      vertex 52 -1.89384 -0.4
    endloop
  endfacet
  facet normal 0 0.893289 0.449483
    outer loop
      vertex -52 -1.89384 -0.4
      vertex 52 -1.44014 -1.30167
      vertex -52 -1.44014 -1.30167
    endloop
  endfacet
  facet normal -0.699304 -0.420161 -0.578306
    outer loop
      vertex -22 -3.04421 -3.73678
      vertex -22 -3.65625 -3.29211
      vertex -22.2933 -2.55605 -3.73678
    endloop
  endfacet
  facet normal -0.699131 -0.420262 -0.578443
    outer loop
      vertex -22.2933 -2.55605 -3.73678
      vertex -22.495 -3.28842 -2.9609
      vertex -22.495 -2.22051 -3.73678
    endloop
  endfacet
  facet normal -0.699231 -0.420174 -0.578385
    outer loop
      vertex -22.495 -3.28842 -2.9609
      vertex -22.2933 -2.55605 -3.73678
      vertex -22 -3.65625 -3.29211
    endloop
  endfacet
  facet normal 0.699246 -0.420196 -0.578351
    outer loop
      vertex -21.505 -2.22051 -3.73678
      vertex -21.505 -3.28842 -2.9609
      vertex -21.7554 -2.6372 -3.73678
    endloop
  endfacet
  facet normal 0.699228 -0.420214 -0.57836
    outer loop
      vertex -21.505 -3.28842 -2.9609
      vertex -22 -3.04421 -3.73678
      vertex -21.7554 -2.6372 -3.73678
    endloop
  endfacet
  facet normal 0.699235 -0.420201 -0.578361
    outer loop
      vertex -22 -3.04421 -3.73678
      vertex -21.505 -3.28842 -2.9609
      vertex -22 -3.65625 -3.29211
    endloop
  endfacet
  facet normal 0.699196 0.420228 0.578388
    outer loop
      vertex -21.505 -3.28842 -2.9609
      vertex -21.505 -2.86772 -3.26656
      vertex -21.7522 -3.10474 -2.79552
    endloop
  endfacet
  facet normal -1 0 0
    outer loop
      vertex -21.505 -2.86772 -3.26656
      vertex -21.505 -3.28842 -2.9609
      vertex -21.505 -2.22051 -3.73678
    endloop
  endfacet
  facet normal -0.699265 0.420189 0.578334
    outer loop
      vertex -22.495 -2.86772 -3.26656
      vertex -22.495 -3.28842 -2.9609
      vertex -22.3988 -2.95997 -3.08322
    endloop
  endfacet
  facet normal 1 0 0
    outer loop
      vertex -22.495 -3.28842 -2.9609
      vertex -22.495 -2.86772 -3.26656
      vertex -22.495 -2.22051 -3.73678
    endloop
  endfacet
  facet normal -0.699192 0.420198 0.578415
    outer loop
      vertex -22.2478 -3.10474 -2.79552
      vertex -22.3988 -2.95997 -3.08322
      vertex -22.495 -3.28842 -2.9609
    endloop
  endfacet
  facet normal -0.699232 -0.619117 -0.357447
    outer loop
      vertex -22 -3.65625 -3.29211
      vertex -22 -4.67917 -1.52036
      vertex -22.495 -3.28842 -2.9609
    endloop
  endfacet
  facet normal -0.699237 -0.619114 -0.357443
    outer loop
      vertex -22.495 -3.28842 -2.9609
      vertex -22 -4.67917 -1.52036
      vertex -22.495 -4.20842 -1.3674
    endloop
  endfacet
  facet normal 0.699232 -0.619118 -0.357445
    outer loop
      vertex -21.505 -3.28842 -2.9609
      vertex -21.505 -4.20842 -1.3674
      vertex -22 -3.65625 -3.29211
    endloop
  endfacet
  facet normal 0.699237 -0.619113 -0.357445
    outer loop
      vertex -22 -3.65625 -3.29211
      vertex -21.505 -4.20842 -1.3674
      vertex -22 -4.67917 -1.52036
    endloop
  endfacet
  facet normal 0.699197 0.619157 0.357448
    outer loop
      vertex -21.505 -3.28842 -2.9609
      vertex -21.7522 -3.10474 -2.79552
      vertex -21.8126 -3.56758 -1.87566
    endloop
  endfacet
  facet normal 0.699269 0.619104 0.357398
    outer loop
      vertex -21.505 -4.20842 -1.3674
      vertex -21.8126 -3.56758 -1.87566
      vertex -21.853 -3.87744 -1.25986
    endloop
  endfacet
  facet normal 0.699227 0.619123 0.357448
    outer loop
      vertex -21.8126 -3.56758 -1.87566
      vertex -21.505 -4.20842 -1.3674
      vertex -21.505 -3.28842 -2.9609
    endloop
  endfacet
  facet normal -0.6992 0.619141 0.35747
    outer loop
      vertex -22.495 -3.28842 -2.9609
      vertex -22.2029 -3.44857 -2.11218
      vertex -22.2478 -3.10474 -2.79552
    endloop
  endfacet
  facet normal -0.699185 0.619158 0.357468
    outer loop
      vertex -22.2029 -3.44857 -2.11218
      vertex -22.495 -3.28842 -2.9609
      vertex -22.495 -4.20842 -1.3674
    endloop
  endfacet
  facet normal -0.69927 0.61911 0.357385
    outer loop
      vertex -22.147 -3.87744 -1.25986
      vertex -22.2029 -3.44857 -2.11218
      vertex -22.495 -4.20842 -1.3674
    endloop
  endfacet
  facet normal -0.699236 -0.710975 -0.0747268
    outer loop
      vertex -22 -4.67917 -1.52036
      vertex -22 -4.89302 0.514277
      vertex -22.495 -4.20842 -1.3674
    endloop
  endfacet
  facet normal -0.699236 -0.710978 -0.0746926
    outer loop
      vertex -22.495 -4.39419 0.4
      vertex -22 -4.89302 0.514277
      vertex -22.495 -4.40076 0.462538
    endloop
  endfacet
  facet normal -0.699229 -0.710981 -0.074733
    outer loop
      vertex -22.495 -4.3101 -0.4
      vertex -22 -4.89302 0.514277
      vertex -22.495 -4.39419 0.4
    endloop
  endfacet
  facet normal -0.699233 -0.710977 -0.0747283
    outer loop
      vertex -22 -4.89302 0.514277
      vertex -22.495 -4.3101 -0.4
      vertex -22.495 -4.20842 -1.3674
    endloop
  endfacet
  facet normal 0.699163 -0.711049 -0.0747001
    outer loop
      vertex -22 -4.67917 -1.52036
      vertex -21.505 -4.39419 0.4
      vertex -21.505 -4.40076 0.462538
    endloop
  endfacet
  facet normal 0.699241 -0.71097 -0.0747318
    outer loop
      vertex -21.505 -4.39419 0.4
      vertex -22 -4.67917 -1.52036
      vertex -21.505 -4.3101 -0.4
    endloop
  endfacet
  facet normal 0.699236 -0.710975 -0.074728
    outer loop
      vertex -21.505 -4.3101 -0.4
      vertex -22 -4.67917 -1.52036
      vertex -21.505 -4.20842 -1.3674
    endloop
  endfacet
  facet normal 0.699232 -0.710978 -0.0747272
    outer loop
      vertex -22 -4.67917 -1.52036
      vertex -21.505 -4.40076 0.462538
      vertex -22 -4.89302 0.514277
    endloop
  endfacet
  facet normal 0.699274 0.710931 0.074794
    outer loop
      vertex -21.6646 -4.11174 -0.794209
      vertex -21.505 -4.20842 -1.3674
      vertex -21.853 -3.87744 -1.25986
    endloop
  endfacet
  facet normal 0.699148 0.711061 0.0747371
    outer loop
      vertex -21.505 -4.3101 -0.4
      vertex -21.505 -4.20842 -1.3674
      vertex -21.6646 -4.11174 -0.794209
    endloop
  endfacet
  facet normal 0.698657 0.711541 0.0747517
    outer loop
      vertex -21.505 -4.40076 0.462538
      vertex -21.505 -4.39419 0.4
      vertex -21.5428 -4.36323 0.458593
    endloop
  endfacet
  facet normal -0.699266 0.710945 0.0747249
    outer loop
      vertex -22.495 -4.3101 -0.4
      vertex -22.147 -3.87744 -1.25986
      vertex -22.495 -4.20842 -1.3674
    endloop
  endfacet
  facet normal -0.698213 0.711972 0.074797
    outer loop
      vertex -22.495 -4.40076 0.462538
      vertex -22.4823 -4.3838 0.419652
      vertex -22.495 -4.39419 0.4
    endloop
  endfacet
  facet normal -0.698685 0.711541 0.0744868
    outer loop
      vertex -22.4572 -4.36323 0.458593
      vertex -22.4823 -4.3838 0.419652
      vertex -22.495 -4.40076 0.462538
    endloop
  endfacet
  facet normal -0.699232 -0.679905 0.220914
    outer loop
      vertex -22 -4.89302 0.514277
      vertex -22 -4.26082 2.45999
      vertex -22.495 -4.40076 0.462538
    endloop
  endfacet
  facet normal -0.699235 -0.679902 0.220915
    outer loop
      vertex -22 -4.26082 2.45999
      vertex -22.495 -3.83216 2.2125
      vertex -22.495 -4.40076 0.462538
    endloop
  endfacet
  facet normal 0.699232 -0.679905 0.220916
    outer loop
      vertex -21.505 -4.40076 0.462538
      vertex -21.505 -3.83216 2.2125
      vertex -22 -4.89302 0.514277
    endloop
  endfacet
  facet normal 0.699235 -0.679903 0.220914
    outer loop
      vertex -21.505 -3.83216 2.2125
      vertex -22 -4.26082 2.45999
      vertex -22 -4.89302 0.514277
    endloop
  endfacet
  facet normal 0.698615 0.680361 -0.221464
    outer loop
      vertex -21.505 -4.40076 0.462538
      vertex -21.5428 -4.36323 0.458593
      vertex -21.6014 -4.20651 0.755199
    endloop
  endfacet
  facet normal 0.699223 0.679916 -0.22091
    outer loop
      vertex -21.505 -3.83216 2.2125
      vertex -21.6014 -4.20651 0.755199
      vertex -21.8551 -3.52899 2.03746
    endloop
  endfacet
  facet normal 0.699297 0.679845 -0.220896
    outer loop
      vertex -21.6014 -4.20651 0.755199
      vertex -21.505 -3.83216 2.2125
      vertex -21.505 -4.40076 0.462538
    endloop
  endfacet
  facet normal -0.698631 0.680393 -0.221314
    outer loop
      vertex -22.495 -4.40076 0.462538
      vertex -22.2713 -3.86665 1.39841
      vertex -22.4572 -4.36323 0.458593
    endloop
  endfacet
  facet normal -0.69918 0.679954 -0.220931
    outer loop
      vertex -22.2713 -3.86665 1.39841
      vertex -22.495 -4.40076 0.462538
      vertex -22.495 -3.83216 2.2125
    endloop
  endfacet
  facet normal -0.699227 0.679901 -0.220942
    outer loop
      vertex -22.1449 -3.52899 2.03746
      vertex -22.2713 -3.86665 1.39841
      vertex -22.495 -3.83216 2.2125
    endloop
  endfacet
  facet normal -0.699469 -0.531006 0.478305
    outer loop
      vertex -22.495 -3.83216 2.2125
      vertex -22 -3.10269 3.74623
      vertex -22.0655 -3.01641 3.74623
    endloop
  endfacet
  facet normal -0.699236 -0.531269 0.478354
    outer loop
      vertex -22 -3.10269 3.74623
      vertex -22.495 -3.83216 2.2125
      vertex -22 -4.26082 2.45999
    endloop
  endfacet
  facet normal -0.699236 -0.53127 0.478352
    outer loop
      vertex -22.495 -2.87458 3.276
      vertex -22.2894 -2.72179 3.74623
      vertex -22.495 -2.60095 3.5799
    endloop
  endfacet
  facet normal -0.699177 -0.531348 0.478352
    outer loop
      vertex -22.495 -2.87458 3.276
      vertex -22.0655 -3.01641 3.74623
      vertex -22.2894 -2.72179 3.74623
    endloop
  endfacet
  facet normal -0.699194 -0.531298 0.478383
    outer loop
      vertex -22.0655 -3.01641 3.74623
      vertex -22.495 -2.87458 3.276
      vertex -22.495 -3.83216 2.2125
    endloop
  endfacet
  facet normal 0.699235 -0.531268 0.478356
    outer loop
      vertex -21.505 -2.87458 3.276
      vertex -22 -4.26082 2.45999
      vertex -21.505 -3.83216 2.2125
    endloop
  endfacet
  facet normal 0.699241 -0.531266 0.478349
    outer loop
      vertex -22 -4.26082 2.45999
      vertex -21.505 -2.87458 3.276
      vertex -21.505 -2.60095 3.5799
    endloop
  endfacet
  facet normal 0.699237 -0.531266 0.478356
    outer loop
      vertex -22 -3.10269 3.74623
      vertex -21.505 -2.60095 3.5799
      vertex -21.7106 -2.72179 3.74623
    endloop
  endfacet
  facet normal 0.699238 -0.531267 0.478353
    outer loop
      vertex -21.505 -2.60095 3.5799
      vertex -22 -3.10269 3.74623
      vertex -22 -4.26082 2.45999
    endloop
  endfacet
  facet normal 0.699229 0.531291 -0.478339
    outer loop
      vertex -21.6987 -3.23661 2.59083
      vertex -21.505 -3.83216 2.2125
      vertex -21.8551 -3.52899 2.03746
    endloop
  endfacet
  facet normal 0.699178 0.531309 -0.478393
    outer loop
      vertex -21.6987 -3.23661 2.59083
      vertex -21.505 -2.87458 3.276
      vertex -21.505 -3.83216 2.2125
    endloop
  endfacet
  facet normal -0.699226 0.531275 -0.478362
    outer loop
      vertex -22.495 -3.83216 2.2125
      vertex -22.495 -2.87458 3.276
      vertex -22.1449 -3.52899 2.03746
    endloop
  endfacet
  facet normal -0.69924 -0.290765 0.653085
    outer loop
      vertex -22.2894 -2.72179 3.74623
      vertex -22.4282 -2.388 3.74623
      vertex -22.495 -2.60095 3.5799
    endloop
  endfacet
  facet normal -0.699222 -0.29078 0.653097
    outer loop
      vertex -22.4282 -2.388 3.74623
      vertex -22.495 -2.22737 3.74623
      vertex -22.495 -2.60095 3.5799
    endloop
  endfacet
  facet normal 0.69924 -0.290773 0.65308
    outer loop
      vertex -21.505 -2.60095 3.5799
      vertex -21.505 -2.22737 3.74623
      vertex -21.7106 -2.72179 3.74623
    endloop
  endfacet
  facet normal -0.69924 0.290773 0.65308
    outer loop
      vertex -22.2894 2.72179 3.74623
      vertex -22.495 2.60095 3.5799
      vertex -22.495 2.22737 3.74623
    endloop
  endfacet
  facet normal 0.699222 0.29078 0.653097
    outer loop
      vertex -21.505 2.22737 3.74623
      vertex -21.505 2.60095 3.5799
      vertex -21.5718 2.388 3.74623
    endloop
  endfacet
  facet normal 0.69924 0.290765 0.653085
    outer loop
      vertex -21.5718 2.388 3.74623
      vertex -21.505 2.60095 3.5799
      vertex -21.7106 2.72179 3.74623
    endloop
  endfacet
  facet normal -0.699238 0.531267 0.478353
    outer loop
      vertex -22.495 2.60095 3.5799
      vertex -22 3.10269 3.74623
      vertex -22 4.26082 2.45999
    endloop
  endfacet
  facet normal -0.699237 0.531266 0.478356
    outer loop
      vertex -22 3.10269 3.74623
      vertex -22.495 2.60095 3.5799
      vertex -22.2894 2.72179 3.74623
    endloop
  endfacet
  facet normal -0.699235 0.531268 0.478356
    outer loop
      vertex -22.495 2.87458 3.276
      vertex -22 4.26082 2.45999
      vertex -22.495 3.83216 2.2125
    endloop
  endfacet
  facet normal -0.699241 0.531266 0.478349
    outer loop
      vertex -22 4.26082 2.45999
      vertex -22.495 2.87458 3.276
      vertex -22.495 2.60095 3.5799
    endloop
  endfacet
  facet normal 0.699194 0.531298 0.478383
    outer loop
      vertex -21.9345 3.01641 3.74623
      vertex -21.505 2.87458 3.276
      vertex -21.505 3.83216 2.2125
    endloop
  endfacet
  facet normal 0.699177 0.531348 0.478352
    outer loop
      vertex -21.7106 2.72179 3.74623
      vertex -21.505 2.87458 3.276
      vertex -21.9345 3.01641 3.74623
    endloop
  endfacet
  facet normal 0.699236 0.53127 0.478352
    outer loop
      vertex -21.505 2.87458 3.276
      vertex -21.7106 2.72179 3.74623
      vertex -21.505 2.60095 3.5799
    endloop
  endfacet
  facet normal 0.699236 0.531269 0.478354
    outer loop
      vertex -22 3.10269 3.74623
      vertex -21.505 3.83216 2.2125
      vertex -22 4.26082 2.45999
    endloop
  endfacet
  facet normal 0.699469 0.531006 0.478305
    outer loop
      vertex -21.505 3.83216 2.2125
      vertex -22 3.10269 3.74623
      vertex -21.9345 3.01641 3.74623
    endloop
  endfacet
  facet normal 0.699226 -0.531275 -0.478362
    outer loop
      vertex -21.505 3.83216 2.2125
      vertex -21.505 2.87458 3.276
      vertex -21.8551 3.52899 2.03746
    endloop
  endfacet
  facet normal -0.699178 -0.531309 -0.478393
    outer loop
      vertex -22.3013 3.23661 2.59083
      vertex -22.495 2.87458 3.276
      vertex -22.495 3.83216 2.2125
    endloop
  endfacet
  facet normal -0.699229 -0.531291 -0.478339
    outer loop
      vertex -22.1449 3.52899 2.03746
      vertex -22.3013 3.23661 2.59083
      vertex -22.495 3.83216 2.2125
    endloop
  endfacet
  facet normal -0.699235 0.679903 0.220914
    outer loop
      vertex -22 4.26082 2.45999
      vertex -22 4.89302 0.514277
      vertex -22.495 3.83216 2.2125
    endloop
  endfacet
  facet normal -0.699232 0.679905 0.220916
    outer loop
      vertex -22 4.89302 0.514277
      vertex -22.495 4.40076 0.462538
      vertex -22.495 3.83216 2.2125
    endloop
  endfacet
  facet normal 0.699235 0.679902 0.220915
    outer loop
      vertex -21.505 3.83216 2.2125
      vertex -21.505 4.40076 0.462538
      vertex -22 4.26082 2.45999
    endloop
  endfacet
  facet normal 0.699232 0.679905 0.220914
    outer loop
      vertex -21.505 4.40076 0.462538
      vertex -22 4.89302 0.514277
      vertex -22 4.26082 2.45999
    endloop
  endfacet
  facet normal 0.699227 -0.679901 -0.220942
    outer loop
      vertex -21.7287 3.86665 1.39841
      vertex -21.505 3.83216 2.2125
      vertex -21.8551 3.52899 2.03746
    endloop
  endfacet
  facet normal 0.698631 -0.680393 -0.221314
    outer loop
      vertex -21.505 4.40076 0.462538
      vertex -21.7287 3.86665 1.39841
      vertex -21.5428 4.36323 0.458593
    endloop
  endfacet
  facet normal 0.69918 -0.679954 -0.220931
    outer loop
      vertex -21.7287 3.86665 1.39841
      vertex -21.505 4.40076 0.462538
      vertex -21.505 3.83216 2.2125
    endloop
  endfacet
  facet normal -0.699297 -0.679845 -0.220896
    outer loop
      vertex -22.3986 4.20651 0.755199
      vertex -22.495 3.83216 2.2125
      vertex -22.495 4.40076 0.462538
    endloop
  endfacet
  facet normal -0.699223 -0.679916 -0.22091
    outer loop
      vertex -22.495 3.83216 2.2125
      vertex -22.3986 4.20651 0.755199
      vertex -22.1449 3.52899 2.03746
    endloop
  endfacet
  facet normal -0.698615 -0.680361 -0.221464
    outer loop
      vertex -22.4572 4.36323 0.458593
      vertex -22.3986 4.20651 0.755199
      vertex -22.495 4.40076 0.462538
    endloop
  endfacet
  facet normal -0.699232 0.710978 -0.0747272
    outer loop
      vertex -22 4.89302 0.514277
      vertex -22 4.67917 -1.52036
      vertex -22.495 4.40076 0.462538
    endloop
  endfacet
  facet normal -0.699163 0.711049 -0.0747001
    outer loop
      vertex -22 4.67917 -1.52036
      vertex -22.495 4.39419 0.4
      vertex -22.495 4.40076 0.462538
    endloop
  endfacet
  facet normal -0.699241 0.71097 -0.0747318
    outer loop
      vertex -22.495 4.39419 0.4
      vertex -22 4.67917 -1.52036
      vertex -22.495 4.3101 -0.4
    endloop
  endfacet
  facet normal -0.699236 0.710975 -0.074728
    outer loop
      vertex -22.495 4.3101 -0.4
      vertex -22 4.67917 -1.52036
      vertex -22.495 4.20842 -1.3674
    endloop
  endfacet
  facet normal 0.699236 0.710978 -0.0746926
    outer loop
      vertex -21.505 4.39419 0.4
      vertex -22 4.89302 0.514277
      vertex -21.505 4.40076 0.462538
    endloop
  endfacet
  facet normal 0.699229 0.710981 -0.074733
    outer loop
      vertex -21.505 4.3101 -0.4
      vertex -22 4.89302 0.514277
      vertex -21.505 4.39419 0.4
    endloop
  endfacet
  facet normal 0.699233 0.710977 -0.0747283
    outer loop
      vertex -22 4.89302 0.514277
      vertex -21.505 4.3101 -0.4
      vertex -21.505 4.20842 -1.3674
    endloop
  endfacet
  facet normal 0.699236 0.710975 -0.0747268
    outer loop
      vertex -22 4.89302 0.514277
      vertex -21.505 4.20842 -1.3674
      vertex -22 4.67917 -1.52036
    endloop
  endfacet
  facet normal 0.698685 -0.711541 0.0744868
    outer loop
      vertex -21.5177 4.3838 0.419652
      vertex -21.505 4.40076 0.462538
      vertex -21.5428 4.36323 0.458593
    endloop
  endfacet
  facet normal 0.698213 -0.711972 0.074797
    outer loop
      vertex -21.505 4.40076 0.462538
      vertex -21.5177 4.3838 0.419652
      vertex -21.505 4.39419 0.4
    endloop
  endfacet
  facet normal 0.699266 -0.710945 0.0747249
    outer loop
      vertex -21.505 4.3101 -0.4
      vertex -21.853 3.87744 -1.25986
      vertex -21.505 4.20842 -1.3674
    endloop
  endfacet
  facet normal -0.698657 -0.711541 0.0747517
    outer loop
      vertex -22.495 4.40076 0.462538
      vertex -22.495 4.39419 0.4
      vertex -22.4572 4.36323 0.458593
    endloop
  endfacet
  facet normal -0.699148 -0.711061 0.0747371
    outer loop
      vertex -22.495 4.3101 -0.4
      vertex -22.495 4.20842 -1.3674
      vertex -22.3354 4.11174 -0.794209
    endloop
  endfacet
  facet normal -0.699274 -0.710931 0.074794
    outer loop
      vertex -22.147 3.87744 -1.25986
      vertex -22.3354 4.11174 -0.794209
      vertex -22.495 4.20842 -1.3674
    endloop
  endfacet
  facet normal -0.699237 0.619113 -0.357445
    outer loop
      vertex -22 4.67917 -1.52036
      vertex -22 3.65625 -3.29211
      vertex -22.495 4.20842 -1.3674
    endloop
  endfacet
  facet normal -0.699232 0.619118 -0.357445
    outer loop
      vertex -22.495 4.20842 -1.3674
      vertex -22 3.65625 -3.29211
      vertex -22.495 3.28842 -2.9609
    endloop
  endfacet
  facet normal 0.699237 0.619114 -0.357443
    outer loop
      vertex -21.505 4.20842 -1.3674
      vertex -21.505 3.28842 -2.9609
      vertex -22 4.67917 -1.52036
    endloop
  endfacet
  facet normal 0.699232 0.619117 -0.357447
    outer loop
      vertex -22 4.67917 -1.52036
      vertex -21.505 3.28842 -2.9609
      vertex -22 3.65625 -3.29211
    endloop
  endfacet
  facet normal 0.69927 -0.61911 0.357385
    outer loop
      vertex -21.7971 3.44857 -2.11218
      vertex -21.505 4.20842 -1.3674
      vertex -21.853 3.87744 -1.25986
    endloop
  endfacet
  facet normal 0.699185 -0.619158 0.357468
    outer loop
      vertex -21.7971 3.44857 -2.11218
      vertex -21.505 3.28842 -2.9609
      vertex -21.505 4.20842 -1.3674
    endloop
  endfacet
  facet normal 0.6992 -0.619141 0.35747
    outer loop
      vertex -21.505 3.28842 -2.9609
      vertex -21.7971 3.44857 -2.11218
      vertex -21.7522 3.10474 -2.79552
    endloop
  endfacet
  facet normal -0.699269 -0.619104 0.357398
    outer loop
      vertex -22.495 4.20842 -1.3674
      vertex -22.1874 3.56758 -1.87566
      vertex -22.147 3.87744 -1.25986
    endloop
  endfacet
  facet normal -0.699227 -0.619123 0.357448
    outer loop
      vertex -22.1874 3.56758 -1.87566
      vertex -22.495 4.20842 -1.3674
      vertex -22.495 3.28842 -2.9609
    endloop
  endfacet
  facet normal -0.699197 -0.619157 0.357448
    outer loop
      vertex -22.2478 3.10474 -2.79552
      vertex -22.1874 3.56758 -1.87566
      vertex -22.495 3.28842 -2.9609
    endloop
  endfacet
  facet normal -0.699235 0.420201 -0.578361
    outer loop
      vertex -22 3.04421 -3.73678
      vertex -22.495 3.28842 -2.9609
      vertex -22 3.65625 -3.29211
    endloop
  endfacet
  facet normal -0.699228 0.420214 -0.57836
    outer loop
      vertex -22.495 3.28842 -2.9609
      vertex -22 3.04421 -3.73678
      vertex -22.2446 2.6372 -3.73678
    endloop
  endfacet
  facet normal -0.699246 0.420196 -0.578351
    outer loop
      vertex -22.495 3.28842 -2.9609
      vertex -22.2446 2.6372 -3.73678
      vertex -22.495 2.22051 -3.73678
    endloop
  endfacet
  facet normal 0.699231 0.420174 -0.578385
    outer loop
      vertex -21.505 3.28842 -2.9609
      vertex -21.7067 2.55605 -3.73678
      vertex -22 3.65625 -3.29211
    endloop
  endfacet
  facet normal 0.699131 0.420262 -0.578443
    outer loop
      vertex -21.7067 2.55605 -3.73678
      vertex -21.505 3.28842 -2.9609
      vertex -21.505 2.22051 -3.73678
    endloop
  endfacet
  facet normal 0.699304 0.420161 -0.578306
    outer loop
      vertex -22 3.65625 -3.29211
      vertex -21.7067 2.55605 -3.73678
      vertex -22 3.04421 -3.73678
    endloop
  endfacet
  facet normal 0.699192 -0.420198 0.578415
    outer loop
      vertex -21.6012 2.95997 -3.08322
      vertex -21.505 3.28842 -2.9609
      vertex -21.7522 3.10474 -2.79552
    endloop
  endfacet
  facet normal 0.699265 -0.420189 0.578334
    outer loop
      vertex -21.6012 2.95997 -3.08322
      vertex -21.505 2.86772 -3.26656
      vertex -21.505 3.28842 -2.9609
    endloop
  endfacet
  facet normal -1 -0 0
    outer loop
      vertex -21.505 2.86772 -3.26656
      vertex -21.505 2.22051 -3.73678
      vertex -21.505 3.28842 -2.9609
    endloop
  endfacet
  facet normal 1 0 0
    outer loop
      vertex -22.495 2.22051 -3.73678
      vertex -22.495 2.86772 -3.26656
      vertex -22.495 3.28842 -2.9609
    endloop
  endfacet
  facet normal -0.699196 -0.420228 0.578388
    outer loop
      vertex -22.495 3.28842 -2.9609
      vertex -22.495 2.86772 -3.26656
      vertex -22.2478 3.10474 -2.79552
    endloop
  endfacet
endsolid OpenSCAD_Model
