solid OpenSCAD_Model
  facet normal -1 0 0
    outer loop
      vertex -37 -2.78148 -3.14785
      vertex -37 -2.2988 -2.48351
      vertex -37 -2.78148 -3.14786
    endloop
  endfacet
  facet normal -1 0 0
    outer loop
      vertex -37 -4.16257 -0.4
      vertex -37 -2.2988 -2.48351
      vertex -37 -2.78148 -3.14785
    endloop
  endfacet
  facet normal -1 0 0
    outer loop
      vertex -37 -3.34599 -0.4
      vertex -37 -4.16257 -0.4
      vertex -37 -3.41228 0.4
    endloop
  endfacet
  facet normal -1 0 0
    outer loop
      vertex -37 -2.2988 -2.48351
      vertex -37 -4.16257 -0.4
      vertex -37 -3.34599 -0.4
    endloop
  endfacet
  facet normal -1 0 0
    outer loop
      vertex -37 -1.80469 -0.4
      vertex -37 -0.785044 0.4
      vertex -37 -0.785044 -0.4
    endloop
  endfacet
  facet normal -1 -0 0
    outer loop
      vertex -37 -0.785044 0.4
      vertex -37 -1.80469 -0.4
      vertex -37 -1.83739 0.4
    endloop
  endfacet
  facet normal -1 0 0
    outer loop
      vertex -37 2.41713 -0.4
      vertex -37 1.80469 -0.4
      vertex -37 1.83739 0.4
    endloop
  endfacet
  facet normal -1 0 0
    outer loop
      vertex -37 1.38775 -1.22955
      vertex -37 2.41713 -0.4
      vertex -37 1.74976 -1.72781
    endloop
  endfacet
  facet normal -1 0 0
    outer loop
      vertex -37 1.08279 -2.17085
      vertex -37 1.74976 -1.72781
      vertex -37 1.64235 -2.94102
    endloop
  endfacet
  facet normal -1 -0 0
    outer loop
      vertex -37 2.41713 -0.4
      vertex -37 1.38775 -1.22955
      vertex -37 1.80469 -0.4
    endloop
  endfacet
  facet normal -1 -0 0
    outer loop
      vertex -37 1.74976 -1.72781
      vertex -37 1.08279 -2.17085
      vertex -37 1.38775 -1.22955
    endloop
  endfacet
  facet normal -1 0 0
    outer loop
      vertex -37 0.713848 -1.66305
      vertex -37 1.38775 -1.22955
      vertex -37 1.08279 -2.17085
    endloop
  endfacet
  facet normal -1 0 0
    outer loop
      vertex -37 0 0.680521
      vertex -37 0.785044 0.4
      vertex -37 0.785044 -0.4
    endloop
  endfacet
  facet normal -1 0 0
    outer loop
      vertex -37 0 -0.680521
      vertex -37 0.785044 -0.4
      vertex -37 0.713848 -1.66305
    endloop
  endfacet
  facet normal -1 -0 0
    outer loop
      vertex -37 1.38775 -1.22955
      vertex -37 0.713848 -1.66305
      vertex -37 0.785044 -0.4
    endloop
  endfacet
  facet normal -1 0 0
    outer loop
      vertex -37 1.08279 -2.17085
      vertex -37 -0.713848 -1.66305
      vertex -37 0.713848 -1.66305
    endloop
  endfacet
  facet normal -1 0 0
    outer loop
      vertex -37 -0.785044 0.4
      vertex -37 0 0.680521
      vertex -37 -0.785044 -0.4
    endloop
  endfacet
  facet normal -1 0 0
    outer loop
      vertex -37 -1.08279 -2.17085
      vertex -37 -0.713848 -1.66305
      vertex -37 1.08279 -2.17085
    endloop
  endfacet
  facet normal -1 0 0
    outer loop
      vertex -37 -1.38775 -1.22955
      vertex -37 -0.713848 -1.66305
      vertex -37 -1.08279 -2.17085
    endloop
  endfacet
  facet normal -1 0 0
    outer loop
      vertex -37 -0.713848 -1.66305
      vertex -37 -1.38775 -1.22955
      vertex -37 -0.785044 -0.4
    endloop
  endfacet
  facet normal -1 0 0
    outer loop
      vertex -37 -1.74976 -1.72781
      vertex -37 -1.08279 -2.17085
      vertex -37 -1.64235 -2.94102
    endloop
  endfacet
  facet normal -1 0 0
    outer loop
      vertex -37 -1.08279 -2.17085
      vertex -37 -1.74976 -1.72781
      vertex -37 -1.38775 -1.22955
    endloop
  endfacet
  facet normal -1 0 0
    outer loop
      vertex -37 -2.41713 -0.4
      vertex -37 -1.38775 -1.22955
      vertex -37 -1.74976 -1.72781
    endloop
  endfacet
  facet normal -1 0 0
    outer loop
      vertex -37 -1.80469 -0.4
      vertex -37 -2.41713 -0.4
      vertex -37 -1.83739 0.4
    endloop
  endfacet
  facet normal -1 0 0
    outer loop
      vertex -37 -1.38775 -1.22955
      vertex -37 -2.41713 -0.4
      vertex -37 -1.80469 -0.4
    endloop
  endfacet
  facet normal -1 -0 0
    outer loop
      vertex -37 2.78148 -3.14786
      vertex -37 2.13426 -3.61808
      vertex -37 2.2988 -2.48351
    endloop
  endfacet
  facet normal -1 0 0
    outer loop
      vertex -37 1.64235 -2.94102
      vertex -37 2.2988 -2.48351
      vertex -37 2.13426 -3.61808
    endloop
  endfacet
  facet normal -1 -0 0
    outer loop
      vertex -37 2.2988 -2.48351
      vertex -37 1.64235 -2.94102
      vertex -37 1.74976 -1.72781
    endloop
  endfacet
  facet normal -1 0 0
    outer loop
      vertex -37 2.13426 -3.61808
      vertex -37 -1.64235 -2.94102
      vertex -37 1.64235 -2.94102
    endloop
  endfacet
  facet normal -1 0 0
    outer loop
      vertex -37 -2.13426 -3.61808
      vertex -37 -1.64235 -2.94102
      vertex -37 2.13426 -3.61808
    endloop
  endfacet
  facet normal -1 0 0
    outer loop
      vertex -37 -2.2988 -2.48351
      vertex -37 -1.64235 -2.94102
      vertex -37 -2.13426 -3.61808
    endloop
  endfacet
  facet normal -1 0 0
    outer loop
      vertex -37 -1.64235 -2.94102
      vertex -37 -2.2988 -2.48351
      vertex -37 -1.74976 -1.72781
    endloop
  endfacet
  facet normal -1 0 0
    outer loop
      vertex -37 -2.13426 -3.61808
      vertex -37 -2.78148 -3.14786
      vertex -37 -2.2988 -2.48351
    endloop
  endfacet
  facet normal -1 0 0
    outer loop
      vertex -37 4.16257 -0.4
      vertex -37 3.34599 -0.4
      vertex -37 3.41228 0.4
    endloop
  endfacet
  facet normal -1 0 0
    outer loop
      vertex -37 2.2988 -2.48351
      vertex -37 4.16257 -0.4
      vertex -37 2.78148 -3.14785
    endloop
  endfacet
  facet normal -1 0 0
    outer loop
      vertex -37 2.2988 -2.48351
      vertex -37 2.78148 -3.14785
      vertex -37 2.78148 -3.14786
    endloop
  endfacet
  facet normal -1 -0 0
    outer loop
      vertex -37 4.16257 -0.4
      vertex -37 2.2988 -2.48351
      vertex -37 3.34599 -0.4
    endloop
  endfacet
  facet normal -1 0 0
    outer loop
      vertex -37 3.41228 0.4
      vertex -37 4.24665 0.4
      vertex -37 4.16257 -0.4
    endloop
  endfacet
  facet normal -1 0 0
    outer loop
      vertex -37 3.41228 0.4
      vertex -37 2.78641 3.15465
      vertex -37 4.24665 0.4
    endloop
  endfacet
  facet normal -1 0 0
    outer loop
      vertex -37 2.30401 2.49068
      vertex -37 2.78641 3.15465
      vertex -37 3.41228 0.4
    endloop
  endfacet
  facet normal -1 -0 0
    outer loop
      vertex -37 2.78641 3.15465
      vertex -37 2.30401 2.49068
      vertex -37 2.51278 3.45855
    endloop
  endfacet
  facet normal -1 0 0
    outer loop
      vertex -37 1.64636 2.94654
      vertex -37 2.51278 3.45855
      vertex -37 2.30401 2.49068
    endloop
  endfacet
  facet normal -1 0 0
    outer loop
      vertex -37 1.64636 2.94654
      vertex -37 2.30401 2.49068
      vertex -37 1.75528 1.73541
    endloop
  endfacet
  facet normal -1 -0 0
    outer loop
      vertex -37 2.51278 3.45855
      vertex -37 1.64636 2.94654
      vertex -37 2.1392 3.62488
    endloop
  endfacet
  facet normal -1 0 0
    outer loop
      vertex -37 -1.64636 2.94654
      vertex -37 2.1392 3.62488
      vertex -37 1.64636 2.94654
    endloop
  endfacet
  facet normal -1 0 0
    outer loop
      vertex -37 -1.64636 2.94654
      vertex -37 -2.1392 3.62488
      vertex -37 2.1392 3.62488
    endloop
  endfacet
  facet normal -1 0 0
    outer loop
      vertex -37 -2.30401 2.49068
      vertex -37 -1.64636 2.94654
      vertex -37 -1.75528 1.73541
    endloop
  endfacet
  facet normal -1 0 0
    outer loop
      vertex -37 -2.51278 3.45855
      vertex -37 -1.64636 2.94654
      vertex -37 -2.30401 2.49068
    endloop
  endfacet
  facet normal -1 0 0
    outer loop
      vertex -37 -1.64636 2.94654
      vertex -37 -2.51278 3.45855
      vertex -37 -2.1392 3.62488
    endloop
  endfacet
  facet normal -1 0 0
    outer loop
      vertex -37 -2.30401 2.49068
      vertex -37 -2.78641 3.15465
      vertex -37 -2.51278 3.45855
    endloop
  endfacet
  facet normal -1 0 0
    outer loop
      vertex -37 -3.41228 0.4
      vertex -37 -2.78641 3.15465
      vertex -37 -2.30401 2.49068
    endloop
  endfacet
  facet normal -1 0 0
    outer loop
      vertex -37 -4.24665 0.4
      vertex -37 -3.41228 0.4
      vertex -37 -4.16257 -0.4
    endloop
  endfacet
  facet normal -1 0 0
    outer loop
      vertex -37 -3.41228 0.4
      vertex -37 -4.24665 0.4
      vertex -37 -2.78641 3.15465
    endloop
  endfacet
  facet normal -1 0 0
    outer loop
      vertex -37 3.34599 -0.4
      vertex -37 2.46318 0.4
      vertex -37 3.41228 0.4
    endloop
  endfacet
  facet normal -1 0 0
    outer loop
      vertex -37 2.41713 -0.4
      vertex -37 2.46318 0.4
      vertex -37 3.34599 -0.4
    endloop
  endfacet
  facet normal -1 0 0
    outer loop
      vertex -37 1.83739 0.4
      vertex -37 2.46318 0.4
      vertex -37 2.41713 -0.4
    endloop
  endfacet
  facet normal -1 0 0
    outer loop
      vertex -37 1.83739 0.4
      vertex -37 1.75528 1.73541
      vertex -37 2.46318 0.4
    endloop
  endfacet
  facet normal -1 0 0
    outer loop
      vertex -37 1.39347 1.23743
      vertex -37 1.75528 1.73541
      vertex -37 1.83739 0.4
    endloop
  endfacet
  facet normal -1 0 0
    outer loop
      vertex -37 1.08575 2.17493
      vertex -37 1.75528 1.73541
      vertex -37 1.39347 1.23743
    endloop
  endfacet
  facet normal -1 0 0
    outer loop
      vertex -37 1.75528 1.73541
      vertex -37 1.08575 2.17493
      vertex -37 1.64636 2.94654
    endloop
  endfacet
  facet normal -1 0 0
    outer loop
      vertex -37 0.716117 1.66617
      vertex -37 1.39347 1.23743
      vertex -37 0.785044 0.4
    endloop
  endfacet
  facet normal -1 0 0
    outer loop
      vertex -37 1.39347 1.23743
      vertex -37 0.716117 1.66617
      vertex -37 1.08575 2.17493
    endloop
  endfacet
  facet normal -1 0 0
    outer loop
      vertex -37 -0.716117 1.66617
      vertex -37 1.08575 2.17493
      vertex -37 0.716117 1.66617
    endloop
  endfacet
  facet normal -1 -0 0
    outer loop
      vertex -37 0 0.680521
      vertex -37 -0.785044 0.4
      vertex -37 -0.716117 1.66617
    endloop
  endfacet
  facet normal -1 0 0
    outer loop
      vertex -37 -0.716117 1.66617
      vertex -37 -1.08575 2.17493
      vertex -37 1.08575 2.17493
    endloop
  endfacet
  facet normal -1 0 0
    outer loop
      vertex -37 -1.39347 1.23743
      vertex -37 -0.716117 1.66617
      vertex -37 -0.785044 0.4
    endloop
  endfacet
  facet normal -1 -0 0
    outer loop
      vertex -37 -0.716117 1.66617
      vertex -37 -1.39347 1.23743
      vertex -37 -1.08575 2.17493
    endloop
  endfacet
  facet normal -1 0 0
    outer loop
      vertex -37 -1.75528 1.73541
      vertex -37 -1.08575 2.17493
      vertex -37 -1.39347 1.23743
    endloop
  endfacet
  facet normal -1 -0 0
    outer loop
      vertex -37 -1.08575 2.17493
      vertex -37 -1.75528 1.73541
      vertex -37 -1.64636 2.94654
    endloop
  endfacet
  facet normal -1 0 0
    outer loop
      vertex -37 -1.83739 0.4
      vertex -37 -1.75528 1.73541
      vertex -37 -1.39347 1.23743
    endloop
  endfacet
  facet normal -1 0 0
    outer loop
      vertex -37 -2.46318 0.4
      vertex -37 -1.83739 0.4
      vertex -37 -2.41713 -0.4
    endloop
  endfacet
  facet normal -1 0 0
    outer loop
      vertex -37 -1.83739 0.4
      vertex -37 -2.46318 0.4
      vertex -37 -1.75528 1.73541
    endloop
  endfacet
  facet normal -1 0 0
    outer loop
      vertex -37 -3.34599 -0.4
      vertex -37 -2.46318 0.4
      vertex -37 -2.41713 -0.4
    endloop
  endfacet
  facet normal -1 -0 0
    outer loop
      vertex -37 -2.46318 0.4
      vertex -37 -3.34599 -0.4
      vertex -37 -3.41228 0.4
    endloop
  endfacet
  facet normal -1 0 0
    outer loop
      vertex -37 0.785044 0.4
      vertex -37 1.80469 -0.4
      vertex -37 0.785044 -0.4
    endloop
  endfacet
  facet normal -1 0 0
    outer loop
      vertex -37 1.80469 -0.4
      vertex -37 0.785044 0.4
      vertex -37 1.83739 0.4
    endloop
  endfacet
  facet normal -1 0 0
    outer loop
      vertex -37 0 0.680521
      vertex -37 0.785044 -0.4
      vertex -37 0 -0.680521
    endloop
  endfacet
  facet normal -1 0 0
    outer loop
      vertex -37 0.785044 0.4
      vertex -37 0 0.680521
      vertex -37 0.716117 1.66617
    endloop
  endfacet
  facet normal -1 0 0
    outer loop
      vertex -37 -0.785044 -0.4
      vertex -37 0 -0.680521
      vertex -37 -0.713848 -1.66305
    endloop
  endfacet
  facet normal -1 0 0
    outer loop
      vertex -37 0 -0.680521
      vertex -37 -0.785044 -0.4
      vertex -37 0 0.680521
    endloop
  endfacet
  facet normal 1 -0 0
    outer loop
      vertex 37 2.46318 0.4
      vertex 37 3.34599 -0.4
      vertex 37 3.41228 0.4
    endloop
  endfacet
  facet normal 1 0 0
    outer loop
      vertex 37 2.46318 0.4
      vertex 37 2.41713 -0.4
      vertex 37 3.34599 -0.4
    endloop
  endfacet
  facet normal 1 0 0
    outer loop
      vertex 37 2.46318 0.4
      vertex 37 1.83739 0.4
      vertex 37 2.41713 -0.4
    endloop
  endfacet
  facet normal 1 0 0
    outer loop
      vertex 37 1.75528 1.73541
      vertex 37 1.83739 0.4
      vertex 37 2.46318 0.4
    endloop
  endfacet
  facet normal 1 -0 0
    outer loop
      vertex 37 1.08575 2.17493
      vertex 37 1.75528 1.73541
      vertex 37 1.64636 2.94654
    endloop
  endfacet
  facet normal 1 0 0
    outer loop
      vertex 37 1.75528 1.73541
      vertex 37 1.39347 1.23743
      vertex 37 1.83739 0.4
    endloop
  endfacet
  facet normal 1 0 0
    outer loop
      vertex 37 1.75528 1.73541
      vertex 37 1.08575 2.17493
      vertex 37 1.39347 1.23743
    endloop
  endfacet
  facet normal 1 -0 0
    outer loop
      vertex 37 0.716117 1.66617
      vertex 37 1.39347 1.23743
      vertex 37 1.08575 2.17493
    endloop
  endfacet
  facet normal 1 -0 0
    outer loop
      vertex 37 0 0.680521
      vertex 37 0.785044 0.4
      vertex 37 0.716117 1.66617
    endloop
  endfacet
  facet normal 1 0 0
    outer loop
      vertex 37 1.39347 1.23743
      vertex 37 0.716117 1.66617
      vertex 37 0.785044 0.4
    endloop
  endfacet
  facet normal 1 0 0
    outer loop
      vertex 37 1.08575 2.17493
      vertex 37 -0.716117 1.66617
      vertex 37 0.716117 1.66617
    endloop
  endfacet
  facet normal 1 -0 0
    outer loop
      vertex 37 -1.08575 2.17493
      vertex 37 -0.716117 1.66617
      vertex 37 1.08575 2.17493
    endloop
  endfacet
  facet normal 1 0 0
    outer loop
      vertex 37 -1.39347 1.23743
      vertex 37 -0.716117 1.66617
      vertex 37 -1.08575 2.17493
    endloop
  endfacet
  facet normal 1 0 0
    outer loop
      vertex 37 -0.716117 1.66617
      vertex 37 -1.39347 1.23743
      vertex 37 -0.785044 0.4
    endloop
  endfacet
  facet normal 1 0 0
    outer loop
      vertex 37 -1.75528 1.73541
      vertex 37 -1.08575 2.17493
      vertex 37 -1.64636 2.94654
    endloop
  endfacet
  facet normal 1 0 0
    outer loop
      vertex 37 -1.08575 2.17493
      vertex 37 -1.75528 1.73541
      vertex 37 -1.39347 1.23743
    endloop
  endfacet
  facet normal 1 0 0
    outer loop
      vertex 37 -1.75528 1.73541
      vertex 37 -1.83739 0.4
      vertex 37 -1.39347 1.23743
    endloop
  endfacet
  facet normal 1 0 0
    outer loop
      vertex 37 -2.46318 0.4
      vertex 37 -1.83739 0.4
      vertex 37 -1.75528 1.73541
    endloop
  endfacet
  facet normal 1 0 0
    outer loop
      vertex 37 -1.83739 0.4
      vertex 37 -2.46318 0.4
      vertex 37 -2.41713 -0.4
    endloop
  endfacet
  facet normal 1 0 0
    outer loop
      vertex 37 -2.46318 0.4
      vertex 37 -3.34599 -0.4
      vertex 37 -2.41713 -0.4
    endloop
  endfacet
  facet normal 1 0 -0
    outer loop
      vertex 37 -3.34599 -0.4
      vertex 37 -2.46318 0.4
      vertex 37 -3.41228 0.4
    endloop
  endfacet
  facet normal 1 0 0
    outer loop
      vertex 37 4.24665 0.4
      vertex 37 3.41228 0.4
      vertex 37 4.16257 -0.4
    endloop
  endfacet
  facet normal 1 0 0
    outer loop
      vertex 37 2.78641 3.15465
      vertex 37 3.41228 0.4
      vertex 37 4.24665 0.4
    endloop
  endfacet
  facet normal 1 0 0
    outer loop
      vertex 37 2.30401 2.49068
      vertex 37 2.78641 3.15465
      vertex 37 2.51278 3.45855
    endloop
  endfacet
  facet normal 1 0 0
    outer loop
      vertex 37 2.78641 3.15465
      vertex 37 2.30401 2.49068
      vertex 37 3.41228 0.4
    endloop
  endfacet
  facet normal 1 0 0
    outer loop
      vertex 37 1.64636 2.94654
      vertex 37 2.51278 3.45855
      vertex 37 2.1392 3.62488
    endloop
  endfacet
  facet normal 1 0 0
    outer loop
      vertex 37 2.51278 3.45855
      vertex 37 1.64636 2.94654
      vertex 37 2.30401 2.49068
    endloop
  endfacet
  facet normal 1 0 0
    outer loop
      vertex 37 2.30401 2.49068
      vertex 37 1.64636 2.94654
      vertex 37 1.75528 1.73541
    endloop
  endfacet
  facet normal 1 0 0
    outer loop
      vertex 37 2.1392 3.62488
      vertex 37 -1.64636 2.94654
      vertex 37 1.64636 2.94654
    endloop
  endfacet
  facet normal 1 -0 0
    outer loop
      vertex 37 -2.1392 3.62488
      vertex 37 -1.64636 2.94654
      vertex 37 2.1392 3.62488
    endloop
  endfacet
  facet normal 1 -0 0
    outer loop
      vertex 37 -2.51278 3.45855
      vertex 37 -1.64636 2.94654
      vertex 37 -2.1392 3.62488
    endloop
  endfacet
  facet normal 1 0 0
    outer loop
      vertex 37 -1.64636 2.94654
      vertex 37 -2.30401 2.49068
      vertex 37 -1.75528 1.73541
    endloop
  endfacet
  facet normal 1 0 0
    outer loop
      vertex 37 -1.64636 2.94654
      vertex 37 -2.51278 3.45855
      vertex 37 -2.30401 2.49068
    endloop
  endfacet
  facet normal 1 -0 0
    outer loop
      vertex 37 -2.78641 3.15465
      vertex 37 -2.30401 2.49068
      vertex 37 -2.51278 3.45855
    endloop
  endfacet
  facet normal 1 0 0
    outer loop
      vertex 37 -2.78641 3.15465
      vertex 37 -3.41228 0.4
      vertex 37 -2.30401 2.49068
    endloop
  endfacet
  facet normal 1 0 0
    outer loop
      vertex 37 -4.24665 0.4
      vertex 37 -3.41228 0.4
      vertex 37 -2.78641 3.15465
    endloop
  endfacet
  facet normal 1 0 0
    outer loop
      vertex 37 -3.41228 0.4
      vertex 37 -4.24665 0.4
      vertex 37 -4.16257 -0.4
    endloop
  endfacet
  facet normal 1 0 0
    outer loop
      vertex 37 3.34599 -0.4
      vertex 37 4.16257 -0.4
      vertex 37 3.41228 0.4
    endloop
  endfacet
  facet normal 1 0 0
    outer loop
      vertex 37 2.2988 -2.48351
      vertex 37 4.16257 -0.4
      vertex 37 3.34599 -0.4
    endloop
  endfacet
  facet normal 1 0 0
    outer loop
      vertex 37 4.16257 -0.4
      vertex 37 2.2988 -2.48351
      vertex 37 2.78148 -3.14785
    endloop
  endfacet
  facet normal 1 0 0
    outer loop
      vertex 37 2.78148 -3.14785
      vertex 37 2.2988 -2.48351
      vertex 37 2.78148 -3.14786
    endloop
  endfacet
  facet normal 1 0 0
    outer loop
      vertex 37 2.13426 -3.61808
      vertex 37 2.78148 -3.14786
      vertex 37 2.2988 -2.48351
    endloop
  endfacet
  facet normal 1 0 0
    outer loop
      vertex 37 1.64235 -2.94102
      vertex 37 2.2988 -2.48351
      vertex 37 1.74976 -1.72781
    endloop
  endfacet
  facet normal 1 0 0
    outer loop
      vertex 37 2.2988 -2.48351
      vertex 37 1.64235 -2.94102
      vertex 37 2.13426 -3.61808
    endloop
  endfacet
  facet normal 1 -0 0
    outer loop
      vertex 37 -1.64235 -2.94102
      vertex 37 2.13426 -3.61808
      vertex 37 1.64235 -2.94102
    endloop
  endfacet
  facet normal 1 0 0
    outer loop
      vertex 37 -1.64235 -2.94102
      vertex 37 -2.13426 -3.61808
      vertex 37 2.13426 -3.61808
    endloop
  endfacet
  facet normal 1 -0 0
    outer loop
      vertex 37 -2.2988 -2.48351
      vertex 37 -1.64235 -2.94102
      vertex 37 -1.74976 -1.72781
    endloop
  endfacet
  facet normal 1 0 0
    outer loop
      vertex 37 -1.64235 -2.94102
      vertex 37 -2.2988 -2.48351
      vertex 37 -2.13426 -3.61808
    endloop
  endfacet
  facet normal 1 -0 0
    outer loop
      vertex 37 -2.78148 -3.14786
      vertex 37 -2.13426 -3.61808
      vertex 37 -2.2988 -2.48351
    endloop
  endfacet
  facet normal 1 0 0
    outer loop
      vertex 37 -2.2988 -2.48351
      vertex 37 -2.78148 -3.14785
      vertex 37 -2.78148 -3.14786
    endloop
  endfacet
  facet normal 1 -0 0
    outer loop
      vertex 37 -4.16257 -0.4
      vertex 37 -2.2988 -2.48351
      vertex 37 -3.34599 -0.4
    endloop
  endfacet
  facet normal 1 0 0
    outer loop
      vertex 37 -2.2988 -2.48351
      vertex 37 -4.16257 -0.4
      vertex 37 -2.78148 -3.14785
    endloop
  endfacet
  facet normal 1 0 0
    outer loop
      vertex 37 -4.16257 -0.4
      vertex 37 -3.34599 -0.4
      vertex 37 -3.41228 0.4
    endloop
  endfacet
  facet normal 1 0 0
    outer loop
      vertex 37 -0.785044 0.4
      vertex 37 -1.80469 -0.4
      vertex 37 -0.785044 -0.4
    endloop
  endfacet
  facet normal 1 0 -0
    outer loop
      vertex 37 -1.80469 -0.4
      vertex 37 -0.785044 0.4
      vertex 37 -1.83739 0.4
    endloop
  endfacet
  facet normal 1 0 0
    outer loop
      vertex 37 0 -0.680521
      vertex 37 0.785044 -0.4
      vertex 37 0 0.680521
    endloop
  endfacet
  facet normal 1 0 0
    outer loop
      vertex 37 0.785044 -0.4
      vertex 37 0 -0.680521
      vertex 37 0.713848 -1.66305
    endloop
  endfacet
  facet normal 1 -0 0
    outer loop
      vertex 37 -0.785044 -0.4
      vertex 37 0 -0.680521
      vertex 37 0 0.680521
    endloop
  endfacet
  facet normal 1 0 0
    outer loop
      vertex 37 -0.785044 0.4
      vertex 37 0 0.680521
      vertex 37 -0.716117 1.66617
    endloop
  endfacet
  facet normal 1 -0 0
    outer loop
      vertex 37 0.785044 0.4
      vertex 37 1.80469 -0.4
      vertex 37 1.83739 0.4
    endloop
  endfacet
  facet normal 1 0 0
    outer loop
      vertex 37 1.80469 -0.4
      vertex 37 0.785044 0.4
      vertex 37 0.785044 -0.4
    endloop
  endfacet
  facet normal 1 0 0
    outer loop
      vertex 37 1.80469 -0.4
      vertex 37 2.41713 -0.4
      vertex 37 1.83739 0.4
    endloop
  endfacet
  facet normal 1 0 0
    outer loop
      vertex 37 1.38775 -1.22955
      vertex 37 2.41713 -0.4
      vertex 37 1.80469 -0.4
    endloop
  endfacet
  facet normal 1 0 0
    outer loop
      vertex 37 2.41713 -0.4
      vertex 37 1.38775 -1.22955
      vertex 37 1.74976 -1.72781
    endloop
  endfacet
  facet normal 1 0 0
    outer loop
      vertex 37 1.08279 -2.17085
      vertex 37 1.74976 -1.72781
      vertex 37 1.38775 -1.22955
    endloop
  endfacet
  facet normal 1 0 0
    outer loop
      vertex 37 1.74976 -1.72781
      vertex 37 1.08279 -2.17085
      vertex 37 1.64235 -2.94102
    endloop
  endfacet
  facet normal 1 0 0
    outer loop
      vertex 37 0.713848 -1.66305
      vertex 37 1.38775 -1.22955
      vertex 37 0.785044 -0.4
    endloop
  endfacet
  facet normal 1 0 0
    outer loop
      vertex 37 0.785044 0.4
      vertex 37 0 0.680521
      vertex 37 0.785044 -0.4
    endloop
  endfacet
  facet normal 1 0 0
    outer loop
      vertex 37 1.38775 -1.22955
      vertex 37 0.713848 -1.66305
      vertex 37 1.08279 -2.17085
    endloop
  endfacet
  facet normal 1 -0 0
    outer loop
      vertex 37 -0.713848 -1.66305
      vertex 37 1.08279 -2.17085
      vertex 37 0.713848 -1.66305
    endloop
  endfacet
  facet normal 1 0 0
    outer loop
      vertex 37 -0.785044 -0.4
      vertex 37 0 0.680521
      vertex 37 -0.785044 0.4
    endloop
  endfacet
  facet normal 1 0 0
    outer loop
      vertex 37 0 -0.680521
      vertex 37 -0.785044 -0.4
      vertex 37 -0.713848 -1.66305
    endloop
  endfacet
  facet normal 1 0 0
    outer loop
      vertex 37 -0.713848 -1.66305
      vertex 37 -1.08279 -2.17085
      vertex 37 1.08279 -2.17085
    endloop
  endfacet
  facet normal 1 -0 0
    outer loop
      vertex 37 -1.38775 -1.22955
      vertex 37 -0.713848 -1.66305
      vertex 37 -0.785044 -0.4
    endloop
  endfacet
  facet normal 1 0 0
    outer loop
      vertex 37 -0.713848 -1.66305
      vertex 37 -1.38775 -1.22955
      vertex 37 -1.08279 -2.17085
    endloop
  endfacet
  facet normal 1 -0 0
    outer loop
      vertex 37 -1.74976 -1.72781
      vertex 37 -1.08279 -2.17085
      vertex 37 -1.38775 -1.22955
    endloop
  endfacet
  facet normal 1 0 0
    outer loop
      vertex 37 -1.08279 -2.17085
      vertex 37 -1.74976 -1.72781
      vertex 37 -1.64235 -2.94102
    endloop
  endfacet
  facet normal 1 -0 0
    outer loop
      vertex 37 -2.41713 -0.4
      vertex 37 -1.38775 -1.22955
      vertex 37 -1.80469 -0.4
    endloop
  endfacet
  facet normal 1 0 0
    outer loop
      vertex 37 -1.38775 -1.22955
      vertex 37 -2.41713 -0.4
      vertex 37 -1.74976 -1.72781
    endloop
  endfacet
  facet normal 1 0 0
    outer loop
      vertex 37 -2.41713 -0.4
      vertex 37 -1.80469 -0.4
      vertex 37 -1.83739 0.4
    endloop
  endfacet
  facet normal 0 0.809017 0.587786
    outer loop
      vertex 37 0 0.680521
      vertex -37 -0.716117 1.66617
      vertex 37 -0.716117 1.66617
    endloop
  endfacet
  facet normal 0 0.809017 0.587786
    outer loop
      vertex -37 -0.716117 1.66617
      vertex 37 0 0.680521
      vertex -37 0 0.680521
    endloop
  endfacet
  facet normal 0 0.809016 0.587787
    outer loop
      vertex 37 1.38775 -1.22955
      vertex -37 0.785044 -0.4
      vertex 37 0.785044 -0.4
    endloop
  endfacet
  facet normal 0 0.809016 0.587787
    outer loop
      vertex -37 0.785044 -0.4
      vertex 37 1.38775 -1.22955
      vertex -37 1.38775 -1.22955
    endloop
  endfacet
  facet normal 0 0.809021 0.58778
    outer loop
      vertex 37 2.2988 -2.48351
      vertex -37 1.74976 -1.72781
      vertex 37 1.74976 -1.72781
    endloop
  endfacet
  facet normal 0 0.809021 0.58778
    outer loop
      vertex -37 1.74976 -1.72781
      vertex 37 2.2988 -2.48351
      vertex -37 2.2988 -2.48351
    endloop
  endfacet
  facet normal 0 0.809016 0.587787
    outer loop
      vertex 37 -1.08575 2.17493
      vertex -37 -1.64636 2.94654
      vertex 37 -1.64636 2.94654
    endloop
  endfacet
  facet normal 0 0.809016 0.587787
    outer loop
      vertex -37 -1.64636 2.94654
      vertex 37 -1.08575 2.17493
      vertex -37 -1.08575 2.17493
    endloop
  endfacet
  facet normal 0 -0.809017 -0.587785
    outer loop
      vertex -37 0.713848 -1.66305
      vertex 37 0 -0.680521
      vertex -37 0 -0.680521
    endloop
  endfacet
  facet normal 0 -0.809017 -0.587785
    outer loop
      vertex 37 0 -0.680521
      vertex -37 0.713848 -1.66305
      vertex 37 0.713848 -1.66305
    endloop
  endfacet
  facet normal 0 -0.809018 -0.587784
    outer loop
      vertex -37 -0.785044 0.4
      vertex 37 -1.39347 1.23743
      vertex -37 -1.39347 1.23743
    endloop
  endfacet
  facet normal 0 -0.809018 -0.587784
    outer loop
      vertex 37 -1.39347 1.23743
      vertex -37 -0.785044 0.4
      vertex 37 -0.785044 0.4
    endloop
  endfacet
  facet normal 0 -0.80902 -0.587781
    outer loop
      vertex -37 -1.75528 1.73541
      vertex 37 -2.30401 2.49068
      vertex -37 -2.30401 2.49068
    endloop
  endfacet
  facet normal 0 -0.80902 -0.587781
    outer loop
      vertex 37 -2.30401 2.49068
      vertex -37 -1.75528 1.73541
      vertex 37 -1.75528 1.73541
    endloop
  endfacet
  facet normal 0 -0.809018 -0.587784
    outer loop
      vertex -37 1.64235 -2.94102
      vertex 37 1.08279 -2.17085
      vertex -37 1.08279 -2.17085
    endloop
  endfacet
  facet normal 0 -0.809018 -0.587784
    outer loop
      vertex 37 1.08279 -2.17085
      vertex -37 1.64235 -2.94102
      vertex 37 1.64235 -2.94102
    endloop
  endfacet
  facet normal 0 -0.809017 0.587786
    outer loop
      vertex -37 0 0.680521
      vertex 37 0.716117 1.66617
      vertex -37 0.716117 1.66617
    endloop
  endfacet
  facet normal 0 -0.809017 0.587786
    outer loop
      vertex 37 0.716117 1.66617
      vertex -37 0 0.680521
      vertex 37 0 0.680521
    endloop
  endfacet
  facet normal 0 -0.809016 0.587787
    outer loop
      vertex -37 -1.38775 -1.22955
      vertex 37 -0.785044 -0.4
      vertex -37 -0.785044 -0.4
    endloop
  endfacet
  facet normal 0 -0.809016 0.587787
    outer loop
      vertex 37 -0.785044 -0.4
      vertex -37 -1.38775 -1.22955
      vertex 37 -1.38775 -1.22955
    endloop
  endfacet
  facet normal 0 -0.809021 0.58778
    outer loop
      vertex -37 -2.2988 -2.48351
      vertex 37 -1.74976 -1.72781
      vertex -37 -1.74976 -1.72781
    endloop
  endfacet
  facet normal 0 -0.809021 0.58778
    outer loop
      vertex 37 -1.74976 -1.72781
      vertex -37 -2.2988 -2.48351
      vertex 37 -2.2988 -2.48351
    endloop
  endfacet
  facet normal 0 -0.809016 0.587787
    outer loop
      vertex -37 1.08575 2.17493
      vertex 37 1.64636 2.94654
      vertex -37 1.64636 2.94654
    endloop
  endfacet
  facet normal 0 -0.809016 0.587787
    outer loop
      vertex 37 1.64636 2.94654
      vertex -37 1.08575 2.17493
      vertex 37 1.08575 2.17493
    endloop
  endfacet
  facet normal 0 0.809017 -0.587785
    outer loop
      vertex 37 -0.713848 -1.66305
      vertex -37 0 -0.680521
      vertex 37 0 -0.680521
    endloop
  endfacet
  facet normal 0 0.809017 -0.587785
    outer loop
      vertex -37 0 -0.680521
      vertex 37 -0.713848 -1.66305
      vertex -37 -0.713848 -1.66305
    endloop
  endfacet
  facet normal 0 0.809018 -0.587784
    outer loop
      vertex 37 0.785044 0.4
      vertex -37 1.39347 1.23743
      vertex 37 1.39347 1.23743
    endloop
  endfacet
  facet normal 0 0.809018 -0.587784
    outer loop
      vertex -37 1.39347 1.23743
      vertex 37 0.785044 0.4
      vertex -37 0.785044 0.4
    endloop
  endfacet
  facet normal 0 0.80902 -0.587781
    outer loop
      vertex 37 1.75528 1.73541
      vertex -37 2.30401 2.49068
      vertex 37 2.30401 2.49068
    endloop
  endfacet
  facet normal 0 0.80902 -0.587781
    outer loop
      vertex -37 2.30401 2.49068
      vertex 37 1.75528 1.73541
      vertex -37 1.75528 1.73541
    endloop
  endfacet
  facet normal 0 0.809018 -0.587784
    outer loop
      vertex 37 -1.64235 -2.94102
      vertex -37 -1.08279 -2.17085
      vertex 37 -1.08279 -2.17085
    endloop
  endfacet
  facet normal 0 0.809018 -0.587784
    outer loop
      vertex -37 -1.08279 -2.17085
      vertex 37 -1.64235 -2.94102
      vertex -37 -1.64235 -2.94102
    endloop
  endfacet
  facet normal -0 0 1
    outer loop
      vertex -37 -0.785044 0.4
      vertex 37 -1.83739 0.4
      vertex 37 -0.785044 0.4
    endloop
  endfacet
  facet normal 0 0 1
    outer loop
      vertex 37 -1.83739 0.4
      vertex -37 -0.785044 0.4
      vertex -37 -1.83739 0.4
    endloop
  endfacet
  facet normal -0 0 1
    outer loop
      vertex -37 1.83739 0.4
      vertex 37 0.785044 0.4
      vertex 37 1.83739 0.4
    endloop
  endfacet
  facet normal 0 0 1
    outer loop
      vertex 37 0.785044 0.4
      vertex -37 1.83739 0.4
      vertex -37 0.785044 0.4
    endloop
  endfacet
  facet normal -0 0 1
    outer loop
      vertex -37 -2.46318 0.4
      vertex 37 -3.41228 0.4
      vertex 37 -2.46318 0.4
    endloop
  endfacet
  facet normal 0 0 1
    outer loop
      vertex 37 -3.41228 0.4
      vertex -37 -2.46318 0.4
      vertex -37 -3.41228 0.4
    endloop
  endfacet
  facet normal -0 0 1
    outer loop
      vertex -37 3.41228 0.4
      vertex 37 2.46318 0.4
      vertex 37 3.41228 0.4
    endloop
  endfacet
  facet normal 0 0 1
    outer loop
      vertex 37 2.46318 0.4
      vertex -37 3.41228 0.4
      vertex -37 2.46318 0.4
    endloop
  endfacet
  facet normal 0 0 -1
    outer loop
      vertex -37 0.785044 -0.4
      vertex 37 1.80469 -0.4
      vertex 37 0.785044 -0.4
    endloop
  endfacet
  facet normal -0 0 -1
    outer loop
      vertex 37 1.80469 -0.4
      vertex -37 0.785044 -0.4
      vertex -37 1.80469 -0.4
    endloop
  endfacet
  facet normal 0 0 -1
    outer loop
      vertex -37 -1.80469 -0.4
      vertex 37 -0.785044 -0.4
      vertex 37 -1.80469 -0.4
    endloop
  endfacet
  facet normal -0 0 -1
    outer loop
      vertex 37 -0.785044 -0.4
      vertex -37 -1.80469 -0.4
      vertex -37 -0.785044 -0.4
    endloop
  endfacet
  facet normal 0 0 -1
    outer loop
      vertex -37 2.41713 -0.4
      vertex 37 3.34599 -0.4
      vertex 37 2.41713 -0.4
    endloop
  endfacet
  facet normal -0 0 -1
    outer loop
      vertex 37 3.34599 -0.4
      vertex -37 2.41713 -0.4
      vertex -37 3.34599 -0.4
    endloop
  endfacet
  facet normal 0 0 -1
    outer loop
      vertex -37 -3.34599 -0.4
      vertex 37 -2.41713 -0.4
      vertex 37 -3.34599 -0.4
    endloop
  endfacet
  facet normal -0 0 -1
    outer loop
      vertex 37 -2.41713 -0.4
      vertex -37 -3.34599 -0.4
      vertex -37 -2.41713 -0.4
    endloop
  endfacet
  facet normal 0 0.743148 0.669127
    outer loop
      vertex -7.49497 2.78641 3.15465
      vertex -37 2.51278 3.45855
      vertex -7.49497 2.51278 3.45855
    endloop
  endfacet
  facet normal 0 0.743148 0.669127
    outer loop
      vertex -37 2.51278 3.45855
      vertex -7.49497 2.78641 3.15465
      vertex -37 2.78641 3.15465
    endloop
  endfacet
  facet normal 0 0.743148 0.669127
    outer loop
      vertex 37 2.78641 3.15465
      vertex -6.50503 2.51278 3.45855
      vertex 37 2.51278 3.45855
    endloop
  endfacet
  facet normal 0 0.743148 0.669127
    outer loop
      vertex -6.50503 2.51278 3.45855
      vertex 37 2.78641 3.15465
      vertex -6.50503 2.78641 3.15465
    endloop
  endfacet
  facet normal 0 -0.743148 0.669127
    outer loop
      vertex -6.50503 -2.78641 3.15465
      vertex 37 -2.51278 3.45855
      vertex -6.50503 -2.51278 3.45855
    endloop
  endfacet
  facet normal 0 -0.743148 0.669127
    outer loop
      vertex 37 -2.51278 3.45855
      vertex -6.50503 -2.78641 3.15465
      vertex 37 -2.78641 3.15465
    endloop
  endfacet
  facet normal 0 -0.743148 0.669127
    outer loop
      vertex -37 -2.78641 3.15465
      vertex -7.49497 -2.51278 3.45855
      vertex -37 -2.51278 3.45855
    endloop
  endfacet
  facet normal 0 -0.743148 0.669127
    outer loop
      vertex -7.49497 -2.51278 3.45855
      vertex -37 -2.78641 3.15465
      vertex -7.49497 -2.78641 3.15465
    endloop
  endfacet
  facet normal 1.35105e-07 0.587775 -0.809025
    outer loop
      vertex 37 2.13426 -3.61808
      vertex -6.50503 2.13427 -3.61808
      vertex 37 2.78148 -3.14786
    endloop
  endfacet
  facet normal 0 0 -1
    outer loop
      vertex 37 2.13426 -3.61808
      vertex -7.49497 2.13427 -3.61808
      vertex -6.50503 2.13427 -3.61808
    endloop
  endfacet
  facet normal 0 0 -1
    outer loop
      vertex -37 2.13426 -3.61808
      vertex -7.49497 2.13427 -3.61808
      vertex 37 2.13426 -3.61808
    endloop
  endfacet
  facet normal -1.99214e-07 0.587781 -0.80902
    outer loop
      vertex -37 2.13426 -3.61808
      vertex -7.49497 2.78148 -3.14786
      vertex -7.49497 2.13427 -3.61808
    endloop
  endfacet
  facet normal 0 0.587775 -0.809025
    outer loop
      vertex -7.49497 2.78148 -3.14786
      vertex -37 2.13426 -3.61808
      vertex -37 2.78148 -3.14786
    endloop
  endfacet
  facet normal 0 0.587781 -0.80902
    outer loop
      vertex 37 2.78148 -3.14786
      vertex -6.50503 2.13427 -3.61808
      vertex -6.50503 2.78148 -3.14786
    endloop
  endfacet
  facet normal 0 0.994522 -0.104524
    outer loop
      vertex -7.49497 4.16257 -0.4
      vertex -37 4.24665 0.4
      vertex -7.49497 4.24665 0.4
    endloop
  endfacet
  facet normal 0 0.994522 -0.104524
    outer loop
      vertex -37 4.24665 0.4
      vertex -7.49497 4.16257 -0.4
      vertex -37 4.16257 -0.4
    endloop
  endfacet
  facet normal 0 0.994522 -0.104524
    outer loop
      vertex 37 4.16257 -0.4
      vertex -6.50503 4.24665 0.4
      vertex 37 4.24665 0.4
    endloop
  endfacet
  facet normal 0 0.994522 -0.104524
    outer loop
      vertex -6.50503 4.24665 0.4
      vertex 37 4.16257 -0.4
      vertex -6.50503 4.16257 -0.4
    endloop
  endfacet
  facet normal 0 0.40674 0.913544
    outer loop
      vertex -7.49497 2.51278 3.45855
      vertex -37 2.51278 3.45855
      vertex -7.49497 2.1392 3.62488
    endloop
  endfacet
  facet normal -0 0.40674 0.913544
    outer loop
      vertex -6.50503 2.51278 3.45855
      vertex 37 2.1392 3.62488
      vertex 37 2.51278 3.45855
    endloop
  endfacet
  facet normal -0 0.40674 0.913544
    outer loop
      vertex -6.50503 2.1392 3.62488
      vertex 37 2.1392 3.62488
      vertex -6.50503 2.51278 3.45855
    endloop
  endfacet
  facet normal 0 0 0
    outer loop
      vertex -7.49497 2.1392 3.62488
      vertex 37 2.1392 3.62488
      vertex -6.50503 2.1392 3.62488
    endloop
  endfacet
  facet normal 0 0 -0
    outer loop
      vertex -7.49497 2.1392 3.62488
      vertex -37 2.1392 3.62488
      vertex 37 2.1392 3.62488
    endloop
  endfacet
  facet normal -0 0.40674 0.913544
    outer loop
      vertex -37 2.1392 3.62488
      vertex -7.49497 2.1392 3.62488
      vertex -37 2.51278 3.45855
    endloop
  endfacet
  facet normal 0 -0.40674 0.913544
    outer loop
      vertex 37 -2.1392 3.62488
      vertex -6.50503 -2.1392 3.62488
      vertex 37 -2.51278 3.45855
    endloop
  endfacet
  facet normal 0 0 0
    outer loop
      vertex 37 -2.1392 3.62488
      vertex -7.49497 -2.1392 3.62488
      vertex -6.50503 -2.1392 3.62488
    endloop
  endfacet
  facet normal 0 0 0
    outer loop
      vertex -37 -2.1392 3.62488
      vertex -7.49497 -2.1392 3.62488
      vertex 37 -2.1392 3.62488
    endloop
  endfacet
  facet normal 0 -0.40674 0.913544
    outer loop
      vertex -37 -2.1392 3.62488
      vertex -7.49497 -2.51278 3.45855
      vertex -7.49497 -2.1392 3.62488
    endloop
  endfacet
  facet normal 0 -0.40674 0.913544
    outer loop
      vertex -7.49497 -2.51278 3.45855
      vertex -37 -2.1392 3.62488
      vertex -37 -2.51278 3.45855
    endloop
  endfacet
  facet normal 0 -0.40674 0.913544
    outer loop
      vertex 37 -2.51278 3.45855
      vertex -6.50503 -2.1392 3.62488
      vertex -6.50503 -2.51278 3.45855
    endloop
  endfacet
  facet normal -0 -0.587781 -0.80902
    outer loop
      vertex -7.49497 -2.78148 -3.14786
      vertex -37 -2.78148 -3.14786
      vertex -7.49497 -2.13427 -3.61808
    endloop
  endfacet
  facet normal 0 -0.587775 -0.809025
    outer loop
      vertex -6.50503 -2.78148 -3.14786
      vertex 37 -2.13426 -3.61808
      vertex 37 -2.78148 -3.14786
    endloop
  endfacet
  facet normal 1.35106e-07 -0.587781 -0.80902
    outer loop
      vertex -6.50503 -2.13427 -3.61808
      vertex 37 -2.13426 -3.61808
      vertex -6.50503 -2.78148 -3.14786
    endloop
  endfacet
  facet normal 0 0 -1
    outer loop
      vertex -7.49497 -2.13427 -3.61808
      vertex 37 -2.13426 -3.61808
      vertex -6.50503 -2.13427 -3.61808
    endloop
  endfacet
  facet normal 0 0 -1
    outer loop
      vertex -7.49497 -2.13427 -3.61808
      vertex -37 -2.13426 -3.61808
      vertex 37 -2.13426 -3.61808
    endloop
  endfacet
  facet normal -1.99212e-07 -0.587775 -0.809025
    outer loop
      vertex -37 -2.13426 -3.61808
      vertex -7.49497 -2.13427 -3.61808
      vertex -37 -2.78148 -3.14786
    endloop
  endfacet
  facet normal 0 -0.994522 -0.104524
    outer loop
      vertex -37 -4.16257 -0.4
      vertex -7.49497 -4.24665 0.4
      vertex -37 -4.24665 0.4
    endloop
  endfacet
  facet normal 0 -0.994522 -0.104524
    outer loop
      vertex -7.49497 -4.24665 0.4
      vertex -37 -4.16257 -0.4
      vertex -7.49497 -4.16257 -0.4
    endloop
  endfacet
  facet normal 0 -0.994522 -0.104524
    outer loop
      vertex -6.50503 -4.16257 -0.4
      vertex 37 -4.24665 0.4
      vertex -6.50503 -4.24665 0.4
    endloop
  endfacet
  facet normal 0 -0.994522 -0.104524
    outer loop
      vertex 37 -4.24665 0.4
      vertex -6.50503 -4.16257 -0.4
      vertex 37 -4.16257 -0.4
    endloop
  endfacet
  facet normal -0 0 1
    outer loop
      vertex -37 2.1392 3.62488
      vertex 37 -2.1392 3.62488
      vertex 37 2.1392 3.62488
    endloop
  endfacet
  facet normal 0 0 1
    outer loop
      vertex 37 -2.1392 3.62488
      vertex -37 2.1392 3.62488
      vertex -37 -2.1392 3.62488
    endloop
  endfacet
  facet normal -0 0 1
    outer loop
      vertex -7.42678 -2.30321 3.62488
      vertex -6.71062 -2.63363 3.62488
      vertex -6.50503 -2.1392 3.62488
    endloop
  endfacet
  facet normal 0 0 1
    outer loop
      vertex -6.71062 -2.63363 3.62488
      vertex -7.06731 -2.92592 3.62488
      vertex -7 -3.01452 3.62488
    endloop
  endfacet
  facet normal 0 0 1
    outer loop
      vertex -6.71062 -2.63363 3.62488
      vertex -7.28938 -2.63363 3.62488
      vertex -7.06731 -2.92592 3.62488
    endloop
  endfacet
  facet normal 0 0 1
    outer loop
      vertex -6.71062 -2.63363 3.62488
      vertex -7.42678 -2.30321 3.62488
      vertex -7.28938 -2.63363 3.62488
    endloop
  endfacet
  facet normal 0 -0 1
    outer loop
      vertex -7.42678 -2.30321 3.62488
      vertex -6.50503 -2.1392 3.62488
      vertex -7.49497 -2.1392 3.62488
    endloop
  endfacet
  facet normal -0 0 1
    outer loop
      vertex -7.28938 2.63363 3.62488
      vertex -6.57322 2.30321 3.62488
      vertex -6.71062 2.63363 3.62488
    endloop
  endfacet
  facet normal 0 0 1
    outer loop
      vertex -7.28938 2.63363 3.62488
      vertex -6.71062 2.63363 3.62488
      vertex -6.93269 2.92592 3.62488
    endloop
  endfacet
  facet normal 0 0 1
    outer loop
      vertex -7.28938 2.63363 3.62488
      vertex -6.93269 2.92592 3.62488
      vertex -7 3.01452 3.62488
    endloop
  endfacet
  facet normal 0 0 1
    outer loop
      vertex -7.49497 2.1392 3.62488
      vertex -6.57322 2.30321 3.62488
      vertex -7.28938 2.63363 3.62488
    endloop
  endfacet
  facet normal 0 0 1
    outer loop
      vertex -6.57322 2.30321 3.62488
      vertex -7.49497 2.1392 3.62488
      vertex -6.50503 2.1392 3.62488
    endloop
  endfacet
  facet normal 3.12723e-05 0.883535 0.468365
    outer loop
      vertex -7.42579 4.11489 0.648569
      vertex -7.49497 2.78641 3.15465
      vertex -7.30711 3.14038 2.4869
    endloop
  endfacet
  facet normal -4.15751e-05 0.883533 0.468369
    outer loop
      vertex -7.42579 4.11489 0.648569
      vertex -7.30711 3.14038 2.4869
      vertex -7.16197 3.41387 1.971
    endloop
  endfacet
  facet normal -8.21219e-05 0.883536 0.468363
    outer loop
      vertex -7.49497 2.78641 3.15465
      vertex -7.42579 4.11489 0.648569
      vertex -7.49497 4.24665 0.4
    endloop
  endfacet
  facet normal -0.00041644 0.883498 0.468435
    outer loop
      vertex -7.49497 4.24665 0.4
      vertex -7.42579 4.11489 0.648569
      vertex -7.46662 4.22339 0.443895
    endloop
  endfacet
  facet normal 0 0.883536 0.468363
    outer loop
      vertex -7.49497 2.78641 3.15465
      vertex -7.49497 4.24665 0.4
      vertex -37 2.78641 3.15465
    endloop
  endfacet
  facet normal 0 0.883536 0.468363
    outer loop
      vertex -37 2.78641 3.15465
      vertex -7.49497 4.24665 0.4
      vertex -37 4.24665 0.4
    endloop
  endfacet
  facet normal 0 0.883536 0.468363
    outer loop
      vertex -6.50503 4.24665 0.4
      vertex -6.50503 2.78641 3.15465
      vertex 37 2.78641 3.15465
    endloop
  endfacet
  facet normal 2.25278e-05 0.883537 0.468362
    outer loop
      vertex -6.50503 2.78641 3.15465
      vertex -6.72016 3.72706 1.38018
      vertex -6.83803 3.41387 1.971
    endloop
  endfacet
  facet normal 1.40888e-05 0.883536 0.468363
    outer loop
      vertex -6.50503 2.78641 3.15465
      vertex -6.50503 4.24665 0.4
      vertex -6.72016 3.72706 1.38018
    endloop
  endfacet
  facet normal 0.000379559 0.883503 0.468426
    outer loop
      vertex -6.72016 3.72706 1.38018
      vertex -6.51477 4.23866 0.415079
      vertex -6.53338 4.22339 0.443895
    endloop
  endfacet
  facet normal -0 0.883536 0.468363
    outer loop
      vertex -6.50503 4.24665 0.4
      vertex 37 2.78641 3.15465
      vertex 37 4.24665 0.4
    endloop
  endfacet
  facet normal 0.000456873 0.883496 0.468438
    outer loop
      vertex -6.72016 3.72706 1.38018
      vertex -6.50503 4.24665 0.4
      vertex -6.51477 4.23866 0.415079
    endloop
  endfacet
  facet normal -3.12723e-05 -0.883535 0.468365
    outer loop
      vertex -6.57421 -4.11489 0.648569
      vertex -6.50503 -2.78641 3.15465
      vertex -6.69289 -3.14038 2.4869
    endloop
  endfacet
  facet normal 4.15751e-05 -0.883533 0.468369
    outer loop
      vertex -6.57421 -4.11489 0.648569
      vertex -6.69289 -3.14038 2.4869
      vertex -6.83803 -3.41387 1.971
    endloop
  endfacet
  facet normal 8.21219e-05 -0.883536 0.468363
    outer loop
      vertex -6.50503 -2.78641 3.15465
      vertex -6.57421 -4.11489 0.648569
      vertex -6.50503 -4.24665 0.4
    endloop
  endfacet
  facet normal 0.00041644 -0.883498 0.468435
    outer loop
      vertex -6.50503 -4.24665 0.4
      vertex -6.57421 -4.11489 0.648569
      vertex -6.53338 -4.22339 0.443895
    endloop
  endfacet
  facet normal 0 -0.883536 0.468363
    outer loop
      vertex -6.50503 -2.78641 3.15465
      vertex -6.50503 -4.24665 0.4
      vertex 37 -2.78641 3.15465
    endloop
  endfacet
  facet normal 0 -0.883536 0.468363
    outer loop
      vertex 37 -2.78641 3.15465
      vertex -6.50503 -4.24665 0.4
      vertex 37 -4.24665 0.4
    endloop
  endfacet
  facet normal 0 -0.883536 0.468363
    outer loop
      vertex -7.49497 -4.24665 0.4
      vertex -7.49497 -2.78641 3.15465
      vertex -37 -2.78641 3.15465
    endloop
  endfacet
  facet normal -2.25278e-05 -0.883537 0.468362
    outer loop
      vertex -7.49497 -2.78641 3.15465
      vertex -7.27984 -3.72706 1.38018
      vertex -7.16197 -3.41387 1.971
    endloop
  endfacet
  facet normal -1.40888e-05 -0.883536 0.468363
    outer loop
      vertex -7.49497 -2.78641 3.15465
      vertex -7.49497 -4.24665 0.4
      vertex -7.27984 -3.72706 1.38018
    endloop
  endfacet
  facet normal -0.000379559 -0.883503 0.468426
    outer loop
      vertex -7.27984 -3.72706 1.38018
      vertex -7.48523 -4.23866 0.415079
      vertex -7.46662 -4.22339 0.443895
    endloop
  endfacet
  facet normal 0 -0.883536 0.468363
    outer loop
      vertex -7.49497 -4.24665 0.4
      vertex -37 -2.78641 3.15465
      vertex -37 -4.24665 0.4
    endloop
  endfacet
  facet normal -0.000456873 -0.883496 0.468438
    outer loop
      vertex -7.27984 -3.72706 1.38018
      vertex -7.49497 -4.24665 0.4
      vertex -7.48523 -4.23866 0.415079
    endloop
  endfacet
  facet normal 0 1 -0
    outer loop
      vertex -7.49497 2.78148 -3.14786
      vertex -37 2.78148 -3.14785
      vertex -7.49497 2.78148 -3.14785
    endloop
  endfacet
  facet normal 0 1 0
    outer loop
      vertex -37 2.78148 -3.14785
      vertex -7.49497 2.78148 -3.14786
      vertex -37 2.78148 -3.14786
    endloop
  endfacet
  facet normal 0 1 -0
    outer loop
      vertex 37 2.78148 -3.14786
      vertex -6.50503 2.78148 -3.14785
      vertex 37 2.78148 -3.14785
    endloop
  endfacet
  facet normal 0 1 0
    outer loop
      vertex -6.50503 2.78148 -3.14785
      vertex 37 2.78148 -3.14786
      vertex -6.50503 2.78148 -3.14786
    endloop
  endfacet
  facet normal -1.95474e-05 0.893492 -0.44908
    outer loop
      vertex -7.20769 3.41959 -1.87825
      vertex -7.49497 4.16257 -0.4
      vertex -7.33995 3.96979 -0.783563
    endloop
  endfacet
  facet normal 5.8633e-06 0.893493 -0.449077
    outer loop
      vertex -7.20769 3.41959 -1.87825
      vertex -7.33995 3.96979 -0.783563
      vertex -7.16405 3.75104 -1.21879
    endloop
  endfacet
  facet normal 1.47198e-06 0.893493 -0.449076
    outer loop
      vertex -7.49497 4.16257 -0.4
      vertex -7.20769 3.41959 -1.87825
      vertex -7.49497 2.78148 -3.14785
    endloop
  endfacet
  facet normal -3.51213e-05 0.893497 -0.44907
    outer loop
      vertex -7.49497 2.78148 -3.14785
      vertex -7.20769 3.41959 -1.87825
      vertex -7.2624 3.00411 -2.70491
    endloop
  endfacet
  facet normal 0 0.893493 -0.449076
    outer loop
      vertex -7.49497 4.16257 -0.4
      vertex -7.49497 2.78148 -3.14785
      vertex -37 4.16257 -0.4
    endloop
  endfacet
  facet normal 0 0.893493 -0.449076
    outer loop
      vertex -37 4.16257 -0.4
      vertex -7.49497 2.78148 -3.14785
      vertex -37 2.78148 -3.14785
    endloop
  endfacet
  facet normal 0 0.893493 -0.449076
    outer loop
      vertex -6.50503 2.78148 -3.14785
      vertex -6.50503 4.16257 -0.4
      vertex 37 4.16257 -0.4
    endloop
  endfacet
  facet normal 9.47752e-06 0.893493 -0.449076
    outer loop
      vertex -6.7841 3.35725 -2.00229
      vertex -6.50503 4.16257 -0.4
      vertex -6.50503 2.78148 -3.14785
    endloop
  endfacet
  facet normal -7.22809e-06 0.893495 -0.449074
    outer loop
      vertex -6.50503 4.16257 -0.4
      vertex -6.7841 3.35725 -2.00229
      vertex -6.83595 3.75104 -1.21879
    endloop
  endfacet
  facet normal 4.22723e-05 0.893496 -0.449072
    outer loop
      vertex -6.7841 3.35725 -2.00229
      vertex -6.59765 2.87014 -2.97145
      vertex -6.7376 3.00411 -2.70491
    endloop
  endfacet
  facet normal 0 0.893493 -0.449076
    outer loop
      vertex -6.50503 2.78148 -3.14785
      vertex 37 4.16257 -0.4
      vertex 37 2.78148 -3.14785
    endloop
  endfacet
  facet normal -7.5157e-06 0.893492 -0.44908
    outer loop
      vertex -6.7841 3.35725 -2.00229
      vertex -6.50503 2.78148 -3.14785
      vertex -6.59765 2.87014 -2.97145
    endloop
  endfacet
  facet normal 0 0 -1
    outer loop
      vertex -37 -2.13426 -3.61808
      vertex 37 2.13426 -3.61808
      vertex 37 -2.13426 -3.61808
    endloop
  endfacet
  facet normal -0 0 -1
    outer loop
      vertex 37 2.13426 -3.61808
      vertex -37 -2.13426 -3.61808
      vertex -37 2.13426 -3.61808
    endloop
  endfacet
  facet normal 0 0 -1
    outer loop
      vertex -7.2957 -2.46589 -3.61808
      vertex -6.7555 -2.55108 -3.61808
      vertex -7 -2.95796 -3.61808
    endloop
  endfacet
  facet normal 0 0 -1
    outer loop
      vertex -6.7555 -2.55108 -3.61808
      vertex -7.2957 -2.46589 -3.61808
      vertex -6.50503 -2.13427 -3.61808
    endloop
  endfacet
  facet normal -0 0 -1
    outer loop
      vertex -6.50503 -2.13427 -3.61808
      vertex -7.2957 -2.46589 -3.61808
      vertex -7.49497 -2.13427 -3.61808
    endloop
  endfacet
  facet normal 0 0 -1
    outer loop
      vertex -6.7043 2.46589 -3.61808
      vertex -7.2445 2.55108 -3.61808
      vertex -7 2.95796 -3.61808
    endloop
  endfacet
  facet normal 0 0 -1
    outer loop
      vertex -7.49497 2.13427 -3.61808
      vertex -6.7043 2.46589 -3.61808
      vertex -6.50503 2.13427 -3.61808
    endloop
  endfacet
  facet normal -0 0 -1
    outer loop
      vertex -6.7043 2.46589 -3.61808
      vertex -7.49497 2.13427 -3.61808
      vertex -7.2445 2.55108 -3.61808
    endloop
  endfacet
  facet normal 0 -1 0
    outer loop
      vertex -6.50503 -2.78148 -3.14786
      vertex 37 -2.78148 -3.14785
      vertex -6.50503 -2.78148 -3.14785
    endloop
  endfacet
  facet normal 0 -1 -0
    outer loop
      vertex 37 -2.78148 -3.14785
      vertex -6.50503 -2.78148 -3.14786
      vertex 37 -2.78148 -3.14786
    endloop
  endfacet
  facet normal 0 -1 0
    outer loop
      vertex -37 -2.78148 -3.14786
      vertex -7.49497 -2.78148 -3.14785
      vertex -37 -2.78148 -3.14785
    endloop
  endfacet
  facet normal 0 -1 -0
    outer loop
      vertex -7.49497 -2.78148 -3.14785
      vertex -37 -2.78148 -3.14786
      vertex -7.49497 -2.78148 -3.14786
    endloop
  endfacet
  facet normal 1.95474e-05 -0.893492 -0.44908
    outer loop
      vertex -6.79231 -3.41959 -1.87825
      vertex -6.50503 -4.16257 -0.4
      vertex -6.66005 -3.96979 -0.783563
    endloop
  endfacet
  facet normal -5.8633e-06 -0.893493 -0.449077
    outer loop
      vertex -6.79231 -3.41959 -1.87825
      vertex -6.66005 -3.96979 -0.783563
      vertex -6.83595 -3.75104 -1.21879
    endloop
  endfacet
  facet normal -1.47198e-06 -0.893493 -0.449076
    outer loop
      vertex -6.50503 -4.16257 -0.4
      vertex -6.79231 -3.41959 -1.87825
      vertex -6.50503 -2.78148 -3.14785
    endloop
  endfacet
  facet normal 3.51213e-05 -0.893497 -0.44907
    outer loop
      vertex -6.50503 -2.78148 -3.14785
      vertex -6.79231 -3.41959 -1.87825
      vertex -6.7376 -3.00411 -2.70491
    endloop
  endfacet
  facet normal 0 -0.893493 -0.449076
    outer loop
      vertex -6.50503 -4.16257 -0.4
      vertex -6.50503 -2.78148 -3.14785
      vertex 37 -4.16257 -0.4
    endloop
  endfacet
  facet normal 0 -0.893493 -0.449076
    outer loop
      vertex 37 -4.16257 -0.4
      vertex -6.50503 -2.78148 -3.14785
      vertex 37 -2.78148 -3.14785
    endloop
  endfacet
  facet normal 0 -0.893493 -0.449076
    outer loop
      vertex -7.49497 -2.78148 -3.14785
      vertex -7.49497 -4.16257 -0.4
      vertex -37 -4.16257 -0.4
    endloop
  endfacet
  facet normal -9.47752e-06 -0.893493 -0.449076
    outer loop
      vertex -7.2159 -3.35725 -2.00229
      vertex -7.49497 -4.16257 -0.4
      vertex -7.49497 -2.78148 -3.14785
    endloop
  endfacet
  facet normal 7.22809e-06 -0.893495 -0.449074
    outer loop
      vertex -7.49497 -4.16257 -0.4
      vertex -7.2159 -3.35725 -2.00229
      vertex -7.16405 -3.75104 -1.21879
    endloop
  endfacet
  facet normal -4.22723e-05 -0.893496 -0.449072
    outer loop
      vertex -7.2159 -3.35725 -2.00229
      vertex -7.40235 -2.87014 -2.97145
      vertex -7.2624 -3.00411 -2.70491
    endloop
  endfacet
  facet normal -0 -0.893493 -0.449076
    outer loop
      vertex -7.49497 -2.78148 -3.14785
      vertex -37 -4.16257 -0.4
      vertex -37 -2.78148 -3.14785
    endloop
  endfacet
  facet normal 7.5157e-06 -0.893492 -0.44908
    outer loop
      vertex -7.2159 -3.35725 -2.00229
      vertex -7.49497 -2.78148 -3.14785
      vertex -7.40235 -2.87014 -2.97145
    endloop
  endfacet
  facet normal 0 0 -1
    outer loop
      vertex -37 -1.64636 2.94654
      vertex 37 1.64636 2.94654
      vertex 37 -1.64636 2.94654
    endloop
  endfacet
  facet normal -0 0 -1
    outer loop
      vertex 37 1.64636 2.94654
      vertex -37 -1.64636 2.94654
      vertex -37 1.64636 2.94654
    endloop
  endfacet
  facet normal 0 -0.883536 -0.468363
    outer loop
      vertex -37 3.41228 0.4
      vertex 37 2.30401 2.49068
      vertex -37 2.30401 2.49068
    endloop
  endfacet
  facet normal 0 -0.883536 -0.468363
    outer loop
      vertex 37 2.30401 2.49068
      vertex -37 3.41228 0.4
      vertex 37 3.41228 0.4
    endloop
  endfacet
  facet normal 0 0.883536 -0.468363
    outer loop
      vertex 37 -3.41228 0.4
      vertex -37 -2.30401 2.49068
      vertex 37 -2.30401 2.49068
    endloop
  endfacet
  facet normal 0 0.883536 -0.468363
    outer loop
      vertex -37 -2.30401 2.49068
      vertex 37 -3.41228 0.4
      vertex -37 -3.41228 0.4
    endloop
  endfacet
  facet normal -0 0 1
    outer loop
      vertex -37 1.64235 -2.94102
      vertex 37 -1.64235 -2.94102
      vertex 37 1.64235 -2.94102
    endloop
  endfacet
  facet normal 0 0 1
    outer loop
      vertex 37 -1.64235 -2.94102
      vertex -37 1.64235 -2.94102
      vertex -37 -1.64235 -2.94102
    endloop
  endfacet
  facet normal 0 -0.893493 0.449077
    outer loop
      vertex -37 2.2988 -2.48351
      vertex 37 3.34599 -0.4
      vertex -37 3.34599 -0.4
    endloop
  endfacet
  facet normal 0 -0.893493 0.449077
    outer loop
      vertex 37 3.34599 -0.4
      vertex -37 2.2988 -2.48351
      vertex 37 2.2988 -2.48351
    endloop
  endfacet
  facet normal 0 0.893493 0.449077
    outer loop
      vertex 37 -2.2988 -2.48351
      vertex -37 -3.34599 -0.4
      vertex 37 -3.34599 -0.4
    endloop
  endfacet
  facet normal 0 0.893493 0.449077
    outer loop
      vertex -37 -3.34599 -0.4
      vertex 37 -2.2988 -2.48351
      vertex -37 -2.2988 -2.48351
    endloop
  endfacet
  facet normal -0 0 1
    outer loop
      vertex -37 1.08575 2.17493
      vertex 37 -1.08575 2.17493
      vertex 37 1.08575 2.17493
    endloop
  endfacet
  facet normal 0 0 1
    outer loop
      vertex 37 -1.08575 2.17493
      vertex -37 1.08575 2.17493
      vertex -37 -1.08575 2.17493
    endloop
  endfacet
  facet normal 0 0.883537 0.468362
    outer loop
      vertex 37 2.46318 0.4
      vertex -37 1.75528 1.73541
      vertex 37 1.75528 1.73541
    endloop
  endfacet
  facet normal 0 0.883537 0.468362
    outer loop
      vertex -37 1.75528 1.73541
      vertex 37 2.46318 0.4
      vertex -37 2.46318 0.4
    endloop
  endfacet
  facet normal 0 -0.883537 0.468362
    outer loop
      vertex -37 -2.46318 0.4
      vertex 37 -1.75528 1.73541
      vertex -37 -1.75528 1.73541
    endloop
  endfacet
  facet normal 0 -0.883537 0.468362
    outer loop
      vertex 37 -1.75528 1.73541
      vertex -37 -2.46318 0.4
      vertex 37 -2.46318 0.4
    endloop
  endfacet
  facet normal 0 0 -1
    outer loop
      vertex -37 -1.08279 -2.17085
      vertex 37 1.08279 -2.17085
      vertex 37 -1.08279 -2.17085
    endloop
  endfacet
  facet normal -0 0 -1
    outer loop
      vertex 37 1.08279 -2.17085
      vertex -37 -1.08279 -2.17085
      vertex -37 1.08279 -2.17085
    endloop
  endfacet
  facet normal 0 0.893493 -0.449078
    outer loop
      vertex 37 1.74976 -1.72781
      vertex -37 2.41713 -0.4
      vertex 37 2.41713 -0.4
    endloop
  endfacet
  facet normal 0 0.893493 -0.449078
    outer loop
      vertex -37 2.41713 -0.4
      vertex 37 1.74976 -1.72781
      vertex -37 1.74976 -1.72781
    endloop
  endfacet
  facet normal 0 -0.893493 -0.449078
    outer loop
      vertex -37 -1.74976 -1.72781
      vertex 37 -2.41713 -0.4
      vertex -37 -2.41713 -0.4
    endloop
  endfacet
  facet normal 0 -0.893493 -0.449078
    outer loop
      vertex 37 -2.41713 -0.4
      vertex -37 -1.74976 -1.72781
      vertex 37 -1.74976 -1.72781
    endloop
  endfacet
  facet normal 0 0 -1
    outer loop
      vertex -37 -0.716117 1.66617
      vertex 37 0.716117 1.66617
      vertex 37 -0.716117 1.66617
    endloop
  endfacet
  facet normal -0 0 -1
    outer loop
      vertex 37 0.716117 1.66617
      vertex -37 -0.716117 1.66617
      vertex -37 0.716117 1.66617
    endloop
  endfacet
  facet normal 0 -0.883537 -0.468361
    outer loop
      vertex -37 1.83739 0.4
      vertex 37 1.39347 1.23743
      vertex -37 1.39347 1.23743
    endloop
  endfacet
  facet normal 0 -0.883537 -0.468361
    outer loop
      vertex 37 1.39347 1.23743
      vertex -37 1.83739 0.4
      vertex 37 1.83739 0.4
    endloop
  endfacet
  facet normal 0 0.883537 -0.468361
    outer loop
      vertex 37 -1.83739 0.4
      vertex -37 -1.39347 1.23743
      vertex 37 -1.39347 1.23743
    endloop
  endfacet
  facet normal 0 0.883537 -0.468361
    outer loop
      vertex -37 -1.39347 1.23743
      vertex 37 -1.83739 0.4
      vertex -37 -1.83739 0.4
    endloop
  endfacet
  facet normal 0 -0.893492 0.449078
    outer loop
      vertex -37 1.38775 -1.22955
      vertex 37 1.80469 -0.4
      vertex -37 1.80469 -0.4
    endloop
  endfacet
  facet normal 0 -0.893492 0.449078
    outer loop
      vertex 37 1.80469 -0.4
      vertex -37 1.38775 -1.22955
      vertex 37 1.38775 -1.22955
    endloop
  endfacet
  facet normal -0 0 1
    outer loop
      vertex -37 0.713848 -1.66305
      vertex 37 -0.713848 -1.66305
      vertex 37 0.713848 -1.66305
    endloop
  endfacet
  facet normal 0 0 1
    outer loop
      vertex 37 -0.713848 -1.66305
      vertex -37 0.713848 -1.66305
      vertex -37 -0.713848 -1.66305
    endloop
  endfacet
  facet normal 0 0.893492 0.449078
    outer loop
      vertex 37 -1.38775 -1.22955
      vertex -37 -1.80469 -0.4
      vertex 37 -1.80469 -0.4
    endloop
  endfacet
  facet normal 0 0.893492 0.449078
    outer loop
      vertex -37 -1.80469 -0.4
      vertex 37 -1.38775 -1.22955
      vertex -37 -1.38775 -1.22955
    endloop
  endfacet
  facet normal -0.699239 -0.420194 -0.578361
    outer loop
      vertex -7 -2.95796 -3.61808
      vertex -7 -3.54478 -3.19174
      vertex -7.2957 -2.46589 -3.61808
    endloop
  endfacet
  facet normal -0.699261 -0.420185 -0.578342
    outer loop
      vertex -7.2957 -2.46589 -3.61808
      vertex -7.49497 -2.78148 -3.14786
      vertex -7.49497 -2.13427 -3.61808
    endloop
  endfacet
  facet normal -0.699255 -0.420192 -0.578344
    outer loop
      vertex -7 -3.54478 -3.19174
      vertex -7.49497 -2.78148 -3.14786
      vertex -7.2957 -2.46589 -3.61808
    endloop
  endfacet
  facet normal -0.699263 -0.420198 -0.57833
    outer loop
      vertex -7.49497 -2.78148 -3.14786
      vertex -7 -3.54478 -3.19174
      vertex -7.49497 -3.17694 -2.86053
    endloop
  endfacet
  facet normal 0.699247 -0.420193 -0.578352
    outer loop
      vertex -6.50503 -2.78148 -3.14786
      vertex -6.7555 -2.55108 -3.61808
      vertex -6.50503 -2.13427 -3.61808
    endloop
  endfacet
  facet normal 0.699231 -0.420216 -0.578355
    outer loop
      vertex -6.7555 -2.55108 -3.61808
      vertex -6.50503 -2.78148 -3.14786
      vertex -6.50503 -3.17694 -2.86053
    endloop
  endfacet
  facet normal 0.699255 -0.420192 -0.578343
    outer loop
      vertex -6.50503 -3.17694 -2.86053
      vertex -7 -2.95796 -3.61808
      vertex -6.7555 -2.55108 -3.61808
    endloop
  endfacet
  facet normal 0.699261 -0.420182 -0.578344
    outer loop
      vertex -7 -2.95796 -3.61808
      vertex -6.50503 -3.17694 -2.86053
      vertex -7 -3.54478 -3.19174
    endloop
  endfacet
  facet normal 0.69925 0.420195 0.578346
    outer loop
      vertex -6.50503 -3.17694 -2.86053
      vertex -6.50503 -2.78148 -3.14785
      vertex -6.7376 -3.00411 -2.70491
    endloop
  endfacet
  facet normal 1 0 0
    outer loop
      vertex -6.50503 -2.78148 -3.14785
      vertex -6.50503 -3.17694 -2.86053
      vertex -6.50503 -2.78148 -3.14786
    endloop
  endfacet
  facet normal -0.691495 -0.722381 0
    outer loop
      vertex -7.49497 -2.78148 -3.14786
      vertex -7.40235 -2.87014 -2.97145
      vertex -7.49497 -2.78148 -3.14785
    endloop
  endfacet
  facet normal -0.699278 0.420189 0.578318
    outer loop
      vertex -7.40235 -2.87014 -2.97145
      vertex -7.49497 -2.78148 -3.14786
      vertex -7.49497 -3.17694 -2.86053
    endloop
  endfacet
  facet normal -0.69925 0.420192 0.578349
    outer loop
      vertex -7.2624 -3.00411 -2.70491
      vertex -7.40235 -2.87014 -2.97145
      vertex -7.49497 -3.17694 -2.86053
    endloop
  endfacet
  facet normal -0.69926 -0.619093 -0.357434
    outer loop
      vertex -7 -3.54478 -3.19174
      vertex -7 -4.53652 -1.474
      vertex -7.49497 -3.17694 -2.86053
    endloop
  endfacet
  facet normal -0.699254 -0.619096 -0.35744
    outer loop
      vertex -7.49497 -3.17694 -2.86053
      vertex -7 -4.53652 -1.474
      vertex -7.49497 -4.06577 -1.32105
    endloop
  endfacet
  facet normal 0.699261 -0.619091 -0.357437
    outer loop
      vertex -6.50503 -3.17694 -2.86053
      vertex -6.50503 -4.06577 -1.32105
      vertex -7 -3.54478 -3.19174
    endloop
  endfacet
  facet normal 0.699255 -0.619097 -0.357437
    outer loop
      vertex -7 -3.54478 -3.19174
      vertex -6.50503 -4.06577 -1.32105
      vertex -7 -4.53652 -1.474
    endloop
  endfacet
  facet normal 0.699249 0.619103 0.357439
    outer loop
      vertex -6.50503 -3.17694 -2.86053
      vertex -6.7376 -3.00411 -2.70491
      vertex -6.79231 -3.41959 -1.87825
    endloop
  endfacet
  facet normal 0.699259 0.619094 0.357435
    outer loop
      vertex -6.50503 -4.06577 -1.32105
      vertex -6.79231 -3.41959 -1.87825
      vertex -6.83595 -3.75104 -1.21879
    endloop
  endfacet
  facet normal 0.699255 0.619096 0.357439
    outer loop
      vertex -6.79231 -3.41959 -1.87825
      vertex -6.50503 -4.06577 -1.32105
      vertex -6.50503 -3.17694 -2.86053
    endloop
  endfacet
  facet normal -0.699249 0.619102 0.35744
    outer loop
      vertex -7.49497 -3.17694 -2.86053
      vertex -7.2159 -3.35725 -2.00229
      vertex -7.2624 -3.00411 -2.70491
    endloop
  endfacet
  facet normal -0.699252 0.619098 0.357441
    outer loop
      vertex -7.2159 -3.35725 -2.00229
      vertex -7.49497 -3.17694 -2.86053
      vertex -7.49497 -4.06577 -1.32105
    endloop
  endfacet
  facet normal -0.699259 0.619094 0.357434
    outer loop
      vertex -7.16405 -3.75104 -1.21879
      vertex -7.2159 -3.35725 -2.00229
      vertex -7.49497 -4.06577 -1.32105
    endloop
  endfacet
  facet normal -0.699256 -0.710955 -0.0747214
    outer loop
      vertex -7 -4.53652 -1.474
      vertex -7 -4.74384 0.498598
      vertex -7.49497 -4.06577 -1.32105
    endloop
  endfacet
  facet normal -0.699254 -0.710957 -0.0747228
    outer loop
      vertex -7.49497 -4.06577 -1.32105
      vertex -7 -4.74384 0.498598
      vertex -7.49497 -4.25158 0.446858
    endloop
  endfacet
  facet normal 0.699256 -0.710955 -0.0747225
    outer loop
      vertex -6.50503 -4.06577 -1.32105
      vertex -6.50503 -4.25158 0.446858
      vertex -7 -4.53652 -1.474
    endloop
  endfacet
  facet normal 0.699254 -0.710957 -0.0747216
    outer loop
      vertex -7 -4.53652 -1.474
      vertex -6.50503 -4.25158 0.446858
      vertex -7 -4.74384 0.498598
    endloop
  endfacet
  facet normal 0.69926 0.710952 0.0747219
    outer loop
      vertex -6.66005 -3.96979 -0.783563
      vertex -6.50503 -4.06577 -1.32105
      vertex -6.83595 -3.75104 -1.21879
    endloop
  endfacet
  facet normal 1 0 0
    outer loop
      vertex -6.50503 -4.25158 0.446858
      vertex -6.50503 -4.16257 -0.4
      vertex -6.50503 -4.24665 0.4
    endloop
  endfacet
  facet normal 0.699255 0.710957 0.0747197
    outer loop
      vertex -6.50503 -4.16257 -0.4
      vertex -6.50503 -4.06577 -1.32105
      vertex -6.66005 -3.96979 -0.783563
    endloop
  endfacet
  facet normal 1 0 0
    outer loop
      vertex -6.50503 -4.06577 -1.32105
      vertex -6.50503 -4.16257 -0.4
      vertex -6.50503 -4.25158 0.446858
    endloop
  endfacet
  facet normal 0.699185 0.711016 0.0748071
    outer loop
      vertex -6.50503 -4.25158 0.446858
      vertex -6.50503 -4.24665 0.4
      vertex -6.53338 -4.22339 0.443895
    endloop
  endfacet
  facet normal -0.699131 0.711069 0.0748126
    outer loop
      vertex -7.48523 -4.23866 0.415079
      vertex -7.49497 -4.24665 0.4
      vertex -7.49497 -4.25158 0.446858
    endloop
  endfacet
  facet normal -1 0 0
    outer loop
      vertex -7.49497 -4.16257 -0.4
      vertex -7.49497 -4.25158 0.446858
      vertex -7.49497 -4.24665 0.4
    endloop
  endfacet
  facet normal -1 -0 -0
    outer loop
      vertex -7.49497 -4.16257 -0.4
      vertex -7.49497 -4.06577 -1.32105
      vertex -7.49497 -4.25158 0.446858
    endloop
  endfacet
  facet normal -0.699259 0.710953 0.0747193
    outer loop
      vertex -7.49497 -4.06577 -1.32105
      vertex -7.49497 -4.16257 -0.4
      vertex -7.16405 -3.75104 -1.21879
    endloop
  endfacet
  facet normal -0.699189 0.711016 0.0747737
    outer loop
      vertex -7.46662 -4.22339 0.443895
      vertex -7.48523 -4.23866 0.415079
      vertex -7.49497 -4.25158 0.446858
    endloop
  endfacet
  facet normal -0.699254 -0.679885 0.220906
    outer loop
      vertex -7 -4.74384 0.498598
      vertex -7 -4.13092 2.38499
      vertex -7.49497 -4.25158 0.446858
    endloop
  endfacet
  facet normal -0.699256 -0.679883 0.220906
    outer loop
      vertex -7 -4.13092 2.38499
      vertex -7.49497 -3.70226 2.1375
      vertex -7.49497 -4.25158 0.446858
    endloop
  endfacet
  facet normal 0.699254 -0.679885 0.220907
    outer loop
      vertex -6.50503 -4.25158 0.446858
      vertex -6.50503 -3.70226 2.1375
      vertex -7 -4.74384 0.498598
    endloop
  endfacet
  facet normal 0.699256 -0.679884 0.220905
    outer loop
      vertex -6.50503 -3.70226 2.1375
      vertex -7 -4.13092 2.38499
      vertex -7 -4.74384 0.498598
    endloop
  endfacet
  facet normal 0.69919 0.679934 -0.220961
    outer loop
      vertex -6.50503 -4.25158 0.446858
      vertex -6.53338 -4.22339 0.443895
      vertex -6.57421 -4.11489 0.648569
    endloop
  endfacet
  facet normal 0.699256 0.679883 -0.220907
    outer loop
      vertex -6.50503 -3.70226 2.1375
      vertex -6.57421 -4.11489 0.648569
      vertex -6.83803 -3.41387 1.971
    endloop
  endfacet
  facet normal 0.699252 0.679887 -0.220907
    outer loop
      vertex -6.57421 -4.11489 0.648569
      vertex -6.50503 -3.70226 2.1375
      vertex -6.50503 -4.25158 0.446858
    endloop
  endfacet
  facet normal -0.699191 0.679935 -0.220955
    outer loop
      vertex -7.49497 -4.25158 0.446858
      vertex -7.27984 -3.72706 1.38018
      vertex -7.46662 -4.22339 0.443895
    endloop
  endfacet
  facet normal -0.699267 0.679873 -0.220903
    outer loop
      vertex -7.27984 -3.72706 1.38018
      vertex -7.49497 -4.25158 0.446858
      vertex -7.49497 -3.70226 2.1375
    endloop
  endfacet
  facet normal -0.699256 0.679886 -0.2209
    outer loop
      vertex -7.16197 -3.41387 1.971
      vertex -7.27984 -3.72706 1.38018
      vertex -7.49497 -3.70226 2.1375
    endloop
  endfacet
  facet normal -0.699269 -0.531239 0.478339
    outer loop
      vertex -7.49497 -3.70226 2.1375
      vertex -7 -3.01452 3.62488
      vertex -7.06731 -2.92592 3.62488
    endloop
  endfacet
  facet normal -0.699257 -0.531253 0.478341
    outer loop
      vertex -7 -3.01452 3.62488
      vertex -7.49497 -3.70226 2.1375
      vertex -7 -4.13092 2.38499
    endloop
  endfacet
  facet normal -0.699267 -0.531247 0.478332
    outer loop
      vertex -7.49497 -2.78641 3.15465
      vertex -7.28938 -2.63363 3.62488
      vertex -7.49497 -2.51278 3.45855
    endloop
  endfacet
  facet normal -0.699254 -0.531265 0.478332
    outer loop
      vertex -7.49497 -2.78641 3.15465
      vertex -7.06731 -2.92592 3.62488
      vertex -7.28938 -2.63363 3.62488
    endloop
  endfacet
  facet normal -0.699259 -0.53125 0.478341
    outer loop
      vertex -7.06731 -2.92592 3.62488
      vertex -7.49497 -2.78641 3.15465
      vertex -7.49497 -3.70226 2.1375
    endloop
  endfacet
  facet normal 0.699265 -0.531249 0.478334
    outer loop
      vertex -7 -4.13092 2.38499
      vertex -6.50503 -2.78641 3.15465
      vertex -6.50503 -2.51278 3.45855
    endloop
  endfacet
  facet normal 0.699257 -0.531251 0.478343
    outer loop
      vertex -6.50503 -2.78641 3.15465
      vertex -7 -4.13092 2.38499
      vertex -6.50503 -3.70226 2.1375
    endloop
  endfacet
  facet normal 0.699265 -0.531264 0.478317
    outer loop
      vertex -7 -3.01452 3.62488
      vertex -6.50503 -2.51278 3.45855
      vertex -6.71062 -2.63363 3.62488
    endloop
  endfacet
  facet normal 0.699259 -0.531251 0.47834
    outer loop
      vertex -6.50503 -2.51278 3.45855
      vertex -7 -3.01452 3.62488
      vertex -7 -4.13092 2.38499
    endloop
  endfacet
  facet normal 0.699255 0.531248 -0.47835
    outer loop
      vertex -6.69289 -3.14038 2.4869
      vertex -6.50503 -3.70226 2.1375
      vertex -6.83803 -3.41387 1.971
    endloop
  endfacet
  facet normal 0.699268 0.531243 -0.478336
    outer loop
      vertex -6.69289 -3.14038 2.4869
      vertex -6.50503 -2.78641 3.15465
      vertex -6.50503 -3.70226 2.1375
    endloop
  endfacet
  facet normal -0.699255 0.531252 -0.478344
    outer loop
      vertex -7.49497 -3.70226 2.1375
      vertex -7.49497 -2.78641 3.15465
      vertex -7.16197 -3.41387 1.971
    endloop
  endfacet
  facet normal -0.699267 -0.290779 0.653049
    outer loop
      vertex -7.28938 -2.63363 3.62488
      vertex -7.42678 -2.30321 3.62488
      vertex -7.49497 -2.51278 3.45855
    endloop
  endfacet
  facet normal -0.699304 -0.290748 0.653024
    outer loop
      vertex -7.42678 -2.30321 3.62488
      vertex -7.49497 -2.1392 3.62488
      vertex -7.49497 -2.51278 3.45855
    endloop
  endfacet
  facet normal 0.699265 -0.290763 0.653058
    outer loop
      vertex -6.50503 -2.51278 3.45855
      vertex -6.50503 -2.1392 3.62488
      vertex -6.71062 -2.63363 3.62488
    endloop
  endfacet
  facet normal -0.699265 0.290763 0.653058
    outer loop
      vertex -7.28938 2.63363 3.62488
      vertex -7.49497 2.51278 3.45855
      vertex -7.49497 2.1392 3.62488
    endloop
  endfacet
  facet normal 0.699304 0.290748 0.653024
    outer loop
      vertex -6.50503 2.1392 3.62488
      vertex -6.50503 2.51278 3.45855
      vertex -6.57322 2.30321 3.62488
    endloop
  endfacet
  facet normal 0.699267 0.290779 0.653049
    outer loop
      vertex -6.57322 2.30321 3.62488
      vertex -6.50503 2.51278 3.45855
      vertex -6.71062 2.63363 3.62488
    endloop
  endfacet
  facet normal -0.699259 0.531251 0.47834
    outer loop
      vertex -7.49497 2.51278 3.45855
      vertex -7 3.01452 3.62488
      vertex -7 4.13092 2.38499
    endloop
  endfacet
  facet normal -0.699265 0.531264 0.478317
    outer loop
      vertex -7 3.01452 3.62488
      vertex -7.49497 2.51278 3.45855
      vertex -7.28938 2.63363 3.62488
    endloop
  endfacet
  facet normal -0.699257 0.531251 0.478343
    outer loop
      vertex -7.49497 2.78641 3.15465
      vertex -7 4.13092 2.38499
      vertex -7.49497 3.70226 2.1375
    endloop
  endfacet
  facet normal -0.699265 0.531249 0.478334
    outer loop
      vertex -7 4.13092 2.38499
      vertex -7.49497 2.78641 3.15465
      vertex -7.49497 2.51278 3.45855
    endloop
  endfacet
  facet normal 0.699259 0.53125 0.478341
    outer loop
      vertex -6.93269 2.92592 3.62488
      vertex -6.50503 2.78641 3.15465
      vertex -6.50503 3.70226 2.1375
    endloop
  endfacet
  facet normal 0.699254 0.531265 0.478332
    outer loop
      vertex -6.71062 2.63363 3.62488
      vertex -6.50503 2.78641 3.15465
      vertex -6.93269 2.92592 3.62488
    endloop
  endfacet
  facet normal 0.699267 0.531247 0.478332
    outer loop
      vertex -6.50503 2.78641 3.15465
      vertex -6.71062 2.63363 3.62488
      vertex -6.50503 2.51278 3.45855
    endloop
  endfacet
  facet normal 0.699257 0.531253 0.478341
    outer loop
      vertex -7 3.01452 3.62488
      vertex -6.50503 3.70226 2.1375
      vertex -7 4.13092 2.38499
    endloop
  endfacet
  facet normal 0.699269 0.531239 0.478339
    outer loop
      vertex -6.50503 3.70226 2.1375
      vertex -7 3.01452 3.62488
      vertex -6.93269 2.92592 3.62488
    endloop
  endfacet
  facet normal 0.699255 -0.531252 -0.478344
    outer loop
      vertex -6.50503 3.70226 2.1375
      vertex -6.50503 2.78641 3.15465
      vertex -6.83803 3.41387 1.971
    endloop
  endfacet
  facet normal -0.699268 -0.531243 -0.478336
    outer loop
      vertex -7.30711 3.14038 2.4869
      vertex -7.49497 2.78641 3.15465
      vertex -7.49497 3.70226 2.1375
    endloop
  endfacet
  facet normal -0.699255 -0.531248 -0.47835
    outer loop
      vertex -7.16197 3.41387 1.971
      vertex -7.30711 3.14038 2.4869
      vertex -7.49497 3.70226 2.1375
    endloop
  endfacet
  facet normal -0.699256 0.679884 0.220905
    outer loop
      vertex -7 4.13092 2.38499
      vertex -7 4.74384 0.498598
      vertex -7.49497 3.70226 2.1375
    endloop
  endfacet
  facet normal -0.699254 0.679885 0.220907
    outer loop
      vertex -7 4.74384 0.498598
      vertex -7.49497 4.25158 0.446858
      vertex -7.49497 3.70226 2.1375
    endloop
  endfacet
  facet normal 0.699256 0.679883 0.220906
    outer loop
      vertex -6.50503 3.70226 2.1375
      vertex -6.50503 4.25158 0.446858
      vertex -7 4.13092 2.38499
    endloop
  endfacet
  facet normal 0.699254 0.679885 0.220906
    outer loop
      vertex -6.50503 4.25158 0.446858
      vertex -7 4.74384 0.498598
      vertex -7 4.13092 2.38499
    endloop
  endfacet
  facet normal 0.699256 -0.679886 -0.2209
    outer loop
      vertex -6.72016 3.72706 1.38018
      vertex -6.50503 3.70226 2.1375
      vertex -6.83803 3.41387 1.971
    endloop
  endfacet
  facet normal 0.699191 -0.679935 -0.220955
    outer loop
      vertex -6.50503 4.25158 0.446858
      vertex -6.72016 3.72706 1.38018
      vertex -6.53338 4.22339 0.443895
    endloop
  endfacet
  facet normal 0.699267 -0.679873 -0.220903
    outer loop
      vertex -6.72016 3.72706 1.38018
      vertex -6.50503 4.25158 0.446858
      vertex -6.50503 3.70226 2.1375
    endloop
  endfacet
  facet normal -0.699252 -0.679887 -0.220907
    outer loop
      vertex -7.42579 4.11489 0.648569
      vertex -7.49497 3.70226 2.1375
      vertex -7.49497 4.25158 0.446858
    endloop
  endfacet
  facet normal -0.699256 -0.679883 -0.220907
    outer loop
      vertex -7.49497 3.70226 2.1375
      vertex -7.42579 4.11489 0.648569
      vertex -7.16197 3.41387 1.971
    endloop
  endfacet
  facet normal -0.69919 -0.679934 -0.220961
    outer loop
      vertex -7.46662 4.22339 0.443895
      vertex -7.42579 4.11489 0.648569
      vertex -7.49497 4.25158 0.446858
    endloop
  endfacet
  facet normal -0.699254 0.710957 -0.0747216
    outer loop
      vertex -7 4.74384 0.498598
      vertex -7 4.53652 -1.474
      vertex -7.49497 4.25158 0.446858
    endloop
  endfacet
  facet normal -0.699256 0.710955 -0.0747225
    outer loop
      vertex -7.49497 4.25158 0.446858
      vertex -7 4.53652 -1.474
      vertex -7.49497 4.06577 -1.32105
    endloop
  endfacet
  facet normal 0.699254 0.710957 -0.0747228
    outer loop
      vertex -6.50503 4.25158 0.446858
      vertex -6.50503 4.06577 -1.32105
      vertex -7 4.74384 0.498598
    endloop
  endfacet
  facet normal 0.699256 0.710955 -0.0747214
    outer loop
      vertex -7 4.74384 0.498598
      vertex -6.50503 4.06577 -1.32105
      vertex -7 4.53652 -1.474
    endloop
  endfacet
  facet normal 0.699189 -0.711016 0.0747737
    outer loop
      vertex -6.51477 4.23866 0.415079
      vertex -6.50503 4.25158 0.446858
      vertex -6.53338 4.22339 0.443895
    endloop
  endfacet
  facet normal 0.699131 -0.711069 0.0748126
    outer loop
      vertex -6.51477 4.23866 0.415079
      vertex -6.50503 4.24665 0.4
      vertex -6.50503 4.25158 0.446858
    endloop
  endfacet
  facet normal 1 0 0
    outer loop
      vertex -6.50503 4.16257 -0.4
      vertex -6.50503 4.25158 0.446858
      vertex -6.50503 4.24665 0.4
    endloop
  endfacet
  facet normal 1 -0 0
    outer loop
      vertex -6.50503 4.16257 -0.4
      vertex -6.50503 4.06577 -1.32105
      vertex -6.50503 4.25158 0.446858
    endloop
  endfacet
  facet normal 0.699259 -0.710953 0.0747193
    outer loop
      vertex -6.50503 4.06577 -1.32105
      vertex -6.50503 4.16257 -0.4
      vertex -6.83595 3.75104 -1.21879
    endloop
  endfacet
  facet normal -1 0 0
    outer loop
      vertex -7.49497 4.25158 0.446858
      vertex -7.49497 4.16257 -0.4
      vertex -7.49497 4.24665 0.4
    endloop
  endfacet
  facet normal -0.699255 -0.710957 0.0747197
    outer loop
      vertex -7.49497 4.16257 -0.4
      vertex -7.49497 4.06577 -1.32105
      vertex -7.33995 3.96979 -0.783563
    endloop
  endfacet
  facet normal -1 0 0
    outer loop
      vertex -7.49497 4.06577 -1.32105
      vertex -7.49497 4.16257 -0.4
      vertex -7.49497 4.25158 0.446858
    endloop
  endfacet
  facet normal -0.699185 -0.711016 0.0748071
    outer loop
      vertex -7.49497 4.25158 0.446858
      vertex -7.49497 4.24665 0.4
      vertex -7.46662 4.22339 0.443895
    endloop
  endfacet
  facet normal -0.69926 -0.710952 0.0747219
    outer loop
      vertex -7.16405 3.75104 -1.21879
      vertex -7.33995 3.96979 -0.783563
      vertex -7.49497 4.06577 -1.32105
    endloop
  endfacet
  facet normal -0.699255 0.619097 -0.357437
    outer loop
      vertex -7 4.53652 -1.474
      vertex -7 3.54478 -3.19174
      vertex -7.49497 4.06577 -1.32105
    endloop
  endfacet
  facet normal -0.699261 0.619091 -0.357437
    outer loop
      vertex -7.49497 4.06577 -1.32105
      vertex -7 3.54478 -3.19174
      vertex -7.49497 3.17694 -2.86053
    endloop
  endfacet
  facet normal 0.699254 0.619096 -0.35744
    outer loop
      vertex -6.50503 4.06577 -1.32105
      vertex -6.50503 3.17694 -2.86053
      vertex -7 4.53652 -1.474
    endloop
  endfacet
  facet normal 0.69926 0.619093 -0.357434
    outer loop
      vertex -7 4.53652 -1.474
      vertex -6.50503 3.17694 -2.86053
      vertex -7 3.54478 -3.19174
    endloop
  endfacet
  facet normal 0.699259 -0.619094 0.357434
    outer loop
      vertex -6.7841 3.35725 -2.00229
      vertex -6.50503 4.06577 -1.32105
      vertex -6.83595 3.75104 -1.21879
    endloop
  endfacet
  facet normal 0.699252 -0.619098 0.357441
    outer loop
      vertex -6.7841 3.35725 -2.00229
      vertex -6.50503 3.17694 -2.86053
      vertex -6.50503 4.06577 -1.32105
    endloop
  endfacet
  facet normal 0.699249 -0.619102 0.35744
    outer loop
      vertex -6.50503 3.17694 -2.86053
      vertex -6.7841 3.35725 -2.00229
      vertex -6.7376 3.00411 -2.70491
    endloop
  endfacet
  facet normal -0.699259 -0.619094 0.357435
    outer loop
      vertex -7.49497 4.06577 -1.32105
      vertex -7.20769 3.41959 -1.87825
      vertex -7.16405 3.75104 -1.21879
    endloop
  endfacet
  facet normal -0.699255 -0.619096 0.357439
    outer loop
      vertex -7.20769 3.41959 -1.87825
      vertex -7.49497 4.06577 -1.32105
      vertex -7.49497 3.17694 -2.86053
    endloop
  endfacet
  facet normal -0.699249 -0.619103 0.357439
    outer loop
      vertex -7.2624 3.00411 -2.70491
      vertex -7.20769 3.41959 -1.87825
      vertex -7.49497 3.17694 -2.86053
    endloop
  endfacet
  facet normal -0.699261 0.420182 -0.578344
    outer loop
      vertex -7 2.95796 -3.61808
      vertex -7.49497 3.17694 -2.86053
      vertex -7 3.54478 -3.19174
    endloop
  endfacet
  facet normal -0.699255 0.420192 -0.578343
    outer loop
      vertex -7.49497 3.17694 -2.86053
      vertex -7 2.95796 -3.61808
      vertex -7.2445 2.55108 -3.61808
    endloop
  endfacet
  facet normal -0.699231 0.420216 -0.578355
    outer loop
      vertex -7.2445 2.55108 -3.61808
      vertex -7.49497 2.78148 -3.14786
      vertex -7.49497 3.17694 -2.86053
    endloop
  endfacet
  facet normal -0.699247 0.420193 -0.578352
    outer loop
      vertex -7.49497 2.78148 -3.14786
      vertex -7.2445 2.55108 -3.61808
      vertex -7.49497 2.13427 -3.61808
    endloop
  endfacet
  facet normal 0.699263 0.420198 -0.57833
    outer loop
      vertex -6.50503 2.78148 -3.14786
      vertex -7 3.54478 -3.19174
      vertex -6.50503 3.17694 -2.86053
    endloop
  endfacet
  facet normal 0.699255 0.420192 -0.578344
    outer loop
      vertex -6.50503 2.78148 -3.14786
      vertex -6.7043 2.46589 -3.61808
      vertex -7 3.54478 -3.19174
    endloop
  endfacet
  facet normal 0.699261 0.420185 -0.578342
    outer loop
      vertex -6.7043 2.46589 -3.61808
      vertex -6.50503 2.78148 -3.14786
      vertex -6.50503 2.13427 -3.61808
    endloop
  endfacet
  facet normal 0.699239 0.420194 -0.578361
    outer loop
      vertex -7 3.54478 -3.19174
      vertex -6.7043 2.46589 -3.61808
      vertex -7 2.95796 -3.61808
    endloop
  endfacet
  facet normal 0.69925 -0.420192 0.578349
    outer loop
      vertex -6.59765 2.87014 -2.97145
      vertex -6.50503 3.17694 -2.86053
      vertex -6.7376 3.00411 -2.70491
    endloop
  endfacet
  facet normal 0.691495 0.722381 -0
    outer loop
      vertex -6.50503 2.78148 -3.14786
      vertex -6.59765 2.87014 -2.97145
      vertex -6.50503 2.78148 -3.14785
    endloop
  endfacet
  facet normal 0.699278 -0.420189 0.578318
    outer loop
      vertex -6.59765 2.87014 -2.97145
      vertex -6.50503 2.78148 -3.14786
      vertex -6.50503 3.17694 -2.86053
    endloop
  endfacet
  facet normal -1 0 0
    outer loop
      vertex -7.49497 2.78148 -3.14785
      vertex -7.49497 3.17694 -2.86053
      vertex -7.49497 2.78148 -3.14786
    endloop
  endfacet
  facet normal -0.69925 -0.420195 0.578346
    outer loop
      vertex -7.49497 3.17694 -2.86053
      vertex -7.49497 2.78148 -3.14785
      vertex -7.2624 3.00411 -2.70491
    endloop
  endfacet
endsolid OpenSCAD_Model
