solid OpenSCAD_Model
  facet normal -1 0 0
    outer loop
      vertex -89.5 -2.78148 -3.14785
      vertex -89.5 -2.2988 -2.48351
      vertex -89.5 -2.78148 -3.14786
    endloop
  endfacet
  facet normal -1 0 0
    outer loop
      vertex -89.5 -4.16257 -0.4
      vertex -89.5 -2.2988 -2.48351
      vertex -89.5 -2.78148 -3.14785
    endloop
  endfacet
  facet normal -1 0 0
    outer loop
      vertex -89.5 -3.34599 -0.4
      vertex -89.5 -4.16257 -0.4
      vertex -89.5 -3.41228 0.4
    endloop
  endfacet
  facet normal -1 0 0
    outer loop
      vertex -89.5 -2.2988 -2.48351
      vertex -89.5 -4.16257 -0.4
      vertex -89.5 -3.34599 -0.4
    endloop
  endfacet
  facet normal -1 0 0
    outer loop
      vertex -89.5 -1.80469 -0.4
      vertex -89.5 -0.785044 0.4
      vertex -89.5 -0.785044 -0.4
    endloop
  endfacet
  facet normal -1 -0 0
    outer loop
      vertex -89.5 -0.785044 0.4
      vertex -89.5 -1.80469 -0.4
      vertex -89.5 -1.83739 0.4
    endloop
  endfacet
  facet normal -1 0 0
    outer loop
      vertex -89.5 2.41713 -0.4
      vertex -89.5 1.80469 -0.4
      vertex -89.5 1.83739 0.4
    endloop
  endfacet
  facet normal -1 0 0
    outer loop
      vertex -89.5 1.38775 -1.22955
      vertex -89.5 2.41713 -0.4
      vertex -89.5 1.74976 -1.72781
    endloop
  endfacet
  facet normal -1 0 0
    outer loop
      vertex -89.5 1.08279 -2.17085
      vertex -89.5 1.74976 -1.72781
      vertex -89.5 1.64235 -2.94102
    endloop
  endfacet
  facet normal -1 -0 0
    outer loop
      vertex -89.5 2.41713 -0.4
      vertex -89.5 1.38775 -1.22955
      vertex -89.5 1.80469 -0.4
    endloop
  endfacet
  facet normal -1 -0 0
    outer loop
      vertex -89.5 1.74976 -1.72781
      vertex -89.5 1.08279 -2.17085
      vertex -89.5 1.38775 -1.22955
    endloop
  endfacet
  facet normal -1 0 0
    outer loop
      vertex -89.5 0.713848 -1.66305
      vertex -89.5 1.38775 -1.22955
      vertex -89.5 1.08279 -2.17085
    endloop
  endfacet
  facet normal -1 0 0
    outer loop
      vertex -89.5 0 0.680521
      vertex -89.5 0.785044 0.4
      vertex -89.5 0.785044 -0.4
    endloop
  endfacet
  facet normal -1 0 0
    outer loop
      vertex -89.5 0 -0.680521
      vertex -89.5 0.785044 -0.4
      vertex -89.5 0.713848 -1.66305
    endloop
  endfacet
  facet normal -1 -0 0
    outer loop
      vertex -89.5 1.38775 -1.22955
      vertex -89.5 0.713848 -1.66305
      vertex -89.5 0.785044 -0.4
    endloop
  endfacet
  facet normal -1 0 0
    outer loop
      vertex -89.5 1.08279 -2.17085
      vertex -89.5 -0.713848 -1.66305
      vertex -89.5 0.713848 -1.66305
    endloop
  endfacet
  facet normal -1 0 0
    outer loop
      vertex -89.5 -0.785044 0.4
      vertex -89.5 0 0.680521
      vertex -89.5 -0.785044 -0.4
    endloop
  endfacet
  facet normal -1 0 0
    outer loop
      vertex -89.5 -1.08279 -2.17085
      vertex -89.5 -0.713848 -1.66305
      vertex -89.5 1.08279 -2.17085
    endloop
  endfacet
  facet normal -1 0 0
    outer loop
      vertex -89.5 -1.38775 -1.22955
      vertex -89.5 -0.713848 -1.66305
      vertex -89.5 -1.08279 -2.17085
    endloop
  endfacet
  facet normal -1 0 0
    outer loop
      vertex -89.5 -0.713848 -1.66305
      vertex -89.5 -1.38775 -1.22955
      vertex -89.5 -0.785044 -0.4
    endloop
  endfacet
  facet normal -1 0 0
    outer loop
      vertex -89.5 -1.74976 -1.72781
      vertex -89.5 -1.08279 -2.17085
      vertex -89.5 -1.64235 -2.94102
    endloop
  endfacet
  facet normal -1 0 0
    outer loop
      vertex -89.5 -1.08279 -2.17085
      vertex -89.5 -1.74976 -1.72781
      vertex -89.5 -1.38775 -1.22955
    endloop
  endfacet
  facet normal -1 0 0
    outer loop
      vertex -89.5 -2.41713 -0.4
      vertex -89.5 -1.38775 -1.22955
      vertex -89.5 -1.74976 -1.72781
    endloop
  endfacet
  facet normal -1 0 0
    outer loop
      vertex -89.5 -1.80469 -0.4
      vertex -89.5 -2.41713 -0.4
      vertex -89.5 -1.83739 0.4
    endloop
  endfacet
  facet normal -1 0 0
    outer loop
      vertex -89.5 -1.38775 -1.22955
      vertex -89.5 -2.41713 -0.4
      vertex -89.5 -1.80469 -0.4
    endloop
  endfacet
  facet normal -1 -0 0
    outer loop
      vertex -89.5 2.78148 -3.14786
      vertex -89.5 2.13426 -3.61808
      vertex -89.5 2.2988 -2.48351
    endloop
  endfacet
  facet normal -1 0 0
    outer loop
      vertex -89.5 1.64235 -2.94102
      vertex -89.5 2.2988 -2.48351
      vertex -89.5 2.13426 -3.61808
    endloop
  endfacet
  facet normal -1 -0 0
    outer loop
      vertex -89.5 2.2988 -2.48351
      vertex -89.5 1.64235 -2.94102
      vertex -89.5 1.74976 -1.72781
    endloop
  endfacet
  facet normal -1 0 0
    outer loop
      vertex -89.5 2.13426 -3.61808
      vertex -89.5 -1.64235 -2.94102
      vertex -89.5 1.64235 -2.94102
    endloop
  endfacet
  facet normal -1 0 0
    outer loop
      vertex -89.5 -2.13426 -3.61808
      vertex -89.5 -1.64235 -2.94102
      vertex -89.5 2.13426 -3.61808
    endloop
  endfacet
  facet normal -1 0 0
    outer loop
      vertex -89.5 -2.2988 -2.48351
      vertex -89.5 -1.64235 -2.94102
      vertex -89.5 -2.13426 -3.61808
    endloop
  endfacet
  facet normal -1 0 0
    outer loop
      vertex -89.5 -1.64235 -2.94102
      vertex -89.5 -2.2988 -2.48351
      vertex -89.5 -1.74976 -1.72781
    endloop
  endfacet
  facet normal -1 0 0
    outer loop
      vertex -89.5 -2.13426 -3.61808
      vertex -89.5 -2.78148 -3.14786
      vertex -89.5 -2.2988 -2.48351
    endloop
  endfacet
  facet normal -1 0 0
    outer loop
      vertex -89.5 4.16257 -0.4
      vertex -89.5 3.34599 -0.4
      vertex -89.5 3.41228 0.4
    endloop
  endfacet
  facet normal -1 0 0
    outer loop
      vertex -89.5 2.2988 -2.48351
      vertex -89.5 4.16257 -0.4
      vertex -89.5 2.78148 -3.14785
    endloop
  endfacet
  facet normal -1 0 0
    outer loop
      vertex -89.5 2.2988 -2.48351
      vertex -89.5 2.78148 -3.14785
      vertex -89.5 2.78148 -3.14786
    endloop
  endfacet
  facet normal -1 -0 0
    outer loop
      vertex -89.5 4.16257 -0.4
      vertex -89.5 2.2988 -2.48351
      vertex -89.5 3.34599 -0.4
    endloop
  endfacet
  facet normal -1 0 0
    outer loop
      vertex -89.5 3.41228 0.4
      vertex -89.5 4.24665 0.4
      vertex -89.5 4.16257 -0.4
    endloop
  endfacet
  facet normal -1 0 0
    outer loop
      vertex -89.5 3.41228 0.4
      vertex -89.5 2.78641 3.15465
      vertex -89.5 4.24665 0.4
    endloop
  endfacet
  facet normal -1 0 0
    outer loop
      vertex -89.5 2.30401 2.49068
      vertex -89.5 2.78641 3.15465
      vertex -89.5 3.41228 0.4
    endloop
  endfacet
  facet normal -1 -0 0
    outer loop
      vertex -89.5 2.78641 3.15465
      vertex -89.5 2.30401 2.49068
      vertex -89.5 2.51278 3.45855
    endloop
  endfacet
  facet normal -1 0 0
    outer loop
      vertex -89.5 1.64636 2.94654
      vertex -89.5 2.51278 3.45855
      vertex -89.5 2.30401 2.49068
    endloop
  endfacet
  facet normal -1 0 0
    outer loop
      vertex -89.5 1.64636 2.94654
      vertex -89.5 2.30401 2.49068
      vertex -89.5 1.75528 1.73541
    endloop
  endfacet
  facet normal -1 -0 0
    outer loop
      vertex -89.5 2.51278 3.45855
      vertex -89.5 1.64636 2.94654
      vertex -89.5 2.1392 3.62488
    endloop
  endfacet
  facet normal -1 0 0
    outer loop
      vertex -89.5 -1.64636 2.94654
      vertex -89.5 2.1392 3.62488
      vertex -89.5 1.64636 2.94654
    endloop
  endfacet
  facet normal -1 0 0
    outer loop
      vertex -89.5 -1.64636 2.94654
      vertex -89.5 -2.1392 3.62488
      vertex -89.5 2.1392 3.62488
    endloop
  endfacet
  facet normal -1 0 0
    outer loop
      vertex -89.5 -2.30401 2.49068
      vertex -89.5 -1.64636 2.94654
      vertex -89.5 -1.75528 1.73541
    endloop
  endfacet
  facet normal -1 0 0
    outer loop
      vertex -89.5 -2.51278 3.45855
      vertex -89.5 -1.64636 2.94654
      vertex -89.5 -2.30401 2.49068
    endloop
  endfacet
  facet normal -1 0 0
    outer loop
      vertex -89.5 -1.64636 2.94654
      vertex -89.5 -2.51278 3.45855
      vertex -89.5 -2.1392 3.62488
    endloop
  endfacet
  facet normal -1 0 0
    outer loop
      vertex -89.5 -2.30401 2.49068
      vertex -89.5 -2.78641 3.15465
      vertex -89.5 -2.51278 3.45855
    endloop
  endfacet
  facet normal -1 0 0
    outer loop
      vertex -89.5 -3.41228 0.4
      vertex -89.5 -2.78641 3.15465
      vertex -89.5 -2.30401 2.49068
    endloop
  endfacet
  facet normal -1 0 0
    outer loop
      vertex -89.5 -4.24665 0.4
      vertex -89.5 -3.41228 0.4
      vertex -89.5 -4.16257 -0.4
    endloop
  endfacet
  facet normal -1 0 0
    outer loop
      vertex -89.5 -3.41228 0.4
      vertex -89.5 -4.24665 0.4
      vertex -89.5 -2.78641 3.15465
    endloop
  endfacet
  facet normal -1 0 0
    outer loop
      vertex -89.5 3.34599 -0.4
      vertex -89.5 2.46318 0.4
      vertex -89.5 3.41228 0.4
    endloop
  endfacet
  facet normal -1 0 0
    outer loop
      vertex -89.5 2.41713 -0.4
      vertex -89.5 2.46318 0.4
      vertex -89.5 3.34599 -0.4
    endloop
  endfacet
  facet normal -1 0 0
    outer loop
      vertex -89.5 1.83739 0.4
      vertex -89.5 2.46318 0.4
      vertex -89.5 2.41713 -0.4
    endloop
  endfacet
  facet normal -1 0 0
    outer loop
      vertex -89.5 1.83739 0.4
      vertex -89.5 1.75528 1.73541
      vertex -89.5 2.46318 0.4
    endloop
  endfacet
  facet normal -1 0 0
    outer loop
      vertex -89.5 1.39347 1.23743
      vertex -89.5 1.75528 1.73541
      vertex -89.5 1.83739 0.4
    endloop
  endfacet
  facet normal -1 0 0
    outer loop
      vertex -89.5 1.08575 2.17493
      vertex -89.5 1.75528 1.73541
      vertex -89.5 1.39347 1.23743
    endloop
  endfacet
  facet normal -1 0 0
    outer loop
      vertex -89.5 1.75528 1.73541
      vertex -89.5 1.08575 2.17493
      vertex -89.5 1.64636 2.94654
    endloop
  endfacet
  facet normal -1 0 0
    outer loop
      vertex -89.5 0.716117 1.66617
      vertex -89.5 1.39347 1.23743
      vertex -89.5 0.785044 0.4
    endloop
  endfacet
  facet normal -1 0 0
    outer loop
      vertex -89.5 1.39347 1.23743
      vertex -89.5 0.716117 1.66617
      vertex -89.5 1.08575 2.17493
    endloop
  endfacet
  facet normal -1 0 0
    outer loop
      vertex -89.5 -0.716117 1.66617
      vertex -89.5 1.08575 2.17493
      vertex -89.5 0.716117 1.66617
    endloop
  endfacet
  facet normal -1 -0 0
    outer loop
      vertex -89.5 0 0.680521
      vertex -89.5 -0.785044 0.4
      vertex -89.5 -0.716117 1.66617
    endloop
  endfacet
  facet normal -1 0 0
    outer loop
      vertex -89.5 -0.716117 1.66617
      vertex -89.5 -1.08575 2.17493
      vertex -89.5 1.08575 2.17493
    endloop
  endfacet
  facet normal -1 0 0
    outer loop
      vertex -89.5 -1.39347 1.23743
      vertex -89.5 -0.716117 1.66617
      vertex -89.5 -0.785044 0.4
    endloop
  endfacet
  facet normal -1 -0 0
    outer loop
      vertex -89.5 -0.716117 1.66617
      vertex -89.5 -1.39347 1.23743
      vertex -89.5 -1.08575 2.17493
    endloop
  endfacet
  facet normal -1 0 0
    outer loop
      vertex -89.5 -1.75528 1.73541
      vertex -89.5 -1.08575 2.17493
      vertex -89.5 -1.39347 1.23743
    endloop
  endfacet
  facet normal -1 -0 0
    outer loop
      vertex -89.5 -1.08575 2.17493
      vertex -89.5 -1.75528 1.73541
      vertex -89.5 -1.64636 2.94654
    endloop
  endfacet
  facet normal -1 0 0
    outer loop
      vertex -89.5 -1.83739 0.4
      vertex -89.5 -1.75528 1.73541
      vertex -89.5 -1.39347 1.23743
    endloop
  endfacet
  facet normal -1 0 0
    outer loop
      vertex -89.5 -2.46318 0.4
      vertex -89.5 -1.83739 0.4
      vertex -89.5 -2.41713 -0.4
    endloop
  endfacet
  facet normal -1 0 0
    outer loop
      vertex -89.5 -1.83739 0.4
      vertex -89.5 -2.46318 0.4
      vertex -89.5 -1.75528 1.73541
    endloop
  endfacet
  facet normal -1 0 0
    outer loop
      vertex -89.5 -3.34599 -0.4
      vertex -89.5 -2.46318 0.4
      vertex -89.5 -2.41713 -0.4
    endloop
  endfacet
  facet normal -1 -0 0
    outer loop
      vertex -89.5 -2.46318 0.4
      vertex -89.5 -3.34599 -0.4
      vertex -89.5 -3.41228 0.4
    endloop
  endfacet
  facet normal -1 0 0
    outer loop
      vertex -89.5 0.785044 0.4
      vertex -89.5 1.80469 -0.4
      vertex -89.5 0.785044 -0.4
    endloop
  endfacet
  facet normal -1 0 0
    outer loop
      vertex -89.5 1.80469 -0.4
      vertex -89.5 0.785044 0.4
      vertex -89.5 1.83739 0.4
    endloop
  endfacet
  facet normal -1 0 0
    outer loop
      vertex -89.5 0 0.680521
      vertex -89.5 0.785044 -0.4
      vertex -89.5 0 -0.680521
    endloop
  endfacet
  facet normal -1 0 0
    outer loop
      vertex -89.5 0.785044 0.4
      vertex -89.5 0 0.680521
      vertex -89.5 0.716117 1.66617
    endloop
  endfacet
  facet normal -1 0 0
    outer loop
      vertex -89.5 -0.785044 -0.4
      vertex -89.5 0 -0.680521
      vertex -89.5 -0.713848 -1.66305
    endloop
  endfacet
  facet normal -1 0 0
    outer loop
      vertex -89.5 0 -0.680521
      vertex -89.5 -0.785044 -0.4
      vertex -89.5 0 0.680521
    endloop
  endfacet
  facet normal 1 -0 0
    outer loop
      vertex 89.5 2.46318 0.4
      vertex 89.5 3.34599 -0.4
      vertex 89.5 3.41228 0.4
    endloop
  endfacet
  facet normal 1 0 0
    outer loop
      vertex 89.5 2.46318 0.4
      vertex 89.5 2.41713 -0.4
      vertex 89.5 3.34599 -0.4
    endloop
  endfacet
  facet normal 1 0 0
    outer loop
      vertex 89.5 2.46318 0.4
      vertex 89.5 1.83739 0.4
      vertex 89.5 2.41713 -0.4
    endloop
  endfacet
  facet normal 1 0 0
    outer loop
      vertex 89.5 1.75528 1.73541
      vertex 89.5 1.83739 0.4
      vertex 89.5 2.46318 0.4
    endloop
  endfacet
  facet normal 1 -0 0
    outer loop
      vertex 89.5 1.08575 2.17493
      vertex 89.5 1.75528 1.73541
      vertex 89.5 1.64636 2.94654
    endloop
  endfacet
  facet normal 1 0 0
    outer loop
      vertex 89.5 1.75528 1.73541
      vertex 89.5 1.39347 1.23743
      vertex 89.5 1.83739 0.4
    endloop
  endfacet
  facet normal 1 0 0
    outer loop
      vertex 89.5 1.75528 1.73541
      vertex 89.5 1.08575 2.17493
      vertex 89.5 1.39347 1.23743
    endloop
  endfacet
  facet normal 1 -0 0
    outer loop
      vertex 89.5 0.716117 1.66617
      vertex 89.5 1.39347 1.23743
      vertex 89.5 1.08575 2.17493
    endloop
  endfacet
  facet normal 1 -0 0
    outer loop
      vertex 89.5 0 0.680521
      vertex 89.5 0.785044 0.4
      vertex 89.5 0.716117 1.66617
    endloop
  endfacet
  facet normal 1 0 0
    outer loop
      vertex 89.5 1.39347 1.23743
      vertex 89.5 0.716117 1.66617
      vertex 89.5 0.785044 0.4
    endloop
  endfacet
  facet normal 1 0 0
    outer loop
      vertex 89.5 1.08575 2.17493
      vertex 89.5 -0.716117 1.66617
      vertex 89.5 0.716117 1.66617
    endloop
  endfacet
  facet normal 1 -0 0
    outer loop
      vertex 89.5 -1.08575 2.17493
      vertex 89.5 -0.716117 1.66617
      vertex 89.5 1.08575 2.17493
    endloop
  endfacet
  facet normal 1 0 0
    outer loop
      vertex 89.5 -1.39347 1.23743
      vertex 89.5 -0.716117 1.66617
      vertex 89.5 -1.08575 2.17493
    endloop
  endfacet
  facet normal 1 0 0
    outer loop
      vertex 89.5 -0.716117 1.66617
      vertex 89.5 -1.39347 1.23743
      vertex 89.5 -0.785044 0.4
    endloop
  endfacet
  facet normal 1 0 0
    outer loop
      vertex 89.5 -1.75528 1.73541
      vertex 89.5 -1.08575 2.17493
      vertex 89.5 -1.64636 2.94654
    endloop
  endfacet
  facet normal 1 0 0
    outer loop
      vertex 89.5 -1.08575 2.17493
      vertex 89.5 -1.75528 1.73541
      vertex 89.5 -1.39347 1.23743
    endloop
  endfacet
  facet normal 1 0 0
    outer loop
      vertex 89.5 -1.75528 1.73541
      vertex 89.5 -1.83739 0.4
      vertex 89.5 -1.39347 1.23743
    endloop
  endfacet
  facet normal 1 0 0
    outer loop
      vertex 89.5 -2.46318 0.4
      vertex 89.5 -1.83739 0.4
      vertex 89.5 -1.75528 1.73541
    endloop
  endfacet
  facet normal 1 0 0
    outer loop
      vertex 89.5 -1.83739 0.4
      vertex 89.5 -2.46318 0.4
      vertex 89.5 -2.41713 -0.4
    endloop
  endfacet
  facet normal 1 0 0
    outer loop
      vertex 89.5 -2.46318 0.4
      vertex 89.5 -3.34599 -0.4
      vertex 89.5 -2.41713 -0.4
    endloop
  endfacet
  facet normal 1 0 -0
    outer loop
      vertex 89.5 -3.34599 -0.4
      vertex 89.5 -2.46318 0.4
      vertex 89.5 -3.41228 0.4
    endloop
  endfacet
  facet normal 1 0 0
    outer loop
      vertex 89.5 4.24665 0.4
      vertex 89.5 3.41228 0.4
      vertex 89.5 4.16257 -0.4
    endloop
  endfacet
  facet normal 1 0 0
    outer loop
      vertex 89.5 2.78641 3.15465
      vertex 89.5 3.41228 0.4
      vertex 89.5 4.24665 0.4
    endloop
  endfacet
  facet normal 1 0 0
    outer loop
      vertex 89.5 2.30401 2.49068
      vertex 89.5 2.78641 3.15465
      vertex 89.5 2.51278 3.45855
    endloop
  endfacet
  facet normal 1 0 0
    outer loop
      vertex 89.5 2.78641 3.15465
      vertex 89.5 2.30401 2.49068
      vertex 89.5 3.41228 0.4
    endloop
  endfacet
  facet normal 1 0 0
    outer loop
      vertex 89.5 1.64636 2.94654
      vertex 89.5 2.51278 3.45855
      vertex 89.5 2.1392 3.62488
    endloop
  endfacet
  facet normal 1 0 0
    outer loop
      vertex 89.5 2.51278 3.45855
      vertex 89.5 1.64636 2.94654
      vertex 89.5 2.30401 2.49068
    endloop
  endfacet
  facet normal 1 0 0
    outer loop
      vertex 89.5 2.30401 2.49068
      vertex 89.5 1.64636 2.94654
      vertex 89.5 1.75528 1.73541
    endloop
  endfacet
  facet normal 1 0 0
    outer loop
      vertex 89.5 2.1392 3.62488
      vertex 89.5 -1.64636 2.94654
      vertex 89.5 1.64636 2.94654
    endloop
  endfacet
  facet normal 1 -0 0
    outer loop
      vertex 89.5 -2.1392 3.62488
      vertex 89.5 -1.64636 2.94654
      vertex 89.5 2.1392 3.62488
    endloop
  endfacet
  facet normal 1 -0 0
    outer loop
      vertex 89.5 -2.51278 3.45855
      vertex 89.5 -1.64636 2.94654
      vertex 89.5 -2.1392 3.62488
    endloop
  endfacet
  facet normal 1 0 0
    outer loop
      vertex 89.5 -1.64636 2.94654
      vertex 89.5 -2.30401 2.49068
      vertex 89.5 -1.75528 1.73541
    endloop
  endfacet
  facet normal 1 0 0
    outer loop
      vertex 89.5 -1.64636 2.94654
      vertex 89.5 -2.51278 3.45855
      vertex 89.5 -2.30401 2.49068
    endloop
  endfacet
  facet normal 1 -0 0
    outer loop
      vertex 89.5 -2.78641 3.15465
      vertex 89.5 -2.30401 2.49068
      vertex 89.5 -2.51278 3.45855
    endloop
  endfacet
  facet normal 1 0 0
    outer loop
      vertex 89.5 -2.78641 3.15465
      vertex 89.5 -3.41228 0.4
      vertex 89.5 -2.30401 2.49068
    endloop
  endfacet
  facet normal 1 0 0
    outer loop
      vertex 89.5 -4.24665 0.4
      vertex 89.5 -3.41228 0.4
      vertex 89.5 -2.78641 3.15465
    endloop
  endfacet
  facet normal 1 0 0
    outer loop
      vertex 89.5 -3.41228 0.4
      vertex 89.5 -4.24665 0.4
      vertex 89.5 -4.16257 -0.4
    endloop
  endfacet
  facet normal 1 0 0
    outer loop
      vertex 89.5 3.34599 -0.4
      vertex 89.5 4.16257 -0.4
      vertex 89.5 3.41228 0.4
    endloop
  endfacet
  facet normal 1 0 0
    outer loop
      vertex 89.5 2.2988 -2.48351
      vertex 89.5 4.16257 -0.4
      vertex 89.5 3.34599 -0.4
    endloop
  endfacet
  facet normal 1 0 0
    outer loop
      vertex 89.5 4.16257 -0.4
      vertex 89.5 2.2988 -2.48351
      vertex 89.5 2.78148 -3.14785
    endloop
  endfacet
  facet normal 1 0 0
    outer loop
      vertex 89.5 2.78148 -3.14785
      vertex 89.5 2.2988 -2.48351
      vertex 89.5 2.78148 -3.14786
    endloop
  endfacet
  facet normal 1 0 0
    outer loop
      vertex 89.5 2.13426 -3.61808
      vertex 89.5 2.78148 -3.14786
      vertex 89.5 2.2988 -2.48351
    endloop
  endfacet
  facet normal 1 0 0
    outer loop
      vertex 89.5 1.64235 -2.94102
      vertex 89.5 2.2988 -2.48351
      vertex 89.5 1.74976 -1.72781
    endloop
  endfacet
  facet normal 1 0 0
    outer loop
      vertex 89.5 2.2988 -2.48351
      vertex 89.5 1.64235 -2.94102
      vertex 89.5 2.13426 -3.61808
    endloop
  endfacet
  facet normal 1 -0 0
    outer loop
      vertex 89.5 -1.64235 -2.94102
      vertex 89.5 2.13426 -3.61808
      vertex 89.5 1.64235 -2.94102
    endloop
  endfacet
  facet normal 1 0 0
    outer loop
      vertex 89.5 -1.64235 -2.94102
      vertex 89.5 -2.13426 -3.61808
      vertex 89.5 2.13426 -3.61808
    endloop
  endfacet
  facet normal 1 -0 0
    outer loop
      vertex 89.5 -2.2988 -2.48351
      vertex 89.5 -1.64235 -2.94102
      vertex 89.5 -1.74976 -1.72781
    endloop
  endfacet
  facet normal 1 0 0
    outer loop
      vertex 89.5 -1.64235 -2.94102
      vertex 89.5 -2.2988 -2.48351
      vertex 89.5 -2.13426 -3.61808
    endloop
  endfacet
  facet normal 1 -0 0
    outer loop
      vertex 89.5 -2.78148 -3.14786
      vertex 89.5 -2.13426 -3.61808
      vertex 89.5 -2.2988 -2.48351
    endloop
  endfacet
  facet normal 1 0 0
    outer loop
      vertex 89.5 -2.2988 -2.48351
      vertex 89.5 -2.78148 -3.14785
      vertex 89.5 -2.78148 -3.14786
    endloop
  endfacet
  facet normal 1 -0 0
    outer loop
      vertex 89.5 -4.16257 -0.4
      vertex 89.5 -2.2988 -2.48351
      vertex 89.5 -3.34599 -0.4
    endloop
  endfacet
  facet normal 1 0 0
    outer loop
      vertex 89.5 -2.2988 -2.48351
      vertex 89.5 -4.16257 -0.4
      vertex 89.5 -2.78148 -3.14785
    endloop
  endfacet
  facet normal 1 0 0
    outer loop
      vertex 89.5 -4.16257 -0.4
      vertex 89.5 -3.34599 -0.4
      vertex 89.5 -3.41228 0.4
    endloop
  endfacet
  facet normal 1 0 0
    outer loop
      vertex 89.5 -0.785044 0.4
      vertex 89.5 -1.80469 -0.4
      vertex 89.5 -0.785044 -0.4
    endloop
  endfacet
  facet normal 1 0 -0
    outer loop
      vertex 89.5 -1.80469 -0.4
      vertex 89.5 -0.785044 0.4
      vertex 89.5 -1.83739 0.4
    endloop
  endfacet
  facet normal 1 0 0
    outer loop
      vertex 89.5 0 -0.680521
      vertex 89.5 0.785044 -0.4
      vertex 89.5 0 0.680521
    endloop
  endfacet
  facet normal 1 0 0
    outer loop
      vertex 89.5 0.785044 -0.4
      vertex 89.5 0 -0.680521
      vertex 89.5 0.713848 -1.66305
    endloop
  endfacet
  facet normal 1 -0 0
    outer loop
      vertex 89.5 -0.785044 -0.4
      vertex 89.5 0 -0.680521
      vertex 89.5 0 0.680521
    endloop
  endfacet
  facet normal 1 0 0
    outer loop
      vertex 89.5 -0.785044 0.4
      vertex 89.5 0 0.680521
      vertex 89.5 -0.716117 1.66617
    endloop
  endfacet
  facet normal 1 -0 0
    outer loop
      vertex 89.5 0.785044 0.4
      vertex 89.5 1.80469 -0.4
      vertex 89.5 1.83739 0.4
    endloop
  endfacet
  facet normal 1 0 0
    outer loop
      vertex 89.5 1.80469 -0.4
      vertex 89.5 0.785044 0.4
      vertex 89.5 0.785044 -0.4
    endloop
  endfacet
  facet normal 1 0 0
    outer loop
      vertex 89.5 1.80469 -0.4
      vertex 89.5 2.41713 -0.4
      vertex 89.5 1.83739 0.4
    endloop
  endfacet
  facet normal 1 0 0
    outer loop
      vertex 89.5 1.38775 -1.22955
      vertex 89.5 2.41713 -0.4
      vertex 89.5 1.80469 -0.4
    endloop
  endfacet
  facet normal 1 0 0
    outer loop
      vertex 89.5 2.41713 -0.4
      vertex 89.5 1.38775 -1.22955
      vertex 89.5 1.74976 -1.72781
    endloop
  endfacet
  facet normal 1 0 0
    outer loop
      vertex 89.5 1.08279 -2.17085
      vertex 89.5 1.74976 -1.72781
      vertex 89.5 1.38775 -1.22955
    endloop
  endfacet
  facet normal 1 0 0
    outer loop
      vertex 89.5 1.74976 -1.72781
      vertex 89.5 1.08279 -2.17085
      vertex 89.5 1.64235 -2.94102
    endloop
  endfacet
  facet normal 1 0 0
    outer loop
      vertex 89.5 0.713848 -1.66305
      vertex 89.5 1.38775 -1.22955
      vertex 89.5 0.785044 -0.4
    endloop
  endfacet
  facet normal 1 0 0
    outer loop
      vertex 89.5 0.785044 0.4
      vertex 89.5 0 0.680521
      vertex 89.5 0.785044 -0.4
    endloop
  endfacet
  facet normal 1 0 0
    outer loop
      vertex 89.5 1.38775 -1.22955
      vertex 89.5 0.713848 -1.66305
      vertex 89.5 1.08279 -2.17085
    endloop
  endfacet
  facet normal 1 -0 0
    outer loop
      vertex 89.5 -0.713848 -1.66305
      vertex 89.5 1.08279 -2.17085
      vertex 89.5 0.713848 -1.66305
    endloop
  endfacet
  facet normal 1 0 0
    outer loop
      vertex 89.5 -0.785044 -0.4
      vertex 89.5 0 0.680521
      vertex 89.5 -0.785044 0.4
    endloop
  endfacet
  facet normal 1 0 0
    outer loop
      vertex 89.5 0 -0.680521
      vertex 89.5 -0.785044 -0.4
      vertex 89.5 -0.713848 -1.66305
    endloop
  endfacet
  facet normal 1 0 0
    outer loop
      vertex 89.5 -0.713848 -1.66305
      vertex 89.5 -1.08279 -2.17085
      vertex 89.5 1.08279 -2.17085
    endloop
  endfacet
  facet normal 1 -0 0
    outer loop
      vertex 89.5 -1.38775 -1.22955
      vertex 89.5 -0.713848 -1.66305
      vertex 89.5 -0.785044 -0.4
    endloop
  endfacet
  facet normal 1 0 0
    outer loop
      vertex 89.5 -0.713848 -1.66305
      vertex 89.5 -1.38775 -1.22955
      vertex 89.5 -1.08279 -2.17085
    endloop
  endfacet
  facet normal 1 -0 0
    outer loop
      vertex 89.5 -1.74976 -1.72781
      vertex 89.5 -1.08279 -2.17085
      vertex 89.5 -1.38775 -1.22955
    endloop
  endfacet
  facet normal 1 0 0
    outer loop
      vertex 89.5 -1.08279 -2.17085
      vertex 89.5 -1.74976 -1.72781
      vertex 89.5 -1.64235 -2.94102
    endloop
  endfacet
  facet normal 1 -0 0
    outer loop
      vertex 89.5 -2.41713 -0.4
      vertex 89.5 -1.38775 -1.22955
      vertex 89.5 -1.80469 -0.4
    endloop
  endfacet
  facet normal 1 0 0
    outer loop
      vertex 89.5 -1.38775 -1.22955
      vertex 89.5 -2.41713 -0.4
      vertex 89.5 -1.74976 -1.72781
    endloop
  endfacet
  facet normal 1 0 0
    outer loop
      vertex 89.5 -2.41713 -0.4
      vertex 89.5 -1.80469 -0.4
      vertex 89.5 -1.83739 0.4
    endloop
  endfacet
  facet normal 0 0.809017 0.587786
    outer loop
      vertex 89.5 0 0.680521
      vertex -89.5 -0.716117 1.66617
      vertex 89.5 -0.716117 1.66617
    endloop
  endfacet
  facet normal 0 0.809017 0.587786
    outer loop
      vertex -89.5 -0.716117 1.66617
      vertex 89.5 0 0.680521
      vertex -89.5 0 0.680521
    endloop
  endfacet
  facet normal 0 0.809016 0.587787
    outer loop
      vertex 89.5 1.38775 -1.22955
      vertex -89.5 0.785044 -0.4
      vertex 89.5 0.785044 -0.4
    endloop
  endfacet
  facet normal 0 0.809016 0.587787
    outer loop
      vertex -89.5 0.785044 -0.4
      vertex 89.5 1.38775 -1.22955
      vertex -89.5 1.38775 -1.22955
    endloop
  endfacet
  facet normal 0 0 -0
    outer loop
      vertex 0.00502586 2.78148 -3.14786
      vertex -89.5 2.78148 -3.14786
      vertex 0.00502645 2.78148 -3.14786
    endloop
  endfacet
  facet normal 0 0.809021 0.58778
    outer loop
      vertex 89.5 2.2988 -2.48351
      vertex -89.5 1.74976 -1.72781
      vertex 89.5 1.74976 -1.72781
    endloop
  endfacet
  facet normal 0 0.809021 0.58778
    outer loop
      vertex -89.5 1.74976 -1.72781
      vertex 89.5 2.2988 -2.48351
      vertex -89.5 2.2988 -2.48351
    endloop
  endfacet
  facet normal 0 0.809016 0.587787
    outer loop
      vertex 89.5 -1.08575 2.17493
      vertex -89.5 -1.64636 2.94654
      vertex 89.5 -1.64636 2.94654
    endloop
  endfacet
  facet normal 0 0.809016 0.587787
    outer loop
      vertex -89.5 -1.64636 2.94654
      vertex 89.5 -1.08575 2.17493
      vertex -89.5 -1.08575 2.17493
    endloop
  endfacet
  facet normal 0 -0.809017 -0.587785
    outer loop
      vertex -89.5 0.713848 -1.66305
      vertex 89.5 0 -0.680521
      vertex -89.5 0 -0.680521
    endloop
  endfacet
  facet normal 0 -0.809017 -0.587785
    outer loop
      vertex 89.5 0 -0.680521
      vertex -89.5 0.713848 -1.66305
      vertex 89.5 0.713848 -1.66305
    endloop
  endfacet
  facet normal 0 -0.809018 -0.587784
    outer loop
      vertex -89.5 -0.785044 0.4
      vertex 89.5 -1.39347 1.23743
      vertex -89.5 -1.39347 1.23743
    endloop
  endfacet
  facet normal 0 -0.809018 -0.587784
    outer loop
      vertex 89.5 -1.39347 1.23743
      vertex -89.5 -0.785044 0.4
      vertex 89.5 -0.785044 0.4
    endloop
  endfacet
  facet normal 0 0 -0
    outer loop
      vertex 0.00502586 -2.78641 3.15465
      vertex -89.5 -2.78641 3.15465
      vertex 0.0050263 -2.78641 3.15465
    endloop
  endfacet
  facet normal 0 -0.80902 -0.587781
    outer loop
      vertex -89.5 -1.75528 1.73541
      vertex 89.5 -2.30401 2.49068
      vertex -89.5 -2.30401 2.49068
    endloop
  endfacet
  facet normal 0 -0.80902 -0.587781
    outer loop
      vertex 89.5 -2.30401 2.49068
      vertex -89.5 -1.75528 1.73541
      vertex 89.5 -1.75528 1.73541
    endloop
  endfacet
  facet normal 0 -0.809018 -0.587784
    outer loop
      vertex -89.5 1.64235 -2.94102
      vertex 89.5 1.08279 -2.17085
      vertex -89.5 1.08279 -2.17085
    endloop
  endfacet
  facet normal 0 -0.809018 -0.587784
    outer loop
      vertex 89.5 1.08279 -2.17085
      vertex -89.5 1.64235 -2.94102
      vertex 89.5 1.64235 -2.94102
    endloop
  endfacet
  facet normal 0 0.809017 -0.587785
    outer loop
      vertex 89.5 -0.713848 -1.66305
      vertex -89.5 0 -0.680521
      vertex 89.5 0 -0.680521
    endloop
  endfacet
  facet normal 0 0.809017 -0.587785
    outer loop
      vertex -89.5 0 -0.680521
      vertex 89.5 -0.713848 -1.66305
      vertex -89.5 -0.713848 -1.66305
    endloop
  endfacet
  facet normal 0 0.809018 -0.587784
    outer loop
      vertex 89.5 0.785044 0.4
      vertex -89.5 1.39347 1.23743
      vertex 89.5 1.39347 1.23743
    endloop
  endfacet
  facet normal 0 0.809018 -0.587784
    outer loop
      vertex -89.5 1.39347 1.23743
      vertex 89.5 0.785044 0.4
      vertex -89.5 0.785044 0.4
    endloop
  endfacet
  facet normal 0 0 0
    outer loop
      vertex -89.5 2.78641 3.15465
      vertex 0.00502586 2.78641 3.15465
      vertex 0.0050263 2.78641 3.15465
    endloop
  endfacet
  facet normal 0 0.80902 -0.587781
    outer loop
      vertex 89.5 1.75528 1.73541
      vertex -89.5 2.30401 2.49068
      vertex 89.5 2.30401 2.49068
    endloop
  endfacet
  facet normal 0 0.80902 -0.587781
    outer loop
      vertex -89.5 2.30401 2.49068
      vertex 89.5 1.75528 1.73541
      vertex -89.5 1.75528 1.73541
    endloop
  endfacet
  facet normal 0 0.809018 -0.587784
    outer loop
      vertex 89.5 -1.64235 -2.94102
      vertex -89.5 -1.08279 -2.17085
      vertex 89.5 -1.08279 -2.17085
    endloop
  endfacet
  facet normal 0 0.809018 -0.587784
    outer loop
      vertex -89.5 -1.08279 -2.17085
      vertex 89.5 -1.64235 -2.94102
      vertex -89.5 -1.64235 -2.94102
    endloop
  endfacet
  facet normal 0 -0.809017 0.587786
    outer loop
      vertex -89.5 0 0.680521
      vertex 89.5 0.716117 1.66617
      vertex -89.5 0.716117 1.66617
    endloop
  endfacet
  facet normal 0 -0.809017 0.587786
    outer loop
      vertex 89.5 0.716117 1.66617
      vertex -89.5 0 0.680521
      vertex 89.5 0 0.680521
    endloop
  endfacet
  facet normal 0 -0.809016 0.587787
    outer loop
      vertex -89.5 -1.38775 -1.22955
      vertex 89.5 -0.785044 -0.4
      vertex -89.5 -0.785044 -0.4
    endloop
  endfacet
  facet normal 0 -0.809016 0.587787
    outer loop
      vertex 89.5 -0.785044 -0.4
      vertex -89.5 -1.38775 -1.22955
      vertex 89.5 -1.38775 -1.22955
    endloop
  endfacet
  facet normal 0 0 0
    outer loop
      vertex -89.5 -2.78148 -3.14786
      vertex 0.00502586 -2.78148 -3.14786
      vertex 0.00502645 -2.78148 -3.14786
    endloop
  endfacet
  facet normal 0 -0.809021 0.58778
    outer loop
      vertex -89.5 -2.2988 -2.48351
      vertex 89.5 -1.74976 -1.72781
      vertex -89.5 -1.74976 -1.72781
    endloop
  endfacet
  facet normal 0 -0.809021 0.58778
    outer loop
      vertex 89.5 -1.74976 -1.72781
      vertex -89.5 -2.2988 -2.48351
      vertex 89.5 -2.2988 -2.48351
    endloop
  endfacet
  facet normal 0 -0.809016 0.587787
    outer loop
      vertex -89.5 1.08575 2.17493
      vertex 89.5 1.64636 2.94654
      vertex -89.5 1.64636 2.94654
    endloop
  endfacet
  facet normal 0 -0.809016 0.587787
    outer loop
      vertex 89.5 1.64636 2.94654
      vertex -89.5 1.08575 2.17493
      vertex 89.5 1.08575 2.17493
    endloop
  endfacet
  facet normal -0 0 1
    outer loop
      vertex -89.5 -0.785044 0.4
      vertex 89.5 -1.83739 0.4
      vertex 89.5 -0.785044 0.4
    endloop
  endfacet
  facet normal 0 0 1
    outer loop
      vertex 89.5 -1.83739 0.4
      vertex -89.5 -0.785044 0.4
      vertex -89.5 -1.83739 0.4
    endloop
  endfacet
  facet normal -0 0 1
    outer loop
      vertex -89.5 1.83739 0.4
      vertex 89.5 0.785044 0.4
      vertex 89.5 1.83739 0.4
    endloop
  endfacet
  facet normal 0 0 1
    outer loop
      vertex 89.5 0.785044 0.4
      vertex -89.5 1.83739 0.4
      vertex -89.5 0.785044 0.4
    endloop
  endfacet
  facet normal 0 0 0
    outer loop
      vertex -89.5 -4.24665 0.4
      vertex 0.00502681 -4.24665 0.4
      vertex 0.0050275 -4.24665 0.4
    endloop
  endfacet
  facet normal 0 0 -0
    outer loop
      vertex 0.00502681 4.24665 0.4
      vertex -89.5 4.24665 0.4
      vertex 0.0050275 4.24665 0.4
    endloop
  endfacet
  facet normal -0 0 1
    outer loop
      vertex -89.5 -2.46318 0.4
      vertex 89.5 -3.41228 0.4
      vertex 89.5 -2.46318 0.4
    endloop
  endfacet
  facet normal 0 0 1
    outer loop
      vertex 89.5 -3.41228 0.4
      vertex -89.5 -2.46318 0.4
      vertex -89.5 -3.41228 0.4
    endloop
  endfacet
  facet normal -0 0 1
    outer loop
      vertex -89.5 3.41228 0.4
      vertex 89.5 2.46318 0.4
      vertex 89.5 3.41228 0.4
    endloop
  endfacet
  facet normal 0 0 1
    outer loop
      vertex 89.5 2.46318 0.4
      vertex -89.5 3.41228 0.4
      vertex -89.5 2.46318 0.4
    endloop
  endfacet
  facet normal 0 0 -1
    outer loop
      vertex -89.5 0.785044 -0.4
      vertex 89.5 1.80469 -0.4
      vertex 89.5 0.785044 -0.4
    endloop
  endfacet
  facet normal -0 0 -1
    outer loop
      vertex 89.5 1.80469 -0.4
      vertex -89.5 0.785044 -0.4
      vertex -89.5 1.80469 -0.4
    endloop
  endfacet
  facet normal 0 0 -1
    outer loop
      vertex -89.5 -1.80469 -0.4
      vertex 89.5 -0.785044 -0.4
      vertex 89.5 -1.80469 -0.4
    endloop
  endfacet
  facet normal -0 0 -1
    outer loop
      vertex 89.5 -0.785044 -0.4
      vertex -89.5 -1.80469 -0.4
      vertex -89.5 -0.785044 -0.4
    endloop
  endfacet
  facet normal 0 0 0
    outer loop
      vertex 0.00502654 4.16257 -0.4
      vertex -89.5 4.16257 -0.4
      vertex 0.00502637 4.16257 -0.4
    endloop
  endfacet
  facet normal 0 0 -0
    outer loop
      vertex 0.00502637 -4.16257 -0.4
      vertex -89.5 -4.16257 -0.4
      vertex 0.00502654 -4.16257 -0.4
    endloop
  endfacet
  facet normal 0 0 0
    outer loop
      vertex 89.5 4.16257 -0.4
      vertex 0.994973 4.16257 -0.4
      vertex 0.994974 4.16257 -0.4
    endloop
  endfacet
  facet normal 0 0 -0
    outer loop
      vertex 0.994974 -4.16257 -0.4
      vertex 0.994973 -4.16257 -0.4
      vertex 89.5 -4.16257 -0.4
    endloop
  endfacet
  facet normal 0 0 -1
    outer loop
      vertex -89.5 2.41713 -0.4
      vertex 89.5 3.34599 -0.4
      vertex 89.5 2.41713 -0.4
    endloop
  endfacet
  facet normal -0 0 -1
    outer loop
      vertex 89.5 3.34599 -0.4
      vertex -89.5 2.41713 -0.4
      vertex -89.5 3.34599 -0.4
    endloop
  endfacet
  facet normal 0 0 -1
    outer loop
      vertex -89.5 -3.34599 -0.4
      vertex 89.5 -2.41713 -0.4
      vertex 89.5 -3.34599 -0.4
    endloop
  endfacet
  facet normal -0 0 -1
    outer loop
      vertex 89.5 -2.41713 -0.4
      vertex -89.5 -3.34599 -0.4
      vertex -89.5 -2.41713 -0.4
    endloop
  endfacet
  facet normal 0 0.994522 -0.104524
    outer loop
      vertex 0.00502637 4.16257 -0.4
      vertex -89.5 4.24665 0.4
      vertex 0.00502681 4.24665 0.4
    endloop
  endfacet
  facet normal 0 0.994522 -0.104524
    outer loop
      vertex -89.5 4.24665 0.4
      vertex 0.00502637 4.16257 -0.4
      vertex -89.5 4.16257 -0.4
    endloop
  endfacet
  facet normal 0 0.994522 -0.104524
    outer loop
      vertex 89.5 4.16257 -0.4
      vertex 0.994973 4.24665 0.4
      vertex 89.5 4.24665 0.4
    endloop
  endfacet
  facet normal 0 0.994522 -0.104524
    outer loop
      vertex 0.994973 4.24665 0.4
      vertex 89.5 4.16257 -0.4
      vertex 0.994974 4.16257 -0.4
    endloop
  endfacet
  facet normal 0 0.743148 0.669127
    outer loop
      vertex 0.00502586 2.78641 3.15465
      vertex -89.5 2.51278 3.45855
      vertex 0.00502586 2.51278 3.45855
    endloop
  endfacet
  facet normal 0 0.743148 0.669127
    outer loop
      vertex -89.5 2.51278 3.45855
      vertex 0.00502586 2.78641 3.15465
      vertex -89.5 2.78641 3.15465
    endloop
  endfacet
  facet normal 0 0.743148 0.669127
    outer loop
      vertex 89.5 2.78641 3.15465
      vertex 0.994974 2.51278 3.45855
      vertex 89.5 2.51278 3.45855
    endloop
  endfacet
  facet normal 0 0.743148 0.669127
    outer loop
      vertex 0.994974 2.51278 3.45855
      vertex 89.5 2.78641 3.15465
      vertex 0.994974 2.78641 3.15465
    endloop
  endfacet
  facet normal 0 -0.994522 -0.104524
    outer loop
      vertex -89.5 -4.16257 -0.4
      vertex 0.00502681 -4.24665 0.4
      vertex -89.5 -4.24665 0.4
    endloop
  endfacet
  facet normal 0 -0.994522 -0.104524
    outer loop
      vertex 0.00502681 -4.24665 0.4
      vertex -89.5 -4.16257 -0.4
      vertex 0.00502637 -4.16257 -0.4
    endloop
  endfacet
  facet normal 0 -0.994522 -0.104524
    outer loop
      vertex 0.994974 -4.16257 -0.4
      vertex 89.5 -4.24665 0.4
      vertex 0.994973 -4.24665 0.4
    endloop
  endfacet
  facet normal 0 -0.994522 -0.104524
    outer loop
      vertex 89.5 -4.24665 0.4
      vertex 0.994974 -4.16257 -0.4
      vertex 89.5 -4.16257 -0.4
    endloop
  endfacet
  facet normal 6.64115e-08 0.587775 -0.809025
    outer loop
      vertex 89.5 2.13426 -3.61808
      vertex 0.994974 2.13427 -3.61808
      vertex 89.5 2.78148 -3.14786
    endloop
  endfacet
  facet normal 0 0 -1
    outer loop
      vertex 89.5 2.13426 -3.61808
      vertex 0.00502586 2.13427 -3.61808
      vertex 0.994974 2.13427 -3.61808
    endloop
  endfacet
  facet normal 0 0 -1
    outer loop
      vertex -89.5 2.13426 -3.61808
      vertex 0.00502586 2.13427 -3.61808
      vertex 89.5 2.13426 -3.61808
    endloop
  endfacet
  facet normal -6.56701e-08 0.587781 -0.80902
    outer loop
      vertex -89.5 2.13426 -3.61808
      vertex 0.00502586 2.78148 -3.14786
      vertex 0.00502586 2.13427 -3.61808
    endloop
  endfacet
  facet normal 0 0.587775 -0.809025
    outer loop
      vertex 0.00502586 2.78148 -3.14786
      vertex -89.5 2.13426 -3.61808
      vertex -89.5 2.78148 -3.14786
    endloop
  endfacet
  facet normal 0 0.587781 -0.80902
    outer loop
      vertex 89.5 2.78148 -3.14786
      vertex 0.994974 2.13427 -3.61808
      vertex 0.994974 2.78148 -3.14786
    endloop
  endfacet
  facet normal 0 -0.40674 0.913544
    outer loop
      vertex 89.5 -2.1392 3.62488
      vertex 0.994974 -2.1392 3.62488
      vertex 89.5 -2.51278 3.45855
    endloop
  endfacet
  facet normal 0 0 0
    outer loop
      vertex 89.5 -2.1392 3.62488
      vertex 0.00502586 -2.1392 3.62488
      vertex 0.994974 -2.1392 3.62488
    endloop
  endfacet
  facet normal 0 0 0
    outer loop
      vertex -89.5 -2.1392 3.62488
      vertex 0.00502586 -2.1392 3.62488
      vertex 89.5 -2.1392 3.62488
    endloop
  endfacet
  facet normal 0 -0.40674 0.913544
    outer loop
      vertex -89.5 -2.1392 3.62488
      vertex 0.00502586 -2.51278 3.45855
      vertex 0.00502586 -2.1392 3.62488
    endloop
  endfacet
  facet normal 0 -0.40674 0.913544
    outer loop
      vertex 0.00502586 -2.51278 3.45855
      vertex -89.5 -2.1392 3.62488
      vertex -89.5 -2.51278 3.45855
    endloop
  endfacet
  facet normal 0 -0.40674 0.913544
    outer loop
      vertex 89.5 -2.51278 3.45855
      vertex 0.994974 -2.1392 3.62488
      vertex 0.994974 -2.51278 3.45855
    endloop
  endfacet
  facet normal 0 -0.743148 0.669127
    outer loop
      vertex 0.994974 -2.78641 3.15465
      vertex 89.5 -2.51278 3.45855
      vertex 0.994974 -2.51278 3.45855
    endloop
  endfacet
  facet normal 0 -0.743148 0.669127
    outer loop
      vertex 89.5 -2.51278 3.45855
      vertex 0.994974 -2.78641 3.15465
      vertex 89.5 -2.78641 3.15465
    endloop
  endfacet
  facet normal 0 -0.743148 0.669127
    outer loop
      vertex -89.5 -2.78641 3.15465
      vertex 0.00502586 -2.51278 3.45855
      vertex -89.5 -2.51278 3.45855
    endloop
  endfacet
  facet normal 0 -0.743148 0.669127
    outer loop
      vertex 0.00502586 -2.51278 3.45855
      vertex -89.5 -2.78641 3.15465
      vertex 0.00502586 -2.78641 3.15465
    endloop
  endfacet
  facet normal 0 0.40674 0.913544
    outer loop
      vertex 0.00502586 2.51278 3.45855
      vertex -89.5 2.51278 3.45855
      vertex 0.00502586 2.1392 3.62488
    endloop
  endfacet
  facet normal -0 0.40674 0.913544
    outer loop
      vertex 0.994974 2.51278 3.45855
      vertex 89.5 2.1392 3.62488
      vertex 89.5 2.51278 3.45855
    endloop
  endfacet
  facet normal -0 0.40674 0.913544
    outer loop
      vertex 0.994974 2.1392 3.62488
      vertex 89.5 2.1392 3.62488
      vertex 0.994974 2.51278 3.45855
    endloop
  endfacet
  facet normal 0 0 0
    outer loop
      vertex 0.00502586 2.1392 3.62488
      vertex 89.5 2.1392 3.62488
      vertex 0.994974 2.1392 3.62488
    endloop
  endfacet
  facet normal 0 0 -0
    outer loop
      vertex 0.00502586 2.1392 3.62488
      vertex -89.5 2.1392 3.62488
      vertex 89.5 2.1392 3.62488
    endloop
  endfacet
  facet normal -0 0.40674 0.913544
    outer loop
      vertex -89.5 2.1392 3.62488
      vertex 0.00502586 2.1392 3.62488
      vertex -89.5 2.51278 3.45855
    endloop
  endfacet
  facet normal -0 -0.587781 -0.80902
    outer loop
      vertex 0.00502586 -2.78148 -3.14786
      vertex -89.5 -2.78148 -3.14786
      vertex 0.00502586 -2.13427 -3.61808
    endloop
  endfacet
  facet normal 0 -0.587775 -0.809025
    outer loop
      vertex 0.994974 -2.78148 -3.14786
      vertex 89.5 -2.13426 -3.61808
      vertex 89.5 -2.78148 -3.14786
    endloop
  endfacet
  facet normal 6.64121e-08 -0.587781 -0.80902
    outer loop
      vertex 0.994974 -2.13427 -3.61808
      vertex 89.5 -2.13426 -3.61808
      vertex 0.994974 -2.78148 -3.14786
    endloop
  endfacet
  facet normal 0 0 -1
    outer loop
      vertex 0.00502586 -2.13427 -3.61808
      vertex 89.5 -2.13426 -3.61808
      vertex 0.994974 -2.13427 -3.61808
    endloop
  endfacet
  facet normal 0 0 -1
    outer loop
      vertex 0.00502586 -2.13427 -3.61808
      vertex -89.5 -2.13426 -3.61808
      vertex 89.5 -2.13426 -3.61808
    endloop
  endfacet
  facet normal -6.56695e-08 -0.587775 -0.809025
    outer loop
      vertex -89.5 -2.13426 -3.61808
      vertex 0.00502586 -2.13427 -3.61808
      vertex -89.5 -2.78148 -3.14786
    endloop
  endfacet
  facet normal 0 0 -1
    outer loop
      vertex -89.5 -2.13426 -3.61808
      vertex 89.5 2.13426 -3.61808
      vertex 89.5 -2.13426 -3.61808
    endloop
  endfacet
  facet normal -0 0 -1
    outer loop
      vertex 89.5 2.13426 -3.61808
      vertex -89.5 -2.13426 -3.61808
      vertex -89.5 2.13426 -3.61808
    endloop
  endfacet
  facet normal 0 0 -1
    outer loop
      vertex 0.204302 -2.46589 -3.61808
      vertex 0.744504 -2.55108 -3.61808
      vertex 0.5 -2.95796 -3.61808
    endloop
  endfacet
  facet normal 0 0 -1
    outer loop
      vertex 0.744504 -2.55108 -3.61808
      vertex 0.204302 -2.46589 -3.61808
      vertex 0.994974 -2.13427 -3.61808
    endloop
  endfacet
  facet normal -0 0 -1
    outer loop
      vertex 0.994974 -2.13427 -3.61808
      vertex 0.204302 -2.46589 -3.61808
      vertex 0.00502586 -2.13427 -3.61808
    endloop
  endfacet
  facet normal 0 0 -1
    outer loop
      vertex 0.795698 2.46589 -3.61808
      vertex 0.255496 2.55108 -3.61808
      vertex 0.5 2.95796 -3.61808
    endloop
  endfacet
  facet normal 0 0 -1
    outer loop
      vertex 0.00502586 2.13427 -3.61808
      vertex 0.795698 2.46589 -3.61808
      vertex 0.994974 2.13427 -3.61808
    endloop
  endfacet
  facet normal -0 0 -1
    outer loop
      vertex 0.795698 2.46589 -3.61808
      vertex 0.00502586 2.13427 -3.61808
      vertex 0.255496 2.55108 -3.61808
    endloop
  endfacet
  facet normal -0 0 1
    outer loop
      vertex -89.5 2.1392 3.62488
      vertex 89.5 -2.1392 3.62488
      vertex 89.5 2.1392 3.62488
    endloop
  endfacet
  facet normal 0 0 1
    outer loop
      vertex 89.5 -2.1392 3.62488
      vertex -89.5 2.1392 3.62488
      vertex -89.5 -2.1392 3.62488
    endloop
  endfacet
  facet normal -0 0 1
    outer loop
      vertex 0.0732241 -2.30321 3.62488
      vertex 0.789381 -2.63363 3.62488
      vertex 0.994974 -2.1392 3.62488
    endloop
  endfacet
  facet normal 0 0 1
    outer loop
      vertex 0.789381 -2.63363 3.62488
      vertex 0.432686 -2.92592 3.62488
      vertex 0.5 -3.01452 3.62488
    endloop
  endfacet
  facet normal 0 0 1
    outer loop
      vertex 0.789381 -2.63363 3.62488
      vertex 0.210619 -2.63363 3.62488
      vertex 0.432686 -2.92592 3.62488
    endloop
  endfacet
  facet normal 0 0 1
    outer loop
      vertex 0.789381 -2.63363 3.62488
      vertex 0.0732241 -2.30321 3.62488
      vertex 0.210619 -2.63363 3.62488
    endloop
  endfacet
  facet normal 0 -0 1
    outer loop
      vertex 0.0732241 -2.30321 3.62488
      vertex 0.994974 -2.1392 3.62488
      vertex 0.00502586 -2.1392 3.62488
    endloop
  endfacet
  facet normal 0 0 1
    outer loop
      vertex 0.210619 2.63363 3.62488
      vertex 0.789381 2.63363 3.62488
      vertex 0.567314 2.92592 3.62488
    endloop
  endfacet
  facet normal 0 0 1
    outer loop
      vertex 0.789381 2.63363 3.62488
      vertex 0.210619 2.63363 3.62488
      vertex 0.926776 2.30321 3.62488
    endloop
  endfacet
  facet normal 0 0 1
    outer loop
      vertex 0.210619 2.63363 3.62488
      vertex 0.567314 2.92592 3.62488
      vertex 0.5 3.01452 3.62488
    endloop
  endfacet
  facet normal 0 0 1
    outer loop
      vertex 0.00502586 2.1392 3.62488
      vertex 0.926776 2.30321 3.62488
      vertex 0.210619 2.63363 3.62488
    endloop
  endfacet
  facet normal 0 0 1
    outer loop
      vertex 0.926776 2.30321 3.62488
      vertex 0.00502586 2.1392 3.62488
      vertex 0.994974 2.1392 3.62488
    endloop
  endfacet
  facet normal 0 0.883536 0.468363
    outer loop
      vertex 0.994973 4.24665 0.4
      vertex 0.994974 2.78641 3.15465
      vertex 89.5 2.78641 3.15465
    endloop
  endfacet
  facet normal 2.25279e-05 0.883537 0.468362
    outer loop
      vertex 0.994974 2.78641 3.15465
      vertex 0.779836 3.72706 1.38018
      vertex 0.66197 3.41387 1.971
    endloop
  endfacet
  facet normal 1.40884e-05 0.883536 0.468363
    outer loop
      vertex 0.994974 2.78641 3.15465
      vertex 0.994973 4.24665 0.4
      vertex 0.779836 3.72706 1.38018
    endloop
  endfacet
  facet normal 0.000379536 0.883503 0.468426
    outer loop
      vertex 0.779836 3.72706 1.38018
      vertex 0.985234 4.23866 0.415079
      vertex 0.966623 4.22339 0.443895
    endloop
  endfacet
  facet normal -0 0.883536 0.468363
    outer loop
      vertex 0.994973 4.24665 0.4
      vertex 89.5 2.78641 3.15465
      vertex 89.5 4.24665 0.4
    endloop
  endfacet
  facet normal 0.000456952 0.883496 0.468438
    outer loop
      vertex 0.779836 3.72706 1.38018
      vertex 0.994973 4.24665 0.4
      vertex 0.985234 4.23866 0.415079
    endloop
  endfacet
  facet normal 3.12723e-05 0.883535 0.468365
    outer loop
      vertex 0.0742089 4.11489 0.648569
      vertex 0.0050263 2.78641 3.15465
      vertex 0.192887 3.14038 2.4869
    endloop
  endfacet
  facet normal -4.15745e-05 0.883533 0.468369
    outer loop
      vertex 0.0742089 4.11489 0.648569
      vertex 0.192887 3.14038 2.4869
      vertex 0.33803 3.41387 1.971
    endloop
  endfacet
  facet normal -8.21201e-05 0.883536 0.468363
    outer loop
      vertex 0.0050263 2.78641 3.15465
      vertex 0.0742089 4.11489 0.648569
      vertex 0.0050275 4.24665 0.4
    endloop
  endfacet
  facet normal -0.000416467 0.883498 0.468435
    outer loop
      vertex 0.0050275 4.24665 0.4
      vertex 0.0742089 4.11489 0.648569
      vertex 0.0333767 4.22339 0.443895
    endloop
  endfacet
  facet normal 0 0.883536 0.468363
    outer loop
      vertex 0.0050263 2.78641 3.15465
      vertex 0.0050275 4.24665 0.4
      vertex -89.5 2.78641 3.15465
    endloop
  endfacet
  facet normal 0 0.883536 0.468363
    outer loop
      vertex -89.5 2.78641 3.15465
      vertex 0.0050275 4.24665 0.4
      vertex -89.5 4.24665 0.4
    endloop
  endfacet
  facet normal 0 1 -0
    outer loop
      vertex 0.00502645 2.78148 -3.14786
      vertex -89.5 2.78148 -3.14785
      vertex 0.00502645 2.78148 -3.14785
    endloop
  endfacet
  facet normal 0 1 0
    outer loop
      vertex -89.5 2.78148 -3.14785
      vertex 0.00502645 2.78148 -3.14786
      vertex -89.5 2.78148 -3.14786
    endloop
  endfacet
  facet normal 0 1 -0
    outer loop
      vertex 89.5 2.78148 -3.14786
      vertex 0.994974 2.78148 -3.14785
      vertex 89.5 2.78148 -3.14785
    endloop
  endfacet
  facet normal 0 1 0
    outer loop
      vertex 0.994974 2.78148 -3.14785
      vertex 89.5 2.78148 -3.14786
      vertex 0.994974 2.78148 -3.14786
    endloop
  endfacet
  facet normal 0 -1 0
    outer loop
      vertex 0.994974 -2.78148 -3.14786
      vertex 89.5 -2.78148 -3.14785
      vertex 0.994974 -2.78148 -3.14785
    endloop
  endfacet
  facet normal 0 -1 -0
    outer loop
      vertex 89.5 -2.78148 -3.14785
      vertex 0.994974 -2.78148 -3.14786
      vertex 89.5 -2.78148 -3.14786
    endloop
  endfacet
  facet normal 0 -1 0
    outer loop
      vertex -89.5 -2.78148 -3.14786
      vertex 0.00502645 -2.78148 -3.14785
      vertex -89.5 -2.78148 -3.14785
    endloop
  endfacet
  facet normal 0 -1 -0
    outer loop
      vertex 0.00502645 -2.78148 -3.14785
      vertex -89.5 -2.78148 -3.14786
      vertex 0.00502645 -2.78148 -3.14786
    endloop
  endfacet
  facet normal -1.95475e-05 0.893492 -0.44908
    outer loop
      vertex 0.292306 3.41959 -1.87825
      vertex 0.00502654 4.16257 -0.4
      vertex 0.160046 3.96979 -0.783563
    endloop
  endfacet
  facet normal 5.8633e-06 0.893493 -0.449077
    outer loop
      vertex 0.292306 3.41959 -1.87825
      vertex 0.160046 3.96979 -0.783563
      vertex 0.335946 3.75104 -1.21879
    endloop
  endfacet
  facet normal 1.47199e-06 0.893493 -0.449076
    outer loop
      vertex 0.00502654 4.16257 -0.4
      vertex 0.292306 3.41959 -1.87825
      vertex 0.00502645 2.78148 -3.14785
    endloop
  endfacet
  facet normal -3.51198e-05 0.893497 -0.44907
    outer loop
      vertex 0.00502645 2.78148 -3.14785
      vertex 0.292306 3.41959 -1.87825
      vertex 0.237602 3.00411 -2.70491
    endloop
  endfacet
  facet normal 0 0.893493 -0.449076
    outer loop
      vertex 0.00502654 4.16257 -0.4
      vertex 0.00502645 2.78148 -3.14785
      vertex -89.5 4.16257 -0.4
    endloop
  endfacet
  facet normal 0 0.893493 -0.449076
    outer loop
      vertex -89.5 4.16257 -0.4
      vertex 0.00502645 2.78148 -3.14785
      vertex -89.5 2.78148 -3.14785
    endloop
  endfacet
  facet normal 0 0.893493 -0.449076
    outer loop
      vertex 0.994974 2.78148 -3.14785
      vertex 0.994973 4.16257 -0.4
      vertex 89.5 4.16257 -0.4
    endloop
  endfacet
  facet normal 9.4775e-06 0.893493 -0.449076
    outer loop
      vertex 0.715903 3.35725 -2.00229
      vertex 0.994973 4.16257 -0.4
      vertex 0.994974 2.78148 -3.14785
    endloop
  endfacet
  facet normal -7.22812e-06 0.893495 -0.449074
    outer loop
      vertex 0.994973 4.16257 -0.4
      vertex 0.715903 3.35725 -2.00229
      vertex 0.664054 3.75104 -1.21879
    endloop
  endfacet
  facet normal 4.22719e-05 0.893496 -0.449072
    outer loop
      vertex 0.715903 3.35725 -2.00229
      vertex 0.902347 2.87014 -2.97145
      vertex 0.762398 3.00411 -2.70491
    endloop
  endfacet
  facet normal 0 0.893493 -0.449076
    outer loop
      vertex 0.994974 2.78148 -3.14785
      vertex 89.5 4.16257 -0.4
      vertex 89.5 2.78148 -3.14785
    endloop
  endfacet
  facet normal -7.51466e-06 0.893492 -0.44908
    outer loop
      vertex 0.715903 3.35725 -2.00229
      vertex 0.994974 2.78148 -3.14785
      vertex 0.902347 2.87014 -2.97145
    endloop
  endfacet
  facet normal 0 -0.883536 0.468363
    outer loop
      vertex 0.0050275 -4.24665 0.4
      vertex 0.0050263 -2.78641 3.15465
      vertex -89.5 -2.78641 3.15465
    endloop
  endfacet
  facet normal -2.25279e-05 -0.883537 0.468362
    outer loop
      vertex 0.0050263 -2.78641 3.15465
      vertex 0.220164 -3.72706 1.38018
      vertex 0.33803 -3.41387 1.971
    endloop
  endfacet
  facet normal -1.40884e-05 -0.883536 0.468363
    outer loop
      vertex 0.0050263 -2.78641 3.15465
      vertex 0.0050275 -4.24665 0.4
      vertex 0.220164 -3.72706 1.38018
    endloop
  endfacet
  facet normal -0.000379551 -0.883503 0.468426
    outer loop
      vertex 0.220164 -3.72706 1.38018
      vertex 0.0147662 -4.23866 0.415079
      vertex 0.0333767 -4.22339 0.443895
    endloop
  endfacet
  facet normal 0 -0.883536 0.468363
    outer loop
      vertex 0.0050275 -4.24665 0.4
      vertex -89.5 -2.78641 3.15465
      vertex -89.5 -4.24665 0.4
    endloop
  endfacet
  facet normal -0.000456973 -0.883496 0.468438
    outer loop
      vertex 0.220164 -3.72706 1.38018
      vertex 0.0050275 -4.24665 0.4
      vertex 0.0147662 -4.23866 0.415079
    endloop
  endfacet
  facet normal -3.12723e-05 -0.883535 0.468365
    outer loop
      vertex 0.925791 -4.11489 0.648569
      vertex 0.994974 -2.78641 3.15465
      vertex 0.807113 -3.14038 2.4869
    endloop
  endfacet
  facet normal 4.15745e-05 -0.883533 0.468369
    outer loop
      vertex 0.925791 -4.11489 0.648569
      vertex 0.807113 -3.14038 2.4869
      vertex 0.66197 -3.41387 1.971
    endloop
  endfacet
  facet normal 8.21194e-05 -0.883536 0.468363
    outer loop
      vertex 0.994974 -2.78641 3.15465
      vertex 0.925791 -4.11489 0.648569
      vertex 0.994973 -4.24665 0.4
    endloop
  endfacet
  facet normal 0.000416449 -0.883498 0.468435
    outer loop
      vertex 0.994973 -4.24665 0.4
      vertex 0.925791 -4.11489 0.648569
      vertex 0.966623 -4.22339 0.443895
    endloop
  endfacet
  facet normal 0 -0.883536 0.468363
    outer loop
      vertex 0.994974 -2.78641 3.15465
      vertex 0.994973 -4.24665 0.4
      vertex 89.5 -2.78641 3.15465
    endloop
  endfacet
  facet normal 0 -0.883536 0.468363
    outer loop
      vertex 89.5 -2.78641 3.15465
      vertex 0.994973 -4.24665 0.4
      vertex 89.5 -4.24665 0.4
    endloop
  endfacet
  facet normal 1.95476e-05 -0.893492 -0.44908
    outer loop
      vertex 0.707694 -3.41959 -1.87825
      vertex 0.994973 -4.16257 -0.4
      vertex 0.839954 -3.96979 -0.783563
    endloop
  endfacet
  facet normal -5.8633e-06 -0.893493 -0.449077
    outer loop
      vertex 0.707694 -3.41959 -1.87825
      vertex 0.839954 -3.96979 -0.783563
      vertex 0.664054 -3.75104 -1.21879
    endloop
  endfacet
  facet normal -1.47199e-06 -0.893493 -0.449076
    outer loop
      vertex 0.994973 -4.16257 -0.4
      vertex 0.707694 -3.41959 -1.87825
      vertex 0.994974 -2.78148 -3.14785
    endloop
  endfacet
  facet normal 3.51197e-05 -0.893497 -0.44907
    outer loop
      vertex 0.994974 -2.78148 -3.14785
      vertex 0.707694 -3.41959 -1.87825
      vertex 0.762398 -3.00411 -2.70491
    endloop
  endfacet
  facet normal 0 -0.893493 -0.449076
    outer loop
      vertex 0.994973 -4.16257 -0.4
      vertex 0.994974 -2.78148 -3.14785
      vertex 89.5 -4.16257 -0.4
    endloop
  endfacet
  facet normal 0 -0.893493 -0.449076
    outer loop
      vertex 89.5 -4.16257 -0.4
      vertex 0.994974 -2.78148 -3.14785
      vertex 89.5 -2.78148 -3.14785
    endloop
  endfacet
  facet normal 0 -0.893493 -0.449076
    outer loop
      vertex 0.00502645 -2.78148 -3.14785
      vertex 0.00502654 -4.16257 -0.4
      vertex -89.5 -4.16257 -0.4
    endloop
  endfacet
  facet normal -9.4775e-06 -0.893493 -0.449076
    outer loop
      vertex 0.284097 -3.35725 -2.00229
      vertex 0.00502654 -4.16257 -0.4
      vertex 0.00502645 -2.78148 -3.14785
    endloop
  endfacet
  facet normal 7.22811e-06 -0.893495 -0.449074
    outer loop
      vertex 0.00502654 -4.16257 -0.4
      vertex 0.284097 -3.35725 -2.00229
      vertex 0.335946 -3.75104 -1.21879
    endloop
  endfacet
  facet normal -4.22718e-05 -0.893496 -0.449072
    outer loop
      vertex 0.284097 -3.35725 -2.00229
      vertex 0.0976526 -2.87014 -2.97145
      vertex 0.237602 -3.00411 -2.70491
    endloop
  endfacet
  facet normal -0 -0.893493 -0.449076
    outer loop
      vertex 0.00502645 -2.78148 -3.14785
      vertex -89.5 -4.16257 -0.4
      vertex -89.5 -2.78148 -3.14785
    endloop
  endfacet
  facet normal 7.51478e-06 -0.893492 -0.44908
    outer loop
      vertex 0.284097 -3.35725 -2.00229
      vertex 0.00502645 -2.78148 -3.14785
      vertex 0.0976526 -2.87014 -2.97145
    endloop
  endfacet
  facet normal -0 0 1
    outer loop
      vertex -89.5 1.64235 -2.94102
      vertex 89.5 -1.64235 -2.94102
      vertex 89.5 1.64235 -2.94102
    endloop
  endfacet
  facet normal 0 0 1
    outer loop
      vertex 89.5 -1.64235 -2.94102
      vertex -89.5 1.64235 -2.94102
      vertex -89.5 -1.64235 -2.94102
    endloop
  endfacet
  facet normal 0 -0.883536 -0.468363
    outer loop
      vertex -89.5 3.41228 0.4
      vertex 89.5 2.30401 2.49068
      vertex -89.5 2.30401 2.49068
    endloop
  endfacet
  facet normal 0 -0.883536 -0.468363
    outer loop
      vertex 89.5 2.30401 2.49068
      vertex -89.5 3.41228 0.4
      vertex 89.5 3.41228 0.4
    endloop
  endfacet
  facet normal 0 0 -1
    outer loop
      vertex -89.5 -1.64636 2.94654
      vertex 89.5 1.64636 2.94654
      vertex 89.5 -1.64636 2.94654
    endloop
  endfacet
  facet normal -0 0 -1
    outer loop
      vertex 89.5 1.64636 2.94654
      vertex -89.5 -1.64636 2.94654
      vertex -89.5 1.64636 2.94654
    endloop
  endfacet
  facet normal 0 -0.893493 0.449077
    outer loop
      vertex -89.5 2.2988 -2.48351
      vertex 89.5 3.34599 -0.4
      vertex -89.5 3.34599 -0.4
    endloop
  endfacet
  facet normal 0 -0.893493 0.449077
    outer loop
      vertex 89.5 3.34599 -0.4
      vertex -89.5 2.2988 -2.48351
      vertex 89.5 2.2988 -2.48351
    endloop
  endfacet
  facet normal 0 0.883536 -0.468363
    outer loop
      vertex 89.5 -3.41228 0.4
      vertex -89.5 -2.30401 2.49068
      vertex 89.5 -2.30401 2.49068
    endloop
  endfacet
  facet normal 0 0.883536 -0.468363
    outer loop
      vertex -89.5 -2.30401 2.49068
      vertex 89.5 -3.41228 0.4
      vertex -89.5 -3.41228 0.4
    endloop
  endfacet
  facet normal 0 0.893493 0.449077
    outer loop
      vertex 89.5 -2.2988 -2.48351
      vertex -89.5 -3.34599 -0.4
      vertex 89.5 -3.34599 -0.4
    endloop
  endfacet
  facet normal 0 0.893493 0.449077
    outer loop
      vertex -89.5 -3.34599 -0.4
      vertex 89.5 -2.2988 -2.48351
      vertex -89.5 -2.2988 -2.48351
    endloop
  endfacet
  facet normal 0 0 -1
    outer loop
      vertex -89.5 -1.08279 -2.17085
      vertex 89.5 1.08279 -2.17085
      vertex 89.5 -1.08279 -2.17085
    endloop
  endfacet
  facet normal -0 0 -1
    outer loop
      vertex 89.5 1.08279 -2.17085
      vertex -89.5 -1.08279 -2.17085
      vertex -89.5 1.08279 -2.17085
    endloop
  endfacet
  facet normal 0 0.883537 0.468362
    outer loop
      vertex 89.5 2.46318 0.4
      vertex -89.5 1.75528 1.73541
      vertex 89.5 1.75528 1.73541
    endloop
  endfacet
  facet normal 0 0.883537 0.468362
    outer loop
      vertex -89.5 1.75528 1.73541
      vertex 89.5 2.46318 0.4
      vertex -89.5 2.46318 0.4
    endloop
  endfacet
  facet normal -0 0 1
    outer loop
      vertex -89.5 1.08575 2.17493
      vertex 89.5 -1.08575 2.17493
      vertex 89.5 1.08575 2.17493
    endloop
  endfacet
  facet normal 0 0 1
    outer loop
      vertex 89.5 -1.08575 2.17493
      vertex -89.5 1.08575 2.17493
      vertex -89.5 -1.08575 2.17493
    endloop
  endfacet
  facet normal 0 0.893493 -0.449078
    outer loop
      vertex 89.5 1.74976 -1.72781
      vertex -89.5 2.41713 -0.4
      vertex 89.5 2.41713 -0.4
    endloop
  endfacet
  facet normal 0 0.893493 -0.449078
    outer loop
      vertex -89.5 2.41713 -0.4
      vertex 89.5 1.74976 -1.72781
      vertex -89.5 1.74976 -1.72781
    endloop
  endfacet
  facet normal 0 -0.883537 0.468362
    outer loop
      vertex -89.5 -2.46318 0.4
      vertex 89.5 -1.75528 1.73541
      vertex -89.5 -1.75528 1.73541
    endloop
  endfacet
  facet normal 0 -0.883537 0.468362
    outer loop
      vertex 89.5 -1.75528 1.73541
      vertex -89.5 -2.46318 0.4
      vertex 89.5 -2.46318 0.4
    endloop
  endfacet
  facet normal 0 -0.893493 -0.449078
    outer loop
      vertex -89.5 -1.74976 -1.72781
      vertex 89.5 -2.41713 -0.4
      vertex -89.5 -2.41713 -0.4
    endloop
  endfacet
  facet normal 0 -0.893493 -0.449078
    outer loop
      vertex 89.5 -2.41713 -0.4
      vertex -89.5 -1.74976 -1.72781
      vertex 89.5 -1.74976 -1.72781
    endloop
  endfacet
  facet normal -0 0 1
    outer loop
      vertex -89.5 0.713848 -1.66305
      vertex 89.5 -0.713848 -1.66305
      vertex 89.5 0.713848 -1.66305
    endloop
  endfacet
  facet normal 0 0 1
    outer loop
      vertex 89.5 -0.713848 -1.66305
      vertex -89.5 0.713848 -1.66305
      vertex -89.5 -0.713848 -1.66305
    endloop
  endfacet
  facet normal 0 -0.883537 -0.468361
    outer loop
      vertex -89.5 1.83739 0.4
      vertex 89.5 1.39347 1.23743
      vertex -89.5 1.39347 1.23743
    endloop
  endfacet
  facet normal 0 -0.883537 -0.468361
    outer loop
      vertex 89.5 1.39347 1.23743
      vertex -89.5 1.83739 0.4
      vertex 89.5 1.83739 0.4
    endloop
  endfacet
  facet normal 0 0 -1
    outer loop
      vertex -89.5 -0.716117 1.66617
      vertex 89.5 0.716117 1.66617
      vertex 89.5 -0.716117 1.66617
    endloop
  endfacet
  facet normal -0 0 -1
    outer loop
      vertex 89.5 0.716117 1.66617
      vertex -89.5 -0.716117 1.66617
      vertex -89.5 0.716117 1.66617
    endloop
  endfacet
  facet normal 0 -0.893492 0.449078
    outer loop
      vertex -89.5 1.38775 -1.22955
      vertex 89.5 1.80469 -0.4
      vertex -89.5 1.80469 -0.4
    endloop
  endfacet
  facet normal 0 -0.893492 0.449078
    outer loop
      vertex 89.5 1.80469 -0.4
      vertex -89.5 1.38775 -1.22955
      vertex 89.5 1.38775 -1.22955
    endloop
  endfacet
  facet normal 0 0.883537 -0.468361
    outer loop
      vertex 89.5 -1.83739 0.4
      vertex -89.5 -1.39347 1.23743
      vertex 89.5 -1.39347 1.23743
    endloop
  endfacet
  facet normal 0 0.883537 -0.468361
    outer loop
      vertex -89.5 -1.39347 1.23743
      vertex 89.5 -1.83739 0.4
      vertex -89.5 -1.83739 0.4
    endloop
  endfacet
  facet normal 0 0.893492 0.449078
    outer loop
      vertex 89.5 -1.38775 -1.22955
      vertex -89.5 -1.80469 -0.4
      vertex 89.5 -1.80469 -0.4
    endloop
  endfacet
  facet normal 0 0.893492 0.449078
    outer loop
      vertex -89.5 -1.80469 -0.4
      vertex 89.5 -1.38775 -1.22955
      vertex -89.5 -1.38775 -1.22955
    endloop
  endfacet
  facet normal -0.699242 -0.420193 -0.578359
    outer loop
      vertex 0.5 -2.95796 -3.61808
      vertex 0.5 -3.54478 -3.19174
      vertex 0.204302 -2.46589 -3.61808
    endloop
  endfacet
  facet normal -0.69925 -0.420191 -0.57835
    outer loop
      vertex 0.204302 -2.46589 -3.61808
      vertex 0.00502586 -2.78148 -3.14786
      vertex 0.00502586 -2.13427 -3.61808
    endloop
  endfacet
  facet normal -0.699249 -0.420192 -0.578351
    outer loop
      vertex 0.5 -3.54478 -3.19174
      vertex 0.00502586 -2.78148 -3.14786
      vertex 0.204302 -2.46589 -3.61808
    endloop
  endfacet
  facet normal -0.69926 -0.4202 -0.578332
    outer loop
      vertex 0.00502586 -2.78148 -3.14786
      vertex 0.5 -3.54478 -3.19174
      vertex 0.00502586 -3.17694 -2.86053
    endloop
  endfacet
  facet normal 0.699247 -0.420193 -0.578352
    outer loop
      vertex 0.994974 -2.78148 -3.14786
      vertex 0.744504 -2.55108 -3.61808
      vertex 0.994974 -2.13427 -3.61808
    endloop
  endfacet
  facet normal 0.699231 -0.420216 -0.578355
    outer loop
      vertex 0.744504 -2.55108 -3.61808
      vertex 0.994974 -2.78148 -3.14786
      vertex 0.994974 -3.17694 -2.86053
    endloop
  endfacet
  facet normal 0.699251 -0.420197 -0.578345
    outer loop
      vertex 0.994974 -3.17694 -2.86053
      vertex 0.5 -2.95796 -3.61808
      vertex 0.744504 -2.55108 -3.61808
    endloop
  endfacet
  facet normal 0.699258 -0.420184 -0.578346
    outer loop
      vertex 0.5 -2.95796 -3.61808
      vertex 0.994974 -3.17694 -2.86053
      vertex 0.5 -3.54478 -3.19174
    endloop
  endfacet
  facet normal 0.699241 0.420201 0.578354
    outer loop
      vertex 0.994974 -3.17694 -2.86053
      vertex 0.994974 -2.78148 -3.14785
      vertex 0.762398 -3.00411 -2.70491
    endloop
  endfacet
  facet normal 1 0 0
    outer loop
      vertex 0.994974 -2.78148 -3.14785
      vertex 0.994974 -3.17694 -2.86053
      vertex 0.994974 -2.78148 -3.14786
    endloop
  endfacet
  facet normal 0 1 0
    outer loop
      vertex 0.00502586 -2.78148 -3.14786
      vertex 0.00502645 -2.78148 -3.14785
      vertex 0.00502645 -2.78148 -3.14786
    endloop
  endfacet
  facet normal -0.732556 -0.679333 0.0432208
    outer loop
      vertex 0.00502586 -2.78148 -3.14786
      vertex 0.0976526 -2.87014 -2.97145
      vertex 0.00502645 -2.78148 -3.14785
    endloop
  endfacet
  facet normal -0.699252 0.420204 0.578339
    outer loop
      vertex 0.0976526 -2.87014 -2.97145
      vertex 0.00502586 -2.78148 -3.14786
      vertex 0.00502586 -3.17694 -2.86053
    endloop
  endfacet
  facet normal -0.699242 0.420205 0.57835
    outer loop
      vertex 0.237602 -3.00411 -2.70491
      vertex 0.0976526 -2.87014 -2.97145
      vertex 0.00502586 -3.17694 -2.86053
    endloop
  endfacet
  facet normal -0.699257 -0.619095 -0.357436
    outer loop
      vertex 0.5 -3.54478 -3.19174
      vertex 0.5 -4.53652 -1.474
      vertex 0.00502586 -3.17694 -2.86053
    endloop
  endfacet
  facet normal -0.699251 -0.619099 -0.357441
    outer loop
      vertex 0.00502586 -3.17694 -2.86053
      vertex 0.5 -4.53652 -1.474
      vertex 0.00502586 -4.06577 -1.32105
    endloop
  endfacet
  facet normal 0.699258 -0.619093 -0.357438
    outer loop
      vertex 0.994974 -3.17694 -2.86053
      vertex 0.994974 -4.06577 -1.32105
      vertex 0.5 -3.54478 -3.19174
    endloop
  endfacet
  facet normal 0.699252 -0.6191 -0.357438
    outer loop
      vertex 0.5 -3.54478 -3.19174
      vertex 0.994974 -4.06577 -1.32105
      vertex 0.5 -4.53652 -1.474
    endloop
  endfacet
  facet normal 0.699239 0.619114 0.357439
    outer loop
      vertex 0.994974 -3.17694 -2.86053
      vertex 0.762398 -3.00411 -2.70491
      vertex 0.707694 -3.41959 -1.87825
    endloop
  endfacet
  facet normal 0.699259 0.619094 0.357435
    outer loop
      vertex 0.994974 -4.06577 -1.32105
      vertex 0.707694 -3.41959 -1.87825
      vertex 0.664054 -3.75104 -1.21879
    endloop
  endfacet
  facet normal 0.699255 0.619096 0.357439
    outer loop
      vertex 0.707694 -3.41959 -1.87825
      vertex 0.994974 -4.06577 -1.32105
      vertex 0.994974 -3.17694 -2.86053
    endloop
  endfacet
  facet normal -0.699239 0.619113 0.35744
    outer loop
      vertex 0.00502586 -3.17694 -2.86053
      vertex 0.284097 -3.35725 -2.00229
      vertex 0.237602 -3.00411 -2.70491
    endloop
  endfacet
  facet normal -0.699251 0.619099 0.357441
    outer loop
      vertex 0.284097 -3.35725 -2.00229
      vertex 0.00502586 -3.17694 -2.86053
      vertex 0.00502586 -4.06577 -1.32105
    endloop
  endfacet
  facet normal -0.699259 0.619095 0.357434
    outer loop
      vertex 0.335946 -3.75104 -1.21879
      vertex 0.284097 -3.35725 -2.00229
      vertex 0.00502586 -4.06577 -1.32105
    endloop
  endfacet
  facet normal -0.699253 -0.710958 -0.0747217
    outer loop
      vertex 0.5 -4.53652 -1.474
      vertex 0.5 -4.74384 0.498598
      vertex 0.00502586 -4.06577 -1.32105
    endloop
  endfacet
  facet normal -0.699251 -0.71096 -0.0747231
    outer loop
      vertex 0.00502586 -4.06577 -1.32105
      vertex 0.5 -4.74384 0.498598
      vertex 0.00502586 -4.25158 0.446858
    endloop
  endfacet
  facet normal 0.699253 -0.710958 -0.0747228
    outer loop
      vertex 0.994974 -4.06577 -1.32105
      vertex 0.994974 -4.25158 0.446858
      vertex 0.5 -4.53652 -1.474
    endloop
  endfacet
  facet normal 0.699251 -0.71096 -0.0747219
    outer loop
      vertex 0.5 -4.53652 -1.474
      vertex 0.994974 -4.25158 0.446858
      vertex 0.5 -4.74384 0.498598
    endloop
  endfacet
  facet normal 0.69926 0.710952 0.0747219
    outer loop
      vertex 0.839954 -3.96979 -0.783563
      vertex 0.994974 -4.06577 -1.32105
      vertex 0.664054 -3.75104 -1.21879
    endloop
  endfacet
  facet normal 0.979869 0.198549 0.0208688
    outer loop
      vertex 0.994974 -4.25158 0.446858
      vertex 0.994974 -4.16257 -0.4
      vertex 0.994973 -4.24665 0.4
    endloop
  endfacet
  facet normal 0 0.893495 0.449073
    outer loop
      vertex 0.994974 -4.16257 -0.4
      vertex 0.839954 -3.96979 -0.783563
      vertex 0.994973 -4.16257 -0.4
    endloop
  endfacet
  facet normal 0.699255 0.710957 0.0747197
    outer loop
      vertex 0.994974 -4.16257 -0.4
      vertex 0.994974 -4.06577 -1.32105
      vertex 0.839954 -3.96979 -0.783563
    endloop
  endfacet
  facet normal 1 0 0
    outer loop
      vertex 0.994974 -4.06577 -1.32105
      vertex 0.994974 -4.16257 -0.4
      vertex 0.994974 -4.25158 0.446858
    endloop
  endfacet
  facet normal 0.699174 0.711029 0.0747935
    outer loop
      vertex 0.994974 -4.25158 0.446858
      vertex 0.994973 -4.24665 0.4
      vertex 0.966623 -4.22339 0.443895
    endloop
  endfacet
  facet normal -0.699259 0.710953 0.0747198
    outer loop
      vertex 0.00502586 -4.06577 -1.32105
      vertex 0.00502654 -4.16257 -0.4
      vertex 0.335946 -3.75104 -1.21879
    endloop
  endfacet
  facet normal 0 0.883618 -0.468208
    outer loop
      vertex 0.00502681 -4.24665 0.4
      vertex 0.0147662 -4.23866 0.415079
      vertex 0.0050275 -4.24665 0.4
    endloop
  endfacet
  facet normal -0.699143 0.711059 0.0747974
    outer loop
      vertex 0.0147662 -4.23866 0.415079
      vertex 0.00502681 -4.24665 0.4
      vertex 0.00502586 -4.25158 0.446858
    endloop
  endfacet
  facet normal -0.982817 0.18357 0.0192937
    outer loop
      vertex 0.00502637 -4.16257 -0.4
      vertex 0.00502586 -4.25158 0.446858
      vertex 0.00502681 -4.24665 0.4
    endloop
  endfacet
  facet normal -0.991245 0.131314 0.0138014
    outer loop
      vertex 0.00502637 -4.16257 -0.4
      vertex 0.00502586 -4.06577 -1.32105
      vertex 0.00502586 -4.25158 0.446858
    endloop
  endfacet
  facet normal 0 0.994523 0.104522
    outer loop
      vertex 0.00502654 -4.16257 -0.4
      vertex 0.00502586 -4.06577 -1.32105
      vertex 0.00502637 -4.16257 -0.4
    endloop
  endfacet
  facet normal -0.699178 0.711027 0.0747736
    outer loop
      vertex 0.0333767 -4.22339 0.443895
      vertex 0.0147662 -4.23866 0.415079
      vertex 0.00502586 -4.25158 0.446858
    endloop
  endfacet
  facet normal -0.699251 -0.679888 0.220907
    outer loop
      vertex 0.5 -4.74384 0.498598
      vertex 0.5 -4.13092 2.38499
      vertex 0.00502586 -4.25158 0.446858
    endloop
  endfacet
  facet normal -0.699253 -0.679886 0.220907
    outer loop
      vertex 0.5 -4.13092 2.38499
      vertex 0.00502586 -3.70226 2.1375
      vertex 0.00502586 -4.25158 0.446858
    endloop
  endfacet
  facet normal 0.699251 -0.679888 0.220908
    outer loop
      vertex 0.994974 -4.25158 0.446858
      vertex 0.994974 -3.70226 2.1375
      vertex 0.5 -4.74384 0.498598
    endloop
  endfacet
  facet normal 0.699253 -0.679886 0.220906
    outer loop
      vertex 0.994974 -3.70226 2.1375
      vertex 0.5 -4.13092 2.38499
      vertex 0.5 -4.74384 0.498598
    endloop
  endfacet
  facet normal 0.699178 0.679946 -0.220963
    outer loop
      vertex 0.994974 -4.25158 0.446858
      vertex 0.966623 -4.22339 0.443895
      vertex 0.925791 -4.11489 0.648569
    endloop
  endfacet
  facet normal 0.699252 0.679887 -0.220909
    outer loop
      vertex 0.994974 -3.70226 2.1375
      vertex 0.925791 -4.11489 0.648569
      vertex 0.66197 -3.41387 1.971
    endloop
  endfacet
  facet normal 0.699237 0.679901 -0.220912
    outer loop
      vertex 0.925791 -4.11489 0.648569
      vertex 0.994974 -3.70226 2.1375
      vertex 0.994974 -4.25158 0.446858
    endloop
  endfacet
  facet normal -0.69918 0.679945 -0.220957
    outer loop
      vertex 0.00502586 -4.25158 0.446858
      vertex 0.220164 -3.72706 1.38018
      vertex 0.0333767 -4.22339 0.443895
    endloop
  endfacet
  facet normal -0.699254 0.679885 -0.220907
    outer loop
      vertex 0.220164 -3.72706 1.38018
      vertex 0.00502586 -4.25158 0.446858
      vertex 0.00502586 -3.70226 2.1375
    endloop
  endfacet
  facet normal -0.699252 0.679888 -0.220907
    outer loop
      vertex 0.33803 -3.41387 1.971
      vertex 0.220164 -3.72706 1.38018
      vertex 0.00502586 -3.70226 2.1375
    endloop
  endfacet
  facet normal -0.699252 -0.531258 0.478344
    outer loop
      vertex 0.00502586 -3.70226 2.1375
      vertex 0.5 -3.01452 3.62488
      vertex 0.432686 -2.92592 3.62488
    endloop
  endfacet
  facet normal -0.699254 -0.531255 0.478343
    outer loop
      vertex 0.5 -3.01452 3.62488
      vertex 0.00502586 -3.70226 2.1375
      vertex 0.5 -4.13092 2.38499
    endloop
  endfacet
  facet normal -0.699261 -0.531251 0.478336
    outer loop
      vertex 0.00502586 -2.78641 3.15465
      vertex 0.210619 -2.63363 3.62488
      vertex 0.00502586 -2.51278 3.45855
    endloop
  endfacet
  facet normal -0.699256 -0.531259 0.478336
    outer loop
      vertex 0.00502586 -2.78641 3.15465
      vertex 0.432686 -2.92592 3.62488
      vertex 0.210619 -2.63363 3.62488
    endloop
  endfacet
  facet normal -0.699259 -0.53125 0.478342
    outer loop
      vertex 0.432686 -2.92592 3.62488
      vertex 0.00502586 -2.78641 3.15465
      vertex 0.00502586 -3.70226 2.1375
    endloop
  endfacet
  facet normal 0.699262 -0.531251 0.478336
    outer loop
      vertex 0.5 -4.13092 2.38499
      vertex 0.994974 -2.78641 3.15465
      vertex 0.994974 -2.51278 3.45855
    endloop
  endfacet
  facet normal 0.699254 -0.531253 0.478345
    outer loop
      vertex 0.994974 -2.78641 3.15465
      vertex 0.5 -4.13092 2.38499
      vertex 0.994974 -3.70226 2.1375
    endloop
  endfacet
  facet normal 0.69926 -0.531263 0.478326
    outer loop
      vertex 0.5 -3.01452 3.62488
      vertex 0.994974 -2.51278 3.45855
      vertex 0.789381 -2.63363 3.62488
    endloop
  endfacet
  facet normal 0.699256 -0.531253 0.478342
    outer loop
      vertex 0.994974 -2.51278 3.45855
      vertex 0.5 -3.01452 3.62488
      vertex 0.5 -4.13092 2.38499
    endloop
  endfacet
  facet normal 0.69925 0.53125 -0.478354
    outer loop
      vertex 0.807113 -3.14038 2.4869
      vertex 0.994974 -3.70226 2.1375
      vertex 0.66197 -3.41387 1.971
    endloop
  endfacet
  facet normal 0.699266 0.531245 -0.478337
    outer loop
      vertex 0.807113 -3.14038 2.4869
      vertex 0.994974 -2.78641 3.15465
      vertex 0.994974 -3.70226 2.1375
    endloop
  endfacet
  facet normal -0.699251 0.531256 -0.478347
    outer loop
      vertex 0.00502586 -3.70226 2.1375
      vertex 0.0050263 -2.78641 3.15465
      vertex 0.33803 -3.41387 1.971
    endloop
  endfacet
  facet normal 0 0.743143 -0.669132
    outer loop
      vertex 0.0050263 -2.78641 3.15465
      vertex 0.00502586 -3.70226 2.1375
      vertex 0.00502586 -2.78641 3.15465
    endloop
  endfacet
  facet normal -0.69926 -0.290765 0.653063
    outer loop
      vertex 0.210619 -2.63363 3.62488
      vertex 0.0732241 -2.30321 3.62488
      vertex 0.00502586 -2.51278 3.45855
    endloop
  endfacet
  facet normal -0.69926 -0.290765 0.653063
    outer loop
      vertex 0.0732241 -2.30321 3.62488
      vertex 0.00502586 -2.1392 3.62488
      vertex 0.00502586 -2.51278 3.45855
    endloop
  endfacet
  facet normal 0.69926 -0.290765 0.653063
    outer loop
      vertex 0.994974 -2.51278 3.45855
      vertex 0.994974 -2.1392 3.62488
      vertex 0.789381 -2.63363 3.62488
    endloop
  endfacet
  facet normal -0.69926 0.290765 0.653063
    outer loop
      vertex 0.210619 2.63363 3.62488
      vertex 0.00502586 2.51278 3.45855
      vertex 0.00502586 2.1392 3.62488
    endloop
  endfacet
  facet normal 0.699262 0.290764 0.653061
    outer loop
      vertex 0.994974 2.1392 3.62488
      vertex 0.994974 2.51278 3.45855
      vertex 0.926776 2.30321 3.62488
    endloop
  endfacet
  facet normal 0.69926 0.290766 0.653063
    outer loop
      vertex 0.926776 2.30321 3.62488
      vertex 0.994974 2.51278 3.45855
      vertex 0.789381 2.63363 3.62488
    endloop
  endfacet
  facet normal -0.699256 0.531253 0.478342
    outer loop
      vertex 0.00502586 2.51278 3.45855
      vertex 0.5 3.01452 3.62488
      vertex 0.5 4.13092 2.38499
    endloop
  endfacet
  facet normal -0.69926 0.531262 0.478326
    outer loop
      vertex 0.5 3.01452 3.62488
      vertex 0.00502586 2.51278 3.45855
      vertex 0.210619 2.63363 3.62488
    endloop
  endfacet
  facet normal -0.699254 0.531253 0.478345
    outer loop
      vertex 0.00502586 2.78641 3.15465
      vertex 0.5 4.13092 2.38499
      vertex 0.00502586 3.70226 2.1375
    endloop
  endfacet
  facet normal -0.699262 0.531251 0.478336
    outer loop
      vertex 0.5 4.13092 2.38499
      vertex 0.00502586 2.78641 3.15465
      vertex 0.00502586 2.51278 3.45855
    endloop
  endfacet
  facet normal 0.699259 0.53125 0.478341
    outer loop
      vertex 0.567314 2.92592 3.62488
      vertex 0.994974 2.78641 3.15465
      vertex 0.994974 3.70226 2.1375
    endloop
  endfacet
  facet normal 0.699256 0.531259 0.478336
    outer loop
      vertex 0.789381 2.63363 3.62488
      vertex 0.994974 2.78641 3.15465
      vertex 0.567314 2.92592 3.62488
    endloop
  endfacet
  facet normal 0.699262 0.531251 0.478336
    outer loop
      vertex 0.994974 2.78641 3.15465
      vertex 0.789381 2.63363 3.62488
      vertex 0.994974 2.51278 3.45855
    endloop
  endfacet
  facet normal 0.699254 0.531255 0.478343
    outer loop
      vertex 0.5 3.01452 3.62488
      vertex 0.994974 3.70226 2.1375
      vertex 0.5 4.13092 2.38499
    endloop
  endfacet
  facet normal 0.699252 0.531258 0.478343
    outer loop
      vertex 0.994974 3.70226 2.1375
      vertex 0.5 3.01452 3.62488
      vertex 0.567314 2.92592 3.62488
    endloop
  endfacet
  facet normal 0.699251 -0.531255 -0.478347
    outer loop
      vertex 0.994974 3.70226 2.1375
      vertex 0.994974 2.78641 3.15465
      vertex 0.66197 3.41387 1.971
    endloop
  endfacet
  facet normal 0 -0.883539 -0.468358
    outer loop
      vertex 0.00502586 2.78641 3.15465
      vertex 0.192887 3.14038 2.4869
      vertex 0.0050263 2.78641 3.15465
    endloop
  endfacet
  facet normal -0.699266 -0.531245 -0.478337
    outer loop
      vertex 0.192887 3.14038 2.4869
      vertex 0.00502586 2.78641 3.15465
      vertex 0.00502586 3.70226 2.1375
    endloop
  endfacet
  facet normal -0.69925 -0.53125 -0.478354
    outer loop
      vertex 0.33803 3.41387 1.971
      vertex 0.192887 3.14038 2.4869
      vertex 0.00502586 3.70226 2.1375
    endloop
  endfacet
  facet normal -0.699253 0.679886 0.220906
    outer loop
      vertex 0.5 4.13092 2.38499
      vertex 0.5 4.74384 0.498598
      vertex 0.00502586 3.70226 2.1375
    endloop
  endfacet
  facet normal -0.699251 0.679888 0.220908
    outer loop
      vertex 0.5 4.74384 0.498598
      vertex 0.00502586 4.25158 0.446858
      vertex 0.00502586 3.70226 2.1375
    endloop
  endfacet
  facet normal 0.699253 0.679886 0.220907
    outer loop
      vertex 0.994974 3.70226 2.1375
      vertex 0.994974 4.25158 0.446858
      vertex 0.5 4.13092 2.38499
    endloop
  endfacet
  facet normal 0.699252 0.679888 0.220907
    outer loop
      vertex 0.994974 4.25158 0.446858
      vertex 0.5 4.74384 0.498598
      vertex 0.5 4.13092 2.38499
    endloop
  endfacet
  facet normal 0.699252 -0.679888 -0.220906
    outer loop
      vertex 0.779836 3.72706 1.38018
      vertex 0.994974 3.70226 2.1375
      vertex 0.66197 3.41387 1.971
    endloop
  endfacet
  facet normal 0.699178 -0.679947 -0.220959
    outer loop
      vertex 0.994974 4.25158 0.446858
      vertex 0.779836 3.72706 1.38018
      vertex 0.966623 4.22339 0.443895
    endloop
  endfacet
  facet normal 0.699254 -0.679885 -0.220907
    outer loop
      vertex 0.779836 3.72706 1.38018
      vertex 0.994974 4.25158 0.446858
      vertex 0.994974 3.70226 2.1375
    endloop
  endfacet
  facet normal -0.699237 -0.679901 -0.220912
    outer loop
      vertex 0.0742089 4.11489 0.648569
      vertex 0.00502586 3.70226 2.1375
      vertex 0.00502586 4.25158 0.446858
    endloop
  endfacet
  facet normal -0.699252 -0.679887 -0.220909
    outer loop
      vertex 0.00502586 3.70226 2.1375
      vertex 0.0742089 4.11489 0.648569
      vertex 0.33803 3.41387 1.971
    endloop
  endfacet
  facet normal -0.69918 -0.679944 -0.220961
    outer loop
      vertex 0.0333767 4.22339 0.443895
      vertex 0.0742089 4.11489 0.648569
      vertex 0.00502586 4.25158 0.446858
    endloop
  endfacet
  facet normal -0.699251 0.71096 -0.0747219
    outer loop
      vertex 0.5 4.74384 0.498598
      vertex 0.5 4.53652 -1.474
      vertex 0.00502586 4.25158 0.446858
    endloop
  endfacet
  facet normal -0.699253 0.710958 -0.0747228
    outer loop
      vertex 0.00502586 4.25158 0.446858
      vertex 0.5 4.53652 -1.474
      vertex 0.00502586 4.06577 -1.32105
    endloop
  endfacet
  facet normal 0.699251 0.71096 -0.0747231
    outer loop
      vertex 0.994974 4.25158 0.446858
      vertex 0.994974 4.06577 -1.32105
      vertex 0.5 4.74384 0.498598
    endloop
  endfacet
  facet normal 0.699253 0.710958 -0.0747217
    outer loop
      vertex 0.5 4.74384 0.498598
      vertex 0.994974 4.06577 -1.32105
      vertex 0.5 4.53652 -1.474
    endloop
  endfacet
  facet normal 0.699175 -0.711029 0.0747828
    outer loop
      vertex 0.985234 4.23866 0.415079
      vertex 0.994974 4.25158 0.446858
      vertex 0.966623 4.22339 0.443895
    endloop
  endfacet
  facet normal 0.699259 -0.710952 0.07472
    outer loop
      vertex 0.994974 4.06577 -1.32105
      vertex 0.994973 4.16257 -0.4
      vertex 0.664054 3.75104 -1.21879
    endloop
  endfacet
  facet normal 0.699157 -0.711045 0.0747952
    outer loop
      vertex 0.985234 4.23866 0.415079
      vertex 0.994973 4.24665 0.4
      vertex 0.994974 4.25158 0.446858
    endloop
  endfacet
  facet normal 0.979869 -0.198549 0.0208688
    outer loop
      vertex 0.994974 4.16257 -0.4
      vertex 0.994974 4.25158 0.446858
      vertex 0.994973 4.24665 0.4
    endloop
  endfacet
  facet normal 1 -0 0
    outer loop
      vertex 0.994974 4.16257 -0.4
      vertex 0.994974 4.06577 -1.32105
      vertex 0.994974 4.25158 0.446858
    endloop
  endfacet
  facet normal 0 -0.994523 0.104522
    outer loop
      vertex 0.994973 4.16257 -0.4
      vertex 0.994974 4.06577 -1.32105
      vertex 0.994974 4.16257 -0.4
    endloop
  endfacet
  facet normal 0 -0.994511 0.104634
    outer loop
      vertex 0.0050275 4.24665 0.4
      vertex 0.00502586 4.25158 0.446858
      vertex 0.00502681 4.24665 0.4
    endloop
  endfacet
  facet normal -0.982817 -0.18357 0.0192937
    outer loop
      vertex 0.00502586 4.25158 0.446858
      vertex 0.00502637 4.16257 -0.4
      vertex 0.00502681 4.24665 0.4
    endloop
  endfacet
  facet normal 0 -0.893495 0.449073
    outer loop
      vertex 0.00502637 4.16257 -0.4
      vertex 0.160046 3.96979 -0.783563
      vertex 0.00502654 4.16257 -0.4
    endloop
  endfacet
  facet normal -0.699255 -0.710956 0.0747201
    outer loop
      vertex 0.00502637 4.16257 -0.4
      vertex 0.00502586 4.06577 -1.32105
      vertex 0.160046 3.96979 -0.783563
    endloop
  endfacet
  facet normal -0.991245 -0.131314 0.0138014
    outer loop
      vertex 0.00502586 4.06577 -1.32105
      vertex 0.00502637 4.16257 -0.4
      vertex 0.00502586 4.25158 0.446858
    endloop
  endfacet
  facet normal -0.699177 -0.711027 0.0747837
    outer loop
      vertex 0.00502586 4.25158 0.446858
      vertex 0.0050275 4.24665 0.4
      vertex 0.0333767 4.22339 0.443895
    endloop
  endfacet
  facet normal -0.699259 -0.710952 0.074722
    outer loop
      vertex 0.335946 3.75104 -1.21879
      vertex 0.160046 3.96979 -0.783563
      vertex 0.00502586 4.06577 -1.32105
    endloop
  endfacet
  facet normal -0.699252 0.6191 -0.357438
    outer loop
      vertex 0.5 4.53652 -1.474
      vertex 0.5 3.54478 -3.19174
      vertex 0.00502586 4.06577 -1.32105
    endloop
  endfacet
  facet normal -0.699258 0.619093 -0.357438
    outer loop
      vertex 0.00502586 4.06577 -1.32105
      vertex 0.5 3.54478 -3.19174
      vertex 0.00502586 3.17694 -2.86053
    endloop
  endfacet
  facet normal 0.699252 0.619099 -0.357441
    outer loop
      vertex 0.994974 4.06577 -1.32105
      vertex 0.994974 3.17694 -2.86053
      vertex 0.5 4.53652 -1.474
    endloop
  endfacet
  facet normal 0.699257 0.619095 -0.357436
    outer loop
      vertex 0.5 4.53652 -1.474
      vertex 0.994974 3.17694 -2.86053
      vertex 0.5 3.54478 -3.19174
    endloop
  endfacet
  facet normal 0.699259 -0.619095 0.357433
    outer loop
      vertex 0.715903 3.35725 -2.00229
      vertex 0.994974 4.06577 -1.32105
      vertex 0.664054 3.75104 -1.21879
    endloop
  endfacet
  facet normal 0.699251 -0.619099 0.357441
    outer loop
      vertex 0.715903 3.35725 -2.00229
      vertex 0.994974 3.17694 -2.86053
      vertex 0.994974 4.06577 -1.32105
    endloop
  endfacet
  facet normal 0.699239 -0.619113 0.35744
    outer loop
      vertex 0.994974 3.17694 -2.86053
      vertex 0.715903 3.35725 -2.00229
      vertex 0.762398 3.00411 -2.70491
    endloop
  endfacet
  facet normal -0.699259 -0.619094 0.357435
    outer loop
      vertex 0.00502586 4.06577 -1.32105
      vertex 0.292306 3.41959 -1.87825
      vertex 0.335946 3.75104 -1.21879
    endloop
  endfacet
  facet normal -0.699255 -0.619096 0.357439
    outer loop
      vertex 0.292306 3.41959 -1.87825
      vertex 0.00502586 4.06577 -1.32105
      vertex 0.00502586 3.17694 -2.86053
    endloop
  endfacet
  facet normal -0.699239 -0.619114 0.357439
    outer loop
      vertex 0.237602 3.00411 -2.70491
      vertex 0.292306 3.41959 -1.87825
      vertex 0.00502586 3.17694 -2.86053
    endloop
  endfacet
  facet normal -0.699258 0.420184 -0.578346
    outer loop
      vertex 0.5 2.95796 -3.61808
      vertex 0.00502586 3.17694 -2.86053
      vertex 0.5 3.54478 -3.19174
    endloop
  endfacet
  facet normal -0.699251 0.420197 -0.578345
    outer loop
      vertex 0.00502586 3.17694 -2.86053
      vertex 0.5 2.95796 -3.61808
      vertex 0.255496 2.55108 -3.61808
    endloop
  endfacet
  facet normal -0.69923 0.420217 -0.578355
    outer loop
      vertex 0.255496 2.55108 -3.61808
      vertex 0.00502586 2.78148 -3.14786
      vertex 0.00502586 3.17694 -2.86053
    endloop
  endfacet
  facet normal -0.699247 0.420193 -0.578352
    outer loop
      vertex 0.00502586 2.78148 -3.14786
      vertex 0.255496 2.55108 -3.61808
      vertex 0.00502586 2.13427 -3.61808
    endloop
  endfacet
  facet normal 0.69926 0.4202 -0.578332
    outer loop
      vertex 0.994974 2.78148 -3.14786
      vertex 0.5 3.54478 -3.19174
      vertex 0.994974 3.17694 -2.86053
    endloop
  endfacet
  facet normal 0.699249 0.420192 -0.57835
    outer loop
      vertex 0.994974 2.78148 -3.14786
      vertex 0.795698 2.46589 -3.61808
      vertex 0.5 3.54478 -3.19174
    endloop
  endfacet
  facet normal 0.69925 0.420191 -0.57835
    outer loop
      vertex 0.795698 2.46589 -3.61808
      vertex 0.994974 2.78148 -3.14786
      vertex 0.994974 2.13427 -3.61808
    endloop
  endfacet
  facet normal 0.699242 0.420193 -0.578359
    outer loop
      vertex 0.5 3.54478 -3.19174
      vertex 0.795698 2.46589 -3.61808
      vertex 0.5 2.95796 -3.61808
    endloop
  endfacet
  facet normal 0.699242 -0.420206 0.578349
    outer loop
      vertex 0.902347 2.87014 -2.97145
      vertex 0.994974 3.17694 -2.86053
      vertex 0.762398 3.00411 -2.70491
    endloop
  endfacet
  facet normal 0.691468 0.722407 -0
    outer loop
      vertex 0.994974 2.78148 -3.14786
      vertex 0.902347 2.87014 -2.97145
      vertex 0.994974 2.78148 -3.14785
    endloop
  endfacet
  facet normal 0.699251 -0.420205 0.578339
    outer loop
      vertex 0.902347 2.87014 -2.97145
      vertex 0.994974 2.78148 -3.14786
      vertex 0.994974 3.17694 -2.86053
    endloop
  endfacet
  facet normal -0.997351 -0.0427542 0.0588437
    outer loop
      vertex 0.00502645 2.78148 -3.14785
      vertex 0.00502586 3.17694 -2.86053
      vertex 0.00502586 2.78148 -3.14786
    endloop
  endfacet
  facet normal -0.699241 -0.420202 0.578353
    outer loop
      vertex 0.00502586 3.17694 -2.86053
      vertex 0.00502645 2.78148 -3.14785
      vertex 0.237602 3.00411 -2.70491
    endloop
  endfacet
  facet normal 0 -1 -0
    outer loop
      vertex 0.00502645 2.78148 -3.14785
      vertex 0.00502586 2.78148 -3.14786
      vertex 0.00502645 2.78148 -3.14786
    endloop
  endfacet
endsolid OpenSCAD_Model
