solid OpenSCAD_Model
  facet normal 0.951057 0.309017 -6.86017e-017
    outer loop
      vertex 3 1.108e-015 4.99
      vertex 2.42705 1.76336 5
      vertex 3 1.11022e-015 5
    endloop
  endfacet
  facet normal 0.951057 0.309017 0
    outer loop
      vertex 2.42705 1.76336 5
      vertex 3 1.108e-015 4.99
      vertex 2.42705 1.76336 0
    endloop
  endfacet
  facet normal 1 0 0
    outer loop
      vertex 3 0 0
      vertex 3 1.108e-015 4.99
      vertex 3 0 4.99
    endloop
  endfacet
  facet normal 0.951057 0.309017 -6.86154e-017
    outer loop
      vertex 3 1.108e-015 4.99
      vertex 3 0 0
      vertex 2.42705 1.76336 0
    endloop
  endfacet
  facet normal -0.951057 0.309017 0
    outer loop
      vertex -3 0 0
      vertex -2.42705 1.76336 5
      vertex -2.42705 1.76336 0
    endloop
  endfacet
  facet normal -0.951057 0.309017 0
    outer loop
      vertex -2.42705 1.76336 5
      vertex -3 0 0
      vertex -3 0 5
    endloop
  endfacet
  facet normal 0 -1 0
    outer loop
      vertex -0.927051 -2.85317 5
      vertex 0 -2.85317 4.99
      vertex 0 -2.85317 5
    endloop
  endfacet
  facet normal 0 -1 0
    outer loop
      vertex -0.927051 -2.85317 0
      vertex 0 -2.85317 4.99
      vertex -0.927051 -2.85317 5
    endloop
  endfacet
  facet normal 0 -1 0
    outer loop
      vertex 0.927051 -2.85317 0
      vertex 0 -2.85317 4.99
      vertex -0.927051 -2.85317 0
    endloop
  endfacet
  facet normal 0 -1 0
    outer loop
      vertex 0 -2.85317 4.99
      vertex 0.927051 -2.85317 0
      vertex 0.927051 -2.85317 4.99
    endloop
  endfacet
  facet normal 0 1 -0
    outer loop
      vertex 0.927051 2.85317 0
      vertex -0.927051 2.85317 5
      vertex 0.927051 2.85317 5
    endloop
  endfacet
  facet normal 0 1 0
    outer loop
      vertex -0.927051 2.85317 5
      vertex 0.927051 2.85317 0
      vertex -0.927051 2.85317 0
    endloop
  endfacet
  facet normal 0.587784 0.809018 -0
    outer loop
      vertex 2.42705 1.76336 0
      vertex 0.927051 2.85317 5
      vertex 2.42705 1.76336 5
    endloop
  endfacet
  facet normal 0.587784 0.809018 0
    outer loop
      vertex 0.927051 2.85317 5
      vertex 2.42705 1.76336 0
      vertex 0.927051 2.85317 0
    endloop
  endfacet
  facet normal 0 0 1
    outer loop
      vertex 0 1.11022e-015 5
      vertex 2.42705 1.76336 5
      vertex 0.927051 2.85317 5
    endloop
  endfacet
  facet normal 0 0 1
    outer loop
      vertex 2.42705 1.76336 5
      vertex 0 1.11022e-015 5
      vertex 3 1.11022e-015 5
    endloop
  endfacet
  facet normal -0 0 1
    outer loop
      vertex -0.927051 2.85317 5
      vertex 0 1.11022e-015 5
      vertex 0.927051 2.85317 5
    endloop
  endfacet
  facet normal -0 0 1
    outer loop
      vertex -2.42705 1.76336 5
      vertex 0 1.11022e-015 5
      vertex -0.927051 2.85317 5
    endloop
  endfacet
  facet normal 0 0 1
    outer loop
      vertex -3 0 5
      vertex 0 1.11022e-015 5
      vertex -2.42705 1.76336 5
    endloop
  endfacet
  facet normal 0 -0 1
    outer loop
      vertex -2.42705 -1.76336 5
      vertex 0 1.11022e-015 5
      vertex -3 0 5
    endloop
  endfacet
  facet normal 0 0 1
    outer loop
      vertex 0 1.11022e-015 5
      vertex -0.927051 -2.85317 5
      vertex 0 -2.85317 5
    endloop
  endfacet
  facet normal 0 -0 1
    outer loop
      vertex -0.927051 -2.85317 5
      vertex 0 1.11022e-015 5
      vertex -2.42705 -1.76336 5
    endloop
  endfacet
  facet normal -0.587784 0.809018 0
    outer loop
      vertex -0.927051 2.85317 0
      vertex -2.42705 1.76336 5
      vertex -0.927051 2.85317 5
    endloop
  endfacet
  facet normal -0.587784 0.809018 0
    outer loop
      vertex -2.42705 1.76336 5
      vertex -0.927051 2.85317 0
      vertex -2.42705 1.76336 0
    endloop
  endfacet
  facet normal 0.951057 -0.309017 0
    outer loop
      vertex 2.42705 -1.76336 4.99
      vertex 3 0 0
      vertex 3 0 4.99
    endloop
  endfacet
  facet normal 0.951057 -0.309017 0
    outer loop
      vertex 3 0 0
      vertex 2.42705 -1.76336 4.99
      vertex 2.42705 -1.76336 0
    endloop
  endfacet
  facet normal 0 0 -1
    outer loop
      vertex 2.42705 -1.76336 0
      vertex 2.42705 1.76336 0
      vertex 3 0 0
    endloop
  endfacet
  facet normal 0 0 -1
    outer loop
      vertex 0.927051 -2.85317 0
      vertex 2.42705 1.76336 0
      vertex 2.42705 -1.76336 0
    endloop
  endfacet
  facet normal 0 0 -1
    outer loop
      vertex 0.927051 -2.85317 0
      vertex 0.927051 2.85317 0
      vertex 2.42705 1.76336 0
    endloop
  endfacet
  facet normal 0 0 -1
    outer loop
      vertex -0.927051 -2.85317 0
      vertex 0.927051 2.85317 0
      vertex 0.927051 -2.85317 0
    endloop
  endfacet
  facet normal 0 0 -1
    outer loop
      vertex -0.927051 -2.85317 0
      vertex -0.927051 2.85317 0
      vertex 0.927051 2.85317 0
    endloop
  endfacet
  facet normal 0 0 -1
    outer loop
      vertex -2.42705 -1.76336 0
      vertex -0.927051 2.85317 0
      vertex -0.927051 -2.85317 0
    endloop
  endfacet
  facet normal 0 0 -1
    outer loop
      vertex -2.42705 -1.76336 0
      vertex -2.42705 1.76336 0
      vertex -0.927051 2.85317 0
    endloop
  endfacet
  facet normal 0 -0 -1
    outer loop
      vertex -2.42705 1.76336 0
      vertex -2.42705 -1.76336 0
      vertex -3 0 0
    endloop
  endfacet
  facet normal 0.587784 -0.809018 0
    outer loop
      vertex 0.927051 -2.85317 0
      vertex 2.42705 -1.76336 4.99
      vertex 0.927051 -2.85317 4.99
    endloop
  endfacet
  facet normal 0.587784 -0.809018 0
    outer loop
      vertex 2.42705 -1.76336 4.99
      vertex 0.927051 -2.85317 0
      vertex 2.42705 -1.76336 0
    endloop
  endfacet
  facet normal -0.587784 -0.809018 0
    outer loop
      vertex -2.42705 -1.76336 0
      vertex -0.927051 -2.85317 5
      vertex -2.42705 -1.76336 5
    endloop
  endfacet
  facet normal -0.587784 -0.809018 -0
    outer loop
      vertex -0.927051 -2.85317 5
      vertex -2.42705 -1.76336 0
      vertex -0.927051 -2.85317 0
    endloop
  endfacet
  facet normal -0.951057 -0.309017 0
    outer loop
      vertex -2.42705 -1.76336 0
      vertex -3 0 5
      vertex -3 0 0
    endloop
  endfacet
  facet normal -0.951057 -0.309017 0
    outer loop
      vertex -3 0 5
      vertex -2.42705 -1.76336 0
      vertex -2.42705 -1.76336 5
    endloop
  endfacet
  facet normal 0.951065 0.308992 0
    outer loop
      vertex 33 0 5
      vertex 32.4271 1.76336 0
      vertex 32.4271 1.76336 5
    endloop
  endfacet
  facet normal 0.951065 0.308992 0
    outer loop
      vertex 32.4271 1.76336 0
      vertex 33 0 5
      vertex 33 0 0
    endloop
  endfacet
  facet normal 0 1 -0
    outer loop
      vertex 30.9271 2.85317 0
      vertex 29.0729 2.85317 5
      vertex 30.9271 2.85317 5
    endloop
  endfacet
  facet normal 0 1 0
    outer loop
      vertex 29.0729 2.85317 5
      vertex 30.9271 2.85317 0
      vertex 29.0729 2.85317 0
    endloop
  endfacet
  facet normal 0.587784 0.809018 -0
    outer loop
      vertex 32.4271 1.76336 0
      vertex 30.9271 2.85317 5
      vertex 32.4271 1.76336 5
    endloop
  endfacet
  facet normal 0.587784 0.809018 0
    outer loop
      vertex 30.9271 2.85317 5
      vertex 32.4271 1.76336 0
      vertex 30.9271 2.85317 0
    endloop
  endfacet
  facet normal -0.951065 -0.308992 0
    outer loop
      vertex 27.5729 -1.76336 0
      vertex 27 0 4.99
      vertex 27 0 0
    endloop
  endfacet
  facet normal -0.951065 -0.308992 0
    outer loop
      vertex 27 0 4.99
      vertex 27.5729 -1.76336 0
      vertex 27.5729 -1.76336 4.99
    endloop
  endfacet
  facet normal -0.587784 0.809018 0
    outer loop
      vertex 29.0729 2.85317 0
      vertex 27.5729 1.76336 5
      vertex 29.0729 2.85317 5
    endloop
  endfacet
  facet normal -0.587784 0.809018 0
    outer loop
      vertex 27.5729 1.76336 5
      vertex 29.0729 2.85317 0
      vertex 27.5729 1.76336 0
    endloop
  endfacet
  facet normal 0.951065 -0.308992 0
    outer loop
      vertex 32.4271 -1.76336 5
      vertex 33 0 0
      vertex 33 0 5
    endloop
  endfacet
  facet normal 0.951065 -0.308992 0
    outer loop
      vertex 33 0 0
      vertex 32.4271 -1.76336 5
      vertex 32.4271 -1.76336 0
    endloop
  endfacet
  facet normal 0.587784 -0.809018 0
    outer loop
      vertex 30.9271 -2.85317 0
      vertex 32.4271 -1.76336 5
      vertex 30.9271 -2.85317 5
    endloop
  endfacet
  facet normal 0.587784 -0.809018 0
    outer loop
      vertex 32.4271 -1.76336 5
      vertex 30.9271 -2.85317 0
      vertex 32.4271 -1.76336 0
    endloop
  endfacet
  facet normal -0.587784 -0.809018 0
    outer loop
      vertex 27.5729 -1.76336 0
      vertex 29.0729 -2.85317 4.99
      vertex 27.5729 -1.76336 4.99
    endloop
  endfacet
  facet normal -0.587784 -0.809018 -0
    outer loop
      vertex 29.0729 -2.85317 4.99
      vertex 27.5729 -1.76336 0
      vertex 29.0729 -2.85317 0
    endloop
  endfacet
  facet normal 0 0 -1
    outer loop
      vertex 32.4271 -1.76336 0
      vertex 32.4271 1.76336 0
      vertex 33 0 0
    endloop
  endfacet
  facet normal 0 0 -1
    outer loop
      vertex 30.9271 -2.85317 0
      vertex 32.4271 1.76336 0
      vertex 32.4271 -1.76336 0
    endloop
  endfacet
  facet normal 0 0 -1
    outer loop
      vertex 30.9271 -2.85317 0
      vertex 30.9271 2.85317 0
      vertex 32.4271 1.76336 0
    endloop
  endfacet
  facet normal 0 0 -1
    outer loop
      vertex 29.0729 -2.85317 0
      vertex 30.9271 2.85317 0
      vertex 30.9271 -2.85317 0
    endloop
  endfacet
  facet normal 0 0 -1
    outer loop
      vertex 29.0729 -2.85317 0
      vertex 29.0729 2.85317 0
      vertex 30.9271 2.85317 0
    endloop
  endfacet
  facet normal 0 0 -1
    outer loop
      vertex 27.5729 -1.76336 0
      vertex 29.0729 2.85317 0
      vertex 29.0729 -2.85317 0
    endloop
  endfacet
  facet normal 0 0 -1
    outer loop
      vertex 27.5729 -1.76336 0
      vertex 27.5729 1.76336 0
      vertex 29.0729 2.85317 0
    endloop
  endfacet
  facet normal 0 -0 -1
    outer loop
      vertex 27.5729 1.76336 0
      vertex 27.5729 -1.76336 0
      vertex 27 0 0
    endloop
  endfacet
  facet normal 0 -1 0
    outer loop
      vertex 29.0729 -2.85317 4.99
      vertex 29.0729 -2.85317 0
      vertex 30 -2.85317 4.99
    endloop
  endfacet
  facet normal 0 -1 0
    outer loop
      vertex 30 -2.85317 4.99
      vertex 30.9271 -2.85317 5
      vertex 30 -2.85317 5
    endloop
  endfacet
  facet normal 0 -1 0
    outer loop
      vertex 30.9271 -2.85317 0
      vertex 30 -2.85317 4.99
      vertex 29.0729 -2.85317 0
    endloop
  endfacet
  facet normal 0 -1 0
    outer loop
      vertex 30 -2.85317 4.99
      vertex 30.9271 -2.85317 0
      vertex 30.9271 -2.85317 5
    endloop
  endfacet
  facet normal -0 0 1
    outer loop
      vertex 30 1.11022e-015 5
      vertex 33 0 5
      vertex 32.4271 1.76336 5
    endloop
  endfacet
  facet normal 0 0 1
    outer loop
      vertex 30 1.11022e-015 5
      vertex 32.4271 1.76336 5
      vertex 30.9271 2.85317 5
    endloop
  endfacet
  facet normal 0 0 1
    outer loop
      vertex 33 0 5
      vertex 30 1.11022e-015 5
      vertex 32.4271 -1.76336 5
    endloop
  endfacet
  facet normal 0 0 1
    outer loop
      vertex 32.4271 -1.76336 5
      vertex 30 1.11022e-015 5
      vertex 30.9271 -2.85317 5
    endloop
  endfacet
  facet normal -0 0 1
    outer loop
      vertex 29.0729 2.85317 5
      vertex 30 1.11022e-015 5
      vertex 30.9271 2.85317 5
    endloop
  endfacet
  facet normal -0 0 1
    outer loop
      vertex 27.5729 1.76336 5
      vertex 30 1.11022e-015 5
      vertex 29.0729 2.85317 5
    endloop
  endfacet
  facet normal 0 0 1
    outer loop
      vertex 30 1.11022e-015 5
      vertex 27.5729 1.76336 5
      vertex 27 1.11022e-015 5
    endloop
  endfacet
  facet normal 0 0 1
    outer loop
      vertex 30.9271 -2.85317 5
      vertex 30 1.11022e-015 5
      vertex 30 -2.85317 5
    endloop
  endfacet
  facet normal -0.951065 0.308992 0
    outer loop
      vertex 27 1.108e-015 4.99
      vertex 27.5729 1.76336 5
      vertex 27.5729 1.76336 0
    endloop
  endfacet
  facet normal -0.951065 0.308992 0
    outer loop
      vertex 27.5729 1.76336 5
      vertex 27 1.108e-015 4.99
      vertex 27 1.11022e-015 5
    endloop
  endfacet
  facet normal -0.951065 0.308992 -6.86099e-017
    outer loop
      vertex 27 0 0
      vertex 27 1.108e-015 4.99
      vertex 27.5729 1.76336 0
    endloop
  endfacet
  facet normal -1 -0 0
    outer loop
      vertex 27 1.108e-015 4.99
      vertex 27 0 0
      vertex 27 0 4.99
    endloop
  endfacet
  facet normal 0.951059 0.30901 0
    outer loop
      vertex 3 -30 4.99
      vertex 2.42705 -28.2366 0
      vertex 2.42705 -28.2366 4.99
    endloop
  endfacet
  facet normal 0.951059 0.30901 0
    outer loop
      vertex 2.42705 -28.2366 0
      vertex 3 -30 4.99
      vertex 3 -30 0
    endloop
  endfacet
  facet normal 0 0 0
    outer loop
      vertex 3 -30 0
      vertex 3 -30 4.99
      vertex 3 -30 5
    endloop
  endfacet
  facet normal -0.951059 0.30901 0
    outer loop
      vertex -3 -30 0
      vertex -2.42705 -28.2366 5
      vertex -2.42705 -28.2366 0
    endloop
  endfacet
  facet normal -0.951059 0.30901 0
    outer loop
      vertex -2.42705 -28.2366 5
      vertex -3 -30 0
      vertex -3 -30 5
    endloop
  endfacet
  facet normal 0 1 0
    outer loop
      vertex 0.927051 -27.1468 4.99
      vertex 0.927051 -27.1468 0
      vertex 0 -27.1468 4.99
    endloop
  endfacet
  facet normal 0 1 -0
    outer loop
      vertex 0 -27.1468 4.99
      vertex -0.927051 -27.1468 5
      vertex 0 -27.1468 5
    endloop
  endfacet
  facet normal 0 1 0
    outer loop
      vertex -0.927051 -27.1468 0
      vertex 0 -27.1468 4.99
      vertex 0.927051 -27.1468 0
    endloop
  endfacet
  facet normal 0 1 0
    outer loop
      vertex 0 -27.1468 4.99
      vertex -0.927051 -27.1468 0
      vertex -0.927051 -27.1468 5
    endloop
  endfacet
  facet normal 0.587781 0.80902 -0
    outer loop
      vertex 2.42705 -28.2366 0
      vertex 0.927051 -27.1468 4.99
      vertex 2.42705 -28.2366 4.99
    endloop
  endfacet
  facet normal 0.587781 0.80902 0
    outer loop
      vertex 0.927051 -27.1468 4.99
      vertex 2.42705 -28.2366 0
      vertex 0.927051 -27.1468 0
    endloop
  endfacet
  facet normal 0 0 1
    outer loop
      vertex 0 -27.1468 5
      vertex -0.927051 -27.1468 5
      vertex 0 -30 5
    endloop
  endfacet
  facet normal -0 0 1
    outer loop
      vertex 0 -30 5
      vertex 2.42705 -31.7634 5
      vertex 3 -30 5
    endloop
  endfacet
  facet normal 0 0 1
    outer loop
      vertex 2.42705 -31.7634 5
      vertex 0 -30 5
      vertex 0.927051 -32.8532 5
    endloop
  endfacet
  facet normal 0 0 1
    outer loop
      vertex 0 -30 5
      vertex -0.927051 -32.8532 5
      vertex 0.927051 -32.8532 5
    endloop
  endfacet
  facet normal -0 0 1
    outer loop
      vertex -2.42705 -28.2366 5
      vertex 0 -30 5
      vertex -0.927051 -27.1468 5
    endloop
  endfacet
  facet normal 0 0 1
    outer loop
      vertex -3 -30 5
      vertex 0 -30 5
      vertex -2.42705 -28.2366 5
    endloop
  endfacet
  facet normal 0 0 1
    outer loop
      vertex 0 -30 5
      vertex -2.42705 -31.7634 5
      vertex -0.927051 -32.8532 5
    endloop
  endfacet
  facet normal 0 0 1
    outer loop
      vertex 0 -30 5
      vertex -3 -30 5
      vertex -2.42705 -31.7634 5
    endloop
  endfacet
  facet normal -0.587781 0.80902 0
    outer loop
      vertex -0.927051 -27.1468 0
      vertex -2.42705 -28.2366 5
      vertex -0.927051 -27.1468 5
    endloop
  endfacet
  facet normal -0.587781 0.80902 0
    outer loop
      vertex -2.42705 -28.2366 5
      vertex -0.927051 -27.1468 0
      vertex -2.42705 -28.2366 0
    endloop
  endfacet
  facet normal 0.951059 -0.30901 0
    outer loop
      vertex 2.42705 -31.7634 5
      vertex 3 -30 0
      vertex 3 -30 5
    endloop
  endfacet
  facet normal 0.951059 -0.30901 0
    outer loop
      vertex 3 -30 0
      vertex 2.42705 -31.7634 5
      vertex 2.42705 -31.7634 0
    endloop
  endfacet
  facet normal -0.951059 -0.30901 0
    outer loop
      vertex -2.42705 -31.7634 0
      vertex -3 -30 5
      vertex -3 -30 0
    endloop
  endfacet
  facet normal -0.951059 -0.30901 0
    outer loop
      vertex -3 -30 5
      vertex -2.42705 -31.7634 0
      vertex -2.42705 -31.7634 5
    endloop
  endfacet
  facet normal 0 -1 0
    outer loop
      vertex -0.927051 -32.8532 0
      vertex 0.927051 -32.8532 5
      vertex -0.927051 -32.8532 5
    endloop
  endfacet
  facet normal 0 -1 -0
    outer loop
      vertex 0.927051 -32.8532 5
      vertex -0.927051 -32.8532 0
      vertex 0.927051 -32.8532 0
    endloop
  endfacet
  facet normal 0.587781 -0.80902 0
    outer loop
      vertex 0.927051 -32.8532 0
      vertex 2.42705 -31.7634 5
      vertex 0.927051 -32.8532 5
    endloop
  endfacet
  facet normal 0.587781 -0.80902 0
    outer loop
      vertex 2.42705 -31.7634 5
      vertex 0.927051 -32.8532 0
      vertex 2.42705 -31.7634 0
    endloop
  endfacet
  facet normal 0 0 -1
    outer loop
      vertex 2.42705 -31.7634 0
      vertex 2.42705 -28.2366 0
      vertex 3 -30 0
    endloop
  endfacet
  facet normal 0 0 -1
    outer loop
      vertex 0.927051 -32.8532 0
      vertex 2.42705 -28.2366 0
      vertex 2.42705 -31.7634 0
    endloop
  endfacet
  facet normal 0 0 -1
    outer loop
      vertex 0.927051 -32.8532 0
      vertex 0.927051 -27.1468 0
      vertex 2.42705 -28.2366 0
    endloop
  endfacet
  facet normal 0 0 -1
    outer loop
      vertex -0.927051 -32.8532 0
      vertex 0.927051 -27.1468 0
      vertex 0.927051 -32.8532 0
    endloop
  endfacet
  facet normal 0 0 -1
    outer loop
      vertex -0.927051 -32.8532 0
      vertex -0.927051 -27.1468 0
      vertex 0.927051 -27.1468 0
    endloop
  endfacet
  facet normal 0 0 -1
    outer loop
      vertex -2.42705 -31.7634 0
      vertex -0.927051 -27.1468 0
      vertex -0.927051 -32.8532 0
    endloop
  endfacet
  facet normal 0 0 -1
    outer loop
      vertex -2.42705 -31.7634 0
      vertex -2.42705 -28.2366 0
      vertex -0.927051 -27.1468 0
    endloop
  endfacet
  facet normal 0 -0 -1
    outer loop
      vertex -2.42705 -28.2366 0
      vertex -2.42705 -31.7634 0
      vertex -3 -30 0
    endloop
  endfacet
  facet normal -0.587781 -0.80902 0
    outer loop
      vertex -2.42705 -31.7634 0
      vertex -0.927051 -32.8532 5
      vertex -2.42705 -31.7634 5
    endloop
  endfacet
  facet normal -0.587781 -0.80902 -0
    outer loop
      vertex -0.927051 -32.8532 5
      vertex -2.42705 -31.7634 0
      vertex -0.927051 -32.8532 0
    endloop
  endfacet
  facet normal 0.951067 0.308986 0
    outer loop
      vertex 33 -30 5
      vertex 32.4271 -28.2366 0
      vertex 32.4271 -28.2366 5
    endloop
  endfacet
  facet normal 0.951067 0.308986 0
    outer loop
      vertex 32.4271 -28.2366 0
      vertex 33 -30 5
      vertex 33 -30 0
    endloop
  endfacet
  facet normal 0 1 0
    outer loop
      vertex 30.9271 -27.1468 5
      vertex 30 -27.1468 4.99
      vertex 30 -27.1468 5
    endloop
  endfacet
  facet normal 0 1 -0
    outer loop
      vertex 30.9271 -27.1468 0
      vertex 30 -27.1468 4.99
      vertex 30.9271 -27.1468 5
    endloop
  endfacet
  facet normal 0 1 0
    outer loop
      vertex 29.0729 -27.1468 0
      vertex 30 -27.1468 4.99
      vertex 30.9271 -27.1468 0
    endloop
  endfacet
  facet normal 0 1 0
    outer loop
      vertex 30 -27.1468 4.99
      vertex 29.0729 -27.1468 0
      vertex 29.0729 -27.1468 4.99
    endloop
  endfacet
  facet normal 0.58778 0.809021 -0
    outer loop
      vertex 32.4271 -28.2366 0
      vertex 30.9271 -27.1468 5
      vertex 32.4271 -28.2366 5
    endloop
  endfacet
  facet normal 0.58778 0.809021 0
    outer loop
      vertex 30.9271 -27.1468 5
      vertex 32.4271 -28.2366 0
      vertex 30.9271 -27.1468 0
    endloop
  endfacet
  facet normal -0.951067 -0.308986 0
    outer loop
      vertex 27.5729 -31.7634 0
      vertex 27 -30 5
      vertex 27 -30 0
    endloop
  endfacet
  facet normal -0.951067 -0.308986 0
    outer loop
      vertex 27 -30 5
      vertex 27.5729 -31.7634 0
      vertex 27.5729 -31.7634 5
    endloop
  endfacet
  facet normal -0.58778 0.809021 0
    outer loop
      vertex 29.0729 -27.1468 0
      vertex 27.5729 -28.2366 4.99
      vertex 29.0729 -27.1468 4.99
    endloop
  endfacet
  facet normal -0.58778 0.809021 0
    outer loop
      vertex 27.5729 -28.2366 4.99
      vertex 29.0729 -27.1468 0
      vertex 27.5729 -28.2366 0
    endloop
  endfacet
  facet normal 0.951067 -0.308986 0
    outer loop
      vertex 32.4271 -31.7634 5
      vertex 33 -30 0
      vertex 33 -30 5
    endloop
  endfacet
  facet normal 0.951067 -0.308986 0
    outer loop
      vertex 33 -30 0
      vertex 32.4271 -31.7634 5
      vertex 32.4271 -31.7634 0
    endloop
  endfacet
  facet normal 0.58778 -0.809021 0
    outer loop
      vertex 30.9271 -32.8532 0
      vertex 32.4271 -31.7634 5
      vertex 30.9271 -32.8532 5
    endloop
  endfacet
  facet normal 0.58778 -0.809021 0
    outer loop
      vertex 32.4271 -31.7634 5
      vertex 30.9271 -32.8532 0
      vertex 32.4271 -31.7634 0
    endloop
  endfacet
  facet normal -0.58778 -0.809021 0
    outer loop
      vertex 27.5729 -31.7634 0
      vertex 29.0729 -32.8532 5
      vertex 27.5729 -31.7634 5
    endloop
  endfacet
  facet normal -0.58778 -0.809021 -0
    outer loop
      vertex 29.0729 -32.8532 5
      vertex 27.5729 -31.7634 0
      vertex 29.0729 -32.8532 0
    endloop
  endfacet
  facet normal 0 0 -1
    outer loop
      vertex 32.4271 -31.7634 0
      vertex 32.4271 -28.2366 0
      vertex 33 -30 0
    endloop
  endfacet
  facet normal 0 0 -1
    outer loop
      vertex 30.9271 -32.8532 0
      vertex 32.4271 -28.2366 0
      vertex 32.4271 -31.7634 0
    endloop
  endfacet
  facet normal 0 0 -1
    outer loop
      vertex 30.9271 -32.8532 0
      vertex 30.9271 -27.1468 0
      vertex 32.4271 -28.2366 0
    endloop
  endfacet
  facet normal 0 0 -1
    outer loop
      vertex 29.0729 -32.8532 0
      vertex 30.9271 -27.1468 0
      vertex 30.9271 -32.8532 0
    endloop
  endfacet
  facet normal 0 0 -1
    outer loop
      vertex 29.0729 -32.8532 0
      vertex 29.0729 -27.1468 0
      vertex 30.9271 -27.1468 0
    endloop
  endfacet
  facet normal 0 0 -1
    outer loop
      vertex 27.5729 -31.7634 0
      vertex 29.0729 -27.1468 0
      vertex 29.0729 -32.8532 0
    endloop
  endfacet
  facet normal 0 0 -1
    outer loop
      vertex 27.5729 -31.7634 0
      vertex 27.5729 -28.2366 0
      vertex 29.0729 -27.1468 0
    endloop
  endfacet
  facet normal 0 -0 -1
    outer loop
      vertex 27.5729 -28.2366 0
      vertex 27.5729 -31.7634 0
      vertex 27 -30 0
    endloop
  endfacet
  facet normal -0.951067 0.308986 0
    outer loop
      vertex 27 -30 0
      vertex 27.5729 -28.2366 4.99
      vertex 27.5729 -28.2366 0
    endloop
  endfacet
  facet normal -0.951067 0.308986 0
    outer loop
      vertex 27.5729 -28.2366 4.99
      vertex 27 -30 0
      vertex 27 -30 4.99
    endloop
  endfacet
  facet normal 0 0 0
    outer loop
      vertex 27 -30 0
      vertex 27 -30 5
      vertex 27 -30 4.99
    endloop
  endfacet
  facet normal 0 -1 0
    outer loop
      vertex 29.0729 -32.8532 0
      vertex 30.9271 -32.8532 5
      vertex 29.0729 -32.8532 5
    endloop
  endfacet
  facet normal 0 -1 -0
    outer loop
      vertex 30.9271 -32.8532 5
      vertex 29.0729 -32.8532 0
      vertex 30.9271 -32.8532 0
    endloop
  endfacet
  facet normal 0 0 1
    outer loop
      vertex 30 -30 5
      vertex 33 -30 5
      vertex 32.4271 -28.2366 5
    endloop
  endfacet
  facet normal 0 0 1
    outer loop
      vertex 30 -30 5
      vertex 32.4271 -28.2366 5
      vertex 30.9271 -27.1468 5
    endloop
  endfacet
  facet normal 0 0 1
    outer loop
      vertex 33 -30 5
      vertex 30 -30 5
      vertex 32.4271 -31.7634 5
    endloop
  endfacet
  facet normal 0 0 1
    outer loop
      vertex 30 -30 5
      vertex 30.9271 -27.1468 5
      vertex 30 -27.1468 5
    endloop
  endfacet
  facet normal 0 0 1
    outer loop
      vertex 32.4271 -31.7634 5
      vertex 30 -30 5
      vertex 30.9271 -32.8532 5
    endloop
  endfacet
  facet normal 0 0 1
    outer loop
      vertex 30 -30 5
      vertex 29.0729 -32.8532 5
      vertex 30.9271 -32.8532 5
    endloop
  endfacet
  facet normal 0 0 1
    outer loop
      vertex 30 -30 5
      vertex 27.5729 -31.7634 5
      vertex 29.0729 -32.8532 5
    endloop
  endfacet
  facet normal 0 -0 1
    outer loop
      vertex 27.5729 -31.7634 5
      vertex 30 -30 5
      vertex 27 -30 5
    endloop
  endfacet
  facet normal 0.677289 0.67728 0.287353
    outer loop
      vertex 26.4602 -30 6.66134e-015
      vertex 17.4749 -23.1317 4.99
      vertex 24.3431 -30 4.99
    endloop
  endfacet
  facet normal 0.677288 0.677288 0.287338
    outer loop
      vertex 17.4749 -23.1317 4.99
      vertex 26.4602 -30 6.66134e-015
      vertex 18.5334 -22.0732 4.90123e-015
    endloop
  endfacet
  facet normal -0.677283 -0.677292 0.287338
    outer loop
      vertex 22.0732 -18.5334 4.11524e-015
      vertex 30 -24.3431 4.99
      vertex 23.1317 -17.4749 4.99
    endloop
  endfacet
  facet normal -0.677285 -0.677285 0.287351
    outer loop
      vertex 30 -24.3431 4.99
      vertex 22.0732 -18.5334 4.11524e-015
      vertex 30 -26.4602 5.87535e-015
    endloop
  endfacet
  facet normal 0.707107 -0.707107 0
    outer loop
      vertex 23.1317 -17.4749 4.99
      vertex 18.5334 -22.0732 4.90123e-015
      vertex 22.0732 -18.5334 4.11524e-015
    endloop
  endfacet
  facet normal 0.707107 -0.707107 0
    outer loop
      vertex 18.5334 -22.0732 4.90123e-015
      vertex 23.1317 -17.4749 4.99
      vertex 17.4749 -23.1317 4.99
    endloop
  endfacet
  facet normal 0 0 -1
    outer loop
      vertex 29.0729 -27.1468 4.99
      vertex 30 -24.3431 4.99
      vertex 30 -27.1468 4.99
    endloop
  endfacet
  facet normal 0 0 -1
    outer loop
      vertex 27.5729 -28.2366 4.99
      vertex 30 -24.3431 4.99
      vertex 29.0729 -27.1468 4.99
    endloop
  endfacet
  facet normal 0 0 -1
    outer loop
      vertex 24.3431 -30 4.99
      vertex 27.5729 -28.2366 4.99
      vertex 27 -30 4.99
    endloop
  endfacet
  facet normal 0 0 -1
    outer loop
      vertex 17.4749 -23.1317 4.99
      vertex 27.5729 -28.2366 4.99
      vertex 24.3431 -30 4.99
    endloop
  endfacet
  facet normal 0 0 -1
    outer loop
      vertex 27.5729 -28.2366 4.99
      vertex 23.1317 -17.4749 4.99
      vertex 30 -24.3431 4.99
    endloop
  endfacet
  facet normal 0 0 -1
    outer loop
      vertex 27.5729 -28.2366 4.99
      vertex 17.4749 -23.1317 4.99
      vertex 23.1317 -17.4749 4.99
    endloop
  endfacet
  facet normal 0.707109 0.707105 -8.03963e-007
    outer loop
      vertex 23.1317 -12.5251 4.99
      vertex 22.0619 -11.4553 2.54358e-015
      vertex 17.4749 -6.86827 4.99
    endloop
  endfacet
  facet normal 0.707107 0.707107 -2.33201e-014
    outer loop
      vertex 22.0619 -11.4553 2.54358e-015
      vertex 23.1317 -12.5251 4.99
      vertex 22.0732 -11.4666 2.54609e-015
    endloop
  endfacet
  facet normal 0 0 -1
    outer loop
      vertex 30 -5.65685 4.99
      vertex 29.0729 -2.85317 4.99
      vertex 30 -2.85317 4.99
    endloop
  endfacet
  facet normal 0 0 -1
    outer loop
      vertex 30 -5.65685 4.99
      vertex 27.5729 -1.76336 4.99
      vertex 29.0729 -2.85317 4.99
    endloop
  endfacet
  facet normal 0 0 -1
    outer loop
      vertex 27 0 4.99
      vertex 24.3431 1.108e-015 4.99
      vertex 27 1.108e-015 4.99
    endloop
  endfacet
  facet normal 0 0 -1
    outer loop
      vertex 27.5729 -1.76336 4.99
      vertex 24.3431 1.108e-015 4.99
      vertex 27 0 4.99
    endloop
  endfacet
  facet normal 0 0 -1
    outer loop
      vertex 23.1317 -12.5251 4.99
      vertex 27.5729 -1.76336 4.99
      vertex 30 -5.65685 4.99
    endloop
  endfacet
  facet normal 0 0 -1
    outer loop
      vertex 17.4749 -6.86827 4.99
      vertex 27.5729 -1.76336 4.99
      vertex 23.1317 -12.5251 4.99
    endloop
  endfacet
  facet normal -0 0 -1
    outer loop
      vertex 27.5729 -1.76336 4.99
      vertex 17.4749 -6.86827 4.99
      vertex 24.3431 1.108e-015 4.99
    endloop
  endfacet
  facet normal 0.707106 0.707108 -6.09329e-006
    outer loop
      vertex 22.0619 -11.4553 2.54358e-015
      vertex 18.5334 -7.92681 1.76011e-015
      vertex 17.4749 -6.86827 4.99
    endloop
  endfacet
  facet normal -0.677287 0.677285 0.287347
    outer loop
      vertex 22.0732 -11.4666 2.54609e-015
      vertex 30 -5.65685 4.99
      vertex 30 -3.53978 7.85988e-016
    endloop
  endfacet
  facet normal -0.677285 0.67729 0.287338
    outer loop
      vertex 30 -5.65685 4.99
      vertex 22.0732 -11.4666 2.54609e-015
      vertex 23.1317 -12.5251 4.99
    endloop
  endfacet
  facet normal 0.67729 -0.677283 0.287343
    outer loop
      vertex 18.5334 -7.92681 1.76011e-015
      vertex 24.3431 1.108e-015 4.99
      vertex 17.4749 -6.86827 4.99
    endloop
  endfacet
  facet normal 0.677285 -0.677284 0.287351
    outer loop
      vertex 24.3431 1.108e-015 4.99
      vertex 18.5334 -7.92681 1.76011e-015
      vertex 26.4602 0 0
    endloop
  endfacet
  facet normal -0.707107 0.707107 -7.08524e-006
    outer loop
      vertex 7.93812 -11.4553 2.54358e-015
      vertex 6.86827 -12.5251 4.99
      vertex 12.5251 -6.86827 4.99
    endloop
  endfacet
  facet normal -0.706794 0.707419 0.000127014
    outer loop
      vertex 6.86827 -12.5251 4.99
      vertex 7.93812 -11.4553 2.54358e-015
      vertex 7.92681 -11.4666 2.54609e-015
    endloop
  endfacet
  facet normal 0 0 -1
    outer loop
      vertex 2.42705 -1.76336 4.99
      vertex 12.5251 -6.86827 4.99
      vertex 6.86827 -12.5251 4.99
    endloop
  endfacet
  facet normal 0 0 -1
    outer loop
      vertex 12.5251 -6.86827 4.99
      vertex 2.42705 -1.76336 4.99
      vertex 5.65685 1.108e-015 4.99
    endloop
  endfacet
  facet normal 0 0 -1
    outer loop
      vertex 5.65685 1.108e-015 4.99
      vertex 2.42705 -1.76336 4.99
      vertex 3 0 4.99
    endloop
  endfacet
  facet normal 0 0 -1
    outer loop
      vertex 0 -5.65685 4.99
      vertex 2.42705 -1.76336 4.99
      vertex 6.86827 -12.5251 4.99
    endloop
  endfacet
  facet normal 0 0 -1
    outer loop
      vertex 2.42705 -1.76336 4.99
      vertex 0 -5.65685 4.99
      vertex 0.927051 -2.85317 4.99
    endloop
  endfacet
  facet normal -0 0 -1
    outer loop
      vertex 0.927051 -2.85317 4.99
      vertex 0 -5.65685 4.99
      vertex 0 -2.85317 4.99
    endloop
  endfacet
  facet normal -0 0 -1
    outer loop
      vertex 5.65685 1.108e-015 4.99
      vertex 3 0 4.99
      vertex 3 1.108e-015 4.99
    endloop
  endfacet
  facet normal -0.707108 0.707106 -5.24309e-006
    outer loop
      vertex 12.5251 -6.86827 4.99
      vertex 11.4666 -7.92681 1.76011e-015
      vertex 7.93812 -11.4553 2.54358e-015
    endloop
  endfacet
  facet normal -0.677287 -0.677285 0.287347
    outer loop
      vertex 3.53978 0 0
      vertex 12.5251 -6.86827 4.99
      vertex 5.65685 1.108e-015 4.99
    endloop
  endfacet
  facet normal -0.677286 -0.677287 0.287343
    outer loop
      vertex 12.5251 -6.86827 4.99
      vertex 3.53978 0 0
      vertex 11.4666 -7.92681 1.76011e-015
    endloop
  endfacet
  facet normal 0.677286 0.677285 0.287348
    outer loop
      vertex 0 -5.65685 4.99
      vertex 7.92681 -11.4666 2.54609e-015
      vertex 0 -3.53977 7.85988e-016
    endloop
  endfacet
  facet normal 0.677285 0.677287 0.287343
    outer loop
      vertex 7.92681 -11.4666 2.54609e-015
      vertex 0 -5.65685 4.99
      vertex 6.86827 -12.5251 4.99
    endloop
  endfacet
  facet normal -0.707105 -0.707109 -8.03963e-007
    outer loop
      vertex 11.4553 -22.0619 4.89872e-015
      vertex 12.5251 -23.1317 4.99
      vertex 6.86827 -17.4749 4.99
    endloop
  endfacet
  facet normal -0.707107 -0.707107 -2.50604e-014
    outer loop
      vertex 12.5251 -23.1317 4.99
      vertex 11.4553 -22.0619 4.89872e-015
      vertex 11.4666 -22.0732 4.90123e-015
    endloop
  endfacet
  facet normal -0.707108 -0.707106 -6.09329e-006
    outer loop
      vertex 7.92681 -18.5334 4.11524e-015
      vertex 11.4553 -22.0619 4.89872e-015
      vertex 6.86827 -17.4749 4.99
    endloop
  endfacet
  facet normal -0.67729 0.677285 0.287338
    outer loop
      vertex 11.4666 -22.0732 4.90123e-015
      vertex 5.65685 -30 4.99
      vertex 12.5251 -23.1317 4.99
    endloop
  endfacet
  facet normal -0.677285 0.677287 0.287347
    outer loop
      vertex 5.65685 -30 4.99
      vertex 11.4666 -22.0732 4.90123e-015
      vertex 3.53978 -30 6.66134e-015
    endloop
  endfacet
  facet normal 0 0 -1
    outer loop
      vertex 2.42705 -28.2366 4.99
      vertex 12.5251 -23.1317 4.99
      vertex 5.65685 -30 4.99
    endloop
  endfacet
  facet normal 0 0 -1
    outer loop
      vertex 2.42705 -28.2366 4.99
      vertex 5.65685 -30 4.99
      vertex 3 -30 4.99
    endloop
  endfacet
  facet normal -0 0 -1
    outer loop
      vertex 12.5251 -23.1317 4.99
      vertex 2.42705 -28.2366 4.99
      vertex 6.86827 -17.4749 4.99
    endloop
  endfacet
  facet normal 0 0 -1
    outer loop
      vertex 0 -24.3431 4.99
      vertex 2.42705 -28.2366 4.99
      vertex 0.927051 -27.1468 4.99
    endloop
  endfacet
  facet normal 0 0 -1
    outer loop
      vertex 0 -24.3431 4.99
      vertex 0.927051 -27.1468 4.99
      vertex 0 -27.1468 4.99
    endloop
  endfacet
  facet normal 0 0 -1
    outer loop
      vertex 2.42705 -28.2366 4.99
      vertex 0 -24.3431 4.99
      vertex 6.86827 -17.4749 4.99
    endloop
  endfacet
  facet normal 0.677283 -0.67729 0.287343
    outer loop
      vertex 0 -24.3431 4.99
      vertex 7.92681 -18.5334 4.11524e-015
      vertex 6.86827 -17.4749 4.99
    endloop
  endfacet
  facet normal 0.677284 -0.677285 0.287351
    outer loop
      vertex 7.92681 -18.5334 4.11524e-015
      vertex 0 -24.3431 4.99
      vertex 0 -26.4602 5.87535e-015
    endloop
  endfacet
  facet normal -0.677283 -0.677292 -0.287338
    outer loop
      vertex 30 -24.3431 115.01
      vertex 22.0732 -18.5334 120
      vertex 23.1317 -17.4749 115.01
    endloop
  endfacet
  facet normal -0.677285 -0.677285 -0.287351
    outer loop
      vertex 22.0732 -18.5334 120
      vertex 30 -24.3431 115.01
      vertex 30 -26.4602 120
    endloop
  endfacet
  facet normal 0.677288 0.677288 -0.287338
    outer loop
      vertex 26.4602 -30 120
      vertex 17.4749 -23.1317 115.01
      vertex 18.5334 -22.0732 120
    endloop
  endfacet
  facet normal 0.677289 0.67728 -0.287353
    outer loop
      vertex 17.4749 -23.1317 115.01
      vertex 26.4602 -30 120
      vertex 24.3431 -30 115.01
    endloop
  endfacet
  facet normal 0.707107 -0.707107 0
    outer loop
      vertex 18.5334 -22.0732 120
      vertex 23.1317 -17.4749 115.01
      vertex 22.0732 -18.5334 120
    endloop
  endfacet
  facet normal 0.707107 -0.707107 0
    outer loop
      vertex 23.1317 -17.4749 115.01
      vertex 18.5334 -22.0732 120
      vertex 17.4749 -23.1317 115.01
    endloop
  endfacet
  facet normal 0 0 1
    outer loop
      vertex 30 -24.3431 115.01
      vertex 24.3431 -30 115.01
      vertex 30 -30 115.01
    endloop
  endfacet
  facet normal 0 0 1
    outer loop
      vertex 23.1317 -17.4749 115.01
      vertex 24.3431 -30 115.01
      vertex 30 -24.3431 115.01
    endloop
  endfacet
  facet normal 0 0 1
    outer loop
      vertex 24.3431 -30 115.01
      vertex 23.1317 -17.4749 115.01
      vertex 17.4749 -23.1317 115.01
    endloop
  endfacet
  facet normal -0.707105 -0.707109 8.03963e-007
    outer loop
      vertex 12.5251 -23.1317 115.01
      vertex 11.4553 -22.0619 120
      vertex 6.86827 -17.4749 115.01
    endloop
  endfacet
  facet normal -0.707107 -0.707107 2.33201e-014
    outer loop
      vertex 11.4553 -22.0619 120
      vertex 12.5251 -23.1317 115.01
      vertex 11.4666 -22.0732 120
    endloop
  endfacet
  facet normal 0 0 1
    outer loop
      vertex 6.86827 -17.4749 115.01
      vertex 5.65685 -30 115.01
      vertex 12.5251 -23.1317 115.01
    endloop
  endfacet
  facet normal -0 0 1
    outer loop
      vertex 0 -24.3431 115.01
      vertex 5.65685 -30 115.01
      vertex 6.86827 -17.4749 115.01
    endloop
  endfacet
  facet normal 0 0 1
    outer loop
      vertex 5.65685 -30 115.01
      vertex 0 -24.3431 115.01
      vertex 0 -30 115.01
    endloop
  endfacet
  facet normal -0.707108 -0.707106 6.09329e-006
    outer loop
      vertex 11.4553 -22.0619 120
      vertex 7.92681 -18.5334 120
      vertex 6.86827 -17.4749 115.01
    endloop
  endfacet
  facet normal -0.67729 0.677285 -0.287338
    outer loop
      vertex 5.65685 -30 115.01
      vertex 11.4666 -22.0732 120
      vertex 12.5251 -23.1317 115.01
    endloop
  endfacet
  facet normal -0.677285 0.677287 -0.287347
    outer loop
      vertex 11.4666 -22.0732 120
      vertex 5.65685 -30 115.01
      vertex 3.53978 -30 120
    endloop
  endfacet
  facet normal 0.677283 -0.67729 -0.287343
    outer loop
      vertex 7.92681 -18.5334 120
      vertex 0 -24.3431 115.01
      vertex 6.86827 -17.4749 115.01
    endloop
  endfacet
  facet normal 0.677284 -0.677285 -0.287351
    outer loop
      vertex 0 -24.3431 115.01
      vertex 7.92681 -18.5334 120
      vertex 0 -26.4602 120
    endloop
  endfacet
  facet normal -0.707419 0.706794 -0.000127014
    outer loop
      vertex 12.5251 -6.86827 115.01
      vertex 11.4553 -7.93812 120
      vertex 11.4666 -7.92681 120
    endloop
  endfacet
  facet normal -0.707107 0.707107 7.08524e-006
    outer loop
      vertex 11.4553 -7.93812 120
      vertex 12.5251 -6.86827 115.01
      vertex 6.86827 -12.5251 115.01
    endloop
  endfacet
  facet normal 0 0 1
    outer loop
      vertex 5.65685 2.55374e-014 115.01
      vertex 6.86827 -12.5251 115.01
      vertex 12.5251 -6.86827 115.01
    endloop
  endfacet
  facet normal 0 0 1
    outer loop
      vertex 0 -5.65685 115.01
      vertex 5.65685 2.55374e-014 115.01
      vertex 0 2.55374e-014 115.01
    endloop
  endfacet
  facet normal 0 0 1
    outer loop
      vertex 5.65685 2.55374e-014 115.01
      vertex 0 -5.65685 115.01
      vertex 6.86827 -12.5251 115.01
    endloop
  endfacet
  facet normal -0.707106 0.707108 5.24309e-006
    outer loop
      vertex 7.92681 -11.4666 120
      vertex 11.4553 -7.93812 120
      vertex 6.86827 -12.5251 115.01
    endloop
  endfacet
  facet normal 0.677287 0.677286 -0.287343
    outer loop
      vertex 6.86827 -12.5251 115.01
      vertex 0 -3.53978 120
      vertex 7.92681 -11.4666 120
    endloop
  endfacet
  facet normal 0.677285 0.677287 -0.287347
    outer loop
      vertex 0 -3.53978 120
      vertex 6.86827 -12.5251 115.01
      vertex 0 -5.65685 115.01
    endloop
  endfacet
  facet normal -0.677286 -0.677284 -0.287349
    outer loop
      vertex 12.5251 -6.86827 115.01
      vertex 3.53977 2.66454e-014 120
      vertex 5.65685 2.55374e-014 115.01
    endloop
  endfacet
  facet normal -0.677286 -0.677287 -0.287343
    outer loop
      vertex 3.53977 2.66454e-014 120
      vertex 12.5251 -6.86827 115.01
      vertex 11.4666 -7.92681 120
    endloop
  endfacet
  facet normal 0.707107 0.707107 2.50604e-014
    outer loop
      vertex 23.1317 -12.5251 115.01
      vertex 22.0619 -11.4553 120
      vertex 22.0732 -11.4666 120
    endloop
  endfacet
  facet normal 0.707109 0.707105 8.03963e-007
    outer loop
      vertex 22.0619 -11.4553 120
      vertex 23.1317 -12.5251 115.01
      vertex 17.4749 -6.86827 115.01
    endloop
  endfacet
  facet normal 0.707106 0.707108 6.09329e-006
    outer loop
      vertex 18.5334 -7.92681 120
      vertex 22.0619 -11.4553 120
      vertex 17.4749 -6.86827 115.01
    endloop
  endfacet
  facet normal -0.677287 0.677285 -0.287347
    outer loop
      vertex 30 -5.65685 115.01
      vertex 22.0732 -11.4666 120
      vertex 30 -3.53978 120
    endloop
  endfacet
  facet normal -0.677285 0.67729 -0.287338
    outer loop
      vertex 22.0732 -11.4666 120
      vertex 30 -5.65685 115.01
      vertex 23.1317 -12.5251 115.01
    endloop
  endfacet
  facet normal -0 0 1
    outer loop
      vertex 24.3431 2.55374e-014 115.01
      vertex 30 -5.65685 115.01
      vertex 30 2.55374e-014 115.01
    endloop
  endfacet
  facet normal 0 0 1
    outer loop
      vertex 24.3431 2.55374e-014 115.01
      vertex 23.1317 -12.5251 115.01
      vertex 30 -5.65685 115.01
    endloop
  endfacet
  facet normal 0 -0 1
    outer loop
      vertex 23.1317 -12.5251 115.01
      vertex 24.3431 2.55374e-014 115.01
      vertex 17.4749 -6.86827 115.01
    endloop
  endfacet
  facet normal 0.67729 -0.677283 -0.287343
    outer loop
      vertex 24.3431 2.55374e-014 115.01
      vertex 18.5334 -7.92681 120
      vertex 17.4749 -6.86827 115.01
    endloop
  endfacet
  facet normal 0.677285 -0.677284 -0.287351
    outer loop
      vertex 18.5334 -7.92681 120
      vertex 24.3431 2.55374e-014 115.01
      vertex 26.4602 2.66454e-014 120
    endloop
  endfacet
  facet normal 0.957826 0.287348 0
    outer loop
      vertex 12.5 -30 120
      vertex 11 -25 90
      vertex 11 -25 120
    endloop
  endfacet
  facet normal 0.957826 0.287348 0
    outer loop
      vertex 11 -25 90
      vertex 12.5 -30 120
      vertex 11 -25 60
    endloop
  endfacet
  facet normal 0.957826 0.287348 -0
    outer loop
      vertex 12.5 -30 6.66134e-015
      vertex 11 -25 60
      vertex 12.5 -30 120
    endloop
  endfacet
  facet normal 0.957826 0.287348 0
    outer loop
      vertex 11 -25 60
      vertex 12.5 -30 6.66134e-015
      vertex 11 -25 30
    endloop
  endfacet
  facet normal 0.957826 0.287348 0
    outer loop
      vertex 11 -25 30
      vertex 12.5 -30 6.66134e-015
      vertex 11 -25 5.55112e-015
    endloop
  endfacet
  facet normal -0.957826 0.287348 0
    outer loop
      vertex 17.5 -30 6.66134e-015
      vertex 19 -25 120
      vertex 19 -25 5.55112e-015
    endloop
  endfacet
  facet normal -0.957826 0.287348 0
    outer loop
      vertex 19 -25 120
      vertex 17.5 -30 6.66134e-015
      vertex 17.5 -30 120
    endloop
  endfacet
  facet normal -0 -2.22044e-016 -1
    outer loop
      vertex 12.5 -30 6.66134e-015
      vertex 3.53978 -30 6.66134e-015
      vertex 11 -25 5.55112e-015
    endloop
  endfacet
  facet normal 5.59499e-021 -2.22041e-016 -1
    outer loop
      vertex 11.3594 -12.355 2.74335e-015
      vertex 11.4666 -7.92681 1.76011e-015
      vertex 12.75 -11.1029 2.46534e-015
    endloop
  endfacet
  facet normal -1.88134e-021 -2.22048e-016 -1
    outer loop
      vertex 7.93812 -11.4553 2.54358e-015
      vertex 11.3594 -12.355 2.74335e-015
      vertex 10.5983 -14.0644 3.12292e-015
    endloop
  endfacet
  facet normal -9.91505e-023 -2.22041e-016 -1
    outer loop
      vertex 11.3594 -12.355 2.74335e-015
      vertex 7.93812 -11.4553 2.54358e-015
      vertex 11.4666 -7.92681 1.76011e-015
    endloop
  endfacet
  facet normal 5.77865e-020 -2.22066e-016 -1
    outer loop
      vertex 11.4553 -22.0619 4.89872e-015
      vertex 12.75 -18.8971 4.196e-015
      vertex 11.4666 -22.0732 4.90123e-015
    endloop
  endfacet
  facet normal 3.29455e-022 -2.22043e-016 -1
    outer loop
      vertex 11.4553 -22.0619 4.89872e-015
      vertex 11.3594 -17.645 3.91798e-015
      vertex 12.75 -18.8971 4.196e-015
    endloop
  endfacet
  facet normal 7.68827e-022 -2.22043e-016 -1
    outer loop
      vertex 7.92681 -18.5334 4.11524e-015
      vertex 11.3594 -17.645 3.91798e-015
      vertex 11.4553 -22.0619 4.89872e-015
    endloop
  endfacet
  facet normal 8.74994e-022 -2.22045e-016 -1
    outer loop
      vertex 7.92681 -11.4666 2.54609e-015
      vertex 10.5983 -14.0644 3.12292e-015
      vertex 10.5983 -15.9356 3.53841e-015
    endloop
  endfacet
  facet normal 2.1003e-021 -2.22048e-016 -1
    outer loop
      vertex 11.3594 -17.645 3.91798e-015
      vertex 7.92681 -18.5334 4.11524e-015
      vertex 10.5983 -15.9356 3.53841e-015
    endloop
  endfacet
  facet normal -2.31687e-022 -2.22045e-016 -1
    outer loop
      vertex 7.92681 -11.4666 2.54609e-015
      vertex 10.5983 -15.9356 3.53841e-015
      vertex 7.92681 -18.5334 4.11524e-015
    endloop
  endfacet
  facet normal -3.85939e-020 -2.22085e-016 -1
    outer loop
      vertex 10.5983 -14.0644 3.12292e-015
      vertex 7.92681 -11.4666 2.54609e-015
      vertex 7.93812 -11.4553 2.54358e-015
    endloop
  endfacet
  facet normal -1.24536e-021 -2.22045e-016 -1
    outer loop
      vertex 7.92681 -18.5334 4.11524e-015
      vertex 5 -19 4.21885e-015
      vertex 7.92681 -11.4666 2.54609e-015
    endloop
  endfacet
  facet normal -1.45742e-021 -2.22044e-016 -1
    outer loop
      vertex 0 -26.4602 5.87535e-015
      vertex 5 -19 4.21885e-015
      vertex 7.92681 -18.5334 4.11524e-015
    endloop
  endfacet
  facet normal 4.19946e-022 -2.22045e-016 -1
    outer loop
      vertex 5 -19 4.21885e-015
      vertex 0 -26.4602 5.87535e-015
      vertex 0 -17.5 3.88578e-015
    endloop
  endfacet
  facet normal -0 -2.22044e-016 -1
    outer loop
      vertex 26.4602 -30 6.66134e-015
      vertex 17.5 -30 6.66134e-015
      vertex 19 -25 5.55112e-015
    endloop
  endfacet
  facet normal -2.97946e-021 -2.22048e-016 -1
    outer loop
      vertex 19 -25 5.55112e-015
      vertex 18.5334 -22.0732 4.90123e-015
      vertex 26.4602 -30 6.66134e-015
    endloop
  endfacet
  facet normal -2.0813e-021 -2.22046e-016 -1
    outer loop
      vertex 18.5334 -22.0732 4.90123e-015
      vertex 16.3906 -19.2798 4.28097e-015
      vertex 18.0111 -18.3442 4.07322e-015
    endloop
  endfacet
  facet normal 0 -2.22048e-016 -1
    outer loop
      vertex 11.4666 -22.0732 4.90123e-015
      vertex 18.5334 -22.0732 4.90123e-015
      vertex 19 -25 5.55112e-015
    endloop
  endfacet
  facet normal -1.00637e-020 -2.22053e-016 -1
    outer loop
      vertex 18.5334 -22.0732 4.90123e-015
      vertex 14.5296 -19.4753 4.3244e-015
      vertex 16.3906 -19.2798 4.28097e-015
    endloop
  endfacet
  facet normal -0 -2.22037e-016 -1
    outer loop
      vertex 18.5334 -22.0732 4.90123e-015
      vertex 11.4666 -22.0732 4.90123e-015
      vertex 14.5296 -19.4753 4.3244e-015
    endloop
  endfacet
  facet normal 7.39008e-021 -2.22046e-016 -1
    outer loop
      vertex 14.5296 -19.4753 4.3244e-015
      vertex 11.4666 -22.0732 4.90123e-015
      vertex 12.75 -18.8971 4.196e-015
    endloop
  endfacet
  facet normal 0 -2.22048e-016 -1
    outer loop
      vertex 11 -25 5.55112e-015
      vertex 11.4666 -22.0732 4.90123e-015
      vertex 19 -25 5.55112e-015
    endloop
  endfacet
  facet normal 2.97945e-021 -2.22048e-016 -1
    outer loop
      vertex 11.4666 -22.0732 4.90123e-015
      vertex 11 -25 5.55112e-015
      vertex 3.53978 -30 6.66134e-015
    endloop
  endfacet
  facet normal -9.6269e-021 -2.22031e-016 -1
    outer loop
      vertex 19.111 -13.1697 2.92426e-015
      vertex 22.0732 -11.4666 2.54609e-015
      vertex 19.3043 -14.0794 3.12624e-015
    endloop
  endfacet
  facet normal 2.76946e-020 -2.22096e-016 -1
    outer loop
      vertex 22.0732 -11.4666 2.54609e-015
      vertex 19.111 -13.1697 2.92426e-015
      vertex 22.0619 -11.4553 2.54358e-015
    endloop
  endfacet
  facet normal -5.20003e-021 -2.2204e-016 -1
    outer loop
      vertex 18.0111 -11.6558 2.58812e-015
      vertex 22.0619 -11.4553 2.54358e-015
      vertex 19.111 -13.1697 2.92426e-015
    endloop
  endfacet
  facet normal -4.88042e-021 -2.22046e-016 -1
    outer loop
      vertex 22.0619 -11.4553 2.54358e-015
      vertex 18.0111 -11.6558 2.58812e-015
      vertex 18.5334 -7.92681 1.76011e-015
    endloop
  endfacet
  facet normal -4.19946e-022 -2.22045e-016 -1
    outer loop
      vertex 30 -26.4602 5.87535e-015
      vertex 25 -19 4.21885e-015
      vertex 30 -17.5 3.88578e-015
    endloop
  endfacet
  facet normal 1.29937e-021 -2.22045e-016 -1
    outer loop
      vertex 25 -19 4.21885e-015
      vertex 22.0732 -18.5334 4.11524e-015
      vertex 25 -11 2.44249e-015
    endloop
  endfacet
  facet normal 1.45743e-021 -2.22044e-016 -1
    outer loop
      vertex 22.0732 -18.5334 4.11524e-015
      vertex 25 -19 4.21885e-015
      vertex 30 -26.4602 5.87535e-015
    endloop
  endfacet
  facet normal 5.01671e-022 -2.22045e-016 -1
    outer loop
      vertex 25 -11 2.44249e-015
      vertex 30 -3.53978 7.85988e-016
      vertex 30 -12.5 2.77556e-015
    endloop
  endfacet
  facet normal 2.30962e-021 -2.22046e-016 -1
    outer loop
      vertex 25 -11 2.44249e-015
      vertex 22.0732 -11.4666 2.54609e-015
      vertex 30 -3.53978 7.85988e-016
    endloop
  endfacet
  facet normal 2.17134e-021 -2.22045e-016 -1
    outer loop
      vertex 22.0732 -18.5334 4.11524e-015
      vertex 22.0732 -11.4666 2.54609e-015
      vertex 25 -11 2.44249e-015
    endloop
  endfacet
  facet normal -1.94311e-021 -2.22045e-016 -1
    outer loop
      vertex 19.5 -15 3.33067e-015
      vertex 22.0732 -11.4666 2.54609e-015
      vertex 22.0732 -18.5334 4.11524e-015
    endloop
  endfacet
  facet normal 1.5885e-020 -2.22058e-016 -1
    outer loop
      vertex 19.3043 -14.0794 3.12624e-015
      vertex 22.0732 -11.4666 2.54609e-015
      vertex 19.5 -15 3.33067e-015
    endloop
  endfacet
  facet normal 3.92269e-021 -2.22041e-016 -1
    outer loop
      vertex 22.0732 -18.5334 4.11524e-015
      vertex 19.3066 -15.9097 3.53266e-015
      vertex 19.5 -15 3.33067e-015
    endloop
  endfacet
  facet normal -4.44622e-021 -2.2205e-016 -1
    outer loop
      vertex 22.0732 -18.5334 4.11524e-015
      vertex 19.111 -16.8303 3.73708e-015
      vertex 19.3066 -15.9097 3.53266e-015
    endloop
  endfacet
  facet normal 2.19872e-021 -2.22046e-016 -1
    outer loop
      vertex 18.0111 -18.3442 4.07322e-015
      vertex 22.0732 -18.5334 4.11524e-015
      vertex 18.5334 -22.0732 4.90123e-015
    endloop
  endfacet
  facet normal 2.57797e-021 -2.22038e-016 -1
    outer loop
      vertex 22.0732 -18.5334 4.11524e-015
      vertex 18.0111 -18.3442 4.07322e-015
      vertex 19.111 -16.8303 3.73708e-015
    endloop
  endfacet
  facet normal 2.41015e-021 -2.22048e-016 -1
    outer loop
      vertex 18.5334 -7.92681 1.76011e-015
      vertex 19 -5 1.11022e-015
      vertex 26.4602 0 0
    endloop
  endfacet
  facet normal 1.76323e-021 -2.22047e-016 -1
    outer loop
      vertex 16.3906 -10.7202 2.38037e-015
      vertex 18.5334 -7.92681 1.76011e-015
      vertex 18.0111 -11.6558 2.58812e-015
    endloop
  endfacet
  facet normal 9.98639e-021 -2.22053e-016 -1
    outer loop
      vertex 14.5296 -10.5247 2.33694e-015
      vertex 18.5334 -7.92681 1.76011e-015
      vertex 16.3906 -10.7202 2.38037e-015
    endloop
  endfacet
  facet normal 0 -2.22038e-016 -1
    outer loop
      vertex 11.4666 -7.92681 1.76011e-015
      vertex 18.5334 -7.92681 1.76011e-015
      vertex 14.5296 -10.5247 2.33694e-015
    endloop
  endfacet
  facet normal -7.18929e-021 -2.22046e-016 -1
    outer loop
      vertex 11.4666 -7.92681 1.76011e-015
      vertex 14.5296 -10.5247 2.33694e-015
      vertex 12.75 -11.1029 2.46534e-015
    endloop
  endfacet
  facet normal -0 -2.22047e-016 -1
    outer loop
      vertex 18.5334 -7.92681 1.76011e-015
      vertex 11.4666 -7.92681 1.76011e-015
      vertex 19 -5 1.11022e-015
    endloop
  endfacet
  facet normal 0 -2.22047e-016 -1
    outer loop
      vertex 11.4666 -7.92681 1.76011e-015
      vertex 11 -5 1.11022e-015
      vertex 19 -5 1.11022e-015
    endloop
  endfacet
  facet normal -2.41015e-021 -2.22048e-016 -1
    outer loop
      vertex 11 -5 1.11022e-015
      vertex 11.4666 -7.92681 1.76011e-015
      vertex 3.53978 0 0
    endloop
  endfacet
  facet normal -0 -2.22044e-016 -1
    outer loop
      vertex 26.4602 0 0
      vertex 19 -5 1.11022e-015
      vertex 17.5 0 0
    endloop
  endfacet
  facet normal -0 -2.22044e-016 -1
    outer loop
      vertex 12.5 0 0
      vertex 11 -5 1.11022e-015
      vertex 3.53978 0 0
    endloop
  endfacet
  facet normal -2.11732e-021 -2.22045e-016 -1
    outer loop
      vertex 5 -11 2.44249e-015
      vertex 7.92681 -11.4666 2.54609e-015
      vertex 5 -19 4.21885e-015
    endloop
  endfacet
  facet normal -2.25648e-021 -2.22046e-016 -1
    outer loop
      vertex 5 -11 2.44249e-015
      vertex 0 -3.53977 7.85988e-016
      vertex 7.92681 -11.4666 2.54609e-015
    endloop
  endfacet
  facet normal -5.76014e-022 -2.22045e-016 -1
    outer loop
      vertex 0 -3.53977 7.85988e-016
      vertex 5 -11 2.44249e-015
      vertex 0 -12.5 2.77556e-015
    endloop
  endfacet
  facet normal 0 0 0
    outer loop
      vertex 19 -25 90
      vertex 19 -25 60
      vertex 19 -25 30
    endloop
  endfacet
  facet normal 0 0 0
    outer loop
      vertex 19 -25 90
      vertex 19 -25 30
      vertex 19 -25 5.55112e-015
    endloop
  endfacet
  facet normal 0 0 0
    outer loop
      vertex 19 -25 5.55112e-015
      vertex 19 -25 120
      vertex 19 -25 90
    endloop
  endfacet
  facet normal 0 -1 0
    outer loop
      vertex 3 -30 5
      vertex 0 -30 115.01
      vertex 0 -30 5
    endloop
  endfacet
  facet normal 0 -1 0
    outer loop
      vertex 5.65685 -30 115.01
      vertex 12.5 -30 120
      vertex 3.53978 -30 120
    endloop
  endfacet
  facet normal 0 -1 0
    outer loop
      vertex 0 -30 115.01
      vertex 3 -30 5
      vertex 5.65685 -30 115.01
    endloop
  endfacet
  facet normal 0 -1 0
    outer loop
      vertex 5.65685 -30 4.99
      vertex 5.65685 -30 115.01
      vertex 3 -30 5
    endloop
  endfacet
  facet normal 0 -1 0
    outer loop
      vertex 5.65685 -30 4.99
      vertex 3 -30 5
      vertex 3 -30 4.99
    endloop
  endfacet
  facet normal 0 -1 0
    outer loop
      vertex 5.65685 -30 115.01
      vertex 5.65685 -30 4.99
      vertex 12.5 -30 120
    endloop
  endfacet
  facet normal 0 -1 0
    outer loop
      vertex 5.65685 -30 4.99
      vertex 12.5 -30 6.66134e-015
      vertex 12.5 -30 120
    endloop
  endfacet
  facet normal 0 -1 0
    outer loop
      vertex 12.5 -30 6.66134e-015
      vertex 5.65685 -30 4.99
      vertex 3.53978 -30 6.66134e-015
    endloop
  endfacet
  facet normal 0 -1 0
    outer loop
      vertex 17.5 -30 120
      vertex 24.3431 -30 115.01
      vertex 26.4602 -30 120
    endloop
  endfacet
  facet normal 0 -1 0
    outer loop
      vertex 24.3431 -30 115.01
      vertex 27 -30 5
      vertex 30 -30 115.01
    endloop
  endfacet
  facet normal 0 -1 0
    outer loop
      vertex 24.3431 -30 4.99
      vertex 24.3431 -30 115.01
      vertex 17.5 -30 120
    endloop
  endfacet
  facet normal 0 -1 0
    outer loop
      vertex 24.3431 -30 115.01
      vertex 24.3431 -30 4.99
      vertex 27 -30 5
    endloop
  endfacet
  facet normal 0 -1 0
    outer loop
      vertex 17.5 -30 6.66134e-015
      vertex 24.3431 -30 4.99
      vertex 17.5 -30 120
    endloop
  endfacet
  facet normal 0 -1 -0
    outer loop
      vertex 24.3431 -30 4.99
      vertex 17.5 -30 6.66134e-015
      vertex 26.4602 -30 6.66134e-015
    endloop
  endfacet
  facet normal 0 -1 -0
    outer loop
      vertex 30 -30 115.01
      vertex 27 -30 5
      vertex 30 -30 5
    endloop
  endfacet
  facet normal 0 -1 -0
    outer loop
      vertex 27 -30 5
      vertex 24.3431 -30 4.99
      vertex 27 -30 4.99
    endloop
  endfacet
  facet normal -0.287348 0.957826 0
    outer loop
      vertex 30 -17.5 120
      vertex 25 -19 4.21885e-015
      vertex 25 -19 120
    endloop
  endfacet
  facet normal -0.287348 0.957826 0
    outer loop
      vertex 25 -19 4.21885e-015
      vertex 30 -17.5 120
      vertex 30 -17.5 3.88578e-015
    endloop
  endfacet
  facet normal -0.287348 -0.957826 0
    outer loop
      vertex 25 -11 120
      vertex 30 -12.5 2.77556e-015
      vertex 30 -12.5 120
    endloop
  endfacet
  facet normal -0.287348 -0.957826 0
    outer loop
      vertex 30 -12.5 2.77556e-015
      vertex 25 -11 120
      vertex 25 -11 2.44249e-015
    endloop
  endfacet
  facet normal 1 -0 0
    outer loop
      vertex 25 -19 120
      vertex 25 -11 2.44249e-015
      vertex 25 -11 120
    endloop
  endfacet
  facet normal 1 0 0
    outer loop
      vertex 25 -11 2.44249e-015
      vertex 25 -19 120
      vertex 25 -19 4.21885e-015
    endloop
  endfacet
  facet normal 1 0 0
    outer loop
      vertex 30 -24.3431 115.01
      vertex 30 -27.1468 5
      vertex 30 -24.3431 4.99
    endloop
  endfacet
  facet normal 1 -0 0
    outer loop
      vertex 30 -30 115.01
      vertex 30 -27.1468 5
      vertex 30 -24.3431 115.01
    endloop
  endfacet
  facet normal 1 0 0
    outer loop
      vertex 30 -27.1468 5
      vertex 30 -30 115.01
      vertex 30 -30 5
    endloop
  endfacet
  facet normal 1 0 0
    outer loop
      vertex 30 -17.5 120
      vertex 30 -24.3431 115.01
      vertex 30 -17.5 3.88578e-015
    endloop
  endfacet
  facet normal 1 0 -0
    outer loop
      vertex 30 -24.3431 115.01
      vertex 30 -17.5 120
      vertex 30 -26.4602 120
    endloop
  endfacet
  facet normal 1 -0 0
    outer loop
      vertex 30 -24.3431 4.99
      vertex 30 -17.5 3.88578e-015
      vertex 30 -24.3431 115.01
    endloop
  endfacet
  facet normal 1 0 0
    outer loop
      vertex 30 -17.5 3.88578e-015
      vertex 30 -24.3431 4.99
      vertex 30 -26.4602 5.87535e-015
    endloop
  endfacet
  facet normal 1 0 0
    outer loop
      vertex 30 -24.3431 4.99
      vertex 30 -27.1468 5
      vertex 30 -27.1468 4.99
    endloop
  endfacet
  facet normal 1 0 0
    outer loop
      vertex 30 -5.65685 115.01
      vertex 30 -12.5 120
      vertex 30 -5.65685 4.99
    endloop
  endfacet
  facet normal 1 -0 0
    outer loop
      vertex 30 -12.5 120
      vertex 30 -5.65685 115.01
      vertex 30 -3.53978 120
    endloop
  endfacet
  facet normal 1 0 0
    outer loop
      vertex 30 2.55374e-014 115.01
      vertex 30 -2.85317 5
      vertex 30 1.11022e-015 5
    endloop
  endfacet
  facet normal 1 -0 0
    outer loop
      vertex 30 -5.65685 115.01
      vertex 30 -2.85317 5
      vertex 30 2.55374e-014 115.01
    endloop
  endfacet
  facet normal 1 0 0
    outer loop
      vertex 30 -5.65685 4.99
      vertex 30 -2.85317 5
      vertex 30 -5.65685 115.01
    endloop
  endfacet
  facet normal 1 0 0
    outer loop
      vertex 30 -2.85317 5
      vertex 30 -5.65685 4.99
      vertex 30 -2.85317 4.99
    endloop
  endfacet
  facet normal 1 0 0
    outer loop
      vertex 30 -5.65685 4.99
      vertex 30 -12.5 2.77556e-015
      vertex 30 -3.53978 7.85988e-016
    endloop
  endfacet
  facet normal 1 0 0
    outer loop
      vertex 30 -12.5 2.77556e-015
      vertex 30 -5.65685 4.99
      vertex 30 -12.5 120
    endloop
  endfacet
  facet normal -0.957826 -0.287348 6.3804e-017
    outer loop
      vertex 19 -5 1.11022e-015
      vertex 17.5 2.66454e-014 120
      vertex 17.5 0 0
    endloop
  endfacet
  facet normal -0.957826 -0.287348 0
    outer loop
      vertex 17.5 2.66454e-014 120
      vertex 19 -5 1.11022e-015
      vertex 19 -5 120
    endloop
  endfacet
  facet normal 0.957826 -0.287348 6.3804e-017
    outer loop
      vertex 11 -5 120
      vertex 12.5 0 0
      vertex 12.5 2.66454e-014 120
    endloop
  endfacet
  facet normal 0.957826 -0.287348 0
    outer loop
      vertex 12.5 0 0
      vertex 11 -5 120
      vertex 11 -5 1.11022e-015
    endloop
  endfacet
  facet normal 0 1 -0
    outer loop
      vertex 19 -5 1.11022e-015
      vertex 11 -5 120
      vertex 19 -5 120
    endloop
  endfacet
  facet normal 0 1 0
    outer loop
      vertex 11 -5 120
      vertex 19 -5 1.11022e-015
      vertex 11 -5 1.11022e-015
    endloop
  endfacet
  facet normal 0 1 -2.22045e-016
    outer loop
      vertex 27 1.11022e-015 5
      vertex 30 2.55374e-014 115.01
      vertex 30 1.11022e-015 5
    endloop
  endfacet
  facet normal 0 1 -2.22044e-016
    outer loop
      vertex 24.3431 2.55374e-014 115.01
      vertex 17.5 2.66454e-014 120
      vertex 26.4602 2.66454e-014 120
    endloop
  endfacet
  facet normal 0 1 -2.22045e-016
    outer loop
      vertex 30 2.55374e-014 115.01
      vertex 27 1.11022e-015 5
      vertex 24.3431 2.55374e-014 115.01
    endloop
  endfacet
  facet normal 1.69682e-022 1 -2.22045e-016
    outer loop
      vertex 24.3431 1.108e-015 4.99
      vertex 24.3431 2.55374e-014 115.01
      vertex 27 1.11022e-015 5
    endloop
  endfacet
  facet normal 0 1 -2.22e-016
    outer loop
      vertex 24.3431 1.108e-015 4.99
      vertex 27 1.11022e-015 5
      vertex 27 1.108e-015 4.99
    endloop
  endfacet
  facet normal -7.25217e-022 1 -2.22045e-016
    outer loop
      vertex 24.3431 2.55374e-014 115.01
      vertex 24.3431 1.108e-015 4.99
      vertex 17.5 2.66454e-014 120
    endloop
  endfacet
  facet normal 6.64903e-022 1 -2.22045e-016
    outer loop
      vertex 24.3431 1.108e-015 4.99
      vertex 17.5 0 0
      vertex 17.5 2.66454e-014 120
    endloop
  endfacet
  facet normal 0 1 -2.22044e-016
    outer loop
      vertex 17.5 0 0
      vertex 24.3431 1.108e-015 4.99
      vertex 26.4602 0 0
    endloop
  endfacet
  facet normal 0 1 -2.22044e-016
    outer loop
      vertex 12.5 2.66454e-014 120
      vertex 5.65685 2.55374e-014 115.01
      vertex 3.53977 2.66454e-014 120
    endloop
  endfacet
  facet normal 0 1 -2.22045e-016
    outer loop
      vertex 5.65685 2.55374e-014 115.01
      vertex 3 1.11022e-015 5
      vertex 0 2.55374e-014 115.01
    endloop
  endfacet
  facet normal 7.25212e-022 1 -2.22045e-016
    outer loop
      vertex 5.65685 1.108e-015 4.99
      vertex 5.65685 2.55374e-014 115.01
      vertex 12.5 2.66454e-014 120
    endloop
  endfacet
  facet normal -1.69685e-022 1 -2.22045e-016
    outer loop
      vertex 5.65685 2.55374e-014 115.01
      vertex 5.65685 1.108e-015 4.99
      vertex 3 1.11022e-015 5
    endloop
  endfacet
  facet normal -6.64898e-022 1 -2.22045e-016
    outer loop
      vertex 12.5 0 0
      vertex 5.65685 1.108e-015 4.99
      vertex 12.5 2.66454e-014 120
    endloop
  endfacet
  facet normal 0 1 -2.22044e-016
    outer loop
      vertex 5.65685 1.108e-015 4.99
      vertex 12.5 0 0
      vertex 3.53978 0 0
    endloop
  endfacet
  facet normal 0 1 -2.22045e-016
    outer loop
      vertex 0 2.55374e-014 115.01
      vertex 3 1.11022e-015 5
      vertex 0 1.11022e-015 5
    endloop
  endfacet
  facet normal 0 1 -2.22e-016
    outer loop
      vertex 3 1.11022e-015 5
      vertex 5.65685 1.108e-015 4.99
      vertex 3 1.108e-015 4.99
    endloop
  endfacet
  facet normal 0.287348 -0.957826 0
    outer loop
      vertex 0 -12.5 2.77556e-015
      vertex 5 -11 120
      vertex 0 -12.5 120
    endloop
  endfacet
  facet normal 0.287348 -0.957826 0
    outer loop
      vertex 5 -11 120
      vertex 0 -12.5 2.77556e-015
      vertex 5 -11 2.44249e-015
    endloop
  endfacet
  facet normal 0.287348 0.957826 -0
    outer loop
      vertex 5 -19 4.21885e-015
      vertex 0 -17.5 120
      vertex 5 -19 120
    endloop
  endfacet
  facet normal 0.287348 0.957826 0
    outer loop
      vertex 0 -17.5 120
      vertex 5 -19 4.21885e-015
      vertex 0 -17.5 3.88578e-015
    endloop
  endfacet
  facet normal -1 -0 0
    outer loop
      vertex 0 -5.65685 4.99
      vertex 0 -12.5 2.77556e-015
      vertex 0 -5.65685 115.01
    endloop
  endfacet
  facet normal -1 0 0
    outer loop
      vertex 0 -12.5 2.77556e-015
      vertex 0 -5.65685 4.99
      vertex 0 -3.53977 7.85988e-016
    endloop
  endfacet
  facet normal -1 0 0
    outer loop
      vertex 0 -2.85317 4.99
      vertex 0 -5.65685 4.99
      vertex 0 -2.85317 5
    endloop
  endfacet
  facet normal -1 0 0
    outer loop
      vertex 0 -2.85317 5
      vertex 0 2.55374e-014 115.01
      vertex 0 1.11022e-015 5
    endloop
  endfacet
  facet normal -1 0 0
    outer loop
      vertex 0 -5.65685 115.01
      vertex 0 -2.85317 5
      vertex 0 -5.65685 4.99
    endloop
  endfacet
  facet normal -1 0 0
    outer loop
      vertex 0 -2.85317 5
      vertex 0 -5.65685 115.01
      vertex 0 2.55374e-014 115.01
    endloop
  endfacet
  facet normal -1 0 0
    outer loop
      vertex 0 -5.65685 115.01
      vertex 0 -12.5 120
      vertex 0 -3.53978 120
    endloop
  endfacet
  facet normal -1 0 0
    outer loop
      vertex 0 -12.5 120
      vertex 0 -5.65685 115.01
      vertex 0 -12.5 2.77556e-015
    endloop
  endfacet
  facet normal -1 0 0
    outer loop
      vertex 0 -27.1468 5
      vertex 0 -24.3431 4.99
      vertex 0 -27.1468 4.99
    endloop
  endfacet
  facet normal -1 0 0
    outer loop
      vertex 0 -24.3431 4.99
      vertex 0 -27.1468 5
      vertex 0 -24.3431 115.01
    endloop
  endfacet
  facet normal -1 0 0
    outer loop
      vertex 0 -30 115.01
      vertex 0 -27.1468 5
      vertex 0 -30 5
    endloop
  endfacet
  facet normal -1 0 0
    outer loop
      vertex 0 -27.1468 5
      vertex 0 -30 115.01
      vertex 0 -24.3431 115.01
    endloop
  endfacet
  facet normal -1 0 0
    outer loop
      vertex 0 -17.5 3.88578e-015
      vertex 0 -26.4602 5.87535e-015
      vertex 0 -24.3431 4.99
    endloop
  endfacet
  facet normal -1 0 0
    outer loop
      vertex 0 -24.3431 4.99
      vertex 0 -17.5 120
      vertex 0 -17.5 3.88578e-015
    endloop
  endfacet
  facet normal -1 0 0
    outer loop
      vertex 0 -24.3431 115.01
      vertex 0 -17.5 120
      vertex 0 -24.3431 4.99
    endloop
  endfacet
  facet normal -1 -0 0
    outer loop
      vertex 0 -17.5 120
      vertex 0 -24.3431 115.01
      vertex 0 -26.4602 120
    endloop
  endfacet
  facet normal -1 0 0
    outer loop
      vertex 5 -11 2.44249e-015
      vertex 5 -19 120
      vertex 5 -11 120
    endloop
  endfacet
  facet normal -1 0 0
    outer loop
      vertex 5 -19 120
      vertex 5 -11 2.44249e-015
      vertex 5 -19 4.21885e-015
    endloop
  endfacet
  facet normal 0 -1 0
    outer loop
      vertex 19 -25 5.55112e-015
      vertex 19 -25 30
      vertex 11 -25 5.55112e-015
    endloop
  endfacet
  facet normal 0 -1 0
    outer loop
      vertex 11 -25 5.55112e-015
      vertex 19 -25 30
      vertex 11 -25 30
    endloop
  endfacet
  facet normal 0 -1 0
    outer loop
      vertex 19 -25 30
      vertex 19 -25 60
      vertex 11 -25 30
    endloop
  endfacet
  facet normal 0 -1 0
    outer loop
      vertex 11 -25 30
      vertex 19 -25 60
      vertex 11 -25 60
    endloop
  endfacet
  facet normal 0 -1 0
    outer loop
      vertex 19 -25 60
      vertex 19 -25 90
      vertex 11 -25 60
    endloop
  endfacet
  facet normal 0 -1 0
    outer loop
      vertex 11 -25 60
      vertex 19 -25 90
      vertex 11 -25 90
    endloop
  endfacet
  facet normal 0 0 1
    outer loop
      vertex 12.5 2.66454e-014 120
      vertex 3.53977 2.66454e-014 120
      vertex 11 -5 120
    endloop
  endfacet
  facet normal 0 0 1
    outer loop
      vertex 26.4602 2.66454e-014 120
      vertex 17.5 2.66454e-014 120
      vertex 19 -5 120
    endloop
  endfacet
  facet normal -0 0 1
    outer loop
      vertex 19 -5 120
      vertex 18.5334 -7.92681 120
      vertex 26.4602 2.66454e-014 120
    endloop
  endfacet
  facet normal 0 0 1
    outer loop
      vertex 18.5334 -7.92681 120
      vertex 16.3906 -10.7202 120
      vertex 18.0111 -11.6558 120
    endloop
  endfacet
  facet normal 0 0 1
    outer loop
      vertex 11.4666 -7.92681 120
      vertex 18.5334 -7.92681 120
      vertex 19 -5 120
    endloop
  endfacet
  facet normal 0 0 1
    outer loop
      vertex 18.5334 -7.92681 120
      vertex 14.5296 -10.5247 120
      vertex 16.3906 -10.7202 120
    endloop
  endfacet
  facet normal 0 0 1
    outer loop
      vertex 18.5334 -7.92681 120
      vertex 11.4666 -7.92681 120
      vertex 14.5296 -10.5247 120
    endloop
  endfacet
  facet normal 0 0 1
    outer loop
      vertex 14.5296 -10.5247 120
      vertex 11.4666 -7.92681 120
      vertex 12.75 -11.1029 120
    endloop
  endfacet
  facet normal -0 0 1
    outer loop
      vertex 11 -5 120
      vertex 11.4666 -7.92681 120
      vertex 19 -5 120
    endloop
  endfacet
  facet normal 0 0 1
    outer loop
      vertex 11.4666 -7.92681 120
      vertex 11 -5 120
      vertex 3.53977 2.66454e-014 120
    endloop
  endfacet
  facet normal 0 0 1
    outer loop
      vertex 22.0732 -11.4666 120
      vertex 19.3136 -14.1233 120
      vertex 19.5 -15 120
    endloop
  endfacet
  facet normal 0 0 1
    outer loop
      vertex 22.0732 -11.4666 120
      vertex 19.111 -13.1697 120
      vertex 19.3136 -14.1233 120
    endloop
  endfacet
  facet normal 0 0 1
    outer loop
      vertex 18.0111 -11.6558 120
      vertex 22.0619 -11.4553 120
      vertex 18.5334 -7.92681 120
    endloop
  endfacet
  facet normal 0 0 1
    outer loop
      vertex 22.0619 -11.4553 120
      vertex 18.0111 -11.6558 120
      vertex 19.111 -13.1697 120
    endloop
  endfacet
  facet normal 0 0 1
    outer loop
      vertex 30 -3.53978 120
      vertex 25 -11 120
      vertex 30 -12.5 120
    endloop
  endfacet
  facet normal 0 0 1
    outer loop
      vertex 25 -11 120
      vertex 22.0732 -11.4666 120
      vertex 25 -19 120
    endloop
  endfacet
  facet normal 0 0 1
    outer loop
      vertex 22.0732 -11.4666 120
      vertex 25 -11 120
      vertex 30 -3.53978 120
    endloop
  endfacet
  facet normal -0 0 1
    outer loop
      vertex 25 -19 120
      vertex 30 -26.4602 120
      vertex 30 -17.5 120
    endloop
  endfacet
  facet normal 0 0 1
    outer loop
      vertex 25 -19 120
      vertex 22.0732 -18.5334 120
      vertex 30 -26.4602 120
    endloop
  endfacet
  facet normal 0 0 1
    outer loop
      vertex 22.0732 -11.4666 120
      vertex 22.0732 -18.5334 120
      vertex 25 -19 120
    endloop
  endfacet
  facet normal 0 0 1
    outer loop
      vertex 19.111 -13.1697 120
      vertex 22.0732 -11.4666 120
      vertex 22.0619 -11.4553 120
    endloop
  endfacet
  facet normal 0 0 1
    outer loop
      vertex 22.0732 -11.4666 120
      vertex 19.5 -15 120
      vertex 22.0732 -18.5334 120
    endloop
  endfacet
  facet normal -0 0 1
    outer loop
      vertex 19.2973 -15.9536 120
      vertex 22.0732 -18.5334 120
      vertex 19.5 -15 120
    endloop
  endfacet
  facet normal -0 0 1
    outer loop
      vertex 19.111 -16.8303 120
      vertex 22.0732 -18.5334 120
      vertex 19.2973 -15.9536 120
    endloop
  endfacet
  facet normal -0 0 1
    outer loop
      vertex 18.0111 -18.3442 120
      vertex 22.0732 -18.5334 120
      vertex 19.111 -16.8303 120
    endloop
  endfacet
  facet normal 0 0 1
    outer loop
      vertex 22.0732 -18.5334 120
      vertex 18.0111 -18.3442 120
      vertex 18.5334 -22.0732 120
    endloop
  endfacet
  facet normal 0 0 1
    outer loop
      vertex 18.5334 -22.0732 120
      vertex 19 -25 120
      vertex 26.4602 -30 120
    endloop
  endfacet
  facet normal -0 0 1
    outer loop
      vertex 16.3906 -19.2798 120
      vertex 18.5334 -22.0732 120
      vertex 18.0111 -18.3442 120
    endloop
  endfacet
  facet normal -0 0 1
    outer loop
      vertex 14.5296 -19.4753 120
      vertex 18.5334 -22.0732 120
      vertex 16.3906 -19.2798 120
    endloop
  endfacet
  facet normal 0 0 1
    outer loop
      vertex 11.4666 -22.0732 120
      vertex 18.5334 -22.0732 120
      vertex 14.5296 -19.4753 120
    endloop
  endfacet
  facet normal 0 0 1
    outer loop
      vertex 11.4666 -22.0732 120
      vertex 14.5296 -19.4753 120
      vertex 12.75 -18.8971 120
    endloop
  endfacet
  facet normal 0 0 1
    outer loop
      vertex 18.5334 -22.0732 120
      vertex 11.4666 -22.0732 120
      vertex 19 -25 120
    endloop
  endfacet
  facet normal 0 0 1
    outer loop
      vertex 11.4666 -22.0732 120
      vertex 11 -25 120
      vertex 19 -25 120
    endloop
  endfacet
  facet normal 0 -0 1
    outer loop
      vertex 11 -25 120
      vertex 11.4666 -22.0732 120
      vertex 3.53978 -30 120
    endloop
  endfacet
  facet normal 0 0 1
    outer loop
      vertex 26.4602 -30 120
      vertex 19 -25 120
      vertex 17.5 -30 120
    endloop
  endfacet
  facet normal 0 0 1
    outer loop
      vertex 12.75 -18.8971 120
      vertex 11.4553 -22.0619 120
      vertex 11.4666 -22.0732 120
    endloop
  endfacet
  facet normal 0 0 1
    outer loop
      vertex 11.3594 -17.645 120
      vertex 11.4553 -22.0619 120
      vertex 12.75 -18.8971 120
    endloop
  endfacet
  facet normal 0 0 1
    outer loop
      vertex 7.92681 -18.5334 120
      vertex 11.3594 -17.645 120
      vertex 10.5983 -15.9356 120
    endloop
  endfacet
  facet normal 0 0 1
    outer loop
      vertex 11.3594 -17.645 120
      vertex 7.92681 -18.5334 120
      vertex 11.4553 -22.0619 120
    endloop
  endfacet
  facet normal -0 0 1
    outer loop
      vertex 11.4553 -7.93812 120
      vertex 12.75 -11.1029 120
      vertex 11.4666 -7.92681 120
    endloop
  endfacet
  facet normal 0 0 1
    outer loop
      vertex 11.4553 -7.93812 120
      vertex 11.3594 -12.355 120
      vertex 12.75 -11.1029 120
    endloop
  endfacet
  facet normal -0 0 1
    outer loop
      vertex 7.92681 -11.4666 120
      vertex 11.3594 -12.355 120
      vertex 11.4553 -7.93812 120
    endloop
  endfacet
  facet normal 0 0 1
    outer loop
      vertex 10.5983 -14.0644 120
      vertex 7.92681 -18.5334 120
      vertex 10.5983 -15.9356 120
    endloop
  endfacet
  facet normal 0 0 1
    outer loop
      vertex 11.3594 -12.355 120
      vertex 7.92681 -11.4666 120
      vertex 10.5983 -14.0644 120
    endloop
  endfacet
  facet normal 0 0 1
    outer loop
      vertex 10.5983 -14.0644 120
      vertex 7.92681 -11.4666 120
      vertex 7.92681 -18.5334 120
    endloop
  endfacet
  facet normal 0 0 1
    outer loop
      vertex 5 -11 120
      vertex 7.92681 -18.5334 120
      vertex 7.92681 -11.4666 120
    endloop
  endfacet
  facet normal 0 0 1
    outer loop
      vertex 5 -19 120
      vertex 7.92681 -18.5334 120
      vertex 5 -11 120
    endloop
  endfacet
  facet normal -0 0 1
    outer loop
      vertex 5 -19 120
      vertex 0 -26.4602 120
      vertex 7.92681 -18.5334 120
    endloop
  endfacet
  facet normal 0 0 1
    outer loop
      vertex 0 -26.4602 120
      vertex 5 -19 120
      vertex 0 -17.5 120
    endloop
  endfacet
  facet normal 0 0 1
    outer loop
      vertex 12.5 -30 120
      vertex 11 -25 120
      vertex 3.53978 -30 120
    endloop
  endfacet
  facet normal 0 0 1
    outer loop
      vertex 0 -3.53978 120
      vertex 5 -11 120
      vertex 7.92681 -11.4666 120
    endloop
  endfacet
  facet normal 0 0 1
    outer loop
      vertex 5 -11 120
      vertex 0 -3.53978 120
      vertex 0 -12.5 120
    endloop
  endfacet
  facet normal 0 -1 0
    outer loop
      vertex 19 -25 90
      vertex 19 -25 120
      vertex 11 -25 90
    endloop
  endfacet
  facet normal 0 -1 0
    outer loop
      vertex 11 -25 90
      vertex 19 -25 120
      vertex 11 -25 120
    endloop
  endfacet
  facet normal -0.978165 0.207831 2.23662e-007
    outer loop
      vertex 19.111 -16.8303 3.73708e-015
      vertex 19.2973 -15.9536 120
      vertex 19.3066 -15.9097 3.53266e-015
    endloop
  endfacet
  facet normal -0.978159 0.20786 0
    outer loop
      vertex 19.2973 -15.9536 120
      vertex 19.111 -16.8303 3.73708e-015
      vertex 19.111 -16.8303 120
    endloop
  endfacet
  facet normal -0.80902 0.587781 0
    outer loop
      vertex 18.0111 -18.3442 4.07322e-015
      vertex 19.111 -16.8303 120
      vertex 19.111 -16.8303 3.73708e-015
    endloop
  endfacet
  facet normal -0.80902 0.587781 0
    outer loop
      vertex 19.111 -16.8303 120
      vertex 18.0111 -18.3442 4.07322e-015
      vertex 18.0111 -18.3442 120
    endloop
  endfacet
  facet normal -0.978139 0.20795 0
    outer loop
      vertex 19.3066 -15.9097 3.53266e-015
      vertex 19.5 -15 120
      vertex 19.5 -15 3.33067e-015
    endloop
  endfacet
  facet normal -0.978146 0.207918 2.56863e-007
    outer loop
      vertex 19.5 -15 120
      vertex 19.3066 -15.9097 3.53266e-015
      vertex 19.2973 -15.9536 120
    endloop
  endfacet
  facet normal 1 -0 0
    outer loop
      vertex 10.5983 -15.9356 120
      vertex 10.5983 -14.0644 3.12292e-015
      vertex 10.5983 -14.0644 120
    endloop
  endfacet
  facet normal 1 0 0
    outer loop
      vertex 10.5983 -14.0644 3.12292e-015
      vertex 10.5983 -15.9356 120
      vertex 10.5983 -15.9356 3.53841e-015
    endloop
  endfacet
  facet normal -0.104476 0.994527 0
    outer loop
      vertex 16.3906 -19.2798 120
      vertex 14.5296 -19.4753 4.3244e-015
      vertex 14.5296 -19.4753 120
    endloop
  endfacet
  facet normal -0.104476 0.994527 0
    outer loop
      vertex 14.5296 -19.4753 4.3244e-015
      vertex 16.3906 -19.2798 120
      vertex 16.3906 -19.2798 4.28097e-015
    endloop
  endfacet
  facet normal -0.500002 -0.866025 0
    outer loop
      vertex 16.3906 -10.7202 120
      vertex 18.0111 -11.6558 2.58812e-015
      vertex 18.0111 -11.6558 120
    endloop
  endfacet
  facet normal -0.500002 -0.866025 0
    outer loop
      vertex 18.0111 -11.6558 2.58812e-015
      vertex 16.3906 -10.7202 120
      vertex 16.3906 -10.7202 2.38037e-015
    endloop
  endfacet
  facet normal 0.66913 0.743145 -0
    outer loop
      vertex 12.75 -18.8971 4.196e-015
      vertex 11.3594 -17.645 120
      vertex 12.75 -18.8971 120
    endloop
  endfacet
  facet normal 0.66913 0.743145 0
    outer loop
      vertex 11.3594 -17.645 120
      vertex 12.75 -18.8971 4.196e-015
      vertex 11.3594 -17.645 3.91798e-015
    endloop
  endfacet
  facet normal 0.309004 0.951061 -0
    outer loop
      vertex 14.5296 -19.4753 4.3244e-015
      vertex 12.75 -18.8971 120
      vertex 14.5296 -19.4753 120
    endloop
  endfacet
  facet normal 0.309004 0.951061 0
    outer loop
      vertex 12.75 -18.8971 120
      vertex 14.5296 -19.4753 4.3244e-015
      vertex 12.75 -18.8971 4.196e-015
    endloop
  endfacet
  facet normal -0.80902 -0.587781 0
    outer loop
      vertex 19.111 -13.1697 2.92426e-015
      vertex 18.0111 -11.6558 120
      vertex 18.0111 -11.6558 2.58812e-015
    endloop
  endfacet
  facet normal -0.80902 -0.587781 0
    outer loop
      vertex 18.0111 -11.6558 120
      vertex 19.111 -13.1697 2.92426e-015
      vertex 19.111 -13.1697 120
    endloop
  endfacet
  facet normal -0.500002 0.866025 0
    outer loop
      vertex 18.0111 -18.3442 120
      vertex 16.3906 -19.2798 4.28097e-015
      vertex 16.3906 -19.2798 120
    endloop
  endfacet
  facet normal -0.500002 0.866025 0
    outer loop
      vertex 16.3906 -19.2798 4.28097e-015
      vertex 18.0111 -18.3442 120
      vertex 18.0111 -18.3442 4.07322e-015
    endloop
  endfacet
  facet normal 0.91354 0.406748 0
    outer loop
      vertex 11.3594 -17.645 120
      vertex 10.5983 -15.9356 3.53841e-015
      vertex 10.5983 -15.9356 120
    endloop
  endfacet
  facet normal 0.91354 0.406748 0
    outer loop
      vertex 10.5983 -15.9356 3.53841e-015
      vertex 11.3594 -17.645 120
      vertex 11.3594 -17.645 3.91798e-015
    endloop
  endfacet
  facet normal 0.309004 -0.951061 0
    outer loop
      vertex 12.75 -11.1029 2.46534e-015
      vertex 14.5296 -10.5247 120
      vertex 12.75 -11.1029 120
    endloop
  endfacet
  facet normal 0.309004 -0.951061 0
    outer loop
      vertex 14.5296 -10.5247 120
      vertex 12.75 -11.1029 2.46534e-015
      vertex 14.5296 -10.5247 2.33694e-015
    endloop
  endfacet
  facet normal 0.66913 -0.743145 0
    outer loop
      vertex 11.3594 -12.355 2.74335e-015
      vertex 12.75 -11.1029 120
      vertex 11.3594 -12.355 120
    endloop
  endfacet
  facet normal 0.66913 -0.743145 0
    outer loop
      vertex 12.75 -11.1029 120
      vertex 11.3594 -12.355 2.74335e-015
      vertex 12.75 -11.1029 2.46534e-015
    endloop
  endfacet
  facet normal 0.91354 -0.406748 0
    outer loop
      vertex 10.5983 -14.0644 120
      vertex 11.3594 -12.355 2.74335e-015
      vertex 11.3594 -12.355 120
    endloop
  endfacet
  facet normal 0.91354 -0.406748 0
    outer loop
      vertex 11.3594 -12.355 2.74335e-015
      vertex 10.5983 -14.0644 120
      vertex 10.5983 -14.0644 3.12292e-015
    endloop
  endfacet
  facet normal -0.104476 -0.994527 0
    outer loop
      vertex 14.5296 -10.5247 120
      vertex 16.3906 -10.7202 2.38037e-015
      vertex 16.3906 -10.7202 120
    endloop
  endfacet
  facet normal -0.104476 -0.994527 0
    outer loop
      vertex 16.3906 -10.7202 2.38037e-015
      vertex 14.5296 -10.5247 120
      vertex 14.5296 -10.5247 2.33694e-015
    endloop
  endfacet
  facet normal -0.978161 -0.207847 0
    outer loop
      vertex 19.3043 -14.0794 3.12624e-015
      vertex 19.111 -13.1697 120
      vertex 19.111 -13.1697 2.92426e-015
    endloop
  endfacet
  facet normal -0.978167 -0.207819 -2.19342e-007
    outer loop
      vertex 19.111 -13.1697 120
      vertex 19.3043 -14.0794 3.12624e-015
      vertex 19.3136 -14.1233 120
    endloop
  endfacet
  facet normal -0.978136 -0.207967 -2.75671e-007
    outer loop
      vertex 19.3043 -14.0794 3.12624e-015
      vertex 19.5 -15 120
      vertex 19.3136 -14.1233 120
    endloop
  endfacet
  facet normal -0.978143 -0.207932 -0
    outer loop
      vertex 19.5 -15 120
      vertex 19.3043 -14.0794 3.12624e-015
      vertex 19.5 -15 3.33067e-015
    endloop
  endfacet
endsolid OpenSCAD_Model
