solid OpenSCAD_Model
  facet normal -1 0 0
    outer loop
      vertex -44.5 -2.78148 -3.14785
      vertex -44.5 -2.2988 -2.48351
      vertex -44.5 -2.78148 -3.14786
    endloop
  endfacet
  facet normal -1 0 0
    outer loop
      vertex -44.5 -4.16257 -0.4
      vertex -44.5 -2.2988 -2.48351
      vertex -44.5 -2.78148 -3.14785
    endloop
  endfacet
  facet normal -1 0 0
    outer loop
      vertex -44.5 -3.34599 -0.4
      vertex -44.5 -4.16257 -0.4
      vertex -44.5 -3.41228 0.4
    endloop
  endfacet
  facet normal -1 0 0
    outer loop
      vertex -44.5 -2.2988 -2.48351
      vertex -44.5 -4.16257 -0.4
      vertex -44.5 -3.34599 -0.4
    endloop
  endfacet
  facet normal -1 0 0
    outer loop
      vertex -44.5 -1.80469 -0.4
      vertex -44.5 -0.785044 0.4
      vertex -44.5 -0.785044 -0.4
    endloop
  endfacet
  facet normal -1 -0 0
    outer loop
      vertex -44.5 -0.785044 0.4
      vertex -44.5 -1.80469 -0.4
      vertex -44.5 -1.83739 0.4
    endloop
  endfacet
  facet normal -1 0 0
    outer loop
      vertex -44.5 2.41713 -0.4
      vertex -44.5 1.80469 -0.4
      vertex -44.5 1.83739 0.4
    endloop
  endfacet
  facet normal -1 0 0
    outer loop
      vertex -44.5 1.38775 -1.22955
      vertex -44.5 2.41713 -0.4
      vertex -44.5 1.74976 -1.72781
    endloop
  endfacet
  facet normal -1 0 0
    outer loop
      vertex -44.5 1.08279 -2.17085
      vertex -44.5 1.74976 -1.72781
      vertex -44.5 1.64235 -2.94102
    endloop
  endfacet
  facet normal -1 -0 0
    outer loop
      vertex -44.5 2.41713 -0.4
      vertex -44.5 1.38775 -1.22955
      vertex -44.5 1.80469 -0.4
    endloop
  endfacet
  facet normal -1 -0 0
    outer loop
      vertex -44.5 1.74976 -1.72781
      vertex -44.5 1.08279 -2.17085
      vertex -44.5 1.38775 -1.22955
    endloop
  endfacet
  facet normal -1 0 0
    outer loop
      vertex -44.5 0.713848 -1.66305
      vertex -44.5 1.38775 -1.22955
      vertex -44.5 1.08279 -2.17085
    endloop
  endfacet
  facet normal -1 0 0
    outer loop
      vertex -44.5 0 0.680521
      vertex -44.5 0.785044 0.4
      vertex -44.5 0.785044 -0.4
    endloop
  endfacet
  facet normal -1 0 0
    outer loop
      vertex -44.5 0 -0.680521
      vertex -44.5 0.785044 -0.4
      vertex -44.5 0.713848 -1.66305
    endloop
  endfacet
  facet normal -1 -0 0
    outer loop
      vertex -44.5 1.38775 -1.22955
      vertex -44.5 0.713848 -1.66305
      vertex -44.5 0.785044 -0.4
    endloop
  endfacet
  facet normal -1 0 0
    outer loop
      vertex -44.5 1.08279 -2.17085
      vertex -44.5 -0.713848 -1.66305
      vertex -44.5 0.713848 -1.66305
    endloop
  endfacet
  facet normal -1 0 0
    outer loop
      vertex -44.5 -0.785044 0.4
      vertex -44.5 0 0.680521
      vertex -44.5 -0.785044 -0.4
    endloop
  endfacet
  facet normal -1 0 0
    outer loop
      vertex -44.5 -1.08279 -2.17085
      vertex -44.5 -0.713848 -1.66305
      vertex -44.5 1.08279 -2.17085
    endloop
  endfacet
  facet normal -1 0 0
    outer loop
      vertex -44.5 -1.38775 -1.22955
      vertex -44.5 -0.713848 -1.66305
      vertex -44.5 -1.08279 -2.17085
    endloop
  endfacet
  facet normal -1 0 0
    outer loop
      vertex -44.5 -0.713848 -1.66305
      vertex -44.5 -1.38775 -1.22955
      vertex -44.5 -0.785044 -0.4
    endloop
  endfacet
  facet normal -1 0 0
    outer loop
      vertex -44.5 -1.74976 -1.72781
      vertex -44.5 -1.08279 -2.17085
      vertex -44.5 -1.64235 -2.94102
    endloop
  endfacet
  facet normal -1 0 0
    outer loop
      vertex -44.5 -1.08279 -2.17085
      vertex -44.5 -1.74976 -1.72781
      vertex -44.5 -1.38775 -1.22955
    endloop
  endfacet
  facet normal -1 0 0
    outer loop
      vertex -44.5 -2.41713 -0.4
      vertex -44.5 -1.38775 -1.22955
      vertex -44.5 -1.74976 -1.72781
    endloop
  endfacet
  facet normal -1 0 0
    outer loop
      vertex -44.5 -1.80469 -0.4
      vertex -44.5 -2.41713 -0.4
      vertex -44.5 -1.83739 0.4
    endloop
  endfacet
  facet normal -1 0 0
    outer loop
      vertex -44.5 -1.38775 -1.22955
      vertex -44.5 -2.41713 -0.4
      vertex -44.5 -1.80469 -0.4
    endloop
  endfacet
  facet normal -1 -0 0
    outer loop
      vertex -44.5 2.78148 -3.14786
      vertex -44.5 2.13426 -3.61808
      vertex -44.5 2.2988 -2.48351
    endloop
  endfacet
  facet normal -1 0 0
    outer loop
      vertex -44.5 1.64235 -2.94102
      vertex -44.5 2.2988 -2.48351
      vertex -44.5 2.13426 -3.61808
    endloop
  endfacet
  facet normal -1 -0 0
    outer loop
      vertex -44.5 2.2988 -2.48351
      vertex -44.5 1.64235 -2.94102
      vertex -44.5 1.74976 -1.72781
    endloop
  endfacet
  facet normal -1 0 0
    outer loop
      vertex -44.5 2.13426 -3.61808
      vertex -44.5 -1.64235 -2.94102
      vertex -44.5 1.64235 -2.94102
    endloop
  endfacet
  facet normal -1 0 0
    outer loop
      vertex -44.5 -2.13426 -3.61808
      vertex -44.5 -1.64235 -2.94102
      vertex -44.5 2.13426 -3.61808
    endloop
  endfacet
  facet normal -1 0 0
    outer loop
      vertex -44.5 -2.2988 -2.48351
      vertex -44.5 -1.64235 -2.94102
      vertex -44.5 -2.13426 -3.61808
    endloop
  endfacet
  facet normal -1 0 0
    outer loop
      vertex -44.5 -1.64235 -2.94102
      vertex -44.5 -2.2988 -2.48351
      vertex -44.5 -1.74976 -1.72781
    endloop
  endfacet
  facet normal -1 0 0
    outer loop
      vertex -44.5 -2.13426 -3.61808
      vertex -44.5 -2.78148 -3.14786
      vertex -44.5 -2.2988 -2.48351
    endloop
  endfacet
  facet normal -1 0 0
    outer loop
      vertex -44.5 4.16257 -0.4
      vertex -44.5 3.34599 -0.4
      vertex -44.5 3.41228 0.4
    endloop
  endfacet
  facet normal -1 0 0
    outer loop
      vertex -44.5 2.2988 -2.48351
      vertex -44.5 4.16257 -0.4
      vertex -44.5 2.78148 -3.14785
    endloop
  endfacet
  facet normal -1 0 0
    outer loop
      vertex -44.5 2.2988 -2.48351
      vertex -44.5 2.78148 -3.14785
      vertex -44.5 2.78148 -3.14786
    endloop
  endfacet
  facet normal -1 -0 0
    outer loop
      vertex -44.5 4.16257 -0.4
      vertex -44.5 2.2988 -2.48351
      vertex -44.5 3.34599 -0.4
    endloop
  endfacet
  facet normal -1 0 0
    outer loop
      vertex -44.5 3.41228 0.4
      vertex -44.5 4.24665 0.4
      vertex -44.5 4.16257 -0.4
    endloop
  endfacet
  facet normal -1 0 0
    outer loop
      vertex -44.5 3.41228 0.4
      vertex -44.5 2.78641 3.15465
      vertex -44.5 4.24665 0.4
    endloop
  endfacet
  facet normal -1 0 0
    outer loop
      vertex -44.5 2.30401 2.49068
      vertex -44.5 2.78641 3.15465
      vertex -44.5 3.41228 0.4
    endloop
  endfacet
  facet normal -1 -0 0
    outer loop
      vertex -44.5 2.78641 3.15465
      vertex -44.5 2.30401 2.49068
      vertex -44.5 2.51278 3.45855
    endloop
  endfacet
  facet normal -1 0 0
    outer loop
      vertex -44.5 1.64636 2.94654
      vertex -44.5 2.51278 3.45855
      vertex -44.5 2.30401 2.49068
    endloop
  endfacet
  facet normal -1 0 0
    outer loop
      vertex -44.5 1.64636 2.94654
      vertex -44.5 2.30401 2.49068
      vertex -44.5 1.75528 1.73541
    endloop
  endfacet
  facet normal -1 -0 0
    outer loop
      vertex -44.5 2.51278 3.45855
      vertex -44.5 1.64636 2.94654
      vertex -44.5 2.1392 3.62488
    endloop
  endfacet
  facet normal -1 0 0
    outer loop
      vertex -44.5 -1.64636 2.94654
      vertex -44.5 2.1392 3.62488
      vertex -44.5 1.64636 2.94654
    endloop
  endfacet
  facet normal -1 0 0
    outer loop
      vertex -44.5 -1.64636 2.94654
      vertex -44.5 -2.1392 3.62488
      vertex -44.5 2.1392 3.62488
    endloop
  endfacet
  facet normal -1 0 0
    outer loop
      vertex -44.5 -2.30401 2.49068
      vertex -44.5 -1.64636 2.94654
      vertex -44.5 -1.75528 1.73541
    endloop
  endfacet
  facet normal -1 0 0
    outer loop
      vertex -44.5 -2.51278 3.45855
      vertex -44.5 -1.64636 2.94654
      vertex -44.5 -2.30401 2.49068
    endloop
  endfacet
  facet normal -1 0 0
    outer loop
      vertex -44.5 -1.64636 2.94654
      vertex -44.5 -2.51278 3.45855
      vertex -44.5 -2.1392 3.62488
    endloop
  endfacet
  facet normal -1 0 0
    outer loop
      vertex -44.5 -2.30401 2.49068
      vertex -44.5 -2.78641 3.15465
      vertex -44.5 -2.51278 3.45855
    endloop
  endfacet
  facet normal -1 0 0
    outer loop
      vertex -44.5 -3.41228 0.4
      vertex -44.5 -2.78641 3.15465
      vertex -44.5 -2.30401 2.49068
    endloop
  endfacet
  facet normal -1 0 0
    outer loop
      vertex -44.5 -4.24665 0.4
      vertex -44.5 -3.41228 0.4
      vertex -44.5 -4.16257 -0.4
    endloop
  endfacet
  facet normal -1 0 0
    outer loop
      vertex -44.5 -3.41228 0.4
      vertex -44.5 -4.24665 0.4
      vertex -44.5 -2.78641 3.15465
    endloop
  endfacet
  facet normal -1 0 0
    outer loop
      vertex -44.5 3.34599 -0.4
      vertex -44.5 2.46318 0.4
      vertex -44.5 3.41228 0.4
    endloop
  endfacet
  facet normal -1 0 0
    outer loop
      vertex -44.5 2.41713 -0.4
      vertex -44.5 2.46318 0.4
      vertex -44.5 3.34599 -0.4
    endloop
  endfacet
  facet normal -1 0 0
    outer loop
      vertex -44.5 1.83739 0.4
      vertex -44.5 2.46318 0.4
      vertex -44.5 2.41713 -0.4
    endloop
  endfacet
  facet normal -1 0 0
    outer loop
      vertex -44.5 1.83739 0.4
      vertex -44.5 1.75528 1.73541
      vertex -44.5 2.46318 0.4
    endloop
  endfacet
  facet normal -1 0 0
    outer loop
      vertex -44.5 1.39347 1.23743
      vertex -44.5 1.75528 1.73541
      vertex -44.5 1.83739 0.4
    endloop
  endfacet
  facet normal -1 0 0
    outer loop
      vertex -44.5 1.08575 2.17493
      vertex -44.5 1.75528 1.73541
      vertex -44.5 1.39347 1.23743
    endloop
  endfacet
  facet normal -1 0 0
    outer loop
      vertex -44.5 1.75528 1.73541
      vertex -44.5 1.08575 2.17493
      vertex -44.5 1.64636 2.94654
    endloop
  endfacet
  facet normal -1 0 0
    outer loop
      vertex -44.5 0.716117 1.66617
      vertex -44.5 1.39347 1.23743
      vertex -44.5 0.785044 0.4
    endloop
  endfacet
  facet normal -1 0 0
    outer loop
      vertex -44.5 1.39347 1.23743
      vertex -44.5 0.716117 1.66617
      vertex -44.5 1.08575 2.17493
    endloop
  endfacet
  facet normal -1 0 0
    outer loop
      vertex -44.5 -0.716117 1.66617
      vertex -44.5 1.08575 2.17493
      vertex -44.5 0.716117 1.66617
    endloop
  endfacet
  facet normal -1 -0 0
    outer loop
      vertex -44.5 0 0.680521
      vertex -44.5 -0.785044 0.4
      vertex -44.5 -0.716117 1.66617
    endloop
  endfacet
  facet normal -1 0 0
    outer loop
      vertex -44.5 -0.716117 1.66617
      vertex -44.5 -1.08575 2.17493
      vertex -44.5 1.08575 2.17493
    endloop
  endfacet
  facet normal -1 0 0
    outer loop
      vertex -44.5 -1.39347 1.23743
      vertex -44.5 -0.716117 1.66617
      vertex -44.5 -0.785044 0.4
    endloop
  endfacet
  facet normal -1 -0 0
    outer loop
      vertex -44.5 -0.716117 1.66617
      vertex -44.5 -1.39347 1.23743
      vertex -44.5 -1.08575 2.17493
    endloop
  endfacet
  facet normal -1 0 0
    outer loop
      vertex -44.5 -1.75528 1.73541
      vertex -44.5 -1.08575 2.17493
      vertex -44.5 -1.39347 1.23743
    endloop
  endfacet
  facet normal -1 -0 0
    outer loop
      vertex -44.5 -1.08575 2.17493
      vertex -44.5 -1.75528 1.73541
      vertex -44.5 -1.64636 2.94654
    endloop
  endfacet
  facet normal -1 0 0
    outer loop
      vertex -44.5 -1.83739 0.4
      vertex -44.5 -1.75528 1.73541
      vertex -44.5 -1.39347 1.23743
    endloop
  endfacet
  facet normal -1 0 0
    outer loop
      vertex -44.5 -2.46318 0.4
      vertex -44.5 -1.83739 0.4
      vertex -44.5 -2.41713 -0.4
    endloop
  endfacet
  facet normal -1 0 0
    outer loop
      vertex -44.5 -1.83739 0.4
      vertex -44.5 -2.46318 0.4
      vertex -44.5 -1.75528 1.73541
    endloop
  endfacet
  facet normal -1 0 0
    outer loop
      vertex -44.5 -3.34599 -0.4
      vertex -44.5 -2.46318 0.4
      vertex -44.5 -2.41713 -0.4
    endloop
  endfacet
  facet normal -1 -0 0
    outer loop
      vertex -44.5 -2.46318 0.4
      vertex -44.5 -3.34599 -0.4
      vertex -44.5 -3.41228 0.4
    endloop
  endfacet
  facet normal -1 0 0
    outer loop
      vertex -44.5 0.785044 0.4
      vertex -44.5 1.80469 -0.4
      vertex -44.5 0.785044 -0.4
    endloop
  endfacet
  facet normal -1 0 0
    outer loop
      vertex -44.5 1.80469 -0.4
      vertex -44.5 0.785044 0.4
      vertex -44.5 1.83739 0.4
    endloop
  endfacet
  facet normal -1 0 0
    outer loop
      vertex -44.5 0 0.680521
      vertex -44.5 0.785044 -0.4
      vertex -44.5 0 -0.680521
    endloop
  endfacet
  facet normal -1 0 0
    outer loop
      vertex -44.5 0.785044 0.4
      vertex -44.5 0 0.680521
      vertex -44.5 0.716117 1.66617
    endloop
  endfacet
  facet normal -1 0 0
    outer loop
      vertex -44.5 -0.785044 -0.4
      vertex -44.5 0 -0.680521
      vertex -44.5 -0.713848 -1.66305
    endloop
  endfacet
  facet normal -1 0 0
    outer loop
      vertex -44.5 0 -0.680521
      vertex -44.5 -0.785044 -0.4
      vertex -44.5 0 0.680521
    endloop
  endfacet
  facet normal 1 -0 0
    outer loop
      vertex 44.5 2.46318 0.4
      vertex 44.5 3.34599 -0.4
      vertex 44.5 3.41228 0.4
    endloop
  endfacet
  facet normal 1 0 0
    outer loop
      vertex 44.5 2.46318 0.4
      vertex 44.5 2.41713 -0.4
      vertex 44.5 3.34599 -0.4
    endloop
  endfacet
  facet normal 1 0 0
    outer loop
      vertex 44.5 2.46318 0.4
      vertex 44.5 1.83739 0.4
      vertex 44.5 2.41713 -0.4
    endloop
  endfacet
  facet normal 1 0 0
    outer loop
      vertex 44.5 1.75528 1.73541
      vertex 44.5 1.83739 0.4
      vertex 44.5 2.46318 0.4
    endloop
  endfacet
  facet normal 1 -0 0
    outer loop
      vertex 44.5 1.08575 2.17493
      vertex 44.5 1.75528 1.73541
      vertex 44.5 1.64636 2.94654
    endloop
  endfacet
  facet normal 1 0 0
    outer loop
      vertex 44.5 1.75528 1.73541
      vertex 44.5 1.39347 1.23743
      vertex 44.5 1.83739 0.4
    endloop
  endfacet
  facet normal 1 0 0
    outer loop
      vertex 44.5 1.75528 1.73541
      vertex 44.5 1.08575 2.17493
      vertex 44.5 1.39347 1.23743
    endloop
  endfacet
  facet normal 1 -0 0
    outer loop
      vertex 44.5 0.716117 1.66617
      vertex 44.5 1.39347 1.23743
      vertex 44.5 1.08575 2.17493
    endloop
  endfacet
  facet normal 1 -0 0
    outer loop
      vertex 44.5 0 0.680521
      vertex 44.5 0.785044 0.4
      vertex 44.5 0.716117 1.66617
    endloop
  endfacet
  facet normal 1 0 0
    outer loop
      vertex 44.5 1.39347 1.23743
      vertex 44.5 0.716117 1.66617
      vertex 44.5 0.785044 0.4
    endloop
  endfacet
  facet normal 1 0 0
    outer loop
      vertex 44.5 1.08575 2.17493
      vertex 44.5 -0.716117 1.66617
      vertex 44.5 0.716117 1.66617
    endloop
  endfacet
  facet normal 1 -0 0
    outer loop
      vertex 44.5 -1.08575 2.17493
      vertex 44.5 -0.716117 1.66617
      vertex 44.5 1.08575 2.17493
    endloop
  endfacet
  facet normal 1 0 0
    outer loop
      vertex 44.5 -1.39347 1.23743
      vertex 44.5 -0.716117 1.66617
      vertex 44.5 -1.08575 2.17493
    endloop
  endfacet
  facet normal 1 0 0
    outer loop
      vertex 44.5 -0.716117 1.66617
      vertex 44.5 -1.39347 1.23743
      vertex 44.5 -0.785044 0.4
    endloop
  endfacet
  facet normal 1 0 0
    outer loop
      vertex 44.5 -1.75528 1.73541
      vertex 44.5 -1.08575 2.17493
      vertex 44.5 -1.64636 2.94654
    endloop
  endfacet
  facet normal 1 0 0
    outer loop
      vertex 44.5 -1.08575 2.17493
      vertex 44.5 -1.75528 1.73541
      vertex 44.5 -1.39347 1.23743
    endloop
  endfacet
  facet normal 1 0 0
    outer loop
      vertex 44.5 -1.75528 1.73541
      vertex 44.5 -1.83739 0.4
      vertex 44.5 -1.39347 1.23743
    endloop
  endfacet
  facet normal 1 0 0
    outer loop
      vertex 44.5 -2.46318 0.4
      vertex 44.5 -1.83739 0.4
      vertex 44.5 -1.75528 1.73541
    endloop
  endfacet
  facet normal 1 0 0
    outer loop
      vertex 44.5 -1.83739 0.4
      vertex 44.5 -2.46318 0.4
      vertex 44.5 -2.41713 -0.4
    endloop
  endfacet
  facet normal 1 0 0
    outer loop
      vertex 44.5 -2.46318 0.4
      vertex 44.5 -3.34599 -0.4
      vertex 44.5 -2.41713 -0.4
    endloop
  endfacet
  facet normal 1 0 -0
    outer loop
      vertex 44.5 -3.34599 -0.4
      vertex 44.5 -2.46318 0.4
      vertex 44.5 -3.41228 0.4
    endloop
  endfacet
  facet normal 1 0 0
    outer loop
      vertex 44.5 4.24665 0.4
      vertex 44.5 3.41228 0.4
      vertex 44.5 4.16257 -0.4
    endloop
  endfacet
  facet normal 1 0 0
    outer loop
      vertex 44.5 2.78641 3.15465
      vertex 44.5 3.41228 0.4
      vertex 44.5 4.24665 0.4
    endloop
  endfacet
  facet normal 1 0 0
    outer loop
      vertex 44.5 2.30401 2.49068
      vertex 44.5 2.78641 3.15465
      vertex 44.5 2.51278 3.45855
    endloop
  endfacet
  facet normal 1 0 0
    outer loop
      vertex 44.5 2.78641 3.15465
      vertex 44.5 2.30401 2.49068
      vertex 44.5 3.41228 0.4
    endloop
  endfacet
  facet normal 1 0 0
    outer loop
      vertex 44.5 1.64636 2.94654
      vertex 44.5 2.51278 3.45855
      vertex 44.5 2.1392 3.62488
    endloop
  endfacet
  facet normal 1 0 0
    outer loop
      vertex 44.5 2.51278 3.45855
      vertex 44.5 1.64636 2.94654
      vertex 44.5 2.30401 2.49068
    endloop
  endfacet
  facet normal 1 0 0
    outer loop
      vertex 44.5 2.30401 2.49068
      vertex 44.5 1.64636 2.94654
      vertex 44.5 1.75528 1.73541
    endloop
  endfacet
  facet normal 1 0 0
    outer loop
      vertex 44.5 2.1392 3.62488
      vertex 44.5 -1.64636 2.94654
      vertex 44.5 1.64636 2.94654
    endloop
  endfacet
  facet normal 1 -0 0
    outer loop
      vertex 44.5 -2.1392 3.62488
      vertex 44.5 -1.64636 2.94654
      vertex 44.5 2.1392 3.62488
    endloop
  endfacet
  facet normal 1 -0 0
    outer loop
      vertex 44.5 -2.51278 3.45855
      vertex 44.5 -1.64636 2.94654
      vertex 44.5 -2.1392 3.62488
    endloop
  endfacet
  facet normal 1 0 0
    outer loop
      vertex 44.5 -1.64636 2.94654
      vertex 44.5 -2.30401 2.49068
      vertex 44.5 -1.75528 1.73541
    endloop
  endfacet
  facet normal 1 0 0
    outer loop
      vertex 44.5 -1.64636 2.94654
      vertex 44.5 -2.51278 3.45855
      vertex 44.5 -2.30401 2.49068
    endloop
  endfacet
  facet normal 1 -0 0
    outer loop
      vertex 44.5 -2.78641 3.15465
      vertex 44.5 -2.30401 2.49068
      vertex 44.5 -2.51278 3.45855
    endloop
  endfacet
  facet normal 1 0 0
    outer loop
      vertex 44.5 -2.78641 3.15465
      vertex 44.5 -3.41228 0.4
      vertex 44.5 -2.30401 2.49068
    endloop
  endfacet
  facet normal 1 0 0
    outer loop
      vertex 44.5 -4.24665 0.4
      vertex 44.5 -3.41228 0.4
      vertex 44.5 -2.78641 3.15465
    endloop
  endfacet
  facet normal 1 0 0
    outer loop
      vertex 44.5 -3.41228 0.4
      vertex 44.5 -4.24665 0.4
      vertex 44.5 -4.16257 -0.4
    endloop
  endfacet
  facet normal 1 0 0
    outer loop
      vertex 44.5 3.34599 -0.4
      vertex 44.5 4.16257 -0.4
      vertex 44.5 3.41228 0.4
    endloop
  endfacet
  facet normal 1 0 0
    outer loop
      vertex 44.5 2.2988 -2.48351
      vertex 44.5 4.16257 -0.4
      vertex 44.5 3.34599 -0.4
    endloop
  endfacet
  facet normal 1 0 0
    outer loop
      vertex 44.5 4.16257 -0.4
      vertex 44.5 2.2988 -2.48351
      vertex 44.5 2.78148 -3.14785
    endloop
  endfacet
  facet normal 1 0 0
    outer loop
      vertex 44.5 2.78148 -3.14785
      vertex 44.5 2.2988 -2.48351
      vertex 44.5 2.78148 -3.14786
    endloop
  endfacet
  facet normal 1 0 0
    outer loop
      vertex 44.5 2.13426 -3.61808
      vertex 44.5 2.78148 -3.14786
      vertex 44.5 2.2988 -2.48351
    endloop
  endfacet
  facet normal 1 0 0
    outer loop
      vertex 44.5 1.64235 -2.94102
      vertex 44.5 2.2988 -2.48351
      vertex 44.5 1.74976 -1.72781
    endloop
  endfacet
  facet normal 1 0 0
    outer loop
      vertex 44.5 2.2988 -2.48351
      vertex 44.5 1.64235 -2.94102
      vertex 44.5 2.13426 -3.61808
    endloop
  endfacet
  facet normal 1 -0 0
    outer loop
      vertex 44.5 -1.64235 -2.94102
      vertex 44.5 2.13426 -3.61808
      vertex 44.5 1.64235 -2.94102
    endloop
  endfacet
  facet normal 1 0 0
    outer loop
      vertex 44.5 -1.64235 -2.94102
      vertex 44.5 -2.13426 -3.61808
      vertex 44.5 2.13426 -3.61808
    endloop
  endfacet
  facet normal 1 -0 0
    outer loop
      vertex 44.5 -2.2988 -2.48351
      vertex 44.5 -1.64235 -2.94102
      vertex 44.5 -1.74976 -1.72781
    endloop
  endfacet
  facet normal 1 0 0
    outer loop
      vertex 44.5 -1.64235 -2.94102
      vertex 44.5 -2.2988 -2.48351
      vertex 44.5 -2.13426 -3.61808
    endloop
  endfacet
  facet normal 1 -0 0
    outer loop
      vertex 44.5 -2.78148 -3.14786
      vertex 44.5 -2.13426 -3.61808
      vertex 44.5 -2.2988 -2.48351
    endloop
  endfacet
  facet normal 1 0 0
    outer loop
      vertex 44.5 -2.2988 -2.48351
      vertex 44.5 -2.78148 -3.14785
      vertex 44.5 -2.78148 -3.14786
    endloop
  endfacet
  facet normal 1 -0 0
    outer loop
      vertex 44.5 -4.16257 -0.4
      vertex 44.5 -2.2988 -2.48351
      vertex 44.5 -3.34599 -0.4
    endloop
  endfacet
  facet normal 1 0 0
    outer loop
      vertex 44.5 -2.2988 -2.48351
      vertex 44.5 -4.16257 -0.4
      vertex 44.5 -2.78148 -3.14785
    endloop
  endfacet
  facet normal 1 0 0
    outer loop
      vertex 44.5 -4.16257 -0.4
      vertex 44.5 -3.34599 -0.4
      vertex 44.5 -3.41228 0.4
    endloop
  endfacet
  facet normal 1 0 0
    outer loop
      vertex 44.5 -0.785044 0.4
      vertex 44.5 -1.80469 -0.4
      vertex 44.5 -0.785044 -0.4
    endloop
  endfacet
  facet normal 1 0 -0
    outer loop
      vertex 44.5 -1.80469 -0.4
      vertex 44.5 -0.785044 0.4
      vertex 44.5 -1.83739 0.4
    endloop
  endfacet
  facet normal 1 0 0
    outer loop
      vertex 44.5 0 -0.680521
      vertex 44.5 0.785044 -0.4
      vertex 44.5 0 0.680521
    endloop
  endfacet
  facet normal 1 0 0
    outer loop
      vertex 44.5 0.785044 -0.4
      vertex 44.5 0 -0.680521
      vertex 44.5 0.713848 -1.66305
    endloop
  endfacet
  facet normal 1 -0 0
    outer loop
      vertex 44.5 -0.785044 -0.4
      vertex 44.5 0 -0.680521
      vertex 44.5 0 0.680521
    endloop
  endfacet
  facet normal 1 0 0
    outer loop
      vertex 44.5 -0.785044 0.4
      vertex 44.5 0 0.680521
      vertex 44.5 -0.716117 1.66617
    endloop
  endfacet
  facet normal 1 -0 0
    outer loop
      vertex 44.5 0.785044 0.4
      vertex 44.5 1.80469 -0.4
      vertex 44.5 1.83739 0.4
    endloop
  endfacet
  facet normal 1 0 0
    outer loop
      vertex 44.5 1.80469 -0.4
      vertex 44.5 0.785044 0.4
      vertex 44.5 0.785044 -0.4
    endloop
  endfacet
  facet normal 1 0 0
    outer loop
      vertex 44.5 1.80469 -0.4
      vertex 44.5 2.41713 -0.4
      vertex 44.5 1.83739 0.4
    endloop
  endfacet
  facet normal 1 0 0
    outer loop
      vertex 44.5 1.38775 -1.22955
      vertex 44.5 2.41713 -0.4
      vertex 44.5 1.80469 -0.4
    endloop
  endfacet
  facet normal 1 0 0
    outer loop
      vertex 44.5 2.41713 -0.4
      vertex 44.5 1.38775 -1.22955
      vertex 44.5 1.74976 -1.72781
    endloop
  endfacet
  facet normal 1 0 0
    outer loop
      vertex 44.5 1.08279 -2.17085
      vertex 44.5 1.74976 -1.72781
      vertex 44.5 1.38775 -1.22955
    endloop
  endfacet
  facet normal 1 0 0
    outer loop
      vertex 44.5 1.74976 -1.72781
      vertex 44.5 1.08279 -2.17085
      vertex 44.5 1.64235 -2.94102
    endloop
  endfacet
  facet normal 1 0 0
    outer loop
      vertex 44.5 0.713848 -1.66305
      vertex 44.5 1.38775 -1.22955
      vertex 44.5 0.785044 -0.4
    endloop
  endfacet
  facet normal 1 0 0
    outer loop
      vertex 44.5 0.785044 0.4
      vertex 44.5 0 0.680521
      vertex 44.5 0.785044 -0.4
    endloop
  endfacet
  facet normal 1 0 0
    outer loop
      vertex 44.5 1.38775 -1.22955
      vertex 44.5 0.713848 -1.66305
      vertex 44.5 1.08279 -2.17085
    endloop
  endfacet
  facet normal 1 -0 0
    outer loop
      vertex 44.5 -0.713848 -1.66305
      vertex 44.5 1.08279 -2.17085
      vertex 44.5 0.713848 -1.66305
    endloop
  endfacet
  facet normal 1 0 0
    outer loop
      vertex 44.5 -0.785044 -0.4
      vertex 44.5 0 0.680521
      vertex 44.5 -0.785044 0.4
    endloop
  endfacet
  facet normal 1 0 0
    outer loop
      vertex 44.5 0 -0.680521
      vertex 44.5 -0.785044 -0.4
      vertex 44.5 -0.713848 -1.66305
    endloop
  endfacet
  facet normal 1 0 0
    outer loop
      vertex 44.5 -0.713848 -1.66305
      vertex 44.5 -1.08279 -2.17085
      vertex 44.5 1.08279 -2.17085
    endloop
  endfacet
  facet normal 1 -0 0
    outer loop
      vertex 44.5 -1.38775 -1.22955
      vertex 44.5 -0.713848 -1.66305
      vertex 44.5 -0.785044 -0.4
    endloop
  endfacet
  facet normal 1 0 0
    outer loop
      vertex 44.5 -0.713848 -1.66305
      vertex 44.5 -1.38775 -1.22955
      vertex 44.5 -1.08279 -2.17085
    endloop
  endfacet
  facet normal 1 -0 0
    outer loop
      vertex 44.5 -1.74976 -1.72781
      vertex 44.5 -1.08279 -2.17085
      vertex 44.5 -1.38775 -1.22955
    endloop
  endfacet
  facet normal 1 0 0
    outer loop
      vertex 44.5 -1.08279 -2.17085
      vertex 44.5 -1.74976 -1.72781
      vertex 44.5 -1.64235 -2.94102
    endloop
  endfacet
  facet normal 1 -0 0
    outer loop
      vertex 44.5 -2.41713 -0.4
      vertex 44.5 -1.38775 -1.22955
      vertex 44.5 -1.80469 -0.4
    endloop
  endfacet
  facet normal 1 0 0
    outer loop
      vertex 44.5 -1.38775 -1.22955
      vertex 44.5 -2.41713 -0.4
      vertex 44.5 -1.74976 -1.72781
    endloop
  endfacet
  facet normal 1 0 0
    outer loop
      vertex 44.5 -2.41713 -0.4
      vertex 44.5 -1.80469 -0.4
      vertex 44.5 -1.83739 0.4
    endloop
  endfacet
  facet normal 0 -0.809017 -0.587785
    outer loop
      vertex -44.5 0.713848 -1.66305
      vertex 44.5 0 -0.680521
      vertex -44.5 0 -0.680521
    endloop
  endfacet
  facet normal 0 -0.809017 -0.587785
    outer loop
      vertex 44.5 0 -0.680521
      vertex -44.5 0.713848 -1.66305
      vertex 44.5 0.713848 -1.66305
    endloop
  endfacet
  facet normal 0 -0.809018 -0.587784
    outer loop
      vertex -44.5 -0.785044 0.4
      vertex 44.5 -1.39347 1.23743
      vertex -44.5 -1.39347 1.23743
    endloop
  endfacet
  facet normal 0 -0.809018 -0.587784
    outer loop
      vertex 44.5 -1.39347 1.23743
      vertex -44.5 -0.785044 0.4
      vertex 44.5 -0.785044 0.4
    endloop
  endfacet
  facet normal 0 -0.80902 -0.587781
    outer loop
      vertex -44.5 -1.75528 1.73541
      vertex 44.5 -2.30401 2.49068
      vertex -44.5 -2.30401 2.49068
    endloop
  endfacet
  facet normal 0 -0.80902 -0.587781
    outer loop
      vertex 44.5 -2.30401 2.49068
      vertex -44.5 -1.75528 1.73541
      vertex 44.5 -1.75528 1.73541
    endloop
  endfacet
  facet normal 0 -0.809018 -0.587784
    outer loop
      vertex -44.5 1.64235 -2.94102
      vertex 44.5 1.08279 -2.17085
      vertex -44.5 1.08279 -2.17085
    endloop
  endfacet
  facet normal 0 -0.809018 -0.587784
    outer loop
      vertex 44.5 1.08279 -2.17085
      vertex -44.5 1.64235 -2.94102
      vertex 44.5 1.64235 -2.94102
    endloop
  endfacet
  facet normal 0 0.809017 0.587786
    outer loop
      vertex 44.5 0 0.680521
      vertex -44.5 -0.716117 1.66617
      vertex 44.5 -0.716117 1.66617
    endloop
  endfacet
  facet normal 0 0.809017 0.587786
    outer loop
      vertex -44.5 -0.716117 1.66617
      vertex 44.5 0 0.680521
      vertex -44.5 0 0.680521
    endloop
  endfacet
  facet normal 0 0.809016 0.587787
    outer loop
      vertex 44.5 1.38775 -1.22955
      vertex -44.5 0.785044 -0.4
      vertex 44.5 0.785044 -0.4
    endloop
  endfacet
  facet normal 0 0.809016 0.587787
    outer loop
      vertex -44.5 0.785044 -0.4
      vertex 44.5 1.38775 -1.22955
      vertex -44.5 1.38775 -1.22955
    endloop
  endfacet
  facet normal 0 0.809021 0.58778
    outer loop
      vertex 44.5 2.2988 -2.48351
      vertex -44.5 1.74976 -1.72781
      vertex 44.5 1.74976 -1.72781
    endloop
  endfacet
  facet normal 0 0.809021 0.58778
    outer loop
      vertex -44.5 1.74976 -1.72781
      vertex 44.5 2.2988 -2.48351
      vertex -44.5 2.2988 -2.48351
    endloop
  endfacet
  facet normal 0 0.809016 0.587787
    outer loop
      vertex 44.5 -1.08575 2.17493
      vertex -44.5 -1.64636 2.94654
      vertex 44.5 -1.64636 2.94654
    endloop
  endfacet
  facet normal 0 0.809016 0.587787
    outer loop
      vertex -44.5 -1.64636 2.94654
      vertex 44.5 -1.08575 2.17493
      vertex -44.5 -1.08575 2.17493
    endloop
  endfacet
  facet normal 0 -0.809017 0.587786
    outer loop
      vertex -44.5 0 0.680521
      vertex 44.5 0.716117 1.66617
      vertex -44.5 0.716117 1.66617
    endloop
  endfacet
  facet normal 0 -0.809017 0.587786
    outer loop
      vertex 44.5 0.716117 1.66617
      vertex -44.5 0 0.680521
      vertex 44.5 0 0.680521
    endloop
  endfacet
  facet normal 0 -0.809016 0.587787
    outer loop
      vertex -44.5 -1.38775 -1.22955
      vertex 44.5 -0.785044 -0.4
      vertex -44.5 -0.785044 -0.4
    endloop
  endfacet
  facet normal 0 -0.809016 0.587787
    outer loop
      vertex 44.5 -0.785044 -0.4
      vertex -44.5 -1.38775 -1.22955
      vertex 44.5 -1.38775 -1.22955
    endloop
  endfacet
  facet normal 0 -0.809021 0.58778
    outer loop
      vertex -44.5 -2.2988 -2.48351
      vertex 44.5 -1.74976 -1.72781
      vertex -44.5 -1.74976 -1.72781
    endloop
  endfacet
  facet normal 0 -0.809021 0.58778
    outer loop
      vertex 44.5 -1.74976 -1.72781
      vertex -44.5 -2.2988 -2.48351
      vertex 44.5 -2.2988 -2.48351
    endloop
  endfacet
  facet normal 0 -0.809016 0.587787
    outer loop
      vertex -44.5 1.08575 2.17493
      vertex 44.5 1.64636 2.94654
      vertex -44.5 1.64636 2.94654
    endloop
  endfacet
  facet normal 0 -0.809016 0.587787
    outer loop
      vertex 44.5 1.64636 2.94654
      vertex -44.5 1.08575 2.17493
      vertex 44.5 1.08575 2.17493
    endloop
  endfacet
  facet normal 0 0.809017 -0.587785
    outer loop
      vertex 44.5 -0.713848 -1.66305
      vertex -44.5 0 -0.680521
      vertex 44.5 0 -0.680521
    endloop
  endfacet
  facet normal 0 0.809017 -0.587785
    outer loop
      vertex -44.5 0 -0.680521
      vertex 44.5 -0.713848 -1.66305
      vertex -44.5 -0.713848 -1.66305
    endloop
  endfacet
  facet normal 0 0.809018 -0.587784
    outer loop
      vertex 44.5 0.785044 0.4
      vertex -44.5 1.39347 1.23743
      vertex 44.5 1.39347 1.23743
    endloop
  endfacet
  facet normal 0 0.809018 -0.587784
    outer loop
      vertex -44.5 1.39347 1.23743
      vertex 44.5 0.785044 0.4
      vertex -44.5 0.785044 0.4
    endloop
  endfacet
  facet normal 0 0.80902 -0.587781
    outer loop
      vertex 44.5 1.75528 1.73541
      vertex -44.5 2.30401 2.49068
      vertex 44.5 2.30401 2.49068
    endloop
  endfacet
  facet normal 0 0.80902 -0.587781
    outer loop
      vertex -44.5 2.30401 2.49068
      vertex 44.5 1.75528 1.73541
      vertex -44.5 1.75528 1.73541
    endloop
  endfacet
  facet normal 0 0.809018 -0.587784
    outer loop
      vertex 44.5 -1.64235 -2.94102
      vertex -44.5 -1.08279 -2.17085
      vertex 44.5 -1.08279 -2.17085
    endloop
  endfacet
  facet normal 0 0.809018 -0.587784
    outer loop
      vertex -44.5 -1.08279 -2.17085
      vertex 44.5 -1.64235 -2.94102
      vertex -44.5 -1.64235 -2.94102
    endloop
  endfacet
  facet normal -0 0 1
    outer loop
      vertex -44.5 -0.785044 0.4
      vertex 44.5 -1.83739 0.4
      vertex 44.5 -0.785044 0.4
    endloop
  endfacet
  facet normal 0 0 1
    outer loop
      vertex 44.5 -1.83739 0.4
      vertex -44.5 -0.785044 0.4
      vertex -44.5 -1.83739 0.4
    endloop
  endfacet
  facet normal -0 0 1
    outer loop
      vertex -44.5 1.83739 0.4
      vertex 44.5 0.785044 0.4
      vertex 44.5 1.83739 0.4
    endloop
  endfacet
  facet normal 0 0 1
    outer loop
      vertex 44.5 0.785044 0.4
      vertex -44.5 1.83739 0.4
      vertex -44.5 0.785044 0.4
    endloop
  endfacet
  facet normal -0 0 1
    outer loop
      vertex -44.5 -2.46318 0.4
      vertex 44.5 -3.41228 0.4
      vertex 44.5 -2.46318 0.4
    endloop
  endfacet
  facet normal 0 0 1
    outer loop
      vertex 44.5 -3.41228 0.4
      vertex -44.5 -2.46318 0.4
      vertex -44.5 -3.41228 0.4
    endloop
  endfacet
  facet normal -0 0 1
    outer loop
      vertex -44.5 3.41228 0.4
      vertex 44.5 2.46318 0.4
      vertex 44.5 3.41228 0.4
    endloop
  endfacet
  facet normal 0 0 1
    outer loop
      vertex 44.5 2.46318 0.4
      vertex -44.5 3.41228 0.4
      vertex -44.5 2.46318 0.4
    endloop
  endfacet
  facet normal 0 0 -1
    outer loop
      vertex -44.5 0.785044 -0.4
      vertex 44.5 1.80469 -0.4
      vertex 44.5 0.785044 -0.4
    endloop
  endfacet
  facet normal -0 0 -1
    outer loop
      vertex 44.5 1.80469 -0.4
      vertex -44.5 0.785044 -0.4
      vertex -44.5 1.80469 -0.4
    endloop
  endfacet
  facet normal 0 0 -1
    outer loop
      vertex -44.5 -1.80469 -0.4
      vertex 44.5 -0.785044 -0.4
      vertex 44.5 -1.80469 -0.4
    endloop
  endfacet
  facet normal -0 0 -1
    outer loop
      vertex 44.5 -0.785044 -0.4
      vertex -44.5 -1.80469 -0.4
      vertex -44.5 -0.785044 -0.4
    endloop
  endfacet
  facet normal 0 0 -1
    outer loop
      vertex -44.5 2.41713 -0.4
      vertex 44.5 3.34599 -0.4
      vertex 44.5 2.41713 -0.4
    endloop
  endfacet
  facet normal -0 0 -1
    outer loop
      vertex 44.5 3.34599 -0.4
      vertex -44.5 2.41713 -0.4
      vertex -44.5 3.34599 -0.4
    endloop
  endfacet
  facet normal 0 0 -1
    outer loop
      vertex -44.5 -3.34599 -0.4
      vertex 44.5 -2.41713 -0.4
      vertex 44.5 -3.34599 -0.4
    endloop
  endfacet
  facet normal -0 0 -1
    outer loop
      vertex 44.5 -2.41713 -0.4
      vertex -44.5 -3.34599 -0.4
      vertex -44.5 -2.41713 -0.4
    endloop
  endfacet
  facet normal 0 0.743148 0.669127
    outer loop
      vertex -14.995 2.78641 3.15465
      vertex -44.5 2.51278 3.45855
      vertex -14.995 2.51278 3.45855
    endloop
  endfacet
  facet normal 0 0.743148 0.669127
    outer loop
      vertex -44.5 2.51278 3.45855
      vertex -14.995 2.78641 3.15465
      vertex -44.5 2.78641 3.15465
    endloop
  endfacet
  facet normal 0 0.743148 0.669127
    outer loop
      vertex 44.5 2.78641 3.15465
      vertex -14.005 2.51278 3.45855
      vertex 44.5 2.51278 3.45855
    endloop
  endfacet
  facet normal 0 0.743148 0.669127
    outer loop
      vertex -14.005 2.51278 3.45855
      vertex 44.5 2.78641 3.15465
      vertex -14.005 2.78641 3.15465
    endloop
  endfacet
  facet normal 0 -0.994522 -0.104524
    outer loop
      vertex -44.5 -4.16257 -0.4
      vertex -14.995 -4.24665 0.4
      vertex -44.5 -4.24665 0.4
    endloop
  endfacet
  facet normal 0 -0.994522 -0.104524
    outer loop
      vertex -14.995 -4.24665 0.4
      vertex -44.5 -4.16257 -0.4
      vertex -14.995 -4.16257 -0.4
    endloop
  endfacet
  facet normal 0 -0.994522 -0.104524
    outer loop
      vertex -14.005 -4.16257 -0.4
      vertex 44.5 -4.24665 0.4
      vertex -14.005 -4.24665 0.4
    endloop
  endfacet
  facet normal 0 -0.994522 -0.104524
    outer loop
      vertex 44.5 -4.24665 0.4
      vertex -14.005 -4.16257 -0.4
      vertex 44.5 -4.16257 -0.4
    endloop
  endfacet
  facet normal 0 -0.743148 0.669127
    outer loop
      vertex -44.5 -2.78641 3.15465
      vertex -14.995 -2.51278 3.45855
      vertex -44.5 -2.51278 3.45855
    endloop
  endfacet
  facet normal 0 -0.743148 0.669127
    outer loop
      vertex -14.995 -2.51278 3.45855
      vertex -44.5 -2.78641 3.15465
      vertex -14.995 -2.78641 3.15465
    endloop
  endfacet
  facet normal 0 -0.743148 0.669127
    outer loop
      vertex -14.005 -2.78641 3.15465
      vertex 44.5 -2.51278 3.45855
      vertex -14.005 -2.51278 3.45855
    endloop
  endfacet
  facet normal 0 -0.743148 0.669127
    outer loop
      vertex 44.5 -2.51278 3.45855
      vertex -14.005 -2.78641 3.15465
      vertex 44.5 -2.78641 3.15465
    endloop
  endfacet
  facet normal 1.00466e-07 0.587775 -0.809025
    outer loop
      vertex 44.5 2.13426 -3.61808
      vertex -14.005 2.13427 -3.61808
      vertex 44.5 2.78148 -3.14786
    endloop
  endfacet
  facet normal 0 0 -1
    outer loop
      vertex 44.5 2.13426 -3.61808
      vertex -14.995 2.13427 -3.61808
      vertex -14.005 2.13427 -3.61808
    endloop
  endfacet
  facet normal 0 0 -1
    outer loop
      vertex -44.5 2.13426 -3.61808
      vertex -14.995 2.13427 -3.61808
      vertex 44.5 2.13426 -3.61808
    endloop
  endfacet
  facet normal -1.99214e-07 0.587781 -0.80902
    outer loop
      vertex -44.5 2.13426 -3.61808
      vertex -14.995 2.78148 -3.14786
      vertex -14.995 2.13427 -3.61808
    endloop
  endfacet
  facet normal 0 0.587775 -0.809025
    outer loop
      vertex -14.995 2.78148 -3.14786
      vertex -44.5 2.13426 -3.61808
      vertex -44.5 2.78148 -3.14786
    endloop
  endfacet
  facet normal 0 0.587781 -0.80902
    outer loop
      vertex 44.5 2.78148 -3.14786
      vertex -14.005 2.13427 -3.61808
      vertex -14.005 2.78148 -3.14786
    endloop
  endfacet
  facet normal 0 0.994522 -0.104524
    outer loop
      vertex -14.995 4.16257 -0.4
      vertex -44.5 4.24665 0.4
      vertex -14.995 4.24665 0.4
    endloop
  endfacet
  facet normal 0 0.994522 -0.104524
    outer loop
      vertex -44.5 4.24665 0.4
      vertex -14.995 4.16257 -0.4
      vertex -44.5 4.16257 -0.4
    endloop
  endfacet
  facet normal 0 0.994522 -0.104524
    outer loop
      vertex 44.5 4.16257 -0.4
      vertex -14.005 4.24665 0.4
      vertex 44.5 4.24665 0.4
    endloop
  endfacet
  facet normal 0 0.994522 -0.104524
    outer loop
      vertex -14.005 4.24665 0.4
      vertex 44.5 4.16257 -0.4
      vertex -14.005 4.16257 -0.4
    endloop
  endfacet
  facet normal 0 0.40674 0.913544
    outer loop
      vertex -14.995 2.51278 3.45855
      vertex -44.5 2.51278 3.45855
      vertex -14.995 2.1392 3.62488
    endloop
  endfacet
  facet normal -0 0.40674 0.913544
    outer loop
      vertex -14.005 2.51278 3.45855
      vertex 44.5 2.1392 3.62488
      vertex 44.5 2.51278 3.45855
    endloop
  endfacet
  facet normal -0 0.40674 0.913544
    outer loop
      vertex -14.005 2.1392 3.62488
      vertex 44.5 2.1392 3.62488
      vertex -14.005 2.51278 3.45855
    endloop
  endfacet
  facet normal 0 0 0
    outer loop
      vertex -14.995 2.1392 3.62488
      vertex 44.5 2.1392 3.62488
      vertex -14.005 2.1392 3.62488
    endloop
  endfacet
  facet normal 0 0 -0
    outer loop
      vertex -14.995 2.1392 3.62488
      vertex -44.5 2.1392 3.62488
      vertex 44.5 2.1392 3.62488
    endloop
  endfacet
  facet normal -0 0.40674 0.913544
    outer loop
      vertex -44.5 2.1392 3.62488
      vertex -14.995 2.1392 3.62488
      vertex -44.5 2.51278 3.45855
    endloop
  endfacet
  facet normal 0 -0.40674 0.913544
    outer loop
      vertex 44.5 -2.1392 3.62488
      vertex -14.005 -2.1392 3.62488
      vertex 44.5 -2.51278 3.45855
    endloop
  endfacet
  facet normal 0 0 0
    outer loop
      vertex 44.5 -2.1392 3.62488
      vertex -14.995 -2.1392 3.62488
      vertex -14.005 -2.1392 3.62488
    endloop
  endfacet
  facet normal 0 0 0
    outer loop
      vertex -44.5 -2.1392 3.62488
      vertex -14.995 -2.1392 3.62488
      vertex 44.5 -2.1392 3.62488
    endloop
  endfacet
  facet normal 0 -0.40674 0.913544
    outer loop
      vertex -44.5 -2.1392 3.62488
      vertex -14.995 -2.51278 3.45855
      vertex -14.995 -2.1392 3.62488
    endloop
  endfacet
  facet normal 0 -0.40674 0.913544
    outer loop
      vertex -14.995 -2.51278 3.45855
      vertex -44.5 -2.1392 3.62488
      vertex -44.5 -2.51278 3.45855
    endloop
  endfacet
  facet normal 0 -0.40674 0.913544
    outer loop
      vertex 44.5 -2.51278 3.45855
      vertex -14.005 -2.1392 3.62488
      vertex -14.005 -2.51278 3.45855
    endloop
  endfacet
  facet normal -0 -0.587781 -0.80902
    outer loop
      vertex -14.995 -2.78148 -3.14786
      vertex -44.5 -2.78148 -3.14786
      vertex -14.995 -2.13427 -3.61808
    endloop
  endfacet
  facet normal 0 -0.587775 -0.809025
    outer loop
      vertex -14.005 -2.78148 -3.14786
      vertex 44.5 -2.13426 -3.61808
      vertex 44.5 -2.78148 -3.14786
    endloop
  endfacet
  facet normal 1.00467e-07 -0.587781 -0.80902
    outer loop
      vertex -14.005 -2.13427 -3.61808
      vertex 44.5 -2.13426 -3.61808
      vertex -14.005 -2.78148 -3.14786
    endloop
  endfacet
  facet normal 0 0 -1
    outer loop
      vertex -14.995 -2.13427 -3.61808
      vertex 44.5 -2.13426 -3.61808
      vertex -14.005 -2.13427 -3.61808
    endloop
  endfacet
  facet normal 0 0 -1
    outer loop
      vertex -14.995 -2.13427 -3.61808
      vertex -44.5 -2.13426 -3.61808
      vertex 44.5 -2.13426 -3.61808
    endloop
  endfacet
  facet normal -1.99212e-07 -0.587775 -0.809025
    outer loop
      vertex -44.5 -2.13426 -3.61808
      vertex -14.995 -2.13427 -3.61808
      vertex -44.5 -2.78148 -3.14786
    endloop
  endfacet
  facet normal -0 0 1
    outer loop
      vertex -44.5 2.1392 3.62488
      vertex 44.5 -2.1392 3.62488
      vertex 44.5 2.1392 3.62488
    endloop
  endfacet
  facet normal 0 0 1
    outer loop
      vertex 44.5 -2.1392 3.62488
      vertex -44.5 2.1392 3.62488
      vertex -44.5 -2.1392 3.62488
    endloop
  endfacet
  facet normal -0 0 1
    outer loop
      vertex -14.9268 -2.30321 3.62488
      vertex -14.2106 -2.63363 3.62488
      vertex -14.005 -2.1392 3.62488
    endloop
  endfacet
  facet normal 0 0 1
    outer loop
      vertex -14.2106 -2.63363 3.62488
      vertex -14.5673 -2.92592 3.62488
      vertex -14.5 -3.01452 3.62488
    endloop
  endfacet
  facet normal 0 0 1
    outer loop
      vertex -14.2106 -2.63363 3.62488
      vertex -14.7894 -2.63363 3.62488
      vertex -14.5673 -2.92592 3.62488
    endloop
  endfacet
  facet normal 0 0 1
    outer loop
      vertex -14.2106 -2.63363 3.62488
      vertex -14.9268 -2.30321 3.62488
      vertex -14.7894 -2.63363 3.62488
    endloop
  endfacet
  facet normal 0 -0 1
    outer loop
      vertex -14.9268 -2.30321 3.62488
      vertex -14.005 -2.1392 3.62488
      vertex -14.995 -2.1392 3.62488
    endloop
  endfacet
  facet normal -0 0 1
    outer loop
      vertex -14.7894 2.63363 3.62488
      vertex -14.0732 2.30321 3.62488
      vertex -14.2106 2.63363 3.62488
    endloop
  endfacet
  facet normal 0 0 1
    outer loop
      vertex -14.7894 2.63363 3.62488
      vertex -14.2106 2.63363 3.62488
      vertex -14.4327 2.92592 3.62488
    endloop
  endfacet
  facet normal 0 0 1
    outer loop
      vertex -14.7894 2.63363 3.62488
      vertex -14.4327 2.92592 3.62488
      vertex -14.5 3.01452 3.62488
    endloop
  endfacet
  facet normal 0 0 1
    outer loop
      vertex -14.995 2.1392 3.62488
      vertex -14.0732 2.30321 3.62488
      vertex -14.7894 2.63363 3.62488
    endloop
  endfacet
  facet normal 0 0 1
    outer loop
      vertex -14.0732 2.30321 3.62488
      vertex -14.995 2.1392 3.62488
      vertex -14.005 2.1392 3.62488
    endloop
  endfacet
  facet normal 0 1 -0
    outer loop
      vertex 44.5 2.78148 -3.14786
      vertex -14.005 2.78148 -3.14785
      vertex 44.5 2.78148 -3.14785
    endloop
  endfacet
  facet normal 0 1 0
    outer loop
      vertex -14.005 2.78148 -3.14785
      vertex 44.5 2.78148 -3.14786
      vertex -14.005 2.78148 -3.14786
    endloop
  endfacet
  facet normal 0 1 -0
    outer loop
      vertex -14.995 2.78148 -3.14786
      vertex -44.5 2.78148 -3.14785
      vertex -14.995 2.78148 -3.14785
    endloop
  endfacet
  facet normal 0 1 0
    outer loop
      vertex -44.5 2.78148 -3.14785
      vertex -14.995 2.78148 -3.14786
      vertex -44.5 2.78148 -3.14786
    endloop
  endfacet
  facet normal 0 0.893493 -0.449076
    outer loop
      vertex -14.005 2.78148 -3.14785
      vertex -14.005 4.16257 -0.4
      vertex 44.5 4.16257 -0.4
    endloop
  endfacet
  facet normal 9.4765e-06 0.893493 -0.449076
    outer loop
      vertex -14.2841 3.35725 -2.00229
      vertex -14.005 4.16257 -0.4
      vertex -14.005 2.78148 -3.14785
    endloop
  endfacet
  facet normal -7.22944e-06 0.893495 -0.449074
    outer loop
      vertex -14.005 4.16257 -0.4
      vertex -14.2841 3.35725 -2.00229
      vertex -14.3359 3.75104 -1.21879
    endloop
  endfacet
  facet normal 4.22895e-05 0.893496 -0.449072
    outer loop
      vertex -14.2841 3.35725 -2.00229
      vertex -14.0977 2.87014 -2.97145
      vertex -14.2376 3.00411 -2.70491
    endloop
  endfacet
  facet normal 0 0.893493 -0.449076
    outer loop
      vertex -14.005 2.78148 -3.14785
      vertex 44.5 4.16257 -0.4
      vertex 44.5 2.78148 -3.14785
    endloop
  endfacet
  facet normal -7.5043e-06 0.893492 -0.44908
    outer loop
      vertex -14.2841 3.35725 -2.00229
      vertex -14.005 2.78148 -3.14785
      vertex -14.0977 2.87014 -2.97145
    endloop
  endfacet
  facet normal -1.95536e-05 0.893492 -0.44908
    outer loop
      vertex -14.7077 3.41959 -1.87825
      vertex -14.995 4.16257 -0.4
      vertex -14.84 3.96979 -0.783563
    endloop
  endfacet
  facet normal 5.86406e-06 0.893493 -0.449077
    outer loop
      vertex -14.7077 3.41959 -1.87825
      vertex -14.84 3.96979 -0.783563
      vertex -14.6641 3.75104 -1.21879
    endloop
  endfacet
  facet normal 1.47188e-06 0.893493 -0.449076
    outer loop
      vertex -14.995 4.16257 -0.4
      vertex -14.7077 3.41959 -1.87825
      vertex -14.995 2.78148 -3.14785
    endloop
  endfacet
  facet normal -3.51152e-05 0.893497 -0.44907
    outer loop
      vertex -14.995 2.78148 -3.14785
      vertex -14.7077 3.41959 -1.87825
      vertex -14.7624 3.00411 -2.70491
    endloop
  endfacet
  facet normal 0 0.893493 -0.449076
    outer loop
      vertex -14.995 4.16257 -0.4
      vertex -14.995 2.78148 -3.14785
      vertex -44.5 4.16257 -0.4
    endloop
  endfacet
  facet normal 0 0.893493 -0.449076
    outer loop
      vertex -44.5 4.16257 -0.4
      vertex -14.995 2.78148 -3.14785
      vertex -44.5 2.78148 -3.14785
    endloop
  endfacet
  facet normal 3.12659e-05 0.883535 0.468365
    outer loop
      vertex -14.9258 4.11489 0.648569
      vertex -14.995 2.78641 3.15465
      vertex -14.8071 3.14038 2.4869
    endloop
  endfacet
  facet normal -4.15831e-05 0.883533 0.468369
    outer loop
      vertex -14.9258 4.11489 0.648569
      vertex -14.8071 3.14038 2.4869
      vertex -14.662 3.41387 1.971
    endloop
  endfacet
  facet normal -8.20981e-05 0.883536 0.468363
    outer loop
      vertex -14.995 2.78641 3.15465
      vertex -14.9258 4.11489 0.648569
      vertex -14.995 4.24665 0.4
    endloop
  endfacet
  facet normal -0.000415244 0.883498 0.468435
    outer loop
      vertex -14.995 4.24665 0.4
      vertex -14.9258 4.11489 0.648569
      vertex -14.9666 4.22339 0.443895
    endloop
  endfacet
  facet normal 0 0.883536 0.468363
    outer loop
      vertex -14.995 2.78641 3.15465
      vertex -14.995 4.24665 0.4
      vertex -44.5 2.78641 3.15465
    endloop
  endfacet
  facet normal 0 0.883536 0.468363
    outer loop
      vertex -44.5 2.78641 3.15465
      vertex -14.995 4.24665 0.4
      vertex -44.5 4.24665 0.4
    endloop
  endfacet
  facet normal 0 0.883536 0.468363
    outer loop
      vertex -14.005 4.24665 0.4
      vertex -14.005 2.78641 3.15465
      vertex 44.5 2.78641 3.15465
    endloop
  endfacet
  facet normal 2.25333e-05 0.883537 0.468362
    outer loop
      vertex -14.005 2.78641 3.15465
      vertex -14.2202 3.72706 1.38018
      vertex -14.338 3.41387 1.971
    endloop
  endfacet
  facet normal 1.40843e-05 0.883536 0.468363
    outer loop
      vertex -14.005 2.78641 3.15465
      vertex -14.005 4.24665 0.4
      vertex -14.2202 3.72706 1.38018
    endloop
  endfacet
  facet normal 0.000379872 0.883503 0.468426
    outer loop
      vertex -14.2202 3.72706 1.38018
      vertex -14.0148 4.23866 0.415079
      vertex -14.0334 4.22339 0.443895
    endloop
  endfacet
  facet normal -0 0.883536 0.468363
    outer loop
      vertex -14.005 4.24665 0.4
      vertex 44.5 2.78641 3.15465
      vertex 44.5 4.24665 0.4
    endloop
  endfacet
  facet normal 0.000452725 0.883496 0.468438
    outer loop
      vertex -14.2202 3.72706 1.38018
      vertex -14.005 4.24665 0.4
      vertex -14.0148 4.23866 0.415079
    endloop
  endfacet
  facet normal 0 0 -1
    outer loop
      vertex -44.5 -2.13426 -3.61808
      vertex 44.5 2.13426 -3.61808
      vertex 44.5 -2.13426 -3.61808
    endloop
  endfacet
  facet normal -0 0 -1
    outer loop
      vertex 44.5 2.13426 -3.61808
      vertex -44.5 -2.13426 -3.61808
      vertex -44.5 2.13426 -3.61808
    endloop
  endfacet
  facet normal 0 0 -1
    outer loop
      vertex -14.7957 -2.46589 -3.61808
      vertex -14.2555 -2.55108 -3.61808
      vertex -14.5 -2.95796 -3.61808
    endloop
  endfacet
  facet normal 0 0 -1
    outer loop
      vertex -14.2555 -2.55108 -3.61808
      vertex -14.7957 -2.46589 -3.61808
      vertex -14.005 -2.13427 -3.61808
    endloop
  endfacet
  facet normal -0 0 -1
    outer loop
      vertex -14.005 -2.13427 -3.61808
      vertex -14.7957 -2.46589 -3.61808
      vertex -14.995 -2.13427 -3.61808
    endloop
  endfacet
  facet normal 0 0 -1
    outer loop
      vertex -14.2043 2.46589 -3.61808
      vertex -14.7445 2.55108 -3.61808
      vertex -14.5 2.95796 -3.61808
    endloop
  endfacet
  facet normal 0 0 -1
    outer loop
      vertex -14.995 2.13427 -3.61808
      vertex -14.2043 2.46589 -3.61808
      vertex -14.005 2.13427 -3.61808
    endloop
  endfacet
  facet normal -0 0 -1
    outer loop
      vertex -14.2043 2.46589 -3.61808
      vertex -14.995 2.13427 -3.61808
      vertex -14.7445 2.55108 -3.61808
    endloop
  endfacet
  facet normal 0 -0.883536 0.468363
    outer loop
      vertex -14.995 -4.24665 0.4
      vertex -14.995 -2.78641 3.15465
      vertex -44.5 -2.78641 3.15465
    endloop
  endfacet
  facet normal -2.25333e-05 -0.883537 0.468362
    outer loop
      vertex -14.995 -2.78641 3.15465
      vertex -14.7798 -3.72706 1.38018
      vertex -14.662 -3.41387 1.971
    endloop
  endfacet
  facet normal -1.40843e-05 -0.883536 0.468363
    outer loop
      vertex -14.995 -2.78641 3.15465
      vertex -14.995 -4.24665 0.4
      vertex -14.7798 -3.72706 1.38018
    endloop
  endfacet
  facet normal -0.000379872 -0.883503 0.468426
    outer loop
      vertex -14.7798 -3.72706 1.38018
      vertex -14.9852 -4.23866 0.415079
      vertex -14.9666 -4.22339 0.443895
    endloop
  endfacet
  facet normal 0 -0.883536 0.468363
    outer loop
      vertex -14.995 -4.24665 0.4
      vertex -44.5 -2.78641 3.15465
      vertex -44.5 -4.24665 0.4
    endloop
  endfacet
  facet normal -0.000452725 -0.883496 0.468438
    outer loop
      vertex -14.7798 -3.72706 1.38018
      vertex -14.995 -4.24665 0.4
      vertex -14.9852 -4.23866 0.415079
    endloop
  endfacet
  facet normal -3.12659e-05 -0.883535 0.468365
    outer loop
      vertex -14.0742 -4.11489 0.648569
      vertex -14.005 -2.78641 3.15465
      vertex -14.1929 -3.14038 2.4869
    endloop
  endfacet
  facet normal 4.15831e-05 -0.883533 0.468369
    outer loop
      vertex -14.0742 -4.11489 0.648569
      vertex -14.1929 -3.14038 2.4869
      vertex -14.338 -3.41387 1.971
    endloop
  endfacet
  facet normal 8.20981e-05 -0.883536 0.468363
    outer loop
      vertex -14.005 -2.78641 3.15465
      vertex -14.0742 -4.11489 0.648569
      vertex -14.005 -4.24665 0.4
    endloop
  endfacet
  facet normal 0.000415244 -0.883498 0.468435
    outer loop
      vertex -14.005 -4.24665 0.4
      vertex -14.0742 -4.11489 0.648569
      vertex -14.0334 -4.22339 0.443895
    endloop
  endfacet
  facet normal 0 -0.883536 0.468363
    outer loop
      vertex -14.005 -2.78641 3.15465
      vertex -14.005 -4.24665 0.4
      vertex 44.5 -2.78641 3.15465
    endloop
  endfacet
  facet normal 0 -0.883536 0.468363
    outer loop
      vertex 44.5 -2.78641 3.15465
      vertex -14.005 -4.24665 0.4
      vertex 44.5 -4.24665 0.4
    endloop
  endfacet
  facet normal 0 -1 0
    outer loop
      vertex -44.5 -2.78148 -3.14786
      vertex -14.995 -2.78148 -3.14785
      vertex -44.5 -2.78148 -3.14785
    endloop
  endfacet
  facet normal 0 -1 -0
    outer loop
      vertex -14.995 -2.78148 -3.14785
      vertex -44.5 -2.78148 -3.14786
      vertex -14.995 -2.78148 -3.14786
    endloop
  endfacet
  facet normal 0 -1 0
    outer loop
      vertex -14.005 -2.78148 -3.14786
      vertex 44.5 -2.78148 -3.14785
      vertex -14.005 -2.78148 -3.14785
    endloop
  endfacet
  facet normal 0 -1 -0
    outer loop
      vertex 44.5 -2.78148 -3.14785
      vertex -14.005 -2.78148 -3.14786
      vertex 44.5 -2.78148 -3.14786
    endloop
  endfacet
  facet normal 0 -0.893493 -0.449076
    outer loop
      vertex -14.995 -2.78148 -3.14785
      vertex -14.995 -4.16257 -0.4
      vertex -44.5 -4.16257 -0.4
    endloop
  endfacet
  facet normal -9.4765e-06 -0.893493 -0.449076
    outer loop
      vertex -14.7159 -3.35725 -2.00229
      vertex -14.995 -4.16257 -0.4
      vertex -14.995 -2.78148 -3.14785
    endloop
  endfacet
  facet normal 7.22944e-06 -0.893495 -0.449074
    outer loop
      vertex -14.995 -4.16257 -0.4
      vertex -14.7159 -3.35725 -2.00229
      vertex -14.6641 -3.75104 -1.21879
    endloop
  endfacet
  facet normal -4.22895e-05 -0.893496 -0.449072
    outer loop
      vertex -14.7159 -3.35725 -2.00229
      vertex -14.9023 -2.87014 -2.97145
      vertex -14.7624 -3.00411 -2.70491
    endloop
  endfacet
  facet normal -0 -0.893493 -0.449076
    outer loop
      vertex -14.995 -2.78148 -3.14785
      vertex -44.5 -4.16257 -0.4
      vertex -44.5 -2.78148 -3.14785
    endloop
  endfacet
  facet normal 7.5043e-06 -0.893492 -0.44908
    outer loop
      vertex -14.7159 -3.35725 -2.00229
      vertex -14.995 -2.78148 -3.14785
      vertex -14.9023 -2.87014 -2.97145
    endloop
  endfacet
  facet normal 1.95536e-05 -0.893492 -0.44908
    outer loop
      vertex -14.2923 -3.41959 -1.87825
      vertex -14.005 -4.16257 -0.4
      vertex -14.16 -3.96979 -0.783563
    endloop
  endfacet
  facet normal -5.86406e-06 -0.893493 -0.449077
    outer loop
      vertex -14.2923 -3.41959 -1.87825
      vertex -14.16 -3.96979 -0.783563
      vertex -14.3359 -3.75104 -1.21879
    endloop
  endfacet
  facet normal -1.47188e-06 -0.893493 -0.449076
    outer loop
      vertex -14.005 -4.16257 -0.4
      vertex -14.2923 -3.41959 -1.87825
      vertex -14.005 -2.78148 -3.14785
    endloop
  endfacet
  facet normal 3.51152e-05 -0.893497 -0.44907
    outer loop
      vertex -14.005 -2.78148 -3.14785
      vertex -14.2923 -3.41959 -1.87825
      vertex -14.2376 -3.00411 -2.70491
    endloop
  endfacet
  facet normal 0 -0.893493 -0.449076
    outer loop
      vertex -14.005 -4.16257 -0.4
      vertex -14.005 -2.78148 -3.14785
      vertex 44.5 -4.16257 -0.4
    endloop
  endfacet
  facet normal 0 -0.893493 -0.449076
    outer loop
      vertex 44.5 -4.16257 -0.4
      vertex -14.005 -2.78148 -3.14785
      vertex 44.5 -2.78148 -3.14785
    endloop
  endfacet
  facet normal 0 0 -1
    outer loop
      vertex -44.5 -1.64636 2.94654
      vertex 44.5 1.64636 2.94654
      vertex 44.5 -1.64636 2.94654
    endloop
  endfacet
  facet normal -0 0 -1
    outer loop
      vertex 44.5 1.64636 2.94654
      vertex -44.5 -1.64636 2.94654
      vertex -44.5 1.64636 2.94654
    endloop
  endfacet
  facet normal 0 -0.893493 0.449077
    outer loop
      vertex -44.5 2.2988 -2.48351
      vertex 44.5 3.34599 -0.4
      vertex -44.5 3.34599 -0.4
    endloop
  endfacet
  facet normal 0 -0.893493 0.449077
    outer loop
      vertex 44.5 3.34599 -0.4
      vertex -44.5 2.2988 -2.48351
      vertex 44.5 2.2988 -2.48351
    endloop
  endfacet
  facet normal 0 -0.883536 -0.468363
    outer loop
      vertex -44.5 3.41228 0.4
      vertex 44.5 2.30401 2.49068
      vertex -44.5 2.30401 2.49068
    endloop
  endfacet
  facet normal 0 -0.883536 -0.468363
    outer loop
      vertex 44.5 2.30401 2.49068
      vertex -44.5 3.41228 0.4
      vertex 44.5 3.41228 0.4
    endloop
  endfacet
  facet normal -0 0 1
    outer loop
      vertex -44.5 1.64235 -2.94102
      vertex 44.5 -1.64235 -2.94102
      vertex 44.5 1.64235 -2.94102
    endloop
  endfacet
  facet normal 0 0 1
    outer loop
      vertex 44.5 -1.64235 -2.94102
      vertex -44.5 1.64235 -2.94102
      vertex -44.5 -1.64235 -2.94102
    endloop
  endfacet
  facet normal 0 0.883536 -0.468363
    outer loop
      vertex 44.5 -3.41228 0.4
      vertex -44.5 -2.30401 2.49068
      vertex 44.5 -2.30401 2.49068
    endloop
  endfacet
  facet normal 0 0.883536 -0.468363
    outer loop
      vertex -44.5 -2.30401 2.49068
      vertex 44.5 -3.41228 0.4
      vertex -44.5 -3.41228 0.4
    endloop
  endfacet
  facet normal 0 0.893493 0.449077
    outer loop
      vertex 44.5 -2.2988 -2.48351
      vertex -44.5 -3.34599 -0.4
      vertex 44.5 -3.34599 -0.4
    endloop
  endfacet
  facet normal 0 0.893493 0.449077
    outer loop
      vertex -44.5 -3.34599 -0.4
      vertex 44.5 -2.2988 -2.48351
      vertex -44.5 -2.2988 -2.48351
    endloop
  endfacet
  facet normal -0 0 1
    outer loop
      vertex -44.5 1.08575 2.17493
      vertex 44.5 -1.08575 2.17493
      vertex 44.5 1.08575 2.17493
    endloop
  endfacet
  facet normal 0 0 1
    outer loop
      vertex 44.5 -1.08575 2.17493
      vertex -44.5 1.08575 2.17493
      vertex -44.5 -1.08575 2.17493
    endloop
  endfacet
  facet normal 0 0.893493 -0.449078
    outer loop
      vertex 44.5 1.74976 -1.72781
      vertex -44.5 2.41713 -0.4
      vertex 44.5 2.41713 -0.4
    endloop
  endfacet
  facet normal 0 0.893493 -0.449078
    outer loop
      vertex -44.5 2.41713 -0.4
      vertex 44.5 1.74976 -1.72781
      vertex -44.5 1.74976 -1.72781
    endloop
  endfacet
  facet normal 0 0.883537 0.468362
    outer loop
      vertex 44.5 2.46318 0.4
      vertex -44.5 1.75528 1.73541
      vertex 44.5 1.75528 1.73541
    endloop
  endfacet
  facet normal 0 0.883537 0.468362
    outer loop
      vertex -44.5 1.75528 1.73541
      vertex 44.5 2.46318 0.4
      vertex -44.5 2.46318 0.4
    endloop
  endfacet
  facet normal 0 0 -1
    outer loop
      vertex -44.5 -1.08279 -2.17085
      vertex 44.5 1.08279 -2.17085
      vertex 44.5 -1.08279 -2.17085
    endloop
  endfacet
  facet normal -0 0 -1
    outer loop
      vertex 44.5 1.08279 -2.17085
      vertex -44.5 -1.08279 -2.17085
      vertex -44.5 1.08279 -2.17085
    endloop
  endfacet
  facet normal 0 -0.883537 0.468362
    outer loop
      vertex -44.5 -2.46318 0.4
      vertex 44.5 -1.75528 1.73541
      vertex -44.5 -1.75528 1.73541
    endloop
  endfacet
  facet normal 0 -0.883537 0.468362
    outer loop
      vertex 44.5 -1.75528 1.73541
      vertex -44.5 -2.46318 0.4
      vertex 44.5 -2.46318 0.4
    endloop
  endfacet
  facet normal 0 -0.893493 -0.449078
    outer loop
      vertex -44.5 -1.74976 -1.72781
      vertex 44.5 -2.41713 -0.4
      vertex -44.5 -2.41713 -0.4
    endloop
  endfacet
  facet normal 0 -0.893493 -0.449078
    outer loop
      vertex 44.5 -2.41713 -0.4
      vertex -44.5 -1.74976 -1.72781
      vertex 44.5 -1.74976 -1.72781
    endloop
  endfacet
  facet normal 0 0 -1
    outer loop
      vertex -44.5 -0.716117 1.66617
      vertex 44.5 0.716117 1.66617
      vertex 44.5 -0.716117 1.66617
    endloop
  endfacet
  facet normal -0 0 -1
    outer loop
      vertex 44.5 0.716117 1.66617
      vertex -44.5 -0.716117 1.66617
      vertex -44.5 0.716117 1.66617
    endloop
  endfacet
  facet normal 0 -0.893492 0.449078
    outer loop
      vertex -44.5 1.38775 -1.22955
      vertex 44.5 1.80469 -0.4
      vertex -44.5 1.80469 -0.4
    endloop
  endfacet
  facet normal 0 -0.893492 0.449078
    outer loop
      vertex 44.5 1.80469 -0.4
      vertex -44.5 1.38775 -1.22955
      vertex 44.5 1.38775 -1.22955
    endloop
  endfacet
  facet normal 0 -0.883537 -0.468361
    outer loop
      vertex -44.5 1.83739 0.4
      vertex 44.5 1.39347 1.23743
      vertex -44.5 1.39347 1.23743
    endloop
  endfacet
  facet normal 0 -0.883537 -0.468361
    outer loop
      vertex 44.5 1.39347 1.23743
      vertex -44.5 1.83739 0.4
      vertex 44.5 1.83739 0.4
    endloop
  endfacet
  facet normal -0 0 1
    outer loop
      vertex -44.5 0.713848 -1.66305
      vertex 44.5 -0.713848 -1.66305
      vertex 44.5 0.713848 -1.66305
    endloop
  endfacet
  facet normal 0 0 1
    outer loop
      vertex 44.5 -0.713848 -1.66305
      vertex -44.5 0.713848 -1.66305
      vertex -44.5 -0.713848 -1.66305
    endloop
  endfacet
  facet normal 0 0.883537 -0.468361
    outer loop
      vertex 44.5 -1.83739 0.4
      vertex -44.5 -1.39347 1.23743
      vertex 44.5 -1.39347 1.23743
    endloop
  endfacet
  facet normal 0 0.883537 -0.468361
    outer loop
      vertex -44.5 -1.39347 1.23743
      vertex 44.5 -1.83739 0.4
      vertex -44.5 -1.83739 0.4
    endloop
  endfacet
  facet normal 0 0.893492 0.449078
    outer loop
      vertex 44.5 -1.38775 -1.22955
      vertex -44.5 -1.80469 -0.4
      vertex 44.5 -1.80469 -0.4
    endloop
  endfacet
  facet normal 0 0.893492 0.449078
    outer loop
      vertex -44.5 -1.80469 -0.4
      vertex 44.5 -1.38775 -1.22955
      vertex -44.5 -1.38775 -1.22955
    endloop
  endfacet
  facet normal -0.699239 -0.420194 -0.578361
    outer loop
      vertex -14.5 -2.95796 -3.61808
      vertex -14.5 -3.54478 -3.19174
      vertex -14.7957 -2.46589 -3.61808
    endloop
  endfacet
  facet normal -0.699207 -0.420216 -0.578384
    outer loop
      vertex -14.7957 -2.46589 -3.61808
      vertex -14.995 -2.78148 -3.14786
      vertex -14.995 -2.13427 -3.61808
    endloop
  endfacet
  facet normal -0.699223 -0.420197 -0.578378
    outer loop
      vertex -14.5 -3.54478 -3.19174
      vertex -14.995 -2.78148 -3.14786
      vertex -14.7957 -2.46589 -3.61808
    endloop
  endfacet
  facet normal -0.699241 -0.42021 -0.578347
    outer loop
      vertex -14.995 -2.78148 -3.14786
      vertex -14.5 -3.54478 -3.19174
      vertex -14.995 -3.17694 -2.86053
    endloop
  endfacet
  facet normal 0.699204 -0.420217 -0.578386
    outer loop
      vertex -14.005 -2.78148 -3.14786
      vertex -14.2555 -2.55108 -3.61808
      vertex -14.005 -2.13427 -3.61808
    endloop
  endfacet
  facet normal 0.699188 -0.420241 -0.578389
    outer loop
      vertex -14.2555 -2.55108 -3.61808
      vertex -14.005 -2.78148 -3.14786
      vertex -14.005 -3.17694 -2.86053
    endloop
  endfacet
  facet normal 0.699244 -0.420186 -0.578362
    outer loop
      vertex -14.005 -3.17694 -2.86053
      vertex -14.5 -2.95796 -3.61808
      vertex -14.2555 -2.55108 -3.61808
    endloop
  endfacet
  facet normal 0.699239 -0.420194 -0.578361
    outer loop
      vertex -14.5 -2.95796 -3.61808
      vertex -14.005 -3.17694 -2.86053
      vertex -14.5 -3.54478 -3.19174
    endloop
  endfacet
  facet normal 0.699204 0.420222 0.578383
    outer loop
      vertex -14.005 -3.17694 -2.86053
      vertex -14.005 -2.78148 -3.14785
      vertex -14.2376 -3.00411 -2.70491
    endloop
  endfacet
  facet normal 1 0 0
    outer loop
      vertex -14.005 -2.78148 -3.14785
      vertex -14.005 -3.17694 -2.86053
      vertex -14.005 -2.78148 -3.14786
    endloop
  endfacet
  facet normal -0.691184 -0.722679 0
    outer loop
      vertex -14.995 -2.78148 -3.14786
      vertex -14.9023 -2.87014 -2.97145
      vertex -14.995 -2.78148 -3.14785
    endloop
  endfacet
  facet normal -0.698969 0.420367 0.578562
    outer loop
      vertex -14.9023 -2.87014 -2.97145
      vertex -14.995 -2.78148 -3.14786
      vertex -14.995 -3.17694 -2.86053
    endloop
  endfacet
  facet normal -0.699221 0.42034 0.578277
    outer loop
      vertex -14.7624 -3.00411 -2.70491
      vertex -14.9023 -2.87014 -2.97145
      vertex -14.995 -3.17694 -2.86053
    endloop
  endfacet
  facet normal -0.699239 -0.619111 -0.357445
    outer loop
      vertex -14.5 -3.54478 -3.19174
      vertex -14.5 -4.53652 -1.474
      vertex -14.995 -3.17694 -2.86053
    endloop
  endfacet
  facet normal -0.699233 -0.619115 -0.35745
    outer loop
      vertex -14.995 -3.17694 -2.86053
      vertex -14.5 -4.53652 -1.474
      vertex -14.995 -4.06577 -1.32105
    endloop
  endfacet
  facet normal 0.699239 -0.619109 -0.357447
    outer loop
      vertex -14.005 -3.17694 -2.86053
      vertex -14.005 -4.06577 -1.32105
      vertex -14.5 -3.54478 -3.19174
    endloop
  endfacet
  facet normal 0.699233 -0.619116 -0.357448
    outer loop
      vertex -14.5 -3.54478 -3.19174
      vertex -14.005 -4.06577 -1.32105
      vertex -14.5 -4.53652 -1.474
    endloop
  endfacet
  facet normal 0.699201 0.61915 0.357451
    outer loop
      vertex -14.005 -3.17694 -2.86053
      vertex -14.2376 -3.00411 -2.70491
      vertex -14.2923 -3.41959 -1.87825
    endloop
  endfacet
  facet normal 0.699284 0.61909 0.357393
    outer loop
      vertex -14.005 -4.06577 -1.32105
      vertex -14.2923 -3.41959 -1.87825
      vertex -14.3359 -3.75104 -1.21879
    endloop
  endfacet
  facet normal 0.69923 0.619117 0.357452
    outer loop
      vertex -14.2923 -3.41959 -1.87825
      vertex -14.005 -4.06577 -1.32105
      vertex -14.005 -3.17694 -2.86053
    endloop
  endfacet
  facet normal -0.699202 0.619144 0.357459
    outer loop
      vertex -14.995 -3.17694 -2.86053
      vertex -14.7159 -3.35725 -2.00229
      vertex -14.7624 -3.00411 -2.70491
    endloop
  endfacet
  facet normal -0.699214 0.61913 0.357459
    outer loop
      vertex -14.7159 -3.35725 -2.00229
      vertex -14.995 -3.17694 -2.86053
      vertex -14.995 -4.06577 -1.32105
    endloop
  endfacet
  facet normal -0.699284 0.619091 0.35739
    outer loop
      vertex -14.6641 -3.75104 -1.21879
      vertex -14.7159 -3.35725 -2.00229
      vertex -14.995 -4.06577 -1.32105
    endloop
  endfacet
  facet normal -0.699235 -0.710976 -0.0747236
    outer loop
      vertex -14.5 -4.53652 -1.474
      vertex -14.5 -4.74384 0.498598
      vertex -14.995 -4.06577 -1.32105
    endloop
  endfacet
  facet normal -0.699232 -0.710978 -0.074725
    outer loop
      vertex -14.995 -4.06577 -1.32105
      vertex -14.5 -4.74384 0.498598
      vertex -14.995 -4.25158 0.446858
    endloop
  endfacet
  facet normal 0.699235 -0.710976 -0.0747247
    outer loop
      vertex -14.005 -4.06577 -1.32105
      vertex -14.005 -4.25158 0.446858
      vertex -14.5 -4.53652 -1.474
    endloop
  endfacet
  facet normal 0.699232 -0.710978 -0.0747238
    outer loop
      vertex -14.5 -4.53652 -1.474
      vertex -14.005 -4.25158 0.446858
      vertex -14.5 -4.74384 0.498598
    endloop
  endfacet
  facet normal 0.69928 0.710934 0.0747048
    outer loop
      vertex -14.16 -3.96979 -0.783563
      vertex -14.005 -4.06577 -1.32105
      vertex -14.3359 -3.75104 -1.21879
    endloop
  endfacet
  facet normal 1 0 0
    outer loop
      vertex -14.005 -4.25158 0.446858
      vertex -14.005 -4.16257 -0.4
      vertex -14.005 -4.24665 0.4
    endloop
  endfacet
  facet normal 0.699301 0.710912 0.074715
    outer loop
      vertex -14.005 -4.16257 -0.4
      vertex -14.005 -4.06577 -1.32105
      vertex -14.16 -3.96979 -0.783563
    endloop
  endfacet
  facet normal 1 0 0
    outer loop
      vertex -14.005 -4.06577 -1.32105
      vertex -14.005 -4.16257 -0.4
      vertex -14.005 -4.25158 0.446858
    endloop
  endfacet
  facet normal 0.698555 0.711628 0.0748715
    outer loop
      vertex -14.005 -4.25158 0.446858
      vertex -14.005 -4.24665 0.4
      vertex -14.0334 -4.22339 0.443895
    endloop
  endfacet
  facet normal -0.696933 0.7132 0.0750368
    outer loop
      vertex -14.9852 -4.23866 0.415079
      vertex -14.995 -4.24665 0.4
      vertex -14.995 -4.25158 0.446858
    endloop
  endfacet
  facet normal -1 0 0
    outer loop
      vertex -14.995 -4.16257 -0.4
      vertex -14.995 -4.25158 0.446858
      vertex -14.995 -4.24665 0.4
    endloop
  endfacet
  facet normal -1 -0 -0
    outer loop
      vertex -14.995 -4.16257 -0.4
      vertex -14.995 -4.06577 -1.32105
      vertex -14.995 -4.25158 0.446858
    endloop
  endfacet
  facet normal -0.699281 0.710932 0.0747171
    outer loop
      vertex -14.995 -4.06577 -1.32105
      vertex -14.995 -4.16257 -0.4
      vertex -14.6641 -3.75104 -1.21879
    endloop
  endfacet
  facet normal -0.698661 0.71163 0.0738656
    outer loop
      vertex -14.9666 -4.22339 0.443895
      vertex -14.9852 -4.23866 0.415079
      vertex -14.995 -4.25158 0.446858
    endloop
  endfacet
  facet normal -0.699233 -0.679905 0.220912
    outer loop
      vertex -14.5 -4.74384 0.498598
      vertex -14.5 -4.13092 2.38499
      vertex -14.995 -4.25158 0.446858
    endloop
  endfacet
  facet normal -0.699235 -0.679903 0.220913
    outer loop
      vertex -14.5 -4.13092 2.38499
      vertex -14.995 -3.70226 2.1375
      vertex -14.995 -4.25158 0.446858
    endloop
  endfacet
  facet normal 0.699233 -0.679905 0.220913
    outer loop
      vertex -14.005 -4.25158 0.446858
      vertex -14.005 -3.70226 2.1375
      vertex -14.5 -4.74384 0.498598
    endloop
  endfacet
  facet normal 0.699234 -0.679904 0.220912
    outer loop
      vertex -14.005 -3.70226 2.1375
      vertex -14.5 -4.13092 2.38499
      vertex -14.5 -4.74384 0.498598
    endloop
  endfacet
  facet normal 0.698525 0.680451 -0.22147
    outer loop
      vertex -14.005 -4.25158 0.446858
      vertex -14.0334 -4.22339 0.443895
      vertex -14.0742 -4.11489 0.648569
    endloop
  endfacet
  facet normal 0.699257 0.679879 -0.220915
    outer loop
      vertex -14.005 -3.70226 2.1375
      vertex -14.0742 -4.11489 0.648569
      vertex -14.338 -3.41387 1.971
    endloop
  endfacet
  facet normal 0.699149 0.679983 -0.220939
    outer loop
      vertex -14.0742 -4.11489 0.648569
      vertex -14.005 -3.70226 2.1375
      vertex -14.005 -4.25158 0.446858
    endloop
  endfacet
  facet normal -0.698538 0.680475 -0.221357
    outer loop
      vertex -14.995 -4.25158 0.446858
      vertex -14.7798 -3.72706 1.38018
      vertex -14.9666 -4.22339 0.443895
    endloop
  endfacet
  facet normal -0.699151 0.679981 -0.220938
    outer loop
      vertex -14.7798 -3.72706 1.38018
      vertex -14.995 -4.25158 0.446858
      vertex -14.995 -3.70226 2.1375
    endloop
  endfacet
  facet normal -0.699263 0.679857 -0.220966
    outer loop
      vertex -14.662 -3.41387 1.971
      vertex -14.7798 -3.72706 1.38018
      vertex -14.995 -3.70226 2.1375
    endloop
  endfacet
  facet normal -0.699306 -0.531188 0.478342
    outer loop
      vertex -14.995 -3.70226 2.1375
      vertex -14.5 -3.01452 3.62488
      vertex -14.5673 -2.92592 3.62488
    endloop
  endfacet
  facet normal -0.699236 -0.531268 0.478355
    outer loop
      vertex -14.5 -3.01452 3.62488
      vertex -14.995 -3.70226 2.1375
      vertex -14.5 -4.13092 2.38499
    endloop
  endfacet
  facet normal -0.69925 -0.53126 0.478344
    outer loop
      vertex -14.995 -2.78641 3.15465
      vertex -14.7894 -2.63363 3.62488
      vertex -14.995 -2.51278 3.45855
    endloop
  endfacet
  facet normal -0.699215 -0.531306 0.478344
    outer loop
      vertex -14.995 -2.78641 3.15465
      vertex -14.5673 -2.92592 3.62488
      vertex -14.7894 -2.63363 3.62488
    endloop
  endfacet
  facet normal -0.699226 -0.531274 0.478363
    outer loop
      vertex -14.5673 -2.92592 3.62488
      vertex -14.995 -2.78641 3.15465
      vertex -14.995 -3.70226 2.1375
    endloop
  endfacet
  facet normal 0.699243 -0.531265 0.478348
    outer loop
      vertex -14.5 -4.13092 2.38499
      vertex -14.005 -2.78641 3.15465
      vertex -14.005 -2.51278 3.45855
    endloop
  endfacet
  facet normal 0.699235 -0.531267 0.478357
    outer loop
      vertex -14.005 -2.78641 3.15465
      vertex -14.5 -4.13092 2.38499
      vertex -14.005 -3.70226 2.1375
    endloop
  endfacet
  facet normal 0.699246 -0.531287 0.47832
    outer loop
      vertex -14.5 -3.01452 3.62488
      vertex -14.005 -2.51278 3.45855
      vertex -14.2106 -2.63363 3.62488
    endloop
  endfacet
  facet normal 0.699237 -0.531267 0.478354
    outer loop
      vertex -14.005 -2.51278 3.45855
      vertex -14.5 -3.01452 3.62488
      vertex -14.5 -4.13092 2.38499
    endloop
  endfacet
  facet normal 0.69926 0.531275 -0.478312
    outer loop
      vertex -14.1929 -3.14038 2.4869
      vertex -14.005 -3.70226 2.1375
      vertex -14.338 -3.41387 1.971
    endloop
  endfacet
  facet normal 0.699192 0.531299 -0.478385
    outer loop
      vertex -14.1929 -3.14038 2.4869
      vertex -14.005 -2.78641 3.15465
      vertex -14.005 -3.70226 2.1375
    endloop
  endfacet
  facet normal -0.699255 0.531252 -0.478344
    outer loop
      vertex -14.995 -3.70226 2.1375
      vertex -14.995 -2.78641 3.15465
      vertex -14.662 -3.41387 1.971
    endloop
  endfacet
  facet normal -0.699248 -0.290771 0.653073
    outer loop
      vertex -14.7894 -2.63363 3.62488
      vertex -14.9268 -2.30321 3.62488
      vertex -14.995 -2.51278 3.45855
    endloop
  endfacet
  facet normal -0.699251 -0.290768 0.653071
    outer loop
      vertex -14.9268 -2.30321 3.62488
      vertex -14.995 -2.1392 3.62488
      vertex -14.995 -2.51278 3.45855
    endloop
  endfacet
  facet normal 0.699248 -0.29077 0.653074
    outer loop
      vertex -14.005 -2.51278 3.45855
      vertex -14.005 -2.1392 3.62488
      vertex -14.2106 -2.63363 3.62488
    endloop
  endfacet
  facet normal -0.699248 0.29077 0.653074
    outer loop
      vertex -14.7894 2.63363 3.62488
      vertex -14.995 2.51278 3.45855
      vertex -14.995 2.1392 3.62488
    endloop
  endfacet
  facet normal 0.699251 0.290768 0.653071
    outer loop
      vertex -14.005 2.1392 3.62488
      vertex -14.005 2.51278 3.45855
      vertex -14.0732 2.30321 3.62488
    endloop
  endfacet
  facet normal 0.699248 0.290771 0.653073
    outer loop
      vertex -14.0732 2.30321 3.62488
      vertex -14.005 2.51278 3.45855
      vertex -14.2106 2.63363 3.62488
    endloop
  endfacet
  facet normal -0.699237 0.531267 0.478354
    outer loop
      vertex -14.995 2.51278 3.45855
      vertex -14.5 3.01452 3.62488
      vertex -14.5 4.13092 2.38499
    endloop
  endfacet
  facet normal -0.699246 0.531287 0.47832
    outer loop
      vertex -14.5 3.01452 3.62488
      vertex -14.995 2.51278 3.45855
      vertex -14.7894 2.63363 3.62488
    endloop
  endfacet
  facet normal -0.699235 0.531267 0.478357
    outer loop
      vertex -14.995 2.78641 3.15465
      vertex -14.5 4.13092 2.38499
      vertex -14.995 3.70226 2.1375
    endloop
  endfacet
  facet normal -0.699243 0.531265 0.478348
    outer loop
      vertex -14.5 4.13092 2.38499
      vertex -14.995 2.78641 3.15465
      vertex -14.995 2.51278 3.45855
    endloop
  endfacet
  facet normal 0.699226 0.531274 0.478363
    outer loop
      vertex -14.4327 2.92592 3.62488
      vertex -14.005 2.78641 3.15465
      vertex -14.005 3.70226 2.1375
    endloop
  endfacet
  facet normal 0.699215 0.531306 0.478344
    outer loop
      vertex -14.2106 2.63363 3.62488
      vertex -14.005 2.78641 3.15465
      vertex -14.4327 2.92592 3.62488
    endloop
  endfacet
  facet normal 0.69925 0.53126 0.478344
    outer loop
      vertex -14.005 2.78641 3.15465
      vertex -14.2106 2.63363 3.62488
      vertex -14.005 2.51278 3.45855
    endloop
  endfacet
  facet normal 0.699236 0.531268 0.478355
    outer loop
      vertex -14.5 3.01452 3.62488
      vertex -14.005 3.70226 2.1375
      vertex -14.5 4.13092 2.38499
    endloop
  endfacet
  facet normal 0.699306 0.531188 0.478342
    outer loop
      vertex -14.005 3.70226 2.1375
      vertex -14.5 3.01452 3.62488
      vertex -14.4327 2.92592 3.62488
    endloop
  endfacet
  facet normal 0.699255 -0.531252 -0.478344
    outer loop
      vertex -14.005 3.70226 2.1375
      vertex -14.005 2.78641 3.15465
      vertex -14.338 3.41387 1.971
    endloop
  endfacet
  facet normal -0.699192 -0.531299 -0.478385
    outer loop
      vertex -14.8071 3.14038 2.4869
      vertex -14.995 2.78641 3.15465
      vertex -14.995 3.70226 2.1375
    endloop
  endfacet
  facet normal -0.69926 -0.531275 -0.478312
    outer loop
      vertex -14.662 3.41387 1.971
      vertex -14.8071 3.14038 2.4869
      vertex -14.995 3.70226 2.1375
    endloop
  endfacet
  facet normal -0.699234 0.679904 0.220912
    outer loop
      vertex -14.5 4.13092 2.38499
      vertex -14.5 4.74384 0.498598
      vertex -14.995 3.70226 2.1375
    endloop
  endfacet
  facet normal -0.699233 0.679905 0.220913
    outer loop
      vertex -14.5 4.74384 0.498598
      vertex -14.995 4.25158 0.446858
      vertex -14.995 3.70226 2.1375
    endloop
  endfacet
  facet normal 0.699235 0.679903 0.220913
    outer loop
      vertex -14.005 3.70226 2.1375
      vertex -14.005 4.25158 0.446858
      vertex -14.5 4.13092 2.38499
    endloop
  endfacet
  facet normal 0.699233 0.679905 0.220912
    outer loop
      vertex -14.005 4.25158 0.446858
      vertex -14.5 4.74384 0.498598
      vertex -14.5 4.13092 2.38499
    endloop
  endfacet
  facet normal 0.699263 -0.679857 -0.220966
    outer loop
      vertex -14.2202 3.72706 1.38018
      vertex -14.005 3.70226 2.1375
      vertex -14.338 3.41387 1.971
    endloop
  endfacet
  facet normal 0.698538 -0.680475 -0.221357
    outer loop
      vertex -14.005 4.25158 0.446858
      vertex -14.2202 3.72706 1.38018
      vertex -14.0334 4.22339 0.443895
    endloop
  endfacet
  facet normal 0.699151 -0.679981 -0.220938
    outer loop
      vertex -14.2202 3.72706 1.38018
      vertex -14.005 4.25158 0.446858
      vertex -14.005 3.70226 2.1375
    endloop
  endfacet
  facet normal -0.699149 -0.679983 -0.220939
    outer loop
      vertex -14.9258 4.11489 0.648569
      vertex -14.995 3.70226 2.1375
      vertex -14.995 4.25158 0.446858
    endloop
  endfacet
  facet normal -0.699257 -0.679879 -0.220915
    outer loop
      vertex -14.995 3.70226 2.1375
      vertex -14.9258 4.11489 0.648569
      vertex -14.662 3.41387 1.971
    endloop
  endfacet
  facet normal -0.698525 -0.680451 -0.22147
    outer loop
      vertex -14.9666 4.22339 0.443895
      vertex -14.9258 4.11489 0.648569
      vertex -14.995 4.25158 0.446858
    endloop
  endfacet
  facet normal -0.699232 0.710978 -0.0747238
    outer loop
      vertex -14.5 4.74384 0.498598
      vertex -14.5 4.53652 -1.474
      vertex -14.995 4.25158 0.446858
    endloop
  endfacet
  facet normal -0.699235 0.710976 -0.0747247
    outer loop
      vertex -14.995 4.25158 0.446858
      vertex -14.5 4.53652 -1.474
      vertex -14.995 4.06577 -1.32105
    endloop
  endfacet
  facet normal 0.699232 0.710978 -0.074725
    outer loop
      vertex -14.005 4.25158 0.446858
      vertex -14.005 4.06577 -1.32105
      vertex -14.5 4.74384 0.498598
    endloop
  endfacet
  facet normal 0.699235 0.710976 -0.0747236
    outer loop
      vertex -14.5 4.74384 0.498598
      vertex -14.005 4.06577 -1.32105
      vertex -14.5 4.53652 -1.474
    endloop
  endfacet
  facet normal 0.698661 -0.71163 0.0738656
    outer loop
      vertex -14.0148 4.23866 0.415079
      vertex -14.005 4.25158 0.446858
      vertex -14.0334 4.22339 0.443895
    endloop
  endfacet
  facet normal 0.696933 -0.7132 0.0750368
    outer loop
      vertex -14.0148 4.23866 0.415079
      vertex -14.005 4.24665 0.4
      vertex -14.005 4.25158 0.446858
    endloop
  endfacet
  facet normal 1 0 0
    outer loop
      vertex -14.005 4.16257 -0.4
      vertex -14.005 4.25158 0.446858
      vertex -14.005 4.24665 0.4
    endloop
  endfacet
  facet normal 1 -0 0
    outer loop
      vertex -14.005 4.16257 -0.4
      vertex -14.005 4.06577 -1.32105
      vertex -14.005 4.25158 0.446858
    endloop
  endfacet
  facet normal 0.699281 -0.710932 0.0747171
    outer loop
      vertex -14.005 4.06577 -1.32105
      vertex -14.005 4.16257 -0.4
      vertex -14.3359 3.75104 -1.21879
    endloop
  endfacet
  facet normal -1 0 0
    outer loop
      vertex -14.995 4.25158 0.446858
      vertex -14.995 4.16257 -0.4
      vertex -14.995 4.24665 0.4
    endloop
  endfacet
  facet normal -0.699301 -0.710912 0.074715
    outer loop
      vertex -14.995 4.16257 -0.4
      vertex -14.995 4.06577 -1.32105
      vertex -14.84 3.96979 -0.783563
    endloop
  endfacet
  facet normal -1 0 0
    outer loop
      vertex -14.995 4.06577 -1.32105
      vertex -14.995 4.16257 -0.4
      vertex -14.995 4.25158 0.446858
    endloop
  endfacet
  facet normal -0.698555 -0.711628 0.0748715
    outer loop
      vertex -14.995 4.25158 0.446858
      vertex -14.995 4.24665 0.4
      vertex -14.9666 4.22339 0.443895
    endloop
  endfacet
  facet normal -0.69928 -0.710934 0.0747048
    outer loop
      vertex -14.6641 3.75104 -1.21879
      vertex -14.84 3.96979 -0.783563
      vertex -14.995 4.06577 -1.32105
    endloop
  endfacet
  facet normal -0.699233 0.619116 -0.357448
    outer loop
      vertex -14.5 4.53652 -1.474
      vertex -14.5 3.54478 -3.19174
      vertex -14.995 4.06577 -1.32105
    endloop
  endfacet
  facet normal -0.699239 0.619109 -0.357447
    outer loop
      vertex -14.995 4.06577 -1.32105
      vertex -14.5 3.54478 -3.19174
      vertex -14.995 3.17694 -2.86053
    endloop
  endfacet
  facet normal 0.699233 0.619115 -0.35745
    outer loop
      vertex -14.005 4.06577 -1.32105
      vertex -14.005 3.17694 -2.86053
      vertex -14.5 4.53652 -1.474
    endloop
  endfacet
  facet normal 0.699239 0.619111 -0.357445
    outer loop
      vertex -14.5 4.53652 -1.474
      vertex -14.005 3.17694 -2.86053
      vertex -14.5 3.54478 -3.19174
    endloop
  endfacet
  facet normal 0.699284 -0.619091 0.35739
    outer loop
      vertex -14.2841 3.35725 -2.00229
      vertex -14.005 4.06577 -1.32105
      vertex -14.3359 3.75104 -1.21879
    endloop
  endfacet
  facet normal 0.699214 -0.61913 0.357459
    outer loop
      vertex -14.2841 3.35725 -2.00229
      vertex -14.005 3.17694 -2.86053
      vertex -14.005 4.06577 -1.32105
    endloop
  endfacet
  facet normal 0.699202 -0.619144 0.357459
    outer loop
      vertex -14.005 3.17694 -2.86053
      vertex -14.2841 3.35725 -2.00229
      vertex -14.2376 3.00411 -2.70491
    endloop
  endfacet
  facet normal -0.699284 -0.61909 0.357393
    outer loop
      vertex -14.995 4.06577 -1.32105
      vertex -14.7077 3.41959 -1.87825
      vertex -14.6641 3.75104 -1.21879
    endloop
  endfacet
  facet normal -0.69923 -0.619117 0.357452
    outer loop
      vertex -14.7077 3.41959 -1.87825
      vertex -14.995 4.06577 -1.32105
      vertex -14.995 3.17694 -2.86053
    endloop
  endfacet
  facet normal -0.699201 -0.61915 0.357451
    outer loop
      vertex -14.7624 3.00411 -2.70491
      vertex -14.7077 3.41959 -1.87825
      vertex -14.995 3.17694 -2.86053
    endloop
  endfacet
  facet normal -0.699239 0.420194 -0.578361
    outer loop
      vertex -14.5 2.95796 -3.61808
      vertex -14.995 3.17694 -2.86053
      vertex -14.5 3.54478 -3.19174
    endloop
  endfacet
  facet normal -0.699244 0.420186 -0.578362
    outer loop
      vertex -14.995 3.17694 -2.86053
      vertex -14.5 2.95796 -3.61808
      vertex -14.7445 2.55108 -3.61808
    endloop
  endfacet
  facet normal -0.699188 0.420241 -0.578389
    outer loop
      vertex -14.7445 2.55108 -3.61808
      vertex -14.995 2.78148 -3.14786
      vertex -14.995 3.17694 -2.86053
    endloop
  endfacet
  facet normal -0.699204 0.420217 -0.578386
    outer loop
      vertex -14.995 2.78148 -3.14786
      vertex -14.7445 2.55108 -3.61808
      vertex -14.995 2.13427 -3.61808
    endloop
  endfacet
  facet normal 0.699241 0.42021 -0.578347
    outer loop
      vertex -14.005 2.78148 -3.14786
      vertex -14.5 3.54478 -3.19174
      vertex -14.005 3.17694 -2.86053
    endloop
  endfacet
  facet normal 0.699223 0.420197 -0.578378
    outer loop
      vertex -14.005 2.78148 -3.14786
      vertex -14.2043 2.46589 -3.61808
      vertex -14.5 3.54478 -3.19174
    endloop
  endfacet
  facet normal 0.699207 0.420216 -0.578384
    outer loop
      vertex -14.2043 2.46589 -3.61808
      vertex -14.005 2.78148 -3.14786
      vertex -14.005 2.13427 -3.61808
    endloop
  endfacet
  facet normal 0.699239 0.420194 -0.578361
    outer loop
      vertex -14.5 3.54478 -3.19174
      vertex -14.2043 2.46589 -3.61808
      vertex -14.5 2.95796 -3.61808
    endloop
  endfacet
  facet normal 0.699221 -0.42034 0.578277
    outer loop
      vertex -14.0977 2.87014 -2.97145
      vertex -14.005 3.17694 -2.86053
      vertex -14.2376 3.00411 -2.70491
    endloop
  endfacet
  facet normal 0.691184 0.722679 -0
    outer loop
      vertex -14.005 2.78148 -3.14786
      vertex -14.0977 2.87014 -2.97145
      vertex -14.005 2.78148 -3.14785
    endloop
  endfacet
  facet normal 0.698969 -0.420367 0.578562
    outer loop
      vertex -14.0977 2.87014 -2.97145
      vertex -14.005 2.78148 -3.14786
      vertex -14.005 3.17694 -2.86053
    endloop
  endfacet
  facet normal -1 0 0
    outer loop
      vertex -14.995 2.78148 -3.14785
      vertex -14.995 3.17694 -2.86053
      vertex -14.995 2.78148 -3.14786
    endloop
  endfacet
  facet normal -0.699204 -0.420222 0.578383
    outer loop
      vertex -14.995 3.17694 -2.86053
      vertex -14.995 2.78148 -3.14785
      vertex -14.7624 3.00411 -2.70491
    endloop
  endfacet
endsolid OpenSCAD_Model
