solid OpenSCAD_Model
  facet normal 0.951056 0.309017 -6.86156e-017
    outer loop
      vertex 3 1.108e-015 4.99
      vertex 2.42705 1.76336 5
      vertex 3 1.11022e-015 5
    endloop
  endfacet
  facet normal 0.951056 0.309017 0
    outer loop
      vertex 2.42705 1.76336 5
      vertex 3 1.108e-015 4.99
      vertex 2.42705 1.76336 0
    endloop
  endfacet
  facet normal 1 0 0
    outer loop
      vertex 3 0 0
      vertex 3 1.108e-015 4.99
      vertex 3 0 4.99
    endloop
  endfacet
  facet normal 0.951056 0.309017 -6.86156e-017
    outer loop
      vertex 3 1.108e-015 4.99
      vertex 3 0 0
      vertex 2.42705 1.76336 0
    endloop
  endfacet
  facet normal -0.951056 0.309017 0
    outer loop
      vertex -3 0 0
      vertex -2.42705 1.76336 5
      vertex -2.42705 1.76336 0
    endloop
  endfacet
  facet normal -0.951056 0.309017 0
    outer loop
      vertex -2.42705 1.76336 5
      vertex -3 0 0
      vertex -3 0 5
    endloop
  endfacet
  facet normal 0 -1 0
    outer loop
      vertex -0.927051 -2.85317 5
      vertex 0 -2.85317 4.99
      vertex 0 -2.85317 5
    endloop
  endfacet
  facet normal 0 -1 0
    outer loop
      vertex -0.927051 -2.85317 0
      vertex 0 -2.85317 4.99
      vertex -0.927051 -2.85317 5
    endloop
  endfacet
  facet normal 0 -1 0
    outer loop
      vertex 0.927051 -2.85317 0
      vertex 0 -2.85317 4.99
      vertex -0.927051 -2.85317 0
    endloop
  endfacet
  facet normal 0 -1 0
    outer loop
      vertex 0 -2.85317 4.99
      vertex 0.927051 -2.85317 0
      vertex 0.927051 -2.85317 4.99
    endloop
  endfacet
  facet normal 0 1 -0
    outer loop
      vertex 0.927051 2.85317 0
      vertex -0.927051 2.85317 5
      vertex 0.927051 2.85317 5
    endloop
  endfacet
  facet normal 0 1 0
    outer loop
      vertex -0.927051 2.85317 5
      vertex 0.927051 2.85317 0
      vertex -0.927051 2.85317 0
    endloop
  endfacet
  facet normal 0.587785 0.809017 -0
    outer loop
      vertex 2.42705 1.76336 0
      vertex 0.927051 2.85317 5
      vertex 2.42705 1.76336 5
    endloop
  endfacet
  facet normal 0.587785 0.809017 0
    outer loop
      vertex 0.927051 2.85317 5
      vertex 2.42705 1.76336 0
      vertex 0.927051 2.85317 0
    endloop
  endfacet
  facet normal 0 0 1
    outer loop
      vertex 0 1.11022e-015 5
      vertex 2.42705 1.76336 5
      vertex 0.927051 2.85317 5
    endloop
  endfacet
  facet normal 0 0 1
    outer loop
      vertex 2.42705 1.76336 5
      vertex 0 1.11022e-015 5
      vertex 3 1.11022e-015 5
    endloop
  endfacet
  facet normal -0 0 1
    outer loop
      vertex -0.927051 2.85317 5
      vertex 0 1.11022e-015 5
      vertex 0.927051 2.85317 5
    endloop
  endfacet
  facet normal -0 0 1
    outer loop
      vertex -2.42705 1.76336 5
      vertex 0 1.11022e-015 5
      vertex -0.927051 2.85317 5
    endloop
  endfacet
  facet normal 0 0 1
    outer loop
      vertex -3 0 5
      vertex 0 1.11022e-015 5
      vertex -2.42705 1.76336 5
    endloop
  endfacet
  facet normal 0 -0 1
    outer loop
      vertex -2.42705 -1.76336 5
      vertex 0 1.11022e-015 5
      vertex -3 0 5
    endloop
  endfacet
  facet normal 0 0 1
    outer loop
      vertex 0 1.11022e-015 5
      vertex -0.927051 -2.85317 5
      vertex 0 -2.85317 5
    endloop
  endfacet
  facet normal 0 -0 1
    outer loop
      vertex -0.927051 -2.85317 5
      vertex 0 1.11022e-015 5
      vertex -2.42705 -1.76336 5
    endloop
  endfacet
  facet normal -0.587785 0.809017 0
    outer loop
      vertex -0.927051 2.85317 0
      vertex -2.42705 1.76336 5
      vertex -0.927051 2.85317 5
    endloop
  endfacet
  facet normal -0.587785 0.809017 0
    outer loop
      vertex -2.42705 1.76336 5
      vertex -0.927051 2.85317 0
      vertex -2.42705 1.76336 0
    endloop
  endfacet
  facet normal 0.951056 -0.309017 0
    outer loop
      vertex 2.42705 -1.76336 4.99
      vertex 3 0 0
      vertex 3 0 4.99
    endloop
  endfacet
  facet normal 0.951056 -0.309017 0
    outer loop
      vertex 3 0 0
      vertex 2.42705 -1.76336 4.99
      vertex 2.42705 -1.76336 0
    endloop
  endfacet
  facet normal 0 0 -1
    outer loop
      vertex 2.42705 -1.76336 0
      vertex 2.42705 1.76336 0
      vertex 3 0 0
    endloop
  endfacet
  facet normal 0 0 -1
    outer loop
      vertex 0.927051 -2.85317 0
      vertex 2.42705 1.76336 0
      vertex 2.42705 -1.76336 0
    endloop
  endfacet
  facet normal 0 0 -1
    outer loop
      vertex 0.927051 -2.85317 0
      vertex 0.927051 2.85317 0
      vertex 2.42705 1.76336 0
    endloop
  endfacet
  facet normal 0 0 -1
    outer loop
      vertex -0.927051 -2.85317 0
      vertex 0.927051 2.85317 0
      vertex 0.927051 -2.85317 0
    endloop
  endfacet
  facet normal 0 0 -1
    outer loop
      vertex -0.927051 -2.85317 0
      vertex -0.927051 2.85317 0
      vertex 0.927051 2.85317 0
    endloop
  endfacet
  facet normal 0 0 -1
    outer loop
      vertex -2.42705 -1.76336 0
      vertex -0.927051 2.85317 0
      vertex -0.927051 -2.85317 0
    endloop
  endfacet
  facet normal 0 0 -1
    outer loop
      vertex -2.42705 -1.76336 0
      vertex -2.42705 1.76336 0
      vertex -0.927051 2.85317 0
    endloop
  endfacet
  facet normal 0 -0 -1
    outer loop
      vertex -2.42705 1.76336 0
      vertex -2.42705 -1.76336 0
      vertex -3 0 0
    endloop
  endfacet
  facet normal 0.587785 -0.809017 0
    outer loop
      vertex 0.927051 -2.85317 0
      vertex 2.42705 -1.76336 4.99
      vertex 0.927051 -2.85317 4.99
    endloop
  endfacet
  facet normal 0.587785 -0.809017 0
    outer loop
      vertex 2.42705 -1.76336 4.99
      vertex 0.927051 -2.85317 0
      vertex 2.42705 -1.76336 0
    endloop
  endfacet
  facet normal -0.587785 -0.809017 0
    outer loop
      vertex -2.42705 -1.76336 0
      vertex -0.927051 -2.85317 5
      vertex -2.42705 -1.76336 5
    endloop
  endfacet
  facet normal -0.587785 -0.809017 -0
    outer loop
      vertex -0.927051 -2.85317 5
      vertex -2.42705 -1.76336 0
      vertex -0.927051 -2.85317 0
    endloop
  endfacet
  facet normal -0.951056 -0.309017 0
    outer loop
      vertex -2.42705 -1.76336 0
      vertex -3 0 5
      vertex -3 0 0
    endloop
  endfacet
  facet normal -0.951056 -0.309017 0
    outer loop
      vertex -3 0 5
      vertex -2.42705 -1.76336 0
      vertex -2.42705 -1.76336 5
    endloop
  endfacet
  facet normal 0.951057 0.309017 0
    outer loop
      vertex 33 0 5
      vertex 32.4271 1.76336 0
      vertex 32.4271 1.76336 5
    endloop
  endfacet
  facet normal 0.951057 0.309017 0
    outer loop
      vertex 32.4271 1.76336 0
      vertex 33 0 5
      vertex 33 0 0
    endloop
  endfacet
  facet normal -0.951057 -0.309017 0
    outer loop
      vertex 27.5729 -1.76336 0
      vertex 27 0 4.99
      vertex 27 0 0
    endloop
  endfacet
  facet normal -0.951057 -0.309017 0
    outer loop
      vertex 27 0 4.99
      vertex 27.5729 -1.76336 0
      vertex 27.5729 -1.76336 4.99
    endloop
  endfacet
  facet normal 0 1 -0
    outer loop
      vertex 30.9271 2.85317 0
      vertex 29.0729 2.85317 5
      vertex 30.9271 2.85317 5
    endloop
  endfacet
  facet normal 0 1 0
    outer loop
      vertex 29.0729 2.85317 5
      vertex 30.9271 2.85317 0
      vertex 29.0729 2.85317 0
    endloop
  endfacet
  facet normal 0.587785 0.809017 -0
    outer loop
      vertex 32.4271 1.76336 0
      vertex 30.9271 2.85317 5
      vertex 32.4271 1.76336 5
    endloop
  endfacet
  facet normal 0.587785 0.809017 0
    outer loop
      vertex 30.9271 2.85317 5
      vertex 32.4271 1.76336 0
      vertex 30.9271 2.85317 0
    endloop
  endfacet
  facet normal -0.587785 0.809017 0
    outer loop
      vertex 29.0729 2.85317 0
      vertex 27.5729 1.76336 5
      vertex 29.0729 2.85317 5
    endloop
  endfacet
  facet normal -0.587785 0.809017 0
    outer loop
      vertex 27.5729 1.76336 5
      vertex 29.0729 2.85317 0
      vertex 27.5729 1.76336 0
    endloop
  endfacet
  facet normal 0.587785 -0.809017 0
    outer loop
      vertex 30.9271 -2.85317 0
      vertex 32.4271 -1.76336 5
      vertex 30.9271 -2.85317 5
    endloop
  endfacet
  facet normal 0.587785 -0.809017 0
    outer loop
      vertex 32.4271 -1.76336 5
      vertex 30.9271 -2.85317 0
      vertex 32.4271 -1.76336 0
    endloop
  endfacet
  facet normal -0.587785 -0.809017 0
    outer loop
      vertex 27.5729 -1.76336 0
      vertex 29.0729 -2.85317 4.99
      vertex 27.5729 -1.76336 4.99
    endloop
  endfacet
  facet normal -0.587785 -0.809017 -0
    outer loop
      vertex 29.0729 -2.85317 4.99
      vertex 27.5729 -1.76336 0
      vertex 29.0729 -2.85317 0
    endloop
  endfacet
  facet normal 0 0 -1
    outer loop
      vertex 32.4271 -1.76336 0
      vertex 32.4271 1.76336 0
      vertex 33 0 0
    endloop
  endfacet
  facet normal 0 0 -1
    outer loop
      vertex 30.9271 -2.85317 0
      vertex 32.4271 1.76336 0
      vertex 32.4271 -1.76336 0
    endloop
  endfacet
  facet normal 0 0 -1
    outer loop
      vertex 30.9271 -2.85317 0
      vertex 30.9271 2.85317 0
      vertex 32.4271 1.76336 0
    endloop
  endfacet
  facet normal 0 0 -1
    outer loop
      vertex 29.0729 -2.85317 0
      vertex 30.9271 2.85317 0
      vertex 30.9271 -2.85317 0
    endloop
  endfacet
  facet normal 0 0 -1
    outer loop
      vertex 29.0729 -2.85317 0
      vertex 29.0729 2.85317 0
      vertex 30.9271 2.85317 0
    endloop
  endfacet
  facet normal 0 0 -1
    outer loop
      vertex 27.5729 -1.76336 0
      vertex 29.0729 2.85317 0
      vertex 29.0729 -2.85317 0
    endloop
  endfacet
  facet normal 0 0 -1
    outer loop
      vertex 27.5729 -1.76336 0
      vertex 27.5729 1.76336 0
      vertex 29.0729 2.85317 0
    endloop
  endfacet
  facet normal 0 -0 -1
    outer loop
      vertex 27.5729 1.76336 0
      vertex 27.5729 -1.76336 0
      vertex 27 0 0
    endloop
  endfacet
  facet normal -0.951057 0.309017 0
    outer loop
      vertex 27 1.108e-015 4.99
      vertex 27.5729 1.76336 5
      vertex 27.5729 1.76336 0
    endloop
  endfacet
  facet normal -0.951057 0.309017 0
    outer loop
      vertex 27.5729 1.76336 5
      vertex 27 1.108e-015 4.99
      vertex 27 1.11022e-015 5
    endloop
  endfacet
  facet normal -0.951057 0.309017 -6.86155e-017
    outer loop
      vertex 27 0 0
      vertex 27 1.108e-015 4.99
      vertex 27.5729 1.76336 0
    endloop
  endfacet
  facet normal -1 -0 0
    outer loop
      vertex 27 1.108e-015 4.99
      vertex 27 0 0
      vertex 27 0 4.99
    endloop
  endfacet
  facet normal -0 0 1
    outer loop
      vertex 30 1.11022e-015 5
      vertex 33 0 5
      vertex 32.4271 1.76336 5
    endloop
  endfacet
  facet normal 0 0 1
    outer loop
      vertex 30 1.11022e-015 5
      vertex 32.4271 1.76336 5
      vertex 30.9271 2.85317 5
    endloop
  endfacet
  facet normal 0 0 1
    outer loop
      vertex 33 0 5
      vertex 30 1.11022e-015 5
      vertex 32.4271 -1.76336 5
    endloop
  endfacet
  facet normal 0 0 1
    outer loop
      vertex 32.4271 -1.76336 5
      vertex 30 1.11022e-015 5
      vertex 30.9271 -2.85317 5
    endloop
  endfacet
  facet normal -0 0 1
    outer loop
      vertex 29.0729 2.85317 5
      vertex 30 1.11022e-015 5
      vertex 30.9271 2.85317 5
    endloop
  endfacet
  facet normal -0 0 1
    outer loop
      vertex 27.5729 1.76336 5
      vertex 30 1.11022e-015 5
      vertex 29.0729 2.85317 5
    endloop
  endfacet
  facet normal 0 0 1
    outer loop
      vertex 30 1.11022e-015 5
      vertex 27.5729 1.76336 5
      vertex 27 1.11022e-015 5
    endloop
  endfacet
  facet normal 0 0 1
    outer loop
      vertex 30.9271 -2.85317 5
      vertex 30 1.11022e-015 5
      vertex 30 -2.85317 5
    endloop
  endfacet
  facet normal 0.951057 -0.309017 0
    outer loop
      vertex 32.4271 -1.76336 5
      vertex 33 0 0
      vertex 33 0 5
    endloop
  endfacet
  facet normal 0.951057 -0.309017 0
    outer loop
      vertex 33 0 0
      vertex 32.4271 -1.76336 5
      vertex 32.4271 -1.76336 0
    endloop
  endfacet
  facet normal 0 -1 0
    outer loop
      vertex 29.0729 -2.85317 4.99
      vertex 29.0729 -2.85317 0
      vertex 30 -2.85317 4.99
    endloop
  endfacet
  facet normal 0 -1 0
    outer loop
      vertex 30 -2.85317 4.99
      vertex 30.9271 -2.85317 5
      vertex 30 -2.85317 5
    endloop
  endfacet
  facet normal 0 -1 0
    outer loop
      vertex 30.9271 -2.85317 0
      vertex 30 -2.85317 4.99
      vertex 29.0729 -2.85317 0
    endloop
  endfacet
  facet normal 0 -1 0
    outer loop
      vertex 30 -2.85317 4.99
      vertex 30.9271 -2.85317 0
      vertex 30.9271 -2.85317 5
    endloop
  endfacet
  facet normal 0.951056 0.309017 0
    outer loop
      vertex 3 -30 4.99
      vertex 2.42705 -28.2366 0
      vertex 2.42705 -28.2366 4.99
    endloop
  endfacet
  facet normal 0.951056 0.309017 0
    outer loop
      vertex 2.42705 -28.2366 0
      vertex 3 -30 4.99
      vertex 3 -30 0
    endloop
  endfacet
  facet normal 0 0 0
    outer loop
      vertex 3 -30 0
      vertex 3 -30 4.99
      vertex 3 -30 5
    endloop
  endfacet
  facet normal -0.951056 0.309017 0
    outer loop
      vertex -3 -30 0
      vertex -2.42705 -28.2366 5
      vertex -2.42705 -28.2366 0
    endloop
  endfacet
  facet normal -0.951056 0.309017 0
    outer loop
      vertex -2.42705 -28.2366 5
      vertex -3 -30 0
      vertex -3 -30 5
    endloop
  endfacet
  facet normal 0 -1 0
    outer loop
      vertex -0.927051 -32.8532 0
      vertex 0.927051 -32.8532 5
      vertex -0.927051 -32.8532 5
    endloop
  endfacet
  facet normal 0 -1 -0
    outer loop
      vertex 0.927051 -32.8532 5
      vertex -0.927051 -32.8532 0
      vertex 0.927051 -32.8532 0
    endloop
  endfacet
  facet normal 0 1 0
    outer loop
      vertex 0.927051 -27.1468 4.99
      vertex 0.927051 -27.1468 0
      vertex 0 -27.1468 4.99
    endloop
  endfacet
  facet normal 0 1 -0
    outer loop
      vertex 0 -27.1468 4.99
      vertex -0.927051 -27.1468 5
      vertex 0 -27.1468 5
    endloop
  endfacet
  facet normal 0 1 0
    outer loop
      vertex -0.927051 -27.1468 0
      vertex 0 -27.1468 4.99
      vertex 0.927051 -27.1468 0
    endloop
  endfacet
  facet normal 0 1 0
    outer loop
      vertex 0 -27.1468 4.99
      vertex -0.927051 -27.1468 0
      vertex -0.927051 -27.1468 5
    endloop
  endfacet
  facet normal 0.587786 0.809017 -0
    outer loop
      vertex 2.42705 -28.2366 0
      vertex 0.927051 -27.1468 4.99
      vertex 2.42705 -28.2366 4.99
    endloop
  endfacet
  facet normal 0.587786 0.809017 0
    outer loop
      vertex 0.927051 -27.1468 4.99
      vertex 2.42705 -28.2366 0
      vertex 0.927051 -27.1468 0
    endloop
  endfacet
  facet normal 0 0 1
    outer loop
      vertex 0 -27.1468 5
      vertex -0.927051 -27.1468 5
      vertex 0 -30 5
    endloop
  endfacet
  facet normal -0 0 1
    outer loop
      vertex 0 -30 5
      vertex 2.42705 -31.7634 5
      vertex 3 -30 5
    endloop
  endfacet
  facet normal 0 0 1
    outer loop
      vertex 2.42705 -31.7634 5
      vertex 0 -30 5
      vertex 0.927051 -32.8532 5
    endloop
  endfacet
  facet normal 0 0 1
    outer loop
      vertex 0 -30 5
      vertex -0.927051 -32.8532 5
      vertex 0.927051 -32.8532 5
    endloop
  endfacet
  facet normal -0 0 1
    outer loop
      vertex -2.42705 -28.2366 5
      vertex 0 -30 5
      vertex -0.927051 -27.1468 5
    endloop
  endfacet
  facet normal 0 0 1
    outer loop
      vertex -3 -30 5
      vertex 0 -30 5
      vertex -2.42705 -28.2366 5
    endloop
  endfacet
  facet normal 0 0 1
    outer loop
      vertex 0 -30 5
      vertex -2.42705 -31.7634 5
      vertex -0.927051 -32.8532 5
    endloop
  endfacet
  facet normal 0 0 1
    outer loop
      vertex 0 -30 5
      vertex -3 -30 5
      vertex -2.42705 -31.7634 5
    endloop
  endfacet
  facet normal -0.587786 0.809017 0
    outer loop
      vertex -0.927051 -27.1468 0
      vertex -2.42705 -28.2366 5
      vertex -0.927051 -27.1468 5
    endloop
  endfacet
  facet normal -0.587786 0.809017 0
    outer loop
      vertex -2.42705 -28.2366 5
      vertex -0.927051 -27.1468 0
      vertex -2.42705 -28.2366 0
    endloop
  endfacet
  facet normal 0.951056 -0.309017 0
    outer loop
      vertex 2.42705 -31.7634 5
      vertex 3 -30 0
      vertex 3 -30 5
    endloop
  endfacet
  facet normal 0.951056 -0.309017 0
    outer loop
      vertex 3 -30 0
      vertex 2.42705 -31.7634 5
      vertex 2.42705 -31.7634 0
    endloop
  endfacet
  facet normal 0 0 -1
    outer loop
      vertex 2.42705 -31.7634 0
      vertex 2.42705 -28.2366 0
      vertex 3 -30 0
    endloop
  endfacet
  facet normal 0 0 -1
    outer loop
      vertex 0.927051 -32.8532 0
      vertex 2.42705 -28.2366 0
      vertex 2.42705 -31.7634 0
    endloop
  endfacet
  facet normal 0 0 -1
    outer loop
      vertex 0.927051 -32.8532 0
      vertex 0.927051 -27.1468 0
      vertex 2.42705 -28.2366 0
    endloop
  endfacet
  facet normal 0 0 -1
    outer loop
      vertex -0.927051 -32.8532 0
      vertex 0.927051 -27.1468 0
      vertex 0.927051 -32.8532 0
    endloop
  endfacet
  facet normal 0 0 -1
    outer loop
      vertex -0.927051 -32.8532 0
      vertex -0.927051 -27.1468 0
      vertex 0.927051 -27.1468 0
    endloop
  endfacet
  facet normal 0 0 -1
    outer loop
      vertex -2.42705 -31.7634 0
      vertex -0.927051 -27.1468 0
      vertex -0.927051 -32.8532 0
    endloop
  endfacet
  facet normal 0 0 -1
    outer loop
      vertex -2.42705 -31.7634 0
      vertex -2.42705 -28.2366 0
      vertex -0.927051 -27.1468 0
    endloop
  endfacet
  facet normal 0 -0 -1
    outer loop
      vertex -2.42705 -28.2366 0
      vertex -2.42705 -31.7634 0
      vertex -3 -30 0
    endloop
  endfacet
  facet normal 0.587785 -0.809017 0
    outer loop
      vertex 0.927051 -32.8532 0
      vertex 2.42705 -31.7634 5
      vertex 0.927051 -32.8532 5
    endloop
  endfacet
  facet normal 0.587785 -0.809017 0
    outer loop
      vertex 2.42705 -31.7634 5
      vertex 0.927051 -32.8532 0
      vertex 2.42705 -31.7634 0
    endloop
  endfacet
  facet normal -0.587785 -0.809017 0
    outer loop
      vertex -2.42705 -31.7634 0
      vertex -0.927051 -32.8532 5
      vertex -2.42705 -31.7634 5
    endloop
  endfacet
  facet normal -0.587785 -0.809017 -0
    outer loop
      vertex -0.927051 -32.8532 5
      vertex -2.42705 -31.7634 0
      vertex -0.927051 -32.8532 0
    endloop
  endfacet
  facet normal -0.951056 -0.309017 0
    outer loop
      vertex -2.42705 -31.7634 0
      vertex -3 -30 5
      vertex -3 -30 0
    endloop
  endfacet
  facet normal -0.951056 -0.309017 0
    outer loop
      vertex -3 -30 5
      vertex -2.42705 -31.7634 0
      vertex -2.42705 -31.7634 5
    endloop
  endfacet
  facet normal 0.951057 0.309017 0
    outer loop
      vertex 33 -30 5
      vertex 32.4271 -28.2366 0
      vertex 32.4271 -28.2366 5
    endloop
  endfacet
  facet normal 0.951057 0.309017 0
    outer loop
      vertex 32.4271 -28.2366 0
      vertex 33 -30 5
      vertex 33 -30 0
    endloop
  endfacet
  facet normal -0.951057 -0.309017 0
    outer loop
      vertex 27.5729 -31.7634 0
      vertex 27 -30 5
      vertex 27 -30 0
    endloop
  endfacet
  facet normal -0.951057 -0.309017 0
    outer loop
      vertex 27 -30 5
      vertex 27.5729 -31.7634 0
      vertex 27.5729 -31.7634 5
    endloop
  endfacet
  facet normal 0 1 0
    outer loop
      vertex 30.9271 -27.1468 5
      vertex 30 -27.1468 4.99
      vertex 30 -27.1468 5
    endloop
  endfacet
  facet normal 0 1 -0
    outer loop
      vertex 30.9271 -27.1468 0
      vertex 30 -27.1468 4.99
      vertex 30.9271 -27.1468 5
    endloop
  endfacet
  facet normal 0 1 0
    outer loop
      vertex 29.0729 -27.1468 0
      vertex 30 -27.1468 4.99
      vertex 30.9271 -27.1468 0
    endloop
  endfacet
  facet normal 0 1 0
    outer loop
      vertex 30 -27.1468 4.99
      vertex 29.0729 -27.1468 0
      vertex 29.0729 -27.1468 4.99
    endloop
  endfacet
  facet normal 0.587786 0.809017 -0
    outer loop
      vertex 32.4271 -28.2366 0
      vertex 30.9271 -27.1468 5
      vertex 32.4271 -28.2366 5
    endloop
  endfacet
  facet normal 0.587786 0.809017 0
    outer loop
      vertex 30.9271 -27.1468 5
      vertex 32.4271 -28.2366 0
      vertex 30.9271 -27.1468 0
    endloop
  endfacet
  facet normal -0.587786 0.809017 0
    outer loop
      vertex 29.0729 -27.1468 0
      vertex 27.5729 -28.2366 4.99
      vertex 29.0729 -27.1468 4.99
    endloop
  endfacet
  facet normal -0.587786 0.809017 0
    outer loop
      vertex 27.5729 -28.2366 4.99
      vertex 29.0729 -27.1468 0
      vertex 27.5729 -28.2366 0
    endloop
  endfacet
  facet normal 0.587785 -0.809017 0
    outer loop
      vertex 30.9271 -32.8532 0
      vertex 32.4271 -31.7634 5
      vertex 30.9271 -32.8532 5
    endloop
  endfacet
  facet normal 0.587785 -0.809017 0
    outer loop
      vertex 32.4271 -31.7634 5
      vertex 30.9271 -32.8532 0
      vertex 32.4271 -31.7634 0
    endloop
  endfacet
  facet normal -0.587785 -0.809017 0
    outer loop
      vertex 27.5729 -31.7634 0
      vertex 29.0729 -32.8532 5
      vertex 27.5729 -31.7634 5
    endloop
  endfacet
  facet normal -0.587785 -0.809017 -0
    outer loop
      vertex 29.0729 -32.8532 5
      vertex 27.5729 -31.7634 0
      vertex 29.0729 -32.8532 0
    endloop
  endfacet
  facet normal 0 0 -1
    outer loop
      vertex 32.4271 -31.7634 0
      vertex 32.4271 -28.2366 0
      vertex 33 -30 0
    endloop
  endfacet
  facet normal 0 0 -1
    outer loop
      vertex 30.9271 -32.8532 0
      vertex 32.4271 -28.2366 0
      vertex 32.4271 -31.7634 0
    endloop
  endfacet
  facet normal 0 0 -1
    outer loop
      vertex 30.9271 -32.8532 0
      vertex 30.9271 -27.1468 0
      vertex 32.4271 -28.2366 0
    endloop
  endfacet
  facet normal 0 0 -1
    outer loop
      vertex 29.0729 -32.8532 0
      vertex 30.9271 -27.1468 0
      vertex 30.9271 -32.8532 0
    endloop
  endfacet
  facet normal 0 0 -1
    outer loop
      vertex 29.0729 -32.8532 0
      vertex 29.0729 -27.1468 0
      vertex 30.9271 -27.1468 0
    endloop
  endfacet
  facet normal 0 0 -1
    outer loop
      vertex 27.5729 -31.7634 0
      vertex 29.0729 -27.1468 0
      vertex 29.0729 -32.8532 0
    endloop
  endfacet
  facet normal 0 0 -1
    outer loop
      vertex 27.5729 -31.7634 0
      vertex 27.5729 -28.2366 0
      vertex 29.0729 -27.1468 0
    endloop
  endfacet
  facet normal 0 -0 -1
    outer loop
      vertex 27.5729 -28.2366 0
      vertex 27.5729 -31.7634 0
      vertex 27 -30 0
    endloop
  endfacet
  facet normal -0.951057 0.309017 0
    outer loop
      vertex 27 -30 0
      vertex 27.5729 -28.2366 4.99
      vertex 27.5729 -28.2366 0
    endloop
  endfacet
  facet normal -0.951057 0.309017 0
    outer loop
      vertex 27.5729 -28.2366 4.99
      vertex 27 -30 0
      vertex 27 -30 4.99
    endloop
  endfacet
  facet normal 0 0 0
    outer loop
      vertex 27 -30 0
      vertex 27 -30 5
      vertex 27 -30 4.99
    endloop
  endfacet
  facet normal 0 0 1
    outer loop
      vertex 30 -30 5
      vertex 33 -30 5
      vertex 32.4271 -28.2366 5
    endloop
  endfacet
  facet normal 0 0 1
    outer loop
      vertex 30 -30 5
      vertex 32.4271 -28.2366 5
      vertex 30.9271 -27.1468 5
    endloop
  endfacet
  facet normal 0 0 1
    outer loop
      vertex 33 -30 5
      vertex 30 -30 5
      vertex 32.4271 -31.7634 5
    endloop
  endfacet
  facet normal 0 0 1
    outer loop
      vertex 30 -30 5
      vertex 30.9271 -27.1468 5
      vertex 30 -27.1468 5
    endloop
  endfacet
  facet normal 0 0 1
    outer loop
      vertex 32.4271 -31.7634 5
      vertex 30 -30 5
      vertex 30.9271 -32.8532 5
    endloop
  endfacet
  facet normal 0 0 1
    outer loop
      vertex 30 -30 5
      vertex 29.0729 -32.8532 5
      vertex 30.9271 -32.8532 5
    endloop
  endfacet
  facet normal 0 0 1
    outer loop
      vertex 30 -30 5
      vertex 27.5729 -31.7634 5
      vertex 29.0729 -32.8532 5
    endloop
  endfacet
  facet normal 0 -0 1
    outer loop
      vertex 27.5729 -31.7634 5
      vertex 30 -30 5
      vertex 27 -30 5
    endloop
  endfacet
  facet normal 0.951057 -0.309017 0
    outer loop
      vertex 32.4271 -31.7634 5
      vertex 33 -30 0
      vertex 33 -30 5
    endloop
  endfacet
  facet normal 0.951057 -0.309017 0
    outer loop
      vertex 33 -30 0
      vertex 32.4271 -31.7634 5
      vertex 32.4271 -31.7634 0
    endloop
  endfacet
  facet normal 0 -1 0
    outer loop
      vertex 29.0729 -32.8532 0
      vertex 30.9271 -32.8532 5
      vertex 29.0729 -32.8532 5
    endloop
  endfacet
  facet normal 0 -1 -0
    outer loop
      vertex 30.9271 -32.8532 5
      vertex 29.0729 -32.8532 0
      vertex 30.9271 -32.8532 0
    endloop
  endfacet
  facet normal 0.677286 0.677285 0.287348
    outer loop
      vertex 26.4602 -30 6.66134e-015
      vertex 17.4749 -23.1317 4.99
      vertex 24.3431 -30 4.99
    endloop
  endfacet
  facet normal 0.677285 0.677285 0.287348
    outer loop
      vertex 17.4749 -23.1317 4.99
      vertex 26.4602 -30 6.66134e-015
      vertex 18.5334 -22.0732 4.90123e-015
    endloop
  endfacet
  facet normal -0.677285 -0.677286 0.287348
    outer loop
      vertex 22.0732 -18.5334 4.11524e-015
      vertex 30 -24.3431 4.99
      vertex 23.1317 -17.4749 4.99
    endloop
  endfacet
  facet normal -0.677285 -0.677285 0.287348
    outer loop
      vertex 30 -24.3431 4.99
      vertex 22.0732 -18.5334 4.11524e-015
      vertex 30 -26.4602 5.87535e-015
    endloop
  endfacet
  facet normal 0.707107 -0.707107 0
    outer loop
      vertex 23.1317 -17.4749 4.99
      vertex 18.5334 -22.0732 4.90123e-015
      vertex 22.0732 -18.5334 4.11524e-015
    endloop
  endfacet
  facet normal 0.707107 -0.707107 0
    outer loop
      vertex 18.5334 -22.0732 4.90123e-015
      vertex 23.1317 -17.4749 4.99
      vertex 17.4749 -23.1317 4.99
    endloop
  endfacet
  facet normal 0 0 -1
    outer loop
      vertex 29.0729 -27.1468 4.99
      vertex 30 -24.3431 4.99
      vertex 30 -27.1468 4.99
    endloop
  endfacet
  facet normal 0 0 -1
    outer loop
      vertex 27.5729 -28.2366 4.99
      vertex 30 -24.3431 4.99
      vertex 29.0729 -27.1468 4.99
    endloop
  endfacet
  facet normal 0 0 -1
    outer loop
      vertex 24.3431 -30 4.99
      vertex 27.5729 -28.2366 4.99
      vertex 27 -30 4.99
    endloop
  endfacet
  facet normal 0 0 -1
    outer loop
      vertex 17.4749 -23.1317 4.99
      vertex 27.5729 -28.2366 4.99
      vertex 24.3431 -30 4.99
    endloop
  endfacet
  facet normal 0 0 -1
    outer loop
      vertex 27.5729 -28.2366 4.99
      vertex 23.1317 -17.4749 4.99
      vertex 30 -24.3431 4.99
    endloop
  endfacet
  facet normal 0 0 -1
    outer loop
      vertex 27.5729 -28.2366 4.99
      vertex 17.4749 -23.1317 4.99
      vertex 23.1317 -17.4749 4.99
    endloop
  endfacet
  facet normal 0.707107 0.707107 2.19164e-007
    outer loop
      vertex 23.1317 -12.5251 4.99
      vertex 22.0619 -11.4553 2.54358e-015
      vertex 17.4749 -6.86827 4.99
    endloop
  endfacet
  facet normal 0.707137 0.707077 -1.25098e-005
    outer loop
      vertex 22.0619 -11.4553 2.54358e-015
      vertex 23.1317 -12.5251 4.99
      vertex 22.0732 -11.4666 2.54609e-015
    endloop
  endfacet
  facet normal 0 0 -1
    outer loop
      vertex 30 -5.65685 4.99
      vertex 29.0729 -2.85317 4.99
      vertex 30 -2.85317 4.99
    endloop
  endfacet
  facet normal 0 0 -1
    outer loop
      vertex 30 -5.65685 4.99
      vertex 27.5729 -1.76336 4.99
      vertex 29.0729 -2.85317 4.99
    endloop
  endfacet
  facet normal 0 0 -1
    outer loop
      vertex 27 0 4.99
      vertex 24.3431 1.108e-015 4.99
      vertex 27 1.108e-015 4.99
    endloop
  endfacet
  facet normal 0 0 -1
    outer loop
      vertex 27.5729 -1.76336 4.99
      vertex 24.3431 1.108e-015 4.99
      vertex 27 0 4.99
    endloop
  endfacet
  facet normal 0 0 -1
    outer loop
      vertex 23.1317 -12.5251 4.99
      vertex 27.5729 -1.76336 4.99
      vertex 30 -5.65685 4.99
    endloop
  endfacet
  facet normal 0 0 -1
    outer loop
      vertex 17.4749 -6.86827 4.99
      vertex 27.5729 -1.76336 4.99
      vertex 23.1317 -12.5251 4.99
    endloop
  endfacet
  facet normal -0 0 -1
    outer loop
      vertex 27.5729 -1.76336 4.99
      vertex 17.4749 -6.86827 4.99
      vertex 24.3431 1.108e-015 4.99
    endloop
  endfacet
  facet normal 0.707107 0.707107 -8.78411e-008
    outer loop
      vertex 22.0619 -11.4553 2.54358e-015
      vertex 18.5334 -7.92681 1.76011e-015
      vertex 17.4749 -6.86827 4.99
    endloop
  endfacet
  facet normal -0.677285 0.677285 0.287348
    outer loop
      vertex 22.0732 -11.4666 2.54609e-015
      vertex 30 -5.65685 4.99
      vertex 30 -3.53978 7.85988e-016
    endloop
  endfacet
  facet normal -0.677285 0.677285 0.287348
    outer loop
      vertex 30 -5.65685 4.99
      vertex 22.0732 -11.4666 2.54609e-015
      vertex 23.1317 -12.5251 4.99
    endloop
  endfacet
  facet normal 0.677285 -0.677285 0.287348
    outer loop
      vertex 18.5334 -7.92681 1.76011e-015
      vertex 24.3431 1.108e-015 4.99
      vertex 17.4749 -6.86827 4.99
    endloop
  endfacet
  facet normal 0.677285 -0.677285 0.287348
    outer loop
      vertex 24.3431 1.108e-015 4.99
      vertex 18.5334 -7.92681 1.76011e-015
      vertex 26.4602 0 0
    endloop
  endfacet
  facet normal -0.707107 0.707107 5.11168e-008
    outer loop
      vertex 7.93812 -11.4553 2.54358e-015
      vertex 6.86827 -12.5251 4.99
      vertex 12.5251 -6.86827 4.99
    endloop
  endfacet
  facet normal -0.707092 0.707122 6.39015e-006
    outer loop
      vertex 6.86827 -12.5251 4.99
      vertex 7.93812 -11.4553 2.54358e-015
      vertex 7.92681 -11.4666 2.54609e-015
    endloop
  endfacet
  facet normal 0 0 -1
    outer loop
      vertex 2.42705 -1.76336 4.99
      vertex 12.5251 -6.86827 4.99
      vertex 6.86827 -12.5251 4.99
    endloop
  endfacet
  facet normal 0 0 -1
    outer loop
      vertex 12.5251 -6.86827 4.99
      vertex 2.42705 -1.76336 4.99
      vertex 5.65685 1.108e-015 4.99
    endloop
  endfacet
  facet normal 0 0 -1
    outer loop
      vertex 5.65685 1.108e-015 4.99
      vertex 2.42705 -1.76336 4.99
      vertex 3 0 4.99
    endloop
  endfacet
  facet normal 0 0 -1
    outer loop
      vertex 0 -5.65685 4.99
      vertex 2.42705 -1.76336 4.99
      vertex 6.86827 -12.5251 4.99
    endloop
  endfacet
  facet normal 0 0 -1
    outer loop
      vertex 2.42705 -1.76336 4.99
      vertex 0 -5.65685 4.99
      vertex 0.927051 -2.85317 4.99
    endloop
  endfacet
  facet normal -0 0 -1
    outer loop
      vertex 0.927051 -2.85317 4.99
      vertex 0 -5.65685 4.99
      vertex 0 -2.85317 4.99
    endloop
  endfacet
  facet normal -0 0 -1
    outer loop
      vertex 5.65685 1.108e-015 4.99
      vertex 3 0 4.99
      vertex 3 1.108e-015 4.99
    endloop
  endfacet
  facet normal -0.707107 0.707107 2.7028e-007
    outer loop
      vertex 12.5251 -6.86827 4.99
      vertex 11.4666 -7.92681 1.76011e-015
      vertex 7.93812 -11.4553 2.54358e-015
    endloop
  endfacet
  facet normal -0.677285 -0.677285 0.287348
    outer loop
      vertex 3.53978 0 0
      vertex 12.5251 -6.86827 4.99
      vertex 5.65685 1.108e-015 4.99
    endloop
  endfacet
  facet normal -0.677285 -0.677285 0.287348
    outer loop
      vertex 12.5251 -6.86827 4.99
      vertex 3.53978 0 0
      vertex 11.4666 -7.92681 1.76011e-015
    endloop
  endfacet
  facet normal 0.677285 0.677285 0.287348
    outer loop
      vertex 0 -5.65685 4.99
      vertex 7.92681 -11.4666 2.54609e-015
      vertex 0 -3.53977 7.85988e-016
    endloop
  endfacet
  facet normal 0.677285 0.677285 0.287348
    outer loop
      vertex 7.92681 -11.4666 2.54609e-015
      vertex 0 -5.65685 4.99
      vertex 6.86827 -12.5251 4.99
    endloop
  endfacet
  facet normal -0.707107 -0.707107 2.19164e-007
    outer loop
      vertex 11.4553 -22.0619 4.89872e-015
      vertex 12.5251 -23.1317 4.99
      vertex 6.86827 -17.4749 4.99
    endloop
  endfacet
  facet normal -0.707077 -0.707137 -1.25098e-005
    outer loop
      vertex 12.5251 -23.1317 4.99
      vertex 11.4553 -22.0619 4.89872e-015
      vertex 11.4666 -22.0732 4.90123e-015
    endloop
  endfacet
  facet normal -0.707107 -0.707107 -8.78411e-008
    outer loop
      vertex 7.92681 -18.5334 4.11524e-015
      vertex 11.4553 -22.0619 4.89872e-015
      vertex 6.86827 -17.4749 4.99
    endloop
  endfacet
  facet normal -0.677285 0.677285 0.287348
    outer loop
      vertex 11.4666 -22.0732 4.90123e-015
      vertex 5.65685 -30 4.99
      vertex 12.5251 -23.1317 4.99
    endloop
  endfacet
  facet normal -0.677285 0.677285 0.287348
    outer loop
      vertex 5.65685 -30 4.99
      vertex 11.4666 -22.0732 4.90123e-015
      vertex 3.53978 -30 6.66134e-015
    endloop
  endfacet
  facet normal 0 0 -1
    outer loop
      vertex 2.42705 -28.2366 4.99
      vertex 12.5251 -23.1317 4.99
      vertex 5.65685 -30 4.99
    endloop
  endfacet
  facet normal 0 0 -1
    outer loop
      vertex 2.42705 -28.2366 4.99
      vertex 5.65685 -30 4.99
      vertex 3 -30 4.99
    endloop
  endfacet
  facet normal -0 0 -1
    outer loop
      vertex 12.5251 -23.1317 4.99
      vertex 2.42705 -28.2366 4.99
      vertex 6.86827 -17.4749 4.99
    endloop
  endfacet
  facet normal 0 0 -1
    outer loop
      vertex 0 -24.3431 4.99
      vertex 2.42705 -28.2366 4.99
      vertex 0.927051 -27.1468 4.99
    endloop
  endfacet
  facet normal 0 0 -1
    outer loop
      vertex 0 -24.3431 4.99
      vertex 0.927051 -27.1468 4.99
      vertex 0 -27.1468 4.99
    endloop
  endfacet
  facet normal 0 0 -1
    outer loop
      vertex 2.42705 -28.2366 4.99
      vertex 0 -24.3431 4.99
      vertex 6.86827 -17.4749 4.99
    endloop
  endfacet
  facet normal 0.677285 -0.677285 0.287348
    outer loop
      vertex 0 -24.3431 4.99
      vertex 7.92681 -18.5334 4.11524e-015
      vertex 6.86827 -17.4749 4.99
    endloop
  endfacet
  facet normal 0.677285 -0.677285 0.287348
    outer loop
      vertex 7.92681 -18.5334 4.11524e-015
      vertex 0 -24.3431 4.99
      vertex 0 -26.4602 5.87535e-015
    endloop
  endfacet
  facet normal -0.677285 -0.677286 -0.287348
    outer loop
      vertex 30 -24.3431 55.01
      vertex 22.0732 -18.5334 60
      vertex 23.1317 -17.4749 55.01
    endloop
  endfacet
  facet normal -0.677285 -0.677285 -0.287348
    outer loop
      vertex 22.0732 -18.5334 60
      vertex 30 -24.3431 55.01
      vertex 30 -26.4602 60
    endloop
  endfacet
  facet normal 0.677285 0.677285 -0.287348
    outer loop
      vertex 26.4602 -30 60
      vertex 17.4749 -23.1317 55.01
      vertex 18.5334 -22.0732 60
    endloop
  endfacet
  facet normal 0.677285 0.677285 -0.287348
    outer loop
      vertex 17.4749 -23.1317 55.01
      vertex 26.4602 -30 60
      vertex 24.3431 -30 55.01
    endloop
  endfacet
  facet normal 0.707107 -0.707107 0
    outer loop
      vertex 18.5334 -22.0732 60
      vertex 23.1317 -17.4749 55.01
      vertex 22.0732 -18.5334 60
    endloop
  endfacet
  facet normal 0.707107 -0.707107 0
    outer loop
      vertex 23.1317 -17.4749 55.01
      vertex 18.5334 -22.0732 60
      vertex 17.4749 -23.1317 55.01
    endloop
  endfacet
  facet normal 0 0 1
    outer loop
      vertex 30 -24.3431 55.01
      vertex 24.3431 -30 55.01
      vertex 30 -30 55.01
    endloop
  endfacet
  facet normal 0 0 1
    outer loop
      vertex 23.1317 -17.4749 55.01
      vertex 24.3431 -30 55.01
      vertex 30 -24.3431 55.01
    endloop
  endfacet
  facet normal 0 0 1
    outer loop
      vertex 24.3431 -30 55.01
      vertex 23.1317 -17.4749 55.01
      vertex 17.4749 -23.1317 55.01
    endloop
  endfacet
  facet normal -0.707107 -0.707107 -2.19164e-007
    outer loop
      vertex 12.5251 -23.1317 55.01
      vertex 11.4553 -22.0619 60
      vertex 6.86827 -17.4749 55.01
    endloop
  endfacet
  facet normal -0.707077 -0.707137 1.25098e-005
    outer loop
      vertex 11.4553 -22.0619 60
      vertex 12.5251 -23.1317 55.01
      vertex 11.4666 -22.0732 60
    endloop
  endfacet
  facet normal 0 0 1
    outer loop
      vertex 6.86827 -17.4749 55.01
      vertex 5.65685 -30 55.01
      vertex 12.5251 -23.1317 55.01
    endloop
  endfacet
  facet normal -0 0 1
    outer loop
      vertex 0 -24.3431 55.01
      vertex 5.65685 -30 55.01
      vertex 6.86827 -17.4749 55.01
    endloop
  endfacet
  facet normal 0 0 1
    outer loop
      vertex 5.65685 -30 55.01
      vertex 0 -24.3431 55.01
      vertex 0 -30 55.01
    endloop
  endfacet
  facet normal -0.707107 -0.707107 8.78412e-008
    outer loop
      vertex 11.4553 -22.0619 60
      vertex 7.92681 -18.5334 60
      vertex 6.86827 -17.4749 55.01
    endloop
  endfacet
  facet normal -0.677285 0.677285 -0.287348
    outer loop
      vertex 5.65685 -30 55.01
      vertex 11.4666 -22.0732 60
      vertex 12.5251 -23.1317 55.01
    endloop
  endfacet
  facet normal -0.677285 0.677285 -0.287348
    outer loop
      vertex 11.4666 -22.0732 60
      vertex 5.65685 -30 55.01
      vertex 3.53978 -30 60
    endloop
  endfacet
  facet normal 0.677285 -0.677285 -0.287348
    outer loop
      vertex 7.92681 -18.5334 60
      vertex 0 -24.3431 55.01
      vertex 6.86827 -17.4749 55.01
    endloop
  endfacet
  facet normal 0.677285 -0.677285 -0.287348
    outer loop
      vertex 0 -24.3431 55.01
      vertex 7.92681 -18.5334 60
      vertex 0 -26.4602 60
    endloop
  endfacet
  facet normal -0.707122 0.707092 -6.39015e-006
    outer loop
      vertex 12.5251 -6.86827 55.01
      vertex 11.4553 -7.93812 60
      vertex 11.4666 -7.92681 60
    endloop
  endfacet
  facet normal -0.707107 0.707107 -5.11168e-008
    outer loop
      vertex 11.4553 -7.93812 60
      vertex 12.5251 -6.86827 55.01
      vertex 6.86827 -12.5251 55.01
    endloop
  endfacet
  facet normal -2.77704e-007 2.77704e-007 1
    outer loop
      vertex 5.65685 1.22147e-014 55.01
      vertex 6.86827 -12.5251 55.01
      vertex 12.5251 -6.86827 55.01
    endloop
  endfacet
  facet normal 0 6.7435e-007 1
    outer loop
      vertex 0 -5.65685 55.01
      vertex 5.65685 1.22147e-014 55.01
      vertex 0 1.22147e-014 55.01
    endloop
  endfacet
  facet normal 3.37175e-007 3.37175e-007 1
    outer loop
      vertex 5.65685 1.22147e-014 55.01
      vertex 0 -5.65685 55.01
      vertex 6.86827 -12.5251 55.01
    endloop
  endfacet
  facet normal -0.707107 0.707107 -2.70281e-007
    outer loop
      vertex 7.92681 -11.4666 60
      vertex 11.4553 -7.93812 60
      vertex 6.86827 -12.5251 55.01
    endloop
  endfacet
  facet normal 0.677285 0.677285 -0.287348
    outer loop
      vertex 6.86827 -12.5251 55.01
      vertex 0 -3.53978 60
      vertex 7.92681 -11.4666 60
    endloop
  endfacet
  facet normal 0.677285 0.677285 -0.287348
    outer loop
      vertex 0 -3.53978 60
      vertex 6.86827 -12.5251 55.01
      vertex 0 -5.65685 55.01
    endloop
  endfacet
  facet normal -0.677285 -0.677286 -0.287348
    outer loop
      vertex 12.5251 -6.86827 55.01
      vertex 3.53977 1.33227e-014 60
      vertex 5.65685 1.22147e-014 55.01
    endloop
  endfacet
  facet normal -0.677285 -0.677285 -0.287348
    outer loop
      vertex 3.53977 1.33227e-014 60
      vertex 12.5251 -6.86827 55.01
      vertex 11.4666 -7.92681 60
    endloop
  endfacet
  facet normal 0.707137 0.707077 1.25098e-005
    outer loop
      vertex 23.1317 -12.5251 55.01
      vertex 22.0619 -11.4553 60
      vertex 22.0732 -11.4666 60
    endloop
  endfacet
  facet normal 0.707107 0.707107 -2.19164e-007
    outer loop
      vertex 22.0619 -11.4553 60
      vertex 23.1317 -12.5251 55.01
      vertex 17.4749 -6.86827 55.01
    endloop
  endfacet
  facet normal 0.707107 0.707107 8.78412e-008
    outer loop
      vertex 18.5334 -7.92681 60
      vertex 22.0619 -11.4553 60
      vertex 17.4749 -6.86827 55.01
    endloop
  endfacet
  facet normal -0.677285 0.677285 -0.287348
    outer loop
      vertex 30 -5.65685 55.01
      vertex 22.0732 -11.4666 60
      vertex 30 -3.53978 60
    endloop
  endfacet
  facet normal -0.677286 0.677285 -0.287348
    outer loop
      vertex 22.0732 -11.4666 60
      vertex 30 -5.65685 55.01
      vertex 23.1317 -12.5251 55.01
    endloop
  endfacet
  facet normal -0 0 1
    outer loop
      vertex 24.3431 1.22147e-014 55.01
      vertex 30 -5.65685 55.01
      vertex 30 1.22147e-014 55.01
    endloop
  endfacet
  facet normal 2.77704e-007 2.77704e-007 1
    outer loop
      vertex 24.3431 1.22147e-014 55.01
      vertex 23.1317 -12.5251 55.01
      vertex 30 -5.65685 55.01
    endloop
  endfacet
  facet normal 2.77704e-007 2.77704e-007 1
    outer loop
      vertex 23.1317 -12.5251 55.01
      vertex 24.3431 1.22147e-014 55.01
      vertex 17.4749 -6.86827 55.01
    endloop
  endfacet
  facet normal 0.677285 -0.677286 -0.287348
    outer loop
      vertex 24.3431 1.22147e-014 55.01
      vertex 18.5334 -7.92681 60
      vertex 17.4749 -6.86827 55.01
    endloop
  endfacet
  facet normal 0.677285 -0.677286 -0.287348
    outer loop
      vertex 18.5334 -7.92681 60
      vertex 24.3431 1.22147e-014 55.01
      vertex 26.4602 1.33227e-014 60
    endloop
  endfacet
  facet normal 0.957826 0.287348 0
    outer loop
      vertex 12.5 -30 60
      vertex 11 -25 30
      vertex 11 -25 60
    endloop
  endfacet
  facet normal 0.957826 0.287348 -0
    outer loop
      vertex 12.5 -30 6.66134e-015
      vertex 11 -25 30
      vertex 12.5 -30 60
    endloop
  endfacet
  facet normal 0.957826 0.287348 0
    outer loop
      vertex 11 -25 30
      vertex 12.5 -30 6.66134e-015
      vertex 11 -25 5.55112e-015
    endloop
  endfacet
  facet normal -0.957826 0.287348 0
    outer loop
      vertex 17.5 -30 6.66134e-015
      vertex 19 -25 60
      vertex 19 -25 5.55112e-015
    endloop
  endfacet
  facet normal -0.957826 0.287348 0
    outer loop
      vertex 19 -25 60
      vertex 17.5 -30 6.66134e-015
      vertex 17.5 -30 60
    endloop
  endfacet
  facet normal -0 -2.22045e-016 -1
    outer loop
      vertex 12.5 -30 6.66134e-015
      vertex 3.53978 -30 6.66134e-015
      vertex 11 -25 5.55112e-015
    endloop
  endfacet
  facet normal 0 -2.22045e-016 -1
    outer loop
      vertex 11.3594 -12.355 2.74335e-015
      vertex 11.4666 -7.92681 1.76011e-015
      vertex 12.75 -11.1029 2.46534e-015
    endloop
  endfacet
  facet normal 0 -2.22045e-016 -1
    outer loop
      vertex 7.93812 -11.4553 2.54358e-015
      vertex 11.3594 -12.355 2.74335e-015
      vertex 10.5983 -14.0644 3.12292e-015
    endloop
  endfacet
  facet normal 0 -2.22045e-016 -1
    outer loop
      vertex 11.3594 -12.355 2.74335e-015
      vertex 7.93812 -11.4553 2.54358e-015
      vertex 11.4666 -7.92681 1.76011e-015
    endloop
  endfacet
  facet normal 0 -2.22045e-016 -1
    outer loop
      vertex 11.4553 -22.0619 4.89872e-015
      vertex 12.75 -18.8971 4.196e-015
      vertex 11.4666 -22.0732 4.90123e-015
    endloop
  endfacet
  facet normal 0 -2.22045e-016 -1
    outer loop
      vertex 11.4553 -22.0619 4.89872e-015
      vertex 11.3594 -17.645 3.91798e-015
      vertex 12.75 -18.8971 4.196e-015
    endloop
  endfacet
  facet normal 0 -2.22045e-016 -1
    outer loop
      vertex 7.92681 -18.5334 4.11524e-015
      vertex 11.3594 -17.645 3.91798e-015
      vertex 11.4553 -22.0619 4.89872e-015
    endloop
  endfacet
  facet normal 0 -2.22045e-016 -1
    outer loop
      vertex 7.92681 -11.4666 2.54609e-015
      vertex 10.5983 -14.0644 3.12292e-015
      vertex 10.5983 -15.9356 3.53841e-015
    endloop
  endfacet
  facet normal 0 -2.22045e-016 -1
    outer loop
      vertex 11.3594 -17.645 3.91798e-015
      vertex 7.92681 -18.5334 4.11524e-015
      vertex 10.5983 -15.9356 3.53841e-015
    endloop
  endfacet
  facet normal 0 -2.22045e-016 -1
    outer loop
      vertex 7.92681 -11.4666 2.54609e-015
      vertex 10.5983 -15.9356 3.53841e-015
      vertex 7.92681 -18.5334 4.11524e-015
    endloop
  endfacet
  facet normal 0 -2.22045e-016 -1
    outer loop
      vertex 10.5983 -14.0644 3.12292e-015
      vertex 7.92681 -11.4666 2.54609e-015
      vertex 7.93812 -11.4553 2.54358e-015
    endloop
  endfacet
  facet normal 0 -2.22045e-016 -1
    outer loop
      vertex 7.92681 -18.5334 4.11524e-015
      vertex 5 -19 4.21885e-015
      vertex 7.92681 -11.4666 2.54609e-015
    endloop
  endfacet
  facet normal 0 -2.22045e-016 -1
    outer loop
      vertex 0 -26.4602 5.87535e-015
      vertex 5 -19 4.21885e-015
      vertex 7.92681 -18.5334 4.11524e-015
    endloop
  endfacet
  facet normal 0 -2.22045e-016 -1
    outer loop
      vertex 5 -19 4.21885e-015
      vertex 0 -26.4602 5.87535e-015
      vertex 0 -17.5 3.88578e-015
    endloop
  endfacet
  facet normal -0 -2.22045e-016 -1
    outer loop
      vertex 26.4602 -30 6.66134e-015
      vertex 17.5 -30 6.66134e-015
      vertex 19 -25 5.55112e-015
    endloop
  endfacet
  facet normal 0 -2.22045e-016 -1
    outer loop
      vertex 19 -25 5.55112e-015
      vertex 18.5334 -22.0732 4.90123e-015
      vertex 26.4602 -30 6.66134e-015
    endloop
  endfacet
  facet normal 0 -2.22045e-016 -1
    outer loop
      vertex 18.5334 -22.0732 4.90123e-015
      vertex 16.3906 -19.2798 4.28097e-015
      vertex 18.0111 -18.3442 4.07322e-015
    endloop
  endfacet
  facet normal 0 -2.22045e-016 -1
    outer loop
      vertex 11.4666 -22.0732 4.90123e-015
      vertex 18.5334 -22.0732 4.90123e-015
      vertex 19 -25 5.55112e-015
    endloop
  endfacet
  facet normal 0 -2.22045e-016 -1
    outer loop
      vertex 18.5334 -22.0732 4.90123e-015
      vertex 14.5296 -19.4753 4.3244e-015
      vertex 16.3906 -19.2798 4.28097e-015
    endloop
  endfacet
  facet normal -0 -2.22045e-016 -1
    outer loop
      vertex 18.5334 -22.0732 4.90123e-015
      vertex 11.4666 -22.0732 4.90123e-015
      vertex 14.5296 -19.4753 4.3244e-015
    endloop
  endfacet
  facet normal 0 -2.22045e-016 -1
    outer loop
      vertex 14.5296 -19.4753 4.3244e-015
      vertex 11.4666 -22.0732 4.90123e-015
      vertex 12.75 -18.8971 4.196e-015
    endloop
  endfacet
  facet normal 0 -2.22045e-016 -1
    outer loop
      vertex 11 -25 5.55112e-015
      vertex 11.4666 -22.0732 4.90123e-015
      vertex 19 -25 5.55112e-015
    endloop
  endfacet
  facet normal 0 -2.22045e-016 -1
    outer loop
      vertex 11.4666 -22.0732 4.90123e-015
      vertex 11 -25 5.55112e-015
      vertex 3.53978 -30 6.66134e-015
    endloop
  endfacet
  facet normal 0 -2.22045e-016 -1
    outer loop
      vertex 19.111 -13.1697 2.92426e-015
      vertex 22.0732 -11.4666 2.54609e-015
      vertex 19.3043 -14.0794 3.12624e-015
    endloop
  endfacet
  facet normal 0 -2.22045e-016 -1
    outer loop
      vertex 22.0732 -11.4666 2.54609e-015
      vertex 19.111 -13.1697 2.92426e-015
      vertex 22.0619 -11.4553 2.54358e-015
    endloop
  endfacet
  facet normal 0 -2.22045e-016 -1
    outer loop
      vertex 18.0111 -11.6558 2.58812e-015
      vertex 22.0619 -11.4553 2.54358e-015
      vertex 19.111 -13.1697 2.92426e-015
    endloop
  endfacet
  facet normal 0 -2.22045e-016 -1
    outer loop
      vertex 22.0619 -11.4553 2.54358e-015
      vertex 18.0111 -11.6558 2.58812e-015
      vertex 18.5334 -7.92681 1.76011e-015
    endloop
  endfacet
  facet normal 0 -2.22045e-016 -1
    outer loop
      vertex 30 -26.4602 5.87535e-015
      vertex 25 -19 4.21885e-015
      vertex 30 -17.5 3.88578e-015
    endloop
  endfacet
  facet normal 0 -2.22045e-016 -1
    outer loop
      vertex 25 -19 4.21885e-015
      vertex 22.0732 -18.5334 4.11524e-015
      vertex 25 -11 2.44249e-015
    endloop
  endfacet
  facet normal 0 -2.22045e-016 -1
    outer loop
      vertex 22.0732 -18.5334 4.11524e-015
      vertex 25 -19 4.21885e-015
      vertex 30 -26.4602 5.87535e-015
    endloop
  endfacet
  facet normal 0 -2.22045e-016 -1
    outer loop
      vertex 25 -11 2.44249e-015
      vertex 30 -3.53978 7.85988e-016
      vertex 30 -12.5 2.77556e-015
    endloop
  endfacet
  facet normal 0 -2.22045e-016 -1
    outer loop
      vertex 25 -11 2.44249e-015
      vertex 22.0732 -11.4666 2.54609e-015
      vertex 30 -3.53978 7.85988e-016
    endloop
  endfacet
  facet normal 0 -2.22045e-016 -1
    outer loop
      vertex 22.0732 -18.5334 4.11524e-015
      vertex 22.0732 -11.4666 2.54609e-015
      vertex 25 -11 2.44249e-015
    endloop
  endfacet
  facet normal 0 -2.22045e-016 -1
    outer loop
      vertex 19.5 -15 3.33067e-015
      vertex 22.0732 -11.4666 2.54609e-015
      vertex 22.0732 -18.5334 4.11524e-015
    endloop
  endfacet
  facet normal 0 -2.22045e-016 -1
    outer loop
      vertex 19.3043 -14.0794 3.12624e-015
      vertex 22.0732 -11.4666 2.54609e-015
      vertex 19.5 -15 3.33067e-015
    endloop
  endfacet
  facet normal 0 -2.22045e-016 -1
    outer loop
      vertex 22.0732 -18.5334 4.11524e-015
      vertex 19.3066 -15.9097 3.53266e-015
      vertex 19.5 -15 3.33067e-015
    endloop
  endfacet
  facet normal 0 -2.22045e-016 -1
    outer loop
      vertex 22.0732 -18.5334 4.11524e-015
      vertex 19.111 -16.8303 3.73708e-015
      vertex 19.3066 -15.9097 3.53266e-015
    endloop
  endfacet
  facet normal 0 -2.22045e-016 -1
    outer loop
      vertex 18.0111 -18.3442 4.07322e-015
      vertex 22.0732 -18.5334 4.11524e-015
      vertex 18.5334 -22.0732 4.90123e-015
    endloop
  endfacet
  facet normal 0 -2.22045e-016 -1
    outer loop
      vertex 22.0732 -18.5334 4.11524e-015
      vertex 18.0111 -18.3442 4.07322e-015
      vertex 19.111 -16.8303 3.73708e-015
    endloop
  endfacet
  facet normal 0 -2.22045e-016 -1
    outer loop
      vertex 18.5334 -7.92681 1.76011e-015
      vertex 19 -5 1.11022e-015
      vertex 26.4602 0 0
    endloop
  endfacet
  facet normal 0 -2.22045e-016 -1
    outer loop
      vertex 16.3906 -10.7202 2.38037e-015
      vertex 18.5334 -7.92681 1.76011e-015
      vertex 18.0111 -11.6558 2.58812e-015
    endloop
  endfacet
  facet normal 0 -2.22045e-016 -1
    outer loop
      vertex 14.5296 -10.5247 2.33694e-015
      vertex 18.5334 -7.92681 1.76011e-015
      vertex 16.3906 -10.7202 2.38037e-015
    endloop
  endfacet
  facet normal 0 -2.22045e-016 -1
    outer loop
      vertex 11.4666 -7.92681 1.76011e-015
      vertex 18.5334 -7.92681 1.76011e-015
      vertex 14.5296 -10.5247 2.33694e-015
    endloop
  endfacet
  facet normal 0 -2.22045e-016 -1
    outer loop
      vertex 11.4666 -7.92681 1.76011e-015
      vertex 14.5296 -10.5247 2.33694e-015
      vertex 12.75 -11.1029 2.46534e-015
    endloop
  endfacet
  facet normal 0 -2.22045e-016 -1
    outer loop
      vertex 18.5334 -7.92681 1.76011e-015
      vertex 11.4666 -7.92681 1.76011e-015
      vertex 19 -5 1.11022e-015
    endloop
  endfacet
  facet normal 0 -2.22045e-016 -1
    outer loop
      vertex 11.4666 -7.92681 1.76011e-015
      vertex 11 -5 1.11022e-015
      vertex 19 -5 1.11022e-015
    endloop
  endfacet
  facet normal 0 -2.22045e-016 -1
    outer loop
      vertex 11 -5 1.11022e-015
      vertex 11.4666 -7.92681 1.76011e-015
      vertex 3.53978 0 0
    endloop
  endfacet
  facet normal -0 -2.22045e-016 -1
    outer loop
      vertex 26.4602 0 0
      vertex 19 -5 1.11022e-015
      vertex 17.5 0 0
    endloop
  endfacet
  facet normal -0 -2.22045e-016 -1
    outer loop
      vertex 12.5 0 0
      vertex 11 -5 1.11022e-015
      vertex 3.53978 0 0
    endloop
  endfacet
  facet normal 0 -2.22045e-016 -1
    outer loop
      vertex 5 -11 2.44249e-015
      vertex 7.92681 -11.4666 2.54609e-015
      vertex 5 -19 4.21885e-015
    endloop
  endfacet
  facet normal 0 -2.22045e-016 -1
    outer loop
      vertex 5 -11 2.44249e-015
      vertex 0 -3.53977 7.85988e-016
      vertex 7.92681 -11.4666 2.54609e-015
    endloop
  endfacet
  facet normal 0 -2.22045e-016 -1
    outer loop
      vertex 0 -3.53977 7.85988e-016
      vertex 5 -11 2.44249e-015
      vertex 0 -12.5 2.77556e-015
    endloop
  endfacet
  facet normal 0 0 0
    outer loop
      vertex 19 -25 5.55112e-015
      vertex 19 -25 60
      vertex 19 -25 30
    endloop
  endfacet
  facet normal 0 -1 0
    outer loop
      vertex 3 -30 5
      vertex 0 -30 55.01
      vertex 0 -30 5
    endloop
  endfacet
  facet normal 0 -1 0
    outer loop
      vertex 5.65685 -30 55.01
      vertex 12.5 -30 60
      vertex 3.53978 -30 60
    endloop
  endfacet
  facet normal 0 -1 0
    outer loop
      vertex 0 -30 55.01
      vertex 3 -30 5
      vertex 5.65685 -30 55.01
    endloop
  endfacet
  facet normal 0 -1 0
    outer loop
      vertex 5.65685 -30 4.99
      vertex 5.65685 -30 55.01
      vertex 3 -30 5
    endloop
  endfacet
  facet normal 0 -1 0
    outer loop
      vertex 5.65685 -30 4.99
      vertex 3 -30 5
      vertex 3 -30 4.99
    endloop
  endfacet
  facet normal 0 -1 0
    outer loop
      vertex 5.65685 -30 55.01
      vertex 5.65685 -30 4.99
      vertex 12.5 -30 60
    endloop
  endfacet
  facet normal 0 -1 0
    outer loop
      vertex 5.65685 -30 4.99
      vertex 12.5 -30 6.66134e-015
      vertex 12.5 -30 60
    endloop
  endfacet
  facet normal 0 -1 0
    outer loop
      vertex 12.5 -30 6.66134e-015
      vertex 5.65685 -30 4.99
      vertex 3.53978 -30 6.66134e-015
    endloop
  endfacet
  facet normal 0 -1 0
    outer loop
      vertex 17.5 -30 60
      vertex 24.3431 -30 55.01
      vertex 26.4602 -30 60
    endloop
  endfacet
  facet normal 0 -1 0
    outer loop
      vertex 24.3431 -30 55.01
      vertex 27 -30 5
      vertex 30 -30 55.01
    endloop
  endfacet
  facet normal 0 -1 0
    outer loop
      vertex 24.3431 -30 4.99
      vertex 24.3431 -30 55.01
      vertex 17.5 -30 60
    endloop
  endfacet
  facet normal 0 -1 0
    outer loop
      vertex 24.3431 -30 55.01
      vertex 24.3431 -30 4.99
      vertex 27 -30 5
    endloop
  endfacet
  facet normal 0 -1 0
    outer loop
      vertex 17.5 -30 6.66134e-015
      vertex 24.3431 -30 4.99
      vertex 17.5 -30 60
    endloop
  endfacet
  facet normal 0 -1 -0
    outer loop
      vertex 24.3431 -30 4.99
      vertex 17.5 -30 6.66134e-015
      vertex 26.4602 -30 6.66134e-015
    endloop
  endfacet
  facet normal 0 -1 -0
    outer loop
      vertex 30 -30 55.01
      vertex 27 -30 5
      vertex 30 -30 5
    endloop
  endfacet
  facet normal 0 -1 -0
    outer loop
      vertex 27 -30 5
      vertex 24.3431 -30 4.99
      vertex 27 -30 4.99
    endloop
  endfacet
  facet normal -0.287348 0.957826 0
    outer loop
      vertex 30 -17.5 60
      vertex 25 -19 4.21885e-015
      vertex 25 -19 60
    endloop
  endfacet
  facet normal -0.287348 0.957826 0
    outer loop
      vertex 25 -19 4.21885e-015
      vertex 30 -17.5 60
      vertex 30 -17.5 3.88578e-015
    endloop
  endfacet
  facet normal -0.287348 -0.957826 0
    outer loop
      vertex 25 -11 60
      vertex 30 -12.5 2.77556e-015
      vertex 30 -12.5 60
    endloop
  endfacet
  facet normal -0.287348 -0.957826 0
    outer loop
      vertex 30 -12.5 2.77556e-015
      vertex 25 -11 60
      vertex 25 -11 2.44249e-015
    endloop
  endfacet
  facet normal 1 -0 0
    outer loop
      vertex 25 -19 60
      vertex 25 -11 2.44249e-015
      vertex 25 -11 60
    endloop
  endfacet
  facet normal 1 0 0
    outer loop
      vertex 25 -11 2.44249e-015
      vertex 25 -19 60
      vertex 25 -19 4.21885e-015
    endloop
  endfacet
  facet normal 1 0 0
    outer loop
      vertex 30 -5.65685 55.01
      vertex 30 -12.5 60
      vertex 30 -5.65685 4.99
    endloop
  endfacet
  facet normal 1 -0 0
    outer loop
      vertex 30 -12.5 60
      vertex 30 -5.65685 55.01
      vertex 30 -3.53978 60
    endloop
  endfacet
  facet normal 1 0 0
    outer loop
      vertex 30 1.22147e-014 55.01
      vertex 30 -2.85317 5
      vertex 30 1.11022e-015 5
    endloop
  endfacet
  facet normal 1 -0 0
    outer loop
      vertex 30 -5.65685 55.01
      vertex 30 -2.85317 5
      vertex 30 1.22147e-014 55.01
    endloop
  endfacet
  facet normal 1 0 0
    outer loop
      vertex 30 -5.65685 4.99
      vertex 30 -2.85317 5
      vertex 30 -5.65685 55.01
    endloop
  endfacet
  facet normal 1 0 0
    outer loop
      vertex 30 -2.85317 5
      vertex 30 -5.65685 4.99
      vertex 30 -2.85317 4.99
    endloop
  endfacet
  facet normal 1 0 0
    outer loop
      vertex 30 -5.65685 4.99
      vertex 30 -12.5 2.77556e-015
      vertex 30 -3.53978 7.85988e-016
    endloop
  endfacet
  facet normal 1 0 0
    outer loop
      vertex 30 -12.5 2.77556e-015
      vertex 30 -5.65685 4.99
      vertex 30 -12.5 60
    endloop
  endfacet
  facet normal 1 0 0
    outer loop
      vertex 30 -24.3431 55.01
      vertex 30 -27.1468 5
      vertex 30 -24.3431 4.99
    endloop
  endfacet
  facet normal 1 -0 0
    outer loop
      vertex 30 -30 55.01
      vertex 30 -27.1468 5
      vertex 30 -24.3431 55.01
    endloop
  endfacet
  facet normal 1 0 0
    outer loop
      vertex 30 -27.1468 5
      vertex 30 -30 55.01
      vertex 30 -30 5
    endloop
  endfacet
  facet normal 1 0 0
    outer loop
      vertex 30 -17.5 60
      vertex 30 -24.3431 55.01
      vertex 30 -17.5 3.88578e-015
    endloop
  endfacet
  facet normal 1 0 -0
    outer loop
      vertex 30 -24.3431 55.01
      vertex 30 -17.5 60
      vertex 30 -26.4602 60
    endloop
  endfacet
  facet normal 1 -0 0
    outer loop
      vertex 30 -24.3431 4.99
      vertex 30 -17.5 3.88578e-015
      vertex 30 -24.3431 55.01
    endloop
  endfacet
  facet normal 1 0 0
    outer loop
      vertex 30 -17.5 3.88578e-015
      vertex 30 -24.3431 4.99
      vertex 30 -26.4602 5.87535e-015
    endloop
  endfacet
  facet normal 1 0 0
    outer loop
      vertex 30 -24.3431 4.99
      vertex 30 -27.1468 5
      vertex 30 -27.1468 4.99
    endloop
  endfacet
  facet normal -0.957826 -0.287348 6.23862e-017
    outer loop
      vertex 19 -5 1.11022e-015
      vertex 17.5 1.33227e-014 60
      vertex 17.5 0 0
    endloop
  endfacet
  facet normal -0.957826 -0.287348 0
    outer loop
      vertex 17.5 1.33227e-014 60
      vertex 19 -5 1.11022e-015
      vertex 19 -5 60
    endloop
  endfacet
  facet normal 0.957826 -0.287348 6.23862e-017
    outer loop
      vertex 11 -5 60
      vertex 12.5 0 0
      vertex 12.5 1.33227e-014 60
    endloop
  endfacet
  facet normal 0.957826 -0.287348 0
    outer loop
      vertex 12.5 0 0
      vertex 11 -5 60
      vertex 11 -5 1.11022e-015
    endloop
  endfacet
  facet normal 0 1 -0
    outer loop
      vertex 19 -5 1.11022e-015
      vertex 11 -5 60
      vertex 19 -5 60
    endloop
  endfacet
  facet normal 0 1 0
    outer loop
      vertex 11 -5 60
      vertex 19 -5 1.11022e-015
      vertex 11 -5 1.11022e-015
    endloop
  endfacet
  facet normal 0 1 -2.22045e-016
    outer loop
      vertex 12.5 1.33227e-014 60
      vertex 5.65685 1.22147e-014 55.01
      vertex 3.53977 1.33227e-014 60
    endloop
  endfacet
  facet normal 0 1 -2.22045e-016
    outer loop
      vertex 5.65685 1.22147e-014 55.01
      vertex 3 1.11022e-015 5
      vertex 0 1.22147e-014 55.01
    endloop
  endfacet
  facet normal 0 1 -2.22045e-016
    outer loop
      vertex 5.65685 1.108e-015 4.99
      vertex 5.65685 1.22147e-014 55.01
      vertex 12.5 1.33227e-014 60
    endloop
  endfacet
  facet normal 0 1 -2.22045e-016
    outer loop
      vertex 5.65685 1.22147e-014 55.01
      vertex 5.65685 1.108e-015 4.99
      vertex 3 1.11022e-015 5
    endloop
  endfacet
  facet normal 0 1 -2.22045e-016
    outer loop
      vertex 12.5 0 0
      vertex 5.65685 1.108e-015 4.99
      vertex 12.5 1.33227e-014 60
    endloop
  endfacet
  facet normal 0 1 -2.22045e-016
    outer loop
      vertex 5.65685 1.108e-015 4.99
      vertex 12.5 0 0
      vertex 3.53978 0 0
    endloop
  endfacet
  facet normal 0 1 -2.22045e-016
    outer loop
      vertex 0 1.22147e-014 55.01
      vertex 3 1.11022e-015 5
      vertex 0 1.11022e-015 5
    endloop
  endfacet
  facet normal 0 1 -2.22045e-016
    outer loop
      vertex 3 1.11022e-015 5
      vertex 5.65685 1.108e-015 4.99
      vertex 3 1.108e-015 4.99
    endloop
  endfacet
  facet normal 0 1 -2.22045e-016
    outer loop
      vertex 27 1.11022e-015 5
      vertex 30 1.22147e-014 55.01
      vertex 30 1.11022e-015 5
    endloop
  endfacet
  facet normal 0 1 -2.22045e-016
    outer loop
      vertex 24.3431 1.22147e-014 55.01
      vertex 17.5 1.33227e-014 60
      vertex 26.4602 1.33227e-014 60
    endloop
  endfacet
  facet normal 0 1 -2.22045e-016
    outer loop
      vertex 30 1.22147e-014 55.01
      vertex 27 1.11022e-015 5
      vertex 24.3431 1.22147e-014 55.01
    endloop
  endfacet
  facet normal 0 1 -2.22045e-016
    outer loop
      vertex 24.3431 1.108e-015 4.99
      vertex 24.3431 1.22147e-014 55.01
      vertex 27 1.11022e-015 5
    endloop
  endfacet
  facet normal 0 1 -2.22045e-016
    outer loop
      vertex 24.3431 1.108e-015 4.99
      vertex 27 1.11022e-015 5
      vertex 27 1.108e-015 4.99
    endloop
  endfacet
  facet normal 0 1 -2.22045e-016
    outer loop
      vertex 24.3431 1.22147e-014 55.01
      vertex 24.3431 1.108e-015 4.99
      vertex 17.5 1.33227e-014 60
    endloop
  endfacet
  facet normal 0 1 -2.22045e-016
    outer loop
      vertex 24.3431 1.108e-015 4.99
      vertex 17.5 0 0
      vertex 17.5 1.33227e-014 60
    endloop
  endfacet
  facet normal 0 1 -2.22045e-016
    outer loop
      vertex 17.5 0 0
      vertex 24.3431 1.108e-015 4.99
      vertex 26.4602 0 0
    endloop
  endfacet
  facet normal 0.287348 -0.957826 0
    outer loop
      vertex 0 -12.5 2.77556e-015
      vertex 5 -11 60
      vertex 0 -12.5 60
    endloop
  endfacet
  facet normal 0.287348 -0.957826 0
    outer loop
      vertex 5 -11 60
      vertex 0 -12.5 2.77556e-015
      vertex 5 -11 2.44249e-015
    endloop
  endfacet
  facet normal 0.287348 0.957826 -3.04485e-008
    outer loop
      vertex 5 -19 4.21885e-015
      vertex 0 -17.5 60
      vertex 5 -19 60
    endloop
  endfacet
  facet normal 0.287348 0.957826 -3.04485e-008
    outer loop
      vertex 0 -17.5 60
      vertex 5 -19 4.21885e-015
      vertex 0 -17.5 3.88578e-015
    endloop
  endfacet
  facet normal -1 0 0
    outer loop
      vertex 5 -11 2.44249e-015
      vertex 5 -19 60
      vertex 5 -11 60
    endloop
  endfacet
  facet normal -1 0 -0
    outer loop
      vertex 5 -19 60
      vertex 5 -11 2.44249e-015
      vertex 5 -19 4.21885e-015
    endloop
  endfacet
  facet normal -1 0 0
    outer loop
      vertex 0 -27.1468 5
      vertex 0 -24.3431 4.99
      vertex 0 -27.1468 4.99
    endloop
  endfacet
  facet normal -1 0 0
    outer loop
      vertex 0 -24.3431 4.99
      vertex 0 -27.1468 5
      vertex 0 -24.3431 55.01
    endloop
  endfacet
  facet normal -1 0 0
    outer loop
      vertex 0 -30 55.01
      vertex 0 -27.1468 5
      vertex 0 -30 5
    endloop
  endfacet
  facet normal -1 0 0
    outer loop
      vertex 0 -27.1468 5
      vertex 0 -30 55.01
      vertex 0 -24.3431 55.01
    endloop
  endfacet
  facet normal -1 0 0
    outer loop
      vertex 0 -17.5 3.88578e-015
      vertex 0 -26.4602 5.87535e-015
      vertex 0 -24.3431 4.99
    endloop
  endfacet
  facet normal -1 0 0
    outer loop
      vertex 0 -24.3431 4.99
      vertex 0 -17.5 60
      vertex 0 -17.5 3.88578e-015
    endloop
  endfacet
  facet normal -1 0 0
    outer loop
      vertex 0 -24.3431 55.01
      vertex 0 -17.5 60
      vertex 0 -24.3431 4.99
    endloop
  endfacet
  facet normal -1 -0 0
    outer loop
      vertex 0 -17.5 60
      vertex 0 -24.3431 55.01
      vertex 0 -26.4602 60
    endloop
  endfacet
  facet normal -1 -0 0
    outer loop
      vertex 0 -5.65685 4.99
      vertex 0 -12.5 2.77556e-015
      vertex 0 -5.65685 55.01
    endloop
  endfacet
  facet normal -1 0 0
    outer loop
      vertex 0 -12.5 2.77556e-015
      vertex 0 -5.65685 4.99
      vertex 0 -3.53977 7.85988e-016
    endloop
  endfacet
  facet normal -1 0 0
    outer loop
      vertex 0 -2.85317 4.99
      vertex 0 -5.65685 4.99
      vertex 0 -2.85317 5
    endloop
  endfacet
  facet normal -1 0 0
    outer loop
      vertex 0 -2.85317 5
      vertex 0 1.22147e-014 55.01
      vertex 0 1.11022e-015 5
    endloop
  endfacet
  facet normal -1 0 0
    outer loop
      vertex 0 -5.65685 55.01
      vertex 0 -2.85317 5
      vertex 0 -5.65685 4.99
    endloop
  endfacet
  facet normal -1 0 0
    outer loop
      vertex 0 -2.85317 5
      vertex 0 -5.65685 55.01
      vertex 0 1.22147e-014 55.01
    endloop
  endfacet
  facet normal -1 0 0
    outer loop
      vertex 0 -5.65685 55.01
      vertex 0 -12.5 60
      vertex 0 -3.53978 60
    endloop
  endfacet
  facet normal -1 0 0
    outer loop
      vertex 0 -12.5 60
      vertex 0 -5.65685 55.01
      vertex 0 -12.5 2.77556e-015
    endloop
  endfacet
  facet normal 0 -1 0
    outer loop
      vertex 19 -25 5.55112e-015
      vertex 19 -25 30
      vertex 11 -25 5.55112e-015
    endloop
  endfacet
  facet normal 0 -1 0
    outer loop
      vertex 11 -25 5.55112e-015
      vertex 19 -25 30
      vertex 11 -25 30
    endloop
  endfacet
  facet normal 0 0 1
    outer loop
      vertex 12.5 1.33227e-014 60
      vertex 3.53977 1.33227e-014 60
      vertex 11 -5 60
    endloop
  endfacet
  facet normal 0 0 1
    outer loop
      vertex 26.4602 1.33227e-014 60
      vertex 17.5 1.33227e-014 60
      vertex 19 -5 60
    endloop
  endfacet
  facet normal -0 0 1
    outer loop
      vertex 19 -5 60
      vertex 18.5334 -7.92681 60
      vertex 26.4602 1.33227e-014 60
    endloop
  endfacet
  facet normal 0 0 1
    outer loop
      vertex 18.5334 -7.92681 60
      vertex 16.3906 -10.7202 60
      vertex 18.0111 -11.6558 60
    endloop
  endfacet
  facet normal 0 0 1
    outer loop
      vertex 11.4666 -7.92681 60
      vertex 18.5334 -7.92681 60
      vertex 19 -5 60
    endloop
  endfacet
  facet normal 0 0 1
    outer loop
      vertex 18.5334 -7.92681 60
      vertex 14.5296 -10.5247 60
      vertex 16.3906 -10.7202 60
    endloop
  endfacet
  facet normal 0 0 1
    outer loop
      vertex 18.5334 -7.92681 60
      vertex 11.4666 -7.92681 60
      vertex 14.5296 -10.5247 60
    endloop
  endfacet
  facet normal 0 0 1
    outer loop
      vertex 14.5296 -10.5247 60
      vertex 11.4666 -7.92681 60
      vertex 12.75 -11.1029 60
    endloop
  endfacet
  facet normal -0 0 1
    outer loop
      vertex 11 -5 60
      vertex 11.4666 -7.92681 60
      vertex 19 -5 60
    endloop
  endfacet
  facet normal 0 0 1
    outer loop
      vertex 11.4666 -7.92681 60
      vertex 11 -5 60
      vertex 3.53977 1.33227e-014 60
    endloop
  endfacet
  facet normal 0 0 1
    outer loop
      vertex 22.0732 -11.4666 60
      vertex 19.309 -14.1013 60
      vertex 19.5 -15 60
    endloop
  endfacet
  facet normal 0 0 1
    outer loop
      vertex 22.0732 -11.4666 60
      vertex 19.111 -13.1697 60
      vertex 19.309 -14.1013 60
    endloop
  endfacet
  facet normal 0 0 1
    outer loop
      vertex 18.0111 -11.6558 60
      vertex 22.0619 -11.4553 60
      vertex 18.5334 -7.92681 60
    endloop
  endfacet
  facet normal 0 0 1
    outer loop
      vertex 22.0619 -11.4553 60
      vertex 18.0111 -11.6558 60
      vertex 19.111 -13.1697 60
    endloop
  endfacet
  facet normal 0 0 1
    outer loop
      vertex 30 -3.53978 60
      vertex 25 -11 60
      vertex 30 -12.5 60
    endloop
  endfacet
  facet normal 0 0 1
    outer loop
      vertex 25 -11 60
      vertex 22.0732 -11.4666 60
      vertex 25 -19 60
    endloop
  endfacet
  facet normal 0 0 1
    outer loop
      vertex 22.0732 -11.4666 60
      vertex 25 -11 60
      vertex 30 -3.53978 60
    endloop
  endfacet
  facet normal -0 0 1
    outer loop
      vertex 25 -19 60
      vertex 30 -26.4602 60
      vertex 30 -17.5 60
    endloop
  endfacet
  facet normal 0 0 1
    outer loop
      vertex 25 -19 60
      vertex 22.0732 -18.5334 60
      vertex 30 -26.4602 60
    endloop
  endfacet
  facet normal 0 0 1
    outer loop
      vertex 22.0732 -11.4666 60
      vertex 22.0732 -18.5334 60
      vertex 25 -19 60
    endloop
  endfacet
  facet normal 0 0 1
    outer loop
      vertex 19.111 -13.1697 60
      vertex 22.0732 -11.4666 60
      vertex 22.0619 -11.4553 60
    endloop
  endfacet
  facet normal 0 0 1
    outer loop
      vertex 22.0732 -11.4666 60
      vertex 19.5 -15 60
      vertex 22.0732 -18.5334 60
    endloop
  endfacet
  facet normal -0 0 1
    outer loop
      vertex 19.302 -15.9316 60
      vertex 22.0732 -18.5334 60
      vertex 19.5 -15 60
    endloop
  endfacet
  facet normal -0 0 1
    outer loop
      vertex 19.111 -16.8303 60
      vertex 22.0732 -18.5334 60
      vertex 19.302 -15.9316 60
    endloop
  endfacet
  facet normal -0 0 1
    outer loop
      vertex 18.0111 -18.3442 60
      vertex 22.0732 -18.5334 60
      vertex 19.111 -16.8303 60
    endloop
  endfacet
  facet normal 0 0 1
    outer loop
      vertex 22.0732 -18.5334 60
      vertex 18.0111 -18.3442 60
      vertex 18.5334 -22.0732 60
    endloop
  endfacet
  facet normal 0 0 1
    outer loop
      vertex 18.5334 -22.0732 60
      vertex 19 -25 60
      vertex 26.4602 -30 60
    endloop
  endfacet
  facet normal -0 0 1
    outer loop
      vertex 16.3906 -19.2798 60
      vertex 18.5334 -22.0732 60
      vertex 18.0111 -18.3442 60
    endloop
  endfacet
  facet normal -0 0 1
    outer loop
      vertex 14.5296 -19.4753 60
      vertex 18.5334 -22.0732 60
      vertex 16.3906 -19.2798 60
    endloop
  endfacet
  facet normal 0 0 1
    outer loop
      vertex 11.4666 -22.0732 60
      vertex 18.5334 -22.0732 60
      vertex 14.5296 -19.4753 60
    endloop
  endfacet
  facet normal 0 0 1
    outer loop
      vertex 11.4666 -22.0732 60
      vertex 14.5296 -19.4753 60
      vertex 12.75 -18.8971 60
    endloop
  endfacet
  facet normal 0 0 1
    outer loop
      vertex 18.5334 -22.0732 60
      vertex 11.4666 -22.0732 60
      vertex 19 -25 60
    endloop
  endfacet
  facet normal 0 0 1
    outer loop
      vertex 11.4666 -22.0732 60
      vertex 11 -25 60
      vertex 19 -25 60
    endloop
  endfacet
  facet normal 0 -0 1
    outer loop
      vertex 11 -25 60
      vertex 11.4666 -22.0732 60
      vertex 3.53978 -30 60
    endloop
  endfacet
  facet normal 0 0 1
    outer loop
      vertex 26.4602 -30 60
      vertex 19 -25 60
      vertex 17.5 -30 60
    endloop
  endfacet
  facet normal 0 0 1
    outer loop
      vertex 12.75 -18.8971 60
      vertex 11.4553 -22.0619 60
      vertex 11.4666 -22.0732 60
    endloop
  endfacet
  facet normal 0 0 1
    outer loop
      vertex 11.3594 -17.645 60
      vertex 11.4553 -22.0619 60
      vertex 12.75 -18.8971 60
    endloop
  endfacet
  facet normal 0 0 1
    outer loop
      vertex 7.92681 -18.5334 60
      vertex 11.3594 -17.645 60
      vertex 10.5983 -15.9356 60
    endloop
  endfacet
  facet normal 0 0 1
    outer loop
      vertex 11.3594 -17.645 60
      vertex 7.92681 -18.5334 60
      vertex 11.4553 -22.0619 60
    endloop
  endfacet
  facet normal -0 0 1
    outer loop
      vertex 11.4553 -7.93812 60
      vertex 12.75 -11.1029 60
      vertex 11.4666 -7.92681 60
    endloop
  endfacet
  facet normal 0 0 1
    outer loop
      vertex 11.4553 -7.93812 60
      vertex 11.3594 -12.355 60
      vertex 12.75 -11.1029 60
    endloop
  endfacet
  facet normal -0 0 1
    outer loop
      vertex 7.92681 -11.4666 60
      vertex 11.3594 -12.355 60
      vertex 11.4553 -7.93812 60
    endloop
  endfacet
  facet normal 0 0 1
    outer loop
      vertex 10.5983 -14.0644 60
      vertex 7.92681 -18.5334 60
      vertex 10.5983 -15.9356 60
    endloop
  endfacet
  facet normal 0 0 1
    outer loop
      vertex 11.3594 -12.355 60
      vertex 7.92681 -11.4666 60
      vertex 10.5983 -14.0644 60
    endloop
  endfacet
  facet normal 0 0 1
    outer loop
      vertex 10.5983 -14.0644 60
      vertex 7.92681 -11.4666 60
      vertex 7.92681 -18.5334 60
    endloop
  endfacet
  facet normal 0 0 1
    outer loop
      vertex 5 -11 60
      vertex 7.92681 -18.5334 60
      vertex 7.92681 -11.4666 60
    endloop
  endfacet
  facet normal 0 0 1
    outer loop
      vertex 5 -19 60
      vertex 7.92681 -18.5334 60
      vertex 5 -11 60
    endloop
  endfacet
  facet normal -0 0 1
    outer loop
      vertex 5 -19 60
      vertex 0 -26.4602 60
      vertex 7.92681 -18.5334 60
    endloop
  endfacet
  facet normal 0 0 1
    outer loop
      vertex 0 -26.4602 60
      vertex 5 -19 60
      vertex 0 -17.5 60
    endloop
  endfacet
  facet normal 0 0 1
    outer loop
      vertex 12.5 -30 60
      vertex 11 -25 60
      vertex 3.53978 -30 60
    endloop
  endfacet
  facet normal 0 0 1
    outer loop
      vertex 0 -3.53978 60
      vertex 5 -11 60
      vertex 7.92681 -11.4666 60
    endloop
  endfacet
  facet normal 0 0 1
    outer loop
      vertex 5 -11 60
      vertex 0 -3.53978 60
      vertex 0 -12.5 60
    endloop
  endfacet
  facet normal -2.38419e-007 -1 0
    outer loop
      vertex 19 -25 30
      vertex 19 -25 60
      vertex 11 -25 30
    endloop
  endfacet
  facet normal 0 -1 -6.35783e-008
    outer loop
      vertex 11 -25 30
      vertex 19 -25 60
      vertex 11 -25 60
    endloop
  endfacet
  facet normal -0.978148 0.207912 -9.38023e-009
    outer loop
      vertex 19.111 -16.8303 3.73708e-015
      vertex 19.302 -15.9316 60
      vertex 19.3066 -15.9097 3.53266e-015
    endloop
  endfacet
  facet normal -0.978148 0.207911 0
    outer loop
      vertex 19.302 -15.9316 60
      vertex 19.111 -16.8303 3.73708e-015
      vertex 19.111 -16.8303 60
    endloop
  endfacet
  facet normal -0.809017 0.587785 0
    outer loop
      vertex 18.0111 -18.3442 4.07322e-015
      vertex 19.111 -16.8303 60
      vertex 19.111 -16.8303 3.73708e-015
    endloop
  endfacet
  facet normal -0.809017 0.587785 0
    outer loop
      vertex 19.111 -16.8303 60
      vertex 18.0111 -18.3442 4.07322e-015
      vertex 18.0111 -18.3442 60
    endloop
  endfacet
  facet normal -0.978148 0.207912 -3.30467e-009
    outer loop
      vertex 19.3066 -15.9097 3.53266e-015
      vertex 19.5 -15 60
      vertex 19.5 -15 3.33067e-015
    endloop
  endfacet
  facet normal -0.978148 0.207912 -9.30861e-009
    outer loop
      vertex 19.5 -15 60
      vertex 19.3066 -15.9097 3.53266e-015
      vertex 19.302 -15.9316 60
    endloop
  endfacet
  facet normal 1 -0 0
    outer loop
      vertex 10.5983 -15.9356 60
      vertex 10.5983 -14.0644 3.12292e-015
      vertex 10.5983 -14.0644 60
    endloop
  endfacet
  facet normal 1 0 0
    outer loop
      vertex 10.5983 -14.0644 3.12292e-015
      vertex 10.5983 -15.9356 60
      vertex 10.5983 -15.9356 3.53841e-015
    endloop
  endfacet
  facet normal -0.104529 0.994522 -3.1615e-008
    outer loop
      vertex 16.3906 -19.2798 60
      vertex 14.5296 -19.4753 4.3244e-015
      vertex 14.5296 -19.4753 60
    endloop
  endfacet
  facet normal -0.104529 0.994522 -3.1615e-008
    outer loop
      vertex 14.5296 -19.4753 4.3244e-015
      vertex 16.3906 -19.2798 60
      vertex 16.3906 -19.2798 4.28097e-015
    endloop
  endfacet
  facet normal -0.5 -0.866026 0
    outer loop
      vertex 16.3906 -10.7202 60
      vertex 18.0111 -11.6558 2.58812e-015
      vertex 18.0111 -11.6558 60
    endloop
  endfacet
  facet normal -0.5 -0.866026 0
    outer loop
      vertex 18.0111 -11.6558 2.58812e-015
      vertex 16.3906 -10.7202 60
      vertex 16.3906 -10.7202 2.38037e-015
    endloop
  endfacet
  facet normal 0.66913 0.743145 -0
    outer loop
      vertex 12.75 -18.8971 4.196e-015
      vertex 11.3594 -17.645 60
      vertex 12.75 -18.8971 60
    endloop
  endfacet
  facet normal 0.66913 0.743145 0
    outer loop
      vertex 11.3594 -17.645 60
      vertex 12.75 -18.8971 4.196e-015
      vertex 11.3594 -17.645 3.91798e-015
    endloop
  endfacet
  facet normal 0.309017 0.951057 -3.02333e-008
    outer loop
      vertex 14.5296 -19.4753 4.3244e-015
      vertex 12.75 -18.8971 60
      vertex 14.5296 -19.4753 60
    endloop
  endfacet
  facet normal 0.309018 0.951056 0
    outer loop
      vertex 12.75 -18.8971 60
      vertex 14.5296 -19.4753 4.3244e-015
      vertex 12.75 -18.8971 4.196e-015
    endloop
  endfacet
  facet normal -0.809017 -0.587785 0
    outer loop
      vertex 19.111 -13.1697 2.92426e-015
      vertex 18.0111 -11.6558 60
      vertex 18.0111 -11.6558 2.58812e-015
    endloop
  endfacet
  facet normal -0.809017 -0.587785 0
    outer loop
      vertex 18.0111 -11.6558 60
      vertex 19.111 -13.1697 2.92426e-015
      vertex 19.111 -13.1697 60
    endloop
  endfacet
  facet normal -0.5 0.866026 -2.75302e-008
    outer loop
      vertex 18.0111 -18.3442 60
      vertex 16.3906 -19.2798 4.28097e-015
      vertex 16.3906 -19.2798 60
    endloop
  endfacet
  facet normal -0.5 0.866025 0
    outer loop
      vertex 16.3906 -19.2798 4.28097e-015
      vertex 18.0111 -18.3442 60
      vertex 18.0111 -18.3442 4.07322e-015
    endloop
  endfacet
  facet normal 0.913545 0.406737 0
    outer loop
      vertex 11.3594 -17.645 60
      vertex 10.5983 -15.9356 3.53841e-015
      vertex 10.5983 -15.9356 60
    endloop
  endfacet
  facet normal 0.913545 0.406737 0
    outer loop
      vertex 10.5983 -15.9356 3.53841e-015
      vertex 11.3594 -17.645 60
      vertex 11.3594 -17.645 3.91798e-015
    endloop
  endfacet
  facet normal 0.309017 -0.951056 0
    outer loop
      vertex 12.75 -11.1029 2.46534e-015
      vertex 14.5296 -10.5247 60
      vertex 12.75 -11.1029 60
    endloop
  endfacet
  facet normal 0.309017 -0.951056 0
    outer loop
      vertex 14.5296 -10.5247 60
      vertex 12.75 -11.1029 2.46534e-015
      vertex 14.5296 -10.5247 2.33694e-015
    endloop
  endfacet
  facet normal 0.669131 -0.743145 0
    outer loop
      vertex 11.3594 -12.355 2.74335e-015
      vertex 12.75 -11.1029 60
      vertex 11.3594 -12.355 60
    endloop
  endfacet
  facet normal 0.669131 -0.743145 0
    outer loop
      vertex 12.75 -11.1029 60
      vertex 11.3594 -12.355 2.74335e-015
      vertex 12.75 -11.1029 2.46534e-015
    endloop
  endfacet
  facet normal 0.913545 -0.406737 0
    outer loop
      vertex 10.5983 -14.0644 60
      vertex 11.3594 -12.355 2.74335e-015
      vertex 11.3594 -12.355 60
    endloop
  endfacet
  facet normal 0.913545 -0.406737 0
    outer loop
      vertex 11.3594 -12.355 2.74335e-015
      vertex 10.5983 -14.0644 60
      vertex 10.5983 -14.0644 3.12292e-015
    endloop
  endfacet
  facet normal -0.104529 -0.994522 0
    outer loop
      vertex 14.5296 -10.5247 60
      vertex 16.3906 -10.7202 2.38037e-015
      vertex 16.3906 -10.7202 60
    endloop
  endfacet
  facet normal -0.104529 -0.994522 0
    outer loop
      vertex 16.3906 -10.7202 2.38037e-015
      vertex 14.5296 -10.5247 60
      vertex 14.5296 -10.5247 2.33694e-015
    endloop
  endfacet
  facet normal -0.978148 -0.207912 0
    outer loop
      vertex 19.3043 -14.0794 3.12624e-015
      vertex 19.111 -13.1697 60
      vertex 19.111 -13.1697 2.92426e-015
    endloop
  endfacet
  facet normal -0.978147 -0.207912 9.2307e-009
    outer loop
      vertex 19.111 -13.1697 60
      vertex 19.3043 -14.0794 3.12624e-015
      vertex 19.309 -14.1013 60
    endloop
  endfacet
  facet normal -0.978148 -0.207911 9.60949e-009
    outer loop
      vertex 19.3043 -14.0794 3.12624e-015
      vertex 19.5 -15 60
      vertex 19.309 -14.1013 60
    endloop
  endfacet
  facet normal -0.978148 -0.207912 3.30467e-009
    outer loop
      vertex 19.5 -15 60
      vertex 19.3043 -14.0794 3.12624e-015
      vertex 19.5 -15 3.33067e-015
    endloop
  endfacet
endsolid OpenSCAD_Model
