solid OpenSCAD_Model
  facet normal 0 -1 0
    outer loop
      vertex -2.0910022258758545 -10.25 4.800000190734863
      vertex 2.1030492782592773 -10.25 5
      vertex -2.1030492782592773 -10.25 5
    endloop
  endfacet
  facet normal 0 -1 0
    outer loop
      vertex -2.0910022258758545 -10.25 4.800000190734863
      vertex 2.0910022258758545 -10.25 4.800000190734863
      vertex 2.1030492782592773 -10.25 5
    endloop
  endfacet
  facet normal 0 -1 0
    outer loop
      vertex -2.1280324459075928 -10.25 4.18524169921875
      vertex 2.0910022258758545 -10.25 4.800000190734863
      vertex -2.0910022258758545 -10.25 4.800000190734863
    endloop
  endfacet
  facet normal 0 -1 0
    outer loop
      vertex -2.1280324459075928 -10.25 4.18524169921875
      vertex 2.1280324459075928 -10.25 4.18524169921875
      vertex 2.0910022258758545 -10.25 4.800000190734863
    endloop
  endfacet
  facet normal 0 -1 0
    outer loop
      vertex -2.1635360717773438 -10.25 3.595832586288452
      vertex 2.1280324459075928 -10.25 4.18524169921875
      vertex -2.1280324459075928 -10.25 4.18524169921875
    endloop
  endfacet
  facet normal 0 -1 0
    outer loop
      vertex -2.1635360717773438 -10.25 3.595832586288452
      vertex 2.1635360717773438 -10.25 3.595832586288452
      vertex 2.1280324459075928 -10.25 4.18524169921875
    endloop
  endfacet
  facet normal 0 -1 0
    outer loop
      vertex -2.2718522548675537 -10.25 3.0008161067962646
      vertex 2.1635360717773438 -10.25 3.595832586288452
      vertex -2.1635360717773438 -10.25 3.595832586288452
    endloop
  endfacet
  facet normal 0 -1 0
    outer loop
      vertex -2.2718522548675537 -10.25 3.0008161067962646
      vertex 2.2718522548675537 -10.25 3.0008161067962646
      vertex 2.1635360717773438 -10.25 3.595832586288452
    endloop
  endfacet
  facet normal 0 -1 0
    outer loop
      vertex -2.380340099334717 -10.25 2.404857873916626
      vertex 2.2718522548675537 -10.25 3.0008161067962646
      vertex -2.2718522548675537 -10.25 3.0008161067962646
    endloop
  endfacet
  facet normal 0 -1 0
    outer loop
      vertex -2.380340099334717 -10.25 2.404857873916626
      vertex 2.380340099334717 -10.25 2.404857873916626
      vertex 2.2718522548675537 -10.25 3.0008161067962646
    endloop
  endfacet
  facet normal 0 -1 0
    outer loop
      vertex -2.5527350902557373 -10.25 1.8450742959976196
      vertex 2.380340099334717 -10.25 2.404857873916626
      vertex -2.380340099334717 -10.25 2.404857873916626
    endloop
  endfacet
  facet normal 0 -1 0
    outer loop
      vertex -2.5527350902557373 -10.25 1.8450742959976196
      vertex 2.5527350902557373 -10.25 1.8450742959976196
      vertex 2.380340099334717 -10.25 2.404857873916626
    endloop
  endfacet
  facet normal 0 -1 0
    outer loop
      vertex -2.7390403747558594 -10.25 1.2401248216629028
      vertex 2.5527350902557373 -10.25 1.8450742959976196
      vertex -2.5527350902557373 -10.25 1.8450742959976196
    endloop
  endfacet
  facet normal 0 -1 0
    outer loop
      vertex -2.7390403747558594 -10.25 1.2401248216629028
      vertex 2.7390403747558594 -10.25 1.2401248216629028
      vertex 2.5527350902557373 -10.25 1.8450742959976196
    endloop
  endfacet
  facet normal 0 -1 0
    outer loop
      vertex -2.8473777770996094 -10.25 0.9945703148841858
      vertex 2.7390403747558594 -10.25 1.2401248216629028
      vertex -2.7390403747558594 -10.25 1.2401248216629028
    endloop
  endfacet
  facet normal 0 -1 0
    outer loop
      vertex 2.7390403747558594 -10.25 1.2401248216629028
      vertex -2.8473777770996094 -10.25 0.9945703148841858
      vertex 2.8473777770996094 -10.25 0.9945703148841858
    endloop
  endfacet
  facet normal 0 1 0
    outer loop
      vertex 2.0910024642944336 10.25 4.800000190734863
      vertex -2.1030495166778564 10.25 5
      vertex 2.1030495166778564 10.25 5
    endloop
  endfacet
  facet normal 0 1 0
    outer loop
      vertex 2.0910024642944336 10.25 4.800000190734863
      vertex -2.0910024642944336 10.25 4.800000190734863
      vertex -2.1030495166778564 10.25 5
    endloop
  endfacet
  facet normal 0 1 0
    outer loop
      vertex 2.128032684326172 10.25 4.18524169921875
      vertex -2.0910024642944336 10.25 4.800000190734863
      vertex 2.0910024642944336 10.25 4.800000190734863
    endloop
  endfacet
  facet normal 0 1 0
    outer loop
      vertex 2.128032684326172 10.25 4.18524169921875
      vertex -2.128032684326172 10.25 4.18524169921875
      vertex -2.0910024642944336 10.25 4.800000190734863
    endloop
  endfacet
  facet normal 0 1 0
    outer loop
      vertex 2.163536310195923 10.25 3.595832586288452
      vertex -2.128032684326172 10.25 4.18524169921875
      vertex 2.128032684326172 10.25 4.18524169921875
    endloop
  endfacet
  facet normal 0 1 0
    outer loop
      vertex 2.163536310195923 10.25 3.595832586288452
      vertex -2.163536310195923 10.25 3.595832586288452
      vertex -2.128032684326172 10.25 4.18524169921875
    endloop
  endfacet
  facet normal 0 1 0
    outer loop
      vertex 2.271852493286133 10.25 3.0008161067962646
      vertex -2.163536310195923 10.25 3.595832586288452
      vertex 2.163536310195923 10.25 3.595832586288452
    endloop
  endfacet
  facet normal 0 1 0
    outer loop
      vertex 2.271852493286133 10.25 3.0008161067962646
      vertex -2.271852493286133 10.25 3.0008161067962646
      vertex -2.163536310195923 10.25 3.595832586288452
    endloop
  endfacet
  facet normal 0 1 0
    outer loop
      vertex 2.380340337753296 10.25 2.404857873916626
      vertex -2.271852493286133 10.25 3.0008161067962646
      vertex 2.271852493286133 10.25 3.0008161067962646
    endloop
  endfacet
  facet normal 0 1 0
    outer loop
      vertex 2.380340337753296 10.25 2.404857873916626
      vertex -2.380340337753296 10.25 2.404857873916626
      vertex -2.271852493286133 10.25 3.0008161067962646
    endloop
  endfacet
  facet normal 0 1 0
    outer loop
      vertex 2.5527353286743164 10.25 1.8450744152069092
      vertex -2.380340337753296 10.25 2.404857873916626
      vertex 2.380340337753296 10.25 2.404857873916626
    endloop
  endfacet
  facet normal 0 1 0
    outer loop
      vertex 2.5527353286743164 10.25 1.8450744152069092
      vertex -2.5527353286743164 10.25 1.8450744152069092
      vertex -2.380340337753296 10.25 2.404857873916626
    endloop
  endfacet
  facet normal 0 1 0
    outer loop
      vertex 2.7390406131744385 10.25 1.2401248216629028
      vertex -2.5527353286743164 10.25 1.8450744152069092
      vertex 2.5527353286743164 10.25 1.8450744152069092
    endloop
  endfacet
  facet normal 0 1 0
    outer loop
      vertex 2.7390406131744385 10.25 1.2401248216629028
      vertex -2.7390406131744385 10.25 1.2401248216629028
      vertex -2.5527353286743164 10.25 1.8450744152069092
    endloop
  endfacet
  facet normal 0 1 0
    outer loop
      vertex 2.8473780155181885 10.25 0.9945703148841858
      vertex -2.7390406131744385 10.25 1.2401248216629028
      vertex 2.7390406131744385 10.25 1.2401248216629028
    endloop
  endfacet
  facet normal 0 1 0
    outer loop
      vertex -2.7390406131744385 10.25 1.2401248216629028
      vertex 2.8473780155181885 10.25 0.9945703148841858
      vertex -2.8473780155181885 10.25 0.9945703148841858
    endloop
  endfacet
  facet normal -0.954479897050668 0 -0.2982752522857811
    outer loop
      vertex -2.5 4.5 4.800000190734863
      vertex -2.5625 9.264705657958984 5
      vertex -2.5 9.372901916503906 4.800000190734863
    endloop
  endfacet
  facet normal -0.9544798970506679 0 -0.29827525228578106
    outer loop
      vertex -2.5625 9.264705657958984 5
      vertex -2.5 4.5 4.800000190734863
      vertex -2.5625 4.5 5
    endloop
  endfacet
  facet normal -0.9544798970506679 0 -0.29827525228578106
    outer loop
      vertex -2.5 -4.5 4.800000190734863
      vertex -2.5625 -9.264704704284668 5
      vertex -2.5625 -4.5 5
    endloop
  endfacet
  facet normal -0.9544798970506678 0 -0.29827525228578106
    outer loop
      vertex -2.5625 -9.264704704284668 5
      vertex -2.5 -4.5 4.800000190734863
      vertex -2.5 -9.37290096282959 4.800000190734863
    endloop
  endfacet
  facet normal 0.9544798970506679 0 -0.29827525228578106
    outer loop
      vertex 2.5 4.5 4.800000190734863
      vertex 2.5625 9.264705657958984 5
      vertex 2.5625 4.5 5
    endloop
  endfacet
  facet normal 0.954479897050668 0 -0.2982752522857811
    outer loop
      vertex 2.5625 9.264705657958984 5
      vertex 2.5 4.5 4.800000190734863
      vertex 2.5 9.372901916503906 4.800000190734863
    endloop
  endfacet
  facet normal 0.9544798970506679 0 -0.29827525228578106
    outer loop
      vertex 2.5625 -9.264704704284668 5
      vertex 2.5 -4.5 4.800000190734863
      vertex 2.5625 -4.5 5
    endloop
  endfacet
  facet normal 0.9544798970506678 0 -0.29827525228578106
    outer loop
      vertex 2.5 -4.5 4.800000190734863
      vertex 2.5625 -9.264704704284668 5
      vertex 2.5 -9.37290096282959 4.800000190734863
    endloop
  endfacet
  facet normal 0.9049602896489771 0.4219898952492417 -0.05451057205692626
    outer loop
      vertex 2.1030495166778564 10.25 5
      vertex 2.5 9.372901916503906 4.800000190734863
      vertex 2.0910024642944336 10.25 4.800000190734863
    endloop
  endfacet
  facet normal 0.9049601765496227 0.4219900315693768 -0.05451139436257368
    outer loop
      vertex 2.5 9.372901916503906 4.800000190734863
      vertex 2.1030495166778564 10.25 5
      vertex 2.5625 9.264705657958984 5
    endloop
  endfacet
  facet normal -0.9049602896489771 0.4219898952492417 -0.05451057205692626
    outer loop
      vertex -2.5 9.372901916503906 4.800000190734863
      vertex -2.1030495166778564 10.25 5
      vertex -2.0910024642944336 10.25 4.800000190734863
    endloop
  endfacet
  facet normal -0.9049601765496227 0.4219900315693768 -0.05451139436257368
    outer loop
      vertex -2.1030495166778564 10.25 5
      vertex -2.5 9.372901916503906 4.800000190734863
      vertex -2.5625 9.264705657958984 5
    endloop
  endfacet
  facet normal 0.9049602438480414 -0.42198987348334 -0.0545115009150197
    outer loop
      vertex 2.1030492782592773 -10.25 5
      vertex 2.5 -9.37290096282959 4.800000190734863
      vertex 2.5625 -9.264704704284668 5
    endloop
  endfacet
  facet normal 0.9049603709291003 -0.42198972031097076 -0.05451057695286044
    outer loop
      vertex 2.5 -9.37290096282959 4.800000190734863
      vertex 2.1030492782592773 -10.25 5
      vertex 2.0910022258758545 -10.25 4.800000190734863
    endloop
  endfacet
  facet normal -0.9049603709291003 -0.42198972031097076 -0.05451057695286044
    outer loop
      vertex -2.1030492782592773 -10.25 5
      vertex -2.5 -9.37290096282959 4.800000190734863
      vertex -2.0910022258758545 -10.25 4.800000190734863
    endloop
  endfacet
  facet normal -0.9049602438480414 -0.42198987348334 -0.0545115009150197
    outer loop
      vertex -2.5 -9.37290096282959 4.800000190734863
      vertex -2.1030492782592773 -10.25 5
      vertex -2.5625 -9.264704704284668 5
    endloop
  endfacet
  facet normal 0 0.6925318523755222 -0.7213872978125745
    outer loop
      vertex 3.28324294090271 9.764782905578613 0.519486665725708
      vertex -2.8880715370178223 10.208868026733398 0.9458084106445312
      vertex 2.8880715370178223 10.208868026733398 0.9458084106445312
    endloop
  endfacet
  facet normal 0 0.6925318523755222 -0.7213872978125745
    outer loop
      vertex -2.8880715370178223 10.208868026733398 0.9458084106445312
      vertex 3.28324294090271 9.764782905578613 0.519486665725708
      vertex -3.28324294090271 9.764782905578613 0.519486665725708
    endloop
  endfacet
  facet normal 0 0.52904098666129 -0.8485962729310381
    outer loop
      vertex -2.935335397720337 9.052046775817871 0
      vertex 3.159999370574951 9.276711463928223 0.1400628685951233
      vertex 2.935335397720337 9.052046775817871 0
    endloop
  endfacet
  facet normal 0 0.52904098666129 -0.8485962729310381
    outer loop
      vertex 3.159999370574951 9.276711463928223 0.1400628685951233
      vertex -2.935335397720337 9.052046775817871 0
      vertex -3.159999370574951 9.276711463928223 0.1400628685951233
    endloop
  endfacet
  facet normal 0 0.764375563065223 -0.6447712761815024
    outer loop
      vertex 2.8880715370178223 10.208868026733398 0.9458084106445312
      vertex -2.8473780155181885 10.25 0.9945703148841858
      vertex 2.8473780155181885 10.25 0.9945703148841858
    endloop
  endfacet
  facet normal 0 0.764375563065223 -0.6447712761815024
    outer loop
      vertex -2.8473780155181885 10.25 0.9945703148841858
      vertex 2.8880715370178223 10.208868026733398 0.9458084106445312
      vertex -2.8880715370178223 10.208868026733398 0.9458084106445312
    endloop
  endfacet
  facet normal -9.942753929706765e-7 0.6137513617350443 -0.7894993767998745
    outer loop
      vertex 3.409153938293457 9.476521492004395 0.2953939735889435
      vertex 3.289926052093506 9.756525039672852 0.5130669474601746
      vertex 3.468501091003418 9.535868644714355 0.3415299654006958
    endloop
  endfacet
  facet normal 1.4713111567571803e-7 0.6137516646763452 -0.789499141295919
    outer loop
      vertex 3.159999370574951 9.276711463928223 0.1400628685951233
      vertex 3.289926052093506 9.756525039672852 0.5130669474601746
      vertex 3.409153938293457 9.476521492004395 0.2953939735889435
    endloop
  endfacet
  facet normal -0.000009281360903598097 0.613753256019399 -0.7894979041387269
    outer loop
      vertex 3.289926052093506 9.756525039672852 0.5130669474601746
      vertex 3.159999370574951 9.276711463928223 0.1400628685951233
      vertex 3.28324294090271 9.764782905578613 0.519486665725708
    endloop
  endfacet
  facet normal 0 0.6137517952301104 -0.7894990398042397
    outer loop
      vertex -3.159999370574951 9.276711463928223 0.1400628685951233
      vertex 3.28324294090271 9.764782905578613 0.519486665725708
      vertex 3.159999370574951 9.276711463928223 0.1400628685951233
    endloop
  endfacet
  facet normal 0 0.6137517952301104 -0.7894990398042399
    outer loop
      vertex -3.159999370574951 9.276711463928223 0.1400628685951233
      vertex -3.28324294090271 9.764782905578613 0.519486665725708
      vertex 3.28324294090271 9.764782905578613 0.519486665725708
    endloop
  endfacet
  facet normal 0.000009281360903598097 0.613753256019399 -0.7894979041387269
    outer loop
      vertex -3.159999370574951 9.276711463928223 0.1400628685951233
      vertex -3.289926052093506 9.756525039672852 0.5130669474601746
      vertex -3.28324294090271 9.764782905578613 0.519486665725708
    endloop
  endfacet
  facet normal -1.4713111567571803e-7 0.6137516646763452 -0.789499141295919
    outer loop
      vertex -3.409153938293457 9.476521492004395 0.2953939735889435
      vertex -3.289926052093506 9.756525039672852 0.5130669474601746
      vertex -3.159999370574951 9.276711463928223 0.1400628685951233
    endloop
  endfacet
  facet normal 9.942753929706765e-7 0.6137513617350443 -0.7894993767998745
    outer loop
      vertex -3.289926052093506 9.756525039672852 0.5130669474601746
      vertex -3.409153938293457 9.476521492004395 0.2953939735889435
      vertex -3.468501091003418 9.535868644714355 0.3415299654006958
    endloop
  endfacet
  facet normal 0 0 -1
    outer loop
      vertex -2.935335397720337 -9.052046775817871 0
      vertex 2.935335397720337 9.052046775817871 0
      vertex 2.935335397720337 -9.052046775817871 0
    endloop
  endfacet
  facet normal 0 0 -1
    outer loop
      vertex 2.935335397720337 9.052046775817871 0
      vertex -2.935335397720337 -9.052046775817871 0
      vertex -2.935335397720337 9.052046775817871 0
    endloop
  endfacet
  facet normal -0.9544799916820554 -9.226355611007645e-8 0.29827494946544647
    outer loop
      vertex -3.8102493286132812 8.55162239074707 0.607202410697937
      vertex -2.625 4.5 4.399999618530273
      vertex -3.6124610900878906 8.376944541931152 1.2401248216629028
    endloop
  endfacet
  facet normal -0.9544799636223487 0 0.29827503925652216
    outer loop
      vertex -3.8102493286132812 8.55162239074707 0.607202410697937
      vertex -2.625 -4.5 4.399999618530273
      vertex -2.625 4.5 4.399999618530273
    endloop
  endfacet
  facet normal -0.9544799758686594 4.699238000866038e-8 0.29827500006832824
    outer loop
      vertex -3.301762819290161 -8.386606216430664 2.2343592643737793
      vertex -2.625 -4.5 4.399999618530273
      vertex -3.6124610900878906 -8.376943588256836 1.2401248216629028
    endloop
  endfacet
  facet normal -0.9544799636223488 0 0.2982750392565222
    outer loop
      vertex -3.8102493286132812 -8.551621437072754 0.607202410697937
      vertex -2.625 -4.5 4.399999618530273
      vertex -3.8102493286132812 8.55162239074707 0.607202410697937
    endloop
  endfacet
  facet normal -0.9544799916820579 9.226358539241668e-8 0.29827494946543914
    outer loop
      vertex -2.625 -4.5 4.399999618530273
      vertex -3.8102493286132812 -8.551621437072754 0.607202410697937
      vertex -3.6124610900878906 -8.376943588256836 1.2401248216629028
    endloop
  endfacet
  facet normal -0.9544799758686594 -4.699236854003432e-8 0.29827500006832813
    outer loop
      vertex -2.625 4.5 4.399999618530273
      vertex -3.301762819290161 8.38660717010498 2.2343592643737793
      vertex -3.6124610900878906 8.376944541931152 1.2401248216629028
    endloop
  endfacet
  facet normal -0.9544799542727074 -4.725084126306626e-9 0.2982750691753675
    outer loop
      vertex -2.625 4.5 4.399999618530273
      vertex -3.2484819889068604 8.388264656066895 2.404857873916626
      vertex -3.301762819290161 8.38660717010498 2.2343592643737793
    endloop
  endfacet
  facet normal -0.9544797921591486 2.8745662734906863e-7 0.29827558793797704
    outer loop
      vertex -2.625 4.5 4.399999618530273
      vertex -3.187871217727661 8.442527770996094 2.5988118648529053
      vertex -3.2484819889068604 8.388264656066895 2.404857873916626
    endloop
  endfacet
  facet normal -0.9544799772706924 -9.596094263533131e-9 0.2982749955818264
    outer loop
      vertex -2.625 4.5 4.399999618530273
      vertex -2.8763022422790527 8.721467971801758 3.595832586288452
      vertex -3.187871217727661 8.442527770996094 2.5988118648529053
    endloop
  endfacet
  facet normal -0.9544800995111727 -9.138877626475702e-8 0.29827460441199727
    outer loop
      vertex -2.5 4.5 4.800000190734863
      vertex -2.8763022422790527 8.721467971801758 3.595832586288452
      vertex -2.625 4.5 4.399999618530273
    endloop
  endfacet
  facet normal -0.9544800032756332 5.03310584323449e-9 0.2982749123660034
    outer loop
      vertex -2.8763022422790527 8.721467971801758 3.595832586288452
      vertex -2.5 4.5 4.800000190734863
      vertex -2.617696762084961 9.169151306152344 4.423370361328125
    endloop
  endfacet
  facet normal -0.9544800210397175 0 0.2982748555209108
    outer loop
      vertex -2.617696762084961 9.169151306152344 4.423370361328125
      vertex -2.5 4.5 4.800000190734863
      vertex -2.5 9.372901916503906 4.800000190734863
    endloop
  endfacet
  facet normal -0.9544799542727074 4.725085279475582e-9 0.2982750691753675
    outer loop
      vertex -3.2484819889068604 -8.388263702392578 2.404857873916626
      vertex -2.625 -4.5 4.399999618530273
      vertex -3.301762819290161 -8.386606216430664 2.2343592643737793
    endloop
  endfacet
  facet normal -0.9544797921591535 -2.8745668900273905e-7 0.29827558793796133
    outer loop
      vertex -3.187871217727661 -8.442526817321777 2.5988118648529053
      vertex -2.625 -4.5 4.399999618530273
      vertex -3.2484819889068604 -8.388263702392578 2.404857873916626
    endloop
  endfacet
  facet normal -0.9544799772706898 9.596092603476438e-9 0.2982749955818343
    outer loop
      vertex -2.8763022422790527 -8.721467971801758 3.595832586288452
      vertex -2.625 -4.5 4.399999618530273
      vertex -3.187871217727661 -8.442526817321777 2.5988118648529053
    endloop
  endfacet
  facet normal -0.9544800995111727 9.138877626475702e-8 0.29827460441199727
    outer loop
      vertex -2.625 -4.5 4.399999618530273
      vertex -2.8763022422790527 -8.721467971801758 3.595832586288452
      vertex -2.5 -4.5 4.800000190734863
    endloop
  endfacet
  facet normal -0.9544800032756332 -5.03310584323449e-9 0.2982749123660034
    outer loop
      vertex -2.617696762084961 -9.169151306152344 4.423370361328125
      vertex -2.5 -4.5 4.800000190734863
      vertex -2.8763022422790527 -8.721467971801758 3.595832586288452
    endloop
  endfacet
  facet normal -0.9544800210397177 0 0.2982748555209109
    outer loop
      vertex -2.5 -4.5 4.800000190734863
      vertex -2.617696762084961 -9.169151306152344 4.423370361328125
      vertex -2.5 -9.37290096282959 4.800000190734863
    endloop
  endfacet
  facet normal 0.9544800995111727 9.138877626475702e-8 0.29827460441199727
    outer loop
      vertex 2.8763022422790527 -8.721467971801758 3.595832586288452
      vertex 2.625 -4.5 4.399999618530273
      vertex 2.5 -4.5 4.800000190734863
    endloop
  endfacet
  facet normal 0.9544799758686594 4.699238000866038e-8 0.29827500006832824
    outer loop
      vertex 2.625 -4.5 4.399999618530273
      vertex 3.301762819290161 -8.386606216430664 2.2343592643737793
      vertex 3.6124610900878906 -8.376943588256836 1.2401248216629028
    endloop
  endfacet
  facet normal 0.9544799542727074 4.725085279475582e-9 0.2982750691753675
    outer loop
      vertex 2.625 -4.5 4.399999618530273
      vertex 3.2484819889068604 -8.388263702392578 2.404857873916626
      vertex 3.301762819290161 -8.386606216430664 2.2343592643737793
    endloop
  endfacet
  facet normal 0.9544797921591535 -2.8745668900273905e-7 0.29827558793796133
    outer loop
      vertex 2.625 -4.5 4.399999618530273
      vertex 3.187871217727661 -8.442526817321777 2.5988118648529053
      vertex 3.2484819889068604 -8.388263702392578 2.404857873916626
    endloop
  endfacet
  facet normal 0.9544799772706898 9.596092603476438e-9 0.2982749955818343
    outer loop
      vertex 2.625 -4.5 4.399999618530273
      vertex 2.8763022422790527 -8.721467971801758 3.595832586288452
      vertex 3.187871217727661 -8.442526817321777 2.5988118648529053
    endloop
  endfacet
  facet normal 0.9544800032756332 -5.03310584323449e-9 0.2982749123660034
    outer loop
      vertex 2.5 -4.5 4.800000190734863
      vertex 2.617696762084961 -9.169151306152344 4.423370361328125
      vertex 2.8763022422790527 -8.721467971801758 3.595832586288452
    endloop
  endfacet
  facet normal 0.9544800210397177 0 0.2982748555209109
    outer loop
      vertex 2.617696762084961 -9.169151306152344 4.423370361328125
      vertex 2.5 -4.5 4.800000190734863
      vertex 2.5 -9.37290096282959 4.800000190734863
    endloop
  endfacet
  facet normal 0.9544799542727074 -4.725084126306626e-9 0.2982750691753675
    outer loop
      vertex 3.2484819889068604 8.388264656066895 2.404857873916626
      vertex 2.625 4.5 4.399999618530273
      vertex 3.301762819290161 8.38660717010498 2.2343592643737793
    endloop
  endfacet
  facet normal 0.9544797921591486 2.8745662734906863e-7 0.29827558793797704
    outer loop
      vertex 3.187871217727661 8.442527770996094 2.5988118648529053
      vertex 2.625 4.5 4.399999618530273
      vertex 3.2484819889068604 8.388264656066895 2.404857873916626
    endloop
  endfacet
  facet normal 0.9544799772706924 -9.596094263533131e-9 0.2982749955818264
    outer loop
      vertex 2.8763022422790527 8.721467971801758 3.595832586288452
      vertex 2.625 4.5 4.399999618530273
      vertex 3.187871217727661 8.442527770996094 2.5988118648529053
    endloop
  endfacet
  facet normal 0.9544800995111727 -9.138877626475702e-8 0.29827460441199727
    outer loop
      vertex 2.625 4.5 4.399999618530273
      vertex 2.8763022422790527 8.721467971801758 3.595832586288452
      vertex 2.5 4.5 4.800000190734863
    endloop
  endfacet
  facet normal 0.9544800032756332 5.03310584323449e-9 0.2982749123660034
    outer loop
      vertex 2.617696762084961 9.169151306152344 4.423370361328125
      vertex 2.5 4.5 4.800000190734863
      vertex 2.8763022422790527 8.721467971801758 3.595832586288452
    endloop
  endfacet
  facet normal 0.9544800210397175 0 0.2982748555209108
    outer loop
      vertex 2.5 4.5 4.800000190734863
      vertex 2.617696762084961 9.169151306152344 4.423370361328125
      vertex 2.5 9.372901916503906 4.800000190734863
    endloop
  endfacet
  facet normal 0.9544799758686594 -4.699236854003432e-8 0.29827500006832813
    outer loop
      vertex 3.301762819290161 8.38660717010498 2.2343592643737793
      vertex 2.625 4.5 4.399999618530273
      vertex 3.6124610900878906 8.376944541931152 1.2401248216629028
    endloop
  endfacet
  facet normal 0.9544799916820554 -9.226355611007645e-8 0.29827494946544647
    outer loop
      vertex 3.6124610900878906 8.376944541931152 1.2401248216629028
      vertex 2.625 4.5 4.399999618530273
      vertex 3.8102493286132812 8.55162239074707 0.607202410697937
    endloop
  endfacet
  facet normal 0.9544799636223487 0 0.29827503925652216
    outer loop
      vertex 2.625 -4.5 4.399999618530273
      vertex 3.8102493286132812 8.55162239074707 0.607202410697937
      vertex 2.625 4.5 4.399999618530273
    endloop
  endfacet
  facet normal 0.9544799916820579 9.226358539241668e-8 0.29827494946543914
    outer loop
      vertex 3.8102493286132812 -8.551621437072754 0.607202410697937
      vertex 2.625 -4.5 4.399999618530273
      vertex 3.6124610900878906 -8.376943588256836 1.2401248216629028
    endloop
  endfacet
  facet normal 0.9544799636223488 0 0.2982750392565222
    outer loop
      vertex 2.625 -4.5 4.399999618530273
      vertex 3.8102493286132812 -8.551621437072754 0.607202410697937
      vertex 3.8102493286132812 8.55162239074707 0.607202410697937
    endloop
  endfacet
  facet normal -0.6137509670604894 -1.222594597714189e-7 -0.7894996836176055
    outer loop
      vertex -3.5575199127197266 -9.27949047088623 0.4107325077056885
      vertex -3.409153938293457 -9.476521492004395 0.2953939735889435
      vertex -3.468500852584839 -9.535868644714355 0.34152981638908386
    endloop
  endfacet
  facet normal -0.613750773264339 1.1186179738402272e-7 -0.789499834273202
    outer loop
      vertex -3.8102493286132812 -8.551621437072754 0.607202410697937
      vertex -3.409153938293457 -9.476521492004395 0.2953939735889435
      vertex -3.5575199127197266 -9.27949047088623 0.4107325077056885
    endloop
  endfacet
  facet normal -0.6137509340446711 0 -0.7894997092838565
    outer loop
      vertex -3.409153938293457 -9.476521492004395 0.2953939735889435
      vertex -3.8102493286132812 -8.551621437072754 0.607202410697937
      vertex -3.409153938293457 9.476521492004395 0.2953939735889435
    endloop
  endfacet
  facet normal -0.6137507952004648 -8.536161956205193e-8 -0.7894998172202384
    outer loop
      vertex -3.409153938293457 9.476521492004395 0.2953939735889435
      vertex -3.5575199127197266 9.279491424560547 0.4107325077056885
      vertex -3.468501091003418 9.535868644714355 0.3415299654006958
    endloop
  endfacet
  facet normal -0.6137509340446711 0 -0.7894997092838565
    outer loop
      vertex -3.8102493286132812 8.55162239074707 0.607202410697937
      vertex -3.409153938293457 9.476521492004395 0.2953939735889435
      vertex -3.8102493286132812 -8.551621437072754 0.607202410697937
    endloop
  endfacet
  facet normal -0.6137507732651706 -1.1186133410052717e-7 -0.7894998342725554
    outer loop
      vertex -3.409153938293457 9.476521492004395 0.2953939735889435
      vertex -3.8102493286132812 8.55162239074707 0.607202410697937
      vertex -3.5575199127197266 9.279491424560547 0.4107325077056885
    endloop
  endfacet
  facet normal 0.5290421817716876 -2.4680116484883763e-8 -0.8485955278613317
    outer loop
      vertex 2.935335397720337 -9.052046775817871 0
      vertex 3.409153938293457 -9.476521492004395 0.2953939735889435
      vertex 3.159999370574951 -9.276711463928223 0.1400628685951233
    endloop
  endfacet
  facet normal 0.5290421976933516 0 -0.8485955179352462
    outer loop
      vertex 3.409153938293457 -9.476521492004395 0.2953939735889435
      vertex 2.935335397720337 -9.052046775817871 0
      vertex 3.409153938293457 9.476521492004395 0.2953939735889435
    endloop
  endfacet
  facet normal 0.5290421976933516 0 -0.8485955179352462
    outer loop
      vertex 2.935335397720337 9.052046775817871 0
      vertex 3.409153938293457 9.476521492004395 0.2953939735889435
      vertex 2.935335397720337 -9.052046775817871 0
    endloop
  endfacet
  facet normal 0.5290421817716876 2.4680116484883763e-8 -0.8485955278613317
    outer loop
      vertex 3.409153938293457 9.476521492004395 0.2953939735889435
      vertex 2.935335397720337 9.052046775817871 0
      vertex 3.159999370574951 9.276711463928223 0.1400628685951233
    endloop
  endfacet
  facet normal 0.613750773264339 1.1186179738402272e-7 -0.789499834273202
    outer loop
      vertex 3.409153938293457 -9.476521492004395 0.2953939735889435
      vertex 3.8102493286132812 -8.551621437072754 0.607202410697937
      vertex 3.5575199127197266 -9.27949047088623 0.4107325077056885
    endloop
  endfacet
  facet normal 0.6137509340446711 0 -0.7894997092838565
    outer loop
      vertex 3.8102493286132812 -8.551621437072754 0.607202410697937
      vertex 3.409153938293457 -9.476521492004395 0.2953939735889435
      vertex 3.8102493286132812 8.55162239074707 0.607202410697937
    endloop
  endfacet
  facet normal 0.6137507732651706 -1.1186133410052717e-7 -0.7894998342725554
    outer loop
      vertex 3.8102493286132812 8.55162239074707 0.607202410697937
      vertex 3.409153938293457 9.476521492004395 0.2953939735889435
      vertex 3.5575199127197266 9.279491424560547 0.4107325077056885
    endloop
  endfacet
  facet normal 0.6137509670604894 -1.222594597714189e-7 -0.7894996836176055
    outer loop
      vertex 3.409153938293457 -9.476521492004395 0.2953939735889435
      vertex 3.5575199127197266 -9.27949047088623 0.4107325077056885
      vertex 3.468500852584839 -9.535868644714355 0.34152981638908386
    endloop
  endfacet
  facet normal 0.6137509340446711 0 -0.7894997092838565
    outer loop
      vertex 3.8102493286132812 8.55162239074707 0.607202410697937
      vertex 3.409153938293457 -9.476521492004395 0.2953939735889435
      vertex 3.409153938293457 9.476521492004395 0.2953939735889435
    endloop
  endfacet
  facet normal 0.6137507952004648 -8.536161956205193e-8 -0.7894998172202384
    outer loop
      vertex 3.5575199127197266 9.279491424560547 0.4107325077056885
      vertex 3.409153938293457 9.476521492004395 0.2953939735889435
      vertex 3.468501091003418 9.535868644714355 0.3415299654006958
    endloop
  endfacet
  facet normal -0.5290421817716876 -2.4680116484883763e-8 -0.8485955278613317
    outer loop
      vertex -3.409153938293457 -9.476521492004395 0.2953939735889435
      vertex -2.935335397720337 -9.052046775817871 0
      vertex -3.159999370574951 -9.276711463928223 0.1400628685951233
    endloop
  endfacet
  facet normal -0.5290421976933516 0 -0.8485955179352462
    outer loop
      vertex -2.935335397720337 -9.052046775817871 0
      vertex -3.409153938293457 -9.476521492004395 0.2953939735889435
      vertex -2.935335397720337 9.052046775817871 0
    endloop
  endfacet
  facet normal -0.5290421976933516 0 -0.8485955179352462
    outer loop
      vertex -3.409153938293457 9.476521492004395 0.2953939735889435
      vertex -2.935335397720337 9.052046775817871 0
      vertex -3.409153938293457 -9.476521492004395 0.2953939735889435
    endloop
  endfacet
  facet normal -0.5290421817716876 2.4680116484883763e-8 -0.8485955278613317
    outer loop
      vertex -2.935335397720337 9.052046775817871 0
      vertex -3.409153938293457 9.476521492004395 0.2953939735889435
      vertex -3.159999370574951 9.276711463928223 0.1400628685951233
    endloop
  endfacet
  facet normal 0 -0.764375563065223 -0.6447712761815024
    outer loop
      vertex -2.888071298599243 -10.208868026733398 0.9458084106445312
      vertex 2.8473777770996094 -10.25 0.9945703148841858
      vertex -2.8473777770996094 -10.25 0.9945703148841858
    endloop
  endfacet
  facet normal 0 -0.764375563065223 -0.6447712761815024
    outer loop
      vertex 2.8473777770996094 -10.25 0.9945703148841858
      vertex -2.888071298599243 -10.208868026733398 0.9458084106445312
      vertex 2.888071298599243 -10.208868026733398 0.9458084106445312
    endloop
  endfacet
  facet normal 0 -0.52904098666129 -0.8485962729310381
    outer loop
      vertex 3.159999370574951 -9.276711463928223 0.1400628685951233
      vertex -2.935335397720337 -9.052046775817871 0
      vertex 2.935335397720337 -9.052046775817871 0
    endloop
  endfacet
  facet normal 0 -0.52904098666129 -0.8485962729310381
    outer loop
      vertex -2.935335397720337 -9.052046775817871 0
      vertex 3.159999370574951 -9.276711463928223 0.1400628685951233
      vertex -3.159999370574951 -9.276711463928223 0.1400628685951233
    endloop
  endfacet
  facet normal 0 -0.6925318523755222 -0.7213872978125745
    outer loop
      vertex -2.888071298599243 -10.208868026733398 0.9458084106445312
      vertex 3.2832424640655518 -9.764782905578613 0.519486665725708
      vertex 2.888071298599243 -10.208868026733398 0.9458084106445312
    endloop
  endfacet
  facet normal 0 -0.6925318523755222 -0.7213872978125745
    outer loop
      vertex 3.2832424640655518 -9.764782905578613 0.519486665725708
      vertex -2.888071298599243 -10.208868026733398 0.9458084106445312
      vertex -3.2832424640655518 -9.764782905578613 0.519486665725708
    endloop
  endfacet
  facet normal -0.00000273820076063317 -0.6137512131372924 -0.7894994923145956
    outer loop
      vertex 3.2899255752563477 -9.756525039672852 0.5130671262741089
      vertex 3.409153938293457 -9.476521492004395 0.2953939735889435
      vertex 3.468500852584839 -9.535868644714355 0.34152981638908386
    endloop
  endfacet
  facet normal 0.000006819043313671004 -0.6137507219530203 -0.789499874132762
    outer loop
      vertex 3.159999370574951 -9.276711463928223 0.1400628685951233
      vertex 3.2899255752563477 -9.756525039672852 0.5130671262741089
      vertex 3.2832424640655518 -9.764782905578613 0.519486665725708
    endloop
  endfacet
  facet normal -1.5427640163095992e-7 -0.6137518989421369 -0.7894989591791095
    outer loop
      vertex 3.2899255752563477 -9.756525039672852 0.5130671262741089
      vertex 3.159999370574951 -9.276711463928223 0.1400628685951233
      vertex 3.409153938293457 -9.476521492004395 0.2953939735889435
    endloop
  endfacet
  facet normal 0 -0.6137517952301104 -0.7894990398042397
    outer loop
      vertex 3.2832424640655518 -9.764782905578613 0.519486665725708
      vertex -3.159999370574951 -9.276711463928223 0.1400628685951233
      vertex 3.159999370574951 -9.276711463928223 0.1400628685951233
    endloop
  endfacet
  facet normal 0 -0.6137517952301104 -0.7894990398042397
    outer loop
      vertex -3.2832424640655518 -9.764782905578613 0.519486665725708
      vertex -3.159999370574951 -9.276711463928223 0.1400628685951233
      vertex 3.2832424640655518 -9.764782905578613 0.519486665725708
    endloop
  endfacet
  facet normal -0.000006819043313671004 -0.6137507219530203 -0.789499874132762
    outer loop
      vertex -3.2899255752563477 -9.756525039672852 0.5130671262741089
      vertex -3.159999370574951 -9.276711463928223 0.1400628685951233
      vertex -3.2832424640655518 -9.764782905578613 0.519486665725708
    endloop
  endfacet
  facet normal 1.5427640163095992e-7 -0.6137518989421369 -0.7894989591791095
    outer loop
      vertex -3.2899255752563477 -9.756525039672852 0.5130671262741089
      vertex -3.409153938293457 -9.476521492004395 0.2953939735889435
      vertex -3.159999370574951 -9.276711463928223 0.1400628685951233
    endloop
  endfacet
  facet normal 0.00000273820076063317 -0.6137512131372924 -0.7894994923145956
    outer loop
      vertex -3.409153938293457 -9.476521492004395 0.2953939735889435
      vertex -3.2899255752563477 -9.756525039672852 0.5130671262741089
      vertex -3.468500852584839 -9.535868644714355 0.34152981638908386
    endloop
  endfacet
  facet normal 0.8729422546117119 0.4070598770023363 0.26883838388195924
    outer loop
      vertex 3.6124610900878906 8.376944541931152 1.2401248216629028
      vertex 2.5527353286743164 10.25 1.8450744152069092
      vertex 3.301762819290161 8.38660717010498 2.2343592643737793
    endloop
  endfacet
  facet normal 0.8729422379532444 0.40705982436692695 0.26883851767101297
    outer loop
      vertex 2.5527353286743164 10.25 1.8450744152069092
      vertex 3.6124610900878906 8.376944541931152 1.2401248216629028
      vertex 2.7390406131744385 10.25 1.2401248216629028
    endloop
  endfacet
  facet normal 0.8942194491209363 0.4169812260269392 0.1627827815062755
    outer loop
      vertex 2.8763022422790527 8.721467971801758 3.595832586288452
      vertex 2.271852493286133 10.25 3.0008161067962646
      vertex 2.163536310195923 10.25 3.595832586288452
    endloop
  endfacet
  facet normal 0.894219342782371 0.416981318830878 0.16278312793384347
    outer loop
      vertex 2.271852493286133 10.25 3.0008161067962646
      vertex 2.8763022422790527 8.721467971801758 3.595832586288452
      vertex 3.187871217727661 8.442527770996094 2.5988118648529053
    endloop
  endfacet
  facet normal 0.8415276673455998 0.3924079859299381 0.37127773656695734
    outer loop
      vertex 2.7390406131744385 10.25 1.2401248216629028
      vertex 2.8880715370178223 10.208868026733398 0.9458084106445312
      vertex 2.8473780155181885 10.25 0.9945703148841858
    endloop
  endfacet
  facet normal 0.8415266618059567 0.3924110260614517 0.37127680252760437
    outer loop
      vertex 2.7390406131744385 10.25 1.2401248216629028
      vertex 3.28324294090271 9.764782905578613 0.519486665725708
      vertex 2.8880715370178223 10.208868026733398 0.9458084106445312
    endloop
  endfacet
  facet normal 0.8415267314824932 0.3924104772053459 0.3712772246985591
    outer loop
      vertex 3.5575199127197266 9.279491424560547 0.4107325077056885
      vertex 3.28324294090271 9.764782905578613 0.519486665725708
      vertex 2.7390406131744385 10.25 1.2401248216629028
    endloop
  endfacet
  facet normal 0.8415242039124265 0.39240692301892616 0.37128670996465163
    outer loop
      vertex 3.28324294090271 9.764782905578613 0.519486665725708
      vertex 3.5575199127197266 9.279491424560547 0.4107325077056885
      vertex 3.289926052093506 9.756525039672852 0.5130669474601746
    endloop
  endfacet
  facet normal 0.8415267332392061 0.39241052768347356 0.37127716736547095
    outer loop
      vertex 3.6124610900878906 8.376944541931152 1.2401248216629028
      vertex 3.5575199127197266 9.279491424560547 0.4107325077056885
      vertex 2.7390406131744385 10.25 1.2401248216629028
    endloop
  endfacet
  facet normal 0.8415268933890429 0.39241036341197194 0.3712769779960378
    outer loop
      vertex 3.5575199127197266 9.279491424560547 0.4107325077056885
      vertex 3.6124610900878906 8.376944541931152 1.2401248216629028
      vertex 3.8102493286132812 8.55162239074707 0.607202410697937
    endloop
  endfacet
  facet normal 0.9049602863111749 0.421989893692799 0.054510639518688675
    outer loop
      vertex 2.5 9.372901916503906 4.800000190734863
      vertex 2.128032684326172 10.25 4.18524169921875
      vertex 2.0910024642944336 10.25 4.800000190734863
    endloop
  endfacet
  facet normal 0.9049603691542929 0.4219897491492137 0.05451038316788424
    outer loop
      vertex 2.128032684326172 10.25 4.18524169921875
      vertex 2.5 9.372901916503906 4.800000190734863
      vertex 2.617696762084961 9.169151306152344 4.423370361328125
    endloop
  endfacet
  facet normal 0.9049602654937994 0.42198987192784976 0.05451115360831198
    outer loop
      vertex 2.617696762084961 9.169151306152344 4.423370361328125
      vertex 2.163536310195923 10.25 3.595832586288452
      vertex 2.128032684326172 10.25 4.18524169921875
    endloop
  endfacet
  facet normal 0.9049603202954929 0.42198977469512894 0.054510996536786
    outer loop
      vertex 2.163536310195923 10.25 3.595832586288452
      vertex 2.617696762084961 9.169151306152344 4.423370361328125
      vertex 2.8763022422790527 8.721467971801758 3.595832586288452
    endloop
  endfacet
  facet normal 0.8415266962554601 0.39241029819542667 0.3712774937422774
    outer loop
      vertex 3.468501091003418 9.535868644714355 0.3415299654006958
      vertex 3.289926052093506 9.756525039672852 0.5130669474601746
      vertex 3.5575199127197266 9.279491424560547 0.4107325077056885
    endloop
  endfacet
  facet normal 0.8729425438532267 0.4070598884274945 0.26883742738773014
    outer loop
      vertex 3.301762819290161 8.38660717010498 2.2343592643737793
      vertex 2.380340337753296 10.25 2.404857873916626
      vertex 3.2484819889068604 8.388264656066895 2.404857873916626
    endloop
  endfacet
  facet normal 0.8729424799336368 0.40705982969177584 0.2688377238756023
    outer loop
      vertex 2.380340337753296 10.25 2.404857873916626
      vertex 3.301762819290161 8.38660717010498 2.2343592643737793
      vertex 2.5527353286743164 10.25 1.8450744152069092
    endloop
  endfacet
  facet normal 0.8942193444940307 0.4169813257072825 0.162783100916721
    outer loop
      vertex 3.187871217727661 8.442527770996094 2.5988118648529053
      vertex 2.380340337753296 10.25 2.404857873916626
      vertex 2.271852493286133 10.25 3.0008161067962646
    endloop
  endfacet
  facet normal 0.8942191713503541 0.4169813450870181 0.16278400240474156
    outer loop
      vertex 2.380340337753296 10.25 2.404857873916626
      vertex 3.187871217727661 8.442527770996094 2.5988118648529053
      vertex 3.2484819889068604 8.388264656066895 2.404857873916626
    endloop
  endfacet
  facet normal -0.9049602863111749 0.421989893692799 0.054510639518688675
    outer loop
      vertex -2.128032684326172 10.25 4.18524169921875
      vertex -2.5 9.372901916503906 4.800000190734863
      vertex -2.0910024642944336 10.25 4.800000190734863
    endloop
  endfacet
  facet normal -0.9049603691542929 0.4219897491492137 0.05451038316788424
    outer loop
      vertex -2.5 9.372901916503906 4.800000190734863
      vertex -2.128032684326172 10.25 4.18524169921875
      vertex -2.617696762084961 9.169151306152344 4.423370361328125
    endloop
  endfacet
  facet normal -0.9049602654937994 0.42198987192784976 0.05451115360831198
    outer loop
      vertex -2.163536310195923 10.25 3.595832586288452
      vertex -2.617696762084961 9.169151306152344 4.423370361328125
      vertex -2.128032684326172 10.25 4.18524169921875
    endloop
  endfacet
  facet normal -0.9049603202954929 0.42198977469512894 0.054510996536786
    outer loop
      vertex -2.617696762084961 9.169151306152344 4.423370361328125
      vertex -2.163536310195923 10.25 3.595832586288452
      vertex -2.8763022422790527 8.721467971801758 3.595832586288452
    endloop
  endfacet
  facet normal -0.8729422379532444 0.40705982436692695 0.26883851767101297
    outer loop
      vertex -3.6124610900878906 8.376944541931152 1.2401248216629028
      vertex -2.5527353286743164 10.25 1.8450744152069092
      vertex -2.7390406131744385 10.25 1.2401248216629028
    endloop
  endfacet
  facet normal -0.8729422546117119 0.4070598770023363 0.26883838388195924
    outer loop
      vertex -2.5527353286743164 10.25 1.8450744152069092
      vertex -3.6124610900878906 8.376944541931152 1.2401248216629028
      vertex -3.301762819290161 8.38660717010498 2.2343592643737793
    endloop
  endfacet
  facet normal -0.8942194491209363 0.4169812260269392 0.1627827815062755
    outer loop
      vertex -2.271852493286133 10.25 3.0008161067962646
      vertex -2.8763022422790527 8.721467971801758 3.595832586288452
      vertex -2.163536310195923 10.25 3.595832586288452
    endloop
  endfacet
  facet normal -0.894219342782371 0.416981318830878 0.16278312793384347
    outer loop
      vertex -2.8763022422790527 8.721467971801758 3.595832586288452
      vertex -2.271852493286133 10.25 3.0008161067962646
      vertex -3.187871217727661 8.442527770996094 2.5988118648529053
    endloop
  endfacet
  facet normal -0.8415276673455998 0.3924079859299381 0.37127773656695734
    outer loop
      vertex -2.8880715370178223 10.208868026733398 0.9458084106445312
      vertex -2.7390406131744385 10.25 1.2401248216629028
      vertex -2.8473780155181885 10.25 0.9945703148841858
    endloop
  endfacet
  facet normal -0.8415266618059567 0.3924110260614517 0.37127680252760437
    outer loop
      vertex -3.28324294090271 9.764782905578613 0.519486665725708
      vertex -2.7390406131744385 10.25 1.2401248216629028
      vertex -2.8880715370178223 10.208868026733398 0.9458084106445312
    endloop
  endfacet
  facet normal -0.8415242039124265 0.39240692301892616 0.37128670996465163
    outer loop
      vertex -3.5575199127197266 9.279491424560547 0.4107325077056885
      vertex -3.28324294090271 9.764782905578613 0.519486665725708
      vertex -3.289926052093506 9.756525039672852 0.5130669474601746
    endloop
  endfacet
  facet normal -0.8415267314824932 0.3924104772053459 0.3712772246985591
    outer loop
      vertex -3.28324294090271 9.764782905578613 0.519486665725708
      vertex -3.5575199127197266 9.279491424560547 0.4107325077056885
      vertex -2.7390406131744385 10.25 1.2401248216629028
    endloop
  endfacet
  facet normal -0.8415268933890429 0.39241036341197194 0.3712769779960378
    outer loop
      vertex -3.6124610900878906 8.376944541931152 1.2401248216629028
      vertex -3.5575199127197266 9.279491424560547 0.4107325077056885
      vertex -3.8102493286132812 8.55162239074707 0.607202410697937
    endloop
  endfacet
  facet normal -0.8415267332392061 0.39241052768347356 0.37127716736547095
    outer loop
      vertex -3.5575199127197266 9.279491424560547 0.4107325077056885
      vertex -3.6124610900878906 8.376944541931152 1.2401248216629028
      vertex -2.7390406131744385 10.25 1.2401248216629028
    endloop
  endfacet
  facet normal -0.8415266962554601 0.39241029819542667 0.3712774937422774
    outer loop
      vertex -3.468501091003418 9.535868644714355 0.3415299654006958
      vertex -3.5575199127197266 9.279491424560547 0.4107325077056885
      vertex -3.289926052093506 9.756525039672852 0.5130669474601746
    endloop
  endfacet
  facet normal -0.8942193444940307 0.4169813257072825 0.162783100916721
    outer loop
      vertex -2.380340337753296 10.25 2.404857873916626
      vertex -3.187871217727661 8.442527770996094 2.5988118648529053
      vertex -2.271852493286133 10.25 3.0008161067962646
    endloop
  endfacet
  facet normal -0.8942191713503541 0.4169813450870181 0.16278400240474156
    outer loop
      vertex -3.187871217727661 8.442527770996094 2.5988118648529053
      vertex -2.380340337753296 10.25 2.404857873916626
      vertex -3.2484819889068604 8.388264656066895 2.404857873916626
    endloop
  endfacet
  facet normal -0.8729424799336368 0.40705982969177584 0.2688377238756023
    outer loop
      vertex -3.301762819290161 8.38660717010498 2.2343592643737793
      vertex -2.380340337753296 10.25 2.404857873916626
      vertex -2.5527353286743164 10.25 1.8450744152069092
    endloop
  endfacet
  facet normal -0.8729425438532267 0.4070598884274945 0.26883742738773014
    outer loop
      vertex -2.380340337753296 10.25 2.404857873916626
      vertex -3.301762819290161 8.38660717010498 2.2343592643737793
      vertex -3.2484819889068604 8.388264656066895 2.404857873916626
    endloop
  endfacet
  facet normal 0.8729422826020501 -0.40705981077495124 0.2688383932725817
    outer loop
      vertex 2.5527350902557373 -10.25 1.8450742959976196
      vertex 3.6124610900878906 -8.376943588256836 1.2401248216629028
      vertex 3.301762819290161 -8.386606216430664 2.2343592643737793
    endloop
  endfacet
  facet normal 0.8729422596833002 -0.4070597383591752 0.2688385773395877
    outer loop
      vertex 3.6124610900878906 -8.376943588256836 1.2401248216629028
      vertex 2.5527350902557373 -10.25 1.8450742959976196
      vertex 2.7390403747558594 -10.25 1.2401248216629028
    endloop
  endfacet
  facet normal 0.9049601892619791 -0.421990036000654 0.05451114901641483
    outer loop
      vertex 2.1635360717773438 -10.25 3.595832586288452
      vertex 2.617696762084961 -9.169151306152344 4.423370361328125
      vertex 2.1280324459075928 -10.25 4.18524169921875
    endloop
  endfacet
  facet normal 0.9049602701577624 -0.4219898924701394 0.05451091715454725
    outer loop
      vertex 2.617696762084961 -9.169151306152344 4.423370361328125
      vertex 2.1635360717773438 -10.25 3.595832586288452
      vertex 2.8763022422790527 -8.721467971801758 3.595832586288452
    endloop
  endfacet
  facet normal 0.8415268933890429 -0.39241036341197194 0.3712769779960378
    outer loop
      vertex 3.6124610900878906 -8.376943588256836 1.2401248216629028
      vertex 3.5575199127197266 -9.27949047088623 0.4107325077056885
      vertex 3.8102493286132812 -8.551621437072754 0.607202410697937
    endloop
  endfacet
  facet normal 0.8415267953558321 -0.39241046396820844 0.37127709391558067
    outer loop
      vertex 2.7390403747558594 -10.25 1.2401248216629028
      vertex 3.5575199127197266 -9.27949047088623 0.4107325077056885
      vertex 3.6124610900878906 -8.376943588256836 1.2401248216629028
    endloop
  endfacet
  facet normal 0.8415207446289354 -0.39240213185023004 0.37129961389497396
    outer loop
      vertex 3.5575199127197266 -9.27949047088623 0.4107325077056885
      vertex 3.2832424640655518 -9.764782905578613 0.519486665725708
      vertex 3.2899255752563477 -9.756525039672852 0.5130671262741089
    endloop
  endfacet
  facet normal 0.841526801798478 -0.39241064909333917 0.37127688365015304
    outer loop
      vertex 3.5575199127197266 -9.27949047088623 0.4107325077056885
      vertex 2.7390403747558594 -10.25 1.2401248216629028
      vertex 3.2832424640655518 -9.764782905578613 0.519486665725708
    endloop
  endfacet
  facet normal 0.8415268113334052 -0.3924105739847662 0.3712769414224074
    outer loop
      vertex 3.2832424640655518 -9.764782905578613 0.519486665725708
      vertex 2.7390403747558594 -10.25 1.2401248216629028
      vertex 2.888071298599243 -10.208868026733398 0.9458084106445312
    endloop
  endfacet
  facet normal 0.8415276673455998 -0.3924079859299381 0.37127773656695734
    outer loop
      vertex 2.888071298599243 -10.208868026733398 0.9458084106445312
      vertex 2.7390403747558594 -10.25 1.2401248216629028
      vertex 2.8473777770996094 -10.25 0.9945703148841858
    endloop
  endfacet
  facet normal 0.8729425780028811 -0.4070598076265269 0.26883743884499905
    outer loop
      vertex 2.380340099334717 -10.25 2.404857873916626
      vertex 3.301762819290161 -8.386606216430664 2.2343592643737793
      vertex 3.2484819889068604 -8.388263702392578 2.404857873916626
    endloop
  endfacet
  facet normal 0.8729425258475393 -0.40705975970099695 0.2688376807649641
    outer loop
      vertex 3.301762819290161 -8.386606216430664 2.2343592643737793
      vertex 2.380340099334717 -10.25 2.404857873916626
      vertex 2.5527350902557373 -10.25 1.8450742959976196
    endloop
  endfacet
  facet normal 0.9049603675912973 -0.42198971875452845 0.05451064441462888
    outer loop
      vertex 2.1280324459075928 -10.25 4.18524169921875
      vertex 2.5 -9.37290096282959 4.800000190734863
      vertex 2.0910022258758545 -10.25 4.800000190734863
    endloop
  endfacet
  facet normal 0.9049601783759861 -0.42199004889429637 0.05451122992460395
    outer loop
      vertex 2.5 -9.37290096282959 4.800000190734863
      vertex 2.1280324459075928 -10.25 4.18524169921875
      vertex 2.617696762084961 -9.169151306152344 4.423370361328125
    endloop
  endfacet
  facet normal 0.8415265345691921 -0.3924099725590491 0.37127820438610815
    outer loop
      vertex 3.5575199127197266 -9.27949047088623 0.4107325077056885
      vertex 3.2899255752563477 -9.756525039672852 0.5130671262741089
      vertex 3.468500852584839 -9.535868644714355 0.34152981638908386
    endloop
  endfacet
  facet normal 0.8942193825484251 -0.4169812413950102 0.1627831078441179
    outer loop
      vertex 2.380340099334717 -10.25 2.404857873916626
      vertex 3.187871217727661 -8.442526817321777 2.5988118648529053
      vertex 2.2718522548675537 -10.25 3.0008161067962646
    endloop
  endfacet
  facet normal 0.8942192042604514 -0.41698126135050767 0.16278403611639777
    outer loop
      vertex 3.187871217727661 -8.442526817321777 2.5988118648529053
      vertex 2.380340099334717 -10.25 2.404857873916626
      vertex 3.2484819889068604 -8.388263702392578 2.404857873916626
    endloop
  endfacet
  facet normal 0.8942193971129173 -0.4169813412544718 0.16278277203878966
    outer loop
      vertex 2.2718522548675537 -10.25 3.0008161067962646
      vertex 2.8763022422790527 -8.721467971801758 3.595832586288452
      vertex 2.1635360717773438 -10.25 3.595832586288452
    endloop
  endfacet
  facet normal 0.8942194055683693 -0.41698133387521263 0.16278274449277663
    outer loop
      vertex 2.8763022422790527 -8.721467971801758 3.595832586288452
      vertex 2.2718522548675537 -10.25 3.0008161067962646
      vertex 3.187871217727661 -8.442526817321777 2.5988118648529053
    endloop
  endfacet
  facet normal -0.9049602701577624 -0.4219898924701394 0.05451091715454725
    outer loop
      vertex -2.1635360717773438 -10.25 3.595832586288452
      vertex -2.617696762084961 -9.169151306152344 4.423370361328125
      vertex -2.8763022422790527 -8.721467971801758 3.595832586288452
    endloop
  endfacet
  facet normal -0.9049601892619791 -0.421990036000654 0.05451114901641483
    outer loop
      vertex -2.617696762084961 -9.169151306152344 4.423370361328125
      vertex -2.1635360717773438 -10.25 3.595832586288452
      vertex -2.1280324459075928 -10.25 4.18524169921875
    endloop
  endfacet
  facet normal -0.8415265345691921 -0.3924099725590491 0.37127820438610815
    outer loop
      vertex -3.2899255752563477 -9.756525039672852 0.5130671262741089
      vertex -3.5575199127197266 -9.27949047088623 0.4107325077056885
      vertex -3.468500852584839 -9.535868644714355 0.34152981638908386
    endloop
  endfacet
  facet normal -0.9049601783759861 -0.42199004889429637 0.05451122992460395
    outer loop
      vertex -2.1280324459075928 -10.25 4.18524169921875
      vertex -2.5 -9.37290096282959 4.800000190734863
      vertex -2.617696762084961 -9.169151306152344 4.423370361328125
    endloop
  endfacet
  facet normal -0.9049603675912973 -0.42198971875452845 0.05451064441462888
    outer loop
      vertex -2.5 -9.37290096282959 4.800000190734863
      vertex -2.1280324459075928 -10.25 4.18524169921875
      vertex -2.0910022258758545 -10.25 4.800000190734863
    endloop
  endfacet
  facet normal -0.8729425258475393 -0.40705975970099695 0.2688376807649641
    outer loop
      vertex -2.380340099334717 -10.25 2.404857873916626
      vertex -3.301762819290161 -8.386606216430664 2.2343592643737793
      vertex -2.5527350902557373 -10.25 1.8450742959976196
    endloop
  endfacet
  facet normal -0.8729425780028811 -0.4070598076265269 0.26883743884499905
    outer loop
      vertex -3.301762819290161 -8.386606216430664 2.2343592643737793
      vertex -2.380340099334717 -10.25 2.404857873916626
      vertex -3.2484819889068604 -8.388263702392578 2.404857873916626
    endloop
  endfacet
  facet normal -0.8415268933890429 -0.39241036341197194 0.3712769779960378
    outer loop
      vertex -3.5575199127197266 -9.27949047088623 0.4107325077056885
      vertex -3.6124610900878906 -8.376943588256836 1.2401248216629028
      vertex -3.8102493286132812 -8.551621437072754 0.607202410697937
    endloop
  endfacet
  facet normal -0.8415207446289354 -0.39240213185023004 0.37129961389497396
    outer loop
      vertex -3.2832424640655518 -9.764782905578613 0.519486665725708
      vertex -3.5575199127197266 -9.27949047088623 0.4107325077056885
      vertex -3.2899255752563477 -9.756525039672852 0.5130671262741089
    endloop
  endfacet
  facet normal -0.841526801798478 -0.39241064909333917 0.37127688365015304
    outer loop
      vertex -2.7390403747558594 -10.25 1.2401248216629028
      vertex -3.5575199127197266 -9.27949047088623 0.4107325077056885
      vertex -3.2832424640655518 -9.764782905578613 0.519486665725708
    endloop
  endfacet
  facet normal -0.8415268113334052 -0.3924105739847662 0.3712769414224074
    outer loop
      vertex -2.7390403747558594 -10.25 1.2401248216629028
      vertex -3.2832424640655518 -9.764782905578613 0.519486665725708
      vertex -2.888071298599243 -10.208868026733398 0.9458084106445312
    endloop
  endfacet
  facet normal -0.8415276673455998 -0.3924079859299381 0.37127773656695734
    outer loop
      vertex -2.7390403747558594 -10.25 1.2401248216629028
      vertex -2.888071298599243 -10.208868026733398 0.9458084106445312
      vertex -2.8473777770996094 -10.25 0.9945703148841858
    endloop
  endfacet
  facet normal -0.8415267953558321 -0.39241046396820844 0.37127709391558067
    outer loop
      vertex -3.5575199127197266 -9.27949047088623 0.4107325077056885
      vertex -2.7390403747558594 -10.25 1.2401248216629028
      vertex -3.6124610900878906 -8.376943588256836 1.2401248216629028
    endloop
  endfacet
  facet normal -0.8942192042604514 -0.41698126135050767 0.16278403611639777
    outer loop
      vertex -2.380340099334717 -10.25 2.404857873916626
      vertex -3.187871217727661 -8.442526817321777 2.5988118648529053
      vertex -3.2484819889068604 -8.388263702392578 2.404857873916626
    endloop
  endfacet
  facet normal -0.8942193825484251 -0.4169812413950102 0.1627831078441179
    outer loop
      vertex -3.187871217727661 -8.442526817321777 2.5988118648529053
      vertex -2.380340099334717 -10.25 2.404857873916626
      vertex -2.2718522548675537 -10.25 3.0008161067962646
    endloop
  endfacet
  facet normal -0.8942194055683693 -0.41698133387521263 0.16278274449277663
    outer loop
      vertex -2.2718522548675537 -10.25 3.0008161067962646
      vertex -2.8763022422790527 -8.721467971801758 3.595832586288452
      vertex -3.187871217727661 -8.442526817321777 2.5988118648529053
    endloop
  endfacet
  facet normal -0.8942193971129173 -0.4169813412544718 0.16278277203878966
    outer loop
      vertex -2.8763022422790527 -8.721467971801758 3.595832586288452
      vertex -2.2718522548675537 -10.25 3.0008161067962646
      vertex -2.1635360717773438 -10.25 3.595832586288452
    endloop
  endfacet
  facet normal -0.8729422596833002 -0.4070597383591752 0.2688385773395877
    outer loop
      vertex -2.5527350902557373 -10.25 1.8450742959976196
      vertex -3.6124610900878906 -8.376943588256836 1.2401248216629028
      vertex -2.7390403747558594 -10.25 1.2401248216629028
    endloop
  endfacet
  facet normal -0.8729422826020501 -0.40705981077495124 0.2688383932725817
    outer loop
      vertex -3.6124610900878906 -8.376943588256836 1.2401248216629028
      vertex -2.5527350902557373 -10.25 1.8450742959976196
      vertex -3.301762819290161 -8.386606216430664 2.2343592643737793
    endloop
  endfacet
  facet normal 0 0 1
    outer loop
      vertex -2.5625 9.264705657958984 5
      vertex 2.5625 9.264705657958984 5
      vertex 2.1030495166778564 10.25 5
    endloop
  endfacet
  facet normal 0 0 1
    outer loop
      vertex -2.5625 9.264705657958984 5
      vertex 2.1030495166778564 10.25 5
      vertex -2.1030495166778564 10.25 5
    endloop
  endfacet
  facet normal 0 0 1
    outer loop
      vertex 2.5625 9.264705657958984 5
      vertex -2.5625 9.264705657958984 5
      vertex 2.5625 4.5 5
    endloop
  endfacet
  facet normal 0 0 1
    outer loop
      vertex 2.5625 4.5 5
      vertex -2.5625 9.264705657958984 5
      vertex -2.5625 4.5 5
    endloop
  endfacet
  facet normal 0 0 1
    outer loop
      vertex -2.5625 -9.264704704284668 5
      vertex 2.5625 -9.264704704284668 5
      vertex 2.5625 -4.5 5
    endloop
  endfacet
  facet normal 0 0 1
    outer loop
      vertex 2.5625 -9.264704704284668 5
      vertex -2.5625 -9.264704704284668 5
      vertex 2.1030492782592773 -10.25 5
    endloop
  endfacet
  facet normal 0 0 1
    outer loop
      vertex -2.5625 -9.264704704284668 5
      vertex 2.5625 -4.5 5
      vertex -2.5625 -4.5 5
    endloop
  endfacet
  facet normal 0 0 1
    outer loop
      vertex 2.1030492782592773 -10.25 5
      vertex -2.5625 -9.264704704284668 5
      vertex -2.1030492782592773 -10.25 5
    endloop
  endfacet
  facet normal 0 0 1
    outer loop
      vertex -2.625 4.5 4.399999618530273
      vertex 2.625 -4.5 4.399999618530273
      vertex 2.625 4.5 4.399999618530273
    endloop
  endfacet
  facet normal 0 0 1
    outer loop
      vertex 2.625 -4.5 4.399999618530273
      vertex -2.625 4.5 4.399999618530273
      vertex -2.625 -4.5 4.399999618530273
    endloop
  endfacet
  facet normal 0 -1 0
    outer loop
      vertex -2.5 4.5 4.800000190734863
      vertex 2.5625 4.5 5
      vertex -2.5625 4.5 5
    endloop
  endfacet
  facet normal 0 -1 0
    outer loop
      vertex -2.5 4.5 4.800000190734863
      vertex 2.5 4.5 4.800000190734863
      vertex 2.5625 4.5 5
    endloop
  endfacet
  facet normal 0 -1 0
    outer loop
      vertex -2.625 4.5 4.399999618530273
      vertex 2.5 4.5 4.800000190734863
      vertex -2.5 4.5 4.800000190734863
    endloop
  endfacet
  facet normal 0 -1 0
    outer loop
      vertex 2.5 4.5 4.800000190734863
      vertex -2.625 4.5 4.399999618530273
      vertex 2.625 4.5 4.399999618530273
    endloop
  endfacet
  facet normal 0 1 0
    outer loop
      vertex 2.5 -4.5 4.800000190734863
      vertex -2.5625 -4.5 5
      vertex 2.5625 -4.5 5
    endloop
  endfacet
  facet normal 0 1 0
    outer loop
      vertex 2.5 -4.5 4.800000190734863
      vertex -2.5 -4.5 4.800000190734863
      vertex -2.5625 -4.5 5
    endloop
  endfacet
  facet normal 0 1 0
    outer loop
      vertex 2.625 -4.5 4.399999618530273
      vertex -2.5 -4.5 4.800000190734863
      vertex 2.5 -4.5 4.800000190734863
    endloop
  endfacet
  facet normal 0 1 0
    outer loop
      vertex -2.5 -4.5 4.800000190734863
      vertex 2.625 -4.5 4.399999618530273
      vertex -2.625 -4.5 4.399999618530273
    endloop
  endfacet
endsolid OpenSCAD_Model
