solid OpenSCAD_Model
  facet normal 0 0.789495 -0.613758
    outer loop
      vertex -1.90213 4.23051 0.485217
      vertex -3.1324 4.60994 0.973289
      vertex -2.00647 4.60994 0.973289
    endloop
  endfacet
  facet normal 1.93357e-005 0.789492 -0.613761
    outer loop
      vertex -3.1324 4.60994 0.973289
      vertex -3.28993 4.23693 0.493475
      vertex -3.44862 4.38938 0.689569
    endloop
  endfacet
  facet normal 0 0.789495 -0.613758
    outer loop
      vertex -3.1324 4.60994 0.973289
      vertex -1.90213 4.23051 0.485217
      vertex -3.28324 4.23051 0.485217
    endloop
  endfacet
  facet normal 1.56294e-005 0.789492 -0.613761
    outer loop
      vertex -3.1324 4.60994 0.973289
      vertex -3.28324 4.23051 0.485217
      vertex -3.28993 4.23693 0.493475
    endloop
  endfacet
  facet normal -1.93357e-005 0.789492 -0.613761
    outer loop
      vertex 3.28993 4.23693 0.493475
      vertex 3.1324 4.60994 0.973289
      vertex 3.44862 4.38938 0.689569
    endloop
  endfacet
  facet normal -1.56294e-005 0.789492 -0.613761
    outer loop
      vertex 3.28324 4.23051 0.485217
      vertex 3.1324 4.60994 0.973289
      vertex 3.28993 4.23693 0.493475
    endloop
  endfacet
  facet normal 0 0.789495 -0.613758
    outer loop
      vertex 1.90213 4.23051 0.485217
      vertex 3.1324 4.60994 0.973289
      vertex 3.28324 4.23051 0.485217
    endloop
  endfacet
  facet normal 0 0.789495 -0.613758
    outer loop
      vertex 3.1324 4.60994 0.973289
      vertex 1.90213 4.23051 0.485217
      vertex 2.00647 4.60994 0.973289
    endloop
  endfacet
  facet normal 0 0.848597 -0.529039
    outer loop
      vertex -2.00647 4.60994 0.973289
      vertex -2.93158 4.75 1.19795
      vertex -2.04499 4.75 1.19795
    endloop
  endfacet
  facet normal 0 0.848597 -0.529039
    outer loop
      vertex -2.93158 4.75 1.19795
      vertex -2.00647 4.60994 0.973289
      vertex -3.1324 4.60994 0.973289
    endloop
  endfacet
  facet normal 0 0.848597 -0.529039
    outer loop
      vertex 2.00647 4.60994 0.973289
      vertex 2.93158 4.75 1.19795
      vertex 3.1324 4.60994 0.973289
    endloop
  endfacet
  facet normal 0 0.848597 -0.529039
    outer loop
      vertex 2.93158 4.75 1.19795
      vertex 2.00647 4.60994 0.973289
      vertex 2.04499 4.75 1.19795
    endloop
  endfacet
  facet normal 0 0.721389 -0.69253
    outer loop
      vertex -2.88807 3.80419 0.041132
      vertex -1.90213 4.23051 0.485217
      vertex -1.7849 3.80419 0.041132
    endloop
  endfacet
  facet normal 0 0.721389 -0.69253
    outer loop
      vertex -1.90213 4.23051 0.485217
      vertex -2.88807 3.80419 0.041132
      vertex -3.28324 4.23051 0.485217
    endloop
  endfacet
  facet normal 0 0.721389 -0.69253
    outer loop
      vertex 2.88807 3.80419 0.041132
      vertex 1.90213 4.23051 0.485217
      vertex 3.28324 4.23051 0.485217
    endloop
  endfacet
  facet normal 0 0.721389 -0.69253
    outer loop
      vertex 1.90213 4.23051 0.485217
      vertex 2.88807 3.80419 0.041132
      vertex 1.7849 3.80419 0.041132
    endloop
  endfacet
  facet normal 0 0.644786 -0.764363
    outer loop
      vertex -2.84738 3.75543 1.89969e-015
      vertex -1.7849 3.80419 0.041132
      vertex -1.77149 3.75543 1.89969e-015
    endloop
  endfacet
  facet normal 0 0.644786 -0.764363
    outer loop
      vertex -1.7849 3.80419 0.041132
      vertex -2.84738 3.75543 1.89969e-015
      vertex -2.88807 3.80419 0.041132
    endloop
  endfacet
  facet normal 0 0.644786 -0.764363
    outer loop
      vertex 2.84738 3.75543 1.89969e-015
      vertex 1.7849 3.80419 0.041132
      vertex 2.88807 3.80419 0.041132
    endloop
  endfacet
  facet normal 0 0.644786 -0.764363
    outer loop
      vertex 1.7849 3.80419 0.041132
      vertex 2.84738 3.75543 1.89969e-015
      vertex 1.77149 3.75543 1.89969e-015
    endloop
  endfacet
  facet normal -0 0 1
    outer loop
      vertex 1.77149 3.75543 23
      vertex 2.73904 3.50988 23
      vertex 2.84738 3.75543 23
    endloop
  endfacet
  facet normal 0 0 1
    outer loop
      vertex 1.77149 3.75543 23
      vertex 2.55274 2.90493 23
      vertex 2.73904 3.50988 23
    endloop
  endfacet
  facet normal 0 0 1
    outer loop
      vertex 1.77149 3.75543 23
      vertex 2.38034 2.34514 23
      vertex 2.55274 2.90493 23
    endloop
  endfacet
  facet normal 0 0 1
    outer loop
      vertex 1 0.949999 23
      vertex 2.38034 2.34514 23
      vertex 1.77149 3.75543 23
    endloop
  endfacet
  facet normal 0 0 1
    outer loop
      vertex 2.38034 2.34514 23
      vertex 1 0.949999 23
      vertex 2.27185 1.74918 23
    endloop
  endfacet
  facet normal 0 0 1
    outer loop
      vertex 2.27185 1.74918 23
      vertex 1 0.949999 23
      vertex 2.16354 1.15417 23
    endloop
  endfacet
  facet normal 0 0 1
    outer loop
      vertex 2.16354 1.15417 23
      vertex 1 0.949999 23
      vertex 2.12803 0.564758 23
    endloop
  endfacet
  facet normal 0 0 1
    outer loop
      vertex 2.12803 0.564758 23
      vertex 1 0.949999 23
      vertex 2.09401 -5.10703e-015 23
    endloop
  endfacet
  facet normal 0 0 1
    outer loop
      vertex -0.999999 0.95 23
      vertex 2.09401 -5.10703e-015 23
      vertex 1 0.949999 23
    endloop
  endfacet
  facet normal 0 0 1
    outer loop
      vertex -0.999999 0.95 23
      vertex -2.09401 -5.10703e-015 23
      vertex 2.09401 -5.10703e-015 23
    endloop
  endfacet
  facet normal -0 0 1
    outer loop
      vertex -2.38034 2.34514 23
      vertex -0.999999 0.95 23
      vertex -1.77149 3.75543 23
    endloop
  endfacet
  facet normal 0 0 1
    outer loop
      vertex -0.999999 0.95 23
      vertex -2.12803 0.564758 23
      vertex -2.09401 -5.10703e-015 23
    endloop
  endfacet
  facet normal 0 0 1
    outer loop
      vertex -0.999999 0.95 23
      vertex -2.16354 1.15417 23
      vertex -2.12803 0.564758 23
    endloop
  endfacet
  facet normal 0 0 1
    outer loop
      vertex -0.999999 0.95 23
      vertex -2.27185 1.74918 23
      vertex -2.16354 1.15417 23
    endloop
  endfacet
  facet normal 0 0 1
    outer loop
      vertex -0.999999 0.95 23
      vertex -2.38034 2.34514 23
      vertex -2.27185 1.74918 23
    endloop
  endfacet
  facet normal 0 0 1
    outer loop
      vertex -1.77149 3.75543 23
      vertex -2.55274 2.90493 23
      vertex -2.38034 2.34514 23
    endloop
  endfacet
  facet normal 0 0 1
    outer loop
      vertex -1.77149 3.75543 23
      vertex -2.73904 3.50988 23
      vertex -2.55274 2.90493 23
    endloop
  endfacet
  facet normal 0 -0 1
    outer loop
      vertex -2.73904 3.50988 23
      vertex -1.77149 3.75543 23
      vertex -2.84738 3.75543 23
    endloop
  endfacet
  facet normal -0.954479 -0.298278 0
    outer loop
      vertex -3.61246 3.50988 1.87306
      vertex -3.8088 4.13816 21.3003
      vertex -3.8088 4.13816 1.69966
    endloop
  endfacet
  facet normal -0.954479 -0.298278 0
    outer loop
      vertex -3.61246 3.50988 1.87306
      vertex -3.61246 3.50988 21.1269
      vertex -3.8088 4.13816 21.3003
    endloop
  endfacet
  facet normal -0.95448 -0.298275 0
    outer loop
      vertex -3.30176 2.51564 1.86339
      vertex -3.61246 3.50988 21.1269
      vertex -3.61246 3.50988 1.87306
    endloop
  endfacet
  facet normal -0.95448 -0.298275 0
    outer loop
      vertex -3.30176 2.51564 1.86339
      vertex -3.30176 2.51564 21.1366
      vertex -3.61246 3.50988 21.1269
    endloop
  endfacet
  facet normal -0.954482 -0.298269 0
    outer loop
      vertex -3.24848 2.34514 1.86174
      vertex -3.30176 2.51564 21.1366
      vertex -3.30176 2.51564 1.86339
    endloop
  endfacet
  facet normal -0.954482 -0.298269 0
    outer loop
      vertex -3.24848 2.34514 1.86174
      vertex -3.24848 2.34514 21.1383
      vertex -3.30176 2.51564 21.1366
    endloop
  endfacet
  facet normal -0.954479 -0.298278 0
    outer loop
      vertex -3.18787 2.15119 1.80747
      vertex -3.24848 2.34514 21.1383
      vertex -3.24848 2.34514 1.86174
    endloop
  endfacet
  facet normal -0.954479 -0.298278 0
    outer loop
      vertex -3.18787 2.15119 1.80747
      vertex -3.18787 2.15119 21.1925
      vertex -3.24848 2.34514 21.1383
    endloop
  endfacet
  facet normal -0.95448 -0.298276 0
    outer loop
      vertex -2.8763 1.15417 1.52853
      vertex -3.18787 2.15119 21.1925
      vertex -3.18787 2.15119 1.80747
    endloop
  endfacet
  facet normal -0.95448 -0.298276 0
    outer loop
      vertex -2.8763 1.15417 1.52853
      vertex -2.8763 1.15417 21.4715
      vertex -3.18787 2.15119 21.1925
    endloop
  endfacet
  facet normal -0.954482 -0.298268 0
    outer loop
      vertex -2.6177 0.32663 1.08085
      vertex -2.8763 1.15417 21.4715
      vertex -2.8763 1.15417 1.52853
    endloop
  endfacet
  facet normal -0.954482 -0.298268 0
    outer loop
      vertex -2.6177 0.32663 1.08085
      vertex -2.6177 0.32663 21.9192
      vertex -2.8763 1.15417 21.4715
    endloop
  endfacet
  facet normal -0.954477 -0.298283 0
    outer loop
      vertex -2.51875 0.00999928 0.909557
      vertex -2.6177 0.32663 21.9192
      vertex -2.6177 0.32663 1.08085
    endloop
  endfacet
  facet normal -0.954477 -0.298283 0
    outer loop
      vertex -2.6177 0.32663 21.9192
      vertex -2.51875 0.00999928 0.909557
      vertex -2.51875 0.00999928 22.0904
    endloop
  endfacet
  facet normal 0.954479 -0.298278 0
    outer loop
      vertex 3.61246 3.50988 21.1269
      vertex 3.8088 4.13816 1.69966
      vertex 3.8088 4.13816 21.3003
    endloop
  endfacet
  facet normal 0.954479 -0.298278 0
    outer loop
      vertex 3.61246 3.50988 21.1269
      vertex 3.61246 3.50988 1.87306
      vertex 3.8088 4.13816 1.69966
    endloop
  endfacet
  facet normal 0.95448 -0.298275 0
    outer loop
      vertex 3.30176 2.51564 21.1366
      vertex 3.61246 3.50988 1.87306
      vertex 3.61246 3.50988 21.1269
    endloop
  endfacet
  facet normal 0.95448 -0.298275 0
    outer loop
      vertex 3.30176 2.51564 21.1366
      vertex 3.30176 2.51564 1.86339
      vertex 3.61246 3.50988 1.87306
    endloop
  endfacet
  facet normal 0.954482 -0.298269 0
    outer loop
      vertex 3.24848 2.34514 21.1383
      vertex 3.30176 2.51564 1.86339
      vertex 3.30176 2.51564 21.1366
    endloop
  endfacet
  facet normal 0.954482 -0.298269 0
    outer loop
      vertex 3.24848 2.34514 21.1383
      vertex 3.24848 2.34514 1.86174
      vertex 3.30176 2.51564 1.86339
    endloop
  endfacet
  facet normal 0.954479 -0.298278 0
    outer loop
      vertex 3.18787 2.15119 21.1925
      vertex 3.24848 2.34514 1.86174
      vertex 3.24848 2.34514 21.1383
    endloop
  endfacet
  facet normal 0.954479 -0.298278 0
    outer loop
      vertex 3.18787 2.15119 21.1925
      vertex 3.18787 2.15119 1.80747
      vertex 3.24848 2.34514 1.86174
    endloop
  endfacet
  facet normal 0.95448 -0.298276 0
    outer loop
      vertex 2.8763 1.15417 21.4715
      vertex 3.18787 2.15119 1.80747
      vertex 3.18787 2.15119 21.1925
    endloop
  endfacet
  facet normal 0.95448 -0.298276 0
    outer loop
      vertex 2.8763 1.15417 21.4715
      vertex 2.8763 1.15417 1.52853
      vertex 3.18787 2.15119 1.80747
    endloop
  endfacet
  facet normal 0.954482 -0.298268 0
    outer loop
      vertex 2.6177 0.32663 21.9192
      vertex 2.8763 1.15417 1.52853
      vertex 2.8763 1.15417 21.4715
    endloop
  endfacet
  facet normal 0.954482 -0.298268 0
    outer loop
      vertex 2.6177 0.32663 21.9192
      vertex 2.6177 0.32663 1.08085
      vertex 2.8763 1.15417 1.52853
    endloop
  endfacet
  facet normal 0.954477 -0.298283 0
    outer loop
      vertex 2.51875 0.00999928 22.0904
      vertex 2.6177 0.32663 1.08085
      vertex 2.6177 0.32663 21.9192
    endloop
  endfacet
  facet normal 0.954477 -0.298283 0
    outer loop
      vertex 2.6177 0.32663 1.08085
      vertex 2.51875 0.00999928 22.0904
      vertex 2.51875 0.00999928 0.909557
    endloop
  endfacet
  facet normal 0 1 -0
    outer loop
      vertex -2.04499 4.75 1.19795
      vertex -2.93158 4.75 21.802
      vertex -2.04499 4.75 21.802
    endloop
  endfacet
  facet normal 0 1 0
    outer loop
      vertex -2.93158 4.75 21.802
      vertex -2.04499 4.75 1.19795
      vertex -2.93158 4.75 1.19795
    endloop
  endfacet
  facet normal 0 1 -0
    outer loop
      vertex 2.93158 4.75 1.19795
      vertex 2.04499 4.75 21.802
      vertex 2.93158 4.75 21.802
    endloop
  endfacet
  facet normal 0 1 0
    outer loop
      vertex 2.04499 4.75 21.802
      vertex 2.93158 4.75 1.19795
      vertex 2.04499 4.75 1.19795
    endloop
  endfacet
  facet normal 0.572086 0.820193 -1.13523e-005
    outer loop
      vertex 3.53359 4.33011 22.0722
      vertex 3.1324 4.60994 22.0267
      vertex 3.44862 4.38938 22.3104
    endloop
  endfacet
  facet normal 0.572089 0.820192 -4.84885e-005
    outer loop
      vertex 3.53359 4.33011 22.0722
      vertex 2.93158 4.75 21.802
      vertex 3.1324 4.60994 22.0267
    endloop
  endfacet
  facet normal 0.572073 0.820202 3.20654e-006
    outer loop
      vertex 3.8088 4.13816 21.3003
      vertex 2.93158 4.75 21.802
      vertex 3.53359 4.33011 22.0722
    endloop
  endfacet
  facet normal 0.572072 0.820203 -0
    outer loop
      vertex 3.8088 4.13816 1.69966
      vertex 2.93158 4.75 21.802
      vertex 3.8088 4.13816 21.3003
    endloop
  endfacet
  facet normal 0.572072 0.820203 0
    outer loop
      vertex 3.8088 4.13816 1.69966
      vertex 2.93158 4.75 1.19795
      vertex 2.93158 4.75 21.802
    endloop
  endfacet
  facet normal 0.572073 0.820202 -3.20699e-006
    outer loop
      vertex 3.53359 4.33011 0.927843
      vertex 2.93158 4.75 1.19795
      vertex 3.8088 4.13816 1.69966
    endloop
  endfacet
  facet normal 0.572089 0.820192 4.84914e-005
    outer loop
      vertex 2.93158 4.75 1.19795
      vertex 3.53359 4.33011 0.927843
      vertex 3.1324 4.60994 0.973289
    endloop
  endfacet
  facet normal 0.572086 0.820194 1.13494e-005
    outer loop
      vertex 3.1324 4.60994 0.973289
      vertex 3.53359 4.33011 0.927843
      vertex 3.44862 4.38938 0.689569
    endloop
  endfacet
  facet normal -0.572086 0.820193 -1.13523e-005
    outer loop
      vertex -3.1324 4.60994 22.0267
      vertex -3.53359 4.33011 22.0722
      vertex -3.44862 4.38938 22.3104
    endloop
  endfacet
  facet normal -0.572089 0.820192 -4.84885e-005
    outer loop
      vertex -2.93158 4.75 21.802
      vertex -3.53359 4.33011 22.0722
      vertex -3.1324 4.60994 22.0267
    endloop
  endfacet
  facet normal -0.572073 0.820202 3.20654e-006
    outer loop
      vertex -2.93158 4.75 21.802
      vertex -3.8088 4.13816 21.3003
      vertex -3.53359 4.33011 22.0722
    endloop
  endfacet
  facet normal -0.572072 0.820203 0
    outer loop
      vertex -2.93158 4.75 21.802
      vertex -3.8088 4.13816 1.69966
      vertex -3.8088 4.13816 21.3003
    endloop
  endfacet
  facet normal -0.572072 0.820203 0
    outer loop
      vertex -2.93158 4.75 1.19795
      vertex -3.8088 4.13816 1.69966
      vertex -2.93158 4.75 21.802
    endloop
  endfacet
  facet normal -0.572089 0.820192 4.84914e-005
    outer loop
      vertex -3.53359 4.33011 0.927843
      vertex -2.93158 4.75 1.19795
      vertex -3.1324 4.60994 0.973289
    endloop
  endfacet
  facet normal -0.572073 0.820202 -3.20699e-006
    outer loop
      vertex -2.93158 4.75 1.19795
      vertex -3.53359 4.33011 0.927843
      vertex -3.8088 4.13816 1.69966
    endloop
  endfacet
  facet normal -0.572086 0.820194 1.13494e-005
    outer loop
      vertex -3.53359 4.33011 0.927843
      vertex -3.1324 4.60994 0.973289
      vertex -3.44862 4.38938 0.689569
    endloop
  endfacet
  facet normal 0 2.22061e-016 -1
    outer loop
      vertex 2 0.00999928 1.06803e-015
      vertex 2.12803 0.564758 1.19122e-015
      vertex 2.09462 0.00999928 1.06803e-015
    endloop
  endfacet
  facet normal 4.45798e-020 2.2205e-016 -1
    outer loop
      vertex 2 1.6 1.42109e-015
      vertex 2.12803 0.564758 1.19122e-015
      vertex 2 0.00999928 1.06803e-015
    endloop
  endfacet
  facet normal -5.36062e-020 2.22038e-016 -1
    outer loop
      vertex 2.12803 0.564758 1.19122e-015
      vertex 2 1.6 1.42109e-015
      vertex 2.16354 1.15417 1.32209e-015
    endloop
  endfacet
  facet normal -2.0127e-020 2.2205e-016 -1
    outer loop
      vertex 2 1.6 1.42109e-015
      vertex 2.27185 1.74918 1.45421e-015
      vertex 2.16354 1.15417 1.32209e-015
    endloop
  endfacet
  facet normal -1.9161e-020 2.22049e-016 -1
    outer loop
      vertex 2 1.6 1.42109e-015
      vertex 2.38034 2.34514 1.58654e-015
      vertex 2.27185 1.74918 1.45421e-015
    endloop
  endfacet
  facet normal 0 2.22039e-016 -1
    outer loop
      vertex 1.17875 1.6 1.42109e-015
      vertex 2.38034 2.34514 1.58654e-015
      vertex 2 1.6 1.42109e-015
    endloop
  endfacet
  facet normal -3.77537e-021 2.22045e-016 -1
    outer loop
      vertex 1.77149 3.75543 1.89969e-015
      vertex 2.38034 2.34514 1.58654e-015
      vertex 1.17875 1.6 1.42109e-015
    endloop
  endfacet
  facet normal 0 2.22073e-016 -1
    outer loop
      vertex 2.73904 3.50988 1.84516e-015
      vertex 1.77149 3.75543 1.89969e-015
      vertex 2.84738 3.75543 1.89969e-015
    endloop
  endfacet
  facet normal -8.94915e-021 2.22038e-016 -1
    outer loop
      vertex 2.55274 2.90493 1.71084e-015
      vertex 1.77149 3.75543 1.89969e-015
      vertex 2.73904 3.50988 1.84516e-015
    endloop
  endfacet
  facet normal 1.38451e-021 2.22047e-016 -1
    outer loop
      vertex 2.38034 2.34514 1.58654e-015
      vertex 1.77149 3.75543 1.89969e-015
      vertex 2.55274 2.90493 1.71084e-015
    endloop
  endfacet
  facet normal 0 2.22061e-016 -1
    outer loop
      vertex -2.12803 0.564758 1.19122e-015
      vertex -2 0.00999928 1.06803e-015
      vertex -2.09462 0.00999928 1.06803e-015
    endloop
  endfacet
  facet normal 0 2.22039e-016 -1
    outer loop
      vertex -2.38034 2.34514 1.58654e-015
      vertex -1.17875 1.6 1.42109e-015
      vertex -2 1.6 1.42109e-015
    endloop
  endfacet
  facet normal -4.45798e-020 2.2205e-016 -1
    outer loop
      vertex -2 0.00999928 1.06803e-015
      vertex -2.12803 0.564758 1.19122e-015
      vertex -2 1.6 1.42109e-015
    endloop
  endfacet
  facet normal 5.36062e-020 2.22038e-016 -1
    outer loop
      vertex -2.16354 1.15417 1.32209e-015
      vertex -2 1.6 1.42109e-015
      vertex -2.12803 0.564758 1.19122e-015
    endloop
  endfacet
  facet normal 2.0127e-020 2.2205e-016 -1
    outer loop
      vertex -2.27185 1.74918 1.45421e-015
      vertex -2 1.6 1.42109e-015
      vertex -2.16354 1.15417 1.32209e-015
    endloop
  endfacet
  facet normal 1.9161e-020 2.22049e-016 -1
    outer loop
      vertex -2.38034 2.34514 1.58654e-015
      vertex -2 1.6 1.42109e-015
      vertex -2.27185 1.74918 1.45421e-015
    endloop
  endfacet
  facet normal 3.77537e-021 2.22045e-016 -1
    outer loop
      vertex -1.17875 1.6 1.42109e-015
      vertex -2.38034 2.34514 1.58654e-015
      vertex -1.77149 3.75543 1.89969e-015
    endloop
  endfacet
  facet normal -1.38451e-021 2.22047e-016 -1
    outer loop
      vertex -2.55274 2.90493 1.71084e-015
      vertex -1.77149 3.75543 1.89969e-015
      vertex -2.38034 2.34514 1.58654e-015
    endloop
  endfacet
  facet normal 8.94915e-021 2.22038e-016 -1
    outer loop
      vertex -2.73904 3.50988 1.84516e-015
      vertex -1.77149 3.75543 1.89969e-015
      vertex -2.55274 2.90493 1.71084e-015
    endloop
  endfacet
  facet normal 0 2.22073e-016 -1
    outer loop
      vertex -1.77149 3.75543 1.89969e-015
      vertex -2.73904 3.50988 1.84516e-015
      vertex -2.84738 3.75543 1.89969e-015
    endloop
  endfacet
  facet normal 0 0.7214 0.692518
    outer loop
      vertex -1.90213 4.23051 22.5148
      vertex -2.88807 3.80419 22.9589
      vertex -1.7849 3.80419 22.9589
    endloop
  endfacet
  facet normal 0 0.7214 0.692518
    outer loop
      vertex -2.88807 3.80419 22.9589
      vertex -1.90213 4.23051 22.5148
      vertex -3.28324 4.23051 22.5148
    endloop
  endfacet
  facet normal -0 0.7214 0.692518
    outer loop
      vertex 1.90213 4.23051 22.5148
      vertex 2.88807 3.80419 22.9589
      vertex 3.28324 4.23051 22.5148
    endloop
  endfacet
  facet normal 0 0.7214 0.692518
    outer loop
      vertex 2.88807 3.80419 22.9589
      vertex 1.90213 4.23051 22.5148
      vertex 1.7849 3.80419 22.9589
    endloop
  endfacet
  facet normal 0 0.789512 0.613736
    outer loop
      vertex -3.1324 4.60994 22.0267
      vertex -3.28324 4.23051 22.5148
      vertex -1.90213 4.23051 22.5148
    endloop
  endfacet
  facet normal -0.00273958 0.789919 0.613205
    outer loop
      vertex -3.28324 4.23051 22.5148
      vertex -3.1324 4.60994 22.0267
      vertex -3.28993 4.23693 22.5065
    endloop
  endfacet
  facet normal -0 0.789512 0.613736
    outer loop
      vertex -3.1324 4.60994 22.0267
      vertex -1.90213 4.23051 22.5148
      vertex -2.00647 4.60994 22.0267
    endloop
  endfacet
  facet normal -1.29158e-005 0.789488 0.613766
    outer loop
      vertex -3.28993 4.23693 22.5065
      vertex -3.1324 4.60994 22.0267
      vertex -3.44862 4.38938 22.3104
    endloop
  endfacet
  facet normal 0.00273958 0.789919 0.613205
    outer loop
      vertex 3.1324 4.60994 22.0267
      vertex 3.28324 4.23051 22.5148
      vertex 3.28993 4.23693 22.5065
    endloop
  endfacet
  facet normal 1.29158e-005 0.789488 0.613766
    outer loop
      vertex 3.1324 4.60994 22.0267
      vertex 3.28993 4.23693 22.5065
      vertex 3.44862 4.38938 22.3104
    endloop
  endfacet
  facet normal 0 0.789512 0.613736
    outer loop
      vertex 3.28324 4.23051 22.5148
      vertex 3.1324 4.60994 22.0267
      vertex 1.90213 4.23051 22.5148
    endloop
  endfacet
  facet normal 0 0.789512 0.613736
    outer loop
      vertex 1.90213 4.23051 22.5148
      vertex 3.1324 4.60994 22.0267
      vertex 2.00647 4.60994 22.0267
    endloop
  endfacet
  facet normal 0 0.644493 0.76461
    outer loop
      vertex -1.7849 3.80419 22.9589
      vertex -2.84738 3.75543 23
      vertex -1.77149 3.75543 23
    endloop
  endfacet
  facet normal 0 0.644493 0.76461
    outer loop
      vertex -2.84738 3.75543 23
      vertex -1.7849 3.80419 22.9589
      vertex -2.88807 3.80419 22.9589
    endloop
  endfacet
  facet normal -0 0.644493 0.76461
    outer loop
      vertex 1.7849 3.80419 22.9589
      vertex 2.84738 3.75543 23
      vertex 2.88807 3.80419 22.9589
    endloop
  endfacet
  facet normal 0 0.644493 0.76461
    outer loop
      vertex 2.84738 3.75543 23
      vertex 1.7849 3.80419 22.9589
      vertex 1.77149 3.75543 23
    endloop
  endfacet
  facet normal -0 0.848638 0.528973
    outer loop
      vertex -2.93158 4.75 21.802
      vertex -2.00647 4.60994 22.0267
      vertex -2.04499 4.75 21.802
    endloop
  endfacet
  facet normal 0 0.848638 0.528973
    outer loop
      vertex -2.00647 4.60994 22.0267
      vertex -2.93158 4.75 21.802
      vertex -3.1324 4.60994 22.0267
    endloop
  endfacet
  facet normal 0 0.848638 0.528973
    outer loop
      vertex 2.93158 4.75 21.802
      vertex 2.00647 4.60994 22.0267
      vertex 3.1324 4.60994 22.0267
    endloop
  endfacet
  facet normal 0 0.848638 0.528973
    outer loop
      vertex 2.00647 4.60994 22.0267
      vertex 2.93158 4.75 21.802
      vertex 2.04499 4.75 21.802
    endloop
  endfacet
  facet normal 0.904958 -0.0545145 -0.421994
    outer loop
      vertex 2.51875 0.00999928 0.909557
      vertex 2.12803 0.564758 1.19122e-015
      vertex 2.6177 0.32663 1.08085
    endloop
  endfacet
  facet normal 0.904962 -0.0545008 -0.421987
    outer loop
      vertex 2.12803 0.564758 1.19122e-015
      vertex 2.51875 0.00999928 0.909557
      vertex 2.09462 0.00999928 1.06803e-015
    endloop
  endfacet
  facet normal 0.841231 -0.372369 -0.392011
    outer loop
      vertex 3.53359 4.33011 0.927843
      vertex 3.28324 4.23051 0.485217
      vertex 3.28993 4.23693 0.493475
    endloop
  endfacet
  facet normal 0.841528 -0.371281 -0.392404
    outer loop
      vertex 3.61246 3.50988 1.87306
      vertex 3.53359 4.33011 0.927843
      vertex 3.8088 4.13816 1.69966
    endloop
  endfacet
  facet normal 0.841524 -0.371286 -0.392408
    outer loop
      vertex 2.73904 3.50988 1.84516e-015
      vertex 3.53359 4.33011 0.927843
      vertex 3.61246 3.50988 1.87306
    endloop
  endfacet
  facet normal 0.841524 -0.371267 -0.392425
    outer loop
      vertex 3.53359 4.33011 0.927843
      vertex 2.73904 3.50988 1.84516e-015
      vertex 3.28324 4.23051 0.485217
    endloop
  endfacet
  facet normal 0.841527 -0.371283 -0.392404
    outer loop
      vertex 3.28324 4.23051 0.485217
      vertex 2.73904 3.50988 1.84516e-015
      vertex 2.88807 3.80419 0.041132
    endloop
  endfacet
  facet normal 0.841547 -0.371302 -0.392343
    outer loop
      vertex 2.88807 3.80419 0.041132
      vertex 2.73904 3.50988 1.84516e-015
      vertex 2.84738 3.75543 1.89969e-015
    endloop
  endfacet
  facet normal 0.87294 -0.268848 -0.407057
    outer loop
      vertex 2.38034 2.34514 1.58654e-015
      vertex 3.30176 2.51564 1.86339
      vertex 3.24848 2.34514 1.86174
    endloop
  endfacet
  facet normal 0.872942 -0.268842 -0.407058
    outer loop
      vertex 3.30176 2.51564 1.86339
      vertex 2.38034 2.34514 1.58654e-015
      vertex 2.55274 2.90493 1.71084e-015
    endloop
  endfacet
  facet normal 0.894222 -0.16277 -0.416981
    outer loop
      vertex 3.18787 2.15119 1.80747
      vertex 2.38034 2.34514 1.58654e-015
      vertex 3.24848 2.34514 1.86174
    endloop
  endfacet
  facet normal 0.894219 -0.162786 -0.416981
    outer loop
      vertex 2.38034 2.34514 1.58654e-015
      vertex 3.18787 2.15119 1.80747
      vertex 2.27185 1.74918 1.45421e-015
    endloop
  endfacet
  facet normal 0.872944 -0.268831 -0.40706
    outer loop
      vertex 3.61246 3.50988 1.87306
      vertex 2.55274 2.90493 1.71084e-015
      vertex 2.73904 3.50988 1.84516e-015
    endloop
  endfacet
  facet normal 0.872944 -0.268836 -0.407058
    outer loop
      vertex 2.55274 2.90493 1.71084e-015
      vertex 3.61246 3.50988 1.87306
      vertex 3.30176 2.51564 1.86339
    endloop
  endfacet
  facet normal 0.894219 -0.162784 -0.416982
    outer loop
      vertex 2.8763 1.15417 1.52853
      vertex 2.27185 1.74918 1.45421e-015
      vertex 3.18787 2.15119 1.80747
    endloop
  endfacet
  facet normal 0.894222 -0.162776 -0.416979
    outer loop
      vertex 2.27185 1.74918 1.45421e-015
      vertex 2.8763 1.15417 1.52853
      vertex 2.16354 1.15417 1.32209e-015
    endloop
  endfacet
  facet normal 0.904962 -0.0545082 -0.421987
    outer loop
      vertex 2.6177 0.32663 1.08085
      vertex 2.16354 1.15417 1.32209e-015
      vertex 2.8763 1.15417 1.52853
    endloop
  endfacet
  facet normal 0.904957 -0.0545205 -0.421995
    outer loop
      vertex 2.16354 1.15417 1.32209e-015
      vertex 2.6177 0.32663 1.08085
      vertex 2.12803 0.564758 1.19122e-015
    endloop
  endfacet
  facet normal 0.841546 -0.371206 -0.392437
    outer loop
      vertex 3.44862 4.38938 0.689569
      vertex 3.53359 4.33011 0.927843
      vertex 3.28993 4.23693 0.493475
    endloop
  endfacet
  facet normal -0.904957 -0.0545205 -0.421995
    outer loop
      vertex -2.6177 0.32663 1.08085
      vertex -2.16354 1.15417 1.32209e-015
      vertex -2.12803 0.564758 1.19122e-015
    endloop
  endfacet
  facet normal -0.904962 -0.0545082 -0.421987
    outer loop
      vertex -2.16354 1.15417 1.32209e-015
      vertex -2.6177 0.32663 1.08085
      vertex -2.8763 1.15417 1.52853
    endloop
  endfacet
  facet normal -0.904962 -0.0545008 -0.421987
    outer loop
      vertex -2.51875 0.00999928 0.909557
      vertex -2.12803 0.564758 1.19122e-015
      vertex -2.09462 0.00999928 1.06803e-015
    endloop
  endfacet
  facet normal -0.904958 -0.0545145 -0.421994
    outer loop
      vertex -2.12803 0.564758 1.19122e-015
      vertex -2.51875 0.00999928 0.909557
      vertex -2.6177 0.32663 1.08085
    endloop
  endfacet
  facet normal -0.841231 -0.372369 -0.392011
    outer loop
      vertex -3.28324 4.23051 0.485217
      vertex -3.53359 4.33011 0.927843
      vertex -3.28993 4.23693 0.493475
    endloop
  endfacet
  facet normal -0.841524 -0.371267 -0.392425
    outer loop
      vertex -2.73904 3.50988 1.84516e-015
      vertex -3.53359 4.33011 0.927843
      vertex -3.28324 4.23051 0.485217
    endloop
  endfacet
  facet normal -0.841527 -0.371283 -0.392404
    outer loop
      vertex -2.73904 3.50988 1.84516e-015
      vertex -3.28324 4.23051 0.485217
      vertex -2.88807 3.80419 0.041132
    endloop
  endfacet
  facet normal -0.841547 -0.371302 -0.392343
    outer loop
      vertex -2.73904 3.50988 1.84516e-015
      vertex -2.88807 3.80419 0.041132
      vertex -2.84738 3.75543 1.89969e-015
    endloop
  endfacet
  facet normal -0.841524 -0.371286 -0.392408
    outer loop
      vertex -3.53359 4.33011 0.927843
      vertex -2.73904 3.50988 1.84516e-015
      vertex -3.61246 3.50988 1.87306
    endloop
  endfacet
  facet normal -0.841528 -0.371281 -0.392404
    outer loop
      vertex -3.53359 4.33011 0.927843
      vertex -3.61246 3.50988 1.87306
      vertex -3.8088 4.13816 1.69966
    endloop
  endfacet
  facet normal -0.894222 -0.162776 -0.416979
    outer loop
      vertex -2.8763 1.15417 1.52853
      vertex -2.27185 1.74918 1.45421e-015
      vertex -2.16354 1.15417 1.32209e-015
    endloop
  endfacet
  facet normal -0.894219 -0.162784 -0.416982
    outer loop
      vertex -2.27185 1.74918 1.45421e-015
      vertex -2.8763 1.15417 1.52853
      vertex -3.18787 2.15119 1.80747
    endloop
  endfacet
  facet normal -0.841546 -0.371206 -0.392437
    outer loop
      vertex -3.44862 4.38938 0.689569
      vertex -3.28993 4.23693 0.493475
      vertex -3.53359 4.33011 0.927843
    endloop
  endfacet
  facet normal -0.872944 -0.268831 -0.40706
    outer loop
      vertex -2.55274 2.90493 1.71084e-015
      vertex -3.61246 3.50988 1.87306
      vertex -2.73904 3.50988 1.84516e-015
    endloop
  endfacet
  facet normal -0.872944 -0.268836 -0.407058
    outer loop
      vertex -3.61246 3.50988 1.87306
      vertex -2.55274 2.90493 1.71084e-015
      vertex -3.30176 2.51564 1.86339
    endloop
  endfacet
  facet normal -0.872942 -0.268842 -0.407058
    outer loop
      vertex -2.38034 2.34514 1.58654e-015
      vertex -3.30176 2.51564 1.86339
      vertex -2.55274 2.90493 1.71084e-015
    endloop
  endfacet
  facet normal -0.87294 -0.268848 -0.407057
    outer loop
      vertex -3.30176 2.51564 1.86339
      vertex -2.38034 2.34514 1.58654e-015
      vertex -3.24848 2.34514 1.86174
    endloop
  endfacet
  facet normal -0.894222 -0.16277 -0.416981
    outer loop
      vertex -2.38034 2.34514 1.58654e-015
      vertex -3.18787 2.15119 1.80747
      vertex -3.24848 2.34514 1.86174
    endloop
  endfacet
  facet normal -0.894219 -0.162786 -0.416981
    outer loop
      vertex -3.18787 2.15119 1.80747
      vertex -2.38034 2.34514 1.58654e-015
      vertex -2.27185 1.74918 1.45421e-015
    endloop
  endfacet
  facet normal 0.90497 -0.0545012 0.421971
    outer loop
      vertex 2.51875 0.00999928 22.0904
      vertex 2.12803 0.564758 23
      vertex 2.09462 0.00999928 23
    endloop
  endfacet
  facet normal 0.904937 -0.0546146 0.422026
    outer loop
      vertex 2.12803 0.564758 23
      vertex 2.51875 0.00999928 22.0904
      vertex 2.6177 0.32663 21.9192
    endloop
  endfacet
  facet normal 0 0 1
    outer loop
      vertex 2.12803 0.564758 23
      vertex 2.09401 -5.10703e-015 23
      vertex 2.09462 0.00999928 23
    endloop
  endfacet
  facet normal 0.842093 -0.369088 0.39326
    outer loop
      vertex 3.28324 4.23051 22.5148
      vertex 3.53359 4.33011 22.0722
      vertex 3.28993 4.23693 22.5065
    endloop
  endfacet
  facet normal 0.841519 -0.371257 0.392447
    outer loop
      vertex 2.73904 3.50988 23
      vertex 3.53359 4.33011 22.0722
      vertex 3.28324 4.23051 22.5148
    endloop
  endfacet
  facet normal 0.841532 -0.371337 0.392343
    outer loop
      vertex 2.73904 3.50988 23
      vertex 3.28324 4.23051 22.5148
      vertex 2.88807 3.80419 22.9589
    endloop
  endfacet
  facet normal 0.841446 -0.371258 0.392602
    outer loop
      vertex 2.73904 3.50988 23
      vertex 2.88807 3.80419 22.9589
      vertex 2.84738 3.75543 23
    endloop
  endfacet
  facet normal 0.841517 -0.371313 0.392397
    outer loop
      vertex 3.53359 4.33011 22.0722
      vertex 2.73904 3.50988 23
      vertex 3.61246 3.50988 21.1269
    endloop
  endfacet
  facet normal 0.841547 -0.371277 0.392368
    outer loop
      vertex 3.53359 4.33011 22.0722
      vertex 3.61246 3.50988 21.1269
      vertex 3.8088 4.13816 21.3003
    endloop
  endfacet
  facet normal 0.841557 -0.371081 0.392532
    outer loop
      vertex 3.53359 4.33011 22.0722
      vertex 3.44862 4.38938 22.3104
      vertex 3.28993 4.23693 22.5065
    endloop
  endfacet
  facet normal 0.894197 -0.162913 0.416978
    outer loop
      vertex 2.38034 2.34514 23
      vertex 3.18787 2.15119 21.1925
      vertex 3.24848 2.34514 21.1383
    endloop
  endfacet
  facet normal 0.894222 -0.162786 0.416975
    outer loop
      vertex 3.18787 2.15119 21.1925
      vertex 2.38034 2.34514 23
      vertex 2.27185 1.74918 23
    endloop
  endfacet
  facet normal 0.872948 -0.268832 0.407052
    outer loop
      vertex 2.55274 2.90493 23
      vertex 3.61246 3.50988 21.1269
      vertex 2.73904 3.50988 23
    endloop
  endfacet
  facet normal 0.872948 -0.268825 0.407055
    outer loop
      vertex 3.61246 3.50988 21.1269
      vertex 2.55274 2.90493 23
      vertex 3.30176 2.51564 21.1366
    endloop
  endfacet
  facet normal 0.90495 -0.05452 0.422011
    outer loop
      vertex 2.6177 0.32663 21.9192
      vertex 2.16354 1.15417 23
      vertex 2.12803 0.564758 23
    endloop
  endfacet
  facet normal 0.904959 -0.0544934 0.421995
    outer loop
      vertex 2.16354 1.15417 23
      vertex 2.6177 0.32663 21.9192
      vertex 2.8763 1.15417 21.4715
    endloop
  endfacet
  facet normal 0.894219 -0.162775 0.416986
    outer loop
      vertex 2.8763 1.15417 21.4715
      vertex 2.27185 1.74918 23
      vertex 2.16354 1.15417 23
    endloop
  endfacet
  facet normal 0.894223 -0.16276 0.416982
    outer loop
      vertex 2.27185 1.74918 23
      vertex 2.8763 1.15417 21.4715
      vertex 3.18787 2.15119 21.1925
    endloop
  endfacet
  facet normal 0.872943 -0.268842 0.407057
    outer loop
      vertex 2.38034 2.34514 23
      vertex 3.30176 2.51564 21.1366
      vertex 2.55274 2.90493 23
    endloop
  endfacet
  facet normal 0.872965 -0.268736 0.407078
    outer loop
      vertex 3.30176 2.51564 21.1366
      vertex 2.38034 2.34514 23
      vertex 3.24848 2.34514 21.1383
    endloop
  endfacet
  facet normal -0.904959 -0.0544934 0.421995
    outer loop
      vertex -2.6177 0.32663 21.9192
      vertex -2.16354 1.15417 23
      vertex -2.8763 1.15417 21.4715
    endloop
  endfacet
  facet normal -0.90495 -0.05452 0.422011
    outer loop
      vertex -2.16354 1.15417 23
      vertex -2.6177 0.32663 21.9192
      vertex -2.12803 0.564758 23
    endloop
  endfacet
  facet normal -0.904937 -0.0546146 0.422026
    outer loop
      vertex -2.51875 0.00999928 22.0904
      vertex -2.12803 0.564758 23
      vertex -2.6177 0.32663 21.9192
    endloop
  endfacet
  facet normal -0.90497 -0.0545012 0.421971
    outer loop
      vertex -2.12803 0.564758 23
      vertex -2.51875 0.00999928 22.0904
      vertex -2.09462 0.00999928 23
    endloop
  endfacet
  facet normal -0 -0 1
    outer loop
      vertex -2.09462 0.00999928 23
      vertex -2.09401 -5.10703e-015 23
      vertex -2.12803 0.564758 23
    endloop
  endfacet
  facet normal -0.894197 -0.162913 0.416978
    outer loop
      vertex -3.18787 2.15119 21.1925
      vertex -2.38034 2.34514 23
      vertex -3.24848 2.34514 21.1383
    endloop
  endfacet
  facet normal -0.894222 -0.162786 0.416975
    outer loop
      vertex -2.38034 2.34514 23
      vertex -3.18787 2.15119 21.1925
      vertex -2.27185 1.74918 23
    endloop
  endfacet
  facet normal -0.894223 -0.16276 0.416982
    outer loop
      vertex -2.8763 1.15417 21.4715
      vertex -2.27185 1.74918 23
      vertex -3.18787 2.15119 21.1925
    endloop
  endfacet
  facet normal -0.894219 -0.162775 0.416986
    outer loop
      vertex -2.27185 1.74918 23
      vertex -2.8763 1.15417 21.4715
      vertex -2.16354 1.15417 23
    endloop
  endfacet
  facet normal -0.872948 -0.268832 0.407052
    outer loop
      vertex -3.61246 3.50988 21.1269
      vertex -2.55274 2.90493 23
      vertex -2.73904 3.50988 23
    endloop
  endfacet
  facet normal -0.872948 -0.268825 0.407055
    outer loop
      vertex -2.55274 2.90493 23
      vertex -3.61246 3.50988 21.1269
      vertex -3.30176 2.51564 21.1366
    endloop
  endfacet
  facet normal -0.872965 -0.268736 0.407078
    outer loop
      vertex -2.38034 2.34514 23
      vertex -3.30176 2.51564 21.1366
      vertex -3.24848 2.34514 21.1383
    endloop
  endfacet
  facet normal -0.872943 -0.268842 0.407057
    outer loop
      vertex -3.30176 2.51564 21.1366
      vertex -2.38034 2.34514 23
      vertex -2.55274 2.90493 23
    endloop
  endfacet
  facet normal -0.841557 -0.371081 0.392532
    outer loop
      vertex -3.28993 4.23693 22.5065
      vertex -3.44862 4.38938 22.3104
      vertex -3.53359 4.33011 22.0722
    endloop
  endfacet
  facet normal -0.842093 -0.369088 0.39326
    outer loop
      vertex -3.53359 4.33011 22.0722
      vertex -3.28324 4.23051 22.5148
      vertex -3.28993 4.23693 22.5065
    endloop
  endfacet
  facet normal -0.841547 -0.371277 0.392368
    outer loop
      vertex -3.61246 3.50988 21.1269
      vertex -3.53359 4.33011 22.0722
      vertex -3.8088 4.13816 21.3003
    endloop
  endfacet
  facet normal -0.841517 -0.371313 0.392397
    outer loop
      vertex -2.73904 3.50988 23
      vertex -3.53359 4.33011 22.0722
      vertex -3.61246 3.50988 21.1269
    endloop
  endfacet
  facet normal -0.841519 -0.371257 0.392447
    outer loop
      vertex -3.53359 4.33011 22.0722
      vertex -2.73904 3.50988 23
      vertex -3.28324 4.23051 22.5148
    endloop
  endfacet
  facet normal -0.841532 -0.371337 0.392343
    outer loop
      vertex -3.28324 4.23051 22.5148
      vertex -2.73904 3.50988 23
      vertex -2.88807 3.80419 22.9589
    endloop
  endfacet
  facet normal -0.841446 -0.371258 0.392602
    outer loop
      vertex -2.88807 3.80419 22.9589
      vertex -2.73904 3.50988 23
      vertex -2.84738 3.75543 23
    endloop
  endfacet
  facet normal -0.964208 0.265146 2.2191e-005
    outer loop
      vertex 1.17875 1.6 1.42109e-015
      vertex 2.04499 4.75 1.19795
      vertex 2.00647 4.60994 0.973289
    endloop
  endfacet
  facet normal -0.964206 0.265154 0
    outer loop
      vertex 2.04499 4.75 1.19795
      vertex 1.17875 1.6 1.42109e-015
      vertex 2.04499 4.75 21.802
    endloop
  endfacet
  facet normal -0.964206 0.265154 -4.08557e-006
    outer loop
      vertex 1.17875 1.6 1.42109e-015
      vertex 2.00647 4.60994 0.973289
      vertex 1.90213 4.23051 0.485217
    endloop
  endfacet
  facet normal -0.964206 0.265154 0
    outer loop
      vertex 1.17875 1.6 23
      vertex 2.04499 4.75 21.802
      vertex 1.17875 1.6 1.42109e-015
    endloop
  endfacet
  facet normal -0.964206 0.265156 -1.67245e-005
    outer loop
      vertex 1.17875 1.6 1.42109e-015
      vertex 1.90213 4.23051 0.485217
      vertex 1.7849 3.80419 0.041132
    endloop
  endfacet
  facet normal -0.964208 0.265146 -2.21863e-005
    outer loop
      vertex 2.04499 4.75 21.802
      vertex 1.17875 1.6 23
      vertex 2.00647 4.60994 22.0267
    endloop
  endfacet
  facet normal -0.964206 0.265155 2.51652e-005
    outer loop
      vertex 1.17875 1.6 1.42109e-015
      vertex 1.7849 3.80419 0.041132
      vertex 1.77149 3.75543 1.89969e-015
    endloop
  endfacet
  facet normal -0.964206 0.265154 4.08528e-006
    outer loop
      vertex 2.00647 4.60994 22.0267
      vertex 1.17875 1.6 23
      vertex 1.90213 4.23051 22.5148
    endloop
  endfacet
  facet normal -0.964206 0.265156 1.67237e-005
    outer loop
      vertex 1.90213 4.23051 22.5148
      vertex 1.17875 1.6 23
      vertex 1.7849 3.80419 22.9589
    endloop
  endfacet
  facet normal -0.964206 0.265155 -2.51848e-005
    outer loop
      vertex 1.7849 3.80419 22.9589
      vertex 1.17875 1.6 23
      vertex 1.77149 3.75543 23
    endloop
  endfacet
  facet normal -0 0 -1
    outer loop
      vertex 1.17875 1.6 23
      vertex 1 0.949999 23
      vertex 1.77149 3.75543 23
    endloop
  endfacet
  facet normal 0.964208 0.265146 -2.21863e-005
    outer loop
      vertex -1.17875 1.6 23
      vertex -2.04499 4.75 21.802
      vertex -2.00647 4.60994 22.0267
    endloop
  endfacet
  facet normal 0.964206 0.265154 0
    outer loop
      vertex -2.04499 4.75 21.802
      vertex -1.17875 1.6 23
      vertex -2.04499 4.75 1.19795
    endloop
  endfacet
  facet normal 0.964206 0.265154 4.08528e-006
    outer loop
      vertex -1.17875 1.6 23
      vertex -2.00647 4.60994 22.0267
      vertex -1.90213 4.23051 22.5148
    endloop
  endfacet
  facet normal 0.964206 0.265154 -0
    outer loop
      vertex -1.17875 1.6 1.42109e-015
      vertex -2.04499 4.75 1.19795
      vertex -1.17875 1.6 23
    endloop
  endfacet
  facet normal 0.964206 0.265156 1.67237e-005
    outer loop
      vertex -1.17875 1.6 23
      vertex -1.90213 4.23051 22.5148
      vertex -1.7849 3.80419 22.9589
    endloop
  endfacet
  facet normal 0.964208 0.265146 2.2191e-005
    outer loop
      vertex -2.04499 4.75 1.19795
      vertex -1.17875 1.6 1.42109e-015
      vertex -2.00647 4.60994 0.973289
    endloop
  endfacet
  facet normal 0.964206 0.265155 -2.51848e-005
    outer loop
      vertex -1.17875 1.6 23
      vertex -1.7849 3.80419 22.9589
      vertex -1.77149 3.75543 23
    endloop
  endfacet
  facet normal 0.964206 0.265154 -4.08557e-006
    outer loop
      vertex -2.00647 4.60994 0.973289
      vertex -1.17875 1.6 1.42109e-015
      vertex -1.90213 4.23051 0.485217
    endloop
  endfacet
  facet normal 0.964206 0.265156 -1.67245e-005
    outer loop
      vertex -1.90213 4.23051 0.485217
      vertex -1.17875 1.6 1.42109e-015
      vertex -1.7849 3.80419 0.041132
    endloop
  endfacet
  facet normal 0.964206 0.265155 2.51652e-005
    outer loop
      vertex -1.7849 3.80419 0.041132
      vertex -1.17875 1.6 1.42109e-015
      vertex -1.77149 3.75543 1.89969e-015
    endloop
  endfacet
  facet normal 0 0 -1
    outer loop
      vertex -1.17875 1.6 23
      vertex -1.77149 3.75543 23
      vertex -0.999999 0.95 23
    endloop
  endfacet
  facet normal -1 0 0
    outer loop
      vertex -2 0.00999928 2.22029e-018
      vertex -2 1.6 1.42109e-015
      vertex -2 1.6 3.55271e-016
    endloop
  endfacet
  facet normal -1 0 0
    outer loop
      vertex -2 1.6 1.42109e-015
      vertex -2 0.00999928 2.22029e-018
      vertex -2 0.00999928 1.06803e-015
    endloop
  endfacet
  facet normal 0 1 -0
    outer loop
      vertex 2 1.6 3.55271e-016
      vertex 1.17875 1.6 1.42109e-015
      vertex 2 1.6 1.42109e-015
    endloop
  endfacet
  facet normal 0 1 0
    outer loop
      vertex 1.17875 1.6 1.42109e-015
      vertex 2 1.6 3.55271e-016
      vertex -1.17875 1.6 1.42109e-015
    endloop
  endfacet
  facet normal 0 1 0
    outer loop
      vertex -2 1.6 3.55271e-016
      vertex -1.17875 1.6 1.42109e-015
      vertex 2 1.6 3.55271e-016
    endloop
  endfacet
  facet normal 0 1 0
    outer loop
      vertex -1.17875 1.6 1.42109e-015
      vertex -2 1.6 3.55271e-016
      vertex -2 1.6 1.42109e-015
    endloop
  endfacet
  facet normal 0 1 -0
    outer loop
      vertex 1.17875 1.6 1.42109e-015
      vertex -1.17875 1.6 23
      vertex 1.17875 1.6 23
    endloop
  endfacet
  facet normal 0 1 0
    outer loop
      vertex -1.17875 1.6 23
      vertex 1.17875 1.6 1.42109e-015
      vertex -1.17875 1.6 1.42109e-015
    endloop
  endfacet
  facet normal 1 -0 0
    outer loop
      vertex 2 0.00999928 1.06803e-015
      vertex 2 1.6 3.55271e-016
      vertex 2 1.6 1.42109e-015
    endloop
  endfacet
  facet normal 1 0 0
    outer loop
      vertex 2 1.6 3.55271e-016
      vertex 2 0.00999928 1.06803e-015
      vertex 2 0.00999928 2.22029e-018
    endloop
  endfacet
  facet normal 0 0 1
    outer loop
      vertex 1.17875 1.6 23
      vertex -0.999999 0.95 23
      vertex 1 0.949999 23
    endloop
  endfacet
  facet normal 0 -0 1
    outer loop
      vertex -0.999999 0.95 23
      vertex 1.17875 1.6 23
      vertex -1.17875 1.6 23
    endloop
  endfacet
  facet normal 0 2.22044e-016 -1
    outer loop
      vertex -2 0.00999928 2.22029e-018
      vertex 2 1.6 3.55271e-016
      vertex 2 0.00999928 2.22029e-018
    endloop
  endfacet
  facet normal 0 2.22044e-016 -1
    outer loop
      vertex 2 1.6 3.55271e-016
      vertex -2 0.00999928 2.22029e-018
      vertex -2 1.6 3.55271e-016
    endloop
  endfacet
  facet normal 0 -0.789495 -0.613758
    outer loop
      vertex 5.90213 -5.73051 0.485217
      vertex 7.1324 -6.10994 0.973289
      vertex 6.00647 -6.10994 0.973289
    endloop
  endfacet
  facet normal -1.93357e-005 -0.789492 -0.613761
    outer loop
      vertex 7.1324 -6.10994 0.973289
      vertex 7.28993 -5.73693 0.493475
      vertex 7.44862 -5.88938 0.689569
    endloop
  endfacet
  facet normal 0 -0.789495 -0.613758
    outer loop
      vertex 7.1324 -6.10994 0.973289
      vertex 5.90213 -5.73051 0.485217
      vertex 7.28324 -5.73051 0.485217
    endloop
  endfacet
  facet normal -1.56294e-005 -0.789492 -0.613761
    outer loop
      vertex 7.1324 -6.10994 0.973289
      vertex 7.28324 -5.73051 0.485217
      vertex 7.28993 -5.73693 0.493475
    endloop
  endfacet
  facet normal 1.93351e-005 -0.789492 -0.613761
    outer loop
      vertex 0.710074 -5.73693 0.493475
      vertex 0.867604 -6.10994 0.973289
      vertex 0.551377 -5.88938 0.689569
    endloop
  endfacet
  facet normal 1.5641e-005 -0.789492 -0.613761
    outer loop
      vertex 0.716757 -5.73051 0.485217
      vertex 0.867604 -6.10994 0.973289
      vertex 0.710074 -5.73693 0.493475
    endloop
  endfacet
  facet normal -0 -0.789495 -0.613758
    outer loop
      vertex 2.09787 -5.73051 0.485217
      vertex 0.867604 -6.10994 0.973289
      vertex 0.716757 -5.73051 0.485217
    endloop
  endfacet
  facet normal 0 -0.789495 -0.613758
    outer loop
      vertex 0.867604 -6.10994 0.973289
      vertex 2.09787 -5.73051 0.485217
      vertex 1.99353 -6.10994 0.973289
    endloop
  endfacet
  facet normal 0 -0.848597 -0.529039
    outer loop
      vertex 6.00647 -6.10994 0.973289
      vertex 6.93158 -6.25 1.19795
      vertex 6.04499 -6.25 1.19795
    endloop
  endfacet
  facet normal 0 -0.848597 -0.529039
    outer loop
      vertex 6.93158 -6.25 1.19795
      vertex 6.00647 -6.10994 0.973289
      vertex 7.1324 -6.10994 0.973289
    endloop
  endfacet
  facet normal -0 -0.848597 -0.529039
    outer loop
      vertex 1.99353 -6.10994 0.973289
      vertex 1.06842 -6.25 1.19795
      vertex 0.867604 -6.10994 0.973289
    endloop
  endfacet
  facet normal 0 -0.848597 -0.529039
    outer loop
      vertex 1.06842 -6.25 1.19795
      vertex 1.99353 -6.10994 0.973289
      vertex 1.95501 -6.25 1.19795
    endloop
  endfacet
  facet normal -0 -0.721389 -0.69253
    outer loop
      vertex 6.88807 -5.30419 0.041132
      vertex 5.90213 -5.73051 0.485217
      vertex 5.7849 -5.30419 0.041132
    endloop
  endfacet
  facet normal 0 -0.721389 -0.69253
    outer loop
      vertex 5.90213 -5.73051 0.485217
      vertex 6.88807 -5.30419 0.041132
      vertex 7.28324 -5.73051 0.485217
    endloop
  endfacet
  facet normal 0 -0.721389 -0.69253
    outer loop
      vertex 1.11193 -5.30419 0.041132
      vertex 2.09787 -5.73051 0.485217
      vertex 0.716757 -5.73051 0.485217
    endloop
  endfacet
  facet normal 0 -0.721389 -0.69253
    outer loop
      vertex 2.09787 -5.73051 0.485217
      vertex 1.11193 -5.30419 0.041132
      vertex 2.2151 -5.30419 0.041132
    endloop
  endfacet
  facet normal 0 -0.644786 -0.764363
    outer loop
      vertex 5.7849 -5.30419 0.041132
      vertex 6.84738 -5.25543 1.89969e-015
      vertex 6.88807 -5.30419 0.041132
    endloop
  endfacet
  facet normal -0 -0.644786 -0.764363
    outer loop
      vertex 6.84738 -5.25543 1.89969e-015
      vertex 5.7849 -5.30419 0.041132
      vertex 5.77149 -5.25543 1.89969e-015
    endloop
  endfacet
  facet normal 0 -0.644786 -0.764363
    outer loop
      vertex 2.2151 -5.30419 0.041132
      vertex 1.15262 -5.25543 1.89969e-015
      vertex 2.22851 -5.25543 1.89969e-015
    endloop
  endfacet
  facet normal 0 -0.644786 -0.764363
    outer loop
      vertex 1.15262 -5.25543 1.89969e-015
      vertex 2.2151 -5.30419 0.041132
      vertex 1.11193 -5.30419 0.041132
    endloop
  endfacet
  facet normal 0 0 1
    outer loop
      vertex 6.73904 -5.00988 23
      vertex 5.77149 -5.25543 23
      vertex 6.84738 -5.25543 23
    endloop
  endfacet
  facet normal 0 0 1
    outer loop
      vertex 6.55274 -4.40493 23
      vertex 5.77149 -5.25543 23
      vertex 6.73904 -5.00988 23
    endloop
  endfacet
  facet normal 0 0 1
    outer loop
      vertex 6.38034 -3.84514 23
      vertex 5.77149 -5.25543 23
      vertex 6.55274 -4.40493 23
    endloop
  endfacet
  facet normal 0 0 1
    outer loop
      vertex 5 -2.45 23
      vertex 6.38034 -3.84514 23
      vertex 6.27185 -3.24918 23
    endloop
  endfacet
  facet normal 0 0 1
    outer loop
      vertex 5 -2.45 23
      vertex 6.27185 -3.24918 23
      vertex 6.16354 -2.65417 23
    endloop
  endfacet
  facet normal -0 0 1
    outer loop
      vertex 5 -2.45 23
      vertex 6.16354 -2.65417 23
      vertex 6.12803 -2.06476 23
    endloop
  endfacet
  facet normal 0 0 1
    outer loop
      vertex 5 -2.45 23
      vertex 6.12803 -2.06476 23
      vertex 6.09401 -1.5 23
    endloop
  endfacet
  facet normal 0 0 1
    outer loop
      vertex 6.38034 -3.84514 23
      vertex 5 -2.45 23
      vertex 5.77149 -5.25543 23
    endloop
  endfacet
  facet normal 0 0 1
    outer loop
      vertex 6.09401 -1.5 23
      vertex 3 -2.45 23
      vertex 5 -2.45 23
    endloop
  endfacet
  facet normal -0 0 1
    outer loop
      vertex 1.90599 -1.5 23
      vertex 3 -2.45 23
      vertex 6.09401 -1.5 23
    endloop
  endfacet
  facet normal -0 0 1
    outer loop
      vertex 1.87197 -2.06476 23
      vertex 3 -2.45 23
      vertex 1.90599 -1.5 23
    endloop
  endfacet
  facet normal 0 0 1
    outer loop
      vertex 1.83646 -2.65417 23
      vertex 3 -2.45 23
      vertex 1.87197 -2.06476 23
    endloop
  endfacet
  facet normal 0 0 1
    outer loop
      vertex 1.72815 -3.24918 23
      vertex 3 -2.45 23
      vertex 1.83646 -2.65417 23
    endloop
  endfacet
  facet normal 0 0 1
    outer loop
      vertex 1.61966 -3.84514 23
      vertex 3 -2.45 23
      vertex 1.72815 -3.24918 23
    endloop
  endfacet
  facet normal 0 0 1
    outer loop
      vertex 3 -2.45 23
      vertex 1.61966 -3.84514 23
      vertex 2.22851 -5.25543 23
    endloop
  endfacet
  facet normal -0 0 1
    outer loop
      vertex 1.44726 -4.40493 23
      vertex 2.22851 -5.25543 23
      vertex 1.61966 -3.84514 23
    endloop
  endfacet
  facet normal -0 0 1
    outer loop
      vertex 1.26096 -5.00988 23
      vertex 2.22851 -5.25543 23
      vertex 1.44726 -4.40493 23
    endloop
  endfacet
  facet normal 0 0 1
    outer loop
      vertex 2.22851 -5.25543 23
      vertex 1.26096 -5.00988 23
      vertex 1.15262 -5.25543 23
    endloop
  endfacet
  facet normal 0.954477 0.298284 0
    outer loop
      vertex 6.6177 -1.82663 21.9192
      vertex 6.51875 -1.51 0.909557
      vertex 6.51875 -1.51 22.0904
    endloop
  endfacet
  facet normal 0.954477 0.298284 0
    outer loop
      vertex 6.6177 -1.82663 21.9192
      vertex 6.6177 -1.82663 1.08085
      vertex 6.51875 -1.51 0.909557
    endloop
  endfacet
  facet normal 0.954482 0.298268 0
    outer loop
      vertex 6.8763 -2.65417 21.4715
      vertex 6.6177 -1.82663 1.08085
      vertex 6.6177 -1.82663 21.9192
    endloop
  endfacet
  facet normal 0.954482 0.298268 0
    outer loop
      vertex 6.8763 -2.65417 21.4715
      vertex 6.8763 -2.65417 1.52853
      vertex 6.6177 -1.82663 1.08085
    endloop
  endfacet
  facet normal 0.95448 0.298276 0
    outer loop
      vertex 7.18787 -3.65119 21.1925
      vertex 6.8763 -2.65417 1.52853
      vertex 6.8763 -2.65417 21.4715
    endloop
  endfacet
  facet normal 0.95448 0.298276 0
    outer loop
      vertex 7.18787 -3.65119 21.1925
      vertex 7.18787 -3.65119 1.80747
      vertex 6.8763 -2.65417 1.52853
    endloop
  endfacet
  facet normal 0.954479 0.298278 0
    outer loop
      vertex 7.24848 -3.84514 21.1383
      vertex 7.18787 -3.65119 1.80747
      vertex 7.18787 -3.65119 21.1925
    endloop
  endfacet
  facet normal 0.954479 0.298278 0
    outer loop
      vertex 7.24848 -3.84514 21.1383
      vertex 7.24848 -3.84514 1.86174
      vertex 7.18787 -3.65119 1.80747
    endloop
  endfacet
  facet normal 0.954482 0.298269 0
    outer loop
      vertex 7.30176 -4.01564 21.1366
      vertex 7.24848 -3.84514 1.86174
      vertex 7.24848 -3.84514 21.1383
    endloop
  endfacet
  facet normal 0.954482 0.298269 0
    outer loop
      vertex 7.30176 -4.01564 21.1366
      vertex 7.30176 -4.01564 1.86339
      vertex 7.24848 -3.84514 1.86174
    endloop
  endfacet
  facet normal 0.95448 0.298275 0
    outer loop
      vertex 7.61246 -5.00988 21.1269
      vertex 7.30176 -4.01564 1.86339
      vertex 7.30176 -4.01564 21.1366
    endloop
  endfacet
  facet normal 0.95448 0.298275 0
    outer loop
      vertex 7.61246 -5.00988 21.1269
      vertex 7.61246 -5.00988 1.87306
      vertex 7.30176 -4.01564 1.86339
    endloop
  endfacet
  facet normal 0.954479 0.298278 0
    outer loop
      vertex 7.8088 -5.63816 21.3003
      vertex 7.61246 -5.00988 1.87306
      vertex 7.61246 -5.00988 21.1269
    endloop
  endfacet
  facet normal 0.954479 0.298278 0
    outer loop
      vertex 7.61246 -5.00988 1.87306
      vertex 7.8088 -5.63816 21.3003
      vertex 7.8088 -5.63816 1.69966
    endloop
  endfacet
  facet normal -0.954477 0.298284 0
    outer loop
      vertex 1.3823 -1.82663 1.08085
      vertex 1.48125 -1.51 22.0904
      vertex 1.48125 -1.51 0.909557
    endloop
  endfacet
  facet normal -0.954477 0.298284 0
    outer loop
      vertex 1.3823 -1.82663 1.08085
      vertex 1.3823 -1.82663 21.9192
      vertex 1.48125 -1.51 22.0904
    endloop
  endfacet
  facet normal -0.954482 0.298268 0
    outer loop
      vertex 1.1237 -2.65417 1.52853
      vertex 1.3823 -1.82663 21.9192
      vertex 1.3823 -1.82663 1.08085
    endloop
  endfacet
  facet normal -0.954482 0.298268 0
    outer loop
      vertex 1.1237 -2.65417 1.52853
      vertex 1.1237 -2.65417 21.4715
      vertex 1.3823 -1.82663 21.9192
    endloop
  endfacet
  facet normal -0.954479 0.298277 0
    outer loop
      vertex 0.812129 -3.65119 1.80747
      vertex 1.1237 -2.65417 21.4715
      vertex 1.1237 -2.65417 1.52853
    endloop
  endfacet
  facet normal -0.954479 0.298277 0
    outer loop
      vertex 0.812129 -3.65119 1.80747
      vertex 0.812129 -3.65119 21.1925
      vertex 1.1237 -2.65417 21.4715
    endloop
  endfacet
  facet normal -0.954478 0.298282 0
    outer loop
      vertex 0.751518 -3.84514 1.86174
      vertex 0.812129 -3.65119 21.1925
      vertex 0.812129 -3.65119 1.80747
    endloop
  endfacet
  facet normal -0.954478 0.298282 0
    outer loop
      vertex 0.751518 -3.84514 1.86174
      vertex 0.751518 -3.84514 21.1383
      vertex 0.812129 -3.65119 21.1925
    endloop
  endfacet
  facet normal -0.95448 0.298274 0
    outer loop
      vertex 0.698237 -4.01564 1.86339
      vertex 0.751518 -3.84514 21.1383
      vertex 0.751518 -3.84514 1.86174
    endloop
  endfacet
  facet normal -0.95448 0.298274 0
    outer loop
      vertex 0.698237 -4.01564 1.86339
      vertex 0.698237 -4.01564 21.1366
      vertex 0.751518 -3.84514 21.1383
    endloop
  endfacet
  facet normal -0.954481 0.298273 0
    outer loop
      vertex 0.387539 -5.00988 1.87306
      vertex 0.698237 -4.01564 21.1366
      vertex 0.698237 -4.01564 1.86339
    endloop
  endfacet
  facet normal -0.954481 0.298273 0
    outer loop
      vertex 0.387539 -5.00988 1.87306
      vertex 0.387539 -5.00988 21.1269
      vertex 0.698237 -4.01564 21.1366
    endloop
  endfacet
  facet normal -0.954479 0.298277 0
    outer loop
      vertex 0.1912 -5.63816 1.69966
      vertex 0.387539 -5.00988 21.1269
      vertex 0.387539 -5.00988 1.87306
    endloop
  endfacet
  facet normal -0.954479 0.298277 0
    outer loop
      vertex 0.387539 -5.00988 21.1269
      vertex 0.1912 -5.63816 1.69966
      vertex 0.1912 -5.63816 21.3003
    endloop
  endfacet
  facet normal 0 -1 0
    outer loop
      vertex 6.04499 -6.25 1.19795
      vertex 6.93158 -6.25 21.802
      vertex 6.04499 -6.25 21.802
    endloop
  endfacet
  facet normal 0 -1 -0
    outer loop
      vertex 6.93158 -6.25 21.802
      vertex 6.04499 -6.25 1.19795
      vertex 6.93158 -6.25 1.19795
    endloop
  endfacet
  facet normal 0 -1 0
    outer loop
      vertex 1.06842 -6.25 1.19795
      vertex 1.95501 -6.25 21.802
      vertex 1.06842 -6.25 21.802
    endloop
  endfacet
  facet normal 0 -1 -0
    outer loop
      vertex 1.95501 -6.25 21.802
      vertex 1.06842 -6.25 1.19795
      vertex 1.95501 -6.25 1.19795
    endloop
  endfacet
  facet normal -0.572087 -0.820193 -2.52022e-005
    outer loop
      vertex 0.466414 -5.83011 22.0722
      vertex 0.867604 -6.10994 22.0267
      vertex 0.551378 -5.88938 22.3104
    endloop
  endfacet
  facet normal -0.572088 -0.820192 -3.71559e-005
    outer loop
      vertex 0.466414 -5.83011 22.0722
      vertex 1.06842 -6.25 21.802
      vertex 0.867604 -6.10994 22.0267
    endloop
  endfacet
  facet normal -0.572075 -0.820201 6.93036e-006
    outer loop
      vertex 0.1912 -5.63816 21.3003
      vertex 1.06842 -6.25 21.802
      vertex 0.466414 -5.83011 22.0722
    endloop
  endfacet
  facet normal -0.572072 -0.820203 0
    outer loop
      vertex 0.1912 -5.63816 1.69966
      vertex 1.06842 -6.25 21.802
      vertex 0.1912 -5.63816 21.3003
    endloop
  endfacet
  facet normal -0.572072 -0.820203 0
    outer loop
      vertex 0.1912 -5.63816 1.69966
      vertex 1.06842 -6.25 1.19795
      vertex 1.06842 -6.25 21.802
    endloop
  endfacet
  facet normal -0.572075 -0.820201 -6.93133e-006
    outer loop
      vertex 0.466414 -5.83011 0.927843
      vertex 1.06842 -6.25 1.19795
      vertex 0.1912 -5.63816 1.69966
    endloop
  endfacet
  facet normal -0.572088 -0.820192 3.71581e-005
    outer loop
      vertex 1.06842 -6.25 1.19795
      vertex 0.466414 -5.83011 0.927843
      vertex 0.867604 -6.10994 0.973289
    endloop
  endfacet
  facet normal -0.572087 -0.820193 2.75036e-005
    outer loop
      vertex 0.867604 -6.10994 0.973289
      vertex 0.466414 -5.83011 0.927843
      vertex 0.551377 -5.88938 0.689569
    endloop
  endfacet
  facet normal 0.572086 -0.820193 -1.13523e-005
    outer loop
      vertex 7.1324 -6.10994 22.0267
      vertex 7.53359 -5.83011 22.0722
      vertex 7.44862 -5.88938 22.3104
    endloop
  endfacet
  facet normal 0.572089 -0.820192 -4.84885e-005
    outer loop
      vertex 6.93158 -6.25 21.802
      vertex 7.53359 -5.83011 22.0722
      vertex 7.1324 -6.10994 22.0267
    endloop
  endfacet
  facet normal 0.572073 -0.820202 3.20654e-006
    outer loop
      vertex 6.93158 -6.25 21.802
      vertex 7.8088 -5.63816 21.3003
      vertex 7.53359 -5.83011 22.0722
    endloop
  endfacet
  facet normal 0.572072 -0.820203 0
    outer loop
      vertex 6.93158 -6.25 21.802
      vertex 7.8088 -5.63816 1.69966
      vertex 7.8088 -5.63816 21.3003
    endloop
  endfacet
  facet normal 0.572072 -0.820203 0
    outer loop
      vertex 6.93158 -6.25 1.19795
      vertex 7.8088 -5.63816 1.69966
      vertex 6.93158 -6.25 21.802
    endloop
  endfacet
  facet normal 0.572089 -0.820192 4.84914e-005
    outer loop
      vertex 7.53359 -5.83011 0.927843
      vertex 6.93158 -6.25 1.19795
      vertex 7.1324 -6.10994 0.973289
    endloop
  endfacet
  facet normal 0.572073 -0.820202 -3.20699e-006
    outer loop
      vertex 6.93158 -6.25 1.19795
      vertex 7.53359 -5.83011 0.927843
      vertex 7.8088 -5.63816 1.69966
    endloop
  endfacet
  facet normal 0.572086 -0.820194 1.13494e-005
    outer loop
      vertex 7.53359 -5.83011 0.927843
      vertex 7.1324 -6.10994 0.973289
      vertex 7.44862 -5.88938 0.689569
    endloop
  endfacet
  facet normal 3.77537e-021 -2.22045e-016 -1
    outer loop
      vertex 1.61966 -3.84514 1.58654e-015
      vertex 2.82125 -3.1 1.42109e-015
      vertex 2.22851 -5.25543 1.89969e-015
    endloop
  endfacet
  facet normal -4.19241e-020 -2.2205e-016 -1
    outer loop
      vertex 1.87197 -2.06476 1.19122e-015
      vertex 2 -1.51 1.06803e-015
      vertex 2 -3.1 1.42109e-015
    endloop
  endfacet
  facet normal -0 -2.2206e-016 -1
    outer loop
      vertex 2 -1.51 1.06803e-015
      vertex 1.87197 -2.06476 1.19122e-015
      vertex 1.90538 -1.51 1.06803e-015
    endloop
  endfacet
  facet normal -0 -2.22039e-016 -1
    outer loop
      vertex 2.82125 -3.1 1.42109e-015
      vertex 1.61966 -3.84514 1.58654e-015
      vertex 2 -3.1 1.42109e-015
    endloop
  endfacet
  facet normal 5.18421e-020 -2.22039e-016 -1
    outer loop
      vertex 2 -3.1 1.42109e-015
      vertex 1.83646 -2.65417 1.32209e-015
      vertex 1.87197 -2.06476 1.19122e-015
    endloop
  endfacet
  facet normal 2.0127e-020 -2.2205e-016 -1
    outer loop
      vertex 2 -3.1 1.42109e-015
      vertex 1.72815 -3.24918 1.45421e-015
      vertex 1.83646 -2.65417 1.32209e-015
    endloop
  endfacet
  facet normal 1.9161e-020 -2.22049e-016 -1
    outer loop
      vertex 2 -3.1 1.42109e-015
      vertex 1.61966 -3.84514 1.58654e-015
      vertex 1.72815 -3.24918 1.45421e-015
    endloop
  endfacet
  facet normal -1.38451e-021 -2.22047e-016 -1
    outer loop
      vertex 2.22851 -5.25543 1.89969e-015
      vertex 1.44726 -4.40493 1.71084e-015
      vertex 1.61966 -3.84514 1.58654e-015
    endloop
  endfacet
  facet normal 8.94915e-021 -2.22038e-016 -1
    outer loop
      vertex 2.22851 -5.25543 1.89969e-015
      vertex 1.26096 -5.00988 1.84516e-015
      vertex 1.44726 -4.40493 1.71084e-015
    endloop
  endfacet
  facet normal 0 -2.22073e-016 -1
    outer loop
      vertex 1.26096 -5.00988 1.84516e-015
      vertex 2.22851 -5.25543 1.89969e-015
      vertex 1.15262 -5.25543 1.89969e-015
    endloop
  endfacet
  facet normal -1.9161e-020 -2.22049e-016 -1
    outer loop
      vertex 6 -3.1 1.42109e-015
      vertex 6.27185 -3.24918 1.45421e-015
      vertex 6.38034 -3.84514 1.58654e-015
    endloop
  endfacet
  facet normal -5.18421e-020 -2.22039e-016 -1
    outer loop
      vertex 6 -3.1 1.42109e-015
      vertex 6.12803 -2.06476 1.19122e-015
      vertex 6.16354 -2.65417 1.32209e-015
    endloop
  endfacet
  facet normal 4.19241e-020 -2.2205e-016 -1
    outer loop
      vertex 6.12803 -2.06476 1.19122e-015
      vertex 6 -3.1 1.42109e-015
      vertex 6 -1.51 1.06803e-015
    endloop
  endfacet
  facet normal -2.0127e-020 -2.2205e-016 -1
    outer loop
      vertex 6.27185 -3.24918 1.45421e-015
      vertex 6 -3.1 1.42109e-015
      vertex 6.16354 -2.65417 1.32209e-015
    endloop
  endfacet
  facet normal 1.38451e-021 -2.22047e-016 -1
    outer loop
      vertex 5.77149 -5.25543 1.89969e-015
      vertex 6.38034 -3.84514 1.58654e-015
      vertex 6.55274 -4.40493 1.71084e-015
    endloop
  endfacet
  facet normal -8.94915e-021 -2.22038e-016 -1
    outer loop
      vertex 5.77149 -5.25543 1.89969e-015
      vertex 6.55274 -4.40493 1.71084e-015
      vertex 6.73904 -5.00988 1.84516e-015
    endloop
  endfacet
  facet normal 0 -2.22073e-016 -1
    outer loop
      vertex 5.77149 -5.25543 1.89969e-015
      vertex 6.73904 -5.00988 1.84516e-015
      vertex 6.84738 -5.25543 1.89969e-015
    endloop
  endfacet
  facet normal -3.77537e-021 -2.22045e-016 -1
    outer loop
      vertex 6.38034 -3.84514 1.58654e-015
      vertex 5.77149 -5.25543 1.89969e-015
      vertex 5.17875 -3.1 1.42109e-015
    endloop
  endfacet
  facet normal 0 -2.22039e-016 -1
    outer loop
      vertex 6.38034 -3.84514 1.58654e-015
      vertex 5.17875 -3.1 1.42109e-015
      vertex 6 -3.1 1.42109e-015
    endloop
  endfacet
  facet normal 0 -2.2206e-016 -1
    outer loop
      vertex 6.12803 -2.06476 1.19122e-015
      vertex 6 -1.51 1.06803e-015
      vertex 6.09462 -1.51 1.06803e-015
    endloop
  endfacet
  facet normal 0 -0.7214 0.692518
    outer loop
      vertex 5.90213 -5.73051 22.5148
      vertex 6.88807 -5.30419 22.9589
      vertex 5.7849 -5.30419 22.9589
    endloop
  endfacet
  facet normal 0 -0.7214 0.692518
    outer loop
      vertex 6.88807 -5.30419 22.9589
      vertex 5.90213 -5.73051 22.5148
      vertex 7.28324 -5.73051 22.5148
    endloop
  endfacet
  facet normal 0 -0.7214 0.692518
    outer loop
      vertex 2.09787 -5.73051 22.5148
      vertex 1.11193 -5.30419 22.9589
      vertex 0.716757 -5.73051 22.5148
    endloop
  endfacet
  facet normal 0 -0.7214 0.692518
    outer loop
      vertex 1.11193 -5.30419 22.9589
      vertex 2.09787 -5.73051 22.5148
      vertex 2.2151 -5.30419 22.9589
    endloop
  endfacet
  facet normal 0 -0.789512 0.613736
    outer loop
      vertex 7.1324 -6.10994 22.0267
      vertex 7.28324 -5.73051 22.5148
      vertex 5.90213 -5.73051 22.5148
    endloop
  endfacet
  facet normal 0.00273958 -0.789919 0.613205
    outer loop
      vertex 7.28324 -5.73051 22.5148
      vertex 7.1324 -6.10994 22.0267
      vertex 7.28993 -5.73693 22.5065
    endloop
  endfacet
  facet normal 0 -0.789512 0.613736
    outer loop
      vertex 7.1324 -6.10994 22.0267
      vertex 5.90213 -5.73051 22.5148
      vertex 6.00647 -6.10994 22.0267
    endloop
  endfacet
  facet normal 1.29158e-005 -0.789488 0.613766
    outer loop
      vertex 7.28993 -5.73693 22.5065
      vertex 7.1324 -6.10994 22.0267
      vertex 7.44862 -5.88938 22.3104
    endloop
  endfacet
  facet normal -0.00274162 -0.789919 0.613205
    outer loop
      vertex 0.867604 -6.10994 22.0267
      vertex 0.716757 -5.73051 22.5148
      vertex 0.710074 -5.73693 22.5065
    endloop
  endfacet
  facet normal -1.29155e-005 -0.789488 0.613766
    outer loop
      vertex 0.867604 -6.10994 22.0267
      vertex 0.710074 -5.73693 22.5065
      vertex 0.551378 -5.88938 22.3104
    endloop
  endfacet
  facet normal 0 -0.789512 0.613736
    outer loop
      vertex 0.716757 -5.73051 22.5148
      vertex 0.867604 -6.10994 22.0267
      vertex 2.09787 -5.73051 22.5148
    endloop
  endfacet
  facet normal 0 -0.789512 0.613736
    outer loop
      vertex 2.09787 -5.73051 22.5148
      vertex 0.867604 -6.10994 22.0267
      vertex 1.99353 -6.10994 22.0267
    endloop
  endfacet
  facet normal 0 -0.644493 0.76461
    outer loop
      vertex 6.84738 -5.25543 23
      vertex 5.7849 -5.30419 22.9589
      vertex 6.88807 -5.30419 22.9589
    endloop
  endfacet
  facet normal 0 -0.644493 0.76461
    outer loop
      vertex 5.7849 -5.30419 22.9589
      vertex 6.84738 -5.25543 23
      vertex 5.77149 -5.25543 23
    endloop
  endfacet
  facet normal 0 -0.644493 0.76461
    outer loop
      vertex 1.15262 -5.25543 23
      vertex 2.2151 -5.30419 22.9589
      vertex 2.22851 -5.25543 23
    endloop
  endfacet
  facet normal 0 -0.644493 0.76461
    outer loop
      vertex 2.2151 -5.30419 22.9589
      vertex 1.15262 -5.25543 23
      vertex 1.11193 -5.30419 22.9589
    endloop
  endfacet
  facet normal 0 -0.848638 0.528973
    outer loop
      vertex 6.93158 -6.25 21.802
      vertex 6.00647 -6.10994 22.0267
      vertex 6.04499 -6.25 21.802
    endloop
  endfacet
  facet normal 0 -0.848638 0.528973
    outer loop
      vertex 6.00647 -6.10994 22.0267
      vertex 6.93158 -6.25 21.802
      vertex 7.1324 -6.10994 22.0267
    endloop
  endfacet
  facet normal 0 -0.848638 0.528973
    outer loop
      vertex 1.06842 -6.25 21.802
      vertex 1.99353 -6.10994 22.0267
      vertex 0.867604 -6.10994 22.0267
    endloop
  endfacet
  facet normal 0 -0.848638 0.528973
    outer loop
      vertex 1.99353 -6.10994 22.0267
      vertex 1.06842 -6.25 21.802
      vertex 1.95501 -6.25 21.802
    endloop
  endfacet
  facet normal -0.904962 0.0545007 -0.421987
    outer loop
      vertex 1.87197 -2.06476 1.19122e-015
      vertex 1.48125 -1.51 0.909557
      vertex 1.90538 -1.51 1.06803e-015
    endloop
  endfacet
  facet normal -0.904958 0.0545146 -0.421994
    outer loop
      vertex 1.48125 -1.51 0.909557
      vertex 1.87197 -2.06476 1.19122e-015
      vertex 1.3823 -1.82663 1.08085
    endloop
  endfacet
  facet normal -0.841547 0.371302 -0.392343
    outer loop
      vertex 1.11193 -5.30419 0.041132
      vertex 1.26096 -5.00988 1.84516e-015
      vertex 1.15262 -5.25543 1.89969e-015
    endloop
  endfacet
  facet normal -0.841525 0.371282 -0.39241
    outer loop
      vertex 0.716757 -5.73051 0.485217
      vertex 1.26096 -5.00988 1.84516e-015
      vertex 1.11193 -5.30419 0.041132
    endloop
  endfacet
  facet normal -0.841525 0.371282 -0.392409
    outer loop
      vertex 0.466414 -5.83011 0.927843
      vertex 1.26096 -5.00988 1.84516e-015
      vertex 0.716757 -5.73051 0.485217
    endloop
  endfacet
  facet normal -0.841525 0.371282 -0.392409
    outer loop
      vertex 1.26096 -5.00988 1.84516e-015
      vertex 0.466414 -5.83011 0.927843
      vertex 0.387539 -5.00988 1.87306
    endloop
  endfacet
  facet normal -0.841537 0.371237 -0.392425
    outer loop
      vertex 0.466414 -5.83011 0.927843
      vertex 0.716757 -5.73051 0.485217
      vertex 0.710074 -5.73693 0.493475
    endloop
  endfacet
  facet normal -0.841527 0.37128 -0.392408
    outer loop
      vertex 0.387539 -5.00988 1.87306
      vertex 0.466414 -5.83011 0.927843
      vertex 0.1912 -5.63816 1.69966
    endloop
  endfacet
  facet normal -0.872939 0.268853 -0.407057
    outer loop
      vertex 1.61966 -3.84514 1.58654e-015
      vertex 0.698237 -4.01564 1.86339
      vertex 0.751518 -3.84514 1.86174
    endloop
  endfacet
  facet normal -0.872941 0.268842 -0.40706
    outer loop
      vertex 0.698237 -4.01564 1.86339
      vertex 1.61966 -3.84514 1.58654e-015
      vertex 1.44726 -4.40493 1.71084e-015
    endloop
  endfacet
  facet normal -0.894219 0.162786 -0.416982
    outer loop
      vertex 1.61966 -3.84514 1.58654e-015
      vertex 0.812129 -3.65119 1.80747
      vertex 1.72815 -3.24918 1.45421e-015
    endloop
  endfacet
  facet normal -0.894221 0.162774 -0.416981
    outer loop
      vertex 0.812129 -3.65119 1.80747
      vertex 1.61966 -3.84514 1.58654e-015
      vertex 0.751518 -3.84514 1.86174
    endloop
  endfacet
  facet normal -0.872944 0.268831 -0.40706
    outer loop
      vertex 0.387539 -5.00988 1.87306
      vertex 1.44726 -4.40493 1.71084e-015
      vertex 1.26096 -5.00988 1.84516e-015
    endloop
  endfacet
  facet normal -0.872944 0.268834 -0.407059
    outer loop
      vertex 1.44726 -4.40493 1.71084e-015
      vertex 0.387539 -5.00988 1.87306
      vertex 0.698237 -4.01564 1.86339
    endloop
  endfacet
  facet normal -0.894222 0.162776 -0.416979
    outer loop
      vertex 1.72815 -3.24918 1.45421e-015
      vertex 1.1237 -2.65417 1.52853
      vertex 1.83646 -2.65417 1.32209e-015
    endloop
  endfacet
  facet normal -0.894219 0.162785 -0.416982
    outer loop
      vertex 1.1237 -2.65417 1.52853
      vertex 1.72815 -3.24918 1.45421e-015
      vertex 0.812129 -3.65119 1.80747
    endloop
  endfacet
  facet normal -0.904957 0.0545207 -0.421995
    outer loop
      vertex 1.83646 -2.65417 1.32209e-015
      vertex 1.3823 -1.82663 1.08085
      vertex 1.87197 -2.06476 1.19122e-015
    endloop
  endfacet
  facet normal -0.904962 0.0545082 -0.421987
    outer loop
      vertex 1.3823 -1.82663 1.08085
      vertex 1.83646 -2.65417 1.32209e-015
      vertex 1.1237 -2.65417 1.52853
    endloop
  endfacet
  facet normal -0.841533 0.371254 -0.39242
    outer loop
      vertex 0.710074 -5.73693 0.493475
      vertex 0.551377 -5.88938 0.689569
      vertex 0.466414 -5.83011 0.927843
    endloop
  endfacet
  facet normal 0.904962 0.0545082 -0.421987
    outer loop
      vertex 6.16354 -2.65417 1.32209e-015
      vertex 6.6177 -1.82663 1.08085
      vertex 6.8763 -2.65417 1.52853
    endloop
  endfacet
  facet normal 0.904957 0.0545207 -0.421995
    outer loop
      vertex 6.6177 -1.82663 1.08085
      vertex 6.16354 -2.65417 1.32209e-015
      vertex 6.12803 -2.06476 1.19122e-015
    endloop
  endfacet
  facet normal 0.904958 0.0545146 -0.421994
    outer loop
      vertex 6.12803 -2.06476 1.19122e-015
      vertex 6.51875 -1.51 0.909557
      vertex 6.6177 -1.82663 1.08085
    endloop
  endfacet
  facet normal 0.904962 0.0545007 -0.421987
    outer loop
      vertex 6.51875 -1.51 0.909557
      vertex 6.12803 -2.06476 1.19122e-015
      vertex 6.09462 -1.51 1.06803e-015
    endloop
  endfacet
  facet normal 0.841524 0.371286 -0.392408
    outer loop
      vertex 7.53359 -5.83011 0.927843
      vertex 6.73904 -5.00988 1.84516e-015
      vertex 7.61246 -5.00988 1.87306
    endloop
  endfacet
  facet normal 0.841547 0.371302 -0.392343
    outer loop
      vertex 6.73904 -5.00988 1.84516e-015
      vertex 6.88807 -5.30419 0.041132
      vertex 6.84738 -5.25543 1.89969e-015
    endloop
  endfacet
  facet normal 0.841528 0.371281 -0.392404
    outer loop
      vertex 7.53359 -5.83011 0.927843
      vertex 7.61246 -5.00988 1.87306
      vertex 7.8088 -5.63816 1.69966
    endloop
  endfacet
  facet normal 0.841524 0.371267 -0.392425
    outer loop
      vertex 6.73904 -5.00988 1.84516e-015
      vertex 7.53359 -5.83011 0.927843
      vertex 7.28324 -5.73051 0.485217
    endloop
  endfacet
  facet normal 0.841527 0.371283 -0.392404
    outer loop
      vertex 6.73904 -5.00988 1.84516e-015
      vertex 7.28324 -5.73051 0.485217
      vertex 6.88807 -5.30419 0.041132
    endloop
  endfacet
  facet normal 0.841231 0.372369 -0.392011
    outer loop
      vertex 7.28324 -5.73051 0.485217
      vertex 7.53359 -5.83011 0.927843
      vertex 7.28993 -5.73693 0.493475
    endloop
  endfacet
  facet normal 0.894222 0.162776 -0.416979
    outer loop
      vertex 6.8763 -2.65417 1.52853
      vertex 6.27185 -3.24918 1.45421e-015
      vertex 6.16354 -2.65417 1.32209e-015
    endloop
  endfacet
  facet normal 0.894219 0.162784 -0.416982
    outer loop
      vertex 6.27185 -3.24918 1.45421e-015
      vertex 6.8763 -2.65417 1.52853
      vertex 7.18787 -3.65119 1.80747
    endloop
  endfacet
  facet normal 0.841546 0.371206 -0.392437
    outer loop
      vertex 7.53359 -5.83011 0.927843
      vertex 7.44862 -5.88938 0.689569
      vertex 7.28993 -5.73693 0.493475
    endloop
  endfacet
  facet normal 0.872944 0.268836 -0.407058
    outer loop
      vertex 7.61246 -5.00988 1.87306
      vertex 6.55274 -4.40493 1.71084e-015
      vertex 7.30176 -4.01564 1.86339
    endloop
  endfacet
  facet normal 0.872944 0.268831 -0.40706
    outer loop
      vertex 6.55274 -4.40493 1.71084e-015
      vertex 7.61246 -5.00988 1.87306
      vertex 6.73904 -5.00988 1.84516e-015
    endloop
  endfacet
  facet normal 0.87294 0.268848 -0.407057
    outer loop
      vertex 7.30176 -4.01564 1.86339
      vertex 6.38034 -3.84514 1.58654e-015
      vertex 7.24848 -3.84514 1.86174
    endloop
  endfacet
  facet normal 0.872942 0.268842 -0.407058
    outer loop
      vertex 6.38034 -3.84514 1.58654e-015
      vertex 7.30176 -4.01564 1.86339
      vertex 6.55274 -4.40493 1.71084e-015
    endloop
  endfacet
  facet normal 0.894222 0.16277 -0.416981
    outer loop
      vertex 6.38034 -3.84514 1.58654e-015
      vertex 7.18787 -3.65119 1.80747
      vertex 7.24848 -3.84514 1.86174
    endloop
  endfacet
  facet normal 0.894219 0.162786 -0.416981
    outer loop
      vertex 7.18787 -3.65119 1.80747
      vertex 6.38034 -3.84514 1.58654e-015
      vertex 6.27185 -3.24918 1.45421e-015
    endloop
  endfacet
  facet normal -0.904937 0.0546147 0.422026
    outer loop
      vertex 1.87197 -2.06476 23
      vertex 1.48125 -1.51 22.0904
      vertex 1.3823 -1.82663 21.9192
    endloop
  endfacet
  facet normal -0.90497 0.0545011 0.421971
    outer loop
      vertex 1.48125 -1.51 22.0904
      vertex 1.87197 -2.06476 23
      vertex 1.90538 -1.51 23
    endloop
  endfacet
  facet normal 0 0 1
    outer loop
      vertex 1.87197 -2.06476 23
      vertex 1.90599 -1.5 23
      vertex 1.90538 -1.51 23
    endloop
  endfacet
  facet normal -0.841519 0.371309 0.392398
    outer loop
      vertex 0.466414 -5.83011 22.0722
      vertex 1.26096 -5.00988 23
      vertex 0.387539 -5.00988 21.1269
    endloop
  endfacet
  facet normal -0.841446 0.371258 0.392602
    outer loop
      vertex 1.26096 -5.00988 23
      vertex 1.11193 -5.30419 22.9589
      vertex 1.15262 -5.25543 23
    endloop
  endfacet
  facet normal -0.841545 0.371276 0.392371
    outer loop
      vertex 0.466414 -5.83011 22.0722
      vertex 0.387539 -5.00988 21.1269
      vertex 0.1912 -5.63816 21.3003
    endloop
  endfacet
  facet normal -0.841519 0.371273 0.392431
    outer loop
      vertex 1.26096 -5.00988 23
      vertex 0.466414 -5.83011 22.0722
      vertex 0.716757 -5.73051 22.5148
    endloop
  endfacet
  facet normal -0.84153 0.371335 0.392349
    outer loop
      vertex 1.26096 -5.00988 23
      vertex 0.716757 -5.73051 22.5148
      vertex 1.11193 -5.30419 22.9589
    endloop
  endfacet
  facet normal -0.842397 0.36795 0.393675
    outer loop
      vertex 0.716757 -5.73051 22.5148
      vertex 0.466414 -5.83011 22.0722
      vertex 0.710074 -5.73693 22.5065
    endloop
  endfacet
  facet normal -0.841546 0.371121 0.392517
    outer loop
      vertex 0.551378 -5.88938 22.3104
      vertex 0.710074 -5.73693 22.5065
      vertex 0.466414 -5.83011 22.0722
    endloop
  endfacet
  facet normal -0.894196 0.162918 0.416979
    outer loop
      vertex 1.61966 -3.84514 23
      vertex 0.812129 -3.65119 21.1925
      vertex 0.751518 -3.84514 21.1383
    endloop
  endfacet
  facet normal -0.894221 0.162786 0.416976
    outer loop
      vertex 0.812129 -3.65119 21.1925
      vertex 1.61966 -3.84514 23
      vertex 1.72815 -3.24918 23
    endloop
  endfacet
  facet normal -0.872949 0.268823 0.407056
    outer loop
      vertex 0.387539 -5.00988 21.1269
      vertex 1.44726 -4.40493 23
      vertex 0.698237 -4.01564 21.1366
    endloop
  endfacet
  facet normal -0.872947 0.268832 0.407053
    outer loop
      vertex 1.44726 -4.40493 23
      vertex 0.387539 -5.00988 21.1269
      vertex 1.26096 -5.00988 23
    endloop
  endfacet
  facet normal -0.904959 0.0544934 0.421995
    outer loop
      vertex 1.83646 -2.65417 23
      vertex 1.3823 -1.82663 21.9192
      vertex 1.1237 -2.65417 21.4715
    endloop
  endfacet
  facet normal -0.90495 0.0545202 0.422011
    outer loop
      vertex 1.3823 -1.82663 21.9192
      vertex 1.83646 -2.65417 23
      vertex 1.87197 -2.06476 23
    endloop
  endfacet
  facet normal -0.894219 0.162775 0.416986
    outer loop
      vertex 1.1237 -2.65417 21.4715
      vertex 1.72815 -3.24918 23
      vertex 1.83646 -2.65417 23
    endloop
  endfacet
  facet normal -0.894223 0.162761 0.416982
    outer loop
      vertex 1.72815 -3.24918 23
      vertex 1.1237 -2.65417 21.4715
      vertex 0.812129 -3.65119 21.1925
    endloop
  endfacet
  facet normal -0.872964 0.268741 0.407078
    outer loop
      vertex 0.698237 -4.01564 21.1366
      vertex 1.61966 -3.84514 23
      vertex 0.751518 -3.84514 21.1383
    endloop
  endfacet
  facet normal -0.872942 0.268842 0.407058
    outer loop
      vertex 1.61966 -3.84514 23
      vertex 0.698237 -4.01564 21.1366
      vertex 1.44726 -4.40493 23
    endloop
  endfacet
  facet normal 0.90495 0.0545202 0.422011
    outer loop
      vertex 6.16354 -2.65417 23
      vertex 6.6177 -1.82663 21.9192
      vertex 6.12803 -2.06476 23
    endloop
  endfacet
  facet normal 0.904959 0.0544934 0.421995
    outer loop
      vertex 6.6177 -1.82663 21.9192
      vertex 6.16354 -2.65417 23
      vertex 6.8763 -2.65417 21.4715
    endloop
  endfacet
  facet normal 0.90497 0.0545011 0.421971
    outer loop
      vertex 6.12803 -2.06476 23
      vertex 6.51875 -1.51 22.0904
      vertex 6.09462 -1.51 23
    endloop
  endfacet
  facet normal 0.904937 0.0546147 0.422026
    outer loop
      vertex 6.51875 -1.51 22.0904
      vertex 6.12803 -2.06476 23
      vertex 6.6177 -1.82663 21.9192
    endloop
  endfacet
  facet normal 0 0 1
    outer loop
      vertex 6.12803 -2.06476 23
      vertex 6.09462 -1.51 23
      vertex 6.09401 -1.5 23
    endloop
  endfacet
  facet normal 0.894222 0.162786 0.416975
    outer loop
      vertex 6.38034 -3.84514 23
      vertex 7.18787 -3.65119 21.1925
      vertex 6.27185 -3.24918 23
    endloop
  endfacet
  facet normal 0.894197 0.162913 0.416978
    outer loop
      vertex 7.18787 -3.65119 21.1925
      vertex 6.38034 -3.84514 23
      vertex 7.24848 -3.84514 21.1383
    endloop
  endfacet
  facet normal 0.894219 0.162775 0.416986
    outer loop
      vertex 6.27185 -3.24918 23
      vertex 6.8763 -2.65417 21.4715
      vertex 6.16354 -2.65417 23
    endloop
  endfacet
  facet normal 0.894223 0.16276 0.416982
    outer loop
      vertex 6.8763 -2.65417 21.4715
      vertex 6.27185 -3.24918 23
      vertex 7.18787 -3.65119 21.1925
    endloop
  endfacet
  facet normal 0.872948 0.268832 0.407052
    outer loop
      vertex 7.61246 -5.00988 21.1269
      vertex 6.55274 -4.40493 23
      vertex 6.73904 -5.00988 23
    endloop
  endfacet
  facet normal 0.872948 0.268825 0.407055
    outer loop
      vertex 6.55274 -4.40493 23
      vertex 7.61246 -5.00988 21.1269
      vertex 7.30176 -4.01564 21.1366
    endloop
  endfacet
  facet normal 0.872965 0.268736 0.407078
    outer loop
      vertex 6.38034 -3.84514 23
      vertex 7.30176 -4.01564 21.1366
      vertex 7.24848 -3.84514 21.1383
    endloop
  endfacet
  facet normal 0.872943 0.268842 0.407057
    outer loop
      vertex 7.30176 -4.01564 21.1366
      vertex 6.38034 -3.84514 23
      vertex 6.55274 -4.40493 23
    endloop
  endfacet
  facet normal 0.841557 0.371081 0.392532
    outer loop
      vertex 7.44862 -5.88938 22.3104
      vertex 7.53359 -5.83011 22.0722
      vertex 7.28993 -5.73693 22.5065
    endloop
  endfacet
  facet normal 0.841446 0.371258 0.392602
    outer loop
      vertex 6.88807 -5.30419 22.9589
      vertex 6.73904 -5.00988 23
      vertex 6.84738 -5.25543 23
    endloop
  endfacet
  facet normal 0.841532 0.371337 0.392343
    outer loop
      vertex 7.28324 -5.73051 22.5148
      vertex 6.73904 -5.00988 23
      vertex 6.88807 -5.30419 22.9589
    endloop
  endfacet
  facet normal 0.841519 0.371257 0.392447
    outer loop
      vertex 7.53359 -5.83011 22.0722
      vertex 6.73904 -5.00988 23
      vertex 7.28324 -5.73051 22.5148
    endloop
  endfacet
  facet normal 0.841517 0.371313 0.392397
    outer loop
      vertex 6.73904 -5.00988 23
      vertex 7.53359 -5.83011 22.0722
      vertex 7.61246 -5.00988 21.1269
    endloop
  endfacet
  facet normal 0.842093 0.369088 0.39326
    outer loop
      vertex 7.53359 -5.83011 22.0722
      vertex 7.28324 -5.73051 22.5148
      vertex 7.28993 -5.73693 22.5065
    endloop
  endfacet
  facet normal 0.841547 0.371277 0.392368
    outer loop
      vertex 7.61246 -5.00988 21.1269
      vertex 7.53359 -5.83011 22.0722
      vertex 7.8088 -5.63816 21.3003
    endloop
  endfacet
  facet normal 0.964206 -0.265155 -2.51848e-005
    outer loop
      vertex 2.2151 -5.30419 22.9589
      vertex 2.82125 -3.1 23
      vertex 2.22851 -5.25543 23
    endloop
  endfacet
  facet normal 0.964206 -0.265154 0
    outer loop
      vertex 2.82125 -3.1 23
      vertex 1.95501 -6.25 21.802
      vertex 2.82125 -3.1 1.42109e-015
    endloop
  endfacet
  facet normal 0.964206 -0.265156 1.67237e-005
    outer loop
      vertex 2.82125 -3.1 23
      vertex 2.2151 -5.30419 22.9589
      vertex 2.09787 -5.73051 22.5148
    endloop
  endfacet
  facet normal 0.964206 -0.265154 0
    outer loop
      vertex 1.95501 -6.25 1.19795
      vertex 2.82125 -3.1 1.42109e-015
      vertex 1.95501 -6.25 21.802
    endloop
  endfacet
  facet normal 0.964206 -0.265154 4.08528e-006
    outer loop
      vertex 1.99353 -6.10994 22.0267
      vertex 2.82125 -3.1 23
      vertex 2.09787 -5.73051 22.5148
    endloop
  endfacet
  facet normal 0.964208 -0.265146 2.2191e-005
    outer loop
      vertex 1.99353 -6.10994 0.973289
      vertex 2.82125 -3.1 1.42109e-015
      vertex 1.95501 -6.25 1.19795
    endloop
  endfacet
  facet normal 0.964208 -0.265146 -2.21863e-005
    outer loop
      vertex 2.82125 -3.1 23
      vertex 1.99353 -6.10994 22.0267
      vertex 1.95501 -6.25 21.802
    endloop
  endfacet
  facet normal 0.964206 -0.265156 -1.67245e-005
    outer loop
      vertex 2.2151 -5.30419 0.041132
      vertex 2.82125 -3.1 1.42109e-015
      vertex 2.09787 -5.73051 0.485217
    endloop
  endfacet
  facet normal 0.964206 -0.265155 2.51652e-005
    outer loop
      vertex 2.82125 -3.1 1.42109e-015
      vertex 2.2151 -5.30419 0.041132
      vertex 2.22851 -5.25543 1.89969e-015
    endloop
  endfacet
  facet normal 0.964206 -0.265154 -4.08557e-006
    outer loop
      vertex 2.82125 -3.1 1.42109e-015
      vertex 1.99353 -6.10994 0.973289
      vertex 2.09787 -5.73051 0.485217
    endloop
  endfacet
  facet normal 0 -0 -1
    outer loop
      vertex 2.82125 -3.1 23
      vertex 3 -2.45 23
      vertex 2.22851 -5.25543 23
    endloop
  endfacet
  facet normal -0.964206 -0.265155 2.51652e-005
    outer loop
      vertex 5.7849 -5.30419 0.041132
      vertex 5.17875 -3.1 1.42109e-015
      vertex 5.77149 -5.25543 1.89969e-015
    endloop
  endfacet
  facet normal -0.964206 -0.265154 0
    outer loop
      vertex 5.17875 -3.1 1.42109e-015
      vertex 6.04499 -6.25 1.19795
      vertex 5.17875 -3.1 23
    endloop
  endfacet
  facet normal -0.964206 -0.265156 -1.67245e-005
    outer loop
      vertex 5.17875 -3.1 1.42109e-015
      vertex 5.7849 -5.30419 0.041132
      vertex 5.90213 -5.73051 0.485217
    endloop
  endfacet
  facet normal -0.964206 -0.265154 -0
    outer loop
      vertex 6.04499 -6.25 21.802
      vertex 5.17875 -3.1 23
      vertex 6.04499 -6.25 1.19795
    endloop
  endfacet
  facet normal -0.964206 -0.265154 -4.08557e-006
    outer loop
      vertex 6.00647 -6.10994 0.973289
      vertex 5.17875 -3.1 1.42109e-015
      vertex 5.90213 -5.73051 0.485217
    endloop
  endfacet
  facet normal -0.964208 -0.265146 -2.21863e-005
    outer loop
      vertex 6.00647 -6.10994 22.0267
      vertex 5.17875 -3.1 23
      vertex 6.04499 -6.25 21.802
    endloop
  endfacet
  facet normal -0.964208 -0.265146 2.2191e-005
    outer loop
      vertex 5.17875 -3.1 1.42109e-015
      vertex 6.00647 -6.10994 0.973289
      vertex 6.04499 -6.25 1.19795
    endloop
  endfacet
  facet normal -0.964206 -0.265156 1.67237e-005
    outer loop
      vertex 5.7849 -5.30419 22.9589
      vertex 5.17875 -3.1 23
      vertex 5.90213 -5.73051 22.5148
    endloop
  endfacet
  facet normal -0.964206 -0.265155 -2.51848e-005
    outer loop
      vertex 5.17875 -3.1 23
      vertex 5.7849 -5.30419 22.9589
      vertex 5.77149 -5.25543 23
    endloop
  endfacet
  facet normal -0.964206 -0.265154 4.08528e-006
    outer loop
      vertex 5.17875 -3.1 23
      vertex 6.00647 -6.10994 22.0267
      vertex 5.90213 -5.73051 22.5148
    endloop
  endfacet
  facet normal -0 -0 -1
    outer loop
      vertex 5.17875 -3.1 23
      vertex 5.77149 -5.25543 23
      vertex 5 -2.45 23
    endloop
  endfacet
  facet normal 1 0 0
    outer loop
      vertex 6 -3.1 1.42109e-015
      vertex 6 -1.51 2.22029e-018
      vertex 6 -1.51 1.06803e-015
    endloop
  endfacet
  facet normal 1 0 0
    outer loop
      vertex 6 -1.51 2.22029e-018
      vertex 6 -3.1 1.42109e-015
      vertex 6 -3.1 3.55271e-016
    endloop
  endfacet
  facet normal 0 -1 0
    outer loop
      vertex 2 -3.1 3.55271e-016
      vertex 2.82125 -3.1 1.42109e-015
      vertex 2 -3.1 1.42109e-015
    endloop
  endfacet
  facet normal 0 -1 -0
    outer loop
      vertex 2.82125 -3.1 1.42109e-015
      vertex 2 -3.1 3.55271e-016
      vertex 5.17875 -3.1 1.42109e-015
    endloop
  endfacet
  facet normal 0 -1 0
    outer loop
      vertex 6 -3.1 3.55271e-016
      vertex 5.17875 -3.1 1.42109e-015
      vertex 2 -3.1 3.55271e-016
    endloop
  endfacet
  facet normal 0 -1 0
    outer loop
      vertex 5.17875 -3.1 1.42109e-015
      vertex 6 -3.1 3.55271e-016
      vertex 6 -3.1 1.42109e-015
    endloop
  endfacet
  facet normal 0 -1 0
    outer loop
      vertex 2.82125 -3.1 1.42109e-015
      vertex 5.17875 -3.1 23
      vertex 2.82125 -3.1 23
    endloop
  endfacet
  facet normal 0 -1 -0
    outer loop
      vertex 5.17875 -3.1 23
      vertex 2.82125 -3.1 1.42109e-015
      vertex 5.17875 -3.1 1.42109e-015
    endloop
  endfacet
  facet normal -1 0 0
    outer loop
      vertex 2 -3.1 3.55271e-016
      vertex 2 -1.51 1.06803e-015
      vertex 2 -1.51 2.22029e-018
    endloop
  endfacet
  facet normal -1 -0 0
    outer loop
      vertex 2 -1.51 1.06803e-015
      vertex 2 -3.1 3.55271e-016
      vertex 2 -3.1 1.42109e-015
    endloop
  endfacet
  facet normal -0 0 1
    outer loop
      vertex 3 -2.45 23
      vertex 5.17875 -3.1 23
      vertex 5 -2.45 23
    endloop
  endfacet
  facet normal 0 0 1
    outer loop
      vertex 5.17875 -3.1 23
      vertex 3 -2.45 23
      vertex 2.82125 -3.1 23
    endloop
  endfacet
  facet normal 0 -2.22044e-016 -1
    outer loop
      vertex 2 -3.1 3.55271e-016
      vertex 6 -1.51 2.22029e-018
      vertex 6 -3.1 3.55271e-016
    endloop
  endfacet
  facet normal -0 -2.22044e-016 -1
    outer loop
      vertex 6 -1.51 2.22029e-018
      vertex 2 -3.1 3.55271e-016
      vertex 2 -1.51 2.22029e-018
    endloop
  endfacet
  facet normal -1 0 0
    outer loop
      vertex -3 -1.51 0
      vertex -3 0.00999928 23
      vertex -3 0.00999928 0
    endloop
  endfacet
  facet normal -1 -0 0
    outer loop
      vertex -3 0.00999928 23
      vertex -3 -1.51 0
      vertex -3 -1.51 23
    endloop
  endfacet
  facet normal -0 0 1
    outer loop
      vertex 6.09401 -1.5 23
      vertex 7 -1.51 23
      vertex 7 0.00999928 23
    endloop
  endfacet
  facet normal 0 0 1
    outer loop
      vertex 7 -1.51 23
      vertex 6.09401 -1.5 23
      vertex 6.09462 -1.51 23
    endloop
  endfacet
  facet normal -0 0 1
    outer loop
      vertex 2.09462 0.00999928 23
      vertex 6.09401 -1.5 23
      vertex 7 0.00999928 23
    endloop
  endfacet
  facet normal -0 0 1
    outer loop
      vertex 2.09401 -5.10703e-015 23
      vertex 6.09401 -1.5 23
      vertex 2.09462 0.00999928 23
    endloop
  endfacet
  facet normal 0 0 1
    outer loop
      vertex 2.09401 -5.10703e-015 23
      vertex 1.90599 -1.5 23
      vertex 6.09401 -1.5 23
    endloop
  endfacet
  facet normal -0 0 1
    outer loop
      vertex -2.09401 -5.10703e-015 23
      vertex 1.90599 -1.5 23
      vertex 2.09401 -5.10703e-015 23
    endloop
  endfacet
  facet normal 0 0 1
    outer loop
      vertex -2.09401 -5.10703e-015 23
      vertex 1.90538 -1.51 23
      vertex 1.90599 -1.5 23
    endloop
  endfacet
  facet normal -0 0 1
    outer loop
      vertex -3 0.00999928 23
      vertex -2.09401 -5.10703e-015 23
      vertex -2.09462 0.00999928 23
    endloop
  endfacet
  facet normal 0 0 1
    outer loop
      vertex -3 -1.51 23
      vertex -2.09401 -5.10703e-015 23
      vertex -3 0.00999928 23
    endloop
  endfacet
  facet normal 0 0 1
    outer loop
      vertex -2.09401 -5.10703e-015 23
      vertex -3 -1.51 23
      vertex 1.90538 -1.51 23
    endloop
  endfacet
  facet normal 1 -0 0
    outer loop
      vertex 7 -1.51 23
      vertex 7 0.00999928 0
      vertex 7 0.00999928 23
    endloop
  endfacet
  facet normal 1 0 0
    outer loop
      vertex 7 0.00999928 0
      vertex 7 -1.51 23
      vertex 7 -1.51 0
    endloop
  endfacet
  facet normal 0 1 0
    outer loop
      vertex 7 0.00999928 23
      vertex 2.51875 0.00999928 22.0904
      vertex 2.09462 0.00999928 23
    endloop
  endfacet
  facet normal 0 1 0
    outer loop
      vertex 7 0.00999928 23
      vertex 2.51875 0.00999928 0.909557
      vertex 2.51875 0.00999928 22.0904
    endloop
  endfacet
  facet normal 0 1 0
    outer loop
      vertex 2.09462 0.00999928 1.06803e-015
      vertex 2 0.00999928 2.22029e-018
      vertex 2 0.00999928 1.06803e-015
    endloop
  endfacet
  facet normal 0 1 0
    outer loop
      vertex 2 0.00999928 2.22029e-018
      vertex 7 0.00999928 0
      vertex -2 0.00999928 2.22029e-018
    endloop
  endfacet
  facet normal 0 1 0
    outer loop
      vertex 2.09462 0.00999928 1.06803e-015
      vertex 7 0.00999928 0
      vertex 2 0.00999928 2.22029e-018
    endloop
  endfacet
  facet normal 0 1 0
    outer loop
      vertex 2.51875 0.00999928 0.909557
      vertex 7 0.00999928 0
      vertex 2.09462 0.00999928 1.06803e-015
    endloop
  endfacet
  facet normal 0 1 -0
    outer loop
      vertex 7 0.00999928 0
      vertex 2.51875 0.00999928 0.909557
      vertex 7 0.00999928 23
    endloop
  endfacet
  facet normal 0 1 0
    outer loop
      vertex -2 0.00999928 1.06803e-015
      vertex -2 0.00999928 2.22029e-018
      vertex -2.09462 0.00999928 1.06803e-015
    endloop
  endfacet
  facet normal 0 1 -0
    outer loop
      vertex -2.51875 0.00999928 22.0904
      vertex -3 0.00999928 23
      vertex -2.09462 0.00999928 23
    endloop
  endfacet
  facet normal 0 1 -0
    outer loop
      vertex -2.51875 0.00999928 0.909557
      vertex -3 0.00999928 23
      vertex -2.51875 0.00999928 22.0904
    endloop
  endfacet
  facet normal 0 1 0
    outer loop
      vertex -2.51875 0.00999928 0.909557
      vertex -3 0.00999928 0
      vertex -3 0.00999928 23
    endloop
  endfacet
  facet normal 0 1 0
    outer loop
      vertex -2.09462 0.00999928 1.06803e-015
      vertex -3 0.00999928 0
      vertex -2.51875 0.00999928 0.909557
    endloop
  endfacet
  facet normal 0 1 0
    outer loop
      vertex -2 0.00999928 2.22029e-018
      vertex -3 0.00999928 0
      vertex -2.09462 0.00999928 1.06803e-015
    endloop
  endfacet
  facet normal 0 1 0
    outer loop
      vertex -3 0.00999928 0
      vertex -2 0.00999928 2.22029e-018
      vertex 7 0.00999928 0
    endloop
  endfacet
  facet normal 0 0 -1
    outer loop
      vertex -3 -1.51 0
      vertex 7 0.00999928 0
      vertex 7 -1.51 0
    endloop
  endfacet
  facet normal -0 0 -1
    outer loop
      vertex 7 0.00999928 0
      vertex -3 -1.51 0
      vertex -3 0.00999928 0
    endloop
  endfacet
  facet normal 0 -1 0
    outer loop
      vertex -3 -1.51 23
      vertex 1.48125 -1.51 22.0904
      vertex 1.90538 -1.51 23
    endloop
  endfacet
  facet normal 0 -1 0
    outer loop
      vertex -3 -1.51 23
      vertex 1.48125 -1.51 0.909557
      vertex 1.48125 -1.51 22.0904
    endloop
  endfacet
  facet normal 0 -1 0
    outer loop
      vertex 1.90538 -1.51 1.06803e-015
      vertex 2 -1.51 2.22029e-018
      vertex 2 -1.51 1.06803e-015
    endloop
  endfacet
  facet normal 0 -1 -0
    outer loop
      vertex 2 -1.51 2.22029e-018
      vertex -3 -1.51 0
      vertex 6 -1.51 2.22029e-018
    endloop
  endfacet
  facet normal 0 -1 -0
    outer loop
      vertex 1.90538 -1.51 1.06803e-015
      vertex -3 -1.51 0
      vertex 2 -1.51 2.22029e-018
    endloop
  endfacet
  facet normal 0 -1 -0
    outer loop
      vertex 1.48125 -1.51 0.909557
      vertex -3 -1.51 0
      vertex 1.90538 -1.51 1.06803e-015
    endloop
  endfacet
  facet normal 0 -1 0
    outer loop
      vertex -3 -1.51 0
      vertex 1.48125 -1.51 0.909557
      vertex -3 -1.51 23
    endloop
  endfacet
  facet normal 0 -1 0
    outer loop
      vertex 6 -1.51 1.06803e-015
      vertex 6 -1.51 2.22029e-018
      vertex 6.09462 -1.51 1.06803e-015
    endloop
  endfacet
  facet normal 0 -1 0
    outer loop
      vertex 6.51875 -1.51 22.0904
      vertex 7 -1.51 23
      vertex 6.09462 -1.51 23
    endloop
  endfacet
  facet normal 0 -1 0
    outer loop
      vertex 6.51875 -1.51 0.909557
      vertex 7 -1.51 23
      vertex 6.51875 -1.51 22.0904
    endloop
  endfacet
  facet normal 0 -1 0
    outer loop
      vertex 6.51875 -1.51 0.909557
      vertex 7 -1.51 0
      vertex 7 -1.51 23
    endloop
  endfacet
  facet normal 0 -1 0
    outer loop
      vertex 6.09462 -1.51 1.06803e-015
      vertex 7 -1.51 0
      vertex 6.51875 -1.51 0.909557
    endloop
  endfacet
  facet normal 0 -1 0
    outer loop
      vertex 6 -1.51 2.22029e-018
      vertex 7 -1.51 0
      vertex 6.09462 -1.51 1.06803e-015
    endloop
  endfacet
  facet normal 0 -1 0
    outer loop
      vertex 7 -1.51 0
      vertex 6 -1.51 2.22029e-018
      vertex -3 -1.51 0
    endloop
  endfacet
endsolid OpenSCAD_Model
