solid OpenSCAD_Model
  facet normal -0.677285 -0.677285 -0.287348
    outer loop
      vertex 23.1317 12.5251 80.01
      vertex 30 3.53978 85
      vertex 22.0732 11.4666 85
    endloop
  endfacet
  facet normal -0.677285 -0.677285 -0.287348
    outer loop
      vertex 30 3.53978 85
      vertex 23.1317 12.5251 80.01
      vertex 30 5.65685 80.01
    endloop
  endfacet
  facet normal 0.677285 0.677285 -0.287348
    outer loop
      vertex 26.4602 1.9984e-014 85
      vertex 17.4749 6.86827 80.01
      vertex 18.5334 7.92681 85
    endloop
  endfacet
  facet normal 0.677285 0.677285 -0.287348
    outer loop
      vertex 17.4749 6.86827 80.01
      vertex 26.4602 1.9984e-014 85
      vertex 24.3431 1.8876e-014 80.01
    endloop
  endfacet
  facet normal 0.707107 -0.707107 -1.3514e-007
    outer loop
      vertex 18.5334 7.92681 85
      vertex 23.1317 12.5251 80.01
      vertex 22.0732 11.4666 85
    endloop
  endfacet
  facet normal 0.707107 -0.707107 8.4564e-008
    outer loop
      vertex 23.1317 12.5251 80.01
      vertex 18.5334 7.92681 85
      vertex 17.4749 6.86827 80.01
    endloop
  endfacet
  facet normal 0 0 1
    outer loop
      vertex 30 5.65685 80.01
      vertex 24.3431 1.8876e-014 80.01
      vertex 30 1.8876e-014 80.01
    endloop
  endfacet
  facet normal 0 0 1
    outer loop
      vertex 23.1317 12.5251 80.01
      vertex 24.3431 1.8876e-014 80.01
      vertex 30 5.65685 80.01
    endloop
  endfacet
  facet normal 0 0 1
    outer loop
      vertex 24.3431 1.8876e-014 80.01
      vertex 23.1317 12.5251 80.01
      vertex 17.4749 6.86827 80.01
    endloop
  endfacet
  facet normal -0.707107 -0.707107 -8.40235e-008
    outer loop
      vertex 12.5251 6.86827 80.01
      vertex 11.4553 7.93812 85
      vertex 6.86827 12.5251 80.01
    endloop
  endfacet
  facet normal -0.707092 -0.707122 6.25475e-006
    outer loop
      vertex 11.4553 7.93812 85
      vertex 12.5251 6.86827 80.01
      vertex 11.4666 7.92681 85
    endloop
  endfacet
  facet normal 0 0 1
    outer loop
      vertex 6.86827 12.5251 80.01
      vertex 5.65685 1.8876e-014 80.01
      vertex 12.5251 6.86827 80.01
    endloop
  endfacet
  facet normal -0 0 1
    outer loop
      vertex 0 5.65685 80.01
      vertex 5.65685 1.8876e-014 80.01
      vertex 6.86827 12.5251 80.01
    endloop
  endfacet
  facet normal 0 0 1
    outer loop
      vertex 5.65685 1.8876e-014 80.01
      vertex 0 5.65685 80.01
      vertex 0 1.8876e-014 80.01
    endloop
  endfacet
  facet normal -0.707107 -0.707107 -1.28383e-007
    outer loop
      vertex 11.4553 7.93812 85
      vertex 7.92681 11.4666 85
      vertex 6.86827 12.5251 80.01
    endloop
  endfacet
  facet normal -0.677285 0.677285 -0.287348
    outer loop
      vertex 12.5251 6.86827 80.01
      vertex 3.53978 1.9984e-014 85
      vertex 11.4666 7.92681 85
    endloop
  endfacet
  facet normal -0.677285 0.677285 -0.287348
    outer loop
      vertex 3.53978 1.9984e-014 85
      vertex 12.5251 6.86827 80.01
      vertex 5.65685 1.8876e-014 80.01
    endloop
  endfacet
  facet normal 0.677285 -0.677285 -0.287348
    outer loop
      vertex 6.86827 12.5251 80.01
      vertex 0 3.53977 85
      vertex 0 5.65685 80.01
    endloop
  endfacet
  facet normal 0.677285 -0.677285 -0.287348
    outer loop
      vertex 0 3.53977 85
      vertex 6.86827 12.5251 80.01
      vertex 7.92681 11.4666 85
    endloop
  endfacet
  facet normal -0.707107 0.707107 -1.3514e-007
    outer loop
      vertex 12.5251 23.1317 80.01
      vertex 11.4553 22.0619 85
      vertex 11.4666 22.0732 85
    endloop
  endfacet
  facet normal -0.707107 0.707107 -1.86257e-007
    outer loop
      vertex 11.4553 22.0619 85
      vertex 12.5251 23.1317 80.01
      vertex 6.86827 17.4749 80.01
    endloop
  endfacet
  facet normal 0 0 1
    outer loop
      vertex 5.65685 30 80.01
      vertex 6.86827 17.4749 80.01
      vertex 12.5251 23.1317 80.01
    endloop
  endfacet
  facet normal 0 0 1
    outer loop
      vertex 0 24.3431 80.01
      vertex 5.65685 30 80.01
      vertex 0 30 80.01
    endloop
  endfacet
  facet normal 0 0 1
    outer loop
      vertex 5.65685 30 80.01
      vertex 0 24.3431 80.01
      vertex 6.86827 17.4749 80.01
    endloop
  endfacet
  facet normal -0.707107 0.707107 -2.29738e-007
    outer loop
      vertex 7.92681 18.5334 85
      vertex 11.4553 22.0619 85
      vertex 6.86827 17.4749 80.01
    endloop
  endfacet
  facet normal 0.677285 0.677285 -0.287348
    outer loop
      vertex 7.92681 18.5334 85
      vertex 0 24.3431 80.01
      vertex 0 26.4602 85
    endloop
  endfacet
  facet normal 0.677285 0.677285 -0.287348
    outer loop
      vertex 0 24.3431 80.01
      vertex 7.92681 18.5334 85
      vertex 6.86827 17.4749 80.01
    endloop
  endfacet
  facet normal -0.677285 -0.677285 -0.287348
    outer loop
      vertex 12.5251 23.1317 80.01
      vertex 3.53977 30 85
      vertex 5.65685 30 80.01
    endloop
  endfacet
  facet normal -0.677285 -0.677285 -0.287348
    outer loop
      vertex 3.53977 30 85
      vertex 12.5251 23.1317 80.01
      vertex 11.4666 22.0732 85
    endloop
  endfacet
  facet normal 0.707107 0.707107 -2.70281e-007
    outer loop
      vertex 23.1317 17.4749 80.01
      vertex 22.0619 18.5447 85
      vertex 22.0732 18.5334 85
    endloop
  endfacet
  facet normal 0.707107 0.707107 -2.19164e-007
    outer loop
      vertex 22.0619 18.5447 85
      vertex 23.1317 17.4749 80.01
      vertex 17.4749 23.1317 80.01
    endloop
  endfacet
  facet normal 0.707107 0.707107 0
    outer loop
      vertex 18.5334 22.0732 85
      vertex 22.0619 18.5447 85
      vertex 17.4749 23.1317 80.01
    endloop
  endfacet
  facet normal -0.677285 0.677285 -0.287348
    outer loop
      vertex 30 24.3431 80.01
      vertex 22.0732 18.5334 85
      vertex 30 26.4602 85
    endloop
  endfacet
  facet normal -0.677285 0.677285 -0.287348
    outer loop
      vertex 22.0732 18.5334 85
      vertex 30 24.3431 80.01
      vertex 23.1317 17.4749 80.01
    endloop
  endfacet
  facet normal -0 0 1
    outer loop
      vertex 24.3431 30 80.01
      vertex 30 24.3431 80.01
      vertex 30 30 80.01
    endloop
  endfacet
  facet normal 0 0 1
    outer loop
      vertex 24.3431 30 80.01
      vertex 23.1317 17.4749 80.01
      vertex 30 24.3431 80.01
    endloop
  endfacet
  facet normal 0 -0 1
    outer loop
      vertex 23.1317 17.4749 80.01
      vertex 24.3431 30 80.01
      vertex 17.4749 23.1317 80.01
    endloop
  endfacet
  facet normal 0.677285 -0.677285 -0.287348
    outer loop
      vertex 24.3431 30 80.01
      vertex 18.5334 22.0732 85
      vertex 17.4749 23.1317 80.01
    endloop
  endfacet
  facet normal 0.677285 -0.677285 -0.287348
    outer loop
      vertex 18.5334 22.0732 85
      vertex 24.3431 30 80.01
      vertex 26.4602 30 85
    endloop
  endfacet
  facet normal 0.957826 0.287348 0
    outer loop
      vertex 12.5 1.9984e-014 85
      vertex 11 5 55
      vertex 11 5 85
    endloop
  endfacet
  facet normal 0.957826 0.287348 -6.3804e-017
    outer loop
      vertex 12.5 2.22045e-015 5
      vertex 11 5 55
      vertex 12.5 1.9984e-014 85
    endloop
  endfacet
  facet normal 0.957826 0.287348 0
    outer loop
      vertex 11 5 55
      vertex 12.5 2.22045e-015 5
      vertex 11 5 25
    endloop
  endfacet
  facet normal 0.957826 0.287348 0
    outer loop
      vertex 11 5 25
      vertex 12.5 2.22045e-015 5
      vertex 11 5 5
    endloop
  endfacet
  facet normal 0.957826 0.287348 0
    outer loop
      vertex 11 5 5
      vertex 12.5 1.11022e-015 0
      vertex 11 5 0
    endloop
  endfacet
  facet normal -0.957826 0.287348 0
    outer loop
      vertex 19 5 5
      vertex 17.5 1.9984e-014 85
      vertex 19 5 85
    endloop
  endfacet
  facet normal -0.957826 0.287348 -6.3804e-017
    outer loop
      vertex 17.5 1.9984e-014 85
      vertex 19 5 5
      vertex 17.5 2.22045e-015 5
    endloop
  endfacet
  facet normal -0.957826 0.287348 0
    outer loop
      vertex 19 5 5
      vertex 19 5 0
      vertex 17.5 1.11022e-015 0
    endloop
  endfacet
  facet normal 0 0 0
    outer loop
      vertex 19 5 25
      vertex 19 5 5
      vertex 19 5 85
    endloop
  endfacet
  facet normal 0 0 0
    outer loop
      vertex 19 5 85
      vertex 19 5 55
      vertex 19 5 25
    endloop
  endfacet
  facet normal 0 -1 2.22045e-016
    outer loop
      vertex 0 1.8876e-014 80.01
      vertex 11 2.22045e-015 5
      vertex 5.65685 1.8876e-014 80.01
    endloop
  endfacet
  facet normal 0 -1 2.22045e-016
    outer loop
      vertex 0 1.11022e-015 0
      vertex 11 2.22045e-015 5
      vertex 0 1.8876e-014 80.01
    endloop
  endfacet
  facet normal 0 -1 2.22045e-016
    outer loop
      vertex 11 2.22045e-015 5
      vertex 0 1.11022e-015 0
      vertex 12.5 1.11022e-015 0
    endloop
  endfacet
  facet normal 0 -1 2.22045e-016
    outer loop
      vertex 5.65685 1.8876e-014 80.01
      vertex 12.5 1.9984e-014 85
      vertex 3.53978 1.9984e-014 85
    endloop
  endfacet
  facet normal 0 -1 2.22045e-016
    outer loop
      vertex 12.5 2.22045e-015 5
      vertex 5.65685 1.8876e-014 80.01
      vertex 11 2.22045e-015 5
    endloop
  endfacet
  facet normal 0 -1 2.22045e-016
    outer loop
      vertex 5.65685 1.8876e-014 80.01
      vertex 12.5 2.22045e-015 5
      vertex 12.5 1.9984e-014 85
    endloop
  endfacet
  facet normal 0 -1 2.22045e-016
    outer loop
      vertex 20 1.11022e-015 0
      vertex 19 2.22045e-015 5
      vertex 17.5 1.11022e-015 0
    endloop
  endfacet
  facet normal 0 -1 2.22045e-016
    outer loop
      vertex 19 2.22045e-015 5
      vertex 20 1.11022e-015 0
      vertex 20 2.22045e-015 5
    endloop
  endfacet
  facet normal 0 -1 2.22045e-016
    outer loop
      vertex 17.5 1.9984e-014 85
      vertex 24.3431 1.8876e-014 80.01
      vertex 26.4602 1.9984e-014 85
    endloop
  endfacet
  facet normal 0 -1 2.22045e-016
    outer loop
      vertex 17.5 2.22045e-015 5
      vertex 24.3431 1.8876e-014 80.01
      vertex 17.5 1.9984e-014 85
    endloop
  endfacet
  facet normal 0 -1 2.22045e-016
    outer loop
      vertex 19 2.22045e-015 5
      vertex 24.3431 1.8876e-014 80.01
      vertex 17.5 2.22045e-015 5
    endloop
  endfacet
  facet normal 0 -1 2.22045e-016
    outer loop
      vertex 20 2.22045e-015 5
      vertex 24.3431 1.8876e-014 80.01
      vertex 19 2.22045e-015 5
    endloop
  endfacet
  facet normal 0 -1 2.22045e-016
    outer loop
      vertex 30 2.22045e-015 5
      vertex 24.3431 1.8876e-014 80.01
      vertex 20 2.22045e-015 5
    endloop
  endfacet
  facet normal 0 -1 2.22045e-016
    outer loop
      vertex 24.3431 1.8876e-014 80.01
      vertex 30 2.22045e-015 5
      vertex 30 1.8876e-014 80.01
    endloop
  endfacet
  facet normal -0.287348 0.957826 0
    outer loop
      vertex 30 12.5 10
      vertex 25 11 85
      vertex 30 12.5 85
    endloop
  endfacet
  facet normal -0.287348 0.957826 0
    outer loop
      vertex 25 11 85
      vertex 30 12.5 10
      vertex 25 11 10
    endloop
  endfacet
  facet normal -0.287348 -0.957826 0
    outer loop
      vertex 25 19 10
      vertex 30 17.5 85
      vertex 25 19 85
    endloop
  endfacet
  facet normal -0.287348 -0.957826 -0
    outer loop
      vertex 30 17.5 85
      vertex 25 19 10
      vertex 30 17.5 10
    endloop
  endfacet
  facet normal 1 -0 0
    outer loop
      vertex 25 11 85
      vertex 25 19 10
      vertex 25 19 85
    endloop
  endfacet
  facet normal 1 0 0
    outer loop
      vertex 25 19 10
      vertex 25 11 85
      vertex 25 11 10
    endloop
  endfacet
  facet normal 1 -0 0
    outer loop
      vertex 30 5.65685 80.01
      vertex 30 12.5 10
      vertex 30 12.5 85
    endloop
  endfacet
  facet normal 1 0 0
    outer loop
      vertex 30 12.5 10
      vertex 30 5.65685 80.01
      vertex 30 7.5 10
    endloop
  endfacet
  facet normal 1 0 -0
    outer loop
      vertex 30 5.65685 80.01
      vertex 30 12.5 85
      vertex 30 3.53978 85
    endloop
  endfacet
  facet normal 1 -0 0
    outer loop
      vertex 30 1.8876e-014 80.01
      vertex 30 7.5 10
      vertex 30 5.65685 80.01
    endloop
  endfacet
  facet normal 1 0 0
    outer loop
      vertex 30 7.5 10
      vertex 30 1.8876e-014 80.01
      vertex 30 2.22045e-015 5
    endloop
  endfacet
  facet normal 1 -0 0
    outer loop
      vertex 30 17.5 85
      vertex 30 24.3431 80.01
      vertex 30 26.4602 85
    endloop
  endfacet
  facet normal 1 0 0
    outer loop
      vertex 30 17.5 10
      vertex 30 24.3431 80.01
      vertex 30 17.5 85
    endloop
  endfacet
  facet normal 1 0 0
    outer loop
      vertex 30 24.3431 80.01
      vertex 30 17.5 10
      vertex 30 22.5 10
    endloop
  endfacet
  facet normal 1 -0 0
    outer loop
      vertex 30 30 5
      vertex 30 65 0
      vertex 30 65 5
    endloop
  endfacet
  facet normal 1 0 0
    outer loop
      vertex 30 65 0
      vertex 30 30 5
      vertex 30 30 0
    endloop
  endfacet
  facet normal 1 0 0
    outer loop
      vertex 30 22.5 10
      vertex 30 30 80.01
      vertex 30 24.3431 80.01
    endloop
  endfacet
  facet normal 1 0 0
    outer loop
      vertex 30 30 80.01
      vertex 30 22.5 10
      vertex 30 30 5
    endloop
  endfacet
  facet normal -0.957826 -0.287348 0
    outer loop
      vertex 19 25 10
      vertex 17.5 30 85
      vertex 17.5 30 10
    endloop
  endfacet
  facet normal -0.957826 -0.287348 0
    outer loop
      vertex 17.5 30 85
      vertex 19 25 10
      vertex 19 25 85
    endloop
  endfacet
  facet normal 0.957826 -0.287348 0
    outer loop
      vertex 11 25 85
      vertex 12.5 30 10
      vertex 12.5 30 85
    endloop
  endfacet
  facet normal 0.957826 -0.287348 0
    outer loop
      vertex 12.5 30 10
      vertex 11 25 85
      vertex 11 25 10
    endloop
  endfacet
  facet normal 0 1 -0
    outer loop
      vertex 19 25 10
      vertex 11 25 85
      vertex 19 25 85
    endloop
  endfacet
  facet normal 0 1 0
    outer loop
      vertex 11 25 85
      vertex 19 25 10
      vertex 11 25 10
    endloop
  endfacet
  facet normal 0 1 0
    outer loop
      vertex 30 30 80.01
      vertex 22.5 30 10
      vertex 24.3431 30 80.01
    endloop
  endfacet
  facet normal -0 1 0
    outer loop
      vertex 22.5 30 10
      vertex 30 30 80.01
      vertex 30 30 5
    endloop
  endfacet
  facet normal 0 1 -0
    outer loop
      vertex 24.3431 30 80.01
      vertex 17.5 30 85
      vertex 26.4602 30 85
    endloop
  endfacet
  facet normal 0 1 0
    outer loop
      vertex 17.5 30 10
      vertex 24.3431 30 80.01
      vertex 22.5 30 10
    endloop
  endfacet
  facet normal 0 1 0
    outer loop
      vertex 24.3431 30 80.01
      vertex 17.5 30 10
      vertex 17.5 30 85
    endloop
  endfacet
  facet normal 0 1 0
    outer loop
      vertex 12.5 30 85
      vertex 5.65685 30 80.01
      vertex 3.53977 30 85
    endloop
  endfacet
  facet normal 0 1 -0
    outer loop
      vertex 12.5 30 10
      vertex 5.65685 30 80.01
      vertex 12.5 30 85
    endloop
  endfacet
  facet normal 0 1 -0
    outer loop
      vertex 7.5 30 10
      vertex 5.65685 30 80.01
      vertex 12.5 30 10
    endloop
  endfacet
  facet normal 0 1 0
    outer loop
      vertex 5.65685 30 80.01
      vertex 7.5 30 10
      vertex 0 30 80.01
    endloop
  endfacet
  facet normal 0 1 0
    outer loop
      vertex 0 30 80.01
      vertex 7.5 30 10
      vertex 0 30 5
    endloop
  endfacet
  facet normal 0.287348 -0.957826 0
    outer loop
      vertex 0 17.5 5
      vertex 5 19 85
      vertex 0 17.5 85
    endloop
  endfacet
  facet normal 0.287348 -0.957826 -1.71273e-009
    outer loop
      vertex 5 19 5
      vertex 5 19 85
      vertex 0 17.5 5
    endloop
  endfacet
  facet normal 0.28735 -0.957826 0
    outer loop
      vertex 0 17.5 0
      vertex 0.294117 17.5882 0.294118
      vertex 0 17.5 1.76606e-007
    endloop
  endfacet
  facet normal 0.287348 -0.957826 2.07697e-006
    outer loop
      vertex 5 19 0
      vertex 0.294117 17.5882 0.294118
      vertex 0 17.5 0
    endloop
  endfacet
  facet normal 0 -1 0
    outer loop
      vertex 5 19 5
      vertex 5 19 0
      vertex 5 19 85
    endloop
  endfacet
  facet normal 0.287348 -0.957826 2.74036e-008
    outer loop
      vertex 0.294117 17.5882 0.294118
      vertex 5 19 0
      vertex 5 19 5
    endloop
  endfacet
  facet normal 0.287348 0.957826 -0
    outer loop
      vertex 5 11 5
      vertex 0 12.5 85
      vertex 5 11 85
    endloop
  endfacet
  facet normal 0.287348 0.957826 0
    outer loop
      vertex 0 12.5 85
      vertex 5 11 5
      vertex 0 12.5 5
    endloop
  endfacet
  facet normal 0.287348 0.957826 0
    outer loop
      vertex 5 11 5
      vertex 5 11 0
      vertex 3.35552e-006 12.5 0
    endloop
  endfacet
  facet normal -1 0 0
    outer loop
      vertex 5 19 0
      vertex 5 17.6667 0.555556
      vertex 5 19 5
    endloop
  endfacet
  facet normal -1 0 -0
    outer loop
      vertex 5 17.6667 0.555556
      vertex 5 19 0
      vertex 5 17.5 0
    endloop
  endfacet
  facet normal -1 0 0
    outer loop
      vertex 5 11 5
      vertex 5 19 85
      vertex 5 19 5
    endloop
  endfacet
  facet normal -1 -0 0
    outer loop
      vertex 5 19 85
      vertex 5 11 5
      vertex 5 11 85
    endloop
  endfacet
  facet normal 0 0 0
    outer loop
      vertex 5 19 5
      vertex 5 19 85
      vertex 5 19 0
    endloop
  endfacet
  facet normal -1 0 0
    outer loop
      vertex 5 11 5
      vertex 5 12.5 0
      vertex 5 11 0
    endloop
  endfacet
  facet normal -1 0 0
    outer loop
      vertex 0 65 0
      vertex 0 30 5
      vertex 0 65 5
    endloop
  endfacet
  facet normal -1 0 0
    outer loop
      vertex 0 30 5
      vertex 0 24.3431 80.01
      vertex 0 30 80.01
    endloop
  endfacet
  facet normal -1 0 0
    outer loop
      vertex 0 30 5
      vertex 0 19 5
      vertex 0 24.3431 80.01
    endloop
  endfacet
  facet normal -1 0 0
    outer loop
      vertex 0 17.5 0
      vertex 0 30 5
      vertex 0 65 0
    endloop
  endfacet
  facet normal -1 -0 0
    outer loop
      vertex 0 30 5
      vertex 0 17.5833 0.277778
      vertex 0 19 5
    endloop
  endfacet
  facet normal -1 0 0
    outer loop
      vertex 0 30 5
      vertex 0 17.5 0
      vertex 0 17.5833 0.277778
    endloop
  endfacet
  facet normal -1 0 0
    outer loop
      vertex 0 17.5833 0.277778
      vertex 0 17.5 0
      vertex 0 17.5 1.76606e-007
    endloop
  endfacet
  facet normal -1 0 0
    outer loop
      vertex 0 17.5 5
      vertex 0 24.3431 80.01
      vertex 0 19 5
    endloop
  endfacet
  facet normal -1 0 0
    outer loop
      vertex 0 24.3431 80.01
      vertex 0 17.5 85
      vertex 0 26.4602 85
    endloop
  endfacet
  facet normal -1 0 0
    outer loop
      vertex 0 17.5 85
      vertex 0 24.3431 80.01
      vertex 0 17.5 5
    endloop
  endfacet
  facet normal -1 0 0
    outer loop
      vertex 0 5.65685 80.01
      vertex 0 12.5 5
      vertex 0 11 5
    endloop
  endfacet
  facet normal -1 0 0
    outer loop
      vertex 0 12.5 5
      vertex 0 5.65685 80.01
      vertex 0 12.5 85
    endloop
  endfacet
  facet normal -1 -0 0
    outer loop
      vertex 0 12.5 85
      vertex 0 5.65685 80.01
      vertex 0 3.53977 85
    endloop
  endfacet
  facet normal -1 0 0
    outer loop
      vertex 0 11 5
      vertex 0 1.8876e-014 80.01
      vertex 0 5.65685 80.01
    endloop
  endfacet
  facet normal -1 -0 0
    outer loop
      vertex 0 11 5
      vertex 0 1.11022e-015 0
      vertex 0 1.8876e-014 80.01
    endloop
  endfacet
  facet normal -1 0 0
    outer loop
      vertex 0 1.11022e-015 0
      vertex 0 11 5
      vertex 0 12.5 0
    endloop
  endfacet
  facet normal -8.9407e-008 -1 0
    outer loop
      vertex 19 5 5
      vertex 19 5 25
      vertex 13.6667 5 5
    endloop
  endfacet
  facet normal 0 -1 0
    outer loop
      vertex 12.5 5 0
      vertex 12.4118 5 0.294118
      vertex 12.3333 5 0
    endloop
  endfacet
  facet normal 0 -1 0
    outer loop
      vertex 19 5 0
      vertex 19 5 5
      vertex 17.5 5 0
    endloop
  endfacet
  facet normal -0 -1 -2.38419e-008
    outer loop
      vertex 13.6667 5 5
      vertex 11 5 25
      vertex 11 5 5
    endloop
  endfacet
  facet normal 0 -1 -2.38419e-008
    outer loop
      vertex 11 5 25
      vertex 13.6667 5 5
      vertex 19 5 25
    endloop
  endfacet
  facet normal 1.98682e-008 -1 -9.53674e-008
    outer loop
      vertex 11 5 0
      vertex 12.4118 5 0.294118
      vertex 11 5 5
    endloop
  endfacet
  facet normal 0 -1 0
    outer loop
      vertex 12.4118 5 0.294118
      vertex 11 5 0
      vertex 12.3333 5 0
    endloop
  endfacet
  facet normal -1.19209e-007 -1 0
    outer loop
      vertex 19 5 25
      vertex 19 5 55
      vertex 11 5 25
    endloop
  endfacet
  facet normal 0 -1 -3.17891e-008
    outer loop
      vertex 11 5 25
      vertex 19 5 55
      vertex 11 5 55
    endloop
  endfacet
  facet normal 0 0 1
    outer loop
      vertex 12.5 30 85
      vertex 3.53977 30 85
      vertex 11 25 85
    endloop
  endfacet
  facet normal 0 0 1
    outer loop
      vertex 26.4602 30 85
      vertex 17.5 30 85
      vertex 19 25 85
    endloop
  endfacet
  facet normal -0 0 1
    outer loop
      vertex 19 25 85
      vertex 18.5334 22.0732 85
      vertex 26.4602 30 85
    endloop
  endfacet
  facet normal 0 0 1
    outer loop
      vertex 18.5334 22.0732 85
      vertex 16.3906 19.2798 85
      vertex 18.0111 18.3442 85
    endloop
  endfacet
  facet normal 0 0 1
    outer loop
      vertex 11.4666 22.0732 85
      vertex 18.5334 22.0732 85
      vertex 19 25 85
    endloop
  endfacet
  facet normal 0 0 1
    outer loop
      vertex 18.5334 22.0732 85
      vertex 14.5296 19.4753 85
      vertex 16.3906 19.2798 85
    endloop
  endfacet
  facet normal 0 0 1
    outer loop
      vertex 18.5334 22.0732 85
      vertex 11.4666 22.0732 85
      vertex 14.5296 19.4753 85
    endloop
  endfacet
  facet normal 0 0 1
    outer loop
      vertex 14.5296 19.4753 85
      vertex 11.4666 22.0732 85
      vertex 12.75 18.8971 85
    endloop
  endfacet
  facet normal -0 0 1
    outer loop
      vertex 11 25 85
      vertex 11.4666 22.0732 85
      vertex 19 25 85
    endloop
  endfacet
  facet normal 0 0 1
    outer loop
      vertex 11.4666 22.0732 85
      vertex 11 25 85
      vertex 3.53977 30 85
    endloop
  endfacet
  facet normal 0 0 1
    outer loop
      vertex 22.0732 18.5334 85
      vertex 19.3113 15.8877 85
      vertex 19.5 15 85
    endloop
  endfacet
  facet normal 0 0 1
    outer loop
      vertex 22.0732 18.5334 85
      vertex 19.111 16.8303 85
      vertex 19.3113 15.8877 85
    endloop
  endfacet
  facet normal 0 0 1
    outer loop
      vertex 18.0111 18.3442 85
      vertex 22.0619 18.5447 85
      vertex 18.5334 22.0732 85
    endloop
  endfacet
  facet normal 0 0 1
    outer loop
      vertex 22.0619 18.5447 85
      vertex 18.0111 18.3442 85
      vertex 19.111 16.8303 85
    endloop
  endfacet
  facet normal 0 0 1
    outer loop
      vertex 30 26.4602 85
      vertex 25 19 85
      vertex 30 17.5 85
    endloop
  endfacet
  facet normal 0 0 1
    outer loop
      vertex 25 19 85
      vertex 22.0732 18.5334 85
      vertex 25 11 85
    endloop
  endfacet
  facet normal 0 0 1
    outer loop
      vertex 22.0732 18.5334 85
      vertex 25 19 85
      vertex 30 26.4602 85
    endloop
  endfacet
  facet normal -0 0 1
    outer loop
      vertex 25 11 85
      vertex 30 3.53978 85
      vertex 30 12.5 85
    endloop
  endfacet
  facet normal 0 0 1
    outer loop
      vertex 25 11 85
      vertex 22.0732 11.4666 85
      vertex 30 3.53978 85
    endloop
  endfacet
  facet normal 0 0 1
    outer loop
      vertex 22.0732 18.5334 85
      vertex 22.0732 11.4666 85
      vertex 25 11 85
    endloop
  endfacet
  facet normal 0 0 1
    outer loop
      vertex 19.111 16.8303 85
      vertex 22.0732 18.5334 85
      vertex 22.0619 18.5447 85
    endloop
  endfacet
  facet normal 0 0 1
    outer loop
      vertex 22.0732 18.5334 85
      vertex 19.5 15 85
      vertex 22.0732 11.4666 85
    endloop
  endfacet
  facet normal -0 0 1
    outer loop
      vertex 19.2996 14.0574 85
      vertex 22.0732 11.4666 85
      vertex 19.5 15 85
    endloop
  endfacet
  facet normal -0 0 1
    outer loop
      vertex 19.111 13.1697 85
      vertex 22.0732 11.4666 85
      vertex 19.2996 14.0574 85
    endloop
  endfacet
  facet normal -0 0 1
    outer loop
      vertex 18.0111 11.6558 85
      vertex 22.0732 11.4666 85
      vertex 19.111 13.1697 85
    endloop
  endfacet
  facet normal 0 0 1
    outer loop
      vertex 22.0732 11.4666 85
      vertex 18.0111 11.6558 85
      vertex 18.5334 7.92681 85
    endloop
  endfacet
  facet normal 0 0 1
    outer loop
      vertex 18.5334 7.92681 85
      vertex 19 5 85
      vertex 26.4602 1.9984e-014 85
    endloop
  endfacet
  facet normal -0 0 1
    outer loop
      vertex 16.3906 10.7202 85
      vertex 18.5334 7.92681 85
      vertex 18.0111 11.6558 85
    endloop
  endfacet
  facet normal -0 0 1
    outer loop
      vertex 14.5296 10.5247 85
      vertex 18.5334 7.92681 85
      vertex 16.3906 10.7202 85
    endloop
  endfacet
  facet normal -0 0 1
    outer loop
      vertex 11.4666 7.92681 85
      vertex 18.5334 7.92681 85
      vertex 14.5296 10.5247 85
    endloop
  endfacet
  facet normal 0 0 1
    outer loop
      vertex 11.4666 7.92681 85
      vertex 14.5296 10.5247 85
      vertex 12.75 11.1029 85
    endloop
  endfacet
  facet normal 0 0 1
    outer loop
      vertex 18.5334 7.92681 85
      vertex 11.4666 7.92681 85
      vertex 19 5 85
    endloop
  endfacet
  facet normal 0 0 1
    outer loop
      vertex 11.4666 7.92681 85
      vertex 11 5 85
      vertex 19 5 85
    endloop
  endfacet
  facet normal 0 -0 1
    outer loop
      vertex 11 5 85
      vertex 11.4666 7.92681 85
      vertex 3.53978 1.9984e-014 85
    endloop
  endfacet
  facet normal 0 0 1
    outer loop
      vertex 26.4602 1.9984e-014 85
      vertex 19 5 85
      vertex 17.5 1.9984e-014 85
    endloop
  endfacet
  facet normal 0 0 1
    outer loop
      vertex 12.75 11.1029 85
      vertex 11.4553 7.93812 85
      vertex 11.4666 7.92681 85
    endloop
  endfacet
  facet normal 0 0 1
    outer loop
      vertex 11.3594 12.355 85
      vertex 11.4553 7.93812 85
      vertex 12.75 11.1029 85
    endloop
  endfacet
  facet normal 0 0 1
    outer loop
      vertex 7.92681 11.4666 85
      vertex 11.3594 12.355 85
      vertex 10.5983 14.0644 85
    endloop
  endfacet
  facet normal 0 0 1
    outer loop
      vertex 11.3594 12.355 85
      vertex 7.92681 11.4666 85
      vertex 11.4553 7.93812 85
    endloop
  endfacet
  facet normal -0 0 1
    outer loop
      vertex 11.4553 22.0619 85
      vertex 12.75 18.8971 85
      vertex 11.4666 22.0732 85
    endloop
  endfacet
  facet normal 0 0 1
    outer loop
      vertex 11.4553 22.0619 85
      vertex 11.3594 17.645 85
      vertex 12.75 18.8971 85
    endloop
  endfacet
  facet normal -0 0 1
    outer loop
      vertex 7.92681 18.5334 85
      vertex 11.3594 17.645 85
      vertex 11.4553 22.0619 85
    endloop
  endfacet
  facet normal 0 0 1
    outer loop
      vertex 10.5983 15.9356 85
      vertex 7.92681 11.4666 85
      vertex 10.5983 14.0644 85
    endloop
  endfacet
  facet normal 0 0 1
    outer loop
      vertex 11.3594 17.645 85
      vertex 7.92681 18.5334 85
      vertex 10.5983 15.9356 85
    endloop
  endfacet
  facet normal 0 0 1
    outer loop
      vertex 10.5983 15.9356 85
      vertex 7.92681 18.5334 85
      vertex 7.92681 11.4666 85
    endloop
  endfacet
  facet normal 0 0 1
    outer loop
      vertex 5 19 85
      vertex 7.92681 11.4666 85
      vertex 7.92681 18.5334 85
    endloop
  endfacet
  facet normal 0 0 1
    outer loop
      vertex 5 11 85
      vertex 7.92681 11.4666 85
      vertex 5 19 85
    endloop
  endfacet
  facet normal -0 0 1
    outer loop
      vertex 5 11 85
      vertex 0 3.53977 85
      vertex 7.92681 11.4666 85
    endloop
  endfacet
  facet normal 0 0 1
    outer loop
      vertex 0 3.53977 85
      vertex 5 11 85
      vertex 0 12.5 85
    endloop
  endfacet
  facet normal 0 0 1
    outer loop
      vertex 12.5 1.9984e-014 85
      vertex 11 5 85
      vertex 3.53978 1.9984e-014 85
    endloop
  endfacet
  facet normal 0 0 1
    outer loop
      vertex 0 26.4602 85
      vertex 5 19 85
      vertex 7.92681 18.5334 85
    endloop
  endfacet
  facet normal 0 0 1
    outer loop
      vertex 5 19 85
      vertex 0 26.4602 85
      vertex 0 17.5 85
    endloop
  endfacet
  facet normal -1.19209e-007 -1 0
    outer loop
      vertex 19 5 55
      vertex 19 5 85
      vertex 11 5 55
    endloop
  endfacet
  facet normal 0 -1 -3.17891e-008
    outer loop
      vertex 11 5 55
      vertex 19 5 85
      vertex 11 5 85
    endloop
  endfacet
  facet normal -0.978148 0.207912 -1.18566e-008
    outer loop
      vertex 19.111 13.1697 5
      vertex 19.2996 14.0574 85
      vertex 19.3059 14.0867 5
    endloop
  endfacet
  facet normal -0.978148 0.207911 0
    outer loop
      vertex 19.2996 14.0574 85
      vertex 19.111 13.1697 5
      vertex 19.111 13.1697 85
    endloop
  endfacet
  facet normal -0.809017 0.587785 0
    outer loop
      vertex 18.0111 11.6558 5
      vertex 19.111 13.1697 85
      vertex 19.111 13.1697 5
    endloop
  endfacet
  facet normal -0.809017 0.587785 0
    outer loop
      vertex 19.111 13.1697 85
      vertex 18.0111 11.6558 5
      vertex 18.0111 11.6558 85
    endloop
  endfacet
  facet normal -0.809017 0.587785 0
    outer loop
      vertex 18.0111 11.6558 1.70362
      vertex 18.6244 12.5 0
      vertex 18.0111 11.6558 0
    endloop
  endfacet
  facet normal -0.809017 0.587785 -2.24568e-007
    outer loop
      vertex 18.6244 12.5 0
      vertex 18.0111 11.6558 1.70362
      vertex 18.1512 11.8488 2.17081
    endloop
  endfacet
  facet normal -0.978148 0.207912 -2.4785e-009
    outer loop
      vertex 19.3059 14.0867 5
      vertex 19.5 15 85
      vertex 19.5 15 5
    endloop
  endfacet
  facet normal -0.978147 0.207913 -1.16402e-008
    outer loop
      vertex 19.5 15 85
      vertex 19.3059 14.0867 5
      vertex 19.2996 14.0574 85
    endloop
  endfacet
  facet normal 1 -0 0
    outer loop
      vertex 10.5983 14.0644 85
      vertex 10.5983 15.9356 5
      vertex 10.5983 15.9356 85
    endloop
  endfacet
  facet normal 1 0 0
    outer loop
      vertex 10.5983 15.9356 5
      vertex 10.5983 14.0644 85
      vertex 10.5983 14.0644 5
    endloop
  endfacet
  facet normal 0.913546 -0.406736 0
    outer loop
      vertex 10.5983 15.9356 85
      vertex 11.3594 17.645 5
      vertex 11.3594 17.645 85
    endloop
  endfacet
  facet normal 0.913546 -0.406736 0
    outer loop
      vertex 11.3594 17.645 5
      vertex 10.5983 15.9356 85
      vertex 10.5983 15.9356 5
    endloop
  endfacet
  facet normal 0.913546 -0.406735 0
    outer loop
      vertex 11.3594 17.645 0
      vertex 11.3594 17.645 0.483447
      vertex 11.2948 17.5 0
    endloop
  endfacet
  facet normal -0.104529 0.994522 0
    outer loop
      vertex 16.3906 10.7202 5
      vertex 14.5296 10.5247 85
      vertex 16.3906 10.7202 85
    endloop
  endfacet
  facet normal -0.104529 0.994522 0
    outer loop
      vertex 14.5296 10.5247 85
      vertex 16.3906 10.7202 5
      vertex 14.5296 10.5247 5
    endloop
  endfacet
  facet normal -0.978148 -0.207911 1.22477e-008
    outer loop
      vertex 19.3051 15.917 5
      vertex 19.5 15 85
      vertex 19.3113 15.8877 85
    endloop
  endfacet
  facet normal -0.978148 -0.207912 2.4785e-009
    outer loop
      vertex 19.5 15 85
      vertex 19.3051 15.917 5
      vertex 19.5 15 5
    endloop
  endfacet
  facet normal -0.5 0.866026 0
    outer loop
      vertex 18.0111 11.6558 5
      vertex 16.3906 10.7202 85
      vertex 18.0111 11.6558 85
    endloop
  endfacet
  facet normal -0.5 0.866026 0
    outer loop
      vertex 16.3906 10.7202 85
      vertex 18.0111 11.6558 5
      vertex 16.3906 10.7202 5
    endloop
  endfacet
  facet normal -0.5 0.866025 0
    outer loop
      vertex 18.0111 11.6558 1.70362
      vertex 18.0111 11.6558 0
      vertex 17.5 11.3608 0
    endloop
  endfacet
  facet normal 0.913545 0.406737 0
    outer loop
      vertex 11.3594 12.355 85
      vertex 10.5983 14.0644 5
      vertex 10.5983 14.0644 85
    endloop
  endfacet
  facet normal 0.913545 0.406737 0
    outer loop
      vertex 10.5983 14.0644 5
      vertex 11.3594 12.355 85
      vertex 11.3594 12.355 5
    endloop
  endfacet
  facet normal 0.913547 0.406734 0
    outer loop
      vertex 11.3594 12.355 0.483442
      vertex 11.3594 12.355 0
      vertex 11.2949 12.5 0
    endloop
  endfacet
  facet normal 0.309017 0.951056 -0
    outer loop
      vertex 14.5296 10.5247 5
      vertex 12.75 11.1029 85
      vertex 14.5296 10.5247 85
    endloop
  endfacet
  facet normal 0.309017 0.951056 0
    outer loop
      vertex 12.75 11.1029 85
      vertex 14.5296 10.5247 5
      vertex 12.75 11.1029 5
    endloop
  endfacet
  facet normal 0.66913 0.743145 -0
    outer loop
      vertex 12.75 11.1029 5
      vertex 11.3594 12.355 85
      vertex 12.75 11.1029 85
    endloop
  endfacet
  facet normal 0.66913 0.743145 0
    outer loop
      vertex 11.3594 12.355 85
      vertex 12.75 11.1029 5
      vertex 11.3594 12.355 5
    endloop
  endfacet
  facet normal 0.669131 0.743145 -9.11279e-008
    outer loop
      vertex 12.5 11.328 0
      vertex 11.3594 12.355 0.483442
      vertex 11.8833 11.8833 2.05573
    endloop
  endfacet
  facet normal 0.669131 0.743145 0
    outer loop
      vertex 11.3594 12.355 0.483442
      vertex 12.5 11.328 0
      vertex 11.3594 12.355 0
    endloop
  endfacet
  facet normal 0.309017 -0.951057 2.2675e-008
    outer loop
      vertex 12.75 18.8971 5
      vertex 14.5296 19.4753 85
      vertex 12.75 18.8971 85
    endloop
  endfacet
  facet normal 0.309018 -0.951056 0
    outer loop
      vertex 14.5296 19.4753 85
      vertex 12.75 18.8971 5
      vertex 14.5296 19.4753 5
    endloop
  endfacet
  facet normal 0.669131 -0.743145 0
    outer loop
      vertex 11.3594 17.645 5
      vertex 12.75 18.8971 85
      vertex 11.3594 17.645 85
    endloop
  endfacet
  facet normal 0.66913 -0.743145 1.7718e-008
    outer loop
      vertex 12.75 18.8971 85
      vertex 11.3594 17.645 5
      vertex 12.75 18.8971 5
    endloop
  endfacet
  facet normal 0.66913 -0.743145 0
    outer loop
      vertex 12.5 18.672 0
      vertex 11.3594 17.645 0.483447
      vertex 11.3594 17.645 0
    endloop
  endfacet
  facet normal 0.66913 -0.743145 -3.62845e-007
    outer loop
      vertex 11.3594 17.645 0.483447
      vertex 12.5 18.672 0
      vertex 11.5038 17.7751 0.91688
    endloop
  endfacet
  facet normal 0.66913 -0.743145 -3.40162e-007
    outer loop
      vertex 11.5038 17.7751 0.91688
      vertex 12.5 18.672 0
      vertex 11.8833 18.1167 2.05573
    endloop
  endfacet
  facet normal -0.104529 -0.994522 0
    outer loop
      vertex 14.5296 19.4753 5
      vertex 16.3906 19.2798 85
      vertex 14.5296 19.4753 85
    endloop
  endfacet
  facet normal -0.104529 -0.994522 -0
    outer loop
      vertex 16.3906 19.2798 85
      vertex 14.5296 19.4753 5
      vertex 16.3906 19.2798 5
    endloop
  endfacet
  facet normal -0.5 -0.866026 0
    outer loop
      vertex 16.3906 19.2798 5
      vertex 18.0111 18.3442 85
      vertex 16.3906 19.2798 85
    endloop
  endfacet
  facet normal -0.5 -0.866026 -0
    outer loop
      vertex 18.0111 18.3442 85
      vertex 16.3906 19.2798 5
      vertex 18.0111 18.3442 5
    endloop
  endfacet
  facet normal -0.5 -0.866025 0
    outer loop
      vertex 18.0111 18.3442 0
      vertex 18.0111 18.3442 1.70362
      vertex 17.5 18.6392 0
    endloop
  endfacet
  facet normal -0.809017 -0.587785 0
    outer loop
      vertex 18.0111 18.3442 5
      vertex 19.111 16.8303 85
      vertex 18.0111 18.3442 85
    endloop
  endfacet
  facet normal -0.809017 -0.587785 1.40139e-008
    outer loop
      vertex 19.111 16.8303 85
      vertex 18.0111 18.3442 5
      vertex 19.111 16.8303 5
    endloop
  endfacet
  facet normal -0.809016 -0.587786 0
    outer loop
      vertex 18.3418 17.889 1.29676
      vertex 18.0111 18.3442 1.70362
      vertex 18.0111 18.3442 0
    endloop
  endfacet
  facet normal -0.809017 -0.587785 -1.56895e-006
    outer loop
      vertex 18.0111 18.3442 1.70362
      vertex 18.3418 17.889 1.29676
      vertex 18.1512 18.1512 2.17081
    endloop
  endfacet
  facet normal -0.809017 -0.587786 4.75543e-008
    outer loop
      vertex 18.3418 17.889 1.29676
      vertex 18.0111 18.3442 0
      vertex 18.6244 17.5 0
    endloop
  endfacet
  facet normal -0.978148 -0.207912 4.95701e-009
    outer loop
      vertex 19.3051 15.917 5
      vertex 19.111 16.8303 85
      vertex 19.111 16.8303 5
    endloop
  endfacet
  facet normal -0.978147 -0.207913 1.16402e-008
    outer loop
      vertex 19.111 16.8303 85
      vertex 19.3051 15.917 5
      vertex 19.3113 15.8877 85
    endloop
  endfacet
  facet normal 0 0 -1
    outer loop
      vertex 5 19 0
      vertex 12.5 18.672 0
      vertex 11.3594 17.645 0
    endloop
  endfacet
  facet normal 0 0 -1
    outer loop
      vertex 5 19 0
      vertex 11.3594 17.645 0
      vertex 11.2948 17.5 0
    endloop
  endfacet
  facet normal 0 0 -1
    outer loop
      vertex 5 19 0
      vertex 11.2948 17.5 0
      vertex 5 17.5 0
    endloop
  endfacet
  facet normal 0 0 -1
    outer loop
      vertex 12.5 18.672 0
      vertex 5 19 0
      vertex 12.5 65 0
    endloop
  endfacet
  facet normal 0 0 -1
    outer loop
      vertex 0 65 0
      vertex 5 19 0
      vertex 0 17.5 0
    endloop
  endfacet
  facet normal 0 0 -1
    outer loop
      vertex 5 19 0
      vertex 0 65 0
      vertex 12.5 65 0
    endloop
  endfacet
  facet normal 0 0 -1
    outer loop
      vertex 0 1.11022e-015 0
      vertex 11 5 0
      vertex 12.5 1.11022e-015 0
    endloop
  endfacet
  facet normal -0 0 -1
    outer loop
      vertex 11 5 0
      vertex 0 1.11022e-015 0
      vertex 5 11 0
    endloop
  endfacet
  facet normal -0 0 -1
    outer loop
      vertex 5 11 0
      vertex 0 1.11022e-015 0
      vertex 3.35552e-006 12.5 0
    endloop
  endfacet
  facet normal -0 0 -1
    outer loop
      vertex 3.35552e-006 12.5 0
      vertex 0 1.11022e-015 0
      vertex 0 12.5 0
    endloop
  endfacet
  facet normal 0 0 -1
    outer loop
      vertex 12.3333 5 0
      vertex 12.5 11.328 0
      vertex 12.5 5 0
    endloop
  endfacet
  facet normal 0 0 -1
    outer loop
      vertex 11 5 0
      vertex 12.5 11.328 0
      vertex 12.3333 5 0
    endloop
  endfacet
  facet normal -0 0 -1
    outer loop
      vertex 12.5 11.328 0
      vertex 11 5 0
      vertex 11.3594 12.355 0
    endloop
  endfacet
  facet normal 0 0 -1
    outer loop
      vertex 5 11 0
      vertex 11.3594 12.355 0
      vertex 11 5 0
    endloop
  endfacet
  facet normal -0 0 -1
    outer loop
      vertex 11.3594 12.355 0
      vertex 5 11 0
      vertex 11.2949 12.5 0
    endloop
  endfacet
  facet normal -0 0 -1
    outer loop
      vertex 11.2949 12.5 0
      vertex 5 11 0
      vertex 5 12.5 0
    endloop
  endfacet
  facet normal 0 0 -1
    outer loop
      vertex 20 1.11022e-015 0
      vertex 17.5 1.11022e-015 0
      vertex 19 5 0
    endloop
  endfacet
  facet normal 0 0 -1
    outer loop
      vertex 20 1.11022e-015 0
      vertex 65 0 0
      vertex 20 0 0
    endloop
  endfacet
  facet normal 0 0 -1
    outer loop
      vertex 65 0 0
      vertex 20 1.11022e-015 0
      vertex 65 12.5 0
    endloop
  endfacet
  facet normal 0 0 -1
    outer loop
      vertex 19 5 0
      vertex 65 12.5 0
      vertex 20 1.11022e-015 0
    endloop
  endfacet
  facet normal 0 0 -1
    outer loop
      vertex 19 5 0
      vertex 18.6244 12.5 0
      vertex 65 12.5 0
    endloop
  endfacet
  facet normal 0 0 -1
    outer loop
      vertex 19 5 0
      vertex 18.0111 11.6558 0
      vertex 18.6244 12.5 0
    endloop
  endfacet
  facet normal 0 0 -1
    outer loop
      vertex 17.5 11.3608 0
      vertex 19 5 0
      vertex 17.5 5 0
    endloop
  endfacet
  facet normal 0 0 -1
    outer loop
      vertex 19 5 0
      vertex 17.5 11.3608 0
      vertex 18.0111 11.6558 0
    endloop
  endfacet
  facet normal 0 0 -1
    outer loop
      vertex 65 17.5 0
      vertex 30 30 0
      vertex 65 30 0
    endloop
  endfacet
  facet normal 0 0 -1
    outer loop
      vertex 18.6244 17.5 0
      vertex 30 30 0
      vertex 65 17.5 0
    endloop
  endfacet
  facet normal 0 0 -1
    outer loop
      vertex 18.0111 18.3442 0
      vertex 30 30 0
      vertex 18.6244 17.5 0
    endloop
  endfacet
  facet normal 0 0 -1
    outer loop
      vertex 17.5 18.6392 0
      vertex 30 30 0
      vertex 18.0111 18.3442 0
    endloop
  endfacet
  facet normal 0 0 -1
    outer loop
      vertex 17.5 65 0
      vertex 30 30 0
      vertex 17.5 18.6392 0
    endloop
  endfacet
  facet normal 0 0 -1
    outer loop
      vertex 30 30 0
      vertex 17.5 65 0
      vertex 30 65 0
    endloop
  endfacet
  facet normal 0 0 1
    outer loop
      vertex 25 19 10
      vertex 30 12.5 10
      vertex 30 17.5 10
    endloop
  endfacet
  facet normal 0 0 1
    outer loop
      vertex 30 12.5 10
      vertex 25 19 10
      vertex 25 11 10
    endloop
  endfacet
  facet normal 0 0 1
    outer loop
      vertex 30 17.5 10
      vertex 65 22.5 10
      vertex 30 22.5 10
    endloop
  endfacet
  facet normal 0 0 1
    outer loop
      vertex 65 22.5 10
      vertex 30 17.5 10
      vertex 65 7.5 10
    endloop
  endfacet
  facet normal -0 0 1
    outer loop
      vertex 30 12.5 10
      vertex 65 7.5 10
      vertex 30 17.5 10
    endloop
  endfacet
  facet normal 0 0 1
    outer loop
      vertex 65 7.5 10
      vertex 30 12.5 10
      vertex 30 7.5 10
    endloop
  endfacet
  facet normal 0 0 1
    outer loop
      vertex 22.5 65 10
      vertex 17.5 30 10
      vertex 22.5 30 10
    endloop
  endfacet
  facet normal 0 0 1
    outer loop
      vertex 22.5 65 10
      vertex 12.5 30 10
      vertex 17.5 30 10
    endloop
  endfacet
  facet normal -0 0 1
    outer loop
      vertex 7.5 65 10
      vertex 12.5 30 10
      vertex 22.5 65 10
    endloop
  endfacet
  facet normal 0 0 1
    outer loop
      vertex 12.5 30 10
      vertex 7.5 65 10
      vertex 7.5 30 10
    endloop
  endfacet
  facet normal -0 0 1
    outer loop
      vertex 12.5 30 10
      vertex 19 25 10
      vertex 17.5 30 10
    endloop
  endfacet
  facet normal 0 0 1
    outer loop
      vertex 19 25 10
      vertex 12.5 30 10
      vertex 11 25 10
    endloop
  endfacet
  facet normal 0.5547 0 0.83205
    outer loop
      vertex 22.5 65 10
      vertex 30 30 5
      vertex 30 65 5
    endloop
  endfacet
  facet normal 0.5547 0 0.83205
    outer loop
      vertex 30 30 5
      vertex 22.5 65 10
      vertex 22.5 30 10
    endloop
  endfacet
  facet normal 0 1 -0
    outer loop
      vertex 30 65 0
      vertex 19 65 5
      vertex 30 65 5
    endloop
  endfacet
  facet normal 0 1 0
    outer loop
      vertex 19 65 5
      vertex 30 65 0
      vertex 17.5 65 0
    endloop
  endfacet
  facet normal 0 1 0
    outer loop
      vertex 19 65 5
      vertex 22.5 65 10
      vertex 30 65 5
    endloop
  endfacet
  facet normal 0 1 0
    outer loop
      vertex 22.5 65 10
      vertex 19 65 5
      vertex 7.5 65 10
    endloop
  endfacet
  facet normal 0 1 -0
    outer loop
      vertex 11 65 5
      vertex 7.5 65 10
      vertex 19 65 5
    endloop
  endfacet
  facet normal 0 1 0
    outer loop
      vertex 11 65 5
      vertex 0 65 5
      vertex 7.5 65 10
    endloop
  endfacet
  facet normal 0 1 0
    outer loop
      vertex 0 65 0
      vertex 11 65 5
      vertex 12.5 65 0
    endloop
  endfacet
  facet normal 0 1 0
    outer loop
      vertex 11 65 5
      vertex 0 65 0
      vertex 0 65 5
    endloop
  endfacet
  facet normal -0.5547 0 0.83205
    outer loop
      vertex 0 65 5
      vertex 7.5 30 10
      vertex 7.5 65 10
    endloop
  endfacet
  facet normal -0.5547 0 0.83205
    outer loop
      vertex 7.5 30 10
      vertex 0 65 5
      vertex 0 30 5
    endloop
  endfacet
  facet normal -1 0 0
    outer loop
      vertex 20 0 0
      vertex 20 2.22045e-015 5
      vertex 20 1.11022e-015 0
    endloop
  endfacet
  facet normal -1 -0 0
    outer loop
      vertex 20 2.22045e-015 5
      vertex 20 0 0
      vertex 20 0 5
    endloop
  endfacet
  facet normal 0 1 -0
    outer loop
      vertex 65 30 0
      vertex 30 30 5
      vertex 65 30 5
    endloop
  endfacet
  facet normal 0 1 0
    outer loop
      vertex 30 30 5
      vertex 65 30 0
      vertex 30 30 0
    endloop
  endfacet
  facet normal -0 0.5547 0.83205
    outer loop
      vertex 30 30 5
      vertex 65 22.5 10
      vertex 65 30 5
    endloop
  endfacet
  facet normal 0 0.5547 0.83205
    outer loop
      vertex 65 22.5 10
      vertex 30 30 5
      vertex 30 22.5 10
    endloop
  endfacet
  facet normal 0 -1 0
    outer loop
      vertex 20 0 0
      vertex 65 0 5
      vertex 20 0 5
    endloop
  endfacet
  facet normal 0 -1 -0
    outer loop
      vertex 65 0 5
      vertex 20 0 0
      vertex 65 0 0
    endloop
  endfacet
  facet normal 1 0 0
    outer loop
      vertex 65 22.5 10
      vertex 65 11 5
      vertex 65 19 5
    endloop
  endfacet
  facet normal 1 0 -0
    outer loop
      vertex 65 11 5
      vertex 65 22.5 10
      vertex 65 7.5 10
    endloop
  endfacet
  facet normal 1 0 0
    outer loop
      vertex 65 19 5
      vertex 65 30 5
      vertex 65 22.5 10
    endloop
  endfacet
  facet normal 1 0 0
    outer loop
      vertex 65 18.6667 3.88889
      vertex 65 30 5
      vertex 65 19 5
    endloop
  endfacet
  facet normal 1 0 0
    outer loop
      vertex 65 30 5
      vertex 65 18.6667 3.88889
      vertex 65 30 0
    endloop
  endfacet
  facet normal 1 0 0
    outer loop
      vertex 65 30 0
      vertex 65 18.6667 3.88889
      vertex 65 17.5 0
    endloop
  endfacet
  facet normal 1 0 0
    outer loop
      vertex 65 0 5
      vertex 65 11 5
      vertex 65 7.5 10
    endloop
  endfacet
  facet normal 1 0 0
    outer loop
      vertex 65 0 0
      vertex 65 11 5
      vertex 65 0 5
    endloop
  endfacet
  facet normal 1 0 0
    outer loop
      vertex 65 11 5
      vertex 65 0 0
      vertex 65 12.5 0
    endloop
  endfacet
  facet normal 0 -0.5547 0.83205
    outer loop
      vertex 30 7.5 10
      vertex 65 0 5
      vertex 65 7.5 10
    endloop
  endfacet
  facet normal -3.51909e-017 -0.5547 0.83205
    outer loop
      vertex 30 2.22045e-015 5
      vertex 65 0 5
      vertex 30 7.5 10
    endloop
  endfacet
  facet normal 0 0 1
    outer loop
      vertex 20 0 5
      vertex 30 2.22045e-015 5
      vertex 20 2.22045e-015 5
    endloop
  endfacet
  facet normal 0 0 1
    outer loop
      vertex 30 2.22045e-015 5
      vertex 20 0 5
      vertex 65 0 5
    endloop
  endfacet
  facet normal -0.957826 0 0.287348
    outer loop
      vertex 19 2.22045e-015 5
      vertex 19 5 5
      vertex 17.5 1.11022e-015 0
    endloop
  endfacet
  facet normal -0.957826 0 0.287348
    outer loop
      vertex 17.5 65 0
      vertex 19 19 5
      vertex 19 65 5
    endloop
  endfacet
  facet normal -0.957826 0 0.287348
    outer loop
      vertex 17.5 18.6392 0
      vertex 19 19 5
      vertex 17.5 65 0
    endloop
  endfacet
  facet normal -0.957826 0 0.287348
    outer loop
      vertex 18.0111 18.3442 1.70362
      vertex 19 19 5
      vertex 17.5 18.6392 0
    endloop
  endfacet
  facet normal -0.957826 2.15693e-006 0.287347
    outer loop
      vertex 19 19 5
      vertex 18.0111 18.3442 1.70362
      vertex 18.1512 18.1512 2.17081
    endloop
  endfacet
  facet normal -0.957826 -2.3966e-007 0.287348
    outer loop
      vertex 18.0111 11.6558 1.70362
      vertex 19 11 5
      vertex 18.1512 11.8488 2.17081
    endloop
  endfacet
  facet normal -0.957826 0 0.287348
    outer loop
      vertex 17.5 5 0
      vertex 18.0111 11.6558 1.70362
      vertex 17.5 11.3608 0
    endloop
  endfacet
  facet normal -0.957826 -4.90995e-008 0.287348
    outer loop
      vertex 19 5 5
      vertex 18.0111 11.6558 1.70362
      vertex 17.5 5 0
    endloop
  endfacet
  facet normal -0.957826 -1.59854e-007 0.287348
    outer loop
      vertex 18.0111 11.6558 1.70362
      vertex 19 5 5
      vertex 19 11 5
    endloop
  endfacet
  facet normal 0 0 -1
    outer loop
      vertex 11 5 5
      vertex 12.5 2.22045e-015 5
      vertex 11 2.22045e-015 5
    endloop
  endfacet
  facet normal 0 0 -1
    outer loop
      vertex 10.5983 15.9356 5
      vertex 11 19 5
      vertex 11.3594 17.645 5
    endloop
  endfacet
  facet normal 0 0 -1
    outer loop
      vertex 5 19 5
      vertex 10.5983 15.9356 5
      vertex 5 11 5
    endloop
  endfacet
  facet normal 0 0 -1
    outer loop
      vertex 10.5983 15.9356 5
      vertex 5 19 5
      vertex 11 19 5
    endloop
  endfacet
  facet normal 0 0 -1
    outer loop
      vertex 16.3906 10.7202 5
      vertex 19 11 5
      vertex 19 5 5
    endloop
  endfacet
  facet normal -0 0 -1
    outer loop
      vertex 19 11 5
      vertex 16.3906 10.7202 5
      vertex 18.0111 11.6558 5
    endloop
  endfacet
  facet normal 0 0 -1
    outer loop
      vertex 13.6667 5 5
      vertex 16.3906 10.7202 5
      vertex 19 5 5
    endloop
  endfacet
  facet normal 0 0 -1
    outer loop
      vertex 16.3906 10.7202 5
      vertex 13.6667 5 5
      vertex 14.5296 10.5247 5
    endloop
  endfacet
  facet normal 0 0 -1
    outer loop
      vertex 13.6667 5 5
      vertex 12.75 11.1029 5
      vertex 14.5296 10.5247 5
    endloop
  endfacet
  facet normal 0 0 -1
    outer loop
      vertex 11 5 5
      vertex 12.75 11.1029 5
      vertex 13.6667 5 5
    endloop
  endfacet
  facet normal 0 0 -1
    outer loop
      vertex 12.75 11.1029 5
      vertex 11 5 5
      vertex 11 11 5
    endloop
  endfacet
  facet normal -0 0 -1
    outer loop
      vertex 12.75 11.1029 5
      vertex 11 11 5
      vertex 11.3594 12.355 5
    endloop
  endfacet
  facet normal 0 0 -1
    outer loop
      vertex 11 11 5
      vertex 10.5983 14.0644 5
      vertex 11.3594 12.355 5
    endloop
  endfacet
  facet normal -0 0 -1
    outer loop
      vertex 10.5983 14.0644 5
      vertex 5 11 5
      vertex 10.5983 15.9356 5
    endloop
  endfacet
  facet normal 0 0 -1
    outer loop
      vertex 11 11 5
      vertex 5 11 5
      vertex 10.5983 14.0644 5
    endloop
  endfacet
  facet normal 0 0 -1
    outer loop
      vertex 0 11 5
      vertex 5 11 5
      vertex 11 11 5
    endloop
  endfacet
  facet normal -0 0 -1
    outer loop
      vertex 5 11 5
      vertex 0 11 5
      vertex 0 12.5 5
    endloop
  endfacet
  facet normal 0 0 -1
    outer loop
      vertex 65 11 5
      vertex 19.5 15 5
      vertex 65 19 5
    endloop
  endfacet
  facet normal 0 0 -1
    outer loop
      vertex 19 11 5
      vertex 19.5 15 5
      vertex 65 11 5
    endloop
  endfacet
  facet normal 0 0 -1
    outer loop
      vertex 19.5 15 5
      vertex 19 11 5
      vertex 19.3059 14.0867 5
    endloop
  endfacet
  facet normal 0 0 -1
    outer loop
      vertex 19.3059 14.0867 5
      vertex 19 11 5
      vertex 19.111 13.1697 5
    endloop
  endfacet
  facet normal 0 0 -1
    outer loop
      vertex 19.111 13.1697 5
      vertex 19 11 5
      vertex 18.0111 11.6558 5
    endloop
  endfacet
  facet normal 0 0 -1
    outer loop
      vertex 19 19 5
      vertex 19.5 15 5
      vertex 19.3051 15.917 5
    endloop
  endfacet
  facet normal 0 0 -1
    outer loop
      vertex 19 19 5
      vertex 19.3051 15.917 5
      vertex 19.111 16.8303 5
    endloop
  endfacet
  facet normal 0 0 -1
    outer loop
      vertex 19.5 15 5
      vertex 19 19 5
      vertex 65 19 5
    endloop
  endfacet
  facet normal 0 0 -1
    outer loop
      vertex 18.0111 18.3442 5
      vertex 19 19 5
      vertex 19.111 16.8303 5
    endloop
  endfacet
  facet normal 0 0 -1
    outer loop
      vertex 16.3906 19.2798 5
      vertex 19 19 5
      vertex 18.0111 18.3442 5
    endloop
  endfacet
  facet normal 0 0 -1
    outer loop
      vertex 19 19 5
      vertex 16.3906 19.2798 5
      vertex 19 65 5
    endloop
  endfacet
  facet normal 0 0 -1
    outer loop
      vertex 14.5296 19.4753 5
      vertex 19 65 5
      vertex 16.3906 19.2798 5
    endloop
  endfacet
  facet normal 0 0 -1
    outer loop
      vertex 11 19 5
      vertex 14.5296 19.4753 5
      vertex 12.75 18.8971 5
    endloop
  endfacet
  facet normal 0 0 -1
    outer loop
      vertex 11 19 5
      vertex 12.75 18.8971 5
      vertex 11.3594 17.645 5
    endloop
  endfacet
  facet normal -0 0 -1
    outer loop
      vertex 14.5296 19.4753 5
      vertex 11 19 5
      vertex 11 65 5
    endloop
  endfacet
  facet normal 0 0 -1
    outer loop
      vertex 14.5296 19.4753 5
      vertex 11 65 5
      vertex 19 65 5
    endloop
  endfacet
  facet normal 0 -0 -1
    outer loop
      vertex 19 5 5
      vertex 19 2.22045e-015 5
      vertex 17.5 2.22045e-015 5
    endloop
  endfacet
  facet normal 0 0 -1
    outer loop
      vertex 0 19 5
      vertex 5 19 5
      vertex 0 17.5 5
    endloop
  endfacet
  facet normal 0.957826 0 0.287348
    outer loop
      vertex 12.5 1.11022e-015 0
      vertex 11 5 5
      vertex 11 2.22045e-015 5
    endloop
  endfacet
  facet normal 0.957826 -0 0.287348
    outer loop
      vertex 11 19 5
      vertex 12.5 65 0
      vertex 11 65 5
    endloop
  endfacet
  facet normal 0.957826 0 0.287348
    outer loop
      vertex 11 19 5
      vertex 12.5 18.672 0
      vertex 12.5 65 0
    endloop
  endfacet
  facet normal 0.957826 4.30159e-007 0.287348
    outer loop
      vertex 12.5 18.672 0
      vertex 11 19 5
      vertex 11.8833 18.1167 2.05573
    endloop
  endfacet
  facet normal 0.957826 0 0.287348
    outer loop
      vertex 11 11 5
      vertex 11 5 5
      vertex 12.4118 5 0.294118
    endloop
  endfacet
  facet normal 0.957826 -1.44184e-007 0.287348
    outer loop
      vertex 12.4118 5 0.294118
      vertex 11.8833 11.8833 2.05573
      vertex 11 11 5
    endloop
  endfacet
  facet normal 0.957826 -7.86129e-008 0.287348
    outer loop
      vertex 11.8833 11.8833 2.05573
      vertex 12.4118 5 0.294118
      vertex 12.5 11.328 0
    endloop
  endfacet
  facet normal 0.957826 0 0.287349
    outer loop
      vertex 12.5 11.328 0
      vertex 12.4118 5 0.294118
      vertex 12.5 5 0
    endloop
  endfacet
  facet normal 0 -0.957826 0.287348
    outer loop
      vertex 5 17.6667 0.555556
      vertex 11 19 5
      vertex 5 19 5
    endloop
  endfacet
  facet normal 1.79797e-007 -0.957826 0.287348
    outer loop
      vertex 11.5038 17.7751 0.91688
      vertex 11 19 5
      vertex 5 17.6667 0.555556
    endloop
  endfacet
  facet normal -1.30724e-006 -0.957826 0.287348
    outer loop
      vertex 11 19 5
      vertex 11.5038 17.7751 0.91688
      vertex 11.8833 18.1167 2.05573
    endloop
  endfacet
  facet normal 0 -0.957826 0.287348
    outer loop
      vertex 19 19 5
      vertex 65 18.6667 3.88889
      vertex 65 19 5
    endloop
  endfacet
  facet normal 3.95533e-007 -0.957826 0.287348
    outer loop
      vertex 18.3418 17.889 1.29676
      vertex 19 19 5
      vertex 18.1512 18.1512 2.17081
    endloop
  endfacet
  facet normal -8.77367e-009 -0.957826 0.287348
    outer loop
      vertex 19 19 5
      vertex 18.3418 17.889 1.29676
      vertex 65 18.6667 3.88889
    endloop
  endfacet
  facet normal 0 -0.957826 0.287348
    outer loop
      vertex 0 19 5
      vertex 0.294117 17.5882 0.294118
      vertex 5 19 5
    endloop
  endfacet
  facet normal -2.06199e-007 -0.957826 0.287348
    outer loop
      vertex 0.294117 17.5882 0.294118
      vertex 0 19 5
      vertex 0 17.5833 0.277778
    endloop
  endfacet
  facet normal 2.05787e-007 -0.957826 0.287347
    outer loop
      vertex 5 17.6667 0.555556
      vertex 11.3594 17.645 0.483447
      vertex 11.5038 17.7751 0.91688
    endloop
  endfacet
  facet normal 0 -0.957827 0.287347
    outer loop
      vertex 11.2948 17.5 0
      vertex 5 17.6667 0.555556
      vertex 5 17.5 0
    endloop
  endfacet
  facet normal 2.29575e-007 -0.957826 0.287349
    outer loop
      vertex 5 17.6667 0.555556
      vertex 11.2948 17.5 0
      vertex 11.3594 17.645 0.483447
    endloop
  endfacet
  facet normal 2.73081e-008 -0.957826 0.287347
    outer loop
      vertex 18.6244 17.5 0
      vertex 65 18.6667 3.88889
      vertex 18.3418 17.889 1.29676
    endloop
  endfacet
  facet normal 0 -0.957826 0.287348
    outer loop
      vertex 65 18.6667 3.88889
      vertex 18.6244 17.5 0
      vertex 65 17.5 0
    endloop
  endfacet
  facet normal -3.48128e-007 -0.957826 0.28735
    outer loop
      vertex 0.294117 17.5882 0.294118
      vertex 0 17.5833 0.277778
      vertex 0 17.5 1.76606e-007
    endloop
  endfacet
  facet normal 0 0.961524 0.274721
    outer loop
      vertex 11 11 5
      vertex 5 11 5
      vertex 0 11 5
    endloop
  endfacet
  facet normal -7.61202e-009 0.957826 0.287348
    outer loop
      vertex 11.8833 11.8833 2.05573
      vertex 5 11 5
      vertex 11 11 5
    endloop
  endfacet
  facet normal 1.46624e-007 0.957826 0.287348
    outer loop
      vertex 11.3594 12.355 0.483442
      vertex 5 11 5
      vertex 11.8833 11.8833 2.05573
    endloop
  endfacet
  facet normal -0 0.957826 0.287348
    outer loop
      vertex 5 12.5 0
      vertex 11.3594 12.355 0.483442
      vertex 11.2949 12.5 0
    endloop
  endfacet
  facet normal 2.534e-008 0.957826 0.287348
    outer loop
      vertex 11.3594 12.355 0.483442
      vertex 5 12.5 0
      vertex 5 11 5
    endloop
  endfacet
  facet normal 9.13454e-009 0.957826 0.287348
    outer loop
      vertex 3.35552e-006 12.5 0
      vertex 0 11 5
      vertex 5 11 5
    endloop
  endfacet
  facet normal 0 0.957826 0.287348
    outer loop
      vertex 0 11 5
      vertex 3.35552e-006 12.5 0
      vertex 0 12.5 0
    endloop
  endfacet
  facet normal 1.98577e-008 0.957826 0.287348
    outer loop
      vertex 65 12.5 0
      vertex 19 11 5
      vertex 65 11 5
    endloop
  endfacet
  facet normal 1.96969e-008 0.957826 0.287348
    outer loop
      vertex 19 11 5
      vertex 65 12.5 0
      vertex 18.6244 12.5 0
    endloop
  endfacet
  facet normal 1.0768e-007 0.957826 0.287348
    outer loop
      vertex 19 11 5
      vertex 18.6244 12.5 0
      vertex 18.1512 11.8488 2.17081
    endloop
  endfacet
endsolid OpenSCAD_Model
