solid OpenSCAD_Model
  facet normal -0.677288 -0.677287 -0.287338
    outer loop
      vertex 23.1317 12.5251 85.01
      vertex 30 3.53978 90
      vertex 22.0732 11.4666 90
    endloop
  endfacet
  facet normal -0.677283 -0.677288 -0.287348
    outer loop
      vertex 30 3.53978 90
      vertex 23.1317 12.5251 85.01
      vertex 30 5.65685 85.01
    endloop
  endfacet
  facet normal 0.677287 0.677286 -0.287343
    outer loop
      vertex 26.4602 2.66454e-14 90
      vertex 17.4749 6.86827 85.01
      vertex 18.5334 7.92681 90
    endloop
  endfacet
  facet normal 0.677288 0.677281 -0.287352
    outer loop
      vertex 17.4749 6.86827 85.01
      vertex 26.4602 2.66454e-14 90
      vertex 24.3431 2.55374e-14 85.01
    endloop
  endfacet
  facet normal 0.707106 -0.707108 -4.23738e-07
    outer loop
      vertex 18.5334 7.92681 90
      vertex 23.1317 12.5251 85.01
      vertex 22.0732 11.4666 90
    endloop
  endfacet
  facet normal 0.707109 -0.707105 4.8727e-06
    outer loop
      vertex 23.1317 12.5251 85.01
      vertex 18.5334 7.92681 90
      vertex 17.4749 6.86827 85.01
    endloop
  endfacet
  facet normal 0 0 1
    outer loop
      vertex 30 5.65685 85.01
      vertex 24.3431 2.55374e-14 85.01
      vertex 30 2.55374e-14 85.01
    endloop
  endfacet
  facet normal 0 0 1
    outer loop
      vertex 23.1317 12.5251 85.01
      vertex 24.3431 2.55374e-14 85.01
      vertex 30 5.65685 85.01
    endloop
  endfacet
  facet normal 0 0 1
    outer loop
      vertex 24.3431 2.55374e-14 85.01
      vertex 23.1317 12.5251 85.01
      vertex 17.4749 6.86827 85.01
    endloop
  endfacet
  facet normal -0.707107 -0.707107 7.08524e-06
    outer loop
      vertex 12.5251 6.86827 85.01
      vertex 11.4553 7.93812 90
      vertex 6.86827 12.5251 85.01
    endloop
  endfacet
  facet normal -0.707419 -0.706794 -0.000127014
    outer loop
      vertex 11.4553 7.93812 90
      vertex 12.5251 6.86827 85.01
      vertex 11.4666 7.92681 90
    endloop
  endfacet
  facet normal 0 0 1
    outer loop
      vertex 6.86827 12.5251 85.01
      vertex 5.65685 2.55374e-14 85.01
      vertex 12.5251 6.86827 85.01
    endloop
  endfacet
  facet normal -0 0 1
    outer loop
      vertex 0 5.65685 85.01
      vertex 5.65685 2.55374e-14 85.01
      vertex 6.86827 12.5251 85.01
    endloop
  endfacet
  facet normal 0 0 1
    outer loop
      vertex 5.65685 2.55374e-14 85.01
      vertex 0 5.65685 85.01
      vertex 0 2.55374e-14 85.01
    endloop
  endfacet
  facet normal -0.707106 -0.707108 5.24309e-06
    outer loop
      vertex 11.4553 7.93812 90
      vertex 7.92681 11.4666 90
      vertex 6.86827 12.5251 85.01
    endloop
  endfacet
  facet normal -0.677286 0.677287 -0.287343
    outer loop
      vertex 12.5251 6.86827 85.01
      vertex 3.53978 2.66454e-14 90
      vertex 11.4666 7.92681 90
    endloop
  endfacet
  facet normal -0.677287 0.677285 -0.287347
    outer loop
      vertex 3.53978 2.66454e-14 90
      vertex 12.5251 6.86827 85.01
      vertex 5.65685 2.55374e-14 85.01
    endloop
  endfacet
  facet normal 0.677284 -0.677286 -0.287349
    outer loop
      vertex 6.86827 12.5251 85.01
      vertex 0 3.53977 90
      vertex 0 5.65685 85.01
    endloop
  endfacet
  facet normal 0.677287 -0.677286 -0.287343
    outer loop
      vertex 0 3.53977 90
      vertex 6.86827 12.5251 85.01
      vertex 7.92681 11.4666 90
    endloop
  endfacet
  facet normal -0.707107 0.707107 2.50604e-14
    outer loop
      vertex 12.5251 23.1317 85.01
      vertex 11.4553 22.0619 90
      vertex 11.4666 22.0732 90
    endloop
  endfacet
  facet normal -0.707105 0.707109 8.03963e-07
    outer loop
      vertex 11.4553 22.0619 90
      vertex 12.5251 23.1317 85.01
      vertex 6.86827 17.4749 85.01
    endloop
  endfacet
  facet normal 0 0 1
    outer loop
      vertex 5.65685 30 85.01
      vertex 6.86827 17.4749 85.01
      vertex 12.5251 23.1317 85.01
    endloop
  endfacet
  facet normal 0 0 1
    outer loop
      vertex 0 24.3431 85.01
      vertex 5.65685 30 85.01
      vertex 0 30 85.01
    endloop
  endfacet
  facet normal 0 0 1
    outer loop
      vertex 5.65685 30 85.01
      vertex 0 24.3431 85.01
      vertex 6.86827 17.4749 85.01
    endloop
  endfacet
  facet normal -0.707108 0.707106 6.09329e-06
    outer loop
      vertex 7.92681 18.5334 90
      vertex 11.4553 22.0619 90
      vertex 6.86827 17.4749 85.01
    endloop
  endfacet
  facet normal 0.677284 0.677285 -0.287351
    outer loop
      vertex 7.92681 18.5334 90
      vertex 0 24.3431 85.01
      vertex 0 26.4602 90
    endloop
  endfacet
  facet normal 0.677283 0.67729 -0.287343
    outer loop
      vertex 0 24.3431 85.01
      vertex 7.92681 18.5334 90
      vertex 6.86827 17.4749 85.01
    endloop
  endfacet
  facet normal -0.677288 -0.677283 -0.287349
    outer loop
      vertex 12.5251 23.1317 85.01
      vertex 3.53977 30 90
      vertex 5.65685 30 85.01
    endloop
  endfacet
  facet normal -0.677286 -0.677289 -0.287338
    outer loop
      vertex 3.53977 30 90
      vertex 12.5251 23.1317 85.01
      vertex 11.4666 22.0732 90
    endloop
  endfacet
  facet normal 0.707107 0.707107 0
    outer loop
      vertex 23.1317 17.4749 85.01
      vertex 22.0619 18.5447 90
      vertex 22.0732 18.5334 90
    endloop
  endfacet
  facet normal 0.707107 0.707107 0
    outer loop
      vertex 22.0619 18.5447 90
      vertex 23.1317 17.4749 85.01
      vertex 17.4749 23.1317 85.01
    endloop
  endfacet
  facet normal 0.707107 0.707107 0
    outer loop
      vertex 18.5334 22.0732 90
      vertex 22.0619 18.5447 90
      vertex 17.4749 23.1317 85.01
    endloop
  endfacet
  facet normal -0.677285 0.677285 -0.287351
    outer loop
      vertex 30 24.3431 85.01
      vertex 22.0732 18.5334 90
      vertex 30 26.4602 90
    endloop
  endfacet
  facet normal -0.677283 0.677292 -0.287338
    outer loop
      vertex 22.0732 18.5334 90
      vertex 30 24.3431 85.01
      vertex 23.1317 17.4749 85.01
    endloop
  endfacet
  facet normal -0 0 1
    outer loop
      vertex 24.3431 30 85.01
      vertex 30 24.3431 85.01
      vertex 30 30 85.01
    endloop
  endfacet
  facet normal 0 0 1
    outer loop
      vertex 24.3431 30 85.01
      vertex 23.1317 17.4749 85.01
      vertex 30 24.3431 85.01
    endloop
  endfacet
  facet normal 0 -0 1
    outer loop
      vertex 23.1317 17.4749 85.01
      vertex 24.3431 30 85.01
      vertex 17.4749 23.1317 85.01
    endloop
  endfacet
  facet normal 0.677292 -0.677283 -0.287338
    outer loop
      vertex 24.3431 30 85.01
      vertex 18.5334 22.0732 90
      vertex 17.4749 23.1317 85.01
    endloop
  endfacet
  facet normal 0.677285 -0.677285 -0.287351
    outer loop
      vertex 18.5334 22.0732 90
      vertex 24.3431 30 85.01
      vertex 26.4602 30 90
    endloop
  endfacet
  facet normal 0.957826 0.287348 0
    outer loop
      vertex 12.5 2.66454e-14 90
      vertex 11 5 5.19
      vertex 11 5 90
    endloop
  endfacet
  facet normal 0.957826 0.287348 -6.21916e-17
    outer loop
      vertex 11 5 5.19
      vertex 12.5 2.66454e-14 90
      vertex 12.5 7.81375e-15 5.19
    endloop
  endfacet
  facet normal 0.957826 0.287348 0
    outer loop
      vertex 11 5 4.99
      vertex 12.497 0.01 0
      vertex 11 5 0
    endloop
  endfacet
  facet normal -0.957826 0.287348 0
    outer loop
      vertex 19 5 5.19
      vertex 17.5 2.66454e-14 90
      vertex 19 5 90
    endloop
  endfacet
  facet normal -0.957826 0.287348 -6.38042e-17
    outer loop
      vertex 17.5 2.66454e-14 90
      vertex 19 5 5.19
      vertex 17.5 7.81375e-15 5.19
    endloop
  endfacet
  facet normal -0.957826 0.287348 0
    outer loop
      vertex 19 5 4.99
      vertex 19 5 0
      vertex 17.503 0.01 0
    endloop
  endfacet
  facet normal 0 -1 2.22045e-16
    outer loop
      vertex 0 2.55374e-14 85.01
      vertex 11 7.81375e-15 5.19
      vertex 5.65685 2.55374e-14 85.01
    endloop
  endfacet
  facet normal -4.03482e-22 -1 2.22045e-16
    outer loop
      vertex 0 6.66134e-15 0
      vertex 11 7.81375e-15 5.19
      vertex 0 2.55374e-14 85.01
    endloop
  endfacet
  facet normal -2.68182e-21 -1 2.2205e-16
    outer loop
      vertex 11 7.81375e-15 5.19
      vertex 0 6.66134e-15 0
      vertex 11 7.76934e-15 4.99
    endloop
  endfacet
  facet normal 0 -1 2.22044e-16
    outer loop
      vertex 11 7.76934e-15 4.99
      vertex 0 6.66134e-15 0
      vertex 12.497 6.66134e-15 0
    endloop
  endfacet
  facet normal 0 -1 2.22044e-16
    outer loop
      vertex 5.65685 2.55374e-14 85.01
      vertex 12.5 2.66454e-14 90
      vertex 3.53978 2.66454e-14 90
    endloop
  endfacet
  facet normal 0 -1 2.22045e-16
    outer loop
      vertex 12.5 7.81375e-15 5.19
      vertex 5.65685 2.55374e-14 85.01
      vertex 11 7.81375e-15 5.19
    endloop
  endfacet
  facet normal -7.81401e-22 -1 2.22045e-16
    outer loop
      vertex 5.65685 2.55374e-14 85.01
      vertex 12.5 7.81375e-15 5.19
      vertex 12.5 2.66454e-14 90
    endloop
  endfacet
  facet normal -5e-22 -1 2.2205e-16
    outer loop
      vertex 19 7.76934e-15 4.99
      vertex 20 7.77156e-15 5
      vertex 19 7.81375e-15 5.19
    endloop
  endfacet
  facet normal 0 -1 2.22044e-16
    outer loop
      vertex 20 6.66134e-15 0
      vertex 19 7.76934e-15 4.99
      vertex 17.503 6.66134e-15 0
    endloop
  endfacet
  facet normal -4.4e-22 -1 2.22044e-16
    outer loop
      vertex 19 7.76934e-15 4.99
      vertex 20 6.66134e-15 0
      vertex 20 7.77156e-15 5
    endloop
  endfacet
  facet normal 0 -1 2.22044e-16
    outer loop
      vertex 17.5 2.66454e-14 90
      vertex 24.3431 2.55374e-14 85.01
      vertex 26.4602 2.66454e-14 90
    endloop
  endfacet
  facet normal 7.81407e-22 -1 2.22045e-16
    outer loop
      vertex 17.5 7.81375e-15 5.19
      vertex 24.3431 2.55374e-14 85.01
      vertex 17.5 2.66454e-14 90
    endloop
  endfacet
  facet normal 0 -1 2.22045e-16
    outer loop
      vertex 19 7.81375e-15 5.19
      vertex 24.3431 2.55374e-14 85.01
      vertex 17.5 7.81375e-15 5.19
    endloop
  endfacet
  facet normal -1.27754e-22 -1 2.22045e-16
    outer loop
      vertex 30 7.77156e-15 5
      vertex 24.3431 2.55374e-14 85.01
      vertex 19 7.81375e-15 5.19
    endloop
  endfacet
  facet normal 0 -1 2.22053e-16
    outer loop
      vertex 30 7.77156e-15 5
      vertex 19 7.81375e-15 5.19
      vertex 20 7.77156e-15 5
    endloop
  endfacet
  facet normal 0 -1 2.22045e-16
    outer loop
      vertex 24.3431 2.55374e-14 85.01
      vertex 30 7.77156e-15 5
      vertex 30 2.55374e-14 85.01
    endloop
  endfacet
  facet normal -0.287348 0.957826 0
    outer loop
      vertex 30 12.5 10
      vertex 25 11 90
      vertex 30 12.5 90
    endloop
  endfacet
  facet normal -0.287348 0.957826 0
    outer loop
      vertex 25 11 90
      vertex 30 12.5 10
      vertex 25 11 10
    endloop
  endfacet
  facet normal -0.287348 -0.957826 0
    outer loop
      vertex 25 19 10
      vertex 30 17.5 90
      vertex 25 19 90
    endloop
  endfacet
  facet normal -0.287348 -0.957826 -0
    outer loop
      vertex 30 17.5 90
      vertex 25 19 10
      vertex 30 17.5 10
    endloop
  endfacet
  facet normal 1 -0 0
    outer loop
      vertex 25 11 90
      vertex 25 19 10
      vertex 25 19 90
    endloop
  endfacet
  facet normal 1 0 0
    outer loop
      vertex 25 19 10
      vertex 25 11 90
      vertex 25 11 10
    endloop
  endfacet
  facet normal 1 -0 0
    outer loop
      vertex 30 17.5 90
      vertex 30 24.3431 85.01
      vertex 30 26.4602 90
    endloop
  endfacet
  facet normal 1 0 0
    outer loop
      vertex 30 17.5 10
      vertex 30 24.3431 85.01
      vertex 30 17.5 90
    endloop
  endfacet
  facet normal 1 0 0
    outer loop
      vertex 30 24.3431 85.01
      vertex 30 17.5 10
      vertex 30 22.5 10
    endloop
  endfacet
  facet normal 1 -0 0
    outer loop
      vertex 30 30 5
      vertex 30 70 0
      vertex 30 70 5
    endloop
  endfacet
  facet normal 1 0 0
    outer loop
      vertex 30 70 0
      vertex 30 30 5
      vertex 30 30 0
    endloop
  endfacet
  facet normal 1 0 0
    outer loop
      vertex 30 22.5 10
      vertex 30 30 85.01
      vertex 30 24.3431 85.01
    endloop
  endfacet
  facet normal 1 0 0
    outer loop
      vertex 30 30 85.01
      vertex 30 22.5 10
      vertex 30 30 5
    endloop
  endfacet
  facet normal 1 -0 0
    outer loop
      vertex 30 5.65685 85.01
      vertex 30 12.5 10
      vertex 30 12.5 90
    endloop
  endfacet
  facet normal 1 0 0
    outer loop
      vertex 30 12.5 10
      vertex 30 5.65685 85.01
      vertex 30 7.5 10
    endloop
  endfacet
  facet normal 1 0 -0
    outer loop
      vertex 30 5.65685 85.01
      vertex 30 12.5 90
      vertex 30 3.53978 90
    endloop
  endfacet
  facet normal 1 -0 0
    outer loop
      vertex 30 2.55374e-14 85.01
      vertex 30 7.5 10
      vertex 30 5.65685 85.01
    endloop
  endfacet
  facet normal 1 0 0
    outer loop
      vertex 30 7.5 10
      vertex 30 2.55374e-14 85.01
      vertex 30 7.77156e-15 5
    endloop
  endfacet
  facet normal -0.957826 -0.287348 0
    outer loop
      vertex 19 25 10
      vertex 17.5 30 90
      vertex 17.5 30 10
    endloop
  endfacet
  facet normal -0.957826 -0.287348 0
    outer loop
      vertex 17.5 30 90
      vertex 19 25 10
      vertex 19 25 90
    endloop
  endfacet
  facet normal 0.957826 -0.287348 0
    outer loop
      vertex 11 25 90
      vertex 12.5 30 10
      vertex 12.5 30 90
    endloop
  endfacet
  facet normal 0.957826 -0.287348 0
    outer loop
      vertex 12.5 30 10
      vertex 11 25 90
      vertex 11 25 10
    endloop
  endfacet
  facet normal 0 1 -0
    outer loop
      vertex 19 25 10
      vertex 11 25 90
      vertex 19 25 90
    endloop
  endfacet
  facet normal 0 1 0
    outer loop
      vertex 11 25 90
      vertex 19 25 10
      vertex 11 25 10
    endloop
  endfacet
  facet normal 0 1 0
    outer loop
      vertex 12.5 30 90
      vertex 5.65685 30 85.01
      vertex 3.53977 30 90
    endloop
  endfacet
  facet normal 0 1 -0
    outer loop
      vertex 12.5 30 10
      vertex 5.65685 30 85.01
      vertex 12.5 30 90
    endloop
  endfacet
  facet normal 0 1 -0
    outer loop
      vertex 7.5 30 10
      vertex 5.65685 30 85.01
      vertex 12.5 30 10
    endloop
  endfacet
  facet normal 0 1 0
    outer loop
      vertex 5.65685 30 85.01
      vertex 7.5 30 10
      vertex 0 30 85.01
    endloop
  endfacet
  facet normal 0 1 0
    outer loop
      vertex 0 30 85.01
      vertex 7.5 30 10
      vertex 0 30 5
    endloop
  endfacet
  facet normal 0 1 0
    outer loop
      vertex 30 30 85.01
      vertex 22.5 30 10
      vertex 24.3431 30 85.01
    endloop
  endfacet
  facet normal -0 1 0
    outer loop
      vertex 22.5 30 10
      vertex 30 30 85.01
      vertex 30 30 5
    endloop
  endfacet
  facet normal 0 1 -0
    outer loop
      vertex 24.3431 30 85.01
      vertex 17.5 30 90
      vertex 26.4602 30 90
    endloop
  endfacet
  facet normal 0 1 0
    outer loop
      vertex 17.5 30 10
      vertex 24.3431 30 85.01
      vertex 22.5 30 10
    endloop
  endfacet
  facet normal 0 1 0
    outer loop
      vertex 24.3431 30 85.01
      vertex 17.5 30 10
      vertex 17.5 30 90
    endloop
  endfacet
  facet normal 0 -1 0
    outer loop
      vertex 5.52891e-16 17.5 0
      vertex 0 17.5 2.49
      vertex 0 17.5 0
    endloop
  endfacet
  facet normal 0.287348 -0.957826 0
    outer loop
      vertex 0 17.5 5.19
      vertex 5 19 90
      vertex 0 17.5 90
    endloop
  endfacet
  facet normal 0.287348 -0.957826 0
    outer loop
      vertex 5 19 90
      vertex 0 17.5 5.19
      vertex 5 19 5.19
    endloop
  endfacet
  facet normal 0.287348 -0.957826 0
    outer loop
      vertex 5 19 4.99
      vertex 0.01 17.503 0
      vertex 5 19 0
    endloop
  endfacet
  facet normal 0 0 0
    outer loop
      vertex 5 19 90
      vertex 5 19 5.19
      vertex 5 19 4.99
    endloop
  endfacet
  facet normal 0 0 0
    outer loop
      vertex 5 19 4.99
      vertex 5 19 0
      vertex 5 19 90
    endloop
  endfacet
  facet normal 0.287348 0.957826 -0
    outer loop
      vertex 5 11 5.19
      vertex 0 12.5 90
      vertex 5 11 90
    endloop
  endfacet
  facet normal 0.287348 0.957826 0
    outer loop
      vertex 0 12.5 90
      vertex 5 11 5.19
      vertex 0 12.5 5.19
    endloop
  endfacet
  facet normal 0.287348 0.957826 0
    outer loop
      vertex 5 11 4.99
      vertex 5 11 0
      vertex 0.0100032 12.497 0
    endloop
  endfacet
  facet normal -1 0 0
    outer loop
      vertex 5 19 0
      vertex 5 17.503 0
      vertex 5 19 4.99
    endloop
  endfacet
  facet normal -1 0 0
    outer loop
      vertex 5 11 5.19
      vertex 5 19 90
      vertex 5 19 5.19
    endloop
  endfacet
  facet normal -1 -0 0
    outer loop
      vertex 5 19 90
      vertex 5 11 5.19
      vertex 5 11 90
    endloop
  endfacet
  facet normal 0 0 0
    outer loop
      vertex 5 19 0
      vertex 5 19 4.99
      vertex 5 19 5.19
    endloop
  endfacet
  facet normal 0 0 0
    outer loop
      vertex 5 19 5.19
      vertex 5 19 90
      vertex 5 19 0
    endloop
  endfacet
  facet normal -1 0 0
    outer loop
      vertex 5 11 4.99
      vertex 5 12.497 0
      vertex 5 11 0
    endloop
  endfacet
  facet normal -1 0 0
    outer loop
      vertex 0 70 0
      vertex 0 30 5
      vertex 0 70 5
    endloop
  endfacet
  facet normal -1 0 0
    outer loop
      vertex 0 30 5
      vertex 0 24.3431 85.01
      vertex 0 30 85.01
    endloop
  endfacet
  facet normal -1 0 0
    outer loop
      vertex 0 19 5.19
      vertex 0 30 5
      vertex 0 19 4.99
    endloop
  endfacet
  facet normal -1 0 0
    outer loop
      vertex 0 17.5 0
      vertex 0 30 5
      vertex 0 70 0
    endloop
  endfacet
  facet normal -1 0 0
    outer loop
      vertex 0 30 5
      vertex 0 18.5714 3.56143
      vertex 0 19 4.99
    endloop
  endfacet
  facet normal -1 0 0
    outer loop
      vertex 0 30 5
      vertex 0 17.5 0
      vertex 0 18.5714 3.56143
    endloop
  endfacet
  facet normal -1 0 0
    outer loop
      vertex 0 18.5714 3.56143
      vertex 0 17.5 0
      vertex 0 17.5 2.49
    endloop
  endfacet
  facet normal -1 0 0
    outer loop
      vertex 0 30 5
      vertex 0 19 5.19
      vertex 0 24.3431 85.01
    endloop
  endfacet
  facet normal -1 0 0
    outer loop
      vertex 0 17.5 5.19
      vertex 0 24.3431 85.01
      vertex 0 19 5.19
    endloop
  endfacet
  facet normal -1 0 0
    outer loop
      vertex 0 24.3431 85.01
      vertex 0 17.5 90
      vertex 0 26.4602 90
    endloop
  endfacet
  facet normal -1 0 0
    outer loop
      vertex 0 17.5 90
      vertex 0 24.3431 85.01
      vertex 0 17.5 5.19
    endloop
  endfacet
  facet normal -1 0 0
    outer loop
      vertex 0 5.65685 85.01
      vertex 0 12.5 5.19
      vertex 0 11 5.19
    endloop
  endfacet
  facet normal -1 0 0
    outer loop
      vertex 0 12.5 5.19
      vertex 0 5.65685 85.01
      vertex 0 12.5 90
    endloop
  endfacet
  facet normal -1 -0 0
    outer loop
      vertex 0 12.5 90
      vertex 0 5.65685 85.01
      vertex 0 3.53977 90
    endloop
  endfacet
  facet normal -1 0 0
    outer loop
      vertex 0 6.66134e-15 0
      vertex 0 11 5.19
      vertex 0 11 4.99
    endloop
  endfacet
  facet normal -1 0 0
    outer loop
      vertex 0 11 5.19
      vertex 0 2.55374e-14 85.01
      vertex 0 5.65685 85.01
    endloop
  endfacet
  facet normal -1 -0 0
    outer loop
      vertex 0 11 5.19
      vertex 0 6.66134e-15 0
      vertex 0 2.55374e-14 85.01
    endloop
  endfacet
  facet normal -1 0 0
    outer loop
      vertex 0 6.66134e-15 0
      vertex 0 11 4.99
      vertex 0 12.497 0
    endloop
  endfacet
  facet normal 0 -1 0
    outer loop
      vertex 19 5 5.19
      vertex 18.9344 5 90
      vertex 13.3731 5 5.19
    endloop
  endfacet
  facet normal 0 -1 0
    outer loop
      vertex 18.9344 5 90
      vertex 19 5 5.19
      vertex 19 5 90
    endloop
  endfacet
  facet normal 0 -1 0
    outer loop
      vertex 19 5 0
      vertex 19 5 4.99
      vertex 17.503 5 0
    endloop
  endfacet
  facet normal 0 -1 0
    outer loop
      vertex 13.3731 5 5.19
      vertex 11 5 90
      vertex 11 5 5.19
    endloop
  endfacet
  facet normal 0 -1 0
    outer loop
      vertex 11 5 90
      vertex 13.3731 5 5.19
      vertex 18.9344 5 90
    endloop
  endfacet
  facet normal 0 -1 0
    outer loop
      vertex 11 5 0
      vertex 12.497 5 0
      vertex 11 5 4.99
    endloop
  endfacet
  facet normal 0.91354 0.406748 0
    outer loop
      vertex 11.3594 12.355 89.51
      vertex 10.5983 14.0644 5.4
      vertex 10.5983 14.0644 89.51
    endloop
  endfacet
  facet normal 0.91354 0.406748 0
    outer loop
      vertex 10.5983 14.0644 5.4
      vertex 11.3594 12.355 89.51
      vertex 11.3594 12.355 5.4
    endloop
  endfacet
  facet normal 0.913599 0.406616 0
    outer loop
      vertex 11.3594 12.355 0.473443
      vertex 11.3594 12.355 0
      vertex 11.2962 12.497 0
    endloop
  endfacet
  facet normal 0.91354 0.406749 0
    outer loop
      vertex 10.5983 14.0644 5.2
      vertex 11 13.1622 5.19
      vertex 10.5983 14.0644 5.19
    endloop
  endfacet
  facet normal 0.91354 0.406748 8.33698e-05
    outer loop
      vertex 11.3594 12.355 5.2
      vertex 11 13.1622 5.19
      vertex 10.5983 14.0644 5.2
    endloop
  endfacet
  facet normal 0.913541 0.406747 0
    outer loop
      vertex 11 13.1622 5.19
      vertex 11.3594 12.355 5.2
      vertex 11.3594 12.355 5.19
    endloop
  endfacet
  facet normal -0.104476 -0.994527 0
    outer loop
      vertex 14.5296 19.4753 5.4
      vertex 16.3906 19.2798 89.51
      vertex 14.5296 19.4753 89.51
    endloop
  endfacet
  facet normal -0.104476 -0.994527 -0
    outer loop
      vertex 16.3906 19.2798 89.51
      vertex 14.5296 19.4753 5.4
      vertex 16.3906 19.2798 5.4
    endloop
  endfacet
  facet normal -0.104476 -0.994527 0
    outer loop
      vertex 14.5296 19.4753 5.19
      vertex 16.3906 19.2798 5.2
      vertex 14.5296 19.4753 5.2
    endloop
  endfacet
  facet normal -0.104476 -0.994527 -0
    outer loop
      vertex 16.3906 19.2798 5.2
      vertex 14.5296 19.4753 5.19
      vertex 16.3906 19.2798 5.19
    endloop
  endfacet
  facet normal -0.978152 -0.20789 0
    outer loop
      vertex 19.5 15 5.4
      vertex 19.111 16.8303 89.51
      vertex 19.111 16.8303 5.4
    endloop
  endfacet
  facet normal -0.978152 -0.20789 0
    outer loop
      vertex 19.111 16.8303 89.51
      vertex 19.5 15 5.4
      vertex 19.5 15 89.51
    endloop
  endfacet
  facet normal -0.978152 -0.20789 0
    outer loop
      vertex 19.5 15 5.19
      vertex 19.111 16.8303 5.2
      vertex 19.111 16.8303 5.19
    endloop
  endfacet
  facet normal -0.978152 -0.20789 0
    outer loop
      vertex 19.111 16.8303 5.2
      vertex 19.5 15 5.19
      vertex 19.5 15 5.2
    endloop
  endfacet
  facet normal 1 -0 0
    outer loop
      vertex 10.5983 14.0644 89.51
      vertex 10.5983 15.9356 5.4
      vertex 10.5983 15.9356 89.51
    endloop
  endfacet
  facet normal 1 0 0
    outer loop
      vertex 10.5983 15.9356 5.4
      vertex 10.5983 14.0644 89.51
      vertex 10.5983 14.0644 5.4
    endloop
  endfacet
  facet normal 1 -0 0
    outer loop
      vertex 10.5983 14.0644 5.2
      vertex 10.5983 15.9356 5.19
      vertex 10.5983 15.9356 5.2
    endloop
  endfacet
  facet normal 1 0 0
    outer loop
      vertex 10.5983 15.9356 5.19
      vertex 10.5983 14.0644 5.2
      vertex 10.5983 14.0644 5.19
    endloop
  endfacet
  facet normal 0.66913 -0.743145 0
    outer loop
      vertex 11.3594 17.645 5.4
      vertex 12.75 18.8971 89.51
      vertex 11.3594 17.645 89.51
    endloop
  endfacet
  facet normal 0.66913 -0.743145 0
    outer loop
      vertex 12.75 18.8971 89.51
      vertex 11.3594 17.645 5.4
      vertex 12.75 18.8971 5.4
    endloop
  endfacet
  facet normal 0.669131 -0.743145 0
    outer loop
      vertex 12.497 18.6693 0
      vertex 11.3594 17.645 0.473446
      vertex 11.3594 17.645 0
    endloop
  endfacet
  facet normal 0.669129 -0.743147 -9.06735e-06
    outer loop
      vertex 11.3594 17.645 0.473446
      vertex 12.497 18.6693 0
      vertex 11.8833 18.1167 2.04573
    endloop
  endfacet
  facet normal 0.66913 -0.743145 0
    outer loop
      vertex 11.3594 17.645 5.19
      vertex 12.75 18.8971 5.2
      vertex 11.3594 17.645 5.2
    endloop
  endfacet
  facet normal 0.66913 -0.743145 0
    outer loop
      vertex 12.75 18.8971 5.2
      vertex 11.3594 17.645 5.19
      vertex 12.75 18.8971 5.19
    endloop
  endfacet
  facet normal -0.978152 0.20789 0
    outer loop
      vertex 19.111 13.1697 5.4
      vertex 19.5 15 89.51
      vertex 19.5 15 5.4
    endloop
  endfacet
  facet normal -0.978152 0.20789 0
    outer loop
      vertex 19.5 15 89.51
      vertex 19.111 13.1697 5.4
      vertex 19.111 13.1697 89.51
    endloop
  endfacet
  facet normal -0.978152 0.20789 0
    outer loop
      vertex 19.111 13.1697 5.19
      vertex 19.5 15 5.2
      vertex 19.5 15 5.19
    endloop
  endfacet
  facet normal -0.978152 0.20789 0
    outer loop
      vertex 19.5 15 5.2
      vertex 19.111 13.1697 5.19
      vertex 19.111 13.1697 5.2
    endloop
  endfacet
  facet normal 0.91354 -0.406748 0
    outer loop
      vertex 10.5983 15.9356 89.51
      vertex 11.3594 17.645 5.4
      vertex 11.3594 17.645 89.51
    endloop
  endfacet
  facet normal 0.91354 -0.406748 0
    outer loop
      vertex 11.3594 17.645 5.4
      vertex 10.5983 15.9356 89.51
      vertex 10.5983 15.9356 5.4
    endloop
  endfacet
  facet normal 0.913599 -0.406616 0
    outer loop
      vertex 11.3594 17.645 0
      vertex 11.3594 17.645 0.473446
      vertex 11.2962 17.503 0
    endloop
  endfacet
  facet normal 0.913541 -0.406747 0
    outer loop
      vertex 11.3594 17.645 5.2
      vertex 11 16.8378 5.19
      vertex 11.3594 17.645 5.19
    endloop
  endfacet
  facet normal 0.91354 -0.406748 8.33698e-05
    outer loop
      vertex 10.5983 15.9356 5.2
      vertex 11 16.8378 5.19
      vertex 11.3594 17.645 5.2
    endloop
  endfacet
  facet normal 0.91354 -0.406749 0
    outer loop
      vertex 11 16.8378 5.19
      vertex 10.5983 15.9356 5.2
      vertex 10.5983 15.9356 5.19
    endloop
  endfacet
  facet normal 0.309004 -0.951061 0
    outer loop
      vertex 12.75 18.8971 5.4
      vertex 14.5296 19.4753 89.51
      vertex 12.75 18.8971 89.51
    endloop
  endfacet
  facet normal 0.309004 -0.951061 0
    outer loop
      vertex 14.5296 19.4753 89.51
      vertex 12.75 18.8971 5.4
      vertex 14.5296 19.4753 5.4
    endloop
  endfacet
  facet normal 0.309004 -0.951061 0
    outer loop
      vertex 12.75 18.8971 5.19
      vertex 14.5296 19.4753 5.2
      vertex 12.75 18.8971 5.2
    endloop
  endfacet
  facet normal 0.309004 -0.951061 0
    outer loop
      vertex 14.5296 19.4753 5.2
      vertex 12.75 18.8971 5.19
      vertex 14.5296 19.4753 5.19
    endloop
  endfacet
  facet normal -0.80902 -0.587781 0
    outer loop
      vertex 19.111 16.8303 5.4
      vertex 18.0111 18.3442 89.51
      vertex 18.0111 18.3442 5.4
    endloop
  endfacet
  facet normal -0.80902 -0.587781 0
    outer loop
      vertex 18.0111 18.3442 89.51
      vertex 19.111 16.8303 5.4
      vertex 19.111 16.8303 89.51
    endloop
  endfacet
  facet normal -0.809048 -0.587743 0
    outer loop
      vertex 18.6222 17.503 0
      vertex 18.0111 18.3442 1.69362
      vertex 18.0111 18.3442 0
    endloop
  endfacet
  facet normal -0.809145 -0.587609 -0.000101364
    outer loop
      vertex 18.0111 18.3442 1.69362
      vertex 18.6222 17.503 0
      vertex 18.1512 18.1512 2.16081
    endloop
  endfacet
  facet normal -0.809037 -0.587758 0
    outer loop
      vertex 19 16.983 5.19
      vertex 18.0111 18.3442 5.2
      vertex 18.0111 18.3442 5.19
    endloop
  endfacet
  facet normal -0.808874 -0.587983 -0
    outer loop
      vertex 19.111 16.8303 5.2
      vertex 19 16.983 5.19
      vertex 19.111 16.8303 5.19
    endloop
  endfacet
  facet normal -0.809011 -0.587774 0.00471171
    outer loop
      vertex 19 16.983 5.19
      vertex 19.111 16.8303 5.2
      vertex 18.0111 18.3442 5.2
    endloop
  endfacet
  facet normal 0.309004 0.951061 -0
    outer loop
      vertex 14.5296 10.5247 5.4
      vertex 12.75 11.1029 89.51
      vertex 14.5296 10.5247 89.51
    endloop
  endfacet
  facet normal 0.309004 0.951061 -0
    outer loop
      vertex 12.75 11.1029 5.4
      vertex 12.75 11.1029 89.51
      vertex 14.5296 10.5247 5.4
    endloop
  endfacet
  facet normal 0.309004 0.951061 -0
    outer loop
      vertex 14.5296 10.5247 5.19
      vertex 12.75 11.1029 5.2
      vertex 14.5296 10.5247 5.2
    endloop
  endfacet
  facet normal 0.309004 0.951061 0
    outer loop
      vertex 12.75 11.1029 5.2
      vertex 14.5296 10.5247 5.19
      vertex 12.75 11.1029 5.19
    endloop
  endfacet
  facet normal 0.66913 0.743145 -0
    outer loop
      vertex 12.75 11.1029 5.4
      vertex 11.3594 12.355 89.51
      vertex 12.75 11.1029 89.51
    endloop
  endfacet
  facet normal 0.66913 0.743145 0
    outer loop
      vertex 11.3594 12.355 89.51
      vertex 12.75 11.1029 5.4
      vertex 11.3594 12.355 5.4
    endloop
  endfacet
  facet normal 0.669129 0.743147 -9.06734e-06
    outer loop
      vertex 12.497 11.3307 0
      vertex 11.3594 12.355 0.473443
      vertex 11.8833 11.8833 2.04573
    endloop
  endfacet
  facet normal 0.669131 0.743145 0
    outer loop
      vertex 11.3594 12.355 0.473443
      vertex 12.497 11.3307 0
      vertex 11.3594 12.355 0
    endloop
  endfacet
  facet normal 0.66913 0.743145 -0
    outer loop
      vertex 12.75 11.1029 5.19
      vertex 11.3594 12.355 5.2
      vertex 12.75 11.1029 5.2
    endloop
  endfacet
  facet normal 0.66913 0.743145 0
    outer loop
      vertex 11.3594 12.355 5.2
      vertex 12.75 11.1029 5.19
      vertex 11.3594 12.355 5.19
    endloop
  endfacet
  facet normal -0.500002 -0.866025 0
    outer loop
      vertex 16.3906 19.2798 5.4
      vertex 18.0111 18.3442 89.51
      vertex 16.3906 19.2798 89.51
    endloop
  endfacet
  facet normal -0.500002 -0.866025 -0
    outer loop
      vertex 18.0111 18.3442 89.51
      vertex 16.3906 19.2798 5.4
      vertex 18.0111 18.3442 5.4
    endloop
  endfacet
  facet normal -0.499934 -0.866064 0
    outer loop
      vertex 18.0111 18.3442 0
      vertex 18.0111 18.3442 1.69362
      vertex 17.503 18.6375 0
    endloop
  endfacet
  facet normal -0.500002 -0.866025 0
    outer loop
      vertex 16.3906 19.2798 5.19
      vertex 18.0111 18.3442 5.2
      vertex 16.3906 19.2798 5.2
    endloop
  endfacet
  facet normal -0.500002 -0.866025 -0
    outer loop
      vertex 18.0111 18.3442 5.2
      vertex 16.3906 19.2798 5.19
      vertex 18.0111 18.3442 5.19
    endloop
  endfacet
  facet normal -0.500002 0.866025 0
    outer loop
      vertex 18.0111 11.6558 5.4
      vertex 16.3906 10.7202 89.51
      vertex 18.0111 11.6558 89.51
    endloop
  endfacet
  facet normal -0.500002 0.866025 0
    outer loop
      vertex 16.3906 10.7202 89.51
      vertex 18.0111 11.6558 5.4
      vertex 16.3906 10.7202 5.4
    endloop
  endfacet
  facet normal -0.499934 0.866064 0
    outer loop
      vertex 18.0111 11.6558 1.69362
      vertex 18.0111 11.6558 0
      vertex 17.503 11.3625 0
    endloop
  endfacet
  facet normal -0.500002 0.866025 0
    outer loop
      vertex 18.0111 11.6558 5.19
      vertex 16.3906 10.7202 5.2
      vertex 18.0111 11.6558 5.2
    endloop
  endfacet
  facet normal -0.500002 0.866025 0
    outer loop
      vertex 16.3906 10.7202 5.2
      vertex 18.0111 11.6558 5.19
      vertex 16.3906 10.7202 5.19
    endloop
  endfacet
  facet normal -0.80902 0.587781 0
    outer loop
      vertex 18.0111 11.6558 5.4
      vertex 19.111 13.1697 89.51
      vertex 19.111 13.1697 5.4
    endloop
  endfacet
  facet normal -0.80902 0.587781 0
    outer loop
      vertex 19.111 13.1697 89.51
      vertex 18.0111 11.6558 5.4
      vertex 18.0111 11.6558 89.51
    endloop
  endfacet
  facet normal -0.809048 0.587743 0
    outer loop
      vertex 18.0111 11.6558 1.69362
      vertex 18.6222 12.497 0
      vertex 18.0111 11.6558 0
    endloop
  endfacet
  facet normal -0.809145 0.587609 -0.000101364
    outer loop
      vertex 18.6222 12.497 0
      vertex 18.0111 11.6558 1.69362
      vertex 18.1512 11.8488 2.16081
    endloop
  endfacet
  facet normal -0.808874 0.587983 0
    outer loop
      vertex 19 13.017 5.19
      vertex 19.111 13.1697 5.2
      vertex 19.111 13.1697 5.19
    endloop
  endfacet
  facet normal -0.809037 0.587758 0
    outer loop
      vertex 18.0111 11.6558 5.2
      vertex 19 13.017 5.19
      vertex 18.0111 11.6558 5.19
    endloop
  endfacet
  facet normal -0.809011 0.587774 0.00471171
    outer loop
      vertex 19 13.017 5.19
      vertex 18.0111 11.6558 5.2
      vertex 19.111 13.1697 5.2
    endloop
  endfacet
  facet normal -0.104476 0.994527 0
    outer loop
      vertex 16.3906 10.7202 5.4
      vertex 14.5296 10.5247 89.51
      vertex 16.3906 10.7202 89.51
    endloop
  endfacet
  facet normal -0.104476 0.994527 0
    outer loop
      vertex 14.5296 10.5247 89.51
      vertex 16.3906 10.7202 5.4
      vertex 14.5296 10.5247 5.4
    endloop
  endfacet
  facet normal -0.104476 0.994527 0
    outer loop
      vertex 16.3906 10.7202 5.19
      vertex 14.5296 10.5247 5.2
      vertex 16.3906 10.7202 5.2
    endloop
  endfacet
  facet normal -0.104476 0.994527 0
    outer loop
      vertex 14.5296 10.5247 5.2
      vertex 16.3906 10.7202 5.19
      vertex 14.5296 10.5247 5.19
    endloop
  endfacet
  facet normal -0.699254 0.148622 0.699254
    outer loop
      vertex 19.5664 13.007 90
      vertex 19.99 15 90
      vertex 19.5 15 89.51
    endloop
  endfacet
  facet normal 0.653054 -0.290776 0.699263
    outer loop
      vertex 10.5983 15.9356 89.51
      vertex 10.9478 17.8989 90
      vertex 10.119 16.0375 90
    endloop
  endfacet
  facet normal -0.0747241 0.710896 0.699316
    outer loop
      vertex 16.5048 10.2503 90
      vertex 14.5296 10.5247 89.51
      vertex 14.4784 10.0373 90
    endloop
  endfacet
  facet normal -0.578475 0.420014 0.699253
    outer loop
      vertex 19.111 13.1697 89.51
      vertex 19.5366 12.9401 90
      vertex 19.5586 12.9704 90
    endloop
  endfacet
  facet normal -0.578359 0.420198 0.699239
    outer loop
      vertex 19.5366 12.9401 90
      vertex 19.111 13.1697 89.51
      vertex 18.0111 11.6558 89.51
    endloop
  endfacet
  facet normal -0.699254 -0.148622 0.699254
    outer loop
      vertex 19.99 15 90
      vertex 19.5664 16.993 90
      vertex 19.5 15 89.51
    endloop
  endfacet
  facet normal 0.478327 0.531236 0.699279
    outer loop
      vertex 11.3594 12.355 89.51
      vertex 12.505 10.6785 90
      vertex 12.75 11.1029 89.51
    endloop
  endfacet
  facet normal 0.478369 0.531253 0.699238
    outer loop
      vertex 12.505 10.6785 90
      vertex 11.3594 12.355 89.51
      vertex 10.963 12.067 90
    endloop
  endfacet
  facet normal -0.0746898 -0.710986 0.699228
    outer loop
      vertex 16.3906 19.2798 89.51
      vertex 16.5048 19.7497 90
      vertex 14.5296 19.4753 89.51
    endloop
  endfacet
  facet normal -0.0745415 -0.711012 0.699218
    outer loop
      vertex 16.5048 19.7497 90
      vertex 16.3906 19.2798 89.51
      vertex 16.542 19.7458 90
    endloop
  endfacet
  facet normal -0.357447 -0.619112 0.699236
    outer loop
      vertex 18.0111 18.3442 89.51
      vertex 18.339 18.7083 90
      vertex 16.5744 19.7271 90
    endloop
  endfacet
  facet normal -0.699269 0.148618 0.699239
    outer loop
      vertex 19.111 13.1697 89.51
      vertex 19.5664 13.007 90
      vertex 19.5 15 89.51
    endloop
  endfacet
  facet normal -0.699161 0.149001 0.699266
    outer loop
      vertex 19.5664 13.007 90
      vertex 19.111 13.1697 89.51
      vertex 19.5586 12.9704 90
    endloop
  endfacet
  facet normal 0.220903 0.679903 0.699238
    outer loop
      vertex 12.75 11.1029 89.51
      vertex 12.5406 10.667 90
      vertex 14.5296 10.5247 89.51
    endloop
  endfacet
  facet normal 0.219777 0.680352 0.699156
    outer loop
      vertex 12.5406 10.667 90
      vertex 12.75 11.1029 89.51
      vertex 12.505 10.6785 90
    endloop
  endfacet
  facet normal 0.714869 0 0.699259
    outer loop
      vertex 10.119 16.0375 90
      vertex 10.5983 14.0644 89.51
      vertex 10.5983 15.9356 89.51
    endloop
  endfacet
  facet normal 0.714869 0 0.699259
    outer loop
      vertex 10.5983 14.0644 89.51
      vertex 10.119 16.0375 90
      vertex 10.119 13.9625 90
    endloop
  endfacet
  facet normal 0.478329 -0.531235 0.699279
    outer loop
      vertex 12.75 18.8971 89.51
      vertex 12.505 19.3215 90
      vertex 10.9908 17.9581 90
    endloop
  endfacet
  facet normal 0.653293 -0.290353 0.699216
    outer loop
      vertex 10.9478 17.8989 90
      vertex 11.3594 17.645 89.51
      vertex 10.963 17.9331 90
    endloop
  endfacet
  facet normal 0.65307 -0.290776 0.699248
    outer loop
      vertex 11.3594 17.645 89.51
      vertex 10.9478 17.8989 90
      vertex 10.5983 15.9356 89.51
    endloop
  endfacet
  facet normal 0.47833 -0.531241 0.699274
    outer loop
      vertex 10.9908 17.9581 90
      vertex 11.3594 17.645 89.51
      vertex 12.75 18.8971 89.51
    endloop
  endfacet
  facet normal 0.47802 -0.531559 0.699244
    outer loop
      vertex 11.3594 17.645 89.51
      vertex 10.9908 17.9581 90
      vertex 10.963 17.9331 90
    endloop
  endfacet
  facet normal -0.0747241 -0.710896 0.699316
    outer loop
      vertex 14.5296 19.4753 89.51
      vertex 16.5048 19.7497 90
      vertex 14.4784 19.9627 90
    endloop
  endfacet
  facet normal -0.357353 -0.619157 0.699245
    outer loop
      vertex 16.3906 19.2798 89.51
      vertex 16.5744 19.7271 90
      vertex 16.542 19.7458 90
    endloop
  endfacet
  facet normal -0.357445 -0.619111 0.699238
    outer loop
      vertex 16.5744 19.7271 90
      vertex 16.3906 19.2798 89.51
      vertex 18.0111 18.3442 89.51
    endloop
  endfacet
  facet normal 0.220915 0.67983 0.699306
    outer loop
      vertex 14.4784 10.0373 90
      vertex 14.5296 10.5247 89.51
      vertex 12.5406 10.667 90
    endloop
  endfacet
  facet normal -0.357445 0.619111 0.699238
    outer loop
      vertex 16.3906 10.7202 89.51
      vertex 16.5744 10.2729 90
      vertex 18.0111 11.6558 89.51
    endloop
  endfacet
  facet normal -0.357353 0.619157 0.699245
    outer loop
      vertex 16.5744 10.2729 90
      vertex 16.3906 10.7202 89.51
      vertex 16.542 10.2542 90
    endloop
  endfacet
  facet normal -0.0745415 0.711012 0.699218
    outer loop
      vertex 16.3906 10.7202 89.51
      vertex 16.5048 10.2503 90
      vertex 16.542 10.2542 90
    endloop
  endfacet
  facet normal -0.0746898 0.710986 0.699228
    outer loop
      vertex 16.5048 10.2503 90
      vertex 16.3906 10.7202 89.51
      vertex 14.5296 10.5247 89.51
    endloop
  endfacet
  facet normal -0.357447 0.619112 0.699236
    outer loop
      vertex 18.339 11.2917 90
      vertex 18.0111 11.6558 89.51
      vertex 16.5744 10.2729 90
    endloop
  endfacet
  facet normal -0.578354 0.420187 0.69925
    outer loop
      vertex 18.339 11.2917 90
      vertex 19.5366 12.9401 90
      vertex 18.0111 11.6558 89.51
    endloop
  endfacet
  facet normal 0.65293 0.291042 0.699269
    outer loop
      vertex 11.3594 12.355 89.51
      vertex 10.9478 12.1011 90
      vertex 10.963 12.067 90
    endloop
  endfacet
  facet normal 0.65307 0.290776 0.699248
    outer loop
      vertex 10.9478 12.1011 90
      vertex 11.3594 12.355 89.51
      vertex 10.5983 14.0644 89.51
    endloop
  endfacet
  facet normal 0.653054 0.290776 0.699263
    outer loop
      vertex 10.9478 12.1011 90
      vertex 10.5983 14.0644 89.51
      vertex 10.119 13.9625 90
    endloop
  endfacet
  facet normal 0.220903 -0.679903 0.699238
    outer loop
      vertex 12.5406 19.333 90
      vertex 12.75 18.8971 89.51
      vertex 14.5296 19.4753 89.51
    endloop
  endfacet
  facet normal 0.219777 -0.680352 0.699156
    outer loop
      vertex 12.75 18.8971 89.51
      vertex 12.5406 19.333 90
      vertex 12.505 19.3215 90
    endloop
  endfacet
  facet normal 0.220915 -0.67983 0.699306
    outer loop
      vertex 14.5296 19.4753 89.51
      vertex 14.4784 19.9627 90
      vertex 12.5406 19.333 90
    endloop
  endfacet
  facet normal -0.578354 -0.420187 0.69925
    outer loop
      vertex 19.5366 17.0599 90
      vertex 18.339 18.7083 90
      vertex 18.0111 18.3442 89.51
    endloop
  endfacet
  facet normal -0.578475 -0.420014 0.699253
    outer loop
      vertex 19.5366 17.0599 90
      vertex 19.111 16.8303 89.51
      vertex 19.5586 17.0296 90
    endloop
  endfacet
  facet normal -0.578359 -0.420198 0.699239
    outer loop
      vertex 19.111 16.8303 89.51
      vertex 19.5366 17.0599 90
      vertex 18.0111 18.3442 89.51
    endloop
  endfacet
  facet normal -0.699161 -0.149001 0.699266
    outer loop
      vertex 19.111 16.8303 89.51
      vertex 19.5664 16.993 90
      vertex 19.5586 17.0296 90
    endloop
  endfacet
  facet normal -0.699269 -0.148618 0.699239
    outer loop
      vertex 19.5664 16.993 90
      vertex 19.111 16.8303 89.51
      vertex 19.5 15 89.51
    endloop
  endfacet
  facet normal 0 0 1
    outer loop
      vertex 12.5 30 90
      vertex 3.53977 30 90
      vertex 11 25 90
    endloop
  endfacet
  facet normal 0 0 1
    outer loop
      vertex 26.4602 30 90
      vertex 17.5 30 90
      vertex 19 25 90
    endloop
  endfacet
  facet normal -0 0 1
    outer loop
      vertex 19 25 90
      vertex 18.5334 22.0732 90
      vertex 26.4602 30 90
    endloop
  endfacet
  facet normal 0 0 1
    outer loop
      vertex 18.5334 22.0732 90
      vertex 16.5744 19.7271 90
      vertex 18.339 18.7083 90
    endloop
  endfacet
  facet normal 0 0 1
    outer loop
      vertex 11.4666 22.0732 90
      vertex 18.5334 22.0732 90
      vertex 19 25 90
    endloop
  endfacet
  facet normal 0 0 1
    outer loop
      vertex 18.5334 22.0732 90
      vertex 16.542 19.7458 90
      vertex 16.5744 19.7271 90
    endloop
  endfacet
  facet normal 0 0 1
    outer loop
      vertex 18.5334 22.0732 90
      vertex 16.5048 19.7497 90
      vertex 16.542 19.7458 90
    endloop
  endfacet
  facet normal 0 0 1
    outer loop
      vertex 18.5334 22.0732 90
      vertex 14.4784 19.9627 90
      vertex 16.5048 19.7497 90
    endloop
  endfacet
  facet normal 0 0 1
    outer loop
      vertex 18.5334 22.0732 90
      vertex 11.4666 22.0732 90
      vertex 14.4784 19.9627 90
    endloop
  endfacet
  facet normal 0 0 1
    outer loop
      vertex 14.4784 19.9627 90
      vertex 11.4666 22.0732 90
      vertex 12.5406 19.333 90
    endloop
  endfacet
  facet normal -0 0 1
    outer loop
      vertex 11.4553 22.0619 90
      vertex 12.5406 19.333 90
      vertex 11.4666 22.0732 90
    endloop
  endfacet
  facet normal -0 0 1
    outer loop
      vertex 11 25 90
      vertex 11.4666 22.0732 90
      vertex 19 25 90
    endloop
  endfacet
  facet normal 0 0 1
    outer loop
      vertex 11.4666 22.0732 90
      vertex 11 25 90
      vertex 3.53977 30 90
    endloop
  endfacet
  facet normal 0 0 1
    outer loop
      vertex 22.0732 18.5334 90
      vertex 19.5664 16.993 90
      vertex 19.99 15 90
    endloop
  endfacet
  facet normal 0 0 1
    outer loop
      vertex 22.0732 18.5334 90
      vertex 19.5586 17.0296 90
      vertex 19.5664 16.993 90
    endloop
  endfacet
  facet normal 0 0 1
    outer loop
      vertex 22.0619 18.5447 90
      vertex 19.5366 17.0599 90
      vertex 19.5586 17.0296 90
    endloop
  endfacet
  facet normal -0 0 1
    outer loop
      vertex 18.339 18.7083 90
      vertex 22.0619 18.5447 90
      vertex 18.5334 22.0732 90
    endloop
  endfacet
  facet normal 0 0 1
    outer loop
      vertex 22.0619 18.5447 90
      vertex 18.339 18.7083 90
      vertex 19.5366 17.0599 90
    endloop
  endfacet
  facet normal 0 0 1
    outer loop
      vertex 30 26.4602 90
      vertex 25 19 90
      vertex 30 17.5 90
    endloop
  endfacet
  facet normal 0 0 1
    outer loop
      vertex 25 19 90
      vertex 22.0732 18.5334 90
      vertex 25 11 90
    endloop
  endfacet
  facet normal 0 0 1
    outer loop
      vertex 22.0732 18.5334 90
      vertex 25 19 90
      vertex 30 26.4602 90
    endloop
  endfacet
  facet normal -0 0 1
    outer loop
      vertex 25 11 90
      vertex 30 3.53978 90
      vertex 30 12.5 90
    endloop
  endfacet
  facet normal 0 0 1
    outer loop
      vertex 25 11 90
      vertex 22.0732 11.4666 90
      vertex 30 3.53978 90
    endloop
  endfacet
  facet normal 0 0 1
    outer loop
      vertex 22.0732 18.5334 90
      vertex 22.0732 11.4666 90
      vertex 25 11 90
    endloop
  endfacet
  facet normal 0 0 1
    outer loop
      vertex 19.5586 17.0296 90
      vertex 22.0732 18.5334 90
      vertex 22.0619 18.5447 90
    endloop
  endfacet
  facet normal 0 0 1
    outer loop
      vertex 22.0732 18.5334 90
      vertex 19.99 15 90
      vertex 22.0732 11.4666 90
    endloop
  endfacet
  facet normal -0 0 1
    outer loop
      vertex 19.5664 13.007 90
      vertex 22.0732 11.4666 90
      vertex 19.99 15 90
    endloop
  endfacet
  facet normal -0 0 1
    outer loop
      vertex 19.5586 12.9704 90
      vertex 22.0732 11.4666 90
      vertex 19.5664 13.007 90
    endloop
  endfacet
  facet normal -0 0 1
    outer loop
      vertex 19.5366 12.9401 90
      vertex 22.0732 11.4666 90
      vertex 19.5586 12.9704 90
    endloop
  endfacet
  facet normal 0 0 1
    outer loop
      vertex 18.339 11.2917 90
      vertex 22.0732 11.4666 90
      vertex 19.5366 12.9401 90
    endloop
  endfacet
  facet normal 0 0 1
    outer loop
      vertex 22.0732 11.4666 90
      vertex 18.339 11.2917 90
      vertex 18.5334 7.92681 90
    endloop
  endfacet
  facet normal 0 0 1
    outer loop
      vertex 18.5334 7.92681 90
      vertex 19 5 90
      vertex 26.4602 2.66454e-14 90
    endloop
  endfacet
  facet normal 0 0 1
    outer loop
      vertex 18.5334 7.92681 90
      vertex 18.9344 5 90
      vertex 19 5 90
    endloop
  endfacet
  facet normal -0 0 1
    outer loop
      vertex 16.5744 10.2729 90
      vertex 18.5334 7.92681 90
      vertex 18.339 11.2917 90
    endloop
  endfacet
  facet normal -0 0 1
    outer loop
      vertex 16.542 10.2542 90
      vertex 18.5334 7.92681 90
      vertex 16.5744 10.2729 90
    endloop
  endfacet
  facet normal -0 0 1
    outer loop
      vertex 16.5048 10.2503 90
      vertex 18.5334 7.92681 90
      vertex 16.542 10.2542 90
    endloop
  endfacet
  facet normal -0 0 1
    outer loop
      vertex 14.4784 10.0373 90
      vertex 18.5334 7.92681 90
      vertex 16.5048 10.2503 90
    endloop
  endfacet
  facet normal 0 0 1
    outer loop
      vertex 11.4666 7.92681 90
      vertex 18.5334 7.92681 90
      vertex 14.4784 10.0373 90
    endloop
  endfacet
  facet normal 0 0 1
    outer loop
      vertex 11.4666 7.92681 90
      vertex 14.4784 10.0373 90
      vertex 12.5406 10.667 90
    endloop
  endfacet
  facet normal 0 0 1
    outer loop
      vertex 11.4553 7.93812 90
      vertex 12.5406 10.667 90
      vertex 12.505 10.6785 90
    endloop
  endfacet
  facet normal 0 0 1
    outer loop
      vertex 18.5334 7.92681 90
      vertex 11.4666 7.92681 90
      vertex 18.9344 5 90
    endloop
  endfacet
  facet normal 0 0 1
    outer loop
      vertex 11.4666 7.92681 90
      vertex 11 5 90
      vertex 18.9344 5 90
    endloop
  endfacet
  facet normal 0 -0 1
    outer loop
      vertex 11 5 90
      vertex 11.4666 7.92681 90
      vertex 3.53978 2.66454e-14 90
    endloop
  endfacet
  facet normal 0 0 1
    outer loop
      vertex 26.4602 2.66454e-14 90
      vertex 19 5 90
      vertex 17.5 2.66454e-14 90
    endloop
  endfacet
  facet normal 0 0 1
    outer loop
      vertex 12.5406 10.667 90
      vertex 11.4553 7.93812 90
      vertex 11.4666 7.92681 90
    endloop
  endfacet
  facet normal 0 0 1
    outer loop
      vertex 10.963 12.067 90
      vertex 11.4553 7.93812 90
      vertex 12.505 10.6785 90
    endloop
  endfacet
  facet normal 0 0 1
    outer loop
      vertex 7.92681 11.4666 90
      vertex 10.963 12.067 90
      vertex 10.9478 12.1011 90
    endloop
  endfacet
  facet normal 0 0 1
    outer loop
      vertex 7.92681 11.4666 90
      vertex 10.9478 12.1011 90
      vertex 10.119 13.9625 90
    endloop
  endfacet
  facet normal 0 0 1
    outer loop
      vertex 10.963 12.067 90
      vertex 7.92681 11.4666 90
      vertex 11.4553 7.93812 90
    endloop
  endfacet
  facet normal 0 0 1
    outer loop
      vertex 12.5406 19.333 90
      vertex 11.4553 22.0619 90
      vertex 12.505 19.3215 90
    endloop
  endfacet
  facet normal 0 0 1
    outer loop
      vertex 11.4553 22.0619 90
      vertex 10.9908 17.9581 90
      vertex 12.505 19.3215 90
    endloop
  endfacet
  facet normal -0 0 1
    outer loop
      vertex 7.92681 18.5334 90
      vertex 10.9908 17.9581 90
      vertex 11.4553 22.0619 90
    endloop
  endfacet
  facet normal 0 0 1
    outer loop
      vertex 10.9908 17.9581 90
      vertex 7.92681 18.5334 90
      vertex 10.963 17.9331 90
    endloop
  endfacet
  facet normal 0 0 1
    outer loop
      vertex 10.963 17.9331 90
      vertex 7.92681 18.5334 90
      vertex 10.9478 17.8989 90
    endloop
  endfacet
  facet normal 0 0 1
    outer loop
      vertex 10.119 16.0375 90
      vertex 7.92681 11.4666 90
      vertex 10.119 13.9625 90
    endloop
  endfacet
  facet normal 0 0 1
    outer loop
      vertex 10.9478 17.8989 90
      vertex 7.92681 18.5334 90
      vertex 10.119 16.0375 90
    endloop
  endfacet
  facet normal 0 0 1
    outer loop
      vertex 10.119 16.0375 90
      vertex 7.92681 18.5334 90
      vertex 7.92681 11.4666 90
    endloop
  endfacet
  facet normal 0 0 1
    outer loop
      vertex 5 19 90
      vertex 7.92681 11.4666 90
      vertex 7.92681 18.5334 90
    endloop
  endfacet
  facet normal 0 0 1
    outer loop
      vertex 5 11 90
      vertex 7.92681 11.4666 90
      vertex 5 19 90
    endloop
  endfacet
  facet normal -0 0 1
    outer loop
      vertex 5 11 90
      vertex 0 3.53977 90
      vertex 7.92681 11.4666 90
    endloop
  endfacet
  facet normal 0 0 1
    outer loop
      vertex 0 3.53977 90
      vertex 5 11 90
      vertex 0 12.5 90
    endloop
  endfacet
  facet normal 0 0 1
    outer loop
      vertex 12.5 2.66454e-14 90
      vertex 11 5 90
      vertex 3.53978 2.66454e-14 90
    endloop
  endfacet
  facet normal 0 0 1
    outer loop
      vertex 0 26.4602 90
      vertex 5 19 90
      vertex 7.92681 18.5334 90
    endloop
  endfacet
  facet normal 0 0 1
    outer loop
      vertex 5 19 90
      vertex 0 26.4602 90
      vertex 0 17.5 90
    endloop
  endfacet
  facet normal 0 0 -1
    outer loop
      vertex 5 19 0
      vertex 12.497 18.6693 0
      vertex 11.3594 17.645 0
    endloop
  endfacet
  facet normal 0 0 -1
    outer loop
      vertex 5 19 0
      vertex 11.3594 17.645 0
      vertex 11.2962 17.503 0
    endloop
  endfacet
  facet normal 0 0 -1
    outer loop
      vertex 5 19 0
      vertex 11.2962 17.503 0
      vertex 5 17.503 0
    endloop
  endfacet
  facet normal 0 0 -1
    outer loop
      vertex 12.497 18.6693 0
      vertex 5 19 0
      vertex 12.497 70 0
    endloop
  endfacet
  facet normal 0 0 -1
    outer loop
      vertex 5.53557e-16 17.503 0
      vertex 5 19 0
      vertex 0.01 17.503 0
    endloop
  endfacet
  facet normal -0 0 -1
    outer loop
      vertex 5 19 0
      vertex 5.53557e-16 17.503 0
      vertex 0 70 0
    endloop
  endfacet
  facet normal 0 0 -1
    outer loop
      vertex 0 17.5 0
      vertex 5.53557e-16 17.503 0
      vertex 5.52891e-16 17.5 0
    endloop
  endfacet
  facet normal 0 0 -1
    outer loop
      vertex 5 19 0
      vertex 0 70 0
      vertex 12.497 70 0
    endloop
  endfacet
  facet normal 0 0 -1
    outer loop
      vertex 0 70 0
      vertex 5.53557e-16 17.503 0
      vertex 0 17.5 0
    endloop
  endfacet
  facet normal 0 0 -1
    outer loop
      vertex 0 6.66134e-15 0
      vertex 12.497 0.01 0
      vertex 12.497 6.66134e-15 0
    endloop
  endfacet
  facet normal -0 0 -1
    outer loop
      vertex 12.497 0.01 0
      vertex 0 6.66134e-15 0
      vertex 11 5 0
    endloop
  endfacet
  facet normal -0 0 -1
    outer loop
      vertex 11 5 0
      vertex 0 6.66134e-15 0
      vertex 5 11 0
    endloop
  endfacet
  facet normal -0 0 -1
    outer loop
      vertex 5 11 0
      vertex 0 6.66134e-15 0
      vertex 0.0100032 12.497 0
    endloop
  endfacet
  facet normal -0 0 -1
    outer loop
      vertex 0.0100032 12.497 0
      vertex 0 6.66134e-15 0
      vertex 0 12.497 0
    endloop
  endfacet
  facet normal 0 0 -1
    outer loop
      vertex 11 5 0
      vertex 12.497 11.3307 0
      vertex 12.497 5 0
    endloop
  endfacet
  facet normal -0 0 -1
    outer loop
      vertex 12.497 11.3307 0
      vertex 11 5 0
      vertex 11.3594 12.355 0
    endloop
  endfacet
  facet normal 0 0 -1
    outer loop
      vertex 5 11 0
      vertex 11.3594 12.355 0
      vertex 11 5 0
    endloop
  endfacet
  facet normal -0 0 -1
    outer loop
      vertex 11.3594 12.355 0
      vertex 5 11 0
      vertex 11.2962 12.497 0
    endloop
  endfacet
  facet normal -0 0 -1
    outer loop
      vertex 11.2962 12.497 0
      vertex 5 11 0
      vertex 5 12.497 0
    endloop
  endfacet
  facet normal 0 0 -1
    outer loop
      vertex 17.503 0.01 0
      vertex 20 6.66134e-15 0
      vertex 17.503 6.66134e-15 0
    endloop
  endfacet
  facet normal 0 0 -1
    outer loop
      vertex 20 6.66134e-15 0
      vertex 17.503 0.01 0
      vertex 19 5 0
    endloop
  endfacet
  facet normal 0 0 -1
    outer loop
      vertex 20 6.66134e-15 0
      vertex 70 0 0
      vertex 20 0 0
    endloop
  endfacet
  facet normal 0 0 -1
    outer loop
      vertex 70 0 0
      vertex 20 6.66134e-15 0
      vertex 70 12.497 0
    endloop
  endfacet
  facet normal 0 0 -1
    outer loop
      vertex 19 5 0
      vertex 70 12.497 0
      vertex 20 6.66134e-15 0
    endloop
  endfacet
  facet normal 0 0 -1
    outer loop
      vertex 19 5 0
      vertex 18.6222 12.497 0
      vertex 70 12.497 0
    endloop
  endfacet
  facet normal 0 0 -1
    outer loop
      vertex 19 5 0
      vertex 18.0111 11.6558 0
      vertex 18.6222 12.497 0
    endloop
  endfacet
  facet normal 0 0 -1
    outer loop
      vertex 17.503 11.3625 0
      vertex 19 5 0
      vertex 17.503 5 0
    endloop
  endfacet
  facet normal 0 0 -1
    outer loop
      vertex 19 5 0
      vertex 17.503 11.3625 0
      vertex 18.0111 11.6558 0
    endloop
  endfacet
  facet normal 0 0 -1
    outer loop
      vertex 70 17.503 0
      vertex 30 30 0
      vertex 70 30 0
    endloop
  endfacet
  facet normal 0 0 -1
    outer loop
      vertex 18.6222 17.503 0
      vertex 30 30 0
      vertex 70 17.503 0
    endloop
  endfacet
  facet normal 0 0 -1
    outer loop
      vertex 18.0111 18.3442 0
      vertex 30 30 0
      vertex 18.6222 17.503 0
    endloop
  endfacet
  facet normal 0 0 -1
    outer loop
      vertex 17.503 18.6375 0
      vertex 30 30 0
      vertex 18.0111 18.3442 0
    endloop
  endfacet
  facet normal 0 0 -1
    outer loop
      vertex 17.503 70 0
      vertex 30 30 0
      vertex 17.503 18.6375 0
    endloop
  endfacet
  facet normal 0 0 -1
    outer loop
      vertex 30 30 0
      vertex 17.503 70 0
      vertex 30 70 0
    endloop
  endfacet
  facet normal 0 0 1
    outer loop
      vertex 25 19 10
      vertex 30 12.5 10
      vertex 30 17.5 10
    endloop
  endfacet
  facet normal 0 0 1
    outer loop
      vertex 30 12.5 10
      vertex 25 19 10
      vertex 25 11 10
    endloop
  endfacet
  facet normal 0 0 1
    outer loop
      vertex 30 17.5 10
      vertex 70 22.5 10
      vertex 30 22.5 10
    endloop
  endfacet
  facet normal 0 0 1
    outer loop
      vertex 70 22.5 10
      vertex 30 17.5 10
      vertex 70 7.5 10
    endloop
  endfacet
  facet normal -0 0 1
    outer loop
      vertex 30 12.5 10
      vertex 70 7.5 10
      vertex 30 17.5 10
    endloop
  endfacet
  facet normal 0 0 1
    outer loop
      vertex 70 7.5 10
      vertex 30 12.5 10
      vertex 30 7.5 10
    endloop
  endfacet
  facet normal 0 0 1
    outer loop
      vertex 22.5 70 10
      vertex 17.5 30 10
      vertex 22.5 30 10
    endloop
  endfacet
  facet normal 0 0 1
    outer loop
      vertex 22.5 70 10
      vertex 12.5 30 10
      vertex 17.5 30 10
    endloop
  endfacet
  facet normal -0 0 1
    outer loop
      vertex 7.5 70 10
      vertex 12.5 30 10
      vertex 22.5 70 10
    endloop
  endfacet
  facet normal 0 0 1
    outer loop
      vertex 12.5 30 10
      vertex 7.5 70 10
      vertex 7.5 30 10
    endloop
  endfacet
  facet normal -0 0 1
    outer loop
      vertex 12.5 30 10
      vertex 19 25 10
      vertex 17.5 30 10
    endloop
  endfacet
  facet normal 0 0 1
    outer loop
      vertex 19 25 10
      vertex 12.5 30 10
      vertex 11 25 10
    endloop
  endfacet
  facet normal 0.5547 0 0.83205
    outer loop
      vertex 22.5 70 10
      vertex 30 30 5
      vertex 30 70 5
    endloop
  endfacet
  facet normal 0.5547 0 0.83205
    outer loop
      vertex 30 30 5
      vertex 22.5 70 10
      vertex 22.5 30 10
    endloop
  endfacet
  facet normal 0 1 0
    outer loop
      vertex 22.5 70 10
      vertex 19 70 5.19
      vertex 7.5 70 10
    endloop
  endfacet
  facet normal 0 1 0
    outer loop
      vertex 19 70 4.99
      vertex 22.5 70 10
      vertex 30 70 5
    endloop
  endfacet
  facet normal 0 1 0
    outer loop
      vertex 22.5 70 10
      vertex 19 70 4.99
      vertex 19 70 5.19
    endloop
  endfacet
  facet normal 0 1 -0
    outer loop
      vertex 30 70 0
      vertex 19 70 4.99
      vertex 30 70 5
    endloop
  endfacet
  facet normal 0 1 0
    outer loop
      vertex 19 70 4.99
      vertex 30 70 0
      vertex 17.503 70 0
    endloop
  endfacet
  facet normal 0 1 -0
    outer loop
      vertex 11 70 5.19
      vertex 7.5 70 10
      vertex 19 70 5.19
    endloop
  endfacet
  facet normal 0 1 -0
    outer loop
      vertex 11 70 4.99
      vertex 7.5 70 10
      vertex 11 70 5.19
    endloop
  endfacet
  facet normal 0 1 0
    outer loop
      vertex 7.5 70 10
      vertex 11 70 4.99
      vertex 0 70 5
    endloop
  endfacet
  facet normal 0 1 0
    outer loop
      vertex 0 70 0
      vertex 11 70 4.99
      vertex 12.497 70 0
    endloop
  endfacet
  facet normal 0 1 0
    outer loop
      vertex 11 70 4.99
      vertex 0 70 0
      vertex 0 70 5
    endloop
  endfacet
  facet normal -0.5547 0 0.83205
    outer loop
      vertex 0 70 5
      vertex 7.5 30 10
      vertex 7.5 70 10
    endloop
  endfacet
  facet normal -0.5547 0 0.83205
    outer loop
      vertex 7.5 30 10
      vertex 0 70 5
      vertex 0 30 5
    endloop
  endfacet
  facet normal -1 0 0
    outer loop
      vertex 20 0 0
      vertex 20 7.77156e-15 5
      vertex 20 6.66134e-15 0
    endloop
  endfacet
  facet normal -1 -0 0
    outer loop
      vertex 20 7.77156e-15 5
      vertex 20 0 0
      vertex 20 0 5
    endloop
  endfacet
  facet normal 0 -0.5547 0.83205
    outer loop
      vertex 30 7.5 10
      vertex 70 0 5
      vertex 70 7.5 10
    endloop
  endfacet
  facet normal -1.07772e-16 -0.5547 0.83205
    outer loop
      vertex 30 7.77156e-15 5
      vertex 70 0 5
      vertex 30 7.5 10
    endloop
  endfacet
  facet normal 0 0 1
    outer loop
      vertex 20 0 5
      vertex 30 7.77156e-15 5
      vertex 20 7.77156e-15 5
    endloop
  endfacet
  facet normal 0 0 1
    outer loop
      vertex 30 7.77156e-15 5
      vertex 20 0 5
      vertex 70 0 5
    endloop
  endfacet
  facet normal 0 1 -0
    outer loop
      vertex 70 30 0
      vertex 30 30 5
      vertex 70 30 5
    endloop
  endfacet
  facet normal 0 1 0
    outer loop
      vertex 30 30 5
      vertex 70 30 0
      vertex 30 30 0
    endloop
  endfacet
  facet normal -0 0.5547 0.83205
    outer loop
      vertex 30 30 5
      vertex 70 22.5 10
      vertex 70 30 5
    endloop
  endfacet
  facet normal 0 0.5547 0.83205
    outer loop
      vertex 70 22.5 10
      vertex 30 30 5
      vertex 30 22.5 10
    endloop
  endfacet
  facet normal 0 -1 0
    outer loop
      vertex 20 0 0
      vertex 70 0 5
      vertex 20 0 5
    endloop
  endfacet
  facet normal 0 -1 -0
    outer loop
      vertex 70 0 5
      vertex 20 0 0
      vertex 70 0 0
    endloop
  endfacet
  facet normal 1 0 0
    outer loop
      vertex 70 22.5 10
      vertex 70 11 5.19
      vertex 70 19 5.19
    endloop
  endfacet
  facet normal 1 0 0
    outer loop
      vertex 70 11 5.19
      vertex 70 7.5 10
      vertex 70 11 4.99
    endloop
  endfacet
  facet normal 1 -0 0
    outer loop
      vertex 70 7.5 10
      vertex 70 11 5.19
      vertex 70 22.5 10
    endloop
  endfacet
  facet normal 1 0 0
    outer loop
      vertex 70 19 4.99
      vertex 70 30 5
      vertex 70 22.5 10
    endloop
  endfacet
  facet normal 1 0 0
    outer loop
      vertex 70 19 4.99
      vertex 70 22.5 10
      vertex 70 19 5.19
    endloop
  endfacet
  facet normal 1 0 0
    outer loop
      vertex 70 30 5
      vertex 70 19 4.99
      vertex 70 30 0
    endloop
  endfacet
  facet normal 1 0 0
    outer loop
      vertex 70 30 0
      vertex 70 19 4.99
      vertex 70 17.503 0
    endloop
  endfacet
  facet normal 1 -0 0
    outer loop
      vertex 70 0 5
      vertex 70 11 4.99
      vertex 70 7.5 10
    endloop
  endfacet
  facet normal 1 0 0
    outer loop
      vertex 70 0 0
      vertex 70 11 4.99
      vertex 70 0 5
    endloop
  endfacet
  facet normal 1 0 0
    outer loop
      vertex 70 11 4.99
      vertex 70 0 0
      vertex 70 12.497 0
    endloop
  endfacet
  facet normal 0 0 1
    outer loop
      vertex 19.111 16.8303 5.4
      vertex 19.111 13.1697 5.4
      vertex 19.5 15 5.4
    endloop
  endfacet
  facet normal 0 0 1
    outer loop
      vertex 18.0111 18.3442 5.4
      vertex 19.111 13.1697 5.4
      vertex 19.111 16.8303 5.4
    endloop
  endfacet
  facet normal 0 0 1
    outer loop
      vertex 18.0111 18.3442 5.4
      vertex 18.0111 11.6558 5.4
      vertex 19.111 13.1697 5.4
    endloop
  endfacet
  facet normal 0 0 1
    outer loop
      vertex 16.3906 19.2798 5.4
      vertex 18.0111 11.6558 5.4
      vertex 18.0111 18.3442 5.4
    endloop
  endfacet
  facet normal 0 0 1
    outer loop
      vertex 16.3906 19.2798 5.4
      vertex 16.3906 10.7202 5.4
      vertex 18.0111 11.6558 5.4
    endloop
  endfacet
  facet normal 0 0 1
    outer loop
      vertex 14.5296 19.4753 5.4
      vertex 16.3906 10.7202 5.4
      vertex 16.3906 19.2798 5.4
    endloop
  endfacet
  facet normal 0 0 1
    outer loop
      vertex 14.5296 19.4753 5.4
      vertex 14.5296 10.5247 5.4
      vertex 16.3906 10.7202 5.4
    endloop
  endfacet
  facet normal -0 0 1
    outer loop
      vertex 12.75 18.8971 5.4
      vertex 14.5296 10.5247 5.4
      vertex 14.5296 19.4753 5.4
    endloop
  endfacet
  facet normal 0 0 1
    outer loop
      vertex 12.75 18.8971 5.4
      vertex 12.75 11.1029 5.4
      vertex 14.5296 10.5247 5.4
    endloop
  endfacet
  facet normal -0 0 1
    outer loop
      vertex 11.3594 17.645 5.4
      vertex 12.75 11.1029 5.4
      vertex 12.75 18.8971 5.4
    endloop
  endfacet
  facet normal 0 0 1
    outer loop
      vertex 11.3594 17.645 5.4
      vertex 11.3594 12.355 5.4
      vertex 12.75 11.1029 5.4
    endloop
  endfacet
  facet normal -0 0 1
    outer loop
      vertex 10.5983 15.9356 5.4
      vertex 11.3594 12.355 5.4
      vertex 11.3594 17.645 5.4
    endloop
  endfacet
  facet normal 0 0 1
    outer loop
      vertex 11.3594 12.355 5.4
      vertex 10.5983 15.9356 5.4
      vertex 10.5983 14.0644 5.4
    endloop
  endfacet
  facet normal 0 0 -1
    outer loop
      vertex 19.111 13.1697 5.2
      vertex 19.111 16.8303 5.2
      vertex 19.5 15 5.2
    endloop
  endfacet
  facet normal 0 0 -1
    outer loop
      vertex 18.0111 11.6558 5.2
      vertex 19.111 16.8303 5.2
      vertex 19.111 13.1697 5.2
    endloop
  endfacet
  facet normal 0 0 -1
    outer loop
      vertex 18.0111 11.6558 5.2
      vertex 18.0111 18.3442 5.2
      vertex 19.111 16.8303 5.2
    endloop
  endfacet
  facet normal 0 0 -1
    outer loop
      vertex 16.3906 10.7202 5.2
      vertex 18.0111 18.3442 5.2
      vertex 18.0111 11.6558 5.2
    endloop
  endfacet
  facet normal 0 0 -1
    outer loop
      vertex 16.3906 10.7202 5.2
      vertex 16.3906 19.2798 5.2
      vertex 18.0111 18.3442 5.2
    endloop
  endfacet
  facet normal 0 0 -1
    outer loop
      vertex 14.5296 10.5247 5.2
      vertex 16.3906 19.2798 5.2
      vertex 16.3906 10.7202 5.2
    endloop
  endfacet
  facet normal 0 0 -1
    outer loop
      vertex 14.5296 10.5247 5.2
      vertex 14.5296 19.4753 5.2
      vertex 16.3906 19.2798 5.2
    endloop
  endfacet
  facet normal 0 0 -1
    outer loop
      vertex 14.5296 10.5247 5.2
      vertex 12.75 18.8971 5.2
      vertex 14.5296 19.4753 5.2
    endloop
  endfacet
  facet normal 0 0 -1
    outer loop
      vertex 12.75 11.1029 5.2
      vertex 12.75 18.8971 5.2
      vertex 14.5296 10.5247 5.2
    endloop
  endfacet
  facet normal 0 0 -1
    outer loop
      vertex 11.3594 12.355 5.2
      vertex 12.75 18.8971 5.2
      vertex 12.75 11.1029 5.2
    endloop
  endfacet
  facet normal 0 0 -1
    outer loop
      vertex 11.3594 12.355 5.2
      vertex 11.3594 17.645 5.2
      vertex 12.75 18.8971 5.2
    endloop
  endfacet
  facet normal 0 0 -1
    outer loop
      vertex 10.5983 14.0644 5.2
      vertex 11.3594 17.645 5.2
      vertex 11.3594 12.355 5.2
    endloop
  endfacet
  facet normal 0 0 -1
    outer loop
      vertex 11.3594 17.645 5.2
      vertex 10.5983 14.0644 5.2
      vertex 10.5983 15.9356 5.2
    endloop
  endfacet
  facet normal 0.957826 -0 0.287348
    outer loop
      vertex 11 7.76934e-15 4.99
      vertex 12.497 0.01 0
      vertex 11 5 4.99
    endloop
  endfacet
  facet normal 0.957826 0 0.287348
    outer loop
      vertex 12.497 0.01 0
      vertex 11 7.76934e-15 4.99
      vertex 12.497 6.66134e-15 0
    endloop
  endfacet
  facet normal 0.957825 -4.11409e-06 0.287352
    outer loop
      vertex 12.497 5 0
      vertex 11.8833 11.8833 2.04573
      vertex 11 11 4.99
    endloop
  endfacet
  facet normal 0.957826 0 0.287348
    outer loop
      vertex 12.497 5 0
      vertex 11 11 4.99
      vertex 11 5 4.99
    endloop
  endfacet
  facet normal 0.957829 0 0.28734
    outer loop
      vertex 11.8833 11.8833 2.04573
      vertex 12.497 5 0
      vertex 12.497 11.3307 0
    endloop
  endfacet
  facet normal 0.957826 -0 0.287348
    outer loop
      vertex 11 19 4.99
      vertex 12.497 70 0
      vertex 11 70 4.99
    endloop
  endfacet
  facet normal 0.957826 0 0.287348
    outer loop
      vertex 11 19 4.99
      vertex 12.497 18.6693 0
      vertex 12.497 70 0
    endloop
  endfacet
  facet normal 0.957827 2.64449e-05 0.287346
    outer loop
      vertex 12.497 18.6693 0
      vertex 11 19 4.99
      vertex 11.8833 18.1167 2.04573
    endloop
  endfacet
  facet normal -0.957837 -0.000184288 0.287311
    outer loop
      vertex 18.0111 11.6558 1.69362
      vertex 19 11 4.99
      vertex 18.1512 11.8488 2.16081
    endloop
  endfacet
  facet normal -0.957824 0 0.287355
    outer loop
      vertex 17.503 5 0
      vertex 18.0111 11.6558 1.69362
      vertex 17.503 11.3625 0
    endloop
  endfacet
  facet normal -0.957826 2.01472e-06 0.287348
    outer loop
      vertex 19 5 4.99
      vertex 18.0111 11.6558 1.69362
      vertex 17.503 5 0
    endloop
  endfacet
  facet normal -0.957827 0 0.287344
    outer loop
      vertex 18.0111 11.6558 1.69362
      vertex 19 5 4.99
      vertex 19 11 4.99
    endloop
  endfacet
  facet normal -0.957826 0 0.287348
    outer loop
      vertex 17.503 0.01 0
      vertex 19 7.76934e-15 4.99
      vertex 19 5 4.99
    endloop
  endfacet
  facet normal -0.957826 0 0.287348
    outer loop
      vertex 19 7.76934e-15 4.99
      vertex 17.503 0.01 0
      vertex 17.503 6.66134e-15 0
    endloop
  endfacet
  facet normal -0.957826 0 0.287348
    outer loop
      vertex 17.503 70 0
      vertex 19 19 4.99
      vertex 19 70 4.99
    endloop
  endfacet
  facet normal -0.957826 0 0.287348
    outer loop
      vertex 17.503 18.6375 0
      vertex 19 19 4.99
      vertex 17.503 70 0
    endloop
  endfacet
  facet normal -0.957826 -3.22087e-05 0.28735
    outer loop
      vertex 18.0111 18.3442 1.69362
      vertex 19 19 4.99
      vertex 17.503 18.6375 0
    endloop
  endfacet
  facet normal -0.957837 0.000184288 0.287311
    outer loop
      vertex 19 19 4.99
      vertex 18.0111 18.3442 1.69362
      vertex 18.1512 18.1512 2.16081
    endloop
  endfacet
  facet normal 1 -0 0
    outer loop
      vertex 11 5 5.19
      vertex 11 11 4.99
      vertex 11 11 5.19
    endloop
  endfacet
  facet normal 1 0 0
    outer loop
      vertex 11 5 5.19
      vertex 11 5 4.99
      vertex 11 11 4.99
    endloop
  endfacet
  facet normal 1 -0 0
    outer loop
      vertex 11 7.81375e-15 5.19
      vertex 11 5 4.99
      vertex 11 5 5.19
    endloop
  endfacet
  facet normal 1 0 0
    outer loop
      vertex 11 5 4.99
      vertex 11 7.81375e-15 5.19
      vertex 11 7.76934e-15 4.99
    endloop
  endfacet
  facet normal 0 0 0
    outer loop
      vertex 11 11 5.19
      vertex 11 13.1622 5.19
      vertex 11 5 5.19
    endloop
  endfacet
  facet normal 1 -0 0
    outer loop
      vertex 11 19 5.19
      vertex 11 70 4.99
      vertex 11 70 5.19
    endloop
  endfacet
  facet normal 1 0 0
    outer loop
      vertex 11 70 4.99
      vertex 11 19 5.19
      vertex 11 19 4.99
    endloop
  endfacet
  facet normal 0 0 0
    outer loop
      vertex 11 70 5.19
      vertex 11 16.8378 5.19
      vertex 11 19 5.19
    endloop
  endfacet
  facet normal -1 0 0
    outer loop
      vertex 19 5 4.99
      vertex 19 11 5.19
      vertex 19 11 4.99
    endloop
  endfacet
  facet normal -1 0 0
    outer loop
      vertex 19 5 4.99
      vertex 19 5 5.19
      vertex 19 11 5.19
    endloop
  endfacet
  facet normal -1 0 0
    outer loop
      vertex 19 5 4.99
      vertex 19 7.81375e-15 5.19
      vertex 19 5 5.19
    endloop
  endfacet
  facet normal -1 0 -0
    outer loop
      vertex 19 7.81375e-15 5.19
      vertex 19 5 4.99
      vertex 19 7.76934e-15 4.99
    endloop
  endfacet
  facet normal 0 0 0
    outer loop
      vertex 19 11 5.19
      vertex 19 5 5.19
      vertex 19 13.017 5.19
    endloop
  endfacet
  facet normal -1 0 0
    outer loop
      vertex 19 19 4.99
      vertex 19 70 5.19
      vertex 19 70 4.99
    endloop
  endfacet
  facet normal -1 -0 0
    outer loop
      vertex 19 70 5.19
      vertex 19 19 4.99
      vertex 19 19 5.19
    endloop
  endfacet
  facet normal 0 0 0
    outer loop
      vertex 19 70 5.19
      vertex 19 19 5.19
      vertex 19 16.983 5.19
    endloop
  endfacet
  facet normal 0 0 -1
    outer loop
      vertex 11 5 5.19
      vertex 12.5 7.81375e-15 5.19
      vertex 11 7.81375e-15 5.19
    endloop
  endfacet
  facet normal 0 0 -1
    outer loop
      vertex 19 5 5.19
      vertex 18.0111 11.6558 5.19
      vertex 19 13.017 5.19
    endloop
  endfacet
  facet normal 0 0 -1
    outer loop
      vertex 19 5 5.19
      vertex 16.3906 10.7202 5.19
      vertex 18.0111 11.6558 5.19
    endloop
  endfacet
  facet normal 0 0 -1
    outer loop
      vertex 13.3731 5 5.19
      vertex 16.3906 10.7202 5.19
      vertex 19 5 5.19
    endloop
  endfacet
  facet normal 0 0 -1
    outer loop
      vertex 16.3906 10.7202 5.19
      vertex 13.3731 5 5.19
      vertex 14.5296 10.5247 5.19
    endloop
  endfacet
  facet normal 0 0 -1
    outer loop
      vertex 13.3731 5 5.19
      vertex 12.75 11.1029 5.19
      vertex 14.5296 10.5247 5.19
    endloop
  endfacet
  facet normal 0 0 -1
    outer loop
      vertex 11 5 5.19
      vertex 12.75 11.1029 5.19
      vertex 13.3731 5 5.19
    endloop
  endfacet
  facet normal -0 0 -1
    outer loop
      vertex 12.75 11.1029 5.19
      vertex 11 5 5.19
      vertex 11.3594 12.355 5.19
    endloop
  endfacet
  facet normal -0 0 -1
    outer loop
      vertex 11.3594 12.355 5.19
      vertex 11 5 5.19
      vertex 11 13.1622 5.19
    endloop
  endfacet
  facet normal 0 -0 -1
    outer loop
      vertex 19 5 5.19
      vertex 19 7.81375e-15 5.19
      vertex 17.5 7.81375e-15 5.19
    endloop
  endfacet
  facet normal 0 0 -1
    outer loop
      vertex 18.0111 18.3442 5.19
      vertex 19 70 5.19
      vertex 19 16.983 5.19
    endloop
  endfacet
  facet normal 0 0 -1
    outer loop
      vertex 16.3906 19.2798 5.19
      vertex 19 70 5.19
      vertex 18.0111 18.3442 5.19
    endloop
  endfacet
  facet normal 0 0 -1
    outer loop
      vertex 14.5296 19.4753 5.19
      vertex 19 70 5.19
      vertex 16.3906 19.2798 5.19
    endloop
  endfacet
  facet normal 0 0 -1
    outer loop
      vertex 11 70 5.19
      vertex 14.5296 19.4753 5.19
      vertex 12.75 18.8971 5.19
    endloop
  endfacet
  facet normal 0 0 -1
    outer loop
      vertex 11 70 5.19
      vertex 12.75 18.8971 5.19
      vertex 11.3594 17.645 5.19
    endloop
  endfacet
  facet normal 0 0 -1
    outer loop
      vertex 11 70 5.19
      vertex 11.3594 17.645 5.19
      vertex 11 16.8378 5.19
    endloop
  endfacet
  facet normal 0 0 -1
    outer loop
      vertex 14.5296 19.4753 5.19
      vertex 11 70 5.19
      vertex 19 70 5.19
    endloop
  endfacet
  facet normal 0 0 0
    outer loop
      vertex 11 11 4.99
      vertex 5 11 4.99
      vertex 0 11 4.99
    endloop
  endfacet
  facet normal 0 0.957825 0.287354
    outer loop
      vertex 11.8833 11.8833 2.04573
      vertex 5 11 4.99
      vertex 11 11 4.99
    endloop
  endfacet
  facet normal 8.56106e-07 0.957824 0.287355
    outer loop
      vertex 11.3594 12.355 0.473443
      vertex 5 11 4.99
      vertex 11.8833 11.8833 2.04573
    endloop
  endfacet
  facet normal -0 0.957845 0.287287
    outer loop
      vertex 5 12.497 0
      vertex 11.3594 12.355 0.473443
      vertex 11.2962 12.497 0
    endloop
  endfacet
  facet normal -4.95526e-06 0.957826 0.287348
    outer loop
      vertex 11.3594 12.355 0.473443
      vertex 5 12.497 0
      vertex 5 11 4.99
    endloop
  endfacet
  facet normal 0 0.957826 0.287348
    outer loop
      vertex 0.0100032 12.497 0
      vertex 0 11 4.99
      vertex 5 11 4.99
    endloop
  endfacet
  facet normal 0 0.957826 0.287348
    outer loop
      vertex 0 11 4.99
      vertex 0.0100032 12.497 0
      vertex 0 12.497 0
    endloop
  endfacet
  facet normal 0 0.957826 0.287348
    outer loop
      vertex 70 12.497 0
      vertex 19 11 4.99
      vertex 70 11 4.99
    endloop
  endfacet
  facet normal 0 0.957826 0.287348
    outer loop
      vertex 19 11 4.99
      vertex 70 12.497 0
      vertex 18.6222 12.497 0
    endloop
  endfacet
  facet normal 6.49019e-05 0.957828 0.287343
    outer loop
      vertex 19 11 4.99
      vertex 18.6222 12.497 0
      vertex 18.1512 11.8488 2.16081
    endloop
  endfacet
  facet normal 0 -0.957821 0.287366
    outer loop
      vertex 0 18.5714 3.56143
      vertex 5 19 4.99
      vertex 0 19 4.99
    endloop
  endfacet
  facet normal 0 -0.957828 0.287341
    outer loop
      vertex 0.01 17.503 0
      vertex 0 18.5714 3.56143
      vertex 5.53557e-16 17.503 0
    endloop
  endfacet
  facet normal 7.77756e-06 -0.957828 0.287341
    outer loop
      vertex 0 18.5714 3.56143
      vertex 0.01 17.503 0
      vertex 5 19 4.99
    endloop
  endfacet
  facet normal 0 -0.957825 0.287354
    outer loop
      vertex 5 19 4.99
      vertex 11.8833 18.1167 2.04573
      vertex 11 19 4.99
    endloop
  endfacet
  facet normal 1.06138e-06 -0.957824 0.287356
    outer loop
      vertex 5 19 4.99
      vertex 11.3594 17.645 0.473446
      vertex 11.8833 18.1167 2.04573
    endloop
  endfacet
  facet normal -5.09081e-06 -0.957826 0.287348
    outer loop
      vertex 5 17.503 0
      vertex 11.3594 17.645 0.473446
      vertex 5 19 4.99
    endloop
  endfacet
  facet normal 0 -0.957845 0.287285
    outer loop
      vertex 11.3594 17.645 0.473446
      vertex 5 17.503 0
      vertex 11.2962 17.503 0
    endloop
  endfacet
  facet normal 6.49019e-05 -0.957828 0.287343
    outer loop
      vertex 18.6222 17.503 0
      vertex 19 19 4.99
      vertex 18.1512 18.1512 2.16081
    endloop
  endfacet
  facet normal 0 -0.957826 0.287348
    outer loop
      vertex 70 17.503 0
      vertex 19 19 4.99
      vertex 18.6222 17.503 0
    endloop
  endfacet
  facet normal 0 -0.957826 0.287348
    outer loop
      vertex 19 19 4.99
      vertex 70 17.503 0
      vertex 70 19 4.99
    endloop
  endfacet
  facet normal 1 -2.22051e-16 2.22045e-16
    outer loop
      vertex 0 17.5 2.49
      vertex 5.53557e-16 17.503 0
      vertex 0 18.5714 3.56143
    endloop
  endfacet
  facet normal 1 -2.22e-16 2.22045e-16
    outer loop
      vertex 5.53557e-16 17.503 0
      vertex 0 17.5 2.49
      vertex 5.52891e-16 17.5 0
    endloop
  endfacet
  facet normal 0 1 -0
    outer loop
      vertex 11 11 4.99
      vertex 0 11 5.19
      vertex 11 11 5.19
    endloop
  endfacet
  facet normal 0 1 0
    outer loop
      vertex 0 11 5.19
      vertex 11 11 4.99
      vertex 0 11 4.99
    endloop
  endfacet
  facet normal 0 1 -0
    outer loop
      vertex 70 11 4.99
      vertex 19 11 5.19
      vertex 70 11 5.19
    endloop
  endfacet
  facet normal 0 1 0
    outer loop
      vertex 19 11 5.19
      vertex 70 11 4.99
      vertex 19 11 4.99
    endloop
  endfacet
  facet normal 0 -1 0
    outer loop
      vertex 5 19 4.99
      vertex 11 19 5.19
      vertex 5 19 5.19
    endloop
  endfacet
  facet normal 0 -1 -0
    outer loop
      vertex 11 19 5.19
      vertex 5 19 4.99
      vertex 11 19 4.99
    endloop
  endfacet
  facet normal 0 -1 0
    outer loop
      vertex 19 19 4.99
      vertex 70 19 5.19
      vertex 19 19 5.19
    endloop
  endfacet
  facet normal 0 -1 -0
    outer loop
      vertex 70 19 5.19
      vertex 19 19 4.99
      vertex 70 19 4.99
    endloop
  endfacet
  facet normal 0 -1 0
    outer loop
      vertex 0 19 4.99
      vertex 5 19 5.19
      vertex 0 19 5.19
    endloop
  endfacet
  facet normal 0 -1 -0
    outer loop
      vertex 5 19 5.19
      vertex 0 19 4.99
      vertex 5 19 4.99
    endloop
  endfacet
  facet normal 0 0 -1
    outer loop
      vertex 0 19 5.19
      vertex 5 19 5.19
      vertex 0 17.5 5.19
    endloop
  endfacet
  facet normal 0 0 -1
    outer loop
      vertex 5 11 5.19
      vertex 11 13.1622 5.19
      vertex 11 11 5.19
    endloop
  endfacet
  facet normal -0 0 -1
    outer loop
      vertex 10.5983 14.0644 5.19
      vertex 5 11 5.19
      vertex 10.5983 15.9356 5.19
    endloop
  endfacet
  facet normal -0 0 -1
    outer loop
      vertex 11 13.1622 5.19
      vertex 5 11 5.19
      vertex 10.5983 14.0644 5.19
    endloop
  endfacet
  facet normal 0 0 0
    outer loop
      vertex 0 11 5.19
      vertex 5 11 5.19
      vertex 11 11 5.19
    endloop
  endfacet
  facet normal 0 0 -1
    outer loop
      vertex 5 11 5.19
      vertex 0 11 5.19
      vertex 0 12.5 5.19
    endloop
  endfacet
  facet normal 0 0 -1
    outer loop
      vertex 5 19 5.19
      vertex 11 16.8378 5.19
      vertex 10.5983 15.9356 5.19
    endloop
  endfacet
  facet normal 0 0 -1
    outer loop
      vertex 5 19 5.19
      vertex 10.5983 15.9356 5.19
      vertex 5 11 5.19
    endloop
  endfacet
  facet normal 0 0 -1
    outer loop
      vertex 11 16.8378 5.19
      vertex 5 19 5.19
      vertex 11 19 5.19
    endloop
  endfacet
  facet normal 0 0 -1
    outer loop
      vertex 70 11 5.19
      vertex 19.5 15 5.19
      vertex 70 19 5.19
    endloop
  endfacet
  facet normal 0 0 -1
    outer loop
      vertex 19 11 5.19
      vertex 19.5 15 5.19
      vertex 70 11 5.19
    endloop
  endfacet
  facet normal 0 0 -1
    outer loop
      vertex 19.5 15 5.19
      vertex 19 11 5.19
      vertex 19.111 13.1697 5.19
    endloop
  endfacet
  facet normal 0 0 -1
    outer loop
      vertex 19.111 13.1697 5.19
      vertex 19 11 5.19
      vertex 19 13.017 5.19
    endloop
  endfacet
  facet normal 0 0 -1
    outer loop
      vertex 19 19 5.19
      vertex 19.5 15 5.19
      vertex 19.111 16.8303 5.19
    endloop
  endfacet
  facet normal 0 0 -1
    outer loop
      vertex 19 19 5.19
      vertex 19.111 16.8303 5.19
      vertex 19 16.983 5.19
    endloop
  endfacet
  facet normal 0 0 -1
    outer loop
      vertex 19.5 15 5.19
      vertex 19 19 5.19
      vertex 70 19 5.19
    endloop
  endfacet
endsolid OpenSCAD_Model
