solid OpenSCAD_Model
  facet normal 0 1 -2.31295e-016
    outer loop
      vertex 2.12803 -1.42191e-016 4.18524
      vertex -2.091 0 4.8
      vertex 2.091 0 4.8
    endloop
  endfacet
  facet normal 0 1 -2.31295e-016
    outer loop
      vertex 2.12803 -1.42191e-016 4.18524
      vertex -2.12803 -1.42191e-016 4.18524
      vertex -2.091 0 4.8
    endloop
  endfacet
  facet normal 0 1 -2.31297e-016
    outer loop
      vertex 2.16354 -2.7852e-016 3.59583
      vertex -2.12803 -1.42191e-016 4.18524
      vertex 2.12803 -1.42191e-016 4.18524
    endloop
  endfacet
  facet normal 0 1 -2.31297e-016
    outer loop
      vertex 2.16354 -2.7852e-016 3.59583
      vertex -2.16354 -2.7852e-016 3.59583
      vertex -2.12803 -1.42191e-016 4.18524
    endloop
  endfacet
  facet normal 0 1 -2.31299e-016
    outer loop
      vertex 2.27185 -4.16145e-016 3.00082
      vertex -2.16354 -2.7852e-016 3.59583
      vertex 2.16354 -2.7852e-016 3.59583
    endloop
  endfacet
  facet normal 0 1 -2.31299e-016
    outer loop
      vertex 2.27185 -4.16145e-016 3.00082
      vertex -2.27185 -4.16145e-016 3.00082
      vertex -2.16354 -2.7852e-016 3.59583
    endloop
  endfacet
  facet normal 0 1 -2.31296e-016
    outer loop
      vertex 2.38034 -5.53988e-016 2.40486
      vertex -2.27185 -4.16145e-016 3.00082
      vertex 2.27185 -4.16145e-016 3.00082
    endloop
  endfacet
  facet normal 0 1 -2.31296e-016
    outer loop
      vertex 2.38034 -5.53988e-016 2.40486
      vertex -2.38034 -5.53988e-016 2.40486
      vertex -2.27185 -4.16145e-016 3.00082
    endloop
  endfacet
  facet normal 0 1 -2.31294e-016
    outer loop
      vertex 2.55274 -6.83464e-016 1.84507
      vertex -2.38034 -5.53988e-016 2.40486
      vertex 2.38034 -5.53988e-016 2.40486
    endloop
  endfacet
  facet normal 0 1 -2.31294e-016
    outer loop
      vertex 2.55274 -6.83464e-016 1.84507
      vertex -2.55274 -6.83464e-016 1.84507
      vertex -2.38034 -5.53988e-016 2.40486
    endloop
  endfacet
  facet normal 0 1 -2.31297e-016
    outer loop
      vertex 2.73904 -8.23387e-016 1.24012
      vertex -2.55274 -6.83464e-016 1.84507
      vertex 2.55274 -6.83464e-016 1.84507
    endloop
  endfacet
  facet normal 0 1 -2.31297e-016
    outer loop
      vertex 2.73904 -8.23387e-016 1.24012
      vertex -2.73904 -8.23387e-016 1.24012
      vertex -2.55274 -6.83464e-016 1.84507
    endloop
  endfacet
  facet normal 0 1 -2.31297e-016
    outer loop
      vertex 2.84738 -8.80182e-016 0.99457
      vertex -2.73904 -8.23387e-016 1.24012
      vertex 2.73904 -8.23387e-016 1.24012
    endloop
  endfacet
  facet normal 0 1 -2.31297e-016
    outer loop
      vertex -2.73904 -8.23387e-016 1.24012
      vertex 2.84738 -8.80182e-016 0.99457
      vertex -2.84738 -8.80182e-016 0.99457
    endloop
  endfacet
  facet normal 0 -2.13163e-016 -1
    outer loop
      vertex -2.8066 -23.802 5.07371e-015
      vertex 2.84302 -1.19795 2.55359e-016
      vertex 2.84302 -23.802 5.07371e-015
    endloop
  endfacet
  facet normal -0 -2.13163e-016 -1
    outer loop
      vertex 2.84302 -1.19795 2.55359e-016
      vertex -2.8066 -23.802 5.07371e-015
      vertex -2.8066 -1.19795 2.55359e-016
    endloop
  endfacet
  facet normal 0.95448 0 0.298275
    outer loop
      vertex 3.30176 -1.86339 2.23436
      vertex 3.61246 -23.1269 1.24012
      vertex 3.61246 -1.87306 1.24012
    endloop
  endfacet
  facet normal 0.954482 -0 0.298269
    outer loop
      vertex 3.30176 -23.1366 2.23436
      vertex 3.30176 -1.86339 2.23436
      vertex 3.24848 -1.86174 2.40486
    endloop
  endfacet
  facet normal 0.954479 -0 0.298278
    outer loop
      vertex 3.24848 -23.1383 2.40486
      vertex 3.24848 -1.86174 2.40486
      vertex 3.18787 -1.80747 2.59881
    endloop
  endfacet
  facet normal 0.95448 -0 0.298276
    outer loop
      vertex 3.18787 -23.1925 2.59881
      vertex 3.18787 -1.80747 2.59881
      vertex 2.8763 -1.52853 3.59583
    endloop
  endfacet
  facet normal 0.954482 -0 0.298268
    outer loop
      vertex 2.8763 -23.4715 3.59583
      vertex 2.8763 -1.52853 3.59583
      vertex 2.6177 -1.08085 4.42337
    endloop
  endfacet
  facet normal 0.954478 -0 0.298282
    outer loop
      vertex 2.6177 -23.9192 4.42337
      vertex 2.6177 -1.08085 4.42337
      vertex 2.5 -0.877098 4.8
    endloop
  endfacet
  facet normal 0.95448 0 0.298275
    outer loop
      vertex 3.30176 -1.86339 2.23436
      vertex 3.30176 -23.1366 2.23436
      vertex 3.61246 -23.1269 1.24012
    endloop
  endfacet
  facet normal 0.954482 0 0.298269
    outer loop
      vertex 3.24848 -1.86174 2.40486
      vertex 3.24848 -23.1383 2.40486
      vertex 3.30176 -23.1366 2.23436
    endloop
  endfacet
  facet normal 0.954479 0 0.298278
    outer loop
      vertex 3.18787 -1.80747 2.59881
      vertex 3.18787 -23.1925 2.59881
      vertex 3.24848 -23.1383 2.40486
    endloop
  endfacet
  facet normal 0.95448 0 0.298276
    outer loop
      vertex 2.8763 -1.52853 3.59583
      vertex 2.8763 -23.4715 3.59583
      vertex 3.18787 -23.1925 2.59881
    endloop
  endfacet
  facet normal 0.954482 0 0.298268
    outer loop
      vertex 2.6177 -1.08085 4.42337
      vertex 2.6177 -23.9192 4.42337
      vertex 2.8763 -23.4715 3.59583
    endloop
  endfacet
  facet normal 0.954478 0 0.298282
    outer loop
      vertex 2.6177 -23.9192 4.42337
      vertex 2.5 -0.877098 4.8
      vertex 2.5 -24.1229 4.8
    endloop
  endfacet
  facet normal 0.954478 -0 0.298282
    outer loop
      vertex 3.61246 -23.1269 1.24012
      vertex 3.78693 -1.71897 0.681831
      vertex 3.61246 -1.87306 1.24012
    endloop
  endfacet
  facet normal 0.954478 0 0.298282
    outer loop
      vertex 3.78693 -1.71897 0.681831
      vertex 3.61246 -23.1269 1.24012
      vertex 3.78693 -23.281 0.681831
    endloop
  endfacet
  facet normal -0.954477 0 0.298285
    outer loop
      vertex -3.80443 -1.70352 0.625838
      vertex -3.61246 -23.1269 1.24012
      vertex -3.61246 -1.87306 1.24012
    endloop
  endfacet
  facet normal -0.954477 0 0.298285
    outer loop
      vertex -3.61246 -23.1269 1.24012
      vertex -3.80443 -1.70352 0.625838
      vertex -3.80443 -23.2965 0.625838
    endloop
  endfacet
  facet normal -0.95448 0 0.298275
    outer loop
      vertex -3.61246 -23.1269 1.24012
      vertex -3.30176 -1.86339 2.23436
      vertex -3.61246 -1.87306 1.24012
    endloop
  endfacet
  facet normal -0.95448 0 0.298275
    outer loop
      vertex -3.30176 -23.1366 2.23436
      vertex -3.30176 -1.86339 2.23436
      vertex -3.61246 -23.1269 1.24012
    endloop
  endfacet
  facet normal -0.954482 0 0.298269
    outer loop
      vertex -3.30176 -1.86339 2.23436
      vertex -3.30176 -23.1366 2.23436
      vertex -3.24848 -1.86174 2.40486
    endloop
  endfacet
  facet normal -0.954482 0 0.298269
    outer loop
      vertex -3.24848 -23.1383 2.40486
      vertex -3.24848 -1.86174 2.40486
      vertex -3.30176 -23.1366 2.23436
    endloop
  endfacet
  facet normal -0.954479 0 0.298278
    outer loop
      vertex -3.24848 -1.86174 2.40486
      vertex -3.24848 -23.1383 2.40486
      vertex -3.18787 -1.80747 2.59881
    endloop
  endfacet
  facet normal -0.954479 0 0.298278
    outer loop
      vertex -3.18787 -23.1925 2.59881
      vertex -3.18787 -1.80747 2.59881
      vertex -3.24848 -23.1383 2.40486
    endloop
  endfacet
  facet normal -0.95448 0 0.298276
    outer loop
      vertex -3.18787 -1.80747 2.59881
      vertex -3.18787 -23.1925 2.59881
      vertex -2.8763 -1.52853 3.59583
    endloop
  endfacet
  facet normal -0.95448 0 0.298276
    outer loop
      vertex -2.8763 -23.4715 3.59583
      vertex -2.8763 -1.52853 3.59583
      vertex -3.18787 -23.1925 2.59881
    endloop
  endfacet
  facet normal -0.954482 0 0.298268
    outer loop
      vertex -2.8763 -1.52853 3.59583
      vertex -2.8763 -23.4715 3.59583
      vertex -2.6177 -1.08085 4.42337
    endloop
  endfacet
  facet normal -0.954482 0 0.298268
    outer loop
      vertex -2.6177 -23.9192 4.42337
      vertex -2.6177 -1.08085 4.42337
      vertex -2.8763 -23.4715 3.59583
    endloop
  endfacet
  facet normal -0.954478 0 0.298282
    outer loop
      vertex -2.6177 -1.08085 4.42337
      vertex -2.6177 -23.9192 4.42337
      vertex -2.5 -0.877098 4.8
    endloop
  endfacet
  facet normal -0.954478 0 0.298282
    outer loop
      vertex -2.5 -0.877098 4.8
      vertex -2.6177 -23.9192 4.42337
      vertex -2.5 -24.1229 4.8
    endloop
  endfacet
  facet normal 0 -1 0
    outer loop
      vertex -2.73904 -25 8.35987
      vertex 2.84738 -25 8.60543
      vertex -2.84738 -25 8.60543
    endloop
  endfacet
  facet normal 0 -1 0
    outer loop
      vertex -2.73904 -25 8.35987
      vertex 2.73904 -25 8.35987
      vertex 2.84738 -25 8.60543
    endloop
  endfacet
  facet normal 0 -1 0
    outer loop
      vertex -2.55274 -25 7.75493
      vertex 2.73904 -25 8.35987
      vertex -2.73904 -25 8.35987
    endloop
  endfacet
  facet normal 0 -1 0
    outer loop
      vertex -2.55274 -25 7.75493
      vertex 2.55274 -25 7.75493
      vertex 2.73904 -25 8.35987
    endloop
  endfacet
  facet normal 0 -1 0
    outer loop
      vertex -2.38034 -25 7.19514
      vertex 2.55274 -25 7.75493
      vertex -2.55274 -25 7.75493
    endloop
  endfacet
  facet normal 0 -1 0
    outer loop
      vertex -2.38034 -25 7.19514
      vertex 2.38034 -25 7.19514
      vertex 2.55274 -25 7.75493
    endloop
  endfacet
  facet normal 0 -1 0
    outer loop
      vertex -2.27185 -25 6.59918
      vertex 2.38034 -25 7.19514
      vertex -2.38034 -25 7.19514
    endloop
  endfacet
  facet normal 0 -1 0
    outer loop
      vertex -2.27185 -25 6.59918
      vertex 2.27185 -25 6.59918
      vertex 2.38034 -25 7.19514
    endloop
  endfacet
  facet normal 0 -1 0
    outer loop
      vertex -2.16354 -25 6.00417
      vertex 2.27185 -25 6.59918
      vertex -2.27185 -25 6.59918
    endloop
  endfacet
  facet normal 0 -1 0
    outer loop
      vertex -2.16354 -25 6.00417
      vertex 2.16354 -25 6.00417
      vertex 2.27185 -25 6.59918
    endloop
  endfacet
  facet normal 0 -1 0
    outer loop
      vertex -2.12803 -25 5.41476
      vertex 2.16354 -25 6.00417
      vertex -2.16354 -25 6.00417
    endloop
  endfacet
  facet normal 0 -1 0
    outer loop
      vertex -2.12803 -25 5.41476
      vertex 2.12803 -25 5.41476
      vertex 2.16354 -25 6.00417
    endloop
  endfacet
  facet normal 0 -1 0
    outer loop
      vertex -2.091 -25 4.8
      vertex 2.12803 -25 5.41476
      vertex -2.12803 -25 5.41476
    endloop
  endfacet
  facet normal 0 -1 0
    outer loop
      vertex -2.091 -25 4.8
      vertex 2.091 -25 4.8
      vertex 2.12803 -25 5.41476
    endloop
  endfacet
  facet normal 0 -1 0
    outer loop
      vertex -2.12803 -25 4.18524
      vertex 2.091 -25 4.8
      vertex -2.091 -25 4.8
    endloop
  endfacet
  facet normal 0 -1 0
    outer loop
      vertex -2.12803 -25 4.18524
      vertex 2.12803 -25 4.18524
      vertex 2.091 -25 4.8
    endloop
  endfacet
  facet normal 0 -1 0
    outer loop
      vertex -2.16354 -25 3.59583
      vertex 2.12803 -25 4.18524
      vertex -2.12803 -25 4.18524
    endloop
  endfacet
  facet normal 0 -1 0
    outer loop
      vertex -2.16354 -25 3.59583
      vertex 2.16354 -25 3.59583
      vertex 2.12803 -25 4.18524
    endloop
  endfacet
  facet normal 0 -1 0
    outer loop
      vertex -2.27185 -25 3.00082
      vertex 2.16354 -25 3.59583
      vertex -2.16354 -25 3.59583
    endloop
  endfacet
  facet normal 0 -1 0
    outer loop
      vertex -2.27185 -25 3.00082
      vertex 2.27185 -25 3.00082
      vertex 2.16354 -25 3.59583
    endloop
  endfacet
  facet normal 0 -1 0
    outer loop
      vertex -2.38034 -25 2.40486
      vertex 2.27185 -25 3.00082
      vertex -2.27185 -25 3.00082
    endloop
  endfacet
  facet normal 0 -1 0
    outer loop
      vertex -2.38034 -25 2.40486
      vertex 2.38034 -25 2.40486
      vertex 2.27185 -25 3.00082
    endloop
  endfacet
  facet normal 0 -1 0
    outer loop
      vertex -2.55274 -25 1.84507
      vertex 2.38034 -25 2.40486
      vertex -2.38034 -25 2.40486
    endloop
  endfacet
  facet normal 0 -1 0
    outer loop
      vertex -2.55274 -25 1.84507
      vertex 2.55274 -25 1.84507
      vertex 2.38034 -25 2.40486
    endloop
  endfacet
  facet normal 0 -1 0
    outer loop
      vertex -2.73904 -25 1.24012
      vertex 2.55274 -25 1.84507
      vertex -2.55274 -25 1.84507
    endloop
  endfacet
  facet normal 0 -1 0
    outer loop
      vertex -2.73904 -25 1.24012
      vertex 2.73904 -25 1.24012
      vertex 2.55274 -25 1.84507
    endloop
  endfacet
  facet normal 0 -1 0
    outer loop
      vertex -2.84738 -25 0.99457
      vertex 2.73904 -25 1.24012
      vertex -2.73904 -25 1.24012
    endloop
  endfacet
  facet normal 0 -1 -0
    outer loop
      vertex 2.73904 -25 1.24012
      vertex -2.84738 -25 0.99457
      vertex 2.84738 -25 0.99457
    endloop
  endfacet
  facet normal -0.954479 0 -0.298278
    outer loop
      vertex -3.30176 -1.86339 7.36564
      vertex -3.61246 -23.1269 8.35987
      vertex -3.61246 -1.87306 8.35987
    endloop
  endfacet
  facet normal -0.954482 0 -0.298269
    outer loop
      vertex -3.30176 -23.1366 7.36564
      vertex -3.30176 -1.86339 7.36564
      vertex -3.24848 -1.86174 7.19514
    endloop
  endfacet
  facet normal -0.954479 0 -0.298278
    outer loop
      vertex -3.24848 -23.1383 7.19514
      vertex -3.24848 -1.86174 7.19514
      vertex -3.18787 -1.80747 7.00119
    endloop
  endfacet
  facet normal -0.95448 0 -0.298276
    outer loop
      vertex -3.18787 -23.1925 7.00119
      vertex -3.18787 -1.80747 7.00119
      vertex -2.8763 -1.52853 6.00417
    endloop
  endfacet
  facet normal -0.954482 0 -0.298268
    outer loop
      vertex -2.8763 -23.4715 6.00417
      vertex -2.8763 -1.52853 6.00417
      vertex -2.6177 -1.08085 5.17663
    endloop
  endfacet
  facet normal -0.954478 0 -0.298282
    outer loop
      vertex -2.6177 -23.9192 5.17663
      vertex -2.6177 -1.08085 5.17663
      vertex -2.5 -0.877098 4.8
    endloop
  endfacet
  facet normal -0.954479 -0 -0.298278
    outer loop
      vertex -3.30176 -1.86339 7.36564
      vertex -3.30176 -23.1366 7.36564
      vertex -3.61246 -23.1269 8.35987
    endloop
  endfacet
  facet normal -0.954482 -0 -0.298269
    outer loop
      vertex -3.24848 -1.86174 7.19514
      vertex -3.24848 -23.1383 7.19514
      vertex -3.30176 -23.1366 7.36564
    endloop
  endfacet
  facet normal -0.954479 -0 -0.298278
    outer loop
      vertex -3.18787 -1.80747 7.00119
      vertex -3.18787 -23.1925 7.00119
      vertex -3.24848 -23.1383 7.19514
    endloop
  endfacet
  facet normal -0.95448 -0 -0.298276
    outer loop
      vertex -2.8763 -1.52853 6.00417
      vertex -2.8763 -23.4715 6.00417
      vertex -3.18787 -23.1925 7.00119
    endloop
  endfacet
  facet normal -0.954482 -0 -0.298268
    outer loop
      vertex -2.6177 -1.08085 5.17663
      vertex -2.6177 -23.9192 5.17663
      vertex -2.8763 -23.4715 6.00417
    endloop
  endfacet
  facet normal -0.954478 0 -0.298282
    outer loop
      vertex -2.6177 -23.9192 5.17663
      vertex -2.5 -0.877098 4.8
      vertex -2.5 -24.1229 4.8
    endloop
  endfacet
  facet normal -0.954478 0 -0.298281
    outer loop
      vertex -3.61246 -23.1269 8.35987
      vertex -3.80443 -1.70352 8.97416
      vertex -3.61246 -1.87306 8.35987
    endloop
  endfacet
  facet normal -0.954478 -0 -0.298281
    outer loop
      vertex -3.80443 -1.70352 8.97416
      vertex -3.61246 -23.1269 8.35987
      vertex -3.80443 -23.2965 8.97416
    endloop
  endfacet
  facet normal 0.954479 0 -0.298277
    outer loop
      vertex 3.78693 -1.71897 8.91817
      vertex 3.61246 -23.1269 8.35987
      vertex 3.61246 -1.87306 8.35987
    endloop
  endfacet
  facet normal 0.954479 0 -0.298277
    outer loop
      vertex 3.61246 -23.1269 8.35987
      vertex 3.78693 -1.71897 8.91817
      vertex 3.78693 -23.281 8.91817
    endloop
  endfacet
  facet normal 0.954479 0 -0.298278
    outer loop
      vertex 3.61246 -23.1269 8.35987
      vertex 3.30176 -1.86339 7.36564
      vertex 3.61246 -1.87306 8.35987
    endloop
  endfacet
  facet normal 0.954479 0 -0.298278
    outer loop
      vertex 3.30176 -23.1366 7.36564
      vertex 3.30176 -1.86339 7.36564
      vertex 3.61246 -23.1269 8.35987
    endloop
  endfacet
  facet normal 0.954482 0 -0.298269
    outer loop
      vertex 3.30176 -1.86339 7.36564
      vertex 3.30176 -23.1366 7.36564
      vertex 3.24848 -1.86174 7.19514
    endloop
  endfacet
  facet normal 0.954482 0 -0.298269
    outer loop
      vertex 3.24848 -23.1383 7.19514
      vertex 3.24848 -1.86174 7.19514
      vertex 3.30176 -23.1366 7.36564
    endloop
  endfacet
  facet normal 0.954479 0 -0.298278
    outer loop
      vertex 3.24848 -1.86174 7.19514
      vertex 3.24848 -23.1383 7.19514
      vertex 3.18787 -1.80747 7.00119
    endloop
  endfacet
  facet normal 0.954479 0 -0.298278
    outer loop
      vertex 3.18787 -23.1925 7.00119
      vertex 3.18787 -1.80747 7.00119
      vertex 3.24848 -23.1383 7.19514
    endloop
  endfacet
  facet normal 0.95448 0 -0.298276
    outer loop
      vertex 3.18787 -1.80747 7.00119
      vertex 3.18787 -23.1925 7.00119
      vertex 2.8763 -1.52853 6.00417
    endloop
  endfacet
  facet normal 0.95448 0 -0.298276
    outer loop
      vertex 2.8763 -23.4715 6.00417
      vertex 2.8763 -1.52853 6.00417
      vertex 3.18787 -23.1925 7.00119
    endloop
  endfacet
  facet normal 0.954482 0 -0.298268
    outer loop
      vertex 2.8763 -1.52853 6.00417
      vertex 2.8763 -23.4715 6.00417
      vertex 2.6177 -1.08085 5.17663
    endloop
  endfacet
  facet normal 0.954482 0 -0.298268
    outer loop
      vertex 2.6177 -23.9192 5.17663
      vertex 2.6177 -1.08085 5.17663
      vertex 2.8763 -23.4715 6.00417
    endloop
  endfacet
  facet normal 0.954478 0 -0.298282
    outer loop
      vertex 2.6177 -1.08085 5.17663
      vertex 2.6177 -23.9192 5.17663
      vertex 2.5 -0.877098 4.8
    endloop
  endfacet
  facet normal 0.954478 0 -0.298282
    outer loop
      vertex 2.5 -0.877098 4.8
      vertex 2.6177 -23.9192 5.17663
      vertex 2.5 -24.1229 4.8
    endloop
  endfacet
  facet normal -0 0 1
    outer loop
      vertex -2.8066 -1.19795 9.6
      vertex 2.84302 -23.802 9.6
      vertex 2.84302 -1.19795 9.6
    endloop
  endfacet
  facet normal 0 0 1
    outer loop
      vertex 2.84302 -23.802 9.6
      vertex -2.8066 -1.19795 9.6
      vertex -2.8066 -23.802 9.6
    endloop
  endfacet
  facet normal 0 1 -0
    outer loop
      vertex 2.73904 0 8.35987
      vertex -2.84738 0 8.60543
      vertex 2.84738 0 8.60543
    endloop
  endfacet
  facet normal 0 1 0
    outer loop
      vertex 2.73904 0 8.35987
      vertex -2.73904 0 8.35987
      vertex -2.84738 0 8.60543
    endloop
  endfacet
  facet normal 0 1 -0
    outer loop
      vertex 2.55274 0 7.75493
      vertex -2.73904 0 8.35987
      vertex 2.73904 0 8.35987
    endloop
  endfacet
  facet normal 0 1 0
    outer loop
      vertex 2.55274 0 7.75493
      vertex -2.55274 0 7.75493
      vertex -2.73904 0 8.35987
    endloop
  endfacet
  facet normal 0 1 -0
    outer loop
      vertex 2.38034 0 7.19514
      vertex -2.55274 0 7.75493
      vertex 2.55274 0 7.75493
    endloop
  endfacet
  facet normal 0 1 0
    outer loop
      vertex 2.38034 0 7.19514
      vertex -2.38034 0 7.19514
      vertex -2.55274 0 7.75493
    endloop
  endfacet
  facet normal 0 1 -0
    outer loop
      vertex 2.27185 0 6.59918
      vertex -2.38034 0 7.19514
      vertex 2.38034 0 7.19514
    endloop
  endfacet
  facet normal 0 1 0
    outer loop
      vertex 2.27185 0 6.59918
      vertex -2.27185 0 6.59918
      vertex -2.38034 0 7.19514
    endloop
  endfacet
  facet normal 0 1 -0
    outer loop
      vertex 2.16354 0 6.00417
      vertex -2.27185 0 6.59918
      vertex 2.27185 0 6.59918
    endloop
  endfacet
  facet normal 0 1 0
    outer loop
      vertex 2.16354 0 6.00417
      vertex -2.16354 0 6.00417
      vertex -2.27185 0 6.59918
    endloop
  endfacet
  facet normal 0 1 -0
    outer loop
      vertex 2.12803 0 5.41476
      vertex -2.16354 0 6.00417
      vertex 2.16354 0 6.00417
    endloop
  endfacet
  facet normal 0 1 0
    outer loop
      vertex 2.12803 0 5.41476
      vertex -2.12803 0 5.41476
      vertex -2.16354 0 6.00417
    endloop
  endfacet
  facet normal 0 1 -0
    outer loop
      vertex 2.091 0 4.8
      vertex -2.12803 0 5.41476
      vertex 2.12803 0 5.41476
    endloop
  endfacet
  facet normal 0 1 0
    outer loop
      vertex -2.12803 0 5.41476
      vertex 2.091 0 4.8
      vertex -2.091 0 4.8
    endloop
  endfacet
  facet normal 0.388095 0 0.92162
    outer loop
      vertex 2.84302 -1.19795 9.6
      vertex 3.1723 -24.0245 9.46134
      vertex 3.1723 -0.975543 9.46134
    endloop
  endfacet
  facet normal 0.388095 0 0.92162
    outer loop
      vertex 3.1723 -24.0245 9.46134
      vertex 2.84302 -1.19795 9.6
      vertex 2.84302 -23.802 9.6
    endloop
  endfacet
  facet normal -0.531339 -6.54962e-007 0.847159
    outer loop
      vertex -3.80443 -1.70352 8.97416
      vertex -2.8066 -1.19795 9.6
      vertex -3.02991 -0.973289 9.45994
    endloop
  endfacet
  facet normal -0.531339 0 0.847159
    outer loop
      vertex -2.8066 -1.19795 9.6
      vertex -3.80443 -1.70352 8.97416
      vertex -2.8066 -23.802 9.6
    endloop
  endfacet
  facet normal -0.531339 6.54917e-007 0.847159
    outer loop
      vertex -2.8066 -23.802 9.6
      vertex -3.80443 -23.2965 8.97416
      vertex -3.02991 -24.0267 9.45994
    endloop
  endfacet
  facet normal -0.531333 1.88057e-005 0.847163
    outer loop
      vertex -3.49785 -0.864133 9.16645
      vertex -3.02991 -0.973289 9.45994
      vertex -3.42214 -0.656842 9.21393
    endloop
  endfacet
  facet normal -0.531337 -4.01154e-006 0.847161
    outer loop
      vertex -3.80443 -1.70352 8.97416
      vertex -3.02991 -0.973289 9.45994
      vertex -3.49785 -0.864133 9.16645
    endloop
  endfacet
  facet normal -0.531333 -1.88044e-005 0.847163
    outer loop
      vertex -3.02991 -24.0267 9.45994
      vertex -3.49785 -24.1359 9.16645
      vertex -3.42214 -24.3432 9.21393
    endloop
  endfacet
  facet normal -0.531339 0 0.847159
    outer loop
      vertex -2.8066 -23.802 9.6
      vertex -3.80443 -1.70352 8.97416
      vertex -3.80443 -23.2965 8.97416
    endloop
  endfacet
  facet normal -0.531337 4.01135e-006 0.847161
    outer loop
      vertex -3.02991 -24.0267 9.45994
      vertex -3.80443 -23.2965 8.97416
      vertex -3.49785 -24.1359 9.16645
    endloop
  endfacet
  facet normal 0.38809 0 -0.921622
    outer loop
      vertex 2.84302 -23.802 5.07371e-015
      vertex 3.1723 -0.975543 0.138658
      vertex 3.1723 -24.0245 0.138658
    endloop
  endfacet
  facet normal 0.38809 -1.96755e-016 -0.921622
    outer loop
      vertex 3.1723 -0.975543 0.138658
      vertex 2.84302 -23.802 5.07371e-015
      vertex 2.84302 -1.19795 2.55359e-016
    endloop
  endfacet
  facet normal 0.662204 7.15327e-007 0.749323
    outer loop
      vertex 3.1723 -0.975543 9.46134
      vertex 3.78693 -1.71897 8.91817
      vertex 3.50353 -0.874261 9.16862
    endloop
  endfacet
  facet normal 0.662204 0 0.749324
    outer loop
      vertex 3.78693 -1.71897 8.91817
      vertex 3.1723 -0.975543 9.46134
      vertex 3.78693 -23.281 8.91817
    endloop
  endfacet
  facet normal 0.662213 -1.35331e-005 0.749316
    outer loop
      vertex 3.17389 -0.973289 9.45994
      vertex 3.50353 -0.874261 9.16862
      vertex 3.43657 -0.674674 9.2278
    endloop
  endfacet
  facet normal 0.662204 -0 0.749324
    outer loop
      vertex 3.1723 -24.0245 9.46134
      vertex 3.78693 -23.281 8.91817
      vertex 3.1723 -0.975543 9.46134
    endloop
  endfacet
  facet normal 0.662577 -0.00217808 0.748991
    outer loop
      vertex 3.50353 -0.874261 9.16862
      vertex 3.17389 -0.973289 9.45994
      vertex 3.1723 -0.975543 9.46134
    endloop
  endfacet
  facet normal 0.662204 -7.15388e-007 0.749323
    outer loop
      vertex 3.78693 -23.281 8.91817
      vertex 3.1723 -24.0245 9.46134
      vertex 3.50353 -24.1257 9.16862
    endloop
  endfacet
  facet normal 0.662588 0.00224616 0.748981
    outer loop
      vertex 3.17389 -24.0267 9.45994
      vertex 3.50353 -24.1257 9.16862
      vertex 3.1723 -24.0245 9.46134
    endloop
  endfacet
  facet normal 0.662213 1.35327e-005 0.749316
    outer loop
      vertex 3.50353 -24.1257 9.16862
      vertex 3.17389 -24.0267 9.45994
      vertex 3.43657 -24.3253 9.2278
    endloop
  endfacet
  facet normal 0.662207 -1.28762e-006 -0.749321
    outer loop
      vertex 3.1723 -24.0245 0.138658
      vertex 3.78693 -23.281 0.681831
      vertex 3.50353 -24.1257 0.43138
    endloop
  endfacet
  facet normal 0.662206 0 -0.749322
    outer loop
      vertex 3.78693 -23.281 0.681831
      vertex 3.1723 -24.0245 0.138658
      vertex 3.78693 -1.71897 0.681831
    endloop
  endfacet
  facet normal 0.662207 1.28751e-006 -0.749321
    outer loop
      vertex 3.78693 -1.71897 0.681831
      vertex 3.1723 -0.975543 0.138658
      vertex 3.50353 -0.874261 0.43138
    endloop
  endfacet
  facet normal 0.662207 1.96908e-006 -0.749321
    outer loop
      vertex 3.17389 -24.0267 0.140063
      vertex 3.50353 -24.1257 0.43138
      vertex 3.43657 -24.3253 0.372204
    endloop
  endfacet
  facet normal 0.662218 6.57596e-005 -0.749311
    outer loop
      vertex 3.50353 -24.1257 0.43138
      vertex 3.17389 -24.0267 0.140063
      vertex 3.1723 -24.0245 0.138658
    endloop
  endfacet
  facet normal 0.662206 0 -0.749322
    outer loop
      vertex 3.78693 -1.71897 0.681831
      vertex 3.1723 -24.0245 0.138658
      vertex 3.1723 -0.975543 0.138658
    endloop
  endfacet
  facet normal 0.662218 -6.37656e-005 -0.749311
    outer loop
      vertex 3.17389 -0.973289 0.140063
      vertex 3.50353 -0.874261 0.43138
      vertex 3.1723 -0.975543 0.138658
    endloop
  endfacet
  facet normal 0.662207 -1.96914e-006 -0.749321
    outer loop
      vertex 3.50353 -0.874261 0.43138
      vertex 3.17389 -0.973289 0.140063
      vertex 3.43657 -0.674674 0.372204
    endloop
  endfacet
  facet normal -0.531341 -7.99046e-006 -0.847158
    outer loop
      vertex -3.80443 -23.2965 0.625838
      vertex -2.8066 -23.802 5.07371e-015
      vertex -3.02991 -24.0267 0.140063
    endloop
  endfacet
  facet normal -0.531338 -1.80583e-016 -0.84716
    outer loop
      vertex -2.8066 -23.802 5.07371e-015
      vertex -3.80443 -23.2965 0.625838
      vertex -2.8066 -1.19795 2.55359e-016
    endloop
  endfacet
  facet normal -0.531337 3.78984e-006 -0.847161
    outer loop
      vertex -3.49785 -24.1359 0.433553
      vertex -3.02991 -24.0267 0.140063
      vertex -3.42214 -24.3432 0.386067
    endloop
  endfacet
  facet normal -0.531336 -6.3855e-007 -0.847161
    outer loop
      vertex -3.80443 -23.2965 0.625838
      vertex -3.02991 -24.0267 0.140063
      vertex -3.49785 -24.1359 0.433553
    endloop
  endfacet
  facet normal -0.531338 -0 -0.84716
    outer loop
      vertex -3.80443 -1.70352 0.625838
      vertex -2.8066 -1.19795 2.55359e-016
      vertex -3.80443 -23.2965 0.625838
    endloop
  endfacet
  facet normal -0.531337 -3.79011e-006 -0.847161
    outer loop
      vertex -3.02991 -0.973289 0.140063
      vertex -3.49785 -0.864133 0.433553
      vertex -3.42214 -0.656842 0.386067
    endloop
  endfacet
  facet normal -0.531341 7.99101e-006 -0.847158
    outer loop
      vertex -2.8066 -1.19795 2.55359e-016
      vertex -3.80443 -1.70352 0.625838
      vertex -3.02991 -0.973289 0.140063
    endloop
  endfacet
  facet normal -0.531336 6.38579e-007 -0.847161
    outer loop
      vertex -3.02991 -0.973289 0.140063
      vertex -3.80443 -1.70352 0.625838
      vertex -3.49785 -0.864133 0.433553
    endloop
  endfacet
  facet normal 0.00295591 -0.613314 -0.789834
    outer loop
      vertex 3.17389 -24.0267 0.140063
      vertex 3.28993 -24.5065 0.513067
      vertex 3.28324 -24.5148 0.519487
    endloop
  endfacet
  facet normal 1.95023e-005 -0.613759 -0.789493
    outer loop
      vertex 3.28993 -24.5065 0.513067
      vertex 3.17389 -24.0267 0.140063
      vertex 3.43657 -24.3253 0.372204
    endloop
  endfacet
  facet normal 0 -0.61373 -0.789516
    outer loop
      vertex 3.28324 -24.5148 0.519487
      vertex -3.02991 -24.0267 0.140063
      vertex 3.17389 -24.0267 0.140063
    endloop
  endfacet
  facet normal 0 -0.61373 -0.789516
    outer loop
      vertex -3.28324 -24.5148 0.519487
      vertex -3.02991 -24.0267 0.140063
      vertex 3.28324 -24.5148 0.519487
    endloop
  endfacet
  facet normal -0.00229861 -0.612984 -0.790092
    outer loop
      vertex -3.28993 -24.5065 0.513067
      vertex -3.02991 -24.0267 0.140063
      vertex -3.28324 -24.5148 0.519487
    endloop
  endfacet
  facet normal 0.000171813 -0.61382 -0.789446
    outer loop
      vertex -3.02991 -24.0267 0.140063
      vertex -3.28993 -24.5065 0.513067
      vertex -3.42214 -24.3432 0.386067
    endloop
  endfacet
  facet normal 0 -0.692518 0.7214
    outer loop
      vertex 3.28324 -24.5148 9.08051
      vertex -2.88807 -24.9589 8.65419
      vertex 2.88807 -24.9589 8.65419
    endloop
  endfacet
  facet normal 0 -0.692518 0.7214
    outer loop
      vertex -2.88807 -24.9589 8.65419
      vertex 3.28324 -24.5148 9.08051
      vertex -3.28324 -24.5148 9.08051
    endloop
  endfacet
  facet normal 0 -0.692519 -0.721399
    outer loop
      vertex -2.88807 -24.9589 0.945808
      vertex 3.28324 -24.5148 0.519487
      vertex 2.88807 -24.9589 0.945808
    endloop
  endfacet
  facet normal -0 -0.692519 -0.721399
    outer loop
      vertex 3.28324 -24.5148 0.519487
      vertex -2.88807 -24.9589 0.945808
      vertex -3.28324 -24.5148 0.519487
    endloop
  endfacet
  facet normal 0 -0.764623 -0.644478
    outer loop
      vertex -2.88807 -24.9589 0.945808
      vertex 2.84738 -25 0.99457
      vertex -2.84738 -25 0.99457
    endloop
  endfacet
  facet normal 0 -0.764623 -0.644478
    outer loop
      vertex 2.84738 -25 0.99457
      vertex -2.88807 -24.9589 0.945808
      vertex 2.88807 -24.9589 0.945808
    endloop
  endfacet
  facet normal -1.20949e-007 -0.613769 0.789486
    outer loop
      vertex 3.17389 -24.0267 9.45994
      vertex 3.28993 -24.5065 9.08693
      vertex 3.43657 -24.3253 9.2278
    endloop
  endfacet
  facet normal 0.00296532 -0.613319 0.78983
    outer loop
      vertex 3.28993 -24.5065 9.08693
      vertex 3.17389 -24.0267 9.45994
      vertex 3.28324 -24.5148 9.08051
    endloop
  endfacet
  facet normal 0 -0.613736 0.789512
    outer loop
      vertex -3.02991 -24.0267 9.45994
      vertex 3.28324 -24.5148 9.08051
      vertex 3.17389 -24.0267 9.45994
    endloop
  endfacet
  facet normal 0 -0.613736 0.789512
    outer loop
      vertex -3.02991 -24.0267 9.45994
      vertex -3.28324 -24.5148 9.08051
      vertex 3.28324 -24.5148 9.08051
    endloop
  endfacet
  facet normal -0.00230594 -0.612988 0.790089
    outer loop
      vertex -3.02991 -24.0267 9.45994
      vertex -3.28993 -24.5065 9.08693
      vertex -3.28324 -24.5148 9.08051
    endloop
  endfacet
  facet normal 0.000164508 -0.613824 0.789443
    outer loop
      vertex -3.28993 -24.5065 9.08693
      vertex -3.02991 -24.0267 9.45994
      vertex -3.42214 -24.3432 9.21393
    endloop
  endfacet
  facet normal -0.0170839 -0.546901 -0.837023
    outer loop
      vertex 3.17389 -24.0267 0.140063
      vertex 2.84302 -23.802 5.07371e-015
      vertex 3.1723 -24.0245 0.138658
    endloop
  endfacet
  facet normal 0 -0.528981 -0.848633
    outer loop
      vertex -3.02991 -24.0267 0.140063
      vertex 2.84302 -23.802 5.07371e-015
      vertex 3.17389 -24.0267 0.140063
    endloop
  endfacet
  facet normal -0 -0.528981 -0.848633
    outer loop
      vertex 2.84302 -23.802 5.07371e-015
      vertex -3.02991 -24.0267 0.140063
      vertex -2.8066 -23.802 5.07371e-015
    endloop
  endfacet
  facet normal 0 -0.76461 0.644493
    outer loop
      vertex -2.84738 -25 8.60543
      vertex 2.88807 -24.9589 8.65419
      vertex -2.88807 -24.9589 8.65419
    endloop
  endfacet
  facet normal 0 -0.76461 0.644493
    outer loop
      vertex 2.88807 -24.9589 8.65419
      vertex -2.84738 -25 8.60543
      vertex 2.84738 -25 8.60543
    endloop
  endfacet
  facet normal -0.0145918 -0.544303 0.838762
    outer loop
      vertex 2.84302 -23.802 9.6
      vertex 3.17389 -24.0267 9.45994
      vertex 3.1723 -24.0245 9.46134
    endloop
  endfacet
  facet normal 0 -0.528973 0.848638
    outer loop
      vertex -3.02991 -24.0267 9.45994
      vertex 2.84302 -23.802 9.6
      vertex -2.8066 -23.802 9.6
    endloop
  endfacet
  facet normal 0 -0.528973 0.848638
    outer loop
      vertex 2.84302 -23.802 9.6
      vertex -3.02991 -24.0267 9.45994
      vertex 3.17389 -24.0267 9.45994
    endloop
  endfacet
  facet normal -2.03812e-005 0.61376 0.789492
    outer loop
      vertex 3.28993 -0.493475 9.08693
      vertex 3.17389 -0.973289 9.45994
      vertex 3.43657 -0.674674 9.2278
    endloop
  endfacet
  facet normal -1.69141e-005 0.61376 0.789493
    outer loop
      vertex 3.28324 -0.485217 9.08051
      vertex 3.17389 -0.973289 9.45994
      vertex 3.28993 -0.493475 9.08693
    endloop
  endfacet
  facet normal 0 0.613758 0.789495
    outer loop
      vertex 3.28324 -0.485217 9.08051
      vertex -3.02991 -0.973289 9.45994
      vertex 3.17389 -0.973289 9.45994
    endloop
  endfacet
  facet normal -0 0.613758 0.789495
    outer loop
      vertex -3.28324 -0.485217 9.08051
      vertex -3.02991 -0.973289 9.45994
      vertex 3.28324 -0.485217 9.08051
    endloop
  endfacet
  facet normal 1.31601e-005 0.613762 0.789491
    outer loop
      vertex -3.28993 -0.493475 9.08693
      vertex -3.02991 -0.973289 9.45994
      vertex -3.28324 -0.485217 9.08051
    endloop
  endfacet
  facet normal -8.54736e-006 0.613755 0.789497
    outer loop
      vertex -3.02991 -0.973289 9.45994
      vertex -3.28993 -0.493475 9.08693
      vertex -3.42214 -0.656842 9.21393
    endloop
  endfacet
  facet normal 0 0.692531 -0.721388
    outer loop
      vertex 3.28324 -0.485217 0.519487
      vertex -2.88807 -0.041132 0.945808
      vertex 2.88807 -0.041132 0.945808
    endloop
  endfacet
  facet normal 0 0.692531 -0.721388
    outer loop
      vertex -2.88807 -0.041132 0.945808
      vertex 3.28324 -0.485217 0.519487
      vertex -3.28324 -0.485217 0.519487
    endloop
  endfacet
  facet normal -0 0.69253 0.721389
    outer loop
      vertex -2.88807 -0.041132 8.65419
      vertex 3.28324 -0.485217 9.08051
      vertex 2.88807 -0.041132 8.65419
    endloop
  endfacet
  facet normal 0 0.69253 0.721389
    outer loop
      vertex 3.28324 -0.485217 9.08051
      vertex -2.88807 -0.041132 8.65419
      vertex -3.28324 -0.485217 9.08051
    endloop
  endfacet
  facet normal 0 0.764363 0.644786
    outer loop
      vertex 2.84738 0 8.60543
      vertex -2.88807 -0.041132 8.65419
      vertex 2.88807 -0.041132 8.65419
    endloop
  endfacet
  facet normal 0 0.764363 0.644786
    outer loop
      vertex -2.88807 -0.041132 8.65419
      vertex 2.84738 0 8.60543
      vertex -2.84738 0 8.60543
    endloop
  endfacet
  facet normal -7.57532e-007 0.613751 -0.789499
    outer loop
      vertex 3.17389 -0.973289 0.140063
      vertex 3.28993 -0.493475 0.513067
      vertex 3.43657 -0.674674 0.372204
    endloop
  endfacet
  facet normal -2.6299e-005 0.613755 -0.789496
    outer loop
      vertex 3.17389 -0.973289 0.140063
      vertex 3.28324 -0.485217 0.519487
      vertex 3.28993 -0.493475 0.513067
    endloop
  endfacet
  facet normal 0 0.613752 -0.789499
    outer loop
      vertex -3.02991 -0.973289 0.140063
      vertex 3.28324 -0.485217 0.519487
      vertex 3.17389 -0.973289 0.140063
    endloop
  endfacet
  facet normal 0 0.613752 -0.789499
    outer loop
      vertex -3.02991 -0.973289 0.140063
      vertex -3.28324 -0.485217 0.519487
      vertex 3.28324 -0.485217 0.519487
    endloop
  endfacet
  facet normal 2.04621e-005 0.613758 -0.789494
    outer loop
      vertex -3.02991 -0.973289 0.140063
      vertex -3.28993 -0.493475 0.513067
      vertex -3.28324 -0.485217 0.519487
    endloop
  endfacet
  facet normal -1.24087e-006 0.613751 -0.7895
    outer loop
      vertex -3.28993 -0.493475 0.513067
      vertex -3.02991 -0.973289 0.140063
      vertex -3.42214 -0.656842 0.386067
    endloop
  endfacet
  facet normal 0.00255989 0.52632 0.850283
    outer loop
      vertex 3.17389 -0.973289 9.45994
      vertex 2.84302 -1.19795 9.6
      vertex 3.1723 -0.975543 9.46134
    endloop
  endfacet
  facet normal -0 0.529039 0.848597
    outer loop
      vertex -3.02991 -0.973289 9.45994
      vertex 2.84302 -1.19795 9.6
      vertex 3.17389 -0.973289 9.45994
    endloop
  endfacet
  facet normal 0 0.529039 0.848597
    outer loop
      vertex 2.84302 -1.19795 9.6
      vertex -3.02991 -0.973289 9.45994
      vertex -2.8066 -1.19795 9.6
    endloop
  endfacet
  facet normal 0 0.764376 -0.644771
    outer loop
      vertex 2.88807 -0.041132 0.945808
      vertex -2.84738 -8.80182e-016 0.99457
      vertex 2.84738 -8.80182e-016 0.99457
    endloop
  endfacet
  facet normal 0 0.764376 -0.644771
    outer loop
      vertex -2.84738 -8.80182e-016 0.99457
      vertex 2.88807 -0.041132 0.945808
      vertex -2.88807 -0.041132 0.945808
    endloop
  endfacet
  facet normal 0.000116405 0.528924 -0.848669
    outer loop
      vertex 2.84302 -1.19795 2.55359e-016
      vertex 3.17389 -0.973289 0.140063
      vertex 3.1723 -0.975543 0.138658
    endloop
  endfacet
  facet normal 0 0.529048 -0.848592
    outer loop
      vertex -3.02991 -0.973289 0.140063
      vertex 2.84302 -1.19795 2.55359e-016
      vertex -2.8066 -1.19795 2.55359e-016
    endloop
  endfacet
  facet normal 0 0.529048 -0.848592
    outer loop
      vertex 2.84302 -1.19795 2.55359e-016
      vertex -3.02991 -0.973289 0.140063
      vertex 3.17389 -0.973289 0.140063
    endloop
  endfacet
  facet normal 0.841531 0.392407 0.371271
    outer loop
      vertex 3.50353 -0.874261 0.43138
      vertex 3.43657 -0.674674 0.372204
      vertex 3.28993 -0.493475 0.513067
    endloop
  endfacet
  facet normal 0.872942 0.407058 -0.268842
    outer loop
      vertex 3.30176 -1.86339 7.36564
      vertex 2.38034 0 7.19514
      vertex 2.55274 0 7.75493
    endloop
  endfacet
  facet normal 0.87294 0.407057 -0.268848
    outer loop
      vertex 2.38034 0 7.19514
      vertex 3.30176 -1.86339 7.36564
      vertex 3.24848 -1.86174 7.19514
    endloop
  endfacet
  facet normal 0.904957 0.421995 -0.0545207
    outer loop
      vertex 2.16354 0 6.00417
      vertex 2.6177 -1.08085 5.17663
      vertex 2.12803 0 5.41476
    endloop
  endfacet
  facet normal 0.904962 0.421987 -0.0545082
    outer loop
      vertex 2.6177 -1.08085 5.17663
      vertex 2.16354 0 6.00417
      vertex 2.8763 -1.52853 6.00417
    endloop
  endfacet
  facet normal 0.894219 0.416981 -0.162786
    outer loop
      vertex 2.38034 0 7.19514
      vertex 3.18787 -1.80747 7.00119
      vertex 2.27185 0 6.59918
    endloop
  endfacet
  facet normal 0.894222 0.416981 -0.16277
    outer loop
      vertex 3.18787 -1.80747 7.00119
      vertex 2.38034 0 7.19514
      vertex 3.24848 -1.86174 7.19514
    endloop
  endfacet
  facet normal 0.841537 0.392411 -0.371254
    outer loop
      vertex 3.43657 -0.674674 9.2278
      vertex 3.50353 -0.874261 9.16862
      vertex 3.28993 -0.493475 9.08693
    endloop
  endfacet
  facet normal 0.872943 0.407059 -0.268836
    outer loop
      vertex 3.61246 -1.87306 8.35987
      vertex 2.55274 0 7.75493
      vertex 2.73904 0 8.35987
    endloop
  endfacet
  facet normal 0.872943 0.407058 -0.268838
    outer loop
      vertex 2.55274 0 7.75493
      vertex 3.61246 -1.87306 8.35987
      vertex 3.30176 -1.86339 7.36564
    endloop
  endfacet
  facet normal 0.904959 0.421992 -0.0545101
    outer loop
      vertex 2.12803 0 5.41476
      vertex 2.5 -0.877098 4.8
      vertex 2.091 0 4.8
    endloop
  endfacet
  facet normal 0.904958 0.421994 -0.0545136
    outer loop
      vertex 2.5 -0.877098 4.8
      vertex 2.12803 0 5.41476
      vertex 2.6177 -1.08085 5.17663
    endloop
  endfacet
  facet normal 0.904957 0.421995 0.0545207
    outer loop
      vertex 2.6177 -1.08085 4.42337
      vertex 2.16354 -2.7852e-016 3.59583
      vertex 2.12803 -1.42191e-016 4.18524
    endloop
  endfacet
  facet normal 0.904962 0.421987 0.0545082
    outer loop
      vertex 2.16354 -2.7852e-016 3.59583
      vertex 2.6177 -1.08085 4.42337
      vertex 2.8763 -1.52853 3.59583
    endloop
  endfacet
  facet normal 0.87294 0.407057 0.268848
    outer loop
      vertex 3.30176 -1.86339 2.23436
      vertex 2.38034 -5.53988e-016 2.40486
      vertex 3.24848 -1.86174 2.40486
    endloop
  endfacet
  facet normal 0.872942 0.407058 0.268842
    outer loop
      vertex 2.38034 -5.53988e-016 2.40486
      vertex 3.30176 -1.86339 2.23436
      vertex 2.55274 -6.83464e-016 1.84507
    endloop
  endfacet
  facet normal 0.872944 0.407058 0.268836
    outer loop
      vertex 3.61246 -1.87306 1.24012
      vertex 2.55274 -6.83464e-016 1.84507
      vertex 3.30176 -1.86339 2.23436
    endloop
  endfacet
  facet normal 0.872944 0.40706 0.268831
    outer loop
      vertex 2.55274 -6.83464e-016 1.84507
      vertex 3.61246 -1.87306 1.24012
      vertex 2.73904 -8.23387e-016 1.24012
    endloop
  endfacet
  facet normal 0.894222 0.416979 -0.162776
    outer loop
      vertex 2.27185 0 6.59918
      vertex 2.8763 -1.52853 6.00417
      vertex 2.16354 0 6.00417
    endloop
  endfacet
  facet normal 0.894219 0.416982 -0.162784
    outer loop
      vertex 2.8763 -1.52853 6.00417
      vertex 2.27185 0 6.59918
      vertex 3.18787 -1.80747 7.00119
    endloop
  endfacet
  facet normal 0.904959 0.421992 0.0545101
    outer loop
      vertex 2.5 -0.877098 4.8
      vertex 2.12803 -1.42191e-016 4.18524
      vertex 2.091 0 4.8
    endloop
  endfacet
  facet normal 0.904958 0.421994 0.0545136
    outer loop
      vertex 2.12803 -1.42191e-016 4.18524
      vertex 2.5 -0.877098 4.8
      vertex 2.6177 -1.08085 4.42337
    endloop
  endfacet
  facet normal 0.894219 0.416981 0.162786
    outer loop
      vertex 3.18787 -1.80747 2.59881
      vertex 2.38034 -5.53988e-016 2.40486
      vertex 2.27185 -4.16145e-016 3.00082
    endloop
  endfacet
  facet normal 0.894222 0.416981 0.16277
    outer loop
      vertex 2.38034 -5.53988e-016 2.40486
      vertex 3.18787 -1.80747 2.59881
      vertex 3.24848 -1.86174 2.40486
    endloop
  endfacet
  facet normal 0.841553 0.392328 0.371305
    outer loop
      vertex 2.73904 -8.23387e-016 1.24012
      vertex 2.88807 -0.041132 0.945808
      vertex 2.84738 -8.80182e-016 0.99457
    endloop
  endfacet
  facet normal 0.841527 0.392406 0.371281
    outer loop
      vertex 2.73904 -8.23387e-016 1.24012
      vertex 3.28324 -0.485217 0.519487
      vertex 2.88807 -0.041132 0.945808
    endloop
  endfacet
  facet normal 0.841526 0.392419 0.371271
    outer loop
      vertex 3.50353 -0.874261 0.43138
      vertex 3.28324 -0.485217 0.519487
      vertex 2.73904 -8.23387e-016 1.24012
    endloop
  endfacet
  facet normal 0.84123 0.391999 0.372383
    outer loop
      vertex 3.28324 -0.485217 0.519487
      vertex 3.50353 -0.874261 0.43138
      vertex 3.28993 -0.493475 0.513067
    endloop
  endfacet
  facet normal 0.841526 0.392409 0.371281
    outer loop
      vertex 3.61246 -1.87306 1.24012
      vertex 3.50353 -0.874261 0.43138
      vertex 2.73904 -8.23387e-016 1.24012
    endloop
  endfacet
  facet normal 0.841519 0.392415 0.37129
    outer loop
      vertex 3.50353 -0.874261 0.43138
      vertex 3.61246 -1.87306 1.24012
      vertex 3.78693 -1.71897 0.681831
    endloop
  endfacet
  facet normal 0.894222 0.416979 0.162776
    outer loop
      vertex 2.8763 -1.52853 3.59583
      vertex 2.27185 -4.16145e-016 3.00082
      vertex 2.16354 -2.7852e-016 3.59583
    endloop
  endfacet
  facet normal 0.894219 0.416982 0.162784
    outer loop
      vertex 2.27185 -4.16145e-016 3.00082
      vertex 2.8763 -1.52853 3.59583
      vertex 3.18787 -1.80747 2.59881
    endloop
  endfacet
  facet normal 0.841546 0.392361 -0.371286
    outer loop
      vertex 2.88807 -0.041132 8.65419
      vertex 2.73904 0 8.35987
      vertex 2.84738 0 8.60543
    endloop
  endfacet
  facet normal 0.841527 0.392418 -0.371269
    outer loop
      vertex 3.28324 -0.485217 9.08051
      vertex 2.73904 0 8.35987
      vertex 2.88807 -0.041132 8.65419
    endloop
  endfacet
  facet normal 0.84123 0.391995 -0.372388
    outer loop
      vertex 3.50353 -0.874261 9.16862
      vertex 3.28324 -0.485217 9.08051
      vertex 3.28993 -0.493475 9.08693
    endloop
  endfacet
  facet normal 0.841527 0.392417 -0.37127
    outer loop
      vertex 3.28324 -0.485217 9.08051
      vertex 3.50353 -0.874261 9.16862
      vertex 2.73904 0 8.35987
    endloop
  endfacet
  facet normal 0.841523 0.392414 -0.371283
    outer loop
      vertex 3.61246 -1.87306 8.35987
      vertex 3.50353 -0.874261 9.16862
      vertex 3.78693 -1.71897 8.91817
    endloop
  endfacet
  facet normal 0.841527 0.39241 -0.371278
    outer loop
      vertex 3.50353 -0.874261 9.16862
      vertex 3.61246 -1.87306 8.35987
      vertex 2.73904 0 8.35987
    endloop
  endfacet
  facet normal -0.904957 0.421995 -0.0545207
    outer loop
      vertex -2.6177 -1.08085 5.17663
      vertex -2.16354 0 6.00417
      vertex -2.12803 0 5.41476
    endloop
  endfacet
  facet normal -0.904962 0.421987 -0.0545082
    outer loop
      vertex -2.16354 0 6.00417
      vertex -2.6177 -1.08085 5.17663
      vertex -2.8763 -1.52853 6.00417
    endloop
  endfacet
  facet normal -0.904959 0.421992 -0.0545101
    outer loop
      vertex -2.5 -0.877098 4.8
      vertex -2.12803 0 5.41476
      vertex -2.091 0 4.8
    endloop
  endfacet
  facet normal -0.904958 0.421994 -0.0545136
    outer loop
      vertex -2.12803 0 5.41476
      vertex -2.5 -0.877098 4.8
      vertex -2.6177 -1.08085 5.17663
    endloop
  endfacet
  facet normal -0.894219 0.416981 0.162786
    outer loop
      vertex -2.38034 -5.53988e-016 2.40486
      vertex -3.18787 -1.80747 2.59881
      vertex -2.27185 -4.16145e-016 3.00082
    endloop
  endfacet
  facet normal -0.894222 0.416981 0.16277
    outer loop
      vertex -3.18787 -1.80747 2.59881
      vertex -2.38034 -5.53988e-016 2.40486
      vertex -3.24848 -1.86174 2.40486
    endloop
  endfacet
  facet normal -0.894219 0.416981 -0.162786
    outer loop
      vertex -3.18787 -1.80747 7.00119
      vertex -2.38034 0 7.19514
      vertex -2.27185 0 6.59918
    endloop
  endfacet
  facet normal -0.894222 0.416981 -0.16277
    outer loop
      vertex -2.38034 0 7.19514
      vertex -3.18787 -1.80747 7.00119
      vertex -3.24848 -1.86174 7.19514
    endloop
  endfacet
  facet normal -0.894222 0.416979 -0.162776
    outer loop
      vertex -2.8763 -1.52853 6.00417
      vertex -2.27185 0 6.59918
      vertex -2.16354 0 6.00417
    endloop
  endfacet
  facet normal -0.894219 0.416982 -0.162784
    outer loop
      vertex -2.27185 0 6.59918
      vertex -2.8763 -1.52853 6.00417
      vertex -3.18787 -1.80747 7.00119
    endloop
  endfacet
  facet normal -0.904959 0.421992 0.0545101
    outer loop
      vertex -2.12803 -1.42191e-016 4.18524
      vertex -2.5 -0.877098 4.8
      vertex -2.091 0 4.8
    endloop
  endfacet
  facet normal -0.904958 0.421994 0.0545136
    outer loop
      vertex -2.5 -0.877098 4.8
      vertex -2.12803 -1.42191e-016 4.18524
      vertex -2.6177 -1.08085 4.42337
    endloop
  endfacet
  facet normal -0.841553 0.392328 0.371305
    outer loop
      vertex -2.88807 -0.041132 0.945808
      vertex -2.73904 -8.23387e-016 1.24012
      vertex -2.84738 -8.80182e-016 0.99457
    endloop
  endfacet
  facet normal -0.841527 0.392406 0.371281
    outer loop
      vertex -3.28324 -0.485217 0.519487
      vertex -2.73904 -8.23387e-016 1.24012
      vertex -2.88807 -0.041132 0.945808
    endloop
  endfacet
  facet normal -0.84123 0.392004 0.372377
    outer loop
      vertex -3.49785 -0.864133 0.433553
      vertex -3.28324 -0.485217 0.519487
      vertex -3.28993 -0.493475 0.513067
    endloop
  endfacet
  facet normal -0.841525 0.392423 0.371268
    outer loop
      vertex -3.28324 -0.485217 0.519487
      vertex -3.49785 -0.864133 0.433553
      vertex -2.73904 -8.23387e-016 1.24012
    endloop
  endfacet
  facet normal -0.84152 0.392413 0.371289
    outer loop
      vertex -3.61246 -1.87306 1.24012
      vertex -3.49785 -0.864133 0.433553
      vertex -3.80443 -1.70352 0.625838
    endloop
  endfacet
  facet normal -0.841525 0.392409 0.371283
    outer loop
      vertex -3.49785 -0.864133 0.433553
      vertex -3.61246 -1.87306 1.24012
      vertex -2.73904 -8.23387e-016 1.24012
    endloop
  endfacet
  facet normal -0.841546 0.392361 -0.371286
    outer loop
      vertex -2.73904 0 8.35987
      vertex -2.88807 -0.041132 8.65419
      vertex -2.84738 0 8.60543
    endloop
  endfacet
  facet normal -0.841527 0.392418 -0.371269
    outer loop
      vertex -2.73904 0 8.35987
      vertex -3.28324 -0.485217 9.08051
      vertex -2.88807 -0.041132 8.65419
    endloop
  endfacet
  facet normal -0.841527 0.392417 -0.371269
    outer loop
      vertex -3.49785 -0.864133 9.16645
      vertex -3.28324 -0.485217 9.08051
      vertex -2.73904 0 8.35987
    endloop
  endfacet
  facet normal -0.84123 0.391995 -0.372388
    outer loop
      vertex -3.28324 -0.485217 9.08051
      vertex -3.49785 -0.864133 9.16645
      vertex -3.28993 -0.493475 9.08693
    endloop
  endfacet
  facet normal -0.841527 0.392409 -0.371278
    outer loop
      vertex -3.61246 -1.87306 8.35987
      vertex -3.49785 -0.864133 9.16645
      vertex -2.73904 0 8.35987
    endloop
  endfacet
  facet normal -0.841521 0.392415 -0.371285
    outer loop
      vertex -3.49785 -0.864133 9.16645
      vertex -3.61246 -1.87306 8.35987
      vertex -3.80443 -1.70352 8.97416
    endloop
  endfacet
  facet normal -0.87294 0.407057 -0.268848
    outer loop
      vertex -3.30176 -1.86339 7.36564
      vertex -2.38034 0 7.19514
      vertex -3.24848 -1.86174 7.19514
    endloop
  endfacet
  facet normal -0.872942 0.407058 -0.268842
    outer loop
      vertex -2.38034 0 7.19514
      vertex -3.30176 -1.86339 7.36564
      vertex -2.55274 0 7.75493
    endloop
  endfacet
  facet normal -0.904957 0.421995 0.0545207
    outer loop
      vertex -2.16354 -2.7852e-016 3.59583
      vertex -2.6177 -1.08085 4.42337
      vertex -2.12803 -1.42191e-016 4.18524
    endloop
  endfacet
  facet normal -0.904962 0.421987 0.0545082
    outer loop
      vertex -2.6177 -1.08085 4.42337
      vertex -2.16354 -2.7852e-016 3.59583
      vertex -2.8763 -1.52853 3.59583
    endloop
  endfacet
  facet normal -0.841528 0.392399 -0.371286
    outer loop
      vertex -3.42214 -0.656842 9.21393
      vertex -3.28993 -0.493475 9.08693
      vertex -3.49785 -0.864133 9.16645
    endloop
  endfacet
  facet normal -0.872943 0.407058 -0.268838
    outer loop
      vertex -3.61246 -1.87306 8.35987
      vertex -2.55274 0 7.75493
      vertex -3.30176 -1.86339 7.36564
    endloop
  endfacet
  facet normal -0.872943 0.407059 -0.268836
    outer loop
      vertex -2.55274 0 7.75493
      vertex -3.61246 -1.87306 8.35987
      vertex -2.73904 0 8.35987
    endloop
  endfacet
  facet normal -0.894222 0.416979 0.162776
    outer loop
      vertex -2.27185 -4.16145e-016 3.00082
      vertex -2.8763 -1.52853 3.59583
      vertex -2.16354 -2.7852e-016 3.59583
    endloop
  endfacet
  facet normal -0.894219 0.416982 0.162784
    outer loop
      vertex -2.8763 -1.52853 3.59583
      vertex -2.27185 -4.16145e-016 3.00082
      vertex -3.18787 -1.80747 2.59881
    endloop
  endfacet
  facet normal -0.872944 0.40706 0.268831
    outer loop
      vertex -3.61246 -1.87306 1.24012
      vertex -2.55274 -6.83464e-016 1.84507
      vertex -2.73904 -8.23387e-016 1.24012
    endloop
  endfacet
  facet normal -0.872944 0.407058 0.268836
    outer loop
      vertex -2.55274 -6.83464e-016 1.84507
      vertex -3.61246 -1.87306 1.24012
      vertex -3.30176 -1.86339 2.23436
    endloop
  endfacet
  facet normal -0.872942 0.407058 0.268842
    outer loop
      vertex -3.30176 -1.86339 2.23436
      vertex -2.38034 -5.53988e-016 2.40486
      vertex -2.55274 -6.83464e-016 1.84507
    endloop
  endfacet
  facet normal -0.87294 0.407057 0.268848
    outer loop
      vertex -2.38034 -5.53988e-016 2.40486
      vertex -3.30176 -1.86339 2.23436
      vertex -3.24848 -1.86174 2.40486
    endloop
  endfacet
  facet normal -0.841529 0.392408 0.371276
    outer loop
      vertex -3.28993 -0.493475 0.513067
      vertex -3.42214 -0.656842 0.386067
      vertex -3.49785 -0.864133 0.433553
    endloop
  endfacet
  facet normal 0.872948 -0.407055 0.268825
    outer loop
      vertex 2.55274 -25 1.84507
      vertex 3.61246 -23.1269 1.24012
      vertex 3.30176 -23.1366 2.23436
    endloop
  endfacet
  facet normal 0.872948 -0.407052 0.268832
    outer loop
      vertex 3.61246 -23.1269 1.24012
      vertex 2.55274 -25 1.84507
      vertex 2.73904 -25 1.24012
    endloop
  endfacet
  facet normal 0.841518 -0.392418 -0.37129
    outer loop
      vertex 3.50353 -24.1257 9.16862
      vertex 3.61246 -23.1269 8.35987
      vertex 3.78693 -23.281 8.91817
    endloop
  endfacet
  facet normal 0.842085 -0.393136 -0.36924
    outer loop
      vertex 3.28324 -24.5148 9.08051
      vertex 3.50353 -24.1257 9.16862
      vertex 3.28993 -24.5065 9.08693
    endloop
  endfacet
  facet normal 0.841532 -0.39235 -0.371328
    outer loop
      vertex 2.73904 -25 8.35987
      vertex 3.50353 -24.1257 9.16862
      vertex 3.28324 -24.5148 9.08051
    endloop
  endfacet
  facet normal 0.841532 -0.392357 -0.371322
    outer loop
      vertex 2.73904 -25 8.35987
      vertex 3.28324 -24.5148 9.08051
      vertex 2.88807 -24.9589 8.65419
    endloop
  endfacet
  facet normal 0.841445 -0.392619 -0.371242
    outer loop
      vertex 2.73904 -25 8.35987
      vertex 2.88807 -24.9589 8.65419
      vertex 2.84738 -25 8.60543
    endloop
  endfacet
  facet normal 0.841533 -0.392404 -0.37127
    outer loop
      vertex 3.50353 -24.1257 9.16862
      vertex 2.73904 -25 8.35987
      vertex 3.61246 -23.1269 8.35987
    endloop
  endfacet
  facet normal 0.841531 -0.392387 0.371293
    outer loop
      vertex 3.43657 -24.3253 0.372204
      vertex 3.50353 -24.1257 0.43138
      vertex 3.28993 -24.5065 0.513067
    endloop
  endfacet
  facet normal 0.872947 -0.407052 -0.268836
    outer loop
      vertex 2.55274 -25 7.75493
      vertex 3.61246 -23.1269 8.35987
      vertex 2.73904 -25 8.35987
    endloop
  endfacet
  facet normal 0.872948 -0.407055 -0.268828
    outer loop
      vertex 3.61246 -23.1269 8.35987
      vertex 2.55274 -25 7.75493
      vertex 3.30176 -23.1366 7.36564
    endloop
  endfacet
  facet normal 0.90496 -0.421991 0.0545101
    outer loop
      vertex 2.12803 -25 4.18524
      vertex 2.5 -24.1229 4.8
      vertex 2.091 -25 4.8
    endloop
  endfacet
  facet normal 0.904945 -0.422017 0.0545554
    outer loop
      vertex 2.5 -24.1229 4.8
      vertex 2.12803 -25 4.18524
      vertex 2.6177 -23.9192 4.42337
    endloop
  endfacet
  facet normal 0.872943 -0.407057 -0.268842
    outer loop
      vertex 2.38034 -25 7.19514
      vertex 3.30176 -23.1366 7.36564
      vertex 2.55274 -25 7.75493
    endloop
  endfacet
  facet normal 0.872965 -0.407078 -0.268736
    outer loop
      vertex 3.30176 -23.1366 7.36564
      vertex 2.38034 -25 7.19514
      vertex 3.24848 -23.1383 7.19514
    endloop
  endfacet
  facet normal 0.841536 -0.392392 -0.371275
    outer loop
      vertex 3.50353 -24.1257 9.16862
      vertex 3.43657 -24.3253 9.2278
      vertex 3.28993 -24.5065 9.08693
    endloop
  endfacet
  facet normal 0.894222 -0.416975 0.162786
    outer loop
      vertex 2.38034 -25 2.40486
      vertex 3.18787 -23.1925 2.59881
      vertex 2.27185 -25 3.00082
    endloop
  endfacet
  facet normal 0.894197 -0.416978 0.162913
    outer loop
      vertex 3.18787 -23.1925 2.59881
      vertex 2.38034 -25 2.40486
      vertex 3.24848 -23.1383 2.40486
    endloop
  endfacet
  facet normal 0.894223 -0.416982 -0.16276
    outer loop
      vertex 2.27185 -25 6.59918
      vertex 2.8763 -23.4715 6.00417
      vertex 3.18787 -23.1925 7.00119
    endloop
  endfacet
  facet normal 0.894219 -0.416986 -0.162775
    outer loop
      vertex 2.8763 -23.4715 6.00417
      vertex 2.27185 -25 6.59918
      vertex 2.16354 -25 6.00417
    endloop
  endfacet
  facet normal 0.894197 -0.416978 -0.162913
    outer loop
      vertex 2.38034 -25 7.19514
      vertex 3.18787 -23.1925 7.00119
      vertex 3.24848 -23.1383 7.19514
    endloop
  endfacet
  facet normal 0.894222 -0.416975 -0.162786
    outer loop
      vertex 3.18787 -23.1925 7.00119
      vertex 2.38034 -25 7.19514
      vertex 2.27185 -25 6.59918
    endloop
  endfacet
  facet normal 0.872965 -0.407078 0.268736
    outer loop
      vertex 2.38034 -25 2.40486
      vertex 3.30176 -23.1366 2.23436
      vertex 3.24848 -23.1383 2.40486
    endloop
  endfacet
  facet normal 0.872943 -0.407057 0.268842
    outer loop
      vertex 3.30176 -23.1366 2.23436
      vertex 2.38034 -25 2.40486
      vertex 2.55274 -25 1.84507
    endloop
  endfacet
  facet normal 0.841514 -0.392419 0.371297
    outer loop
      vertex 3.61246 -23.1269 1.24012
      vertex 3.50353 -24.1257 0.43138
      vertex 3.78693 -23.281 0.681831
    endloop
  endfacet
  facet normal 0.841531 -0.392403 0.371274
    outer loop
      vertex 2.73904 -25 1.24012
      vertex 3.50353 -24.1257 0.43138
      vertex 3.61246 -23.1269 1.24012
    endloop
  endfacet
  facet normal 0.842085 -0.39314 0.369235
    outer loop
      vertex 3.50353 -24.1257 0.43138
      vertex 3.28324 -24.5148 0.519487
      vertex 3.28993 -24.5065 0.513067
    endloop
  endfacet
  facet normal 0.841531 -0.392352 0.371329
    outer loop
      vertex 3.50353 -24.1257 0.43138
      vertex 2.73904 -25 1.24012
      vertex 3.28324 -24.5148 0.519487
    endloop
  endfacet
  facet normal 0.841532 -0.392345 0.371334
    outer loop
      vertex 3.28324 -24.5148 0.519487
      vertex 2.73904 -25 1.24012
      vertex 2.88807 -24.9589 0.945808
    endloop
  endfacet
  facet normal 0.841452 -0.392586 0.37126
    outer loop
      vertex 2.88807 -24.9589 0.945808
      vertex 2.73904 -25 1.24012
      vertex 2.84738 -25 0.99457
    endloop
  endfacet
  facet normal 0.894219 -0.416986 0.162775
    outer loop
      vertex 2.27185 -25 3.00082
      vertex 2.8763 -23.4715 3.59583
      vertex 2.16354 -25 3.59583
    endloop
  endfacet
  facet normal 0.894223 -0.416982 0.16276
    outer loop
      vertex 2.8763 -23.4715 3.59583
      vertex 2.27185 -25 3.00082
      vertex 3.18787 -23.1925 2.59881
    endloop
  endfacet
  facet normal 0.90495 -0.422011 0.0545202
    outer loop
      vertex 2.16354 -25 3.59583
      vertex 2.6177 -23.9192 4.42337
      vertex 2.12803 -25 4.18524
    endloop
  endfacet
  facet normal 0.904959 -0.421995 0.0544934
    outer loop
      vertex 2.6177 -23.9192 4.42337
      vertex 2.16354 -25 3.59583
      vertex 2.8763 -23.4715 3.59583
    endloop
  endfacet
  facet normal 0.904959 -0.421995 -0.0544934
    outer loop
      vertex 2.16354 -25 6.00417
      vertex 2.6177 -23.9192 5.17663
      vertex 2.8763 -23.4715 6.00417
    endloop
  endfacet
  facet normal 0.90495 -0.422011 -0.0545202
    outer loop
      vertex 2.6177 -23.9192 5.17663
      vertex 2.16354 -25 6.00417
      vertex 2.12803 -25 5.41476
    endloop
  endfacet
  facet normal 0.904945 -0.422017 -0.0545554
    outer loop
      vertex 2.12803 -25 5.41476
      vertex 2.5 -24.1229 4.8
      vertex 2.6177 -23.9192 5.17663
    endloop
  endfacet
  facet normal 0.90496 -0.421991 -0.0545101
    outer loop
      vertex 2.5 -24.1229 4.8
      vertex 2.12803 -25 5.41476
      vertex 2.091 -25 4.8
    endloop
  endfacet
  facet normal -0.90495 -0.422011 -0.0545202
    outer loop
      vertex -2.16354 -25 6.00417
      vertex -2.6177 -23.9192 5.17663
      vertex -2.12803 -25 5.41476
    endloop
  endfacet
  facet normal -0.904959 -0.421995 -0.0544934
    outer loop
      vertex -2.6177 -23.9192 5.17663
      vertex -2.16354 -25 6.00417
      vertex -2.8763 -23.4715 6.00417
    endloop
  endfacet
  facet normal -0.90496 -0.421991 -0.0545101
    outer loop
      vertex -2.12803 -25 5.41476
      vertex -2.5 -24.1229 4.8
      vertex -2.091 -25 4.8
    endloop
  endfacet
  facet normal -0.904945 -0.422017 -0.0545554
    outer loop
      vertex -2.5 -24.1229 4.8
      vertex -2.12803 -25 5.41476
      vertex -2.6177 -23.9192 5.17663
    endloop
  endfacet
  facet normal -0.894222 -0.416975 -0.162786
    outer loop
      vertex -2.38034 -25 7.19514
      vertex -3.18787 -23.1925 7.00119
      vertex -2.27185 -25 6.59918
    endloop
  endfacet
  facet normal -0.894197 -0.416978 -0.162913
    outer loop
      vertex -3.18787 -23.1925 7.00119
      vertex -2.38034 -25 7.19514
      vertex -3.24848 -23.1383 7.19514
    endloop
  endfacet
  facet normal -0.841465 -0.392393 -0.371436
    outer loop
      vertex -3.28993 -24.5065 9.08693
      vertex -3.42214 -24.3432 9.21393
      vertex -3.49785 -24.1359 9.16645
    endloop
  endfacet
  facet normal -0.894219 -0.416986 -0.162775
    outer loop
      vertex -2.27185 -25 6.59918
      vertex -2.8763 -23.4715 6.00417
      vertex -2.16354 -25 6.00417
    endloop
  endfacet
  facet normal -0.894223 -0.416982 -0.16276
    outer loop
      vertex -2.8763 -23.4715 6.00417
      vertex -2.27185 -25 6.59918
      vertex -3.18787 -23.1925 7.00119
    endloop
  endfacet
  facet normal -0.872948 -0.407055 -0.268828
    outer loop
      vertex -2.55274 -25 7.75493
      vertex -3.61246 -23.1269 8.35987
      vertex -3.30176 -23.1366 7.36564
    endloop
  endfacet
  facet normal -0.872947 -0.407052 -0.268836
    outer loop
      vertex -3.61246 -23.1269 8.35987
      vertex -2.55274 -25 7.75493
      vertex -2.73904 -25 8.35987
    endloop
  endfacet
  facet normal -0.841507 -0.39241 0.371323
    outer loop
      vertex -3.49785 -24.1359 0.433553
      vertex -3.61246 -23.1269 1.24012
      vertex -3.80443 -23.2965 0.625838
    endloop
  endfacet
  facet normal -0.842093 -0.393253 0.369097
    outer loop
      vertex -3.28324 -24.5148 0.519487
      vertex -3.49785 -24.1359 0.433553
      vertex -3.28993 -24.5065 0.513067
    endloop
  endfacet
  facet normal -0.84152 -0.392437 0.371264
    outer loop
      vertex -2.73904 -25 1.24012
      vertex -3.49785 -24.1359 0.433553
      vertex -3.28324 -24.5148 0.519487
    endloop
  endfacet
  facet normal -0.841532 -0.392345 0.371334
    outer loop
      vertex -2.73904 -25 1.24012
      vertex -3.28324 -24.5148 0.519487
      vertex -2.88807 -24.9589 0.945808
    endloop
  endfacet
  facet normal -0.841452 -0.392586 0.37126
    outer loop
      vertex -2.73904 -25 1.24012
      vertex -2.88807 -24.9589 0.945808
      vertex -2.84738 -25 0.99457
    endloop
  endfacet
  facet normal -0.84152 -0.392398 0.371306
    outer loop
      vertex -3.49785 -24.1359 0.433553
      vertex -2.73904 -25 1.24012
      vertex -3.61246 -23.1269 1.24012
    endloop
  endfacet
  facet normal -0.872965 -0.407078 -0.268736
    outer loop
      vertex -2.38034 -25 7.19514
      vertex -3.30176 -23.1366 7.36564
      vertex -3.24848 -23.1383 7.19514
    endloop
  endfacet
  facet normal -0.872943 -0.407057 -0.268842
    outer loop
      vertex -3.30176 -23.1366 7.36564
      vertex -2.38034 -25 7.19514
      vertex -2.55274 -25 7.75493
    endloop
  endfacet
  facet normal -0.841508 -0.392412 -0.371319
    outer loop
      vertex -3.61246 -23.1269 8.35987
      vertex -3.49785 -24.1359 9.16645
      vertex -3.80443 -23.2965 8.97416
    endloop
  endfacet
  facet normal -0.841522 -0.392399 -0.3713
    outer loop
      vertex -2.73904 -25 8.35987
      vertex -3.49785 -24.1359 9.16645
      vertex -3.61246 -23.1269 8.35987
    endloop
  endfacet
  facet normal -0.842092 -0.393244 -0.369107
    outer loop
      vertex -3.49785 -24.1359 9.16645
      vertex -3.28324 -24.5148 9.08051
      vertex -3.28993 -24.5065 9.08693
    endloop
  endfacet
  facet normal -0.841522 -0.392432 -0.371265
    outer loop
      vertex -3.49785 -24.1359 9.16645
      vertex -2.73904 -25 8.35987
      vertex -3.28324 -24.5148 9.08051
    endloop
  endfacet
  facet normal -0.841532 -0.392357 -0.371322
    outer loop
      vertex -3.28324 -24.5148 9.08051
      vertex -2.73904 -25 8.35987
      vertex -2.88807 -24.9589 8.65419
    endloop
  endfacet
  facet normal -0.841445 -0.392619 -0.371242
    outer loop
      vertex -2.88807 -24.9589 8.65419
      vertex -2.73904 -25 8.35987
      vertex -2.84738 -25 8.60543
    endloop
  endfacet
  facet normal -0.904945 -0.422017 0.0545554
    outer loop
      vertex -2.12803 -25 4.18524
      vertex -2.5 -24.1229 4.8
      vertex -2.6177 -23.9192 4.42337
    endloop
  endfacet
  facet normal -0.90496 -0.421991 0.0545101
    outer loop
      vertex -2.5 -24.1229 4.8
      vertex -2.12803 -25 4.18524
      vertex -2.091 -25 4.8
    endloop
  endfacet
  facet normal -0.841466 -0.392402 0.371425
    outer loop
      vertex -3.42214 -24.3432 0.386067
      vertex -3.28993 -24.5065 0.513067
      vertex -3.49785 -24.1359 0.433553
    endloop
  endfacet
  facet normal -0.894197 -0.416978 0.162913
    outer loop
      vertex -2.38034 -25 2.40486
      vertex -3.18787 -23.1925 2.59881
      vertex -3.24848 -23.1383 2.40486
    endloop
  endfacet
  facet normal -0.894222 -0.416975 0.162786
    outer loop
      vertex -3.18787 -23.1925 2.59881
      vertex -2.38034 -25 2.40486
      vertex -2.27185 -25 3.00082
    endloop
  endfacet
  facet normal -0.904959 -0.421995 0.0544934
    outer loop
      vertex -2.16354 -25 3.59583
      vertex -2.6177 -23.9192 4.42337
      vertex -2.8763 -23.4715 3.59583
    endloop
  endfacet
  facet normal -0.90495 -0.422011 0.0545202
    outer loop
      vertex -2.6177 -23.9192 4.42337
      vertex -2.16354 -25 3.59583
      vertex -2.12803 -25 4.18524
    endloop
  endfacet
  facet normal -0.872943 -0.407057 0.268842
    outer loop
      vertex -2.38034 -25 2.40486
      vertex -3.30176 -23.1366 2.23436
      vertex -2.55274 -25 1.84507
    endloop
  endfacet
  facet normal -0.872965 -0.407078 0.268736
    outer loop
      vertex -3.30176 -23.1366 2.23436
      vertex -2.38034 -25 2.40486
      vertex -3.24848 -23.1383 2.40486
    endloop
  endfacet
  facet normal -0.872948 -0.407052 0.268832
    outer loop
      vertex -2.55274 -25 1.84507
      vertex -3.61246 -23.1269 1.24012
      vertex -2.73904 -25 1.24012
    endloop
  endfacet
  facet normal -0.872948 -0.407055 0.268825
    outer loop
      vertex -3.61246 -23.1269 1.24012
      vertex -2.55274 -25 1.84507
      vertex -3.30176 -23.1366 2.23436
    endloop
  endfacet
  facet normal -0.894223 -0.416982 0.16276
    outer loop
      vertex -2.27185 -25 3.00082
      vertex -2.8763 -23.4715 3.59583
      vertex -3.18787 -23.1925 2.59881
    endloop
  endfacet
  facet normal -0.894219 -0.416986 0.162775
    outer loop
      vertex -2.8763 -23.4715 3.59583
      vertex -2.27185 -25 3.00082
      vertex -2.16354 -25 3.59583
    endloop
  endfacet
endsolid OpenSCAD_Model
