solid OpenSCAD_Model
  facet normal 2.22045e-016 1 0
    outer loop
      vertex -9.15527e-006 -1.07691e-015 1.62696
      vertex -4.85 0 1.07692e-015
      vertex -4.85 0 1.62696
    endloop
  endfacet
  facet normal 2.22045e-016 1 0
    outer loop
      vertex -4.85 0 1.07692e-015
      vertex -9.15527e-006 -1.07691e-015 1.62696
      vertex -9.15527e-006 -1.07691e-015 2.03288e-021
    endloop
  endfacet
  facet normal 1 0 0
    outer loop
      vertex -9.15527e-006 -1.91581 3.17835
      vertex -9.15527e-006 -1.07691e-015 2.03288e-021
      vertex -9.15527e-006 -1.07691e-015 1.62696
    endloop
  endfacet
  facet normal 1 -0 0
    outer loop
      vertex -9.15527e-006 -48.0842 3.17835
      vertex -9.15527e-006 -1.07691e-015 2.03288e-021
      vertex -9.15527e-006 -1.91581 3.17835
    endloop
  endfacet
  facet normal 1 0 0
    outer loop
      vertex -9.15527e-006 -50 2.03288e-021
      vertex -9.15527e-006 -48.0842 3.17835
      vertex -9.15527e-006 -50 1.62696
    endloop
  endfacet
  facet normal 1 0 0
    outer loop
      vertex -9.15527e-006 -48.0842 3.17835
      vertex -9.15527e-006 -50 2.03288e-021
      vertex -9.15527e-006 -1.07691e-015 2.03288e-021
    endloop
  endfacet
  facet normal -0.29547 0 0.955352
    outer loop
      vertex -4.85 -0.985478 2.42499
      vertex -0.535012 -47.3665 3.75952
      vertex -0.535012 -2.63349 3.75952
    endloop
  endfacet
  facet normal -0.29547 0 0.955352
    outer loop
      vertex -0.535012 -47.3665 3.75952
      vertex -4.85 -0.985478 2.42499
      vertex -4.85 -49.0145 2.42499
    endloop
  endfacet
  facet normal 0 -1 0
    outer loop
      vertex -9.69999 -50 2.15383e-015
      vertex -4.85 -50 1.62696
      vertex -9.69999 -50 1.62696
    endloop
  endfacet
  facet normal 0 -1 -0
    outer loop
      vertex -4.85 -50 1.62696
      vertex -9.69999 -50 2.15383e-015
      vertex -4.85 -50 1.07692e-015
    endloop
  endfacet
  facet normal 0.29547 0 0.955352
    outer loop
      vertex -9.16499 -2.63349 3.75952
      vertex -4.85 -49.0145 2.42499
      vertex -4.85 -0.985478 2.42499
    endloop
  endfacet
  facet normal 0.29547 0 0.955352
    outer loop
      vertex -4.85 -49.0145 2.42499
      vertex -9.16499 -2.63349 3.75952
      vertex -9.16499 -47.3665 3.75952
    endloop
  endfacet
  facet normal -1 0 0
    outer loop
      vertex -9.69999 0 2.15383e-015
      vertex -9.69999 -1.91581 3.17835
      vertex -9.69999 0 1.62696
    endloop
  endfacet
  facet normal -1 0 0
    outer loop
      vertex -9.69999 0 2.15383e-015
      vertex -9.69999 -48.0842 3.17835
      vertex -9.69999 -1.91581 3.17835
    endloop
  endfacet
  facet normal -1 0 0
    outer loop
      vertex -9.69999 -50 2.15383e-015
      vertex -9.69999 -48.0842 3.17835
      vertex -9.69999 0 2.15383e-015
    endloop
  endfacet
  facet normal -1 0 0
    outer loop
      vertex -9.69999 -48.0842 3.17835
      vertex -9.69999 -50 2.15383e-015
      vertex -9.69999 -50 1.62696
    endloop
  endfacet
  facet normal 0 1 0
    outer loop
      vertex -4.85 0 1.62696
      vertex -9.69999 0 2.15383e-015
      vertex -9.69999 0 1.62696
    endloop
  endfacet
  facet normal -0 1 0
    outer loop
      vertex -9.69999 0 2.15383e-015
      vertex -4.85 0 1.62696
      vertex -4.85 0 1.07692e-015
    endloop
  endfacet
  facet normal -0.735724 0 0.677282
    outer loop
      vertex -9.69999 -1.91581 3.17835
      vertex -9.16499 -47.3665 3.75952
      vertex -9.16499 -2.63349 3.75952
    endloop
  endfacet
  facet normal -0.735724 0 0.677282
    outer loop
      vertex -9.16499 -47.3665 3.75952
      vertex -9.69999 -1.91581 3.17835
      vertex -9.69999 -48.0842 3.17835
    endloop
  endfacet
  facet normal 0.735724 -0 0.677281
    outer loop
      vertex -0.535012 -47.3665 3.75952
      vertex -9.15527e-006 -1.91581 3.17835
      vertex -0.535012 -2.63349 3.75952
    endloop
  endfacet
  facet normal 0.735724 0 0.677281
    outer loop
      vertex -9.15527e-006 -1.91581 3.17835
      vertex -0.535012 -47.3665 3.75952
      vertex -9.15527e-006 -48.0842 3.17835
    endloop
  endfacet
  facet normal -2.22045e-016 0 -1
    outer loop
      vertex -4.85 -50 1.07692e-015
      vertex -9.15527e-006 -1.07691e-015 2.03288e-021
      vertex -9.15527e-006 -50 2.03288e-021
    endloop
  endfacet
  facet normal -2.22045e-016 0 -1
    outer loop
      vertex -4.85 -50 1.07692e-015
      vertex -4.85 0 1.07692e-015
      vertex -9.15527e-006 -1.07691e-015 2.03288e-021
    endloop
  endfacet
  facet normal -2.22045e-016 0 -1
    outer loop
      vertex -9.69999 -50 2.15383e-015
      vertex -4.85 0 1.07692e-015
      vertex -4.85 -50 1.07692e-015
    endloop
  endfacet
  facet normal -2.22045e-016 0 -1
    outer loop
      vertex -4.85 0 1.07692e-015
      vertex -9.69999 -50 2.15383e-015
      vertex -9.69999 0 2.15383e-015
    endloop
  endfacet
  facet normal 0 -1 0
    outer loop
      vertex -4.85 -50 1.07692e-015
      vertex -9.15527e-006 -50 1.62696
      vertex -4.85 -50 1.62696
    endloop
  endfacet
  facet normal 0 -1 -0
    outer loop
      vertex -9.15527e-006 -50 1.62696
      vertex -4.85 -50 1.07692e-015
      vertex -9.15527e-006 -50 2.03288e-021
    endloop
  endfacet
  facet normal -7.37204e-009 0.62932 0.777146
    outer loop
      vertex -9.15527e-006 -1.07691e-015 1.62696
      vertex -0.535012 -2.63349 3.75952
      vertex -9.15527e-006 -1.91581 3.17835
    endloop
  endfacet
  facet normal 1.44416e-016 0.62932 0.777146
    outer loop
      vertex -4.85 -0.985478 2.42499
      vertex -9.15527e-006 -1.07691e-015 1.62696
      vertex -4.85 0 1.62696
    endloop
  endfacet
  facet normal 9.16686e-009 0.62932 0.777146
    outer loop
      vertex -9.15527e-006 -1.07691e-015 1.62696
      vertex -4.85 -0.985478 2.42499
      vertex -0.535012 -2.63349 3.75952
    endloop
  endfacet
  facet normal -0 0.62932 0.777146
    outer loop
      vertex -9.69999 0 1.62696
      vertex -4.85 -0.985478 2.42499
      vertex -4.85 0 1.62696
    endloop
  endfacet
  facet normal -9.16686e-009 0.62932 0.777146
    outer loop
      vertex -4.85 -0.985478 2.42499
      vertex -9.69999 0 1.62696
      vertex -9.16499 -2.63349 3.75952
    endloop
  endfacet
  facet normal 7.37203e-009 0.62932 0.777146
    outer loop
      vertex -9.16499 -2.63349 3.75952
      vertex -9.69999 0 1.62696
      vertex -9.69999 -1.91581 3.17835
    endloop
  endfacet
  facet normal 3.28682e-006 -0.62932 0.777146
    outer loop
      vertex -0.535012 -47.3665 3.75952
      vertex -9.15527e-006 -50 1.62696
      vertex -9.15527e-006 -48.0842 3.17835
    endloop
  endfacet
  facet normal 1.05921e-007 -0.62932 0.777146
    outer loop
      vertex -4.85 -49.0145 2.42499
      vertex -9.15527e-006 -50 1.62696
      vertex -0.535012 -47.3665 3.75952
    endloop
  endfacet
  facet normal 0 -0.629321 0.777146
    outer loop
      vertex -4.85 -49.0145 2.42499
      vertex -4.85 -50 1.62696
      vertex -9.15527e-006 -50 1.62696
    endloop
  endfacet
  facet normal -1.05921e-007 -0.62932 0.777146
    outer loop
      vertex -9.69999 -50 1.62696
      vertex -4.85 -49.0145 2.42499
      vertex -9.16499 -47.3665 3.75952
    endloop
  endfacet
  facet normal -3.28682e-006 -0.62932 0.777146
    outer loop
      vertex -9.69999 -50 1.62696
      vertex -9.16499 -47.3665 3.75952
      vertex -9.69999 -48.0842 3.17835
    endloop
  endfacet
  facet normal 0 -0.629321 0.777146
    outer loop
      vertex -4.85 -49.0145 2.42499
      vertex -9.69999 -50 1.62696
      vertex -4.85 -50 1.62696
    endloop
  endfacet
endsolid OpenSCAD_Model
