solid OpenSCAD_Model
  facet normal 0 1 -2.22045e-016
    outer loop
      vertex 2.42499 -1.11022e-015 -0.15
      vertex 1 -1.29896e-015 -1
      vertex -2.42499 -1.11022e-015 -0.15
    endloop
  endfacet
  facet normal -2.91208e-024 1 -2.22045e-016
    outer loop
      vertex 3.75952 -2.06834e-015 -4.46499
      vertex 1 -1.29896e-015 -1
      vertex 2.42499 -1.11022e-015 -0.15
    endloop
  endfacet
  facet normal 0 1 -2.22045e-016
    outer loop
      vertex 2.09999 -2.18714e-015 -4.99999
      vertex 3.75952 -2.06834e-015 -4.46499
      vertex 3.17835 -2.18714e-015 -4.99999
    endloop
  endfacet
  facet normal -5.86049e-023 1 -2.22045e-016
    outer loop
      vertex 3.75952 -2.06834e-015 -4.46499
      vertex 2.09999 -2.18714e-015 -4.99999
      vertex 1 -1.29896e-015 -1
    endloop
  endfacet
  facet normal 0 1 -2.22045e-016
    outer loop
      vertex -1 -1.29896e-015 -1
      vertex -2.42499 -1.11022e-015 -0.15
      vertex 1 -1.29896e-015 -1
    endloop
  endfacet
  facet normal -9.47237e-024 1 -2.22045e-016
    outer loop
      vertex -1 -1.29896e-015 -1
      vertex -3.77559 -2.07988e-015 -4.51693
      vertex -2.42499 -1.11022e-015 -0.15
    endloop
  endfacet
  facet normal 0 1 -2.22045e-016
    outer loop
      vertex -2.09999 -2.18714e-015 -4.99999
      vertex -3.77559 -2.07988e-015 -4.51693
      vertex -1 -1.29896e-015 -1
    endloop
  endfacet
  facet normal 0 1 -2.22045e-016
    outer loop
      vertex -3.77559 -2.07988e-015 -4.51693
      vertex -2.09999 -2.18714e-015 -4.99999
      vertex -3.0362 -2.18714e-015 -4.99999
    endloop
  endfacet
  facet normal 0 0 -1
    outer loop
      vertex -3.0362 -50 -4.99999
      vertex -2.09999 -2.18714e-015 -4.99999
      vertex -2.09999 -50 -4.99999
    endloop
  endfacet
  facet normal -0 0 -1
    outer loop
      vertex -2.09999 -2.18714e-015 -4.99999
      vertex -3.0362 -50 -4.99999
      vertex -3.0362 -2.18714e-015 -4.99999
    endloop
  endfacet
  facet normal 0 0 -1
    outer loop
      vertex 2.09999 -50 -4.99999
      vertex 3.17835 -2.18714e-015 -4.99999
      vertex 3.17835 -50 -4.99999
    endloop
  endfacet
  facet normal -0 0 -1
    outer loop
      vertex 3.17835 -2.18714e-015 -4.99999
      vertex 2.09999 -50 -4.99999
      vertex 2.09999 -2.18714e-015 -4.99999
    endloop
  endfacet
  facet normal 0.955352 -0 0.29547
    outer loop
      vertex 2.42499 -50 -0.15
      vertex 3.75952 -2.06834e-015 -4.46499
      vertex 2.42499 -1.11022e-015 -0.15
    endloop
  endfacet
  facet normal 0.955352 0 0.29547
    outer loop
      vertex 3.75952 -2.06834e-015 -4.46499
      vertex 2.42499 -50 -0.15
      vertex 3.75952 -50 -4.46499
    endloop
  endfacet
  facet normal -0.955352 0 0.29547
    outer loop
      vertex -3.77559 -50 -4.51693
      vertex -2.42499 -1.11022e-015 -0.15
      vertex -3.77559 -2.07988e-015 -4.51693
    endloop
  endfacet
  facet normal -0.955352 0 0.29547
    outer loop
      vertex -2.42499 -1.11022e-015 -0.15
      vertex -3.77559 -50 -4.51693
      vertex -2.42499 -50 -0.15
    endloop
  endfacet
  facet normal 0 -1 0
    outer loop
      vertex -3.77559 -50 4.21693
      vertex -2.01749 -50 4.69999
      vertex -3.0362 -50 4.69999
    endloop
  endfacet
  facet normal 0 -1 0
    outer loop
      vertex -3.77559 -50 4.21693
      vertex -0.999999 -50 1
      vertex -2.01749 -50 4.69999
    endloop
  endfacet
  facet normal 0 -1 0
    outer loop
      vertex -1 -50 -1
      vertex -0.999999 -50 1
      vertex -2.42499 -50 -0.15
    endloop
  endfacet
  facet normal 0 -1 0
    outer loop
      vertex -2.42499 -50 -0.15
      vertex -0.999999 -50 1
      vertex -3.77559 -50 4.21693
    endloop
  endfacet
  facet normal 0 -1 0
    outer loop
      vertex 2.01749 -50 4.69999
      vertex 3.75952 -50 4.16499
      vertex 3.17835 -50 4.69999
    endloop
  endfacet
  facet normal 0 -1 0
    outer loop
      vertex 1 -50 0.999999
      vertex 3.75952 -50 4.16499
      vertex 2.01749 -50 4.69999
    endloop
  endfacet
  facet normal 0 -1 0
    outer loop
      vertex 1 -50 0.999999
      vertex 2.42499 -50 -0.15
      vertex 3.75952 -50 4.16499
    endloop
  endfacet
  facet normal 0 -1 -0
    outer loop
      vertex -0.999999 -50 1
      vertex -1 -50 -1
      vertex 1 -50 0.999999
    endloop
  endfacet
  facet normal 0 -1 0
    outer loop
      vertex 1 -50 -1
      vertex 1 -50 0.999999
      vertex -1 -50 -1
    endloop
  endfacet
  facet normal 0 -1 0
    outer loop
      vertex -3.77559 -50 -4.51693
      vertex -1 -50 -1
      vertex -2.42499 -50 -0.15
    endloop
  endfacet
  facet normal 0 -1 0
    outer loop
      vertex -2.09999 -50 -4.99999
      vertex -3.77559 -50 -4.51693
      vertex -3.0362 -50 -4.99999
    endloop
  endfacet
  facet normal 0 -1 0
    outer loop
      vertex -3.77559 -50 -4.51693
      vertex -2.09999 -50 -4.99999
      vertex -1 -50 -1
    endloop
  endfacet
  facet normal 0 -1 0
    outer loop
      vertex 1 -50 0.999999
      vertex 1 -50 -1
      vertex 2.42499 -50 -0.15
    endloop
  endfacet
  facet normal 0 -1 0
    outer loop
      vertex 1 -50 -1
      vertex 3.75952 -50 -4.46499
      vertex 2.42499 -50 -0.15
    endloop
  endfacet
  facet normal 0 -1 0
    outer loop
      vertex 2.09999 -50 -4.99999
      vertex 3.75952 -50 -4.46499
      vertex 1 -50 -1
    endloop
  endfacet
  facet normal 0 -1 0
    outer loop
      vertex 3.75952 -50 -4.46499
      vertex 2.09999 -50 -4.99999
      vertex 3.17835 -50 -4.99999
    endloop
  endfacet
  facet normal -0.955352 0 -0.29547
    outer loop
      vertex -2.42499 -50 -0.15
      vertex -3.77559 -1.11022e-015 4.21693
      vertex -2.42499 -1.11022e-015 -0.15
    endloop
  endfacet
  facet normal -0.955352 -0 -0.29547
    outer loop
      vertex -3.77559 -1.11022e-015 4.21693
      vertex -2.42499 -50 -0.15
      vertex -3.77559 -50 4.21693
    endloop
  endfacet
  facet normal 0.955352 0 -0.29547
    outer loop
      vertex 3.75952 -50 4.16499
      vertex 2.42499 -1.11022e-015 -0.15
      vertex 3.75952 -1.11022e-015 4.16499
    endloop
  endfacet
  facet normal 0.955352 0 -0.29547
    outer loop
      vertex 2.42499 -1.11022e-015 -0.15
      vertex 3.75952 -50 4.16499
      vertex 2.42499 -50 -0.15
    endloop
  endfacet
  facet normal -0 0 1
    outer loop
      vertex -3.0362 -1.11022e-015 4.69999
      vertex -2.01749 -50 4.69999
      vertex -2.01749 -1.11022e-015 4.69999
    endloop
  endfacet
  facet normal 0 0 1
    outer loop
      vertex -2.01749 -50 4.69999
      vertex -3.0362 -1.11022e-015 4.69999
      vertex -3.0362 -50 4.69999
    endloop
  endfacet
  facet normal -0 0 1
    outer loop
      vertex 2.01749 -1.11022e-015 4.69999
      vertex 3.17835 -50 4.69999
      vertex 3.17835 -1.11022e-015 4.69999
    endloop
  endfacet
  facet normal 0 0 1
    outer loop
      vertex 3.17835 -50 4.69999
      vertex 2.01749 -1.11022e-015 4.69999
      vertex 2.01749 -50 4.69999
    endloop
  endfacet
  facet normal 0 1 0
    outer loop
      vertex 3.75952 -1.11022e-015 4.16499
      vertex 2.01749 -1.11022e-015 4.69999
      vertex 3.17835 -1.11022e-015 4.69999
    endloop
  endfacet
  facet normal 0 1 0
    outer loop
      vertex 3.75952 -1.11022e-015 4.16499
      vertex 1 -1.11022e-015 0.999999
      vertex 2.01749 -1.11022e-015 4.69999
    endloop
  endfacet
  facet normal -0 1 0
    outer loop
      vertex 1 -1.11022e-015 0.999999
      vertex 3.75952 -1.11022e-015 4.16499
      vertex 2.42499 -1.11022e-015 -0.15
    endloop
  endfacet
  facet normal 0 1 0
    outer loop
      vertex -2.01749 -1.11022e-015 4.69999
      vertex -3.77559 -1.11022e-015 4.21693
      vertex -3.0362 -1.11022e-015 4.69999
    endloop
  endfacet
  facet normal 0 1 0
    outer loop
      vertex -0.999999 -1.11022e-015 1
      vertex -3.77559 -1.11022e-015 4.21693
      vertex -2.01749 -1.11022e-015 4.69999
    endloop
  endfacet
  facet normal 0 1 0
    outer loop
      vertex 2.42499 -1.11022e-015 -0.15
      vertex -0.999999 -1.11022e-015 1
      vertex 1 -1.11022e-015 0.999999
    endloop
  endfacet
  facet normal 0 1 0
    outer loop
      vertex -0.999999 -1.11022e-015 1
      vertex -2.42499 -1.11022e-015 -0.15
      vertex -3.77559 -1.11022e-015 4.21693
    endloop
  endfacet
  facet normal 0 1 0
    outer loop
      vertex -2.42499 -1.11022e-015 -0.15
      vertex -0.999999 -1.11022e-015 1
      vertex 2.42499 -1.11022e-015 -0.15
    endloop
  endfacet
  facet normal -0.546948 0 0.837166
    outer loop
      vertex -3.77559 -1.11022e-015 4.21693
      vertex -3.0362 -50 4.69999
      vertex -3.0362 -1.11022e-015 4.69999
    endloop
  endfacet
  facet normal -0.546948 0 0.837166
    outer loop
      vertex -3.0362 -50 4.69999
      vertex -3.77559 -1.11022e-015 4.21693
      vertex -3.77559 -50 4.21693
    endloop
  endfacet
  facet normal 0.677281 0 0.735724
    outer loop
      vertex 3.17835 -1.11022e-015 4.69999
      vertex 3.75952 -50 4.16499
      vertex 3.75952 -1.11022e-015 4.16499
    endloop
  endfacet
  facet normal 0.677281 0 0.735724
    outer loop
      vertex 3.75952 -50 4.16499
      vertex 3.17835 -1.11022e-015 4.69999
      vertex 3.17835 -50 4.69999
    endloop
  endfacet
  facet normal 0.677281 0 -0.735724
    outer loop
      vertex 3.17835 -50 -4.99999
      vertex 3.75952 -2.06834e-015 -4.46499
      vertex 3.75952 -50 -4.46499
    endloop
  endfacet
  facet normal 0.677281 0 -0.735724
    outer loop
      vertex 3.75952 -2.06834e-015 -4.46499
      vertex 3.17835 -50 -4.99999
      vertex 3.17835 -2.18714e-015 -4.99999
    endloop
  endfacet
  facet normal -0.546948 0 -0.837166
    outer loop
      vertex -3.77559 -50 -4.51693
      vertex -3.0362 -2.18714e-015 -4.99999
      vertex -3.0362 -50 -4.99999
    endloop
  endfacet
  facet normal -0.546948 0 -0.837166
    outer loop
      vertex -3.0362 -2.18714e-015 -4.99999
      vertex -3.77559 -50 -4.51693
      vertex -3.77559 -2.07988e-015 -4.51693
    endloop
  endfacet
  facet normal -0.964206 0 -0.265154
    outer loop
      vertex 2.09999 -50 -4.99999
      vertex 1 -1.29896e-015 -1
      vertex 2.09999 -2.18714e-015 -4.99999
    endloop
  endfacet
  facet normal -0.964206 -0 -0.265154
    outer loop
      vertex 1 -1.29896e-015 -1
      vertex 2.09999 -50 -4.99999
      vertex 1 -50 -1
    endloop
  endfacet
  facet normal 0.964206 0 -0.265154
    outer loop
      vertex -1 -50 -1
      vertex -2.09999 -2.18714e-015 -4.99999
      vertex -1 -1.29896e-015 -1
    endloop
  endfacet
  facet normal 0.964206 0 -0.265154
    outer loop
      vertex -2.09999 -2.18714e-015 -4.99999
      vertex -1 -50 -1
      vertex -2.09999 -50 -4.99999
    endloop
  endfacet
  facet normal 0 0 -1
    outer loop
      vertex -1 -50 -1
      vertex 1 -1.29896e-015 -1
      vertex 1 -50 -1
    endloop
  endfacet
  facet normal -0 0 -1
    outer loop
      vertex 1 -1.29896e-015 -1
      vertex -1 -50 -1
      vertex -1 -1.29896e-015 -1
    endloop
  endfacet
  facet normal -0.964206 0 0.265154
    outer loop
      vertex 1 -50 0.999999
      vertex 2.01749 -1.11022e-015 4.69999
      vertex 1 -1.11022e-015 0.999999
    endloop
  endfacet
  facet normal -0.964206 0 0.265154
    outer loop
      vertex 2.01749 -1.11022e-015 4.69999
      vertex 1 -50 0.999999
      vertex 2.01749 -50 4.69999
    endloop
  endfacet
  facet normal 4.76837e-007 0 1
    outer loop
      vertex -0.999999 -1.11022e-015 1
      vertex 1 -50 0.999999
      vertex 1 -1.11022e-015 0.999999
    endloop
  endfacet
  facet normal 4.76837e-007 0 1
    outer loop
      vertex 1 -50 0.999999
      vertex -0.999999 -1.11022e-015 1
      vertex -0.999999 -50 1
    endloop
  endfacet
  facet normal 0.964206 -0 0.265154
    outer loop
      vertex -2.01749 -50 4.69999
      vertex -0.999999 -1.11022e-015 1
      vertex -2.01749 -1.11022e-015 4.69999
    endloop
  endfacet
  facet normal 0.964206 0 0.265154
    outer loop
      vertex -0.999999 -1.11022e-015 1
      vertex -2.01749 -50 4.69999
      vertex -0.999999 -50 1
    endloop
  endfacet
endsolid OpenSCAD_Model
