solid OpenSCAD_Model
  facet normal 2.22045e-016 1 1.35606e-030
    outer loop
      vertex 5.93993e-016 -1.11022e-015 2.67511
      vertex -0.694674 -9.55974e-016 3.60202
      vertex -0.0636559 -1.09609e-015 2.85
    endloop
  endfacet
  facet normal 2.22045e-016 1 1.01804e-031
    outer loop
      vertex 5.93993e-016 -1.11022e-015 2.67511
      vertex -5 0 2.375
      vertex -0.694674 -9.55974e-016 3.60202
    endloop
  endfacet
  facet normal 2.22045e-016 1 -4.93038e-032
    outer loop
      vertex 2.22043e-017 -1.11022e-015 0.0999994
      vertex -5 0 2.375
      vertex 5.93993e-016 -1.11022e-015 2.67511
    endloop
  endfacet
  facet normal 2.22045e-016 1 0
    outer loop
      vertex -5 0 2.375
      vertex 2.22043e-017 -1.11022e-015 0.0999994
      vertex -5 0 0.0999994
    endloop
  endfacet
  facet normal 1 -2.22045e-016 -2.22045e-016
    outer loop
      vertex -1.05082e-014 -50 2.67511
      vertex 2.22043e-017 -1.11022e-015 0.0999994
      vertex 5.93993e-016 -1.11022e-015 2.67511
    endloop
  endfacet
  facet normal 1 -2.22045e-016 -2.22045e-016
    outer loop
      vertex 2.22043e-017 -1.11022e-015 0.0999994
      vertex -1.05082e-014 -50 2.67511
      vertex -1.108e-014 -50 0.0999994
    endloop
  endfacet
  facet normal -0.274086 0 0.961705
    outer loop
      vertex -5 0 2.375
      vertex -0.694674 -50 3.60202
      vertex -0.694674 -9.55974e-016 3.60202
    endloop
  endfacet
  facet normal -0.274086 0 0.961705
    outer loop
      vertex -0.694674 -50 3.60202
      vertex -5 0 2.375
      vertex -5 -50 2.375
    endloop
  endfacet
  facet normal 0 -1 0
    outer loop
      vertex -10 -50 2.67511
      vertex -9.30533 -50 3.60202
      vertex -9.93634 -50 2.85
    endloop
  endfacet
  facet normal 0 -1 0
    outer loop
      vertex -10 -50 2.67511
      vertex -5 -50 2.375
      vertex -9.30533 -50 3.60202
    endloop
  endfacet
  facet normal 0 -1 0
    outer loop
      vertex -10 -50 0.0999994
      vertex -5 -50 2.375
      vertex -10 -50 2.67511
    endloop
  endfacet
  facet normal 0 -1 -0
    outer loop
      vertex -5 -50 2.375
      vertex -10 -50 0.0999994
      vertex -5 -50 0.0999994
    endloop
  endfacet
  facet normal 0.274086 0 0.961705
    outer loop
      vertex -9.30533 0 3.60202
      vertex -5 -50 2.375
      vertex -5 0 2.375
    endloop
  endfacet
  facet normal 0.274086 0 0.961705
    outer loop
      vertex -5 -50 2.375
      vertex -9.30533 0 3.60202
      vertex -9.30533 -50 3.60202
    endloop
  endfacet
  facet normal -1 0 0
    outer loop
      vertex -10 -50 0.0999994
      vertex -10 0 2.67511
      vertex -10 0 0.0999994
    endloop
  endfacet
  facet normal -1 -0 0
    outer loop
      vertex -10 0 2.67511
      vertex -10 -50 0.0999994
      vertex -10 -50 2.67511
    endloop
  endfacet
  facet normal -0.766045 0 0.642787
    outer loop
      vertex -9.93634 -50 2.85
      vertex -9.30533 0 3.60202
      vertex -9.93634 0 2.85
    endloop
  endfacet
  facet normal -0.766045 0 0.642787
    outer loop
      vertex -9.30533 0 3.60202
      vertex -9.93634 -50 2.85
      vertex -9.30533 -50 3.60202
    endloop
  endfacet
  facet normal -0.939693 0 0.34202
    outer loop
      vertex -10 -50 2.67511
      vertex -9.93634 0 2.85
      vertex -10 0 2.67511
    endloop
  endfacet
  facet normal -0.939693 0 0.34202
    outer loop
      vertex -9.93634 0 2.85
      vertex -10 -50 2.67511
      vertex -9.93634 -50 2.85
    endloop
  endfacet
  facet normal 0.766045 -0 0.642787
    outer loop
      vertex -0.694674 -50 3.60202
      vertex -0.0636559 -1.09609e-015 2.85
      vertex -0.694674 -9.55974e-016 3.60202
    endloop
  endfacet
  facet normal 0.766045 0 0.642787
    outer loop
      vertex -0.0636559 -1.09609e-015 2.85
      vertex -0.694674 -50 3.60202
      vertex -0.0636559 -50 2.85
    endloop
  endfacet
  facet normal 0.939693 -0 0.34202
    outer loop
      vertex -0.0636559 -50 2.85
      vertex 5.93993e-016 -1.11022e-015 2.67511
      vertex -0.0636559 -1.09609e-015 2.85
    endloop
  endfacet
  facet normal 0.939693 -2.08654e-016 0.34202
    outer loop
      vertex 5.93993e-016 -1.11022e-015 2.67511
      vertex -0.0636559 -50 2.85
      vertex -1.05082e-014 -50 2.67511
    endloop
  endfacet
  facet normal 0 1 0
    outer loop
      vertex -9.30533 0 3.60202
      vertex -10 0 2.67511
      vertex -9.93634 0 2.85
    endloop
  endfacet
  facet normal 0 1 0
    outer loop
      vertex -5 0 2.375
      vertex -10 0 2.67511
      vertex -9.30533 0 3.60202
    endloop
  endfacet
  facet normal 0 1 0
    outer loop
      vertex -10 0 0.0999994
      vertex -5 0 2.375
      vertex -5 0 0.0999994
    endloop
  endfacet
  facet normal 0 1 0
    outer loop
      vertex -5 0 2.375
      vertex -10 0 0.0999994
      vertex -10 0 2.67511
    endloop
  endfacet
  facet normal 0 0 -1
    outer loop
      vertex -5 -50 0.0999994
      vertex 2.22043e-017 -1.11022e-015 0.0999994
      vertex -1.108e-014 -50 0.0999994
    endloop
  endfacet
  facet normal 0 0 -1
    outer loop
      vertex -5 -50 0.0999994
      vertex -5 0 0.0999994
      vertex 2.22043e-017 -1.11022e-015 0.0999994
    endloop
  endfacet
  facet normal 0 0 -1
    outer loop
      vertex -10 -50 0.0999994
      vertex -5 0 0.0999994
      vertex -5 -50 0.0999994
    endloop
  endfacet
  facet normal -0 0 -1
    outer loop
      vertex -5 0 0.0999994
      vertex -10 -50 0.0999994
      vertex -10 0 0.0999994
    endloop
  endfacet
  facet normal 0 -1 0
    outer loop
      vertex -0.694674 -50 3.60202
      vertex -1.05082e-014 -50 2.67511
      vertex -0.0636559 -50 2.85
    endloop
  endfacet
  facet normal 0 -1 0
    outer loop
      vertex -5 -50 2.375
      vertex -1.05082e-014 -50 2.67511
      vertex -0.694674 -50 3.60202
    endloop
  endfacet
  facet normal 0 -1 0
    outer loop
      vertex -1.108e-014 -50 0.0999994
      vertex -5 -50 2.375
      vertex -5 -50 0.0999994
    endloop
  endfacet
  facet normal 0 -1 0
    outer loop
      vertex -5 -50 2.375
      vertex -1.108e-014 -50 0.0999994
      vertex -1.05082e-014 -50 2.67511
    endloop
  endfacet
endsolid OpenSCAD_Model
