solid OpenSCAD_Model
  facet normal 0 -1 0
    outer loop
      vertex -2.73904 -50 3.50988
      vertex -1.77149 -50 3.75543
      vertex -2.84738 -50 3.75543
    endloop
  endfacet
  facet normal 0 -1 0
    outer loop
      vertex -2.55274 -50 2.90493
      vertex -1.77149 -50 3.75543
      vertex -2.73904 -50 3.50988
    endloop
  endfacet
  facet normal 0 -1 0
    outer loop
      vertex -2.38034 -50 2.34514
      vertex -1.77149 -50 3.75543
      vertex -2.55274 -50 2.90493
    endloop
  endfacet
  facet normal 0 -1 0
    outer loop
      vertex -0.999999 -50 0.95
      vertex -2.38034 -50 2.34514
      vertex -2.27185 -50 1.74918
    endloop
  endfacet
  facet normal 0 -1 0
    outer loop
      vertex -0.999999 -50 0.95
      vertex -2.27185 -50 1.74918
      vertex -2.16354 -50 1.15417
    endloop
  endfacet
  facet normal 0 -1 0
    outer loop
      vertex -2.38034 -50 2.34514
      vertex -0.999999 -50 0.95
      vertex -1.77149 -50 3.75543
    endloop
  endfacet
  facet normal 0 -1 0
    outer loop
      vertex -2.09401 -50 0
      vertex -0.999999 -50 0.95
      vertex -2.12803 -50 0.564758
    endloop
  endfacet
  facet normal 0 -1 0
    outer loop
      vertex -2.12803 -50 0.564758
      vertex -0.999999 -50 0.95
      vertex -2.16354 -50 1.15417
    endloop
  endfacet
  facet normal 0 -1 0
    outer loop
      vertex 1.77149 -50 3.75543
      vertex 2.73904 -50 3.50988
      vertex 2.84738 -50 3.75543
    endloop
  endfacet
  facet normal 0 -1 0
    outer loop
      vertex 1.77149 -50 3.75543
      vertex 2.55274 -50 2.90493
      vertex 2.73904 -50 3.50988
    endloop
  endfacet
  facet normal 0 -1 0
    outer loop
      vertex 1.77149 -50 3.75543
      vertex 2.38034 -50 2.34514
      vertex 2.55274 -50 2.90493
    endloop
  endfacet
  facet normal 0 -1 0
    outer loop
      vertex 1 -50 0.949999
      vertex 2.38034 -50 2.34514
      vertex 1.77149 -50 3.75543
    endloop
  endfacet
  facet normal 0 -1 0
    outer loop
      vertex 2.38034 -50 2.34514
      vertex 1 -50 0.949999
      vertex 2.27185 -50 1.74918
    endloop
  endfacet
  facet normal 0 -1 0
    outer loop
      vertex 2.27185 -50 1.74918
      vertex 1 -50 0.949999
      vertex 2.16354 -50 1.15417
    endloop
  endfacet
  facet normal 0 -1 0
    outer loop
      vertex 1 -50 0.949999
      vertex 2.12803 -50 0.564758
      vertex 2.16354 -50 1.15417
    endloop
  endfacet
  facet normal 0 -1 -0
    outer loop
      vertex -0.999999 -50 0.95
      vertex -2.09401 -50 0
      vertex 1 -50 0.949999
    endloop
  endfacet
  facet normal 0 -1 0
    outer loop
      vertex 2.09401 -50 0
      vertex 1 -50 0.949999
      vertex -2.09401 -50 0
    endloop
  endfacet
  facet normal 0 -1 0
    outer loop
      vertex 1 -50 0.949999
      vertex 2.09401 -50 0
      vertex 2.12803 -50 0.564758
    endloop
  endfacet
  facet normal -0.95448 0 -0.298275
    outer loop
      vertex -3.30176 -1.86339 2.51564
      vertex -3.61246 -48.1269 3.50988
      vertex -3.61246 -1.87306 3.50988
    endloop
  endfacet
  facet normal -0.95448 0 -0.298275
    outer loop
      vertex -3.30176 -48.1366 2.51564
      vertex -3.30176 -1.86339 2.51564
      vertex -3.24848 -1.86174 2.34514
    endloop
  endfacet
  facet normal -0.95448 0 -0.298276
    outer loop
      vertex -3.24848 -48.1383 2.34514
      vertex -3.24848 -1.86174 2.34514
      vertex -3.18787 -1.80747 2.15119
    endloop
  endfacet
  facet normal -0.95448 0 -0.298275
    outer loop
      vertex -3.18787 -48.1925 2.15119
      vertex -3.18787 -1.80747 2.15119
      vertex -2.8763 -1.52853 1.15417
    endloop
  endfacet
  facet normal -0.95448 0 -0.298275
    outer loop
      vertex -2.8763 -48.4715 1.15417
      vertex -2.8763 -1.52853 1.15417
      vertex -2.6177 -1.08085 0.32663
    endloop
  endfacet
  facet normal -0.95448 0 -0.298275
    outer loop
      vertex -2.6177 -48.9192 0.32663
      vertex -2.6177 -1.08085 0.32663
      vertex -2.51562 -0.904147 0
    endloop
  endfacet
  facet normal -0.95448 -0 -0.298275
    outer loop
      vertex -3.30176 -1.86339 2.51564
      vertex -3.30176 -48.1366 2.51564
      vertex -3.61246 -48.1269 3.50988
    endloop
  endfacet
  facet normal -0.95448 -0 -0.298275
    outer loop
      vertex -3.24848 -1.86174 2.34514
      vertex -3.24848 -48.1383 2.34514
      vertex -3.30176 -48.1366 2.51564
    endloop
  endfacet
  facet normal -0.95448 -0 -0.298276
    outer loop
      vertex -3.18787 -1.80747 2.15119
      vertex -3.18787 -48.1925 2.15119
      vertex -3.24848 -48.1383 2.34514
    endloop
  endfacet
  facet normal -0.95448 -0 -0.298275
    outer loop
      vertex -2.8763 -1.52853 1.15417
      vertex -2.8763 -48.4715 1.15417
      vertex -3.18787 -48.1925 2.15119
    endloop
  endfacet
  facet normal -0.95448 -0 -0.298275
    outer loop
      vertex -2.6177 -1.08085 0.32663
      vertex -2.6177 -48.9192 0.32663
      vertex -2.8763 -48.4715 1.15417
    endloop
  endfacet
  facet normal -0.95448 0 -0.298275
    outer loop
      vertex -2.6177 -48.9192 0.32663
      vertex -2.51562 -0.904147 0
      vertex -2.51562 -49.0959 0
    endloop
  endfacet
  facet normal -0.95448 0 -0.298275
    outer loop
      vertex -3.61246 -48.1269 3.50988
      vertex -3.8088 -1.69966 4.13816
      vertex -3.61246 -1.87306 3.50988
    endloop
  endfacet
  facet normal -0.95448 -0 -0.298275
    outer loop
      vertex -3.8088 -1.69966 4.13816
      vertex -3.61246 -48.1269 3.50988
      vertex -3.8088 -48.3003 4.13816
    endloop
  endfacet
  facet normal 0.95448 0 -0.298275
    outer loop
      vertex 3.8088 -1.69966 4.13816
      vertex 3.61246 -48.1269 3.50988
      vertex 3.61246 -1.87306 3.50988
    endloop
  endfacet
  facet normal 0.95448 0 -0.298275
    outer loop
      vertex 3.61246 -48.1269 3.50988
      vertex 3.8088 -1.69966 4.13816
      vertex 3.8088 -48.3003 4.13816
    endloop
  endfacet
  facet normal 0.95448 0 -0.298275
    outer loop
      vertex 3.61246 -48.1269 3.50988
      vertex 3.30176 -1.86339 2.51564
      vertex 3.61246 -1.87306 3.50988
    endloop
  endfacet
  facet normal 0.95448 0 -0.298275
    outer loop
      vertex 3.30176 -48.1366 2.51564
      vertex 3.30176 -1.86339 2.51564
      vertex 3.61246 -48.1269 3.50988
    endloop
  endfacet
  facet normal 0.95448 0 -0.298275
    outer loop
      vertex 3.30176 -1.86339 2.51564
      vertex 3.30176 -48.1366 2.51564
      vertex 3.24848 -1.86174 2.34514
    endloop
  endfacet
  facet normal 0.95448 0 -0.298275
    outer loop
      vertex 3.24848 -48.1383 2.34514
      vertex 3.24848 -1.86174 2.34514
      vertex 3.30176 -48.1366 2.51564
    endloop
  endfacet
  facet normal 0.95448 0 -0.298276
    outer loop
      vertex 3.24848 -1.86174 2.34514
      vertex 3.24848 -48.1383 2.34514
      vertex 3.18787 -1.80747 2.15119
    endloop
  endfacet
  facet normal 0.95448 0 -0.298276
    outer loop
      vertex 3.18787 -48.1925 2.15119
      vertex 3.18787 -1.80747 2.15119
      vertex 3.24848 -48.1383 2.34514
    endloop
  endfacet
  facet normal 0.95448 0 -0.298275
    outer loop
      vertex 3.18787 -1.80747 2.15119
      vertex 3.18787 -48.1925 2.15119
      vertex 2.8763 -1.52853 1.15417
    endloop
  endfacet
  facet normal 0.95448 0 -0.298275
    outer loop
      vertex 2.8763 -48.4715 1.15417
      vertex 2.8763 -1.52853 1.15417
      vertex 3.18787 -48.1925 2.15119
    endloop
  endfacet
  facet normal 0.95448 0 -0.298275
    outer loop
      vertex 2.8763 -1.52853 1.15417
      vertex 2.8763 -48.4715 1.15417
      vertex 2.6177 -1.08085 0.32663
    endloop
  endfacet
  facet normal 0.95448 0 -0.298275
    outer loop
      vertex 2.6177 -48.9192 0.32663
      vertex 2.6177 -1.08085 0.32663
      vertex 2.8763 -48.4715 1.15417
    endloop
  endfacet
  facet normal 0.95448 0 -0.298275
    outer loop
      vertex 2.6177 -1.08085 0.32663
      vertex 2.6177 -48.9192 0.32663
      vertex 2.51562 -0.904147 0
    endloop
  endfacet
  facet normal 0.95448 0 -0.298275
    outer loop
      vertex 2.51562 -0.904147 0
      vertex 2.6177 -48.9192 0.32663
      vertex 2.51562 -49.0959 0
    endloop
  endfacet
  facet normal -0 0 1
    outer loop
      vertex -2.93158 -1.19795 4.75
      vertex -2.04499 -48.802 4.75
      vertex -2.04499 -1.19795 4.75
    endloop
  endfacet
  facet normal 0 0 1
    outer loop
      vertex -2.04499 -48.802 4.75
      vertex -2.93158 -1.19795 4.75
      vertex -2.93158 -48.802 4.75
    endloop
  endfacet
  facet normal -0 0 1
    outer loop
      vertex 2.04499 -1.19795 4.75
      vertex 2.93158 -48.802 4.75
      vertex 2.93158 -1.19795 4.75
    endloop
  endfacet
  facet normal 0 0 1
    outer loop
      vertex 2.93158 -48.802 4.75
      vertex 2.04499 -1.19795 4.75
      vertex 2.04499 -48.802 4.75
    endloop
  endfacet
  facet normal 0 1 -0
    outer loop
      vertex 2.16354 -1.06581e-015 1.15417
      vertex 2 -1.06581e-015 1.6
      vertex 2.27185 -1.06581e-015 1.74918
    endloop
  endfacet
  facet normal 0 1 -0
    outer loop
      vertex 2.12803 -1.06581e-015 0.564758
      vertex 2 -1.06581e-015 1.6
      vertex 2.16354 -1.06581e-015 1.15417
    endloop
  endfacet
  facet normal 0 1 0
    outer loop
      vertex 2 -1.06581e-015 0
      vertex 2.12803 -1.06581e-015 0.564758
      vertex 2.09401 -1.06581e-015 0
    endloop
  endfacet
  facet normal 0 1 0
    outer loop
      vertex 2.12803 -1.06581e-015 0.564758
      vertex 2 -1.06581e-015 0
      vertex 2 -1.06581e-015 1.6
    endloop
  endfacet
  facet normal 0 1 -0
    outer loop
      vertex 2.73904 -1.06581e-015 3.50988
      vertex 1.77149 -1.06581e-015 3.75543
      vertex 2.84738 -1.06581e-015 3.75543
    endloop
  endfacet
  facet normal 0 1 -0
    outer loop
      vertex 2.55274 -1.06581e-015 2.90493
      vertex 1.77149 -1.06581e-015 3.75543
      vertex 2.73904 -1.06581e-015 3.50988
    endloop
  endfacet
  facet normal 0 1 -0
    outer loop
      vertex 2.38034 -1.06581e-015 2.34514
      vertex 1.77149 -1.06581e-015 3.75543
      vertex 2.55274 -1.06581e-015 2.90493
    endloop
  endfacet
  facet normal 0 1 0
    outer loop
      vertex 2 -1.06581e-015 1.6
      vertex 2.38034 -1.06581e-015 2.34514
      vertex 2.27185 -1.06581e-015 1.74918
    endloop
  endfacet
  facet normal 0 1 0
    outer loop
      vertex 1.17875 -1.06581e-015 1.6
      vertex 2.38034 -1.06581e-015 2.34514
      vertex 2 -1.06581e-015 1.6
    endloop
  endfacet
  facet normal 0 1 0
    outer loop
      vertex 2.38034 -1.06581e-015 2.34514
      vertex 1.17875 -1.06581e-015 1.6
      vertex 1.77149 -1.06581e-015 3.75543
    endloop
  endfacet
  facet normal 0 1 0
    outer loop
      vertex -1.77149 -1.06581e-015 3.75543
      vertex -2.73904 -1.06581e-015 3.50988
      vertex -2.84738 -1.06581e-015 3.75543
    endloop
  endfacet
  facet normal 0 1 0
    outer loop
      vertex -1.77149 -1.06581e-015 3.75543
      vertex -2.55274 -1.06581e-015 2.90493
      vertex -2.73904 -1.06581e-015 3.50988
    endloop
  endfacet
  facet normal 0 1 0
    outer loop
      vertex -1.77149 -1.06581e-015 3.75543
      vertex -2.38034 -1.06581e-015 2.34514
      vertex -2.55274 -1.06581e-015 2.90493
    endloop
  endfacet
  facet normal 0 1 0
    outer loop
      vertex -1.17875 -1.06581e-015 1.6
      vertex -2.38034 -1.06581e-015 2.34514
      vertex -1.77149 -1.06581e-015 3.75543
    endloop
  endfacet
  facet normal 0 1 0
    outer loop
      vertex -2.38034 -1.06581e-015 2.34514
      vertex -1.17875 -1.06581e-015 1.6
      vertex -2 -1.06581e-015 1.6
    endloop
  endfacet
  facet normal 0 1 0
    outer loop
      vertex -2.38034 -1.06581e-015 2.34514
      vertex -2 -1.06581e-015 1.6
      vertex -2.27185 -1.06581e-015 1.74918
    endloop
  endfacet
  facet normal 0 1 0
    outer loop
      vertex -2 -1.06581e-015 1.6
      vertex -2.16354 -1.06581e-015 1.15417
      vertex -2.27185 -1.06581e-015 1.74918
    endloop
  endfacet
  facet normal 0 1 0
    outer loop
      vertex -2 -1.06581e-015 1.6
      vertex -2.12803 -1.06581e-015 0.564758
      vertex -2.16354 -1.06581e-015 1.15417
    endloop
  endfacet
  facet normal 0 1 -0
    outer loop
      vertex -2 -1.06581e-015 0
      vertex -2.12803 -1.06581e-015 0.564758
      vertex -2 -1.06581e-015 1.6
    endloop
  endfacet
  facet normal 0 1 0
    outer loop
      vertex -2.12803 -1.06581e-015 0.564758
      vertex -2 -1.06581e-015 0
      vertex -2.09401 -1.06581e-015 0
    endloop
  endfacet
  facet normal 0.572075 -4.97336e-007 0.820201
    outer loop
      vertex 2.93158 -1.19795 4.75
      vertex 3.8088 -1.69966 4.13816
      vertex 3.53359 -0.927843 4.33011
    endloop
  endfacet
  facet normal 0.572075 0 0.820201
    outer loop
      vertex 3.8088 -1.69966 4.13816
      vertex 2.93158 -1.19795 4.75
      vertex 3.8088 -48.3003 4.13816
    endloop
  endfacet
  facet normal 0.572075 2.74781e-007 0.820201
    outer loop
      vertex 3.1324 -0.973289 4.60994
      vertex 3.53359 -0.927843 4.33011
      vertex 3.44862 -0.689569 4.38938
    endloop
  endfacet
  facet normal 0.572075 -0 0.820201
    outer loop
      vertex 2.93158 -48.802 4.75
      vertex 3.8088 -48.3003 4.13816
      vertex 2.93158 -1.19795 4.75
    endloop
  endfacet
  facet normal 0.572075 2.38492e-007 0.820201
    outer loop
      vertex 3.53359 -0.927843 4.33011
      vertex 3.1324 -0.973289 4.60994
      vertex 2.93158 -1.19795 4.75
    endloop
  endfacet
  facet normal 0.572075 4.97339e-007 0.820201
    outer loop
      vertex 3.8088 -48.3003 4.13816
      vertex 2.93158 -48.802 4.75
      vertex 3.53359 -49.0722 4.33011
    endloop
  endfacet
  facet normal 0.572075 -2.38494e-007 0.820201
    outer loop
      vertex 3.1324 -49.0267 4.60994
      vertex 3.53359 -49.0722 4.33011
      vertex 2.93158 -48.802 4.75
    endloop
  endfacet
  facet normal 0.572075 -8.24969e-007 0.820202
    outer loop
      vertex 3.53359 -49.0722 4.33011
      vertex 3.1324 -49.0267 4.60994
      vertex 3.44862 -49.3104 4.38938
    endloop
  endfacet
  facet normal -0.572075 2.38492e-007 0.820201
    outer loop
      vertex -3.53359 -0.927843 4.33011
      vertex -2.93158 -1.19795 4.75
      vertex -3.1324 -0.973289 4.60994
    endloop
  endfacet
  facet normal -0.572075 0 0.820201
    outer loop
      vertex -2.93158 -1.19795 4.75
      vertex -3.8088 -1.69966 4.13816
      vertex -2.93158 -48.802 4.75
    endloop
  endfacet
  facet normal -0.572075 4.97339e-007 0.820201
    outer loop
      vertex -3.53359 -49.0722 4.33011
      vertex -2.93158 -48.802 4.75
      vertex -3.8088 -48.3003 4.13816
    endloop
  endfacet
  facet normal -0.572075 2.74781e-007 0.820201
    outer loop
      vertex -3.53359 -0.927843 4.33011
      vertex -3.1324 -0.973289 4.60994
      vertex -3.44862 -0.689569 4.38938
    endloop
  endfacet
  facet normal -0.572075 -4.97336e-007 0.820201
    outer loop
      vertex -2.93158 -1.19795 4.75
      vertex -3.53359 -0.927843 4.33011
      vertex -3.8088 -1.69966 4.13816
    endloop
  endfacet
  facet normal -0.572075 -8.24969e-007 0.820202
    outer loop
      vertex -3.1324 -49.0267 4.60994
      vertex -3.53359 -49.0722 4.33011
      vertex -3.44862 -49.3104 4.38938
    endloop
  endfacet
  facet normal -0.572075 0 0.820201
    outer loop
      vertex -2.93158 -48.802 4.75
      vertex -3.8088 -1.69966 4.13816
      vertex -3.8088 -48.3003 4.13816
    endloop
  endfacet
  facet normal -0.572075 -2.38494e-007 0.820201
    outer loop
      vertex -2.93158 -48.802 4.75
      vertex -3.53359 -49.0722 4.33011
      vertex -3.1324 -49.0267 4.60994
    endloop
  endfacet
  facet normal 0 -0.692529 0.72139
    outer loop
      vertex -1.90213 -49.5148 4.23051
      vertex -2.88807 -49.9589 3.80419
      vertex -1.7849 -49.9589 3.80419
    endloop
  endfacet
  facet normal 0 -0.692529 0.72139
    outer loop
      vertex -2.88807 -49.9589 3.80419
      vertex -1.90213 -49.5148 4.23051
      vertex -3.28324 -49.5148 4.23051
    endloop
  endfacet
  facet normal 0 -0.692529 0.72139
    outer loop
      vertex 1.90213 -49.5148 4.23051
      vertex 2.88807 -49.9589 3.80419
      vertex 3.28324 -49.5148 4.23051
    endloop
  endfacet
  facet normal 0 -0.692529 0.72139
    outer loop
      vertex 2.88807 -49.9589 3.80419
      vertex 1.90213 -49.5148 4.23051
      vertex 1.7849 -49.9589 3.80419
    endloop
  endfacet
  facet normal 0 -0.613752 0.789499
    outer loop
      vertex -3.1324 -49.0267 4.60994
      vertex -1.90213 -49.5148 4.23051
      vertex -2.00647 -49.0267 4.60994
    endloop
  endfacet
  facet normal 0 -0.613752 0.789499
    outer loop
      vertex -3.1324 -49.0267 4.60994
      vertex -3.28324 -49.5148 4.23051
      vertex -1.90213 -49.5148 4.23051
    endloop
  endfacet
  facet normal 0.000193432 -0.613789 0.78947
    outer loop
      vertex -3.1324 -49.0267 4.60994
      vertex -3.28993 -49.5065 4.23693
      vertex -3.28324 -49.5148 4.23051
    endloop
  endfacet
  facet normal 2.00932e-006 -0.61375 0.7895
    outer loop
      vertex -3.28993 -49.5065 4.23693
      vertex -3.1324 -49.0267 4.60994
      vertex -3.44862 -49.3104 4.38938
    endloop
  endfacet
  facet normal -2.00932e-006 -0.61375 0.7895
    outer loop
      vertex 3.1324 -49.0267 4.60994
      vertex 3.28993 -49.5065 4.23693
      vertex 3.44862 -49.3104 4.38938
    endloop
  endfacet
  facet normal -0.000193432 -0.613789 0.78947
    outer loop
      vertex 3.28993 -49.5065 4.23693
      vertex 3.1324 -49.0267 4.60994
      vertex 3.28324 -49.5148 4.23051
    endloop
  endfacet
  facet normal 0 -0.613752 0.789499
    outer loop
      vertex 1.90213 -49.5148 4.23051
      vertex 3.1324 -49.0267 4.60994
      vertex 2.00647 -49.0267 4.60994
    endloop
  endfacet
  facet normal 0 -0.613752 0.789499
    outer loop
      vertex 3.1324 -49.0267 4.60994
      vertex 1.90213 -49.5148 4.23051
      vertex 3.28324 -49.5148 4.23051
    endloop
  endfacet
  facet normal 0 -0.76439 0.644754
    outer loop
      vertex -2.84738 -50 3.75543
      vertex -1.7849 -49.9589 3.80419
      vertex -2.88807 -49.9589 3.80419
    endloop
  endfacet
  facet normal 0 -0.76439 0.644754
    outer loop
      vertex -1.7849 -49.9589 3.80419
      vertex -2.84738 -50 3.75543
      vertex -1.77149 -50 3.75543
    endloop
  endfacet
  facet normal 0 -0.76439 0.644754
    outer loop
      vertex 2.84738 -50 3.75543
      vertex 1.7849 -49.9589 3.80419
      vertex 1.77149 -50 3.75543
    endloop
  endfacet
  facet normal 0 -0.76439 0.644754
    outer loop
      vertex 1.7849 -49.9589 3.80419
      vertex 2.84738 -50 3.75543
      vertex 2.88807 -49.9589 3.80419
    endloop
  endfacet
  facet normal 0 -0.529044 0.848594
    outer loop
      vertex -2.93158 -48.802 4.75
      vertex -2.00647 -49.0267 4.60994
      vertex -2.04499 -48.802 4.75
    endloop
  endfacet
  facet normal 0 -0.529044 0.848594
    outer loop
      vertex -2.00647 -49.0267 4.60994
      vertex -2.93158 -48.802 4.75
      vertex -3.1324 -49.0267 4.60994
    endloop
  endfacet
  facet normal 0 -0.529044 0.848594
    outer loop
      vertex 2.00647 -49.0267 4.60994
      vertex 2.93158 -48.802 4.75
      vertex 2.04499 -48.802 4.75
    endloop
  endfacet
  facet normal 0 -0.529044 0.848594
    outer loop
      vertex 2.93158 -48.802 4.75
      vertex 2.00647 -49.0267 4.60994
      vertex 3.1324 -49.0267 4.60994
    endloop
  endfacet
  facet normal 0 0.613752 0.789499
    outer loop
      vertex -1.90213 -0.485217 4.23051
      vertex -3.1324 -0.973289 4.60994
      vertex -2.00647 -0.973289 4.60994
    endloop
  endfacet
  facet normal -0 0.613752 0.789499
    outer loop
      vertex -3.28324 -0.485217 4.23051
      vertex -3.1324 -0.973289 4.60994
      vertex -1.90213 -0.485217 4.23051
    endloop
  endfacet
  facet normal 3.41455e-005 0.613759 0.789494
    outer loop
      vertex -3.28993 -0.493475 4.23693
      vertex -3.1324 -0.973289 4.60994
      vertex -3.28324 -0.485217 4.23051
    endloop
  endfacet
  facet normal -1.59253e-007 0.613752 0.789499
    outer loop
      vertex -3.1324 -0.973289 4.60994
      vertex -3.28993 -0.493475 4.23693
      vertex -3.44862 -0.689569 4.38938
    endloop
  endfacet
  facet normal 1.59253e-007 0.613752 0.789499
    outer loop
      vertex 3.28993 -0.493475 4.23693
      vertex 3.1324 -0.973289 4.60994
      vertex 3.44862 -0.689569 4.38938
    endloop
  endfacet
  facet normal -3.41455e-005 0.613759 0.789494
    outer loop
      vertex 3.28324 -0.485217 4.23051
      vertex 3.1324 -0.973289 4.60994
      vertex 3.28993 -0.493475 4.23693
    endloop
  endfacet
  facet normal -0 0.613752 0.789499
    outer loop
      vertex 1.90213 -0.485217 4.23051
      vertex 3.1324 -0.973289 4.60994
      vertex 3.28324 -0.485217 4.23051
    endloop
  endfacet
  facet normal 0 0.613752 0.789499
    outer loop
      vertex 3.1324 -0.973289 4.60994
      vertex 1.90213 -0.485217 4.23051
      vertex 2.00647 -0.973289 4.60994
    endloop
  endfacet
  facet normal -0 0.764375 0.644772
    outer loop
      vertex -2.84738 -1.06581e-015 3.75543
      vertex -1.7849 -0.041132 3.80419
      vertex -1.77149 -1.06581e-015 3.75543
    endloop
  endfacet
  facet normal 0 0.764375 0.644772
    outer loop
      vertex -1.7849 -0.041132 3.80419
      vertex -2.84738 -1.06581e-015 3.75543
      vertex -2.88807 -0.041132 3.80419
    endloop
  endfacet
  facet normal 0 0.764375 0.644772
    outer loop
      vertex 2.84738 -1.06581e-015 3.75543
      vertex 1.7849 -0.041132 3.80419
      vertex 2.88807 -0.041132 3.80419
    endloop
  endfacet
  facet normal 0 0.764375 0.644772
    outer loop
      vertex 1.7849 -0.041132 3.80419
      vertex 2.84738 -1.06581e-015 3.75543
      vertex 1.77149 -1.06581e-015 3.75543
    endloop
  endfacet
  facet normal 0 0.529041 0.848597
    outer loop
      vertex -2.00647 -0.973289 4.60994
      vertex -2.93158 -1.19795 4.75
      vertex -2.04499 -1.19795 4.75
    endloop
  endfacet
  facet normal 0 0.529041 0.848597
    outer loop
      vertex -2.93158 -1.19795 4.75
      vertex -2.00647 -0.973289 4.60994
      vertex -3.1324 -0.973289 4.60994
    endloop
  endfacet
  facet normal -0 0.529041 0.848597
    outer loop
      vertex 2.00647 -0.973289 4.60994
      vertex 2.93158 -1.19795 4.75
      vertex 3.1324 -0.973289 4.60994
    endloop
  endfacet
  facet normal 0 0.529041 0.848597
    outer loop
      vertex 2.93158 -1.19795 4.75
      vertex 2.00647 -0.973289 4.60994
      vertex 2.04499 -1.19795 4.75
    endloop
  endfacet
  facet normal -0 0.692532 0.721387
    outer loop
      vertex -2.88807 -0.041132 3.80419
      vertex -1.90213 -0.485217 4.23051
      vertex -1.7849 -0.041132 3.80419
    endloop
  endfacet
  facet normal 0 0.692532 0.721387
    outer loop
      vertex -1.90213 -0.485217 4.23051
      vertex -2.88807 -0.041132 3.80419
      vertex -3.28324 -0.485217 4.23051
    endloop
  endfacet
  facet normal 0 0.692532 0.721387
    outer loop
      vertex 2.88807 -0.041132 3.80419
      vertex 1.90213 -0.485217 4.23051
      vertex 3.28324 -0.485217 4.23051
    endloop
  endfacet
  facet normal 0 0.692532 0.721387
    outer loop
      vertex 1.90213 -0.485217 4.23051
      vertex 2.88807 -0.041132 3.80419
      vertex 1.7849 -0.041132 3.80419
    endloop
  endfacet
  facet normal 0.90496 0.42199 -0.0545108
    outer loop
      vertex 2.12803 -1.06581e-015 0.564758
      vertex 2.51562 -0.904147 0
      vertex 2.09401 -1.06581e-015 0
    endloop
  endfacet
  facet normal 0.90496 0.42199 -0.0545108
    outer loop
      vertex 2.51562 -0.904147 0
      vertex 2.12803 -1.06581e-015 0.564758
      vertex 2.6177 -1.08085 0.32663
    endloop
  endfacet
  facet normal 0.841527 0.392408 -0.371278
    outer loop
      vertex 2.88807 -0.041132 3.80419
      vertex 2.73904 -1.06581e-015 3.50988
      vertex 2.84738 -1.06581e-015 3.75543
    endloop
  endfacet
  facet normal 0.841527 0.392411 -0.371277
    outer loop
      vertex 3.28324 -0.485217 4.23051
      vertex 2.73904 -1.06581e-015 3.50988
      vertex 2.88807 -0.041132 3.80419
    endloop
  endfacet
  facet normal 0.841535 0.392422 -0.371245
    outer loop
      vertex 3.53359 -0.927843 4.33011
      vertex 3.28324 -0.485217 4.23051
      vertex 3.28993 -0.493475 4.23693
    endloop
  endfacet
  facet normal 0.841527 0.39241 -0.371278
    outer loop
      vertex 3.28324 -0.485217 4.23051
      vertex 3.53359 -0.927843 4.33011
      vertex 2.73904 -1.06581e-015 3.50988
    endloop
  endfacet
  facet normal 0.841527 0.392411 -0.371277
    outer loop
      vertex 3.61246 -1.87306 3.50988
      vertex 3.53359 -0.927843 4.33011
      vertex 3.8088 -1.69966 4.13816
    endloop
  endfacet
  facet normal 0.841527 0.392411 -0.371277
    outer loop
      vertex 3.53359 -0.927843 4.33011
      vertex 3.61246 -1.87306 3.50988
      vertex 2.73904 -1.06581e-015 3.50988
    endloop
  endfacet
  facet normal 0.872942 0.40706 -0.268838
    outer loop
      vertex 3.30176 -1.86339 2.51564
      vertex 2.38034 -1.06581e-015 2.34514
      vertex 2.55274 -1.06581e-015 2.90493
    endloop
  endfacet
  facet normal 0.872942 0.40706 -0.268838
    outer loop
      vertex 2.38034 -1.06581e-015 2.34514
      vertex 3.30176 -1.86339 2.51564
      vertex 3.24848 -1.86174 2.34514
    endloop
  endfacet
  facet normal 0.894219 0.416981 -0.162783
    outer loop
      vertex 2.38034 -1.06581e-015 2.34514
      vertex 3.18787 -1.80747 2.15119
      vertex 2.27185 -1.06581e-015 1.74918
    endloop
  endfacet
  facet normal 0.894219 0.416981 -0.162784
    outer loop
      vertex 3.18787 -1.80747 2.15119
      vertex 2.38034 -1.06581e-015 2.34514
      vertex 3.24848 -1.86174 2.34514
    endloop
  endfacet
  facet normal 0.841527 0.39241 -0.371277
    outer loop
      vertex 3.44862 -0.689569 4.38938
      vertex 3.53359 -0.927843 4.33011
      vertex 3.28993 -0.493475 4.23693
    endloop
  endfacet
  facet normal 0.894219 0.416981 -0.162783
    outer loop
      vertex 2.27185 -1.06581e-015 1.74918
      vertex 2.8763 -1.52853 1.15417
      vertex 2.16354 -1.06581e-015 1.15417
    endloop
  endfacet
  facet normal 0.894219 0.416981 -0.162783
    outer loop
      vertex 2.8763 -1.52853 1.15417
      vertex 2.27185 -1.06581e-015 1.74918
      vertex 3.18787 -1.80747 2.15119
    endloop
  endfacet
  facet normal 0.90496 0.42199 -0.0545111
    outer loop
      vertex 2.16354 -1.06581e-015 1.15417
      vertex 2.6177 -1.08085 0.32663
      vertex 2.12803 -1.06581e-015 0.564758
    endloop
  endfacet
  facet normal 0.90496 0.42199 -0.054511
    outer loop
      vertex 2.6177 -1.08085 0.32663
      vertex 2.16354 -1.06581e-015 1.15417
      vertex 2.8763 -1.52853 1.15417
    endloop
  endfacet
  facet normal 0.872942 0.40706 -0.268838
    outer loop
      vertex 3.61246 -1.87306 3.50988
      vertex 2.55274 -1.06581e-015 2.90493
      vertex 2.73904 -1.06581e-015 3.50988
    endloop
  endfacet
  facet normal 0.872942 0.40706 -0.268839
    outer loop
      vertex 2.55274 -1.06581e-015 2.90493
      vertex 3.61246 -1.87306 3.50988
      vertex 3.30176 -1.86339 2.51564
    endloop
  endfacet
  facet normal -0.90496 0.42199 -0.0545111
    outer loop
      vertex -2.6177 -1.08085 0.32663
      vertex -2.16354 -1.06581e-015 1.15417
      vertex -2.12803 -1.06581e-015 0.564758
    endloop
  endfacet
  facet normal -0.90496 0.42199 -0.054511
    outer loop
      vertex -2.16354 -1.06581e-015 1.15417
      vertex -2.6177 -1.08085 0.32663
      vertex -2.8763 -1.52853 1.15417
    endloop
  endfacet
  facet normal -0.90496 0.42199 -0.0545108
    outer loop
      vertex -2.51562 -0.904147 0
      vertex -2.12803 -1.06581e-015 0.564758
      vertex -2.09401 -1.06581e-015 0
    endloop
  endfacet
  facet normal -0.90496 0.42199 -0.0545108
    outer loop
      vertex -2.12803 -1.06581e-015 0.564758
      vertex -2.51562 -0.904147 0
      vertex -2.6177 -1.08085 0.32663
    endloop
  endfacet
  facet normal -0.841527 0.392408 -0.371278
    outer loop
      vertex -2.73904 -1.06581e-015 3.50988
      vertex -2.88807 -0.041132 3.80419
      vertex -2.84738 -1.06581e-015 3.75543
    endloop
  endfacet
  facet normal -0.841527 0.392411 -0.371277
    outer loop
      vertex -2.73904 -1.06581e-015 3.50988
      vertex -3.28324 -0.485217 4.23051
      vertex -2.88807 -0.041132 3.80419
    endloop
  endfacet
  facet normal -0.841527 0.39241 -0.371278
    outer loop
      vertex -3.53359 -0.927843 4.33011
      vertex -3.28324 -0.485217 4.23051
      vertex -2.73904 -1.06581e-015 3.50988
    endloop
  endfacet
  facet normal -0.841535 0.392422 -0.371245
    outer loop
      vertex -3.28324 -0.485217 4.23051
      vertex -3.53359 -0.927843 4.33011
      vertex -3.28993 -0.493475 4.23693
    endloop
  endfacet
  facet normal -0.841527 0.392411 -0.371277
    outer loop
      vertex -3.61246 -1.87306 3.50988
      vertex -3.53359 -0.927843 4.33011
      vertex -2.73904 -1.06581e-015 3.50988
    endloop
  endfacet
  facet normal -0.841527 0.392411 -0.371277
    outer loop
      vertex -3.53359 -0.927843 4.33011
      vertex -3.61246 -1.87306 3.50988
      vertex -3.8088 -1.69966 4.13816
    endloop
  endfacet
  facet normal -0.894219 0.416981 -0.162783
    outer loop
      vertex -2.8763 -1.52853 1.15417
      vertex -2.27185 -1.06581e-015 1.74918
      vertex -2.16354 -1.06581e-015 1.15417
    endloop
  endfacet
  facet normal -0.894219 0.416981 -0.162783
    outer loop
      vertex -2.27185 -1.06581e-015 1.74918
      vertex -2.8763 -1.52853 1.15417
      vertex -3.18787 -1.80747 2.15119
    endloop
  endfacet
  facet normal -0.841527 0.39241 -0.371277
    outer loop
      vertex -3.44862 -0.689569 4.38938
      vertex -3.28993 -0.493475 4.23693
      vertex -3.53359 -0.927843 4.33011
    endloop
  endfacet
  facet normal -0.872942 0.40706 -0.268839
    outer loop
      vertex -3.61246 -1.87306 3.50988
      vertex -2.55274 -1.06581e-015 2.90493
      vertex -3.30176 -1.86339 2.51564
    endloop
  endfacet
  facet normal -0.872942 0.40706 -0.268838
    outer loop
      vertex -2.55274 -1.06581e-015 2.90493
      vertex -3.61246 -1.87306 3.50988
      vertex -2.73904 -1.06581e-015 3.50988
    endloop
  endfacet
  facet normal -0.872942 0.40706 -0.268838
    outer loop
      vertex -3.30176 -1.86339 2.51564
      vertex -2.38034 -1.06581e-015 2.34514
      vertex -3.24848 -1.86174 2.34514
    endloop
  endfacet
  facet normal -0.872942 0.40706 -0.268838
    outer loop
      vertex -2.38034 -1.06581e-015 2.34514
      vertex -3.30176 -1.86339 2.51564
      vertex -2.55274 -1.06581e-015 2.90493
    endloop
  endfacet
  facet normal -0.894219 0.416981 -0.162783
    outer loop
      vertex -3.18787 -1.80747 2.15119
      vertex -2.38034 -1.06581e-015 2.34514
      vertex -2.27185 -1.06581e-015 1.74918
    endloop
  endfacet
  facet normal -0.894219 0.416981 -0.162784
    outer loop
      vertex -2.38034 -1.06581e-015 2.34514
      vertex -3.18787 -1.80747 2.15119
      vertex -3.24848 -1.86174 2.34514
    endloop
  endfacet
  facet normal 0.90496 -0.42199 -0.0545113
    outer loop
      vertex 2.12803 -50 0.564758
      vertex 2.51562 -49.0959 0
      vertex 2.6177 -48.9192 0.32663
    endloop
  endfacet
  facet normal 0.90496 -0.42199 -0.0545108
    outer loop
      vertex 2.51562 -49.0959 0
      vertex 2.12803 -50 0.564758
      vertex 2.09401 -50 0
    endloop
  endfacet
  facet normal 0.904961 -0.421989 -0.0545102
    outer loop
      vertex 2.16354 -50 1.15417
      vertex 2.6177 -48.9192 0.32663
      vertex 2.8763 -48.4715 1.15417
    endloop
  endfacet
  facet normal 0.90496 -0.42199 -0.0545111
    outer loop
      vertex 2.6177 -48.9192 0.32663
      vertex 2.16354 -50 1.15417
      vertex 2.12803 -50 0.564758
    endloop
  endfacet
  facet normal 0.89422 -0.416981 -0.162782
    outer loop
      vertex 2.38034 -50 2.34514
      vertex 3.18787 -48.1925 2.15119
      vertex 3.24848 -48.1383 2.34514
    endloop
  endfacet
  facet normal 0.894219 -0.416981 -0.162783
    outer loop
      vertex 3.18787 -48.1925 2.15119
      vertex 2.38034 -50 2.34514
      vertex 2.27185 -50 1.74918
    endloop
  endfacet
  facet normal 0.841527 -0.392406 -0.371281
    outer loop
      vertex 3.53359 -49.0722 4.33011
      vertex 3.44862 -49.3104 4.38938
      vertex 3.28993 -49.5065 4.23693
    endloop
  endfacet
  facet normal 0.841526 -0.392412 -0.371277
    outer loop
      vertex 3.53359 -49.0722 4.33011
      vertex 3.61246 -48.1269 3.50988
      vertex 3.8088 -48.3003 4.13816
    endloop
  endfacet
  facet normal 0.841464 -0.392322 -0.371513
    outer loop
      vertex 3.28324 -49.5148 4.23051
      vertex 3.53359 -49.0722 4.33011
      vertex 3.28993 -49.5065 4.23693
    endloop
  endfacet
  facet normal 0.841527 -0.39241 -0.371277
    outer loop
      vertex 2.73904 -50 3.50988
      vertex 3.53359 -49.0722 4.33011
      vertex 3.28324 -49.5148 4.23051
    endloop
  endfacet
  facet normal 0.841528 -0.392405 -0.371281
    outer loop
      vertex 2.73904 -50 3.50988
      vertex 3.28324 -49.5148 4.23051
      vertex 2.88807 -49.9589 3.80419
    endloop
  endfacet
  facet normal 0.841521 -0.392424 -0.371275
    outer loop
      vertex 2.73904 -50 3.50988
      vertex 2.88807 -49.9589 3.80419
      vertex 2.84738 -50 3.75543
    endloop
  endfacet
  facet normal 0.841527 -0.392411 -0.371276
    outer loop
      vertex 3.53359 -49.0722 4.33011
      vertex 2.73904 -50 3.50988
      vertex 3.61246 -48.1269 3.50988
    endloop
  endfacet
  facet normal 0.872942 -0.40706 -0.268839
    outer loop
      vertex 2.55274 -50 2.90493
      vertex 3.61246 -48.1269 3.50988
      vertex 2.73904 -50 3.50988
    endloop
  endfacet
  facet normal 0.872942 -0.40706 -0.26884
    outer loop
      vertex 3.61246 -48.1269 3.50988
      vertex 2.55274 -50 2.90493
      vertex 3.30176 -48.1366 2.51564
    endloop
  endfacet
  facet normal 0.894219 -0.416981 -0.162784
    outer loop
      vertex 2.27185 -50 1.74918
      vertex 2.8763 -48.4715 1.15417
      vertex 3.18787 -48.1925 2.15119
    endloop
  endfacet
  facet normal 0.89422 -0.416981 -0.162783
    outer loop
      vertex 2.8763 -48.4715 1.15417
      vertex 2.27185 -50 1.74918
      vertex 2.16354 -50 1.15417
    endloop
  endfacet
  facet normal 0.872943 -0.407059 -0.268838
    outer loop
      vertex 2.38034 -50 2.34514
      vertex 3.30176 -48.1366 2.51564
      vertex 2.55274 -50 2.90493
    endloop
  endfacet
  facet normal 0.872944 -0.40706 -0.268833
    outer loop
      vertex 3.30176 -48.1366 2.51564
      vertex 2.38034 -50 2.34514
      vertex 3.24848 -48.1383 2.34514
    endloop
  endfacet
  facet normal -0.90496 -0.42199 -0.0545111
    outer loop
      vertex -2.16354 -50 1.15417
      vertex -2.6177 -48.9192 0.32663
      vertex -2.12803 -50 0.564758
    endloop
  endfacet
  facet normal -0.904961 -0.421989 -0.0545102
    outer loop
      vertex -2.6177 -48.9192 0.32663
      vertex -2.16354 -50 1.15417
      vertex -2.8763 -48.4715 1.15417
    endloop
  endfacet
  facet normal -0.90496 -0.42199 -0.0545108
    outer loop
      vertex -2.12803 -50 0.564758
      vertex -2.51562 -49.0959 0
      vertex -2.09401 -50 0
    endloop
  endfacet
  facet normal -0.90496 -0.42199 -0.0545113
    outer loop
      vertex -2.51562 -49.0959 0
      vertex -2.12803 -50 0.564758
      vertex -2.6177 -48.9192 0.32663
    endloop
  endfacet
  facet normal -0.894219 -0.416981 -0.162783
    outer loop
      vertex -2.38034 -50 2.34514
      vertex -3.18787 -48.1925 2.15119
      vertex -2.27185 -50 1.74918
    endloop
  endfacet
  facet normal -0.89422 -0.416981 -0.162782
    outer loop
      vertex -3.18787 -48.1925 2.15119
      vertex -2.38034 -50 2.34514
      vertex -3.24848 -48.1383 2.34514
    endloop
  endfacet
  facet normal -0.89422 -0.416981 -0.162783
    outer loop
      vertex -2.27185 -50 1.74918
      vertex -2.8763 -48.4715 1.15417
      vertex -2.16354 -50 1.15417
    endloop
  endfacet
  facet normal -0.894219 -0.416981 -0.162784
    outer loop
      vertex -2.8763 -48.4715 1.15417
      vertex -2.27185 -50 1.74918
      vertex -3.18787 -48.1925 2.15119
    endloop
  endfacet
  facet normal -0.872942 -0.40706 -0.26884
    outer loop
      vertex -2.55274 -50 2.90493
      vertex -3.61246 -48.1269 3.50988
      vertex -3.30176 -48.1366 2.51564
    endloop
  endfacet
  facet normal -0.872942 -0.40706 -0.268839
    outer loop
      vertex -3.61246 -48.1269 3.50988
      vertex -2.55274 -50 2.90493
      vertex -2.73904 -50 3.50988
    endloop
  endfacet
  facet normal -0.872944 -0.40706 -0.268833
    outer loop
      vertex -2.38034 -50 2.34514
      vertex -3.30176 -48.1366 2.51564
      vertex -3.24848 -48.1383 2.34514
    endloop
  endfacet
  facet normal -0.872943 -0.407059 -0.268838
    outer loop
      vertex -3.30176 -48.1366 2.51564
      vertex -2.38034 -50 2.34514
      vertex -2.55274 -50 2.90493
    endloop
  endfacet
  facet normal -0.841527 -0.392406 -0.371281
    outer loop
      vertex -3.28993 -49.5065 4.23693
      vertex -3.44862 -49.3104 4.38938
      vertex -3.53359 -49.0722 4.33011
    endloop
  endfacet
  facet normal -0.841526 -0.392412 -0.371277
    outer loop
      vertex -3.61246 -48.1269 3.50988
      vertex -3.53359 -49.0722 4.33011
      vertex -3.8088 -48.3003 4.13816
    endloop
  endfacet
  facet normal -0.841527 -0.392411 -0.371276
    outer loop
      vertex -2.73904 -50 3.50988
      vertex -3.53359 -49.0722 4.33011
      vertex -3.61246 -48.1269 3.50988
    endloop
  endfacet
  facet normal -0.841464 -0.392322 -0.371513
    outer loop
      vertex -3.53359 -49.0722 4.33011
      vertex -3.28324 -49.5148 4.23051
      vertex -3.28993 -49.5065 4.23693
    endloop
  endfacet
  facet normal -0.841527 -0.39241 -0.371277
    outer loop
      vertex -3.53359 -49.0722 4.33011
      vertex -2.73904 -50 3.50988
      vertex -3.28324 -49.5148 4.23051
    endloop
  endfacet
  facet normal -0.841528 -0.392405 -0.371281
    outer loop
      vertex -3.28324 -49.5148 4.23051
      vertex -2.73904 -50 3.50988
      vertex -2.88807 -49.9589 3.80419
    endloop
  endfacet
  facet normal -0.841521 -0.392424 -0.371275
    outer loop
      vertex -2.88807 -49.9589 3.80419
      vertex -2.73904 -50 3.50988
      vertex -2.84738 -50 3.75543
    endloop
  endfacet
  facet normal -0.964206 -2.47057e-006 0.265154
    outer loop
      vertex 1.17875 -1.06581e-015 1.6
      vertex 1.7849 -0.041132 3.80419
      vertex 1.77149 -1.06581e-015 3.75543
    endloop
  endfacet
  facet normal -0.964206 -8.77224e-008 0.265154
    outer loop
      vertex 1.17875 -1.06581e-015 1.6
      vertex 1.90213 -0.485217 4.23051
      vertex 1.7849 -0.041132 3.80419
    endloop
  endfacet
  facet normal -0.964206 4.24161e-007 0.265154
    outer loop
      vertex 1.17875 -1.06581e-015 1.6
      vertex 2.00647 -0.973289 4.60994
      vertex 1.90213 -0.485217 4.23051
    endloop
  endfacet
  facet normal -0.964206 -3.36149e-007 0.265154
    outer loop
      vertex 1.17875 -1.06581e-015 1.6
      vertex 2.04499 -1.19795 4.75
      vertex 2.00647 -0.973289 4.60994
    endloop
  endfacet
  facet normal -0.964206 0 0.265154
    outer loop
      vertex 1.17875 -1.06581e-015 1.6
      vertex 2.04499 -48.802 4.75
      vertex 2.04499 -1.19795 4.75
    endloop
  endfacet
  facet normal -0.964206 0 0.265154
    outer loop
      vertex 1.17875 -50 1.6
      vertex 2.04499 -48.802 4.75
      vertex 1.17875 -1.06581e-015 1.6
    endloop
  endfacet
  facet normal -0.964206 3.36153e-007 0.265154
    outer loop
      vertex 2.04499 -48.802 4.75
      vertex 1.17875 -50 1.6
      vertex 2.00647 -49.0267 4.60994
    endloop
  endfacet
  facet normal -0.964206 -4.24161e-007 0.265154
    outer loop
      vertex 2.00647 -49.0267 4.60994
      vertex 1.17875 -50 1.6
      vertex 1.90213 -49.5148 4.23051
    endloop
  endfacet
  facet normal -0.964206 8.77217e-008 0.265154
    outer loop
      vertex 1.90213 -49.5148 4.23051
      vertex 1.17875 -50 1.6
      vertex 1.7849 -49.9589 3.80419
    endloop
  endfacet
  facet normal -0.964206 2.47069e-006 0.265154
    outer loop
      vertex 1.7849 -49.9589 3.80419
      vertex 1.17875 -50 1.6
      vertex 1.77149 -50 3.75543
    endloop
  endfacet
  facet normal 0 1 0
    outer loop
      vertex 1.77149 -50 3.75543
      vertex 1.17875 -50 1.6
      vertex 1 -50 0.949999
    endloop
  endfacet
  facet normal 0.964206 4.50342e-007 0.265154
    outer loop
      vertex -1.7849 -0.041132 3.80419
      vertex -1.17875 -1.06581e-015 1.6
      vertex -1.77149 -1.06581e-015 3.75543
    endloop
  endfacet
  facet normal 0.964206 -3.00299e-007 0.265154
    outer loop
      vertex -1.90213 -0.485217 4.23051
      vertex -1.17875 -1.06581e-015 1.6
      vertex -1.7849 -0.041132 3.80419
    endloop
  endfacet
  facet normal 0.964206 5.03471e-007 0.265155
    outer loop
      vertex -2.00647 -0.973289 4.60994
      vertex -1.17875 -1.06581e-015 1.6
      vertex -1.90213 -0.485217 4.23051
    endloop
  endfacet
  facet normal 0.964206 -2.76512e-007 0.265154
    outer loop
      vertex -2.04499 -1.19795 4.75
      vertex -1.17875 -1.06581e-015 1.6
      vertex -2.00647 -0.973289 4.60994
    endloop
  endfacet
  facet normal 0.964206 -0 0.265154
    outer loop
      vertex -2.04499 -48.802 4.75
      vertex -1.17875 -1.06581e-015 1.6
      vertex -2.04499 -1.19795 4.75
    endloop
  endfacet
  facet normal 0.964206 2.76515e-007 0.265154
    outer loop
      vertex -1.17875 -50 1.6
      vertex -2.04499 -48.802 4.75
      vertex -2.00647 -49.0267 4.60994
    endloop
  endfacet
  facet normal 0.964206 -5.03471e-007 0.265155
    outer loop
      vertex -1.17875 -50 1.6
      vertex -2.00647 -49.0267 4.60994
      vertex -1.90213 -49.5148 4.23051
    endloop
  endfacet
  facet normal 0.964206 3.00297e-007 0.265154
    outer loop
      vertex -1.17875 -50 1.6
      vertex -1.90213 -49.5148 4.23051
      vertex -1.7849 -49.9589 3.80419
    endloop
  endfacet
  facet normal 0.964206 -4.50363e-007 0.265154
    outer loop
      vertex -1.17875 -50 1.6
      vertex -1.7849 -49.9589 3.80419
      vertex -1.77149 -50 3.75543
    endloop
  endfacet
  facet normal 0.964206 0 0.265154
    outer loop
      vertex -2.04499 -48.802 4.75
      vertex -1.17875 -50 1.6
      vertex -1.17875 -1.06581e-015 1.6
    endloop
  endfacet
  facet normal 0 1 0
    outer loop
      vertex -1.77149 -50 3.75543
      vertex -0.999999 -50 0.95
      vertex -1.17875 -50 1.6
    endloop
  endfacet
  facet normal 0 0 -1
    outer loop
      vertex -2.51562 -49.0959 0
      vertex -2 -50 0
      vertex -2.09401 -50 0
    endloop
  endfacet
  facet normal 0 0 -1
    outer loop
      vertex -2 -50 0
      vertex -2.51562 -49.0959 0
      vertex -2 -1.06581e-015 0
    endloop
  endfacet
  facet normal 0 0 -1
    outer loop
      vertex -2.51562 -0.904147 0
      vertex -2 -1.06581e-015 0
      vertex -2.51562 -49.0959 0
    endloop
  endfacet
  facet normal -0 0 -1
    outer loop
      vertex -2 -1.06581e-015 0
      vertex -2.51562 -0.904147 0
      vertex -2.09401 -1.06581e-015 0
    endloop
  endfacet
  facet normal 0 0 -1
    outer loop
      vertex 2 -1.06581e-015 0
      vertex 2.51562 -0.904147 0
      vertex 2.51562 -49.0959 0
    endloop
  endfacet
  facet normal 0 0 -1
    outer loop
      vertex 2 -50 0
      vertex 2.51562 -49.0959 0
      vertex 2.09401 -50 0
    endloop
  endfacet
  facet normal 0 0 -1
    outer loop
      vertex 2 -1.06581e-015 0
      vertex 2.51562 -49.0959 0
      vertex 2 -50 0
    endloop
  endfacet
  facet normal 0 0 -1
    outer loop
      vertex 2.51562 -0.904147 0
      vertex 2 -1.06581e-015 0
      vertex 2.09401 -1.06581e-015 0
    endloop
  endfacet
  facet normal 0 0 0
    outer loop
      vertex 2 -50 0
      vertex 2.09401 -50 0
      vertex -2.09401 -50 0
    endloop
  endfacet
  facet normal 0 0 0
    outer loop
      vertex -2.09401 -50 0
      vertex -2 -50 0
      vertex 2 -50 0
    endloop
  endfacet
  facet normal 0 0 -1
    outer loop
      vertex -2 -50 0
      vertex 2 -1.06581e-015 0
      vertex 2 -50 0
    endloop
  endfacet
  facet normal 0 0 -1
    outer loop
      vertex -2 -1.06581e-015 0
      vertex 2 -1.06581e-015 0
      vertex -2 -50 0
    endloop
  endfacet
  facet normal 0 0 -1
    outer loop
      vertex 2 -1.06581e-015 0
      vertex -2 -1.06581e-015 0
      vertex 2 0 0
    endloop
  endfacet
  facet normal -0 0 -1
    outer loop
      vertex 2 0 0
      vertex -2 -1.06581e-015 0
      vertex -2 0 0
    endloop
  endfacet
  facet normal -1 0 0
    outer loop
      vertex -2 -1.06581e-015 0
      vertex -2 0 1.6
      vertex -2 0 0
    endloop
  endfacet
  facet normal -1 -0 0
    outer loop
      vertex -2 0 1.6
      vertex -2 -1.06581e-015 0
      vertex -2 -1.06581e-015 1.6
    endloop
  endfacet
  facet normal 0 0 1
    outer loop
      vertex 2 0 1.6
      vertex 1.17875 -1.06581e-015 1.6
      vertex 2 -1.06581e-015 1.6
    endloop
  endfacet
  facet normal 0 0 1
    outer loop
      vertex 1.17875 -1.06581e-015 1.6
      vertex -1.17875 -1.06581e-015 1.6
      vertex 1.17875 -50 1.6
    endloop
  endfacet
  facet normal 0 0 1
    outer loop
      vertex 2 0 1.6
      vertex -1.17875 -1.06581e-015 1.6
      vertex 1.17875 -1.06581e-015 1.6
    endloop
  endfacet
  facet normal -0 0 1
    outer loop
      vertex -2 0 1.6
      vertex -1.17875 -1.06581e-015 1.6
      vertex 2 0 1.6
    endloop
  endfacet
  facet normal 0 0 1
    outer loop
      vertex -1.17875 -1.06581e-015 1.6
      vertex -2 0 1.6
      vertex -2 -1.06581e-015 1.6
    endloop
  endfacet
  facet normal 0 0 1
    outer loop
      vertex 1.17875 -50 1.6
      vertex -1.17875 -1.06581e-015 1.6
      vertex -1.17875 -50 1.6
    endloop
  endfacet
  facet normal 1 -0 0
    outer loop
      vertex 2 -1.06581e-015 1.6
      vertex 2 0 0
      vertex 2 0 1.6
    endloop
  endfacet
  facet normal 1 0 0
    outer loop
      vertex 2 0 0
      vertex 2 -1.06581e-015 1.6
      vertex 2 -1.06581e-015 0
    endloop
  endfacet
  facet normal 0 1 -0
    outer loop
      vertex 2 0 0
      vertex -2 0 1.6
      vertex 2 0 1.6
    endloop
  endfacet
  facet normal 0 1 0
    outer loop
      vertex -2 0 1.6
      vertex 2 0 0
      vertex -2 0 0
    endloop
  endfacet
  facet normal 0 -1 0
    outer loop
      vertex -0.999999 -50 0.95
      vertex 1.17875 -50 1.6
      vertex -1.17875 -50 1.6
    endloop
  endfacet
  facet normal 0 -1 0
    outer loop
      vertex 1.17875 -50 1.6
      vertex -0.999999 -50 0.95
      vertex 1 -50 0.949999
    endloop
  endfacet
endsolid OpenSCAD_Model
