solid OpenSCAD_Model
  facet normal -2.31297e-016 1 0
    outer loop
      vertex -3.55988 -8.23387e-016 2.73904
      vertex -3.80543 -8.80182e-016 8.44975e-016
      vertex -3.80543 -8.80182e-016 2.84738
    endloop
  endfacet
  facet normal -2.31296e-016 1 -9.4737e-024
    outer loop
      vertex -2.95493 -6.83464e-016 2.55274
      vertex -3.80543 -8.80182e-016 8.44975e-016
      vertex -3.55988 -8.23387e-016 2.73904
    endloop
  endfacet
  facet normal -2.31297e-016 1 2.96763e-023
    outer loop
      vertex -2.39514 -5.53988e-016 2.38034
      vertex -3.80543 -8.80182e-016 8.44975e-016
      vertex -2.95493 -6.83464e-016 2.55274
    endloop
  endfacet
  facet normal -2.31296e-016 1 -2.12309e-023
    outer loop
      vertex -1.79918 -4.16145e-016 2.27185
      vertex -3.80543 -8.80182e-016 8.44975e-016
      vertex -2.39514 -5.53988e-016 2.38034
    endloop
  endfacet
  facet normal -2.31296e-016 1 8.61644e-024
    outer loop
      vertex -7.62939e-007 -1.76465e-022 1.69407e-022
      vertex -1.79918 -4.16145e-016 2.27185
      vertex -1.20417 -2.7852e-016 2.16354
    endloop
  endfacet
  facet normal -2.31296e-016 1 -1.06625e-024
    outer loop
      vertex -7.62939e-007 -1.76465e-022 1.69407e-022
      vertex -1.20417 -2.7852e-016 2.16354
      vertex -0.614758 -1.42191e-016 2.12803
    endloop
  endfacet
  facet normal -2.31296e-016 1 0
    outer loop
      vertex -7.62939e-007 -1.76465e-022 1.69407e-022
      vertex -0.614758 -1.42191e-016 2.12803
      vertex -7.62939e-007 -1.76465e-022 2.091
    endloop
  endfacet
  facet normal -2.31296e-016 1 -3.91014e-024
    outer loop
      vertex -1.79918 -4.16145e-016 2.27185
      vertex -7.62939e-007 -1.76465e-022 1.69407e-022
      vertex -3.80543 -8.80182e-016 8.44975e-016
    endloop
  endfacet
  facet normal -1 0 0
    outer loop
      vertex -4.8 -48.802 1.06581e-015
      vertex -4.8 -1.19795 2.93158
      vertex -4.8 -1.19795 1.06581e-015
    endloop
  endfacet
  facet normal -1 -0 0
    outer loop
      vertex -4.8 -1.19795 2.93158
      vertex -4.8 -48.802 1.06581e-015
      vertex -4.8 -48.802 2.93158
    endloop
  endfacet
  facet normal 0.298275 0 0.95448
    outer loop
      vertex -0.37663 -1.08085 2.6177
      vertex -7.62939e-007 -49.1229 2.5
      vertex -7.62939e-007 -0.877099 2.5
    endloop
  endfacet
  facet normal 0.298275 0 0.95448
    outer loop
      vertex -0.37663 -1.08085 2.6177
      vertex -0.37663 -48.9192 2.6177
      vertex -7.62939e-007 -49.1229 2.5
    endloop
  endfacet
  facet normal 0.298275 0 0.95448
    outer loop
      vertex -1.20417 -1.52853 2.8763
      vertex -0.37663 -48.9192 2.6177
      vertex -0.37663 -1.08085 2.6177
    endloop
  endfacet
  facet normal 0.298275 0 0.95448
    outer loop
      vertex -1.20417 -1.52853 2.8763
      vertex -1.20417 -48.4715 2.8763
      vertex -0.37663 -48.9192 2.6177
    endloop
  endfacet
  facet normal 0.298275 0 0.95448
    outer loop
      vertex -2.20119 -1.80747 3.18787
      vertex -1.20417 -48.4715 2.8763
      vertex -1.20417 -1.52853 2.8763
    endloop
  endfacet
  facet normal 0.298275 0 0.95448
    outer loop
      vertex -2.20119 -1.80747 3.18787
      vertex -2.20119 -48.1925 3.18787
      vertex -1.20417 -48.4715 2.8763
    endloop
  endfacet
  facet normal 0.298275 0 0.95448
    outer loop
      vertex -2.39514 -1.86174 3.24848
      vertex -2.20119 -48.1925 3.18787
      vertex -2.20119 -1.80747 3.18787
    endloop
  endfacet
  facet normal 0.298275 0 0.95448
    outer loop
      vertex -2.39514 -1.86174 3.24848
      vertex -2.39514 -48.1383 3.24848
      vertex -2.20119 -48.1925 3.18787
    endloop
  endfacet
  facet normal 0.298275 0 0.95448
    outer loop
      vertex -2.56564 -1.86339 3.30176
      vertex -2.39514 -48.1383 3.24848
      vertex -2.39514 -1.86174 3.24848
    endloop
  endfacet
  facet normal 0.298275 0 0.95448
    outer loop
      vertex -2.56564 -1.86339 3.30176
      vertex -2.56564 -48.1366 3.30176
      vertex -2.39514 -48.1383 3.24848
    endloop
  endfacet
  facet normal 0.298275 0 0.95448
    outer loop
      vertex -3.55988 -1.87306 3.61246
      vertex -2.56564 -48.1366 3.30176
      vertex -2.56564 -1.86339 3.30176
    endloop
  endfacet
  facet normal 0.298275 0 0.95448
    outer loop
      vertex -3.55988 -1.87306 3.61246
      vertex -3.55988 -48.1269 3.61246
      vertex -2.56564 -48.1366 3.30176
    endloop
  endfacet
  facet normal 0.298275 0 0.95448
    outer loop
      vertex -4.18816 -1.69966 3.8088
      vertex -3.55988 -48.1269 3.61246
      vertex -3.55988 -1.87306 3.61246
    endloop
  endfacet
  facet normal 0.298275 0 0.95448
    outer loop
      vertex -3.55988 -48.1269 3.61246
      vertex -4.18816 -1.69966 3.8088
      vertex -4.18816 -48.3003 3.8088
    endloop
  endfacet
  facet normal -0.820201 2.74781e-007 0.572075
    outer loop
      vertex -4.65994 -0.973289 3.1324
      vertex -4.38011 -0.927843 3.53359
      vertex -4.43937 -0.689569 3.44862
    endloop
  endfacet
  facet normal -0.820202 2.17544e-006 0.572075
    outer loop
      vertex -4.8 -1.19795 2.93158
      vertex -4.38011 -0.927843 3.53359
      vertex -4.65994 -0.973289 3.1324
    endloop
  endfacet
  facet normal -0.820201 1.3921e-007 0.572075
    outer loop
      vertex -4.8 -1.19795 2.93158
      vertex -4.18816 -1.69966 3.8088
      vertex -4.38011 -0.927843 3.53359
    endloop
  endfacet
  facet normal -0.820201 0 0.572075
    outer loop
      vertex -4.8 -1.19795 2.93158
      vertex -4.18816 -48.3003 3.8088
      vertex -4.18816 -1.69966 3.8088
    endloop
  endfacet
  facet normal -0.820201 0 0.572075
    outer loop
      vertex -4.8 -48.802 2.93158
      vertex -4.18816 -48.3003 3.8088
      vertex -4.8 -1.19795 2.93158
    endloop
  endfacet
  facet normal -0.820202 -2.17545e-006 0.572075
    outer loop
      vertex -4.38011 -49.0722 3.53359
      vertex -4.8 -48.802 2.93158
      vertex -4.65994 -49.0267 3.1324
    endloop
  endfacet
  facet normal -0.820201 -1.39211e-007 0.572075
    outer loop
      vertex -4.8 -48.802 2.93158
      vertex -4.38011 -49.0722 3.53359
      vertex -4.18816 -48.3003 3.8088
    endloop
  endfacet
  facet normal -0.820201 7.52683e-007 0.572075
    outer loop
      vertex -4.38011 -49.0722 3.53359
      vertex -4.65994 -49.0267 3.1324
      vertex -4.43938 -49.3104 3.44862
    endloop
  endfacet
  facet normal -0.789499 -0.613752 0
    outer loop
      vertex -4.28051 -49.5148 9.50465e-016
      vertex -4.65994 -49.0267 3.1324
      vertex -4.65994 -49.0267 1.03471e-015
    endloop
  endfacet
  facet normal -0.789501 -0.61375 -2.69901e-006
    outer loop
      vertex -4.65994 -49.0267 3.1324
      vertex -4.28693 -49.5065 3.28993
      vertex -4.43938 -49.3104 3.44862
    endloop
  endfacet
  facet normal -0.789499 -0.613752 0
    outer loop
      vertex -4.65994 -49.0267 3.1324
      vertex -4.28051 -49.5148 9.50465e-016
      vertex -4.28051 -49.5148 3.28324
    endloop
  endfacet
  facet normal -0.78947 -0.613789 -0.000194121
    outer loop
      vertex -4.65994 -49.0267 3.1324
      vertex -4.28051 -49.5148 3.28324
      vertex -4.28693 -49.5065 3.28993
    endloop
  endfacet
  facet normal -0.644754 -0.76439 0
    outer loop
      vertex -3.85419 -49.9589 8.55802e-016
      vertex -3.80543 -50 2.84738
      vertex -3.85419 -49.9589 2.88807
    endloop
  endfacet
  facet normal -0.644754 -0.76439 -0
    outer loop
      vertex -3.80543 -50 2.84738
      vertex -3.85419 -49.9589 8.55802e-016
      vertex -3.80543 -50 8.44975e-016
    endloop
  endfacet
  facet normal -0.848594 -0.529045 0
    outer loop
      vertex -4.65994 -49.0267 1.03471e-015
      vertex -4.8 -48.802 2.93158
      vertex -4.8 -48.802 1.06581e-015
    endloop
  endfacet
  facet normal -0.848594 -0.529045 0
    outer loop
      vertex -4.8 -48.802 2.93158
      vertex -4.65994 -49.0267 1.03471e-015
      vertex -4.65994 -49.0267 3.1324
    endloop
  endfacet
  facet normal -0.72139 -0.69253 -0
    outer loop
      vertex -3.85419 -49.9589 2.88807
      vertex -4.28051 -49.5148 9.50465e-016
      vertex -3.85419 -49.9589 8.55802e-016
    endloop
  endfacet
  facet normal -0.72139 -0.69253 0
    outer loop
      vertex -4.28051 -49.5148 9.50465e-016
      vertex -3.85419 -49.9589 2.88807
      vertex -4.28051 -49.5148 3.28324
    endloop
  endfacet
  facet normal -0.721387 0.692532 0
    outer loop
      vertex -4.28051 -0.485217 9.50465e-016
      vertex -3.85419 -0.041132 2.88807
      vertex -3.85419 -0.041132 8.55802e-016
    endloop
  endfacet
  facet normal -0.721387 0.692532 0
    outer loop
      vertex -3.85419 -0.041132 2.88807
      vertex -4.28051 -0.485217 9.50465e-016
      vertex -4.28051 -0.485217 3.28324
    endloop
  endfacet
  facet normal -0.789499 0.613752 0
    outer loop
      vertex -4.65994 -0.973289 3.1324
      vertex -4.28051 -0.485217 3.28324
      vertex -4.28051 -0.485217 9.50465e-016
    endloop
  endfacet
  facet normal -0.7895 0.61375 5.92757e-006
    outer loop
      vertex -4.28051 -0.485217 3.28324
      vertex -4.65994 -0.973289 3.1324
      vertex -4.28693 -0.493475 3.28993
    endloop
  endfacet
  facet normal -0.789499 0.613752 0
    outer loop
      vertex -4.65994 -0.973289 3.1324
      vertex -4.28051 -0.485217 9.50465e-016
      vertex -4.65994 -0.973289 1.03471e-015
    endloop
  endfacet
  facet normal -0.789499 0.613752 1.59253e-007
    outer loop
      vertex -4.28693 -0.493475 3.28993
      vertex -4.65994 -0.973289 3.1324
      vertex -4.43937 -0.689569 3.44862
    endloop
  endfacet
  facet normal -0.644772 0.764375 0
    outer loop
      vertex -3.80543 -8.80182e-016 2.84738
      vertex -3.85419 -0.041132 8.55802e-016
      vertex -3.85419 -0.041132 2.88807
    endloop
  endfacet
  facet normal -0.644772 0.764375 0
    outer loop
      vertex -3.85419 -0.041132 8.55802e-016
      vertex -3.80543 -8.80182e-016 2.84738
      vertex -3.80543 -8.80182e-016 8.44975e-016
    endloop
  endfacet
  facet normal -0.848596 0.529042 0
    outer loop
      vertex -4.8 -1.19795 2.93158
      vertex -4.65994 -0.973289 1.03471e-015
      vertex -4.8 -1.19795 1.06581e-015
    endloop
  endfacet
  facet normal -0.848596 0.529042 0
    outer loop
      vertex -4.65994 -0.973289 1.03471e-015
      vertex -4.8 -1.19795 2.93158
      vertex -4.65994 -0.973289 3.1324
    endloop
  endfacet
  facet normal 0.0545107 0.42199 0.90496
    outer loop
      vertex -0.614758 -1.42191e-016 2.12803
      vertex -7.62939e-007 -0.877099 2.5
      vertex -7.62939e-007 -1.76465e-022 2.091
    endloop
  endfacet
  facet normal 0.0545108 0.42199 0.90496
    outer loop
      vertex -7.62939e-007 -0.877099 2.5
      vertex -0.614758 -1.42191e-016 2.12803
      vertex -0.37663 -1.08085 2.6177
    endloop
  endfacet
  facet normal 0.371278 0.392408 0.841527
    outer loop
      vertex -3.85419 -0.041132 2.88807
      vertex -3.55988 -8.23387e-016 2.73904
      vertex -3.80543 -8.80182e-016 2.84738
    endloop
  endfacet
  facet normal 0.371277 0.392411 0.841527
    outer loop
      vertex -4.28051 -0.485217 3.28324
      vertex -3.55988 -8.23387e-016 2.73904
      vertex -3.85419 -0.041132 2.88807
    endloop
  endfacet
  facet normal 0.371277 0.392411 0.841527
    outer loop
      vertex -4.38011 -0.927843 3.53359
      vertex -3.55988 -8.23387e-016 2.73904
      vertex -4.28051 -0.485217 3.28324
    endloop
  endfacet
  facet normal 0.371277 0.392411 0.841527
    outer loop
      vertex -3.55988 -8.23387e-016 2.73904
      vertex -4.38011 -0.927843 3.53359
      vertex -3.55988 -1.87306 3.61246
    endloop
  endfacet
  facet normal 0.37128 0.39241 0.841526
    outer loop
      vertex -4.38011 -0.927843 3.53359
      vertex -4.28051 -0.485217 3.28324
      vertex -4.28693 -0.493475 3.28993
    endloop
  endfacet
  facet normal 0.371277 0.39241 0.841527
    outer loop
      vertex -3.55988 -1.87306 3.61246
      vertex -4.38011 -0.927843 3.53359
      vertex -4.18816 -1.69966 3.8088
    endloop
  endfacet
  facet normal 0.0545111 0.42199 0.90496
    outer loop
      vertex -1.20417 -2.7852e-016 2.16354
      vertex -0.37663 -1.08085 2.6177
      vertex -0.614758 -1.42191e-016 2.12803
    endloop
  endfacet
  facet normal 0.054511 0.42199 0.90496
    outer loop
      vertex -0.37663 -1.08085 2.6177
      vertex -1.20417 -2.7852e-016 2.16354
      vertex -1.20417 -1.52853 2.8763
    endloop
  endfacet
  facet normal 0.162783 0.416981 0.894219
    outer loop
      vertex -2.39514 -5.53988e-016 2.38034
      vertex -2.20119 -1.80747 3.18787
      vertex -1.79918 -4.16145e-016 2.27185
    endloop
  endfacet
  facet normal 0.162784 0.416981 0.894219
    outer loop
      vertex -2.20119 -1.80747 3.18787
      vertex -2.39514 -5.53988e-016 2.38034
      vertex -2.39514 -1.86174 3.24848
    endloop
  endfacet
  facet normal 0.268838 0.40706 0.872942
    outer loop
      vertex -3.55988 -1.87306 3.61246
      vertex -2.95493 -6.83464e-016 2.55274
      vertex -3.55988 -8.23387e-016 2.73904
    endloop
  endfacet
  facet normal 0.268839 0.40706 0.872942
    outer loop
      vertex -2.95493 -6.83464e-016 2.55274
      vertex -3.55988 -1.87306 3.61246
      vertex -2.56564 -1.86339 3.30176
    endloop
  endfacet
  facet normal 0.268838 0.40706 0.872942
    outer loop
      vertex -2.39514 -5.53988e-016 2.38034
      vertex -2.56564 -1.86339 3.30176
      vertex -2.39514 -1.86174 3.24848
    endloop
  endfacet
  facet normal 0.268838 0.40706 0.872942
    outer loop
      vertex -2.56564 -1.86339 3.30176
      vertex -2.39514 -5.53988e-016 2.38034
      vertex -2.95493 -6.83464e-016 2.55274
    endloop
  endfacet
  facet normal 0.371277 0.39241 0.841527
    outer loop
      vertex -4.43937 -0.689569 3.44862
      vertex -4.38011 -0.927843 3.53359
      vertex -4.28693 -0.493475 3.28993
    endloop
  endfacet
  facet normal 0.162783 0.416981 0.894219
    outer loop
      vertex -1.79918 -4.16145e-016 2.27185
      vertex -1.20417 -1.52853 2.8763
      vertex -1.20417 -2.7852e-016 2.16354
    endloop
  endfacet
  facet normal 0.162783 0.416981 0.894219
    outer loop
      vertex -1.20417 -1.52853 2.8763
      vertex -1.79918 -4.16145e-016 2.27185
      vertex -2.20119 -1.80747 3.18787
    endloop
  endfacet
  facet normal 0.0545102 -0.421989 0.904961
    outer loop
      vertex -1.20417 -50 2.16354
      vertex -0.37663 -48.9192 2.6177
      vertex -1.20417 -48.4715 2.8763
    endloop
  endfacet
  facet normal 0.0545111 -0.42199 0.90496
    outer loop
      vertex -0.37663 -48.9192 2.6177
      vertex -1.20417 -50 2.16354
      vertex -0.614758 -50 2.12803
    endloop
  endfacet
  facet normal 0.37128 -0.392407 0.841527
    outer loop
      vertex -4.38011 -49.0722 3.53359
      vertex -4.43938 -49.3104 3.44862
      vertex -4.28693 -49.5065 3.28993
    endloop
  endfacet
  facet normal 0.371276 -0.392411 0.841527
    outer loop
      vertex -4.38011 -49.0722 3.53359
      vertex -3.55988 -50 2.73904
      vertex -3.55988 -48.1269 3.61246
    endloop
  endfacet
  facet normal 0.371275 -0.392424 0.841521
    outer loop
      vertex -3.55988 -50 2.73904
      vertex -3.85419 -49.9589 2.88807
      vertex -3.80543 -50 2.84738
    endloop
  endfacet
  facet normal 0.371277 -0.392411 0.841526
    outer loop
      vertex -4.38011 -49.0722 3.53359
      vertex -3.55988 -48.1269 3.61246
      vertex -4.18816 -48.3003 3.8088
    endloop
  endfacet
  facet normal 0.371277 -0.39241 0.841527
    outer loop
      vertex -3.55988 -50 2.73904
      vertex -4.38011 -49.0722 3.53359
      vertex -4.28051 -49.5148 3.28324
    endloop
  endfacet
  facet normal 0.371281 -0.392405 0.841528
    outer loop
      vertex -3.55988 -50 2.73904
      vertex -4.28051 -49.5148 3.28324
      vertex -3.85419 -49.9589 2.88807
    endloop
  endfacet
  facet normal 0.371512 -0.392322 0.841464
    outer loop
      vertex -4.28051 -49.5148 3.28324
      vertex -4.38011 -49.0722 3.53359
      vertex -4.28693 -49.5065 3.28993
    endloop
  endfacet
  facet normal 0.0545099 -0.42199 0.90496
    outer loop
      vertex -0.614758 -50 2.12803
      vertex -7.62939e-007 -49.1229 2.5
      vertex -0.37663 -48.9192 2.6177
    endloop
  endfacet
  facet normal 0.0545107 -0.42199 0.90496
    outer loop
      vertex -7.62939e-007 -49.1229 2.5
      vertex -0.614758 -50 2.12803
      vertex -7.62939e-007 -50 2.091
    endloop
  endfacet
  facet normal 0.268834 -0.40706 0.872944
    outer loop
      vertex -2.56564 -48.1366 3.30176
      vertex -2.39514 -50 2.38034
      vertex -2.39514 -48.1383 3.24848
    endloop
  endfacet
  facet normal 0.268838 -0.407059 0.872943
    outer loop
      vertex -2.39514 -50 2.38034
      vertex -2.56564 -48.1366 3.30176
      vertex -2.95493 -50 2.55274
    endloop
  endfacet
  facet normal 0.26884 -0.40706 0.872942
    outer loop
      vertex -3.55988 -48.1269 3.61246
      vertex -2.95493 -50 2.55274
      vertex -2.56564 -48.1366 3.30176
    endloop
  endfacet
  facet normal 0.268839 -0.40706 0.872942
    outer loop
      vertex -2.95493 -50 2.55274
      vertex -3.55988 -48.1269 3.61246
      vertex -3.55988 -50 2.73904
    endloop
  endfacet
  facet normal 0.162783 -0.416981 0.89422
    outer loop
      vertex -1.20417 -48.4715 2.8763
      vertex -1.79918 -50 2.27185
      vertex -1.20417 -50 2.16354
    endloop
  endfacet
  facet normal 0.162784 -0.416981 0.894219
    outer loop
      vertex -1.79918 -50 2.27185
      vertex -1.20417 -48.4715 2.8763
      vertex -2.20119 -48.1925 3.18787
    endloop
  endfacet
  facet normal 0.162782 -0.416981 0.89422
    outer loop
      vertex -2.39514 -50 2.38034
      vertex -2.20119 -48.1925 3.18787
      vertex -2.39514 -48.1383 3.24848
    endloop
  endfacet
  facet normal 0.162783 -0.416981 0.894219
    outer loop
      vertex -2.20119 -48.1925 3.18787
      vertex -2.39514 -50 2.38034
      vertex -1.79918 -50 2.27185
    endloop
  endfacet
  facet normal 1 0 0
    outer loop
      vertex -7.62939e-007 -0.877099 2.5
      vertex -7.62939e-007 -1.76465e-022 1.69407e-022
      vertex -7.62939e-007 -1.76465e-022 2.091
    endloop
  endfacet
  facet normal 1 -0 0
    outer loop
      vertex -7.62939e-007 -49.1229 2.5
      vertex -7.62939e-007 -1.76465e-022 1.69407e-022
      vertex -7.62939e-007 -0.877099 2.5
    endloop
  endfacet
  facet normal 1 0 0
    outer loop
      vertex -7.62939e-007 -50 1.69407e-022
      vertex -7.62939e-007 -49.1229 2.5
      vertex -7.62939e-007 -50 2.091
    endloop
  endfacet
  facet normal 1 0 0
    outer loop
      vertex -7.62939e-007 -49.1229 2.5
      vertex -7.62939e-007 -50 1.69407e-022
      vertex -7.62939e-007 -1.76465e-022 1.69407e-022
    endloop
  endfacet
  facet normal -2.22045e-016 0 -1
    outer loop
      vertex -4.28051 -49.5148 9.50465e-016
      vertex -7.62939e-007 -50 1.69407e-022
      vertex -3.80543 -50 8.44975e-016
    endloop
  endfacet
  facet normal -2.22045e-016 0 -1
    outer loop
      vertex -7.62939e-007 -50 1.69407e-022
      vertex -4.8 -48.802 1.06581e-015
      vertex -7.62939e-007 -1.76465e-022 1.69407e-022
    endloop
  endfacet
  facet normal -2.22045e-016 0 -1
    outer loop
      vertex -4.28051 -49.5148 9.50465e-016
      vertex -3.80543 -50 8.44975e-016
      vertex -3.85419 -49.9589 8.55802e-016
    endloop
  endfacet
  facet normal -2.22045e-016 -0 -1
    outer loop
      vertex -4.8 -1.19795 1.06581e-015
      vertex -7.62939e-007 -1.76465e-022 1.69407e-022
      vertex -4.8 -48.802 1.06581e-015
    endloop
  endfacet
  facet normal -2.22045e-016 0 -1
    outer loop
      vertex -4.65994 -49.0267 1.03471e-015
      vertex -7.62939e-007 -50 1.69407e-022
      vertex -4.28051 -49.5148 9.50465e-016
    endloop
  endfacet
  facet normal -2.22045e-016 0 -1
    outer loop
      vertex -4.65994 -0.973289 1.03471e-015
      vertex -7.62939e-007 -1.76465e-022 1.69407e-022
      vertex -4.8 -1.19795 1.06581e-015
    endloop
  endfacet
  facet normal -2.22045e-016 0 -1
    outer loop
      vertex -7.62939e-007 -50 1.69407e-022
      vertex -4.65994 -49.0267 1.03471e-015
      vertex -4.8 -48.802 1.06581e-015
    endloop
  endfacet
  facet normal -2.22045e-016 0 -1
    outer loop
      vertex -7.62939e-007 -1.76465e-022 1.69407e-022
      vertex -4.28051 -0.485217 9.50465e-016
      vertex -3.80543 -8.80182e-016 8.44975e-016
    endloop
  endfacet
  facet normal -2.22045e-016 0 -1
    outer loop
      vertex -3.80543 -8.80182e-016 8.44975e-016
      vertex -4.28051 -0.485217 9.50465e-016
      vertex -3.85419 -0.041132 8.55802e-016
    endloop
  endfacet
  facet normal -2.22045e-016 0 -1
    outer loop
      vertex -7.62939e-007 -1.76465e-022 1.69407e-022
      vertex -4.65994 -0.973289 1.03471e-015
      vertex -4.28051 -0.485217 9.50465e-016
    endloop
  endfacet
  facet normal 0 -1 0
    outer loop
      vertex -3.80543 -50 8.44975e-016
      vertex -3.55988 -50 2.73904
      vertex -3.80543 -50 2.84738
    endloop
  endfacet
  facet normal 0 -1 0
    outer loop
      vertex -3.80543 -50 8.44975e-016
      vertex -2.95493 -50 2.55274
      vertex -3.55988 -50 2.73904
    endloop
  endfacet
  facet normal 0 -1 0
    outer loop
      vertex -3.80543 -50 8.44975e-016
      vertex -2.39514 -50 2.38034
      vertex -2.95493 -50 2.55274
    endloop
  endfacet
  facet normal 0 -1 0
    outer loop
      vertex -3.80543 -50 8.44975e-016
      vertex -1.79918 -50 2.27185
      vertex -2.39514 -50 2.38034
    endloop
  endfacet
  facet normal 0 -1 0
    outer loop
      vertex -7.62939e-007 -50 1.69407e-022
      vertex -1.79918 -50 2.27185
      vertex -3.80543 -50 8.44975e-016
    endloop
  endfacet
  facet normal 0 -1 0
    outer loop
      vertex -1.79918 -50 2.27185
      vertex -7.62939e-007 -50 1.69407e-022
      vertex -1.20417 -50 2.16354
    endloop
  endfacet
  facet normal 0 -1 0
    outer loop
      vertex -1.20417 -50 2.16354
      vertex -7.62939e-007 -50 1.69407e-022
      vertex -0.614758 -50 2.12803
    endloop
  endfacet
  facet normal 0 -1 0
    outer loop
      vertex -0.614758 -50 2.12803
      vertex -7.62939e-007 -50 1.69407e-022
      vertex -7.62939e-007 -50 2.091
    endloop
  endfacet
endsolid OpenSCAD_Model
