solid OpenSCAD_Model
  facet normal 2.22045e-016 1 0
    outer loop
      vertex 5 -1.11022e-015 2.67511
      vertex 4.30533 -9.55974e-016 3.60202
      vertex 4.93634 -1.09609e-015 2.85
    endloop
  endfacet
  facet normal 2.22045e-016 1 2.03607e-032
    outer loop
      vertex 5 -1.11022e-015 2.67511
      vertex 5.27356e-016 0 2.375
      vertex 4.30533 -9.55974e-016 3.60202
    endloop
  endfacet
  facet normal 2.22045e-016 1 -0
    outer loop
      vertex 5 -1.11022e-015 0.0999994
      vertex 5.27356e-016 0 2.375
      vertex 5 -1.11022e-015 2.67511
    endloop
  endfacet
  facet normal 2.22045e-016 1 -4.93038e-032
    outer loop
      vertex 5.27356e-016 0 2.375
      vertex 5 -1.11022e-015 0.0999994
      vertex 2.22043e-017 0 0.0999994
    endloop
  endfacet
  facet normal 1 -0 0
    outer loop
      vertex 5 -50 2.67511
      vertex 5 -1.11022e-015 0.0999994
      vertex 5 -1.11022e-015 2.67511
    endloop
  endfacet
  facet normal 1 0 0
    outer loop
      vertex 5 -1.11022e-015 0.0999994
      vertex 5 -50 2.67511
      vertex 5 -50 0.0999994
    endloop
  endfacet
  facet normal 0 -1 0
    outer loop
      vertex -5 -50 2.67511
      vertex -4.30533 -50 3.60202
      vertex -4.93634 -50 2.85
    endloop
  endfacet
  facet normal 0 -1 0
    outer loop
      vertex -5 -50 2.67511
      vertex -1.05749e-014 -50 2.375
      vertex -4.30533 -50 3.60202
    endloop
  endfacet
  facet normal 0 -1 0
    outer loop
      vertex -5 -50 0.0999994
      vertex -1.05749e-014 -50 2.375
      vertex -5 -50 2.67511
    endloop
  endfacet
  facet normal 0 -1 0
    outer loop
      vertex -1.05749e-014 -50 2.375
      vertex -5 -50 0.0999994
      vertex -1.108e-014 -50 0.0999994
    endloop
  endfacet
  facet normal -0.274086 0 0.961705
    outer loop
      vertex 5.27356e-016 0 2.375
      vertex 4.30533 -50 3.60202
      vertex 4.30533 -9.55974e-016 3.60202
    endloop
  endfacet
  facet normal -0.274086 6.34872e-017 0.961705
    outer loop
      vertex 4.30533 -50 3.60202
      vertex 5.27356e-016 0 2.375
      vertex -1.05749e-014 -50 2.375
    endloop
  endfacet
  facet normal 0.274086 -6.34872e-017 0.961705
    outer loop
      vertex -4.30533 0 3.60202
      vertex -1.05749e-014 -50 2.375
      vertex 5.27356e-016 0 2.375
    endloop
  endfacet
  facet normal 0.274086 0 0.961705
    outer loop
      vertex -1.05749e-014 -50 2.375
      vertex -4.30533 0 3.60202
      vertex -4.30533 -50 3.60202
    endloop
  endfacet
  facet normal -1 0 0
    outer loop
      vertex -5 -50 0.0999994
      vertex -5 0 2.67511
      vertex -5 0 0.0999994
    endloop
  endfacet
  facet normal -1 -0 0
    outer loop
      vertex -5 0 2.67511
      vertex -5 -50 0.0999994
      vertex -5 -50 2.67511
    endloop
  endfacet
  facet normal 0.939693 -0 0.34202
    outer loop
      vertex 4.93634 -50 2.85
      vertex 5 -1.11022e-015 2.67511
      vertex 4.93634 -1.09609e-015 2.85
    endloop
  endfacet
  facet normal 0.939693 0 0.34202
    outer loop
      vertex 5 -1.11022e-015 2.67511
      vertex 4.93634 -50 2.85
      vertex 5 -50 2.67511
    endloop
  endfacet
  facet normal -0.766045 0 0.642787
    outer loop
      vertex -4.93634 -50 2.85
      vertex -4.30533 0 3.60202
      vertex -4.93634 0 2.85
    endloop
  endfacet
  facet normal -0.766045 0 0.642787
    outer loop
      vertex -4.30533 0 3.60202
      vertex -4.93634 -50 2.85
      vertex -4.30533 -50 3.60202
    endloop
  endfacet
  facet normal 0 1 0
    outer loop
      vertex -4.30533 0 3.60202
      vertex -5 0 2.67511
      vertex -4.93634 0 2.85
    endloop
  endfacet
  facet normal 0 1 0
    outer loop
      vertex 5.27356e-016 0 2.375
      vertex -5 0 2.67511
      vertex -4.30533 0 3.60202
    endloop
  endfacet
  facet normal 0 1 0
    outer loop
      vertex -5 0 0.0999994
      vertex 5.27356e-016 0 2.375
      vertex 2.22043e-017 0 0.0999994
    endloop
  endfacet
  facet normal 0 1 0
    outer loop
      vertex 5.27356e-016 0 2.375
      vertex -5 0 0.0999994
      vertex -5 0 2.67511
    endloop
  endfacet
  facet normal -0.939693 0 0.34202
    outer loop
      vertex -5 -50 2.67511
      vertex -4.93634 0 2.85
      vertex -5 0 2.67511
    endloop
  endfacet
  facet normal -0.939693 0 0.34202
    outer loop
      vertex -4.93634 0 2.85
      vertex -5 -50 2.67511
      vertex -4.93634 -50 2.85
    endloop
  endfacet
  facet normal 0.766045 -0 0.642787
    outer loop
      vertex 4.30533 -50 3.60202
      vertex 4.93634 -1.09609e-015 2.85
      vertex 4.30533 -9.55974e-016 3.60202
    endloop
  endfacet
  facet normal 0.766045 0 0.642787
    outer loop
      vertex 4.93634 -1.09609e-015 2.85
      vertex 4.30533 -50 3.60202
      vertex 4.93634 -50 2.85
    endloop
  endfacet
  facet normal 0 0 -1
    outer loop
      vertex 5 -50 0.0999994
      vertex 2.22043e-017 0 0.0999994
      vertex 5 -1.11022e-015 0.0999994
    endloop
  endfacet
  facet normal 0 0 -1
    outer loop
      vertex -1.108e-014 -50 0.0999994
      vertex 2.22043e-017 0 0.0999994
      vertex 5 -50 0.0999994
    endloop
  endfacet
  facet normal 0 0 -1
    outer loop
      vertex -5 -50 0.0999994
      vertex 2.22043e-017 0 0.0999994
      vertex -1.108e-014 -50 0.0999994
    endloop
  endfacet
  facet normal -0 0 -1
    outer loop
      vertex 2.22043e-017 0 0.0999994
      vertex -5 -50 0.0999994
      vertex -5 0 0.0999994
    endloop
  endfacet
  facet normal 0 -1 0
    outer loop
      vertex 4.30533 -50 3.60202
      vertex 5 -50 2.67511
      vertex 4.93634 -50 2.85
    endloop
  endfacet
  facet normal 0 -1 0
    outer loop
      vertex -1.05749e-014 -50 2.375
      vertex 5 -50 2.67511
      vertex 4.30533 -50 3.60202
    endloop
  endfacet
  facet normal 0 -1 0
    outer loop
      vertex 5 -50 0.0999994
      vertex -1.05749e-014 -50 2.375
      vertex -1.108e-014 -50 0.0999994
    endloop
  endfacet
  facet normal 0 -1 0
    outer loop
      vertex -1.05749e-014 -50 2.375
      vertex 5 -50 0.0999994
      vertex 5 -50 2.67511
    endloop
  endfacet
endsolid OpenSCAD_Model
