solid OpenSCAD_Model
  facet normal 5.13337e-023 1 -2.22045e-016
    outer loop
      vertex 3.17835 -1.07691e-015 9.15527e-006
      vertex 2.42499 0 4.85
      vertex 3.75952 -9.5812e-016 0.535012
    endloop
  endfacet
  facet normal 0 1 -2.22045e-016
    outer loop
      vertex -3.0362 -1.07691e-015 9.15527e-006
      vertex 2.42499 0 4.85
      vertex 3.17835 -1.07691e-015 9.15527e-006
    endloop
  endfacet
  facet normal 0 1 -2.22045e-016
    outer loop
      vertex 2.42499 0 4.85
      vertex -3.0362 -1.07691e-015 9.15527e-006
      vertex -2.42499 0 4.85
    endloop
  endfacet
  facet normal -1.75199e-023 1 -2.22045e-016
    outer loop
      vertex -2.42499 0 4.85
      vertex -3.0362 -1.07691e-015 9.15527e-006
      vertex -3.77559 -9.69653e-016 0.483073
    endloop
  endfacet
  facet normal 0 0 -1
    outer loop
      vertex -3.0362 -50 9.15527e-006
      vertex 3.17835 -1.07691e-015 9.15527e-006
      vertex 3.17835 -50 9.15527e-006
    endloop
  endfacet
  facet normal -0 0 -1
    outer loop
      vertex 3.17835 -1.07691e-015 9.15527e-006
      vertex -3.0362 -50 9.15527e-006
      vertex -3.0362 -1.07691e-015 9.15527e-006
    endloop
  endfacet
  facet normal 0.955352 -0 0.29547
    outer loop
      vertex 2.42499 -50 4.85
      vertex 3.75952 -9.5812e-016 0.535012
      vertex 2.42499 0 4.85
    endloop
  endfacet
  facet normal 0.955352 0 0.29547
    outer loop
      vertex 3.75952 -9.5812e-016 0.535012
      vertex 2.42499 -50 4.85
      vertex 3.75952 -50 0.535012
    endloop
  endfacet
  facet normal -0.955352 0 0.29547
    outer loop
      vertex -3.77559 -50 0.483073
      vertex -2.42499 0 4.85
      vertex -3.77559 -9.69653e-016 0.483073
    endloop
  endfacet
  facet normal -0.955352 0 0.29547
    outer loop
      vertex -2.42499 0 4.85
      vertex -3.77559 -50 0.483073
      vertex -2.42499 -50 4.85
    endloop
  endfacet
  facet normal 0 -1 0
    outer loop
      vertex -2.42499 -50 4.85
      vertex -3.0362 -50 9.69999
      vertex -3.77559 -50 9.21693
    endloop
  endfacet
  facet normal 0 -1 0
    outer loop
      vertex 2.42499 -50 4.85
      vertex -3.0362 -50 9.69999
      vertex -2.42499 -50 4.85
    endloop
  endfacet
  facet normal 0 -1 0
    outer loop
      vertex -3.0362 -50 9.69999
      vertex 2.42499 -50 4.85
      vertex 3.17835 -50 9.69999
    endloop
  endfacet
  facet normal 0 -1 -0
    outer loop
      vertex 3.17835 -50 9.69999
      vertex 2.42499 -50 4.85
      vertex 3.75952 -50 9.16499
    endloop
  endfacet
  facet normal 0 -1 0
    outer loop
      vertex -3.0362 -50 9.15527e-006
      vertex 2.42499 -50 4.85
      vertex -2.42499 -50 4.85
    endloop
  endfacet
  facet normal 0 -1 0
    outer loop
      vertex -3.0362 -50 9.15527e-006
      vertex -2.42499 -50 4.85
      vertex -3.77559 -50 0.483073
    endloop
  endfacet
  facet normal 0 -1 -0
    outer loop
      vertex 2.42499 -50 4.85
      vertex -3.0362 -50 9.15527e-006
      vertex 3.17835 -50 9.15527e-006
    endloop
  endfacet
  facet normal 0 -1 0
    outer loop
      vertex 2.42499 -50 4.85
      vertex 3.17835 -50 9.15527e-006
      vertex 3.75952 -50 0.535012
    endloop
  endfacet
  facet normal -0.955352 0 -0.29547
    outer loop
      vertex -2.42499 -50 4.85
      vertex -3.77559 0 9.21693
      vertex -2.42499 0 4.85
    endloop
  endfacet
  facet normal -0.955352 -0 -0.29547
    outer loop
      vertex -3.77559 0 9.21693
      vertex -2.42499 -50 4.85
      vertex -3.77559 -50 9.21693
    endloop
  endfacet
  facet normal 0.955352 0 -0.29547
    outer loop
      vertex 3.75952 -50 9.16499
      vertex 2.42499 0 4.85
      vertex 3.75952 0 9.16499
    endloop
  endfacet
  facet normal 0.955352 0 -0.29547
    outer loop
      vertex 2.42499 0 4.85
      vertex 3.75952 -50 9.16499
      vertex 2.42499 -50 4.85
    endloop
  endfacet
  facet normal -0 0 1
    outer loop
      vertex -3.0362 0 9.69999
      vertex 3.17835 -50 9.69999
      vertex 3.17835 0 9.69999
    endloop
  endfacet
  facet normal 0 0 1
    outer loop
      vertex 3.17835 -50 9.69999
      vertex -3.0362 0 9.69999
      vertex -3.0362 -50 9.69999
    endloop
  endfacet
  facet normal 0 1 -0
    outer loop
      vertex 2.42499 0 4.85
      vertex -3.0362 0 9.69999
      vertex 3.17835 0 9.69999
    endloop
  endfacet
  facet normal 0 1 0
    outer loop
      vertex 2.42499 0 4.85
      vertex 3.17835 0 9.69999
      vertex 3.75952 0 9.16499
    endloop
  endfacet
  facet normal 0 1 0
    outer loop
      vertex -3.0362 0 9.69999
      vertex 2.42499 0 4.85
      vertex -2.42499 0 4.85
    endloop
  endfacet
  facet normal 0 1 0
    outer loop
      vertex -3.0362 0 9.69999
      vertex -2.42499 0 4.85
      vertex -3.77559 0 9.21693
    endloop
  endfacet
  facet normal -0.546948 0 0.837166
    outer loop
      vertex -3.77559 0 9.21693
      vertex -3.0362 -50 9.69999
      vertex -3.0362 0 9.69999
    endloop
  endfacet
  facet normal -0.546948 0 0.837166
    outer loop
      vertex -3.0362 -50 9.69999
      vertex -3.77559 0 9.21693
      vertex -3.77559 -50 9.21693
    endloop
  endfacet
  facet normal 0.677282 0 0.735724
    outer loop
      vertex 3.17835 0 9.69999
      vertex 3.75952 -50 9.16499
      vertex 3.75952 0 9.16499
    endloop
  endfacet
  facet normal 0.677282 0 0.735724
    outer loop
      vertex 3.75952 -50 9.16499
      vertex 3.17835 0 9.69999
      vertex 3.17835 -50 9.69999
    endloop
  endfacet
  facet normal 0.677281 0 -0.735724
    outer loop
      vertex 3.17835 -50 9.15527e-006
      vertex 3.75952 -9.5812e-016 0.535012
      vertex 3.75952 -50 0.535012
    endloop
  endfacet
  facet normal 0.677281 0 -0.735724
    outer loop
      vertex 3.75952 -9.5812e-016 0.535012
      vertex 3.17835 -50 9.15527e-006
      vertex 3.17835 -1.07691e-015 9.15527e-006
    endloop
  endfacet
  facet normal -0.546948 0 -0.837166
    outer loop
      vertex -3.77559 -50 0.483073
      vertex -3.0362 -1.07691e-015 9.15527e-006
      vertex -3.0362 -50 9.15527e-006
    endloop
  endfacet
  facet normal -0.546948 0 -0.837166
    outer loop
      vertex -3.0362 -1.07691e-015 9.15527e-006
      vertex -3.77559 -50 0.483073
      vertex -3.77559 -9.69653e-016 0.483073
    endloop
  endfacet
endsolid OpenSCAD_Model
