solid OpenSCAD_Model
  facet normal 0 1 2.31297e-016
    outer loop
      vertex 2.73904 -8.23387e-016 3.55988
      vertex -2.84738 -8.80182e-016 3.80543
      vertex 2.84738 -8.80182e-016 3.80543
    endloop
  endfacet
  facet normal 0 1 2.31297e-016
    outer loop
      vertex 2.73904 -8.23387e-016 3.55988
      vertex -2.73904 -8.23387e-016 3.55988
      vertex -2.84738 -8.80182e-016 3.80543
    endloop
  endfacet
  facet normal 0 1 2.31296e-016
    outer loop
      vertex 2.55274 -6.83464e-016 2.95493
      vertex -2.73904 -8.23387e-016 3.55988
      vertex 2.73904 -8.23387e-016 3.55988
    endloop
  endfacet
  facet normal 0 1 2.31296e-016
    outer loop
      vertex 2.55274 -6.83464e-016 2.95493
      vertex -2.55274 -6.83464e-016 2.95493
      vertex -2.73904 -8.23387e-016 3.55988
    endloop
  endfacet
  facet normal 0 1 2.31297e-016
    outer loop
      vertex 2.38034 -5.53988e-016 2.39514
      vertex -2.55274 -6.83464e-016 2.95493
      vertex 2.55274 -6.83464e-016 2.95493
    endloop
  endfacet
  facet normal 0 1 2.31297e-016
    outer loop
      vertex 2.38034 -5.53988e-016 2.39514
      vertex -2.38034 -5.53988e-016 2.39514
      vertex -2.55274 -6.83464e-016 2.95493
    endloop
  endfacet
  facet normal 0 1 2.31296e-016
    outer loop
      vertex 2.27185 -4.16145e-016 1.79918
      vertex -2.38034 -5.53988e-016 2.39514
      vertex 2.38034 -5.53988e-016 2.39514
    endloop
  endfacet
  facet normal 0 1 2.31296e-016
    outer loop
      vertex 2.27185 -4.16145e-016 1.79918
      vertex -2.27185 -4.16145e-016 1.79918
      vertex -2.38034 -5.53988e-016 2.39514
    endloop
  endfacet
  facet normal 0 1 2.31296e-016
    outer loop
      vertex 2.16354 -2.7852e-016 1.20417
      vertex -2.27185 -4.16145e-016 1.79918
      vertex 2.27185 -4.16145e-016 1.79918
    endloop
  endfacet
  facet normal 0 1 2.31296e-016
    outer loop
      vertex 2.16354 -2.7852e-016 1.20417
      vertex -2.16354 -2.7852e-016 1.20417
      vertex -2.27185 -4.16145e-016 1.79918
    endloop
  endfacet
  facet normal 0 1 2.31296e-016
    outer loop
      vertex 2.12803 -1.42191e-016 0.614758
      vertex -2.16354 -2.7852e-016 1.20417
      vertex 2.16354 -2.7852e-016 1.20417
    endloop
  endfacet
  facet normal 0 1 2.31296e-016
    outer loop
      vertex 2.12803 -1.42191e-016 0.614758
      vertex -2.12803 -1.42191e-016 0.614758
      vertex -2.16354 -2.7852e-016 1.20417
    endloop
  endfacet
  facet normal 0 1 2.31296e-016
    outer loop
      vertex 2.091 -1.76465e-022 7.62939e-007
      vertex -2.12803 -1.42191e-016 0.614758
      vertex 2.12803 -1.42191e-016 0.614758
    endloop
  endfacet
  facet normal 0 1 2.31296e-016
    outer loop
      vertex -2.12803 -1.42191e-016 0.614758
      vertex 2.091 -1.76465e-022 7.62939e-007
      vertex -2.091 -1.76465e-022 7.62939e-007
    endloop
  endfacet
  facet normal -0 0 1
    outer loop
      vertex -2.93158 -1.19795 4.8
      vertex 2.93158 -48.802 4.8
      vertex 2.93158 -1.19795 4.8
    endloop
  endfacet
  facet normal 0 0 1
    outer loop
      vertex 2.93158 -48.802 4.8
      vertex -2.93158 -1.19795 4.8
      vertex -2.93158 -48.802 4.8
    endloop
  endfacet
  facet normal -0.95448 0 -0.298275
    outer loop
      vertex -3.30176 -1.86339 2.56564
      vertex -3.61246 -48.1269 3.55988
      vertex -3.61246 -1.87306 3.55988
    endloop
  endfacet
  facet normal -0.95448 0 -0.298275
    outer loop
      vertex -3.30176 -48.1366 2.56564
      vertex -3.30176 -1.86339 2.56564
      vertex -3.24848 -1.86174 2.39514
    endloop
  endfacet
  facet normal -0.95448 0 -0.298275
    outer loop
      vertex -3.24848 -48.1383 2.39514
      vertex -3.24848 -1.86174 2.39514
      vertex -3.18787 -1.80747 2.20119
    endloop
  endfacet
  facet normal -0.95448 0 -0.298275
    outer loop
      vertex -3.18787 -48.1925 2.20119
      vertex -3.18787 -1.80747 2.20119
      vertex -2.8763 -1.52853 1.20417
    endloop
  endfacet
  facet normal -0.95448 0 -0.298275
    outer loop
      vertex -2.8763 -48.4715 1.20417
      vertex -2.8763 -1.52853 1.20417
      vertex -2.6177 -1.08085 0.37663
    endloop
  endfacet
  facet normal -0.95448 0 -0.298275
    outer loop
      vertex -2.6177 -48.9192 0.37663
      vertex -2.6177 -1.08085 0.37663
      vertex -2.5 -0.877099 7.62939e-007
    endloop
  endfacet
  facet normal -0.95448 -0 -0.298275
    outer loop
      vertex -3.30176 -1.86339 2.56564
      vertex -3.30176 -48.1366 2.56564
      vertex -3.61246 -48.1269 3.55988
    endloop
  endfacet
  facet normal -0.95448 -0 -0.298275
    outer loop
      vertex -3.24848 -1.86174 2.39514
      vertex -3.24848 -48.1383 2.39514
      vertex -3.30176 -48.1366 2.56564
    endloop
  endfacet
  facet normal -0.95448 -0 -0.298275
    outer loop
      vertex -3.18787 -1.80747 2.20119
      vertex -3.18787 -48.1925 2.20119
      vertex -3.24848 -48.1383 2.39514
    endloop
  endfacet
  facet normal -0.95448 -0 -0.298275
    outer loop
      vertex -2.8763 -1.52853 1.20417
      vertex -2.8763 -48.4715 1.20417
      vertex -3.18787 -48.1925 2.20119
    endloop
  endfacet
  facet normal -0.95448 -0 -0.298275
    outer loop
      vertex -2.6177 -1.08085 0.37663
      vertex -2.6177 -48.9192 0.37663
      vertex -2.8763 -48.4715 1.20417
    endloop
  endfacet
  facet normal -0.95448 0 -0.298275
    outer loop
      vertex -2.6177 -48.9192 0.37663
      vertex -2.5 -0.877099 7.62939e-007
      vertex -2.5 -49.1229 7.62939e-007
    endloop
  endfacet
  facet normal -0.95448 0 -0.298275
    outer loop
      vertex -3.61246 -48.1269 3.55988
      vertex -3.8088 -1.69966 4.18816
      vertex -3.61246 -1.87306 3.55988
    endloop
  endfacet
  facet normal -0.95448 -0 -0.298275
    outer loop
      vertex -3.8088 -1.69966 4.18816
      vertex -3.61246 -48.1269 3.55988
      vertex -3.8088 -48.3003 4.18816
    endloop
  endfacet
  facet normal 0.95448 0 -0.298275
    outer loop
      vertex 3.8088 -1.69966 4.18816
      vertex 3.61246 -48.1269 3.55988
      vertex 3.61246 -1.87306 3.55988
    endloop
  endfacet
  facet normal 0.95448 0 -0.298275
    outer loop
      vertex 3.61246 -48.1269 3.55988
      vertex 3.8088 -1.69966 4.18816
      vertex 3.8088 -48.3003 4.18816
    endloop
  endfacet
  facet normal 0.95448 0 -0.298275
    outer loop
      vertex 3.61246 -48.1269 3.55988
      vertex 3.30176 -1.86339 2.56564
      vertex 3.61246 -1.87306 3.55988
    endloop
  endfacet
  facet normal 0.95448 0 -0.298275
    outer loop
      vertex 3.30176 -48.1366 2.56564
      vertex 3.30176 -1.86339 2.56564
      vertex 3.61246 -48.1269 3.55988
    endloop
  endfacet
  facet normal 0.95448 0 -0.298275
    outer loop
      vertex 3.30176 -1.86339 2.56564
      vertex 3.30176 -48.1366 2.56564
      vertex 3.24848 -1.86174 2.39514
    endloop
  endfacet
  facet normal 0.95448 0 -0.298275
    outer loop
      vertex 3.24848 -48.1383 2.39514
      vertex 3.24848 -1.86174 2.39514
      vertex 3.30176 -48.1366 2.56564
    endloop
  endfacet
  facet normal 0.95448 0 -0.298275
    outer loop
      vertex 3.24848 -1.86174 2.39514
      vertex 3.24848 -48.1383 2.39514
      vertex 3.18787 -1.80747 2.20119
    endloop
  endfacet
  facet normal 0.95448 0 -0.298275
    outer loop
      vertex 3.18787 -48.1925 2.20119
      vertex 3.18787 -1.80747 2.20119
      vertex 3.24848 -48.1383 2.39514
    endloop
  endfacet
  facet normal 0.95448 0 -0.298275
    outer loop
      vertex 3.18787 -1.80747 2.20119
      vertex 3.18787 -48.1925 2.20119
      vertex 2.8763 -1.52853 1.20417
    endloop
  endfacet
  facet normal 0.95448 0 -0.298275
    outer loop
      vertex 2.8763 -48.4715 1.20417
      vertex 2.8763 -1.52853 1.20417
      vertex 3.18787 -48.1925 2.20119
    endloop
  endfacet
  facet normal 0.95448 0 -0.298275
    outer loop
      vertex 2.8763 -1.52853 1.20417
      vertex 2.8763 -48.4715 1.20417
      vertex 2.6177 -1.08085 0.37663
    endloop
  endfacet
  facet normal 0.95448 0 -0.298275
    outer loop
      vertex 2.6177 -48.9192 0.37663
      vertex 2.6177 -1.08085 0.37663
      vertex 2.8763 -48.4715 1.20417
    endloop
  endfacet
  facet normal 0.95448 0 -0.298275
    outer loop
      vertex 2.6177 -1.08085 0.37663
      vertex 2.6177 -48.9192 0.37663
      vertex 2.5 -0.877099 7.62939e-007
    endloop
  endfacet
  facet normal 0.95448 0 -0.298275
    outer loop
      vertex 2.5 -0.877099 7.62939e-007
      vertex 2.6177 -48.9192 0.37663
      vertex 2.5 -49.1229 7.62939e-007
    endloop
  endfacet
  facet normal 0 -1 0
    outer loop
      vertex -2.73904 -50 3.55988
      vertex 2.84738 -50 3.80543
      vertex -2.84738 -50 3.80543
    endloop
  endfacet
  facet normal 0 -1 0
    outer loop
      vertex -2.73904 -50 3.55988
      vertex 2.73904 -50 3.55988
      vertex 2.84738 -50 3.80543
    endloop
  endfacet
  facet normal 0 -1 0
    outer loop
      vertex -2.55274 -50 2.95493
      vertex 2.73904 -50 3.55988
      vertex -2.73904 -50 3.55988
    endloop
  endfacet
  facet normal 0 -1 0
    outer loop
      vertex -2.55274 -50 2.95493
      vertex 2.55274 -50 2.95493
      vertex 2.73904 -50 3.55988
    endloop
  endfacet
  facet normal 0 -1 0
    outer loop
      vertex -2.38034 -50 2.39514
      vertex 2.55274 -50 2.95493
      vertex -2.55274 -50 2.95493
    endloop
  endfacet
  facet normal 0 -1 0
    outer loop
      vertex -2.38034 -50 2.39514
      vertex 2.38034 -50 2.39514
      vertex 2.55274 -50 2.95493
    endloop
  endfacet
  facet normal 0 -1 0
    outer loop
      vertex -2.27185 -50 1.79918
      vertex 2.38034 -50 2.39514
      vertex -2.38034 -50 2.39514
    endloop
  endfacet
  facet normal 0 -1 0
    outer loop
      vertex -2.27185 -50 1.79918
      vertex 2.27185 -50 1.79918
      vertex 2.38034 -50 2.39514
    endloop
  endfacet
  facet normal 0 -1 0
    outer loop
      vertex -2.16354 -50 1.20417
      vertex 2.27185 -50 1.79918
      vertex -2.27185 -50 1.79918
    endloop
  endfacet
  facet normal 0 -1 0
    outer loop
      vertex -2.16354 -50 1.20417
      vertex 2.16354 -50 1.20417
      vertex 2.27185 -50 1.79918
    endloop
  endfacet
  facet normal 0 -1 0
    outer loop
      vertex -2.12803 -50 0.614758
      vertex 2.16354 -50 1.20417
      vertex -2.16354 -50 1.20417
    endloop
  endfacet
  facet normal 0 -1 0
    outer loop
      vertex -2.12803 -50 0.614758
      vertex 2.12803 -50 0.614758
      vertex 2.16354 -50 1.20417
    endloop
  endfacet
  facet normal 0 -1 0
    outer loop
      vertex -2.091 -50 7.62939e-007
      vertex 2.12803 -50 0.614758
      vertex -2.12803 -50 0.614758
    endloop
  endfacet
  facet normal 0 -1 0
    outer loop
      vertex 2.12803 -50 0.614758
      vertex -2.091 -50 7.62939e-007
      vertex 2.091 -50 7.62939e-007
    endloop
  endfacet
  facet normal -0.572075 2.17544e-006 0.820202
    outer loop
      vertex -3.53359 -0.927843 4.38011
      vertex -2.93158 -1.19795 4.8
      vertex -3.1324 -0.973289 4.65994
    endloop
  endfacet
  facet normal -0.572075 0 0.820201
    outer loop
      vertex -2.93158 -1.19795 4.8
      vertex -3.8088 -1.69966 4.18816
      vertex -2.93158 -48.802 4.8
    endloop
  endfacet
  facet normal -0.572075 -1.39211e-007 0.820201
    outer loop
      vertex -3.53359 -49.0722 4.38011
      vertex -2.93158 -48.802 4.8
      vertex -3.8088 -48.3003 4.18816
    endloop
  endfacet
  facet normal -0.572075 2.74781e-007 0.820201
    outer loop
      vertex -3.53359 -0.927843 4.38011
      vertex -3.1324 -0.973289 4.65994
      vertex -3.44862 -0.689569 4.43937
    endloop
  endfacet
  facet normal -0.572075 1.3921e-007 0.820201
    outer loop
      vertex -2.93158 -1.19795 4.8
      vertex -3.53359 -0.927843 4.38011
      vertex -3.8088 -1.69966 4.18816
    endloop
  endfacet
  facet normal -0.572075 7.52683e-007 0.820201
    outer loop
      vertex -3.1324 -49.0267 4.65994
      vertex -3.53359 -49.0722 4.38011
      vertex -3.44862 -49.3104 4.43938
    endloop
  endfacet
  facet normal -0.572075 0 0.820201
    outer loop
      vertex -2.93158 -48.802 4.8
      vertex -3.8088 -1.69966 4.18816
      vertex -3.8088 -48.3003 4.18816
    endloop
  endfacet
  facet normal -0.572075 -2.17545e-006 0.820202
    outer loop
      vertex -2.93158 -48.802 4.8
      vertex -3.53359 -49.0722 4.38011
      vertex -3.1324 -49.0267 4.65994
    endloop
  endfacet
  facet normal 0.572075 1.3921e-007 0.820201
    outer loop
      vertex 2.93158 -1.19795 4.8
      vertex 3.8088 -1.69966 4.18816
      vertex 3.53359 -0.927843 4.38011
    endloop
  endfacet
  facet normal 0.572075 0 0.820201
    outer loop
      vertex 3.8088 -1.69966 4.18816
      vertex 2.93158 -1.19795 4.8
      vertex 3.8088 -48.3003 4.18816
    endloop
  endfacet
  facet normal 0.572075 2.74781e-007 0.820201
    outer loop
      vertex 3.1324 -0.973289 4.65994
      vertex 3.53359 -0.927843 4.38011
      vertex 3.44862 -0.689569 4.43937
    endloop
  endfacet
  facet normal 0.572075 -0 0.820201
    outer loop
      vertex 2.93158 -48.802 4.8
      vertex 3.8088 -48.3003 4.18816
      vertex 2.93158 -1.19795 4.8
    endloop
  endfacet
  facet normal 0.572075 2.17544e-006 0.820202
    outer loop
      vertex 3.53359 -0.927843 4.38011
      vertex 3.1324 -0.973289 4.65994
      vertex 2.93158 -1.19795 4.8
    endloop
  endfacet
  facet normal 0.572075 -1.39211e-007 0.820201
    outer loop
      vertex 3.8088 -48.3003 4.18816
      vertex 2.93158 -48.802 4.8
      vertex 3.53359 -49.0722 4.38011
    endloop
  endfacet
  facet normal 0.572075 -2.17545e-006 0.820202
    outer loop
      vertex 3.1324 -49.0267 4.65994
      vertex 3.53359 -49.0722 4.38011
      vertex 2.93158 -48.802 4.8
    endloop
  endfacet
  facet normal 0.572075 7.52683e-007 0.820201
    outer loop
      vertex 3.53359 -49.0722 4.38011
      vertex 3.1324 -49.0267 4.65994
      vertex 3.44862 -49.3104 4.43938
    endloop
  endfacet
  facet normal -2.69901e-006 -0.61375 0.789501
    outer loop
      vertex 3.1324 -49.0267 4.65994
      vertex 3.28993 -49.5065 4.28693
      vertex 3.44862 -49.3104 4.43938
    endloop
  endfacet
  facet normal -0.000194121 -0.613789 0.78947
    outer loop
      vertex 3.28993 -49.5065 4.28693
      vertex 3.1324 -49.0267 4.65994
      vertex 3.28324 -49.5148 4.28051
    endloop
  endfacet
  facet normal 0 -0.613752 0.789499
    outer loop
      vertex -3.1324 -49.0267 4.65994
      vertex 3.28324 -49.5148 4.28051
      vertex 3.1324 -49.0267 4.65994
    endloop
  endfacet
  facet normal 0 -0.613752 0.789499
    outer loop
      vertex -3.1324 -49.0267 4.65994
      vertex -3.28324 -49.5148 4.28051
      vertex 3.28324 -49.5148 4.28051
    endloop
  endfacet
  facet normal 0.000194121 -0.613789 0.78947
    outer loop
      vertex -3.1324 -49.0267 4.65994
      vertex -3.28993 -49.5065 4.28693
      vertex -3.28324 -49.5148 4.28051
    endloop
  endfacet
  facet normal 2.69901e-006 -0.61375 0.789501
    outer loop
      vertex -3.28993 -49.5065 4.28693
      vertex -3.1324 -49.0267 4.65994
      vertex -3.44862 -49.3104 4.43938
    endloop
  endfacet
  facet normal 0 -0.76439 0.644754
    outer loop
      vertex -2.84738 -50 3.80543
      vertex 2.88807 -49.9589 3.85419
      vertex -2.88807 -49.9589 3.85419
    endloop
  endfacet
  facet normal 0 -0.76439 0.644754
    outer loop
      vertex 2.88807 -49.9589 3.85419
      vertex -2.84738 -50 3.80543
      vertex 2.84738 -50 3.80543
    endloop
  endfacet
  facet normal 0 -0.529045 0.848594
    outer loop
      vertex -2.93158 -48.802 4.8
      vertex 3.1324 -49.0267 4.65994
      vertex 2.93158 -48.802 4.8
    endloop
  endfacet
  facet normal 0 -0.529045 0.848594
    outer loop
      vertex 3.1324 -49.0267 4.65994
      vertex -2.93158 -48.802 4.8
      vertex -3.1324 -49.0267 4.65994
    endloop
  endfacet
  facet normal 0 -0.69253 0.72139
    outer loop
      vertex 3.28324 -49.5148 4.28051
      vertex -2.88807 -49.9589 3.85419
      vertex 2.88807 -49.9589 3.85419
    endloop
  endfacet
  facet normal 0 -0.69253 0.72139
    outer loop
      vertex -2.88807 -49.9589 3.85419
      vertex 3.28324 -49.5148 4.28051
      vertex -3.28324 -49.5148 4.28051
    endloop
  endfacet
  facet normal -0 0.692532 0.721387
    outer loop
      vertex -2.88807 -0.041132 3.85419
      vertex 3.28324 -0.485217 4.28051
      vertex 2.88807 -0.041132 3.85419
    endloop
  endfacet
  facet normal 0 0.692532 0.721387
    outer loop
      vertex 3.28324 -0.485217 4.28051
      vertex -2.88807 -0.041132 3.85419
      vertex -3.28324 -0.485217 4.28051
    endloop
  endfacet
  facet normal 1.59253e-007 0.613752 0.789499
    outer loop
      vertex 3.28993 -0.493475 4.28693
      vertex 3.1324 -0.973289 4.65994
      vertex 3.44862 -0.689569 4.43937
    endloop
  endfacet
  facet normal 5.92757e-006 0.61375 0.7895
    outer loop
      vertex 3.28324 -0.485217 4.28051
      vertex 3.1324 -0.973289 4.65994
      vertex 3.28993 -0.493475 4.28693
    endloop
  endfacet
  facet normal 0 0.613752 0.789499
    outer loop
      vertex 3.28324 -0.485217 4.28051
      vertex -3.1324 -0.973289 4.65994
      vertex 3.1324 -0.973289 4.65994
    endloop
  endfacet
  facet normal -0 0.613752 0.789499
    outer loop
      vertex -3.28324 -0.485217 4.28051
      vertex -3.1324 -0.973289 4.65994
      vertex 3.28324 -0.485217 4.28051
    endloop
  endfacet
  facet normal -5.92757e-006 0.61375 0.7895
    outer loop
      vertex -3.28993 -0.493475 4.28693
      vertex -3.1324 -0.973289 4.65994
      vertex -3.28324 -0.485217 4.28051
    endloop
  endfacet
  facet normal -1.59253e-007 0.613752 0.789499
    outer loop
      vertex -3.1324 -0.973289 4.65994
      vertex -3.28993 -0.493475 4.28693
      vertex -3.44862 -0.689569 4.43937
    endloop
  endfacet
  facet normal 0 0.764375 0.644772
    outer loop
      vertex 2.84738 -8.80182e-016 3.80543
      vertex -2.88807 -0.041132 3.85419
      vertex 2.88807 -0.041132 3.85419
    endloop
  endfacet
  facet normal 0 0.764375 0.644772
    outer loop
      vertex -2.88807 -0.041132 3.85419
      vertex 2.84738 -8.80182e-016 3.80543
      vertex -2.84738 -8.80182e-016 3.80543
    endloop
  endfacet
  facet normal 0 0.529042 0.848596
    outer loop
      vertex 3.1324 -0.973289 4.65994
      vertex -2.93158 -1.19795 4.8
      vertex 2.93158 -1.19795 4.8
    endloop
  endfacet
  facet normal 0 0.529042 0.848596
    outer loop
      vertex -2.93158 -1.19795 4.8
      vertex 3.1324 -0.973289 4.65994
      vertex -3.1324 -0.973289 4.65994
    endloop
  endfacet
  facet normal -0.841527 0.392408 -0.371278
    outer loop
      vertex -2.73904 -8.23387e-016 3.55988
      vertex -2.88807 -0.041132 3.85419
      vertex -2.84738 -8.80182e-016 3.80543
    endloop
  endfacet
  facet normal -0.841527 0.392411 -0.371277
    outer loop
      vertex -2.73904 -8.23387e-016 3.55988
      vertex -3.28324 -0.485217 4.28051
      vertex -2.88807 -0.041132 3.85419
    endloop
  endfacet
  facet normal -0.841527 0.392411 -0.371277
    outer loop
      vertex -3.53359 -0.927843 4.38011
      vertex -3.28324 -0.485217 4.28051
      vertex -2.73904 -8.23387e-016 3.55988
    endloop
  endfacet
  facet normal -0.841526 0.39241 -0.37128
    outer loop
      vertex -3.28324 -0.485217 4.28051
      vertex -3.53359 -0.927843 4.38011
      vertex -3.28993 -0.493475 4.28693
    endloop
  endfacet
  facet normal -0.841527 0.392411 -0.371277
    outer loop
      vertex -3.61246 -1.87306 3.55988
      vertex -3.53359 -0.927843 4.38011
      vertex -2.73904 -8.23387e-016 3.55988
    endloop
  endfacet
  facet normal -0.841527 0.39241 -0.371277
    outer loop
      vertex -3.53359 -0.927843 4.38011
      vertex -3.61246 -1.87306 3.55988
      vertex -3.8088 -1.69966 4.18816
    endloop
  endfacet
  facet normal -0.841527 0.39241 -0.371277
    outer loop
      vertex -3.53359 -0.927843 4.38011
      vertex -3.44862 -0.689569 4.43937
      vertex -3.28993 -0.493475 4.28693
    endloop
  endfacet
  facet normal -0.872942 0.40706 -0.268838
    outer loop
      vertex -3.30176 -1.86339 2.56564
      vertex -2.38034 -5.53988e-016 2.39514
      vertex -3.24848 -1.86174 2.39514
    endloop
  endfacet
  facet normal -0.872942 0.40706 -0.268838
    outer loop
      vertex -2.38034 -5.53988e-016 2.39514
      vertex -3.30176 -1.86339 2.56564
      vertex -2.55274 -6.83464e-016 2.95493
    endloop
  endfacet
  facet normal -0.872942 0.40706 -0.268839
    outer loop
      vertex -3.61246 -1.87306 3.55988
      vertex -2.55274 -6.83464e-016 2.95493
      vertex -3.30176 -1.86339 2.56564
    endloop
  endfacet
  facet normal -0.872942 0.40706 -0.268838
    outer loop
      vertex -2.55274 -6.83464e-016 2.95493
      vertex -3.61246 -1.87306 3.55988
      vertex -2.73904 -8.23387e-016 3.55988
    endloop
  endfacet
  facet normal -0.894219 0.416981 -0.162783
    outer loop
      vertex -2.8763 -1.52853 1.20417
      vertex -2.27185 -4.16145e-016 1.79918
      vertex -2.16354 -2.7852e-016 1.20417
    endloop
  endfacet
  facet normal -0.894219 0.416981 -0.162783
    outer loop
      vertex -2.27185 -4.16145e-016 1.79918
      vertex -2.8763 -1.52853 1.20417
      vertex -3.18787 -1.80747 2.20119
    endloop
  endfacet
  facet normal -0.894219 0.416981 -0.162783
    outer loop
      vertex -3.18787 -1.80747 2.20119
      vertex -2.38034 -5.53988e-016 2.39514
      vertex -2.27185 -4.16145e-016 1.79918
    endloop
  endfacet
  facet normal -0.894219 0.416981 -0.162784
    outer loop
      vertex -2.38034 -5.53988e-016 2.39514
      vertex -3.18787 -1.80747 2.20119
      vertex -3.24848 -1.86174 2.39514
    endloop
  endfacet
  facet normal -0.90496 0.42199 -0.0545111
    outer loop
      vertex -2.6177 -1.08085 0.37663
      vertex -2.16354 -2.7852e-016 1.20417
      vertex -2.12803 -1.42191e-016 0.614758
    endloop
  endfacet
  facet normal -0.90496 0.42199 -0.054511
    outer loop
      vertex -2.16354 -2.7852e-016 1.20417
      vertex -2.6177 -1.08085 0.37663
      vertex -2.8763 -1.52853 1.20417
    endloop
  endfacet
  facet normal -0.90496 0.42199 -0.0545107
    outer loop
      vertex -2.5 -0.877099 7.62939e-007
      vertex -2.12803 -1.42191e-016 0.614758
      vertex -2.091 -1.76465e-022 7.62939e-007
    endloop
  endfacet
  facet normal -0.90496 0.42199 -0.0545108
    outer loop
      vertex -2.12803 -1.42191e-016 0.614758
      vertex -2.5 -0.877099 7.62939e-007
      vertex -2.6177 -1.08085 0.37663
    endloop
  endfacet
  facet normal 0.90496 0.42199 -0.0545107
    outer loop
      vertex 2.12803 -1.42191e-016 0.614758
      vertex 2.5 -0.877099 7.62939e-007
      vertex 2.091 -1.76465e-022 7.62939e-007
    endloop
  endfacet
  facet normal 0.90496 0.42199 -0.0545108
    outer loop
      vertex 2.5 -0.877099 7.62939e-007
      vertex 2.12803 -1.42191e-016 0.614758
      vertex 2.6177 -1.08085 0.37663
    endloop
  endfacet
  facet normal 0.841527 0.392408 -0.371278
    outer loop
      vertex 2.88807 -0.041132 3.85419
      vertex 2.73904 -8.23387e-016 3.55988
      vertex 2.84738 -8.80182e-016 3.80543
    endloop
  endfacet
  facet normal 0.841527 0.392411 -0.371277
    outer loop
      vertex 3.28324 -0.485217 4.28051
      vertex 2.73904 -8.23387e-016 3.55988
      vertex 2.88807 -0.041132 3.85419
    endloop
  endfacet
  facet normal 0.841526 0.39241 -0.37128
    outer loop
      vertex 3.53359 -0.927843 4.38011
      vertex 3.28324 -0.485217 4.28051
      vertex 3.28993 -0.493475 4.28693
    endloop
  endfacet
  facet normal 0.841527 0.392411 -0.371277
    outer loop
      vertex 3.28324 -0.485217 4.28051
      vertex 3.53359 -0.927843 4.38011
      vertex 2.73904 -8.23387e-016 3.55988
    endloop
  endfacet
  facet normal 0.841527 0.39241 -0.371277
    outer loop
      vertex 3.61246 -1.87306 3.55988
      vertex 3.53359 -0.927843 4.38011
      vertex 3.8088 -1.69966 4.18816
    endloop
  endfacet
  facet normal 0.841527 0.392411 -0.371277
    outer loop
      vertex 3.53359 -0.927843 4.38011
      vertex 3.61246 -1.87306 3.55988
      vertex 2.73904 -8.23387e-016 3.55988
    endloop
  endfacet
  facet normal 0.90496 0.42199 -0.0545111
    outer loop
      vertex 2.16354 -2.7852e-016 1.20417
      vertex 2.6177 -1.08085 0.37663
      vertex 2.12803 -1.42191e-016 0.614758
    endloop
  endfacet
  facet normal 0.90496 0.42199 -0.054511
    outer loop
      vertex 2.6177 -1.08085 0.37663
      vertex 2.16354 -2.7852e-016 1.20417
      vertex 2.8763 -1.52853 1.20417
    endloop
  endfacet
  facet normal 0.894219 0.416981 -0.162783
    outer loop
      vertex 2.38034 -5.53988e-016 2.39514
      vertex 3.18787 -1.80747 2.20119
      vertex 2.27185 -4.16145e-016 1.79918
    endloop
  endfacet
  facet normal 0.894219 0.416981 -0.162784
    outer loop
      vertex 3.18787 -1.80747 2.20119
      vertex 2.38034 -5.53988e-016 2.39514
      vertex 3.24848 -1.86174 2.39514
    endloop
  endfacet
  facet normal 0.872942 0.40706 -0.268838
    outer loop
      vertex 3.61246 -1.87306 3.55988
      vertex 2.55274 -6.83464e-016 2.95493
      vertex 2.73904 -8.23387e-016 3.55988
    endloop
  endfacet
  facet normal 0.872942 0.40706 -0.268839
    outer loop
      vertex 2.55274 -6.83464e-016 2.95493
      vertex 3.61246 -1.87306 3.55988
      vertex 3.30176 -1.86339 2.56564
    endloop
  endfacet
  facet normal 0.872942 0.40706 -0.268838
    outer loop
      vertex 3.30176 -1.86339 2.56564
      vertex 2.38034 -5.53988e-016 2.39514
      vertex 2.55274 -6.83464e-016 2.95493
    endloop
  endfacet
  facet normal 0.872942 0.40706 -0.268838
    outer loop
      vertex 2.38034 -5.53988e-016 2.39514
      vertex 3.30176 -1.86339 2.56564
      vertex 3.24848 -1.86174 2.39514
    endloop
  endfacet
  facet normal 0.841527 0.39241 -0.371277
    outer loop
      vertex 3.28993 -0.493475 4.28693
      vertex 3.44862 -0.689569 4.43937
      vertex 3.53359 -0.927843 4.38011
    endloop
  endfacet
  facet normal 0.894219 0.416981 -0.162783
    outer loop
      vertex 2.27185 -4.16145e-016 1.79918
      vertex 2.8763 -1.52853 1.20417
      vertex 2.16354 -2.7852e-016 1.20417
    endloop
  endfacet
  facet normal 0.894219 0.416981 -0.162783
    outer loop
      vertex 2.8763 -1.52853 1.20417
      vertex 2.27185 -4.16145e-016 1.79918
      vertex 3.18787 -1.80747 2.20119
    endloop
  endfacet
  facet normal -0.841526 -0.392411 -0.371277
    outer loop
      vertex -3.61246 -48.1269 3.55988
      vertex -3.53359 -49.0722 4.38011
      vertex -3.8088 -48.3003 4.18816
    endloop
  endfacet
  facet normal -0.841527 -0.392411 -0.371276
    outer loop
      vertex -2.73904 -50 3.55988
      vertex -3.53359 -49.0722 4.38011
      vertex -3.61246 -48.1269 3.55988
    endloop
  endfacet
  facet normal -0.841464 -0.392322 -0.371512
    outer loop
      vertex -3.53359 -49.0722 4.38011
      vertex -3.28324 -49.5148 4.28051
      vertex -3.28993 -49.5065 4.28693
    endloop
  endfacet
  facet normal -0.841527 -0.39241 -0.371277
    outer loop
      vertex -3.53359 -49.0722 4.38011
      vertex -2.73904 -50 3.55988
      vertex -3.28324 -49.5148 4.28051
    endloop
  endfacet
  facet normal -0.841528 -0.392405 -0.371281
    outer loop
      vertex -3.28324 -49.5148 4.28051
      vertex -2.73904 -50 3.55988
      vertex -2.88807 -49.9589 3.85419
    endloop
  endfacet
  facet normal -0.841521 -0.392424 -0.371275
    outer loop
      vertex -2.88807 -49.9589 3.85419
      vertex -2.73904 -50 3.55988
      vertex -2.84738 -50 3.80543
    endloop
  endfacet
  facet normal -0.90496 -0.42199 -0.0545111
    outer loop
      vertex -2.16354 -50 1.20417
      vertex -2.6177 -48.9192 0.37663
      vertex -2.12803 -50 0.614758
    endloop
  endfacet
  facet normal -0.904961 -0.421989 -0.0545102
    outer loop
      vertex -2.6177 -48.9192 0.37663
      vertex -2.16354 -50 1.20417
      vertex -2.8763 -48.4715 1.20417
    endloop
  endfacet
  facet normal -0.894219 -0.416981 -0.162783
    outer loop
      vertex -2.38034 -50 2.39514
      vertex -3.18787 -48.1925 2.20119
      vertex -2.27185 -50 1.79918
    endloop
  endfacet
  facet normal -0.89422 -0.416981 -0.162782
    outer loop
      vertex -3.18787 -48.1925 2.20119
      vertex -2.38034 -50 2.39514
      vertex -3.24848 -48.1383 2.39514
    endloop
  endfacet
  facet normal -0.90496 -0.42199 -0.0545107
    outer loop
      vertex -2.12803 -50 0.614758
      vertex -2.5 -49.1229 7.62939e-007
      vertex -2.091 -50 7.62939e-007
    endloop
  endfacet
  facet normal -0.90496 -0.42199 -0.0545099
    outer loop
      vertex -2.5 -49.1229 7.62939e-007
      vertex -2.12803 -50 0.614758
      vertex -2.6177 -48.9192 0.37663
    endloop
  endfacet
  facet normal -0.841527 -0.392407 -0.37128
    outer loop
      vertex -3.44862 -49.3104 4.43938
      vertex -3.53359 -49.0722 4.38011
      vertex -3.28993 -49.5065 4.28693
    endloop
  endfacet
  facet normal -0.872942 -0.40706 -0.26884
    outer loop
      vertex -2.55274 -50 2.95493
      vertex -3.61246 -48.1269 3.55988
      vertex -3.30176 -48.1366 2.56564
    endloop
  endfacet
  facet normal -0.872942 -0.40706 -0.268839
    outer loop
      vertex -3.61246 -48.1269 3.55988
      vertex -2.55274 -50 2.95493
      vertex -2.73904 -50 3.55988
    endloop
  endfacet
  facet normal -0.872944 -0.40706 -0.268834
    outer loop
      vertex -2.38034 -50 2.39514
      vertex -3.30176 -48.1366 2.56564
      vertex -3.24848 -48.1383 2.39514
    endloop
  endfacet
  facet normal -0.872943 -0.407059 -0.268838
    outer loop
      vertex -3.30176 -48.1366 2.56564
      vertex -2.38034 -50 2.39514
      vertex -2.55274 -50 2.95493
    endloop
  endfacet
  facet normal -0.89422 -0.416981 -0.162783
    outer loop
      vertex -2.27185 -50 1.79918
      vertex -2.8763 -48.4715 1.20417
      vertex -2.16354 -50 1.20417
    endloop
  endfacet
  facet normal -0.894219 -0.416981 -0.162784
    outer loop
      vertex -2.8763 -48.4715 1.20417
      vertex -2.27185 -50 1.79918
      vertex -3.18787 -48.1925 2.20119
    endloop
  endfacet
  facet normal 0.904961 -0.421989 -0.0545102
    outer loop
      vertex 2.16354 -50 1.20417
      vertex 2.6177 -48.9192 0.37663
      vertex 2.8763 -48.4715 1.20417
    endloop
  endfacet
  facet normal 0.90496 -0.42199 -0.0545111
    outer loop
      vertex 2.6177 -48.9192 0.37663
      vertex 2.16354 -50 1.20417
      vertex 2.12803 -50 0.614758
    endloop
  endfacet
  facet normal 0.841527 -0.392407 -0.37128
    outer loop
      vertex 3.44862 -49.3104 4.43938
      vertex 3.28993 -49.5065 4.28693
      vertex 3.53359 -49.0722 4.38011
    endloop
  endfacet
  facet normal 0.841526 -0.392411 -0.371277
    outer loop
      vertex 3.53359 -49.0722 4.38011
      vertex 3.61246 -48.1269 3.55988
      vertex 3.8088 -48.3003 4.18816
    endloop
  endfacet
  facet normal 0.841464 -0.392322 -0.371512
    outer loop
      vertex 3.28324 -49.5148 4.28051
      vertex 3.53359 -49.0722 4.38011
      vertex 3.28993 -49.5065 4.28693
    endloop
  endfacet
  facet normal 0.841527 -0.39241 -0.371277
    outer loop
      vertex 2.73904 -50 3.55988
      vertex 3.53359 -49.0722 4.38011
      vertex 3.28324 -49.5148 4.28051
    endloop
  endfacet
  facet normal 0.841528 -0.392405 -0.371281
    outer loop
      vertex 2.73904 -50 3.55988
      vertex 3.28324 -49.5148 4.28051
      vertex 2.88807 -49.9589 3.85419
    endloop
  endfacet
  facet normal 0.841521 -0.392424 -0.371275
    outer loop
      vertex 2.73904 -50 3.55988
      vertex 2.88807 -49.9589 3.85419
      vertex 2.84738 -50 3.80543
    endloop
  endfacet
  facet normal 0.841527 -0.392411 -0.371276
    outer loop
      vertex 3.53359 -49.0722 4.38011
      vertex 2.73904 -50 3.55988
      vertex 3.61246 -48.1269 3.55988
    endloop
  endfacet
  facet normal 0.90496 -0.42199 -0.0545099
    outer loop
      vertex 2.12803 -50 0.614758
      vertex 2.5 -49.1229 7.62939e-007
      vertex 2.6177 -48.9192 0.37663
    endloop
  endfacet
  facet normal 0.90496 -0.42199 -0.0545107
    outer loop
      vertex 2.5 -49.1229 7.62939e-007
      vertex 2.12803 -50 0.614758
      vertex 2.091 -50 7.62939e-007
    endloop
  endfacet
  facet normal 0.872943 -0.407059 -0.268838
    outer loop
      vertex 2.38034 -50 2.39514
      vertex 3.30176 -48.1366 2.56564
      vertex 2.55274 -50 2.95493
    endloop
  endfacet
  facet normal 0.872944 -0.40706 -0.268834
    outer loop
      vertex 3.30176 -48.1366 2.56564
      vertex 2.38034 -50 2.39514
      vertex 3.24848 -48.1383 2.39514
    endloop
  endfacet
  facet normal 0.872942 -0.40706 -0.268839
    outer loop
      vertex 2.55274 -50 2.95493
      vertex 3.61246 -48.1269 3.55988
      vertex 2.73904 -50 3.55988
    endloop
  endfacet
  facet normal 0.872942 -0.40706 -0.26884
    outer loop
      vertex 3.61246 -48.1269 3.55988
      vertex 2.55274 -50 2.95493
      vertex 3.30176 -48.1366 2.56564
    endloop
  endfacet
  facet normal 0.894219 -0.416981 -0.162784
    outer loop
      vertex 2.27185 -50 1.79918
      vertex 2.8763 -48.4715 1.20417
      vertex 3.18787 -48.1925 2.20119
    endloop
  endfacet
  facet normal 0.89422 -0.416981 -0.162783
    outer loop
      vertex 2.8763 -48.4715 1.20417
      vertex 2.27185 -50 1.79918
      vertex 2.16354 -50 1.20417
    endloop
  endfacet
  facet normal 0.89422 -0.416981 -0.162782
    outer loop
      vertex 2.38034 -50 2.39514
      vertex 3.18787 -48.1925 2.20119
      vertex 3.24848 -48.1383 2.39514
    endloop
  endfacet
  facet normal 0.894219 -0.416981 -0.162783
    outer loop
      vertex 3.18787 -48.1925 2.20119
      vertex 2.38034 -50 2.39514
      vertex 2.27185 -50 1.79918
    endloop
  endfacet
  facet normal 0 0 -1
    outer loop
      vertex -2.5 -0.877099 7.62939e-007
      vertex 2.5 -0.877099 7.62939e-007
      vertex 2.5 -49.1229 7.62939e-007
    endloop
  endfacet
  facet normal 0 0 -1
    outer loop
      vertex -2.5 -49.1229 7.62939e-007
      vertex 2.5 -49.1229 7.62939e-007
      vertex 2.091 -50 7.62939e-007
    endloop
  endfacet
  facet normal 0 0 -1
    outer loop
      vertex -2.5 -49.1229 7.62939e-007
      vertex 2.091 -50 7.62939e-007
      vertex -2.091 -50 7.62939e-007
    endloop
  endfacet
  facet normal 0 0 -1
    outer loop
      vertex -2.5 -0.877099 7.62939e-007
      vertex 2.5 -49.1229 7.62939e-007
      vertex -2.5 -49.1229 7.62939e-007
    endloop
  endfacet
  facet normal 0 0 -1
    outer loop
      vertex 2.5 -0.877099 7.62939e-007
      vertex -2.5 -0.877099 7.62939e-007
      vertex 2.091 -1.76465e-022 7.62939e-007
    endloop
  endfacet
  facet normal -0 0 -1
    outer loop
      vertex 2.091 -1.76465e-022 7.62939e-007
      vertex -2.5 -0.877099 7.62939e-007
      vertex -2.091 -1.76465e-022 7.62939e-007
    endloop
  endfacet
endsolid OpenSCAD_Model
