solid OpenSCAD_Model
  facet normal -0.946241 -7.18228e-017 -0.323461
    outer loop
      vertex -2.27499 -50 1.11022e-014
      vertex -3.95 1.08802e-015 4.89999
      vertex -2.27499 0 0
    endloop
  endfacet
  facet normal -0.946241 -0 -0.323461
    outer loop
      vertex -3.95 1.08802e-015 4.89999
      vertex -2.27499 -50 1.11022e-014
      vertex -3.95 -50 4.89999
    endloop
  endfacet
  facet normal 0.946241 0 -0.323461
    outer loop
      vertex 3.95 -50 4.89999
      vertex 2.27499 0 0
      vertex 3.95 1.08802e-015 4.89999
    endloop
  endfacet
  facet normal 0.946241 -7.18228e-017 -0.323461
    outer loop
      vertex 2.27499 0 0
      vertex 3.95 -50 4.89999
      vertex 2.27499 -50 1.11022e-014
    endloop
  endfacet
  facet normal 0 1 -2.22045e-016
    outer loop
      vertex 3.95 1.08802e-015 4.89999
      vertex 0.899994 2.22044e-016 0.999999
      vertex 2.06999 1.08802e-015 4.89999
    endloop
  endfacet
  facet normal 0 1 -2.22045e-016
    outer loop
      vertex 0.899994 2.22044e-016 0.999999
      vertex 3.95 1.08802e-015 4.89999
      vertex 2.27499 0 0
    endloop
  endfacet
  facet normal 0 1 -2.22045e-016
    outer loop
      vertex -0.899993 2.22045e-016 1
      vertex -3.95 1.08802e-015 4.89999
      vertex -2.06999 1.08802e-015 4.89999
    endloop
  endfacet
  facet normal 0 1 -2.22045e-016
    outer loop
      vertex 0.899994 -2.22045e-016 -1
      vertex 0.899994 2.22044e-016 0.999999
      vertex 2.27499 0 0
    endloop
  endfacet
  facet normal 0 1 -2.22045e-016
    outer loop
      vertex -0.899993 2.22045e-016 1
      vertex -2.27499 0 0
      vertex -3.95 1.08802e-015 4.89999
    endloop
  endfacet
  facet normal 0 1 -2.22045e-016
    outer loop
      vertex 0.899994 2.22044e-016 0.999999
      vertex 0.899994 -2.22045e-016 -1
      vertex -0.899993 2.22045e-016 1
    endloop
  endfacet
  facet normal 0 1 -2.22045e-016
    outer loop
      vertex -0.899994 -2.22045e-016 -1
      vertex -0.899993 2.22045e-016 1
      vertex 0.899994 -2.22045e-016 -1
    endloop
  endfacet
  facet normal 0 1 -2.22045e-016
    outer loop
      vertex 3.95 -1.08802e-015 -4.89999
      vertex 0.899994 -2.22045e-016 -1
      vertex 2.27499 0 0
    endloop
  endfacet
  facet normal 0 1 -2.22045e-016
    outer loop
      vertex 0.899994 -2.22045e-016 -1
      vertex 3.95 -1.08802e-015 -4.89999
      vertex 2.06999 -1.08802e-015 -4.89999
    endloop
  endfacet
  facet normal 0 1 -2.22045e-016
    outer loop
      vertex -0.899993 2.22045e-016 1
      vertex -0.899994 -2.22045e-016 -1
      vertex -2.27499 0 0
    endloop
  endfacet
  facet normal 0 1 -2.22045e-016
    outer loop
      vertex -2.06999 -1.08802e-015 -4.89999
      vertex -2.27499 0 0
      vertex -0.899994 -2.22045e-016 -1
    endloop
  endfacet
  facet normal 0 1 -2.22045e-016
    outer loop
      vertex -2.27499 0 0
      vertex -2.06999 -1.08802e-015 -4.89999
      vertex -3.95 -1.08802e-015 -4.89999
    endloop
  endfacet
  facet normal -0 0 1
    outer loop
      vertex -3.95 1.08802e-015 4.89999
      vertex -2.06999 -50 4.89999
      vertex -2.06999 1.08802e-015 4.89999
    endloop
  endfacet
  facet normal 0 0 1
    outer loop
      vertex -2.06999 -50 4.89999
      vertex -3.95 1.08802e-015 4.89999
      vertex -3.95 -50 4.89999
    endloop
  endfacet
  facet normal -0 0 1
    outer loop
      vertex 2.06999 1.08802e-015 4.89999
      vertex 3.95 -50 4.89999
      vertex 3.95 1.08802e-015 4.89999
    endloop
  endfacet
  facet normal 0 0 1
    outer loop
      vertex 3.95 -50 4.89999
      vertex 2.06999 1.08802e-015 4.89999
      vertex 2.06999 -50 4.89999
    endloop
  endfacet
  facet normal 0 -1 0
    outer loop
      vertex -3.95 -50 4.89999
      vertex -0.899993 -50 1
      vertex -2.06999 -50 4.89999
    endloop
  endfacet
  facet normal 0 -1 0
    outer loop
      vertex -0.899994 -50 -1
      vertex -0.899993 -50 1
      vertex -2.27499 -50 1.11022e-014
    endloop
  endfacet
  facet normal 0 -1 0
    outer loop
      vertex -2.27499 -50 1.11022e-014
      vertex -0.899993 -50 1
      vertex -3.95 -50 4.89999
    endloop
  endfacet
  facet normal 0 -1 0
    outer loop
      vertex 0.899994 -50 0.999999
      vertex 3.95 -50 4.89999
      vertex 2.06999 -50 4.89999
    endloop
  endfacet
  facet normal 0 -1 0
    outer loop
      vertex 0.899994 -50 0.999999
      vertex 2.27499 -50 1.11022e-014
      vertex 3.95 -50 4.89999
    endloop
  endfacet
  facet normal 0 -1 -0
    outer loop
      vertex -0.899993 -50 1
      vertex -0.899994 -50 -1
      vertex 0.899994 -50 0.999999
    endloop
  endfacet
  facet normal 0 -1 0
    outer loop
      vertex 0.899994 -50 -1
      vertex 0.899994 -50 0.999999
      vertex -0.899994 -50 -1
    endloop
  endfacet
  facet normal 0 -1 0
    outer loop
      vertex -3.95 -50 -4.89999
      vertex -0.899994 -50 -1
      vertex -2.27499 -50 1.11022e-014
    endloop
  endfacet
  facet normal 0 -1 0
    outer loop
      vertex -0.899994 -50 -1
      vertex -3.95 -50 -4.89999
      vertex -2.06999 -50 -4.89999
    endloop
  endfacet
  facet normal 0 -1 0
    outer loop
      vertex 0.899994 -50 0.999999
      vertex 0.899994 -50 -1
      vertex 2.27499 -50 1.11022e-014
    endloop
  endfacet
  facet normal 0 -1 0
    outer loop
      vertex 2.06999 -50 -4.89999
      vertex 2.27499 -50 1.11022e-014
      vertex 0.899994 -50 -1
    endloop
  endfacet
  facet normal 0 -1 -0
    outer loop
      vertex 2.27499 -50 1.11022e-014
      vertex 2.06999 -50 -4.89999
      vertex 3.95 -50 -4.89999
    endloop
  endfacet
  facet normal 0 0 -1
    outer loop
      vertex 2.06999 -50 -4.89999
      vertex 3.95 -1.08802e-015 -4.89999
      vertex 3.95 -50 -4.89999
    endloop
  endfacet
  facet normal -0 0 -1
    outer loop
      vertex 3.95 -1.08802e-015 -4.89999
      vertex 2.06999 -50 -4.89999
      vertex 2.06999 -1.08802e-015 -4.89999
    endloop
  endfacet
  facet normal 0 0 -1
    outer loop
      vertex -3.95 -50 -4.89999
      vertex -2.06999 -1.08802e-015 -4.89999
      vertex -2.06999 -50 -4.89999
    endloop
  endfacet
  facet normal -0 0 -1
    outer loop
      vertex -2.06999 -1.08802e-015 -4.89999
      vertex -3.95 -50 -4.89999
      vertex -3.95 -1.08802e-015 -4.89999
    endloop
  endfacet
  facet normal -0.946241 0 0.323461
    outer loop
      vertex -3.95 -50 -4.89999
      vertex -2.27499 0 0
      vertex -3.95 -1.08802e-015 -4.89999
    endloop
  endfacet
  facet normal -0.946241 7.18228e-017 0.323461
    outer loop
      vertex -2.27499 0 0
      vertex -3.95 -50 -4.89999
      vertex -2.27499 -50 1.11022e-014
    endloop
  endfacet
  facet normal 0.946241 7.18228e-017 0.323461
    outer loop
      vertex 2.27499 -50 1.11022e-014
      vertex 3.95 -1.08802e-015 -4.89999
      vertex 2.27499 0 0
    endloop
  endfacet
  facet normal 0.946241 0 0.323461
    outer loop
      vertex 3.95 -1.08802e-015 -4.89999
      vertex 2.27499 -50 1.11022e-014
      vertex 3.95 -50 -4.89999
    endloop
  endfacet
  facet normal -0.957826 0 -0.287347
    outer loop
      vertex 2.06999 -50 -4.89999
      vertex 0.899994 -2.22045e-016 -1
      vertex 2.06999 -1.08802e-015 -4.89999
    endloop
  endfacet
  facet normal -0.957826 -0 -0.287347
    outer loop
      vertex 0.899994 -2.22045e-016 -1
      vertex 2.06999 -50 -4.89999
      vertex 0.899994 -50 -1
    endloop
  endfacet
  facet normal 0.957826 0 -0.287347
    outer loop
      vertex -0.899994 -50 -1
      vertex -2.06999 -1.08802e-015 -4.89999
      vertex -0.899994 -2.22045e-016 -1
    endloop
  endfacet
  facet normal 0.957826 0 -0.287347
    outer loop
      vertex -2.06999 -1.08802e-015 -4.89999
      vertex -0.899994 -50 -1
      vertex -2.06999 -50 -4.89999
    endloop
  endfacet
  facet normal 0 0 -1
    outer loop
      vertex -0.899994 -50 -1
      vertex 0.899994 -2.22045e-016 -1
      vertex 0.899994 -50 -1
    endloop
  endfacet
  facet normal -0 0 -1
    outer loop
      vertex 0.899994 -2.22045e-016 -1
      vertex -0.899994 -50 -1
      vertex -0.899994 -2.22045e-016 -1
    endloop
  endfacet
  facet normal -0.957826 0 0.287347
    outer loop
      vertex 0.899994 -50 0.999999
      vertex 2.06999 1.08802e-015 4.89999
      vertex 0.899994 2.22044e-016 0.999999
    endloop
  endfacet
  facet normal -0.957826 0 0.287347
    outer loop
      vertex 2.06999 1.08802e-015 4.89999
      vertex 0.899994 -50 0.999999
      vertex 2.06999 -50 4.89999
    endloop
  endfacet
  facet normal 5.29823e-007 0 1
    outer loop
      vertex -0.899993 2.22045e-016 1
      vertex 0.899994 -50 0.999999
      vertex 0.899994 2.22044e-016 0.999999
    endloop
  endfacet
  facet normal 5.29823e-007 0 1
    outer loop
      vertex 0.899994 -50 0.999999
      vertex -0.899993 2.22045e-016 1
      vertex -0.899993 -50 1
    endloop
  endfacet
  facet normal 0.957826 -0 0.287347
    outer loop
      vertex -2.06999 -50 4.89999
      vertex -0.899993 2.22045e-016 1
      vertex -2.06999 1.08802e-015 4.89999
    endloop
  endfacet
  facet normal 0.957826 0 0.287347
    outer loop
      vertex -0.899993 2.22045e-016 1
      vertex -2.06999 -50 4.89999
      vertex -0.899993 -50 1
    endloop
  endfacet
endsolid OpenSCAD_Model
