solid OpenSCAD_Model
  facet normal 2.22045e-016 1 5.13337e-023
    outer loop
      vertex -9.15527e-006 -1.07691e-015 3.17835
      vertex -4.85 0 2.42499
      vertex -0.535012 -9.5812e-016 3.75952
    endloop
  endfacet
  facet normal 2.22045e-016 1 -0
    outer loop
      vertex -9.15527e-006 -1.07691e-015 0.0999994
      vertex -4.85 0 2.42499
      vertex -9.15527e-006 -1.07691e-015 3.17835
    endloop
  endfacet
  facet normal 2.22045e-016 1 0
    outer loop
      vertex -4.85 0 2.42499
      vertex -9.15527e-006 -1.07691e-015 0.0999994
      vertex -4.85 0 0.0999994
    endloop
  endfacet
  facet normal 1 -0 0
    outer loop
      vertex -9.15527e-006 -50 3.17835
      vertex -9.15527e-006 -1.07691e-015 0.0999994
      vertex -9.15527e-006 -1.07691e-015 3.17835
    endloop
  endfacet
  facet normal 1 0 0
    outer loop
      vertex -9.15527e-006 -1.07691e-015 0.0999994
      vertex -9.15527e-006 -50 3.17835
      vertex -9.15527e-006 -50 0.0999994
    endloop
  endfacet
  facet normal -0.29547 0 0.955352
    outer loop
      vertex -4.85 0 2.42499
      vertex -0.535012 -50 3.75952
      vertex -0.535012 -9.5812e-016 3.75952
    endloop
  endfacet
  facet normal -0.29547 0 0.955352
    outer loop
      vertex -0.535012 -50 3.75952
      vertex -4.85 0 2.42499
      vertex -4.85 -50 2.42499
    endloop
  endfacet
  facet normal 0 -1 0
    outer loop
      vertex -9.69999 -50 3.17835
      vertex -4.85 -50 2.42499
      vertex -9.16499 -50 3.75952
    endloop
  endfacet
  facet normal 0 -1 0
    outer loop
      vertex -9.69999 -50 0.0999994
      vertex -4.85 -50 2.42499
      vertex -9.69999 -50 3.17835
    endloop
  endfacet
  facet normal 0 -1 -0
    outer loop
      vertex -4.85 -50 2.42499
      vertex -9.69999 -50 0.0999994
      vertex -4.85 -50 0.0999994
    endloop
  endfacet
  facet normal 0.29547 0 0.955352
    outer loop
      vertex -9.16499 0 3.75952
      vertex -4.85 -50 2.42499
      vertex -4.85 0 2.42499
    endloop
  endfacet
  facet normal 0.29547 0 0.955352
    outer loop
      vertex -4.85 -50 2.42499
      vertex -9.16499 0 3.75952
      vertex -9.16499 -50 3.75952
    endloop
  endfacet
  facet normal -1 0 0
    outer loop
      vertex -9.69999 -50 0.0999994
      vertex -9.69999 0 3.17835
      vertex -9.69999 0 0.0999994
    endloop
  endfacet
  facet normal -1 -0 0
    outer loop
      vertex -9.69999 0 3.17835
      vertex -9.69999 -50 0.0999994
      vertex -9.69999 -50 3.17835
    endloop
  endfacet
  facet normal 0 1 0
    outer loop
      vertex -4.85 0 2.42499
      vertex -9.69999 0 3.17835
      vertex -9.16499 0 3.75952
    endloop
  endfacet
  facet normal 0 1 0
    outer loop
      vertex -9.69999 0 0.0999994
      vertex -4.85 0 2.42499
      vertex -4.85 0 0.0999994
    endloop
  endfacet
  facet normal 0 1 0
    outer loop
      vertex -4.85 0 2.42499
      vertex -9.69999 0 0.0999994
      vertex -9.69999 0 3.17835
    endloop
  endfacet
  facet normal -0.735724 0 0.677282
    outer loop
      vertex -9.69999 -50 3.17835
      vertex -9.16499 0 3.75952
      vertex -9.69999 0 3.17835
    endloop
  endfacet
  facet normal -0.735724 0 0.677282
    outer loop
      vertex -9.16499 0 3.75952
      vertex -9.69999 -50 3.17835
      vertex -9.16499 -50 3.75952
    endloop
  endfacet
  facet normal 0.735724 -0 0.677281
    outer loop
      vertex -0.535012 -50 3.75952
      vertex -9.15527e-006 -1.07691e-015 3.17835
      vertex -0.535012 -9.5812e-016 3.75952
    endloop
  endfacet
  facet normal 0.735724 0 0.677281
    outer loop
      vertex -9.15527e-006 -1.07691e-015 3.17835
      vertex -0.535012 -50 3.75952
      vertex -9.15527e-006 -50 3.17835
    endloop
  endfacet
  facet normal 0 0 -1
    outer loop
      vertex -4.85 -50 0.0999994
      vertex -9.15527e-006 -1.07691e-015 0.0999994
      vertex -9.15527e-006 -50 0.0999994
    endloop
  endfacet
  facet normal 0 0 -1
    outer loop
      vertex -4.85 -50 0.0999994
      vertex -4.85 0 0.0999994
      vertex -9.15527e-006 -1.07691e-015 0.0999994
    endloop
  endfacet
  facet normal 0 0 -1
    outer loop
      vertex -9.69999 -50 0.0999994
      vertex -4.85 0 0.0999994
      vertex -4.85 -50 0.0999994
    endloop
  endfacet
  facet normal -0 0 -1
    outer loop
      vertex -4.85 0 0.0999994
      vertex -9.69999 -50 0.0999994
      vertex -9.69999 0 0.0999994
    endloop
  endfacet
  facet normal 0 -1 0
    outer loop
      vertex -4.85 -50 2.42499
      vertex -9.15527e-006 -50 3.17835
      vertex -0.535012 -50 3.75952
    endloop
  endfacet
  facet normal 0 -1 0
    outer loop
      vertex -9.15527e-006 -50 0.0999994
      vertex -4.85 -50 2.42499
      vertex -4.85 -50 0.0999994
    endloop
  endfacet
  facet normal 0 -1 0
    outer loop
      vertex -4.85 -50 2.42499
      vertex -9.15527e-006 -50 0.0999994
      vertex -9.15527e-006 -50 3.17835
    endloop
  endfacet
endsolid OpenSCAD_Model
