solid OpenSCAD_Model
  facet normal 0 1 2.22045e-016
    outer loop
      vertex 1.43035 -1.27055e-022 5.72205e-007
      vertex -1.43035 -1.07691e-015 4.84999
      vertex 1.43035 -1.07691e-015 4.84999
    endloop
  endfacet
  facet normal 0 1 2.22045e-016
    outer loop
      vertex -1.43035 -1.07691e-015 4.84999
      vertex 1.43035 -1.27055e-022 5.72205e-007
      vertex -1.43035 -1.27055e-022 5.72205e-007
    endloop
  endfacet
  facet normal 0 0 1
    outer loop
      vertex 2.5427 -0.67605 4.84999
      vertex 3.13805 -1.3769 4.84999
      vertex 3.07426 -1.26642 4.84999
    endloop
  endfacet
  facet normal 0 0 1
    outer loop
      vertex 3.13805 -1.3769 4.84999
      vertex -3.13805 -1.3769 4.84999
      vertex 3.13805 -48.6231 4.84999
    endloop
  endfacet
  facet normal 0 0 1
    outer loop
      vertex 3.13805 -1.3769 4.84999
      vertex 2.5427 -0.67605 4.84999
      vertex 1.43035 -1.07691e-015 4.84999
    endloop
  endfacet
  facet normal 0 0 1
    outer loop
      vertex -3.13805 -48.6231 4.84999
      vertex 3.13805 -48.6231 4.84999
      vertex -3.13805 -1.3769 4.84999
    endloop
  endfacet
  facet normal 0 0 1
    outer loop
      vertex 1.43035 -1.07691e-015 4.84999
      vertex 2.5427 -0.67605 4.84999
      vertex 1.9 -0.209104 4.84999
    endloop
  endfacet
  facet normal 0 -0 1
    outer loop
      vertex 1.43035 -50 4.84999
      vertex 3.13805 -48.6231 4.84999
      vertex -3.13805 -48.6231 4.84999
    endloop
  endfacet
  facet normal 0 0 1
    outer loop
      vertex 3.13805 -1.3769 4.84999
      vertex 1.43035 -1.07691e-015 4.84999
      vertex -3.13805 -1.3769 4.84999
    endloop
  endfacet
  facet normal 0 -0 1
    outer loop
      vertex 2.5427 -49.324 4.84999
      vertex 3.13805 -48.6231 4.84999
      vertex 1.43035 -50 4.84999
    endloop
  endfacet
  facet normal 0 0 1
    outer loop
      vertex -3.13805 -1.3769 4.84999
      vertex 1.43035 -1.07691e-015 4.84999
      vertex -1.43035 -1.07691e-015 4.84999
    endloop
  endfacet
  facet normal 0 0 1
    outer loop
      vertex 3.13805 -48.6231 4.84999
      vertex 2.5427 -49.324 4.84999
      vertex 3.07426 -48.7336 4.84999
    endloop
  endfacet
  facet normal 0 0 1
    outer loop
      vertex -2.5427 -0.67605 4.84999
      vertex -1.43035 -1.07691e-015 4.84999
      vertex -1.9 -0.209104 4.84999
    endloop
  endfacet
  facet normal 0 0 1
    outer loop
      vertex 2.5427 -49.324 4.84999
      vertex 1.43035 -50 4.84999
      vertex 1.9 -49.7909 4.84999
    endloop
  endfacet
  facet normal 0 0 1
    outer loop
      vertex -1.43035 -1.07691e-015 4.84999
      vertex -2.5427 -0.67605 4.84999
      vertex -3.13805 -1.3769 4.84999
    endloop
  endfacet
  facet normal 0 0 1
    outer loop
      vertex 1.43035 -50 4.84999
      vertex -3.13805 -48.6231 4.84999
      vertex -1.43035 -50 4.84999
    endloop
  endfacet
  facet normal 0 0 1
    outer loop
      vertex -3.13805 -1.3769 4.84999
      vertex -2.5427 -0.67605 4.84999
      vertex -3.07426 -1.26642 4.84999
    endloop
  endfacet
  facet normal -0 -0 1
    outer loop
      vertex -2.5427 -49.324 4.84999
      vertex -1.43035 -50 4.84999
      vertex -3.13805 -48.6231 4.84999
    endloop
  endfacet
  facet normal 0 0 1
    outer loop
      vertex -1.43035 -50 4.84999
      vertex -2.5427 -49.324 4.84999
      vertex -1.9 -49.7909 4.84999
    endloop
  endfacet
  facet normal 0 0 1
    outer loop
      vertex -2.5427 -49.324 4.84999
      vertex -3.13805 -48.6231 4.84999
      vertex -3.07426 -48.7336 4.84999
    endloop
  endfacet
  facet normal 0.955352 7.70178e-009 -0.29547
    outer loop
      vertex 3.7806 -3.31547 4.38315
      vertex 2.5427 -0.67605 0.380589
      vertex 3.07426 -1.26642 2.09932
    endloop
  endfacet
  facet normal 0.955352 -2.88642e-008 -0.29547
    outer loop
      vertex 3.7806 -3.31547 4.38315
      vertex 3.07426 -1.26642 2.09932
      vertex 3.47147 -1.9544 3.38363
    endloop
  endfacet
  facet normal 0.955352 -2.37771e-007 -0.295471
    outer loop
      vertex 3.7806 -3.31547 4.38315
      vertex 3.47147 -1.9544 3.38363
      vertex 3.71696 -2.70994 4.17737
    endloop
  endfacet
  facet normal 0.955352 3.46889e-007 -0.29547
    outer loop
      vertex 2.5427 -0.67605 0.380589
      vertex 3.7806 -3.31547 4.38315
      vertex 2.42499 -0.59053 5.72205e-007
    endloop
  endfacet
  facet normal 0.955352 0 -0.29547
    outer loop
      vertex 3.7806 -46.6845 4.38315
      vertex 2.42499 -0.59053 5.72205e-007
      vertex 3.7806 -3.31547 4.38315
    endloop
  endfacet
  facet normal 0.955352 2.37772e-007 -0.295471
    outer loop
      vertex 3.47147 -48.0456 3.38363
      vertex 3.7806 -46.6845 4.38315
      vertex 3.71696 -47.2901 4.17737
    endloop
  endfacet
  facet normal 0.955352 2.8864e-008 -0.29547
    outer loop
      vertex 3.7806 -46.6845 4.38315
      vertex 3.47147 -48.0456 3.38363
      vertex 3.07426 -48.7336 2.09932
    endloop
  endfacet
  facet normal 0.955352 -7.70181e-009 -0.29547
    outer loop
      vertex 3.7806 -46.6845 4.38315
      vertex 3.07426 -48.7336 2.09932
      vertex 2.5427 -49.324 0.380589
    endloop
  endfacet
  facet normal 0.955352 -3.46884e-007 -0.29547
    outer loop
      vertex 3.7806 -46.6845 4.38315
      vertex 2.5427 -49.324 0.380589
      vertex 2.42499 -49.4095 5.72205e-007
    endloop
  endfacet
  facet normal 0.955352 0 -0.29547
    outer loop
      vertex 3.7806 -46.6845 4.38315
      vertex 2.42499 -49.4095 5.72205e-007
      vertex 2.42499 -0.59053 5.72205e-007
    endloop
  endfacet
  facet normal 0 -1 0
    outer loop
      vertex -1.43035 -50 5.72205e-007
      vertex 1.43035 -50 4.84999
      vertex -1.43035 -50 4.84999
    endloop
  endfacet
  facet normal 0 -1 -0
    outer loop
      vertex 1.43035 -50 4.84999
      vertex -1.43035 -50 5.72205e-007
      vertex 1.43035 -50 5.72205e-007
    endloop
  endfacet
  facet normal -0.955352 3.46889e-007 -0.29547
    outer loop
      vertex -3.7806 -3.31547 4.38315
      vertex -2.5427 -0.67605 0.380589
      vertex -2.42499 -0.59053 5.72205e-007
    endloop
  endfacet
  facet normal -0.955352 7.70178e-009 -0.29547
    outer loop
      vertex -2.5427 -0.67605 0.380589
      vertex -3.7806 -3.31547 4.38315
      vertex -3.07426 -1.26642 2.09932
    endloop
  endfacet
  facet normal -0.955352 -2.88642e-008 -0.29547
    outer loop
      vertex -3.07426 -1.26642 2.09932
      vertex -3.7806 -3.31547 4.38315
      vertex -3.47147 -1.9544 3.38363
    endloop
  endfacet
  facet normal -0.955352 -2.37771e-007 -0.295471
    outer loop
      vertex -3.47147 -1.9544 3.38363
      vertex -3.7806 -3.31547 4.38315
      vertex -3.71696 -2.70994 4.17737
    endloop
  endfacet
  facet normal -0.955352 0 -0.29547
    outer loop
      vertex -2.42499 -0.59053 5.72205e-007
      vertex -3.7806 -46.6845 4.38315
      vertex -3.7806 -3.31547 4.38315
    endloop
  endfacet
  facet normal -0.955352 0 -0.29547
    outer loop
      vertex -2.42499 -49.4095 5.72205e-007
      vertex -3.7806 -46.6845 4.38315
      vertex -2.42499 -0.59053 5.72205e-007
    endloop
  endfacet
  facet normal -0.955352 -3.46884e-007 -0.29547
    outer loop
      vertex -2.5427 -49.324 0.380589
      vertex -3.7806 -46.6845 4.38315
      vertex -2.42499 -49.4095 5.72205e-007
    endloop
  endfacet
  facet normal -0.955352 -7.70181e-009 -0.29547
    outer loop
      vertex -3.07426 -48.7336 2.09932
      vertex -3.7806 -46.6845 4.38315
      vertex -2.5427 -49.324 0.380589
    endloop
  endfacet
  facet normal -0.955352 2.37772e-007 -0.295471
    outer loop
      vertex -3.7806 -46.6845 4.38315
      vertex -3.47147 -48.0456 3.38363
      vertex -3.71696 -47.2901 4.17737
    endloop
  endfacet
  facet normal -0.955352 2.8864e-008 -0.29547
    outer loop
      vertex -3.47147 -48.0456 3.38363
      vertex -3.7806 -46.6845 4.38315
      vertex -3.07426 -48.7336 2.09932
    endloop
  endfacet
  facet normal -0.587786 4.87812e-007 0.809016
    outer loop
      vertex -3.7806 -3.31547 4.38315
      vertex -3.13805 -1.3769 4.84999
      vertex -3.47147 -1.9544 4.60775
    endloop
  endfacet
  facet normal -0.587785 0 0.809017
    outer loop
      vertex -3.13805 -1.3769 4.84999
      vertex -3.7806 -3.31547 4.38315
      vertex -3.13805 -48.6231 4.84999
    endloop
  endfacet
  facet normal -0.587786 3.40919e-007 0.809016
    outer loop
      vertex -3.7806 -3.31547 4.38315
      vertex -3.47147 -1.9544 4.60775
      vertex -3.71696 -2.70994 4.42939
    endloop
  endfacet
  facet normal -0.587785 0 0.809017
    outer loop
      vertex -3.7806 -46.6845 4.38315
      vertex -3.13805 -48.6231 4.84999
      vertex -3.7806 -3.31547 4.38315
    endloop
  endfacet
  facet normal -0.587786 -4.87808e-007 0.809016
    outer loop
      vertex -3.13805 -48.6231 4.84999
      vertex -3.7806 -46.6845 4.38315
      vertex -3.47147 -48.0456 4.60775
    endloop
  endfacet
  facet normal -0.587786 -3.4092e-007 0.809016
    outer loop
      vertex -3.47147 -48.0456 4.60775
      vertex -3.7806 -46.6845 4.38315
      vertex -3.71696 -47.2901 4.42939
    endloop
  endfacet
  facet normal 0.587786 3.72251e-007 0.809016
    outer loop
      vertex 3.13805 -1.3769 4.84999
      vertex 3.7806 -3.31547 4.38315
      vertex 3.71696 -2.70994 4.42939
    endloop
  endfacet
  facet normal 0.587785 0 0.809017
    outer loop
      vertex 3.7806 -3.31547 4.38315
      vertex 3.13805 -1.3769 4.84999
      vertex 3.7806 -46.6845 4.38315
    endloop
  endfacet
  facet normal 0.587787 6.32471e-007 0.809016
    outer loop
      vertex 3.13805 -1.3769 4.84999
      vertex 3.71696 -2.70994 4.42939
      vertex 3.47147 -1.9544 4.60775
    endloop
  endfacet
  facet normal 0.587785 -0 0.809017
    outer loop
      vertex 3.13805 -48.6231 4.84999
      vertex 3.7806 -46.6845 4.38315
      vertex 3.13805 -1.3769 4.84999
    endloop
  endfacet
  facet normal 0.587786 -3.72251e-007 0.809016
    outer loop
      vertex 3.7806 -46.6845 4.38315
      vertex 3.13805 -48.6231 4.84999
      vertex 3.71696 -47.2901 4.42939
    endloop
  endfacet
  facet normal 0.587787 -6.3246e-007 0.809016
    outer loop
      vertex 3.71696 -47.2901 4.42939
      vertex 3.13805 -48.6231 4.84999
      vertex 3.47147 -48.0456 4.60775
    endloop
  endfacet
  facet normal 0 0 -1
    outer loop
      vertex 1.43035 -50 5.72205e-007
      vertex 2.42499 -49.4095 5.72205e-007
      vertex 1.9 -49.7909 5.72205e-007
    endloop
  endfacet
  facet normal 0 0 -1
    outer loop
      vertex 2.42499 -49.4095 5.72205e-007
      vertex -2.42499 -49.4095 5.72205e-007
      vertex 2.42499 -0.59053 5.72205e-007
    endloop
  endfacet
  facet normal -0 0 -1
    outer loop
      vertex 2.42499 -49.4095 5.72205e-007
      vertex 1.43035 -50 5.72205e-007
      vertex -2.42499 -49.4095 5.72205e-007
    endloop
  endfacet
  facet normal 0 0 -1
    outer loop
      vertex -2.42499 -0.59053 5.72205e-007
      vertex 2.42499 -0.59053 5.72205e-007
      vertex -2.42499 -49.4095 5.72205e-007
    endloop
  endfacet
  facet normal 0 0 -1
    outer loop
      vertex -2.42499 -49.4095 5.72205e-007
      vertex 1.43035 -50 5.72205e-007
      vertex -1.43035 -50 5.72205e-007
    endloop
  endfacet
  facet normal 0 -0 -1
    outer loop
      vertex 1.43035 -1.27055e-022 5.72205e-007
      vertex 2.42499 -0.59053 5.72205e-007
      vertex -2.42499 -0.59053 5.72205e-007
    endloop
  endfacet
  facet normal 0 0 -1
    outer loop
      vertex -2.42499 -49.4095 5.72205e-007
      vertex -1.43035 -50 5.72205e-007
      vertex -1.9 -49.7909 5.72205e-007
    endloop
  endfacet
  facet normal 0 0 -1
    outer loop
      vertex 2.42499 -0.59053 5.72205e-007
      vertex 1.43035 -1.27055e-022 5.72205e-007
      vertex 1.9 -0.209104 5.72205e-007
    endloop
  endfacet
  facet normal -0 0 -1
    outer loop
      vertex 1.43035 -1.27055e-022 5.72205e-007
      vertex -2.42499 -0.59053 5.72205e-007
      vertex -1.43035 -1.27055e-022 5.72205e-007
    endloop
  endfacet
  facet normal 0 0 -1
    outer loop
      vertex -1.43035 -1.27055e-022 5.72205e-007
      vertex -2.42499 -0.59053 5.72205e-007
      vertex -1.9 -0.209104 5.72205e-007
    endloop
  endfacet
  facet normal 0.994522 -0.104529 0
    outer loop
      vertex 3.71696 -47.2901 4.42939
      vertex 3.71696 -47.2901 4.17737
      vertex 3.7806 -46.6845 4.38315
    endloop
  endfacet
  facet normal -0.994522 -0.104529 -0
    outer loop
      vertex -3.71696 -47.2901 4.42939
      vertex -3.7806 -46.6845 4.38315
      vertex -3.71696 -47.2901 4.17737
    endloop
  endfacet
  facet normal -0.951057 -0.309015 -0
    outer loop
      vertex -3.47147 -48.0456 4.60775
      vertex -3.71696 -47.2901 4.17737
      vertex -3.47147 -48.0456 3.38363
    endloop
  endfacet
  facet normal -0.951057 -0.309015 0
    outer loop
      vertex -3.71696 -47.2901 4.17737
      vertex -3.47147 -48.0456 4.60775
      vertex -3.71696 -47.2901 4.42939
    endloop
  endfacet
  facet normal 0.587785 -0.809017 0
    outer loop
      vertex 1.9 -49.7909 4.84999
      vertex 2.5427 -49.324 0.380589
      vertex 2.5427 -49.324 4.84999
    endloop
  endfacet
  facet normal 0.587785 -0.809017 0
    outer loop
      vertex 1.9 -49.7909 5.72205e-007
      vertex 2.5427 -49.324 0.380589
      vertex 1.9 -49.7909 4.84999
    endloop
  endfacet
  facet normal 0.587787 -0.809016 -4.81522e-006
    outer loop
      vertex 2.5427 -49.324 0.380589
      vertex 1.9 -49.7909 5.72205e-007
      vertex 2.42499 -49.4095 5.72205e-007
    endloop
  endfacet
  facet normal 0.951057 -0.309015 0
    outer loop
      vertex 3.47147 -48.0456 4.60775
      vertex 3.71696 -47.2901 4.17737
      vertex 3.71696 -47.2901 4.42939
    endloop
  endfacet
  facet normal 0.951057 -0.309015 0
    outer loop
      vertex 3.71696 -47.2901 4.17737
      vertex 3.47147 -48.0456 4.60775
      vertex 3.47147 -48.0456 3.38363
    endloop
  endfacet
  facet normal 0.866025 -0.500001 0
    outer loop
      vertex 3.13805 -48.6231 4.84999
      vertex 3.47147 -48.0456 3.38363
      vertex 3.47147 -48.0456 4.60775
    endloop
  endfacet
  facet normal 0.866024 -0.500003 -1.13348e-006
    outer loop
      vertex 3.07426 -48.7336 4.84999
      vertex 3.47147 -48.0456 3.38363
      vertex 3.13805 -48.6231 4.84999
    endloop
  endfacet
  facet normal 0.866025 -0.500001 0
    outer loop
      vertex 3.47147 -48.0456 3.38363
      vertex 3.07426 -48.7336 4.84999
      vertex 3.07426 -48.7336 2.09932
    endloop
  endfacet
  facet normal 0.406735 -0.913546 0
    outer loop
      vertex 1.43035 -50 5.72205e-007
      vertex 1.9 -49.7909 4.84999
      vertex 1.43035 -50 4.84999
    endloop
  endfacet
  facet normal 0.406735 -0.913546 0
    outer loop
      vertex 1.9 -49.7909 4.84999
      vertex 1.43035 -50 5.72205e-007
      vertex 1.9 -49.7909 5.72205e-007
    endloop
  endfacet
  facet normal 0.743147 -0.669128 0
    outer loop
      vertex 2.5427 -49.324 4.84999
      vertex 3.07426 -48.7336 2.09932
      vertex 3.07426 -48.7336 4.84999
    endloop
  endfacet
  facet normal 0.743147 -0.669128 0
    outer loop
      vertex 3.07426 -48.7336 2.09932
      vertex 2.5427 -49.324 4.84999
      vertex 2.5427 -49.324 0.380589
    endloop
  endfacet
  facet normal -0.743147 -0.669128 -0
    outer loop
      vertex -2.5427 -49.324 4.84999
      vertex -3.07426 -48.7336 2.09932
      vertex -2.5427 -49.324 0.380589
    endloop
  endfacet
  facet normal -0.743147 -0.669128 0
    outer loop
      vertex -3.07426 -48.7336 2.09932
      vertex -2.5427 -49.324 4.84999
      vertex -3.07426 -48.7336 4.84999
    endloop
  endfacet
  facet normal -0.866025 -0.500001 0
    outer loop
      vertex -3.47147 -48.0456 3.38363
      vertex -3.13805 -48.6231 4.84999
      vertex -3.47147 -48.0456 4.60775
    endloop
  endfacet
  facet normal -0.866025 -0.500001 -0
    outer loop
      vertex -3.07426 -48.7336 4.84999
      vertex -3.47147 -48.0456 3.38363
      vertex -3.07426 -48.7336 2.09932
    endloop
  endfacet
  facet normal -0.866024 -0.500003 -1.13348e-006
    outer loop
      vertex -3.47147 -48.0456 3.38363
      vertex -3.07426 -48.7336 4.84999
      vertex -3.13805 -48.6231 4.84999
    endloop
  endfacet
  facet normal -0.406735 -0.913546 0
    outer loop
      vertex -1.9 -49.7909 5.72205e-007
      vertex -1.43035 -50 4.84999
      vertex -1.9 -49.7909 4.84999
    endloop
  endfacet
  facet normal -0.406735 -0.913546 -0
    outer loop
      vertex -1.43035 -50 4.84999
      vertex -1.9 -49.7909 5.72205e-007
      vertex -1.43035 -50 5.72205e-007
    endloop
  endfacet
  facet normal -0.587785 -0.809017 0
    outer loop
      vertex -2.5427 -49.324 0.380589
      vertex -1.9 -49.7909 4.84999
      vertex -2.5427 -49.324 4.84999
    endloop
  endfacet
  facet normal -0.587787 -0.809016 -4.81522e-006
    outer loop
      vertex -1.9 -49.7909 5.72205e-007
      vertex -2.5427 -49.324 0.380589
      vertex -2.42499 -49.4095 5.72205e-007
    endloop
  endfacet
  facet normal -0.587785 -0.809017 0
    outer loop
      vertex -2.5427 -49.324 0.380589
      vertex -1.9 -49.7909 5.72205e-007
      vertex -1.9 -49.7909 4.84999
    endloop
  endfacet
  facet normal -0.994522 0.104529 0
    outer loop
      vertex -3.71696 -2.70994 4.17737
      vertex -3.7806 -3.31547 4.38315
      vertex -3.71696 -2.70994 4.42939
    endloop
  endfacet
  facet normal 0.994522 0.104529 0
    outer loop
      vertex 3.7806 -3.31547 4.38315
      vertex 3.71696 -2.70994 4.17737
      vertex 3.71696 -2.70994 4.42939
    endloop
  endfacet
  facet normal 0.951057 0.309017 -0
    outer loop
      vertex 3.71696 -2.70994 4.17737
      vertex 3.47147 -1.9544 4.60775
      vertex 3.71696 -2.70994 4.42939
    endloop
  endfacet
  facet normal 0.951057 0.309017 0
    outer loop
      vertex 3.47147 -1.9544 4.60775
      vertex 3.71696 -2.70994 4.17737
      vertex 3.47147 -1.9544 3.38363
    endloop
  endfacet
  facet normal -0.587786 0.809017 0
    outer loop
      vertex -1.9 -0.209104 4.84999
      vertex -2.5427 -0.67605 0.380589
      vertex -2.5427 -0.67605 4.84999
    endloop
  endfacet
  facet normal -0.587786 0.809017 0
    outer loop
      vertex -1.9 -0.209104 5.72205e-007
      vertex -2.5427 -0.67605 0.380589
      vertex -1.9 -0.209104 4.84999
    endloop
  endfacet
  facet normal -0.587785 0.809017 1.59075e-007
    outer loop
      vertex -2.5427 -0.67605 0.380589
      vertex -1.9 -0.209104 5.72205e-007
      vertex -2.42499 -0.59053 5.72205e-007
    endloop
  endfacet
  facet normal -0.951057 0.309017 0
    outer loop
      vertex -3.71696 -2.70994 4.17737
      vertex -3.47147 -1.9544 4.60775
      vertex -3.47147 -1.9544 3.38363
    endloop
  endfacet
  facet normal -0.951057 0.309017 0
    outer loop
      vertex -3.47147 -1.9544 4.60775
      vertex -3.71696 -2.70994 4.17737
      vertex -3.71696 -2.70994 4.42939
    endloop
  endfacet
  facet normal -0.866026 0.499999 0
    outer loop
      vertex -3.47147 -1.9544 3.38363
      vertex -3.07426 -1.26642 4.84999
      vertex -3.07426 -1.26642 2.09932
    endloop
  endfacet
  facet normal -0.866026 0.5 -1.56215e-007
    outer loop
      vertex -3.07426 -1.26642 4.84999
      vertex -3.47147 -1.9544 3.38363
      vertex -3.13805 -1.3769 4.84999
    endloop
  endfacet
  facet normal -0.866026 0.499999 0
    outer loop
      vertex -3.13805 -1.3769 4.84999
      vertex -3.47147 -1.9544 3.38363
      vertex -3.47147 -1.9544 4.60775
    endloop
  endfacet
  facet normal -0.406736 0.913546 2.02848e-016
    outer loop
      vertex -1.43035 -1.27055e-022 5.72205e-007
      vertex -1.9 -0.209104 4.84999
      vertex -1.43035 -1.07691e-015 4.84999
    endloop
  endfacet
  facet normal -0.406736 0.913546 0
    outer loop
      vertex -1.9 -0.209104 4.84999
      vertex -1.43035 -1.27055e-022 5.72205e-007
      vertex -1.9 -0.209104 5.72205e-007
    endloop
  endfacet
  facet normal -0.743145 0.669131 0
    outer loop
      vertex -3.07426 -1.26642 2.09932
      vertex -2.5427 -0.67605 4.84999
      vertex -2.5427 -0.67605 0.380589
    endloop
  endfacet
  facet normal -0.743145 0.669131 0
    outer loop
      vertex -2.5427 -0.67605 4.84999
      vertex -3.07426 -1.26642 2.09932
      vertex -3.07426 -1.26642 4.84999
    endloop
  endfacet
  facet normal 0.743145 0.669131 -0
    outer loop
      vertex 3.07426 -1.26642 2.09932
      vertex 2.5427 -0.67605 4.84999
      vertex 3.07426 -1.26642 4.84999
    endloop
  endfacet
  facet normal 0.743145 0.669131 0
    outer loop
      vertex 2.5427 -0.67605 4.84999
      vertex 3.07426 -1.26642 2.09932
      vertex 2.5427 -0.67605 0.380589
    endloop
  endfacet
  facet normal 0.866026 0.5 -1.56215e-007
    outer loop
      vertex 3.47147 -1.9544 3.38363
      vertex 3.07426 -1.26642 4.84999
      vertex 3.13805 -1.3769 4.84999
    endloop
  endfacet
  facet normal 0.866026 0.499999 -0
    outer loop
      vertex 3.47147 -1.9544 3.38363
      vertex 3.13805 -1.3769 4.84999
      vertex 3.47147 -1.9544 4.60775
    endloop
  endfacet
  facet normal 0.866026 0.499999 0
    outer loop
      vertex 3.07426 -1.26642 4.84999
      vertex 3.47147 -1.9544 3.38363
      vertex 3.07426 -1.26642 2.09932
    endloop
  endfacet
  facet normal 0.406736 0.913546 -0
    outer loop
      vertex 1.9 -0.209104 5.72205e-007
      vertex 1.43035 -1.07691e-015 4.84999
      vertex 1.9 -0.209104 4.84999
    endloop
  endfacet
  facet normal 0.406736 0.913546 2.02848e-016
    outer loop
      vertex 1.43035 -1.07691e-015 4.84999
      vertex 1.9 -0.209104 5.72205e-007
      vertex 1.43035 -1.27055e-022 5.72205e-007
    endloop
  endfacet
  facet normal 0.587786 0.809017 -0
    outer loop
      vertex 2.5427 -0.67605 0.380589
      vertex 1.9 -0.209104 4.84999
      vertex 2.5427 -0.67605 4.84999
    endloop
  endfacet
  facet normal 0.587785 0.809017 1.59075e-007
    outer loop
      vertex 1.9 -0.209104 5.72205e-007
      vertex 2.5427 -0.67605 0.380589
      vertex 2.42499 -0.59053 5.72205e-007
    endloop
  endfacet
  facet normal 0.587786 0.809017 0
    outer loop
      vertex 2.5427 -0.67605 0.380589
      vertex 1.9 -0.209104 5.72205e-007
      vertex 1.9 -0.209104 4.84999
    endloop
  endfacet
endsolid OpenSCAD_Model
