solid OpenSCAD_Model
  facet normal 2.31295e-016 1 0
    outer loop
      vertex -4.18524 -1.42191e-016 2.12803
      vertex -4.8 0 1.06581e-015
      vertex -4.8 0 2.091
    endloop
  endfacet
  facet normal 2.31297e-016 1 -6.6431e-022
    outer loop
      vertex -3.59583 -2.7852e-016 2.16354
      vertex -4.8 0 1.06581e-015
      vertex -4.18524 -1.42191e-016 2.12803
    endloop
  endfacet
  facet normal 2.31299e-016 1 -1.47899e-021
    outer loop
      vertex -3.00082 -4.16145e-016 2.27185
      vertex -4.8 0 1.06581e-015
      vertex -3.59583 -2.7852e-016 2.16354
    endloop
  endfacet
  facet normal 2.31296e-016 1 1.79627e-023
    outer loop
      vertex -0.99457 -8.80182e-016 2.20839e-016
      vertex -3.00082 -4.16145e-016 2.27185
      vertex -2.40486 -5.53988e-016 2.38034
    endloop
  endfacet
  facet normal 2.31294e-016 1 -9.08351e-022
    outer loop
      vertex -0.99457 -8.80182e-016 2.20839e-016
      vertex -2.40486 -5.53988e-016 2.38034
      vertex -1.84507 -6.83464e-016 2.55274
    endloop
  endfacet
  facet normal 2.31297e-016 1 -2.50187e-023
    outer loop
      vertex -0.99457 -8.80182e-016 2.20839e-016
      vertex -1.84507 -6.83464e-016 2.55274
      vertex -1.24012 -8.23387e-016 2.73904
    endloop
  endfacet
  facet normal 2.31297e-016 1 -0
    outer loop
      vertex -0.99457 -8.80182e-016 2.20839e-016
      vertex -1.24012 -8.23387e-016 2.73904
      vertex -0.99457 -8.80182e-016 2.84738
    endloop
  endfacet
  facet normal 2.31296e-016 1 5.5713e-022
    outer loop
      vertex -3.00082 -4.16145e-016 2.27185
      vertex -0.99457 -8.80182e-016 2.20839e-016
      vertex -4.8 0 1.06581e-015
    endloop
  endfacet
  facet normal 1 -2.13163e-016 -2.22045e-016
    outer loop
      vertex -5.50825e-015 -28.802 2.84302
      vertex -2.55359e-016 -1.19795 5.67011e-032
      vertex 3.75918e-016 -1.19795 2.84302
    endloop
  endfacet
  facet normal 1 -2.13163e-016 -2.22046e-016
    outer loop
      vertex -2.55359e-016 -1.19795 5.67011e-032
      vertex -5.50825e-015 -28.802 2.84302
      vertex -6.13953e-015 -28.802 1.36325e-030
    endloop
  endfacet
  facet normal 0 -1 0
    outer loop
      vertex -8.60543 -30 1.91079e-015
      vertex -8.35987 -30 2.73904
      vertex -8.60543 -30 2.84738
    endloop
  endfacet
  facet normal 0 -1 0
    outer loop
      vertex -8.60543 -30 1.91079e-015
      vertex -7.75493 -30 2.55274
      vertex -8.35987 -30 2.73904
    endloop
  endfacet
  facet normal 0 -1 0
    outer loop
      vertex -8.60543 -30 1.91079e-015
      vertex -7.19514 -30 2.38034
      vertex -7.75493 -30 2.55274
    endloop
  endfacet
  facet normal 0 -1 0
    outer loop
      vertex -8.60543 -30 1.91079e-015
      vertex -6.59918 -30 2.27185
      vertex -7.19514 -30 2.38034
    endloop
  endfacet
  facet normal 0 -1 0
    outer loop
      vertex -4.8 -30 1.06581e-015
      vertex -6.59918 -30 2.27185
      vertex -8.60543 -30 1.91079e-015
    endloop
  endfacet
  facet normal 0 -1 0
    outer loop
      vertex -6.59918 -30 2.27185
      vertex -4.8 -30 1.06581e-015
      vertex -6.00417 -30 2.16354
    endloop
  endfacet
  facet normal 0 -1 0
    outer loop
      vertex -6.00417 -30 2.16354
      vertex -4.8 -30 1.06581e-015
      vertex -5.41476 -30 2.12803
    endloop
  endfacet
  facet normal 0 -1 0
    outer loop
      vertex -5.41476 -30 2.12803
      vertex -4.8 -30 1.06581e-015
      vertex -4.8 -30 2.091
    endloop
  endfacet
  facet normal -0.298282 0 0.954478
    outer loop
      vertex -1.24012 -1.87306 3.61246
      vertex -0.681831 -28.281 3.78693
      vertex -0.681831 -1.71897 3.78693
    endloop
  endfacet
  facet normal -0.298282 0 0.954478
    outer loop
      vertex -1.24012 -1.87306 3.61246
      vertex -1.24012 -28.1269 3.61246
      vertex -0.681831 -28.281 3.78693
    endloop
  endfacet
  facet normal -0.298275 0 0.95448
    outer loop
      vertex -2.23436 -1.86339 3.30176
      vertex -1.24012 -28.1269 3.61246
      vertex -1.24012 -1.87306 3.61246
    endloop
  endfacet
  facet normal -0.298275 0 0.95448
    outer loop
      vertex -2.23436 -1.86339 3.30176
      vertex -2.23436 -28.1366 3.30176
      vertex -1.24012 -28.1269 3.61246
    endloop
  endfacet
  facet normal -0.298269 0 0.954482
    outer loop
      vertex -2.40486 -1.86174 3.24848
      vertex -2.23436 -28.1366 3.30176
      vertex -2.23436 -1.86339 3.30176
    endloop
  endfacet
  facet normal -0.298269 0 0.954482
    outer loop
      vertex -2.40486 -1.86174 3.24848
      vertex -2.40486 -28.1383 3.24848
      vertex -2.23436 -28.1366 3.30176
    endloop
  endfacet
  facet normal -0.298278 0 0.954479
    outer loop
      vertex -2.59881 -1.80747 3.18787
      vertex -2.40486 -28.1383 3.24848
      vertex -2.40486 -1.86174 3.24848
    endloop
  endfacet
  facet normal -0.298278 0 0.954479
    outer loop
      vertex -2.59881 -1.80747 3.18787
      vertex -2.59881 -28.1925 3.18787
      vertex -2.40486 -28.1383 3.24848
    endloop
  endfacet
  facet normal -0.298276 0 0.95448
    outer loop
      vertex -3.59583 -1.52853 2.8763
      vertex -2.59881 -28.1925 3.18787
      vertex -2.59881 -1.80747 3.18787
    endloop
  endfacet
  facet normal -0.298276 0 0.95448
    outer loop
      vertex -3.59583 -1.52853 2.8763
      vertex -3.59583 -28.4715 2.8763
      vertex -2.59881 -28.1925 3.18787
    endloop
  endfacet
  facet normal -0.298268 0 0.954482
    outer loop
      vertex -4.42337 -1.08085 2.6177
      vertex -3.59583 -28.4715 2.8763
      vertex -3.59583 -1.52853 2.8763
    endloop
  endfacet
  facet normal -0.298268 0 0.954482
    outer loop
      vertex -4.42337 -1.08085 2.6177
      vertex -4.42337 -28.9192 2.6177
      vertex -3.59583 -28.4715 2.8763
    endloop
  endfacet
  facet normal -0.298282 0 0.954478
    outer loop
      vertex -4.8 -0.877098 2.5
      vertex -4.42337 -28.9192 2.6177
      vertex -4.42337 -1.08085 2.6177
    endloop
  endfacet
  facet normal -0.298282 0 0.954478
    outer loop
      vertex -4.42337 -28.9192 2.6177
      vertex -4.8 -0.877098 2.5
      vertex -4.8 -29.1229 2.5
    endloop
  endfacet
  facet normal 0.298282 0 0.954478
    outer loop
      vertex -5.17663 -1.08085 2.6177
      vertex -4.8 -29.1229 2.5
      vertex -4.8 -0.877098 2.5
    endloop
  endfacet
  facet normal 0.298282 0 0.954478
    outer loop
      vertex -5.17663 -1.08085 2.6177
      vertex -5.17663 -28.9192 2.6177
      vertex -4.8 -29.1229 2.5
    endloop
  endfacet
  facet normal 0.298268 0 0.954482
    outer loop
      vertex -6.00417 -1.52853 2.8763
      vertex -5.17663 -28.9192 2.6177
      vertex -5.17663 -1.08085 2.6177
    endloop
  endfacet
  facet normal 0.298268 0 0.954482
    outer loop
      vertex -6.00417 -1.52853 2.8763
      vertex -6.00417 -28.4715 2.8763
      vertex -5.17663 -28.9192 2.6177
    endloop
  endfacet
  facet normal 0.298276 0 0.95448
    outer loop
      vertex -7.00119 -1.80747 3.18787
      vertex -6.00417 -28.4715 2.8763
      vertex -6.00417 -1.52853 2.8763
    endloop
  endfacet
  facet normal 0.298276 0 0.95448
    outer loop
      vertex -7.00119 -1.80747 3.18787
      vertex -7.00119 -28.1925 3.18787
      vertex -6.00417 -28.4715 2.8763
    endloop
  endfacet
  facet normal 0.298278 0 0.954479
    outer loop
      vertex -7.19514 -1.86174 3.24848
      vertex -7.00119 -28.1925 3.18787
      vertex -7.00119 -1.80747 3.18787
    endloop
  endfacet
  facet normal 0.298278 0 0.954479
    outer loop
      vertex -7.19514 -1.86174 3.24848
      vertex -7.19514 -28.1383 3.24848
      vertex -7.00119 -28.1925 3.18787
    endloop
  endfacet
  facet normal 0.298269 0 0.954482
    outer loop
      vertex -7.36564 -1.86339 3.30176
      vertex -7.19514 -28.1383 3.24848
      vertex -7.19514 -1.86174 3.24848
    endloop
  endfacet
  facet normal 0.298269 0 0.954482
    outer loop
      vertex -7.36564 -1.86339 3.30176
      vertex -7.36564 -28.1366 3.30176
      vertex -7.19514 -28.1383 3.24848
    endloop
  endfacet
  facet normal 0.298278 0 0.954479
    outer loop
      vertex -8.35987 -1.87306 3.61246
      vertex -7.36564 -28.1366 3.30176
      vertex -7.36564 -1.86339 3.30176
    endloop
  endfacet
  facet normal 0.298278 0 0.954479
    outer loop
      vertex -8.35987 -1.87306 3.61246
      vertex -8.35987 -28.1269 3.61246
      vertex -7.36564 -28.1366 3.30176
    endloop
  endfacet
  facet normal 0.298277 0 0.954479
    outer loop
      vertex -8.91817 -1.71897 3.78693
      vertex -8.35987 -28.1269 3.61246
      vertex -8.35987 -1.87306 3.61246
    endloop
  endfacet
  facet normal 0.298277 0 0.954479
    outer loop
      vertex -8.35987 -28.1269 3.61246
      vertex -8.91817 -1.71897 3.78693
      vertex -8.91817 -28.281 3.78693
    endloop
  endfacet
  facet normal -1 0 0
    outer loop
      vertex -9.6 -28.802 2.13163e-015
      vertex -9.6 -1.19795 2.84302
      vertex -9.6 -1.19795 2.13163e-015
    endloop
  endfacet
  facet normal -1 -0 0
    outer loop
      vertex -9.6 -1.19795 2.84302
      vertex -9.6 -28.802 2.13163e-015
      vertex -9.6 -28.802 2.84302
    endloop
  endfacet
  facet normal 0 1 0
    outer loop
      vertex -8.35987 0 2.73904
      vertex -8.60543 0 1.91079e-015
      vertex -8.60543 0 2.84738
    endloop
  endfacet
  facet normal 0 1 0
    outer loop
      vertex -7.75493 0 2.55274
      vertex -8.60543 0 1.91079e-015
      vertex -8.35987 0 2.73904
    endloop
  endfacet
  facet normal 0 1 0
    outer loop
      vertex -7.19514 0 2.38034
      vertex -8.60543 0 1.91079e-015
      vertex -7.75493 0 2.55274
    endloop
  endfacet
  facet normal 0 1 0
    outer loop
      vertex -6.59918 0 2.27185
      vertex -8.60543 0 1.91079e-015
      vertex -7.19514 0 2.38034
    endloop
  endfacet
  facet normal 0 1 0
    outer loop
      vertex -4.8 0 1.06581e-015
      vertex -6.59918 0 2.27185
      vertex -6.00417 0 2.16354
    endloop
  endfacet
  facet normal 0 1 0
    outer loop
      vertex -4.8 0 1.06581e-015
      vertex -6.00417 0 2.16354
      vertex -5.41476 0 2.12803
    endloop
  endfacet
  facet normal 0 1 -0
    outer loop
      vertex -4.8 0 1.06581e-015
      vertex -5.41476 0 2.12803
      vertex -4.8 0 2.091
    endloop
  endfacet
  facet normal 0 1 0
    outer loop
      vertex -6.59918 0 2.27185
      vertex -4.8 0 1.06581e-015
      vertex -8.60543 0 1.91079e-015
    endloop
  endfacet
  facet normal 0.921622 -1.96295e-016 0.38809
    outer loop
      vertex -0.138658 -0.975543 3.1723
      vertex -5.50825e-015 -28.802 2.84302
      vertex 3.75918e-016 -1.19795 2.84302
    endloop
  endfacet
  facet normal 0.921622 0 0.38809
    outer loop
      vertex -5.50825e-015 -28.802 2.84302
      vertex -0.138658 -0.975543 3.1723
      vertex -0.138658 -29.0245 3.1723
    endloop
  endfacet
  facet normal -0.749316 -1.35331e-005 0.662213
    outer loop
      vertex -9.45994 -0.973289 3.17389
      vertex -9.16862 -0.874261 3.50353
      vertex -9.2278 -0.674674 3.43657
    endloop
  endfacet
  facet normal -0.748991 -0.00217808 0.662577
    outer loop
      vertex -9.46134 -0.975543 3.1723
      vertex -9.16862 -0.874261 3.50353
      vertex -9.45994 -0.973289 3.17389
    endloop
  endfacet
  facet normal -0.749323 7.15327e-007 0.662204
    outer loop
      vertex -9.46134 -0.975543 3.1723
      vertex -8.91817 -1.71897 3.78693
      vertex -9.16862 -0.874261 3.50353
    endloop
  endfacet
  facet normal -0.749324 0 0.662204
    outer loop
      vertex -9.46134 -0.975543 3.1723
      vertex -8.91817 -28.281 3.78693
      vertex -8.91817 -1.71897 3.78693
    endloop
  endfacet
  facet normal -0.749324 0 0.662204
    outer loop
      vertex -9.46134 -29.0245 3.1723
      vertex -8.91817 -28.281 3.78693
      vertex -9.46134 -0.975543 3.1723
    endloop
  endfacet
  facet normal -0.748981 0.00224616 0.662588
    outer loop
      vertex -9.16862 -29.1257 3.50353
      vertex -9.46134 -29.0245 3.1723
      vertex -9.45994 -29.0267 3.17389
    endloop
  endfacet
  facet normal -0.749323 -7.15388e-007 0.662204
    outer loop
      vertex -9.46134 -29.0245 3.1723
      vertex -9.16862 -29.1257 3.50353
      vertex -8.91817 -28.281 3.78693
    endloop
  endfacet
  facet normal -0.749316 1.35327e-005 0.662213
    outer loop
      vertex -9.16862 -29.1257 3.50353
      vertex -9.45994 -29.0267 3.17389
      vertex -9.2278 -29.3253 3.43657
    endloop
  endfacet
  facet normal -0.92162 0 0.388095
    outer loop
      vertex -9.6 -28.802 2.84302
      vertex -9.46134 -0.975543 3.1723
      vertex -9.6 -1.19795 2.84302
    endloop
  endfacet
  facet normal -0.92162 0 0.388095
    outer loop
      vertex -9.46134 -0.975543 3.1723
      vertex -9.6 -28.802 2.84302
      vertex -9.46134 -29.0245 3.1723
    endloop
  endfacet
  facet normal 0.749321 -1.96914e-006 0.662207
    outer loop
      vertex -0.43138 -0.874261 3.50353
      vertex -0.140063 -0.973289 3.17389
      vertex -0.372204 -0.674674 3.43657
    endloop
  endfacet
  facet normal 0.749311 -6.37656e-005 0.662218
    outer loop
      vertex -0.43138 -0.874261 3.50353
      vertex -0.138658 -0.975543 3.1723
      vertex -0.140063 -0.973289 3.17389
    endloop
  endfacet
  facet normal 0.749321 1.28751e-006 0.662207
    outer loop
      vertex -0.681831 -1.71897 3.78693
      vertex -0.138658 -0.975543 3.1723
      vertex -0.43138 -0.874261 3.50353
    endloop
  endfacet
  facet normal 0.749322 -0 0.662206
    outer loop
      vertex -0.681831 -28.281 3.78693
      vertex -0.138658 -0.975543 3.1723
      vertex -0.681831 -1.71897 3.78693
    endloop
  endfacet
  facet normal 0.749322 0 0.662206
    outer loop
      vertex -0.681831 -28.281 3.78693
      vertex -0.138658 -29.0245 3.1723
      vertex -0.138658 -0.975543 3.1723
    endloop
  endfacet
  facet normal 0.749321 -1.28762e-006 0.662207
    outer loop
      vertex -0.43138 -29.1257 3.50353
      vertex -0.138658 -29.0245 3.1723
      vertex -0.681831 -28.281 3.78693
    endloop
  endfacet
  facet normal 0.749311 6.57596e-005 0.662218
    outer loop
      vertex -0.138658 -29.0245 3.1723
      vertex -0.43138 -29.1257 3.50353
      vertex -0.140063 -29.0267 3.17389
    endloop
  endfacet
  facet normal 0.749321 1.96908e-006 0.662207
    outer loop
      vertex -0.140063 -29.0267 3.17389
      vertex -0.43138 -29.1257 3.50353
      vertex -0.372204 -29.3253 3.43657
    endloop
  endfacet
  facet normal -0.789512 -0.613736 0
    outer loop
      vertex -9.08051 -29.5148 2.01628e-015
      vertex -9.45994 -29.0267 3.17389
      vertex -9.45994 -29.0267 2.10053e-015
    endloop
  endfacet
  facet normal -0.789486 -0.613769 -1.20949e-007
    outer loop
      vertex -9.45994 -29.0267 3.17389
      vertex -9.08693 -29.5065 3.28993
      vertex -9.2278 -29.3253 3.43657
    endloop
  endfacet
  facet normal -0.789512 -0.613736 0
    outer loop
      vertex -9.45994 -29.0267 3.17389
      vertex -9.08051 -29.5148 2.01628e-015
      vertex -9.08051 -29.5148 3.28324
    endloop
  endfacet
  facet normal -0.78983 -0.613319 0.00296532
    outer loop
      vertex -9.45994 -29.0267 3.17389
      vertex -9.08051 -29.5148 3.28324
      vertex -9.08693 -29.5065 3.28993
    endloop
  endfacet
  facet normal 0.721399 -0.692519 0
    outer loop
      vertex -0.945808 -29.9589 2.88807
      vertex -0.519487 -29.5148 1.15349e-016
      vertex -0.519487 -29.5148 3.28324
    endloop
  endfacet
  facet normal 0.721399 -0.692519 0
    outer loop
      vertex -0.519487 -29.5148 1.15349e-016
      vertex -0.945808 -29.9589 2.88807
      vertex -0.945808 -29.9589 2.10012e-016
    endloop
  endfacet
  facet normal 0.644478 -0.764623 0
    outer loop
      vertex -0.945808 -29.9589 2.10012e-016
      vertex -0.99457 -30 2.84738
      vertex -0.99457 -30 2.20839e-016
    endloop
  endfacet
  facet normal 0.644478 -0.764623 0
    outer loop
      vertex -0.99457 -30 2.84738
      vertex -0.945808 -29.9589 2.10012e-016
      vertex -0.945808 -29.9589 2.88807
    endloop
  endfacet
  facet normal 0.789493 -0.613759 1.95023e-005
    outer loop
      vertex -0.513067 -29.5065 3.28993
      vertex -0.140063 -29.0267 3.17389
      vertex -0.372204 -29.3253 3.43657
    endloop
  endfacet
  facet normal 0.789834 -0.613314 0.00295591
    outer loop
      vertex -0.519487 -29.5148 3.28324
      vertex -0.140063 -29.0267 3.17389
      vertex -0.513067 -29.5065 3.28993
    endloop
  endfacet
  facet normal 0.789516 -0.61373 0
    outer loop
      vertex -0.519487 -29.5148 1.15349e-016
      vertex -0.140063 -29.0267 3.17389
      vertex -0.519487 -29.5148 3.28324
    endloop
  endfacet
  facet normal 0.789516 -0.61373 0
    outer loop
      vertex -0.140063 -29.0267 3.17389
      vertex -0.519487 -29.5148 1.15349e-016
      vertex -0.140063 -29.0267 3.11002e-017
    endloop
  endfacet
  facet normal 0.837023 -0.546901 -0.0170839
    outer loop
      vertex -0.140063 -29.0267 3.17389
      vertex -5.50825e-015 -28.802 2.84302
      vertex -0.138658 -29.0245 3.1723
    endloop
  endfacet
  facet normal 0.848633 -0.528981 0
    outer loop
      vertex -5.50825e-015 -28.802 2.84302
      vertex -0.140063 -29.0267 3.17389
      vertex -0.140063 -29.0267 3.11002e-017
    endloop
  endfacet
  facet normal 0.848633 -0.528981 -1.88435e-016
    outer loop
      vertex -5.50825e-015 -28.802 2.84302
      vertex -0.140063 -29.0267 3.11002e-017
      vertex -6.13953e-015 -28.802 1.36325e-030
    endloop
  endfacet
  facet normal -0.7214 -0.692518 -0
    outer loop
      vertex -8.65419 -29.9589 2.88807
      vertex -9.08051 -29.5148 2.01628e-015
      vertex -8.65419 -29.9589 1.92162e-015
    endloop
  endfacet
  facet normal -0.7214 -0.692518 0
    outer loop
      vertex -9.08051 -29.5148 2.01628e-015
      vertex -8.65419 -29.9589 2.88807
      vertex -9.08051 -29.5148 3.28324
    endloop
  endfacet
  facet normal -0.644493 -0.76461 0
    outer loop
      vertex -8.65419 -29.9589 1.92162e-015
      vertex -8.60543 -30 2.84738
      vertex -8.65419 -29.9589 2.88807
    endloop
  endfacet
  facet normal -0.644493 -0.76461 -0
    outer loop
      vertex -8.60543 -30 2.84738
      vertex -8.65419 -29.9589 1.92162e-015
      vertex -8.60543 -30 1.91079e-015
    endloop
  endfacet
  facet normal -0.848638 -0.528973 0
    outer loop
      vertex -9.45994 -29.0267 2.10053e-015
      vertex -9.6 -28.802 2.84302
      vertex -9.6 -28.802 2.13163e-015
    endloop
  endfacet
  facet normal -0.848638 -0.528973 -0
    outer loop
      vertex -9.45994 -29.0267 3.17389
      vertex -9.6 -28.802 2.84302
      vertex -9.45994 -29.0267 2.10053e-015
    endloop
  endfacet
  facet normal -0.838762 -0.544303 -0.0145918
    outer loop
      vertex -9.6 -28.802 2.84302
      vertex -9.45994 -29.0267 3.17389
      vertex -9.46134 -29.0245 3.1723
    endloop
  endfacet
  facet normal 0.789496 0.613755 -2.6299e-005
    outer loop
      vertex -0.140063 -0.973289 3.17389
      vertex -0.519487 -0.485217 3.28324
      vertex -0.513067 -0.493475 3.28993
    endloop
  endfacet
  facet normal 0.789499 0.613751 -7.57532e-007
    outer loop
      vertex -0.140063 -0.973289 3.17389
      vertex -0.513067 -0.493475 3.28993
      vertex -0.372204 -0.674674 3.43657
    endloop
  endfacet
  facet normal 0.789499 0.613752 0
    outer loop
      vertex -0.519487 -0.485217 3.28324
      vertex -0.140063 -0.973289 3.17389
      vertex -0.519487 -0.485217 1.15349e-016
    endloop
  endfacet
  facet normal 0.789499 0.613752 0
    outer loop
      vertex -0.519487 -0.485217 1.15349e-016
      vertex -0.140063 -0.973289 3.17389
      vertex -0.140063 -0.973289 3.11002e-017
    endloop
  endfacet
  facet normal -0.721389 0.69253 0
    outer loop
      vertex -9.08051 -0.485217 2.01628e-015
      vertex -8.65419 -0.041132 2.88807
      vertex -8.65419 -0.041132 1.92162e-015
    endloop
  endfacet
  facet normal -0.721389 0.69253 0
    outer loop
      vertex -8.65419 -0.041132 2.88807
      vertex -9.08051 -0.485217 2.01628e-015
      vertex -9.08051 -0.485217 3.28324
    endloop
  endfacet
  facet normal -0.644786 0.764363 0
    outer loop
      vertex -8.60543 0 2.84738
      vertex -8.65419 -0.041132 1.92162e-015
      vertex -8.65419 -0.041132 2.88807
    endloop
  endfacet
  facet normal -0.644786 0.764363 0
    outer loop
      vertex -8.65419 -0.041132 1.92162e-015
      vertex -8.60543 0 2.84738
      vertex -8.60543 0 1.91079e-015
    endloop
  endfacet
  facet normal -0.789495 0.613758 0
    outer loop
      vertex -9.45994 -0.973289 3.17389
      vertex -9.08051 -0.485217 3.28324
      vertex -9.08051 -0.485217 2.01628e-015
    endloop
  endfacet
  facet normal -0.789493 0.61376 -1.69141e-005
    outer loop
      vertex -9.08051 -0.485217 3.28324
      vertex -9.45994 -0.973289 3.17389
      vertex -9.08693 -0.493475 3.28993
    endloop
  endfacet
  facet normal -0.789495 0.613758 0
    outer loop
      vertex -9.45994 -0.973289 3.17389
      vertex -9.08051 -0.485217 2.01628e-015
      vertex -9.45994 -0.973289 2.10053e-015
    endloop
  endfacet
  facet normal -0.789492 0.61376 -2.03812e-005
    outer loop
      vertex -9.08693 -0.493475 3.28993
      vertex -9.45994 -0.973289 3.17389
      vertex -9.2278 -0.674674 3.43657
    endloop
  endfacet
  facet normal -0.848597 0.529039 0
    outer loop
      vertex -9.6 -1.19795 2.84302
      vertex -9.45994 -0.973289 3.17389
      vertex -9.45994 -0.973289 2.10053e-015
    endloop
  endfacet
  facet normal -0.848597 0.529039 0
    outer loop
      vertex -9.6 -1.19795 2.84302
      vertex -9.45994 -0.973289 2.10053e-015
      vertex -9.6 -1.19795 2.13163e-015
    endloop
  endfacet
  facet normal -0.850283 0.52632 0.00255989
    outer loop
      vertex -9.45994 -0.973289 3.17389
      vertex -9.6 -1.19795 2.84302
      vertex -9.46134 -0.975543 3.1723
    endloop
  endfacet
  facet normal 0.721388 0.692531 -0
    outer loop
      vertex -0.519487 -0.485217 1.15349e-016
      vertex -0.945808 -0.041132 2.88807
      vertex -0.519487 -0.485217 3.28324
    endloop
  endfacet
  facet normal 0.721388 0.692531 0
    outer loop
      vertex -0.945808 -0.041132 2.88807
      vertex -0.519487 -0.485217 1.15349e-016
      vertex -0.945808 -0.041132 2.10012e-016
    endloop
  endfacet
  facet normal 0.644771 0.764376 -0
    outer loop
      vertex -0.945808 -0.041132 2.10012e-016
      vertex -0.99457 -8.80182e-016 2.84738
      vertex -0.945808 -0.041132 2.88807
    endloop
  endfacet
  facet normal 0.644771 0.764376 0
    outer loop
      vertex -0.99457 -8.80182e-016 2.84738
      vertex -0.945808 -0.041132 2.10012e-016
      vertex -0.99457 -8.80182e-016 2.20839e-016
    endloop
  endfacet
  facet normal 0.848669 0.528924 0.000116405
    outer loop
      vertex 3.75918e-016 -1.19795 2.84302
      vertex -0.140063 -0.973289 3.17389
      vertex -0.138658 -0.975543 3.1723
    endloop
  endfacet
  facet normal 0.848592 0.529048 0
    outer loop
      vertex -0.140063 -0.973289 3.17389
      vertex 3.75918e-016 -1.19795 2.84302
      vertex -0.140063 -0.973289 3.11002e-017
    endloop
  endfacet
  facet normal 0.848592 0.529048 -1.93598e-016
    outer loop
      vertex -0.140063 -0.973289 3.11002e-017
      vertex 3.75918e-016 -1.19795 2.84302
      vertex -2.55359e-016 -1.19795 5.67011e-032
    endloop
  endfacet
  facet normal 0.0545101 0.421992 0.904959
    outer loop
      vertex -5.41476 0 2.12803
      vertex -4.8 -0.877098 2.5
      vertex -4.8 0 2.091
    endloop
  endfacet
  facet normal 0.0545136 0.421994 0.904958
    outer loop
      vertex -4.8 -0.877098 2.5
      vertex -5.41476 0 2.12803
      vertex -5.17663 -1.08085 2.6177
    endloop
  endfacet
  facet normal 0.268848 0.407057 0.87294
    outer loop
      vertex -7.19514 0 2.38034
      vertex -7.36564 -1.86339 3.30176
      vertex -7.19514 -1.86174 3.24848
    endloop
  endfacet
  facet normal 0.268842 0.407058 0.872942
    outer loop
      vertex -7.36564 -1.86339 3.30176
      vertex -7.19514 0 2.38034
      vertex -7.75493 0 2.55274
    endloop
  endfacet
  facet normal -0.0545101 0.421992 0.904959
    outer loop
      vertex -4.8 -0.877098 2.5
      vertex -4.18524 -1.42191e-016 2.12803
      vertex -4.8 0 2.091
    endloop
  endfacet
  facet normal -0.0545136 0.421994 0.904958
    outer loop
      vertex -4.18524 -1.42191e-016 2.12803
      vertex -4.8 -0.877098 2.5
      vertex -4.42337 -1.08085 2.6177
    endloop
  endfacet
  facet normal 0.162786 0.416981 0.894219
    outer loop
      vertex -7.19514 0 2.38034
      vertex -7.00119 -1.80747 3.18787
      vertex -6.59918 0 2.27185
    endloop
  endfacet
  facet normal 0.16277 0.416981 0.894222
    outer loop
      vertex -7.00119 -1.80747 3.18787
      vertex -7.19514 0 2.38034
      vertex -7.19514 -1.86174 3.24848
    endloop
  endfacet
  facet normal 0.162776 0.416979 0.894222
    outer loop
      vertex -6.59918 0 2.27185
      vertex -6.00417 -1.52853 2.8763
      vertex -6.00417 0 2.16354
    endloop
  endfacet
  facet normal 0.162784 0.416982 0.894219
    outer loop
      vertex -6.00417 -1.52853 2.8763
      vertex -6.59918 0 2.27185
      vertex -7.00119 -1.80747 3.18787
    endloop
  endfacet
  facet normal -0.372383 0.391999 0.84123
    outer loop
      vertex -0.519487 -0.485217 3.28324
      vertex -0.43138 -0.874261 3.50353
      vertex -0.513067 -0.493475 3.28993
    endloop
  endfacet
  facet normal -0.371271 0.392419 0.841526
    outer loop
      vertex -1.24012 -8.23387e-016 2.73904
      vertex -0.43138 -0.874261 3.50353
      vertex -0.519487 -0.485217 3.28324
    endloop
  endfacet
  facet normal -0.371281 0.392406 0.841527
    outer loop
      vertex -1.24012 -8.23387e-016 2.73904
      vertex -0.519487 -0.485217 3.28324
      vertex -0.945808 -0.041132 2.88807
    endloop
  endfacet
  facet normal -0.371305 0.392328 0.841553
    outer loop
      vertex -1.24012 -8.23387e-016 2.73904
      vertex -0.945808 -0.041132 2.88807
      vertex -0.99457 -8.80182e-016 2.84738
    endloop
  endfacet
  facet normal -0.371281 0.392409 0.841526
    outer loop
      vertex -0.43138 -0.874261 3.50353
      vertex -1.24012 -8.23387e-016 2.73904
      vertex -1.24012 -1.87306 3.61246
    endloop
  endfacet
  facet normal -0.37129 0.392415 0.841519
    outer loop
      vertex -0.43138 -0.874261 3.50353
      vertex -1.24012 -1.87306 3.61246
      vertex -0.681831 -1.71897 3.78693
    endloop
  endfacet
  facet normal -0.371271 0.392407 0.841531
    outer loop
      vertex -0.43138 -0.874261 3.50353
      vertex -0.372204 -0.674674 3.43657
      vertex -0.513067 -0.493475 3.28993
    endloop
  endfacet
  facet normal 0.0545207 0.421995 0.904957
    outer loop
      vertex -6.00417 0 2.16354
      vertex -5.17663 -1.08085 2.6177
      vertex -5.41476 0 2.12803
    endloop
  endfacet
  facet normal 0.0545082 0.421987 0.904962
    outer loop
      vertex -5.17663 -1.08085 2.6177
      vertex -6.00417 0 2.16354
      vertex -6.00417 -1.52853 2.8763
    endloop
  endfacet
  facet normal 0.371286 0.392361 0.841546
    outer loop
      vertex -8.65419 -0.041132 2.88807
      vertex -8.35987 0 2.73904
      vertex -8.60543 0 2.84738
    endloop
  endfacet
  facet normal 0.371269 0.392418 0.841527
    outer loop
      vertex -9.08051 -0.485217 3.28324
      vertex -8.35987 0 2.73904
      vertex -8.65419 -0.041132 2.88807
    endloop
  endfacet
  facet normal 0.371278 0.39241 0.841527
    outer loop
      vertex -8.35987 0 2.73904
      vertex -9.16862 -0.874261 3.50353
      vertex -8.35987 -1.87306 3.61246
    endloop
  endfacet
  facet normal 0.37127 0.392417 0.841527
    outer loop
      vertex -8.35987 0 2.73904
      vertex -9.08051 -0.485217 3.28324
      vertex -9.16862 -0.874261 3.50353
    endloop
  endfacet
  facet normal 0.372388 0.391995 0.84123
    outer loop
      vertex -9.16862 -0.874261 3.50353
      vertex -9.08051 -0.485217 3.28324
      vertex -9.08693 -0.493475 3.28993
    endloop
  endfacet
  facet normal 0.371283 0.392414 0.841523
    outer loop
      vertex -8.35987 -1.87306 3.61246
      vertex -9.16862 -0.874261 3.50353
      vertex -8.91817 -1.71897 3.78693
    endloop
  endfacet
  facet normal 0.268836 0.407059 0.872943
    outer loop
      vertex -8.35987 -1.87306 3.61246
      vertex -7.75493 0 2.55274
      vertex -8.35987 0 2.73904
    endloop
  endfacet
  facet normal 0.268838 0.407058 0.872943
    outer loop
      vertex -7.75493 0 2.55274
      vertex -8.35987 -1.87306 3.61246
      vertex -7.36564 -1.86339 3.30176
    endloop
  endfacet
  facet normal -0.16277 0.416981 0.894222
    outer loop
      vertex -2.40486 -5.53988e-016 2.38034
      vertex -2.59881 -1.80747 3.18787
      vertex -2.40486 -1.86174 3.24848
    endloop
  endfacet
  facet normal -0.162786 0.416981 0.894219
    outer loop
      vertex -2.59881 -1.80747 3.18787
      vertex -2.40486 -5.53988e-016 2.38034
      vertex -3.00082 -4.16145e-016 2.27185
    endloop
  endfacet
  facet normal -0.268831 0.40706 0.872944
    outer loop
      vertex -1.84507 -6.83464e-016 2.55274
      vertex -1.24012 -1.87306 3.61246
      vertex -1.24012 -8.23387e-016 2.73904
    endloop
  endfacet
  facet normal -0.268836 0.407058 0.872944
    outer loop
      vertex -1.24012 -1.87306 3.61246
      vertex -1.84507 -6.83464e-016 2.55274
      vertex -2.23436 -1.86339 3.30176
    endloop
  endfacet
  facet normal 0.371254 0.392411 0.841537
    outer loop
      vertex -9.2278 -0.674674 3.43657
      vertex -9.16862 -0.874261 3.50353
      vertex -9.08693 -0.493475 3.28993
    endloop
  endfacet
  facet normal -0.0545207 0.421995 0.904957
    outer loop
      vertex -4.42337 -1.08085 2.6177
      vertex -3.59583 -2.7852e-016 2.16354
      vertex -4.18524 -1.42191e-016 2.12803
    endloop
  endfacet
  facet normal -0.0545082 0.421987 0.904962
    outer loop
      vertex -3.59583 -2.7852e-016 2.16354
      vertex -4.42337 -1.08085 2.6177
      vertex -3.59583 -1.52853 2.8763
    endloop
  endfacet
  facet normal -0.162776 0.416979 0.894222
    outer loop
      vertex -3.59583 -1.52853 2.8763
      vertex -3.00082 -4.16145e-016 2.27185
      vertex -3.59583 -2.7852e-016 2.16354
    endloop
  endfacet
  facet normal -0.162784 0.416982 0.894219
    outer loop
      vertex -3.00082 -4.16145e-016 2.27185
      vertex -3.59583 -1.52853 2.8763
      vertex -2.59881 -1.80747 3.18787
    endloop
  endfacet
  facet normal -0.268842 0.407058 0.872942
    outer loop
      vertex -2.40486 -5.53988e-016 2.38034
      vertex -2.23436 -1.86339 3.30176
      vertex -1.84507 -6.83464e-016 2.55274
    endloop
  endfacet
  facet normal -0.268848 0.407057 0.87294
    outer loop
      vertex -2.23436 -1.86339 3.30176
      vertex -2.40486 -5.53988e-016 2.38034
      vertex -2.40486 -1.86174 3.24848
    endloop
  endfacet
  facet normal -0.162913 -0.416978 0.894197
    outer loop
      vertex -2.59881 -28.1925 3.18787
      vertex -2.40486 -30 2.38034
      vertex -2.40486 -28.1383 3.24848
    endloop
  endfacet
  facet normal -0.162786 -0.416975 0.894222
    outer loop
      vertex -2.40486 -30 2.38034
      vertex -2.59881 -28.1925 3.18787
      vertex -3.00082 -30 2.27185
    endloop
  endfacet
  facet normal 0.37127 -0.392404 0.841533
    outer loop
      vertex -9.16862 -29.1257 3.50353
      vertex -8.35987 -30 2.73904
      vertex -8.35987 -28.1269 3.61246
    endloop
  endfacet
  facet normal 0.371242 -0.392619 0.841445
    outer loop
      vertex -8.35987 -30 2.73904
      vertex -8.65419 -29.9589 2.88807
      vertex -8.60543 -30 2.84738
    endloop
  endfacet
  facet normal 0.37129 -0.392418 0.841518
    outer loop
      vertex -9.16862 -29.1257 3.50353
      vertex -8.35987 -28.1269 3.61246
      vertex -8.91817 -28.281 3.78693
    endloop
  endfacet
  facet normal 0.371328 -0.39235 0.841532
    outer loop
      vertex -9.08051 -29.5148 3.28324
      vertex -8.35987 -30 2.73904
      vertex -9.16862 -29.1257 3.50353
    endloop
  endfacet
  facet normal 0.371322 -0.392357 0.841532
    outer loop
      vertex -8.35987 -30 2.73904
      vertex -9.08051 -29.5148 3.28324
      vertex -8.65419 -29.9589 2.88807
    endloop
  endfacet
  facet normal 0.36924 -0.393136 0.842085
    outer loop
      vertex -9.08051 -29.5148 3.28324
      vertex -9.16862 -29.1257 3.50353
      vertex -9.08693 -29.5065 3.28993
    endloop
  endfacet
  facet normal -0.0545554 -0.422017 0.904945
    outer loop
      vertex -4.8 -29.1229 2.5
      vertex -4.18524 -30 2.12803
      vertex -4.42337 -28.9192 2.6177
    endloop
  endfacet
  facet normal -0.0545101 -0.421991 0.90496
    outer loop
      vertex -4.18524 -30 2.12803
      vertex -4.8 -29.1229 2.5
      vertex -4.8 -30 2.091
    endloop
  endfacet
  facet normal 0.0545554 -0.422017 0.904945
    outer loop
      vertex -5.41476 -30 2.12803
      vertex -4.8 -29.1229 2.5
      vertex -5.17663 -28.9192 2.6177
    endloop
  endfacet
  facet normal 0.0545101 -0.421991 0.90496
    outer loop
      vertex -4.8 -29.1229 2.5
      vertex -5.41476 -30 2.12803
      vertex -4.8 -30 2.091
    endloop
  endfacet
  facet normal -0.16276 -0.416982 0.894223
    outer loop
      vertex -3.59583 -28.4715 2.8763
      vertex -3.00082 -30 2.27185
      vertex -2.59881 -28.1925 3.18787
    endloop
  endfacet
  facet normal -0.162775 -0.416986 0.894219
    outer loop
      vertex -3.00082 -30 2.27185
      vertex -3.59583 -28.4715 2.8763
      vertex -3.59583 -30 2.16354
    endloop
  endfacet
  facet normal -0.371293 -0.392387 0.841531
    outer loop
      vertex -0.372204 -29.3253 3.43657
      vertex -0.43138 -29.1257 3.50353
      vertex -0.513067 -29.5065 3.28993
    endloop
  endfacet
  facet normal -0.0544934 -0.421995 0.904959
    outer loop
      vertex -4.42337 -28.9192 2.6177
      vertex -3.59583 -30 2.16354
      vertex -3.59583 -28.4715 2.8763
    endloop
  endfacet
  facet normal -0.0545202 -0.422011 0.90495
    outer loop
      vertex -3.59583 -30 2.16354
      vertex -4.42337 -28.9192 2.6177
      vertex -4.18524 -30 2.12803
    endloop
  endfacet
  facet normal 0.371275 -0.392392 0.841536
    outer loop
      vertex -9.16862 -29.1257 3.50353
      vertex -9.2278 -29.3253 3.43657
      vertex -9.08693 -29.5065 3.28993
    endloop
  endfacet
  facet normal 0.0544934 -0.421995 0.904959
    outer loop
      vertex -6.00417 -30 2.16354
      vertex -5.17663 -28.9192 2.6177
      vertex -6.00417 -28.4715 2.8763
    endloop
  endfacet
  facet normal 0.0545202 -0.422011 0.90495
    outer loop
      vertex -5.17663 -28.9192 2.6177
      vertex -6.00417 -30 2.16354
      vertex -5.41476 -30 2.12803
    endloop
  endfacet
  facet normal 0.162913 -0.416978 0.894197
    outer loop
      vertex -7.19514 -30 2.38034
      vertex -7.00119 -28.1925 3.18787
      vertex -7.19514 -28.1383 3.24848
    endloop
  endfacet
  facet normal 0.162786 -0.416975 0.894222
    outer loop
      vertex -7.00119 -28.1925 3.18787
      vertex -7.19514 -30 2.38034
      vertex -6.59918 -30 2.27185
    endloop
  endfacet
  facet normal 0.268736 -0.407078 0.872965
    outer loop
      vertex -7.36564 -28.1366 3.30176
      vertex -7.19514 -30 2.38034
      vertex -7.19514 -28.1383 3.24848
    endloop
  endfacet
  facet normal 0.268842 -0.407057 0.872943
    outer loop
      vertex -7.19514 -30 2.38034
      vertex -7.36564 -28.1366 3.30176
      vertex -7.75493 -30 2.55274
    endloop
  endfacet
  facet normal 0.268828 -0.407055 0.872948
    outer loop
      vertex -8.35987 -28.1269 3.61246
      vertex -7.75493 -30 2.55274
      vertex -7.36564 -28.1366 3.30176
    endloop
  endfacet
  facet normal 0.268836 -0.407052 0.872947
    outer loop
      vertex -7.75493 -30 2.55274
      vertex -8.35987 -28.1269 3.61246
      vertex -8.35987 -30 2.73904
    endloop
  endfacet
  facet normal -0.369235 -0.39314 0.842085
    outer loop
      vertex -0.43138 -29.1257 3.50353
      vertex -0.519487 -29.5148 3.28324
      vertex -0.513067 -29.5065 3.28993
    endloop
  endfacet
  facet normal -0.371297 -0.392419 0.841514
    outer loop
      vertex -1.24012 -28.1269 3.61246
      vertex -0.43138 -29.1257 3.50353
      vertex -0.681831 -28.281 3.78693
    endloop
  endfacet
  facet normal -0.371274 -0.392403 0.841531
    outer loop
      vertex -1.24012 -30 2.73904
      vertex -0.43138 -29.1257 3.50353
      vertex -1.24012 -28.1269 3.61246
    endloop
  endfacet
  facet normal -0.371329 -0.392352 0.841531
    outer loop
      vertex -0.43138 -29.1257 3.50353
      vertex -1.24012 -30 2.73904
      vertex -0.519487 -29.5148 3.28324
    endloop
  endfacet
  facet normal -0.371334 -0.392345 0.841532
    outer loop
      vertex -0.519487 -29.5148 3.28324
      vertex -1.24012 -30 2.73904
      vertex -0.945808 -29.9589 2.88807
    endloop
  endfacet
  facet normal -0.37126 -0.392586 0.841452
    outer loop
      vertex -0.945808 -29.9589 2.88807
      vertex -1.24012 -30 2.73904
      vertex -0.99457 -30 2.84738
    endloop
  endfacet
  facet normal -0.268736 -0.407078 0.872965
    outer loop
      vertex -2.40486 -30 2.38034
      vertex -2.23436 -28.1366 3.30176
      vertex -2.40486 -28.1383 3.24848
    endloop
  endfacet
  facet normal -0.268842 -0.407057 0.872943
    outer loop
      vertex -2.23436 -28.1366 3.30176
      vertex -2.40486 -30 2.38034
      vertex -1.84507 -30 2.55274
    endloop
  endfacet
  facet normal -0.268832 -0.407052 0.872948
    outer loop
      vertex -1.24012 -28.1269 3.61246
      vertex -1.84507 -30 2.55274
      vertex -1.24012 -30 2.73904
    endloop
  endfacet
  facet normal -0.268825 -0.407055 0.872948
    outer loop
      vertex -1.84507 -30 2.55274
      vertex -1.24012 -28.1269 3.61246
      vertex -2.23436 -28.1366 3.30176
    endloop
  endfacet
  facet normal 0.162775 -0.416986 0.894219
    outer loop
      vertex -6.00417 -28.4715 2.8763
      vertex -6.59918 -30 2.27185
      vertex -6.00417 -30 2.16354
    endloop
  endfacet
  facet normal 0.16276 -0.416982 0.894223
    outer loop
      vertex -6.59918 -30 2.27185
      vertex -6.00417 -28.4715 2.8763
      vertex -7.00119 -28.1925 3.18787
    endloop
  endfacet
  facet normal -2.22044e-016 -4.5453e-022 -1
    outer loop
      vertex -4.8 -30 1.06581e-015
      vertex -6.13953e-015 -28.802 1.36325e-030
      vertex -0.140063 -29.0267 3.11002e-017
    endloop
  endfacet
  facet normal -2.22045e-016 2.25991e-038 -1
    outer loop
      vertex -6.13953e-015 -28.802 1.36325e-030
      vertex -9.6 -28.802 2.13163e-015
      vertex -2.55359e-016 -1.19795 5.67011e-032
    endloop
  endfacet
  facet normal -2.22044e-016 -1.93768e-022 -1
    outer loop
      vertex -4.8 -30 1.06581e-015
      vertex -0.140063 -29.0267 3.11002e-017
      vertex -0.519487 -29.5148 1.15349e-016
    endloop
  endfacet
  facet normal -2.22045e-016 -0 -1
    outer loop
      vertex -9.6 -1.19795 2.13163e-015
      vertex -2.55359e-016 -1.19795 5.67011e-032
      vertex -9.6 -28.802 2.13163e-015
    endloop
  endfacet
  facet normal -2.22043e-016 -2.785e-021 -1
    outer loop
      vertex -4.8 -30 1.06581e-015
      vertex -0.519487 -29.5148 1.15349e-016
      vertex -0.945808 -29.9589 2.10012e-016
    endloop
  endfacet
  facet normal -2.22045e-016 4.17362e-021 -1
    outer loop
      vertex -6.13953e-015 -28.802 1.36325e-030
      vertex -4.8 -30 1.06581e-015
      vertex -9.6 -28.802 2.13163e-015
    endloop
  endfacet
  facet normal -2.22044e-016 6.93907e-021 -1
    outer loop
      vertex -4.8 -30 1.06581e-015
      vertex -0.945808 -29.9589 2.10012e-016
      vertex -0.99457 -30 2.20839e-016
    endloop
  endfacet
  facet normal -2.22045e-016 -4.1738e-021 -1
    outer loop
      vertex -4.8 0 1.06581e-015
      vertex -2.55359e-016 -1.19795 5.67011e-032
      vertex -9.6 -1.19795 2.13163e-015
    endloop
  endfacet
  facet normal -2.22043e-016 2.78512e-021 -1
    outer loop
      vertex -0.519487 -0.485217 1.15349e-016
      vertex -4.8 0 1.06581e-015
      vertex -0.945808 -0.041132 2.10012e-016
    endloop
  endfacet
  facet normal -2.22044e-016 -6.93367e-021 -1
    outer loop
      vertex -0.945808 -0.041132 2.10012e-016
      vertex -4.8 0 1.06581e-015
      vertex -0.99457 -8.80182e-016 2.20839e-016
    endloop
  endfacet
  facet normal -2.22046e-016 9.27375e-022 -1
    outer loop
      vertex -9.08051 -29.5148 2.01628e-015
      vertex -4.8 -30 1.06581e-015
      vertex -8.60543 -30 1.91079e-015
    endloop
  endfacet
  facet normal -2.22044e-016 4.5462e-022 -1
    outer loop
      vertex -2.55359e-016 -1.19795 5.67011e-032
      vertex -4.8 0 1.06581e-015
      vertex -0.140063 -0.973289 3.11002e-017
    endloop
  endfacet
  facet normal -2.22399e-016 -3.4458e-019 -1
    outer loop
      vertex -9.08051 -29.5148 2.01628e-015
      vertex -8.60543 -30 1.91079e-015
      vertex -8.65419 -29.9589 1.92162e-015
    endloop
  endfacet
  facet normal -2.22044e-016 1.93781e-022 -1
    outer loop
      vertex -0.140063 -0.973289 3.11002e-017
      vertex -4.8 0 1.06581e-015
      vertex -0.519487 -0.485217 1.15349e-016
    endloop
  endfacet
  facet normal -2.22046e-016 -2.02843e-021 -1
    outer loop
      vertex -9.45994 -29.0267 2.10053e-015
      vertex -4.8 -30 1.06581e-015
      vertex -9.08051 -29.5148 2.01628e-015
    endloop
  endfacet
  facet normal -2.22045e-016 -1.37362e-021 -1
    outer loop
      vertex -9.45994 -0.973289 2.10053e-015
      vertex -4.8 0 1.06581e-015
      vertex -9.6 -1.19795 2.13163e-015
    endloop
  endfacet
  facet normal -2.22045e-016 1.37335e-021 -1
    outer loop
      vertex -4.8 -30 1.06581e-015
      vertex -9.45994 -29.0267 2.10053e-015
      vertex -9.6 -28.802 2.13163e-015
    endloop
  endfacet
  facet normal -2.22046e-016 -9.27342e-022 -1
    outer loop
      vertex -4.8 0 1.06581e-015
      vertex -9.08051 -0.485217 2.01628e-015
      vertex -8.60543 0 1.91079e-015
    endloop
  endfacet
  facet normal -2.224e-016 3.45783e-019 -1
    outer loop
      vertex -8.60543 0 1.91079e-015
      vertex -9.08051 -0.485217 2.01628e-015
      vertex -8.65419 -0.041132 1.92162e-015
    endloop
  endfacet
  facet normal -2.22046e-016 2.02856e-021 -1
    outer loop
      vertex -4.8 0 1.06581e-015
      vertex -9.45994 -0.973289 2.10053e-015
      vertex -9.08051 -0.485217 2.01628e-015
    endloop
  endfacet
  facet normal 0 -1 0
    outer loop
      vertex -4.8 -30 1.06581e-015
      vertex -4.18524 -30 2.12803
      vertex -4.8 -30 2.091
    endloop
  endfacet
  facet normal 0 -1 0
    outer loop
      vertex -4.8 -30 1.06581e-015
      vertex -3.59583 -30 2.16354
      vertex -4.18524 -30 2.12803
    endloop
  endfacet
  facet normal 0 -1 0
    outer loop
      vertex -4.8 -30 1.06581e-015
      vertex -3.00082 -30 2.27185
      vertex -3.59583 -30 2.16354
    endloop
  endfacet
  facet normal 0 -1 0
    outer loop
      vertex -0.99457 -30 2.20839e-016
      vertex -3.00082 -30 2.27185
      vertex -4.8 -30 1.06581e-015
    endloop
  endfacet
  facet normal 0 -1 0
    outer loop
      vertex -3.00082 -30 2.27185
      vertex -0.99457 -30 2.20839e-016
      vertex -2.40486 -30 2.38034
    endloop
  endfacet
  facet normal 0 -1 0
    outer loop
      vertex -2.40486 -30 2.38034
      vertex -0.99457 -30 2.20839e-016
      vertex -1.84507 -30 2.55274
    endloop
  endfacet
  facet normal 0 -1 0
    outer loop
      vertex -1.84507 -30 2.55274
      vertex -0.99457 -30 2.20839e-016
      vertex -1.24012 -30 2.73904
    endloop
  endfacet
  facet normal 0 -1 0
    outer loop
      vertex -1.24012 -30 2.73904
      vertex -0.99457 -30 2.20839e-016
      vertex -0.99457 -30 2.84738
    endloop
  endfacet
endsolid OpenSCAD_Model
