solid OpenSCAD_Model
  facet normal -1 0 0
    outer loop
      vertex -64.65 22.65 -3.5
      vertex -64.65 87.95 3.5
      vertex -64.65 87.95 -3.5
    endloop
  endfacet
  facet normal -1 -0 0
    outer loop
      vertex -64.65 87.95 3.5
      vertex -64.65 22.65 -3.5
      vertex -64.65 22.65 3.5
    endloop
  endfacet
  facet normal 0 -1 0
    outer loop
      vertex -64.65 22.65 -3.5
      vertex -59.65 22.65 3.5
      vertex -64.65 22.65 3.5
    endloop
  endfacet
  facet normal 0 -1 -0
    outer loop
      vertex -59.65 22.65 3.5
      vertex -64.65 22.65 -3.5
      vertex -59.65 22.65 -3.5
    endloop
  endfacet
  facet normal 0 -1 0
    outer loop
      vertex 59.65 22.65 -3.5
      vertex 64.65 22.65 3.5
      vertex 59.65 22.65 3.5
    endloop
  endfacet
  facet normal 0 -1 -0
    outer loop
      vertex 64.65 22.65 3.5
      vertex 59.65 22.65 -3.5
      vertex 64.65 22.65 -3.5
    endloop
  endfacet
  facet normal 0 -1 0
    outer loop
      vertex -34.65 22.65 -3.5
      vertex 34.65 22.65 3.5
      vertex -34.65 22.65 3.5
    endloop
  endfacet
  facet normal 0 -1 -0
    outer loop
      vertex 34.65 22.65 3.5
      vertex -34.65 22.65 -3.5
      vertex 34.65 22.65 -3.5
    endloop
  endfacet
  facet normal 1 -0 0
    outer loop
      vertex 64.65 22.65 3.5
      vertex 64.65 87.95 -3.5
      vertex 64.65 87.95 3.5
    endloop
  endfacet
  facet normal 1 0 0
    outer loop
      vertex 64.65 87.95 -3.5
      vertex 64.65 22.65 3.5
      vertex 64.65 22.65 -3.5
    endloop
  endfacet
  facet normal 0 0 1
    outer loop
      vertex 64.65 87.95 3.5
      vertex 59.65 82.95 3.5
      vertex 64.65 22.65 3.5
    endloop
  endfacet
  facet normal 0 0 1
    outer loop
      vertex 64.65 87.95 3.5
      vertex -59.65 82.95 3.5
      vertex 59.65 82.95 3.5
    endloop
  endfacet
  facet normal 0 0 1
    outer loop
      vertex -64.65 22.65 3.5
      vertex -59.65 27.65 3.5
      vertex -59.65 82.95 3.5
    endloop
  endfacet
  facet normal -0 0 1
    outer loop
      vertex -64.65 87.95 3.5
      vertex -59.65 82.95 3.5
      vertex 64.65 87.95 3.5
    endloop
  endfacet
  facet normal 0 0 1
    outer loop
      vertex -64.65 22.65 3.5
      vertex -59.65 82.95 3.5
      vertex -64.65 87.95 3.5
    endloop
  endfacet
  facet normal 0 0 1
    outer loop
      vertex -59.65 27.65 3.5
      vertex -64.65 22.65 3.5
      vertex -59.65 22.65 3.5
    endloop
  endfacet
  facet normal -0 0 1
    outer loop
      vertex 59.65 27.65 3.5
      vertex 64.65 22.65 3.5
      vertex 59.65 82.95 3.5
    endloop
  endfacet
  facet normal 0 0 1
    outer loop
      vertex 64.65 22.65 3.5
      vertex 59.65 27.65 3.5
      vertex 59.65 22.65 3.5
    endloop
  endfacet
  facet normal -0 0 1
    outer loop
      vertex -34.65 27.65 3.5
      vertex 34.65 22.65 3.5
      vertex 34.65 27.65 3.5
    endloop
  endfacet
  facet normal 0 0 1
    outer loop
      vertex 34.65 22.65 3.5
      vertex -34.65 27.65 3.5
      vertex -34.65 22.65 3.5
    endloop
  endfacet
  facet normal 0 1 -0
    outer loop
      vertex 64.65 87.95 -3.5
      vertex -64.65 87.95 3.5
      vertex 64.65 87.95 3.5
    endloop
  endfacet
  facet normal 0 1 0
    outer loop
      vertex -64.65 87.95 3.5
      vertex 64.65 87.95 -3.5
      vertex -64.65 87.95 -3.5
    endloop
  endfacet
  facet normal 0 0 -1
    outer loop
      vertex -59.65 22.65 -3.5
      vertex -34.65 22.65 -3.5
      vertex -34.65 2.65 -3.5
    endloop
  endfacet
  facet normal 0 0 -1
    outer loop
      vertex -59.65 22.65 -3.5
      vertex -34.65 2.65 -3.5
      vertex -59.65 2.65 -3.5
    endloop
  endfacet
  facet normal 0 0 -1
    outer loop
      vertex -34.65 22.65 -3.5
      vertex -59.65 22.65 -3.5
      vertex -34.65 27.65 -3.5
    endloop
  endfacet
  facet normal 0 0 -1
    outer loop
      vertex -59.65 22.65 -3.5
      vertex -59.65 27.65 -3.5
      vertex -34.65 27.65 -3.5
    endloop
  endfacet
  facet normal 0 0 -1
    outer loop
      vertex -64.65 22.65 -3.5
      vertex -59.65 27.65 -3.5
      vertex -59.65 22.65 -3.5
    endloop
  endfacet
  facet normal -0 0 -1
    outer loop
      vertex -59.65 27.65 -3.5
      vertex -64.65 22.65 -3.5
      vertex -59.65 82.95 -3.5
    endloop
  endfacet
  facet normal 0 0 -1
    outer loop
      vertex 59.65 27.65 -3.5
      vertex 64.65 22.65 -3.5
      vertex 59.65 22.65 -3.5
    endloop
  endfacet
  facet normal 0 0 -1
    outer loop
      vertex 64.65 22.65 -3.5
      vertex 59.65 27.65 -3.5
      vertex 64.65 87.95 -3.5
    endloop
  endfacet
  facet normal 0 0 -1
    outer loop
      vertex 59.65 82.95 -3.5
      vertex 64.65 87.95 -3.5
      vertex 59.65 27.65 -3.5
    endloop
  endfacet
  facet normal 0 0 -1
    outer loop
      vertex -59.65 82.95 -3.5
      vertex 64.65 87.95 -3.5
      vertex 59.65 82.95 -3.5
    endloop
  endfacet
  facet normal 0 0 -1
    outer loop
      vertex -59.65 82.95 -3.5
      vertex -64.65 87.95 -3.5
      vertex 64.65 87.95 -3.5
    endloop
  endfacet
  facet normal 0 0 -1
    outer loop
      vertex -64.65 87.95 -3.5
      vertex -59.65 82.95 -3.5
      vertex -64.65 22.65 -3.5
    endloop
  endfacet
  facet normal 0 0 -1
    outer loop
      vertex 34.65 22.65 -3.5
      vertex 59.65 22.65 -3.5
      vertex 59.65 2.65 -3.5
    endloop
  endfacet
  facet normal 0 0 -1
    outer loop
      vertex 34.65 22.65 -3.5
      vertex 59.65 2.65 -3.5
      vertex 34.65 2.65 -3.5
    endloop
  endfacet
  facet normal 0 0 -1
    outer loop
      vertex 59.65 22.65 -3.5
      vertex 34.65 22.65 -3.5
      vertex 59.65 27.65 -3.5
    endloop
  endfacet
  facet normal 0 0 -1
    outer loop
      vertex 34.65 22.65 -3.5
      vertex 34.65 27.65 -3.5
      vertex 59.65 27.65 -3.5
    endloop
  endfacet
  facet normal 0 0 -1
    outer loop
      vertex -34.65 22.65 -3.5
      vertex 34.65 27.65 -3.5
      vertex 34.65 22.65 -3.5
    endloop
  endfacet
  facet normal -0 0 -1
    outer loop
      vertex 34.65 27.65 -3.5
      vertex -34.65 22.65 -3.5
      vertex -34.65 27.65 -3.5
    endloop
  endfacet
  facet normal 1 -0 0
    outer loop
      vertex -59.65 27.65 3.5
      vertex -59.65 82.95 -3.5
      vertex -59.65 82.95 3.5
    endloop
  endfacet
  facet normal 1 0 0
    outer loop
      vertex -59.65 82.95 -3.5
      vertex -59.65 27.65 3.5
      vertex -59.65 27.65 -3.5
    endloop
  endfacet
  facet normal 0 1 -0
    outer loop
      vertex 59.65 27.65 3.5
      vertex 34.65 27.65 6.5
      vertex 59.65 27.65 6.5
    endloop
  endfacet
  facet normal 0 1 0
    outer loop
      vertex 59.65 27.65 3.5
      vertex 34.65 27.65 3.5
      vertex 34.65 27.65 6.5
    endloop
  endfacet
  facet normal 0 1 -0
    outer loop
      vertex 59.65 27.65 -3.5
      vertex 34.65 27.65 3.5
      vertex 59.65 27.65 3.5
    endloop
  endfacet
  facet normal 0 1 0
    outer loop
      vertex 34.65 27.65 3.5
      vertex 59.65 27.65 -3.5
      vertex 34.65 27.65 -3.5
    endloop
  endfacet
  facet normal 0 1 -0
    outer loop
      vertex 34.65 27.65 -3.5
      vertex -34.65 27.65 3.5
      vertex 34.65 27.65 3.5
    endloop
  endfacet
  facet normal 0 1 0
    outer loop
      vertex -34.65 27.65 3.5
      vertex 34.65 27.65 -3.5
      vertex -34.65 27.65 -3.5
    endloop
  endfacet
  facet normal 0 1 -0
    outer loop
      vertex -34.65 27.65 3.5
      vertex -59.65 27.65 6.5
      vertex -34.65 27.65 6.5
    endloop
  endfacet
  facet normal 0 1 0
    outer loop
      vertex -34.65 27.65 3.5
      vertex -59.65 27.65 3.5
      vertex -59.65 27.65 6.5
    endloop
  endfacet
  facet normal 0 1 -0
    outer loop
      vertex -34.65 27.65 -3.5
      vertex -59.65 27.65 3.5
      vertex -34.65 27.65 3.5
    endloop
  endfacet
  facet normal 0 1 0
    outer loop
      vertex -59.65 27.65 3.5
      vertex -34.65 27.65 -3.5
      vertex -59.65 27.65 -3.5
    endloop
  endfacet
  facet normal -1 0 0
    outer loop
      vertex 59.65 27.65 -3.5
      vertex 59.65 82.95 3.5
      vertex 59.65 82.95 -3.5
    endloop
  endfacet
  facet normal -1 -0 0
    outer loop
      vertex 59.65 82.95 3.5
      vertex 59.65 27.65 -3.5
      vertex 59.65 27.65 3.5
    endloop
  endfacet
  facet normal 0 -1 0
    outer loop
      vertex -59.65 82.95 -3.5
      vertex 59.65 82.95 3.5
      vertex -59.65 82.95 3.5
    endloop
  endfacet
  facet normal 0 -1 -0
    outer loop
      vertex 59.65 82.95 3.5
      vertex -59.65 82.95 -3.5
      vertex 59.65 82.95 -3.5
    endloop
  endfacet
  facet normal -1 0 0
    outer loop
      vertex -59.65 22.65 -3.5
      vertex -59.65 16.65 1.5
      vertex -59.65 22.65 3.5
    endloop
  endfacet
  facet normal -1 0 0
    outer loop
      vertex -59.65 22.65 -3.5
      vertex -59.65 8.65 1.5
      vertex -59.65 16.65 1.5
    endloop
  endfacet
  facet normal -1 0 -0
    outer loop
      vertex -59.65 8.65 1.5
      vertex -59.65 22.65 -3.5
      vertex -59.65 2.65 -3.5
    endloop
  endfacet
  facet normal -1 0 0
    outer loop
      vertex -59.65 22.65 3.5
      vertex -59.65 27.65 6.5
      vertex -59.65 27.65 3.5
    endloop
  endfacet
  facet normal -1 0 0
    outer loop
      vertex -59.65 15.15 6.5
      vertex -59.65 22.65 3.5
      vertex -59.65 16.65 1.5
    endloop
  endfacet
  facet normal -1 0 0
    outer loop
      vertex -59.65 22.65 3.5
      vertex -59.65 15.15 6.5
      vertex -59.65 27.65 6.5
    endloop
  endfacet
  facet normal -1 0 0
    outer loop
      vertex -59.65 2.65 6.5
      vertex -59.65 8.65 1.5
      vertex -59.65 2.65 -3.5
    endloop
  endfacet
  facet normal -1 0 0
    outer loop
      vertex -59.65 8.65 1.5
      vertex -59.65 2.65 6.5
      vertex -59.65 10.15 6.5
    endloop
  endfacet
  facet normal 0 -1 0
    outer loop
      vertex -59.65 2.65 -3.5
      vertex -34.65 2.65 6.5
      vertex -59.65 2.65 6.5
    endloop
  endfacet
  facet normal 0 -1 -0
    outer loop
      vertex -34.65 2.65 6.5
      vertex -59.65 2.65 -3.5
      vertex -34.65 2.65 -3.5
    endloop
  endfacet
  facet normal 1 0 0
    outer loop
      vertex -34.65 10.15 6.5
      vertex -34.65 2.65 6.5
      vertex -34.65 8.65 1.5
    endloop
  endfacet
  facet normal 1 0 0
    outer loop
      vertex -34.65 27.65 6.5
      vertex -34.65 22.65 3.5
      vertex -34.65 27.65 3.5
    endloop
  endfacet
  facet normal 1 0 0
    outer loop
      vertex -34.65 22.65 3.5
      vertex -34.65 16.65 1.5
      vertex -34.65 22.65 -3.5
    endloop
  endfacet
  facet normal 1 -0 0
    outer loop
      vertex -34.65 15.15 6.5
      vertex -34.65 22.65 3.5
      vertex -34.65 27.65 6.5
    endloop
  endfacet
  facet normal 1 0 0
    outer loop
      vertex -34.65 22.65 3.5
      vertex -34.65 15.15 6.5
      vertex -34.65 16.65 1.5
    endloop
  endfacet
  facet normal 1 -0 0
    outer loop
      vertex -34.65 8.65 1.5
      vertex -34.65 22.65 -3.5
      vertex -34.65 16.65 1.5
    endloop
  endfacet
  facet normal 1 0 0
    outer loop
      vertex -34.65 8.65 1.5
      vertex -34.65 2.65 -3.5
      vertex -34.65 22.65 -3.5
    endloop
  endfacet
  facet normal 1 0 0
    outer loop
      vertex -34.65 2.65 -3.5
      vertex -34.65 8.65 1.5
      vertex -34.65 2.65 6.5
    endloop
  endfacet
  facet normal -0 0 1
    outer loop
      vertex -59.65 10.15 6.5
      vertex -34.65 2.65 6.5
      vertex -34.65 10.15 6.5
    endloop
  endfacet
  facet normal 0 0 1
    outer loop
      vertex -34.65 2.65 6.5
      vertex -59.65 10.15 6.5
      vertex -59.65 2.65 6.5
    endloop
  endfacet
  facet normal -0 0 1
    outer loop
      vertex -59.65 27.65 6.5
      vertex -34.65 15.15 6.5
      vertex -34.65 27.65 6.5
    endloop
  endfacet
  facet normal 0 0 1
    outer loop
      vertex -34.65 15.15 6.5
      vertex -59.65 27.65 6.5
      vertex -59.65 15.15 6.5
    endloop
  endfacet
  facet normal 0 -0.957826 -0.287348
    outer loop
      vertex -59.65 16.65 1.5
      vertex -34.65 15.15 6.5
      vertex -59.65 15.15 6.5
    endloop
  endfacet
  facet normal 0 -0.957826 -0.287348
    outer loop
      vertex -34.65 15.15 6.5
      vertex -59.65 16.65 1.5
      vertex -34.65 16.65 1.5
    endloop
  endfacet
  facet normal -0 0 1
    outer loop
      vertex -59.65 16.65 1.5
      vertex -34.65 8.65 1.5
      vertex -34.65 16.65 1.5
    endloop
  endfacet
  facet normal 0 0 1
    outer loop
      vertex -34.65 8.65 1.5
      vertex -59.65 16.65 1.5
      vertex -59.65 8.65 1.5
    endloop
  endfacet
  facet normal 0 0.957826 -0.287348
    outer loop
      vertex -34.65 8.65 1.5
      vertex -59.65 10.15 6.5
      vertex -34.65 10.15 6.5
    endloop
  endfacet
  facet normal 0 0.957826 -0.287348
    outer loop
      vertex -59.65 10.15 6.5
      vertex -34.65 8.65 1.5
      vertex -59.65 8.65 1.5
    endloop
  endfacet
  facet normal -1 0 0
    outer loop
      vertex 34.65 22.65 -3.5
      vertex 34.65 16.65 1.5
      vertex 34.65 22.65 3.5
    endloop
  endfacet
  facet normal -1 0 0
    outer loop
      vertex 34.65 22.65 -3.5
      vertex 34.65 8.65 1.5
      vertex 34.65 16.65 1.5
    endloop
  endfacet
  facet normal -1 0 -0
    outer loop
      vertex 34.65 8.65 1.5
      vertex 34.65 22.65 -3.5
      vertex 34.65 2.65 -3.5
    endloop
  endfacet
  facet normal -1 0 0
    outer loop
      vertex 34.65 22.65 3.5
      vertex 34.65 27.65 6.5
      vertex 34.65 27.65 3.5
    endloop
  endfacet
  facet normal -1 0 0
    outer loop
      vertex 34.65 15.15 6.5
      vertex 34.65 22.65 3.5
      vertex 34.65 16.65 1.5
    endloop
  endfacet
  facet normal -1 0 0
    outer loop
      vertex 34.65 22.65 3.5
      vertex 34.65 15.15 6.5
      vertex 34.65 27.65 6.5
    endloop
  endfacet
  facet normal -1 0 0
    outer loop
      vertex 34.65 2.65 6.5
      vertex 34.65 8.65 1.5
      vertex 34.65 2.65 -3.5
    endloop
  endfacet
  facet normal -1 0 0
    outer loop
      vertex 34.65 8.65 1.5
      vertex 34.65 2.65 6.5
      vertex 34.65 10.15 6.5
    endloop
  endfacet
  facet normal 0 -1 0
    outer loop
      vertex 34.65 2.65 -3.5
      vertex 59.65 2.65 6.5
      vertex 34.65 2.65 6.5
    endloop
  endfacet
  facet normal 0 -1 -0
    outer loop
      vertex 59.65 2.65 6.5
      vertex 34.65 2.65 -3.5
      vertex 59.65 2.65 -3.5
    endloop
  endfacet
  facet normal 1 0 0
    outer loop
      vertex 59.65 10.15 6.5
      vertex 59.65 2.65 6.5
      vertex 59.65 8.65 1.5
    endloop
  endfacet
  facet normal 1 0 0
    outer loop
      vertex 59.65 27.65 6.5
      vertex 59.65 22.65 3.5
      vertex 59.65 27.65 3.5
    endloop
  endfacet
  facet normal 1 0 0
    outer loop
      vertex 59.65 22.65 3.5
      vertex 59.65 16.65 1.5
      vertex 59.65 22.65 -3.5
    endloop
  endfacet
  facet normal 1 -0 0
    outer loop
      vertex 59.65 15.15 6.5
      vertex 59.65 22.65 3.5
      vertex 59.65 27.65 6.5
    endloop
  endfacet
  facet normal 1 0 0
    outer loop
      vertex 59.65 22.65 3.5
      vertex 59.65 15.15 6.5
      vertex 59.65 16.65 1.5
    endloop
  endfacet
  facet normal 1 -0 0
    outer loop
      vertex 59.65 8.65 1.5
      vertex 59.65 22.65 -3.5
      vertex 59.65 16.65 1.5
    endloop
  endfacet
  facet normal 1 0 0
    outer loop
      vertex 59.65 8.65 1.5
      vertex 59.65 2.65 -3.5
      vertex 59.65 22.65 -3.5
    endloop
  endfacet
  facet normal 1 0 0
    outer loop
      vertex 59.65 2.65 -3.5
      vertex 59.65 8.65 1.5
      vertex 59.65 2.65 6.5
    endloop
  endfacet
  facet normal -0 0 1
    outer loop
      vertex 34.65 10.15 6.5
      vertex 59.65 2.65 6.5
      vertex 59.65 10.15 6.5
    endloop
  endfacet
  facet normal 0 0 1
    outer loop
      vertex 59.65 2.65 6.5
      vertex 34.65 10.15 6.5
      vertex 34.65 2.65 6.5
    endloop
  endfacet
  facet normal -0 0 1
    outer loop
      vertex 34.65 27.65 6.5
      vertex 59.65 15.15 6.5
      vertex 59.65 27.65 6.5
    endloop
  endfacet
  facet normal 0 0 1
    outer loop
      vertex 59.65 15.15 6.5
      vertex 34.65 27.65 6.5
      vertex 34.65 15.15 6.5
    endloop
  endfacet
  facet normal 0 -0.957826 -0.287348
    outer loop
      vertex 34.65 16.65 1.5
      vertex 59.65 15.15 6.5
      vertex 34.65 15.15 6.5
    endloop
  endfacet
  facet normal 0 -0.957826 -0.287348
    outer loop
      vertex 59.65 15.15 6.5
      vertex 34.65 16.65 1.5
      vertex 59.65 16.65 1.5
    endloop
  endfacet
  facet normal -0 0 1
    outer loop
      vertex 34.65 16.65 1.5
      vertex 59.65 8.65 1.5
      vertex 59.65 16.65 1.5
    endloop
  endfacet
  facet normal 0 0 1
    outer loop
      vertex 59.65 8.65 1.5
      vertex 34.65 16.65 1.5
      vertex 34.65 8.65 1.5
    endloop
  endfacet
  facet normal 0 0.957826 -0.287348
    outer loop
      vertex 59.65 8.65 1.5
      vertex 34.65 10.15 6.5
      vertex 59.65 10.15 6.5
    endloop
  endfacet
  facet normal 0 0.957826 -0.287348
    outer loop
      vertex 34.65 10.15 6.5
      vertex 59.65 8.65 1.5
      vertex 34.65 8.65 1.5
    endloop
  endfacet
  facet normal -1 0 0
    outer loop
      vertex -62 -62 -3.5
      vertex -62 -2 3.5
      vertex -62 -2 -3.5
    endloop
  endfacet
  facet normal -1 -0 0
    outer loop
      vertex -62 -2 3.5
      vertex -62 -62 -3.5
      vertex -62 -62 3.5
    endloop
  endfacet
  facet normal 0 -1 0
    outer loop
      vertex -62 -62 -3.5
      vertex 54.8 -62 3.5
      vertex -62 -62 3.5
    endloop
  endfacet
  facet normal 0 -1 -0
    outer loop
      vertex 54.8 -62 3.5
      vertex -62 -62 -3.5
      vertex 54.8 -62 -3.5
    endloop
  endfacet
  facet normal 1 -0 0
    outer loop
      vertex 62 -57 3.5
      vertex 62 -2 -3.5
      vertex 62 -2 3.5
    endloop
  endfacet
  facet normal 1 0 0
    outer loop
      vertex 62 -2 -3.5
      vertex 62 -57 3.5
      vertex 62 -57 -3.5
    endloop
  endfacet
  facet normal 0 0 1
    outer loop
      vertex 62 -2 3.5
      vertex 57 -7 3.5
      vertex 62 -57 3.5
    endloop
  endfacet
  facet normal 0 0 1
    outer loop
      vertex 62 -2 3.5
      vertex -57 -7 3.5
      vertex 57 -7 3.5
    endloop
  endfacet
  facet normal 0 0 1
    outer loop
      vertex -57 -7 3.5
      vertex -62 -2 3.5
      vertex -57 -57 3.5
    endloop
  endfacet
  facet normal -0 0 1
    outer loop
      vertex -62 -2 3.5
      vertex -57 -7 3.5
      vertex 62 -2 3.5
    endloop
  endfacet
  facet normal 0 0 1
    outer loop
      vertex 62 -57 3.5
      vertex 57 -7 3.5
      vertex 57 -57 3.5
    endloop
  endfacet
  facet normal -0 0 1
    outer loop
      vertex -57 -57 3.5
      vertex 54.8 -62 3.5
      vertex 54.8 -57 3.5
    endloop
  endfacet
  facet normal 0 0 1
    outer loop
      vertex -57 -57 3.5
      vertex -62 -62 3.5
      vertex 54.8 -62 3.5
    endloop
  endfacet
  facet normal 0 0 1
    outer loop
      vertex -62 -62 3.5
      vertex -57 -57 3.5
      vertex -62 -2 3.5
    endloop
  endfacet
  facet normal 0 1 -0
    outer loop
      vertex 62 -2 -3.5
      vertex -62 -2 3.5
      vertex 62 -2 3.5
    endloop
  endfacet
  facet normal 0 1 0
    outer loop
      vertex -62 -2 3.5
      vertex 62 -2 -3.5
      vertex -62 -2 -3.5
    endloop
  endfacet
  facet normal 0 0 -1
    outer loop
      vertex 64.8 -82 -3.5
      vertex 59.8 -78.5 -3.5
      vertex 64.8 -77 -3.5
    endloop
  endfacet
  facet normal 0 0 -1
    outer loop
      vertex 54.8 -82 -3.5
      vertex 59.8 -70.5 -3.5
      vertex 59.8 -78.5 -3.5
    endloop
  endfacet
  facet normal 0 0 -1
    outer loop
      vertex 54.8 -82 -3.5
      vertex 59.8 -78.5 -3.5
      vertex 64.8 -82 -3.5
    endloop
  endfacet
  facet normal -0 0 -1
    outer loop
      vertex 59.8 -70.5 -3.5
      vertex 54.8 -82 -3.5
      vertex 54.8 -62 -3.5
    endloop
  endfacet
  facet normal 0 0 -1
    outer loop
      vertex 59.8 -70.5 -3.5
      vertex 54.8 -62 -3.5
      vertex 57 -57 -3.5
    endloop
  endfacet
  facet normal 0 0 -1
    outer loop
      vertex 54.8 -62 -3.5
      vertex 54.8 -57 -3.5
      vertex 57 -57 -3.5
    endloop
  endfacet
  facet normal 0 0 -1
    outer loop
      vertex 54.8 -62 -3.5
      vertex -57 -57 -3.5
      vertex 54.8 -57 -3.5
    endloop
  endfacet
  facet normal -0 0 -1
    outer loop
      vertex -57 -57 -3.5
      vertex -62 -62 -3.5
      vertex -57 -7 -3.5
    endloop
  endfacet
  facet normal 0 0 -1
    outer loop
      vertex -62 -62 -3.5
      vertex -57 -57 -3.5
      vertex 54.8 -62 -3.5
    endloop
  endfacet
  facet normal 0 0 -1
    outer loop
      vertex 59.8 -70.5 -3.5
      vertex 64.8 -57 -3.5
      vertex 64.8 -72 -3.5
    endloop
  endfacet
  facet normal -0 0 -1
    outer loop
      vertex 64.8 -57 -3.5
      vertex 59.8 -70.5 -3.5
      vertex 62 -57 -3.5
    endloop
  endfacet
  facet normal 0 0 -1
    outer loop
      vertex 57 -57 -3.5
      vertex 62 -57 -3.5
      vertex 59.8 -70.5 -3.5
    endloop
  endfacet
  facet normal 0 0 -1
    outer loop
      vertex 57 -7 -3.5
      vertex 62 -57 -3.5
      vertex 57 -57 -3.5
    endloop
  endfacet
  facet normal 0 0 -1
    outer loop
      vertex 62 -57 -3.5
      vertex 57 -7 -3.5
      vertex 62 -2 -3.5
    endloop
  endfacet
  facet normal 0 0 -1
    outer loop
      vertex -57 -7 -3.5
      vertex 62 -2 -3.5
      vertex 57 -7 -3.5
    endloop
  endfacet
  facet normal 0 0 -1
    outer loop
      vertex -57 -7 -3.5
      vertex -62 -2 -3.5
      vertex 62 -2 -3.5
    endloop
  endfacet
  facet normal 0 0 -1
    outer loop
      vertex -62 -2 -3.5
      vertex -57 -7 -3.5
      vertex -62 -62 -3.5
    endloop
  endfacet
  facet normal 1 -0 0
    outer loop
      vertex -57 -57 3.5
      vertex -57 -7 -3.5
      vertex -57 -7 3.5
    endloop
  endfacet
  facet normal 1 0 0
    outer loop
      vertex -57 -7 -3.5
      vertex -57 -57 3.5
      vertex -57 -57 -3.5
    endloop
  endfacet
  facet normal 0 1 0
    outer loop
      vertex 64.8 -57 11.5
      vertex 62 -57 3.5
      vertex 54.8 -57 11.5
    endloop
  endfacet
  facet normal 0 1 -0
    outer loop
      vertex 64.8 -57 -3.5
      vertex 62 -57 3.5
      vertex 64.8 -57 11.5
    endloop
  endfacet
  facet normal 0 1 0
    outer loop
      vertex 62 -57 3.5
      vertex 64.8 -57 -3.5
      vertex 62 -57 -3.5
    endloop
  endfacet
  facet normal 0 1 -0
    outer loop
      vertex 57 -57 3.5
      vertex 54.8 -57 11.5
      vertex 62 -57 3.5
    endloop
  endfacet
  facet normal 0 1 0
    outer loop
      vertex 57 -57 3.5
      vertex 54.8 -57 3.5
      vertex 54.8 -57 11.5
    endloop
  endfacet
  facet normal 0 1 -0
    outer loop
      vertex 57 -57 -3.5
      vertex 54.8 -57 3.5
      vertex 57 -57 3.5
    endloop
  endfacet
  facet normal 0 1 0
    outer loop
      vertex 54.8 -57 3.5
      vertex 57 -57 -3.5
      vertex 54.8 -57 -3.5
    endloop
  endfacet
  facet normal 0 1 -0
    outer loop
      vertex 54.8 -57 -3.5
      vertex -57 -57 3.5
      vertex 54.8 -57 3.5
    endloop
  endfacet
  facet normal 0 1 0
    outer loop
      vertex -57 -57 3.5
      vertex 54.8 -57 -3.5
      vertex -57 -57 -3.5
    endloop
  endfacet
  facet normal -1 0 0
    outer loop
      vertex 57 -57 -3.5
      vertex 57 -7 3.5
      vertex 57 -7 -3.5
    endloop
  endfacet
  facet normal -1 -0 0
    outer loop
      vertex 57 -7 3.5
      vertex 57 -57 -3.5
      vertex 57 -57 3.5
    endloop
  endfacet
  facet normal 0 -1 0
    outer loop
      vertex -57 -7 -3.5
      vertex 57 -7 3.5
      vertex -57 -7 3.5
    endloop
  endfacet
  facet normal 0 -1 -0
    outer loop
      vertex 57 -7 3.5
      vertex -57 -7 -3.5
      vertex 57 -7 -3.5
    endloop
  endfacet
  facet normal -1 0 0
    outer loop
      vertex 54.8 -62 -3.5
      vertex 54.8 -82 -3.5
      vertex 54.8 -62 3.5
    endloop
  endfacet
  facet normal -1 0 0
    outer loop
      vertex 54.8 -62 3.5
      vertex 54.8 -57 11.5
      vertex 54.8 -57 3.5
    endloop
  endfacet
  facet normal -1 0 0
    outer loop
      vertex 54.8 -82 11.5
      vertex 54.8 -62 3.5
      vertex 54.8 -82 -3.5
    endloop
  endfacet
  facet normal -1 0 0
    outer loop
      vertex 54.8 -62 3.5
      vertex 54.8 -82 11.5
      vertex 54.8 -57 11.5
    endloop
  endfacet
  facet normal 0 -1 0
    outer loop
      vertex 54.8 -82 -3.5
      vertex 64.8 -82 11.5
      vertex 54.8 -82 11.5
    endloop
  endfacet
  facet normal 0 -1 -0
    outer loop
      vertex 64.8 -82 11.5
      vertex 54.8 -82 -3.5
      vertex 64.8 -82 -3.5
    endloop
  endfacet
  facet normal 1 -0 0
    outer loop
      vertex 64.8 -82 11.5
      vertex 64.8 -77 -3.5
      vertex 64.8 -77 11.5
    endloop
  endfacet
  facet normal 1 0 0
    outer loop
      vertex 64.8 -77 -3.5
      vertex 64.8 -82 11.5
      vertex 64.8 -82 -3.5
    endloop
  endfacet
  facet normal 1 -0 0
    outer loop
      vertex 64.8 -72 11.5
      vertex 64.8 -57 -3.5
      vertex 64.8 -57 11.5
    endloop
  endfacet
  facet normal 1 0 0
    outer loop
      vertex 64.8 -57 -3.5
      vertex 64.8 -72 11.5
      vertex 64.8 -72 -3.5
    endloop
  endfacet
  facet normal 0 0 1
    outer loop
      vertex 64.8 -57 11.5
      vertex 59.8 -70.5 11.5
      vertex 64.8 -72 11.5
    endloop
  endfacet
  facet normal 0 0 1
    outer loop
      vertex 54.8 -82 11.5
      vertex 59.8 -70.5 11.5
      vertex 54.8 -57 11.5
    endloop
  endfacet
  facet normal -0 0 1
    outer loop
      vertex 54.8 -57 11.5
      vertex 59.8 -70.5 11.5
      vertex 64.8 -57 11.5
    endloop
  endfacet
  facet normal -0 0 1
    outer loop
      vertex 59.8 -78.5 11.5
      vertex 64.8 -82 11.5
      vertex 64.8 -77 11.5
    endloop
  endfacet
  facet normal 0 0 1
    outer loop
      vertex 59.8 -78.5 11.5
      vertex 54.8 -82 11.5
      vertex 64.8 -82 11.5
    endloop
  endfacet
  facet normal 0 0 1
    outer loop
      vertex 59.8 -70.5 11.5
      vertex 54.8 -82 11.5
      vertex 59.8 -78.5 11.5
    endloop
  endfacet
  facet normal 1 -0 0
    outer loop
      vertex 59.8 -78.5 11.5
      vertex 59.8 -70.5 -3.5
      vertex 59.8 -70.5 11.5
    endloop
  endfacet
  facet normal 1 0 0
    outer loop
      vertex 59.8 -70.5 -3.5
      vertex 59.8 -78.5 11.5
      vertex 59.8 -78.5 -3.5
    endloop
  endfacet
  facet normal -0.287348 0.957826 0
    outer loop
      vertex 64.8 -77 -3.5
      vertex 59.8 -78.5 11.5
      vertex 64.8 -77 11.5
    endloop
  endfacet
  facet normal -0.287348 0.957826 0
    outer loop
      vertex 59.8 -78.5 11.5
      vertex 64.8 -77 -3.5
      vertex 59.8 -78.5 -3.5
    endloop
  endfacet
  facet normal -0.287348 -0.957826 0
    outer loop
      vertex 59.8 -70.5 -3.5
      vertex 64.8 -72 11.5
      vertex 59.8 -70.5 11.5
    endloop
  endfacet
  facet normal -0.287348 -0.957826 -0
    outer loop
      vertex 64.8 -72 11.5
      vertex 59.8 -70.5 -3.5
      vertex 64.8 -72 -3.5
    endloop
  endfacet
endsolid OpenSCAD_Model
