solid OpenSCAD_Model
  facet normal 0.994522 0.104531 0
    outer loop
      vertex 1.25 0 5
      vertex 1.22268 0.25989 0
      vertex 1.22268 0.25989 5
    endloop
  endfacet
  facet normal 0.994522 0.104531 0
    outer loop
      vertex 1.22268 0.25989 0
      vertex 1.25 0 5
      vertex 1.25 0 0
    endloop
  endfacet
  facet normal -0.994522 0.104531 0
    outer loop
      vertex -1.25 0 0
      vertex -1.22268 0.25989 5
      vertex -1.22268 0.25989 0
    endloop
  endfacet
  facet normal -0.994522 0.104531 0
    outer loop
      vertex -1.22268 0.25989 5
      vertex -1.25 0 0
      vertex -1.25 0 5
    endloop
  endfacet
  facet normal 0.587787 0.809016 -0
    outer loop
      vertex 0.836412 0.92893 0
      vertex 0.75 0.991713 5
      vertex 0.836412 0.92893 5
    endloop
  endfacet
  facet normal 0.587787 0.809016 0
    outer loop
      vertex 0.75 0.991713 5
      vertex 0.836412 0.92893 0
      vertex 0.75 0.991713 0
    endloop
  endfacet
  facet normal -0.587785 0.809017 0
    outer loop
      vertex -0.75 0.991713 0
      vertex -0.836412 0.92893 5
      vertex -0.75 0.991713 5
    endloop
  endfacet
  facet normal -0.587785 0.809017 0
    outer loop
      vertex -0.836412 0.92893 5
      vertex -0.75 0.991713 0
      vertex -0.836412 0.92893 0
    endloop
  endfacet
  facet normal 0.951057 -0.309017 0
    outer loop
      vertex 1.14193 -0.50842 5
      vertex 1.22268 -0.25989 0
      vertex 1.22268 -0.25989 5
    endloop
  endfacet
  facet normal 0.951057 -0.309017 0
    outer loop
      vertex 1.22268 -0.25989 0
      vertex 1.14193 -0.50842 5
      vertex 1.14193 -0.50842 0
    endloop
  endfacet
  facet normal 0.866025 0.500001 0
    outer loop
      vertex 1.14193 0.50842 5
      vertex 1.01127 0.734731 0
      vertex 1.01127 0.734731 5
    endloop
  endfacet
  facet normal 0.866025 0.500001 0
    outer loop
      vertex 1.01127 0.734731 0
      vertex 1.14193 0.50842 5
      vertex 1.14193 0.50842 0
    endloop
  endfacet
  facet normal 0.951057 0.309017 0
    outer loop
      vertex 1.22268 0.25989 5
      vertex 1.14193 0.50842 0
      vertex 1.14193 0.50842 5
    endloop
  endfacet
  facet normal 0.951057 0.309017 0
    outer loop
      vertex 1.14193 0.50842 0
      vertex 1.22268 0.25989 5
      vertex 1.22268 0.25989 0
    endloop
  endfacet
  facet normal 0.743145 0.669131 0
    outer loop
      vertex 1.01127 0.734731 5
      vertex 0.836412 0.92893 0
      vertex 0.836412 0.92893 5
    endloop
  endfacet
  facet normal 0.743145 0.669131 0
    outer loop
      vertex 0.836412 0.92893 0
      vertex 1.01127 0.734731 5
      vertex 1.01127 0.734731 0
    endloop
  endfacet
  facet normal -0.866025 0.500001 0
    outer loop
      vertex -1.14193 0.50842 0
      vertex -1.01127 0.734731 5
      vertex -1.01127 0.734731 0
    endloop
  endfacet
  facet normal -0.866025 0.500001 0
    outer loop
      vertex -1.01127 0.734731 5
      vertex -1.14193 0.50842 0
      vertex -1.14193 0.50842 5
    endloop
  endfacet
  facet normal -0.743145 0.669131 0
    outer loop
      vertex -1.01127 0.734731 0
      vertex -0.836412 0.92893 5
      vertex -0.836412 0.92893 0
    endloop
  endfacet
  facet normal -0.743145 0.669131 0
    outer loop
      vertex -0.836412 0.92893 5
      vertex -1.01127 0.734731 0
      vertex -1.01127 0.734731 5
    endloop
  endfacet
  facet normal -0.951057 0.309017 0
    outer loop
      vertex -1.22268 0.25989 0
      vertex -1.14193 0.50842 5
      vertex -1.14193 0.50842 0
    endloop
  endfacet
  facet normal -0.951057 0.309017 0
    outer loop
      vertex -1.14193 0.50842 5
      vertex -1.22268 0.25989 0
      vertex -1.22268 0.25989 5
    endloop
  endfacet
  facet normal 0 0 1
    outer loop
      vertex -1.01127 0.734731 5
      vertex -0.75 0.991713 5
      vertex -0.836412 0.92893 5
    endloop
  endfacet
  facet normal 0 0 1
    outer loop
      vertex -1.14193 0.50842 5
      vertex -0.75 0.991713 5
      vertex -1.01127 0.734731 5
    endloop
  endfacet
  facet normal 0 0 1
    outer loop
      vertex -0.75 0.991713 5
      vertex -1.14193 0.50842 5
      vertex -0.75 -0.991713 5
    endloop
  endfacet
  facet normal 0 0 1
    outer loop
      vertex -0.75 -0.991713 5
      vertex -1.01127 -0.734731 5
      vertex -0.836412 -0.92893 5
    endloop
  endfacet
  facet normal -0 0 1
    outer loop
      vertex -1.14193 -0.50842 5
      vertex -0.75 -0.991713 5
      vertex -1.14193 0.50842 5
    endloop
  endfacet
  facet normal 0 0 1
    outer loop
      vertex -0.75 -0.991713 5
      vertex -1.14193 -0.50842 5
      vertex -1.01127 -0.734731 5
    endloop
  endfacet
  facet normal -0 0 1
    outer loop
      vertex -1.22268 0.25989 5
      vertex -1.14193 -0.50842 5
      vertex -1.14193 0.50842 5
    endloop
  endfacet
  facet normal 0 0 1
    outer loop
      vertex -1.22268 0.25989 5
      vertex -1.22268 -0.25989 5
      vertex -1.14193 -0.50842 5
    endloop
  endfacet
  facet normal 0 -0 1
    outer loop
      vertex -1.22268 -0.25989 5
      vertex -1.22268 0.25989 5
      vertex -1.25 0 5
    endloop
  endfacet
  facet normal 0 0 1
    outer loop
      vertex -0.75 0.991713 5
      vertex 0.75 0.991713 5
      vertex 0.75 1.5 5
    endloop
  endfacet
  facet normal 0 0 1
    outer loop
      vertex 0.75 0.991713 5
      vertex -0.75 0.991713 5
      vertex 0.75 -0.991713 5
    endloop
  endfacet
  facet normal 0 0 1
    outer loop
      vertex -0.75 0.991713 5
      vertex 0.75 1.5 5
      vertex -0.75 1.5 5
    endloop
  endfacet
  facet normal 0 0 1
    outer loop
      vertex -0.75 -0.991713 5
      vertex 0.75 -0.991713 5
      vertex -0.75 0.991713 5
    endloop
  endfacet
  facet normal 0 0 1
    outer loop
      vertex 0.75 -0.991713 5
      vertex -0.75 -0.991713 5
      vertex 0.75 -1.5 5
    endloop
  endfacet
  facet normal 0 0 1
    outer loop
      vertex 0.75 -1.5 5
      vertex -0.75 -0.991713 5
      vertex -0.75 -1.5 5
    endloop
  endfacet
  facet normal 0 0 1
    outer loop
      vertex 1.22268 0.25989 5
      vertex 1.22268 -0.25989 5
      vertex 1.25 0 5
    endloop
  endfacet
  facet normal 0 0 1
    outer loop
      vertex 1.14193 0.50842 5
      vertex 1.22268 -0.25989 5
      vertex 1.22268 0.25989 5
    endloop
  endfacet
  facet normal 0 0 1
    outer loop
      vertex 1.14193 0.50842 5
      vertex 1.14193 -0.50842 5
      vertex 1.22268 -0.25989 5
    endloop
  endfacet
  facet normal 0 0 1
    outer loop
      vertex 0.75 0.991713 5
      vertex 1.14193 0.50842 5
      vertex 1.01127 0.734731 5
    endloop
  endfacet
  facet normal 0 0 1
    outer loop
      vertex 1.14193 0.50842 5
      vertex 0.75 0.991713 5
      vertex 1.14193 -0.50842 5
    endloop
  endfacet
  facet normal 0 0 1
    outer loop
      vertex 0.75 0.991713 5
      vertex 1.01127 0.734731 5
      vertex 0.836412 0.92893 5
    endloop
  endfacet
  facet normal 0 0 1
    outer loop
      vertex 0.75 -0.991713 5
      vertex 1.14193 -0.50842 5
      vertex 0.75 0.991713 5
    endloop
  endfacet
  facet normal 0 0 1
    outer loop
      vertex 1.14193 -0.50842 5
      vertex 0.75 -0.991713 5
      vertex 1.01127 -0.734731 5
    endloop
  endfacet
  facet normal 0 0 1
    outer loop
      vertex 1.01127 -0.734731 5
      vertex 0.75 -0.991713 5
      vertex 0.836412 -0.92893 5
    endloop
  endfacet
  facet normal 0.994522 -0.104531 0
    outer loop
      vertex 1.22268 -0.25989 5
      vertex 1.25 0 0
      vertex 1.25 0 5
    endloop
  endfacet
  facet normal 0.994522 -0.104531 0
    outer loop
      vertex 1.25 0 0
      vertex 1.22268 -0.25989 5
      vertex 1.22268 -0.25989 0
    endloop
  endfacet
  facet normal 0 0 -1
    outer loop
      vertex -1.01127 -0.734731 0
      vertex -0.75 -0.991713 0
      vertex -0.836412 -0.92893 0
    endloop
  endfacet
  facet normal 0 0 -1
    outer loop
      vertex -1.14193 -0.50842 0
      vertex -0.75 -0.991713 0
      vertex -1.01127 -0.734731 0
    endloop
  endfacet
  facet normal 0 0 -1
    outer loop
      vertex -0.75 -0.991713 0
      vertex -1.14193 -0.50842 0
      vertex -0.75 0.991713 0
    endloop
  endfacet
  facet normal 0 0 -1
    outer loop
      vertex -0.75 0.991713 0
      vertex -1.01127 0.734731 0
      vertex -0.836412 0.92893 0
    endloop
  endfacet
  facet normal 0 0 -1
    outer loop
      vertex -1.14193 0.50842 0
      vertex -0.75 0.991713 0
      vertex -1.14193 -0.50842 0
    endloop
  endfacet
  facet normal 0 0 -1
    outer loop
      vertex -0.75 0.991713 0
      vertex -1.14193 0.50842 0
      vertex -1.01127 0.734731 0
    endloop
  endfacet
  facet normal 0 0 -1
    outer loop
      vertex -1.22268 -0.25989 0
      vertex -1.14193 0.50842 0
      vertex -1.14193 -0.50842 0
    endloop
  endfacet
  facet normal 0 0 -1
    outer loop
      vertex -1.22268 -0.25989 0
      vertex -1.22268 0.25989 0
      vertex -1.14193 0.50842 0
    endloop
  endfacet
  facet normal 0 -0 -1
    outer loop
      vertex -1.22268 0.25989 0
      vertex -1.22268 -0.25989 0
      vertex -1.25 0 0
    endloop
  endfacet
  facet normal 0 0 -1
    outer loop
      vertex -0.75 -0.991713 0
      vertex 0.75 -0.991713 0
      vertex 0.75 -1.5 0
    endloop
  endfacet
  facet normal 0 0 -1
    outer loop
      vertex 0.75 -0.991713 0
      vertex -0.75 -0.991713 0
      vertex 0.75 0.991713 0
    endloop
  endfacet
  facet normal 0 0 -1
    outer loop
      vertex -0.75 -0.991713 0
      vertex 0.75 -1.5 0
      vertex -0.75 -1.5 0
    endloop
  endfacet
  facet normal 0 0 -1
    outer loop
      vertex -0.75 0.991713 0
      vertex 0.75 0.991713 0
      vertex -0.75 -0.991713 0
    endloop
  endfacet
  facet normal -0 0 -1
    outer loop
      vertex 0.75 0.991713 0
      vertex -0.75 0.991713 0
      vertex 0.75 1.5 0
    endloop
  endfacet
  facet normal -0 0 -1
    outer loop
      vertex 0.75 1.5 0
      vertex -0.75 0.991713 0
      vertex -0.75 1.5 0
    endloop
  endfacet
  facet normal 0 0 -1
    outer loop
      vertex 1.22268 -0.25989 0
      vertex 1.22268 0.25989 0
      vertex 1.25 0 0
    endloop
  endfacet
  facet normal 0 0 -1
    outer loop
      vertex 1.14193 -0.50842 0
      vertex 1.22268 0.25989 0
      vertex 1.22268 -0.25989 0
    endloop
  endfacet
  facet normal 0 0 -1
    outer loop
      vertex 1.14193 -0.50842 0
      vertex 1.14193 0.50842 0
      vertex 1.22268 0.25989 0
    endloop
  endfacet
  facet normal 0 0 -1
    outer loop
      vertex 0.75 -0.991713 0
      vertex 1.14193 -0.50842 0
      vertex 1.01127 -0.734731 0
    endloop
  endfacet
  facet normal -0 0 -1
    outer loop
      vertex 1.14193 -0.50842 0
      vertex 0.75 -0.991713 0
      vertex 1.14193 0.50842 0
    endloop
  endfacet
  facet normal 0 0 -1
    outer loop
      vertex 0.75 -0.991713 0
      vertex 1.01127 -0.734731 0
      vertex 0.836412 -0.92893 0
    endloop
  endfacet
  facet normal 0 0 -1
    outer loop
      vertex 0.75 0.991713 0
      vertex 1.14193 0.50842 0
      vertex 0.75 -0.991713 0
    endloop
  endfacet
  facet normal 0 0 -1
    outer loop
      vertex 1.14193 0.50842 0
      vertex 0.75 0.991713 0
      vertex 1.01127 0.734731 0
    endloop
  endfacet
  facet normal 0 0 -1
    outer loop
      vertex 1.01127 0.734731 0
      vertex 0.75 0.991713 0
      vertex 0.836412 0.92893 0
    endloop
  endfacet
  facet normal 0.866025 -0.500001 0
    outer loop
      vertex 1.01127 -0.734731 5
      vertex 1.14193 -0.50842 0
      vertex 1.14193 -0.50842 5
    endloop
  endfacet
  facet normal 0.866025 -0.500001 0
    outer loop
      vertex 1.14193 -0.50842 0
      vertex 1.01127 -0.734731 5
      vertex 1.01127 -0.734731 0
    endloop
  endfacet
  facet normal -0.866025 -0.500001 0
    outer loop
      vertex -1.01127 -0.734731 0
      vertex -1.14193 -0.50842 5
      vertex -1.14193 -0.50842 0
    endloop
  endfacet
  facet normal -0.866025 -0.500001 0
    outer loop
      vertex -1.14193 -0.50842 5
      vertex -1.01127 -0.734731 0
      vertex -1.01127 -0.734731 5
    endloop
  endfacet
  facet normal -0.743145 -0.669131 0
    outer loop
      vertex -0.836412 -0.92893 0
      vertex -1.01127 -0.734731 5
      vertex -1.01127 -0.734731 0
    endloop
  endfacet
  facet normal -0.743145 -0.669131 0
    outer loop
      vertex -1.01127 -0.734731 5
      vertex -0.836412 -0.92893 0
      vertex -0.836412 -0.92893 5
    endloop
  endfacet
  facet normal -0.994522 -0.104531 0
    outer loop
      vertex -1.22268 -0.25989 0
      vertex -1.25 0 5
      vertex -1.25 0 0
    endloop
  endfacet
  facet normal -0.994522 -0.104531 0
    outer loop
      vertex -1.25 0 5
      vertex -1.22268 -0.25989 0
      vertex -1.22268 -0.25989 5
    endloop
  endfacet
  facet normal 0.587787 -0.809016 0
    outer loop
      vertex 0.75 -0.991713 0
      vertex 0.836412 -0.92893 5
      vertex 0.75 -0.991713 5
    endloop
  endfacet
  facet normal 0.587787 -0.809016 0
    outer loop
      vertex 0.836412 -0.92893 5
      vertex 0.75 -0.991713 0
      vertex 0.836412 -0.92893 0
    endloop
  endfacet
  facet normal -0.951057 -0.309017 0
    outer loop
      vertex -1.14193 -0.50842 0
      vertex -1.22268 -0.25989 5
      vertex -1.22268 -0.25989 0
    endloop
  endfacet
  facet normal -0.951057 -0.309017 0
    outer loop
      vertex -1.22268 -0.25989 5
      vertex -1.14193 -0.50842 0
      vertex -1.14193 -0.50842 5
    endloop
  endfacet
  facet normal 0.743145 -0.669131 0
    outer loop
      vertex 0.836412 -0.92893 5
      vertex 1.01127 -0.734731 0
      vertex 1.01127 -0.734731 5
    endloop
  endfacet
  facet normal 0.743145 -0.669131 0
    outer loop
      vertex 1.01127 -0.734731 0
      vertex 0.836412 -0.92893 5
      vertex 0.836412 -0.92893 0
    endloop
  endfacet
  facet normal -0.587787 -0.809016 0
    outer loop
      vertex -0.836412 -0.92893 0
      vertex -0.75 -0.991713 5
      vertex -0.836412 -0.92893 5
    endloop
  endfacet
  facet normal -0.587787 -0.809016 -0
    outer loop
      vertex -0.75 -0.991713 5
      vertex -0.836412 -0.92893 0
      vertex -0.75 -0.991713 0
    endloop
  endfacet
  facet normal -1 0 0
    outer loop
      vertex -0.75 -1.5 0
      vertex -0.75 -0.991713 5
      vertex -0.75 -0.991713 0
    endloop
  endfacet
  facet normal -1 -0 0
    outer loop
      vertex -0.75 -0.991713 5
      vertex -0.75 -1.5 0
      vertex -0.75 -1.5 5
    endloop
  endfacet
  facet normal -1 0 0
    outer loop
      vertex -0.75 0.991713 0
      vertex -0.75 1.5 5
      vertex -0.75 1.5 0
    endloop
  endfacet
  facet normal -1 -0 0
    outer loop
      vertex -0.75 1.5 5
      vertex -0.75 0.991713 0
      vertex -0.75 0.991713 5
    endloop
  endfacet
  facet normal 1 -0 0
    outer loop
      vertex 0.75 -1.5 5
      vertex 0.75 -0.991713 0
      vertex 0.75 -0.991713 5
    endloop
  endfacet
  facet normal 1 0 0
    outer loop
      vertex 0.75 -0.991713 0
      vertex 0.75 -1.5 5
      vertex 0.75 -1.5 0
    endloop
  endfacet
  facet normal 1 -0 0
    outer loop
      vertex 0.75 0.991713 5
      vertex 0.75 1.5 0
      vertex 0.75 1.5 5
    endloop
  endfacet
  facet normal 1 0 0
    outer loop
      vertex 0.75 1.5 0
      vertex 0.75 0.991713 5
      vertex 0.75 0.991713 0
    endloop
  endfacet
  facet normal 0 -1 0
    outer loop
      vertex -0.75 -1.5 0
      vertex 0.75 -1.5 5
      vertex -0.75 -1.5 5
    endloop
  endfacet
  facet normal 0 -1 -0
    outer loop
      vertex 0.75 -1.5 5
      vertex -0.75 -1.5 0
      vertex 0.75 -1.5 0
    endloop
  endfacet
  facet normal 0 1 -0
    outer loop
      vertex 0.75 1.5 0
      vertex -0.75 1.5 5
      vertex 0.75 1.5 5
    endloop
  endfacet
  facet normal 0 1 0
    outer loop
      vertex -0.75 1.5 5
      vertex 0.75 1.5 0
      vertex -0.75 1.5 0
    endloop
  endfacet
endsolid OpenSCAD_Model
