solid OpenSCAD_Model
  facet normal -0.481757 -0.876305 0
    outer loop
      vertex 0.696259 2.23351 0
      vertex 0.861331 2.14276 20
      vertex 0.696259 2.23351 20
    endloop
  endfacet
  facet normal -0.481757 -0.876305 -0
    outer loop
      vertex 0.861331 2.14276 20
      vertex 0.696259 2.23351 0
      vertex 0.861331 2.14276 0
    endloop
  endfacet
  facet normal -0.125341 -0.992114 0
    outer loop
      vertex 1.21893 2.02657 0
      vertex 1.40581 2.00296 20
      vertex 1.21893 2.02657 20
    endloop
  endfacet
  facet normal -0.125341 -0.992114 -0
    outer loop
      vertex 1.40581 2.00296 20
      vertex 1.21893 2.02657 0
      vertex 1.40581 2.00296 0
    endloop
  endfacet
  facet normal -1 0 0
    outer loop
      vertex 0 3.5 0
      vertex 0 12.5 20
      vertex 0 12.5 0
    endloop
  endfacet
  facet normal -1 -0 0
    outer loop
      vertex 0 12.5 20
      vertex 0 3.5 0
      vertex 0 3.5 20
    endloop
  endfacet
  facet normal -0.904825 -0.425784 0
    outer loop
      vertex 0.185539 2.77737 0
      vertex 0.105335 2.94781 20
      vertex 0.105335 2.94781 0
    endloop
  endfacet
  facet normal -0.904825 -0.425784 0
    outer loop
      vertex 0.105335 2.94781 20
      vertex 0.185539 2.77737 0
      vertex 0.185539 2.77737 20
    endloop
  endfacet
  facet normal 0 -1 0
    outer loop
      vertex 1.40581 2.00296 0
      vertex 3.29906 2.00296 20
      vertex 1.40581 2.00296 20
    endloop
  endfacet
  facet normal 0 -1 -0
    outer loop
      vertex 3.29906 2.00296 20
      vertex 1.40581 2.00296 0
      vertex 3.29906 2.00296 0
    endloop
  endfacet
  facet normal -0.587778 -0.809022 0
    outer loop
      vertex 0.543863 2.34423 0
      vertex 0.696259 2.23351 20
      vertex 0.543863 2.34423 20
    endloop
  endfacet
  facet normal -0.587778 -0.809022 -0
    outer loop
      vertex 0.696259 2.23351 20
      vertex 0.543863 2.34423 0
      vertex 0.696259 2.23351 0
    endloop
  endfacet
  facet normal 1 -0 0
    outer loop
      vertex 8 1 20
      vertex 8 15 0
      vertex 8 15 20
    endloop
  endfacet
  facet normal 1 0 0
    outer loop
      vertex 8 15 0
      vertex 8 1 20
      vertex 8 1 0
    endloop
  endfacet
  facet normal -0.998027 -0.0627881 0
    outer loop
      vertex 0.0118275 3.312 0
      vertex 0 3.5 20
      vertex 0 3.5 0
    endloop
  endfacet
  facet normal -0.998027 -0.0627881 0
    outer loop
      vertex 0 3.5 20
      vertex 0.0118275 3.312 0
      vertex 0.0118275 3.312 20
    endloop
  endfacet
  facet normal -0.770506 -0.637433 0
    outer loop
      vertex 0.406547 2.47318 0
      vertex 0.286474 2.61832 20
      vertex 0.286474 2.61832 0
    endloop
  endfacet
  facet normal -0.770506 -0.637433 0
    outer loop
      vertex 0.286474 2.61832 20
      vertex 0.406547 2.47318 0
      vertex 0.406547 2.47318 20
    endloop
  endfacet
  facet normal 0 1 -0
    outer loop
      vertex 3.29906 13.997 0
      vertex 1.40581 13.997 20
      vertex 3.29906 13.997 20
    endloop
  endfacet
  facet normal 0 1 0
    outer loop
      vertex 1.40581 13.997 20
      vertex 3.29906 13.997 0
      vertex 1.40581 13.997 0
    endloop
  endfacet
  facet normal -0.684693 0.728832 0
    outer loop
      vertex 0.543863 13.6558 0
      vertex 0.406547 13.5268 20
      vertex 0.543863 13.6558 20
    endloop
  endfacet
  facet normal -0.684693 0.728832 0
    outer loop
      vertex 0.406547 13.5268 20
      vertex 0.543863 13.6558 0
      vertex 0.406547 13.5268 0
    endloop
  endfacet
  facet normal -0.951081 0.308943 0
    outer loop
      vertex 0.0471249 12.873 0
      vertex 0.105335 13.0522 20
      vertex 0.105335 13.0522 0
    endloop
  endfacet
  facet normal -0.951081 0.308943 0
    outer loop
      vertex 0.105335 13.0522 20
      vertex 0.0471249 12.873 0
      vertex 0.0471249 12.873 20
    endloop
  endfacet
  facet normal -0.368159 -0.929763 0
    outer loop
      vertex 0.861331 2.14276 0
      vertex 1.03647 2.07341 20
      vertex 0.861331 2.14276 20
    endloop
  endfacet
  facet normal -0.368159 -0.929763 -0
    outer loop
      vertex 1.03647 2.07341 20
      vertex 0.861331 2.14276 0
      vertex 1.03647 2.07341 0
    endloop
  endfacet
  facet normal -0.982288 -0.187377 0
    outer loop
      vertex 0.0471249 3.12696 0
      vertex 0.0118275 3.312 20
      vertex 0.0118275 3.312 0
    endloop
  endfacet
  facet normal -0.982288 -0.187377 0
    outer loop
      vertex 0.0118275 3.312 20
      vertex 0.0471249 3.12696 0
      vertex 0.0471249 3.12696 20
    endloop
  endfacet
  facet normal -0.904786 0.425866 0
    outer loop
      vertex 0.105335 13.0522 0
      vertex 0.185539 13.2226 20
      vertex 0.185539 13.2226 0
    endloop
  endfacet
  facet normal -0.904786 0.425866 0
    outer loop
      vertex 0.185539 13.2226 20
      vertex 0.105335 13.0522 0
      vertex 0.105335 13.0522 20
    endloop
  endfacet
  facet normal -0.248651 -0.968593 0
    outer loop
      vertex 1.03647 2.07341 0
      vertex 1.21893 2.02657 20
      vertex 1.03647 2.07341 20
    endloop
  endfacet
  facet normal -0.248651 -0.968593 -0
    outer loop
      vertex 1.21893 2.02657 20
      vertex 1.03647 2.07341 0
      vertex 1.21893 2.02657 0
    endloop
  endfacet
  facet normal -0.844331 -0.535822 0
    outer loop
      vertex 0.286474 2.61832 0
      vertex 0.185539 2.77737 20
      vertex 0.185539 2.77737 0
    endloop
  endfacet
  facet normal -0.844331 -0.535822 0
    outer loop
      vertex 0.185539 2.77737 20
      vertex 0.286474 2.61832 0
      vertex 0.286474 2.61832 20
    endloop
  endfacet
  facet normal -0.684552 -0.728964 0
    outer loop
      vertex 0.406547 2.47318 0
      vertex 0.543863 2.34423 20
      vertex 0.406547 2.47318 20
    endloop
  endfacet
  facet normal -0.684552 -0.728964 -0
    outer loop
      vertex 0.543863 2.34423 20
      vertex 0.406547 2.47318 0
      vertex 0.543863 2.34423 0
    endloop
  endfacet
  facet normal -0.587708 0.809073 0
    outer loop
      vertex 0.696259 13.7665 0
      vertex 0.543863 13.6558 20
      vertex 0.696259 13.7665 20
    endloop
  endfacet
  facet normal -0.587708 0.809073 0
    outer loop
      vertex 0.543863 13.6558 20
      vertex 0.696259 13.7665 0
      vertex 0.543863 13.6558 0
    endloop
  endfacet
  facet normal -0.844407 0.535702 0
    outer loop
      vertex 0.185539 13.2226 0
      vertex 0.286474 13.3817 20
      vertex 0.286474 13.3817 0
    endloop
  endfacet
  facet normal -0.844407 0.535702 0
    outer loop
      vertex 0.286474 13.3817 20
      vertex 0.185539 13.2226 0
      vertex 0.185539 13.2226 20
    endloop
  endfacet
  facet normal -0.77042 0.637537 0
    outer loop
      vertex 0.286474 13.3817 0
      vertex 0.406547 13.5268 20
      vertex 0.406547 13.5268 0
    endloop
  endfacet
  facet normal -0.77042 0.637537 0
    outer loop
      vertex 0.406547 13.5268 20
      vertex 0.286474 13.3817 0
      vertex 0.286474 13.3817 20
    endloop
  endfacet
  facet normal -0.982281 0.187416 0
    outer loop
      vertex 0.0118275 12.688 0
      vertex 0.0471249 12.873 20
      vertex 0.0471249 12.873 0
    endloop
  endfacet
  facet normal -0.982281 0.187416 0
    outer loop
      vertex 0.0471249 12.873 20
      vertex 0.0118275 12.688 0
      vertex 0.0118275 12.688 20
    endloop
  endfacet
  facet normal -0.951055 -0.309021 0
    outer loop
      vertex 0.105335 2.94781 0
      vertex 0.0471249 3.12696 20
      vertex 0.0471249 3.12696 0
    endloop
  endfacet
  facet normal -0.951055 -0.309021 0
    outer loop
      vertex 0.0471249 3.12696 20
      vertex 0.105335 2.94781 0
      vertex 0.105335 2.94781 20
    endloop
  endfacet
  facet normal -0.125289 0.99212 0
    outer loop
      vertex 1.40581 13.997 0
      vertex 1.21893 13.9734 20
      vertex 1.40581 13.997 20
    endloop
  endfacet
  facet normal -0.125289 0.99212 0
    outer loop
      vertex 1.21893 13.9734 20
      vertex 1.40581 13.997 0
      vertex 1.21893 13.9734 0
    endloop
  endfacet
  facet normal -0.248452 0.968644 0
    outer loop
      vertex 1.21893 13.9734 0
      vertex 1.03647 13.9266 20
      vertex 1.21893 13.9734 20
    endloop
  endfacet
  facet normal -0.248452 0.968644 0
    outer loop
      vertex 1.03647 13.9266 20
      vertex 1.21893 13.9734 0
      vertex 1.03647 13.9266 0
    endloop
  endfacet
  facet normal -0.481553 0.876417 0
    outer loop
      vertex 0.861331 13.8572 0
      vertex 0.696259 13.7665 20
      vertex 0.861331 13.8572 20
    endloop
  endfacet
  facet normal -0.481553 0.876417 0
    outer loop
      vertex 0.696259 13.7665 20
      vertex 0.861331 13.8572 0
      vertex 0.696259 13.7665 0
    endloop
  endfacet
  facet normal -0.998027 0.0627881 0
    outer loop
      vertex 0 12.5 0
      vertex 0.0118275 12.688 20
      vertex 0.0118275 12.688 0
    endloop
  endfacet
  facet normal -0.998027 0.0627881 0
    outer loop
      vertex 0.0118275 12.688 20
      vertex 0 12.5 0
      vertex 0 12.5 20
    endloop
  endfacet
  facet normal -0.368389 0.929672 0
    outer loop
      vertex 1.03647 13.9266 0
      vertex 0.861331 13.8572 20
      vertex 1.03647 13.9266 20
    endloop
  endfacet
  facet normal -0.368389 0.929672 0
    outer loop
      vertex 0.861331 13.8572 20
      vertex 1.03647 13.9266 0
      vertex 0.861331 13.8572 0
    endloop
  endfacet
  facet normal 0 0 1
    outer loop
      vertex 3.29906 13.997 20
      vertex 0 12.5 20
      vertex 1.71176 9 20
    endloop
  endfacet
  facet normal 0 0 1
    outer loop
      vertex 0 12.5 20
      vertex 3.29906 13.997 20
      vertex 1.40581 13.997 20
    endloop
  endfacet
  facet normal -0 0 1
    outer loop
      vertex 1.71176 9 20
      vertex 6 7 20
      vertex 6 9 20
    endloop
  endfacet
  facet normal 0 0 1
    outer loop
      vertex 6 7 20
      vertex 1.71176 9 20
      vertex 1.71176 7 20
    endloop
  endfacet
  facet normal 0 0 1
    outer loop
      vertex 6 15 20
      vertex 8 15 20
      vertex 7.99211 15.1253 20
    endloop
  endfacet
  facet normal 0 0 1
    outer loop
      vertex 8 15 20
      vertex 6 9 20
      vertex 8 1 20
    endloop
  endfacet
  facet normal 0 0 1
    outer loop
      vertex 6 15 20
      vertex 7.99211 15.1253 20
      vertex 7.96858 15.2487 20
    endloop
  endfacet
  facet normal -0 0 1
    outer loop
      vertex 6 7 20
      vertex 8 1 20
      vertex 6 9 20
    endloop
  endfacet
  facet normal 0 0 1
    outer loop
      vertex 6 15 20
      vertex 7.96858 15.2487 20
      vertex 7.92978 15.3681 20
    endloop
  endfacet
  facet normal 0 0 1
    outer loop
      vertex 6 1 20
      vertex 8 1 20
      vertex 6 7 20
    endloop
  endfacet
  facet normal 0 0 1
    outer loop
      vertex 6 15 20
      vertex 7.92978 15.3681 20
      vertex 7.87631 15.4818 20
    endloop
  endfacet
  facet normal 0 0 1
    outer loop
      vertex 8 1 20
      vertex 6 1 20
      vertex 7.99211 0.874666 20
    endloop
  endfacet
  facet normal 0 0 1
    outer loop
      vertex 6 15 20
      vertex 7.87631 15.4818 20
      vertex 7.80902 15.5878 20
    endloop
  endfacet
  facet normal 0 0 1
    outer loop
      vertex 7.99211 0.874666 20
      vertex 6 1 20
      vertex 7.96858 0.751309 20
    endloop
  endfacet
  facet normal 0 0 1
    outer loop
      vertex 6 15 20
      vertex 7.80902 15.5878 20
      vertex 7.72897 15.6845 20
    endloop
  endfacet
  facet normal 0 0 1
    outer loop
      vertex 7.96858 0.751309 20
      vertex 6 1 20
      vertex 7.92978 0.631875 20
    endloop
  endfacet
  facet normal 0 0 1
    outer loop
      vertex 6 15 20
      vertex 7.72897 15.6845 20
      vertex 7.63742 15.7705 20
    endloop
  endfacet
  facet normal 0 0 1
    outer loop
      vertex 7.92978 0.631875 20
      vertex 6 1 20
      vertex 7.87631 0.518246 20
    endloop
  endfacet
  facet normal 0 0 1
    outer loop
      vertex 6 15 20
      vertex 7.63742 15.7705 20
      vertex 7.53583 15.8443 20
    endloop
  endfacet
  facet normal 0 0 1
    outer loop
      vertex 7.87631 0.518246 20
      vertex 6 1 20
      vertex 7.80902 0.412214 20
    endloop
  endfacet
  facet normal 0 0 1
    outer loop
      vertex 6 15 20
      vertex 7.53583 15.8443 20
      vertex 7.42578 15.9048 20
    endloop
  endfacet
  facet normal 0 0 1
    outer loop
      vertex 7.80902 0.412214 20
      vertex 6 1 20
      vertex 7.72897 0.315453 20
    endloop
  endfacet
  facet normal 0 0 1
    outer loop
      vertex 6 15 20
      vertex 7.42578 15.9048 20
      vertex 7.30902 15.9511 20
    endloop
  endfacet
  facet normal 0 0 1
    outer loop
      vertex 7.72897 0.315453 20
      vertex 6 1 20
      vertex 7.63742 0.229486 20
    endloop
  endfacet
  facet normal 0 0 1
    outer loop
      vertex 6 15 20
      vertex 7.30902 15.9511 20
      vertex 7.18738 15.9823 20
    endloop
  endfacet
  facet normal 0 0 1
    outer loop
      vertex 7.63742 0.229486 20
      vertex 6 1 20
      vertex 7.53583 0.155672 20
    endloop
  endfacet
  facet normal 0 0 1
    outer loop
      vertex 6 15 20
      vertex 7.18738 15.9823 20
      vertex 7.06279 15.998 20
    endloop
  endfacet
  facet normal 0 0 1
    outer loop
      vertex 7.53583 0.155672 20
      vertex 6 1 20
      vertex 7.42578 0.0951729 20
    endloop
  endfacet
  facet normal 0 0 1
    outer loop
      vertex 6 15 20
      vertex 7.06279 15.998 20
      vertex 6.93721 15.998 20
    endloop
  endfacet
  facet normal 0 0 1
    outer loop
      vertex 7.42578 0.0951729 20
      vertex 6 1 20
      vertex 7.30902 0.0489426 20
    endloop
  endfacet
  facet normal 0 0 1
    outer loop
      vertex 6 15 20
      vertex 6.93721 15.998 20
      vertex 6.81262 15.9823 20
    endloop
  endfacet
  facet normal 0 0 1
    outer loop
      vertex 7.30902 0.0489426 20
      vertex 6 1 20
      vertex 7.18738 0.0177126 20
    endloop
  endfacet
  facet normal 0 0 1
    outer loop
      vertex 6 15 20
      vertex 6.81262 15.9823 20
      vertex 6.69098 15.9511 20
    endloop
  endfacet
  facet normal 0 0 1
    outer loop
      vertex 7.18738 0.0177126 20
      vertex 6 1 20
      vertex 7.06279 0.00197315 20
    endloop
  endfacet
  facet normal 0 0 1
    outer loop
      vertex 6 15 20
      vertex 6.69098 15.9511 20
      vertex 6.57422 15.9048 20
    endloop
  endfacet
  facet normal 0 0 1
    outer loop
      vertex 7.06279 0.00197315 20
      vertex 6 1 20
      vertex 6.93721 0.00197315 20
    endloop
  endfacet
  facet normal 0 0 1
    outer loop
      vertex 6 15 20
      vertex 6.57422 15.9048 20
      vertex 6.46417 15.8443 20
    endloop
  endfacet
  facet normal 0 0 1
    outer loop
      vertex 6.93721 0.00197315 20
      vertex 6 1 20
      vertex 6.81262 0.0177126 20
    endloop
  endfacet
  facet normal 0 0 1
    outer loop
      vertex 6 15 20
      vertex 6.46417 15.8443 20
      vertex 6.36258 15.7705 20
    endloop
  endfacet
  facet normal 0 0 1
    outer loop
      vertex 6.81262 0.0177126 20
      vertex 6 1 20
      vertex 6.69098 0.0489426 20
    endloop
  endfacet
  facet normal 0 0 1
    outer loop
      vertex 6 15 20
      vertex 6.36258 15.7705 20
      vertex 6.27103 15.6845 20
    endloop
  endfacet
  facet normal 0 0 1
    outer loop
      vertex 6.69098 0.0489426 20
      vertex 6 1 20
      vertex 6.57422 0.0951729 20
    endloop
  endfacet
  facet normal 0 0 1
    outer loop
      vertex 6 15 20
      vertex 6.27103 15.6845 20
      vertex 6.19098 15.5878 20
    endloop
  endfacet
  facet normal 0 0 1
    outer loop
      vertex 6.57422 0.0951729 20
      vertex 6 1 20
      vertex 6.46417 0.155672 20
    endloop
  endfacet
  facet normal 0 0 1
    outer loop
      vertex 6 15 20
      vertex 6.19098 15.5878 20
      vertex 6.12369 15.4818 20
    endloop
  endfacet
  facet normal 0 0 1
    outer loop
      vertex 6.46417 0.155672 20
      vertex 6 1 20
      vertex 6.36258 0.229486 20
    endloop
  endfacet
  facet normal 0 0 1
    outer loop
      vertex 6 15 20
      vertex 6.12369 15.4818 20
      vertex 6.07022 15.3681 20
    endloop
  endfacet
  facet normal 0 0 1
    outer loop
      vertex 6.36258 0.229486 20
      vertex 6 1 20
      vertex 6.27103 0.315453 20
    endloop
  endfacet
  facet normal 0 0 1
    outer loop
      vertex 6 15 20
      vertex 6.07022 15.3681 20
      vertex 6.03142 15.2487 20
    endloop
  endfacet
  facet normal 0 0 1
    outer loop
      vertex 6.27103 0.315453 20
      vertex 6 1 20
      vertex 6.19098 0.412214 20
    endloop
  endfacet
  facet normal 0 0 1
    outer loop
      vertex 6 15 20
      vertex 6.03142 15.2487 20
      vertex 6.00788 15.1253 20
    endloop
  endfacet
  facet normal 0 0 1
    outer loop
      vertex 6.19098 0.412214 20
      vertex 6 1 20
      vertex 6.12369 0.518246 20
    endloop
  endfacet
  facet normal 0 0 1
    outer loop
      vertex 8 15 20
      vertex 6 15 20
      vertex 6 9 20
    endloop
  endfacet
  facet normal 0 0 1
    outer loop
      vertex 6.12369 0.518246 20
      vertex 6 1 20
      vertex 6.07022 0.631875 20
    endloop
  endfacet
  facet normal 0 0 1
    outer loop
      vertex 6.07022 0.631875 20
      vertex 6 1 20
      vertex 6.03142 0.751309 20
    endloop
  endfacet
  facet normal 0 0 1
    outer loop
      vertex 6.03142 0.751309 20
      vertex 6 1 20
      vertex 6.00788 0.874666 20
    endloop
  endfacet
  facet normal -0 0 1
    outer loop
      vertex 0 3.5 20
      vertex 3.29906 2.00296 20
      vertex 1.71176 7 20
    endloop
  endfacet
  facet normal 0 0 1
    outer loop
      vertex 1.71176 9 20
      vertex 0 12.5 20
      vertex 1.71176 7 20
    endloop
  endfacet
  facet normal 0 0 1
    outer loop
      vertex 0 12.5 20
      vertex 1.40581 13.997 20
      vertex 1.21893 13.9734 20
    endloop
  endfacet
  facet normal 0 0 1
    outer loop
      vertex 0 3.5 20
      vertex 1.71176 7 20
      vertex 0 12.5 20
    endloop
  endfacet
  facet normal 0 0 1
    outer loop
      vertex 0 12.5 20
      vertex 1.21893 13.9734 20
      vertex 1.03647 13.9266 20
    endloop
  endfacet
  facet normal 0 0 1
    outer loop
      vertex 3.29906 2.00296 20
      vertex 0 3.5 20
      vertex 1.40581 2.00296 20
    endloop
  endfacet
  facet normal 0 0 1
    outer loop
      vertex 0 12.5 20
      vertex 1.03647 13.9266 20
      vertex 0.861331 13.8572 20
    endloop
  endfacet
  facet normal 0 0 1
    outer loop
      vertex 1.40581 2.00296 20
      vertex 0 3.5 20
      vertex 1.21893 2.02657 20
    endloop
  endfacet
  facet normal 0 0 1
    outer loop
      vertex 0 12.5 20
      vertex 0.861331 13.8572 20
      vertex 0.696259 13.7665 20
    endloop
  endfacet
  facet normal 0 0 1
    outer loop
      vertex 1.21893 2.02657 20
      vertex 0 3.5 20
      vertex 1.03647 2.07341 20
    endloop
  endfacet
  facet normal 0 0 1
    outer loop
      vertex 0 12.5 20
      vertex 0.696259 13.7665 20
      vertex 0.543863 13.6558 20
    endloop
  endfacet
  facet normal 0 0 1
    outer loop
      vertex 1.03647 2.07341 20
      vertex 0 3.5 20
      vertex 0.861331 2.14276 20
    endloop
  endfacet
  facet normal 0 0 1
    outer loop
      vertex 0 12.5 20
      vertex 0.543863 13.6558 20
      vertex 0.406547 13.5268 20
    endloop
  endfacet
  facet normal 0 0 1
    outer loop
      vertex 0.861331 2.14276 20
      vertex 0 3.5 20
      vertex 0.696259 2.23351 20
    endloop
  endfacet
  facet normal 0 0 1
    outer loop
      vertex 0 12.5 20
      vertex 0.406547 13.5268 20
      vertex 0.286474 13.3817 20
    endloop
  endfacet
  facet normal 0 0 1
    outer loop
      vertex 0.696259 2.23351 20
      vertex 0 3.5 20
      vertex 0.543863 2.34423 20
    endloop
  endfacet
  facet normal 0 0 1
    outer loop
      vertex 0 12.5 20
      vertex 0.286474 13.3817 20
      vertex 0.185539 13.2226 20
    endloop
  endfacet
  facet normal 0 0 1
    outer loop
      vertex 0.543863 2.34423 20
      vertex 0 3.5 20
      vertex 0.406547 2.47318 20
    endloop
  endfacet
  facet normal 0 0 1
    outer loop
      vertex 0 12.5 20
      vertex 0.185539 13.2226 20
      vertex 0.105335 13.0522 20
    endloop
  endfacet
  facet normal 0 0 1
    outer loop
      vertex 0.406547 2.47318 20
      vertex 0 3.5 20
      vertex 0.286474 2.61832 20
    endloop
  endfacet
  facet normal 0 0 1
    outer loop
      vertex 0 12.5 20
      vertex 0.105335 13.0522 20
      vertex 0.0471249 12.873 20
    endloop
  endfacet
  facet normal 0 0 1
    outer loop
      vertex 0.286474 2.61832 20
      vertex 0 3.5 20
      vertex 0.185539 2.77737 20
    endloop
  endfacet
  facet normal 0 0 1
    outer loop
      vertex 0 12.5 20
      vertex 0.0471249 12.873 20
      vertex 0.0118275 12.688 20
    endloop
  endfacet
  facet normal 0 0 1
    outer loop
      vertex 0.185539 2.77737 20
      vertex 0 3.5 20
      vertex 0.105335 2.94781 20
    endloop
  endfacet
  facet normal 0 0 1
    outer loop
      vertex 0.105335 2.94781 20
      vertex 0 3.5 20
      vertex 0.0471249 3.12696 20
    endloop
  endfacet
  facet normal 0 0 1
    outer loop
      vertex 0.0471249 3.12696 20
      vertex 0 3.5 20
      vertex 0.0118275 3.312 20
    endloop
  endfacet
  facet normal 0 0 -1
    outer loop
      vertex 3.29906 2.00296 0
      vertex 0 3.5 0
      vertex 1.71176 7 0
    endloop
  endfacet
  facet normal 0 0 -1
    outer loop
      vertex 0 3.5 0
      vertex 3.29906 2.00296 0
      vertex 1.40581 2.00296 0
    endloop
  endfacet
  facet normal 0 0 -1
    outer loop
      vertex 1.71176 7 0
      vertex 6 9 0
      vertex 6 7 0
    endloop
  endfacet
  facet normal -0 0 -1
    outer loop
      vertex 6 9 0
      vertex 1.71176 7 0
      vertex 1.71176 9 0
    endloop
  endfacet
  facet normal 0 0 -1
    outer loop
      vertex 6 1 0
      vertex 8 1 0
      vertex 7.99211 0.874666 0
    endloop
  endfacet
  facet normal 0 0 -1
    outer loop
      vertex 8 1 0
      vertex 6 7 0
      vertex 8 15 0
    endloop
  endfacet
  facet normal 0 0 -1
    outer loop
      vertex 6 1 0
      vertex 7.99211 0.874666 0
      vertex 7.96858 0.751309 0
    endloop
  endfacet
  facet normal 0 0 -1
    outer loop
      vertex 6 9 0
      vertex 8 15 0
      vertex 6 7 0
    endloop
  endfacet
  facet normal 0 0 -1
    outer loop
      vertex 6 1 0
      vertex 7.96858 0.751309 0
      vertex 7.92978 0.631875 0
    endloop
  endfacet
  facet normal 0 0 -1
    outer loop
      vertex 6 15 0
      vertex 8 15 0
      vertex 6 9 0
    endloop
  endfacet
  facet normal 0 0 -1
    outer loop
      vertex 6 1 0
      vertex 7.92978 0.631875 0
      vertex 7.87631 0.518246 0
    endloop
  endfacet
  facet normal 0 0 -1
    outer loop
      vertex 8 15 0
      vertex 6 15 0
      vertex 7.99211 15.1253 0
    endloop
  endfacet
  facet normal 0 0 -1
    outer loop
      vertex 6 1 0
      vertex 7.87631 0.518246 0
      vertex 7.80902 0.412214 0
    endloop
  endfacet
  facet normal -0 0 -1
    outer loop
      vertex 7.99211 15.1253 0
      vertex 6 15 0
      vertex 7.96858 15.2487 0
    endloop
  endfacet
  facet normal 0 0 -1
    outer loop
      vertex 6 1 0
      vertex 7.80902 0.412214 0
      vertex 7.72897 0.315453 0
    endloop
  endfacet
  facet normal -0 0 -1
    outer loop
      vertex 7.96858 15.2487 0
      vertex 6 15 0
      vertex 7.92978 15.3681 0
    endloop
  endfacet
  facet normal 0 0 -1
    outer loop
      vertex 6 1 0
      vertex 7.72897 0.315453 0
      vertex 7.63742 0.229486 0
    endloop
  endfacet
  facet normal -0 0 -1
    outer loop
      vertex 7.92978 15.3681 0
      vertex 6 15 0
      vertex 7.87631 15.4818 0
    endloop
  endfacet
  facet normal 0 0 -1
    outer loop
      vertex 6 1 0
      vertex 7.63742 0.229486 0
      vertex 7.53583 0.155672 0
    endloop
  endfacet
  facet normal -0 0 -1
    outer loop
      vertex 7.87631 15.4818 0
      vertex 6 15 0
      vertex 7.80902 15.5878 0
    endloop
  endfacet
  facet normal 0 0 -1
    outer loop
      vertex 6 1 0
      vertex 7.53583 0.155672 0
      vertex 7.42578 0.0951729 0
    endloop
  endfacet
  facet normal -0 0 -1
    outer loop
      vertex 7.80902 15.5878 0
      vertex 6 15 0
      vertex 7.72897 15.6845 0
    endloop
  endfacet
  facet normal 0 0 -1
    outer loop
      vertex 6 1 0
      vertex 7.42578 0.0951729 0
      vertex 7.30902 0.0489426 0
    endloop
  endfacet
  facet normal -0 0 -1
    outer loop
      vertex 7.72897 15.6845 0
      vertex 6 15 0
      vertex 7.63742 15.7705 0
    endloop
  endfacet
  facet normal 0 0 -1
    outer loop
      vertex 6 1 0
      vertex 7.30902 0.0489426 0
      vertex 7.18738 0.0177126 0
    endloop
  endfacet
  facet normal -0 0 -1
    outer loop
      vertex 7.63742 15.7705 0
      vertex 6 15 0
      vertex 7.53583 15.8443 0
    endloop
  endfacet
  facet normal 0 0 -1
    outer loop
      vertex 6 1 0
      vertex 7.18738 0.0177126 0
      vertex 7.06279 0.00197315 0
    endloop
  endfacet
  facet normal -0 0 -1
    outer loop
      vertex 7.53583 15.8443 0
      vertex 6 15 0
      vertex 7.42578 15.9048 0
    endloop
  endfacet
  facet normal 0 0 -1
    outer loop
      vertex 6 1 0
      vertex 7.06279 0.00197315 0
      vertex 6.93721 0.00197315 0
    endloop
  endfacet
  facet normal -0 0 -1
    outer loop
      vertex 7.42578 15.9048 0
      vertex 6 15 0
      vertex 7.30902 15.9511 0
    endloop
  endfacet
  facet normal 0 0 -1
    outer loop
      vertex 6 1 0
      vertex 6.93721 0.00197315 0
      vertex 6.81262 0.0177126 0
    endloop
  endfacet
  facet normal -0 0 -1
    outer loop
      vertex 7.30902 15.9511 0
      vertex 6 15 0
      vertex 7.18738 15.9823 0
    endloop
  endfacet
  facet normal 0 0 -1
    outer loop
      vertex 6 1 0
      vertex 6.81262 0.0177126 0
      vertex 6.69098 0.0489426 0
    endloop
  endfacet
  facet normal -0 0 -1
    outer loop
      vertex 7.18738 15.9823 0
      vertex 6 15 0
      vertex 7.06279 15.998 0
    endloop
  endfacet
  facet normal 0 0 -1
    outer loop
      vertex 6 1 0
      vertex 6.69098 0.0489426 0
      vertex 6.57422 0.0951729 0
    endloop
  endfacet
  facet normal -0 0 -1
    outer loop
      vertex 7.06279 15.998 0
      vertex 6 15 0
      vertex 6.93721 15.998 0
    endloop
  endfacet
  facet normal 0 0 -1
    outer loop
      vertex 6 1 0
      vertex 6.57422 0.0951729 0
      vertex 6.46417 0.155672 0
    endloop
  endfacet
  facet normal 0 0 -1
    outer loop
      vertex 6.93721 15.998 0
      vertex 6 15 0
      vertex 6.81262 15.9823 0
    endloop
  endfacet
  facet normal 0 0 -1
    outer loop
      vertex 6 1 0
      vertex 6.46417 0.155672 0
      vertex 6.36258 0.229486 0
    endloop
  endfacet
  facet normal 0 0 -1
    outer loop
      vertex 6.81262 15.9823 0
      vertex 6 15 0
      vertex 6.69098 15.9511 0
    endloop
  endfacet
  facet normal 0 0 -1
    outer loop
      vertex 6 1 0
      vertex 6.36258 0.229486 0
      vertex 6.27103 0.315453 0
    endloop
  endfacet
  facet normal 0 0 -1
    outer loop
      vertex 6.69098 15.9511 0
      vertex 6 15 0
      vertex 6.57422 15.9048 0
    endloop
  endfacet
  facet normal 0 0 -1
    outer loop
      vertex 6 1 0
      vertex 6.27103 0.315453 0
      vertex 6.19098 0.412214 0
    endloop
  endfacet
  facet normal 0 0 -1
    outer loop
      vertex 6.57422 15.9048 0
      vertex 6 15 0
      vertex 6.46417 15.8443 0
    endloop
  endfacet
  facet normal 0 0 -1
    outer loop
      vertex 6 1 0
      vertex 6.19098 0.412214 0
      vertex 6.12369 0.518246 0
    endloop
  endfacet
  facet normal 0 0 -1
    outer loop
      vertex 6.46417 15.8443 0
      vertex 6 15 0
      vertex 6.36258 15.7705 0
    endloop
  endfacet
  facet normal 0 0 -1
    outer loop
      vertex 6 1 0
      vertex 6.12369 0.518246 0
      vertex 6.07022 0.631875 0
    endloop
  endfacet
  facet normal 0 0 -1
    outer loop
      vertex 6.36258 15.7705 0
      vertex 6 15 0
      vertex 6.27103 15.6845 0
    endloop
  endfacet
  facet normal 0 0 -1
    outer loop
      vertex 6 1 0
      vertex 6.07022 0.631875 0
      vertex 6.03142 0.751309 0
    endloop
  endfacet
  facet normal 0 0 -1
    outer loop
      vertex 6.27103 15.6845 0
      vertex 6 15 0
      vertex 6.19098 15.5878 0
    endloop
  endfacet
  facet normal 0 0 -1
    outer loop
      vertex 6 1 0
      vertex 6.03142 0.751309 0
      vertex 6.00788 0.874666 0
    endloop
  endfacet
  facet normal 0 0 -1
    outer loop
      vertex 6.19098 15.5878 0
      vertex 6 15 0
      vertex 6.12369 15.4818 0
    endloop
  endfacet
  facet normal 0 0 -1
    outer loop
      vertex 8 1 0
      vertex 6 1 0
      vertex 6 7 0
    endloop
  endfacet
  facet normal 0 0 -1
    outer loop
      vertex 6.12369 15.4818 0
      vertex 6 15 0
      vertex 6.07022 15.3681 0
    endloop
  endfacet
  facet normal 0 0 -1
    outer loop
      vertex 6.07022 15.3681 0
      vertex 6 15 0
      vertex 6.03142 15.2487 0
    endloop
  endfacet
  facet normal 0 0 -1
    outer loop
      vertex 6.03142 15.2487 0
      vertex 6 15 0
      vertex 6.00788 15.1253 0
    endloop
  endfacet
  facet normal 0 0 -1
    outer loop
      vertex 0 12.5 0
      vertex 3.29906 13.997 0
      vertex 1.71176 9 0
    endloop
  endfacet
  facet normal -0 0 -1
    outer loop
      vertex 1.71176 7 0
      vertex 0 3.5 0
      vertex 1.71176 9 0
    endloop
  endfacet
  facet normal 0 0 -1
    outer loop
      vertex 0 3.5 0
      vertex 1.40581 2.00296 0
      vertex 1.21893 2.02657 0
    endloop
  endfacet
  facet normal 0 0 -1
    outer loop
      vertex 0 12.5 0
      vertex 1.71176 9 0
      vertex 0 3.5 0
    endloop
  endfacet
  facet normal 0 0 -1
    outer loop
      vertex 0 3.5 0
      vertex 1.21893 2.02657 0
      vertex 1.03647 2.07341 0
    endloop
  endfacet
  facet normal -0 0 -1
    outer loop
      vertex 3.29906 13.997 0
      vertex 0 12.5 0
      vertex 1.40581 13.997 0
    endloop
  endfacet
  facet normal 0 0 -1
    outer loop
      vertex 0 3.5 0
      vertex 1.03647 2.07341 0
      vertex 0.861331 2.14276 0
    endloop
  endfacet
  facet normal 0 0 -1
    outer loop
      vertex 1.40581 13.997 0
      vertex 0 12.5 0
      vertex 1.21893 13.9734 0
    endloop
  endfacet
  facet normal 0 0 -1
    outer loop
      vertex 0 3.5 0
      vertex 0.861331 2.14276 0
      vertex 0.696259 2.23351 0
    endloop
  endfacet
  facet normal 0 0 -1
    outer loop
      vertex 1.21893 13.9734 0
      vertex 0 12.5 0
      vertex 1.03647 13.9266 0
    endloop
  endfacet
  facet normal 0 0 -1
    outer loop
      vertex 0 3.5 0
      vertex 0.696259 2.23351 0
      vertex 0.543863 2.34423 0
    endloop
  endfacet
  facet normal 0 0 -1
    outer loop
      vertex 1.03647 13.9266 0
      vertex 0 12.5 0
      vertex 0.861331 13.8572 0
    endloop
  endfacet
  facet normal 0 0 -1
    outer loop
      vertex 0 3.5 0
      vertex 0.543863 2.34423 0
      vertex 0.406547 2.47318 0
    endloop
  endfacet
  facet normal 0 0 -1
    outer loop
      vertex 0.861331 13.8572 0
      vertex 0 12.5 0
      vertex 0.696259 13.7665 0
    endloop
  endfacet
  facet normal 0 0 -1
    outer loop
      vertex 0 3.5 0
      vertex 0.406547 2.47318 0
      vertex 0.286474 2.61832 0
    endloop
  endfacet
  facet normal 0 0 -1
    outer loop
      vertex 0.696259 13.7665 0
      vertex 0 12.5 0
      vertex 0.543863 13.6558 0
    endloop
  endfacet
  facet normal 0 0 -1
    outer loop
      vertex 0 3.5 0
      vertex 0.286474 2.61832 0
      vertex 0.185539 2.77737 0
    endloop
  endfacet
  facet normal 0 0 -1
    outer loop
      vertex 0.543863 13.6558 0
      vertex 0 12.5 0
      vertex 0.406547 13.5268 0
    endloop
  endfacet
  facet normal 0 0 -1
    outer loop
      vertex 0 3.5 0
      vertex 0.185539 2.77737 0
      vertex 0.105335 2.94781 0
    endloop
  endfacet
  facet normal 0 0 -1
    outer loop
      vertex 0.406547 13.5268 0
      vertex 0 12.5 0
      vertex 0.286474 13.3817 0
    endloop
  endfacet
  facet normal 0 0 -1
    outer loop
      vertex 0 3.5 0
      vertex 0.105335 2.94781 0
      vertex 0.0471249 3.12696 0
    endloop
  endfacet
  facet normal 0 0 -1
    outer loop
      vertex 0.286474 13.3817 0
      vertex 0 12.5 0
      vertex 0.185539 13.2226 0
    endloop
  endfacet
  facet normal 0 0 -1
    outer loop
      vertex 0 3.5 0
      vertex 0.0471249 3.12696 0
      vertex 0.0118275 3.312 0
    endloop
  endfacet
  facet normal 0 0 -1
    outer loop
      vertex 0.185539 13.2226 0
      vertex 0 12.5 0
      vertex 0.105335 13.0522 0
    endloop
  endfacet
  facet normal 0 0 -1
    outer loop
      vertex 0.105335 13.0522 0
      vertex 0 12.5 0
      vertex 0.0471249 12.873 0
    endloop
  endfacet
  facet normal 0 0 -1
    outer loop
      vertex 0.0471249 12.873 0
      vertex 0 12.5 0
      vertex 0.0118275 12.688 0
    endloop
  endfacet
  facet normal 0.770504 -0.637435 0
    outer loop
      vertex 7.72897 0.315453 20
      vertex 7.80902 0.412214 0
      vertex 7.80902 0.412214 20
    endloop
  endfacet
  facet normal 0.770504 -0.637435 0
    outer loop
      vertex 7.80902 0.412214 0
      vertex 7.72897 0.315453 20
      vertex 7.72897 0.315453 0
    endloop
  endfacet
  facet normal -0.368616 0.929582 0
    outer loop
      vertex 6.69098 15.9511 0
      vertex 6.57422 15.9048 20
      vertex 6.69098 15.9511 20
    endloop
  endfacet
  facet normal -0.368616 0.929582 0
    outer loop
      vertex 6.57422 15.9048 20
      vertex 6.69098 15.9511 0
      vertex 6.57422 15.9048 0
    endloop
  endfacet
  facet normal -0.684529 -0.728985 0
    outer loop
      vertex 6.27103 0.315453 0
      vertex 6.36258 0.229486 20
      vertex 6.27103 0.315453 20
    endloop
  endfacet
  facet normal -0.684529 -0.728985 -0
    outer loop
      vertex 6.36258 0.229486 20
      vertex 6.27103 0.315453 0
      vertex 6.36258 0.229486 0
    endloop
  endfacet
  facet normal 0.587809 -0.809 0
    outer loop
      vertex 7.53583 0.155672 0
      vertex 7.63742 0.229486 20
      vertex 7.53583 0.155672 20
    endloop
  endfacet
  facet normal 0.587809 -0.809 0
    outer loop
      vertex 7.63742 0.229486 20
      vertex 7.53583 0.155672 0
      vertex 7.63742 0.229486 0
    endloop
  endfacet
  facet normal -1 0 0
    outer loop
      vertex 6 1 0
      vertex 6 7 20
      vertex 6 7 0
    endloop
  endfacet
  facet normal -1 -0 0
    outer loop
      vertex 6 7 20
      vertex 6 1 0
      vertex 6 1 20
    endloop
  endfacet
  facet normal -1 0 0
    outer loop
      vertex 6 9 0
      vertex 6 15 20
      vertex 6 15 0
    endloop
  endfacet
  facet normal -1 -0 0
    outer loop
      vertex 6 15 20
      vertex 6 9 0
      vertex 6 9 20
    endloop
  endfacet
  facet normal -0.684669 0.728854 0
    outer loop
      vertex 6.36258 15.7705 0
      vertex 6.27103 15.6845 20
      vertex 6.36258 15.7705 20
    endloop
  endfacet
  facet normal -0.684669 0.728854 0
    outer loop
      vertex 6.27103 15.6845 20
      vertex 6.36258 15.7705 0
      vertex 6.27103 15.6845 0
    endloop
  endfacet
  facet normal -0.368137 -0.929772 0
    outer loop
      vertex 6.57422 0.0951729 0
      vertex 6.69098 0.0489426 20
      vertex 6.57422 0.0951729 20
    endloop
  endfacet
  facet normal -0.368137 -0.929772 -0
    outer loop
      vertex 6.69098 0.0489426 20
      vertex 6.57422 0.0951729 0
      vertex 6.69098 0.0489426 0
    endloop
  endfacet
  facet normal 0.368616 0.929582 -0
    outer loop
      vertex 7.42578 15.9048 0
      vertex 7.30902 15.9511 20
      vertex 7.42578 15.9048 20
    endloop
  endfacet
  facet normal 0.368616 0.929582 0
    outer loop
      vertex 7.30902 15.9511 20
      vertex 7.42578 15.9048 0
      vertex 7.30902 15.9511 0
    endloop
  endfacet
  facet normal 0.125334 -0.992115 0
    outer loop
      vertex 7.06279 0.00197315 0
      vertex 7.18738 0.0177126 20
      vertex 7.06279 0.00197315 20
    endloop
  endfacet
  facet normal 0.125334 -0.992115 0
    outer loop
      vertex 7.18738 0.0177126 20
      vertex 7.06279 0.00197315 0
      vertex 7.18738 0.0177126 0
    endloop
  endfacet
  facet normal 0.770307 0.637674 0
    outer loop
      vertex 7.80902 15.5878 20
      vertex 7.72897 15.6845 0
      vertex 7.72897 15.6845 20
    endloop
  endfacet
  facet normal 0.770307 0.637674 0
    outer loop
      vertex 7.72897 15.6845 0
      vertex 7.80902 15.5878 20
      vertex 7.80902 15.5878 0
    endloop
  endfacet
  facet normal -0.481745 -0.876311 0
    outer loop
      vertex 6.46417 0.155672 0
      vertex 6.57422 0.0951729 20
      vertex 6.46417 0.155672 20
    endloop
  endfacet
  facet normal -0.481745 -0.876311 -0
    outer loop
      vertex 6.57422 0.0951729 20
      vertex 6.46417 0.155672 0
      vertex 6.57422 0.0951729 0
    endloop
  endfacet
  facet normal -0.904826 -0.425781 0
    outer loop
      vertex 6.12369 0.518246 0
      vertex 6.07022 0.631875 20
      vertex 6.07022 0.631875 0
    endloop
  endfacet
  facet normal -0.904826 -0.425781 0
    outer loop
      vertex 6.07022 0.631875 20
      vertex 6.12369 0.518246 0
      vertex 6.12369 0.518246 20
    endloop
  endfacet
  facet normal 0.684669 0.728854 -0
    outer loop
      vertex 7.72897 15.6845 0
      vertex 7.63742 15.7705 20
      vertex 7.72897 15.6845 20
    endloop
  endfacet
  facet normal 0.684669 0.728854 0
    outer loop
      vertex 7.63742 15.7705 20
      vertex 7.72897 15.6845 0
      vertex 7.63742 15.7705 0
    endloop
  endfacet
  facet normal 0 -1 0
    outer loop
      vertex 6.93721 0.00197315 0
      vertex 7.06279 0.00197315 20
      vertex 6.93721 0.00197315 20
    endloop
  endfacet
  facet normal 0 -1 -0
    outer loop
      vertex 7.06279 0.00197315 20
      vertex 6.93721 0.00197315 0
      vertex 7.06279 0.00197315 0
    endloop
  endfacet
  facet normal 0.684529 -0.728985 0
    outer loop
      vertex 7.63742 0.229486 0
      vertex 7.72897 0.315453 20
      vertex 7.63742 0.229486 20
    endloop
  endfacet
  facet normal 0.684529 -0.728985 0
    outer loop
      vertex 7.72897 0.315453 20
      vertex 7.63742 0.229486 0
      vertex 7.72897 0.315453 0
    endloop
  endfacet
  facet normal 0.998024 -0.0628274 0
    outer loop
      vertex 7.99211 0.874666 20
      vertex 8 1 0
      vertex 8 1 20
    endloop
  endfacet
  facet normal 0.998024 -0.0628274 0
    outer loop
      vertex 8 1 0
      vertex 7.99211 0.874666 20
      vertex 7.99211 0.874666 0
    endloop
  endfacet
  facet normal -0.125025 0.992154 0
    outer loop
      vertex 6.93721 15.998 0
      vertex 6.81262 15.9823 20
      vertex 6.93721 15.998 20
    endloop
  endfacet
  facet normal -0.125025 0.992154 0
    outer loop
      vertex 6.81262 15.9823 20
      vertex 6.93721 15.998 0
      vertex 6.81262 15.9823 0
    endloop
  endfacet
  facet normal -0.587736 0.809053 0
    outer loop
      vertex 6.46417 15.8443 0
      vertex 6.36258 15.7705 20
      vertex 6.46417 15.8443 20
    endloop
  endfacet
  facet normal -0.587736 0.809053 0
    outer loop
      vertex 6.36258 15.7705 20
      vertex 6.46417 15.8443 0
      vertex 6.36258 15.7705 0
    endloop
  endfacet
  facet normal -0.844255 0.535942 0
    outer loop
      vertex 6.12369 15.4818 0
      vertex 6.19098 15.5878 20
      vertex 6.19098 15.5878 0
    endloop
  endfacet
  facet normal -0.844255 0.535942 0
    outer loop
      vertex 6.19098 15.5878 20
      vertex 6.12369 15.4818 0
      vertex 6.12369 15.4818 20
    endloop
  endfacet
  facet normal -0.248676 -0.968587 0
    outer loop
      vertex 6.69098 0.0489426 0
      vertex 6.81262 0.0177126 20
      vertex 6.69098 0.0489426 20
    endloop
  endfacet
  facet normal -0.248676 -0.968587 -0
    outer loop
      vertex 6.81262 0.0177126 20
      vertex 6.69098 0.0489426 0
      vertex 6.81262 0.0177126 0
    endloop
  endfacet
  facet normal -0.904929 0.425563 0
    outer loop
      vertex 6.07022 15.3681 0
      vertex 6.12369 15.4818 20
      vertex 6.12369 15.4818 0
    endloop
  endfacet
  facet normal -0.904929 0.425563 0
    outer loop
      vertex 6.12369 15.4818 20
      vertex 6.07022 15.3681 0
      vertex 6.07022 15.3681 20
    endloop
  endfacet
  facet normal -0.982287 0.187383 0
    outer loop
      vertex 6.00788 15.1253 0
      vertex 6.03142 15.2487 20
      vertex 6.03142 15.2487 0
    endloop
  endfacet
  facet normal -0.982287 0.187383 0
    outer loop
      vertex 6.03142 15.2487 20
      vertex 6.00788 15.1253 0
      vertex 6.00788 15.1253 20
    endloop
  endfacet
  facet normal 0.368137 -0.929772 0
    outer loop
      vertex 7.30902 0.0489426 0
      vertex 7.42578 0.0951729 20
      vertex 7.30902 0.0489426 20
    endloop
  endfacet
  facet normal 0.368137 -0.929772 0
    outer loop
      vertex 7.42578 0.0951729 20
      vertex 7.30902 0.0489426 0
      vertex 7.42578 0.0951729 0
    endloop
  endfacet
  facet normal 0.904826 -0.425781 0
    outer loop
      vertex 7.87631 0.518246 20
      vertex 7.92978 0.631875 0
      vertex 7.92978 0.631875 20
    endloop
  endfacet
  facet normal 0.904826 -0.425781 0
    outer loop
      vertex 7.92978 0.631875 0
      vertex 7.87631 0.518246 20
      vertex 7.87631 0.518246 0
    endloop
  endfacet
  facet normal 0 1 -0
    outer loop
      vertex 7.06279 15.998 0
      vertex 6.93721 15.998 20
      vertex 7.06279 15.998 20
    endloop
  endfacet
  facet normal 0 1 0
    outer loop
      vertex 6.93721 15.998 20
      vertex 7.06279 15.998 0
      vertex 6.93721 15.998 0
    endloop
  endfacet
  facet normal -0.770307 0.637674 0
    outer loop
      vertex 6.19098 15.5878 0
      vertex 6.27103 15.6845 20
      vertex 6.27103 15.6845 0
    endloop
  endfacet
  facet normal -0.770307 0.637674 0
    outer loop
      vertex 6.27103 15.6845 20
      vertex 6.19098 15.5878 0
      vertex 6.19098 15.5878 20
    endloop
  endfacet
  facet normal -0.587809 -0.809 0
    outer loop
      vertex 6.36258 0.229486 0
      vertex 6.46417 0.155672 20
      vertex 6.36258 0.229486 20
    endloop
  endfacet
  facet normal -0.587809 -0.809 -0
    outer loop
      vertex 6.46417 0.155672 20
      vertex 6.36258 0.229486 0
      vertex 6.46417 0.155672 0
    endloop
  endfacet
  facet normal -0.951072 -0.30897 0
    outer loop
      vertex 6.07022 0.631875 0
      vertex 6.03142 0.751309 20
      vertex 6.03142 0.751309 0
    endloop
  endfacet
  facet normal -0.951072 -0.30897 0
    outer loop
      vertex 6.03142 0.751309 20
      vertex 6.07022 0.631875 0
      vertex 6.07022 0.631875 20
    endloop
  endfacet
  facet normal -0.998029 -0.0627481 0
    outer loop
      vertex 6.00788 0.874666 0
      vertex 6 1 20
      vertex 6 1 0
    endloop
  endfacet
  facet normal -0.998029 -0.0627481 0
    outer loop
      vertex 6 1 20
      vertex 6.00788 0.874666 0
      vertex 6.00788 0.874666 20
    endloop
  endfacet
  facet normal 0.481745 -0.876311 0
    outer loop
      vertex 7.42578 0.0951729 0
      vertex 7.53583 0.155672 20
      vertex 7.42578 0.0951729 20
    endloop
  endfacet
  facet normal 0.481745 -0.876311 0
    outer loop
      vertex 7.53583 0.155672 20
      vertex 7.42578 0.0951729 0
      vertex 7.53583 0.155672 0
    endloop
  endfacet
  facet normal 0.98229 -0.187369 0
    outer loop
      vertex 7.96858 0.751309 20
      vertex 7.99211 0.874666 0
      vertex 7.99211 0.874666 20
    endloop
  endfacet
  facet normal 0.98229 -0.187369 0
    outer loop
      vertex 7.99211 0.874666 0
      vertex 7.96858 0.751309 20
      vertex 7.96858 0.751309 0
    endloop
  endfacet
  facet normal 0.982302 0.187306 0
    outer loop
      vertex 7.99211 15.1253 20
      vertex 7.96858 15.2487 0
      vertex 7.96858 15.2487 20
    endloop
  endfacet
  facet normal 0.982302 0.187306 0
    outer loop
      vertex 7.96858 15.2487 0
      vertex 7.99211 15.1253 20
      vertex 7.99211 15.1253 0
    endloop
  endfacet
  facet normal 0.998023 0.0628444 0
    outer loop
      vertex 8 15 20
      vertex 7.99211 15.1253 0
      vertex 7.99211 15.1253 20
    endloop
  endfacet
  facet normal 0.998023 0.0628444 0
    outer loop
      vertex 7.99211 15.1253 0
      vertex 8 15 20
      vertex 8 15 0
    endloop
  endfacet
  facet normal -0.248452 0.968644 0
    outer loop
      vertex 6.81262 15.9823 0
      vertex 6.69098 15.9511 20
      vertex 6.81262 15.9823 20
    endloop
  endfacet
  facet normal -0.248452 0.968644 0
    outer loop
      vertex 6.69098 15.9511 20
      vertex 6.81262 15.9823 0
      vertex 6.69098 15.9511 0
    endloop
  endfacet
  facet normal -0.481751 0.876308 0
    outer loop
      vertex 6.57422 15.9048 0
      vertex 6.46417 15.8443 20
      vertex 6.57422 15.9048 20
    endloop
  endfacet
  facet normal -0.481751 0.876308 0
    outer loop
      vertex 6.46417 15.8443 20
      vertex 6.57422 15.9048 0
      vertex 6.46417 15.8443 0
    endloop
  endfacet
  facet normal 0.248676 -0.968587 0
    outer loop
      vertex 7.18738 0.0177126 0
      vertex 7.30902 0.0489426 20
      vertex 7.18738 0.0177126 20
    endloop
  endfacet
  facet normal 0.248676 -0.968587 0
    outer loop
      vertex 7.30902 0.0489426 20
      vertex 7.18738 0.0177126 0
      vertex 7.30902 0.0489426 0
    endloop
  endfacet
  facet normal -0.844328 -0.535827 0
    outer loop
      vertex 6.19098 0.412214 0
      vertex 6.12369 0.518246 20
      vertex 6.12369 0.518246 0
    endloop
  endfacet
  facet normal -0.844328 -0.535827 0
    outer loop
      vertex 6.12369 0.518246 20
      vertex 6.19098 0.412214 0
      vertex 6.19098 0.412214 20
    endloop
  endfacet
  facet normal -0.982275 -0.187446 0
    outer loop
      vertex 6.03142 0.751309 0
      vertex 6.00788 0.874666 20
      vertex 6.00788 0.874666 0
    endloop
  endfacet
  facet normal -0.982275 -0.187446 0
    outer loop
      vertex 6.00788 0.874666 20
      vertex 6.03142 0.751309 0
      vertex 6.03142 0.751309 20
    endloop
  endfacet
  facet normal 0.248452 0.968644 -0
    outer loop
      vertex 7.30902 15.9511 0
      vertex 7.18738 15.9823 20
      vertex 7.30902 15.9511 20
    endloop
  endfacet
  facet normal 0.248452 0.968644 0
    outer loop
      vertex 7.18738 15.9823 20
      vertex 7.30902 15.9511 0
      vertex 7.18738 15.9823 0
    endloop
  endfacet
  facet normal 0.844255 0.535942 0
    outer loop
      vertex 7.87631 15.4818 20
      vertex 7.80902 15.5878 0
      vertex 7.80902 15.5878 20
    endloop
  endfacet
  facet normal 0.844255 0.535942 0
    outer loop
      vertex 7.80902 15.5878 0
      vertex 7.87631 15.4818 20
      vertex 7.87631 15.4818 0
    endloop
  endfacet
  facet normal 0.951072 -0.30897 0
    outer loop
      vertex 7.92978 0.631875 20
      vertex 7.96858 0.751309 0
      vertex 7.96858 0.751309 20
    endloop
  endfacet
  facet normal 0.951072 -0.30897 0
    outer loop
      vertex 7.96858 0.751309 0
      vertex 7.92978 0.631875 20
      vertex 7.92978 0.631875 0
    endloop
  endfacet
  facet normal 0.481751 0.876308 -0
    outer loop
      vertex 7.53583 15.8443 0
      vertex 7.42578 15.9048 20
      vertex 7.53583 15.8443 20
    endloop
  endfacet
  facet normal 0.481751 0.876308 0
    outer loop
      vertex 7.42578 15.9048 20
      vertex 7.53583 15.8443 0
      vertex 7.42578 15.9048 0
    endloop
  endfacet
  facet normal 0.587736 0.809053 -0
    outer loop
      vertex 7.63742 15.7705 0
      vertex 7.53583 15.8443 20
      vertex 7.63742 15.7705 20
    endloop
  endfacet
  facet normal 0.587736 0.809053 0
    outer loop
      vertex 7.53583 15.8443 20
      vertex 7.63742 15.7705 0
      vertex 7.53583 15.8443 0
    endloop
  endfacet
  facet normal 0.844328 -0.535827 0
    outer loop
      vertex 7.80902 0.412214 20
      vertex 7.87631 0.518246 0
      vertex 7.87631 0.518246 20
    endloop
  endfacet
  facet normal 0.844328 -0.535827 0
    outer loop
      vertex 7.87631 0.518246 0
      vertex 7.80902 0.412214 20
      vertex 7.80902 0.412214 0
    endloop
  endfacet
  facet normal 0.904929 0.425563 0
    outer loop
      vertex 7.92978 15.3681 20
      vertex 7.87631 15.4818 0
      vertex 7.87631 15.4818 20
    endloop
  endfacet
  facet normal 0.904929 0.425563 0
    outer loop
      vertex 7.87631 15.4818 0
      vertex 7.92978 15.3681 20
      vertex 7.92978 15.3681 0
    endloop
  endfacet
  facet normal 0.951046 0.30905 0
    outer loop
      vertex 7.96858 15.2487 20
      vertex 7.92978 15.3681 0
      vertex 7.92978 15.3681 20
    endloop
  endfacet
  facet normal 0.951046 0.30905 0
    outer loop
      vertex 7.92978 15.3681 0
      vertex 7.96858 15.2487 20
      vertex 7.96858 15.2487 0
    endloop
  endfacet
  facet normal -0.125334 -0.992115 0
    outer loop
      vertex 6.81262 0.0177126 0
      vertex 6.93721 0.00197315 20
      vertex 6.81262 0.0177126 20
    endloop
  endfacet
  facet normal -0.125334 -0.992115 -0
    outer loop
      vertex 6.93721 0.00197315 20
      vertex 6.81262 0.0177126 0
      vertex 6.93721 0.00197315 0
    endloop
  endfacet
  facet normal -0.770504 -0.637435 0
    outer loop
      vertex 6.27103 0.315453 0
      vertex 6.19098 0.412214 20
      vertex 6.19098 0.412214 0
    endloop
  endfacet
  facet normal -0.770504 -0.637435 0
    outer loop
      vertex 6.19098 0.412214 20
      vertex 6.27103 0.315453 0
      vertex 6.27103 0.315453 20
    endloop
  endfacet
  facet normal -0.998028 0.0627651 0
    outer loop
      vertex 6 15 0
      vertex 6.00788 15.1253 20
      vertex 6.00788 15.1253 0
    endloop
  endfacet
  facet normal -0.998028 0.0627651 0
    outer loop
      vertex 6.00788 15.1253 20
      vertex 6 15 0
      vertex 6 15 20
    endloop
  endfacet
  facet normal 0.125025 0.992154 -0
    outer loop
      vertex 7.18738 15.9823 0
      vertex 7.06279 15.998 20
      vertex 7.18738 15.9823 20
    endloop
  endfacet
  facet normal 0.125025 0.992154 0
    outer loop
      vertex 7.06279 15.998 20
      vertex 7.18738 15.9823 0
      vertex 7.06279 15.998 0
    endloop
  endfacet
  facet normal -0.951046 0.30905 0
    outer loop
      vertex 6.03142 15.2487 0
      vertex 6.07022 15.3681 20
      vertex 6.07022 15.3681 0
    endloop
  endfacet
  facet normal -0.951046 0.30905 0
    outer loop
      vertex 6.07022 15.3681 20
      vertex 6.03142 15.2487 0
      vertex 6.03142 15.2487 20
    endloop
  endfacet
  facet normal 0.953073 0.302742 0
    outer loop
      vertex 3.29906 2.00296 20
      vertex 1.71176 7 0
      vertex 1.71176 7 20
    endloop
  endfacet
  facet normal 0.953073 0.302742 0
    outer loop
      vertex 1.71176 7 0
      vertex 3.29906 2.00296 20
      vertex 3.29906 2.00296 0
    endloop
  endfacet
  facet normal 0 -1 0
    outer loop
      vertex 1.71176 7 0
      vertex 6 7 20
      vertex 1.71176 7 20
    endloop
  endfacet
  facet normal 0 -1 -0
    outer loop
      vertex 6 7 20
      vertex 1.71176 7 0
      vertex 6 7 0
    endloop
  endfacet
  facet normal 0.953072 -0.302744 0
    outer loop
      vertex 1.71176 9 20
      vertex 3.29906 13.997 0
      vertex 3.29906 13.997 20
    endloop
  endfacet
  facet normal 0.953072 -0.302744 0
    outer loop
      vertex 3.29906 13.997 0
      vertex 1.71176 9 20
      vertex 1.71176 9 0
    endloop
  endfacet
  facet normal 0 1 -0
    outer loop
      vertex 6 9 0
      vertex 1.71176 9 20
      vertex 6 9 20
    endloop
  endfacet
  facet normal 0 1 0
    outer loop
      vertex 1.71176 9 20
      vertex 6 9 0
      vertex 1.71176 9 0
    endloop
  endfacet
endsolid OpenSCAD_Model
