solid OpenSCAD_Model
  facet normal -1 0 0
    outer loop
      vertex 0 -23 5
      vertex 0 23 20
      vertex 0 23 5
    endloop
  endfacet
  facet normal -1 -0 0
    outer loop
      vertex 0 23 20
      vertex 0 -23 5
      vertex 0 -23 20
    endloop
  endfacet
  facet normal 0 0 1
    outer loop
      vertex 31 23 20
      vertex 27 20 20
      vertex 31 15 20
    endloop
  endfacet
  facet normal 0 0 1
    outer loop
      vertex 31 23 20
      vertex 19 20 20
      vertex 27 20 20
    endloop
  endfacet
  facet normal 0 0 1
    outer loop
      vertex 8 15 20
      vertex 3 4 20
      vertex 8 2.5 20
    endloop
  endfacet
  facet normal 0 0 1
    outer loop
      vertex 3 4 20
      vertex 0 23 20
      vertex 3 -4 20
    endloop
  endfacet
  facet normal 0 0 1
    outer loop
      vertex 8 15 20
      vertex 0 23 20
      vertex 3 4 20
    endloop
  endfacet
  facet normal 0 0 1
    outer loop
      vertex 19 20 20
      vertex 0 23 20
      vertex 8 15 20
    endloop
  endfacet
  facet normal -0 0 1
    outer loop
      vertex 0 23 20
      vertex 19 20 20
      vertex 31 23 20
    endloop
  endfacet
  facet normal 0 0 1
    outer loop
      vertex 31 15 20
      vertex 27 20 20
      vertex 25.5 15 20
    endloop
  endfacet
  facet normal 0 0 1
    outer loop
      vertex 20.5 15 20
      vertex 19 20 20
      vertex 8 15 20
    endloop
  endfacet
  facet normal -0 0 1
    outer loop
      vertex 8 -2.5 20
      vertex 8 -23 20
      vertex 8 2.5 20
    endloop
  endfacet
  facet normal -0 0 1
    outer loop
      vertex 3 -4 20
      vertex 8 -23 20
      vertex 8 -2.5 20
    endloop
  endfacet
  facet normal 0 0 1
    outer loop
      vertex 3 -4 20
      vertex 0 -23 20
      vertex 8 -23 20
    endloop
  endfacet
  facet normal 0 0 1
    outer loop
      vertex 0 -23 20
      vertex 3 -4 20
      vertex 0 23 20
    endloop
  endfacet
  facet normal 1 -0 0
    outer loop
      vertex 8 2.5 20
      vertex 8 15 0
      vertex 8 15 20
    endloop
  endfacet
  facet normal 1 0 0
    outer loop
      vertex 8 15 0
      vertex 8 2.5 20
      vertex 8 2.5 0
    endloop
  endfacet
  facet normal 1 -0 0
    outer loop
      vertex 8 -23 20
      vertex 8 2.5 0
      vertex 8 2.5 20
    endloop
  endfacet
  facet normal 1 0 0
    outer loop
      vertex 8 2.5 0
      vertex 8 -23 20
      vertex 8 -23 0
    endloop
  endfacet
  facet normal 0 0 -1
    outer loop
      vertex 8 15 0
      vertex -7.88455 13.6161 0
      vertex -7.85 14 0
    endloop
  endfacet
  facet normal 0 0 -1
    outer loop
      vertex 3 4 0
      vertex -7.98709 13.2445 0
      vertex -7.88455 13.6161 0
    endloop
  endfacet
  facet normal 0 0 -1
    outer loop
      vertex 3 4 0
      vertex -8.15434 12.8973 0
      vertex -7.98709 13.2445 0
    endloop
  endfacet
  facet normal 0 0 -1
    outer loop
      vertex 3 4 0
      vertex -8.3809 12.5854 0
      vertex -8.15434 12.8973 0
    endloop
  endfacet
  facet normal 0 0 -1
    outer loop
      vertex 3 4 0
      vertex -8.6595 12.3191 0
      vertex -8.3809 12.5854 0
    endloop
  endfacet
  facet normal 0 0 -1
    outer loop
      vertex -2.7868 -0.786796 0
      vertex -8.98118 12.1067 0
      vertex -8.6595 12.3191 0
    endloop
  endfacet
  facet normal 0 0 -1
    outer loop
      vertex -2.7868 -0.786796 0
      vertex -9.33561 11.9552 0
      vertex -8.98118 12.1067 0
    endloop
  endfacet
  facet normal 0 0 -1
    outer loop
      vertex -2.7868 -0.786796 0
      vertex -9.7114 11.8695 0
      vertex -9.33561 11.9552 0
    endloop
  endfacet
  facet normal 0 0 -1
    outer loop
      vertex -2.7868 -0.786796 0
      vertex -10.0965 11.8522 0
      vertex -9.7114 11.8695 0
    endloop
  endfacet
  facet normal 0 0 -1
    outer loop
      vertex -2.7868 -0.786796 0
      vertex -10.4784 11.9039 0
      vertex -10.0965 11.8522 0
    endloop
  endfacet
  facet normal 0 0 -1
    outer loop
      vertex -15 11.4264 0
      vertex -10.4784 11.9039 0
      vertex -2.7868 -0.786796 0
    endloop
  endfacet
  facet normal -0 0 -1
    outer loop
      vertex -10.4784 11.9039 0
      vertex -15 11.4264 0
      vertex -10.845 12.023 0
    endloop
  endfacet
  facet normal -0 0 -1
    outer loop
      vertex -10.845 12.023 0
      vertex -15 11.4264 0
      vertex -11.1844 12.2057 0
    endloop
  endfacet
  facet normal -0 0 -1
    outer loop
      vertex -11.1844 12.2057 0
      vertex -15 11.4264 0
      vertex -11.4858 12.446 0
    endloop
  endfacet
  facet normal -0 0 -1
    outer loop
      vertex -12.1413 13.8073 0
      vertex -15 11.4264 0
      vertex -12.1413 14.1927 0
    endloop
  endfacet
  facet normal -0 0 -1
    outer loop
      vertex -12.0725 13.428 0
      vertex -15 11.4264 0
      vertex -12.1413 13.8073 0
    endloop
  endfacet
  facet normal -0 0 -1
    outer loop
      vertex -11.9371 13.0671 0
      vertex -15 11.4264 0
      vertex -12.0725 13.428 0
    endloop
  endfacet
  facet normal -0 0 -1
    outer loop
      vertex -11.7394 12.7363 0
      vertex -15 11.4264 0
      vertex -11.9371 13.0671 0
    endloop
  endfacet
  facet normal -0 0 -1
    outer loop
      vertex -11.4858 12.446 0
      vertex -15 11.4264 0
      vertex -11.7394 12.7363 0
    endloop
  endfacet
  facet normal 0 0 -1
    outer loop
      vertex 8 -23 0
      vertex 8 -2.5 0
      vertex 8 2.5 0
    endloop
  endfacet
  facet normal 0 0 -1
    outer loop
      vertex 8 -23 0
      vertex 3 -4 0
      vertex 8 -2.5 0
    endloop
  endfacet
  facet normal 0 0 -1
    outer loop
      vertex -7.85 -15 0
      vertex 3 -4 0
      vertex 8 -23 0
    endloop
  endfacet
  facet normal 0 0 -1
    outer loop
      vertex 3 -4 0
      vertex -7.85 -15 0
      vertex -7.88455 -14.6161 0
    endloop
  endfacet
  facet normal 0 0 -1
    outer loop
      vertex 8 -23 0
      vertex -7.88455 -15.3839 0
      vertex -7.85 -15 0
    endloop
  endfacet
  facet normal 0 0 -1
    outer loop
      vertex 8 -23 0
      vertex -7.98709 -15.7555 0
      vertex -7.88455 -15.3839 0
    endloop
  endfacet
  facet normal 0 0 -1
    outer loop
      vertex 8 -23 0
      vertex -8.15434 -16.1027 0
      vertex -7.98709 -15.7555 0
    endloop
  endfacet
  facet normal 0 0 -1
    outer loop
      vertex 8 -23 0
      vertex -8.3809 -16.4146 0
      vertex -8.15434 -16.1027 0
    endloop
  endfacet
  facet normal 0 0 -1
    outer loop
      vertex 8 -23 0
      vertex -8.6595 -16.6809 0
      vertex -8.3809 -16.4146 0
    endloop
  endfacet
  facet normal 0 0 -1
    outer loop
      vertex 8 -23 0
      vertex -8.98118 -16.8933 0
      vertex -8.6595 -16.6809 0
    endloop
  endfacet
  facet normal 0 0 -1
    outer loop
      vertex -15 -23 0
      vertex -8.98118 -16.8933 0
      vertex 8 -23 0
    endloop
  endfacet
  facet normal 0 0 -1
    outer loop
      vertex -8.98118 -16.8933 0
      vertex -15 -23 0
      vertex -9.33561 -17.0448 0
    endloop
  endfacet
  facet normal 0 0 -1
    outer loop
      vertex -9.33561 -17.0448 0
      vertex -15 -23 0
      vertex -9.7114 -17.1305 0
    endloop
  endfacet
  facet normal 0 0 -1
    outer loop
      vertex -9.7114 -17.1305 0
      vertex -15 -23 0
      vertex -10.0965 -17.1478 0
    endloop
  endfacet
  facet normal 0 0 -1
    outer loop
      vertex -12.0725 -15.572 0
      vertex -15 -13 0
      vertex -12.1413 -15.1927 0
    endloop
  endfacet
  facet normal 0 0 -1
    outer loop
      vertex -11.9371 -15.9328 0
      vertex -15 -13 0
      vertex -12.0725 -15.572 0
    endloop
  endfacet
  facet normal 0 0 -1
    outer loop
      vertex -15 -13 0
      vertex -11.9371 -15.9328 0
      vertex -15 -23 0
    endloop
  endfacet
  facet normal -0 0 -1
    outer loop
      vertex -11.7394 -16.2637 0
      vertex -15 -23 0
      vertex -11.9371 -15.9328 0
    endloop
  endfacet
  facet normal -0 0 -1
    outer loop
      vertex -11.4858 -16.554 0
      vertex -15 -23 0
      vertex -11.7394 -16.2637 0
    endloop
  endfacet
  facet normal -0 0 -1
    outer loop
      vertex -11.1844 -16.7943 0
      vertex -15 -23 0
      vertex -11.4858 -16.554 0
    endloop
  endfacet
  facet normal -0 0 -1
    outer loop
      vertex -10.845 -16.977 0
      vertex -15 -23 0
      vertex -11.1844 -16.7943 0
    endloop
  endfacet
  facet normal -0 0 -1
    outer loop
      vertex -10.4784 -17.0961 0
      vertex -15 -23 0
      vertex -10.845 -16.977 0
    endloop
  endfacet
  facet normal -0 0 -1
    outer loop
      vertex -10.0965 -17.1478 0
      vertex -15 -23 0
      vertex -10.4784 -17.0961 0
    endloop
  endfacet
  facet normal 0 0 -1
    outer loop
      vertex 8 2.5 0
      vertex 3 4 0
      vertex 8 15 0
    endloop
  endfacet
  facet normal 0 0 -1
    outer loop
      vertex 20.5 15 0
      vertex 8 15 0
      vertex 19 20 0
    endloop
  endfacet
  facet normal 0 0 -1
    outer loop
      vertex 31 15 0
      vertex 27 20 0
      vertex 31 23 0
    endloop
  endfacet
  facet normal 0 -0 -1
    outer loop
      vertex 27 20 0
      vertex 31 15 0
      vertex 25.5 15 0
    endloop
  endfacet
  facet normal 0 0 -1
    outer loop
      vertex 19 20 0
      vertex 31 23 0
      vertex 27 20 0
    endloop
  endfacet
  facet normal 0 0 -1
    outer loop
      vertex -2.7868 -0.786796 0
      vertex 3 4 0
      vertex 3 -4 0
    endloop
  endfacet
  facet normal 0 0 -1
    outer loop
      vertex -8.6595 12.3191 0
      vertex 3 4 0
      vertex -2.7868 -0.786796 0
    endloop
  endfacet
  facet normal 0 0 -1
    outer loop
      vertex -7.88455 13.6161 0
      vertex 8 15 0
      vertex 3 4 0
    endloop
  endfacet
  facet normal 0 0 -1
    outer loop
      vertex -7.88455 14.3839 0
      vertex 8 15 0
      vertex -7.85 14 0
    endloop
  endfacet
  facet normal 0 0 -1
    outer loop
      vertex -7.98709 14.7555 0
      vertex 8 15 0
      vertex -7.88455 14.3839 0
    endloop
  endfacet
  facet normal 0 0 -1
    outer loop
      vertex -8.15434 15.1027 0
      vertex 8 15 0
      vertex -7.98709 14.7555 0
    endloop
  endfacet
  facet normal 0 0 -1
    outer loop
      vertex -8.3809 15.4146 0
      vertex 8 15 0
      vertex -8.15434 15.1027 0
    endloop
  endfacet
  facet normal 0 0 -1
    outer loop
      vertex -8.6595 15.6809 0
      vertex 8 15 0
      vertex -8.3809 15.4146 0
    endloop
  endfacet
  facet normal 0 0 -1
    outer loop
      vertex -15 23 0
      vertex 8 15 0
      vertex -8.6595 15.6809 0
    endloop
  endfacet
  facet normal 0 0 -1
    outer loop
      vertex 8 15 0
      vertex -15 23 0
      vertex 19 20 0
    endloop
  endfacet
  facet normal 0 0 -1
    outer loop
      vertex -15 23 0
      vertex -8.6595 15.6809 0
      vertex -8.98118 15.8933 0
    endloop
  endfacet
  facet normal 0 0 -1
    outer loop
      vertex -15 23 0
      vertex -8.98118 15.8933 0
      vertex -9.33561 16.0448 0
    endloop
  endfacet
  facet normal 0 0 -1
    outer loop
      vertex -15 23 0
      vertex -9.33561 16.0448 0
      vertex -9.7114 16.1305 0
    endloop
  endfacet
  facet normal 0 0 -1
    outer loop
      vertex -15 23 0
      vertex -9.7114 16.1305 0
      vertex -10.0965 16.1478 0
    endloop
  endfacet
  facet normal 0 0 -1
    outer loop
      vertex -15 23 0
      vertex -10.0965 16.1478 0
      vertex -10.4784 16.0961 0
    endloop
  endfacet
  facet normal 0 0 -1
    outer loop
      vertex -15 11.4264 0
      vertex -12.0725 14.572 0
      vertex -12.1413 14.1927 0
    endloop
  endfacet
  facet normal 0 0 -1
    outer loop
      vertex -15 11.4264 0
      vertex -11.9371 14.9328 0
      vertex -12.0725 14.572 0
    endloop
  endfacet
  facet normal 0 0 -1
    outer loop
      vertex -15 23 0
      vertex -11.9371 14.9328 0
      vertex -15 11.4264 0
    endloop
  endfacet
  facet normal 0 0 -1
    outer loop
      vertex 19 20 0
      vertex -15 23 0
      vertex 31 23 0
    endloop
  endfacet
  facet normal 0 0 -1
    outer loop
      vertex -10.845 15.977 0
      vertex -15 23 0
      vertex -10.4784 16.0961 0
    endloop
  endfacet
  facet normal 0 0 -1
    outer loop
      vertex -11.1844 15.7943 0
      vertex -15 23 0
      vertex -10.845 15.977 0
    endloop
  endfacet
  facet normal 0 0 -1
    outer loop
      vertex -11.4858 15.554 0
      vertex -15 23 0
      vertex -11.1844 15.7943 0
    endloop
  endfacet
  facet normal 0 0 -1
    outer loop
      vertex -11.7394 15.2637 0
      vertex -15 23 0
      vertex -11.4858 15.554 0
    endloop
  endfacet
  facet normal 0 0 -1
    outer loop
      vertex -11.9371 14.9328 0
      vertex -15 23 0
      vertex -11.7394 15.2637 0
    endloop
  endfacet
  facet normal 0 0 -1
    outer loop
      vertex -7.98709 -14.2445 0
      vertex 3 -4 0
      vertex -7.88455 -14.6161 0
    endloop
  endfacet
  facet normal 0 0 -1
    outer loop
      vertex -8.15434 -13.8973 0
      vertex 3 -4 0
      vertex -7.98709 -14.2445 0
    endloop
  endfacet
  facet normal 0 0 -1
    outer loop
      vertex -8.3809 -13.5854 0
      vertex 3 -4 0
      vertex -8.15434 -13.8973 0
    endloop
  endfacet
  facet normal -0 0 -1
    outer loop
      vertex 3 -4 0
      vertex -8.3809 -13.5854 0
      vertex -2.7868 -0.786796 0
    endloop
  endfacet
  facet normal 0 0 -1
    outer loop
      vertex -8.6595 -13.3191 0
      vertex -2.7868 -0.786796 0
      vertex -8.3809 -13.5854 0
    endloop
  endfacet
  facet normal 0 0 -1
    outer loop
      vertex -8.98118 -13.1067 0
      vertex -2.7868 -0.786796 0
      vertex -8.6595 -13.3191 0
    endloop
  endfacet
  facet normal 0 0 -1
    outer loop
      vertex -9.33561 -12.9552 0
      vertex -2.7868 -0.786796 0
      vertex -8.98118 -13.1067 0
    endloop
  endfacet
  facet normal 0 0 -1
    outer loop
      vertex -9.7114 -12.8695 0
      vertex -2.7868 -0.786796 0
      vertex -9.33561 -12.9552 0
    endloop
  endfacet
  facet normal 0 0 -1
    outer loop
      vertex -10.0965 -12.8522 0
      vertex -2.7868 -0.786796 0
      vertex -9.7114 -12.8695 0
    endloop
  endfacet
  facet normal 0 0 -1
    outer loop
      vertex -10.4784 -12.9039 0
      vertex -2.7868 -0.786796 0
      vertex -10.0965 -12.8522 0
    endloop
  endfacet
  facet normal 0 0 -1
    outer loop
      vertex -15 -13 0
      vertex -10.4784 -12.9039 0
      vertex -10.845 -13.023 0
    endloop
  endfacet
  facet normal 0 0 -1
    outer loop
      vertex -15 -13 0
      vertex -10.845 -13.023 0
      vertex -11.1844 -13.2057 0
    endloop
  endfacet
  facet normal 0 0 -1
    outer loop
      vertex -15 -13 0
      vertex -11.1844 -13.2057 0
      vertex -11.4858 -13.446 0
    endloop
  endfacet
  facet normal 0 0 -1
    outer loop
      vertex -15 -13 0
      vertex -11.4858 -13.446 0
      vertex -11.7394 -13.7363 0
    endloop
  endfacet
  facet normal 0 0 -1
    outer loop
      vertex -12.1413 -15.1927 0
      vertex -15 -13 0
      vertex -12.1413 -14.8073 0
    endloop
  endfacet
  facet normal -0 0 -1
    outer loop
      vertex -10.4784 -12.9039 0
      vertex -15 -13 0
      vertex -2.7868 -0.786796 0
    endloop
  endfacet
  facet normal 0 0 -1
    outer loop
      vertex -11.9371 -14.0671 0
      vertex -15 -13 0
      vertex -11.7394 -13.7363 0
    endloop
  endfacet
  facet normal 0 0 -1
    outer loop
      vertex -12.0725 -14.428 0
      vertex -15 -13 0
      vertex -11.9371 -14.0671 0
    endloop
  endfacet
  facet normal 0 0 -1
    outer loop
      vertex -12.1413 -14.8073 0
      vertex -15 -13 0
      vertex -12.0725 -14.428 0
    endloop
  endfacet
  facet normal 0 -1 0
    outer loop
      vertex -15 -23 5
      vertex -15 -23 0
      vertex 0 -23 5
    endloop
  endfacet
  facet normal 0 -1 0
    outer loop
      vertex 0 -23 5
      vertex 8 -23 20
      vertex 0 -23 20
    endloop
  endfacet
  facet normal 0 -1 0
    outer loop
      vertex 0 -23 5
      vertex 8 -23 0
      vertex 8 -23 20
    endloop
  endfacet
  facet normal 0 -1 0
    outer loop
      vertex 8 -23 0
      vertex 0 -23 5
      vertex -15 -23 0
    endloop
  endfacet
  facet normal 0 1 0
    outer loop
      vertex 31 23 20
      vertex 0 23 5
      vertex 0 23 20
    endloop
  endfacet
  facet normal 0 1 -0
    outer loop
      vertex 31 23 0
      vertex 0 23 5
      vertex 31 23 20
    endloop
  endfacet
  facet normal 0 1 0
    outer loop
      vertex -15 23 0
      vertex 0 23 5
      vertex 31 23 0
    endloop
  endfacet
  facet normal 0 1 0
    outer loop
      vertex 0 23 5
      vertex -15 23 0
      vertex -15 23 5
    endloop
  endfacet
  facet normal -1 0 0
    outer loop
      vertex -15 -23 0
      vertex -15 -13 5
      vertex -15 -13 0
    endloop
  endfacet
  facet normal -1 -0 0
    outer loop
      vertex -15 -13 5
      vertex -15 -23 0
      vertex -15 -23 5
    endloop
  endfacet
  facet normal -1 0 0
    outer loop
      vertex -15 11.4264 0
      vertex -15 23 5
      vertex -15 23 0
    endloop
  endfacet
  facet normal -1 -0 0
    outer loop
      vertex -15 23 5
      vertex -15 11.4264 0
      vertex -15 11.4264 5
    endloop
  endfacet
  facet normal 0 0 1
    outer loop
      vertex 0 -23 5
      vertex -7.88455 -14.6161 5
      vertex -7.85 -15 5
    endloop
  endfacet
  facet normal 0 0 1
    outer loop
      vertex -2.7868 -0.786796 5
      vertex -7.98709 -14.2445 5
      vertex -7.88455 -14.6161 5
    endloop
  endfacet
  facet normal 0 0 1
    outer loop
      vertex -2.7868 -0.786796 5
      vertex -8.15434 -13.8973 5
      vertex -7.98709 -14.2445 5
    endloop
  endfacet
  facet normal 0 0 1
    outer loop
      vertex -2.7868 -0.786796 5
      vertex -8.3809 -13.5854 5
      vertex -8.15434 -13.8973 5
    endloop
  endfacet
  facet normal 0 0 1
    outer loop
      vertex -2.7868 -0.786796 5
      vertex -8.6595 -13.3191 5
      vertex -8.3809 -13.5854 5
    endloop
  endfacet
  facet normal 0 0 1
    outer loop
      vertex -2.7868 -0.786796 5
      vertex -8.98118 -13.1067 5
      vertex -8.6595 -13.3191 5
    endloop
  endfacet
  facet normal 0 0 1
    outer loop
      vertex -2.7868 -0.786796 5
      vertex -9.33561 -12.9552 5
      vertex -8.98118 -13.1067 5
    endloop
  endfacet
  facet normal 0 0 1
    outer loop
      vertex -2.7868 -0.786796 5
      vertex -9.7114 -12.8695 5
      vertex -9.33561 -12.9552 5
    endloop
  endfacet
  facet normal 0 0 1
    outer loop
      vertex -2.7868 -0.786796 5
      vertex -10.0965 -12.8522 5
      vertex -9.7114 -12.8695 5
    endloop
  endfacet
  facet normal 0 0 1
    outer loop
      vertex -2.7868 -0.786796 5
      vertex -10.4784 -12.9039 5
      vertex -10.0965 -12.8522 5
    endloop
  endfacet
  facet normal 0 0 1
    outer loop
      vertex -15 -13 5
      vertex -10.4784 -12.9039 5
      vertex -2.7868 -0.786796 5
    endloop
  endfacet
  facet normal 0 0 1
    outer loop
      vertex -10.4784 -12.9039 5
      vertex -15 -13 5
      vertex -10.845 -13.023 5
    endloop
  endfacet
  facet normal 0 0 1
    outer loop
      vertex -10.845 -13.023 5
      vertex -15 -13 5
      vertex -11.1844 -13.2057 5
    endloop
  endfacet
  facet normal 0 0 1
    outer loop
      vertex -11.1844 -13.2057 5
      vertex -15 -13 5
      vertex -11.4858 -13.446 5
    endloop
  endfacet
  facet normal 0 0 1
    outer loop
      vertex -12.1413 -14.8073 5
      vertex -15 -13 5
      vertex -12.1413 -15.1927 5
    endloop
  endfacet
  facet normal 0 0 1
    outer loop
      vertex -12.0725 -14.428 5
      vertex -15 -13 5
      vertex -12.1413 -14.8073 5
    endloop
  endfacet
  facet normal 0 0 1
    outer loop
      vertex -11.9371 -14.0671 5
      vertex -15 -13 5
      vertex -12.0725 -14.428 5
    endloop
  endfacet
  facet normal 0 0 1
    outer loop
      vertex -11.7394 -13.7363 5
      vertex -15 -13 5
      vertex -11.9371 -14.0671 5
    endloop
  endfacet
  facet normal 0 0 1
    outer loop
      vertex -11.4858 -13.446 5
      vertex -15 -13 5
      vertex -11.7394 -13.7363 5
    endloop
  endfacet
  facet normal 0 0 1
    outer loop
      vertex 0 23 5
      vertex -2.7868 -0.786796 5
      vertex 0 -23 5
    endloop
  endfacet
  facet normal 0 0 1
    outer loop
      vertex -7.88455 13.6161 5
      vertex 0 23 5
      vertex -7.85 14 5
    endloop
  endfacet
  facet normal 0 0 1
    outer loop
      vertex 0 23 5
      vertex -7.88455 14.3839 5
      vertex -7.85 14 5
    endloop
  endfacet
  facet normal 0 0 1
    outer loop
      vertex 0 23 5
      vertex -7.98709 14.7555 5
      vertex -7.88455 14.3839 5
    endloop
  endfacet
  facet normal 0 0 1
    outer loop
      vertex 0 23 5
      vertex -8.15434 15.1027 5
      vertex -7.98709 14.7555 5
    endloop
  endfacet
  facet normal 0 0 1
    outer loop
      vertex 0 23 5
      vertex -8.3809 15.4146 5
      vertex -8.15434 15.1027 5
    endloop
  endfacet
  facet normal 0 0 1
    outer loop
      vertex 0 23 5
      vertex -8.6595 15.6809 5
      vertex -8.3809 15.4146 5
    endloop
  endfacet
  facet normal 0 0 1
    outer loop
      vertex 0 23 5
      vertex -8.98118 15.8933 5
      vertex -8.6595 15.6809 5
    endloop
  endfacet
  facet normal 0 0 1
    outer loop
      vertex 0 23 5
      vertex -9.33561 16.0448 5
      vertex -8.98118 15.8933 5
    endloop
  endfacet
  facet normal -0 0 1
    outer loop
      vertex -15 23 5
      vertex -9.33561 16.0448 5
      vertex 0 23 5
    endloop
  endfacet
  facet normal 0 0 1
    outer loop
      vertex -9.33561 16.0448 5
      vertex -15 23 5
      vertex -9.7114 16.1305 5
    endloop
  endfacet
  facet normal 0 0 1
    outer loop
      vertex -9.7114 16.1305 5
      vertex -15 23 5
      vertex -10.0965 16.1478 5
    endloop
  endfacet
  facet normal 0 0 1
    outer loop
      vertex -10.0965 16.1478 5
      vertex -15 23 5
      vertex -10.4784 16.0961 5
    endloop
  endfacet
  facet normal 0 0 1
    outer loop
      vertex -10.4784 16.0961 5
      vertex -15 23 5
      vertex -10.845 15.977 5
    endloop
  endfacet
  facet normal 0 0 1
    outer loop
      vertex -12.0725 14.572 5
      vertex -15 11.4264 5
      vertex -12.1413 14.1927 5
    endloop
  endfacet
  facet normal 0 0 1
    outer loop
      vertex -11.9371 14.9328 5
      vertex -15 11.4264 5
      vertex -12.0725 14.572 5
    endloop
  endfacet
  facet normal 0 0 1
    outer loop
      vertex -15 11.4264 5
      vertex -11.9371 14.9328 5
      vertex -15 23 5
    endloop
  endfacet
  facet normal 0 0 1
    outer loop
      vertex -11.7394 15.2637 5
      vertex -15 23 5
      vertex -11.9371 14.9328 5
    endloop
  endfacet
  facet normal 0 0 1
    outer loop
      vertex -11.4858 15.554 5
      vertex -15 23 5
      vertex -11.7394 15.2637 5
    endloop
  endfacet
  facet normal 0 0 1
    outer loop
      vertex -11.1844 15.7943 5
      vertex -15 23 5
      vertex -11.4858 15.554 5
    endloop
  endfacet
  facet normal 0 0 1
    outer loop
      vertex -10.845 15.977 5
      vertex -15 23 5
      vertex -11.1844 15.7943 5
    endloop
  endfacet
  facet normal -0 0 1
    outer loop
      vertex -7.88455 -14.6161 5
      vertex 0 -23 5
      vertex -2.7868 -0.786796 5
    endloop
  endfacet
  facet normal -0 0 1
    outer loop
      vertex -7.88455 -15.3839 5
      vertex 0 -23 5
      vertex -7.85 -15 5
    endloop
  endfacet
  facet normal -0 0 1
    outer loop
      vertex -7.98709 -15.7555 5
      vertex 0 -23 5
      vertex -7.88455 -15.3839 5
    endloop
  endfacet
  facet normal -0 0 1
    outer loop
      vertex -8.15434 -16.1027 5
      vertex 0 -23 5
      vertex -7.98709 -15.7555 5
    endloop
  endfacet
  facet normal -0 0 1
    outer loop
      vertex -8.3809 -16.4146 5
      vertex 0 -23 5
      vertex -8.15434 -16.1027 5
    endloop
  endfacet
  facet normal -0 0 1
    outer loop
      vertex -8.6595 -16.6809 5
      vertex 0 -23 5
      vertex -8.3809 -16.4146 5
    endloop
  endfacet
  facet normal -0 0 1
    outer loop
      vertex -8.98118 -16.8933 5
      vertex 0 -23 5
      vertex -8.6595 -16.6809 5
    endloop
  endfacet
  facet normal -0 0 1
    outer loop
      vertex -9.33561 -17.0448 5
      vertex 0 -23 5
      vertex -8.98118 -16.8933 5
    endloop
  endfacet
  facet normal 0 0 1
    outer loop
      vertex -15 -23 5
      vertex -9.33561 -17.0448 5
      vertex -9.7114 -17.1305 5
    endloop
  endfacet
  facet normal 0 0 1
    outer loop
      vertex -15 -23 5
      vertex -9.7114 -17.1305 5
      vertex -10.0965 -17.1478 5
    endloop
  endfacet
  facet normal 0 0 1
    outer loop
      vertex -15 -23 5
      vertex -10.0965 -17.1478 5
      vertex -10.4784 -17.0961 5
    endloop
  endfacet
  facet normal 0 0 1
    outer loop
      vertex -15 -23 5
      vertex -10.4784 -17.0961 5
      vertex -10.845 -16.977 5
    endloop
  endfacet
  facet normal 0 0 1
    outer loop
      vertex -15 -23 5
      vertex -10.845 -16.977 5
      vertex -11.1844 -16.7943 5
    endloop
  endfacet
  facet normal 0 0 1
    outer loop
      vertex -15 -13 5
      vertex -12.0725 -15.572 5
      vertex -12.1413 -15.1927 5
    endloop
  endfacet
  facet normal 0 0 1
    outer loop
      vertex -15 -13 5
      vertex -11.9371 -15.9328 5
      vertex -12.0725 -15.572 5
    endloop
  endfacet
  facet normal 0 0 1
    outer loop
      vertex -15 -23 5
      vertex -11.9371 -15.9328 5
      vertex -15 -13 5
    endloop
  endfacet
  facet normal 0 0 1
    outer loop
      vertex -11.9371 -15.9328 5
      vertex -15 -23 5
      vertex -11.7394 -16.2637 5
    endloop
  endfacet
  facet normal 0 0 1
    outer loop
      vertex -9.33561 -17.0448 5
      vertex -15 -23 5
      vertex 0 -23 5
    endloop
  endfacet
  facet normal 0 0 1
    outer loop
      vertex -11.4858 -16.554 5
      vertex -15 -23 5
      vertex -11.1844 -16.7943 5
    endloop
  endfacet
  facet normal 0 0 1
    outer loop
      vertex -11.7394 -16.2637 5
      vertex -15 -23 5
      vertex -11.4858 -16.554 5
    endloop
  endfacet
  facet normal 0 0 1
    outer loop
      vertex 0 23 5
      vertex -7.88455 13.6161 5
      vertex -2.7868 -0.786796 5
    endloop
  endfacet
  facet normal -0 0 1
    outer loop
      vertex -7.98709 13.2445 5
      vertex -2.7868 -0.786796 5
      vertex -7.88455 13.6161 5
    endloop
  endfacet
  facet normal -0 0 1
    outer loop
      vertex -8.15434 12.8973 5
      vertex -2.7868 -0.786796 5
      vertex -7.98709 13.2445 5
    endloop
  endfacet
  facet normal -0 0 1
    outer loop
      vertex -8.3809 12.5854 5
      vertex -2.7868 -0.786796 5
      vertex -8.15434 12.8973 5
    endloop
  endfacet
  facet normal -0 0 1
    outer loop
      vertex -8.6595 12.3191 5
      vertex -2.7868 -0.786796 5
      vertex -8.3809 12.5854 5
    endloop
  endfacet
  facet normal -0 0 1
    outer loop
      vertex -8.98118 12.1067 5
      vertex -2.7868 -0.786796 5
      vertex -8.6595 12.3191 5
    endloop
  endfacet
  facet normal -0 0 1
    outer loop
      vertex -9.33561 11.9552 5
      vertex -2.7868 -0.786796 5
      vertex -8.98118 12.1067 5
    endloop
  endfacet
  facet normal -0 0 1
    outer loop
      vertex -9.7114 11.8695 5
      vertex -2.7868 -0.786796 5
      vertex -9.33561 11.9552 5
    endloop
  endfacet
  facet normal -0 0 1
    outer loop
      vertex -10.0965 11.8522 5
      vertex -2.7868 -0.786796 5
      vertex -9.7114 11.8695 5
    endloop
  endfacet
  facet normal 0 0 1
    outer loop
      vertex -10.4784 11.9039 5
      vertex -2.7868 -0.786796 5
      vertex -10.0965 11.8522 5
    endloop
  endfacet
  facet normal 0 0 1
    outer loop
      vertex -15 11.4264 5
      vertex -10.4784 11.9039 5
      vertex -10.845 12.023 5
    endloop
  endfacet
  facet normal 0 0 1
    outer loop
      vertex -15 11.4264 5
      vertex -10.845 12.023 5
      vertex -11.1844 12.2057 5
    endloop
  endfacet
  facet normal 0 0 1
    outer loop
      vertex -15 11.4264 5
      vertex -11.1844 12.2057 5
      vertex -11.4858 12.446 5
    endloop
  endfacet
  facet normal 0 0 1
    outer loop
      vertex -15 11.4264 5
      vertex -11.4858 12.446 5
      vertex -11.7394 12.7363 5
    endloop
  endfacet
  facet normal 0 0 1
    outer loop
      vertex -12.1413 14.1927 5
      vertex -15 11.4264 5
      vertex -12.1413 13.8073 5
    endloop
  endfacet
  facet normal 0 0 1
    outer loop
      vertex -10.4784 11.9039 5
      vertex -15 11.4264 5
      vertex -2.7868 -0.786796 5
    endloop
  endfacet
  facet normal 0 0 1
    outer loop
      vertex -11.9371 13.0671 5
      vertex -15 11.4264 5
      vertex -11.7394 12.7363 5
    endloop
  endfacet
  facet normal 0 0 1
    outer loop
      vertex -12.0725 13.428 5
      vertex -15 11.4264 5
      vertex -11.9371 13.0671 5
    endloop
  endfacet
  facet normal 0 0 1
    outer loop
      vertex -12.1413 13.8073 5
      vertex -15 11.4264 5
      vertex -12.0725 13.428 5
    endloop
  endfacet
  facet normal 1 -0 0
    outer loop
      vertex 31 15 20
      vertex 31 23 0
      vertex 31 23 20
    endloop
  endfacet
  facet normal 1 0 0
    outer loop
      vertex 31 23 0
      vertex 31 15 20
      vertex 31 15 0
    endloop
  endfacet
  facet normal 0 -1 0
    outer loop
      vertex 8 15 0
      vertex 20.5 15 20
      vertex 8 15 20
    endloop
  endfacet
  facet normal 0 -1 -0
    outer loop
      vertex 20.5 15 20
      vertex 8 15 0
      vertex 20.5 15 0
    endloop
  endfacet
  facet normal 0 -1 0
    outer loop
      vertex 25.5 15 0
      vertex 31 15 20
      vertex 25.5 15 20
    endloop
  endfacet
  facet normal 0 -1 -0
    outer loop
      vertex 31 15 20
      vertex 25.5 15 0
      vertex 31 15 0
    endloop
  endfacet
  facet normal -0.995974 -0.0896398 0
    outer loop
      vertex -7.85 -15 0
      vertex -7.88455 -14.6161 5
      vertex -7.88455 -14.6161 0
    endloop
  endfacet
  facet normal -0.995974 -0.0896398 0
    outer loop
      vertex -7.88455 -14.6161 5
      vertex -7.85 -15 0
      vertex -7.85 -15 5
    endloop
  endfacet
  facet normal 1 -0 0
    outer loop
      vertex -12.1413 -15.1927 5
      vertex -12.1413 -14.8073 0
      vertex -12.1413 -14.8073 5
    endloop
  endfacet
  facet normal 1 0 0
    outer loop
      vertex -12.1413 -14.8073 0
      vertex -12.1413 -15.1927 5
      vertex -12.1413 -15.1927 0
    endloop
  endfacet
  facet normal -0.0448646 -0.998993 0
    outer loop
      vertex -10.0965 -12.8522 0
      vertex -9.7114 -12.8695 5
      vertex -10.0965 -12.8522 5
    endloop
  endfacet
  facet normal -0.0448646 -0.998993 -0
    outer loop
      vertex -9.7114 -12.8695 5
      vertex -10.0965 -12.8522 0
      vertex -9.7114 -12.8695 0
    endloop
  endfacet
  facet normal -0.0448621 0.998993 0
    outer loop
      vertex -9.7114 -17.1305 0
      vertex -10.0965 -17.1478 5
      vertex -9.7114 -17.1305 5
    endloop
  endfacet
  facet normal -0.0448621 0.998993 0
    outer loop
      vertex -10.0965 -17.1478 5
      vertex -9.7114 -17.1305 0
      vertex -10.0965 -17.1478 0
    endloop
  endfacet
  facet normal -0.691062 -0.722796 0
    outer loop
      vertex -8.6595 -13.3191 0
      vertex -8.3809 -13.5854 5
      vertex -8.6595 -13.3191 5
    endloop
  endfacet
  facet normal -0.691062 -0.722796 -0
    outer loop
      vertex -8.3809 -13.5854 5
      vertex -8.6595 -13.3191 0
      vertex -8.3809 -13.5854 0
    endloop
  endfacet
  facet normal 0.623489 -0.781832 0
    outer loop
      vertex -11.4858 -13.446 0
      vertex -11.1844 -13.2057 5
      vertex -11.4858 -13.446 5
    endloop
  endfacet
  facet normal 0.623489 -0.781832 0
    outer loop
      vertex -11.1844 -13.2057 5
      vertex -11.4858 -13.446 0
      vertex -11.1844 -13.2057 0
    endloop
  endfacet
  facet normal 0.309017 -0.951057 0
    outer loop
      vertex -10.845 -13.023 0
      vertex -10.4784 -12.9039 5
      vertex -10.845 -13.023 5
    endloop
  endfacet
  facet normal 0.309017 -0.951057 0
    outer loop
      vertex -10.4784 -12.9039 5
      vertex -10.845 -13.023 0
      vertex -10.4784 -12.9039 0
    endloop
  endfacet
  facet normal -0.900969 -0.433884 0
    outer loop
      vertex -7.98709 -14.2445 0
      vertex -8.15434 -13.8973 5
      vertex -8.15434 -13.8973 0
    endloop
  endfacet
  facet normal -0.900969 -0.433884 0
    outer loop
      vertex -8.15434 -13.8973 5
      vertex -7.98709 -14.2445 0
      vertex -7.98709 -14.2445 5
    endloop
  endfacet
  facet normal -0.963963 -0.266038 0
    outer loop
      vertex -7.88455 -14.6161 0
      vertex -7.98709 -14.2445 5
      vertex -7.98709 -14.2445 0
    endloop
  endfacet
  facet normal -0.963963 -0.266038 0
    outer loop
      vertex -7.98709 -14.2445 5
      vertex -7.88455 -14.6161 0
      vertex -7.88455 -14.6161 5
    endloop
  endfacet
  facet normal -0.809018 -0.587784 0
    outer loop
      vertex -8.15434 -13.8973 0
      vertex -8.3809 -13.5854 5
      vertex -8.3809 -13.5854 0
    endloop
  endfacet
  facet normal -0.809018 -0.587784 0
    outer loop
      vertex -8.3809 -13.5854 5
      vertex -8.15434 -13.8973 0
      vertex -8.15434 -13.8973 5
    endloop
  endfacet
  facet normal -0.393025 -0.919528 0
    outer loop
      vertex -9.33561 -12.9552 0
      vertex -8.98118 -13.1067 5
      vertex -9.33561 -12.9552 5
    endloop
  endfacet
  facet normal -0.393025 -0.919528 -0
    outer loop
      vertex -8.98118 -13.1067 5
      vertex -9.33561 -12.9552 0
      vertex -8.98118 -13.1067 0
    endloop
  endfacet
  facet normal -0.222521 -0.974928 0
    outer loop
      vertex -9.7114 -12.8695 0
      vertex -9.33561 -12.9552 5
      vertex -9.7114 -12.8695 5
    endloop
  endfacet
  facet normal -0.222521 -0.974928 -0
    outer loop
      vertex -9.33561 -12.9552 5
      vertex -9.7114 -12.8695 0
      vertex -9.33561 -12.9552 0
    endloop
  endfacet
  facet normal -0.550897 -0.834573 0
    outer loop
      vertex -8.98118 -13.1067 0
      vertex -8.6595 -13.3191 5
      vertex -8.98118 -13.1067 5
    endloop
  endfacet
  facet normal -0.550897 -0.834573 -0
    outer loop
      vertex -8.6595 -13.3191 5
      vertex -8.98118 -13.1067 0
      vertex -8.6595 -13.3191 0
    endloop
  endfacet
  facet normal 0.858448 -0.5129 0
    outer loop
      vertex -11.9371 -14.0671 5
      vertex -11.7394 -13.7363 0
      vertex -11.7394 -13.7363 5
    endloop
  endfacet
  facet normal 0.858448 -0.5129 0
    outer loop
      vertex -11.7394 -13.7363 0
      vertex -11.9371 -14.0671 5
      vertex -11.9371 -14.0671 0
    endloop
  endfacet
  facet normal 0.753073 -0.657937 0
    outer loop
      vertex -11.7394 -13.7363 5
      vertex -11.4858 -13.446 0
      vertex -11.4858 -13.446 5
    endloop
  endfacet
  facet normal 0.753073 -0.657937 0
    outer loop
      vertex -11.4858 -13.446 0
      vertex -11.7394 -13.7363 5
      vertex -11.7394 -13.7363 0
    endloop
  endfacet
  facet normal 0.473869 -0.880595 0
    outer loop
      vertex -11.1844 -13.2057 0
      vertex -10.845 -13.023 5
      vertex -11.1844 -13.2057 5
    endloop
  endfacet
  facet normal 0.473869 -0.880595 0
    outer loop
      vertex -10.845 -13.023 5
      vertex -11.1844 -13.2057 0
      vertex -10.845 -13.023 0
    endloop
  endfacet
  facet normal 0.134235 -0.99095 0
    outer loop
      vertex -10.4784 -12.9039 0
      vertex -10.0965 -12.8522 5
      vertex -10.4784 -12.9039 5
    endloop
  endfacet
  facet normal 0.134235 -0.99095 0
    outer loop
      vertex -10.0965 -12.8522 5
      vertex -10.4784 -12.9039 0
      vertex -10.0965 -12.8522 0
    endloop
  endfacet
  facet normal -0.995974 0.08964 0
    outer loop
      vertex -7.88455 -15.3839 0
      vertex -7.85 -15 5
      vertex -7.85 -15 0
    endloop
  endfacet
  facet normal -0.995974 0.08964 0
    outer loop
      vertex -7.85 -15 5
      vertex -7.88455 -15.3839 0
      vertex -7.88455 -15.3839 5
    endloop
  endfacet
  facet normal -0.222524 0.974927 0
    outer loop
      vertex -9.33561 -17.0448 0
      vertex -9.7114 -17.1305 5
      vertex -9.33561 -17.0448 5
    endloop
  endfacet
  facet normal -0.222524 0.974927 0
    outer loop
      vertex -9.7114 -17.1305 5
      vertex -9.33561 -17.0448 0
      vertex -9.7114 -17.1305 0
    endloop
  endfacet
  facet normal -0.550897 0.834573 0
    outer loop
      vertex -8.6595 -16.6809 0
      vertex -8.98118 -16.8933 5
      vertex -8.6595 -16.6809 5
    endloop
  endfacet
  facet normal -0.550897 0.834573 0
    outer loop
      vertex -8.98118 -16.8933 5
      vertex -8.6595 -16.6809 0
      vertex -8.98118 -16.8933 0
    endloop
  endfacet
  facet normal -0.900969 0.433883 0
    outer loop
      vertex -8.15434 -16.1027 0
      vertex -7.98709 -15.7555 5
      vertex -7.98709 -15.7555 0
    endloop
  endfacet
  facet normal -0.900969 0.433883 0
    outer loop
      vertex -7.98709 -15.7555 5
      vertex -8.15434 -16.1027 0
      vertex -8.15434 -16.1027 5
    endloop
  endfacet
  facet normal 0.623487 0.781833 -0
    outer loop
      vertex -11.1844 -16.7943 0
      vertex -11.4858 -16.554 5
      vertex -11.1844 -16.7943 5
    endloop
  endfacet
  facet normal 0.623487 0.781833 0
    outer loop
      vertex -11.4858 -16.554 5
      vertex -11.1844 -16.7943 0
      vertex -11.4858 -16.554 0
    endloop
  endfacet
  facet normal 0.309017 0.951057 -0
    outer loop
      vertex -10.4784 -17.0961 0
      vertex -10.845 -16.977 5
      vertex -10.4784 -17.0961 5
    endloop
  endfacet
  facet normal 0.309017 0.951057 0
    outer loop
      vertex -10.845 -16.977 5
      vertex -10.4784 -17.0961 0
      vertex -10.845 -16.977 0
    endloop
  endfacet
  facet normal 0.858448 0.512901 0
    outer loop
      vertex -11.7394 -16.2637 5
      vertex -11.9371 -15.9328 0
      vertex -11.9371 -15.9328 5
    endloop
  endfacet
  facet normal 0.858448 0.512901 0
    outer loop
      vertex -11.9371 -15.9328 0
      vertex -11.7394 -16.2637 5
      vertex -11.7394 -16.2637 0
    endloop
  endfacet
  facet normal 0.753074 0.657936 0
    outer loop
      vertex -11.4858 -16.554 5
      vertex -11.7394 -16.2637 0
      vertex -11.7394 -16.2637 5
    endloop
  endfacet
  facet normal 0.753074 0.657936 0
    outer loop
      vertex -11.7394 -16.2637 0
      vertex -11.4858 -16.554 5
      vertex -11.4858 -16.554 0
    endloop
  endfacet
  facet normal 0.983929 0.178558 0
    outer loop
      vertex -12.0725 -15.572 5
      vertex -12.1413 -15.1927 0
      vertex -12.1413 -15.1927 5
    endloop
  endfacet
  facet normal 0.983929 0.178558 0
    outer loop
      vertex -12.1413 -15.1927 0
      vertex -12.0725 -15.572 5
      vertex -12.0725 -15.572 0
    endloop
  endfacet
  facet normal 0.936235 -0.351374 0
    outer loop
      vertex -12.0725 -14.428 5
      vertex -11.9371 -14.0671 0
      vertex -11.9371 -14.0671 5
    endloop
  endfacet
  facet normal 0.936235 -0.351374 0
    outer loop
      vertex -11.9371 -14.0671 0
      vertex -12.0725 -14.428 5
      vertex -12.0725 -14.428 0
    endloop
  endfacet
  facet normal 0.983929 -0.178558 0
    outer loop
      vertex -12.1413 -14.8073 5
      vertex -12.0725 -14.428 0
      vertex -12.0725 -14.428 5
    endloop
  endfacet
  facet normal 0.983929 -0.178558 0
    outer loop
      vertex -12.0725 -14.428 0
      vertex -12.1413 -14.8073 5
      vertex -12.1413 -14.8073 0
    endloop
  endfacet
  facet normal -0.393025 0.919528 0
    outer loop
      vertex -8.98118 -16.8933 0
      vertex -9.33561 -17.0448 5
      vertex -8.98118 -16.8933 5
    endloop
  endfacet
  facet normal -0.393025 0.919528 0
    outer loop
      vertex -9.33561 -17.0448 5
      vertex -8.98118 -16.8933 0
      vertex -9.33561 -17.0448 0
    endloop
  endfacet
  facet normal -0.691062 0.722796 0
    outer loop
      vertex -8.3809 -16.4146 0
      vertex -8.6595 -16.6809 5
      vertex -8.3809 -16.4146 5
    endloop
  endfacet
  facet normal -0.691062 0.722796 0
    outer loop
      vertex -8.6595 -16.6809 5
      vertex -8.3809 -16.4146 0
      vertex -8.6595 -16.6809 0
    endloop
  endfacet
  facet normal -0.963963 0.266038 0
    outer loop
      vertex -7.98709 -15.7555 0
      vertex -7.88455 -15.3839 5
      vertex -7.88455 -15.3839 0
    endloop
  endfacet
  facet normal -0.963963 0.266038 0
    outer loop
      vertex -7.88455 -15.3839 5
      vertex -7.98709 -15.7555 0
      vertex -7.98709 -15.7555 5
    endloop
  endfacet
  facet normal -0.809017 0.587785 0
    outer loop
      vertex -8.3809 -16.4146 0
      vertex -8.15434 -16.1027 5
      vertex -8.15434 -16.1027 0
    endloop
  endfacet
  facet normal -0.809017 0.587785 0
    outer loop
      vertex -8.15434 -16.1027 5
      vertex -8.3809 -16.4146 0
      vertex -8.3809 -16.4146 5
    endloop
  endfacet
  facet normal 0.473871 0.880594 -0
    outer loop
      vertex -10.845 -16.977 0
      vertex -11.1844 -16.7943 5
      vertex -10.845 -16.977 5
    endloop
  endfacet
  facet normal 0.473871 0.880594 0
    outer loop
      vertex -11.1844 -16.7943 5
      vertex -10.845 -16.977 0
      vertex -11.1844 -16.7943 0
    endloop
  endfacet
  facet normal 0.936235 0.351374 0
    outer loop
      vertex -11.9371 -15.9328 5
      vertex -12.0725 -15.572 0
      vertex -12.0725 -15.572 5
    endloop
  endfacet
  facet normal 0.936235 0.351374 0
    outer loop
      vertex -12.0725 -15.572 0
      vertex -11.9371 -15.9328 5
      vertex -11.9371 -15.9328 0
    endloop
  endfacet
  facet normal 0.134235 0.99095 -0
    outer loop
      vertex -10.0965 -17.1478 0
      vertex -10.4784 -17.0961 5
      vertex -10.0965 -17.1478 5
    endloop
  endfacet
  facet normal 0.134235 0.99095 0
    outer loop
      vertex -10.4784 -17.0961 5
      vertex -10.0965 -17.1478 0
      vertex -10.4784 -17.0961 0
    endloop
  endfacet
  facet normal -0.995974 -0.08964 0
    outer loop
      vertex -7.85 14 0
      vertex -7.88455 14.3839 5
      vertex -7.88455 14.3839 0
    endloop
  endfacet
  facet normal -0.995974 -0.08964 0
    outer loop
      vertex -7.88455 14.3839 5
      vertex -7.85 14 0
      vertex -7.85 14 5
    endloop
  endfacet
  facet normal 1 -0 0
    outer loop
      vertex -12.1413 13.8073 5
      vertex -12.1413 14.1927 0
      vertex -12.1413 14.1927 5
    endloop
  endfacet
  facet normal 1 0 0
    outer loop
      vertex -12.1413 14.1927 0
      vertex -12.1413 13.8073 5
      vertex -12.1413 13.8073 0
    endloop
  endfacet
  facet normal -0.0448621 -0.998993 0
    outer loop
      vertex -10.0965 16.1478 0
      vertex -9.7114 16.1305 5
      vertex -10.0965 16.1478 5
    endloop
  endfacet
  facet normal -0.0448621 -0.998993 -0
    outer loop
      vertex -9.7114 16.1305 5
      vertex -10.0965 16.1478 0
      vertex -9.7114 16.1305 0
    endloop
  endfacet
  facet normal -0.691062 -0.722796 0
    outer loop
      vertex -8.6595 15.6809 0
      vertex -8.3809 15.4146 5
      vertex -8.6595 15.6809 5
    endloop
  endfacet
  facet normal -0.691062 -0.722796 -0
    outer loop
      vertex -8.3809 15.4146 5
      vertex -8.6595 15.6809 0
      vertex -8.3809 15.4146 0
    endloop
  endfacet
  facet normal 0.623489 -0.781832 0
    outer loop
      vertex -11.4858 15.554 0
      vertex -11.1844 15.7943 5
      vertex -11.4858 15.554 5
    endloop
  endfacet
  facet normal 0.623489 -0.781832 0
    outer loop
      vertex -11.1844 15.7943 5
      vertex -11.4858 15.554 0
      vertex -11.1844 15.7943 0
    endloop
  endfacet
  facet normal 0.309017 -0.951057 0
    outer loop
      vertex -10.845 15.977 0
      vertex -10.4784 16.0961 5
      vertex -10.845 15.977 5
    endloop
  endfacet
  facet normal 0.309017 -0.951057 0
    outer loop
      vertex -10.4784 16.0961 5
      vertex -10.845 15.977 0
      vertex -10.4784 16.0961 0
    endloop
  endfacet
  facet normal 0.753073 0.657937 0
    outer loop
      vertex -11.4858 12.446 5
      vertex -11.7394 12.7363 0
      vertex -11.7394 12.7363 5
    endloop
  endfacet
  facet normal 0.753073 0.657937 0
    outer loop
      vertex -11.7394 12.7363 0
      vertex -11.4858 12.446 5
      vertex -11.4858 12.446 0
    endloop
  endfacet
  facet normal -0.900969 -0.433884 0
    outer loop
      vertex -7.98709 14.7555 0
      vertex -8.15434 15.1027 5
      vertex -8.15434 15.1027 0
    endloop
  endfacet
  facet normal -0.900969 -0.433884 0
    outer loop
      vertex -8.15434 15.1027 5
      vertex -7.98709 14.7555 0
      vertex -7.98709 14.7555 5
    endloop
  endfacet
  facet normal -0.963963 -0.266038 0
    outer loop
      vertex -7.88455 14.3839 0
      vertex -7.98709 14.7555 5
      vertex -7.98709 14.7555 0
    endloop
  endfacet
  facet normal -0.963963 -0.266038 0
    outer loop
      vertex -7.98709 14.7555 5
      vertex -7.88455 14.3839 0
      vertex -7.88455 14.3839 5
    endloop
  endfacet
  facet normal -0.809018 -0.587784 0
    outer loop
      vertex -8.15434 15.1027 0
      vertex -8.3809 15.4146 5
      vertex -8.3809 15.4146 0
    endloop
  endfacet
  facet normal -0.809018 -0.587784 0
    outer loop
      vertex -8.3809 15.4146 5
      vertex -8.15434 15.1027 0
      vertex -8.15434 15.1027 5
    endloop
  endfacet
  facet normal -0.393025 -0.919528 0
    outer loop
      vertex -9.33561 16.0448 0
      vertex -8.98118 15.8933 5
      vertex -9.33561 16.0448 5
    endloop
  endfacet
  facet normal -0.393025 -0.919528 -0
    outer loop
      vertex -8.98118 15.8933 5
      vertex -9.33561 16.0448 0
      vertex -8.98118 15.8933 0
    endloop
  endfacet
  facet normal -0.222524 -0.974927 0
    outer loop
      vertex -9.7114 16.1305 0
      vertex -9.33561 16.0448 5
      vertex -9.7114 16.1305 5
    endloop
  endfacet
  facet normal -0.222524 -0.974927 -0
    outer loop
      vertex -9.33561 16.0448 5
      vertex -9.7114 16.1305 0
      vertex -9.33561 16.0448 0
    endloop
  endfacet
  facet normal -0.550897 -0.834573 0
    outer loop
      vertex -8.98118 15.8933 0
      vertex -8.6595 15.6809 5
      vertex -8.98118 15.8933 5
    endloop
  endfacet
  facet normal -0.550897 -0.834573 -0
    outer loop
      vertex -8.6595 15.6809 5
      vertex -8.98118 15.8933 0
      vertex -8.6595 15.6809 0
    endloop
  endfacet
  facet normal 0.858448 -0.5129 0
    outer loop
      vertex -11.9371 14.9328 5
      vertex -11.7394 15.2637 0
      vertex -11.7394 15.2637 5
    endloop
  endfacet
  facet normal 0.858448 -0.5129 0
    outer loop
      vertex -11.7394 15.2637 0
      vertex -11.9371 14.9328 5
      vertex -11.9371 14.9328 0
    endloop
  endfacet
  facet normal 0.753073 -0.657937 0
    outer loop
      vertex -11.7394 15.2637 5
      vertex -11.4858 15.554 0
      vertex -11.4858 15.554 5
    endloop
  endfacet
  facet normal 0.753073 -0.657937 0
    outer loop
      vertex -11.4858 15.554 0
      vertex -11.7394 15.2637 5
      vertex -11.7394 15.2637 0
    endloop
  endfacet
  facet normal 0.983929 -0.178558 0
    outer loop
      vertex -12.1413 14.1927 5
      vertex -12.0725 14.572 0
      vertex -12.0725 14.572 5
    endloop
  endfacet
  facet normal 0.983929 -0.178558 0
    outer loop
      vertex -12.0725 14.572 0
      vertex -12.1413 14.1927 5
      vertex -12.1413 14.1927 0
    endloop
  endfacet
  facet normal 0.473869 -0.880595 0
    outer loop
      vertex -11.1844 15.7943 0
      vertex -10.845 15.977 5
      vertex -11.1844 15.7943 5
    endloop
  endfacet
  facet normal 0.473869 -0.880595 0
    outer loop
      vertex -10.845 15.977 5
      vertex -11.1844 15.7943 0
      vertex -10.845 15.977 0
    endloop
  endfacet
  facet normal 0.134235 -0.99095 0
    outer loop
      vertex -10.4784 16.0961 0
      vertex -10.0965 16.1478 5
      vertex -10.4784 16.0961 5
    endloop
  endfacet
  facet normal 0.134235 -0.99095 0
    outer loop
      vertex -10.0965 16.1478 5
      vertex -10.4784 16.0961 0
      vertex -10.0965 16.1478 0
    endloop
  endfacet
  facet normal -0.222521 0.974928 0
    outer loop
      vertex -9.33561 11.9552 0
      vertex -9.7114 11.8695 5
      vertex -9.33561 11.9552 5
    endloop
  endfacet
  facet normal -0.222521 0.974928 0
    outer loop
      vertex -9.7114 11.8695 5
      vertex -9.33561 11.9552 0
      vertex -9.7114 11.8695 0
    endloop
  endfacet
  facet normal -0.550897 0.834573 0
    outer loop
      vertex -8.6595 12.3191 0
      vertex -8.98118 12.1067 5
      vertex -8.6595 12.3191 5
    endloop
  endfacet
  facet normal -0.550897 0.834573 0
    outer loop
      vertex -8.98118 12.1067 5
      vertex -8.6595 12.3191 0
      vertex -8.98118 12.1067 0
    endloop
  endfacet
  facet normal -0.809018 0.587784 0
    outer loop
      vertex -8.3809 12.5854 0
      vertex -8.15434 12.8973 5
      vertex -8.15434 12.8973 0
    endloop
  endfacet
  facet normal -0.809018 0.587784 0
    outer loop
      vertex -8.15434 12.8973 5
      vertex -8.3809 12.5854 0
      vertex -8.3809 12.5854 5
    endloop
  endfacet
  facet normal 0.623489 0.781832 -0
    outer loop
      vertex -11.1844 12.2057 0
      vertex -11.4858 12.446 5
      vertex -11.1844 12.2057 5
    endloop
  endfacet
  facet normal 0.623489 0.781832 0
    outer loop
      vertex -11.4858 12.446 5
      vertex -11.1844 12.2057 0
      vertex -11.4858 12.446 0
    endloop
  endfacet
  facet normal 0.309017 0.951057 -0
    outer loop
      vertex -10.4784 11.9039 0
      vertex -10.845 12.023 5
      vertex -10.4784 11.9039 5
    endloop
  endfacet
  facet normal 0.309017 0.951057 0
    outer loop
      vertex -10.845 12.023 5
      vertex -10.4784 11.9039 0
      vertex -10.845 12.023 0
    endloop
  endfacet
  facet normal 0.983929 0.178558 0
    outer loop
      vertex -12.0725 13.428 5
      vertex -12.1413 13.8073 0
      vertex -12.1413 13.8073 5
    endloop
  endfacet
  facet normal 0.983929 0.178558 0
    outer loop
      vertex -12.1413 13.8073 0
      vertex -12.0725 13.428 5
      vertex -12.0725 13.428 0
    endloop
  endfacet
  facet normal 0.858448 0.5129 0
    outer loop
      vertex -11.7394 12.7363 5
      vertex -11.9371 13.0671 0
      vertex -11.9371 13.0671 5
    endloop
  endfacet
  facet normal 0.858448 0.5129 0
    outer loop
      vertex -11.9371 13.0671 0
      vertex -11.7394 12.7363 5
      vertex -11.7394 12.7363 0
    endloop
  endfacet
  facet normal 0.936235 0.351374 0
    outer loop
      vertex -11.9371 13.0671 5
      vertex -12.0725 13.428 0
      vertex -12.0725 13.428 5
    endloop
  endfacet
  facet normal 0.936235 0.351374 0
    outer loop
      vertex -12.0725 13.428 0
      vertex -11.9371 13.0671 5
      vertex -11.9371 13.0671 0
    endloop
  endfacet
  facet normal 0.936235 -0.351374 0
    outer loop
      vertex -12.0725 14.572 5
      vertex -11.9371 14.9328 0
      vertex -11.9371 14.9328 5
    endloop
  endfacet
  facet normal 0.936235 -0.351374 0
    outer loop
      vertex -11.9371 14.9328 0
      vertex -12.0725 14.572 5
      vertex -12.0725 14.572 0
    endloop
  endfacet
  facet normal -0.393025 0.919528 0
    outer loop
      vertex -8.98118 12.1067 0
      vertex -9.33561 11.9552 5
      vertex -8.98118 12.1067 5
    endloop
  endfacet
  facet normal -0.393025 0.919528 0
    outer loop
      vertex -9.33561 11.9552 5
      vertex -8.98118 12.1067 0
      vertex -9.33561 11.9552 0
    endloop
  endfacet
  facet normal -0.691062 0.722796 0
    outer loop
      vertex -8.3809 12.5854 0
      vertex -8.6595 12.3191 5
      vertex -8.3809 12.5854 5
    endloop
  endfacet
  facet normal -0.691062 0.722796 0
    outer loop
      vertex -8.6595 12.3191 5
      vertex -8.3809 12.5854 0
      vertex -8.6595 12.3191 0
    endloop
  endfacet
  facet normal -0.963963 0.266038 0
    outer loop
      vertex -7.98709 13.2445 0
      vertex -7.88455 13.6161 5
      vertex -7.88455 13.6161 0
    endloop
  endfacet
  facet normal -0.963963 0.266038 0
    outer loop
      vertex -7.88455 13.6161 5
      vertex -7.98709 13.2445 0
      vertex -7.98709 13.2445 5
    endloop
  endfacet
  facet normal -0.900969 0.433884 0
    outer loop
      vertex -8.15434 12.8973 0
      vertex -7.98709 13.2445 5
      vertex -7.98709 13.2445 0
    endloop
  endfacet
  facet normal -0.900969 0.433884 0
    outer loop
      vertex -7.98709 13.2445 5
      vertex -8.15434 12.8973 0
      vertex -8.15434 12.8973 5
    endloop
  endfacet
  facet normal 0.473869 0.880595 -0
    outer loop
      vertex -10.845 12.023 0
      vertex -11.1844 12.2057 5
      vertex -10.845 12.023 5
    endloop
  endfacet
  facet normal 0.473869 0.880595 0
    outer loop
      vertex -11.1844 12.2057 5
      vertex -10.845 12.023 0
      vertex -11.1844 12.2057 0
    endloop
  endfacet
  facet normal -0.0448646 0.998993 0
    outer loop
      vertex -9.7114 11.8695 0
      vertex -10.0965 11.8522 5
      vertex -9.7114 11.8695 5
    endloop
  endfacet
  facet normal -0.0448646 0.998993 0
    outer loop
      vertex -10.0965 11.8522 5
      vertex -9.7114 11.8695 0
      vertex -10.0965 11.8522 0
    endloop
  endfacet
  facet normal -0.995974 0.0896398 0
    outer loop
      vertex -7.88455 13.6161 0
      vertex -7.85 14 5
      vertex -7.85 14 0
    endloop
  endfacet
  facet normal -0.995974 0.0896398 0
    outer loop
      vertex -7.85 14 5
      vertex -7.88455 13.6161 0
      vertex -7.88455 13.6161 5
    endloop
  endfacet
  facet normal 0.134235 0.99095 -0
    outer loop
      vertex -10.0965 11.8522 0
      vertex -10.4784 11.9039 5
      vertex -10.0965 11.8522 5
    endloop
  endfacet
  facet normal 0.134235 0.99095 0
    outer loop
      vertex -10.4784 11.9039 5
      vertex -10.0965 11.8522 0
      vertex -10.4784 11.9039 0
    endloop
  endfacet
  facet normal -0.707107 -0.707107 0
    outer loop
      vertex -15 11.4264 0
      vertex -2.7868 -0.786796 5
      vertex -15 11.4264 5
    endloop
  endfacet
  facet normal -0.707107 -0.707107 -0
    outer loop
      vertex -2.7868 -0.786796 5
      vertex -15 11.4264 0
      vertex -2.7868 -0.786796 0
    endloop
  endfacet
  facet normal -0.707107 0.707107 0
    outer loop
      vertex -15 -13 0
      vertex -2.7868 -0.786796 5
      vertex -2.7868 -0.786796 0
    endloop
  endfacet
  facet normal -0.707107 0.707107 0
    outer loop
      vertex -2.7868 -0.786796 5
      vertex -15 -13 0
      vertex -15 -13 5
    endloop
  endfacet
  facet normal -0.287348 0.957826 0
    outer loop
      vertex 8 -2.5 0
      vertex 3 -4 20
      vertex 8 -2.5 20
    endloop
  endfacet
  facet normal -0.287348 0.957826 0
    outer loop
      vertex 3 -4 20
      vertex 8 -2.5 0
      vertex 3 -4 0
    endloop
  endfacet
  facet normal -0.287348 -0.957826 0
    outer loop
      vertex 3 4 0
      vertex 8 2.5 20
      vertex 3 4 20
    endloop
  endfacet
  facet normal -0.287348 -0.957826 -0
    outer loop
      vertex 8 2.5 20
      vertex 3 4 0
      vertex 8 2.5 0
    endloop
  endfacet
  facet normal 1 -1.19209e-007 0
    outer loop
      vertex 3 -4 20
      vertex 3 4 0
      vertex 3 4 20
    endloop
  endfacet
  facet normal 1 -1.19209e-007 0
    outer loop
      vertex 3 4 0
      vertex 3 -4 20
      vertex 3 -4 0
    endloop
  endfacet
  facet normal -1 1.90735e-007 0
    outer loop
      vertex 8 -2.5 0
      vertex 8 2.5 20
      vertex 8 2.5 0
    endloop
  endfacet
  facet normal -1 1.90735e-007 0
    outer loop
      vertex 8 2.5 20
      vertex 8 -2.5 0
      vertex 8 -2.5 20
    endloop
  endfacet
  facet normal 0.957826 0.287348 0
    outer loop
      vertex 20.5 15 20
      vertex 19 20 0
      vertex 19 20 20
    endloop
  endfacet
  facet normal 0.957826 0.287348 0
    outer loop
      vertex 19 20 0
      vertex 20.5 15 20
      vertex 20.5 15 0
    endloop
  endfacet
  facet normal -0.957826 0.287348 0
    outer loop
      vertex 25.5 15 0
      vertex 27 20 20
      vertex 27 20 0
    endloop
  endfacet
  facet normal -0.957826 0.287348 0
    outer loop
      vertex 27 20 20
      vertex 25.5 15 0
      vertex 25.5 15 20
    endloop
  endfacet
  facet normal 0 -1 0
    outer loop
      vertex 19 20 0
      vertex 27 20 20
      vertex 19 20 20
    endloop
  endfacet
  facet normal 0 -1 -0
    outer loop
      vertex 27 20 20
      vertex 19 20 0
      vertex 27 20 0
    endloop
  endfacet
endsolid OpenSCAD_Model
