solid OpenSCAD_Model
  facet normal 0.866023 0.500004 0
    outer loop
      vertex 6.07508 2.7048 7
      vertex 5.37996 3.90877 0
      vertex 5.37996 3.90877 7
    endloop
  endfacet
  facet normal 0.866023 0.500004 0
    outer loop
      vertex 5.37996 3.90877 0
      vertex 6.07508 2.7048 7
      vertex 6.07508 2.7048 0
    endloop
  endfacet
  facet normal -0.951058 0.309013 0
    outer loop
      vertex -6.50468 1.38261 0
      vertex -6.07508 2.7048 7
      vertex -6.07508 2.7048 0
    endloop
  endfacet
  facet normal -0.951058 0.309013 0
    outer loop
      vertex -6.07508 2.7048 7
      vertex -6.50468 1.38261 0
      vertex -6.50468 1.38261 7
    endloop
  endfacet
  facet normal 0.743146 0.669129 0
    outer loop
      vertex 5.37996 3.90877 7
      vertex 4.44972 4.94191 0
      vertex 4.44972 4.94191 7
    endloop
  endfacet
  facet normal 0.743146 0.669129 0
    outer loop
      vertex 4.44972 4.94191 0
      vertex 5.37996 3.90877 7
      vertex 5.37996 3.90877 0
    endloop
  endfacet
  facet normal 0.406738 0.913545 -0
    outer loop
      vertex 3.325 5.75907 0
      vertex 2.05496 6.32453 7
      vertex 3.325 5.75907 7
    endloop
  endfacet
  facet normal 0.406738 0.913545 0
    outer loop
      vertex 2.05496 6.32453 7
      vertex 3.325 5.75907 0
      vertex 2.05496 6.32453 0
    endloop
  endfacet
  facet normal -0.207909 0.978148 0
    outer loop
      vertex -0.695114 6.61357 0
      vertex -2.05496 6.32453 7
      vertex -0.695114 6.61357 7
    endloop
  endfacet
  facet normal -0.207909 0.978148 0
    outer loop
      vertex -2.05496 6.32453 7
      vertex -0.695114 6.61357 0
      vertex -2.05496 6.32453 0
    endloop
  endfacet
  facet normal -0.866023 0.500004 0
    outer loop
      vertex -6.07508 2.7048 0
      vertex -5.37996 3.90877 7
      vertex -5.37996 3.90877 0
    endloop
  endfacet
  facet normal -0.866023 0.500004 0
    outer loop
      vertex -5.37996 3.90877 7
      vertex -6.07508 2.7048 0
      vertex -6.07508 2.7048 7
    endloop
  endfacet
  facet normal 0.994522 -0.10453 0
    outer loop
      vertex 6.50468 -1.38261 7
      vertex 6.65 0 0
      vertex 6.65 0 7
    endloop
  endfacet
  facet normal 0.994522 -0.10453 0
    outer loop
      vertex 6.65 0 0
      vertex 6.50468 -1.38261 7
      vertex 6.50468 -1.38261 0
    endloop
  endfacet
  facet normal 0.951058 0.309013 0
    outer loop
      vertex 6.50468 1.38261 7
      vertex 6.07508 2.7048 0
      vertex 6.07508 2.7048 7
    endloop
  endfacet
  facet normal 0.951058 0.309013 0
    outer loop
      vertex 6.07508 2.7048 0
      vertex 6.50468 1.38261 7
      vertex 6.50468 1.38261 0
    endloop
  endfacet
  facet normal 0 1 -0
    outer loop
      vertex 0.695114 6.61357 0
      vertex -0.695114 6.61357 7
      vertex 0.695114 6.61357 7
    endloop
  endfacet
  facet normal 0 1 0
    outer loop
      vertex -0.695114 6.61357 7
      vertex 0.695114 6.61357 0
      vertex -0.695114 6.61357 0
    endloop
  endfacet
  facet normal 0.587787 0.809016 -0
    outer loop
      vertex 4.44972 4.94191 0
      vertex 3.325 5.75907 7
      vertex 4.44972 4.94191 7
    endloop
  endfacet
  facet normal 0.587787 0.809016 0
    outer loop
      vertex 3.325 5.75907 7
      vertex 4.44972 4.94191 0
      vertex 3.325 5.75907 0
    endloop
  endfacet
  facet normal -0.994522 0.10453 0
    outer loop
      vertex -6.65 0 0
      vertex -6.50468 1.38261 7
      vertex -6.50468 1.38261 0
    endloop
  endfacet
  facet normal -0.994522 0.10453 0
    outer loop
      vertex -6.50468 1.38261 7
      vertex -6.65 0 0
      vertex -6.65 0 7
    endloop
  endfacet
  facet normal -0.743146 0.669129 0
    outer loop
      vertex -5.37996 3.90877 0
      vertex -4.44972 4.94191 7
      vertex -4.44972 4.94191 0
    endloop
  endfacet
  facet normal -0.743146 0.669129 0
    outer loop
      vertex -4.44972 4.94191 7
      vertex -5.37996 3.90877 0
      vertex -5.37996 3.90877 7
    endloop
  endfacet
  facet normal -0.406738 0.913545 0
    outer loop
      vertex -2.05496 6.32453 0
      vertex -3.325 5.75907 7
      vertex -2.05496 6.32453 7
    endloop
  endfacet
  facet normal -0.406738 0.913545 0
    outer loop
      vertex -3.325 5.75907 7
      vertex -2.05496 6.32453 0
      vertex -3.325 5.75907 0
    endloop
  endfacet
  facet normal -0.587787 0.809016 0
    outer loop
      vertex -3.325 5.75907 0
      vertex -4.44972 4.94191 7
      vertex -3.325 5.75907 7
    endloop
  endfacet
  facet normal -0.587787 0.809016 0
    outer loop
      vertex -4.44972 4.94191 7
      vertex -3.325 5.75907 0
      vertex -4.44972 4.94191 0
    endloop
  endfacet
  facet normal 0.994522 0.10453 0
    outer loop
      vertex 6.65 0 7
      vertex 6.50468 1.38261 0
      vertex 6.50468 1.38261 7
    endloop
  endfacet
  facet normal 0.994522 0.10453 0
    outer loop
      vertex 6.50468 1.38261 0
      vertex 6.65 0 7
      vertex 6.65 0 0
    endloop
  endfacet
  facet normal 0.587787 -0.809016 0
    outer loop
      vertex 3.325 -5.75907 0
      vertex 4.44972 -4.94191 7
      vertex 3.325 -5.75907 7
    endloop
  endfacet
  facet normal 0.587787 -0.809016 0
    outer loop
      vertex 4.44972 -4.94191 7
      vertex 3.325 -5.75907 0
      vertex 4.44972 -4.94191 0
    endloop
  endfacet
  facet normal 0.207909 0.978148 -0
    outer loop
      vertex 2.05496 6.32453 0
      vertex 0.695114 6.61357 7
      vertex 2.05496 6.32453 7
    endloop
  endfacet
  facet normal 0.207909 0.978148 0
    outer loop
      vertex 0.695114 6.61357 7
      vertex 2.05496 6.32453 0
      vertex 0.695114 6.61357 0
    endloop
  endfacet
  facet normal 0 0 1
    outer loop
      vertex 5.15 0 7
      vertex 6.65 0 7
      vertex 6.50468 1.38261 7
    endloop
  endfacet
  facet normal 0 0 1
    outer loop
      vertex 5.03746 1.07074 7
      vertex 6.50468 1.38261 7
      vertex 6.07508 2.7048 7
    endloop
  endfacet
  facet normal 0 0 1
    outer loop
      vertex 6.65 0 7
      vertex 5.15 0 7
      vertex 6.50468 -1.38261 7
    endloop
  endfacet
  facet normal 0 0 1
    outer loop
      vertex 4.70476 2.09469 7
      vertex 6.07508 2.7048 7
      vertex 5.37996 3.90877 7
    endloop
  endfacet
  facet normal -0 0 1
    outer loop
      vertex 5.03746 -1.07074 7
      vertex 6.50468 -1.38261 7
      vertex 5.15 0 7
    endloop
  endfacet
  facet normal 0 0 1
    outer loop
      vertex 6.50468 -1.38261 7
      vertex 5.03746 -1.07074 7
      vertex 6.07508 -2.7048 7
    endloop
  endfacet
  facet normal 0 0 1
    outer loop
      vertex 6.50468 1.38261 7
      vertex 5.03746 1.07074 7
      vertex 5.15 0 7
    endloop
  endfacet
  facet normal 0 0 1
    outer loop
      vertex 6.07508 2.7048 7
      vertex 4.70476 2.09469 7
      vertex 5.03746 1.07074 7
    endloop
  endfacet
  facet normal 0 0 1
    outer loop
      vertex 4.16644 3.02709 7
      vertex 5.37996 3.90877 7
      vertex 4.44972 4.94191 7
    endloop
  endfacet
  facet normal 0 0 1
    outer loop
      vertex 5.37996 3.90877 7
      vertex 4.16644 3.02709 7
      vertex 4.70476 2.09469 7
    endloop
  endfacet
  facet normal 0 0 1
    outer loop
      vertex 4.44972 4.94191 7
      vertex 3.44602 3.8272 7
      vertex 4.16644 3.02709 7
    endloop
  endfacet
  facet normal 0 0 1
    outer loop
      vertex 3.325 5.75907 7
      vertex 3.44602 3.8272 7
      vertex 4.44972 4.94191 7
    endloop
  endfacet
  facet normal 0 0 1
    outer loop
      vertex 3.325 5.75907 7
      vertex 2.575 4.46003 7
      vertex 3.44602 3.8272 7
    endloop
  endfacet
  facet normal 0 0 1
    outer loop
      vertex 2.05496 6.32453 7
      vertex 2.575 4.46003 7
      vertex 3.325 5.75907 7
    endloop
  endfacet
  facet normal 0 0 1
    outer loop
      vertex 2.05496 6.32453 7
      vertex 1.59144 4.89794 7
      vertex 2.575 4.46003 7
    endloop
  endfacet
  facet normal 0 0 1
    outer loop
      vertex 0.695114 6.61357 7
      vertex 1.59144 4.89794 7
      vertex 2.05496 6.32453 7
    endloop
  endfacet
  facet normal 0 0 1
    outer loop
      vertex 0.695114 6.61357 7
      vertex 0.538321 5.12179 7
      vertex 1.59144 4.89794 7
    endloop
  endfacet
  facet normal 0 0 1
    outer loop
      vertex 0.695114 6.61357 7
      vertex -0.538321 5.12179 7
      vertex 0.538321 5.12179 7
    endloop
  endfacet
  facet normal -0 0 1
    outer loop
      vertex -0.695114 6.61357 7
      vertex -0.538321 5.12179 7
      vertex 0.695114 6.61357 7
    endloop
  endfacet
  facet normal 0 0 1
    outer loop
      vertex -0.695114 6.61357 7
      vertex -1.59144 4.89794 7
      vertex -0.538321 5.12179 7
    endloop
  endfacet
  facet normal -0 0 1
    outer loop
      vertex -2.05496 6.32453 7
      vertex -1.59144 4.89794 7
      vertex -0.695114 6.61357 7
    endloop
  endfacet
  facet normal 0 0 1
    outer loop
      vertex -2.05496 6.32453 7
      vertex -2.575 4.46003 7
      vertex -1.59144 4.89794 7
    endloop
  endfacet
  facet normal -0 0 1
    outer loop
      vertex -3.325 5.75907 7
      vertex -2.575 4.46003 7
      vertex -2.05496 6.32453 7
    endloop
  endfacet
  facet normal 0 0 1
    outer loop
      vertex -3.325 5.75907 7
      vertex -3.44602 3.8272 7
      vertex -2.575 4.46003 7
    endloop
  endfacet
  facet normal -0 0 1
    outer loop
      vertex -4.44972 4.94191 7
      vertex -3.44602 3.8272 7
      vertex -3.325 5.75907 7
    endloop
  endfacet
  facet normal 0 0 1
    outer loop
      vertex -3.44602 3.8272 7
      vertex -4.44972 4.94191 7
      vertex -4.16644 3.02709 7
    endloop
  endfacet
  facet normal -0 0 1
    outer loop
      vertex -5.37996 3.90877 7
      vertex -4.16644 3.02709 7
      vertex -4.44972 4.94191 7
    endloop
  endfacet
  facet normal 0 0 1
    outer loop
      vertex -4.16644 3.02709 7
      vertex -5.37996 3.90877 7
      vertex -4.70476 2.09469 7
    endloop
  endfacet
  facet normal 0 0 1
    outer loop
      vertex -4.70476 2.09469 7
      vertex -6.07508 2.7048 7
      vertex -5.03746 1.07074 7
    endloop
  endfacet
  facet normal -0 0 1
    outer loop
      vertex -6.07508 2.7048 7
      vertex -4.70476 2.09469 7
      vertex -5.37996 3.90877 7
    endloop
  endfacet
  facet normal -0 0 1
    outer loop
      vertex 4.70476 -2.09469 7
      vertex 6.07508 -2.7048 7
      vertex 5.03746 -1.07074 7
    endloop
  endfacet
  facet normal 0 0 1
    outer loop
      vertex 6.07508 -2.7048 7
      vertex 4.70476 -2.09469 7
      vertex 5.37996 -3.90877 7
    endloop
  endfacet
  facet normal -0 0 1
    outer loop
      vertex 4.16644 -3.02709 7
      vertex 5.37996 -3.90877 7
      vertex 4.70476 -2.09469 7
    endloop
  endfacet
  facet normal 0 0 1
    outer loop
      vertex 5.37996 -3.90877 7
      vertex 4.16644 -3.02709 7
      vertex 4.44972 -4.94191 7
    endloop
  endfacet
  facet normal -0 0 1
    outer loop
      vertex 3.44602 -3.8272 7
      vertex 4.44972 -4.94191 7
      vertex 4.16644 -3.02709 7
    endloop
  endfacet
  facet normal 0 0 1
    outer loop
      vertex 3.44602 -3.8272 7
      vertex 3.325 -5.75907 7
      vertex 4.44972 -4.94191 7
    endloop
  endfacet
  facet normal -0 0 1
    outer loop
      vertex 2.575 -4.46003 7
      vertex 3.325 -5.75907 7
      vertex 3.44602 -3.8272 7
    endloop
  endfacet
  facet normal 0 0 1
    outer loop
      vertex 2.575 -4.46003 7
      vertex 2.05496 -6.32453 7
      vertex 3.325 -5.75907 7
    endloop
  endfacet
  facet normal -0 0 1
    outer loop
      vertex 1.59144 -4.89794 7
      vertex 2.05496 -6.32453 7
      vertex 2.575 -4.46003 7
    endloop
  endfacet
  facet normal 0 0 1
    outer loop
      vertex 1.59144 -4.89794 7
      vertex 0.695114 -6.61357 7
      vertex 2.05496 -6.32453 7
    endloop
  endfacet
  facet normal -0 0 1
    outer loop
      vertex 0.538321 -5.12179 7
      vertex 0.695114 -6.61357 7
      vertex 1.59144 -4.89794 7
    endloop
  endfacet
  facet normal -0 0 1
    outer loop
      vertex -0.538321 -5.12179 7
      vertex 0.695114 -6.61357 7
      vertex 0.538321 -5.12179 7
    endloop
  endfacet
  facet normal 0 0 1
    outer loop
      vertex -0.538321 -5.12179 7
      vertex -0.695114 -6.61357 7
      vertex 0.695114 -6.61357 7
    endloop
  endfacet
  facet normal 0 0 1
    outer loop
      vertex -1.59144 -4.89794 7
      vertex -0.695114 -6.61357 7
      vertex -0.538321 -5.12179 7
    endloop
  endfacet
  facet normal 0 0 1
    outer loop
      vertex -1.59144 -4.89794 7
      vertex -2.05496 -6.32453 7
      vertex -0.695114 -6.61357 7
    endloop
  endfacet
  facet normal 0 0 1
    outer loop
      vertex -2.575 -4.46003 7
      vertex -2.05496 -6.32453 7
      vertex -1.59144 -4.89794 7
    endloop
  endfacet
  facet normal 0 0 1
    outer loop
      vertex -2.575 -4.46003 7
      vertex -3.325 -5.75907 7
      vertex -2.05496 -6.32453 7
    endloop
  endfacet
  facet normal 0 0 1
    outer loop
      vertex -3.44602 -3.8272 7
      vertex -3.325 -5.75907 7
      vertex -2.575 -4.46003 7
    endloop
  endfacet
  facet normal 0 0 1
    outer loop
      vertex -4.44972 -4.94191 7
      vertex -3.44602 -3.8272 7
      vertex -4.16644 -3.02709 7
    endloop
  endfacet
  facet normal 0 0 1
    outer loop
      vertex -3.44602 -3.8272 7
      vertex -4.44972 -4.94191 7
      vertex -3.325 -5.75907 7
    endloop
  endfacet
  facet normal 0 0 1
    outer loop
      vertex -5.37996 -3.90877 7
      vertex -4.16644 -3.02709 7
      vertex -4.70476 -2.09469 7
    endloop
  endfacet
  facet normal 0 0 1
    outer loop
      vertex -6.07508 -2.7048 7
      vertex -4.70476 -2.09469 7
      vertex -5.03746 -1.07074 7
    endloop
  endfacet
  facet normal 0 0 1
    outer loop
      vertex -4.16644 -3.02709 7
      vertex -5.37996 -3.90877 7
      vertex -4.44972 -4.94191 7
    endloop
  endfacet
  facet normal 0 0 1
    outer loop
      vertex -6.50468 -1.38261 7
      vertex -5.03746 -1.07074 7
      vertex -5.15 0 7
    endloop
  endfacet
  facet normal -0 0 1
    outer loop
      vertex -6.50468 1.38261 7
      vertex -5.03746 1.07074 7
      vertex -6.07508 2.7048 7
    endloop
  endfacet
  facet normal 0 0 1
    outer loop
      vertex -5.03746 1.07074 7
      vertex -6.50468 1.38261 7
      vertex -5.15 0 7
    endloop
  endfacet
  facet normal 0 0 1
    outer loop
      vertex -4.70476 -2.09469 7
      vertex -6.07508 -2.7048 7
      vertex -5.37996 -3.90877 7
    endloop
  endfacet
  facet normal 0 0 1
    outer loop
      vertex -6.65 0 7
      vertex -5.15 0 7
      vertex -6.50468 1.38261 7
    endloop
  endfacet
  facet normal 0 0 1
    outer loop
      vertex -5.03746 -1.07074 7
      vertex -6.50468 -1.38261 7
      vertex -6.07508 -2.7048 7
    endloop
  endfacet
  facet normal 0 0 1
    outer loop
      vertex -5.15 0 7
      vertex -6.65 0 7
      vertex -6.50468 -1.38261 7
    endloop
  endfacet
  facet normal 0.951058 -0.309013 0
    outer loop
      vertex 6.07508 -2.7048 7
      vertex 6.50468 -1.38261 0
      vertex 6.50468 -1.38261 7
    endloop
  endfacet
  facet normal 0.951058 -0.309013 0
    outer loop
      vertex 6.50468 -1.38261 0
      vertex 6.07508 -2.7048 7
      vertex 6.07508 -2.7048 0
    endloop
  endfacet
  facet normal 0.866023 -0.500004 0
    outer loop
      vertex 5.37996 -3.90877 7
      vertex 6.07508 -2.7048 0
      vertex 6.07508 -2.7048 7
    endloop
  endfacet
  facet normal 0.866023 -0.500004 0
    outer loop
      vertex 6.07508 -2.7048 0
      vertex 5.37996 -3.90877 7
      vertex 5.37996 -3.90877 0
    endloop
  endfacet
  facet normal -0.207909 -0.978148 0
    outer loop
      vertex -2.05496 -6.32453 0
      vertex -0.695114 -6.61357 7
      vertex -2.05496 -6.32453 7
    endloop
  endfacet
  facet normal -0.207909 -0.978148 -0
    outer loop
      vertex -0.695114 -6.61357 7
      vertex -2.05496 -6.32453 0
      vertex -0.695114 -6.61357 0
    endloop
  endfacet
  facet normal -0.994522 -0.10453 0
    outer loop
      vertex -6.50468 -1.38261 0
      vertex -6.65 0 7
      vertex -6.65 0 0
    endloop
  endfacet
  facet normal -0.994522 -0.10453 0
    outer loop
      vertex -6.65 0 7
      vertex -6.50468 -1.38261 0
      vertex -6.50468 -1.38261 7
    endloop
  endfacet
  facet normal 0.207909 -0.978148 0
    outer loop
      vertex 0.695114 -6.61357 0
      vertex 2.05496 -6.32453 7
      vertex 0.695114 -6.61357 7
    endloop
  endfacet
  facet normal 0.207909 -0.978148 0
    outer loop
      vertex 2.05496 -6.32453 7
      vertex 0.695114 -6.61357 0
      vertex 2.05496 -6.32453 0
    endloop
  endfacet
  facet normal 0.406738 -0.913545 0
    outer loop
      vertex 2.05496 -6.32453 0
      vertex 3.325 -5.75907 7
      vertex 2.05496 -6.32453 7
    endloop
  endfacet
  facet normal 0.406738 -0.913545 0
    outer loop
      vertex 3.325 -5.75907 7
      vertex 2.05496 -6.32453 0
      vertex 3.325 -5.75907 0
    endloop
  endfacet
  facet normal 0.743146 -0.669129 0
    outer loop
      vertex 4.44972 -4.94191 7
      vertex 5.37996 -3.90877 0
      vertex 5.37996 -3.90877 7
    endloop
  endfacet
  facet normal 0.743146 -0.669129 0
    outer loop
      vertex 5.37996 -3.90877 0
      vertex 4.44972 -4.94191 7
      vertex 4.44972 -4.94191 0
    endloop
  endfacet
  facet normal -0.587787 -0.809016 0
    outer loop
      vertex -4.44972 -4.94191 0
      vertex -3.325 -5.75907 7
      vertex -4.44972 -4.94191 7
    endloop
  endfacet
  facet normal -0.587787 -0.809016 -0
    outer loop
      vertex -3.325 -5.75907 7
      vertex -4.44972 -4.94191 0
      vertex -3.325 -5.75907 0
    endloop
  endfacet
  facet normal 0 -1 0
    outer loop
      vertex -0.695114 -6.61357 0
      vertex 0.695114 -6.61357 7
      vertex -0.695114 -6.61357 7
    endloop
  endfacet
  facet normal 0 -1 -0
    outer loop
      vertex 0.695114 -6.61357 7
      vertex -0.695114 -6.61357 0
      vertex 0.695114 -6.61357 0
    endloop
  endfacet
  facet normal -0.406738 -0.913545 0
    outer loop
      vertex -3.325 -5.75907 0
      vertex -2.05496 -6.32453 7
      vertex -3.325 -5.75907 7
    endloop
  endfacet
  facet normal -0.406738 -0.913545 -0
    outer loop
      vertex -2.05496 -6.32453 7
      vertex -3.325 -5.75907 0
      vertex -2.05496 -6.32453 0
    endloop
  endfacet
  facet normal 0 0 -1
    outer loop
      vertex 5.15 0 0
      vertex 6.65 0 0
      vertex 6.50468 -1.38261 0
    endloop
  endfacet
  facet normal 0 0 -1
    outer loop
      vertex 5.03746 -1.07074 0
      vertex 6.50468 -1.38261 0
      vertex 6.07508 -2.7048 0
    endloop
  endfacet
  facet normal 0 0 -1
    outer loop
      vertex 6.65 0 0
      vertex 5.15 0 0
      vertex 6.50468 1.38261 0
    endloop
  endfacet
  facet normal 0 0 -1
    outer loop
      vertex 4.70476 -2.09469 0
      vertex 6.07508 -2.7048 0
      vertex 5.37996 -3.90877 0
    endloop
  endfacet
  facet normal 0 0 -1
    outer loop
      vertex 5.03746 1.07074 0
      vertex 6.50468 1.38261 0
      vertex 5.15 0 0
    endloop
  endfacet
  facet normal -0 0 -1
    outer loop
      vertex 6.50468 1.38261 0
      vertex 5.03746 1.07074 0
      vertex 6.07508 2.7048 0
    endloop
  endfacet
  facet normal 0 0 -1
    outer loop
      vertex 6.50468 -1.38261 0
      vertex 5.03746 -1.07074 0
      vertex 5.15 0 0
    endloop
  endfacet
  facet normal 0 0 -1
    outer loop
      vertex 6.07508 -2.7048 0
      vertex 4.70476 -2.09469 0
      vertex 5.03746 -1.07074 0
    endloop
  endfacet
  facet normal 0 0 -1
    outer loop
      vertex 4.16644 -3.02709 0
      vertex 5.37996 -3.90877 0
      vertex 4.44972 -4.94191 0
    endloop
  endfacet
  facet normal 0 0 -1
    outer loop
      vertex 5.37996 -3.90877 0
      vertex 4.16644 -3.02709 0
      vertex 4.70476 -2.09469 0
    endloop
  endfacet
  facet normal 0 0 -1
    outer loop
      vertex 4.44972 -4.94191 0
      vertex 3.44602 -3.8272 0
      vertex 4.16644 -3.02709 0
    endloop
  endfacet
  facet normal 0 0 -1
    outer loop
      vertex 3.325 -5.75907 0
      vertex 3.44602 -3.8272 0
      vertex 4.44972 -4.94191 0
    endloop
  endfacet
  facet normal 0 0 -1
    outer loop
      vertex 3.325 -5.75907 0
      vertex 2.575 -4.46003 0
      vertex 3.44602 -3.8272 0
    endloop
  endfacet
  facet normal 0 0 -1
    outer loop
      vertex 2.05496 -6.32453 0
      vertex 2.575 -4.46003 0
      vertex 3.325 -5.75907 0
    endloop
  endfacet
  facet normal 0 0 -1
    outer loop
      vertex 2.05496 -6.32453 0
      vertex 1.59144 -4.89794 0
      vertex 2.575 -4.46003 0
    endloop
  endfacet
  facet normal 0 0 -1
    outer loop
      vertex 0.695114 -6.61357 0
      vertex 1.59144 -4.89794 0
      vertex 2.05496 -6.32453 0
    endloop
  endfacet
  facet normal 0 0 -1
    outer loop
      vertex 0.695114 -6.61357 0
      vertex 0.538321 -5.12179 0
      vertex 1.59144 -4.89794 0
    endloop
  endfacet
  facet normal 0 0 -1
    outer loop
      vertex 0.695114 -6.61357 0
      vertex -0.538321 -5.12179 0
      vertex 0.538321 -5.12179 0
    endloop
  endfacet
  facet normal 0 0 -1
    outer loop
      vertex -0.695114 -6.61357 0
      vertex -0.538321 -5.12179 0
      vertex 0.695114 -6.61357 0
    endloop
  endfacet
  facet normal 0 0 -1
    outer loop
      vertex -0.695114 -6.61357 0
      vertex -1.59144 -4.89794 0
      vertex -0.538321 -5.12179 0
    endloop
  endfacet
  facet normal 0 0 -1
    outer loop
      vertex -2.05496 -6.32453 0
      vertex -1.59144 -4.89794 0
      vertex -0.695114 -6.61357 0
    endloop
  endfacet
  facet normal 0 0 -1
    outer loop
      vertex -2.05496 -6.32453 0
      vertex -2.575 -4.46003 0
      vertex -1.59144 -4.89794 0
    endloop
  endfacet
  facet normal 0 0 -1
    outer loop
      vertex -3.325 -5.75907 0
      vertex -2.575 -4.46003 0
      vertex -2.05496 -6.32453 0
    endloop
  endfacet
  facet normal 0 0 -1
    outer loop
      vertex -3.325 -5.75907 0
      vertex -3.44602 -3.8272 0
      vertex -2.575 -4.46003 0
    endloop
  endfacet
  facet normal 0 0 -1
    outer loop
      vertex -4.44972 -4.94191 0
      vertex -3.44602 -3.8272 0
      vertex -3.325 -5.75907 0
    endloop
  endfacet
  facet normal -0 0 -1
    outer loop
      vertex -3.44602 -3.8272 0
      vertex -4.44972 -4.94191 0
      vertex -4.16644 -3.02709 0
    endloop
  endfacet
  facet normal 0 0 -1
    outer loop
      vertex -5.37996 -3.90877 0
      vertex -4.16644 -3.02709 0
      vertex -4.44972 -4.94191 0
    endloop
  endfacet
  facet normal -0 0 -1
    outer loop
      vertex -4.16644 -3.02709 0
      vertex -5.37996 -3.90877 0
      vertex -4.70476 -2.09469 0
    endloop
  endfacet
  facet normal -0 0 -1
    outer loop
      vertex -4.70476 -2.09469 0
      vertex -6.07508 -2.7048 0
      vertex -5.03746 -1.07074 0
    endloop
  endfacet
  facet normal 0 0 -1
    outer loop
      vertex -6.07508 -2.7048 0
      vertex -4.70476 -2.09469 0
      vertex -5.37996 -3.90877 0
    endloop
  endfacet
  facet normal 0 0 -1
    outer loop
      vertex 4.70476 2.09469 0
      vertex 6.07508 2.7048 0
      vertex 5.03746 1.07074 0
    endloop
  endfacet
  facet normal -0 0 -1
    outer loop
      vertex 6.07508 2.7048 0
      vertex 4.70476 2.09469 0
      vertex 5.37996 3.90877 0
    endloop
  endfacet
  facet normal 0 0 -1
    outer loop
      vertex 4.16644 3.02709 0
      vertex 5.37996 3.90877 0
      vertex 4.70476 2.09469 0
    endloop
  endfacet
  facet normal -0 0 -1
    outer loop
      vertex 5.37996 3.90877 0
      vertex 4.16644 3.02709 0
      vertex 4.44972 4.94191 0
    endloop
  endfacet
  facet normal 0 0 -1
    outer loop
      vertex 3.44602 3.8272 0
      vertex 4.44972 4.94191 0
      vertex 4.16644 3.02709 0
    endloop
  endfacet
  facet normal 0 0 -1
    outer loop
      vertex 3.44602 3.8272 0
      vertex 3.325 5.75907 0
      vertex 4.44972 4.94191 0
    endloop
  endfacet
  facet normal 0 0 -1
    outer loop
      vertex 2.575 4.46003 0
      vertex 3.325 5.75907 0
      vertex 3.44602 3.8272 0
    endloop
  endfacet
  facet normal 0 0 -1
    outer loop
      vertex 2.575 4.46003 0
      vertex 2.05496 6.32453 0
      vertex 3.325 5.75907 0
    endloop
  endfacet
  facet normal 0 0 -1
    outer loop
      vertex 1.59144 4.89794 0
      vertex 2.05496 6.32453 0
      vertex 2.575 4.46003 0
    endloop
  endfacet
  facet normal 0 0 -1
    outer loop
      vertex 1.59144 4.89794 0
      vertex 0.695114 6.61357 0
      vertex 2.05496 6.32453 0
    endloop
  endfacet
  facet normal 0 0 -1
    outer loop
      vertex 0.538321 5.12179 0
      vertex 0.695114 6.61357 0
      vertex 1.59144 4.89794 0
    endloop
  endfacet
  facet normal 0 0 -1
    outer loop
      vertex -0.538321 5.12179 0
      vertex 0.695114 6.61357 0
      vertex 0.538321 5.12179 0
    endloop
  endfacet
  facet normal 0 0 -1
    outer loop
      vertex -0.538321 5.12179 0
      vertex -0.695114 6.61357 0
      vertex 0.695114 6.61357 0
    endloop
  endfacet
  facet normal 0 0 -1
    outer loop
      vertex -1.59144 4.89794 0
      vertex -0.695114 6.61357 0
      vertex -0.538321 5.12179 0
    endloop
  endfacet
  facet normal 0 0 -1
    outer loop
      vertex -1.59144 4.89794 0
      vertex -2.05496 6.32453 0
      vertex -0.695114 6.61357 0
    endloop
  endfacet
  facet normal 0 0 -1
    outer loop
      vertex -2.575 4.46003 0
      vertex -2.05496 6.32453 0
      vertex -1.59144 4.89794 0
    endloop
  endfacet
  facet normal 0 0 -1
    outer loop
      vertex -2.575 4.46003 0
      vertex -3.325 5.75907 0
      vertex -2.05496 6.32453 0
    endloop
  endfacet
  facet normal 0 0 -1
    outer loop
      vertex -3.44602 3.8272 0
      vertex -3.325 5.75907 0
      vertex -2.575 4.46003 0
    endloop
  endfacet
  facet normal 0 0 -1
    outer loop
      vertex -4.44972 4.94191 0
      vertex -3.44602 3.8272 0
      vertex -4.16644 3.02709 0
    endloop
  endfacet
  facet normal 0 0 -1
    outer loop
      vertex -3.44602 3.8272 0
      vertex -4.44972 4.94191 0
      vertex -3.325 5.75907 0
    endloop
  endfacet
  facet normal 0 0 -1
    outer loop
      vertex -5.37996 3.90877 0
      vertex -4.16644 3.02709 0
      vertex -4.70476 2.09469 0
    endloop
  endfacet
  facet normal 0 0 -1
    outer loop
      vertex -6.07508 2.7048 0
      vertex -4.70476 2.09469 0
      vertex -5.03746 1.07074 0
    endloop
  endfacet
  facet normal 0 0 -1
    outer loop
      vertex -4.16644 3.02709 0
      vertex -5.37996 3.90877 0
      vertex -4.44972 4.94191 0
    endloop
  endfacet
  facet normal 0 0 -1
    outer loop
      vertex -6.50468 1.38261 0
      vertex -5.03746 1.07074 0
      vertex -5.15 0 0
    endloop
  endfacet
  facet normal 0 0 -1
    outer loop
      vertex -6.50468 -1.38261 0
      vertex -5.03746 -1.07074 0
      vertex -6.07508 -2.7048 0
    endloop
  endfacet
  facet normal -0 0 -1
    outer loop
      vertex -5.03746 -1.07074 0
      vertex -6.50468 -1.38261 0
      vertex -5.15 0 0
    endloop
  endfacet
  facet normal 0 0 -1
    outer loop
      vertex -4.70476 2.09469 0
      vertex -6.07508 2.7048 0
      vertex -5.37996 3.90877 0
    endloop
  endfacet
  facet normal 0 0 -1
    outer loop
      vertex -6.65 0 0
      vertex -5.15 0 0
      vertex -6.50468 -1.38261 0
    endloop
  endfacet
  facet normal 0 0 -1
    outer loop
      vertex -5.03746 1.07074 0
      vertex -6.50468 1.38261 0
      vertex -6.07508 2.7048 0
    endloop
  endfacet
  facet normal 0 0 -1
    outer loop
      vertex -5.15 0 0
      vertex -6.65 0 0
      vertex -6.50468 1.38261 0
    endloop
  endfacet
  facet normal -0.951058 -0.309013 0
    outer loop
      vertex -6.07508 -2.7048 0
      vertex -6.50468 -1.38261 7
      vertex -6.50468 -1.38261 0
    endloop
  endfacet
  facet normal -0.951058 -0.309013 0
    outer loop
      vertex -6.50468 -1.38261 7
      vertex -6.07508 -2.7048 0
      vertex -6.07508 -2.7048 7
    endloop
  endfacet
  facet normal -0.743146 -0.669129 0
    outer loop
      vertex -4.44972 -4.94191 0
      vertex -5.37996 -3.90877 7
      vertex -5.37996 -3.90877 0
    endloop
  endfacet
  facet normal -0.743146 -0.669129 0
    outer loop
      vertex -5.37996 -3.90877 7
      vertex -4.44972 -4.94191 0
      vertex -4.44972 -4.94191 7
    endloop
  endfacet
  facet normal -0.866023 -0.500004 0
    outer loop
      vertex -5.37996 -3.90877 0
      vertex -6.07508 -2.7048 7
      vertex -6.07508 -2.7048 0
    endloop
  endfacet
  facet normal -0.866023 -0.500004 0
    outer loop
      vertex -6.07508 -2.7048 7
      vertex -5.37996 -3.90877 0
      vertex -5.37996 -3.90877 7
    endloop
  endfacet
  facet normal -0.866026 -0.499999 0
    outer loop
      vertex 4.70476 2.09469 0
      vertex 4.16644 3.02709 7
      vertex 4.16644 3.02709 0
    endloop
  endfacet
  facet normal -0.866026 -0.499999 0
    outer loop
      vertex 4.16644 3.02709 7
      vertex 4.70476 2.09469 0
      vertex 4.70476 2.09469 7
    endloop
  endfacet
  facet normal 0.951057 -0.309016 0
    outer loop
      vertex -5.03746 1.07074 7
      vertex -4.70476 2.09469 0
      vertex -4.70476 2.09469 7
    endloop
  endfacet
  facet normal 0.951057 -0.309016 0
    outer loop
      vertex -4.70476 2.09469 0
      vertex -5.03746 1.07074 7
      vertex -5.03746 1.07074 0
    endloop
  endfacet
  facet normal -0.743146 -0.669129 0
    outer loop
      vertex 4.16644 3.02709 0
      vertex 3.44602 3.8272 7
      vertex 3.44602 3.8272 0
    endloop
  endfacet
  facet normal -0.743146 -0.669129 0
    outer loop
      vertex 3.44602 3.8272 7
      vertex 4.16644 3.02709 0
      vertex 4.16644 3.02709 7
    endloop
  endfacet
  facet normal -0.406737 -0.913545 0
    outer loop
      vertex 1.59144 4.89794 0
      vertex 2.575 4.46003 7
      vertex 1.59144 4.89794 7
    endloop
  endfacet
  facet normal -0.406737 -0.913545 -0
    outer loop
      vertex 2.575 4.46003 7
      vertex 1.59144 4.89794 0
      vertex 2.575 4.46003 0
    endloop
  endfacet
  facet normal 0.406737 -0.913545 0
    outer loop
      vertex -2.575 4.46003 0
      vertex -1.59144 4.89794 7
      vertex -2.575 4.46003 7
    endloop
  endfacet
  facet normal 0.406737 -0.913545 0
    outer loop
      vertex -1.59144 4.89794 7
      vertex -2.575 4.46003 0
      vertex -1.59144 4.89794 0
    endloop
  endfacet
  facet normal -0.994522 0.104529 0
    outer loop
      vertex 5.03746 -1.07074 0
      vertex 5.15 0 7
      vertex 5.15 0 0
    endloop
  endfacet
  facet normal -0.994522 0.104529 0
    outer loop
      vertex 5.15 0 7
      vertex 5.03746 -1.07074 0
      vertex 5.03746 -1.07074 7
    endloop
  endfacet
  facet normal -0.587783 -0.809018 0
    outer loop
      vertex 2.575 4.46003 0
      vertex 3.44602 3.8272 7
      vertex 2.575 4.46003 7
    endloop
  endfacet
  facet normal -0.587783 -0.809018 -0
    outer loop
      vertex 3.44602 3.8272 7
      vertex 2.575 4.46003 0
      vertex 3.44602 3.8272 0
    endloop
  endfacet
  facet normal 0 -1 0
    outer loop
      vertex -0.538321 5.12179 0
      vertex 0.538321 5.12179 7
      vertex -0.538321 5.12179 7
    endloop
  endfacet
  facet normal 0 -1 -0
    outer loop
      vertex 0.538321 5.12179 7
      vertex -0.538321 5.12179 0
      vertex 0.538321 5.12179 0
    endloop
  endfacet
  facet normal 0.994522 -0.104529 0
    outer loop
      vertex -5.15 0 7
      vertex -5.03746 1.07074 0
      vertex -5.03746 1.07074 7
    endloop
  endfacet
  facet normal 0.994522 -0.104529 0
    outer loop
      vertex -5.03746 1.07074 0
      vertex -5.15 0 7
      vertex -5.15 0 0
    endloop
  endfacet
  facet normal 0.866026 -0.499999 0
    outer loop
      vertex -4.70476 2.09469 7
      vertex -4.16644 3.02709 0
      vertex -4.16644 3.02709 7
    endloop
  endfacet
  facet normal 0.866026 -0.499999 0
    outer loop
      vertex -4.16644 3.02709 0
      vertex -4.70476 2.09469 7
      vertex -4.70476 2.09469 0
    endloop
  endfacet
  facet normal 0.587783 -0.809018 0
    outer loop
      vertex -3.44602 3.8272 0
      vertex -2.575 4.46003 7
      vertex -3.44602 3.8272 7
    endloop
  endfacet
  facet normal 0.587783 -0.809018 0
    outer loop
      vertex -2.575 4.46003 7
      vertex -3.44602 3.8272 0
      vertex -2.575 4.46003 0
    endloop
  endfacet
  facet normal 0.207914 -0.978147 0
    outer loop
      vertex -1.59144 4.89794 0
      vertex -0.538321 5.12179 7
      vertex -1.59144 4.89794 7
    endloop
  endfacet
  facet normal 0.207914 -0.978147 0
    outer loop
      vertex -0.538321 5.12179 7
      vertex -1.59144 4.89794 0
      vertex -0.538321 5.12179 0
    endloop
  endfacet
  facet normal 0.743146 -0.669129 0
    outer loop
      vertex -4.16644 3.02709 7
      vertex -3.44602 3.8272 0
      vertex -3.44602 3.8272 7
    endloop
  endfacet
  facet normal 0.743146 -0.669129 0
    outer loop
      vertex -3.44602 3.8272 0
      vertex -4.16644 3.02709 7
      vertex -4.16644 3.02709 0
    endloop
  endfacet
  facet normal -0.994522 -0.104529 0
    outer loop
      vertex 5.15 0 0
      vertex 5.03746 1.07074 7
      vertex 5.03746 1.07074 0
    endloop
  endfacet
  facet normal -0.994522 -0.104529 0
    outer loop
      vertex 5.03746 1.07074 7
      vertex 5.15 0 0
      vertex 5.15 0 7
    endloop
  endfacet
  facet normal 0.207914 0.978147 -0
    outer loop
      vertex -0.538321 -5.12179 0
      vertex -1.59144 -4.89794 7
      vertex -0.538321 -5.12179 7
    endloop
  endfacet
  facet normal 0.207914 0.978147 0
    outer loop
      vertex -1.59144 -4.89794 7
      vertex -0.538321 -5.12179 0
      vertex -1.59144 -4.89794 0
    endloop
  endfacet
  facet normal -0.587783 0.809018 0
    outer loop
      vertex 3.44602 -3.8272 0
      vertex 2.575 -4.46003 7
      vertex 3.44602 -3.8272 7
    endloop
  endfacet
  facet normal -0.587783 0.809018 0
    outer loop
      vertex 2.575 -4.46003 7
      vertex 3.44602 -3.8272 0
      vertex 2.575 -4.46003 0
    endloop
  endfacet
  facet normal -0.951057 -0.309016 0
    outer loop
      vertex 5.03746 1.07074 0
      vertex 4.70476 2.09469 7
      vertex 4.70476 2.09469 0
    endloop
  endfacet
  facet normal -0.951057 -0.309016 0
    outer loop
      vertex 4.70476 2.09469 7
      vertex 5.03746 1.07074 0
      vertex 5.03746 1.07074 7
    endloop
  endfacet
  facet normal -0.207914 -0.978147 0
    outer loop
      vertex 0.538321 5.12179 0
      vertex 1.59144 4.89794 7
      vertex 0.538321 5.12179 7
    endloop
  endfacet
  facet normal -0.207914 -0.978147 -0
    outer loop
      vertex 1.59144 4.89794 7
      vertex 0.538321 5.12179 0
      vertex 1.59144 4.89794 0
    endloop
  endfacet
  facet normal -0.951057 0.309016 0
    outer loop
      vertex 4.70476 -2.09469 0
      vertex 5.03746 -1.07074 7
      vertex 5.03746 -1.07074 0
    endloop
  endfacet
  facet normal -0.951057 0.309016 0
    outer loop
      vertex 5.03746 -1.07074 7
      vertex 4.70476 -2.09469 0
      vertex 4.70476 -2.09469 7
    endloop
  endfacet
  facet normal -0.866026 0.499999 0
    outer loop
      vertex 4.16644 -3.02709 0
      vertex 4.70476 -2.09469 7
      vertex 4.70476 -2.09469 0
    endloop
  endfacet
  facet normal -0.866026 0.499999 0
    outer loop
      vertex 4.70476 -2.09469 7
      vertex 4.16644 -3.02709 0
      vertex 4.16644 -3.02709 7
    endloop
  endfacet
  facet normal 0.994522 0.104529 0
    outer loop
      vertex -5.03746 -1.07074 7
      vertex -5.15 0 0
      vertex -5.15 0 7
    endloop
  endfacet
  facet normal 0.994522 0.104529 0
    outer loop
      vertex -5.15 0 0
      vertex -5.03746 -1.07074 7
      vertex -5.03746 -1.07074 0
    endloop
  endfacet
  facet normal 0.866026 0.499999 0
    outer loop
      vertex -4.16644 -3.02709 7
      vertex -4.70476 -2.09469 0
      vertex -4.70476 -2.09469 7
    endloop
  endfacet
  facet normal 0.866026 0.499999 0
    outer loop
      vertex -4.70476 -2.09469 0
      vertex -4.16644 -3.02709 7
      vertex -4.16644 -3.02709 0
    endloop
  endfacet
  facet normal -0.207914 0.978147 0
    outer loop
      vertex 1.59144 -4.89794 0
      vertex 0.538321 -5.12179 7
      vertex 1.59144 -4.89794 7
    endloop
  endfacet
  facet normal -0.207914 0.978147 0
    outer loop
      vertex 0.538321 -5.12179 7
      vertex 1.59144 -4.89794 0
      vertex 0.538321 -5.12179 0
    endloop
  endfacet
  facet normal -0.406737 0.913545 0
    outer loop
      vertex 2.575 -4.46003 0
      vertex 1.59144 -4.89794 7
      vertex 2.575 -4.46003 7
    endloop
  endfacet
  facet normal -0.406737 0.913545 0
    outer loop
      vertex 1.59144 -4.89794 7
      vertex 2.575 -4.46003 0
      vertex 1.59144 -4.89794 0
    endloop
  endfacet
  facet normal -0.743146 0.669129 0
    outer loop
      vertex 3.44602 -3.8272 0
      vertex 4.16644 -3.02709 7
      vertex 4.16644 -3.02709 0
    endloop
  endfacet
  facet normal -0.743146 0.669129 0
    outer loop
      vertex 4.16644 -3.02709 7
      vertex 3.44602 -3.8272 0
      vertex 3.44602 -3.8272 7
    endloop
  endfacet
  facet normal 0.406737 0.913545 -0
    outer loop
      vertex -1.59144 -4.89794 0
      vertex -2.575 -4.46003 7
      vertex -1.59144 -4.89794 7
    endloop
  endfacet
  facet normal 0.406737 0.913545 0
    outer loop
      vertex -2.575 -4.46003 7
      vertex -1.59144 -4.89794 0
      vertex -2.575 -4.46003 0
    endloop
  endfacet
  facet normal 0 1 -0
    outer loop
      vertex 0.538321 -5.12179 0
      vertex -0.538321 -5.12179 7
      vertex 0.538321 -5.12179 7
    endloop
  endfacet
  facet normal 0 1 0
    outer loop
      vertex -0.538321 -5.12179 7
      vertex 0.538321 -5.12179 0
      vertex -0.538321 -5.12179 0
    endloop
  endfacet
  facet normal 0.951057 0.309016 0
    outer loop
      vertex -4.70476 -2.09469 7
      vertex -5.03746 -1.07074 0
      vertex -5.03746 -1.07074 7
    endloop
  endfacet
  facet normal 0.951057 0.309016 0
    outer loop
      vertex -5.03746 -1.07074 0
      vertex -4.70476 -2.09469 7
      vertex -4.70476 -2.09469 0
    endloop
  endfacet
  facet normal 0.743146 0.669129 0
    outer loop
      vertex -3.44602 -3.8272 7
      vertex -4.16644 -3.02709 0
      vertex -4.16644 -3.02709 7
    endloop
  endfacet
  facet normal 0.743146 0.669129 0
    outer loop
      vertex -4.16644 -3.02709 0
      vertex -3.44602 -3.8272 7
      vertex -3.44602 -3.8272 0
    endloop
  endfacet
  facet normal 0.587783 0.809018 -0
    outer loop
      vertex -2.575 -4.46003 0
      vertex -3.44602 -3.8272 7
      vertex -2.575 -4.46003 7
    endloop
  endfacet
  facet normal 0.587783 0.809018 0
    outer loop
      vertex -3.44602 -3.8272 7
      vertex -2.575 -4.46003 0
      vertex -3.44602 -3.8272 0
    endloop
  endfacet
endsolid OpenSCAD_Model
