solid OpenSCAD_Model
  facet normal 0.707107 0.707107 0
    outer loop
      vertex 25 3.99138 5
      vertex 4.99138 24 0
      vertex 4.99138 24 5
    endloop
  endfacet
  facet normal 0.707107 0.707107 0
    outer loop
      vertex 4.99138 24 0
      vertex 25 3.99138 5
      vertex 25 3.99138 0
    endloop
  endfacet
  facet normal -0 0 1
    outer loop
      vertex 7.6349 12.1697 5
      vertex 25 3.99138 5
      vertex 7.65 12.65 5
    endloop
  endfacet
  facet normal 0 0 1
    outer loop
      vertex 25 3.99138 5
      vertex 7.6349 13.1303 5
      vertex 7.65 12.65 5
    endloop
  endfacet
  facet normal 0 0 1
    outer loop
      vertex 25 3.99138 5
      vertex 7.58968 13.6088 5
      vertex 7.6349 13.1303 5
    endloop
  endfacet
  facet normal 0 0 1
    outer loop
      vertex 25 3.99138 5
      vertex 7.5145 14.0835 5
      vertex 7.58968 13.6088 5
    endloop
  endfacet
  facet normal 0 0 1
    outer loop
      vertex 25 3.99138 5
      vertex 7.40966 14.5525 5
      vertex 7.5145 14.0835 5
    endloop
  endfacet
  facet normal 0 0 1
    outer loop
      vertex 25 3.99138 5
      vertex 7.27558 15.014 5
      vertex 7.40966 14.5525 5
    endloop
  endfacet
  facet normal 0 0 1
    outer loop
      vertex 25 3.99138 5
      vertex 7.11279 15.4662 5
      vertex 7.27558 15.014 5
    endloop
  endfacet
  facet normal 0 0 1
    outer loop
      vertex 25 3.99138 5
      vertex 6.92193 15.9072 5
      vertex 7.11279 15.4662 5
    endloop
  endfacet
  facet normal 0 0 1
    outer loop
      vertex 4.99138 24 5
      vertex 6.92193 15.9072 5
      vertex 25 3.99138 5
    endloop
  endfacet
  facet normal 0 0 1
    outer loop
      vertex 6.92193 15.9072 5
      vertex 4.99138 24 5
      vertex 6.70375 16.3354 5
    endloop
  endfacet
  facet normal 0 0 1
    outer loop
      vertex 6.70375 16.3354 5
      vertex 4.99138 24 5
      vertex 6.45911 16.7491 5
    endloop
  endfacet
  facet normal 0 0 1
    outer loop
      vertex 6.45911 16.7491 5
      vertex 4.99138 24 5
      vertex 6.18898 17.1466 5
    endloop
  endfacet
  facet normal 0 0 1
    outer loop
      vertex 6.18898 17.1466 5
      vertex 4.99138 24 5
      vertex 5.89443 17.5263 5
    endloop
  endfacet
  facet normal 0 0 1
    outer loop
      vertex 5.89443 17.5263 5
      vertex 4.99138 24 5
      vertex 5.57661 17.8868 5
    endloop
  endfacet
  facet normal 0 0 1
    outer loop
      vertex 5.57661 17.8868 5
      vertex 4.99138 24 5
      vertex 5.23678 18.2266 5
    endloop
  endfacet
  facet normal 0 0 1
    outer loop
      vertex 4.99138 24 5
      vertex 4.87629 18.5444 5
      vertex 5.23678 18.2266 5
    endloop
  endfacet
  facet normal 0 0 1
    outer loop
      vertex 4.99138 24 5
      vertex 4.49656 18.839 5
      vertex 4.87629 18.5444 5
    endloop
  endfacet
  facet normal 0 0 1
    outer loop
      vertex 4.99138 24 5
      vertex 4.09907 19.1091 5
      vertex 4.49656 18.839 5
    endloop
  endfacet
  facet normal 0 0 1
    outer loop
      vertex 4.99138 24 5
      vertex 3.68542 19.3537 5
      vertex 4.09907 19.1091 5
    endloop
  endfacet
  facet normal 0 0 1
    outer loop
      vertex 4.99138 24 5
      vertex 3.25721 19.5719 5
      vertex 3.68542 19.3537 5
    endloop
  endfacet
  facet normal 0 0 1
    outer loop
      vertex 4.99138 24 5
      vertex 2.81615 19.7628 5
      vertex 3.25721 19.5719 5
    endloop
  endfacet
  facet normal 0 0 1
    outer loop
      vertex 4.99138 24 5
      vertex 2.36398 19.9256 5
      vertex 2.81615 19.7628 5
    endloop
  endfacet
  facet normal 0 0 1
    outer loop
      vertex 4.99138 24 5
      vertex 1.90248 20.0597 5
      vertex 2.36398 19.9256 5
    endloop
  endfacet
  facet normal 0 0 1
    outer loop
      vertex 4.99138 24 5
      vertex 1.43347 20.1645 5
      vertex 1.90248 20.0597 5
    endloop
  endfacet
  facet normal 0 0 1
    outer loop
      vertex 4.99138 24 5
      vertex 0.958798 20.2397 5
      vertex 1.43347 20.1645 5
    endloop
  endfacet
  facet normal 0 0 1
    outer loop
      vertex 4.99138 24 5
      vertex 0.480347 20.2849 5
      vertex 0.958798 20.2397 5
    endloop
  endfacet
  facet normal 0 0 1
    outer loop
      vertex 4.99138 24 5
      vertex 0 20.3 5
      vertex 0.480347 20.2849 5
    endloop
  endfacet
  facet normal -0 0 1
    outer loop
      vertex -4.99138 24 5
      vertex 0 20.3 5
      vertex 4.99138 24 5
    endloop
  endfacet
  facet normal 0 0 1
    outer loop
      vertex 0 20.3 5
      vertex -4.99138 24 5
      vertex -0.480347 20.2849 5
    endloop
  endfacet
  facet normal 0 0 1
    outer loop
      vertex -0.480347 20.2849 5
      vertex -4.99138 24 5
      vertex -0.958798 20.2397 5
    endloop
  endfacet
  facet normal 0 0 1
    outer loop
      vertex -0.958798 20.2397 5
      vertex -4.99138 24 5
      vertex -1.43347 20.1645 5
    endloop
  endfacet
  facet normal 0 0 1
    outer loop
      vertex -1.43347 20.1645 5
      vertex -4.99138 24 5
      vertex -1.90248 20.0597 5
    endloop
  endfacet
  facet normal 0 0 1
    outer loop
      vertex -1.90248 20.0597 5
      vertex -4.99138 24 5
      vertex -2.36398 19.9256 5
    endloop
  endfacet
  facet normal 0 0 1
    outer loop
      vertex -2.36398 19.9256 5
      vertex -4.99138 24 5
      vertex -2.81615 19.7628 5
    endloop
  endfacet
  facet normal 0 0 1
    outer loop
      vertex -2.81615 19.7628 5
      vertex -4.99138 24 5
      vertex -3.25721 19.5719 5
    endloop
  endfacet
  facet normal 0 0 1
    outer loop
      vertex -3.25721 19.5719 5
      vertex -4.99138 24 5
      vertex -3.68542 19.3537 5
    endloop
  endfacet
  facet normal 0 0 1
    outer loop
      vertex -4.99138 24 5
      vertex -4.09907 19.1091 5
      vertex -3.68542 19.3537 5
    endloop
  endfacet
  facet normal 0 0 1
    outer loop
      vertex -4.99138 24 5
      vertex -4.49656 18.839 5
      vertex -4.09907 19.1091 5
    endloop
  endfacet
  facet normal 0 0 1
    outer loop
      vertex -4.99138 24 5
      vertex -4.87629 18.5444 5
      vertex -4.49656 18.839 5
    endloop
  endfacet
  facet normal 0 0 1
    outer loop
      vertex -4.99138 24 5
      vertex -5.23678 18.2266 5
      vertex -4.87629 18.5444 5
    endloop
  endfacet
  facet normal 0 0 1
    outer loop
      vertex -4.99138 24 5
      vertex -5.57661 17.8868 5
      vertex -5.23678 18.2266 5
    endloop
  endfacet
  facet normal 0 0 1
    outer loop
      vertex -4.99138 24 5
      vertex -5.89443 17.5263 5
      vertex -5.57661 17.8868 5
    endloop
  endfacet
  facet normal 0 0 1
    outer loop
      vertex -4.99138 24 5
      vertex -6.18898 17.1466 5
      vertex -5.89443 17.5263 5
    endloop
  endfacet
  facet normal 0 0 1
    outer loop
      vertex -4.99138 24 5
      vertex -6.45911 16.7491 5
      vertex -6.18898 17.1466 5
    endloop
  endfacet
  facet normal 0 0 1
    outer loop
      vertex -4.99138 24 5
      vertex -6.70375 16.3354 5
      vertex -6.45911 16.7491 5
    endloop
  endfacet
  facet normal 0 0 1
    outer loop
      vertex -4.99138 24 5
      vertex -6.92193 15.9072 5
      vertex -6.70375 16.3354 5
    endloop
  endfacet
  facet normal 0 0 1
    outer loop
      vertex -25 3.99138 5
      vertex -6.92193 15.9072 5
      vertex -4.99138 24 5
    endloop
  endfacet
  facet normal 0 0 1
    outer loop
      vertex -6.92193 15.9072 5
      vertex -25 3.99138 5
      vertex -7.11279 15.4662 5
    endloop
  endfacet
  facet normal 0 0 1
    outer loop
      vertex -7.11279 15.4662 5
      vertex -25 3.99138 5
      vertex -7.27558 15.014 5
    endloop
  endfacet
  facet normal 0 0 1
    outer loop
      vertex -7.6349 13.1303 5
      vertex -25 3.99138 5
      vertex -7.65 12.65 5
    endloop
  endfacet
  facet normal 0 0 1
    outer loop
      vertex -7.58968 13.6088 5
      vertex -25 3.99138 5
      vertex -7.6349 13.1303 5
    endloop
  endfacet
  facet normal 0 0 1
    outer loop
      vertex -7.5145 14.0835 5
      vertex -25 3.99138 5
      vertex -7.58968 13.6088 5
    endloop
  endfacet
  facet normal 0 0 1
    outer loop
      vertex -7.40966 14.5525 5
      vertex -25 3.99138 5
      vertex -7.5145 14.0835 5
    endloop
  endfacet
  facet normal 0 0 1
    outer loop
      vertex -7.27558 15.014 5
      vertex -25 3.99138 5
      vertex -7.40966 14.5525 5
    endloop
  endfacet
  facet normal -0 0 1
    outer loop
      vertex 7.58968 11.6912 5
      vertex 25 3.99138 5
      vertex 7.6349 12.1697 5
    endloop
  endfacet
  facet normal -0 0 1
    outer loop
      vertex 7.5145 11.2165 5
      vertex 25 3.99138 5
      vertex 7.58968 11.6912 5
    endloop
  endfacet
  facet normal -0 0 1
    outer loop
      vertex 7.40966 10.7475 5
      vertex 25 3.99138 5
      vertex 7.5145 11.2165 5
    endloop
  endfacet
  facet normal -0 0 1
    outer loop
      vertex 7.27558 10.286 5
      vertex 25 3.99138 5
      vertex 7.40966 10.7475 5
    endloop
  endfacet
  facet normal -0 0 1
    outer loop
      vertex 7.11279 9.83385 5
      vertex 25 3.99138 5
      vertex 7.27558 10.286 5
    endloop
  endfacet
  facet normal -0 0 1
    outer loop
      vertex 6.92193 9.39279 5
      vertex 25 3.99138 5
      vertex 7.11279 9.83385 5
    endloop
  endfacet
  facet normal -0 0 1
    outer loop
      vertex 6.70375 8.96458 5
      vertex 25 3.99138 5
      vertex 6.92193 9.39279 5
    endloop
  endfacet
  facet normal -0 0 1
    outer loop
      vertex 6.45911 8.55092 5
      vertex 25 3.99138 5
      vertex 6.70375 8.96458 5
    endloop
  endfacet
  facet normal -0 0 1
    outer loop
      vertex 6.18898 8.15344 5
      vertex 25 3.99138 5
      vertex 6.45911 8.55092 5
    endloop
  endfacet
  facet normal 0 0 1
    outer loop
      vertex 25 3.99138 5
      vertex 6.18898 8.15344 5
      vertex 25 0 5
    endloop
  endfacet
  facet normal -0 0 1
    outer loop
      vertex 5.89443 7.77371 5
      vertex 25 0 5
      vertex 6.18898 8.15344 5
    endloop
  endfacet
  facet normal -0 0 1
    outer loop
      vertex 5.57661 7.41321 5
      vertex 25 0 5
      vertex 5.89443 7.77371 5
    endloop
  endfacet
  facet normal -0 0 1
    outer loop
      vertex 5.23678 7.07339 5
      vertex 25 0 5
      vertex 5.57661 7.41321 5
    endloop
  endfacet
  facet normal -0 0 1
    outer loop
      vertex 4.87629 6.75557 5
      vertex 25 0 5
      vertex 5.23678 7.07339 5
    endloop
  endfacet
  facet normal -0 0 1
    outer loop
      vertex 4.49656 6.46102 5
      vertex 25 0 5
      vertex 4.87629 6.75557 5
    endloop
  endfacet
  facet normal -0 0 1
    outer loop
      vertex 4.09907 6.19089 5
      vertex 25 0 5
      vertex 4.49656 6.46102 5
    endloop
  endfacet
  facet normal -0 0 1
    outer loop
      vertex 3.68542 5.94625 5
      vertex 25 0 5
      vertex 4.09907 6.19089 5
    endloop
  endfacet
  facet normal -0 0 1
    outer loop
      vertex 3.25721 5.72807 5
      vertex 25 0 5
      vertex 3.68542 5.94625 5
    endloop
  endfacet
  facet normal -0 0 1
    outer loop
      vertex 2.81615 5.53721 5
      vertex 25 0 5
      vertex 3.25721 5.72807 5
    endloop
  endfacet
  facet normal -0 0 1
    outer loop
      vertex 2.36398 5.37442 5
      vertex 25 0 5
      vertex 2.81615 5.53721 5
    endloop
  endfacet
  facet normal -0 0 1
    outer loop
      vertex 1.90248 5.24034 5
      vertex 25 0 5
      vertex 2.36398 5.37442 5
    endloop
  endfacet
  facet normal -0 0 1
    outer loop
      vertex 1.43347 5.1355 5
      vertex 25 0 5
      vertex 1.90248 5.24034 5
    endloop
  endfacet
  facet normal -0 0 1
    outer loop
      vertex 0.958798 5.06032 5
      vertex 25 0 5
      vertex 1.43347 5.1355 5
    endloop
  endfacet
  facet normal -0 0 1
    outer loop
      vertex 0.480347 5.01509 5
      vertex 25 0 5
      vertex 0.958798 5.06032 5
    endloop
  endfacet
  facet normal -0 0 1
    outer loop
      vertex 0 5 5
      vertex 25 0 5
      vertex 0.480347 5.01509 5
    endloop
  endfacet
  facet normal 0 0 1
    outer loop
      vertex -25 0 5
      vertex 0 5 5
      vertex -0.480347 5.01509 5
    endloop
  endfacet
  facet normal 0 0 1
    outer loop
      vertex -25 0 5
      vertex -0.480347 5.01509 5
      vertex -0.958798 5.06032 5
    endloop
  endfacet
  facet normal 0 0 1
    outer loop
      vertex -25 0 5
      vertex -0.958798 5.06032 5
      vertex -1.43347 5.1355 5
    endloop
  endfacet
  facet normal 0 0 1
    outer loop
      vertex -25 3.99138 5
      vertex -7.6349 12.1697 5
      vertex -7.65 12.65 5
    endloop
  endfacet
  facet normal 0 0 1
    outer loop
      vertex -25 3.99138 5
      vertex -7.58968 11.6912 5
      vertex -7.6349 12.1697 5
    endloop
  endfacet
  facet normal 0 0 1
    outer loop
      vertex -25 3.99138 5
      vertex -7.5145 11.2165 5
      vertex -7.58968 11.6912 5
    endloop
  endfacet
  facet normal 0 0 1
    outer loop
      vertex -25 3.99138 5
      vertex -7.40966 10.7475 5
      vertex -7.5145 11.2165 5
    endloop
  endfacet
  facet normal 0 0 1
    outer loop
      vertex -25 3.99138 5
      vertex -7.27558 10.286 5
      vertex -7.40966 10.7475 5
    endloop
  endfacet
  facet normal 0 0 1
    outer loop
      vertex -25 3.99138 5
      vertex -7.11279 9.83385 5
      vertex -7.27558 10.286 5
    endloop
  endfacet
  facet normal 0 0 1
    outer loop
      vertex -25 3.99138 5
      vertex -6.92193 9.39279 5
      vertex -7.11279 9.83385 5
    endloop
  endfacet
  facet normal 0 0 1
    outer loop
      vertex -25 3.99138 5
      vertex -6.70375 8.96458 5
      vertex -6.92193 9.39279 5
    endloop
  endfacet
  facet normal 0 0 1
    outer loop
      vertex -25 3.99138 5
      vertex -6.45911 8.55092 5
      vertex -6.70375 8.96458 5
    endloop
  endfacet
  facet normal 0 0 1
    outer loop
      vertex -25 3.99138 5
      vertex -6.18898 8.15344 5
      vertex -6.45911 8.55092 5
    endloop
  endfacet
  facet normal 0 0 1
    outer loop
      vertex -25 0 5
      vertex -6.18898 8.15344 5
      vertex -25 3.99138 5
    endloop
  endfacet
  facet normal 0 0 1
    outer loop
      vertex -6.18898 8.15344 5
      vertex -25 0 5
      vertex -5.89443 7.77371 5
    endloop
  endfacet
  facet normal 0 0 1
    outer loop
      vertex -5.89443 7.77371 5
      vertex -25 0 5
      vertex -5.57661 7.41321 5
    endloop
  endfacet
  facet normal 0 0 1
    outer loop
      vertex -5.57661 7.41321 5
      vertex -25 0 5
      vertex -5.23678 7.07339 5
    endloop
  endfacet
  facet normal 0 0 1
    outer loop
      vertex -5.23678 7.07339 5
      vertex -25 0 5
      vertex -4.87629 6.75557 5
    endloop
  endfacet
  facet normal 0 0 1
    outer loop
      vertex -4.87629 6.75557 5
      vertex -25 0 5
      vertex -4.49656 6.46102 5
    endloop
  endfacet
  facet normal 0 0 1
    outer loop
      vertex -4.49656 6.46102 5
      vertex -25 0 5
      vertex -4.09907 6.19089 5
    endloop
  endfacet
  facet normal 0 0 1
    outer loop
      vertex -4.09907 6.19089 5
      vertex -25 0 5
      vertex -3.68542 5.94625 5
    endloop
  endfacet
  facet normal 0 0 1
    outer loop
      vertex -3.68542 5.94625 5
      vertex -25 0 5
      vertex -3.25721 5.72807 5
    endloop
  endfacet
  facet normal 0 0 1
    outer loop
      vertex -3.25721 5.72807 5
      vertex -25 0 5
      vertex -2.81615 5.53721 5
    endloop
  endfacet
  facet normal 0 0 1
    outer loop
      vertex -2.81615 5.53721 5
      vertex -25 0 5
      vertex -2.36398 5.37442 5
    endloop
  endfacet
  facet normal 0 0 1
    outer loop
      vertex -2.36398 5.37442 5
      vertex -25 0 5
      vertex -1.90248 5.24034 5
    endloop
  endfacet
  facet normal 0 0 1
    outer loop
      vertex -1.90248 5.24034 5
      vertex -25 0 5
      vertex -1.43347 5.1355 5
    endloop
  endfacet
  facet normal 0 0 1
    outer loop
      vertex 0 5 5
      vertex -25 0 5
      vertex 25 0 5
    endloop
  endfacet
  facet normal 0 0 -1
    outer loop
      vertex 6.18898 8.15344 0
      vertex 25 3.99138 0
      vertex 25 0 0
    endloop
  endfacet
  facet normal 0 0 -1
    outer loop
      vertex 25 3.99138 0
      vertex 7.6349 12.1697 0
      vertex 7.65 12.65 0
    endloop
  endfacet
  facet normal 0 0 -1
    outer loop
      vertex 25 3.99138 0
      vertex 7.58968 11.6912 0
      vertex 7.6349 12.1697 0
    endloop
  endfacet
  facet normal 0 0 -1
    outer loop
      vertex 25 3.99138 0
      vertex 7.5145 11.2165 0
      vertex 7.58968 11.6912 0
    endloop
  endfacet
  facet normal 0 0 -1
    outer loop
      vertex 25 3.99138 0
      vertex 7.40966 10.7475 0
      vertex 7.5145 11.2165 0
    endloop
  endfacet
  facet normal 0 0 -1
    outer loop
      vertex 25 3.99138 0
      vertex 7.27558 10.286 0
      vertex 7.40966 10.7475 0
    endloop
  endfacet
  facet normal 0 0 -1
    outer loop
      vertex 25 3.99138 0
      vertex 7.11279 9.83385 0
      vertex 7.27558 10.286 0
    endloop
  endfacet
  facet normal 0 0 -1
    outer loop
      vertex 25 3.99138 0
      vertex 6.92193 9.39279 0
      vertex 7.11279 9.83385 0
    endloop
  endfacet
  facet normal 0 0 -1
    outer loop
      vertex 25 3.99138 0
      vertex 6.70375 8.96458 0
      vertex 6.92193 9.39279 0
    endloop
  endfacet
  facet normal 0 0 -1
    outer loop
      vertex 25 3.99138 0
      vertex 6.45911 8.55092 0
      vertex 6.70375 8.96458 0
    endloop
  endfacet
  facet normal 0 0 -1
    outer loop
      vertex 25 3.99138 0
      vertex 6.18898 8.15344 0
      vertex 6.45911 8.55092 0
    endloop
  endfacet
  facet normal 0 0 -1
    outer loop
      vertex 25 0 0
      vertex 5.89443 7.77371 0
      vertex 6.18898 8.15344 0
    endloop
  endfacet
  facet normal 0 0 -1
    outer loop
      vertex 25 0 0
      vertex 5.57661 7.41321 0
      vertex 5.89443 7.77371 0
    endloop
  endfacet
  facet normal 0 0 -1
    outer loop
      vertex 25 0 0
      vertex 5.23678 7.07339 0
      vertex 5.57661 7.41321 0
    endloop
  endfacet
  facet normal 0 0 -1
    outer loop
      vertex 25 0 0
      vertex 4.87629 6.75557 0
      vertex 5.23678 7.07339 0
    endloop
  endfacet
  facet normal 0 0 -1
    outer loop
      vertex 25 0 0
      vertex 4.49656 6.46102 0
      vertex 4.87629 6.75557 0
    endloop
  endfacet
  facet normal 0 0 -1
    outer loop
      vertex 25 0 0
      vertex 4.09907 6.19089 0
      vertex 4.49656 6.46102 0
    endloop
  endfacet
  facet normal 0 0 -1
    outer loop
      vertex 25 0 0
      vertex 3.68542 5.94625 0
      vertex 4.09907 6.19089 0
    endloop
  endfacet
  facet normal 0 0 -1
    outer loop
      vertex 25 0 0
      vertex 3.25721 5.72807 0
      vertex 3.68542 5.94625 0
    endloop
  endfacet
  facet normal 0 0 -1
    outer loop
      vertex 25 0 0
      vertex 2.81615 5.53721 0
      vertex 3.25721 5.72807 0
    endloop
  endfacet
  facet normal 0 0 -1
    outer loop
      vertex 25 0 0
      vertex 2.36398 5.37442 0
      vertex 2.81615 5.53721 0
    endloop
  endfacet
  facet normal 0 0 -1
    outer loop
      vertex 25 0 0
      vertex 1.90248 5.24034 0
      vertex 2.36398 5.37442 0
    endloop
  endfacet
  facet normal 0 0 -1
    outer loop
      vertex 25 0 0
      vertex 1.43347 5.1355 0
      vertex 1.90248 5.24034 0
    endloop
  endfacet
  facet normal 0 0 -1
    outer loop
      vertex 25 0 0
      vertex 0.958798 5.06032 0
      vertex 1.43347 5.1355 0
    endloop
  endfacet
  facet normal 0 0 -1
    outer loop
      vertex 25 0 0
      vertex 0.480347 5.01509 0
      vertex 0.958798 5.06032 0
    endloop
  endfacet
  facet normal 0 0 -1
    outer loop
      vertex 25 0 0
      vertex 0 5 0
      vertex 0.480347 5.01509 0
    endloop
  endfacet
  facet normal 0 0 -1
    outer loop
      vertex -25 0 0
      vertex 0 5 0
      vertex 25 0 0
    endloop
  endfacet
  facet normal -0 0 -1
    outer loop
      vertex 0 5 0
      vertex -25 0 0
      vertex -0.480347 5.01509 0
    endloop
  endfacet
  facet normal -0 0 -1
    outer loop
      vertex -0.480347 5.01509 0
      vertex -25 0 0
      vertex -0.958798 5.06032 0
    endloop
  endfacet
  facet normal -0 0 -1
    outer loop
      vertex -7.58968 11.6912 0
      vertex -25 3.99138 0
      vertex -7.6349 12.1697 0
    endloop
  endfacet
  facet normal -0 0 -1
    outer loop
      vertex -7.5145 11.2165 0
      vertex -25 3.99138 0
      vertex -7.58968 11.6912 0
    endloop
  endfacet
  facet normal -0 0 -1
    outer loop
      vertex -7.40966 10.7475 0
      vertex -25 3.99138 0
      vertex -7.5145 11.2165 0
    endloop
  endfacet
  facet normal -0 0 -1
    outer loop
      vertex -7.27558 10.286 0
      vertex -25 3.99138 0
      vertex -7.40966 10.7475 0
    endloop
  endfacet
  facet normal -0 0 -1
    outer loop
      vertex -7.11279 9.83385 0
      vertex -25 3.99138 0
      vertex -7.27558 10.286 0
    endloop
  endfacet
  facet normal -0 0 -1
    outer loop
      vertex -6.92193 9.39279 0
      vertex -25 3.99138 0
      vertex -7.11279 9.83385 0
    endloop
  endfacet
  facet normal -0 0 -1
    outer loop
      vertex -6.70375 8.96458 0
      vertex -25 3.99138 0
      vertex -6.92193 9.39279 0
    endloop
  endfacet
  facet normal -0 0 -1
    outer loop
      vertex -6.45911 8.55092 0
      vertex -25 3.99138 0
      vertex -6.70375 8.96458 0
    endloop
  endfacet
  facet normal -0 0 -1
    outer loop
      vertex -6.18898 8.15344 0
      vertex -25 3.99138 0
      vertex -6.45911 8.55092 0
    endloop
  endfacet
  facet normal 0 0 -1
    outer loop
      vertex -25 3.99138 0
      vertex -6.18898 8.15344 0
      vertex -25 0 0
    endloop
  endfacet
  facet normal -0 0 -1
    outer loop
      vertex -5.89443 7.77371 0
      vertex -25 0 0
      vertex -6.18898 8.15344 0
    endloop
  endfacet
  facet normal -0 0 -1
    outer loop
      vertex -5.57661 7.41321 0
      vertex -25 0 0
      vertex -5.89443 7.77371 0
    endloop
  endfacet
  facet normal -0 0 -1
    outer loop
      vertex -5.23678 7.07339 0
      vertex -25 0 0
      vertex -5.57661 7.41321 0
    endloop
  endfacet
  facet normal -0 0 -1
    outer loop
      vertex -4.87629 6.75557 0
      vertex -25 0 0
      vertex -5.23678 7.07339 0
    endloop
  endfacet
  facet normal -0 0 -1
    outer loop
      vertex -4.49656 6.46102 0
      vertex -25 0 0
      vertex -4.87629 6.75557 0
    endloop
  endfacet
  facet normal -0 0 -1
    outer loop
      vertex -4.09907 6.19089 0
      vertex -25 0 0
      vertex -4.49656 6.46102 0
    endloop
  endfacet
  facet normal -0 0 -1
    outer loop
      vertex -3.68542 5.94625 0
      vertex -25 0 0
      vertex -4.09907 6.19089 0
    endloop
  endfacet
  facet normal -0 0 -1
    outer loop
      vertex -3.25721 5.72807 0
      vertex -25 0 0
      vertex -3.68542 5.94625 0
    endloop
  endfacet
  facet normal -0 0 -1
    outer loop
      vertex -2.81615 5.53721 0
      vertex -25 0 0
      vertex -3.25721 5.72807 0
    endloop
  endfacet
  facet normal -0 0 -1
    outer loop
      vertex -2.36398 5.37442 0
      vertex -25 0 0
      vertex -2.81615 5.53721 0
    endloop
  endfacet
  facet normal -0 0 -1
    outer loop
      vertex -1.90248 5.24034 0
      vertex -25 0 0
      vertex -2.36398 5.37442 0
    endloop
  endfacet
  facet normal -0 0 -1
    outer loop
      vertex -1.43347 5.1355 0
      vertex -25 0 0
      vertex -1.90248 5.24034 0
    endloop
  endfacet
  facet normal -0 0 -1
    outer loop
      vertex -0.958798 5.06032 0
      vertex -25 0 0
      vertex -1.43347 5.1355 0
    endloop
  endfacet
  facet normal 0 0 -1
    outer loop
      vertex 7.6349 13.1303 0
      vertex 25 3.99138 0
      vertex 7.65 12.65 0
    endloop
  endfacet
  facet normal 0 0 -1
    outer loop
      vertex 7.58968 13.6088 0
      vertex 25 3.99138 0
      vertex 7.6349 13.1303 0
    endloop
  endfacet
  facet normal 0 0 -1
    outer loop
      vertex 7.5145 14.0835 0
      vertex 25 3.99138 0
      vertex 7.58968 13.6088 0
    endloop
  endfacet
  facet normal 0 0 -1
    outer loop
      vertex 7.40966 14.5525 0
      vertex 25 3.99138 0
      vertex 7.5145 14.0835 0
    endloop
  endfacet
  facet normal 0 0 -1
    outer loop
      vertex 7.27558 15.014 0
      vertex 25 3.99138 0
      vertex 7.40966 14.5525 0
    endloop
  endfacet
  facet normal 0 0 -1
    outer loop
      vertex 7.11279 15.4662 0
      vertex 25 3.99138 0
      vertex 7.27558 15.014 0
    endloop
  endfacet
  facet normal 0 0 -1
    outer loop
      vertex 6.92193 15.9072 0
      vertex 25 3.99138 0
      vertex 7.11279 15.4662 0
    endloop
  endfacet
  facet normal 0 0 -1
    outer loop
      vertex 4.99138 24 0
      vertex 6.92193 15.9072 0
      vertex 6.70375 16.3354 0
    endloop
  endfacet
  facet normal 0 0 -1
    outer loop
      vertex 4.99138 24 0
      vertex 6.70375 16.3354 0
      vertex 6.45911 16.7491 0
    endloop
  endfacet
  facet normal 0 0 -1
    outer loop
      vertex 4.99138 24 0
      vertex 6.45911 16.7491 0
      vertex 6.18898 17.1466 0
    endloop
  endfacet
  facet normal 0 0 -1
    outer loop
      vertex 4.99138 24 0
      vertex 6.18898 17.1466 0
      vertex 5.89443 17.5263 0
    endloop
  endfacet
  facet normal 0 0 -1
    outer loop
      vertex 4.99138 24 0
      vertex 5.89443 17.5263 0
      vertex 5.57661 17.8868 0
    endloop
  endfacet
  facet normal 0 0 -1
    outer loop
      vertex 4.99138 24 0
      vertex 5.57661 17.8868 0
      vertex 5.23678 18.2266 0
    endloop
  endfacet
  facet normal 0 0 -1
    outer loop
      vertex 6.92193 15.9072 0
      vertex 4.99138 24 0
      vertex 25 3.99138 0
    endloop
  endfacet
  facet normal 0 0 -1
    outer loop
      vertex 4.87629 18.5444 0
      vertex 4.99138 24 0
      vertex 5.23678 18.2266 0
    endloop
  endfacet
  facet normal 0 0 -1
    outer loop
      vertex 4.49656 18.839 0
      vertex 4.99138 24 0
      vertex 4.87629 18.5444 0
    endloop
  endfacet
  facet normal 0 0 -1
    outer loop
      vertex 4.09907 19.1091 0
      vertex 4.99138 24 0
      vertex 4.49656 18.839 0
    endloop
  endfacet
  facet normal 0 0 -1
    outer loop
      vertex 3.68542 19.3537 0
      vertex 4.99138 24 0
      vertex 4.09907 19.1091 0
    endloop
  endfacet
  facet normal 0 0 -1
    outer loop
      vertex 3.25721 19.5719 0
      vertex 4.99138 24 0
      vertex 3.68542 19.3537 0
    endloop
  endfacet
  facet normal 0 0 -1
    outer loop
      vertex 2.81615 19.7628 0
      vertex 4.99138 24 0
      vertex 3.25721 19.5719 0
    endloop
  endfacet
  facet normal 0 0 -1
    outer loop
      vertex 2.36398 19.9256 0
      vertex 4.99138 24 0
      vertex 2.81615 19.7628 0
    endloop
  endfacet
  facet normal 0 0 -1
    outer loop
      vertex 1.90248 20.0597 0
      vertex 4.99138 24 0
      vertex 2.36398 19.9256 0
    endloop
  endfacet
  facet normal 0 0 -1
    outer loop
      vertex 1.43347 20.1645 0
      vertex 4.99138 24 0
      vertex 1.90248 20.0597 0
    endloop
  endfacet
  facet normal 0 0 -1
    outer loop
      vertex 0.958798 20.2397 0
      vertex 4.99138 24 0
      vertex 1.43347 20.1645 0
    endloop
  endfacet
  facet normal 0 0 -1
    outer loop
      vertex 0.480347 20.2849 0
      vertex 4.99138 24 0
      vertex 0.958798 20.2397 0
    endloop
  endfacet
  facet normal 0 0 -1
    outer loop
      vertex 0 20.3 0
      vertex 4.99138 24 0
      vertex 0.480347 20.2849 0
    endloop
  endfacet
  facet normal 0 0 -1
    outer loop
      vertex -4.99138 24 0
      vertex 0 20.3 0
      vertex -0.480347 20.2849 0
    endloop
  endfacet
  facet normal 0 0 -1
    outer loop
      vertex -4.99138 24 0
      vertex -0.480347 20.2849 0
      vertex -0.958798 20.2397 0
    endloop
  endfacet
  facet normal 0 0 -1
    outer loop
      vertex -4.99138 24 0
      vertex -0.958798 20.2397 0
      vertex -1.43347 20.1645 0
    endloop
  endfacet
  facet normal 0 0 -1
    outer loop
      vertex -4.99138 24 0
      vertex -1.43347 20.1645 0
      vertex -1.90248 20.0597 0
    endloop
  endfacet
  facet normal 0 0 -1
    outer loop
      vertex -4.99138 24 0
      vertex -1.90248 20.0597 0
      vertex -2.36398 19.9256 0
    endloop
  endfacet
  facet normal 0 0 -1
    outer loop
      vertex -4.99138 24 0
      vertex -2.36398 19.9256 0
      vertex -2.81615 19.7628 0
    endloop
  endfacet
  facet normal 0 0 -1
    outer loop
      vertex -4.99138 24 0
      vertex -2.81615 19.7628 0
      vertex -3.25721 19.5719 0
    endloop
  endfacet
  facet normal 0 0 -1
    outer loop
      vertex -4.99138 24 0
      vertex -3.25721 19.5719 0
      vertex -3.68542 19.3537 0
    endloop
  endfacet
  facet normal 0 0 -1
    outer loop
      vertex 0 20.3 0
      vertex -4.99138 24 0
      vertex 4.99138 24 0
    endloop
  endfacet
  facet normal 0 0 -1
    outer loop
      vertex -4.09907 19.1091 0
      vertex -4.99138 24 0
      vertex -3.68542 19.3537 0
    endloop
  endfacet
  facet normal 0 0 -1
    outer loop
      vertex -4.49656 18.839 0
      vertex -4.99138 24 0
      vertex -4.09907 19.1091 0
    endloop
  endfacet
  facet normal 0 0 -1
    outer loop
      vertex -4.87629 18.5444 0
      vertex -4.99138 24 0
      vertex -4.49656 18.839 0
    endloop
  endfacet
  facet normal 0 0 -1
    outer loop
      vertex -5.23678 18.2266 0
      vertex -4.99138 24 0
      vertex -4.87629 18.5444 0
    endloop
  endfacet
  facet normal 0 0 -1
    outer loop
      vertex -5.57661 17.8868 0
      vertex -4.99138 24 0
      vertex -5.23678 18.2266 0
    endloop
  endfacet
  facet normal 0 0 -1
    outer loop
      vertex -5.89443 17.5263 0
      vertex -4.99138 24 0
      vertex -5.57661 17.8868 0
    endloop
  endfacet
  facet normal 0 0 -1
    outer loop
      vertex -6.18898 17.1466 0
      vertex -4.99138 24 0
      vertex -5.89443 17.5263 0
    endloop
  endfacet
  facet normal 0 0 -1
    outer loop
      vertex -6.45911 16.7491 0
      vertex -4.99138 24 0
      vertex -6.18898 17.1466 0
    endloop
  endfacet
  facet normal 0 0 -1
    outer loop
      vertex -6.70375 16.3354 0
      vertex -4.99138 24 0
      vertex -6.45911 16.7491 0
    endloop
  endfacet
  facet normal 0 0 -1
    outer loop
      vertex -6.92193 15.9072 0
      vertex -4.99138 24 0
      vertex -6.70375 16.3354 0
    endloop
  endfacet
  facet normal 0 0 -1
    outer loop
      vertex -25 3.99138 0
      vertex -6.92193 15.9072 0
      vertex -7.11279 15.4662 0
    endloop
  endfacet
  facet normal 0 0 -1
    outer loop
      vertex -25 3.99138 0
      vertex -7.11279 15.4662 0
      vertex -7.27558 15.014 0
    endloop
  endfacet
  facet normal 0 0 -1
    outer loop
      vertex -25 3.99138 0
      vertex -7.27558 15.014 0
      vertex -7.40966 14.5525 0
    endloop
  endfacet
  facet normal -0 0 -1
    outer loop
      vertex -7.6349 12.1697 0
      vertex -25 3.99138 0
      vertex -7.65 12.65 0
    endloop
  endfacet
  facet normal -0 0 -1
    outer loop
      vertex -7.65 12.65 0
      vertex -25 3.99138 0
      vertex -7.6349 13.1303 0
    endloop
  endfacet
  facet normal -0 0 -1
    outer loop
      vertex -7.6349 13.1303 0
      vertex -25 3.99138 0
      vertex -7.58968 13.6088 0
    endloop
  endfacet
  facet normal -0 0 -1
    outer loop
      vertex -7.58968 13.6088 0
      vertex -25 3.99138 0
      vertex -7.5145 14.0835 0
    endloop
  endfacet
  facet normal -0 0 -1
    outer loop
      vertex -7.5145 14.0835 0
      vertex -25 3.99138 0
      vertex -7.40966 14.5525 0
    endloop
  endfacet
  facet normal -0 0 -1
    outer loop
      vertex -6.92193 15.9072 0
      vertex -25 3.99138 0
      vertex -4.99138 24 0
    endloop
  endfacet
  facet normal -0.707107 0.707107 0
    outer loop
      vertex -25 3.99138 0
      vertex -4.99138 24 5
      vertex -4.99138 24 0
    endloop
  endfacet
  facet normal -0.707107 0.707107 0
    outer loop
      vertex -4.99138 24 5
      vertex -25 3.99138 0
      vertex -25 3.99138 5
    endloop
  endfacet
  facet normal -1 0 0
    outer loop
      vertex -25 0 0
      vertex -25 3.99138 5
      vertex -25 3.99138 0
    endloop
  endfacet
  facet normal -1 -0 0
    outer loop
      vertex -25 3.99138 5
      vertex -25 0 0
      vertex -25 0 5
    endloop
  endfacet
  facet normal 1 -0 0
    outer loop
      vertex 25 0 5
      vertex 25 3.99138 0
      vertex 25 3.99138 5
    endloop
  endfacet
  facet normal 1 0 0
    outer loop
      vertex 25 3.99138 0
      vertex 25 0 5
      vertex 25 0 0
    endloop
  endfacet
  facet normal 0 -1 0
    outer loop
      vertex -25 0 5
      vertex -21.1799 0 2.53324
      vertex 25 0 5
    endloop
  endfacet
  facet normal 0 -1 0
    outer loop
      vertex -25 0 5
      vertex -22.5 0 1.46427
      vertex -21.1799 0 2.53324
    endloop
  endfacet
  facet normal 0 -1 0
    outer loop
      vertex -25 0 0
      vertex -22.5 0 1.46427
      vertex -25 0 5
    endloop
  endfacet
  facet normal 0 -1 -0
    outer loop
      vertex -22.5 0 9.99201e-016
      vertex -25 0 0
      vertex 22.5 0 9.99201e-016
    endloop
  endfacet
  facet normal 0 -1 -0
    outer loop
      vertex -22.5 0 1.46427
      vertex -25 0 0
      vertex -22.5 0 9.99201e-016
    endloop
  endfacet
  facet normal 0 -1 0
    outer loop
      vertex 21.1799 0 2.53324
      vertex 25 0 5
      vertex -21.1799 0 2.53324
    endloop
  endfacet
  facet normal 0 -1 0
    outer loop
      vertex 22.5 0 1.46427
      vertex 25 0 5
      vertex 21.1799 0 2.53324
    endloop
  endfacet
  facet normal 0 -1 0
    outer loop
      vertex 25 0 0
      vertex 22.5 0 1.46427
      vertex 22.5 0 9.99201e-016
    endloop
  endfacet
  facet normal 0 -1 0
    outer loop
      vertex 22.5 0 1.46427
      vertex 25 0 0
      vertex 25 0 5
    endloop
  endfacet
  facet normal 0 -1 0
    outer loop
      vertex 25 0 0
      vertex 22.5 0 9.99201e-016
      vertex -25 0 0
    endloop
  endfacet
  facet normal 0 1 -0
    outer loop
      vertex 4.99138 24 0
      vertex -4.99138 24 5
      vertex 4.99138 24 5
    endloop
  endfacet
  facet normal 0 1 0
    outer loop
      vertex -4.99138 24 5
      vertex 4.99138 24 0
      vertex -4.99138 24 0
    endloop
  endfacet
  facet normal -0.999507 -0.0314111 0
    outer loop
      vertex 7.65 12.65 0
      vertex 7.6349 13.1303 5
      vertex 7.6349 13.1303 0
    endloop
  endfacet
  facet normal -0.999507 -0.0314111 0
    outer loop
      vertex 7.6349 13.1303 5
      vertex 7.65 12.65 0
      vertex 7.65 12.65 5
    endloop
  endfacet
  facet normal 0.999507 -0.0314111 0
    outer loop
      vertex -7.65 12.65 5
      vertex -7.6349 13.1303 0
      vertex -7.6349 13.1303 5
    endloop
  endfacet
  facet normal 0.999507 -0.0314111 0
    outer loop
      vertex -7.6349 13.1303 0
      vertex -7.65 12.65 5
      vertex -7.65 12.65 0
    endloop
  endfacet
  facet normal -0.0314092 -0.999507 0
    outer loop
      vertex 0 20.3 0
      vertex 0.480347 20.2849 5
      vertex 0 20.3 5
    endloop
  endfacet
  facet normal -0.0314092 -0.999507 -0
    outer loop
      vertex 0.480347 20.2849 5
      vertex 0 20.3 0
      vertex 0.480347 20.2849 0
    endloop
  endfacet
  facet normal -0.707107 -0.707107 0
    outer loop
      vertex 5.57661 17.8868 0
      vertex 5.23678 18.2266 5
      vertex 5.23678 18.2266 0
    endloop
  endfacet
  facet normal -0.707107 -0.707107 0
    outer loop
      vertex 5.23678 18.2266 5
      vertex 5.57661 17.8868 0
      vertex 5.57661 17.8868 5
    endloop
  endfacet
  facet normal 0.661314 -0.75011 0
    outer loop
      vertex -5.23678 18.2266 0
      vertex -4.87629 18.5444 5
      vertex -5.23678 18.2266 5
    endloop
  endfacet
  facet normal 0.661314 -0.75011 0
    outer loop
      vertex -4.87629 18.5444 5
      vertex -5.23678 18.2266 0
      vertex -4.87629 18.5444 0
    endloop
  endfacet
  facet normal -0.917754 -0.397148 0
    outer loop
      vertex 7.11279 15.4662 0
      vertex 6.92193 15.9072 5
      vertex 6.92193 15.9072 0
    endloop
  endfacet
  facet normal -0.917754 -0.397148 0
    outer loop
      vertex 6.92193 15.9072 5
      vertex 7.11279 15.4662 0
      vertex 7.11279 15.4662 5
    endloop
  endfacet
  facet normal -0.612907 -0.790155 0
    outer loop
      vertex 4.49656 18.839 0
      vertex 4.87629 18.5444 5
      vertex 4.49656 18.839 5
    endloop
  endfacet
  facet normal -0.612907 -0.790155 -0
    outer loop
      vertex 4.87629 18.5444 5
      vertex 4.49656 18.839 0
      vertex 4.87629 18.5444 0
    endloop
  endfacet
  facet normal 0.860742 -0.509041 0
    outer loop
      vertex -6.70375 16.3354 5
      vertex -6.45911 16.7491 0
      vertex -6.45911 16.7491 5
    endloop
  endfacet
  facet normal 0.860742 -0.509041 0
    outer loop
      vertex -6.45911 16.7491 0
      vertex -6.70375 16.3354 5
      vertex -6.70375 16.3354 0
    endloop
  endfacet
  facet normal 0.790155 -0.612908 0
    outer loop
      vertex -6.18898 17.1466 5
      vertex -5.89443 17.5263 0
      vertex -5.89443 17.5263 5
    endloop
  endfacet
  facet normal 0.790155 -0.612908 0
    outer loop
      vertex -5.89443 17.5263 0
      vertex -6.18898 17.1466 5
      vertex -6.18898 17.1466 0
    endloop
  endfacet
  facet normal 0.156434 -0.987688 0
    outer loop
      vertex -1.43347 20.1645 0
      vertex -0.958798 20.2397 5
      vertex -1.43347 20.1645 5
    endloop
  endfacet
  facet normal 0.156434 -0.987688 0
    outer loop
      vertex -0.958798 20.2397 5
      vertex -1.43347 20.1645 0
      vertex -0.958798 20.2397 0
    endloop
  endfacet
  facet normal -0.975917 -0.218144 0
    outer loop
      vertex 7.5145 14.0835 0
      vertex 7.40966 14.5525 5
      vertex 7.40966 14.5525 0
    endloop
  endfacet
  facet normal -0.975917 -0.218144 0
    outer loop
      vertex 7.40966 14.5525 5
      vertex 7.5145 14.0835 0
      vertex 7.5145 14.0835 5
    endloop
  endfacet
  facet normal -0.960294 -0.278989 0
    outer loop
      vertex 7.40966 14.5525 0
      vertex 7.27558 15.014 5
      vertex 7.27558 15.014 0
    endloop
  endfacet
  facet normal -0.960294 -0.278989 0
    outer loop
      vertex 7.27558 15.014 5
      vertex 7.40966 14.5525 0
      vertex 7.40966 14.5525 5
    endloop
  endfacet
  facet normal -0.82708 -0.562084 0
    outer loop
      vertex 6.45911 16.7491 0
      vertex 6.18898 17.1466 5
      vertex 6.18898 17.1466 0
    endloop
  endfacet
  facet normal -0.82708 -0.562084 0
    outer loop
      vertex 6.18898 17.1466 5
      vertex 6.45911 16.7491 0
      vertex 6.45911 16.7491 5
    endloop
  endfacet
  facet normal -0.218142 -0.975917 0
    outer loop
      vertex 1.43347 20.1645 0
      vertex 1.90248 20.0597 5
      vertex 1.43347 20.1645 5
    endloop
  endfacet
  facet normal -0.218142 -0.975917 -0
    outer loop
      vertex 1.90248 20.0597 5
      vertex 1.43347 20.1645 0
      vertex 1.90248 20.0597 0
    endloop
  endfacet
  facet normal -0.156434 -0.987688 0
    outer loop
      vertex 0.958798 20.2397 0
      vertex 1.43347 20.1645 5
      vertex 0.958798 20.2397 5
    endloop
  endfacet
  facet normal -0.156434 -0.987688 -0
    outer loop
      vertex 1.43347 20.1645 5
      vertex 0.958798 20.2397 0
      vertex 1.43347 20.1645 0
    endloop
  endfacet
  facet normal -0.661314 -0.75011 0
    outer loop
      vertex 4.87629 18.5444 0
      vertex 5.23678 18.2266 5
      vertex 4.87629 18.5444 5
    endloop
  endfacet
  facet normal -0.661314 -0.75011 -0
    outer loop
      vertex 5.23678 18.2266 5
      vertex 4.87629 18.5444 0
      vertex 5.23678 18.2266 0
    endloop
  endfacet
  facet normal 0.960294 -0.278989 0
    outer loop
      vertex -7.40966 14.5525 5
      vertex -7.27558 15.014 0
      vertex -7.27558 15.014 5
    endloop
  endfacet
  facet normal 0.960294 -0.278989 0
    outer loop
      vertex -7.27558 15.014 0
      vertex -7.40966 14.5525 5
      vertex -7.40966 14.5525 0
    endloop
  endfacet
  facet normal 0.917754 -0.397148 0
    outer loop
      vertex -7.11279 15.4662 5
      vertex -6.92193 15.9072 0
      vertex -6.92193 15.9072 5
    endloop
  endfacet
  facet normal 0.917754 -0.397148 0
    outer loop
      vertex -6.92193 15.9072 0
      vertex -7.11279 15.4662 5
      vertex -7.11279 15.4662 0
    endloop
  endfacet
  facet normal 0.891006 -0.453991 0
    outer loop
      vertex -6.92193 15.9072 5
      vertex -6.70375 16.3354 0
      vertex -6.70375 16.3354 5
    endloop
  endfacet
  facet normal 0.891006 -0.453991 0
    outer loop
      vertex -6.70375 16.3354 0
      vertex -6.92193 15.9072 5
      vertex -6.92193 15.9072 0
    endloop
  endfacet
  facet normal 0.940881 -0.338738 0
    outer loop
      vertex -7.27558 15.014 5
      vertex -7.11279 15.4662 0
      vertex -7.11279 15.4662 5
    endloop
  endfacet
  facet normal 0.940881 -0.338738 0
    outer loop
      vertex -7.11279 15.4662 0
      vertex -7.27558 15.014 5
      vertex -7.27558 15.014 0
    endloop
  endfacet
  facet normal 0.987688 -0.156435 0
    outer loop
      vertex -7.58968 13.6088 5
      vertex -7.5145 14.0835 0
      vertex -7.5145 14.0835 5
    endloop
  endfacet
  facet normal 0.987688 -0.156435 0
    outer loop
      vertex -7.5145 14.0835 0
      vertex -7.58968 13.6088 5
      vertex -7.58968 13.6088 0
    endloop
  endfacet
  facet normal 0.453991 -0.891006 0
    outer loop
      vertex -3.68542 19.3537 0
      vertex -3.25721 19.5719 5
      vertex -3.68542 19.3537 5
    endloop
  endfacet
  facet normal 0.453991 -0.891006 0
    outer loop
      vertex -3.25721 19.5719 5
      vertex -3.68542 19.3537 0
      vertex -3.25721 19.5719 0
    endloop
  endfacet
  facet normal 0.50904 -0.860743 0
    outer loop
      vertex -4.09907 19.1091 0
      vertex -3.68542 19.3537 5
      vertex -4.09907 19.1091 5
    endloop
  endfacet
  facet normal 0.50904 -0.860743 0
    outer loop
      vertex -3.68542 19.3537 5
      vertex -4.09907 19.1091 0
      vertex -3.68542 19.3537 0
    endloop
  endfacet
  facet normal 0.218142 -0.975917 0
    outer loop
      vertex -1.90248 20.0597 0
      vertex -1.43347 20.1645 5
      vertex -1.90248 20.0597 5
    endloop
  endfacet
  facet normal 0.218142 -0.975917 0
    outer loop
      vertex -1.43347 20.1645 5
      vertex -1.90248 20.0597 0
      vertex -1.43347 20.1645 0
    endloop
  endfacet
  facet normal 0.0314092 -0.999507 0
    outer loop
      vertex -0.480347 20.2849 0
      vertex 0 20.3 5
      vertex -0.480347 20.2849 5
    endloop
  endfacet
  facet normal 0.0314092 -0.999507 0
    outer loop
      vertex 0 20.3 5
      vertex -0.480347 20.2849 0
      vertex 0 20.3 0
    endloop
  endfacet
  facet normal -0.999507 0.0314111 0
    outer loop
      vertex 7.6349 12.1697 0
      vertex 7.65 12.65 5
      vertex 7.65 12.65 0
    endloop
  endfacet
  facet normal -0.999507 0.0314111 0
    outer loop
      vertex 7.65 12.65 5
      vertex 7.6349 12.1697 0
      vertex 7.6349 12.1697 5
    endloop
  endfacet
  facet normal -0.397147 0.917755 0
    outer loop
      vertex 3.25721 5.72807 0
      vertex 2.81615 5.53721 5
      vertex 3.25721 5.72807 5
    endloop
  endfacet
  facet normal -0.397147 0.917755 0
    outer loop
      vertex 2.81615 5.53721 5
      vertex 3.25721 5.72807 0
      vertex 2.81615 5.53721 0
    endloop
  endfacet
  facet normal -0.987688 -0.156435 0
    outer loop
      vertex 7.58968 13.6088 0
      vertex 7.5145 14.0835 5
      vertex 7.5145 14.0835 0
    endloop
  endfacet
  facet normal -0.987688 -0.156435 0
    outer loop
      vertex 7.5145 14.0835 5
      vertex 7.58968 13.6088 0
      vertex 7.58968 13.6088 5
    endloop
  endfacet
  facet normal -0.995562 -0.0941084 0
    outer loop
      vertex 7.6349 13.1303 0
      vertex 7.58968 13.6088 5
      vertex 7.58968 13.6088 0
    endloop
  endfacet
  facet normal -0.995562 -0.0941084 0
    outer loop
      vertex 7.58968 13.6088 5
      vertex 7.6349 13.1303 0
      vertex 7.6349 13.1303 5
    endloop
  endfacet
  facet normal -0.750111 -0.661312 0
    outer loop
      vertex 5.89443 17.5263 0
      vertex 5.57661 17.8868 5
      vertex 5.57661 17.8868 0
    endloop
  endfacet
  facet normal -0.750111 -0.661312 0
    outer loop
      vertex 5.57661 17.8868 5
      vertex 5.89443 17.5263 0
      vertex 5.89443 17.5263 5
    endloop
  endfacet
  facet normal -0.860742 -0.509041 0
    outer loop
      vertex 6.70375 16.3354 0
      vertex 6.45911 16.7491 5
      vertex 6.45911 16.7491 0
    endloop
  endfacet
  facet normal -0.860742 -0.509041 0
    outer loop
      vertex 6.45911 16.7491 5
      vertex 6.70375 16.3354 0
      vertex 6.70375 16.3354 5
    endloop
  endfacet
  facet normal -0.891006 -0.453991 0
    outer loop
      vertex 6.92193 15.9072 0
      vertex 6.70375 16.3354 5
      vertex 6.70375 16.3354 0
    endloop
  endfacet
  facet normal -0.891006 -0.453991 0
    outer loop
      vertex 6.70375 16.3354 5
      vertex 6.92193 15.9072 0
      vertex 6.92193 15.9072 5
    endloop
  endfacet
  facet normal -0.338738 -0.940881 0
    outer loop
      vertex 2.36398 19.9256 0
      vertex 2.81615 19.7628 5
      vertex 2.36398 19.9256 5
    endloop
  endfacet
  facet normal -0.338738 -0.940881 -0
    outer loop
      vertex 2.81615 19.7628 5
      vertex 2.36398 19.9256 0
      vertex 2.81615 19.7628 0
    endloop
  endfacet
  facet normal -0.278992 -0.960294 0
    outer loop
      vertex 1.90248 20.0597 0
      vertex 2.36398 19.9256 5
      vertex 1.90248 20.0597 5
    endloop
  endfacet
  facet normal -0.278992 -0.960294 -0
    outer loop
      vertex 2.36398 19.9256 5
      vertex 1.90248 20.0597 0
      vertex 2.36398 19.9256 0
    endloop
  endfacet
  facet normal -0.0941084 -0.995562 0
    outer loop
      vertex 0.480347 20.2849 0
      vertex 0.958798 20.2397 5
      vertex 0.480347 20.2849 5
    endloop
  endfacet
  facet normal -0.0941084 -0.995562 -0
    outer loop
      vertex 0.958798 20.2397 5
      vertex 0.480347 20.2849 0
      vertex 0.958798 20.2397 0
    endloop
  endfacet
  facet normal -0.397151 -0.917753 0
    outer loop
      vertex 2.81615 19.7628 0
      vertex 3.25721 19.5719 5
      vertex 2.81615 19.7628 5
    endloop
  endfacet
  facet normal -0.397151 -0.917753 -0
    outer loop
      vertex 3.25721 19.5719 5
      vertex 2.81615 19.7628 0
      vertex 3.25721 19.5719 0
    endloop
  endfacet
  facet normal -0.50904 -0.860743 0
    outer loop
      vertex 3.68542 19.3537 0
      vertex 4.09907 19.1091 5
      vertex 3.68542 19.3537 5
    endloop
  endfacet
  facet normal -0.50904 -0.860743 -0
    outer loop
      vertex 4.09907 19.1091 5
      vertex 3.68542 19.3537 0
      vertex 4.09907 19.1091 0
    endloop
  endfacet
  facet normal -0.562083 -0.827081 0
    outer loop
      vertex 4.09907 19.1091 0
      vertex 4.49656 18.839 5
      vertex 4.09907 19.1091 5
    endloop
  endfacet
  facet normal -0.562083 -0.827081 -0
    outer loop
      vertex 4.49656 18.839 5
      vertex 4.09907 19.1091 0
      vertex 4.49656 18.839 0
    endloop
  endfacet
  facet normal 0.707107 -0.707107 0
    outer loop
      vertex -5.57661 17.8868 5
      vertex -5.23678 18.2266 0
      vertex -5.23678 18.2266 5
    endloop
  endfacet
  facet normal 0.707107 -0.707107 0
    outer loop
      vertex -5.23678 18.2266 0
      vertex -5.57661 17.8868 5
      vertex -5.57661 17.8868 0
    endloop
  endfacet
  facet normal 0.975917 -0.218144 0
    outer loop
      vertex -7.5145 14.0835 5
      vertex -7.40966 14.5525 0
      vertex -7.40966 14.5525 5
    endloop
  endfacet
  facet normal 0.975917 -0.218144 0
    outer loop
      vertex -7.40966 14.5525 0
      vertex -7.5145 14.0835 5
      vertex -7.5145 14.0835 0
    endloop
  endfacet
  facet normal 0.995562 -0.0941084 0
    outer loop
      vertex -7.6349 13.1303 5
      vertex -7.58968 13.6088 0
      vertex -7.58968 13.6088 5
    endloop
  endfacet
  facet normal 0.995562 -0.0941084 0
    outer loop
      vertex -7.58968 13.6088 0
      vertex -7.6349 13.1303 5
      vertex -7.6349 13.1303 0
    endloop
  endfacet
  facet normal 0.397151 -0.917753 0
    outer loop
      vertex -3.25721 19.5719 0
      vertex -2.81615 19.7628 5
      vertex -3.25721 19.5719 5
    endloop
  endfacet
  facet normal 0.397151 -0.917753 0
    outer loop
      vertex -2.81615 19.7628 5
      vertex -3.25721 19.5719 0
      vertex -2.81615 19.7628 0
    endloop
  endfacet
  facet normal 0.562083 -0.827081 0
    outer loop
      vertex -4.49656 18.839 0
      vertex -4.09907 19.1091 5
      vertex -4.49656 18.839 5
    endloop
  endfacet
  facet normal 0.562083 -0.827081 0
    outer loop
      vertex -4.09907 19.1091 5
      vertex -4.49656 18.839 0
      vertex -4.09907 19.1091 0
    endloop
  endfacet
  facet normal 0.612907 -0.790155 0
    outer loop
      vertex -4.87629 18.5444 0
      vertex -4.49656 18.839 5
      vertex -4.87629 18.5444 5
    endloop
  endfacet
  facet normal 0.612907 -0.790155 0
    outer loop
      vertex -4.49656 18.839 5
      vertex -4.87629 18.5444 0
      vertex -4.49656 18.839 0
    endloop
  endfacet
  facet normal 0.338738 -0.940881 0
    outer loop
      vertex -2.81615 19.7628 0
      vertex -2.36398 19.9256 5
      vertex -2.81615 19.7628 5
    endloop
  endfacet
  facet normal 0.338738 -0.940881 0
    outer loop
      vertex -2.36398 19.9256 5
      vertex -2.81615 19.7628 0
      vertex -2.36398 19.9256 0
    endloop
  endfacet
  facet normal 0.0941084 -0.995562 0
    outer loop
      vertex -0.958798 20.2397 0
      vertex -0.480347 20.2849 5
      vertex -0.958798 20.2397 5
    endloop
  endfacet
  facet normal 0.0941084 -0.995562 0
    outer loop
      vertex -0.480347 20.2849 5
      vertex -0.958798 20.2397 0
      vertex -0.480347 20.2849 0
    endloop
  endfacet
  facet normal -0.987688 0.156435 0
    outer loop
      vertex 7.5145 11.2165 0
      vertex 7.58968 11.6912 5
      vertex 7.58968 11.6912 0
    endloop
  endfacet
  facet normal -0.987688 0.156435 0
    outer loop
      vertex 7.58968 11.6912 5
      vertex 7.5145 11.2165 0
      vertex 7.5145 11.2165 5
    endloop
  endfacet
  facet normal -0.995562 0.0941084 0
    outer loop
      vertex 7.58968 11.6912 0
      vertex 7.6349 12.1697 5
      vertex 7.6349 12.1697 0
    endloop
  endfacet
  facet normal -0.995562 0.0941084 0
    outer loop
      vertex 7.6349 12.1697 5
      vertex 7.58968 11.6912 0
      vertex 7.58968 11.6912 5
    endloop
  endfacet
  facet normal 0.0314092 0.999507 -0
    outer loop
      vertex 0 5 0
      vertex -0.480347 5.01509 5
      vertex 0 5 5
    endloop
  endfacet
  facet normal 0.0314092 0.999507 0
    outer loop
      vertex -0.480347 5.01509 5
      vertex 0 5 0
      vertex -0.480347 5.01509 0
    endloop
  endfacet
  facet normal 0.987688 0.156435 0
    outer loop
      vertex -7.5145 11.2165 5
      vertex -7.58968 11.6912 0
      vertex -7.58968 11.6912 5
    endloop
  endfacet
  facet normal 0.987688 0.156435 0
    outer loop
      vertex -7.58968 11.6912 0
      vertex -7.5145 11.2165 5
      vertex -7.5145 11.2165 0
    endloop
  endfacet
  facet normal -0.0941084 0.995562 0
    outer loop
      vertex 0.958798 5.06032 0
      vertex 0.480347 5.01509 5
      vertex 0.958798 5.06032 5
    endloop
  endfacet
  facet normal -0.0941084 0.995562 0
    outer loop
      vertex 0.480347 5.01509 5
      vertex 0.958798 5.06032 0
      vertex 0.480347 5.01509 0
    endloop
  endfacet
  facet normal -0.338738 0.940881 0
    outer loop
      vertex 2.81615 5.53721 0
      vertex 2.36398 5.37442 5
      vertex 2.81615 5.53721 5
    endloop
  endfacet
  facet normal -0.338738 0.940881 0
    outer loop
      vertex 2.36398 5.37442 5
      vertex 2.81615 5.53721 0
      vertex 2.36398 5.37442 0
    endloop
  endfacet
  facet normal -0.940881 -0.338738 0
    outer loop
      vertex 7.27558 15.014 0
      vertex 7.11279 15.4662 5
      vertex 7.11279 15.4662 0
    endloop
  endfacet
  facet normal -0.940881 -0.338738 0
    outer loop
      vertex 7.11279 15.4662 5
      vertex 7.27558 15.014 0
      vertex 7.27558 15.014 5
    endloop
  endfacet
  facet normal -0.790155 -0.612908 0
    outer loop
      vertex 6.18898 17.1466 0
      vertex 5.89443 17.5263 5
      vertex 5.89443 17.5263 0
    endloop
  endfacet
  facet normal -0.790155 -0.612908 0
    outer loop
      vertex 5.89443 17.5263 5
      vertex 6.18898 17.1466 0
      vertex 6.18898 17.1466 5
    endloop
  endfacet
  facet normal -0.453991 -0.891006 0
    outer loop
      vertex 3.25721 19.5719 0
      vertex 3.68542 19.3537 5
      vertex 3.25721 19.5719 5
    endloop
  endfacet
  facet normal -0.453991 -0.891006 -0
    outer loop
      vertex 3.68542 19.3537 5
      vertex 3.25721 19.5719 0
      vertex 3.68542 19.3537 0
    endloop
  endfacet
  facet normal 0.82708 -0.562084 0
    outer loop
      vertex -6.45911 16.7491 5
      vertex -6.18898 17.1466 0
      vertex -6.18898 17.1466 5
    endloop
  endfacet
  facet normal 0.82708 -0.562084 0
    outer loop
      vertex -6.18898 17.1466 0
      vertex -6.45911 16.7491 5
      vertex -6.45911 16.7491 0
    endloop
  endfacet
  facet normal 0.750111 -0.661312 0
    outer loop
      vertex -5.89443 17.5263 5
      vertex -5.57661 17.8868 0
      vertex -5.57661 17.8868 5
    endloop
  endfacet
  facet normal 0.750111 -0.661312 0
    outer loop
      vertex -5.57661 17.8868 0
      vertex -5.89443 17.5263 5
      vertex -5.89443 17.5263 0
    endloop
  endfacet
  facet normal 0.278992 -0.960294 0
    outer loop
      vertex -2.36398 19.9256 0
      vertex -1.90248 20.0597 5
      vertex -2.36398 19.9256 5
    endloop
  endfacet
  facet normal 0.278992 -0.960294 0
    outer loop
      vertex -1.90248 20.0597 5
      vertex -2.36398 19.9256 0
      vertex -1.90248 20.0597 0
    endloop
  endfacet
  facet normal -0.917754 0.397148 0
    outer loop
      vertex 6.92193 9.39279 0
      vertex 7.11279 9.83385 5
      vertex 7.11279 9.83385 0
    endloop
  endfacet
  facet normal -0.917754 0.397148 0
    outer loop
      vertex 7.11279 9.83385 5
      vertex 6.92193 9.39279 0
      vertex 6.92193 9.39279 5
    endloop
  endfacet
  facet normal -0.960294 0.278989 0
    outer loop
      vertex 7.27558 10.286 0
      vertex 7.40966 10.7475 5
      vertex 7.40966 10.7475 0
    endloop
  endfacet
  facet normal -0.960294 0.278989 0
    outer loop
      vertex 7.40966 10.7475 5
      vertex 7.27558 10.286 0
      vertex 7.27558 10.286 5
    endloop
  endfacet
  facet normal -0.750112 0.66131 0
    outer loop
      vertex 5.57661 7.41321 0
      vertex 5.89443 7.77371 5
      vertex 5.89443 7.77371 0
    endloop
  endfacet
  facet normal -0.750112 0.66131 0
    outer loop
      vertex 5.89443 7.77371 5
      vertex 5.57661 7.41321 0
      vertex 5.57661 7.41321 5
    endloop
  endfacet
  facet normal -0.453991 0.891006 0
    outer loop
      vertex 3.68542 5.94625 0
      vertex 3.25721 5.72807 5
      vertex 3.68542 5.94625 5
    endloop
  endfacet
  facet normal -0.453991 0.891006 0
    outer loop
      vertex 3.25721 5.72807 5
      vertex 3.68542 5.94625 0
      vertex 3.25721 5.72807 0
    endloop
  endfacet
  facet normal 0.661311 0.750112 -0
    outer loop
      vertex -4.87629 6.75557 0
      vertex -5.23678 7.07339 5
      vertex -4.87629 6.75557 5
    endloop
  endfacet
  facet normal 0.661311 0.750112 0
    outer loop
      vertex -5.23678 7.07339 5
      vertex -4.87629 6.75557 0
      vertex -5.23678 7.07339 0
    endloop
  endfacet
  facet normal 0.750112 0.66131 0
    outer loop
      vertex -5.57661 7.41321 5
      vertex -5.89443 7.77371 0
      vertex -5.89443 7.77371 5
    endloop
  endfacet
  facet normal 0.750112 0.66131 0
    outer loop
      vertex -5.89443 7.77371 0
      vertex -5.57661 7.41321 5
      vertex -5.57661 7.41321 0
    endloop
  endfacet
  facet normal 0.917754 0.397148 0
    outer loop
      vertex -6.92193 9.39279 5
      vertex -7.11279 9.83385 0
      vertex -7.11279 9.83385 5
    endloop
  endfacet
  facet normal 0.917754 0.397148 0
    outer loop
      vertex -7.11279 9.83385 0
      vertex -6.92193 9.39279 5
      vertex -6.92193 9.39279 0
    endloop
  endfacet
  facet normal 0.940881 0.338738 0
    outer loop
      vertex -7.11279 9.83385 5
      vertex -7.27558 10.286 0
      vertex -7.27558 10.286 5
    endloop
  endfacet
  facet normal 0.940881 0.338738 0
    outer loop
      vertex -7.27558 10.286 0
      vertex -7.11279 9.83385 5
      vertex -7.11279 9.83385 0
    endloop
  endfacet
  facet normal -0.156434 0.987688 0
    outer loop
      vertex 1.43347 5.1355 0
      vertex 0.958798 5.06032 5
      vertex 1.43347 5.1355 5
    endloop
  endfacet
  facet normal -0.156434 0.987688 0
    outer loop
      vertex 0.958798 5.06032 5
      vertex 1.43347 5.1355 0
      vertex 0.958798 5.06032 0
    endloop
  endfacet
  facet normal -0.975917 0.218144 0
    outer loop
      vertex 7.40966 10.7475 0
      vertex 7.5145 11.2165 5
      vertex 7.5145 11.2165 0
    endloop
  endfacet
  facet normal -0.975917 0.218144 0
    outer loop
      vertex 7.5145 11.2165 5
      vertex 7.40966 10.7475 0
      vertex 7.40966 10.7475 5
    endloop
  endfacet
  facet normal -0.790155 0.612908 0
    outer loop
      vertex 5.89443 7.77371 0
      vertex 6.18898 8.15344 5
      vertex 6.18898 8.15344 0
    endloop
  endfacet
  facet normal -0.790155 0.612908 0
    outer loop
      vertex 6.18898 8.15344 5
      vertex 5.89443 7.77371 0
      vertex 5.89443 7.77371 5
    endloop
  endfacet
  facet normal -0.82708 0.562084 0
    outer loop
      vertex 6.18898 8.15344 0
      vertex 6.45911 8.55092 5
      vertex 6.45911 8.55092 0
    endloop
  endfacet
  facet normal -0.82708 0.562084 0
    outer loop
      vertex 6.45911 8.55092 5
      vertex 6.18898 8.15344 0
      vertex 6.18898 8.15344 5
    endloop
  endfacet
  facet normal -0.707107 0.707107 0
    outer loop
      vertex 5.23678 7.07339 0
      vertex 5.57661 7.41321 5
      vertex 5.57661 7.41321 0
    endloop
  endfacet
  facet normal -0.707107 0.707107 0
    outer loop
      vertex 5.57661 7.41321 5
      vertex 5.23678 7.07339 0
      vertex 5.23678 7.07339 5
    endloop
  endfacet
  facet normal -0.661311 0.750112 0
    outer loop
      vertex 5.23678 7.07339 0
      vertex 4.87629 6.75557 5
      vertex 5.23678 7.07339 5
    endloop
  endfacet
  facet normal -0.661311 0.750112 0
    outer loop
      vertex 4.87629 6.75557 5
      vertex 5.23678 7.07339 0
      vertex 4.87629 6.75557 0
    endloop
  endfacet
  facet normal -0.0314092 0.999507 0
    outer loop
      vertex 0.480347 5.01509 0
      vertex 0 5 5
      vertex 0.480347 5.01509 5
    endloop
  endfacet
  facet normal -0.0314092 0.999507 0
    outer loop
      vertex 0 5 5
      vertex 0.480347 5.01509 0
      vertex 0 5 0
    endloop
  endfacet
  facet normal 0.156434 0.987688 -0
    outer loop
      vertex -0.958798 5.06032 0
      vertex -1.43347 5.1355 5
      vertex -0.958798 5.06032 5
    endloop
  endfacet
  facet normal 0.156434 0.987688 0
    outer loop
      vertex -1.43347 5.1355 5
      vertex -0.958798 5.06032 0
      vertex -1.43347 5.1355 0
    endloop
  endfacet
  facet normal 0.707107 0.707107 0
    outer loop
      vertex -5.23678 7.07339 5
      vertex -5.57661 7.41321 0
      vertex -5.57661 7.41321 5
    endloop
  endfacet
  facet normal 0.707107 0.707107 0
    outer loop
      vertex -5.57661 7.41321 0
      vertex -5.23678 7.07339 5
      vertex -5.23678 7.07339 0
    endloop
  endfacet
  facet normal 0.891006 0.453991 0
    outer loop
      vertex -6.70375 8.96458 5
      vertex -6.92193 9.39279 0
      vertex -6.92193 9.39279 5
    endloop
  endfacet
  facet normal 0.891006 0.453991 0
    outer loop
      vertex -6.92193 9.39279 0
      vertex -6.70375 8.96458 5
      vertex -6.70375 8.96458 0
    endloop
  endfacet
  facet normal 0.960294 0.278989 0
    outer loop
      vertex -7.27558 10.286 5
      vertex -7.40966 10.7475 0
      vertex -7.40966 10.7475 5
    endloop
  endfacet
  facet normal 0.960294 0.278989 0
    outer loop
      vertex -7.40966 10.7475 0
      vertex -7.27558 10.286 5
      vertex -7.27558 10.286 0
    endloop
  endfacet
  facet normal 0.975917 0.218144 0
    outer loop
      vertex -7.40966 10.7475 5
      vertex -7.5145 11.2165 0
      vertex -7.5145 11.2165 5
    endloop
  endfacet
  facet normal 0.975917 0.218144 0
    outer loop
      vertex -7.5145 11.2165 0
      vertex -7.40966 10.7475 5
      vertex -7.40966 10.7475 0
    endloop
  endfacet
  facet normal 0.995562 0.0941084 0
    outer loop
      vertex -7.58968 11.6912 5
      vertex -7.6349 12.1697 0
      vertex -7.6349 12.1697 5
    endloop
  endfacet
  facet normal 0.995562 0.0941084 0
    outer loop
      vertex -7.6349 12.1697 0
      vertex -7.58968 11.6912 5
      vertex -7.58968 11.6912 0
    endloop
  endfacet
  facet normal 0.999507 0.0314111 0
    outer loop
      vertex -7.6349 12.1697 5
      vertex -7.65 12.65 0
      vertex -7.65 12.65 5
    endloop
  endfacet
  facet normal 0.999507 0.0314111 0
    outer loop
      vertex -7.65 12.65 0
      vertex -7.6349 12.1697 5
      vertex -7.6349 12.1697 0
    endloop
  endfacet
  facet normal -0.278992 0.960294 0
    outer loop
      vertex 2.36398 5.37442 0
      vertex 1.90248 5.24034 5
      vertex 2.36398 5.37442 5
    endloop
  endfacet
  facet normal -0.278992 0.960294 0
    outer loop
      vertex 1.90248 5.24034 5
      vertex 2.36398 5.37442 0
      vertex 1.90248 5.24034 0
    endloop
  endfacet
  facet normal -0.218144 0.975917 0
    outer loop
      vertex 1.90248 5.24034 0
      vertex 1.43347 5.1355 5
      vertex 1.90248 5.24034 5
    endloop
  endfacet
  facet normal -0.218144 0.975917 0
    outer loop
      vertex 1.43347 5.1355 5
      vertex 1.90248 5.24034 0
      vertex 1.43347 5.1355 0
    endloop
  endfacet
  facet normal -0.891006 0.453991 0
    outer loop
      vertex 6.70375 8.96458 0
      vertex 6.92193 9.39279 5
      vertex 6.92193 9.39279 0
    endloop
  endfacet
  facet normal -0.891006 0.453991 0
    outer loop
      vertex 6.92193 9.39279 5
      vertex 6.70375 8.96458 0
      vertex 6.70375 8.96458 5
    endloop
  endfacet
  facet normal -0.860742 0.509041 0
    outer loop
      vertex 6.45911 8.55092 0
      vertex 6.70375 8.96458 5
      vertex 6.70375 8.96458 0
    endloop
  endfacet
  facet normal -0.860742 0.509041 0
    outer loop
      vertex 6.70375 8.96458 5
      vertex 6.45911 8.55092 0
      vertex 6.45911 8.55092 5
    endloop
  endfacet
  facet normal -0.940881 0.338738 0
    outer loop
      vertex 7.11279 9.83385 0
      vertex 7.27558 10.286 5
      vertex 7.27558 10.286 0
    endloop
  endfacet
  facet normal -0.940881 0.338738 0
    outer loop
      vertex 7.27558 10.286 5
      vertex 7.11279 9.83385 0
      vertex 7.11279 9.83385 5
    endloop
  endfacet
  facet normal -0.562083 0.827081 0
    outer loop
      vertex 4.49656 6.46102 0
      vertex 4.09907 6.19089 5
      vertex 4.49656 6.46102 5
    endloop
  endfacet
  facet normal -0.562083 0.827081 0
    outer loop
      vertex 4.09907 6.19089 5
      vertex 4.49656 6.46102 0
      vertex 4.09907 6.19089 0
    endloop
  endfacet
  facet normal -0.509042 0.860742 0
    outer loop
      vertex 4.09907 6.19089 0
      vertex 3.68542 5.94625 5
      vertex 4.09907 6.19089 5
    endloop
  endfacet
  facet normal -0.509042 0.860742 0
    outer loop
      vertex 3.68542 5.94625 5
      vertex 4.09907 6.19089 0
      vertex 3.68542 5.94625 0
    endloop
  endfacet
  facet normal -0.612907 0.790155 0
    outer loop
      vertex 4.87629 6.75557 0
      vertex 4.49656 6.46102 5
      vertex 4.87629 6.75557 5
    endloop
  endfacet
  facet normal -0.612907 0.790155 0
    outer loop
      vertex 4.49656 6.46102 5
      vertex 4.87629 6.75557 0
      vertex 4.49656 6.46102 0
    endloop
  endfacet
  facet normal 0.0941084 0.995562 -0
    outer loop
      vertex -0.480347 5.01509 0
      vertex -0.958798 5.06032 5
      vertex -0.480347 5.01509 5
    endloop
  endfacet
  facet normal 0.0941084 0.995562 0
    outer loop
      vertex -0.958798 5.06032 5
      vertex -0.480347 5.01509 0
      vertex -0.958798 5.06032 0
    endloop
  endfacet
  facet normal 0.218144 0.975917 -0
    outer loop
      vertex -1.43347 5.1355 0
      vertex -1.90248 5.24034 5
      vertex -1.43347 5.1355 5
    endloop
  endfacet
  facet normal 0.218144 0.975917 0
    outer loop
      vertex -1.90248 5.24034 5
      vertex -1.43347 5.1355 0
      vertex -1.90248 5.24034 0
    endloop
  endfacet
  facet normal 0.612907 0.790155 -0
    outer loop
      vertex -4.49656 6.46102 0
      vertex -4.87629 6.75557 5
      vertex -4.49656 6.46102 5
    endloop
  endfacet
  facet normal 0.612907 0.790155 0
    outer loop
      vertex -4.87629 6.75557 5
      vertex -4.49656 6.46102 0
      vertex -4.87629 6.75557 0
    endloop
  endfacet
  facet normal 0.397147 0.917755 -0
    outer loop
      vertex -2.81615 5.53721 0
      vertex -3.25721 5.72807 5
      vertex -2.81615 5.53721 5
    endloop
  endfacet
  facet normal 0.397147 0.917755 0
    outer loop
      vertex -3.25721 5.72807 5
      vertex -2.81615 5.53721 0
      vertex -3.25721 5.72807 0
    endloop
  endfacet
  facet normal 0.790155 0.612908 0
    outer loop
      vertex -5.89443 7.77371 5
      vertex -6.18898 8.15344 0
      vertex -6.18898 8.15344 5
    endloop
  endfacet
  facet normal 0.790155 0.612908 0
    outer loop
      vertex -6.18898 8.15344 0
      vertex -5.89443 7.77371 5
      vertex -5.89443 7.77371 0
    endloop
  endfacet
  facet normal 0.82708 0.562084 0
    outer loop
      vertex -6.18898 8.15344 5
      vertex -6.45911 8.55092 0
      vertex -6.45911 8.55092 5
    endloop
  endfacet
  facet normal 0.82708 0.562084 0
    outer loop
      vertex -6.45911 8.55092 0
      vertex -6.18898 8.15344 5
      vertex -6.18898 8.15344 0
    endloop
  endfacet
  facet normal 0.860742 0.509041 0
    outer loop
      vertex -6.45911 8.55092 5
      vertex -6.70375 8.96458 0
      vertex -6.70375 8.96458 5
    endloop
  endfacet
  facet normal 0.860742 0.509041 0
    outer loop
      vertex -6.70375 8.96458 0
      vertex -6.45911 8.55092 5
      vertex -6.45911 8.55092 0
    endloop
  endfacet
  facet normal 0.509042 0.860742 -0
    outer loop
      vertex -3.68542 5.94625 0
      vertex -4.09907 6.19089 5
      vertex -3.68542 5.94625 5
    endloop
  endfacet
  facet normal 0.509042 0.860742 0
    outer loop
      vertex -4.09907 6.19089 5
      vertex -3.68542 5.94625 0
      vertex -4.09907 6.19089 0
    endloop
  endfacet
  facet normal 0.453991 0.891006 -0
    outer loop
      vertex -3.25721 5.72807 0
      vertex -3.68542 5.94625 5
      vertex -3.25721 5.72807 5
    endloop
  endfacet
  facet normal 0.453991 0.891006 0
    outer loop
      vertex -3.68542 5.94625 5
      vertex -3.25721 5.72807 0
      vertex -3.68542 5.94625 0
    endloop
  endfacet
  facet normal 0.278992 0.960294 -0
    outer loop
      vertex -1.90248 5.24034 0
      vertex -2.36398 5.37442 5
      vertex -1.90248 5.24034 5
    endloop
  endfacet
  facet normal 0.278992 0.960294 0
    outer loop
      vertex -2.36398 5.37442 5
      vertex -1.90248 5.24034 0
      vertex -2.36398 5.37442 0
    endloop
  endfacet
  facet normal 0.338738 0.940881 -0
    outer loop
      vertex -2.36398 5.37442 0
      vertex -2.81615 5.53721 5
      vertex -2.36398 5.37442 5
    endloop
  endfacet
  facet normal 0.338738 0.940881 0
    outer loop
      vertex -2.81615 5.53721 5
      vertex -2.36398 5.37442 0
      vertex -2.81615 5.53721 0
    endloop
  endfacet
  facet normal 0.562083 0.827081 -0
    outer loop
      vertex -4.09907 6.19089 0
      vertex -4.49656 6.46102 5
      vertex -4.09907 6.19089 5
    endloop
  endfacet
  facet normal 0.562083 0.827081 0
    outer loop
      vertex -4.49656 6.46102 5
      vertex -4.09907 6.19089 0
      vertex -4.49656 6.46102 0
    endloop
  endfacet
  facet normal -1 0 0
    outer loop
      vertex -22.5 -0.35 1.07692e-015
      vertex -22.5 0 1.46427
      vertex -22.5 0 9.99201e-016
    endloop
  endfacet
  facet normal -1 -0 0
    outer loop
      vertex -22.5 0 1.46427
      vertex -22.5 -0.35 1.07692e-015
      vertex -22.5 -0.35 1.46427
    endloop
  endfacet
  facet normal 0 -0.29547 0.955352
    outer loop
      vertex -21.1799 0 2.53324
      vertex 21.3136 -0.35 2.42499
      vertex 21.1799 0 2.53324
    endloop
  endfacet
  facet normal 0 -0.29547 0.955352
    outer loop
      vertex 21.3136 -0.35 2.42499
      vertex -21.1799 0 2.53324
      vertex -21.3136 -0.35 2.42499
    endloop
  endfacet
  facet normal 1 -0 0
    outer loop
      vertex 22.5 -5.19999 1.46427
      vertex 22.5 -0.35 1.07692e-015
      vertex 22.5 -0.35 1.46427
    endloop
  endfacet
  facet normal 1 0 0
    outer loop
      vertex 22.5 -0.35 1.07692e-015
      vertex 22.5 -5.19999 1.46427
      vertex 22.5 -5.19999 2.15383e-015
    endloop
  endfacet
  facet normal -0 0.29547 0.955352
    outer loop
      vertex -19.8378 -4.21423 3.62011
      vertex 19.8378 -4.21423 3.62011
      vertex 21.3136 -0.35 2.42499
    endloop
  endfacet
  facet normal 0 0.29547 0.955352
    outer loop
      vertex 19.8378 -4.21423 3.62011
      vertex -19.8378 -4.21423 3.62011
      vertex 19.5874 -4.73983 3.78267
    endloop
  endfacet
  facet normal 0 0.29547 0.955352
    outer loop
      vertex 19.5874 -4.73983 3.78267
      vertex -19.8378 -4.21423 3.62011
      vertex -19.5874 -4.73983 3.78267
    endloop
  endfacet
  facet normal 0 0.29547 0.955352
    outer loop
      vertex -19.8378 -4.21423 3.62011
      vertex 21.3136 -0.35 2.42499
      vertex -21.3136 -0.35 2.42499
    endloop
  endfacet
  facet normal 0 -1 0
    outer loop
      vertex -22.5 -5.19999 2.15383e-015
      vertex -20.3981 -5.19999 3.16633
      vertex -22.5 -5.19999 1.46427
    endloop
  endfacet
  facet normal 0 -1 -0
    outer loop
      vertex -20.3981 -5.19999 3.16633
      vertex -22.5 -5.19999 2.15383e-015
      vertex 20.3981 -5.19999 3.16633
    endloop
  endfacet
  facet normal 0 -1 0
    outer loop
      vertex 22.5 -5.19999 2.15383e-015
      vertex 20.3981 -5.19999 3.16633
      vertex -22.5 -5.19999 2.15383e-015
    endloop
  endfacet
  facet normal 0 -1 0
    outer loop
      vertex 20.3981 -5.19999 3.16633
      vertex 22.5 -5.19999 2.15383e-015
      vertex 22.5 -5.19999 1.46427
    endloop
  endfacet
  facet normal 0 -0.83867 0.54464
    outer loop
      vertex -20.3981 -5.19999 3.16633
      vertex 20.0983 -5.0423 3.40915
      vertex -20.0983 -5.0423 3.40915
    endloop
  endfacet
  facet normal 0 -0.83867 0.54464
    outer loop
      vertex 20.0983 -5.0423 3.40915
      vertex -20.3981 -5.19999 3.16633
      vertex 20.3981 -5.19999 3.16633
    endloop
  endfacet
  facet normal -5.39179e-006 -0.777143 0.629324
    outer loop
      vertex -20.0983 -5.0423 3.40915
      vertex -19.5874 -4.73983 3.78267
      vertex -19.8378 -4.87147 3.62011
    endloop
  endfacet
  facet normal 0 -0.777146 0.62932
    outer loop
      vertex -19.5874 -4.73983 3.78267
      vertex -20.0983 -5.0423 3.40915
      vertex 19.5874 -4.73983 3.78267
    endloop
  endfacet
  facet normal 0 -0.777146 0.62932
    outer loop
      vertex 20.0983 -5.0423 3.40915
      vertex 19.5874 -4.73983 3.78267
      vertex -20.0983 -5.0423 3.40915
    endloop
  endfacet
  facet normal 5.392e-006 -0.777143 0.629324
    outer loop
      vertex 19.5874 -4.73983 3.78267
      vertex 20.0983 -5.0423 3.40915
      vertex 19.8378 -4.87147 3.62011
    endloop
  endfacet
  facet normal -1 0 0
    outer loop
      vertex -22.5 -5.19999 2.15383e-015
      vertex -22.5 -0.35 1.46427
      vertex -22.5 -0.35 1.07692e-015
    endloop
  endfacet
  facet normal -1 -0 0
    outer loop
      vertex -22.5 -0.35 1.46427
      vertex -22.5 -5.19999 2.15383e-015
      vertex -22.5 -5.19999 1.46427
    endloop
  endfacet
  facet normal 0 -2.22045e-016 -1
    outer loop
      vertex -22.5 -5.19999 2.15383e-015
      vertex 22.5 -0.35 1.07692e-015
      vertex 22.5 -5.19999 2.15383e-015
    endloop
  endfacet
  facet normal 0 -2.22045e-016 -1
    outer loop
      vertex -22.5 -0.35 1.07692e-015
      vertex 22.5 -0.35 1.07692e-015
      vertex -22.5 -5.19999 2.15383e-015
    endloop
  endfacet
  facet normal -0 -2.22045e-016 -1
    outer loop
      vertex 22.5 -0.35 1.07692e-015
      vertex -22.5 -0.35 1.07692e-015
      vertex 22.5 0 9.99201e-016
    endloop
  endfacet
  facet normal -0 -2.22045e-016 -1
    outer loop
      vertex 22.5 0 9.99201e-016
      vertex -22.5 -0.35 1.07692e-015
      vertex -22.5 0 9.99201e-016
    endloop
  endfacet
  facet normal 1 -0 0
    outer loop
      vertex 22.5 -0.35 1.46427
      vertex 22.5 0 9.99201e-016
      vertex 22.5 0 1.46427
    endloop
  endfacet
  facet normal 1 0 0
    outer loop
      vertex 22.5 0 9.99201e-016
      vertex 22.5 -0.35 1.46427
      vertex 22.5 -0.35 1.07692e-015
    endloop
  endfacet
  facet normal -0.544636 0 0.838672
    outer loop
      vertex -19.8378 -4.21423 3.62011
      vertex -19.8378 -4.87147 3.62011
      vertex -19.5874 -4.73983 3.78267
    endloop
  endfacet
  facet normal -0.62932 1.31973e-007 0.777146
    outer loop
      vertex -21.1799 0 2.53324
      vertex -22.5 0 1.46427
      vertex -21.3136 -0.35 2.42499
    endloop
  endfacet
  facet normal -0.629321 0 0.777145
    outer loop
      vertex -19.8378 -4.21423 3.62011
      vertex -20.0983 -5.0423 3.40915
      vertex -19.8378 -4.87147 3.62011
    endloop
  endfacet
  facet normal -0.629321 -2.41435e-007 0.777146
    outer loop
      vertex -19.8378 -4.21423 3.62011
      vertex -20.3981 -5.19999 3.16633
      vertex -20.0983 -5.0423 3.40915
    endloop
  endfacet
  facet normal -0.629321 6.27006e-008 0.777146
    outer loop
      vertex -22.5 -5.19999 1.46427
      vertex -19.8378 -4.21423 3.62011
      vertex -21.3136 -0.35 2.42499
    endloop
  endfacet
  facet normal -0.62932 0 0.777146
    outer loop
      vertex -22.5 -0.35 1.46427
      vertex -21.3136 -0.35 2.42499
      vertex -22.5 0 1.46427
    endloop
  endfacet
  facet normal -0.62932 0 0.777146
    outer loop
      vertex -22.5 -5.19999 1.46427
      vertex -21.3136 -0.35 2.42499
      vertex -22.5 -0.35 1.46427
    endloop
  endfacet
  facet normal -0.62932 -6.37039e-007 0.777146
    outer loop
      vertex -19.8378 -4.21423 3.62011
      vertex -22.5 -5.19999 1.46427
      vertex -20.3981 -5.19999 3.16633
    endloop
  endfacet
  facet normal 0.62932 0 0.777146
    outer loop
      vertex 21.3136 -0.35 2.42499
      vertex 22.5 -0.35 1.46427
      vertex 22.5 0 1.46427
    endloop
  endfacet
  facet normal 0.62932 0 0.777146
    outer loop
      vertex 22.5 -0.35 1.46427
      vertex 21.3136 -0.35 2.42499
      vertex 22.5 -5.19999 1.46427
    endloop
  endfacet
  facet normal 0.62932 1.31973e-007 0.777146
    outer loop
      vertex 21.3136 -0.35 2.42499
      vertex 22.5 0 1.46427
      vertex 21.1799 0 2.53324
    endloop
  endfacet
  facet normal 0.62932 -5.85752e-008 0.777146
    outer loop
      vertex 19.8378 -4.21423 3.62011
      vertex 22.5 -5.19999 1.46427
      vertex 21.3136 -0.35 2.42499
    endloop
  endfacet
  facet normal 0.62932 5.80632e-007 0.777146
    outer loop
      vertex 22.5 -5.19999 1.46427
      vertex 19.8378 -4.21423 3.62011
      vertex 20.3981 -5.19999 3.16633
    endloop
  endfacet
  facet normal 0.629318 -1.75041e-006 0.777148
    outer loop
      vertex 20.3981 -5.19999 3.16633
      vertex 19.8378 -4.21423 3.62011
      vertex 20.0983 -5.0423 3.40915
    endloop
  endfacet
  facet normal 0.629321 0 0.777145
    outer loop
      vertex 20.0983 -5.0423 3.40915
      vertex 19.8378 -4.21423 3.62011
      vertex 19.8378 -4.87147 3.62011
    endloop
  endfacet
  facet normal 0.544639 0 0.83867
    outer loop
      vertex 19.8378 -4.21423 3.62011
      vertex 19.5874 -4.73983 3.78267
      vertex 19.8378 -4.87147 3.62011
    endloop
  endfacet
endsolid OpenSCAD_Model
