solid OpenSCAD_Model
  facet normal -0.691561 0.399274 0.601933
    outer loop
      vertex -14.9245 35 5.5
      vertex -7.62354 48.2043 5.12939
      vertex -8.32828 49.425 3.51
    endloop
  endfacet
  facet normal -0.691581 0.399285 0.601903
    outer loop
      vertex -7.62354 48.2043 5.12939
      vertex -14.9245 35 5.5
      vertex -7.5 47.8596 5.5
    endloop
  endfacet
  facet normal 0 -1 0
    outer loop
      vertex 6.88889 20.575 3.5
      vertex 8.32828 20.575 3.51
      vertex 6.88444 20.575 3.51
    endloop
  endfacet
  facet normal 0 -1 -0
    outer loop
      vertex 8.32828 20.575 3.51
      vertex 6.88889 20.575 3.5
      vertex 8.32828 20.575 3.5
    endloop
  endfacet
  facet normal 0 -1 0
    outer loop
      vertex -6.88889 20.575 3.5
      vertex -8.32828 20.575 3.51
      vertex -8.32828 20.575 3.5
    endloop
  endfacet
  facet normal 0 -1 0
    outer loop
      vertex -8.32828 20.575 3.51
      vertex -6.88889 20.575 3.5
      vertex -6.88444 20.575 3.51
    endloop
  endfacet
  facet normal 0.866026 0.499999 0
    outer loop
      vertex 15 37.8692 3.51
      vertex 8.32828 49.425 3.5
      vertex 8.32828 49.425 3.51
    endloop
  endfacet
  facet normal 0.866026 0.499999 0
    outer loop
      vertex 8.32828 49.425 3.5
      vertex 15 37.8692 3.51
      vertex 15 37.8692 3.5
    endloop
  endfacet
  facet normal -0.691567 -0.399276 0.601925
    outer loop
      vertex -7.46225 22.075 5.5
      vertex -14.9245 35 5.5
      vertex -8.32828 20.575 3.51
    endloop
  endfacet
  facet normal -0 0.79854 0.601941
    outer loop
      vertex 8.16333 49.425 3.51
      vertex 7.62354 48.2043 5.12939
      vertex 8.32828 49.425 3.51
    endloop
  endfacet
  facet normal 0 0.79854 0.601941
    outer loop
      vertex -8.16333 49.425 3.51
      vertex -8.32828 49.425 3.51
      vertex -7.62354 48.2043 5.12939
    endloop
  endfacet
  facet normal 0 -0.798553 0.601924
    outer loop
      vertex -6.88444 20.575 3.51
      vertex -7.46225 22.075 5.5
      vertex -8.32828 20.575 3.51
    endloop
  endfacet
  facet normal 0 -0.798553 0.601924
    outer loop
      vertex -7.46225 22.075 5.5
      vertex -6.88444 20.575 3.51
      vertex -6 22.075 5.5
    endloop
  endfacet
  facet normal 0 -0.798553 0.601924
    outer loop
      vertex 6.88444 20.575 3.51
      vertex 7.46225 22.075 5.5
      vertex 6 22.075 5.5
    endloop
  endfacet
  facet normal 0 -0.798553 0.601924
    outer loop
      vertex 7.46225 22.075 5.5
      vertex 6.88444 20.575 3.51
      vertex 8.32828 20.575 3.51
    endloop
  endfacet
  facet normal 0 0 1
    outer loop
      vertex -14.9245 35 5.5
      vertex -7.5 41.8596 5.5
      vertex -7.5 47.8596 5.5
    endloop
  endfacet
  facet normal 0 0 1
    outer loop
      vertex -7.5 41.8596 5.5
      vertex -14.9245 35 5.5
      vertex -11.4604 35 5.5
    endloop
  endfacet
  facet normal -0 0 1
    outer loop
      vertex 7.5 41.8596 5.5
      vertex 14.9245 35 5.5
      vertex 7.5 47.8596 5.5
    endloop
  endfacet
  facet normal 0 0 1
    outer loop
      vertex 14.9245 35 5.5
      vertex 7.5 41.8596 5.5
      vertex 11.4604 35 5.5
    endloop
  endfacet
  facet normal -0 0 1
    outer loop
      vertex 11.4604 35 5.5
      vertex 7.46225 22.075 5.5
      vertex 14.9245 35 5.5
    endloop
  endfacet
  facet normal -0 0 1
    outer loop
      vertex 5.7302 25.075 5.5
      vertex 7.46225 22.075 5.5
      vertex 11.4604 35 5.5
    endloop
  endfacet
  facet normal -0 0 1
    outer loop
      vertex 0.5 25.075 5.5
      vertex 6 22.075 5.5
      vertex 5.7302 25.075 5.5
    endloop
  endfacet
  facet normal 0 0 1
    outer loop
      vertex 7.46225 22.075 5.5
      vertex 5.7302 25.075 5.5
      vertex 6 22.075 5.5
    endloop
  endfacet
  facet normal 0 0 1
    outer loop
      vertex 7.46225 -22.075 5.5
      vertex 11.4604 -35 5.5
      vertex 14.9245 -35 5.5
    endloop
  endfacet
  facet normal 0 0 1
    outer loop
      vertex 5.7302 -25.075 5.5
      vertex 7.46225 -22.075 5.5
      vertex 6 -22.075 5.5
    endloop
  endfacet
  facet normal 0 0 1
    outer loop
      vertex 7.46225 -22.075 5.5
      vertex 5.7302 -25.075 5.5
      vertex 11.4604 -35 5.5
    endloop
  endfacet
  facet normal 0 0 1
    outer loop
      vertex 6 22.075 5.5
      vertex 0.5 13.15 5.5
      vertex 6 -22.075 5.5
    endloop
  endfacet
  facet normal 0 0 1
    outer loop
      vertex 6 22.075 5.5
      vertex 0.5 25.075 5.5
      vertex 0.5 13.15 5.5
    endloop
  endfacet
  facet normal -0 0 1
    outer loop
      vertex 0.5 -13.15 5.5
      vertex 6 -22.075 5.5
      vertex 0.5 13.15 5.5
    endloop
  endfacet
  facet normal 0 0 1
    outer loop
      vertex 0.5 -25.075 5.5
      vertex 6 -22.075 5.5
      vertex 0.5 -13.15 5.5
    endloop
  endfacet
  facet normal 0 0 1
    outer loop
      vertex 6 -22.075 5.5
      vertex 0.5 -25.075 5.5
      vertex 5.7302 -25.075 5.5
    endloop
  endfacet
  facet normal 0 0 1
    outer loop
      vertex 7.5 -41.8596 5.5
      vertex 14.9245 -35 5.5
      vertex 11.4604 -35 5.5
    endloop
  endfacet
  facet normal 0 0 1
    outer loop
      vertex 14.9245 -35 5.5
      vertex 7.5 -41.8596 5.5
      vertex 7.5 -47.8596 5.5
    endloop
  endfacet
  facet normal -0 0 1
    outer loop
      vertex -6 22.075 5.5
      vertex -0.5 13.15 5.5
      vertex -0.5 25.075 5.5
    endloop
  endfacet
  facet normal 0 0 1
    outer loop
      vertex -0.5 13.15 5.5
      vertex -6 22.075 5.5
      vertex -0.5 -13.15 5.5
    endloop
  endfacet
  facet normal 0 0 1
    outer loop
      vertex -6 22.075 5.5
      vertex -0.5 25.075 5.5
      vertex -5.7302 25.075 5.5
    endloop
  endfacet
  facet normal 0 0 1
    outer loop
      vertex -6 -22.075 5.5
      vertex -0.5 -13.15 5.5
      vertex -6 22.075 5.5
    endloop
  endfacet
  facet normal 0 0 1
    outer loop
      vertex -0.5 -13.15 5.5
      vertex -6 -22.075 5.5
      vertex -0.5 -25.075 5.5
    endloop
  endfacet
  facet normal 0 0 1
    outer loop
      vertex -5.7302 25.075 5.5
      vertex -7.46225 22.075 5.5
      vertex -6 22.075 5.5
    endloop
  endfacet
  facet normal 0 0 1
    outer loop
      vertex -11.4604 35 5.5
      vertex -7.46225 22.075 5.5
      vertex -5.7302 25.075 5.5
    endloop
  endfacet
  facet normal 0 0 1
    outer loop
      vertex -7.46225 22.075 5.5
      vertex -11.4604 35 5.5
      vertex -14.9245 35 5.5
    endloop
  endfacet
  facet normal -0 0 1
    outer loop
      vertex -0.5 13.15 5.5
      vertex 0.5 -13.15 5.5
      vertex 0.5 13.15 5.5
    endloop
  endfacet
  facet normal 0 0 1
    outer loop
      vertex 0.5 -13.15 5.5
      vertex -0.5 13.15 5.5
      vertex -0.5 -13.15 5.5
    endloop
  endfacet
  facet normal 0 0 1
    outer loop
      vertex -0.5 -25.075 5.5
      vertex -6 -22.075 5.5
      vertex -5.7302 -25.075 5.5
    endloop
  endfacet
  facet normal -0 0 1
    outer loop
      vertex -7.46225 -22.075 5.5
      vertex -5.7302 -25.075 5.5
      vertex -6 -22.075 5.5
    endloop
  endfacet
  facet normal 0 0 1
    outer loop
      vertex -7.46225 -22.075 5.5
      vertex -11.4604 -35 5.5
      vertex -5.7302 -25.075 5.5
    endloop
  endfacet
  facet normal 0 -0 1
    outer loop
      vertex -11.4604 -35 5.5
      vertex -7.46225 -22.075 5.5
      vertex -14.9245 -35 5.5
    endloop
  endfacet
  facet normal -0 0 1
    outer loop
      vertex -14.9245 -35 5.5
      vertex -7.5 -41.8596 5.5
      vertex -11.4604 -35 5.5
    endloop
  endfacet
  facet normal 0 0 1
    outer loop
      vertex -7.5 -41.8596 5.5
      vertex -14.9245 -35 5.5
      vertex -7.5 -47.8596 5.5
    endloop
  endfacet
  facet normal -0.691549 0.39929 0.601936
    outer loop
      vertex -14.9245 35 5.5
      vertex -15 37.8692 3.51
      vertex -15 35 5.41326
    endloop
  endfacet
  facet normal -0.691571 0.399277 0.60192
    outer loop
      vertex -15 37.8692 3.51
      vertex -14.9245 35 5.5
      vertex -8.32828 49.425 3.51
    endloop
  endfacet
  facet normal 0 1 0
    outer loop
      vertex 8.16667 49.425 3.5
      vertex 8.32828 49.425 3.51
      vertex 8.32828 49.425 3.5
    endloop
  endfacet
  facet normal 0 1 0
    outer loop
      vertex 8.32828 49.425 3.51
      vertex 8.16667 49.425 3.5
      vertex 8.16333 49.425 3.51
    endloop
  endfacet
  facet normal 0 1 -0
    outer loop
      vertex -8.16667 49.425 3.5
      vertex -8.32828 49.425 3.51
      vertex -8.16333 49.425 3.51
    endloop
  endfacet
  facet normal 0 1 0
    outer loop
      vertex -8.32828 49.425 3.51
      vertex -8.16667 49.425 3.5
      vertex -8.32828 49.425 3.5
    endloop
  endfacet
  facet normal 0.866026 -0.499999 0
    outer loop
      vertex 8.32828 20.575 3.51
      vertex 15 32.1308 3.5
      vertex 15 32.1308 3.51
    endloop
  endfacet
  facet normal 0.866026 -0.499999 0
    outer loop
      vertex 15 32.1308 3.5
      vertex 8.32828 20.575 3.51
      vertex 8.32828 20.575 3.5
    endloop
  endfacet
  facet normal -0.866026 0.499999 0
    outer loop
      vertex -15 37.8692 3.5
      vertex -8.32828 49.425 3.51
      vertex -8.32828 49.425 3.5
    endloop
  endfacet
  facet normal -0.866026 0.499999 0
    outer loop
      vertex -8.32828 49.425 3.51
      vertex -15 37.8692 3.5
      vertex -15 37.8692 3.51
    endloop
  endfacet
  facet normal -0 0 1
    outer loop
      vertex 8.32828 20.575 3.5
      vertex 15 0.5 3.5
      vertex 15 32.1308 3.5
    endloop
  endfacet
  facet normal -0 0 1
    outer loop
      vertex 6.88889 20.575 3.5
      vertex 14.5 0.5 3.5
      vertex 8.32828 20.575 3.5
    endloop
  endfacet
  facet normal 0 0 1
    outer loop
      vertex 15 0.5 3.5
      vertex 8.32828 20.575 3.5
      vertex 14.5 0.5 3.5
    endloop
  endfacet
  facet normal 0 0 1
    outer loop
      vertex 8.32828 -20.575 3.5
      vertex 15 -0.5 3.5
      vertex 14.5 -0.5 3.5
    endloop
  endfacet
  facet normal 0 0 1
    outer loop
      vertex 14.5 0.5 3.5
      vertex 6.88889 20.575 3.5
      vertex 14.5 -0.5 3.5
    endloop
  endfacet
  facet normal 0 0 1
    outer loop
      vertex 15 -0.5 3.5
      vertex 8.32828 -20.575 3.5
      vertex 15 -32.1308 3.5
    endloop
  endfacet
  facet normal 0 0 1
    outer loop
      vertex 6.88889 -20.575 3.5
      vertex 14.5 -0.5 3.5
      vertex 6.88889 20.575 3.5
    endloop
  endfacet
  facet normal 0 0 1
    outer loop
      vertex 14.5 -0.5 3.5
      vertex 6.88889 -20.575 3.5
      vertex 8.32828 -20.575 3.5
    endloop
  endfacet
  facet normal -0 0 1
    outer loop
      vertex 8.32828 -49.425 3.5
      vertex 15 -69.5 3.5
      vertex 15 -37.8692 3.5
    endloop
  endfacet
  facet normal 0 0 1
    outer loop
      vertex 8.16667 -69.5 3.5
      vertex 8.32828 -49.425 3.5
      vertex 8.16667 -49.425 3.5
    endloop
  endfacet
  facet normal 0 0 1
    outer loop
      vertex 8.32828 -49.425 3.5
      vertex 8.16667 -69.5 3.5
      vertex 15 -69.5 3.5
    endloop
  endfacet
  facet normal -0 0 1
    outer loop
      vertex -8.32828 -49.425 3.5
      vertex -8.16667 -69.5 3.5
      vertex -8.16667 -49.425 3.5
    endloop
  endfacet
  facet normal 0 0 1
    outer loop
      vertex -15 -69.5 3.5
      vertex -8.32828 -49.425 3.5
      vertex -15 -37.8692 3.5
    endloop
  endfacet
  facet normal 0 0 1
    outer loop
      vertex -8.32828 -49.425 3.5
      vertex -15 -69.5 3.5
      vertex -8.16667 -69.5 3.5
    endloop
  endfacet
  facet normal 0 0 1
    outer loop
      vertex -14.5 0.5 3.5
      vertex -6.88889 20.575 3.5
      vertex -8.32828 20.575 3.5
    endloop
  endfacet
  facet normal 0 0 1
    outer loop
      vertex -6.88889 20.575 3.5
      vertex -14.5 0.5 3.5
      vertex -6.88889 -20.575 3.5
    endloop
  endfacet
  facet normal -0 0 1
    outer loop
      vertex -14.5 -0.5 3.5
      vertex -6.88889 -20.575 3.5
      vertex -14.5 0.5 3.5
    endloop
  endfacet
  facet normal 0 0 1
    outer loop
      vertex -15 0.5 3.5
      vertex -8.32828 20.575 3.5
      vertex -15 32.1308 3.5
    endloop
  endfacet
  facet normal 0 0 1
    outer loop
      vertex -8.32828 20.575 3.5
      vertex -15 0.5 3.5
      vertex -14.5 0.5 3.5
    endloop
  endfacet
  facet normal 0 0 1
    outer loop
      vertex -6.88889 -20.575 3.5
      vertex -14.5 -0.5 3.5
      vertex -8.32828 -20.575 3.5
    endloop
  endfacet
  facet normal -0 0 1
    outer loop
      vertex -15 -0.5 3.5
      vertex -8.32828 -20.575 3.5
      vertex -14.5 -0.5 3.5
    endloop
  endfacet
  facet normal 0 0 1
    outer loop
      vertex -8.32828 -20.575 3.5
      vertex -15 -0.5 3.5
      vertex -15 -32.1308 3.5
    endloop
  endfacet
  facet normal 0 0 1
    outer loop
      vertex 15 69.5 3.5
      vertex 8.32828 49.425 3.5
      vertex 15 37.8692 3.5
    endloop
  endfacet
  facet normal -0 0 1
    outer loop
      vertex 8.16667 69.5 3.5
      vertex 8.32828 49.425 3.5
      vertex 15 69.5 3.5
    endloop
  endfacet
  facet normal 0 0 1
    outer loop
      vertex 8.32828 49.425 3.5
      vertex 8.16667 69.5 3.5
      vertex 8.16667 49.425 3.5
    endloop
  endfacet
  facet normal 0 0 1
    outer loop
      vertex -8.16667 69.5 3.5
      vertex -8.32828 49.425 3.5
      vertex -8.16667 49.425 3.5
    endloop
  endfacet
  facet normal -0 0 1
    outer loop
      vertex -15 69.5 3.5
      vertex -8.32828 49.425 3.5
      vertex -8.16667 69.5 3.5
    endloop
  endfacet
  facet normal 0 0 1
    outer loop
      vertex -8.32828 49.425 3.5
      vertex -15 69.5 3.5
      vertex -15 37.8692 3.5
    endloop
  endfacet
  facet normal 0.691549 -0.39929 0.601936
    outer loop
      vertex 14.9245 35 5.5
      vertex 15 32.1308 3.51
      vertex 15 35 5.41326
    endloop
  endfacet
  facet normal 0.691571 -0.399277 0.60192
    outer loop
      vertex 15 32.1308 3.51
      vertex 14.9245 35 5.5
      vertex 8.32828 20.575 3.51
    endloop
  endfacet
  facet normal 0.691571 0.399277 0.60192
    outer loop
      vertex 14.9245 35 5.5
      vertex 15 37.8692 3.51
      vertex 8.32828 49.425 3.51
    endloop
  endfacet
  facet normal 0.691549 0.39929 0.601936
    outer loop
      vertex 15 37.8692 3.51
      vertex 14.9245 35 5.5
      vertex 15 35 5.41326
    endloop
  endfacet
  facet normal -0.691549 -0.39929 0.601936
    outer loop
      vertex -15 32.1308 3.51
      vertex -14.9245 35 5.5
      vertex -15 35 5.41326
    endloop
  endfacet
  facet normal -0.691571 -0.399277 0.60192
    outer loop
      vertex -14.9245 35 5.5
      vertex -15 32.1308 3.51
      vertex -8.32828 20.575 3.51
    endloop
  endfacet
  facet normal -0.866026 -0.499999 0
    outer loop
      vertex -8.32828 20.575 3.5
      vertex -15 32.1308 3.51
      vertex -15 32.1308 3.5
    endloop
  endfacet
  facet normal -0.866026 -0.499999 0
    outer loop
      vertex -15 32.1308 3.51
      vertex -8.32828 20.575 3.5
      vertex -8.32828 20.575 3.51
    endloop
  endfacet
  facet normal 0.691567 -0.399276 0.601925
    outer loop
      vertex 14.9245 35 5.5
      vertex 7.46225 22.075 5.5
      vertex 8.32828 20.575 3.51
    endloop
  endfacet
  facet normal 0.691581 0.399285 0.601903
    outer loop
      vertex 14.9245 35 5.5
      vertex 7.62354 48.2043 5.12939
      vertex 7.5 47.8596 5.5
    endloop
  endfacet
  facet normal 0.691561 0.399274 0.601933
    outer loop
      vertex 7.62354 48.2043 5.12939
      vertex 14.9245 35 5.5
      vertex 8.32828 49.425 3.51
    endloop
  endfacet
  facet normal -1 0 0
    outer loop
      vertex -15 -0.5 0
      vertex -15 -32.1308 3.5
      vertex -15 -0.5 3.5
    endloop
  endfacet
  facet normal -1 0 0
    outer loop
      vertex -15 -32.1308 3.5
      vertex -15 -35 5.41326
      vertex -15 -32.1308 3.51
    endloop
  endfacet
  facet normal -1 0 0
    outer loop
      vertex -15 -32.1308 3.5
      vertex -15 -37.8692 3.5
      vertex -15 -35 5.41326
    endloop
  endfacet
  facet normal -1 0 0
    outer loop
      vertex -15 -0.5 0
      vertex -15 -37.8692 3.5
      vertex -15 -32.1308 3.5
    endloop
  endfacet
  facet normal -1 0 0
    outer loop
      vertex -15 -69.5 0
      vertex -15 -37.8692 3.5
      vertex -15 -0.5 0
    endloop
  endfacet
  facet normal -1 -0 0
    outer loop
      vertex -15 -37.8692 3.5
      vertex -15 -69.5 0
      vertex -15 -69.5 3.5
    endloop
  endfacet
  facet normal -1 0 0
    outer loop
      vertex -15 -35 5.41326
      vertex -15 -37.8692 3.5
      vertex -15 -37.8692 3.51
    endloop
  endfacet
  facet normal -1 0 0
    outer loop
      vertex -15 69.5 0
      vertex -15 37.8692 3.5
      vertex -15 69.5 3.5
    endloop
  endfacet
  facet normal -1 0 0
    outer loop
      vertex -15 37.8692 3.5
      vertex -15 35 5.41326
      vertex -15 37.8692 3.51
    endloop
  endfacet
  facet normal -1 0 0
    outer loop
      vertex -15 37.8692 3.5
      vertex -15 32.1308 3.5
      vertex -15 35 5.41326
    endloop
  endfacet
  facet normal -1 0 0
    outer loop
      vertex -15 69.5 0
      vertex -15 32.1308 3.5
      vertex -15 37.8692 3.5
    endloop
  endfacet
  facet normal -1 0 0
    outer loop
      vertex -15 0.5 0
      vertex -15 32.1308 3.5
      vertex -15 69.5 0
    endloop
  endfacet
  facet normal -1 -0 0
    outer loop
      vertex -15 32.1308 3.5
      vertex -15 0.5 0
      vertex -15 0.5 3.5
    endloop
  endfacet
  facet normal -1 0 0
    outer loop
      vertex -15 35 5.41326
      vertex -15 32.1308 3.5
      vertex -15 32.1308 3.51
    endloop
  endfacet
  facet normal 1 0 0
    outer loop
      vertex 15 -32.1308 3.51
      vertex 15 -35 5.41326
      vertex 15 -32.1308 3.5
    endloop
  endfacet
  facet normal 1 -0 0
    outer loop
      vertex 15 -32.1308 3.5
      vertex 15 -0.5 0
      vertex 15 -0.5 3.5
    endloop
  endfacet
  facet normal 1 0 0
    outer loop
      vertex 15 -37.8692 3.5
      vertex 15 -35 5.41326
      vertex 15 -37.8692 3.51
    endloop
  endfacet
  facet normal 1 0 0
    outer loop
      vertex 15 -35 5.41326
      vertex 15 -37.8692 3.5
      vertex 15 -32.1308 3.5
    endloop
  endfacet
  facet normal 1 0 0
    outer loop
      vertex 15 -32.1308 3.5
      vertex 15 -37.8692 3.5
      vertex 15 -0.5 0
    endloop
  endfacet
  facet normal 1 0 0
    outer loop
      vertex 15 -69.5 0
      vertex 15 -37.8692 3.5
      vertex 15 -69.5 3.5
    endloop
  endfacet
  facet normal 1 0 0
    outer loop
      vertex 15 -37.8692 3.5
      vertex 15 -69.5 0
      vertex 15 -0.5 0
    endloop
  endfacet
  facet normal 1 0 0
    outer loop
      vertex 15 37.8692 3.51
      vertex 15 35 5.41326
      vertex 15 37.8692 3.5
    endloop
  endfacet
  facet normal 1 -0 0
    outer loop
      vertex 15 37.8692 3.5
      vertex 15 69.5 0
      vertex 15 69.5 3.5
    endloop
  endfacet
  facet normal 1 0 0
    outer loop
      vertex 15 32.1308 3.5
      vertex 15 35 5.41326
      vertex 15 32.1308 3.51
    endloop
  endfacet
  facet normal 1 0 0
    outer loop
      vertex 15 35 5.41326
      vertex 15 32.1308 3.5
      vertex 15 37.8692 3.5
    endloop
  endfacet
  facet normal 1 0 0
    outer loop
      vertex 15 37.8692 3.5
      vertex 15 32.1308 3.5
      vertex 15 69.5 0
    endloop
  endfacet
  facet normal 1 0 0
    outer loop
      vertex 15 0.5 0
      vertex 15 32.1308 3.5
      vertex 15 0.5 3.5
    endloop
  endfacet
  facet normal 1 0 0
    outer loop
      vertex 15 32.1308 3.5
      vertex 15 0.5 0
      vertex 15 69.5 0
    endloop
  endfacet
  facet normal -0.691567 0.399276 0.601925
    outer loop
      vertex -8.32828 -20.575 3.51
      vertex -14.9245 -35 5.5
      vertex -7.46225 -22.075 5.5
    endloop
  endfacet
  facet normal 0 -1 0
    outer loop
      vertex 8.16667 -49.425 3.5
      vertex 8.32828 -49.425 3.51
      vertex 8.16333 -49.425 3.51
    endloop
  endfacet
  facet normal 0 -1 -0
    outer loop
      vertex 8.32828 -49.425 3.51
      vertex 8.16667 -49.425 3.5
      vertex 8.32828 -49.425 3.5
    endloop
  endfacet
  facet normal 0 -1 0
    outer loop
      vertex -8.16667 -49.425 3.5
      vertex -8.32828 -49.425 3.51
      vertex -8.32828 -49.425 3.5
    endloop
  endfacet
  facet normal 0 -1 0
    outer loop
      vertex -8.32828 -49.425 3.51
      vertex -8.16667 -49.425 3.5
      vertex -8.16333 -49.425 3.51
    endloop
  endfacet
  facet normal 0.866026 0.499999 0
    outer loop
      vertex 15 -32.1308 3.51
      vertex 8.32828 -20.575 3.5
      vertex 8.32828 -20.575 3.51
    endloop
  endfacet
  facet normal 0.866026 0.499999 0
    outer loop
      vertex 8.32828 -20.575 3.5
      vertex 15 -32.1308 3.51
      vertex 15 -32.1308 3.5
    endloop
  endfacet
  facet normal -0.691581 -0.399285 0.601903
    outer loop
      vertex -14.9245 -35 5.5
      vertex -7.62354 -48.2043 5.12939
      vertex -7.5 -47.8596 5.5
    endloop
  endfacet
  facet normal -0.691561 -0.399274 0.601933
    outer loop
      vertex -7.62354 -48.2043 5.12939
      vertex -14.9245 -35 5.5
      vertex -8.32828 -49.425 3.51
    endloop
  endfacet
  facet normal -0 0.798553 0.601924
    outer loop
      vertex 6.88444 -20.575 3.51
      vertex 7.46225 -22.075 5.5
      vertex 8.32828 -20.575 3.51
    endloop
  endfacet
  facet normal 0 0.798553 0.601924
    outer loop
      vertex 7.46225 -22.075 5.5
      vertex 6.88444 -20.575 3.51
      vertex 6 -22.075 5.5
    endloop
  endfacet
  facet normal 0 0.798553 0.601924
    outer loop
      vertex -6.88444 -20.575 3.51
      vertex -7.46225 -22.075 5.5
      vertex -6 -22.075 5.5
    endloop
  endfacet
  facet normal 0 0.798553 0.601924
    outer loop
      vertex -7.46225 -22.075 5.5
      vertex -6.88444 -20.575 3.51
      vertex -8.32828 -20.575 3.51
    endloop
  endfacet
  facet normal 0 -0.79854 0.601941
    outer loop
      vertex 8.32828 -49.425 3.51
      vertex 7.62354 -48.2043 5.12939
      vertex 8.16333 -49.425 3.51
    endloop
  endfacet
  facet normal 0 -0.79854 0.601941
    outer loop
      vertex -7.62354 -48.2043 5.12939
      vertex -8.32828 -49.425 3.51
      vertex -8.16333 -49.425 3.51
    endloop
  endfacet
  facet normal -0.691549 0.39929 0.601936
    outer loop
      vertex -14.9245 -35 5.5
      vertex -15 -32.1308 3.51
      vertex -15 -35 5.41326
    endloop
  endfacet
  facet normal -0.691571 0.399277 0.60192
    outer loop
      vertex -15 -32.1308 3.51
      vertex -14.9245 -35 5.5
      vertex -8.32828 -20.575 3.51
    endloop
  endfacet
  facet normal 0 1 0
    outer loop
      vertex 6.88889 -20.575 3.5
      vertex 8.32828 -20.575 3.51
      vertex 8.32828 -20.575 3.5
    endloop
  endfacet
  facet normal 0 1 0
    outer loop
      vertex 8.32828 -20.575 3.51
      vertex 6.88889 -20.575 3.5
      vertex 6.88444 -20.575 3.51
    endloop
  endfacet
  facet normal 0 1 -0
    outer loop
      vertex -6.88889 -20.575 3.5
      vertex -8.32828 -20.575 3.51
      vertex -6.88444 -20.575 3.51
    endloop
  endfacet
  facet normal 0 1 0
    outer loop
      vertex -8.32828 -20.575 3.51
      vertex -6.88889 -20.575 3.5
      vertex -8.32828 -20.575 3.5
    endloop
  endfacet
  facet normal 0.866026 -0.499999 0
    outer loop
      vertex 8.32828 -49.425 3.51
      vertex 15 -37.8692 3.5
      vertex 15 -37.8692 3.51
    endloop
  endfacet
  facet normal 0.866026 -0.499999 0
    outer loop
      vertex 15 -37.8692 3.5
      vertex 8.32828 -49.425 3.51
      vertex 8.32828 -49.425 3.5
    endloop
  endfacet
  facet normal -0.866026 0.499999 0
    outer loop
      vertex -15 -32.1308 3.5
      vertex -8.32828 -20.575 3.51
      vertex -8.32828 -20.575 3.5
    endloop
  endfacet
  facet normal -0.866026 0.499999 0
    outer loop
      vertex -8.32828 -20.575 3.51
      vertex -15 -32.1308 3.5
      vertex -15 -32.1308 3.51
    endloop
  endfacet
  facet normal 0.691549 -0.39929 0.601936
    outer loop
      vertex 14.9245 -35 5.5
      vertex 15 -37.8692 3.51
      vertex 15 -35 5.41326
    endloop
  endfacet
  facet normal 0.691571 -0.399277 0.60192
    outer loop
      vertex 15 -37.8692 3.51
      vertex 14.9245 -35 5.5
      vertex 8.32828 -49.425 3.51
    endloop
  endfacet
  facet normal 0.691571 0.399277 0.60192
    outer loop
      vertex 14.9245 -35 5.5
      vertex 15 -32.1308 3.51
      vertex 8.32828 -20.575 3.51
    endloop
  endfacet
  facet normal 0.691549 0.39929 0.601936
    outer loop
      vertex 15 -32.1308 3.51
      vertex 14.9245 -35 5.5
      vertex 15 -35 5.41326
    endloop
  endfacet
  facet normal -0.691549 -0.39929 0.601936
    outer loop
      vertex -15 -37.8692 3.51
      vertex -14.9245 -35 5.5
      vertex -15 -35 5.41326
    endloop
  endfacet
  facet normal -0.691571 -0.399277 0.60192
    outer loop
      vertex -14.9245 -35 5.5
      vertex -15 -37.8692 3.51
      vertex -8.32828 -49.425 3.51
    endloop
  endfacet
  facet normal -0.866026 -0.499999 0
    outer loop
      vertex -8.32828 -49.425 3.5
      vertex -15 -37.8692 3.51
      vertex -15 -37.8692 3.5
    endloop
  endfacet
  facet normal -0.866026 -0.499999 0
    outer loop
      vertex -15 -37.8692 3.51
      vertex -8.32828 -49.425 3.5
      vertex -8.32828 -49.425 3.51
    endloop
  endfacet
  facet normal 0.691581 -0.399285 0.601903
    outer loop
      vertex 7.62354 -48.2043 5.12939
      vertex 14.9245 -35 5.5
      vertex 7.5 -47.8596 5.5
    endloop
  endfacet
  facet normal 0.691561 -0.399274 0.601933
    outer loop
      vertex 14.9245 -35 5.5
      vertex 7.62354 -48.2043 5.12939
      vertex 8.32828 -49.425 3.51
    endloop
  endfacet
  facet normal 0.691567 0.399276 0.601925
    outer loop
      vertex 8.32828 -20.575 3.51
      vertex 7.46225 -22.075 5.5
      vertex 14.9245 -35 5.5
    endloop
  endfacet
  facet normal 0 0 -1
    outer loop
      vertex -2.503 -69.5 0
      vertex -5.7302 -44.925 0
      vertex -2.503 -44.925 0
    endloop
  endfacet
  facet normal 0 0 -1
    outer loop
      vertex -15 -69.5 0
      vertex -5.7302 -44.925 0
      vertex -2.503 -69.5 0
    endloop
  endfacet
  facet normal -0 0 -1
    outer loop
      vertex -0.5 13.15 0
      vertex -14.5 0.5 0
      vertex -5.7302 25.075 0
    endloop
  endfacet
  facet normal -0 0 -1
    outer loop
      vertex -5.7302 -44.925 0
      vertex -15 -69.5 0
      vertex -11.4604 -35 0
    endloop
  endfacet
  facet normal 0 0 -1
    outer loop
      vertex -15 -0.5 0
      vertex -11.4604 -35 0
      vertex -15 -69.5 0
    endloop
  endfacet
  facet normal 0 0 -1
    outer loop
      vertex -5.7302 -25.075 0
      vertex -15 -0.5 0
      vertex -14.5 -0.5 0
    endloop
  endfacet
  facet normal 0 0 -1
    outer loop
      vertex -5.7302 -25.075 0
      vertex -0.5 -13.15 0
      vertex -0.5 -25.075 0
    endloop
  endfacet
  facet normal 0 0 -1
    outer loop
      vertex -14.5 -0.5 0
      vertex -0.5 -13.15 0
      vertex -5.7302 -25.075 0
    endloop
  endfacet
  facet normal 0 0 -1
    outer loop
      vertex -0.5 -13.15 0
      vertex -14.5 -0.5 0
      vertex -0.5 13.15 0
    endloop
  endfacet
  facet normal 0 0 -1
    outer loop
      vertex -0.5 13.15 0
      vertex -5.7302 25.075 0
      vertex -0.5 25.075 0
    endloop
  endfacet
  facet normal 0 0 -1
    outer loop
      vertex -15 -0.5 0
      vertex -5.7302 -25.075 0
      vertex -11.4604 -35 0
    endloop
  endfacet
  facet normal 0 0 -1
    outer loop
      vertex -14.5 0.5 0
      vertex -0.5 13.15 0
      vertex -14.5 -0.5 0
    endloop
  endfacet
  facet normal 0 0 -1
    outer loop
      vertex -0.5 -13.15 0
      vertex 0.5 13.15 0
      vertex 0.5 -13.15 0
    endloop
  endfacet
  facet normal -0 0 -1
    outer loop
      vertex 0.5 13.15 0
      vertex -0.5 -13.15 0
      vertex -0.5 13.15 0
    endloop
  endfacet
  facet normal -0 0 -1
    outer loop
      vertex 14.5 -0.5 0
      vertex 0.5 -13.15 0
      vertex 14.5 0.5 0
    endloop
  endfacet
  facet normal 0 0 -1
    outer loop
      vertex 14.5 0.5 0
      vertex 5.7302 25.075 0
      vertex 11.4604 35 0
    endloop
  endfacet
  facet normal 0 0 -1
    outer loop
      vertex 0.5 -13.15 0
      vertex 5.7302 -25.075 0
      vertex 0.5 -25.075 0
    endloop
  endfacet
  facet normal 0 0 -1
    outer loop
      vertex 0.5 13.15 0
      vertex 14.5 0.5 0
      vertex 0.5 -13.15 0
    endloop
  endfacet
  facet normal 0 0 -1
    outer loop
      vertex 14.5 0.5 0
      vertex 0.5 13.15 0
      vertex 5.7302 25.075 0
    endloop
  endfacet
  facet normal -0 0 -1
    outer loop
      vertex 5.7302 25.075 0
      vertex 0.5 13.15 0
      vertex 0.5 25.075 0
    endloop
  endfacet
  facet normal 0 0 -1
    outer loop
      vertex 11.4604 -35 0
      vertex 15 -0.5 0
      vertex 15 -69.5 0
    endloop
  endfacet
  facet normal -0 0 -1
    outer loop
      vertex 15 -0.5 0
      vertex 5.7302 -25.075 0
      vertex 14.5 -0.5 0
    endloop
  endfacet
  facet normal 0 0 -1
    outer loop
      vertex 5.7302 -25.075 0
      vertex 15 -0.5 0
      vertex 11.4604 -35 0
    endloop
  endfacet
  facet normal 0 0 -1
    outer loop
      vertex 15 -69.5 0
      vertex 5.7302 -44.925 0
      vertex 11.4604 -35 0
    endloop
  endfacet
  facet normal 0 0 -1
    outer loop
      vertex 2.503 -69.5 0
      vertex 5.7302 -44.925 0
      vertex 15 -69.5 0
    endloop
  endfacet
  facet normal -0 0 -1
    outer loop
      vertex 5.7302 -44.925 0
      vertex 2.503 -69.5 0
      vertex 2.503 -44.925 0
    endloop
  endfacet
  facet normal 0 0 -1
    outer loop
      vertex 11.4604 35 0
      vertex 15 0.5 0
      vertex 14.5 0.5 0
    endloop
  endfacet
  facet normal 0 0 -1
    outer loop
      vertex 0.5 -13.15 0
      vertex 14.5 -0.5 0
      vertex 5.7302 -25.075 0
    endloop
  endfacet
  facet normal 0 0 -1
    outer loop
      vertex 15 0.5 0
      vertex 11.4604 35 0
      vertex 15 69.5 0
    endloop
  endfacet
  facet normal 0 0 -1
    outer loop
      vertex 5.7302 44.925 0
      vertex 15 69.5 0
      vertex 11.4604 35 0
    endloop
  endfacet
  facet normal 0 0 -1
    outer loop
      vertex 2.503 69.5 0
      vertex 5.7302 44.925 0
      vertex 2.503 44.925 0
    endloop
  endfacet
  facet normal 0 0 -1
    outer loop
      vertex 5.7302 44.925 0
      vertex 2.503 69.5 0
      vertex 15 69.5 0
    endloop
  endfacet
  facet normal 0 0 -1
    outer loop
      vertex -5.7302 44.925 0
      vertex -2.503 69.5 0
      vertex -2.503 44.925 0
    endloop
  endfacet
  facet normal 0 0 -1
    outer loop
      vertex -15 69.5 0
      vertex -5.7302 44.925 0
      vertex -11.4604 35 0
    endloop
  endfacet
  facet normal 0 0 -1
    outer loop
      vertex -15 0.5 0
      vertex -5.7302 25.075 0
      vertex -14.5 0.5 0
    endloop
  endfacet
  facet normal -0 0 -1
    outer loop
      vertex -5.7302 25.075 0
      vertex -15 0.5 0
      vertex -11.4604 35 0
    endloop
  endfacet
  facet normal 0 0 -1
    outer loop
      vertex -5.7302 44.925 0
      vertex -15 69.5 0
      vertex -2.503 69.5 0
    endloop
  endfacet
  facet normal 0 0 -1
    outer loop
      vertex -15 69.5 0
      vertex -11.4604 35 0
      vertex -15 0.5 0
    endloop
  endfacet
  facet normal 0 -1 0
    outer loop
      vertex -15 -69.5 3.5
      vertex -15 -69.5 0
      vertex -8.16667 -69.5 3.5
    endloop
  endfacet
  facet normal 0 -1 0
    outer loop
      vertex -7 -69.5 7
      vertex -4 -69.5 5.29
      vertex 7 -69.5 7
    endloop
  endfacet
  facet normal 0 -1 0
    outer loop
      vertex -7 -69.5 7
      vertex -4 -69.5 4.99
      vertex -4 -69.5 5.29
    endloop
  endfacet
  facet normal 0 -1 0
    outer loop
      vertex -8.16667 -69.5 3.5
      vertex -4 -69.5 4.99
      vertex -7 -69.5 7
    endloop
  endfacet
  facet normal 0 -1 0
    outer loop
      vertex -2.503 -69.5 0
      vertex -8.16667 -69.5 3.5
      vertex -15 -69.5 0
    endloop
  endfacet
  facet normal 0 -1 0
    outer loop
      vertex -8.16667 -69.5 3.5
      vertex -2.503 -69.5 0
      vertex -4 -69.5 4.99
    endloop
  endfacet
  facet normal 0 -1 0
    outer loop
      vertex 4 -69.5 5.29
      vertex 7 -69.5 7
      vertex -4 -69.5 5.29
    endloop
  endfacet
  facet normal 0 -1 0
    outer loop
      vertex 4 -69.5 4.99
      vertex 7 -69.5 7
      vertex 4 -69.5 5.29
    endloop
  endfacet
  facet normal 0 -1 0
    outer loop
      vertex 4 -69.5 4.99
      vertex 8.16667 -69.5 3.5
      vertex 7 -69.5 7
    endloop
  endfacet
  facet normal 0 -1 0
    outer loop
      vertex 2.503 -69.5 0
      vertex 8.16667 -69.5 3.5
      vertex 4 -69.5 4.99
    endloop
  endfacet
  facet normal 0 -1 0
    outer loop
      vertex 15 -69.5 0
      vertex 8.16667 -69.5 3.5
      vertex 2.503 -69.5 0
    endloop
  endfacet
  facet normal 0 -1 0
    outer loop
      vertex 8.16667 -69.5 3.5
      vertex 15 -69.5 0
      vertex 15 -69.5 3.5
    endloop
  endfacet
  facet normal 0 1 0
    outer loop
      vertex 15 69.5 3.5
      vertex 15 69.5 0
      vertex 8.16667 69.5 3.5
    endloop
  endfacet
  facet normal 0 1 0
    outer loop
      vertex 7 69.5 7
      vertex 4 69.5 5.29
      vertex -7 69.5 7
    endloop
  endfacet
  facet normal 0 1 0
    outer loop
      vertex 7 69.5 7
      vertex 4 69.5 4.99
      vertex 4 69.5 5.29
    endloop
  endfacet
  facet normal 0 1 0
    outer loop
      vertex 8.16667 69.5 3.5
      vertex 4 69.5 4.99
      vertex 7 69.5 7
    endloop
  endfacet
  facet normal 0 1 0
    outer loop
      vertex 2.503 69.5 0
      vertex 8.16667 69.5 3.5
      vertex 15 69.5 0
    endloop
  endfacet
  facet normal 0 1 0
    outer loop
      vertex 8.16667 69.5 3.5
      vertex 2.503 69.5 0
      vertex 4 69.5 4.99
    endloop
  endfacet
  facet normal 0 1 -0
    outer loop
      vertex -4 69.5 5.29
      vertex -7 69.5 7
      vertex 4 69.5 5.29
    endloop
  endfacet
  facet normal 0 1 -0
    outer loop
      vertex -4 69.5 4.99
      vertex -7 69.5 7
      vertex -4 69.5 5.29
    endloop
  endfacet
  facet normal 0 1 0
    outer loop
      vertex -4 69.5 4.99
      vertex -8.16667 69.5 3.5
      vertex -7 69.5 7
    endloop
  endfacet
  facet normal 0 1 0
    outer loop
      vertex -2.503 69.5 0
      vertex -8.16667 69.5 3.5
      vertex -4 69.5 4.99
    endloop
  endfacet
  facet normal 0 1 0
    outer loop
      vertex -15 69.5 0
      vertex -8.16667 69.5 3.5
      vertex -2.503 69.5 0
    endloop
  endfacet
  facet normal 0 1 0
    outer loop
      vertex -8.16667 69.5 3.5
      vertex -15 69.5 0
      vertex -15 69.5 3.5
    endloop
  endfacet
  facet normal 0.948683 -3.14596e-07 0.316229
    outer loop
      vertex 7 69.5 7
      vertex 8.16333 49.425 3.51
      vertex 8.16667 69.5 3.5
    endloop
  endfacet
  facet normal 0.948684 4.61028e-07 0.316225
    outer loop
      vertex 7 69.5 7
      vertex 7.62354 48.2043 5.12939
      vertex 8.16333 49.425 3.51
    endloop
  endfacet
  facet normal 0.948681 -5.55616e-07 0.316235
    outer loop
      vertex 7 69.5 7
      vertex 7.5 47.8596 5.5
      vertex 7.62354 48.2043 5.12939
    endloop
  endfacet
  facet normal 0.948683 -0 0.316228
    outer loop
      vertex 7 42.7256 7
      vertex 7.5 47.8596 5.5
      vertex 7 69.5 7
    endloop
  endfacet
  facet normal 0.948683 0 0.316228
    outer loop
      vertex 7.5 47.8596 5.5
      vertex 7 42.7256 7
      vertex 7.5 41.8596 5.5
    endloop
  endfacet
  facet normal 0.948493 0 0.316797
    outer loop
      vertex 8.16667 69.5 3.5
      vertex 8.16333 49.425 3.51
      vertex 8.16667 49.425 3.5
    endloop
  endfacet
  facet normal 0 0 1
    outer loop
      vertex 7 69.5 7
      vertex 5.7302 44.925 7
      vertex 7 42.7256 7
    endloop
  endfacet
  facet normal 0 0 1
    outer loop
      vertex 7 69.5 7
      vertex -5.7302 44.925 7
      vertex 5.7302 44.925 7
    endloop
  endfacet
  facet normal -0 0 1
    outer loop
      vertex -7 69.5 7
      vertex -5.7302 44.925 7
      vertex 7 69.5 7
    endloop
  endfacet
  facet normal 0 0 1
    outer loop
      vertex -5.7302 44.925 7
      vertex -7 69.5 7
      vertex -7 42.7256 7
    endloop
  endfacet
  facet normal -0.948493 0 0.316797
    outer loop
      vertex -8.16333 49.425 3.51
      vertex -8.16667 69.5 3.5
      vertex -8.16667 49.425 3.5
    endloop
  endfacet
  facet normal -0.948683 -3.14596e-07 0.316229
    outer loop
      vertex -8.16667 69.5 3.5
      vertex -8.16333 49.425 3.51
      vertex -7 69.5 7
    endloop
  endfacet
  facet normal -0.948684 4.61028e-07 0.316225
    outer loop
      vertex -7.62354 48.2043 5.12939
      vertex -7 69.5 7
      vertex -8.16333 49.425 3.51
    endloop
  endfacet
  facet normal -0.948681 -5.55616e-07 0.316235
    outer loop
      vertex -7.5 47.8596 5.5
      vertex -7 69.5 7
      vertex -7.62354 48.2043 5.12939
    endloop
  endfacet
  facet normal -0.948683 0 0.316228
    outer loop
      vertex -7.5 47.8596 5.5
      vertex -7 42.7256 7
      vertex -7 69.5 7
    endloop
  endfacet
  facet normal -0.948683 0 0.316228
    outer loop
      vertex -7 42.7256 7
      vertex -7.5 47.8596 5.5
      vertex -7.5 41.8596 5.5
    endloop
  endfacet
  facet normal 0.948683 0 0.316228
    outer loop
      vertex 7 -42.7256 7
      vertex 7.5 -47.8596 5.5
      vertex 7.5 -41.8596 5.5
    endloop
  endfacet
  facet normal 0.948683 -0 0.316228
    outer loop
      vertex 7 -69.5 7
      vertex 7.5 -47.8596 5.5
      vertex 7 -42.7256 7
    endloop
  endfacet
  facet normal 0.948681 5.55616e-07 0.316235
    outer loop
      vertex 7 -69.5 7
      vertex 7.62354 -48.2043 5.12939
      vertex 7.5 -47.8596 5.5
    endloop
  endfacet
  facet normal 0.948684 -4.61028e-07 0.316225
    outer loop
      vertex 7 -69.5 7
      vertex 8.16333 -49.425 3.51
      vertex 7.62354 -48.2043 5.12939
    endloop
  endfacet
  facet normal 0.948683 3.14596e-07 0.316229
    outer loop
      vertex 8.16667 -69.5 3.5
      vertex 8.16333 -49.425 3.51
      vertex 7 -69.5 7
    endloop
  endfacet
  facet normal 0.948493 0 0.316797
    outer loop
      vertex 8.16333 -49.425 3.51
      vertex 8.16667 -69.5 3.5
      vertex 8.16667 -49.425 3.5
    endloop
  endfacet
  facet normal -0 0 1
    outer loop
      vertex 5.7302 -44.925 7
      vertex 7 -69.5 7
      vertex 7 -42.7256 7
    endloop
  endfacet
  facet normal -0 0 1
    outer loop
      vertex -5.7302 -44.925 7
      vertex 7 -69.5 7
      vertex 5.7302 -44.925 7
    endloop
  endfacet
  facet normal 0 0 1
    outer loop
      vertex -7 -69.5 7
      vertex -5.7302 -44.925 7
      vertex -7 -42.7256 7
    endloop
  endfacet
  facet normal 0 0 1
    outer loop
      vertex -5.7302 -44.925 7
      vertex -7 -69.5 7
      vertex 7 -69.5 7
    endloop
  endfacet
  facet normal -0.948493 0 0.316797
    outer loop
      vertex -8.16667 -49.425 3.5
      vertex -8.16667 -69.5 3.5
      vertex -8.16333 -49.425 3.51
    endloop
  endfacet
  facet normal -0.948683 0 0.316228
    outer loop
      vertex -7.5 -47.8596 5.5
      vertex -7 -42.7256 7
      vertex -7.5 -41.8596 5.5
    endloop
  endfacet
  facet normal -0.948683 3.14596e-07 0.316229
    outer loop
      vertex -7 -69.5 7
      vertex -8.16333 -49.425 3.51
      vertex -8.16667 -69.5 3.5
    endloop
  endfacet
  facet normal -0.948684 -4.61028e-07 0.316225
    outer loop
      vertex -8.16333 -49.425 3.51
      vertex -7 -69.5 7
      vertex -7.62354 -48.2043 5.12939
    endloop
  endfacet
  facet normal -0.948681 5.55616e-07 0.316235
    outer loop
      vertex -7.62354 -48.2043 5.12939
      vertex -7 -69.5 7
      vertex -7.5 -47.8596 5.5
    endloop
  endfacet
  facet normal -0.948683 0 0.316228
    outer loop
      vertex -7.5 -47.8596 5.5
      vertex -7 -69.5 7
      vertex -7 -42.7256 7
    endloop
  endfacet
  facet normal -0.913623 0 0.406562
    outer loop
      vertex -6.88889 20.575 3.5
      vertex -6.88889 -20.575 3.5
      vertex -6.88444 20.575 3.51
    endloop
  endfacet
  facet normal -0.913623 0 0.406562
    outer loop
      vertex -6.88444 -20.575 3.51
      vertex -6.88444 20.575 3.51
      vertex -6.88889 -20.575 3.5
    endloop
  endfacet
  facet normal -0.913812 0 0.406137
    outer loop
      vertex -6.88444 20.575 3.51
      vertex -6.88444 -20.575 3.51
      vertex -6 22.075 5.5
    endloop
  endfacet
  facet normal -0.913812 0 0.406137
    outer loop
      vertex -6 22.075 5.5
      vertex -6.88444 -20.575 3.51
      vertex -6 -22.075 5.5
    endloop
  endfacet
  facet normal 0.913623 0 0.406562
    outer loop
      vertex 6.88444 20.575 3.51
      vertex 6.88444 -20.575 3.51
      vertex 6.88889 20.575 3.5
    endloop
  endfacet
  facet normal 0.913812 0 0.406137
    outer loop
      vertex 6 22.075 5.5
      vertex 6.88444 -20.575 3.51
      vertex 6.88444 20.575 3.51
    endloop
  endfacet
  facet normal 0.913812 0 0.406137
    outer loop
      vertex 6.88444 -20.575 3.51
      vertex 6 22.075 5.5
      vertex 6 -22.075 5.5
    endloop
  endfacet
  facet normal 0.913623 0 0.406562
    outer loop
      vertex 6.88889 20.575 3.5
      vertex 6.88444 -20.575 3.51
      vertex 6.88889 -20.575 3.5
    endloop
  endfacet
  facet normal -0.957826 0 0.287348
    outer loop
      vertex 2.503 44.925 0
      vertex 4 69.5 4.99
      vertex 2.503 69.5 0
    endloop
  endfacet
  facet normal -0.957826 0 0.287348
    outer loop
      vertex 4 69.5 4.99
      vertex 2.503 44.925 0
      vertex 4 44.925 4.99
    endloop
  endfacet
  facet normal 0.957826 -0 0.287348
    outer loop
      vertex -4 44.925 4.99
      vertex -2.503 69.5 0
      vertex -4 69.5 4.99
    endloop
  endfacet
  facet normal 0.957826 0 0.287348
    outer loop
      vertex -2.503 69.5 0
      vertex -4 44.925 4.99
      vertex -2.503 44.925 0
    endloop
  endfacet
  facet normal -1 0 0
    outer loop
      vertex 4 44.925 4.99
      vertex 4 69.5 5.29
      vertex 4 69.5 4.99
    endloop
  endfacet
  facet normal -1 -0 0
    outer loop
      vertex 4 69.5 5.29
      vertex 4 44.925 4.99
      vertex 4 44.925 5.29
    endloop
  endfacet
  facet normal 1 -0 0
    outer loop
      vertex -4 44.925 5.29
      vertex -4 69.5 4.99
      vertex -4 69.5 5.29
    endloop
  endfacet
  facet normal 1 0 0
    outer loop
      vertex -4 69.5 4.99
      vertex -4 44.925 5.29
      vertex -4 44.925 4.99
    endloop
  endfacet
  facet normal 0 0 -1
    outer loop
      vertex -4 44.925 5.29
      vertex 4 69.5 5.29
      vertex 4 44.925 5.29
    endloop
  endfacet
  facet normal -0 0 -1
    outer loop
      vertex 4 69.5 5.29
      vertex -4 44.925 5.29
      vertex -4 69.5 5.29
    endloop
  endfacet
  facet normal -0.957826 0 0.287348
    outer loop
      vertex 2.503 -69.5 0
      vertex 4 -44.925 4.99
      vertex 2.503 -44.925 0
    endloop
  endfacet
  facet normal -0.957826 0 0.287348
    outer loop
      vertex 4 -44.925 4.99
      vertex 2.503 -69.5 0
      vertex 4 -69.5 4.99
    endloop
  endfacet
  facet normal 0.957826 -0 0.287348
    outer loop
      vertex -4 -69.5 4.99
      vertex -2.503 -44.925 0
      vertex -4 -44.925 4.99
    endloop
  endfacet
  facet normal 0.957826 0 0.287348
    outer loop
      vertex -2.503 -44.925 0
      vertex -4 -69.5 4.99
      vertex -2.503 -69.5 0
    endloop
  endfacet
  facet normal -1 0 0
    outer loop
      vertex 4 -69.5 4.99
      vertex 4 -44.925 5.29
      vertex 4 -44.925 4.99
    endloop
  endfacet
  facet normal -1 -0 0
    outer loop
      vertex 4 -44.925 5.29
      vertex 4 -69.5 4.99
      vertex 4 -69.5 5.29
    endloop
  endfacet
  facet normal 1 -0 0
    outer loop
      vertex -4 -69.5 5.29
      vertex -4 -44.925 4.99
      vertex -4 -44.925 5.29
    endloop
  endfacet
  facet normal 1 0 0
    outer loop
      vertex -4 -44.925 4.99
      vertex -4 -69.5 5.29
      vertex -4 -69.5 4.99
    endloop
  endfacet
  facet normal 0 0 -1
    outer loop
      vertex -4 -69.5 5.29
      vertex 4 -44.925 5.29
      vertex 4 -69.5 5.29
    endloop
  endfacet
  facet normal -0 0 -1
    outer loop
      vertex 4 -44.925 5.29
      vertex -4 -69.5 5.29
      vertex -4 -44.925 5.29
    endloop
  endfacet
  facet normal -1 0 0
    outer loop
      vertex -14.5 -0.5 0
      vertex -14.5 0.5 3.5
      vertex -14.5 0.5 0
    endloop
  endfacet
  facet normal -1 -0 0
    outer loop
      vertex -14.5 0.5 3.5
      vertex -14.5 -0.5 0
      vertex -14.5 -0.5 3.5
    endloop
  endfacet
  facet normal 0 -1 0
    outer loop
      vertex -15 0.5 0
      vertex -14.5 0.5 3.5
      vertex -15 0.5 3.5
    endloop
  endfacet
  facet normal 0 -1 -0
    outer loop
      vertex -14.5 0.5 3.5
      vertex -15 0.5 0
      vertex -14.5 0.5 0
    endloop
  endfacet
  facet normal 0 1 -0
    outer loop
      vertex -14.5 -0.5 0
      vertex -15 -0.5 3.5
      vertex -14.5 -0.5 3.5
    endloop
  endfacet
  facet normal 0 1 0
    outer loop
      vertex -15 -0.5 3.5
      vertex -14.5 -0.5 0
      vertex -15 -0.5 0
    endloop
  endfacet
  facet normal 1 -0 0
    outer loop
      vertex 14.5 -0.5 3.5
      vertex 14.5 0.5 0
      vertex 14.5 0.5 3.5
    endloop
  endfacet
  facet normal 1 0 0
    outer loop
      vertex 14.5 0.5 0
      vertex 14.5 -0.5 3.5
      vertex 14.5 -0.5 0
    endloop
  endfacet
  facet normal 0 1 -0
    outer loop
      vertex 15 -0.5 0
      vertex 14.5 -0.5 3.5
      vertex 15 -0.5 3.5
    endloop
  endfacet
  facet normal 0 1 0
    outer loop
      vertex 14.5 -0.5 3.5
      vertex 15 -0.5 0
      vertex 14.5 -0.5 0
    endloop
  endfacet
  facet normal 0 -1 0
    outer loop
      vertex 14.5 0.5 0
      vertex 15 0.5 3.5
      vertex 14.5 0.5 3.5
    endloop
  endfacet
  facet normal 0 -1 -0
    outer loop
      vertex 15 0.5 3.5
      vertex 14.5 0.5 0
      vertex 15 0.5 0
    endloop
  endfacet
  facet normal -0.866027 -0.499998 0
    outer loop
      vertex 7.5 41.8596 5.5
      vertex 5.7302 44.925 7
      vertex 5.7302 44.925 0
    endloop
  endfacet
  facet normal -0.86603 -0.499993 -1.39653e-05
    outer loop
      vertex 5.7302 44.925 7
      vertex 7.5 41.8596 5.5
      vertex 7 42.7256 7
    endloop
  endfacet
  facet normal -0.866025 -0.5 -1.42911e-06
    outer loop
      vertex 11.4604 35 0
      vertex 7.5 41.8596 5.5
      vertex 5.7302 44.925 0
    endloop
  endfacet
  facet normal -0.866025 -0.500001 0
    outer loop
      vertex 7.5 41.8596 5.5
      vertex 11.4604 35 0
      vertex 11.4604 35 5.5
    endloop
  endfacet
  facet normal 0 1 -0
    outer loop
      vertex 5.7302 25.075 0
      vertex 0.5 25.075 5.5
      vertex 5.7302 25.075 5.5
    endloop
  endfacet
  facet normal 0 1 0
    outer loop
      vertex 0.5 25.075 5.5
      vertex 5.7302 25.075 0
      vertex 0.5 25.075 0
    endloop
  endfacet
  facet normal 0 1 -0
    outer loop
      vertex -0.5 25.075 0
      vertex -5.7302 25.075 5.5
      vertex -0.5 25.075 5.5
    endloop
  endfacet
  facet normal 0 1 0
    outer loop
      vertex -5.7302 25.075 5.5
      vertex -0.5 25.075 0
      vertex -5.7302 25.075 0
    endloop
  endfacet
  facet normal 0.86603 -0.499993 -1.39653e-05
    outer loop
      vertex -7.5 41.8596 5.5
      vertex -5.7302 44.925 7
      vertex -7 42.7256 7
    endloop
  endfacet
  facet normal 0.866027 -0.499998 0
    outer loop
      vertex -5.7302 44.925 7
      vertex -7.5 41.8596 5.5
      vertex -5.7302 44.925 0
    endloop
  endfacet
  facet normal 0.866025 -0.500001 0
    outer loop
      vertex -11.4604 35 0
      vertex -7.5 41.8596 5.5
      vertex -11.4604 35 5.5
    endloop
  endfacet
  facet normal 0.866025 -0.5 -1.42911e-06
    outer loop
      vertex -7.5 41.8596 5.5
      vertex -11.4604 35 0
      vertex -5.7302 44.925 0
    endloop
  endfacet
  facet normal 0 -1 0
    outer loop
      vertex -5.7302 44.925 7
      vertex -4 44.925 5.29
      vertex 5.7302 44.925 7
    endloop
  endfacet
  facet normal 0 -1 0
    outer loop
      vertex -5.7302 44.925 7
      vertex -4 44.925 4.99
      vertex -4 44.925 5.29
    endloop
  endfacet
  facet normal 0 -1 0
    outer loop
      vertex -5.7302 44.925 0
      vertex -4 44.925 4.99
      vertex -5.7302 44.925 7
    endloop
  endfacet
  facet normal 0 -1 -0
    outer loop
      vertex -4 44.925 4.99
      vertex -5.7302 44.925 0
      vertex -2.503 44.925 0
    endloop
  endfacet
  facet normal 0 -1 0
    outer loop
      vertex 4 44.925 5.29
      vertex 5.7302 44.925 7
      vertex -4 44.925 5.29
    endloop
  endfacet
  facet normal 0 -1 0
    outer loop
      vertex 4 44.925 4.99
      vertex 5.7302 44.925 7
      vertex 4 44.925 5.29
    endloop
  endfacet
  facet normal 0 -1 0
    outer loop
      vertex 5.7302 44.925 0
      vertex 4 44.925 4.99
      vertex 2.503 44.925 0
    endloop
  endfacet
  facet normal 0 -1 0
    outer loop
      vertex 4 44.925 4.99
      vertex 5.7302 44.925 0
      vertex 5.7302 44.925 7
    endloop
  endfacet
  facet normal 0.866025 0.5 0
    outer loop
      vertex -5.7302 25.075 5.5
      vertex -11.4604 35 0
      vertex -11.4604 35 5.5
    endloop
  endfacet
  facet normal 0.866025 0.5 0
    outer loop
      vertex -11.4604 35 0
      vertex -5.7302 25.075 5.5
      vertex -5.7302 25.075 0
    endloop
  endfacet
  facet normal -0.866025 0.5 0
    outer loop
      vertex 5.7302 25.075 0
      vertex 11.4604 35 5.5
      vertex 11.4604 35 0
    endloop
  endfacet
  facet normal -0.866025 0.5 0
    outer loop
      vertex 11.4604 35 5.5
      vertex 5.7302 25.075 0
      vertex 5.7302 25.075 5.5
    endloop
  endfacet
  facet normal -0.866025 -0.5 0
    outer loop
      vertex 11.4604 -35 0
      vertex 5.7302 -25.075 5.5
      vertex 5.7302 -25.075 0
    endloop
  endfacet
  facet normal -0.866025 -0.5 0
    outer loop
      vertex 5.7302 -25.075 5.5
      vertex 11.4604 -35 0
      vertex 11.4604 -35 5.5
    endloop
  endfacet
  facet normal 0.866025 -0.5 0
    outer loop
      vertex -11.4604 -35 5.5
      vertex -5.7302 -25.075 0
      vertex -5.7302 -25.075 5.5
    endloop
  endfacet
  facet normal 0.866025 -0.5 0
    outer loop
      vertex -5.7302 -25.075 0
      vertex -11.4604 -35 5.5
      vertex -11.4604 -35 0
    endloop
  endfacet
  facet normal 0 -1 0
    outer loop
      vertex 0.5 -25.075 0
      vertex 5.7302 -25.075 5.5
      vertex 0.5 -25.075 5.5
    endloop
  endfacet
  facet normal 0 -1 -0
    outer loop
      vertex 5.7302 -25.075 5.5
      vertex 0.5 -25.075 0
      vertex 5.7302 -25.075 0
    endloop
  endfacet
  facet normal 0 -1 0
    outer loop
      vertex -5.7302 -25.075 0
      vertex -0.5 -25.075 5.5
      vertex -5.7302 -25.075 5.5
    endloop
  endfacet
  facet normal 0 -1 -0
    outer loop
      vertex -0.5 -25.075 5.5
      vertex -5.7302 -25.075 0
      vertex -0.5 -25.075 0
    endloop
  endfacet
  facet normal -0.866025 0.500001 0
    outer loop
      vertex 11.4604 -35 0
      vertex 7.5 -41.8596 5.5
      vertex 11.4604 -35 5.5
    endloop
  endfacet
  facet normal -0.866025 0.5 -1.42911e-06
    outer loop
      vertex 5.7302 -44.925 0
      vertex 7.5 -41.8596 5.5
      vertex 11.4604 -35 0
    endloop
  endfacet
  facet normal -0.866027 0.499998 0
    outer loop
      vertex 5.7302 -44.925 7
      vertex 7.5 -41.8596 5.5
      vertex 5.7302 -44.925 0
    endloop
  endfacet
  facet normal -0.86603 0.499993 -1.39653e-05
    outer loop
      vertex 7.5 -41.8596 5.5
      vertex 5.7302 -44.925 7
      vertex 7 -42.7256 7
    endloop
  endfacet
  facet normal 0 1 0
    outer loop
      vertex 5.7302 -44.925 7
      vertex 4 -44.925 5.29
      vertex -5.7302 -44.925 7
    endloop
  endfacet
  facet normal 0 1 0
    outer loop
      vertex 5.7302 -44.925 7
      vertex 4 -44.925 4.99
      vertex 4 -44.925 5.29
    endloop
  endfacet
  facet normal 0 1 -0
    outer loop
      vertex 5.7302 -44.925 0
      vertex 4 -44.925 4.99
      vertex 5.7302 -44.925 7
    endloop
  endfacet
  facet normal 0 1 0
    outer loop
      vertex 4 -44.925 4.99
      vertex 5.7302 -44.925 0
      vertex 2.503 -44.925 0
    endloop
  endfacet
  facet normal 0 1 -0
    outer loop
      vertex -4 -44.925 5.29
      vertex -5.7302 -44.925 7
      vertex 4 -44.925 5.29
    endloop
  endfacet
  facet normal 0 1 -0
    outer loop
      vertex -4 -44.925 4.99
      vertex -5.7302 -44.925 7
      vertex -4 -44.925 5.29
    endloop
  endfacet
  facet normal 0 1 0
    outer loop
      vertex -5.7302 -44.925 0
      vertex -4 -44.925 4.99
      vertex -2.503 -44.925 0
    endloop
  endfacet
  facet normal 0 1 0
    outer loop
      vertex -4 -44.925 4.99
      vertex -5.7302 -44.925 0
      vertex -5.7302 -44.925 7
    endloop
  endfacet
  facet normal 0.866025 0.500001 0
    outer loop
      vertex -7.5 -41.8596 5.5
      vertex -11.4604 -35 0
      vertex -11.4604 -35 5.5
    endloop
  endfacet
  facet normal 0.86603 0.499993 -1.39653e-05
    outer loop
      vertex -5.7302 -44.925 7
      vertex -7.5 -41.8596 5.5
      vertex -7 -42.7256 7
    endloop
  endfacet
  facet normal 0.866027 0.499998 -0
    outer loop
      vertex -5.7302 -44.925 0
      vertex -7.5 -41.8596 5.5
      vertex -5.7302 -44.925 7
    endloop
  endfacet
  facet normal 0.866025 0.5 -1.42911e-06
    outer loop
      vertex -7.5 -41.8596 5.5
      vertex -5.7302 -44.925 0
      vertex -11.4604 -35 0
    endloop
  endfacet
  facet normal 1 -0 0
    outer loop
      vertex -0.5 13.15 5.5
      vertex -0.5 25.075 0
      vertex -0.5 25.075 5.5
    endloop
  endfacet
  facet normal 1 0 0
    outer loop
      vertex -0.5 25.075 0
      vertex -0.5 13.15 5.5
      vertex -0.5 13.15 0
    endloop
  endfacet
  facet normal -1 0 0
    outer loop
      vertex 0.5 13.15 0
      vertex 0.5 25.075 5.5
      vertex 0.5 25.075 0
    endloop
  endfacet
  facet normal -1 -0 0
    outer loop
      vertex 0.5 25.075 5.5
      vertex 0.5 13.15 0
      vertex 0.5 13.15 5.5
    endloop
  endfacet
  facet normal 0 1 -0
    outer loop
      vertex 0.5 13.15 0
      vertex -0.5 13.15 5.5
      vertex 0.5 13.15 5.5
    endloop
  endfacet
  facet normal 0 1 0
    outer loop
      vertex -0.5 13.15 5.5
      vertex 0.5 13.15 0
      vertex -0.5 13.15 0
    endloop
  endfacet
  facet normal 1 -0 0
    outer loop
      vertex -0.5 -25.075 5.5
      vertex -0.5 -13.15 0
      vertex -0.5 -13.15 5.5
    endloop
  endfacet
  facet normal 1 0 0
    outer loop
      vertex -0.5 -13.15 0
      vertex -0.5 -25.075 5.5
      vertex -0.5 -25.075 0
    endloop
  endfacet
  facet normal -1 0 0
    outer loop
      vertex 0.5 -25.075 0
      vertex 0.5 -13.15 5.5
      vertex 0.5 -13.15 0
    endloop
  endfacet
  facet normal -1 -0 0
    outer loop
      vertex 0.5 -13.15 5.5
      vertex 0.5 -25.075 0
      vertex 0.5 -25.075 5.5
    endloop
  endfacet
  facet normal 0 -1 0
    outer loop
      vertex -0.5 -13.15 0
      vertex 0.5 -13.15 5.5
      vertex -0.5 -13.15 5.5
    endloop
  endfacet
  facet normal 0 -1 -0
    outer loop
      vertex 0.5 -13.15 5.5
      vertex -0.5 -13.15 0
      vertex 0.5 -13.15 0
    endloop
  endfacet
endsolid OpenSCAD_Model
