solid OpenSCAD_Model
  facet normal -1 0 0
    outer loop
      vertex 5 30.2 0
      vertex 5 40 20
      vertex 5 40 0
    endloop
  endfacet
  facet normal -1 -0 0
    outer loop
      vertex 5 40 20
      vertex 5 30.2 0
      vertex 5 30.2 20
    endloop
  endfacet
  facet normal -0 0 1
    outer loop
      vertex 30.2 12.5 20
      vertex 40 5 20
      vertex 40 12.5 20
    endloop
  endfacet
  facet normal 0 0 1
    outer loop
      vertex 40 5 20
      vertex 30.2 12.5 20
      vertex 30.2 5 20
    endloop
  endfacet
  facet normal 0 0 1
    outer loop
      vertex 40 40 20
      vertex 30.2 30.2 20
      vertex 40 17.5 20
    endloop
  endfacet
  facet normal -0 0 1
    outer loop
      vertex 17.5 40 20
      vertex 30.2 30.2 20
      vertex 40 40 20
    endloop
  endfacet
  facet normal 0 0 1
    outer loop
      vertex 30.2 30.2 20
      vertex 17.5 40 20
      vertex 17.5 30.2 20
    endloop
  endfacet
  facet normal 0 0 1
    outer loop
      vertex 40 17.5 20
      vertex 30.2 30.2 20
      vertex 30.2 17.5 20
    endloop
  endfacet
  facet normal -0 0 1
    outer loop
      vertex 5 40 20
      vertex 12.5 30.2 20
      vertex 12.5 40 20
    endloop
  endfacet
  facet normal 0 0 1
    outer loop
      vertex 12.5 30.2 20
      vertex 5 40 20
      vertex 5 30.2 20
    endloop
  endfacet
  facet normal 1 0 0
    outer loop
      vertex 40 12.5 20
      vertex 40 5 20
      vertex 40 11 15
    endloop
  endfacet
  facet normal 1 0 0
    outer loop
      vertex 40 40 20
      vertex 40 19 15
      vertex 40 40 0
    endloop
  endfacet
  facet normal 1 0 -0
    outer loop
      vertex 40 19 15
      vertex 40 40 20
      vertex 40 17.5 20
    endloop
  endfacet
  facet normal 1 0 0
    outer loop
      vertex 40 5 0
      vertex 40 19 15
      vertex 40 11 15
    endloop
  endfacet
  facet normal 1 0 0
    outer loop
      vertex 40 19 15
      vertex 40 5 0
      vertex 40 40 0
    endloop
  endfacet
  facet normal 1 0 0
    outer loop
      vertex 40 5 0
      vertex 40 11 15
      vertex 40 5 20
    endloop
  endfacet
  facet normal 0 0 -1
    outer loop
      vertex 30.2 30.2 0
      vertex 40 5 0
      vertex 30.2 5 0
    endloop
  endfacet
  facet normal 0 0 -1
    outer loop
      vertex 40 5 0
      vertex 30.2 30.2 0
      vertex 40 40 0
    endloop
  endfacet
  facet normal 0 0 -1
    outer loop
      vertex 5 40 0
      vertex 30.2 30.2 0
      vertex 5 30.2 0
    endloop
  endfacet
  facet normal 0 0 -1
    outer loop
      vertex 30.2 30.2 0
      vertex 5 40 0
      vertex 40 40 0
    endloop
  endfacet
  facet normal 0 -1 0
    outer loop
      vertex 30.2 5 0
      vertex 40 5 20
      vertex 30.2 5 20
    endloop
  endfacet
  facet normal 0 -1 -0
    outer loop
      vertex 40 5 20
      vertex 30.2 5 0
      vertex 40 5 0
    endloop
  endfacet
  facet normal 0 1 0
    outer loop
      vertex 40 40 20
      vertex 19 40 15
      vertex 17.5 40 20
    endloop
  endfacet
  facet normal 0 1 0
    outer loop
      vertex 5 40 0
      vertex 19 40 15
      vertex 40 40 0
    endloop
  endfacet
  facet normal 0 1 -0
    outer loop
      vertex 40 40 0
      vertex 19 40 15
      vertex 40 40 20
    endloop
  endfacet
  facet normal 0 1 -0
    outer loop
      vertex 11 40 15
      vertex 5 40 20
      vertex 12.5 40 20
    endloop
  endfacet
  facet normal 0 1 0
    outer loop
      vertex 11 40 15
      vertex 5 40 0
      vertex 5 40 20
    endloop
  endfacet
  facet normal 0 1 0
    outer loop
      vertex 19 40 15
      vertex 5 40 0
      vertex 11 40 15
    endloop
  endfacet
  facet normal -1 0 0
    outer loop
      vertex 30.2 30.2 0
      vertex 30.2 19 15
      vertex 30.2 30.2 20
    endloop
  endfacet
  facet normal -1 0 0
    outer loop
      vertex 30.2 5 0
      vertex 30.2 19 15
      vertex 30.2 30.2 0
    endloop
  endfacet
  facet normal -1 -0 0
    outer loop
      vertex 30.2 19 15
      vertex 30.2 5 0
      vertex 30.2 11 15
    endloop
  endfacet
  facet normal -1 -0 0
    outer loop
      vertex 30.2 30.2 20
      vertex 30.2 19 15
      vertex 30.2 17.5 20
    endloop
  endfacet
  facet normal -1 0 0
    outer loop
      vertex 30.2 5 20
      vertex 30.2 11 15
      vertex 30.2 5 0
    endloop
  endfacet
  facet normal -1 0 0
    outer loop
      vertex 30.2 11 15
      vertex 30.2 5 20
      vertex 30.2 12.5 20
    endloop
  endfacet
  facet normal 0 -1 0
    outer loop
      vertex 5 30.2 20
      vertex 11 30.2 15
      vertex 12.5 30.2 20
    endloop
  endfacet
  facet normal 0 -1 -0
    outer loop
      vertex 11 30.2 15
      vertex 5 30.2 0
      vertex 19 30.2 15
    endloop
  endfacet
  facet normal 0 -1 0
    outer loop
      vertex 5 30.2 0
      vertex 11 30.2 15
      vertex 5 30.2 20
    endloop
  endfacet
  facet normal 0 -1 0
    outer loop
      vertex 19 30.2 15
      vertex 30.2 30.2 20
      vertex 17.5 30.2 20
    endloop
  endfacet
  facet normal 0 -1 0
    outer loop
      vertex 30.2 30.2 0
      vertex 19 30.2 15
      vertex 5 30.2 0
    endloop
  endfacet
  facet normal 0 -1 0
    outer loop
      vertex 19 30.2 15
      vertex 30.2 30.2 0
      vertex 30.2 30.2 20
    endloop
  endfacet
  facet normal 0.957826 0 -0.287348
    outer loop
      vertex 12.5 30.2 20
      vertex 11 40 15
      vertex 12.5 40 20
    endloop
  endfacet
  facet normal 0.957826 0 -0.287348
    outer loop
      vertex 11 40 15
      vertex 12.5 30.2 20
      vertex 11 30.2 15
    endloop
  endfacet
  facet normal -0.957826 0 -0.287348
    outer loop
      vertex 19 30.2 15
      vertex 17.5 40 20
      vertex 19 40 15
    endloop
  endfacet
  facet normal -0.957826 -0 -0.287348
    outer loop
      vertex 17.5 40 20
      vertex 19 30.2 15
      vertex 17.5 30.2 20
    endloop
  endfacet
  facet normal -0 0 1
    outer loop
      vertex 11 40 15
      vertex 19 30.2 15
      vertex 19 40 15
    endloop
  endfacet
  facet normal 0 0 1
    outer loop
      vertex 19 30.2 15
      vertex 11 40 15
      vertex 11 30.2 15
    endloop
  endfacet
  facet normal 0 -0.957826 -0.287348
    outer loop
      vertex 30.2 19 15
      vertex 40 17.5 20
      vertex 30.2 17.5 20
    endloop
  endfacet
  facet normal 0 -0.957826 -0.287348
    outer loop
      vertex 40 17.5 20
      vertex 30.2 19 15
      vertex 40 19 15
    endloop
  endfacet
  facet normal -0 0 1
    outer loop
      vertex 30.2 19 15
      vertex 40 11 15
      vertex 40 19 15
    endloop
  endfacet
  facet normal 0 0 1
    outer loop
      vertex 40 11 15
      vertex 30.2 19 15
      vertex 30.2 11 15
    endloop
  endfacet
  facet normal 0 0.957826 -0.287348
    outer loop
      vertex 40 11 15
      vertex 30.2 12.5 20
      vertex 40 12.5 20
    endloop
  endfacet
  facet normal 0 0.957826 -0.287348
    outer loop
      vertex 30.2 12.5 20
      vertex 40 11 15
      vertex 30.2 11 15
    endloop
  endfacet
endsolid OpenSCAD_Model
