solid OpenSCAD_Model
  facet normal -1 0 0
    outer loop
      vertex -15 -17.5 -23
      vertex -15 -24.3431 -18.01
      vertex -15 -17.5 -2
    endloop
  endfacet
  facet normal -1 0 -0
    outer loop
      vertex -15 -24.3431 -18.01
      vertex -15 -17.5 -23
      vertex -15 -26.4602 -23
    endloop
  endfacet
  facet normal -1 0 0
    outer loop
      vertex -15 -30 -18
      vertex -15 -24.3431 -18.01
      vertex -15 -30 -18.01
    endloop
  endfacet
  facet normal -1 0 0
    outer loop
      vertex -15 -30 -17.7605
      vertex -15 -24.3431 -18.01
      vertex -15 -30 -18
    endloop
  endfacet
  facet normal -1 0 0
    outer loop
      vertex -15 -30 -8
      vertex -15 -24.3431 -18.01
      vertex -15 -30 -17.7605
    endloop
  endfacet
  facet normal -1 0 0
    outer loop
      vertex -15 -24.3431 -18.01
      vertex -15 -30 -8
      vertex -15 -17.5 -2
    endloop
  endfacet
  facet normal -1 0 0
    outer loop
      vertex -15 -51 -2
      vertex -15 -30 -8
      vertex -15 -51 -8
    endloop
  endfacet
  facet normal -1 0 0
    outer loop
      vertex -15 -30 -8
      vertex -15 -51 -2
      vertex -15 -17.5 -2
    endloop
  endfacet
  facet normal -1 0 0
    outer loop
      vertex -15 -3.53977 -23
      vertex -15 -12.5 -23
      vertex -15 -5.65685 -18.01
    endloop
  endfacet
  facet normal -1 0 0
    outer loop
      vertex -15 -5.65685 -18.01
      vertex -15 -4.44089e-016 -2
      vertex -15 -3.99902e-015 -18.01
    endloop
  endfacet
  facet normal -1 0 0
    outer loop
      vertex -15 -12.5 -2
      vertex -15 -5.65685 -18.01
      vertex -15 -12.5 -23
    endloop
  endfacet
  facet normal -1 0 0
    outer loop
      vertex -15 -5.65685 -18.01
      vertex -15 -12.5 -2
      vertex -15 -4.44089e-016 -2
    endloop
  endfacet
  facet normal 0 -1 0
    outer loop
      vertex -9.34315 -30 -18.01
      vertex -15 -30 -18
      vertex -15 -30 -18.01
    endloop
  endfacet
  facet normal 0 -1 0
    outer loop
      vertex -9.0603 -30 -17.7605
      vertex -15 -30 -8
      vertex -15 -30 -17.7605
    endloop
  endfacet
  facet normal 0 -1 0
    outer loop
      vertex -15 -30 -8
      vertex -9.0603 -30 -17.7605
      vertex -2.5 -30 -8
    endloop
  endfacet
  facet normal 0 -1 0
    outer loop
      vertex -2.5 -30 -23
      vertex -9.0603 -30 -17.7605
      vertex -9.16191 -30 -18
    endloop
  endfacet
  facet normal 0 -1 0
    outer loop
      vertex -15 -30 -18
      vertex -9.34315 -30 -18.01
      vertex -9.16191 -30 -18
    endloop
  endfacet
  facet normal 0 -1 0
    outer loop
      vertex -11.4602 -30 -23
      vertex -9.16191 -30 -18
      vertex -9.34315 -30 -18.01
    endloop
  endfacet
  facet normal 0 -1 0
    outer loop
      vertex -2.5 -30 -23
      vertex -9.16191 -30 -18
      vertex -11.4602 -30 -23
    endloop
  endfacet
  facet normal 0 -1 0
    outer loop
      vertex -9.0603 -30 -17.7605
      vertex -2.5 -30 -23
      vertex -2.5 -30 -8
    endloop
  endfacet
  facet normal 0 -1 0
    outer loop
      vertex -9.16191 -30 -18
      vertex -15 -30 -17.7605
      vertex -15 -30 -18
    endloop
  endfacet
  facet normal 0 -1 0
    outer loop
      vertex -15 -30 -17.7605
      vertex -9.16191 -30 -18
      vertex -9.0603 -30 -17.7605
    endloop
  endfacet
  facet normal 0 -1 0
    outer loop
      vertex 2.5 -30 -8
      vertex 9.0603 -30 -17.7605
      vertex 15 -30 -8
    endloop
  endfacet
  facet normal 0 -1 0
    outer loop
      vertex 2.5 -30 -23
      vertex 9.0603 -30 -17.7605
      vertex 2.5 -30 -8
    endloop
  endfacet
  facet normal 0 -1 0
    outer loop
      vertex 9.16191 -30 -18
      vertex 9.34315 -30 -18.01
      vertex 15 -30 -18
    endloop
  endfacet
  facet normal 0 -1 -0
    outer loop
      vertex 9.0603 -30 -17.7605
      vertex 2.5 -30 -23
      vertex 9.16191 -30 -18
    endloop
  endfacet
  facet normal 0 -1 0
    outer loop
      vertex 11.4602 -30 -23
      vertex 9.16191 -30 -18
      vertex 2.5 -30 -23
    endloop
  endfacet
  facet normal 0 -1 0
    outer loop
      vertex 9.16191 -30 -18
      vertex 11.4602 -30 -23
      vertex 9.34315 -30 -18.01
    endloop
  endfacet
  facet normal 0 -1 -0
    outer loop
      vertex 15 -30 -8
      vertex 9.0603 -30 -17.7605
      vertex 15 -30 -17.7605
    endloop
  endfacet
  facet normal 0 -1 -0
    outer loop
      vertex 15 -30 -18
      vertex 9.34315 -30 -18.01
      vertex 15 -30 -18.01
    endloop
  endfacet
  facet normal 0 -1 0
    outer loop
      vertex 9.16191 -30 -18
      vertex 15 -30 -17.7605
      vertex 9.0603 -30 -17.7605
    endloop
  endfacet
  facet normal 0 -1 -0
    outer loop
      vertex 15 -30 -17.7605
      vertex 9.16191 -30 -18
      vertex 15 -30 -18
    endloop
  endfacet
  facet normal 1 0 0
    outer loop
      vertex 15 -17.5 -2
      vertex 15 -24.3431 -18.01
      vertex 15 -17.5 -23
    endloop
  endfacet
  facet normal 1 0 0
    outer loop
      vertex 15 -17.5 -2
      vertex 15 -30 -8
      vertex 15 -24.3431 -18.01
    endloop
  endfacet
  facet normal 1 -0 0
    outer loop
      vertex 15 -51 -2
      vertex 15 -30 -8
      vertex 15 -17.5 -2
    endloop
  endfacet
  facet normal 1 0 0
    outer loop
      vertex 15 -30 -8
      vertex 15 -51 -2
      vertex 15 -51 -8
    endloop
  endfacet
  facet normal 1 0 0
    outer loop
      vertex 15 -17.5 -23
      vertex 15 -24.3431 -18.01
      vertex 15 -26.4602 -23
    endloop
  endfacet
  facet normal 1 -0 0
    outer loop
      vertex 15 -30 -17.7605
      vertex 15 -24.3431 -18.01
      vertex 15 -30 -8
    endloop
  endfacet
  facet normal 1 -0 0
    outer loop
      vertex 15 -30 -18
      vertex 15 -24.3431 -18.01
      vertex 15 -30 -17.7605
    endloop
  endfacet
  facet normal 1 0 0
    outer loop
      vertex 15 -24.3431 -18.01
      vertex 15 -30 -18
      vertex 15 -30 -18.01
    endloop
  endfacet
  facet normal 1 0 0
    outer loop
      vertex 15 -4.44089e-016 -2
      vertex 15 -5.65685 -18.01
      vertex 15 -3.99902e-015 -18.01
    endloop
  endfacet
  facet normal 1 0 -0
    outer loop
      vertex 15 -5.65685 -18.01
      vertex 15 -4.44089e-016 -2
      vertex 15 -12.5 -2
    endloop
  endfacet
  facet normal 1 0 0
    outer loop
      vertex 15 -12.5 -23
      vertex 15 -5.65685 -18.01
      vertex 15 -12.5 -2
    endloop
  endfacet
  facet normal 1 0 0
    outer loop
      vertex 15 -5.65685 -18.01
      vertex 15 -12.5 -23
      vertex 15 -3.53978 -23
    endloop
  endfacet
  facet normal 0 1 -2.22045e-016
    outer loop
      vertex -2.5 -4.44089e-016 -2
      vertex -9.34315 -3.99902e-015 -18.01
      vertex -15 -4.44089e-016 -2
    endloop
  endfacet
  facet normal 0 1 -2.22045e-016
    outer loop
      vertex -2.5 -5.10703e-015 -23
      vertex -9.34315 -3.99902e-015 -18.01
      vertex -2.5 -4.44089e-016 -2
    endloop
  endfacet
  facet normal 0 1 -2.22045e-016
    outer loop
      vertex -9.34315 -3.99902e-015 -18.01
      vertex -2.5 -5.10703e-015 -23
      vertex -11.4602 -5.10703e-015 -23
    endloop
  endfacet
  facet normal 0 1 -2.22045e-016
    outer loop
      vertex -15 -4.44089e-016 -2
      vertex -9.34315 -3.99902e-015 -18.01
      vertex -15 -3.99902e-015 -18.01
    endloop
  endfacet
  facet normal 0 1 -2.22045e-016
    outer loop
      vertex 9.34315 -3.99902e-015 -18.01
      vertex 15 -4.44089e-016 -2
      vertex 15 -3.99902e-015 -18.01
    endloop
  endfacet
  facet normal 0 1 -2.22045e-016
    outer loop
      vertex 15 -4.44089e-016 -2
      vertex 9.34315 -3.99902e-015 -18.01
      vertex 2.5 -4.44089e-016 -2
    endloop
  endfacet
  facet normal 0 1 -2.22045e-016
    outer loop
      vertex 2.5 -5.10703e-015 -23
      vertex 9.34315 -3.99902e-015 -18.01
      vertex 11.4602 -5.10703e-015 -23
    endloop
  endfacet
  facet normal 0 1 -2.22045e-016
    outer loop
      vertex 9.34315 -3.99902e-015 -18.01
      vertex 2.5 -5.10703e-015 -23
      vertex 2.5 -4.44089e-016 -2
    endloop
  endfacet
  facet normal 0 1 2.22045e-016
    outer loop
      vertex -6.56965 -4.44089e-016 -2
      vertex -9.43035 -1.521e-015 2.84999
      vertex -6.56965 -1.521e-015 2.84999
    endloop
  endfacet
  facet normal 0 1 2.22045e-016
    outer loop
      vertex -9.43035 -1.521e-015 2.84999
      vertex -6.56965 -4.44089e-016 -2
      vertex -9.43035 -4.44089e-016 -2
    endloop
  endfacet
  facet normal 0 0 1
    outer loop
      vertex -5.4573 -0.67605 2.84999
      vertex -4.86195 -1.3769 2.84999
      vertex -4.92574 -1.26642 2.84999
    endloop
  endfacet
  facet normal 0 0 1
    outer loop
      vertex -4.86195 -1.3769 2.84999
      vertex -11.1381 -1.3769 2.84999
      vertex -4.86195 -13.6231 2.84999
    endloop
  endfacet
  facet normal 0 0 1
    outer loop
      vertex -4.86195 -1.3769 2.84999
      vertex -5.4573 -0.67605 2.84999
      vertex -6.56965 -1.521e-015 2.84999
    endloop
  endfacet
  facet normal 0 0 1
    outer loop
      vertex -11.1381 -13.6231 2.84999
      vertex -4.86195 -13.6231 2.84999
      vertex -11.1381 -1.3769 2.84999
    endloop
  endfacet
  facet normal 0 0 1
    outer loop
      vertex -6.56965 -1.521e-015 2.84999
      vertex -5.4573 -0.67605 2.84999
      vertex -6.1 -0.209104 2.84999
    endloop
  endfacet
  facet normal 0 -0 1
    outer loop
      vertex -6.56965 -15 2.84999
      vertex -4.86195 -13.6231 2.84999
      vertex -11.1381 -13.6231 2.84999
    endloop
  endfacet
  facet normal 0 0 1
    outer loop
      vertex -4.86195 -1.3769 2.84999
      vertex -6.56965 -1.521e-015 2.84999
      vertex -11.1381 -1.3769 2.84999
    endloop
  endfacet
  facet normal 0 -0 1
    outer loop
      vertex -5.4573 -14.3239 2.84999
      vertex -4.86195 -13.6231 2.84999
      vertex -6.56965 -15 2.84999
    endloop
  endfacet
  facet normal 0 0 1
    outer loop
      vertex -11.1381 -1.3769 2.84999
      vertex -6.56965 -1.521e-015 2.84999
      vertex -9.43035 -1.521e-015 2.84999
    endloop
  endfacet
  facet normal 0 0 1
    outer loop
      vertex -4.86195 -13.6231 2.84999
      vertex -5.4573 -14.3239 2.84999
      vertex -4.92574 -13.7336 2.84999
    endloop
  endfacet
  facet normal 0 0 1
    outer loop
      vertex -10.5427 -0.67605 2.84999
      vertex -9.43035 -1.521e-015 2.84999
      vertex -9.9 -0.209104 2.84999
    endloop
  endfacet
  facet normal 0 0 1
    outer loop
      vertex -5.4573 -14.3239 2.84999
      vertex -6.56965 -15 2.84999
      vertex -6.1 -14.7909 2.84999
    endloop
  endfacet
  facet normal 0 0 1
    outer loop
      vertex -9.43035 -1.521e-015 2.84999
      vertex -10.5427 -0.67605 2.84999
      vertex -11.1381 -1.3769 2.84999
    endloop
  endfacet
  facet normal 0 0 1
    outer loop
      vertex -6.56965 -15 2.84999
      vertex -11.1381 -13.6231 2.84999
      vertex -9.43035 -15 2.84999
    endloop
  endfacet
  facet normal 0 0 1
    outer loop
      vertex -11.1381 -1.3769 2.84999
      vertex -10.5427 -0.67605 2.84999
      vertex -11.0743 -1.26642 2.84999
    endloop
  endfacet
  facet normal -0 -0 1
    outer loop
      vertex -10.5427 -14.3239 2.84999
      vertex -9.43035 -15 2.84999
      vertex -11.1381 -13.6231 2.84999
    endloop
  endfacet
  facet normal 0 0 1
    outer loop
      vertex -9.43035 -15 2.84999
      vertex -10.5427 -14.3239 2.84999
      vertex -9.9 -14.7909 2.84999
    endloop
  endfacet
  facet normal 0 0 1
    outer loop
      vertex -10.5427 -14.3239 2.84999
      vertex -11.1381 -13.6231 2.84999
      vertex -11.0743 -13.7336 2.84999
    endloop
  endfacet
  facet normal -0.955352 0 -0.295471
    outer loop
      vertex -10.5427 -14.3239 -1.61941
      vertex -10.5427 -0.67605 -1.61941
      vertex -10.425 -0.59053 -2
    endloop
  endfacet
  facet normal -0.955352 -3.32169e-007 -0.29547
    outer loop
      vertex -10.5427 -0.67605 -1.61941
      vertex -11.7806 -3.31547 2.38315
      vertex -11.0743 -1.26642 0.0993241
    endloop
  endfacet
  facet normal -0.955352 -5.48334e-007 -0.295471
    outer loop
      vertex -11.0743 -1.26642 0.0993241
      vertex -11.7806 -3.31547 2.38315
      vertex -11.4715 -1.9544 1.38363
    endloop
  endfacet
  facet normal -0.955352 -9.38999e-007 -0.295471
    outer loop
      vertex -11.4715 -1.9544 1.38363
      vertex -11.7806 -3.31547 2.38315
      vertex -11.717 -2.70994 2.17737
    endloop
  endfacet
  facet normal -0.955352 0 -0.29547
    outer loop
      vertex -10.5427 -0.67605 -1.61941
      vertex -11.7806 -11.6845 2.38315
      vertex -11.7806 -3.31547 2.38315
    endloop
  endfacet
  facet normal -0.955352 -0 -0.29547
    outer loop
      vertex -10.5427 -0.67605 -1.61941
      vertex -10.5427 -14.3239 -1.61941
      vertex -11.7806 -11.6845 2.38315
    endloop
  endfacet
  facet normal -0.955352 5.48334e-007 -0.295471
    outer loop
      vertex -11.4715 -13.0456 1.38363
      vertex -11.7806 -11.6845 2.38315
      vertex -11.0743 -13.7336 0.0993241
    endloop
  endfacet
  facet normal -0.955352 9.38999e-007 -0.295471
    outer loop
      vertex -11.7806 -11.6845 2.38315
      vertex -11.4715 -13.0456 1.38363
      vertex -11.717 -12.2901 2.17737
    endloop
  endfacet
  facet normal -0.955352 3.32169e-007 -0.29547
    outer loop
      vertex -11.7806 -11.6845 2.38315
      vertex -10.5427 -14.3239 -1.61941
      vertex -11.0743 -13.7336 0.0993241
    endloop
  endfacet
  facet normal -0.955352 0 -0.295471
    outer loop
      vertex -10.5427 -14.3239 -1.61941
      vertex -10.425 -0.59053 -2
      vertex -10.425 -14.4095 -2
    endloop
  endfacet
  facet normal 0.955352 2.8067e-008 -0.29547
    outer loop
      vertex -4.2194 -3.31547 2.38315
      vertex -5.4573 -0.67605 -1.61941
      vertex -4.92574 -1.26642 0.0993241
    endloop
  endfacet
  facet normal 0.955352 3.42179e-009 -0.29547
    outer loop
      vertex -4.2194 -3.31547 2.38315
      vertex -4.92574 -1.26642 0.0993241
      vertex -4.52853 -1.9544 1.38363
    endloop
  endfacet
  facet normal 0.955352 1.7303e-007 -0.29547
    outer loop
      vertex -4.2194 -3.31547 2.38315
      vertex -4.52853 -1.9544 1.38363
      vertex -4.28304 -2.70994 2.17737
    endloop
  endfacet
  facet normal 0.955352 0 -0.29547
    outer loop
      vertex -4.2194 -11.6845 2.38315
      vertex -5.4573 -0.67605 -1.61941
      vertex -4.2194 -3.31547 2.38315
    endloop
  endfacet
  facet normal 0.955352 0 -0.29547
    outer loop
      vertex -5.4573 -14.3239 -1.61941
      vertex -5.4573 -0.67605 -1.61941
      vertex -4.2194 -11.6845 2.38315
    endloop
  endfacet
  facet normal 0.955352 -1.7303e-007 -0.29547
    outer loop
      vertex -4.52853 -13.0456 1.38363
      vertex -4.2194 -11.6845 2.38315
      vertex -4.28304 -12.2901 2.17737
    endloop
  endfacet
  facet normal 0.955352 -3.42179e-009 -0.29547
    outer loop
      vertex -4.2194 -11.6845 2.38315
      vertex -4.52853 -13.0456 1.38363
      vertex -4.92574 -13.7336 0.0993241
    endloop
  endfacet
  facet normal 0.955352 -2.8067e-008 -0.29547
    outer loop
      vertex -5.4573 -14.3239 -1.61941
      vertex -4.2194 -11.6845 2.38315
      vertex -4.92574 -13.7336 0.0993241
    endloop
  endfacet
  facet normal 0.955352 0 -0.295471
    outer loop
      vertex -5.4573 -0.67605 -1.61941
      vertex -5.4573 -14.3239 -1.61941
      vertex -5.57501 -0.59053 -2
    endloop
  endfacet
  facet normal 0.955352 0 -0.295471
    outer loop
      vertex -5.57501 -0.59053 -2
      vertex -5.4573 -14.3239 -1.61941
      vertex -5.57501 -14.4095 -2
    endloop
  endfacet
  facet normal 0 -1 0
    outer loop
      vertex -9.43035 -15 -2
      vertex -6.56965 -15 2.84999
      vertex -9.43035 -15 2.84999
    endloop
  endfacet
  facet normal 0 -1 -0
    outer loop
      vertex -6.56965 -15 2.84999
      vertex -9.43035 -15 -2
      vertex -6.56965 -15 -2
    endloop
  endfacet
  facet normal -0.587785 -3.78132e-007 0.809017
    outer loop
      vertex -11.7806 -3.31547 2.38315
      vertex -11.1381 -1.3769 2.84999
      vertex -11.4715 -1.9544 2.60775
    endloop
  endfacet
  facet normal -0.587786 0 0.809016
    outer loop
      vertex -11.1381 -1.3769 2.84999
      vertex -11.7806 -3.31547 2.38315
      vertex -11.1381 -13.6231 2.84999
    endloop
  endfacet
  facet normal -0.587784 -6.9204e-007 0.809018
    outer loop
      vertex -11.7806 -3.31547 2.38315
      vertex -11.4715 -1.9544 2.60775
      vertex -11.717 -2.70994 2.42939
    endloop
  endfacet
  facet normal -0.587786 0 0.809016
    outer loop
      vertex -11.7806 -11.6845 2.38315
      vertex -11.1381 -13.6231 2.84999
      vertex -11.7806 -3.31547 2.38315
    endloop
  endfacet
  facet normal -0.587785 3.78132e-007 0.809017
    outer loop
      vertex -11.1381 -13.6231 2.84999
      vertex -11.7806 -11.6845 2.38315
      vertex -11.4715 -13.0456 2.60775
    endloop
  endfacet
  facet normal -0.587784 6.9204e-007 0.809018
    outer loop
      vertex -11.4715 -13.0456 2.60775
      vertex -11.7806 -11.6845 2.38315
      vertex -11.717 -12.2901 2.42939
    endloop
  endfacet
  facet normal 0.587785 -8.15635e-008 0.809017
    outer loop
      vertex -4.86195 -1.3769 2.84999
      vertex -4.2194 -3.31547 2.38315
      vertex -4.28304 -2.70994 2.42939
    endloop
  endfacet
  facet normal 0.587785 0 0.809017
    outer loop
      vertex -4.2194 -3.31547 2.38315
      vertex -4.86195 -1.3769 2.84999
      vertex -4.2194 -11.6845 2.38315
    endloop
  endfacet
  facet normal 0.587784 -6.93699e-007 0.809018
    outer loop
      vertex -4.86195 -1.3769 2.84999
      vertex -4.28304 -2.70994 2.42939
      vertex -4.52853 -1.9544 2.60775
    endloop
  endfacet
  facet normal 0.587785 -0 0.809017
    outer loop
      vertex -4.86195 -13.6231 2.84999
      vertex -4.2194 -11.6845 2.38315
      vertex -4.86195 -1.3769 2.84999
    endloop
  endfacet
  facet normal 0.587785 8.15635e-008 0.809017
    outer loop
      vertex -4.2194 -11.6845 2.38315
      vertex -4.86195 -13.6231 2.84999
      vertex -4.28304 -12.2901 2.42939
    endloop
  endfacet
  facet normal 0.587784 6.93699e-007 0.809018
    outer loop
      vertex -4.28304 -12.2901 2.42939
      vertex -4.86195 -13.6231 2.84999
      vertex -4.52853 -13.0456 2.60775
    endloop
  endfacet
  facet normal 0 0 -1
    outer loop
      vertex -6.56965 -15 -2
      vertex -5.57501 -14.4095 -2
      vertex -6.1 -14.7909 -2
    endloop
  endfacet
  facet normal 0 0 -1
    outer loop
      vertex -5.57501 -14.4095 -2
      vertex -10.425 -14.4095 -2
      vertex -5.57501 -0.59053 -2
    endloop
  endfacet
  facet normal -0 0 -1
    outer loop
      vertex -5.57501 -14.4095 -2
      vertex -6.56965 -15 -2
      vertex -10.425 -14.4095 -2
    endloop
  endfacet
  facet normal 0 0 -1
    outer loop
      vertex -10.425 -0.59053 -2
      vertex -5.57501 -0.59053 -2
      vertex -10.425 -14.4095 -2
    endloop
  endfacet
  facet normal 0 0 -1
    outer loop
      vertex -10.425 -14.4095 -2
      vertex -6.56965 -15 -2
      vertex -9.43035 -15 -2
    endloop
  endfacet
  facet normal 0 -0 -1
    outer loop
      vertex -6.56965 -4.44089e-016 -2
      vertex -5.57501 -0.59053 -2
      vertex -10.425 -0.59053 -2
    endloop
  endfacet
  facet normal 0 0 -1
    outer loop
      vertex -10.425 -14.4095 -2
      vertex -9.43035 -15 -2
      vertex -9.9 -14.7909 -2
    endloop
  endfacet
  facet normal 0 0 -1
    outer loop
      vertex -5.57501 -0.59053 -2
      vertex -6.56965 -4.44089e-016 -2
      vertex -6.1 -0.209104 -2
    endloop
  endfacet
  facet normal -0 0 -1
    outer loop
      vertex -6.56965 -4.44089e-016 -2
      vertex -10.425 -0.59053 -2
      vertex -9.43035 -4.44089e-016 -2
    endloop
  endfacet
  facet normal 0 0 -1
    outer loop
      vertex -9.43035 -4.44089e-016 -2
      vertex -10.425 -0.59053 -2
      vertex -9.9 -0.209104 -2
    endloop
  endfacet
  facet normal 0.994522 -0.104529 0
    outer loop
      vertex -4.28304 -12.2901 2.42939
      vertex -4.28304 -12.2901 2.17737
      vertex -4.2194 -11.6845 2.38315
    endloop
  endfacet
  facet normal -0.994522 -0.104528 -0
    outer loop
      vertex -11.717 -12.2901 2.42939
      vertex -11.7806 -11.6845 2.38315
      vertex -11.717 -12.2901 2.17737
    endloop
  endfacet
  facet normal 0.743145 -0.669131 0
    outer loop
      vertex -5.4573 -14.3239 2.84999
      vertex -4.92574 -13.7336 0.0993241
      vertex -4.92574 -13.7336 2.84999
    endloop
  endfacet
  facet normal 0.743145 -0.669131 0
    outer loop
      vertex -4.92574 -13.7336 0.0993241
      vertex -5.4573 -14.3239 2.84999
      vertex -5.4573 -14.3239 -1.61941
    endloop
  endfacet
  facet normal 0.951057 -0.309017 0
    outer loop
      vertex -4.52853 -13.0456 2.60775
      vertex -4.28304 -12.2901 2.17737
      vertex -4.28304 -12.2901 2.42939
    endloop
  endfacet
  facet normal 0.951057 -0.309017 0
    outer loop
      vertex -4.28304 -12.2901 2.17737
      vertex -4.52853 -13.0456 2.60775
      vertex -4.52853 -13.0456 1.38363
    endloop
  endfacet
  facet normal 0.866026 -0.499999 0
    outer loop
      vertex -4.86195 -13.6231 2.84999
      vertex -4.52853 -13.0456 1.38363
      vertex -4.52853 -13.0456 2.60775
    endloop
  endfacet
  facet normal 0.866026 -0.499999 4.67475e-007
    outer loop
      vertex -4.92574 -13.7336 2.84999
      vertex -4.52853 -13.0456 1.38363
      vertex -4.86195 -13.6231 2.84999
    endloop
  endfacet
  facet normal 0.866026 -0.499999 0
    outer loop
      vertex -4.52853 -13.0456 1.38363
      vertex -4.92574 -13.7336 2.84999
      vertex -4.92574 -13.7336 0.0993241
    endloop
  endfacet
  facet normal -0.866026 -0.499999 0
    outer loop
      vertex -11.4715 -13.0456 1.38363
      vertex -11.1381 -13.6231 2.84999
      vertex -11.4715 -13.0456 2.60775
    endloop
  endfacet
  facet normal -0.866026 -0.499999 -0
    outer loop
      vertex -11.0743 -13.7336 2.84999
      vertex -11.4715 -13.0456 1.38363
      vertex -11.0743 -13.7336 0.0993241
    endloop
  endfacet
  facet normal -0.866025 -0.500001 -1.28612e-006
    outer loop
      vertex -11.4715 -13.0456 1.38363
      vertex -11.0743 -13.7336 2.84999
      vertex -11.1381 -13.6231 2.84999
    endloop
  endfacet
  facet normal -0.951057 -0.309017 -0
    outer loop
      vertex -11.4715 -13.0456 2.60775
      vertex -11.717 -12.2901 2.17737
      vertex -11.4715 -13.0456 1.38363
    endloop
  endfacet
  facet normal -0.951057 -0.309017 0
    outer loop
      vertex -11.717 -12.2901 2.17737
      vertex -11.4715 -13.0456 2.60775
      vertex -11.717 -12.2901 2.42939
    endloop
  endfacet
  facet normal 0.587786 -0.809017 0
    outer loop
      vertex -6.1 -14.7909 2.84999
      vertex -5.4573 -14.3239 -1.61941
      vertex -5.4573 -14.3239 2.84999
    endloop
  endfacet
  facet normal 0.587786 -0.809017 0
    outer loop
      vertex -6.1 -14.7909 -2
      vertex -5.4573 -14.3239 -1.61941
      vertex -6.1 -14.7909 2.84999
    endloop
  endfacet
  facet normal 0.587786 -0.809017 -7.57028e-007
    outer loop
      vertex -5.4573 -14.3239 -1.61941
      vertex -6.1 -14.7909 -2
      vertex -5.57501 -14.4095 -2
    endloop
  endfacet
  facet normal 0.406736 -0.913546 0
    outer loop
      vertex -6.56965 -15 -2
      vertex -6.1 -14.7909 2.84999
      vertex -6.56965 -15 2.84999
    endloop
  endfacet
  facet normal 0.406736 -0.913546 0
    outer loop
      vertex -6.1 -14.7909 2.84999
      vertex -6.56965 -15 -2
      vertex -6.1 -14.7909 -2
    endloop
  endfacet
  facet normal -0.406737 -0.913545 0
    outer loop
      vertex -9.9 -14.7909 -2
      vertex -9.43035 -15 2.84999
      vertex -9.9 -14.7909 2.84999
    endloop
  endfacet
  facet normal -0.406737 -0.913545 -0
    outer loop
      vertex -9.43035 -15 2.84999
      vertex -9.9 -14.7909 -2
      vertex -9.43035 -15 -2
    endloop
  endfacet
  facet normal -0.743145 -0.669131 -0
    outer loop
      vertex -10.5427 -14.3239 2.84999
      vertex -11.0743 -13.7336 0.0993241
      vertex -10.5427 -14.3239 -1.61941
    endloop
  endfacet
  facet normal -0.743145 -0.669131 0
    outer loop
      vertex -11.0743 -13.7336 0.0993241
      vertex -10.5427 -14.3239 2.84999
      vertex -11.0743 -13.7336 2.84999
    endloop
  endfacet
  facet normal -0.587786 -0.809017 0
    outer loop
      vertex -10.5427 -14.3239 -1.61941
      vertex -9.9 -14.7909 2.84999
      vertex -10.5427 -14.3239 2.84999
    endloop
  endfacet
  facet normal -0.587786 -0.809017 -7.57028e-007
    outer loop
      vertex -9.9 -14.7909 -2
      vertex -10.5427 -14.3239 -1.61941
      vertex -10.425 -14.4095 -2
    endloop
  endfacet
  facet normal -0.587786 -0.809017 0
    outer loop
      vertex -10.5427 -14.3239 -1.61941
      vertex -9.9 -14.7909 -2
      vertex -9.9 -14.7909 2.84999
    endloop
  endfacet
  facet normal -0.994522 0.104528 0
    outer loop
      vertex -11.717 -2.70994 2.17737
      vertex -11.7806 -3.31547 2.38315
      vertex -11.717 -2.70994 2.42939
    endloop
  endfacet
  facet normal 0.994522 0.104529 0
    outer loop
      vertex -4.2194 -3.31547 2.38315
      vertex -4.28304 -2.70994 2.17737
      vertex -4.28304 -2.70994 2.42939
    endloop
  endfacet
  facet normal -0.743145 0.669131 0
    outer loop
      vertex -11.0743 -1.26642 0.0993241
      vertex -10.5427 -0.67605 2.84999
      vertex -10.5427 -0.67605 -1.61941
    endloop
  endfacet
  facet normal -0.743145 0.669131 0
    outer loop
      vertex -10.5427 -0.67605 2.84999
      vertex -11.0743 -1.26642 0.0993241
      vertex -11.0743 -1.26642 2.84999
    endloop
  endfacet
  facet normal -0.951057 0.309017 0
    outer loop
      vertex -11.717 -2.70994 2.17737
      vertex -11.4715 -1.9544 2.60775
      vertex -11.4715 -1.9544 1.38363
    endloop
  endfacet
  facet normal -0.951057 0.309017 0
    outer loop
      vertex -11.4715 -1.9544 2.60775
      vertex -11.717 -2.70994 2.17737
      vertex -11.717 -2.70994 2.42939
    endloop
  endfacet
  facet normal -0.866026 0.499999 0
    outer loop
      vertex -11.4715 -1.9544 1.38363
      vertex -11.0743 -1.26642 2.84999
      vertex -11.0743 -1.26642 0.0993241
    endloop
  endfacet
  facet normal -0.866025 0.500001 -1.03301e-006
    outer loop
      vertex -11.0743 -1.26642 2.84999
      vertex -11.4715 -1.9544 1.38363
      vertex -11.1381 -1.3769 2.84999
    endloop
  endfacet
  facet normal -0.866026 0.499999 0
    outer loop
      vertex -11.1381 -1.3769 2.84999
      vertex -11.4715 -1.9544 1.38363
      vertex -11.4715 -1.9544 2.60775
    endloop
  endfacet
  facet normal 0.866026 0.499998 7.20584e-007
    outer loop
      vertex -4.52853 -1.9544 1.38363
      vertex -4.92574 -1.26642 2.84999
      vertex -4.86195 -1.3769 2.84999
    endloop
  endfacet
  facet normal 0.866026 0.5 -0
    outer loop
      vertex -4.52853 -1.9544 1.38363
      vertex -4.86195 -1.3769 2.84999
      vertex -4.52853 -1.9544 2.60775
    endloop
  endfacet
  facet normal 0.866026 0.499999 0
    outer loop
      vertex -4.92574 -1.26642 2.84999
      vertex -4.52853 -1.9544 1.38363
      vertex -4.92574 -1.26642 0.0993241
    endloop
  endfacet
  facet normal 0.951057 0.309017 -0
    outer loop
      vertex -4.28304 -2.70994 2.17737
      vertex -4.52853 -1.9544 2.60775
      vertex -4.28304 -2.70994 2.42939
    endloop
  endfacet
  facet normal 0.951057 0.309017 0
    outer loop
      vertex -4.52853 -1.9544 2.60775
      vertex -4.28304 -2.70994 2.17737
      vertex -4.52853 -1.9544 1.38363
    endloop
  endfacet
  facet normal -0.587786 0.809017 0
    outer loop
      vertex -9.9 -0.209104 2.84999
      vertex -10.5427 -0.67605 -1.61941
      vertex -10.5427 -0.67605 2.84999
    endloop
  endfacet
  facet normal -0.587786 0.809017 0
    outer loop
      vertex -9.9 -0.209104 -2
      vertex -10.5427 -0.67605 -1.61941
      vertex -9.9 -0.209104 2.84999
    endloop
  endfacet
  facet normal -0.587786 0.809017 -2.917e-007
    outer loop
      vertex -10.5427 -0.67605 -1.61941
      vertex -9.9 -0.209104 -2
      vertex -10.425 -0.59053 -2
    endloop
  endfacet
  facet normal -0.406737 0.913545 2.02848e-016
    outer loop
      vertex -9.43035 -4.44089e-016 -2
      vertex -9.9 -0.209104 2.84999
      vertex -9.43035 -1.521e-015 2.84999
    endloop
  endfacet
  facet normal -0.406737 0.913545 0
    outer loop
      vertex -9.9 -0.209104 2.84999
      vertex -9.43035 -4.44089e-016 -2
      vertex -9.9 -0.209104 -2
    endloop
  endfacet
  facet normal 0.406736 0.913546 -0
    outer loop
      vertex -6.1 -0.209104 -2
      vertex -6.56965 -1.521e-015 2.84999
      vertex -6.1 -0.209104 2.84999
    endloop
  endfacet
  facet normal 0.406736 0.913546 2.02848e-016
    outer loop
      vertex -6.56965 -1.521e-015 2.84999
      vertex -6.1 -0.209104 -2
      vertex -6.56965 -4.44089e-016 -2
    endloop
  endfacet
  facet normal 0.743145 0.669131 -0
    outer loop
      vertex -4.92574 -1.26642 0.0993241
      vertex -5.4573 -0.67605 2.84999
      vertex -4.92574 -1.26642 2.84999
    endloop
  endfacet
  facet normal 0.743145 0.669131 0
    outer loop
      vertex -5.4573 -0.67605 2.84999
      vertex -4.92574 -1.26642 0.0993241
      vertex -5.4573 -0.67605 -1.61941
    endloop
  endfacet
  facet normal 0.587786 0.809017 -0
    outer loop
      vertex -5.4573 -0.67605 -1.61941
      vertex -6.1 -0.209104 2.84999
      vertex -5.4573 -0.67605 2.84999
    endloop
  endfacet
  facet normal 0.587786 0.809017 -2.917e-007
    outer loop
      vertex -6.1 -0.209104 -2
      vertex -5.4573 -0.67605 -1.61941
      vertex -5.57501 -0.59053 -2
    endloop
  endfacet
  facet normal 0.587786 0.809017 0
    outer loop
      vertex -5.4573 -0.67605 -1.61941
      vertex -6.1 -0.209104 -2
      vertex -6.1 -0.209104 2.84999
    endloop
  endfacet
  facet normal 0 1 2.22045e-016
    outer loop
      vertex 9.43035 -4.44089e-016 -2
      vertex 6.56965 -1.521e-015 2.84999
      vertex 9.43035 -1.521e-015 2.84999
    endloop
  endfacet
  facet normal 0 1 2.22045e-016
    outer loop
      vertex 6.56965 -1.521e-015 2.84999
      vertex 9.43035 -4.44089e-016 -2
      vertex 6.56965 -4.44089e-016 -2
    endloop
  endfacet
  facet normal 0 0 1
    outer loop
      vertex 10.5427 -0.67605 2.84999
      vertex 11.1381 -1.3769 2.84999
      vertex 11.0743 -1.26642 2.84999
    endloop
  endfacet
  facet normal 0 0 1
    outer loop
      vertex 11.1381 -1.3769 2.84999
      vertex 4.86195 -1.3769 2.84999
      vertex 11.1381 -13.6231 2.84999
    endloop
  endfacet
  facet normal 0 0 1
    outer loop
      vertex 11.1381 -1.3769 2.84999
      vertex 10.5427 -0.67605 2.84999
      vertex 9.43035 -1.521e-015 2.84999
    endloop
  endfacet
  facet normal 0 0 1
    outer loop
      vertex 4.86195 -13.6231 2.84999
      vertex 11.1381 -13.6231 2.84999
      vertex 4.86195 -1.3769 2.84999
    endloop
  endfacet
  facet normal 0 0 1
    outer loop
      vertex 9.43035 -1.521e-015 2.84999
      vertex 10.5427 -0.67605 2.84999
      vertex 9.9 -0.209104 2.84999
    endloop
  endfacet
  facet normal 0 -0 1
    outer loop
      vertex 9.43035 -15 2.84999
      vertex 11.1381 -13.6231 2.84999
      vertex 4.86195 -13.6231 2.84999
    endloop
  endfacet
  facet normal 0 0 1
    outer loop
      vertex 11.1381 -1.3769 2.84999
      vertex 9.43035 -1.521e-015 2.84999
      vertex 4.86195 -1.3769 2.84999
    endloop
  endfacet
  facet normal 0 -0 1
    outer loop
      vertex 10.5427 -14.3239 2.84999
      vertex 11.1381 -13.6231 2.84999
      vertex 9.43035 -15 2.84999
    endloop
  endfacet
  facet normal 0 0 1
    outer loop
      vertex 4.86195 -1.3769 2.84999
      vertex 9.43035 -1.521e-015 2.84999
      vertex 6.56965 -1.521e-015 2.84999
    endloop
  endfacet
  facet normal 0 0 1
    outer loop
      vertex 11.1381 -13.6231 2.84999
      vertex 10.5427 -14.3239 2.84999
      vertex 11.0743 -13.7336 2.84999
    endloop
  endfacet
  facet normal 0 0 1
    outer loop
      vertex 5.4573 -0.67605 2.84999
      vertex 6.56965 -1.521e-015 2.84999
      vertex 6.1 -0.209104 2.84999
    endloop
  endfacet
  facet normal 0 0 1
    outer loop
      vertex 10.5427 -14.3239 2.84999
      vertex 9.43035 -15 2.84999
      vertex 9.9 -14.7909 2.84999
    endloop
  endfacet
  facet normal 0 0 1
    outer loop
      vertex 6.56965 -1.521e-015 2.84999
      vertex 5.4573 -0.67605 2.84999
      vertex 4.86195 -1.3769 2.84999
    endloop
  endfacet
  facet normal 0 0 1
    outer loop
      vertex 9.43035 -15 2.84999
      vertex 4.86195 -13.6231 2.84999
      vertex 6.56965 -15 2.84999
    endloop
  endfacet
  facet normal 0 0 1
    outer loop
      vertex 4.86195 -1.3769 2.84999
      vertex 5.4573 -0.67605 2.84999
      vertex 4.92574 -1.26642 2.84999
    endloop
  endfacet
  facet normal -0 -0 1
    outer loop
      vertex 5.4573 -14.3239 2.84999
      vertex 6.56965 -15 2.84999
      vertex 4.86195 -13.6231 2.84999
    endloop
  endfacet
  facet normal 0 0 1
    outer loop
      vertex 6.56965 -15 2.84999
      vertex 5.4573 -14.3239 2.84999
      vertex 6.1 -14.7909 2.84999
    endloop
  endfacet
  facet normal 0 0 1
    outer loop
      vertex 5.4573 -14.3239 2.84999
      vertex 4.86195 -13.6231 2.84999
      vertex 4.92574 -13.7336 2.84999
    endloop
  endfacet
  facet normal -0.955352 0 -0.295471
    outer loop
      vertex 5.4573 -14.3239 -1.61941
      vertex 5.4573 -0.67605 -1.61941
      vertex 5.57501 -0.59053 -2
    endloop
  endfacet
  facet normal -0.955352 2.8067e-008 -0.29547
    outer loop
      vertex 5.4573 -0.67605 -1.61941
      vertex 4.2194 -3.31547 2.38315
      vertex 4.92574 -1.26642 0.0993241
    endloop
  endfacet
  facet normal -0.955352 3.42179e-009 -0.29547
    outer loop
      vertex 4.92574 -1.26642 0.0993241
      vertex 4.2194 -3.31547 2.38315
      vertex 4.52853 -1.9544 1.38363
    endloop
  endfacet
  facet normal -0.955352 1.7303e-007 -0.29547
    outer loop
      vertex 4.52853 -1.9544 1.38363
      vertex 4.2194 -3.31547 2.38315
      vertex 4.28304 -2.70994 2.17737
    endloop
  endfacet
  facet normal -0.955352 0 -0.29547
    outer loop
      vertex 5.4573 -0.67605 -1.61941
      vertex 4.2194 -11.6845 2.38315
      vertex 4.2194 -3.31547 2.38315
    endloop
  endfacet
  facet normal -0.955352 -0 -0.29547
    outer loop
      vertex 5.4573 -0.67605 -1.61941
      vertex 5.4573 -14.3239 -1.61941
      vertex 4.2194 -11.6845 2.38315
    endloop
  endfacet
  facet normal -0.955352 -3.42179e-009 -0.29547
    outer loop
      vertex 4.52853 -13.0456 1.38363
      vertex 4.2194 -11.6845 2.38315
      vertex 4.92574 -13.7336 0.0993241
    endloop
  endfacet
  facet normal -0.955352 -1.7303e-007 -0.29547
    outer loop
      vertex 4.2194 -11.6845 2.38315
      vertex 4.52853 -13.0456 1.38363
      vertex 4.28304 -12.2901 2.17737
    endloop
  endfacet
  facet normal -0.955352 -2.8067e-008 -0.29547
    outer loop
      vertex 4.2194 -11.6845 2.38315
      vertex 5.4573 -14.3239 -1.61941
      vertex 4.92574 -13.7336 0.0993241
    endloop
  endfacet
  facet normal -0.955352 0 -0.295471
    outer loop
      vertex 5.4573 -14.3239 -1.61941
      vertex 5.57501 -0.59053 -2
      vertex 5.57501 -14.4095 -2
    endloop
  endfacet
  facet normal 0.955352 -3.32169e-007 -0.29547
    outer loop
      vertex 11.7806 -3.31547 2.38315
      vertex 10.5427 -0.67605 -1.61941
      vertex 11.0743 -1.26642 0.0993241
    endloop
  endfacet
  facet normal 0.955352 -5.48334e-007 -0.295471
    outer loop
      vertex 11.7806 -3.31547 2.38315
      vertex 11.0743 -1.26642 0.0993241
      vertex 11.4715 -1.9544 1.38363
    endloop
  endfacet
  facet normal 0.955352 -9.38999e-007 -0.295471
    outer loop
      vertex 11.7806 -3.31547 2.38315
      vertex 11.4715 -1.9544 1.38363
      vertex 11.717 -2.70994 2.17737
    endloop
  endfacet
  facet normal 0.955352 0 -0.29547
    outer loop
      vertex 11.7806 -11.6845 2.38315
      vertex 10.5427 -0.67605 -1.61941
      vertex 11.7806 -3.31547 2.38315
    endloop
  endfacet
  facet normal 0.955352 0 -0.29547
    outer loop
      vertex 10.5427 -14.3239 -1.61941
      vertex 10.5427 -0.67605 -1.61941
      vertex 11.7806 -11.6845 2.38315
    endloop
  endfacet
  facet normal 0.955352 9.38999e-007 -0.295471
    outer loop
      vertex 11.4715 -13.0456 1.38363
      vertex 11.7806 -11.6845 2.38315
      vertex 11.717 -12.2901 2.17737
    endloop
  endfacet
  facet normal 0.955352 5.48334e-007 -0.295471
    outer loop
      vertex 11.7806 -11.6845 2.38315
      vertex 11.4715 -13.0456 1.38363
      vertex 11.0743 -13.7336 0.0993241
    endloop
  endfacet
  facet normal 0.955352 3.32169e-007 -0.29547
    outer loop
      vertex 10.5427 -14.3239 -1.61941
      vertex 11.7806 -11.6845 2.38315
      vertex 11.0743 -13.7336 0.0993241
    endloop
  endfacet
  facet normal 0.955352 0 -0.295471
    outer loop
      vertex 10.5427 -0.67605 -1.61941
      vertex 10.5427 -14.3239 -1.61941
      vertex 10.425 -0.59053 -2
    endloop
  endfacet
  facet normal 0.955352 0 -0.295471
    outer loop
      vertex 10.425 -0.59053 -2
      vertex 10.5427 -14.3239 -1.61941
      vertex 10.425 -14.4095 -2
    endloop
  endfacet
  facet normal 0 -1 0
    outer loop
      vertex 6.56965 -15 -2
      vertex 9.43035 -15 2.84999
      vertex 6.56965 -15 2.84999
    endloop
  endfacet
  facet normal 0 -1 -0
    outer loop
      vertex 9.43035 -15 2.84999
      vertex 6.56965 -15 -2
      vertex 9.43035 -15 -2
    endloop
  endfacet
  facet normal -0.587785 -3.53405e-007 0.809017
    outer loop
      vertex 4.2194 -3.31547 2.38315
      vertex 4.86195 -1.3769 2.84999
      vertex 4.52853 -1.9544 2.60775
    endloop
  endfacet
  facet normal -0.587785 0 0.809017
    outer loop
      vertex 4.86195 -1.3769 2.84999
      vertex 4.2194 -3.31547 2.38315
      vertex 4.86195 -13.6231 2.84999
    endloop
  endfacet
  facet normal -0.587786 -7.85896e-009 0.809017
    outer loop
      vertex 4.2194 -3.31547 2.38315
      vertex 4.52853 -1.9544 2.60775
      vertex 4.28304 -2.70994 2.42939
    endloop
  endfacet
  facet normal -0.587785 0 0.809017
    outer loop
      vertex 4.2194 -11.6845 2.38315
      vertex 4.86195 -13.6231 2.84999
      vertex 4.2194 -3.31547 2.38315
    endloop
  endfacet
  facet normal -0.587785 3.53405e-007 0.809017
    outer loop
      vertex 4.86195 -13.6231 2.84999
      vertex 4.2194 -11.6845 2.38315
      vertex 4.52853 -13.0456 2.60775
    endloop
  endfacet
  facet normal -0.587786 7.85896e-009 0.809017
    outer loop
      vertex 4.52853 -13.0456 2.60775
      vertex 4.2194 -11.6845 2.38315
      vertex 4.28304 -12.2901 2.42939
    endloop
  endfacet
  facet normal 0.587785 -6.25084e-007 0.809017
    outer loop
      vertex 11.1381 -1.3769 2.84999
      vertex 11.7806 -3.31547 2.38315
      vertex 11.717 -2.70994 2.42939
    endloop
  endfacet
  facet normal 0.587786 0 0.809016
    outer loop
      vertex 11.7806 -3.31547 2.38315
      vertex 11.1381 -1.3769 2.84999
      vertex 11.7806 -11.6845 2.38315
    endloop
  endfacet
  facet normal 0.587786 -6.89952e-008 0.809017
    outer loop
      vertex 11.1381 -1.3769 2.84999
      vertex 11.717 -2.70994 2.42939
      vertex 11.4715 -1.9544 2.60775
    endloop
  endfacet
  facet normal 0.587786 -0 0.809016
    outer loop
      vertex 11.1381 -13.6231 2.84999
      vertex 11.7806 -11.6845 2.38315
      vertex 11.1381 -1.3769 2.84999
    endloop
  endfacet
  facet normal 0.587785 6.25084e-007 0.809017
    outer loop
      vertex 11.7806 -11.6845 2.38315
      vertex 11.1381 -13.6231 2.84999
      vertex 11.717 -12.2901 2.42939
    endloop
  endfacet
  facet normal 0.587786 6.89952e-008 0.809017
    outer loop
      vertex 11.717 -12.2901 2.42939
      vertex 11.1381 -13.6231 2.84999
      vertex 11.4715 -13.0456 2.60775
    endloop
  endfacet
  facet normal 0 0 -1
    outer loop
      vertex 9.43035 -15 -2
      vertex 10.425 -14.4095 -2
      vertex 9.9 -14.7909 -2
    endloop
  endfacet
  facet normal 0 0 -1
    outer loop
      vertex 10.425 -14.4095 -2
      vertex 5.57501 -14.4095 -2
      vertex 10.425 -0.59053 -2
    endloop
  endfacet
  facet normal -0 0 -1
    outer loop
      vertex 10.425 -14.4095 -2
      vertex 9.43035 -15 -2
      vertex 5.57501 -14.4095 -2
    endloop
  endfacet
  facet normal 0 0 -1
    outer loop
      vertex 5.57501 -0.59053 -2
      vertex 10.425 -0.59053 -2
      vertex 5.57501 -14.4095 -2
    endloop
  endfacet
  facet normal 0 0 -1
    outer loop
      vertex 5.57501 -14.4095 -2
      vertex 9.43035 -15 -2
      vertex 6.56965 -15 -2
    endloop
  endfacet
  facet normal 0 -0 -1
    outer loop
      vertex 9.43035 -4.44089e-016 -2
      vertex 10.425 -0.59053 -2
      vertex 5.57501 -0.59053 -2
    endloop
  endfacet
  facet normal 0 0 -1
    outer loop
      vertex 5.57501 -14.4095 -2
      vertex 6.56965 -15 -2
      vertex 6.1 -14.7909 -2
    endloop
  endfacet
  facet normal 0 0 -1
    outer loop
      vertex 10.425 -0.59053 -2
      vertex 9.43035 -4.44089e-016 -2
      vertex 9.9 -0.209104 -2
    endloop
  endfacet
  facet normal -0 0 -1
    outer loop
      vertex 9.43035 -4.44089e-016 -2
      vertex 5.57501 -0.59053 -2
      vertex 6.56965 -4.44089e-016 -2
    endloop
  endfacet
  facet normal 0 0 -1
    outer loop
      vertex 6.56965 -4.44089e-016 -2
      vertex 5.57501 -0.59053 -2
      vertex 6.1 -0.209104 -2
    endloop
  endfacet
  facet normal 0.994522 -0.104528 0
    outer loop
      vertex 11.717 -12.2901 2.42939
      vertex 11.717 -12.2901 2.17737
      vertex 11.7806 -11.6845 2.38315
    endloop
  endfacet
  facet normal -0.994522 -0.104529 -0
    outer loop
      vertex 4.28304 -12.2901 2.42939
      vertex 4.2194 -11.6845 2.38315
      vertex 4.28304 -12.2901 2.17737
    endloop
  endfacet
  facet normal 0.743145 -0.669131 0
    outer loop
      vertex 10.5427 -14.3239 2.84999
      vertex 11.0743 -13.7336 0.0993241
      vertex 11.0743 -13.7336 2.84999
    endloop
  endfacet
  facet normal 0.743145 -0.669131 0
    outer loop
      vertex 11.0743 -13.7336 0.0993241
      vertex 10.5427 -14.3239 2.84999
      vertex 10.5427 -14.3239 -1.61941
    endloop
  endfacet
  facet normal 0.951057 -0.309017 0
    outer loop
      vertex 11.4715 -13.0456 2.60775
      vertex 11.717 -12.2901 2.17737
      vertex 11.717 -12.2901 2.42939
    endloop
  endfacet
  facet normal 0.951057 -0.309017 0
    outer loop
      vertex 11.717 -12.2901 2.17737
      vertex 11.4715 -13.0456 2.60775
      vertex 11.4715 -13.0456 1.38363
    endloop
  endfacet
  facet normal 0.866026 -0.499999 0
    outer loop
      vertex 11.1381 -13.6231 2.84999
      vertex 11.4715 -13.0456 1.38363
      vertex 11.4715 -13.0456 2.60775
    endloop
  endfacet
  facet normal 0.866025 -0.500001 -1.28612e-006
    outer loop
      vertex 11.0743 -13.7336 2.84999
      vertex 11.4715 -13.0456 1.38363
      vertex 11.1381 -13.6231 2.84999
    endloop
  endfacet
  facet normal 0.866026 -0.499999 0
    outer loop
      vertex 11.4715 -13.0456 1.38363
      vertex 11.0743 -13.7336 2.84999
      vertex 11.0743 -13.7336 0.0993241
    endloop
  endfacet
  facet normal -0.866026 -0.499999 0
    outer loop
      vertex 4.52853 -13.0456 1.38363
      vertex 4.86195 -13.6231 2.84999
      vertex 4.52853 -13.0456 2.60775
    endloop
  endfacet
  facet normal -0.866026 -0.499999 -0
    outer loop
      vertex 4.92574 -13.7336 2.84999
      vertex 4.52853 -13.0456 1.38363
      vertex 4.92574 -13.7336 0.0993241
    endloop
  endfacet
  facet normal -0.866026 -0.499999 4.67475e-007
    outer loop
      vertex 4.52853 -13.0456 1.38363
      vertex 4.92574 -13.7336 2.84999
      vertex 4.86195 -13.6231 2.84999
    endloop
  endfacet
  facet normal -0.951057 -0.309017 -0
    outer loop
      vertex 4.52853 -13.0456 2.60775
      vertex 4.28304 -12.2901 2.17737
      vertex 4.52853 -13.0456 1.38363
    endloop
  endfacet
  facet normal -0.951057 -0.309017 0
    outer loop
      vertex 4.28304 -12.2901 2.17737
      vertex 4.52853 -13.0456 2.60775
      vertex 4.28304 -12.2901 2.42939
    endloop
  endfacet
  facet normal 0.587786 -0.809017 0
    outer loop
      vertex 9.9 -14.7909 2.84999
      vertex 10.5427 -14.3239 -1.61941
      vertex 10.5427 -14.3239 2.84999
    endloop
  endfacet
  facet normal 0.587786 -0.809017 0
    outer loop
      vertex 9.9 -14.7909 -2
      vertex 10.5427 -14.3239 -1.61941
      vertex 9.9 -14.7909 2.84999
    endloop
  endfacet
  facet normal 0.587786 -0.809017 -7.57028e-007
    outer loop
      vertex 10.5427 -14.3239 -1.61941
      vertex 9.9 -14.7909 -2
      vertex 10.425 -14.4095 -2
    endloop
  endfacet
  facet normal 0.406737 -0.913545 0
    outer loop
      vertex 9.43035 -15 -2
      vertex 9.9 -14.7909 2.84999
      vertex 9.43035 -15 2.84999
    endloop
  endfacet
  facet normal 0.406737 -0.913545 0
    outer loop
      vertex 9.9 -14.7909 2.84999
      vertex 9.43035 -15 -2
      vertex 9.9 -14.7909 -2
    endloop
  endfacet
  facet normal -0.406736 -0.913546 0
    outer loop
      vertex 6.1 -14.7909 -2
      vertex 6.56965 -15 2.84999
      vertex 6.1 -14.7909 2.84999
    endloop
  endfacet
  facet normal -0.406736 -0.913546 -0
    outer loop
      vertex 6.56965 -15 2.84999
      vertex 6.1 -14.7909 -2
      vertex 6.56965 -15 -2
    endloop
  endfacet
  facet normal -0.743145 -0.669131 -0
    outer loop
      vertex 5.4573 -14.3239 2.84999
      vertex 4.92574 -13.7336 0.0993241
      vertex 5.4573 -14.3239 -1.61941
    endloop
  endfacet
  facet normal -0.743145 -0.669131 0
    outer loop
      vertex 4.92574 -13.7336 0.0993241
      vertex 5.4573 -14.3239 2.84999
      vertex 4.92574 -13.7336 2.84999
    endloop
  endfacet
  facet normal -0.587786 -0.809017 0
    outer loop
      vertex 5.4573 -14.3239 -1.61941
      vertex 6.1 -14.7909 2.84999
      vertex 5.4573 -14.3239 2.84999
    endloop
  endfacet
  facet normal -0.587786 -0.809017 -7.57028e-007
    outer loop
      vertex 6.1 -14.7909 -2
      vertex 5.4573 -14.3239 -1.61941
      vertex 5.57501 -14.4095 -2
    endloop
  endfacet
  facet normal -0.587786 -0.809017 0
    outer loop
      vertex 5.4573 -14.3239 -1.61941
      vertex 6.1 -14.7909 -2
      vertex 6.1 -14.7909 2.84999
    endloop
  endfacet
  facet normal -0.994522 0.104529 0
    outer loop
      vertex 4.28304 -2.70994 2.17737
      vertex 4.2194 -3.31547 2.38315
      vertex 4.28304 -2.70994 2.42939
    endloop
  endfacet
  facet normal 0.994522 0.104528 0
    outer loop
      vertex 11.7806 -3.31547 2.38315
      vertex 11.717 -2.70994 2.17737
      vertex 11.717 -2.70994 2.42939
    endloop
  endfacet
  facet normal -0.743145 0.669131 0
    outer loop
      vertex 4.92574 -1.26642 0.0993241
      vertex 5.4573 -0.67605 2.84999
      vertex 5.4573 -0.67605 -1.61941
    endloop
  endfacet
  facet normal -0.743145 0.669131 0
    outer loop
      vertex 5.4573 -0.67605 2.84999
      vertex 4.92574 -1.26642 0.0993241
      vertex 4.92574 -1.26642 2.84999
    endloop
  endfacet
  facet normal -0.951057 0.309017 0
    outer loop
      vertex 4.28304 -2.70994 2.17737
      vertex 4.52853 -1.9544 2.60775
      vertex 4.52853 -1.9544 1.38363
    endloop
  endfacet
  facet normal -0.951057 0.309017 0
    outer loop
      vertex 4.52853 -1.9544 2.60775
      vertex 4.28304 -2.70994 2.17737
      vertex 4.28304 -2.70994 2.42939
    endloop
  endfacet
  facet normal -0.866026 0.499999 0
    outer loop
      vertex 4.52853 -1.9544 1.38363
      vertex 4.92574 -1.26642 2.84999
      vertex 4.92574 -1.26642 0.0993241
    endloop
  endfacet
  facet normal -0.866026 0.499998 7.20584e-007
    outer loop
      vertex 4.92574 -1.26642 2.84999
      vertex 4.52853 -1.9544 1.38363
      vertex 4.86195 -1.3769 2.84999
    endloop
  endfacet
  facet normal -0.866026 0.5 0
    outer loop
      vertex 4.86195 -1.3769 2.84999
      vertex 4.52853 -1.9544 1.38363
      vertex 4.52853 -1.9544 2.60775
    endloop
  endfacet
  facet normal 0.866025 0.500001 -1.03301e-006
    outer loop
      vertex 11.4715 -1.9544 1.38363
      vertex 11.0743 -1.26642 2.84999
      vertex 11.1381 -1.3769 2.84999
    endloop
  endfacet
  facet normal 0.866026 0.499999 -0
    outer loop
      vertex 11.4715 -1.9544 1.38363
      vertex 11.1381 -1.3769 2.84999
      vertex 11.4715 -1.9544 2.60775
    endloop
  endfacet
  facet normal 0.866026 0.499999 0
    outer loop
      vertex 11.0743 -1.26642 2.84999
      vertex 11.4715 -1.9544 1.38363
      vertex 11.0743 -1.26642 0.0993241
    endloop
  endfacet
  facet normal 0.951057 0.309017 -0
    outer loop
      vertex 11.717 -2.70994 2.17737
      vertex 11.4715 -1.9544 2.60775
      vertex 11.717 -2.70994 2.42939
    endloop
  endfacet
  facet normal 0.951057 0.309017 0
    outer loop
      vertex 11.4715 -1.9544 2.60775
      vertex 11.717 -2.70994 2.17737
      vertex 11.4715 -1.9544 1.38363
    endloop
  endfacet
  facet normal -0.587786 0.809017 0
    outer loop
      vertex 6.1 -0.209104 2.84999
      vertex 5.4573 -0.67605 -1.61941
      vertex 5.4573 -0.67605 2.84999
    endloop
  endfacet
  facet normal -0.587786 0.809017 0
    outer loop
      vertex 6.1 -0.209104 -2
      vertex 5.4573 -0.67605 -1.61941
      vertex 6.1 -0.209104 2.84999
    endloop
  endfacet
  facet normal -0.587786 0.809017 -2.917e-007
    outer loop
      vertex 5.4573 -0.67605 -1.61941
      vertex 6.1 -0.209104 -2
      vertex 5.57501 -0.59053 -2
    endloop
  endfacet
  facet normal -0.406736 0.913546 2.02848e-016
    outer loop
      vertex 6.56965 -4.44089e-016 -2
      vertex 6.1 -0.209104 2.84999
      vertex 6.56965 -1.521e-015 2.84999
    endloop
  endfacet
  facet normal -0.406736 0.913546 0
    outer loop
      vertex 6.1 -0.209104 2.84999
      vertex 6.56965 -4.44089e-016 -2
      vertex 6.1 -0.209104 -2
    endloop
  endfacet
  facet normal 0.406737 0.913545 -0
    outer loop
      vertex 9.9 -0.209104 -2
      vertex 9.43035 -1.521e-015 2.84999
      vertex 9.9 -0.209104 2.84999
    endloop
  endfacet
  facet normal 0.406737 0.913545 2.02848e-016
    outer loop
      vertex 9.43035 -1.521e-015 2.84999
      vertex 9.9 -0.209104 -2
      vertex 9.43035 -4.44089e-016 -2
    endloop
  endfacet
  facet normal 0.743145 0.669131 -0
    outer loop
      vertex 11.0743 -1.26642 0.0993241
      vertex 10.5427 -0.67605 2.84999
      vertex 11.0743 -1.26642 2.84999
    endloop
  endfacet
  facet normal 0.743145 0.669131 0
    outer loop
      vertex 10.5427 -0.67605 2.84999
      vertex 11.0743 -1.26642 0.0993241
      vertex 10.5427 -0.67605 -1.61941
    endloop
  endfacet
  facet normal 0.587786 0.809017 -0
    outer loop
      vertex 10.5427 -0.67605 -1.61941
      vertex 9.9 -0.209104 2.84999
      vertex 10.5427 -0.67605 2.84999
    endloop
  endfacet
  facet normal 0.587786 0.809017 -2.917e-007
    outer loop
      vertex 9.9 -0.209104 -2
      vertex 10.5427 -0.67605 -1.61941
      vertex 10.425 -0.59053 -2
    endloop
  endfacet
  facet normal 0.587786 0.809017 0
    outer loop
      vertex 10.5427 -0.67605 -1.61941
      vertex 9.9 -0.209104 -2
      vertex 9.9 -0.209104 2.84999
    endloop
  endfacet
  facet normal 0 -1 0
    outer loop
      vertex -15 -51 -2
      vertex -12 -51 -7
      vertex -10.5 -51 -2
    endloop
  endfacet
  facet normal 0 -1 0
    outer loop
      vertex -15 -51 -8
      vertex -4 -51 -7
      vertex -12 -51 -7
    endloop
  endfacet
  facet normal 0 -1 -0
    outer loop
      vertex -4 -51 -7
      vertex -15 -51 -8
      vertex 4 -51 -7
    endloop
  endfacet
  facet normal 0 -1 0
    outer loop
      vertex 15 -51 -8
      vertex 4 -51 -7
      vertex -15 -51 -8
    endloop
  endfacet
  facet normal 0 -1 0
    outer loop
      vertex -15 -51 -8
      vertex -12 -51 -7
      vertex -15 -51 -2
    endloop
  endfacet
  facet normal 0 -1 0
    outer loop
      vertex -4 -51 -7
      vertex 5.5 -51 -2
      vertex -5.5 -51 -2
    endloop
  endfacet
  facet normal 0 -1 0
    outer loop
      vertex 5.5 -51 -2
      vertex -4 -51 -7
      vertex 4 -51 -7
    endloop
  endfacet
  facet normal 0 -1 0
    outer loop
      vertex 12 -51 -7
      vertex 15 -51 -2
      vertex 10.5 -51 -2
    endloop
  endfacet
  facet normal 0 -1 0
    outer loop
      vertex 12 -51 -7
      vertex 15 -51 -8
      vertex 15 -51 -2
    endloop
  endfacet
  facet normal 0 -1 0
    outer loop
      vertex 4 -51 -7
      vertex 15 -51 -8
      vertex 12 -51 -7
    endloop
  endfacet
  facet normal -0 0 1
    outer loop
      vertex -4 -5 -2
      vertex 4 -25 -2
      vertex 4 -5 -2
    endloop
  endfacet
  facet normal 0 0 1
    outer loop
      vertex 4 -25 -2
      vertex -4 -5 -2
      vertex -4 -25 -2
    endloop
  endfacet
  facet normal 0 0 1
    outer loop
      vertex 15 -4.44089e-016 -2
      vertex 10 -11 -2
      vertex 15 -12.5 -2
    endloop
  endfacet
  facet normal 0 0 1
    outer loop
      vertex 4 -25 -2
      vertex 10 -19 -2
      vertex 10 -11 -2
    endloop
  endfacet
  facet normal 0 0 1
    outer loop
      vertex 10 -19 -2
      vertex 4 -25 -2
      vertex 5.5 -33 -2
    endloop
  endfacet
  facet normal 0 0 1
    outer loop
      vertex 4 -25 -2
      vertex 10 -11 -2
      vertex 4 -5 -2
    endloop
  endfacet
  facet normal 0 0 1
    outer loop
      vertex 15 -4.44089e-016 -2
      vertex 4 -5 -2
      vertex 10 -11 -2
    endloop
  endfacet
  facet normal 0 -0 1
    outer loop
      vertex 4 -5 -2
      vertex 15 -4.44089e-016 -2
      vertex 2.5 -4.44089e-016 -2
    endloop
  endfacet
  facet normal 0 0 1
    outer loop
      vertex 15 -17.5 -2
      vertex 10.5 -33 -2
      vertex 15 -51 -2
    endloop
  endfacet
  facet normal -0 0 1
    outer loop
      vertex 10 -19 -2
      vertex 10.5 -33 -2
      vertex 15 -17.5 -2
    endloop
  endfacet
  facet normal 0 0 1
    outer loop
      vertex 10.5 -33 -2
      vertex 10 -19 -2
      vertex 5.5 -33 -2
    endloop
  endfacet
  facet normal 0 0 1
    outer loop
      vertex 15 -51 -2
      vertex 10.5 -33 -2
      vertex 10.5 -51 -2
    endloop
  endfacet
  facet normal -0 0 1
    outer loop
      vertex 2.5 -30 -2
      vertex 5.5 -33 -2
      vertex 4 -25 -2
    endloop
  endfacet
  facet normal 0 0 1
    outer loop
      vertex -5.5 -33 -2
      vertex 5.5 -33 -2
      vertex 2.5 -30 -2
    endloop
  endfacet
  facet normal 0 0 1
    outer loop
      vertex -5.5 -33 -2
      vertex 2.5 -30 -2
      vertex -2.5 -30 -2
    endloop
  endfacet
  facet normal 0 0 1
    outer loop
      vertex -5.5 -33 -2
      vertex -2.5 -30 -2
      vertex -4 -25 -2
    endloop
  endfacet
  facet normal 0 0 1
    outer loop
      vertex 5.5 -33 -2
      vertex -5.5 -33 -2
      vertex 5.5 -51 -2
    endloop
  endfacet
  facet normal 0 0 1
    outer loop
      vertex 5.5 -51 -2
      vertex -5.5 -33 -2
      vertex -5.5 -51 -2
    endloop
  endfacet
  facet normal -0 0 1
    outer loop
      vertex -10 -19 -2
      vertex -4 -25 -2
      vertex -4 -5 -2
    endloop
  endfacet
  facet normal 0 0 1
    outer loop
      vertex -10 -19 -2
      vertex -4 -5 -2
      vertex -10 -11 -2
    endloop
  endfacet
  facet normal -0 0 1
    outer loop
      vertex -15 -4.44089e-016 -2
      vertex -4 -5 -2
      vertex -2.5 -4.44089e-016 -2
    endloop
  endfacet
  facet normal 0 0 1
    outer loop
      vertex -4 -5 -2
      vertex -15 -4.44089e-016 -2
      vertex -10 -11 -2
    endloop
  endfacet
  facet normal 0 0 1
    outer loop
      vertex -10 -11 -2
      vertex -15 -4.44089e-016 -2
      vertex -15 -12.5 -2
    endloop
  endfacet
  facet normal 0 0 1
    outer loop
      vertex -10.5 -33 -2
      vertex -4 -25 -2
      vertex -10 -19 -2
    endloop
  endfacet
  facet normal 0 0 1
    outer loop
      vertex -4 -25 -2
      vertex -10.5 -33 -2
      vertex -5.5 -33 -2
    endloop
  endfacet
  facet normal 0 0 1
    outer loop
      vertex -15 -17.5 -2
      vertex -10.5 -33 -2
      vertex -10 -19 -2
    endloop
  endfacet
  facet normal 0 0 1
    outer loop
      vertex -15 -51 -2
      vertex -10.5 -33 -2
      vertex -15 -17.5 -2
    endloop
  endfacet
  facet normal 0 0 1
    outer loop
      vertex -10.5 -33 -2
      vertex -15 -51 -2
      vertex -10.5 -51 -2
    endloop
  endfacet
  facet normal 0 0 -1
    outer loop
      vertex -2.5 -30 -23
      vertex -11.4602 -30 -23
      vertex -4 -25 -23
    endloop
  endfacet
  facet normal -0 0 -1
    outer loop
      vertex 3.53341 -7.92681 -23
      vertex -3.54472 -22.0619 -23
      vertex -3.53341 -7.92681 -23
    endloop
  endfacet
  facet normal 0 0 -1
    outer loop
      vertex -3.54472 -22.0619 -23
      vertex -7.06188 -11.4553 -23
      vertex -3.53341 -7.92681 -23
    endloop
  endfacet
  facet normal 0 0 -1
    outer loop
      vertex -7.07319 -18.5334 -23
      vertex -7.06188 -11.4553 -23
      vertex -3.54472 -22.0619 -23
    endloop
  endfacet
  facet normal 0 0 -1
    outer loop
      vertex -7.07319 -18.5334 -23
      vertex -7.07319 -11.4666 -23
      vertex -7.06188 -11.4553 -23
    endloop
  endfacet
  facet normal -0 0 -1
    outer loop
      vertex -7.07319 -18.5334 -23
      vertex -10 -19 -23
      vertex -7.07319 -11.4666 -23
    endloop
  endfacet
  facet normal 0 0 -1
    outer loop
      vertex -15 -26.4602 -23
      vertex -10 -19 -23
      vertex -7.07319 -18.5334 -23
    endloop
  endfacet
  facet normal -0 0 -1
    outer loop
      vertex -10 -19 -23
      vertex -15 -26.4602 -23
      vertex -15 -17.5 -23
    endloop
  endfacet
  facet normal 0 0 -1
    outer loop
      vertex -4 -25 -23
      vertex -3.53341 -22.0732 -23
      vertex -1.6 -25 -23
    endloop
  endfacet
  facet normal 0 0 -1
    outer loop
      vertex -3.53341 -22.0732 -23
      vertex -4 -25 -23
      vertex -11.4602 -30 -23
    endloop
  endfacet
  facet normal 0 0 -1
    outer loop
      vertex 11.4602 -30 -23
      vertex 2.5 -30 -23
      vertex 4 -25 -23
    endloop
  endfacet
  facet normal 0 0 -1
    outer loop
      vertex 4 -25 -23
      vertex 3.53341 -22.0732 -23
      vertex 11.4602 -30 -23
    endloop
  endfacet
  facet normal 0 -0 -1
    outer loop
      vertex 3.53341 -22.0732 -23
      vertex 4 -25 -23
      vertex -1.6 -25 -23
    endloop
  endfacet
  facet normal 0 0 -1
    outer loop
      vertex 15 -26.4602 -23
      vertex 10 -19 -23
      vertex 15 -17.5 -23
    endloop
  endfacet
  facet normal 0 0 -1
    outer loop
      vertex 10 -19 -23
      vertex 7.07319 -18.5334 -23
      vertex 10 -11 -23
    endloop
  endfacet
  facet normal 0 0 -1
    outer loop
      vertex 7.07319 -18.5334 -23
      vertex 10 -19 -23
      vertex 15 -26.4602 -23
    endloop
  endfacet
  facet normal 0 0 -1
    outer loop
      vertex 10 -11 -23
      vertex 15 -3.53978 -23
      vertex 15 -12.5 -23
    endloop
  endfacet
  facet normal -0 0 -1
    outer loop
      vertex 10 -11 -23
      vertex 7.07319 -11.4666 -23
      vertex 15 -3.53978 -23
    endloop
  endfacet
  facet normal 0 0 -1
    outer loop
      vertex 7.07319 -18.5334 -23
      vertex 7.07319 -11.4666 -23
      vertex 10 -11 -23
    endloop
  endfacet
  facet normal 0 0 -1
    outer loop
      vertex 7.07319 -18.5334 -23
      vertex 7.06188 -11.4553 -23
      vertex 7.07319 -11.4666 -23
    endloop
  endfacet
  facet normal 0 0 -1
    outer loop
      vertex 7.07319 -18.5334 -23
      vertex 3.53341 -7.92681 -23
      vertex 7.06188 -11.4553 -23
    endloop
  endfacet
  facet normal 0 -0 -1
    outer loop
      vertex 3.53341 -7.92681 -23
      vertex 7.07319 -18.5334 -23
      vertex 3.53341 -22.0732 -23
    endloop
  endfacet
  facet normal 0 0 -1
    outer loop
      vertex 3.53341 -7.92681 -23
      vertex 4 -5 -23
      vertex 11.4602 -5.10703e-015 -23
    endloop
  endfacet
  facet normal 0 0 -1
    outer loop
      vertex -3.53341 -22.0732 -23
      vertex 3.53341 -22.0732 -23
      vertex -1.6 -25 -23
    endloop
  endfacet
  facet normal 0 0 -1
    outer loop
      vertex -3.54472 -22.0619 -23
      vertex 3.53341 -22.0732 -23
      vertex -3.53341 -22.0732 -23
    endloop
  endfacet
  facet normal 0 0 -1
    outer loop
      vertex 3.53341 -22.0732 -23
      vertex -3.54472 -22.0619 -23
      vertex 3.53341 -7.92681 -23
    endloop
  endfacet
  facet normal 0 0 -1
    outer loop
      vertex 3.53341 -7.92681 -23
      vertex -3.53341 -7.92681 -23
      vertex 4 -5 -23
    endloop
  endfacet
  facet normal 0 0 -1
    outer loop
      vertex -3.53341 -7.92681 -23
      vertex -4 -5 -23
      vertex 4 -5 -23
    endloop
  endfacet
  facet normal -0 -0 -1
    outer loop
      vertex -4 -5 -23
      vertex -3.53341 -7.92681 -23
      vertex -11.4602 -5.10703e-015 -23
    endloop
  endfacet
  facet normal -0 0 -1
    outer loop
      vertex 11.4602 -5.10703e-015 -23
      vertex 4 -5 -23
      vertex 2.5 -5.10703e-015 -23
    endloop
  endfacet
  facet normal -0 0 -1
    outer loop
      vertex -2.5 -5.10703e-015 -23
      vertex -4 -5 -23
      vertex -11.4602 -5.10703e-015 -23
    endloop
  endfacet
  facet normal 0 0 -1
    outer loop
      vertex -10 -11 -23
      vertex -7.07319 -11.4666 -23
      vertex -10 -19 -23
    endloop
  endfacet
  facet normal 0 0 -1
    outer loop
      vertex -10 -11 -23
      vertex -15 -3.53977 -23
      vertex -7.07319 -11.4666 -23
    endloop
  endfacet
  facet normal 0 0 -1
    outer loop
      vertex -15 -3.53977 -23
      vertex -10 -11 -23
      vertex -15 -12.5 -23
    endloop
  endfacet
  facet normal 0.677285 0.677285 0.287348
    outer loop
      vertex 11.4602 -30 -23
      vertex 2.47487 -23.1317 -18.01
      vertex 9.34315 -30 -18.01
    endloop
  endfacet
  facet normal 0.677285 0.677285 0.287348
    outer loop
      vertex 2.47487 -23.1317 -18.01
      vertex 11.4602 -30 -23
      vertex 3.53341 -22.0732 -23
    endloop
  endfacet
  facet normal -0.677285 -0.677286 0.287348
    outer loop
      vertex 7.07319 -18.5334 -23
      vertex 15 -24.3431 -18.01
      vertex 8.13173 -17.4749 -18.01
    endloop
  endfacet
  facet normal -0.677285 -0.677285 0.287348
    outer loop
      vertex 15 -24.3431 -18.01
      vertex 7.07319 -18.5334 -23
      vertex 15 -26.4602 -23
    endloop
  endfacet
  facet normal 0.707107 -0.707107 2.33159e-008
    outer loop
      vertex 3.53341 -22.0732 -23
      vertex 8.13173 -17.4749 -18.01
      vertex 2.47487 -23.1317 -18.01
    endloop
  endfacet
  facet normal 0.707107 -0.707107 -1.25037e-007
    outer loop
      vertex 8.13173 -17.4749 -18.01
      vertex 3.53341 -22.0732 -23
      vertex 7.07319 -18.5334 -23
    endloop
  endfacet
  facet normal 0 0 -1
    outer loop
      vertex 9.34315 -30 -18.01
      vertex 15 -24.3431 -18.01
      vertex 15 -30 -18.01
    endloop
  endfacet
  facet normal 0 0 -1
    outer loop
      vertex 9.34315 -30 -18.01
      vertex 8.13173 -17.4749 -18.01
      vertex 15 -24.3431 -18.01
    endloop
  endfacet
  facet normal 0 -0 -1
    outer loop
      vertex 8.13173 -17.4749 -18.01
      vertex 9.34315 -30 -18.01
      vertex 2.47487 -23.1317 -18.01
    endloop
  endfacet
  facet normal 0.707107 0.707107 8.40234e-008
    outer loop
      vertex 8.13173 -12.5251 -18.01
      vertex 7.06188 -11.4553 -23
      vertex 2.47487 -6.86827 -18.01
    endloop
  endfacet
  facet normal 0.707122 0.707092 -6.25474e-006
    outer loop
      vertex 7.06188 -11.4553 -23
      vertex 8.13173 -12.5251 -18.01
      vertex 7.07319 -11.4666 -23
    endloop
  endfacet
  facet normal 0 0 -1
    outer loop
      vertex 15 -5.65685 -18.01
      vertex 9.34315 -3.99902e-015 -18.01
      vertex 15 -3.99902e-015 -18.01
    endloop
  endfacet
  facet normal 0 0 -1
    outer loop
      vertex 8.13173 -12.5251 -18.01
      vertex 9.34315 -3.99902e-015 -18.01
      vertex 15 -5.65685 -18.01
    endloop
  endfacet
  facet normal 0 0 -1
    outer loop
      vertex 9.34315 -3.99902e-015 -18.01
      vertex 8.13173 -12.5251 -18.01
      vertex 2.47487 -6.86827 -18.01
    endloop
  endfacet
  facet normal 0.707107 0.707107 4.05421e-008
    outer loop
      vertex 7.06188 -11.4553 -23
      vertex 3.53341 -7.92681 -23
      vertex 2.47487 -6.86827 -18.01
    endloop
  endfacet
  facet normal -0.677285 0.677285 0.287348
    outer loop
      vertex 7.07319 -11.4666 -23
      vertex 15 -5.65685 -18.01
      vertex 15 -3.53978 -23
    endloop
  endfacet
  facet normal -0.677285 0.677285 0.287348
    outer loop
      vertex 15 -5.65685 -18.01
      vertex 7.07319 -11.4666 -23
      vertex 8.13173 -12.5251 -18.01
    endloop
  endfacet
  facet normal 0.677285 -0.677285 0.287348
    outer loop
      vertex 2.47487 -6.86827 -18.01
      vertex 11.4602 -5.10703e-015 -23
      vertex 9.34315 -3.99902e-015 -18.01
    endloop
  endfacet
  facet normal 0.677285 -0.677285 0.287348
    outer loop
      vertex 11.4602 -5.10703e-015 -23
      vertex 2.47487 -6.86827 -18.01
      vertex 3.53341 -7.92681 -23
    endloop
  endfacet
  facet normal -0.707107 0.707107 3.83376e-008
    outer loop
      vertex -7.06188 -11.4553 -23
      vertex -8.13173 -12.5251 -18.01
      vertex -2.47487 -6.86827 -18.01
    endloop
  endfacet
  facet normal -0.707092 0.707122 6.39015e-006
    outer loop
      vertex -8.13173 -12.5251 -18.01
      vertex -7.06188 -11.4553 -23
      vertex -7.07319 -11.4666 -23
    endloop
  endfacet
  facet normal 0 0 -1
    outer loop
      vertex -8.13173 -12.5251 -18.01
      vertex -9.34315 -3.99902e-015 -18.01
      vertex -2.47487 -6.86827 -18.01
    endloop
  endfacet
  facet normal 0 0 -1
    outer loop
      vertex -15 -5.65685 -18.01
      vertex -9.34315 -3.99902e-015 -18.01
      vertex -8.13173 -12.5251 -18.01
    endloop
  endfacet
  facet normal -0 0 -1
    outer loop
      vertex -9.34315 -3.99902e-015 -18.01
      vertex -15 -5.65685 -18.01
      vertex -15 -3.99902e-015 -18.01
    endloop
  endfacet
  facet normal -0.707107 0.707107 1.5879e-007
    outer loop
      vertex -2.47487 -6.86827 -18.01
      vertex -3.53341 -7.92681 -23
      vertex -7.06188 -11.4553 -23
    endloop
  endfacet
  facet normal -0.677285 -0.677285 0.287348
    outer loop
      vertex -3.53341 -7.92681 -23
      vertex -9.34315 -3.99902e-015 -18.01
      vertex -11.4602 -5.10703e-015 -23
    endloop
  endfacet
  facet normal -0.677285 -0.677285 0.287348
    outer loop
      vertex -9.34315 -3.99902e-015 -18.01
      vertex -3.53341 -7.92681 -23
      vertex -2.47487 -6.86827 -18.01
    endloop
  endfacet
  facet normal 0.677285 0.677285 0.287348
    outer loop
      vertex -15 -5.65685 -18.01
      vertex -7.07319 -11.4666 -23
      vertex -15 -3.53977 -23
    endloop
  endfacet
  facet normal 0.677285 0.677285 0.287348
    outer loop
      vertex -7.07319 -11.4666 -23
      vertex -15 -5.65685 -18.01
      vertex -8.13173 -12.5251 -18.01
    endloop
  endfacet
  facet normal -0.707107 -0.707107 9.68027e-008
    outer loop
      vertex -3.54472 -22.0619 -23
      vertex -2.47487 -23.1317 -18.01
      vertex -8.13173 -17.4749 -18.01
    endloop
  endfacet
  facet normal -0.707092 -0.707122 -6.25501e-006
    outer loop
      vertex -2.47487 -23.1317 -18.01
      vertex -3.54472 -22.0619 -23
      vertex -3.53341 -22.0732 -23
    endloop
  endfacet
  facet normal -0.707107 -0.707107 -6.75701e-008
    outer loop
      vertex -7.07319 -18.5334 -23
      vertex -3.54472 -22.0619 -23
      vertex -8.13173 -17.4749 -18.01
    endloop
  endfacet
  facet normal -0.677285 0.677285 0.287348
    outer loop
      vertex -3.53341 -22.0732 -23
      vertex -9.34315 -30 -18.01
      vertex -2.47487 -23.1317 -18.01
    endloop
  endfacet
  facet normal -0.677285 0.677285 0.287348
    outer loop
      vertex -9.34315 -30 -18.01
      vertex -3.53341 -22.0732 -23
      vertex -11.4602 -30 -23
    endloop
  endfacet
  facet normal 0 0 -1
    outer loop
      vertex -9.34315 -30 -18.01
      vertex -8.13173 -17.4749 -18.01
      vertex -2.47487 -23.1317 -18.01
    endloop
  endfacet
  facet normal 0 0 -1
    outer loop
      vertex -15 -24.3431 -18.01
      vertex -9.34315 -30 -18.01
      vertex -15 -30 -18.01
    endloop
  endfacet
  facet normal 0 0 -1
    outer loop
      vertex -9.34315 -30 -18.01
      vertex -15 -24.3431 -18.01
      vertex -8.13173 -17.4749 -18.01
    endloop
  endfacet
  facet normal 0.677285 -0.677285 0.287348
    outer loop
      vertex -15 -24.3431 -18.01
      vertex -7.07319 -18.5334 -23
      vertex -8.13173 -17.4749 -18.01
    endloop
  endfacet
  facet normal 0.677285 -0.677285 0.287348
    outer loop
      vertex -7.07319 -18.5334 -23
      vertex -15 -24.3431 -18.01
      vertex -15 -26.4602 -23
    endloop
  endfacet
  facet normal 0.957826 0.287348 -0
    outer loop
      vertex -2.5 -30 -8
      vertex -4 -25 -2
      vertex -2.5 -30 -2
    endloop
  endfacet
  facet normal 0.957826 0.287348 0
    outer loop
      vertex -4 -25 -2
      vertex -2.5 -30 -8
      vertex -4 -25 -23
    endloop
  endfacet
  facet normal 0.957826 0.287348 0
    outer loop
      vertex -4 -25 -23
      vertex -2.5 -30 -8
      vertex -2.5 -30 -23
    endloop
  endfacet
  facet normal -0.957826 0.287348 0
    outer loop
      vertex 2.5 -30 -8
      vertex 4 -25 -23
      vertex 2.5 -30 -23
    endloop
  endfacet
  facet normal -0.957826 0.287348 0
    outer loop
      vertex 4 -25 -23
      vertex 2.5 -30 -8
      vertex 4 -25 -2
    endloop
  endfacet
  facet normal -0.957826 0.287348 0
    outer loop
      vertex 4 -25 -2
      vertex 2.5 -30 -8
      vertex 2.5 -30 -2
    endloop
  endfacet
  facet normal 0 1 -0
    outer loop
      vertex 2.5 -30 -8
      vertex -2.5 -30 -2
      vertex 2.5 -30 -2
    endloop
  endfacet
  facet normal 0 1 0
    outer loop
      vertex -2.5 -30 -2
      vertex 2.5 -30 -8
      vertex -2.5 -30 -8
    endloop
  endfacet
  facet normal -0.287348 0.957826 0
    outer loop
      vertex 15 -17.5 -23
      vertex 10 -19 -2
      vertex 15 -17.5 -2
    endloop
  endfacet
  facet normal -0.287348 0.957826 0
    outer loop
      vertex 10 -19 -2
      vertex 15 -17.5 -23
      vertex 10 -19 -23
    endloop
  endfacet
  facet normal -0.287348 -0.957826 0
    outer loop
      vertex 10 -11 -23
      vertex 15 -12.5 -2
      vertex 10 -11 -2
    endloop
  endfacet
  facet normal -0.287348 -0.957826 -0
    outer loop
      vertex 15 -12.5 -2
      vertex 10 -11 -23
      vertex 15 -12.5 -23
    endloop
  endfacet
  facet normal 1 -0 0
    outer loop
      vertex 10 -19 -2
      vertex 10 -11 -23
      vertex 10 -11 -2
    endloop
  endfacet
  facet normal 1 0 0
    outer loop
      vertex 10 -11 -23
      vertex 10 -19 -2
      vertex 10 -19 -23
    endloop
  endfacet
  facet normal -0.957826 -0.287348 7.29189e-017
    outer loop
      vertex 4 -5 -23
      vertex 2.5 -4.44089e-016 -2
      vertex 2.5 -5.10703e-015 -23
    endloop
  endfacet
  facet normal -0.957826 -0.287348 0
    outer loop
      vertex 2.5 -4.44089e-016 -2
      vertex 4 -5 -23
      vertex 4 -5 -2
    endloop
  endfacet
  facet normal 0.957826 -0.287348 7.29189e-017
    outer loop
      vertex -4 -5 -2
      vertex -2.5 -5.10703e-015 -23
      vertex -2.5 -4.44089e-016 -2
    endloop
  endfacet
  facet normal 0.957826 -0.287348 0
    outer loop
      vertex -2.5 -5.10703e-015 -23
      vertex -4 -5 -2
      vertex -4 -5 -23
    endloop
  endfacet
  facet normal 0 1 -0
    outer loop
      vertex 4 -5 -23
      vertex -4 -5 -2
      vertex 4 -5 -2
    endloop
  endfacet
  facet normal 0 1 0
    outer loop
      vertex -4 -5 -2
      vertex 4 -5 -23
      vertex -4 -5 -23
    endloop
  endfacet
  facet normal 0.287348 -0.957826 0
    outer loop
      vertex -15 -12.5 -23
      vertex -10 -11 -2
      vertex -15 -12.5 -2
    endloop
  endfacet
  facet normal 0.287348 -0.957826 0
    outer loop
      vertex -10 -11 -2
      vertex -15 -12.5 -23
      vertex -10 -11 -23
    endloop
  endfacet
  facet normal 0.287348 0.957826 -0
    outer loop
      vertex -10 -19 -23
      vertex -15 -17.5 -2
      vertex -10 -19 -2
    endloop
  endfacet
  facet normal 0.287348 0.957826 0
    outer loop
      vertex -15 -17.5 -2
      vertex -10 -19 -23
      vertex -15 -17.5 -23
    endloop
  endfacet
  facet normal -1 0 0
    outer loop
      vertex -10 -19 -23
      vertex -10 -11 -2
      vertex -10 -11 -23
    endloop
  endfacet
  facet normal -1 -0 0
    outer loop
      vertex -10 -11 -2
      vertex -10 -19 -23
      vertex -10 -19 -2
    endloop
  endfacet
  facet normal 0 -1 0
    outer loop
      vertex 4 -25 -23
      vertex 4 -25 -2
      vertex -1.6 -25 -23
    endloop
  endfacet
  facet normal 0 -1 0
    outer loop
      vertex -1.6 -25 -23
      vertex -4 -25 -2
      vertex -4 -25 -23
    endloop
  endfacet
  facet normal 0 -1 0
    outer loop
      vertex -4 -25 -2
      vertex -1.6 -25 -23
      vertex 4 -25 -2
    endloop
  endfacet
  facet normal -0.957826 0 -0.287348
    outer loop
      vertex -4 -51 -7
      vertex -5.5 -33 -2
      vertex -4 -33 -7
    endloop
  endfacet
  facet normal -0.957826 -0 -0.287348
    outer loop
      vertex -5.5 -33 -2
      vertex -4 -51 -7
      vertex -5.5 -51 -2
    endloop
  endfacet
  facet normal 0 -1 0
    outer loop
      vertex -12 -33 -7
      vertex -5.5 -33 -2
      vertex -10.5 -33 -2
    endloop
  endfacet
  facet normal 0 -1 -0
    outer loop
      vertex -5.5 -33 -2
      vertex -12 -33 -7
      vertex -4 -33 -7
    endloop
  endfacet
  facet normal -0 0 1
    outer loop
      vertex -12 -33 -7
      vertex -4 -51 -7
      vertex -4 -33 -7
    endloop
  endfacet
  facet normal 0 0 1
    outer loop
      vertex -4 -51 -7
      vertex -12 -33 -7
      vertex -12 -51 -7
    endloop
  endfacet
  facet normal 0.957826 0 -0.287348
    outer loop
      vertex -10.5 -51 -2
      vertex -12 -33 -7
      vertex -10.5 -33 -2
    endloop
  endfacet
  facet normal 0.957826 0 -0.287348
    outer loop
      vertex -12 -33 -7
      vertex -10.5 -51 -2
      vertex -12 -51 -7
    endloop
  endfacet
  facet normal -0.957826 0 -0.287348
    outer loop
      vertex 12 -51 -7
      vertex 10.5 -33 -2
      vertex 12 -33 -7
    endloop
  endfacet
  facet normal -0.957826 -0 -0.287348
    outer loop
      vertex 10.5 -33 -2
      vertex 12 -51 -7
      vertex 10.5 -51 -2
    endloop
  endfacet
  facet normal 0 -1 0
    outer loop
      vertex 4 -33 -7
      vertex 10.5 -33 -2
      vertex 5.5 -33 -2
    endloop
  endfacet
  facet normal 0 -1 -0
    outer loop
      vertex 10.5 -33 -2
      vertex 4 -33 -7
      vertex 12 -33 -7
    endloop
  endfacet
  facet normal -0 0 1
    outer loop
      vertex 4 -33 -7
      vertex 12 -51 -7
      vertex 12 -33 -7
    endloop
  endfacet
  facet normal 0 0 1
    outer loop
      vertex 12 -51 -7
      vertex 4 -33 -7
      vertex 4 -51 -7
    endloop
  endfacet
  facet normal 0.957826 0 -0.287348
    outer loop
      vertex 5.5 -51 -2
      vertex 4 -33 -7
      vertex 5.5 -33 -2
    endloop
  endfacet
  facet normal 0.957826 0 -0.287348
    outer loop
      vertex 4 -33 -7
      vertex 5.5 -51 -2
      vertex 4 -51 -7
    endloop
  endfacet
  facet normal 0 0 -1
    outer loop
      vertex 15 -51 -8
      vertex 2.5 -30 -8
      vertex 15 -30 -8
    endloop
  endfacet
  facet normal 0 0 -1
    outer loop
      vertex 15 -51 -8
      vertex -2.5 -30 -8
      vertex 2.5 -30 -8
    endloop
  endfacet
  facet normal 0 0 -1
    outer loop
      vertex -15 -51 -8
      vertex -2.5 -30 -8
      vertex 15 -51 -8
    endloop
  endfacet
  facet normal -0 0 -1
    outer loop
      vertex -2.5 -30 -8
      vertex -15 -51 -8
      vertex -15 -30 -8
    endloop
  endfacet
endsolid OpenSCAD_Model
