solid OpenSCAD_Model
  facet normal 0 0 1
    outer loop
      vertex -2.14837 -4.07039 32
      vertex -2.7081 -3.72738 32
      vertex -2.31631 -4.58728 32
    endloop
  endfacet
  facet normal 0 0 1
    outer loop
      vertex 2.7081 -3.72738 32
      vertex 2.14837 -4.07039 32
      vertex 2.31631 -4.58728 32
    endloop
  endfacet
  facet normal 0 0 1
    outer loop
      vertex 3.64698 3.62049 32
      vertex 4.6669 4.6669 32
      vertex 3.87938 5.33951 32
    endloop
  endfacet
  facet normal 0 0 1
    outer loop
      vertex 4.6669 4.6669 32
      vertex 3.64698 3.62049 32
      vertex 4.57027 2.34969 32
    endloop
  endfacet
  facet normal -0 0 1
    outer loop
      vertex 2.31631 4.58728 32
      vertex 3.64698 3.62049 32
      vertex 3.87938 5.33951 32
    endloop
  endfacet
  facet normal 0 0 1
    outer loop
      vertex 2.31631 4.58728 32
      vertex 3.87938 5.33951 32
      vertex 2.99634 5.88064 32
    endloop
  endfacet
  facet normal 0 0 1
    outer loop
      vertex 3.64698 3.62049 32
      vertex 2.7081 3.72738 32
      vertex 3.20729 3.30104 32
    endloop
  endfacet
  facet normal 0 0 1
    outer loop
      vertex 3.64698 3.62049 32
      vertex 2.31631 4.58728 32
      vertex 2.7081 3.72738 32
    endloop
  endfacet
  facet normal 0 0 1
    outer loop
      vertex 2.03951 6.27697 32
      vertex 2.31631 4.58728 32
      vertex 2.99634 5.88064 32
    endloop
  endfacet
  facet normal 0 0 1
    outer loop
      vertex 0.822396 5.07268 32
      vertex 2.03951 6.27697 32
      vertex 1.03247 6.51874 32
    endloop
  endfacet
  facet normal 0 0 1
    outer loop
      vertex 2.03951 6.27697 32
      vertex 0.822396 5.07268 32
      vertex 2.31631 4.58728 32
    endloop
  endfacet
  facet normal 0 0 1
    outer loop
      vertex 0 6.6 32
      vertex 0.822396 5.07268 32
      vertex 1.03247 6.51874 32
    endloop
  endfacet
  facet normal 0 0 1
    outer loop
      vertex -0.822396 5.07268 32
      vertex 0.822396 5.07268 32
      vertex 0 6.6 32
    endloop
  endfacet
  facet normal 0 0 1
    outer loop
      vertex 0.822396 5.07268 32
      vertex 0 4.6073 32
      vertex 0.65445 4.55579 32
    endloop
  endfacet
  facet normal 0 0 1
    outer loop
      vertex 0.822396 5.07268 32
      vertex -0.822396 5.07268 32
      vertex 0 4.6073 32
    endloop
  endfacet
  facet normal 0 0 1
    outer loop
      vertex 0 4.6073 32
      vertex -0.822396 5.07268 32
      vertex -0.65445 4.55579 32
    endloop
  endfacet
  facet normal -0 0 1
    outer loop
      vertex -1.03247 6.51874 32
      vertex -0.822396 5.07268 32
      vertex 0 6.6 32
    endloop
  endfacet
  facet normal -0 0 1
    outer loop
      vertex -2.03951 6.27697 32
      vertex -0.822396 5.07268 32
      vertex -1.03247 6.51874 32
    endloop
  endfacet
  facet normal 0 0 1
    outer loop
      vertex -2.03951 6.27697 32
      vertex -2.31631 4.58728 32
      vertex -0.822396 5.07268 32
    endloop
  endfacet
  facet normal -0 0 1
    outer loop
      vertex -2.99634 5.88064 32
      vertex -2.31631 4.58728 32
      vertex -2.03951 6.27697 32
    endloop
  endfacet
  facet normal -0 0 1
    outer loop
      vertex -3.87938 5.33951 32
      vertex -2.31631 4.58728 32
      vertex -2.99634 5.88064 32
    endloop
  endfacet
  facet normal 0 -0 1
    outer loop
      vertex -3.64698 3.62049 32
      vertex -2.31631 4.58728 32
      vertex -3.87938 5.33951 32
    endloop
  endfacet
  facet normal 0 0 1
    outer loop
      vertex -2.7081 3.72738 32
      vertex -3.64698 3.62049 32
      vertex -3.20729 3.30104 32
    endloop
  endfacet
  facet normal 0 0 1
    outer loop
      vertex -2.31631 4.58728 32
      vertex -3.64698 3.62049 32
      vertex -2.7081 3.72738 32
    endloop
  endfacet
  facet normal -0 0 1
    outer loop
      vertex -4.6669 4.6669 32
      vertex -3.64698 3.62049 32
      vertex -3.87938 5.33951 32
    endloop
  endfacet
  facet normal -0 0 1
    outer loop
      vertex -5.33951 3.87938 32
      vertex -3.64698 3.62049 32
      vertex -4.6669 4.6669 32
    endloop
  endfacet
  facet normal -0 0 1
    outer loop
      vertex 5.07854 0.785398 32
      vertex 6.6 0 32
      vertex 6.51874 1.03247 32
    endloop
  endfacet
  facet normal 0 0 1
    outer loop
      vertex 5.07854 0.785398 32
      vertex 6.51874 1.03247 32
      vertex 6.27697 2.03951 32
    endloop
  endfacet
  facet normal 0 0 1
    outer loop
      vertex 5.07854 -0.785398 32
      vertex 6.6 0 32
      vertex 5.07854 0.785398 32
    endloop
  endfacet
  facet normal -0 0 1
    outer loop
      vertex 4.57027 2.34969 32
      vertex 6.27697 2.03951 32
      vertex 5.88064 2.99634 32
    endloop
  endfacet
  facet normal 0 0 1
    outer loop
      vertex 6.6 0 32
      vertex 5.07854 -0.785398 32
      vertex 6.51874 -1.03247 32
    endloop
  endfacet
  facet normal 0 0 1
    outer loop
      vertex 4.57027 2.34969 32
      vertex 5.88064 2.99634 32
      vertex 5.33951 3.87938 32
    endloop
  endfacet
  facet normal 0 0 1
    outer loop
      vertex 6.51874 -1.03247 32
      vertex 5.07854 -0.785398 32
      vertex 6.27697 -2.03951 32
    endloop
  endfacet
  facet normal 0 0 1
    outer loop
      vertex 4.57027 -2.34969 32
      vertex 6.27697 -2.03951 32
      vertex 5.07854 -0.785398 32
    endloop
  endfacet
  facet normal 0 0 1
    outer loop
      vertex 4.57027 2.34969 32
      vertex 5.33951 3.87938 32
      vertex 4.6669 4.6669 32
    endloop
  endfacet
  facet normal 0 0 1
    outer loop
      vertex 6.27697 2.03951 32
      vertex 4.57027 2.34969 32
      vertex 5.07854 0.785398 32
    endloop
  endfacet
  facet normal -0 0 1
    outer loop
      vertex 4.3818 1.42373 32
      vertex 5.07854 0.785398 32
      vertex 4.57027 2.34969 32
    endloop
  endfacet
  facet normal 0 0 1
    outer loop
      vertex 5.07854 0.785398 32
      vertex 4.3818 1.42373 32
      vertex 4.53505 0.785398 32
    endloop
  endfacet
  facet normal 0 -0 1
    outer loop
      vertex 4.3818 1.42373 32
      vertex 4.57027 2.34969 32
      vertex 4.13058 2.03024 32
    endloop
  endfacet
  facet normal 0 0 1
    outer loop
      vertex 6.27697 -2.03951 32
      vertex 4.57027 -2.34969 32
      vertex 5.88064 -2.99634 32
    endloop
  endfacet
  facet normal 0 0 1
    outer loop
      vertex 5.88064 -2.99634 32
      vertex 4.57027 -2.34969 32
      vertex 5.33951 -3.87938 32
    endloop
  endfacet
  facet normal -0 0 1
    outer loop
      vertex 3.64698 -3.62049 32
      vertex 5.33951 -3.87938 32
      vertex 4.57027 -2.34969 32
    endloop
  endfacet
  facet normal 0 0 1
    outer loop
      vertex 4.3818 -1.42373 32
      vertex 5.07854 -0.785398 32
      vertex 4.53505 -0.785398 32
    endloop
  endfacet
  facet normal 0 0 1
    outer loop
      vertex 5.07854 -0.785398 32
      vertex 4.3818 -1.42373 32
      vertex 4.57027 -2.34969 32
    endloop
  endfacet
  facet normal 0 0 1
    outer loop
      vertex 4.57027 -2.34969 32
      vertex 4.3818 -1.42373 32
      vertex 4.13058 -2.03024 32
    endloop
  endfacet
  facet normal 0 0 1
    outer loop
      vertex 5.33951 -3.87938 32
      vertex 3.64698 -3.62049 32
      vertex 4.6669 -4.6669 32
    endloop
  endfacet
  facet normal 0 0 1
    outer loop
      vertex 4.6669 -4.6669 32
      vertex 3.64698 -3.62049 32
      vertex 3.87938 -5.33951 32
    endloop
  endfacet
  facet normal 0 0 1
    outer loop
      vertex 2.7081 -3.72738 32
      vertex 3.64698 -3.62049 32
      vertex 3.20729 -3.30104 32
    endloop
  endfacet
  facet normal 0 0 1
    outer loop
      vertex 2.31631 -4.58728 32
      vertex 3.64698 -3.62049 32
      vertex 2.7081 -3.72738 32
    endloop
  endfacet
  facet normal 0 0 1
    outer loop
      vertex 3.64698 -3.62049 32
      vertex 2.31631 -4.58728 32
      vertex 3.87938 -5.33951 32
    endloop
  endfacet
  facet normal 0 0 1
    outer loop
      vertex 3.87938 -5.33951 32
      vertex 2.31631 -4.58728 32
      vertex 2.99634 -5.88064 32
    endloop
  endfacet
  facet normal 0 0 1
    outer loop
      vertex 2.31631 -4.58728 32
      vertex 2.03951 -6.27697 32
      vertex 2.99634 -5.88064 32
    endloop
  endfacet
  facet normal -0 0 1
    outer loop
      vertex 0.822396 -5.07268 32
      vertex 2.03951 -6.27697 32
      vertex 2.31631 -4.58728 32
    endloop
  endfacet
  facet normal 0 0 1
    outer loop
      vertex 2.03951 -6.27697 32
      vertex 0.822396 -5.07268 32
      vertex 1.03247 -6.51874 32
    endloop
  endfacet
  facet normal -0 0 1
    outer loop
      vertex 0 -4.6073 32
      vertex 0.822396 -5.07268 32
      vertex 0.65445 -4.55579 32
    endloop
  endfacet
  facet normal 0 0 1
    outer loop
      vertex -0.822396 -5.07268 32
      vertex 0.822396 -5.07268 32
      vertex 0 -4.6073 32
    endloop
  endfacet
  facet normal 0 0 1
    outer loop
      vertex 0.822396 -5.07268 32
      vertex 0 -6.6 32
      vertex 1.03247 -6.51874 32
    endloop
  endfacet
  facet normal 0 0 1
    outer loop
      vertex -0.822396 -5.07268 32
      vertex 0 -4.6073 32
      vertex -0.65445 -4.55579 32
    endloop
  endfacet
  facet normal 0 0 1
    outer loop
      vertex 0.822396 -5.07268 32
      vertex -0.822396 -5.07268 32
      vertex 0 -6.6 32
    endloop
  endfacet
  facet normal 0 0 1
    outer loop
      vertex -0.822396 -5.07268 32
      vertex -1.03247 -6.51874 32
      vertex 0 -6.6 32
    endloop
  endfacet
  facet normal 0 0 1
    outer loop
      vertex -0.822396 -5.07268 32
      vertex -2.03951 -6.27697 32
      vertex -1.03247 -6.51874 32
    endloop
  endfacet
  facet normal 0 0 1
    outer loop
      vertex -2.31631 -4.58728 32
      vertex -2.03951 -6.27697 32
      vertex -0.822396 -5.07268 32
    endloop
  endfacet
  facet normal 0 0 1
    outer loop
      vertex -3.64698 -3.62049 32
      vertex -2.31631 -4.58728 32
      vertex -2.7081 -3.72738 32
    endloop
  endfacet
  facet normal 0 0 1
    outer loop
      vertex -2.31631 -4.58728 32
      vertex -2.99634 -5.88064 32
      vertex -2.03951 -6.27697 32
    endloop
  endfacet
  facet normal -0 0 1
    outer loop
      vertex -3.64698 -3.62049 32
      vertex -2.7081 -3.72738 32
      vertex -3.20729 -3.30104 32
    endloop
  endfacet
  facet normal 0 0 1
    outer loop
      vertex -2.31631 -4.58728 32
      vertex -3.64698 -3.62049 32
      vertex -3.87938 -5.33951 32
    endloop
  endfacet
  facet normal 0 0 1
    outer loop
      vertex -2.31631 -4.58728 32
      vertex -3.87938 -5.33951 32
      vertex -2.99634 -5.88064 32
    endloop
  endfacet
  facet normal 0 0 1
    outer loop
      vertex -5.33951 -3.87938 32
      vertex -3.64698 -3.62049 32
      vertex -4.57027 -2.34969 32
    endloop
  endfacet
  facet normal 0 0 1
    outer loop
      vertex -3.64698 -3.62049 32
      vertex -4.6669 -4.6669 32
      vertex -3.87938 -5.33951 32
    endloop
  endfacet
  facet normal 0 0 1
    outer loop
      vertex 2.7081 3.72738 32
      vertex 2.31631 4.58728 32
      vertex 2.14837 4.07039 32
    endloop
  endfacet
  facet normal 0 0 1
    outer loop
      vertex -2.14837 4.07039 32
      vertex -2.31631 4.58728 32
      vertex -2.7081 3.72738 32
    endloop
  endfacet
  facet normal 0 0 1
    outer loop
      vertex -4.57027 2.34969 32
      vertex -4.3818 1.42373 32
      vertex -4.13058 2.03024 32
    endloop
  endfacet
  facet normal 0 0 1
    outer loop
      vertex -5.07854 0.785398 32
      vertex -4.3818 1.42373 32
      vertex -4.57027 2.34969 32
    endloop
  endfacet
  facet normal 0 0 1
    outer loop
      vertex -3.64698 3.62049 32
      vertex -5.33951 3.87938 32
      vertex -4.57027 2.34969 32
    endloop
  endfacet
  facet normal -0 0 1
    outer loop
      vertex -5.88064 2.99634 32
      vertex -4.57027 2.34969 32
      vertex -5.33951 3.87938 32
    endloop
  endfacet
  facet normal 0 0 1
    outer loop
      vertex -4.3818 1.42373 32
      vertex -5.07854 0.785398 32
      vertex -4.53505 0.785398 32
    endloop
  endfacet
  facet normal 0 0 1
    outer loop
      vertex -6.27697 2.03951 32
      vertex -4.57027 2.34969 32
      vertex -5.88064 2.99634 32
    endloop
  endfacet
  facet normal 0 0 1
    outer loop
      vertex -4.3818 -1.42373 32
      vertex -4.57027 -2.34969 32
      vertex -4.13058 -2.03024 32
    endloop
  endfacet
  facet normal -0 0 1
    outer loop
      vertex -5.07854 -0.785398 32
      vertex -4.3818 -1.42373 32
      vertex -4.53505 -0.785398 32
    endloop
  endfacet
  facet normal 0 0 1
    outer loop
      vertex -4.3818 -1.42373 32
      vertex -5.07854 -0.785398 32
      vertex -4.57027 -2.34969 32
    endloop
  endfacet
  facet normal -0 0 1
    outer loop
      vertex -6.27697 -2.03951 32
      vertex -4.57027 -2.34969 32
      vertex -5.07854 -0.785398 32
    endloop
  endfacet
  facet normal 0 0 1
    outer loop
      vertex -3.64698 -3.62049 32
      vertex -5.33951 -3.87938 32
      vertex -4.6669 -4.6669 32
    endloop
  endfacet
  facet normal 0 0 1
    outer loop
      vertex -4.57027 2.34969 32
      vertex -6.27697 2.03951 32
      vertex -5.07854 0.785398 32
    endloop
  endfacet
  facet normal -0 0 1
    outer loop
      vertex -6.51874 1.03247 32
      vertex -5.07854 0.785398 32
      vertex -6.27697 2.03951 32
    endloop
  endfacet
  facet normal 0 0 1
    outer loop
      vertex -4.57027 -2.34969 32
      vertex -5.88064 -2.99634 32
      vertex -5.33951 -3.87938 32
    endloop
  endfacet
  facet normal 0 0 1
    outer loop
      vertex -6.6 0 32
      vertex -5.07854 0.785398 32
      vertex -6.51874 1.03247 32
    endloop
  endfacet
  facet normal 0 0 1
    outer loop
      vertex -4.57027 -2.34969 32
      vertex -6.27697 -2.03951 32
      vertex -5.88064 -2.99634 32
    endloop
  endfacet
  facet normal 0 0 1
    outer loop
      vertex -5.07854 0.785398 32
      vertex -6.6 0 32
      vertex -5.07854 -0.785398 32
    endloop
  endfacet
  facet normal 0 0 1
    outer loop
      vertex -5.07854 -0.785398 32
      vertex -6.51874 -1.03247 32
      vertex -6.27697 -2.03951 32
    endloop
  endfacet
  facet normal 0 0 1
    outer loop
      vertex -5.07854 -0.785398 32
      vertex -6.6 0 32
      vertex -6.51874 -1.03247 32
    endloop
  endfacet
  facet normal -1 0 0
    outer loop
      vertex 5.07854 -0.785398 0
      vertex 5.07854 0.785398 32
      vertex 5.07854 0.785398 0
    endloop
  endfacet
  facet normal -1 -0 0
    outer loop
      vertex 5.07854 0.785398 32
      vertex 5.07854 -0.785398 0
      vertex 5.07854 -0.785398 32
    endloop
  endfacet
  facet normal 0 -1 0
    outer loop
      vertex 4.53505 0.785398 0
      vertex 5.07854 0.785398 32
      vertex 4.53505 0.785398 32
    endloop
  endfacet
  facet normal 0 -1 -0
    outer loop
      vertex 5.07854 0.785398 32
      vertex 4.53505 0.785398 0
      vertex 5.07854 0.785398 0
    endloop
  endfacet
  facet normal -0 0 -1
    outer loop
      vertex -2.14837 4.07039 0
      vertex -2.7081 3.72738 0
      vertex -2.31631 4.58728 0
    endloop
  endfacet
  facet normal 0 0 -1
    outer loop
      vertex 2.7081 3.72738 0
      vertex 2.14837 4.07039 0
      vertex 2.31631 4.58728 0
    endloop
  endfacet
  facet normal 0 0 -1
    outer loop
      vertex 3.64698 -3.62049 0
      vertex 4.6669 -4.6669 0
      vertex 3.87938 -5.33951 0
    endloop
  endfacet
  facet normal 0 0 -1
    outer loop
      vertex 4.6669 -4.6669 0
      vertex 3.64698 -3.62049 0
      vertex 4.57027 -2.34969 0
    endloop
  endfacet
  facet normal 0 0 -1
    outer loop
      vertex 2.31631 -4.58728 0
      vertex 3.64698 -3.62049 0
      vertex 3.87938 -5.33951 0
    endloop
  endfacet
  facet normal 0 0 -1
    outer loop
      vertex 2.31631 -4.58728 0
      vertex 3.87938 -5.33951 0
      vertex 2.99634 -5.88064 0
    endloop
  endfacet
  facet normal -0 0 -1
    outer loop
      vertex 3.64698 -3.62049 0
      vertex 2.7081 -3.72738 0
      vertex 3.20729 -3.30104 0
    endloop
  endfacet
  facet normal 0 0 -1
    outer loop
      vertex 3.64698 -3.62049 0
      vertex 2.31631 -4.58728 0
      vertex 2.7081 -3.72738 0
    endloop
  endfacet
  facet normal 0 0 -1
    outer loop
      vertex 2.03951 -6.27697 0
      vertex 2.31631 -4.58728 0
      vertex 2.99634 -5.88064 0
    endloop
  endfacet
  facet normal 0 0 -1
    outer loop
      vertex 0.822396 -5.07268 0
      vertex 2.03951 -6.27697 0
      vertex 1.03247 -6.51874 0
    endloop
  endfacet
  facet normal 0 0 -1
    outer loop
      vertex 2.03951 -6.27697 0
      vertex 0.822396 -5.07268 0
      vertex 2.31631 -4.58728 0
    endloop
  endfacet
  facet normal 0 0 -1
    outer loop
      vertex 0 -6.6 0
      vertex 0.822396 -5.07268 0
      vertex 1.03247 -6.51874 0
    endloop
  endfacet
  facet normal 0 0 -1
    outer loop
      vertex -0.822396 -5.07268 0
      vertex 0.822396 -5.07268 0
      vertex 0 -6.6 0
    endloop
  endfacet
  facet normal 0 0 -1
    outer loop
      vertex 0.822396 -5.07268 0
      vertex 0 -4.6073 0
      vertex 0.65445 -4.55579 0
    endloop
  endfacet
  facet normal 0 0 -1
    outer loop
      vertex 0.822396 -5.07268 0
      vertex -0.822396 -5.07268 0
      vertex 0 -4.6073 0
    endloop
  endfacet
  facet normal -0 0 -1
    outer loop
      vertex 0 -4.6073 0
      vertex -0.822396 -5.07268 0
      vertex -0.65445 -4.55579 0
    endloop
  endfacet
  facet normal 0 0 -1
    outer loop
      vertex -1.03247 -6.51874 0
      vertex -0.822396 -5.07268 0
      vertex 0 -6.6 0
    endloop
  endfacet
  facet normal 0 0 -1
    outer loop
      vertex -2.03951 -6.27697 0
      vertex -0.822396 -5.07268 0
      vertex -1.03247 -6.51874 0
    endloop
  endfacet
  facet normal 0 0 -1
    outer loop
      vertex -2.03951 -6.27697 0
      vertex -2.31631 -4.58728 0
      vertex -0.822396 -5.07268 0
    endloop
  endfacet
  facet normal 0 0 -1
    outer loop
      vertex -2.99634 -5.88064 0
      vertex -2.31631 -4.58728 0
      vertex -2.03951 -6.27697 0
    endloop
  endfacet
  facet normal 0 0 -1
    outer loop
      vertex -3.87938 -5.33951 0
      vertex -2.31631 -4.58728 0
      vertex -2.99634 -5.88064 0
    endloop
  endfacet
  facet normal 0 -0 -1
    outer loop
      vertex -3.64698 -3.62049 0
      vertex -2.31631 -4.58728 0
      vertex -3.87938 -5.33951 0
    endloop
  endfacet
  facet normal 0 0 -1
    outer loop
      vertex -2.7081 -3.72738 0
      vertex -3.64698 -3.62049 0
      vertex -3.20729 -3.30104 0
    endloop
  endfacet
  facet normal 0 0 -1
    outer loop
      vertex -2.31631 -4.58728 0
      vertex -3.64698 -3.62049 0
      vertex -2.7081 -3.72738 0
    endloop
  endfacet
  facet normal 0 0 -1
    outer loop
      vertex -4.6669 -4.6669 0
      vertex -3.64698 -3.62049 0
      vertex -3.87938 -5.33951 0
    endloop
  endfacet
  facet normal 0 0 -1
    outer loop
      vertex -5.33951 -3.87938 0
      vertex -3.64698 -3.62049 0
      vertex -4.6669 -4.6669 0
    endloop
  endfacet
  facet normal 0 0 -1
    outer loop
      vertex 5.07854 -0.785398 0
      vertex 6.6 0 0
      vertex 6.51874 -1.03247 0
    endloop
  endfacet
  facet normal 0 0 -1
    outer loop
      vertex 5.07854 -0.785398 0
      vertex 6.51874 -1.03247 0
      vertex 6.27697 -2.03951 0
    endloop
  endfacet
  facet normal 0 0 -1
    outer loop
      vertex 5.07854 0.785398 0
      vertex 6.6 0 0
      vertex 5.07854 -0.785398 0
    endloop
  endfacet
  facet normal 0 0 -1
    outer loop
      vertex 4.57027 -2.34969 0
      vertex 6.27697 -2.03951 0
      vertex 5.88064 -2.99634 0
    endloop
  endfacet
  facet normal 0 0 -1
    outer loop
      vertex 6.6 0 0
      vertex 5.07854 0.785398 0
      vertex 6.51874 1.03247 0
    endloop
  endfacet
  facet normal 0 0 -1
    outer loop
      vertex 4.57027 -2.34969 0
      vertex 5.88064 -2.99634 0
      vertex 5.33951 -3.87938 0
    endloop
  endfacet
  facet normal -0 0 -1
    outer loop
      vertex 6.51874 1.03247 0
      vertex 5.07854 0.785398 0
      vertex 6.27697 2.03951 0
    endloop
  endfacet
  facet normal 0 0 -1
    outer loop
      vertex 4.57027 2.34969 0
      vertex 6.27697 2.03951 0
      vertex 5.07854 0.785398 0
    endloop
  endfacet
  facet normal 0 0 -1
    outer loop
      vertex 4.57027 -2.34969 0
      vertex 5.33951 -3.87938 0
      vertex 4.6669 -4.6669 0
    endloop
  endfacet
  facet normal -0 0 -1
    outer loop
      vertex 6.27697 -2.03951 0
      vertex 4.57027 -2.34969 0
      vertex 5.07854 -0.785398 0
    endloop
  endfacet
  facet normal 0 0 -1
    outer loop
      vertex 4.3818 -1.42373 0
      vertex 5.07854 -0.785398 0
      vertex 4.57027 -2.34969 0
    endloop
  endfacet
  facet normal -0 0 -1
    outer loop
      vertex 5.07854 -0.785398 0
      vertex 4.3818 -1.42373 0
      vertex 4.53505 -0.785398 0
    endloop
  endfacet
  facet normal 0 -0 -1
    outer loop
      vertex 4.3818 -1.42373 0
      vertex 4.57027 -2.34969 0
      vertex 4.13058 -2.03024 0
    endloop
  endfacet
  facet normal 0 0 -1
    outer loop
      vertex 6.27697 2.03951 0
      vertex 4.57027 2.34969 0
      vertex 5.88064 2.99634 0
    endloop
  endfacet
  facet normal -0 0 -1
    outer loop
      vertex 5.88064 2.99634 0
      vertex 4.57027 2.34969 0
      vertex 5.33951 3.87938 0
    endloop
  endfacet
  facet normal 0 0 -1
    outer loop
      vertex 3.64698 3.62049 0
      vertex 5.33951 3.87938 0
      vertex 4.57027 2.34969 0
    endloop
  endfacet
  facet normal 0 0 -1
    outer loop
      vertex 4.3818 1.42373 0
      vertex 5.07854 0.785398 0
      vertex 4.53505 0.785398 0
    endloop
  endfacet
  facet normal 0 0 -1
    outer loop
      vertex 5.07854 0.785398 0
      vertex 4.3818 1.42373 0
      vertex 4.57027 2.34969 0
    endloop
  endfacet
  facet normal 0 0 -1
    outer loop
      vertex 4.57027 2.34969 0
      vertex 4.3818 1.42373 0
      vertex 4.13058 2.03024 0
    endloop
  endfacet
  facet normal -0 0 -1
    outer loop
      vertex 5.33951 3.87938 0
      vertex 3.64698 3.62049 0
      vertex 4.6669 4.6669 0
    endloop
  endfacet
  facet normal -0 0 -1
    outer loop
      vertex 4.6669 4.6669 0
      vertex 3.64698 3.62049 0
      vertex 3.87938 5.33951 0
    endloop
  endfacet
  facet normal 0 0 -1
    outer loop
      vertex 2.7081 3.72738 0
      vertex 3.64698 3.62049 0
      vertex 3.20729 3.30104 0
    endloop
  endfacet
  facet normal 0 0 -1
    outer loop
      vertex 2.31631 4.58728 0
      vertex 3.64698 3.62049 0
      vertex 2.7081 3.72738 0
    endloop
  endfacet
  facet normal 0 0 -1
    outer loop
      vertex 3.64698 3.62049 0
      vertex 2.31631 4.58728 0
      vertex 3.87938 5.33951 0
    endloop
  endfacet
  facet normal -0 0 -1
    outer loop
      vertex 3.87938 5.33951 0
      vertex 2.31631 4.58728 0
      vertex 2.99634 5.88064 0
    endloop
  endfacet
  facet normal 0 0 -1
    outer loop
      vertex 2.31631 4.58728 0
      vertex 2.03951 6.27697 0
      vertex 2.99634 5.88064 0
    endloop
  endfacet
  facet normal 0 0 -1
    outer loop
      vertex 0.822396 5.07268 0
      vertex 2.03951 6.27697 0
      vertex 2.31631 4.58728 0
    endloop
  endfacet
  facet normal -0 0 -1
    outer loop
      vertex 2.03951 6.27697 0
      vertex 0.822396 5.07268 0
      vertex 1.03247 6.51874 0
    endloop
  endfacet
  facet normal 0 0 -1
    outer loop
      vertex 0 4.6073 0
      vertex 0.822396 5.07268 0
      vertex 0.65445 4.55579 0
    endloop
  endfacet
  facet normal 0 0 -1
    outer loop
      vertex -0.822396 5.07268 0
      vertex 0.822396 5.07268 0
      vertex 0 4.6073 0
    endloop
  endfacet
  facet normal 0 0 -1
    outer loop
      vertex 0.822396 5.07268 0
      vertex 0 6.6 0
      vertex 1.03247 6.51874 0
    endloop
  endfacet
  facet normal 0 0 -1
    outer loop
      vertex -0.822396 5.07268 0
      vertex 0 4.6073 0
      vertex -0.65445 4.55579 0
    endloop
  endfacet
  facet normal 0 0 -1
    outer loop
      vertex 0.822396 5.07268 0
      vertex -0.822396 5.07268 0
      vertex 0 6.6 0
    endloop
  endfacet
  facet normal 0 0 -1
    outer loop
      vertex -0.822396 5.07268 0
      vertex -1.03247 6.51874 0
      vertex 0 6.6 0
    endloop
  endfacet
  facet normal 0 0 -1
    outer loop
      vertex -0.822396 5.07268 0
      vertex -2.03951 6.27697 0
      vertex -1.03247 6.51874 0
    endloop
  endfacet
  facet normal 0 0 -1
    outer loop
      vertex -2.31631 4.58728 0
      vertex -2.03951 6.27697 0
      vertex -0.822396 5.07268 0
    endloop
  endfacet
  facet normal 0 0 -1
    outer loop
      vertex -3.64698 3.62049 0
      vertex -2.31631 4.58728 0
      vertex -2.7081 3.72738 0
    endloop
  endfacet
  facet normal 0 0 -1
    outer loop
      vertex -2.31631 4.58728 0
      vertex -2.99634 5.88064 0
      vertex -2.03951 6.27697 0
    endloop
  endfacet
  facet normal 0 0 -1
    outer loop
      vertex -3.64698 3.62049 0
      vertex -2.7081 3.72738 0
      vertex -3.20729 3.30104 0
    endloop
  endfacet
  facet normal -0 0 -1
    outer loop
      vertex -2.31631 4.58728 0
      vertex -3.64698 3.62049 0
      vertex -3.87938 5.33951 0
    endloop
  endfacet
  facet normal 0 0 -1
    outer loop
      vertex -2.31631 4.58728 0
      vertex -3.87938 5.33951 0
      vertex -2.99634 5.88064 0
    endloop
  endfacet
  facet normal 0 0 -1
    outer loop
      vertex -5.33951 3.87938 0
      vertex -3.64698 3.62049 0
      vertex -4.57027 2.34969 0
    endloop
  endfacet
  facet normal 0 0 -1
    outer loop
      vertex -3.64698 3.62049 0
      vertex -4.6669 4.6669 0
      vertex -3.87938 5.33951 0
    endloop
  endfacet
  facet normal 0 0 -1
    outer loop
      vertex 2.7081 -3.72738 0
      vertex 2.31631 -4.58728 0
      vertex 2.14837 -4.07039 0
    endloop
  endfacet
  facet normal -0 0 -1
    outer loop
      vertex -2.14837 -4.07039 0
      vertex -2.31631 -4.58728 0
      vertex -2.7081 -3.72738 0
    endloop
  endfacet
  facet normal 0 0 -1
    outer loop
      vertex -4.57027 -2.34969 0
      vertex -4.3818 -1.42373 0
      vertex -4.13058 -2.03024 0
    endloop
  endfacet
  facet normal 0 0 -1
    outer loop
      vertex -5.07854 -0.785398 0
      vertex -4.3818 -1.42373 0
      vertex -4.57027 -2.34969 0
    endloop
  endfacet
  facet normal -0 0 -1
    outer loop
      vertex -3.64698 -3.62049 0
      vertex -5.33951 -3.87938 0
      vertex -4.57027 -2.34969 0
    endloop
  endfacet
  facet normal 0 0 -1
    outer loop
      vertex -5.88064 -2.99634 0
      vertex -4.57027 -2.34969 0
      vertex -5.33951 -3.87938 0
    endloop
  endfacet
  facet normal 0 0 -1
    outer loop
      vertex -4.3818 -1.42373 0
      vertex -5.07854 -0.785398 0
      vertex -4.53505 -0.785398 0
    endloop
  endfacet
  facet normal 0 0 -1
    outer loop
      vertex -6.27697 -2.03951 0
      vertex -4.57027 -2.34969 0
      vertex -5.88064 -2.99634 0
    endloop
  endfacet
  facet normal 0 0 -1
    outer loop
      vertex -4.3818 1.42373 0
      vertex -4.57027 2.34969 0
      vertex -4.13058 2.03024 0
    endloop
  endfacet
  facet normal 0 0 -1
    outer loop
      vertex -5.07854 0.785398 0
      vertex -4.3818 1.42373 0
      vertex -4.53505 0.785398 0
    endloop
  endfacet
  facet normal -0 0 -1
    outer loop
      vertex -4.3818 1.42373 0
      vertex -5.07854 0.785398 0
      vertex -4.57027 2.34969 0
    endloop
  endfacet
  facet normal 0 0 -1
    outer loop
      vertex -6.27697 2.03951 0
      vertex -4.57027 2.34969 0
      vertex -5.07854 0.785398 0
    endloop
  endfacet
  facet normal 0 0 -1
    outer loop
      vertex -3.64698 3.62049 0
      vertex -5.33951 3.87938 0
      vertex -4.6669 4.6669 0
    endloop
  endfacet
  facet normal 0 0 -1
    outer loop
      vertex -4.57027 -2.34969 0
      vertex -6.27697 -2.03951 0
      vertex -5.07854 -0.785398 0
    endloop
  endfacet
  facet normal 0 0 -1
    outer loop
      vertex -6.51874 -1.03247 0
      vertex -5.07854 -0.785398 0
      vertex -6.27697 -2.03951 0
    endloop
  endfacet
  facet normal 0 0 -1
    outer loop
      vertex -4.57027 2.34969 0
      vertex -5.88064 2.99634 0
      vertex -5.33951 3.87938 0
    endloop
  endfacet
  facet normal 0 0 -1
    outer loop
      vertex -6.6 0 0
      vertex -5.07854 -0.785398 0
      vertex -6.51874 -1.03247 0
    endloop
  endfacet
  facet normal -0 0 -1
    outer loop
      vertex -4.57027 2.34969 0
      vertex -6.27697 2.03951 0
      vertex -5.88064 2.99634 0
    endloop
  endfacet
  facet normal 0 0 -1
    outer loop
      vertex -5.07854 -0.785398 0
      vertex -6.6 0 0
      vertex -5.07854 0.785398 0
    endloop
  endfacet
  facet normal 0 0 -1
    outer loop
      vertex -5.07854 0.785398 0
      vertex -6.51874 1.03247 0
      vertex -6.27697 2.03951 0
    endloop
  endfacet
  facet normal -0 0 -1
    outer loop
      vertex -5.07854 0.785398 0
      vertex -6.6 0 0
      vertex -6.51874 1.03247 0
    endloop
  endfacet
  facet normal 0 1 -0
    outer loop
      vertex 5.07854 -0.785398 0
      vertex 4.53505 -0.785398 32
      vertex 5.07854 -0.785398 32
    endloop
  endfacet
  facet normal 0 1 0
    outer loop
      vertex 4.53505 -0.785398 32
      vertex 5.07854 -0.785398 0
      vertex 4.53505 -0.785398 0
    endloop
  endfacet
  facet normal -0.809017 -0.587785 0
    outer loop
      vertex 4.57027 2.34969 0
      vertex 3.64698 3.62049 32
      vertex 3.64698 3.62049 0
    endloop
  endfacet
  facet normal -0.809017 -0.587785 0
    outer loop
      vertex 3.64698 3.62049 32
      vertex 4.57027 2.34969 0
      vertex 4.57027 2.34969 32
    endloop
  endfacet
  facet normal 0.587781 -0.80902 0
    outer loop
      vertex 3.20729 3.30104 0
      vertex 3.64698 3.62049 32
      vertex 3.20729 3.30104 32
    endloop
  endfacet
  facet normal 0.587781 -0.80902 0
    outer loop
      vertex 3.64698 3.62049 32
      vertex 3.20729 3.30104 0
      vertex 3.64698 3.62049 0
    endloop
  endfacet
  facet normal -0.587781 0.80902 0
    outer loop
      vertex 4.57027 2.34969 0
      vertex 4.13058 2.03024 32
      vertex 4.57027 2.34969 32
    endloop
  endfacet
  facet normal -0.587781 0.80902 0
    outer loop
      vertex 4.13058 2.03024 32
      vertex 4.57027 2.34969 0
      vertex 4.13058 2.03024 0
    endloop
  endfacet
  facet normal -0.309016 -0.951057 0
    outer loop
      vertex 0.822396 5.07268 0
      vertex 2.31631 4.58728 32
      vertex 0.822396 5.07268 32
    endloop
  endfacet
  facet normal -0.309016 -0.951057 -0
    outer loop
      vertex 2.31631 4.58728 32
      vertex 0.822396 5.07268 0
      vertex 2.31631 4.58728 0
    endloop
  endfacet
  facet normal -0.951061 0.309004 0
    outer loop
      vertex 2.14837 4.07039 0
      vertex 2.31631 4.58728 32
      vertex 2.31631 4.58728 0
    endloop
  endfacet
  facet normal -0.951061 0.309004 0
    outer loop
      vertex 2.31631 4.58728 32
      vertex 2.14837 4.07039 0
      vertex 2.14837 4.07039 32
    endloop
  endfacet
  facet normal 0.951057 -0.309014 0
    outer loop
      vertex 0.65445 4.55579 32
      vertex 0.822396 5.07268 0
      vertex 0.822396 5.07268 32
    endloop
  endfacet
  facet normal 0.951057 -0.309014 0
    outer loop
      vertex 0.822396 5.07268 0
      vertex 0.65445 4.55579 32
      vertex 0.65445 4.55579 0
    endloop
  endfacet
  facet normal 0.309016 -0.951057 0
    outer loop
      vertex -2.31631 4.58728 0
      vertex -0.822396 5.07268 32
      vertex -2.31631 4.58728 32
    endloop
  endfacet
  facet normal 0.309016 -0.951057 0
    outer loop
      vertex -0.822396 5.07268 32
      vertex -2.31631 4.58728 0
      vertex -0.822396 5.07268 0
    endloop
  endfacet
  facet normal -0.951057 -0.309014 0
    outer loop
      vertex -0.65445 4.55579 0
      vertex -0.822396 5.07268 32
      vertex -0.822396 5.07268 0
    endloop
  endfacet
  facet normal -0.951057 -0.309014 0
    outer loop
      vertex -0.822396 5.07268 32
      vertex -0.65445 4.55579 0
      vertex -0.65445 4.55579 32
    endloop
  endfacet
  facet normal 0.951061 0.309004 0
    outer loop
      vertex -2.14837 4.07039 32
      vertex -2.31631 4.58728 0
      vertex -2.31631 4.58728 32
    endloop
  endfacet
  facet normal 0.951061 0.309004 0
    outer loop
      vertex -2.31631 4.58728 0
      vertex -2.14837 4.07039 32
      vertex -2.14837 4.07039 0
    endloop
  endfacet
  facet normal 0.809017 -0.587785 0
    outer loop
      vertex -4.57027 2.34969 32
      vertex -3.64698 3.62049 0
      vertex -3.64698 3.62049 32
    endloop
  endfacet
  facet normal 0.809017 -0.587785 0
    outer loop
      vertex -3.64698 3.62049 0
      vertex -4.57027 2.34969 32
      vertex -4.57027 2.34969 0
    endloop
  endfacet
  facet normal -0.587781 -0.80902 0
    outer loop
      vertex -3.64698 3.62049 0
      vertex -3.20729 3.30104 32
      vertex -3.64698 3.62049 32
    endloop
  endfacet
  facet normal -0.587781 -0.80902 -0
    outer loop
      vertex -3.20729 3.30104 32
      vertex -3.64698 3.62049 0
      vertex -3.20729 3.30104 0
    endloop
  endfacet
  facet normal 0.587781 0.80902 -0
    outer loop
      vertex -4.13058 2.03024 0
      vertex -4.57027 2.34969 32
      vertex -4.13058 2.03024 32
    endloop
  endfacet
  facet normal 0.587781 0.80902 0
    outer loop
      vertex -4.57027 2.34969 32
      vertex -4.13058 2.03024 0
      vertex -4.57027 2.34969 0
    endloop
  endfacet
  facet normal 1 -0 0
    outer loop
      vertex -5.07854 -0.785398 32
      vertex -5.07854 0.785398 0
      vertex -5.07854 0.785398 32
    endloop
  endfacet
  facet normal 1 0 0
    outer loop
      vertex -5.07854 0.785398 0
      vertex -5.07854 -0.785398 32
      vertex -5.07854 -0.785398 0
    endloop
  endfacet
  facet normal 0 -1 0
    outer loop
      vertex -5.07854 0.785398 0
      vertex -4.53505 0.785398 32
      vertex -5.07854 0.785398 32
    endloop
  endfacet
  facet normal 0 -1 -0
    outer loop
      vertex -4.53505 0.785398 32
      vertex -5.07854 0.785398 0
      vertex -4.53505 0.785398 0
    endloop
  endfacet
  facet normal 0 1 -0
    outer loop
      vertex -4.53505 -0.785398 0
      vertex -5.07854 -0.785398 32
      vertex -4.53505 -0.785398 32
    endloop
  endfacet
  facet normal 0 1 0
    outer loop
      vertex -5.07854 -0.785398 32
      vertex -4.53505 -0.785398 0
      vertex -5.07854 -0.785398 0
    endloop
  endfacet
  facet normal 0.809017 0.587785 0
    outer loop
      vertex -3.64698 -3.62049 32
      vertex -4.57027 -2.34969 0
      vertex -4.57027 -2.34969 32
    endloop
  endfacet
  facet normal 0.809017 0.587785 0
    outer loop
      vertex -4.57027 -2.34969 0
      vertex -3.64698 -3.62049 32
      vertex -3.64698 -3.62049 0
    endloop
  endfacet
  facet normal 0.587781 -0.80902 0
    outer loop
      vertex -4.57027 -2.34969 0
      vertex -4.13058 -2.03024 32
      vertex -4.57027 -2.34969 32
    endloop
  endfacet
  facet normal 0.587781 -0.80902 0
    outer loop
      vertex -4.13058 -2.03024 32
      vertex -4.57027 -2.34969 0
      vertex -4.13058 -2.03024 0
    endloop
  endfacet
  facet normal -0.587781 0.80902 0
    outer loop
      vertex -3.20729 -3.30104 0
      vertex -3.64698 -3.62049 32
      vertex -3.20729 -3.30104 32
    endloop
  endfacet
  facet normal -0.587781 0.80902 0
    outer loop
      vertex -3.64698 -3.62049 32
      vertex -3.20729 -3.30104 0
      vertex -3.64698 -3.62049 0
    endloop
  endfacet
  facet normal 0.309016 0.951057 -0
    outer loop
      vertex -0.822396 -5.07268 0
      vertex -2.31631 -4.58728 32
      vertex -0.822396 -5.07268 32
    endloop
  endfacet
  facet normal 0.309016 0.951057 0
    outer loop
      vertex -2.31631 -4.58728 32
      vertex -0.822396 -5.07268 0
      vertex -2.31631 -4.58728 0
    endloop
  endfacet
  facet normal 0.951061 -0.309004 0
    outer loop
      vertex -2.31631 -4.58728 32
      vertex -2.14837 -4.07039 0
      vertex -2.14837 -4.07039 32
    endloop
  endfacet
  facet normal 0.951061 -0.309004 0
    outer loop
      vertex -2.14837 -4.07039 0
      vertex -2.31631 -4.58728 32
      vertex -2.31631 -4.58728 0
    endloop
  endfacet
  facet normal -0.951057 0.309014 0
    outer loop
      vertex -0.822396 -5.07268 0
      vertex -0.65445 -4.55579 32
      vertex -0.65445 -4.55579 0
    endloop
  endfacet
  facet normal -0.951057 0.309014 0
    outer loop
      vertex -0.65445 -4.55579 32
      vertex -0.822396 -5.07268 0
      vertex -0.822396 -5.07268 32
    endloop
  endfacet
  facet normal -0.309016 0.951057 0
    outer loop
      vertex 2.31631 -4.58728 0
      vertex 0.822396 -5.07268 32
      vertex 2.31631 -4.58728 32
    endloop
  endfacet
  facet normal -0.309016 0.951057 0
    outer loop
      vertex 0.822396 -5.07268 32
      vertex 2.31631 -4.58728 0
      vertex 0.822396 -5.07268 0
    endloop
  endfacet
  facet normal -0.951061 -0.309004 0
    outer loop
      vertex 2.31631 -4.58728 0
      vertex 2.14837 -4.07039 32
      vertex 2.14837 -4.07039 0
    endloop
  endfacet
  facet normal -0.951061 -0.309004 0
    outer loop
      vertex 2.14837 -4.07039 32
      vertex 2.31631 -4.58728 0
      vertex 2.31631 -4.58728 32
    endloop
  endfacet
  facet normal 0.951057 0.309014 0
    outer loop
      vertex 0.822396 -5.07268 32
      vertex 0.65445 -4.55579 0
      vertex 0.65445 -4.55579 32
    endloop
  endfacet
  facet normal 0.951057 0.309014 0
    outer loop
      vertex 0.65445 -4.55579 0
      vertex 0.822396 -5.07268 32
      vertex 0.822396 -5.07268 0
    endloop
  endfacet
  facet normal -0.809017 0.587785 0
    outer loop
      vertex 3.64698 -3.62049 0
      vertex 4.57027 -2.34969 32
      vertex 4.57027 -2.34969 0
    endloop
  endfacet
  facet normal -0.809017 0.587785 0
    outer loop
      vertex 4.57027 -2.34969 32
      vertex 3.64698 -3.62049 0
      vertex 3.64698 -3.62049 32
    endloop
  endfacet
  facet normal 0.587781 0.80902 -0
    outer loop
      vertex 3.64698 -3.62049 0
      vertex 3.20729 -3.30104 32
      vertex 3.64698 -3.62049 32
    endloop
  endfacet
  facet normal 0.587781 0.80902 0
    outer loop
      vertex 3.20729 -3.30104 32
      vertex 3.64698 -3.62049 0
      vertex 3.20729 -3.30104 0
    endloop
  endfacet
  facet normal -0.587781 -0.80902 0
    outer loop
      vertex 4.13058 -2.03024 0
      vertex 4.57027 -2.34969 32
      vertex 4.13058 -2.03024 32
    endloop
  endfacet
  facet normal -0.587781 -0.80902 -0
    outer loop
      vertex 4.57027 -2.34969 32
      vertex 4.13058 -2.03024 0
      vertex 4.57027 -2.34969 0
    endloop
  endfacet
  facet normal -0.649441 -0.760412 0
    outer loop
      vertex 2.7081 3.72738 0
      vertex 3.20729 3.30104 32
      vertex 2.7081 3.72738 32
    endloop
  endfacet
  facet normal -0.649441 -0.760412 -0
    outer loop
      vertex 3.20729 3.30104 32
      vertex 2.7081 3.72738 0
      vertex 3.20729 3.30104 0
    endloop
  endfacet
  facet normal 0.923882 -0.382677 0
    outer loop
      vertex -4.3818 1.42373 32
      vertex -4.13058 2.03024 0
      vertex -4.13058 2.03024 32
    endloop
  endfacet
  facet normal 0.923882 -0.382677 0
    outer loop
      vertex -4.13058 2.03024 0
      vertex -4.3818 1.42373 32
      vertex -4.3818 1.42373 0
    endloop
  endfacet
  facet normal -0.923882 -0.382677 0
    outer loop
      vertex 4.3818 1.42373 0
      vertex 4.13058 2.03024 32
      vertex 4.13058 2.03024 0
    endloop
  endfacet
  facet normal -0.923882 -0.382677 0
    outer loop
      vertex 4.13058 2.03024 32
      vertex 4.3818 1.42373 0
      vertex 4.3818 1.42373 32
    endloop
  endfacet
  facet normal -0.0784646 -0.996917 0
    outer loop
      vertex 0 4.6073 0
      vertex 0.65445 4.55579 32
      vertex 0 4.6073 32
    endloop
  endfacet
  facet normal -0.0784646 -0.996917 -0
    outer loop
      vertex 0.65445 4.55579 32
      vertex 0 4.6073 0
      vertex 0.65445 4.55579 0
    endloop
  endfacet
  facet normal 0.0784646 -0.996917 0
    outer loop
      vertex -0.65445 4.55579 0
      vertex 0 4.6073 32
      vertex -0.65445 4.55579 32
    endloop
  endfacet
  facet normal 0.0784646 -0.996917 0
    outer loop
      vertex 0 4.6073 32
      vertex -0.65445 4.55579 0
      vertex 0 4.6073 0
    endloop
  endfacet
  facet normal 0.649441 -0.760412 0
    outer loop
      vertex -3.20729 3.30104 0
      vertex -2.7081 3.72738 32
      vertex -3.20729 3.30104 32
    endloop
  endfacet
  facet normal 0.649441 -0.760412 0
    outer loop
      vertex -2.7081 3.72738 32
      vertex -3.20729 3.30104 0
      vertex -2.7081 3.72738 0
    endloop
  endfacet
  facet normal -0.0784646 0.996917 0
    outer loop
      vertex 0.65445 -4.55579 0
      vertex 0 -4.6073 32
      vertex 0.65445 -4.55579 32
    endloop
  endfacet
  facet normal -0.0784646 0.996917 0
    outer loop
      vertex 0 -4.6073 32
      vertex 0.65445 -4.55579 0
      vertex 0 -4.6073 0
    endloop
  endfacet
  facet normal 0.0784646 0.996917 -0
    outer loop
      vertex 0 -4.6073 0
      vertex -0.65445 -4.55579 32
      vertex 0 -4.6073 32
    endloop
  endfacet
  facet normal 0.0784646 0.996917 0
    outer loop
      vertex -0.65445 -4.55579 32
      vertex 0 -4.6073 0
      vertex -0.65445 -4.55579 0
    endloop
  endfacet
  facet normal 0.649441 0.760412 -0
    outer loop
      vertex -2.7081 -3.72738 0
      vertex -3.20729 -3.30104 32
      vertex -2.7081 -3.72738 32
    endloop
  endfacet
  facet normal 0.649441 0.760412 0
    outer loop
      vertex -3.20729 -3.30104 32
      vertex -2.7081 -3.72738 0
      vertex -3.20729 -3.30104 0
    endloop
  endfacet
  facet normal -0.97237 -0.233445 0
    outer loop
      vertex 4.53505 0.785398 0
      vertex 4.3818 1.42373 32
      vertex 4.3818 1.42373 0
    endloop
  endfacet
  facet normal -0.97237 -0.233445 0
    outer loop
      vertex 4.3818 1.42373 32
      vertex 4.53505 0.785398 0
      vertex 4.53505 0.785398 32
    endloop
  endfacet
  facet normal -0.522506 -0.852635 0
    outer loop
      vertex 2.14837 4.07039 0
      vertex 2.7081 3.72738 32
      vertex 2.14837 4.07039 32
    endloop
  endfacet
  facet normal -0.522506 -0.852635 -0
    outer loop
      vertex 2.7081 3.72738 32
      vertex 2.14837 4.07039 0
      vertex 2.7081 3.72738 0
    endloop
  endfacet
  facet normal 0.97237 -0.233445 0
    outer loop
      vertex -4.53505 0.785398 32
      vertex -4.3818 1.42373 0
      vertex -4.3818 1.42373 32
    endloop
  endfacet
  facet normal 0.97237 -0.233445 0
    outer loop
      vertex -4.3818 1.42373 0
      vertex -4.53505 0.785398 32
      vertex -4.53505 0.785398 0
    endloop
  endfacet
  facet normal 0.522506 -0.852635 0
    outer loop
      vertex -2.7081 3.72738 0
      vertex -2.14837 4.07039 32
      vertex -2.7081 3.72738 32
    endloop
  endfacet
  facet normal 0.522506 -0.852635 0
    outer loop
      vertex -2.14837 4.07039 32
      vertex -2.7081 3.72738 0
      vertex -2.14837 4.07039 0
    endloop
  endfacet
  facet normal -0.97237 0.233445 0
    outer loop
      vertex 4.3818 -1.42373 0
      vertex 4.53505 -0.785398 32
      vertex 4.53505 -0.785398 0
    endloop
  endfacet
  facet normal -0.97237 0.233445 0
    outer loop
      vertex 4.53505 -0.785398 32
      vertex 4.3818 -1.42373 0
      vertex 4.3818 -1.42373 32
    endloop
  endfacet
  facet normal -0.649441 0.760412 0
    outer loop
      vertex 3.20729 -3.30104 0
      vertex 2.7081 -3.72738 32
      vertex 3.20729 -3.30104 32
    endloop
  endfacet
  facet normal -0.649441 0.760412 0
    outer loop
      vertex 2.7081 -3.72738 32
      vertex 3.20729 -3.30104 0
      vertex 2.7081 -3.72738 0
    endloop
  endfacet
  facet normal 0.522506 0.852635 -0
    outer loop
      vertex -2.14837 -4.07039 0
      vertex -2.7081 -3.72738 32
      vertex -2.14837 -4.07039 32
    endloop
  endfacet
  facet normal 0.522506 0.852635 0
    outer loop
      vertex -2.7081 -3.72738 32
      vertex -2.14837 -4.07039 0
      vertex -2.7081 -3.72738 0
    endloop
  endfacet
  facet normal 0.97237 0.233445 0
    outer loop
      vertex -4.3818 -1.42373 32
      vertex -4.53505 -0.785398 0
      vertex -4.53505 -0.785398 32
    endloop
  endfacet
  facet normal 0.97237 0.233445 0
    outer loop
      vertex -4.53505 -0.785398 0
      vertex -4.3818 -1.42373 32
      vertex -4.3818 -1.42373 0
    endloop
  endfacet
  facet normal 0.923882 0.382677 0
    outer loop
      vertex -4.13058 -2.03024 32
      vertex -4.3818 -1.42373 0
      vertex -4.3818 -1.42373 32
    endloop
  endfacet
  facet normal 0.923882 0.382677 0
    outer loop
      vertex -4.3818 -1.42373 0
      vertex -4.13058 -2.03024 32
      vertex -4.13058 -2.03024 0
    endloop
  endfacet
  facet normal -0.522506 0.852635 0
    outer loop
      vertex 2.7081 -3.72738 0
      vertex 2.14837 -4.07039 32
      vertex 2.7081 -3.72738 32
    endloop
  endfacet
  facet normal -0.522506 0.852635 0
    outer loop
      vertex 2.14837 -4.07039 32
      vertex 2.7081 -3.72738 0
      vertex 2.14837 -4.07039 0
    endloop
  endfacet
  facet normal -0.923882 0.382677 0
    outer loop
      vertex 4.13058 -2.03024 0
      vertex 4.3818 -1.42373 32
      vertex 4.3818 -1.42373 0
    endloop
  endfacet
  facet normal -0.923882 0.382677 0
    outer loop
      vertex 4.3818 -1.42373 32
      vertex 4.13058 -2.03024 0
      vertex 4.13058 -2.03024 32
    endloop
  endfacet
  facet normal 0.92388 0.382682 0
    outer loop
      vertex 6.27697 2.03951 32
      vertex 5.88064 2.99634 0
      vertex 5.88064 2.99634 32
    endloop
  endfacet
  facet normal 0.92388 0.382682 0
    outer loop
      vertex 5.88064 2.99634 0
      vertex 6.27697 2.03951 32
      vertex 6.27697 2.03951 0
    endloop
  endfacet
  facet normal 0.852639 0.5225 0
    outer loop
      vertex 5.88064 2.99634 32
      vertex 5.33951 3.87938 0
      vertex 5.33951 3.87938 32
    endloop
  endfacet
  facet normal 0.852639 0.5225 0
    outer loop
      vertex 5.33951 3.87938 0
      vertex 5.88064 2.99634 32
      vertex 5.88064 2.99634 0
    endloop
  endfacet
  facet normal 0.382682 0.92388 -0
    outer loop
      vertex 2.99634 5.88064 0
      vertex 2.03951 6.27697 32
      vertex 2.99634 5.88064 32
    endloop
  endfacet
  facet normal 0.382682 0.92388 0
    outer loop
      vertex 2.03951 6.27697 32
      vertex 2.99634 5.88064 0
      vertex 2.03951 6.27697 0
    endloop
  endfacet
  facet normal -0.382682 0.92388 0
    outer loop
      vertex -2.03951 6.27697 0
      vertex -2.99634 5.88064 32
      vertex -2.03951 6.27697 32
    endloop
  endfacet
  facet normal -0.382682 0.92388 0
    outer loop
      vertex -2.99634 5.88064 32
      vertex -2.03951 6.27697 0
      vertex -2.99634 5.88064 0
    endloop
  endfacet
  facet normal -0.852639 0.5225 0
    outer loop
      vertex -5.88064 2.99634 0
      vertex -5.33951 3.87938 32
      vertex -5.33951 3.87938 0
    endloop
  endfacet
  facet normal -0.852639 0.5225 0
    outer loop
      vertex -5.33951 3.87938 32
      vertex -5.88064 2.99634 0
      vertex -5.88064 2.99634 32
    endloop
  endfacet
  facet normal 0.97237 -0.233446 0
    outer loop
      vertex 6.27697 -2.03951 32
      vertex 6.51874 -1.03247 0
      vertex 6.51874 -1.03247 32
    endloop
  endfacet
  facet normal 0.97237 -0.233446 0
    outer loop
      vertex 6.51874 -1.03247 0
      vertex 6.27697 -2.03951 32
      vertex 6.27697 -2.03951 0
    endloop
  endfacet
  facet normal 0.97237 0.233446 0
    outer loop
      vertex 6.51874 1.03247 32
      vertex 6.27697 2.03951 0
      vertex 6.27697 2.03951 32
    endloop
  endfacet
  facet normal 0.97237 0.233446 0
    outer loop
      vertex 6.27697 2.03951 0
      vertex 6.51874 1.03247 32
      vertex 6.51874 1.03247 0
    endloop
  endfacet
  facet normal 0.64945 0.760404 -0
    outer loop
      vertex 4.6669 4.6669 0
      vertex 3.87938 5.33951 32
      vertex 4.6669 4.6669 32
    endloop
  endfacet
  facet normal 0.64945 0.760404 0
    outer loop
      vertex 3.87938 5.33951 32
      vertex 4.6669 4.6669 0
      vertex 3.87938 5.33951 0
    endloop
  endfacet
  facet normal -0.0784618 0.996917 0
    outer loop
      vertex 0 6.6 0
      vertex -1.03247 6.51874 32
      vertex 0 6.6 32
    endloop
  endfacet
  facet normal -0.0784618 0.996917 0
    outer loop
      vertex -1.03247 6.51874 32
      vertex 0 6.6 0
      vertex -1.03247 6.51874 0
    endloop
  endfacet
  facet normal 0.5225 0.852639 -0
    outer loop
      vertex 3.87938 5.33951 0
      vertex 2.99634 5.88064 32
      vertex 3.87938 5.33951 32
    endloop
  endfacet
  facet normal 0.5225 0.852639 0
    outer loop
      vertex 2.99634 5.88064 32
      vertex 3.87938 5.33951 0
      vertex 2.99634 5.88064 0
    endloop
  endfacet
  facet normal -0.97237 0.233446 0
    outer loop
      vertex -6.51874 1.03247 0
      vertex -6.27697 2.03951 32
      vertex -6.27697 2.03951 0
    endloop
  endfacet
  facet normal -0.97237 0.233446 0
    outer loop
      vertex -6.27697 2.03951 32
      vertex -6.51874 1.03247 0
      vertex -6.51874 1.03247 32
    endloop
  endfacet
  facet normal -0.760404 0.64945 0
    outer loop
      vertex -5.33951 3.87938 0
      vertex -4.6669 4.6669 32
      vertex -4.6669 4.6669 0
    endloop
  endfacet
  facet normal -0.760404 0.64945 0
    outer loop
      vertex -4.6669 4.6669 32
      vertex -5.33951 3.87938 0
      vertex -5.33951 3.87938 32
    endloop
  endfacet
  facet normal -0.5225 0.852639 0
    outer loop
      vertex -2.99634 5.88064 0
      vertex -3.87938 5.33951 32
      vertex -2.99634 5.88064 32
    endloop
  endfacet
  facet normal -0.5225 0.852639 0
    outer loop
      vertex -3.87938 5.33951 32
      vertex -2.99634 5.88064 0
      vertex -3.87938 5.33951 0
    endloop
  endfacet
  facet normal -0.233446 0.97237 0
    outer loop
      vertex -1.03247 6.51874 0
      vertex -2.03951 6.27697 32
      vertex -1.03247 6.51874 32
    endloop
  endfacet
  facet normal -0.233446 0.97237 0
    outer loop
      vertex -2.03951 6.27697 32
      vertex -1.03247 6.51874 0
      vertex -2.03951 6.27697 0
    endloop
  endfacet
  facet normal -0.64945 0.760404 0
    outer loop
      vertex -3.87938 5.33951 0
      vertex -4.6669 4.6669 32
      vertex -3.87938 5.33951 32
    endloop
  endfacet
  facet normal -0.64945 0.760404 0
    outer loop
      vertex -4.6669 4.6669 32
      vertex -3.87938 5.33951 0
      vertex -4.6669 4.6669 0
    endloop
  endfacet
  facet normal 0.996917 0.0784618 0
    outer loop
      vertex 6.6 0 32
      vertex 6.51874 1.03247 0
      vertex 6.51874 1.03247 32
    endloop
  endfacet
  facet normal 0.996917 0.0784618 0
    outer loop
      vertex 6.51874 1.03247 0
      vertex 6.6 0 32
      vertex 6.6 0 0
    endloop
  endfacet
  facet normal 0.5225 -0.852639 0
    outer loop
      vertex 2.99634 -5.88064 0
      vertex 3.87938 -5.33951 32
      vertex 2.99634 -5.88064 32
    endloop
  endfacet
  facet normal 0.5225 -0.852639 0
    outer loop
      vertex 3.87938 -5.33951 32
      vertex 2.99634 -5.88064 0
      vertex 3.87938 -5.33951 0
    endloop
  endfacet
  facet normal 0.92388 -0.382682 0
    outer loop
      vertex 5.88064 -2.99634 32
      vertex 6.27697 -2.03951 0
      vertex 6.27697 -2.03951 32
    endloop
  endfacet
  facet normal 0.92388 -0.382682 0
    outer loop
      vertex 6.27697 -2.03951 0
      vertex 5.88064 -2.99634 32
      vertex 5.88064 -2.99634 0
    endloop
  endfacet
  facet normal -0.64945 -0.760404 0
    outer loop
      vertex -4.6669 -4.6669 0
      vertex -3.87938 -5.33951 32
      vertex -4.6669 -4.6669 32
    endloop
  endfacet
  facet normal -0.64945 -0.760404 -0
    outer loop
      vertex -3.87938 -5.33951 32
      vertex -4.6669 -4.6669 0
      vertex -3.87938 -5.33951 0
    endloop
  endfacet
  facet normal -0.852639 -0.5225 0
    outer loop
      vertex -5.33951 -3.87938 0
      vertex -5.88064 -2.99634 32
      vertex -5.88064 -2.99634 0
    endloop
  endfacet
  facet normal -0.852639 -0.5225 0
    outer loop
      vertex -5.88064 -2.99634 32
      vertex -5.33951 -3.87938 0
      vertex -5.33951 -3.87938 32
    endloop
  endfacet
  facet normal 0.760404 0.64945 0
    outer loop
      vertex 5.33951 3.87938 32
      vertex 4.6669 4.6669 0
      vertex 4.6669 4.6669 32
    endloop
  endfacet
  facet normal 0.760404 0.64945 0
    outer loop
      vertex 4.6669 4.6669 0
      vertex 5.33951 3.87938 32
      vertex 5.33951 3.87938 0
    endloop
  endfacet
  facet normal 0.233446 0.97237 -0
    outer loop
      vertex 2.03951 6.27697 0
      vertex 1.03247 6.51874 32
      vertex 2.03951 6.27697 32
    endloop
  endfacet
  facet normal 0.233446 0.97237 0
    outer loop
      vertex 1.03247 6.51874 32
      vertex 2.03951 6.27697 0
      vertex 1.03247 6.51874 0
    endloop
  endfacet
  facet normal 0.0784618 0.996917 -0
    outer loop
      vertex 1.03247 6.51874 0
      vertex 0 6.6 32
      vertex 1.03247 6.51874 32
    endloop
  endfacet
  facet normal 0.0784618 0.996917 0
    outer loop
      vertex 0 6.6 32
      vertex 1.03247 6.51874 0
      vertex 0 6.6 0
    endloop
  endfacet
  facet normal -0.996917 0.0784618 0
    outer loop
      vertex -6.6 0 0
      vertex -6.51874 1.03247 32
      vertex -6.51874 1.03247 0
    endloop
  endfacet
  facet normal -0.996917 0.0784618 0
    outer loop
      vertex -6.51874 1.03247 32
      vertex -6.6 0 0
      vertex -6.6 0 32
    endloop
  endfacet
  facet normal -0.92388 0.382682 0
    outer loop
      vertex -6.27697 2.03951 0
      vertex -5.88064 2.99634 32
      vertex -5.88064 2.99634 0
    endloop
  endfacet
  facet normal -0.92388 0.382682 0
    outer loop
      vertex -5.88064 2.99634 32
      vertex -6.27697 2.03951 0
      vertex -6.27697 2.03951 32
    endloop
  endfacet
  facet normal 0.996917 -0.0784618 0
    outer loop
      vertex 6.51874 -1.03247 32
      vertex 6.6 0 0
      vertex 6.6 0 32
    endloop
  endfacet
  facet normal 0.996917 -0.0784618 0
    outer loop
      vertex 6.6 0 0
      vertex 6.51874 -1.03247 32
      vertex 6.51874 -1.03247 0
    endloop
  endfacet
  facet normal -0.760404 -0.64945 0
    outer loop
      vertex -4.6669 -4.6669 0
      vertex -5.33951 -3.87938 32
      vertex -5.33951 -3.87938 0
    endloop
  endfacet
  facet normal -0.760404 -0.64945 0
    outer loop
      vertex -5.33951 -3.87938 32
      vertex -4.6669 -4.6669 0
      vertex -4.6669 -4.6669 32
    endloop
  endfacet
  facet normal 0.233446 -0.97237 0
    outer loop
      vertex 1.03247 -6.51874 0
      vertex 2.03951 -6.27697 32
      vertex 1.03247 -6.51874 32
    endloop
  endfacet
  facet normal 0.233446 -0.97237 0
    outer loop
      vertex 2.03951 -6.27697 32
      vertex 1.03247 -6.51874 0
      vertex 2.03951 -6.27697 0
    endloop
  endfacet
  facet normal 0.382682 -0.92388 0
    outer loop
      vertex 2.03951 -6.27697 0
      vertex 2.99634 -5.88064 32
      vertex 2.03951 -6.27697 32
    endloop
  endfacet
  facet normal 0.382682 -0.92388 0
    outer loop
      vertex 2.99634 -5.88064 32
      vertex 2.03951 -6.27697 0
      vertex 2.99634 -5.88064 0
    endloop
  endfacet
  facet normal 0.760404 -0.64945 0
    outer loop
      vertex 4.6669 -4.6669 32
      vertex 5.33951 -3.87938 0
      vertex 5.33951 -3.87938 32
    endloop
  endfacet
  facet normal 0.760404 -0.64945 0
    outer loop
      vertex 5.33951 -3.87938 0
      vertex 4.6669 -4.6669 32
      vertex 4.6669 -4.6669 0
    endloop
  endfacet
  facet normal 0.852639 -0.5225 0
    outer loop
      vertex 5.33951 -3.87938 32
      vertex 5.88064 -2.99634 0
      vertex 5.88064 -2.99634 32
    endloop
  endfacet
  facet normal 0.852639 -0.5225 0
    outer loop
      vertex 5.88064 -2.99634 0
      vertex 5.33951 -3.87938 32
      vertex 5.33951 -3.87938 0
    endloop
  endfacet
  facet normal 0.0784618 -0.996917 0
    outer loop
      vertex 0 -6.6 0
      vertex 1.03247 -6.51874 32
      vertex 0 -6.6 32
    endloop
  endfacet
  facet normal 0.0784618 -0.996917 0
    outer loop
      vertex 1.03247 -6.51874 32
      vertex 0 -6.6 0
      vertex 1.03247 -6.51874 0
    endloop
  endfacet
  facet normal -0.996917 -0.0784618 0
    outer loop
      vertex -6.51874 -1.03247 0
      vertex -6.6 0 32
      vertex -6.6 0 0
    endloop
  endfacet
  facet normal -0.996917 -0.0784618 0
    outer loop
      vertex -6.6 0 32
      vertex -6.51874 -1.03247 0
      vertex -6.51874 -1.03247 32
    endloop
  endfacet
  facet normal -0.92388 -0.382682 0
    outer loop
      vertex -5.88064 -2.99634 0
      vertex -6.27697 -2.03951 32
      vertex -6.27697 -2.03951 0
    endloop
  endfacet
  facet normal -0.92388 -0.382682 0
    outer loop
      vertex -6.27697 -2.03951 32
      vertex -5.88064 -2.99634 0
      vertex -5.88064 -2.99634 32
    endloop
  endfacet
  facet normal 0.64945 -0.760404 0
    outer loop
      vertex 3.87938 -5.33951 0
      vertex 4.6669 -4.6669 32
      vertex 3.87938 -5.33951 32
    endloop
  endfacet
  facet normal 0.64945 -0.760404 0
    outer loop
      vertex 4.6669 -4.6669 32
      vertex 3.87938 -5.33951 0
      vertex 4.6669 -4.6669 0
    endloop
  endfacet
  facet normal -0.382682 -0.92388 0
    outer loop
      vertex -2.99634 -5.88064 0
      vertex -2.03951 -6.27697 32
      vertex -2.99634 -5.88064 32
    endloop
  endfacet
  facet normal -0.382682 -0.92388 -0
    outer loop
      vertex -2.03951 -6.27697 32
      vertex -2.99634 -5.88064 0
      vertex -2.03951 -6.27697 0
    endloop
  endfacet
  facet normal -0.233446 -0.97237 0
    outer loop
      vertex -2.03951 -6.27697 0
      vertex -1.03247 -6.51874 32
      vertex -2.03951 -6.27697 32
    endloop
  endfacet
  facet normal -0.233446 -0.97237 -0
    outer loop
      vertex -1.03247 -6.51874 32
      vertex -2.03951 -6.27697 0
      vertex -1.03247 -6.51874 0
    endloop
  endfacet
  facet normal -0.0784618 -0.996917 0
    outer loop
      vertex -1.03247 -6.51874 0
      vertex 0 -6.6 32
      vertex -1.03247 -6.51874 32
    endloop
  endfacet
  facet normal -0.0784618 -0.996917 -0
    outer loop
      vertex 0 -6.6 32
      vertex -1.03247 -6.51874 0
      vertex 0 -6.6 0
    endloop
  endfacet
  facet normal -0.97237 -0.233446 0
    outer loop
      vertex -6.27697 -2.03951 0
      vertex -6.51874 -1.03247 32
      vertex -6.51874 -1.03247 0
    endloop
  endfacet
  facet normal -0.97237 -0.233446 0
    outer loop
      vertex -6.51874 -1.03247 32
      vertex -6.27697 -2.03951 0
      vertex -6.27697 -2.03951 32
    endloop
  endfacet
  facet normal -0.5225 -0.852639 0
    outer loop
      vertex -3.87938 -5.33951 0
      vertex -2.99634 -5.88064 32
      vertex -3.87938 -5.33951 32
    endloop
  endfacet
  facet normal -0.5225 -0.852639 -0
    outer loop
      vertex -2.99634 -5.88064 32
      vertex -3.87938 -5.33951 0
      vertex -2.99634 -5.88064 0
    endloop
  endfacet
endsolid OpenSCAD_Model
