solid OpenSCAD_Model
  facet normal 0 -1 0
    outer loop
      vertex -1.52317 2.075 4.5
      vertex 1.52317 2.075 15
      vertex -1.52317 2.075 15
    endloop
  endfacet
  facet normal 0 -1 -0
    outer loop
      vertex 1.52317 2.075 15
      vertex -1.52317 2.075 4.5
      vertex 1.52317 2.075 4.5
    endloop
  endfacet
  facet normal -0.649619 -0.76026 -0
    outer loop
      vertex 1.51355 2.08322 4.5
      vertex 1.51355 2.08322 0
      vertex 1.52317 2.075 4.5
    endloop
  endfacet
  facet normal -0.649448 -0.760406 0
    outer loop
      vertex 1.52317 2.075 4.5
      vertex 1.8208 1.8208 15
      vertex 1.52317 2.075 15
    endloop
  endfacet
  facet normal -0.649453 -0.760401 -6.12996e-007
    outer loop
      vertex 1.8208 1.8208 0
      vertex 1.52317 2.075 4.5
      vertex 1.51355 2.08322 0
    endloop
  endfacet
  facet normal -0.649448 -0.760406 0
    outer loop
      vertex 1.52317 2.075 4.5
      vertex 1.8208 1.8208 0
      vertex 1.8208 1.8208 15
    endloop
  endfacet
  facet normal -0.996918 0.0784528 0
    outer loop
      vertex 2.5433 -0.402819 0
      vertex 2.575 0 15
      vertex 2.575 0 0
    endloop
  endfacet
  facet normal -0.996918 0.0784528 0
    outer loop
      vertex 2.575 0 15
      vertex 2.5433 -0.402819 0
      vertex 2.5433 -0.402819 15
    endloop
  endfacet
  facet normal 0.382682 0.92388 -0
    outer loop
      vertex -0.795718 -2.44897 0
      vertex -1.16903 -2.29434 15
      vertex -0.795718 -2.44897 15
    endloop
  endfacet
  facet normal 0.382682 0.92388 0
    outer loop
      vertex -1.16903 -2.29434 15
      vertex -0.795718 -2.44897 0
      vertex -1.16903 -2.29434 0
    endloop
  endfacet
  facet normal 0.382682 -0.92388 0
    outer loop
      vertex -1.16903 2.29434 0
      vertex -0.795718 2.44897 4.5
      vertex -1.16903 2.29434 4.5
    endloop
  endfacet
  facet normal 0.382682 -0.92388 0
    outer loop
      vertex -0.795718 2.44897 4.5
      vertex -1.16903 2.29434 0
      vertex -0.795718 2.44897 0
    endloop
  endfacet
  facet normal 0.852643 -0.522495 0
    outer loop
      vertex -2.29434 1.16903 15
      vertex -2.08322 1.51355 0
      vertex -2.08322 1.51355 15
    endloop
  endfacet
  facet normal 0.852643 -0.522495 0
    outer loop
      vertex -2.08322 1.51355 0
      vertex -2.29434 1.16903 15
      vertex -2.29434 1.16903 0
    endloop
  endfacet
  facet normal -0.92388 -0.382682 0
    outer loop
      vertex 2.44897 0.795718 0
      vertex 2.29434 1.16903 15
      vertex 2.29434 1.16903 0
    endloop
  endfacet
  facet normal -0.92388 -0.382682 0
    outer loop
      vertex 2.29434 1.16903 15
      vertex 2.44897 0.795718 0
      vertex 2.44897 0.795718 15
    endloop
  endfacet
  facet normal -0.852643 -0.522495 0
    outer loop
      vertex 2.29434 1.16903 0
      vertex 2.08322 1.51355 15
      vertex 2.08322 1.51355 0
    endloop
  endfacet
  facet normal -0.852643 -0.522495 0
    outer loop
      vertex 2.08322 1.51355 15
      vertex 2.29434 1.16903 0
      vertex 2.29434 1.16903 15
    endloop
  endfacet
  facet normal -0.760401 -0.649453 0
    outer loop
      vertex 2.08322 1.51355 0
      vertex 1.8208 1.8208 15
      vertex 1.8208 1.8208 0
    endloop
  endfacet
  facet normal -0.760401 -0.649453 0
    outer loop
      vertex 1.8208 1.8208 15
      vertex 2.08322 1.51355 0
      vertex 2.08322 1.51355 15
    endloop
  endfacet
  facet normal -0.522495 -0.852643 0
    outer loop
      vertex 1.16903 2.29434 0
      vertex 1.51355 2.08322 4.5
      vertex 1.16903 2.29434 4.5
    endloop
  endfacet
  facet normal -0.522495 -0.852643 -0
    outer loop
      vertex 1.51355 2.08322 4.5
      vertex 1.16903 2.29434 0
      vertex 1.51355 2.08322 0
    endloop
  endfacet
  facet normal -0.233453 -0.972368 0
    outer loop
      vertex 0.402819 2.5433 0
      vertex 0.795718 2.44897 4.5
      vertex 0.402819 2.5433 4.5
    endloop
  endfacet
  facet normal -0.233453 -0.972368 -0
    outer loop
      vertex 0.795718 2.44897 4.5
      vertex 0.402819 2.5433 0
      vertex 0.795718 2.44897 0
    endloop
  endfacet
  facet normal 0.972368 -0.233453 0
    outer loop
      vertex -2.5433 0.402819 15
      vertex -2.44897 0.795718 0
      vertex -2.44897 0.795718 15
    endloop
  endfacet
  facet normal 0.972368 -0.233453 0
    outer loop
      vertex -2.44897 0.795718 0
      vertex -2.5433 0.402819 15
      vertex -2.5433 0.402819 0
    endloop
  endfacet
  facet normal 0.760401 -0.649453 0
    outer loop
      vertex -2.08322 1.51355 15
      vertex -1.8208 1.8208 0
      vertex -1.8208 1.8208 15
    endloop
  endfacet
  facet normal 0.760401 -0.649453 0
    outer loop
      vertex -1.8208 1.8208 0
      vertex -2.08322 1.51355 15
      vertex -2.08322 1.51355 0
    endloop
  endfacet
  facet normal 0.522495 -0.852643 0
    outer loop
      vertex -1.51355 2.08322 0
      vertex -1.16903 2.29434 4.5
      vertex -1.51355 2.08322 4.5
    endloop
  endfacet
  facet normal 0.522495 -0.852643 0
    outer loop
      vertex -1.16903 2.29434 4.5
      vertex -1.51355 2.08322 0
      vertex -1.16903 2.29434 0
    endloop
  endfacet
  facet normal 0.233453 -0.972368 0
    outer loop
      vertex -0.795718 2.44897 0
      vertex -0.402819 2.5433 4.5
      vertex -0.795718 2.44897 4.5
    endloop
  endfacet
  facet normal 0.233453 -0.972368 0
    outer loop
      vertex -0.402819 2.5433 4.5
      vertex -0.795718 2.44897 0
      vertex -0.402819 2.5433 0
    endloop
  endfacet
  facet normal 0.649448 -0.760406 0
    outer loop
      vertex -1.8208 1.8208 15
      vertex -1.52317 2.075 4.5
      vertex -1.52317 2.075 15
    endloop
  endfacet
  facet normal 0.649448 -0.760406 0
    outer loop
      vertex -1.8208 1.8208 0
      vertex -1.52317 2.075 4.5
      vertex -1.8208 1.8208 15
    endloop
  endfacet
  facet normal 0.649453 -0.760401 -6.12996e-007
    outer loop
      vertex -1.51355 2.08322 0
      vertex -1.52317 2.075 4.5
      vertex -1.8208 1.8208 0
    endloop
  endfacet
  facet normal 0.649619 -0.76026 0
    outer loop
      vertex -1.52317 2.075 4.5
      vertex -1.51355 2.08322 0
      vertex -1.51355 2.08322 4.5
    endloop
  endfacet
  facet normal -0.996918 -0.0784528 0
    outer loop
      vertex 2.575 0 0
      vertex 2.5433 0.402819 15
      vertex 2.5433 0.402819 0
    endloop
  endfacet
  facet normal -0.996918 -0.0784528 0
    outer loop
      vertex 2.5433 0.402819 15
      vertex 2.575 0 0
      vertex 2.575 0 15
    endloop
  endfacet
  facet normal -0.972368 0.233453 0
    outer loop
      vertex 2.44897 -0.795718 0
      vertex 2.5433 -0.402819 15
      vertex 2.5433 -0.402819 0
    endloop
  endfacet
  facet normal -0.972368 0.233453 0
    outer loop
      vertex 2.5433 -0.402819 15
      vertex 2.44897 -0.795718 0
      vertex 2.44897 -0.795718 15
    endloop
  endfacet
  facet normal -0.382682 0.92388 0
    outer loop
      vertex 1.16903 -2.29434 0
      vertex 0.795718 -2.44897 15
      vertex 1.16903 -2.29434 15
    endloop
  endfacet
  facet normal -0.382682 0.92388 0
    outer loop
      vertex 0.795718 -2.44897 15
      vertex 1.16903 -2.29434 0
      vertex 0.795718 -2.44897 0
    endloop
  endfacet
  facet normal -0.522495 0.852643 0
    outer loop
      vertex 1.51355 -2.08322 0
      vertex 1.16903 -2.29434 15
      vertex 1.51355 -2.08322 15
    endloop
  endfacet
  facet normal -0.522495 0.852643 0
    outer loop
      vertex 1.16903 -2.29434 15
      vertex 1.51355 -2.08322 0
      vertex 1.16903 -2.29434 0
    endloop
  endfacet
  facet normal 0.233459 0.972367 -0
    outer loop
      vertex -0.5 -2.51997 0
      vertex -0.795718 -2.44897 15
      vertex -0.5 -2.51997 15
    endloop
  endfacet
  facet normal 0.233459 0.972367 0
    outer loop
      vertex -0.795718 -2.44897 15
      vertex -0.5 -2.51997 0
      vertex -0.795718 -2.44897 0
    endloop
  endfacet
  facet normal 0.649453 0.760401 -0
    outer loop
      vertex -1.51355 -2.08322 0
      vertex -1.8208 -1.8208 15
      vertex -1.51355 -2.08322 15
    endloop
  endfacet
  facet normal 0.649453 0.760401 0
    outer loop
      vertex -1.8208 -1.8208 15
      vertex -1.51355 -2.08322 0
      vertex -1.8208 -1.8208 0
    endloop
  endfacet
  facet normal 0.852643 0.522495 0
    outer loop
      vertex -2.08322 -1.51355 15
      vertex -2.29434 -1.16903 0
      vertex -2.29434 -1.16903 15
    endloop
  endfacet
  facet normal 0.852643 0.522495 0
    outer loop
      vertex -2.29434 -1.16903 0
      vertex -2.08322 -1.51355 15
      vertex -2.08322 -1.51355 0
    endloop
  endfacet
  facet normal 0.760401 0.649453 0
    outer loop
      vertex -1.8208 -1.8208 15
      vertex -2.08322 -1.51355 0
      vertex -2.08322 -1.51355 15
    endloop
  endfacet
  facet normal 0.760401 0.649453 0
    outer loop
      vertex -2.08322 -1.51355 0
      vertex -1.8208 -1.8208 15
      vertex -1.8208 -1.8208 0
    endloop
  endfacet
  facet normal -0.972368 -0.233453 0
    outer loop
      vertex 2.5433 0.402819 0
      vertex 2.44897 0.795718 15
      vertex 2.44897 0.795718 0
    endloop
  endfacet
  facet normal -0.972368 -0.233453 0
    outer loop
      vertex 2.44897 0.795718 15
      vertex 2.5433 0.402819 0
      vertex 2.5433 0.402819 15
    endloop
  endfacet
  facet normal -0.0784528 -0.996918 0
    outer loop
      vertex 0 2.575 0
      vertex 0.402819 2.5433 4.5
      vertex 0 2.575 4.5
    endloop
  endfacet
  facet normal -0.0784528 -0.996918 -0
    outer loop
      vertex 0.402819 2.5433 4.5
      vertex 0 2.575 0
      vertex 0.402819 2.5433 0
    endloop
  endfacet
  facet normal -0.382682 -0.92388 0
    outer loop
      vertex 0.795718 2.44897 0
      vertex 1.16903 2.29434 4.5
      vertex 0.795718 2.44897 4.5
    endloop
  endfacet
  facet normal -0.382682 -0.92388 -0
    outer loop
      vertex 1.16903 2.29434 4.5
      vertex 0.795718 2.44897 0
      vertex 1.16903 2.29434 0
    endloop
  endfacet
  facet normal 0.996918 -0.0784528 0
    outer loop
      vertex -2.575 0 15
      vertex -2.5433 0.402819 0
      vertex -2.5433 0.402819 15
    endloop
  endfacet
  facet normal 0.996918 -0.0784528 0
    outer loop
      vertex -2.5433 0.402819 0
      vertex -2.575 0 15
      vertex -2.575 0 0
    endloop
  endfacet
  facet normal 0.92388 -0.382682 0
    outer loop
      vertex -2.44897 0.795718 15
      vertex -2.29434 1.16903 0
      vertex -2.29434 1.16903 15
    endloop
  endfacet
  facet normal 0.92388 -0.382682 0
    outer loop
      vertex -2.29434 1.16903 0
      vertex -2.44897 0.795718 15
      vertex -2.44897 0.795718 0
    endloop
  endfacet
  facet normal 0.0784528 -0.996918 0
    outer loop
      vertex -0.402819 2.5433 0
      vertex 0 2.575 4.5
      vertex -0.402819 2.5433 4.5
    endloop
  endfacet
  facet normal 0.0784528 -0.996918 0
    outer loop
      vertex 0 2.575 4.5
      vertex -0.402819 2.5433 0
      vertex 0 2.575 0
    endloop
  endfacet
  facet normal -0.852643 0.522495 0
    outer loop
      vertex 2.08322 -1.51355 0
      vertex 2.29434 -1.16903 15
      vertex 2.29434 -1.16903 0
    endloop
  endfacet
  facet normal -0.852643 0.522495 0
    outer loop
      vertex 2.29434 -1.16903 15
      vertex 2.08322 -1.51355 0
      vertex 2.08322 -1.51355 15
    endloop
  endfacet
  facet normal -0.92388 0.382682 0
    outer loop
      vertex 2.29434 -1.16903 0
      vertex 2.44897 -0.795718 15
      vertex 2.44897 -0.795718 0
    endloop
  endfacet
  facet normal -0.92388 0.382682 0
    outer loop
      vertex 2.44897 -0.795718 15
      vertex 2.29434 -1.16903 0
      vertex 2.29434 -1.16903 15
    endloop
  endfacet
  facet normal -0.233459 0.972367 0
    outer loop
      vertex 0.795718 -2.44897 0
      vertex 0.5 -2.51997 15
      vertex 0.795718 -2.44897 15
    endloop
  endfacet
  facet normal -0.233459 0.972367 0
    outer loop
      vertex 0.5 -2.51997 15
      vertex 0.795718 -2.44897 0
      vertex 0.5 -2.51997 0
    endloop
  endfacet
  facet normal -0.760401 0.649453 0
    outer loop
      vertex 1.8208 -1.8208 0
      vertex 2.08322 -1.51355 15
      vertex 2.08322 -1.51355 0
    endloop
  endfacet
  facet normal -0.760401 0.649453 0
    outer loop
      vertex 2.08322 -1.51355 15
      vertex 1.8208 -1.8208 0
      vertex 1.8208 -1.8208 15
    endloop
  endfacet
  facet normal -0.649453 0.760401 0
    outer loop
      vertex 1.8208 -1.8208 0
      vertex 1.51355 -2.08322 15
      vertex 1.8208 -1.8208 15
    endloop
  endfacet
  facet normal -0.649453 0.760401 0
    outer loop
      vertex 1.51355 -2.08322 15
      vertex 1.8208 -1.8208 0
      vertex 1.51355 -2.08322 0
    endloop
  endfacet
  facet normal 0.522495 0.852643 -0
    outer loop
      vertex -1.16903 -2.29434 0
      vertex -1.51355 -2.08322 15
      vertex -1.16903 -2.29434 15
    endloop
  endfacet
  facet normal 0.522495 0.852643 0
    outer loop
      vertex -1.51355 -2.08322 15
      vertex -1.16903 -2.29434 0
      vertex -1.51355 -2.08322 0
    endloop
  endfacet
  facet normal 0.92388 0.382682 0
    outer loop
      vertex -2.29434 -1.16903 15
      vertex -2.44897 -0.795718 0
      vertex -2.44897 -0.795718 15
    endloop
  endfacet
  facet normal 0.92388 0.382682 0
    outer loop
      vertex -2.44897 -0.795718 0
      vertex -2.29434 -1.16903 15
      vertex -2.29434 -1.16903 0
    endloop
  endfacet
  facet normal 0.996918 0.0784528 0
    outer loop
      vertex -2.5433 -0.402819 15
      vertex -2.575 0 0
      vertex -2.575 0 15
    endloop
  endfacet
  facet normal 0.996918 0.0784528 0
    outer loop
      vertex -2.575 0 0
      vertex -2.5433 -0.402819 15
      vertex -2.5433 -0.402819 0
    endloop
  endfacet
  facet normal 0 0 -1
    outer loop
      vertex -0.65445 -4.55579 0
      vertex -0.5 -2.51997 0
      vertex -0.5 -4.56795 0
    endloop
  endfacet
  facet normal 0 0 -1
    outer loop
      vertex -0.65445 -4.55579 0
      vertex -0.795718 -2.44897 0
      vertex -0.5 -2.51997 0
    endloop
  endfacet
  facet normal 0 0 -1
    outer loop
      vertex -2.14837 -4.07039 0
      vertex -0.65445 -4.55579 0
      vertex -0.822396 -5.07268 0
    endloop
  endfacet
  facet normal 0 0 -1
    outer loop
      vertex -0.65445 -4.55579 0
      vertex -2.14837 -4.07039 0
      vertex -0.795718 -2.44897 0
    endloop
  endfacet
  facet normal -0 0 -1
    outer loop
      vertex -0.795718 -2.44897 0
      vertex -2.14837 -4.07039 0
      vertex -1.16903 -2.29434 0
    endloop
  endfacet
  facet normal -0 0 -1
    outer loop
      vertex -1.16903 -2.29434 0
      vertex -2.14837 -4.07039 0
      vertex -1.51355 -2.08322 0
    endloop
  endfacet
  facet normal 0 0 -1
    outer loop
      vertex -2.7081 -3.72738 0
      vertex -1.51355 -2.08322 0
      vertex -2.14837 -4.07039 0
    endloop
  endfacet
  facet normal 0 0 -1
    outer loop
      vertex -3.20729 -3.30104 0
      vertex -1.51355 -2.08322 0
      vertex -2.7081 -3.72738 0
    endloop
  endfacet
  facet normal 0 -0 -1
    outer loop
      vertex -2.14837 -4.07039 0
      vertex -0.822396 -5.07268 0
      vertex -2.31631 -4.58728 0
    endloop
  endfacet
  facet normal -0 0 -1
    outer loop
      vertex -1.51355 -2.08322 0
      vertex -3.20729 -3.30104 0
      vertex -1.8208 -1.8208 0
    endloop
  endfacet
  facet normal -0 0 -1
    outer loop
      vertex -1.8208 -1.8208 0
      vertex -3.20729 -3.30104 0
      vertex -2.08322 -1.51355 0
    endloop
  endfacet
  facet normal 0 0 -1
    outer loop
      vertex -4.13058 -2.03024 0
      vertex -2.08322 -1.51355 0
      vertex -3.20729 -3.30104 0
    endloop
  endfacet
  facet normal -0 0 -1
    outer loop
      vertex -2.29434 -1.16903 0
      vertex -4.13058 -2.03024 0
      vertex -2.44897 -0.795718 0
    endloop
  endfacet
  facet normal -0 0 -1
    outer loop
      vertex -2.08322 -1.51355 0
      vertex -4.13058 -2.03024 0
      vertex -2.29434 -1.16903 0
    endloop
  endfacet
  facet normal 0 0 -1
    outer loop
      vertex 3.20729 -3.30104 0
      vertex 1.8208 -1.8208 0
      vertex 2.08322 -1.51355 0
    endloop
  endfacet
  facet normal 0 0 -1
    outer loop
      vertex 2.7081 -3.72738 0
      vertex 1.51355 -2.08322 0
      vertex 1.8208 -1.8208 0
    endloop
  endfacet
  facet normal 0 0 -1
    outer loop
      vertex 2.14837 -4.07039 0
      vertex 1.16903 -2.29434 0
      vertex 1.51355 -2.08322 0
    endloop
  endfacet
  facet normal 0 0 -1
    outer loop
      vertex 0.65445 -4.55579 0
      vertex 2.14837 -4.07039 0
      vertex 2.31631 -4.58728 0
    endloop
  endfacet
  facet normal 0 0 -1
    outer loop
      vertex 0.65445 -4.55579 0
      vertex 2.31631 -4.58728 0
      vertex 0.822396 -5.07268 0
    endloop
  endfacet
  facet normal 0 -0 -1
    outer loop
      vertex 0.795718 -2.44897 0
      vertex 2.14837 -4.07039 0
      vertex 0.65445 -4.55579 0
    endloop
  endfacet
  facet normal 0 0 -1
    outer loop
      vertex 2.14837 -4.07039 0
      vertex 0.795718 -2.44897 0
      vertex 1.16903 -2.29434 0
    endloop
  endfacet
  facet normal 0 0 -1
    outer loop
      vertex 0.65445 -4.55579 0
      vertex 0.5 -2.51997 0
      vertex 0.795718 -2.44897 0
    endloop
  endfacet
  facet normal 0 -0 -1
    outer loop
      vertex 0.5 -2.51997 0
      vertex 0.65445 -4.55579 0
      vertex 0.499999 -4.56795 0
    endloop
  endfacet
  facet normal 0 0 -1
    outer loop
      vertex 2.29434 1.16903 0
      vertex 4.13058 2.03024 0
      vertex 2.44897 0.795718 0
    endloop
  endfacet
  facet normal 0 0 -1
    outer loop
      vertex 2.08322 1.51355 0
      vertex 4.13058 2.03024 0
      vertex 2.29434 1.16903 0
    endloop
  endfacet
  facet normal -0 0 -1
    outer loop
      vertex 4.13058 2.03024 0
      vertex 2.08322 1.51355 0
      vertex 3.20729 3.30104 0
    endloop
  endfacet
  facet normal 0 0 -1
    outer loop
      vertex 1.8208 1.8208 0
      vertex 3.20729 3.30104 0
      vertex 2.08322 1.51355 0
    endloop
  endfacet
  facet normal 0 0 -1
    outer loop
      vertex 1.51355 2.08322 0
      vertex 3.20729 3.30104 0
      vertex 1.8208 1.8208 0
    endloop
  endfacet
  facet normal 0 0 -1
    outer loop
      vertex 3.20729 -3.30104 0
      vertex 4.13058 -2.03024 0
      vertex 3.64698 -3.62049 0
    endloop
  endfacet
  facet normal 0 0 -1
    outer loop
      vertex 3.64698 -3.62049 0
      vertex 4.13058 -2.03024 0
      vertex 4.57027 -2.34969 0
    endloop
  endfacet
  facet normal 0 0 -1
    outer loop
      vertex 4.53505 -0.785398 0
      vertex 5.07854 0.785398 0
      vertex 5.07854 -0.785398 0
    endloop
  endfacet
  facet normal 0 0 -1
    outer loop
      vertex 4.53505 -0.785398 0
      vertex 4.53505 0.785398 0
      vertex 5.07854 0.785398 0
    endloop
  endfacet
  facet normal 0 0 -1
    outer loop
      vertex 4.13058 -2.03024 0
      vertex 4.53505 -0.785398 0
      vertex 4.3818 -1.42373 0
    endloop
  endfacet
  facet normal -0 0 -1
    outer loop
      vertex 4.53505 -0.785398 0
      vertex 4.13058 -2.03024 0
      vertex 4.53505 0.785398 0
    endloop
  endfacet
  facet normal 0 0 -1
    outer loop
      vertex 4.13058 2.03024 0
      vertex 4.53505 0.785398 0
      vertex 4.13058 -2.03024 0
    endloop
  endfacet
  facet normal 0 0 -1
    outer loop
      vertex 4.53505 0.785398 0
      vertex 4.13058 2.03024 0
      vertex 4.3818 1.42373 0
    endloop
  endfacet
  facet normal 0 0 -1
    outer loop
      vertex 4.13058 2.03024 0
      vertex 3.64698 3.62049 0
      vertex 4.57027 2.34969 0
    endloop
  endfacet
  facet normal 0 -0 -1
    outer loop
      vertex 2.575 0 0
      vertex 4.13058 -2.03024 0
      vertex 2.5433 -0.402819 0
    endloop
  endfacet
  facet normal 0 0 -1
    outer loop
      vertex 2.08322 -1.51355 0
      vertex 4.13058 -2.03024 0
      vertex 3.20729 -3.30104 0
    endloop
  endfacet
  facet normal 0 0 -1
    outer loop
      vertex 2.5433 0.402819 0
      vertex 4.13058 2.03024 0
      vertex 2.575 0 0
    endloop
  endfacet
  facet normal 0 0 -1
    outer loop
      vertex 1.8208 -1.8208 0
      vertex 3.20729 -3.30104 0
      vertex 2.7081 -3.72738 0
    endloop
  endfacet
  facet normal 0 0 -1
    outer loop
      vertex 4.13058 2.03024 0
      vertex 3.20729 3.30104 0
      vertex 3.64698 3.62049 0
    endloop
  endfacet
  facet normal 0 0 -1
    outer loop
      vertex 2.44897 0.795718 0
      vertex 4.13058 2.03024 0
      vertex 2.5433 0.402819 0
    endloop
  endfacet
  facet normal 0 0 -1
    outer loop
      vertex 4.13058 -2.03024 0
      vertex 2.575 0 0
      vertex 4.13058 2.03024 0
    endloop
  endfacet
  facet normal 0 0 -1
    outer loop
      vertex 4.13058 -2.03024 0
      vertex 2.44897 -0.795718 0
      vertex 2.5433 -0.402819 0
    endloop
  endfacet
  facet normal 0 0 -1
    outer loop
      vertex 4.13058 -2.03024 0
      vertex 2.29434 -1.16903 0
      vertex 2.44897 -0.795718 0
    endloop
  endfacet
  facet normal 0 0 -1
    outer loop
      vertex 1.51355 -2.08322 0
      vertex 2.7081 -3.72738 0
      vertex 2.14837 -4.07039 0
    endloop
  endfacet
  facet normal 0 0 -1
    outer loop
      vertex 4.13058 -2.03024 0
      vertex 2.08322 -1.51355 0
      vertex 2.29434 -1.16903 0
    endloop
  endfacet
  facet normal -0 0 -1
    outer loop
      vertex 3.20729 3.30104 0
      vertex 1.51355 2.08322 0
      vertex 2.7081 3.72738 0
    endloop
  endfacet
  facet normal -0 0 -1
    outer loop
      vertex 2.7081 3.72738 0
      vertex 1.51355 2.08322 0
      vertex 2.14837 4.07039 0
    endloop
  endfacet
  facet normal 0 0 -1
    outer loop
      vertex 1.16903 2.29434 0
      vertex 2.14837 4.07039 0
      vertex 1.51355 2.08322 0
    endloop
  endfacet
  facet normal 0 0 -1
    outer loop
      vertex 0.795718 2.44897 0
      vertex 2.14837 4.07039 0
      vertex 1.16903 2.29434 0
    endloop
  endfacet
  facet normal 0 0 -1
    outer loop
      vertex 2.14837 4.07039 0
      vertex 0.65445 4.55579 0
      vertex 2.31631 4.58728 0
    endloop
  endfacet
  facet normal -0 0 -1
    outer loop
      vertex 2.14837 4.07039 0
      vertex 0.795718 2.44897 0
      vertex 0.65445 4.55579 0
    endloop
  endfacet
  facet normal -0 0 -1
    outer loop
      vertex 2.31631 4.58728 0
      vertex 0.65445 4.55579 0
      vertex 0.822396 5.07268 0
    endloop
  endfacet
  facet normal 0 0 -1
    outer loop
      vertex 0.402819 2.5433 0
      vertex 0.65445 4.55579 0
      vertex 0.795718 2.44897 0
    endloop
  endfacet
  facet normal 0 0 -1
    outer loop
      vertex 0 2.575 0
      vertex 0.65445 4.55579 0
      vertex 0.402819 2.5433 0
    endloop
  endfacet
  facet normal 0 0 -1
    outer loop
      vertex 0 2.575 0
      vertex 0 4.6073 0
      vertex 0.65445 4.55579 0
    endloop
  endfacet
  facet normal 0 0 -1
    outer loop
      vertex -0.65445 4.55579 0
      vertex 0 2.575 0
      vertex -0.402819 2.5433 0
    endloop
  endfacet
  facet normal 0 0 -1
    outer loop
      vertex 0 2.575 0
      vertex -0.65445 4.55579 0
      vertex 0 4.6073 0
    endloop
  endfacet
  facet normal 0 0 -1
    outer loop
      vertex -0.795718 2.44897 0
      vertex -0.65445 4.55579 0
      vertex -0.402819 2.5433 0
    endloop
  endfacet
  facet normal 0 0 -1
    outer loop
      vertex -2.14837 4.07039 0
      vertex -0.65445 4.55579 0
      vertex -0.795718 2.44897 0
    endloop
  endfacet
  facet normal 0 0 -1
    outer loop
      vertex -2.14837 4.07039 0
      vertex -0.795718 2.44897 0
      vertex -1.16903 2.29434 0
    endloop
  endfacet
  facet normal 0 0 -1
    outer loop
      vertex -2.14837 4.07039 0
      vertex -1.16903 2.29434 0
      vertex -1.51355 2.08322 0
    endloop
  endfacet
  facet normal 0 0 -1
    outer loop
      vertex -3.20729 3.30104 0
      vertex -1.51355 2.08322 0
      vertex -1.8208 1.8208 0
    endloop
  endfacet
  facet normal 0 0 -1
    outer loop
      vertex -3.20729 3.30104 0
      vertex -1.8208 1.8208 0
      vertex -2.08322 1.51355 0
    endloop
  endfacet
  facet normal -0 0 -1
    outer loop
      vertex -0.65445 4.55579 0
      vertex -2.14837 4.07039 0
      vertex -0.822396 5.07268 0
    endloop
  endfacet
  facet normal 0 0 -1
    outer loop
      vertex -0.822396 5.07268 0
      vertex -2.14837 4.07039 0
      vertex -2.31631 4.58728 0
    endloop
  endfacet
  facet normal 0 0 -1
    outer loop
      vertex -4.13058 2.03024 0
      vertex -2.08322 1.51355 0
      vertex -2.29434 1.16903 0
    endloop
  endfacet
  facet normal 0 0 -1
    outer loop
      vertex -4.13058 2.03024 0
      vertex -2.29434 1.16903 0
      vertex -2.44897 0.795718 0
    endloop
  endfacet
  facet normal 0 0 -1
    outer loop
      vertex -4.53505 0.785398 0
      vertex -2.44897 0.795718 0
      vertex -2.5433 0.402819 0
    endloop
  endfacet
  facet normal 0 0 -1
    outer loop
      vertex -1.51355 2.08322 0
      vertex -2.7081 3.72738 0
      vertex -2.14837 4.07039 0
    endloop
  endfacet
  facet normal 0 0 -1
    outer loop
      vertex -4.53505 0.785398 0
      vertex -2.5433 0.402819 0
      vertex -2.575 0 0
    endloop
  endfacet
  facet normal 0 0 -1
    outer loop
      vertex -4.3818 -1.42373 0
      vertex -2.44897 -0.795718 0
      vertex -4.13058 -2.03024 0
    endloop
  endfacet
  facet normal 0 0 -1
    outer loop
      vertex -4.53505 -0.785398 0
      vertex -2.44897 -0.795718 0
      vertex -4.3818 -1.42373 0
    endloop
  endfacet
  facet normal 0 0 -1
    outer loop
      vertex -1.51355 2.08322 0
      vertex -3.20729 3.30104 0
      vertex -2.7081 3.72738 0
    endloop
  endfacet
  facet normal 0 0 -1
    outer loop
      vertex -4.13058 -2.03024 0
      vertex -3.20729 -3.30104 0
      vertex -3.64698 -3.62049 0
    endloop
  endfacet
  facet normal 0 0 -1
    outer loop
      vertex -2.44897 -0.795718 0
      vertex -4.53505 -0.785398 0
      vertex -2.5433 -0.402819 0
    endloop
  endfacet
  facet normal 0 0 -1
    outer loop
      vertex -2.08322 1.51355 0
      vertex -4.13058 2.03024 0
      vertex -3.20729 3.30104 0
    endloop
  endfacet
  facet normal 0 -0 -1
    outer loop
      vertex -4.13058 -2.03024 0
      vertex -3.64698 -3.62049 0
      vertex -4.57027 -2.34969 0
    endloop
  endfacet
  facet normal -0 0 -1
    outer loop
      vertex -2.5433 -0.402819 0
      vertex -4.53505 -0.785398 0
      vertex -2.575 0 0
    endloop
  endfacet
  facet normal 0 0 -1
    outer loop
      vertex -4.53505 0.785398 0
      vertex -2.575 0 0
      vertex -4.53505 -0.785398 0
    endloop
  endfacet
  facet normal -0 0 -1
    outer loop
      vertex -2.44897 0.795718 0
      vertex -4.53505 0.785398 0
      vertex -4.3818 1.42373 0
    endloop
  endfacet
  facet normal 0 0 -1
    outer loop
      vertex -2.44897 0.795718 0
      vertex -4.3818 1.42373 0
      vertex -4.13058 2.03024 0
    endloop
  endfacet
  facet normal 0 0 -1
    outer loop
      vertex -5.07854 -0.785398 0
      vertex -4.53505 0.785398 0
      vertex -4.53505 -0.785398 0
    endloop
  endfacet
  facet normal -0 0 -1
    outer loop
      vertex -4.53505 0.785398 0
      vertex -5.07854 -0.785398 0
      vertex -5.07854 0.785398 0
    endloop
  endfacet
  facet normal -0 0 -1
    outer loop
      vertex -3.20729 3.30104 0
      vertex -4.13058 2.03024 0
      vertex -3.64698 3.62049 0
    endloop
  endfacet
  facet normal 0 0 -1
    outer loop
      vertex -3.64698 3.62049 0
      vertex -4.13058 2.03024 0
      vertex -4.57027 2.34969 0
    endloop
  endfacet
  facet normal 0 0 -1
    outer loop
      vertex 1.52317 2.075 4.5
      vertex 1.16903 2.29434 4.5
      vertex 1.51355 2.08322 4.5
    endloop
  endfacet
  facet normal 0 0 -1
    outer loop
      vertex 1.52317 2.075 4.5
      vertex 0.795718 2.44897 4.5
      vertex 1.16903 2.29434 4.5
    endloop
  endfacet
  facet normal 0 0 -1
    outer loop
      vertex 1.52317 2.075 4.5
      vertex 0.402819 2.5433 4.5
      vertex 0.795718 2.44897 4.5
    endloop
  endfacet
  facet normal 0 0 -1
    outer loop
      vertex 1.52317 2.075 4.5
      vertex 0 2.575 4.5
      vertex 0.402819 2.5433 4.5
    endloop
  endfacet
  facet normal 0 0 -1
    outer loop
      vertex 1.52317 2.075 4.5
      vertex -0.402819 2.5433 4.5
      vertex 0 2.575 4.5
    endloop
  endfacet
  facet normal 0 0 -1
    outer loop
      vertex 1.52317 2.075 4.5
      vertex -0.795718 2.44897 4.5
      vertex -0.402819 2.5433 4.5
    endloop
  endfacet
  facet normal 0 0 -1
    outer loop
      vertex 1.52317 2.075 4.5
      vertex -1.16903 2.29434 4.5
      vertex -0.795718 2.44897 4.5
    endloop
  endfacet
  facet normal 0 0 -1
    outer loop
      vertex -1.52317 2.075 4.5
      vertex -1.16903 2.29434 4.5
      vertex 1.52317 2.075 4.5
    endloop
  endfacet
  facet normal 0 0 -1
    outer loop
      vertex -1.16903 2.29434 4.5
      vertex -1.52317 2.075 4.5
      vertex -1.51355 2.08322 4.5
    endloop
  endfacet
  facet normal 0.972368 0.233453 0
    outer loop
      vertex -2.44897 -0.795718 15
      vertex -2.5433 -0.402819 0
      vertex -2.5433 -0.402819 15
    endloop
  endfacet
  facet normal 0.972368 0.233453 0
    outer loop
      vertex -2.5433 -0.402819 0
      vertex -2.44897 -0.795718 15
      vertex -2.44897 -0.795718 0
    endloop
  endfacet
  facet normal 0 0 1
    outer loop
      vertex -1.52317 2.075 15
      vertex -3.20729 3.30104 15
      vertex -1.8208 1.8208 15
    endloop
  endfacet
  facet normal 0 0 1
    outer loop
      vertex -1.8208 1.8208 15
      vertex -3.20729 3.30104 15
      vertex -2.08322 1.51355 15
    endloop
  endfacet
  facet normal -0 0 1
    outer loop
      vertex -4.13058 2.03024 15
      vertex -2.08322 1.51355 15
      vertex -3.20729 3.30104 15
    endloop
  endfacet
  facet normal 0 0 1
    outer loop
      vertex -2.29434 1.16903 15
      vertex -4.13058 2.03024 15
      vertex -2.44897 0.795718 15
    endloop
  endfacet
  facet normal 0 0 1
    outer loop
      vertex -2.08322 1.51355 15
      vertex -4.13058 2.03024 15
      vertex -2.29434 1.16903 15
    endloop
  endfacet
  facet normal 0 0 1
    outer loop
      vertex 3.20729 3.30104 15
      vertex 1.8208 1.8208 15
      vertex 2.08322 1.51355 15
    endloop
  endfacet
  facet normal 0 0 1
    outer loop
      vertex 2.7081 3.72738 15
      vertex 1.52317 2.075 15
      vertex 1.8208 1.8208 15
    endloop
  endfacet
  facet normal 0 0 1
    outer loop
      vertex 0.822396 5.07268 15
      vertex 2.14837 4.07039 15
      vertex 2.31631 4.58728 15
    endloop
  endfacet
  facet normal -0 0 1
    outer loop
      vertex 0.65445 4.55579 15
      vertex 2.14837 4.07039 15
      vertex 0.822396 5.07268 15
    endloop
  endfacet
  facet normal 0 0 1
    outer loop
      vertex 2.14837 4.07039 15
      vertex 0.65445 4.55579 15
      vertex 1.52317 2.075 15
    endloop
  endfacet
  facet normal 0 0 1
    outer loop
      vertex 0 4.6073 15
      vertex 1.52317 2.075 15
      vertex 0.65445 4.55579 15
    endloop
  endfacet
  facet normal 0 0 1
    outer loop
      vertex -1.52317 2.075 15
      vertex 0 4.6073 15
      vertex -0.65445 4.55579 15
    endloop
  endfacet
  facet normal 0 0 1
    outer loop
      vertex 0 4.6073 15
      vertex -1.52317 2.075 15
      vertex 1.52317 2.075 15
    endloop
  endfacet
  facet normal 0 0 1
    outer loop
      vertex -2.14837 4.07039 15
      vertex -0.65445 4.55579 15
      vertex -0.822396 5.07268 15
    endloop
  endfacet
  facet normal 0 0 1
    outer loop
      vertex -0.65445 4.55579 15
      vertex -2.14837 4.07039 15
      vertex -1.52317 2.075 15
    endloop
  endfacet
  facet normal -0 0 1
    outer loop
      vertex -2.7081 3.72738 15
      vertex -1.52317 2.075 15
      vertex -2.14837 4.07039 15
    endloop
  endfacet
  facet normal -0 0 1
    outer loop
      vertex -3.20729 3.30104 15
      vertex -1.52317 2.075 15
      vertex -2.7081 3.72738 15
    endloop
  endfacet
  facet normal 0 -0 1
    outer loop
      vertex -2.14837 4.07039 15
      vertex -0.822396 5.07268 15
      vertex -2.31631 4.58728 15
    endloop
  endfacet
  facet normal -0 0 1
    outer loop
      vertex 2.29434 -1.16903 15
      vertex 4.13058 -2.03024 15
      vertex 2.44897 -0.795718 15
    endloop
  endfacet
  facet normal -0 0 1
    outer loop
      vertex 2.08322 -1.51355 15
      vertex 4.13058 -2.03024 15
      vertex 2.29434 -1.16903 15
    endloop
  endfacet
  facet normal 0 0 1
    outer loop
      vertex 4.13058 -2.03024 15
      vertex 2.08322 -1.51355 15
      vertex 3.20729 -3.30104 15
    endloop
  endfacet
  facet normal -0 0 1
    outer loop
      vertex 1.8208 -1.8208 15
      vertex 3.20729 -3.30104 15
      vertex 2.08322 -1.51355 15
    endloop
  endfacet
  facet normal -0 0 1
    outer loop
      vertex 1.51355 -2.08322 15
      vertex 3.20729 -3.30104 15
      vertex 1.8208 -1.8208 15
    endloop
  endfacet
  facet normal -0 0 1
    outer loop
      vertex 3.20729 3.30104 15
      vertex 4.13058 2.03024 15
      vertex 3.64698 3.62049 15
    endloop
  endfacet
  facet normal 0 0 1
    outer loop
      vertex 3.64698 3.62049 15
      vertex 4.13058 2.03024 15
      vertex 4.57027 2.34969 15
    endloop
  endfacet
  facet normal -0 0 1
    outer loop
      vertex 4.53505 0.785398 15
      vertex 5.07854 -0.785398 15
      vertex 5.07854 0.785398 15
    endloop
  endfacet
  facet normal 0 0 1
    outer loop
      vertex 4.53505 0.785398 15
      vertex 4.53505 -0.785398 15
      vertex 5.07854 -0.785398 15
    endloop
  endfacet
  facet normal 0 0 1
    outer loop
      vertex 4.13058 2.03024 15
      vertex 4.53505 0.785398 15
      vertex 4.3818 1.42373 15
    endloop
  endfacet
  facet normal 0 0 1
    outer loop
      vertex 4.53505 0.785398 15
      vertex 4.13058 2.03024 15
      vertex 4.53505 -0.785398 15
    endloop
  endfacet
  facet normal 0 0 1
    outer loop
      vertex 4.13058 -2.03024 15
      vertex 4.53505 -0.785398 15
      vertex 4.13058 2.03024 15
    endloop
  endfacet
  facet normal 0 0 1
    outer loop
      vertex 4.53505 -0.785398 15
      vertex 4.13058 -2.03024 15
      vertex 4.3818 -1.42373 15
    endloop
  endfacet
  facet normal 0 0 1
    outer loop
      vertex 4.13058 -2.03024 15
      vertex 3.64698 -3.62049 15
      vertex 4.57027 -2.34969 15
    endloop
  endfacet
  facet normal 0 -0 1
    outer loop
      vertex 2.575 0 15
      vertex 4.13058 2.03024 15
      vertex 2.5433 0.402819 15
    endloop
  endfacet
  facet normal 0 0 1
    outer loop
      vertex 2.08322 1.51355 15
      vertex 4.13058 2.03024 15
      vertex 3.20729 3.30104 15
    endloop
  endfacet
  facet normal -0 0 1
    outer loop
      vertex 2.5433 -0.402819 15
      vertex 4.13058 -2.03024 15
      vertex 2.575 0 15
    endloop
  endfacet
  facet normal 0 0 1
    outer loop
      vertex 1.8208 1.8208 15
      vertex 3.20729 3.30104 15
      vertex 2.7081 3.72738 15
    endloop
  endfacet
  facet normal 0 0 1
    outer loop
      vertex 4.13058 -2.03024 15
      vertex 3.20729 -3.30104 15
      vertex 3.64698 -3.62049 15
    endloop
  endfacet
  facet normal -0 0 1
    outer loop
      vertex 2.44897 -0.795718 15
      vertex 4.13058 -2.03024 15
      vertex 2.5433 -0.402819 15
    endloop
  endfacet
  facet normal 0 0 1
    outer loop
      vertex 4.13058 2.03024 15
      vertex 2.575 0 15
      vertex 4.13058 -2.03024 15
    endloop
  endfacet
  facet normal 0 0 1
    outer loop
      vertex 4.13058 2.03024 15
      vertex 2.44897 0.795718 15
      vertex 2.5433 0.402819 15
    endloop
  endfacet
  facet normal 0 0 1
    outer loop
      vertex 4.13058 2.03024 15
      vertex 2.29434 1.16903 15
      vertex 2.44897 0.795718 15
    endloop
  endfacet
  facet normal 0 0 1
    outer loop
      vertex 1.52317 2.075 15
      vertex 2.7081 3.72738 15
      vertex 2.14837 4.07039 15
    endloop
  endfacet
  facet normal 0 0 1
    outer loop
      vertex 4.13058 2.03024 15
      vertex 2.08322 1.51355 15
      vertex 2.29434 1.16903 15
    endloop
  endfacet
  facet normal 0 0 1
    outer loop
      vertex 3.20729 -3.30104 15
      vertex 1.51355 -2.08322 15
      vertex 2.7081 -3.72738 15
    endloop
  endfacet
  facet normal 0 0 1
    outer loop
      vertex 2.7081 -3.72738 15
      vertex 1.51355 -2.08322 15
      vertex 2.14837 -4.07039 15
    endloop
  endfacet
  facet normal -0 0 1
    outer loop
      vertex 1.16903 -2.29434 15
      vertex 2.14837 -4.07039 15
      vertex 1.51355 -2.08322 15
    endloop
  endfacet
  facet normal -0 0 1
    outer loop
      vertex 0.795718 -2.44897 15
      vertex 2.14837 -4.07039 15
      vertex 1.16903 -2.29434 15
    endloop
  endfacet
  facet normal 0 0 1
    outer loop
      vertex 2.14837 -4.07039 15
      vertex 0.65445 -4.55579 15
      vertex 2.31631 -4.58728 15
    endloop
  endfacet
  facet normal 0 0 1
    outer loop
      vertex 2.14837 -4.07039 15
      vertex 0.795718 -2.44897 15
      vertex 0.65445 -4.55579 15
    endloop
  endfacet
  facet normal 0 0 1
    outer loop
      vertex 2.31631 -4.58728 15
      vertex 0.65445 -4.55579 15
      vertex 0.822396 -5.07268 15
    endloop
  endfacet
  facet normal -0 0 1
    outer loop
      vertex 0.5 -2.51997 15
      vertex 0.65445 -4.55579 15
      vertex 0.795718 -2.44897 15
    endloop
  endfacet
  facet normal 0 0 1
    outer loop
      vertex 0.65445 -4.55579 15
      vertex 0.5 -2.51997 15
      vertex 0.499999 -4.56795 15
    endloop
  endfacet
  facet normal 0 0 1
    outer loop
      vertex -4.13058 -2.03024 15
      vertex -2.08322 -1.51355 15
      vertex -2.29434 -1.16903 15
    endloop
  endfacet
  facet normal 0 0 1
    outer loop
      vertex -4.13058 -2.03024 15
      vertex -2.29434 -1.16903 15
      vertex -2.44897 -0.795718 15
    endloop
  endfacet
  facet normal -0 0 1
    outer loop
      vertex -4.53505 -0.785398 15
      vertex -2.44897 -0.795718 15
      vertex -2.5433 -0.402819 15
    endloop
  endfacet
  facet normal 0 0 1
    outer loop
      vertex -2.08322 -1.51355 15
      vertex -2.7081 -3.72738 15
      vertex -2.14837 -4.07039 15
    endloop
  endfacet
  facet normal 0 0 1
    outer loop
      vertex -4.53505 -0.785398 15
      vertex -2.5433 -0.402819 15
      vertex -2.575 0 15
    endloop
  endfacet
  facet normal -0 0 1
    outer loop
      vertex -4.3818 1.42373 15
      vertex -2.44897 0.795718 15
      vertex -4.13058 2.03024 15
    endloop
  endfacet
  facet normal 0 0 1
    outer loop
      vertex -4.53505 0.785398 15
      vertex -2.44897 0.795718 15
      vertex -4.3818 1.42373 15
    endloop
  endfacet
  facet normal 0 0 1
    outer loop
      vertex -2.08322 -1.51355 15
      vertex -3.20729 -3.30104 15
      vertex -2.7081 -3.72738 15
    endloop
  endfacet
  facet normal 0 0 1
    outer loop
      vertex -4.13058 2.03024 15
      vertex -3.20729 3.30104 15
      vertex -3.64698 3.62049 15
    endloop
  endfacet
  facet normal 0 0 1
    outer loop
      vertex -2.44897 0.795718 15
      vertex -4.53505 0.785398 15
      vertex -2.5433 0.402819 15
    endloop
  endfacet
  facet normal 0 0 1
    outer loop
      vertex -2.08322 -1.51355 15
      vertex -4.13058 -2.03024 15
      vertex -3.20729 -3.30104 15
    endloop
  endfacet
  facet normal 0 -0 1
    outer loop
      vertex -4.13058 2.03024 15
      vertex -3.64698 3.62049 15
      vertex -4.57027 2.34969 15
    endloop
  endfacet
  facet normal 0 0 1
    outer loop
      vertex -0.5 -2.51997 15
      vertex -0.65445 -4.55579 15
      vertex -0.5 -4.56795 15
    endloop
  endfacet
  facet normal 0 0 1
    outer loop
      vertex -0.795718 -2.44897 15
      vertex -0.65445 -4.55579 15
      vertex -0.5 -2.51997 15
    endloop
  endfacet
  facet normal -0 0 1
    outer loop
      vertex -2.14837 -4.07039 15
      vertex -0.65445 -4.55579 15
      vertex -0.795718 -2.44897 15
    endloop
  endfacet
  facet normal 0 0 1
    outer loop
      vertex -2.14837 -4.07039 15
      vertex -0.795718 -2.44897 15
      vertex -1.16903 -2.29434 15
    endloop
  endfacet
  facet normal 0 0 1
    outer loop
      vertex -2.14837 -4.07039 15
      vertex -1.16903 -2.29434 15
      vertex -1.51355 -2.08322 15
    endloop
  endfacet
  facet normal 0 0 1
    outer loop
      vertex -2.14837 -4.07039 15
      vertex -1.51355 -2.08322 15
      vertex -1.8208 -1.8208 15
    endloop
  endfacet
  facet normal 0 0 1
    outer loop
      vertex -2.14837 -4.07039 15
      vertex -1.8208 -1.8208 15
      vertex -2.08322 -1.51355 15
    endloop
  endfacet
  facet normal 0 0 1
    outer loop
      vertex -0.65445 -4.55579 15
      vertex -2.14837 -4.07039 15
      vertex -0.822396 -5.07268 15
    endloop
  endfacet
  facet normal 0 0 1
    outer loop
      vertex -0.822396 -5.07268 15
      vertex -2.14837 -4.07039 15
      vertex -2.31631 -4.58728 15
    endloop
  endfacet
  facet normal 0 0 1
    outer loop
      vertex -2.5433 0.402819 15
      vertex -4.53505 0.785398 15
      vertex -2.575 0 15
    endloop
  endfacet
  facet normal 0 0 1
    outer loop
      vertex -4.53505 -0.785398 15
      vertex -2.575 0 15
      vertex -4.53505 0.785398 15
    endloop
  endfacet
  facet normal 0 0 1
    outer loop
      vertex -2.44897 -0.795718 15
      vertex -4.53505 -0.785398 15
      vertex -4.3818 -1.42373 15
    endloop
  endfacet
  facet normal 0 0 1
    outer loop
      vertex -2.44897 -0.795718 15
      vertex -4.3818 -1.42373 15
      vertex -4.13058 -2.03024 15
    endloop
  endfacet
  facet normal -0 0 1
    outer loop
      vertex -5.07854 0.785398 15
      vertex -4.53505 -0.785398 15
      vertex -4.53505 0.785398 15
    endloop
  endfacet
  facet normal 0 0 1
    outer loop
      vertex -4.53505 -0.785398 15
      vertex -5.07854 0.785398 15
      vertex -5.07854 -0.785398 15
    endloop
  endfacet
  facet normal 0 0 1
    outer loop
      vertex -3.20729 -3.30104 15
      vertex -4.13058 -2.03024 15
      vertex -3.64698 -3.62049 15
    endloop
  endfacet
  facet normal 0 0 1
    outer loop
      vertex -3.64698 -3.62049 15
      vertex -4.13058 -2.03024 15
      vertex -4.57027 -2.34969 15
    endloop
  endfacet
  facet normal 1 -0 0
    outer loop
      vertex 5.07854 -0.785398 15
      vertex 5.07854 0.785398 0
      vertex 5.07854 0.785398 15
    endloop
  endfacet
  facet normal 1 0 0
    outer loop
      vertex 5.07854 0.785398 0
      vertex 5.07854 -0.785398 15
      vertex 5.07854 -0.785398 0
    endloop
  endfacet
  facet normal 0 -1 0
    outer loop
      vertex 4.53505 -0.785398 0
      vertex 5.07854 -0.785398 15
      vertex 4.53505 -0.785398 15
    endloop
  endfacet
  facet normal 0 -1 -0
    outer loop
      vertex 5.07854 -0.785398 15
      vertex 4.53505 -0.785398 0
      vertex 5.07854 -0.785398 0
    endloop
  endfacet
  facet normal 0 1 -0
    outer loop
      vertex 5.07854 0.785398 0
      vertex 4.53505 0.785398 15
      vertex 5.07854 0.785398 15
    endloop
  endfacet
  facet normal 0 1 0
    outer loop
      vertex 4.53505 0.785398 15
      vertex 5.07854 0.785398 0
      vertex 4.53505 0.785398 0
    endloop
  endfacet
  facet normal 0.809017 0.587785 0
    outer loop
      vertex 4.57027 2.34969 15
      vertex 3.64698 3.62049 0
      vertex 3.64698 3.62049 15
    endloop
  endfacet
  facet normal 0.809017 0.587785 0
    outer loop
      vertex 3.64698 3.62049 0
      vertex 4.57027 2.34969 15
      vertex 4.57027 2.34969 0
    endloop
  endfacet
  facet normal -0.587781 0.80902 0
    outer loop
      vertex 3.64698 3.62049 0
      vertex 3.20729 3.30104 15
      vertex 3.64698 3.62049 15
    endloop
  endfacet
  facet normal -0.587781 0.80902 0
    outer loop
      vertex 3.20729 3.30104 15
      vertex 3.64698 3.62049 0
      vertex 3.20729 3.30104 0
    endloop
  endfacet
  facet normal 0.587781 -0.80902 0
    outer loop
      vertex 4.13058 2.03024 0
      vertex 4.57027 2.34969 15
      vertex 4.13058 2.03024 15
    endloop
  endfacet
  facet normal 0.587781 -0.80902 0
    outer loop
      vertex 4.57027 2.34969 15
      vertex 4.13058 2.03024 0
      vertex 4.57027 2.34969 0
    endloop
  endfacet
  facet normal 0.309016 0.951057 -0
    outer loop
      vertex 2.31631 4.58728 0
      vertex 0.822396 5.07268 15
      vertex 2.31631 4.58728 15
    endloop
  endfacet
  facet normal 0.309016 0.951057 0
    outer loop
      vertex 0.822396 5.07268 15
      vertex 2.31631 4.58728 0
      vertex 0.822396 5.07268 0
    endloop
  endfacet
  facet normal -0.951057 0.309014 0
    outer loop
      vertex 0.65445 4.55579 0
      vertex 0.822396 5.07268 15
      vertex 0.822396 5.07268 0
    endloop
  endfacet
  facet normal -0.951057 0.309014 0
    outer loop
      vertex 0.822396 5.07268 15
      vertex 0.65445 4.55579 0
      vertex 0.65445 4.55579 15
    endloop
  endfacet
  facet normal 0.951061 -0.309004 0
    outer loop
      vertex 2.14837 4.07039 15
      vertex 2.31631 4.58728 0
      vertex 2.31631 4.58728 15
    endloop
  endfacet
  facet normal 0.951061 -0.309004 0
    outer loop
      vertex 2.31631 4.58728 0
      vertex 2.14837 4.07039 15
      vertex 2.14837 4.07039 0
    endloop
  endfacet
  facet normal -0.309016 0.951057 0
    outer loop
      vertex -0.822396 5.07268 0
      vertex -2.31631 4.58728 15
      vertex -0.822396 5.07268 15
    endloop
  endfacet
  facet normal -0.309016 0.951057 0
    outer loop
      vertex -2.31631 4.58728 15
      vertex -0.822396 5.07268 0
      vertex -2.31631 4.58728 0
    endloop
  endfacet
  facet normal 0.951057 0.309014 0
    outer loop
      vertex -0.65445 4.55579 15
      vertex -0.822396 5.07268 0
      vertex -0.822396 5.07268 15
    endloop
  endfacet
  facet normal 0.951057 0.309014 0
    outer loop
      vertex -0.822396 5.07268 0
      vertex -0.65445 4.55579 15
      vertex -0.65445 4.55579 0
    endloop
  endfacet
  facet normal -0.951061 -0.309004 0
    outer loop
      vertex -2.14837 4.07039 0
      vertex -2.31631 4.58728 15
      vertex -2.31631 4.58728 0
    endloop
  endfacet
  facet normal -0.951061 -0.309004 0
    outer loop
      vertex -2.31631 4.58728 15
      vertex -2.14837 4.07039 0
      vertex -2.14837 4.07039 15
    endloop
  endfacet
  facet normal -0.809017 0.587785 0
    outer loop
      vertex -4.57027 2.34969 0
      vertex -3.64698 3.62049 15
      vertex -3.64698 3.62049 0
    endloop
  endfacet
  facet normal -0.809017 0.587785 0
    outer loop
      vertex -3.64698 3.62049 15
      vertex -4.57027 2.34969 0
      vertex -4.57027 2.34969 15
    endloop
  endfacet
  facet normal 0.587781 0.80902 -0
    outer loop
      vertex -3.20729 3.30104 0
      vertex -3.64698 3.62049 15
      vertex -3.20729 3.30104 15
    endloop
  endfacet
  facet normal 0.587781 0.80902 0
    outer loop
      vertex -3.64698 3.62049 15
      vertex -3.20729 3.30104 0
      vertex -3.64698 3.62049 0
    endloop
  endfacet
  facet normal -0.587781 -0.80902 0
    outer loop
      vertex -4.57027 2.34969 0
      vertex -4.13058 2.03024 15
      vertex -4.57027 2.34969 15
    endloop
  endfacet
  facet normal -0.587781 -0.80902 -0
    outer loop
      vertex -4.13058 2.03024 15
      vertex -4.57027 2.34969 0
      vertex -4.13058 2.03024 0
    endloop
  endfacet
  facet normal -1 0 0
    outer loop
      vertex -5.07854 -0.785398 0
      vertex -5.07854 0.785398 15
      vertex -5.07854 0.785398 0
    endloop
  endfacet
  facet normal -1 -0 0
    outer loop
      vertex -5.07854 0.785398 15
      vertex -5.07854 -0.785398 0
      vertex -5.07854 -0.785398 15
    endloop
  endfacet
  facet normal 0 1 -0
    outer loop
      vertex -4.53505 0.785398 0
      vertex -5.07854 0.785398 15
      vertex -4.53505 0.785398 15
    endloop
  endfacet
  facet normal 0 1 0
    outer loop
      vertex -5.07854 0.785398 15
      vertex -4.53505 0.785398 0
      vertex -5.07854 0.785398 0
    endloop
  endfacet
  facet normal 0 -1 0
    outer loop
      vertex -5.07854 -0.785398 0
      vertex -4.53505 -0.785398 15
      vertex -5.07854 -0.785398 15
    endloop
  endfacet
  facet normal 0 -1 -0
    outer loop
      vertex -4.53505 -0.785398 15
      vertex -5.07854 -0.785398 0
      vertex -4.53505 -0.785398 0
    endloop
  endfacet
  facet normal -0.809017 -0.587785 0
    outer loop
      vertex -3.64698 -3.62049 0
      vertex -4.57027 -2.34969 15
      vertex -4.57027 -2.34969 0
    endloop
  endfacet
  facet normal -0.809017 -0.587785 0
    outer loop
      vertex -4.57027 -2.34969 15
      vertex -3.64698 -3.62049 0
      vertex -3.64698 -3.62049 15
    endloop
  endfacet
  facet normal -0.587781 0.80902 0
    outer loop
      vertex -4.13058 -2.03024 0
      vertex -4.57027 -2.34969 15
      vertex -4.13058 -2.03024 15
    endloop
  endfacet
  facet normal -0.587781 0.80902 0
    outer loop
      vertex -4.57027 -2.34969 15
      vertex -4.13058 -2.03024 0
      vertex -4.57027 -2.34969 0
    endloop
  endfacet
  facet normal 0.587781 -0.80902 0
    outer loop
      vertex -3.64698 -3.62049 0
      vertex -3.20729 -3.30104 15
      vertex -3.64698 -3.62049 15
    endloop
  endfacet
  facet normal 0.587781 -0.80902 0
    outer loop
      vertex -3.20729 -3.30104 15
      vertex -3.64698 -3.62049 0
      vertex -3.20729 -3.30104 0
    endloop
  endfacet
  facet normal -0.309016 -0.951057 0
    outer loop
      vertex -2.31631 -4.58728 0
      vertex -0.822396 -5.07268 15
      vertex -2.31631 -4.58728 15
    endloop
  endfacet
  facet normal -0.309016 -0.951057 -0
    outer loop
      vertex -0.822396 -5.07268 15
      vertex -2.31631 -4.58728 0
      vertex -0.822396 -5.07268 0
    endloop
  endfacet
  facet normal -0.951061 0.309004 0
    outer loop
      vertex -2.31631 -4.58728 0
      vertex -2.14837 -4.07039 15
      vertex -2.14837 -4.07039 0
    endloop
  endfacet
  facet normal -0.951061 0.309004 0
    outer loop
      vertex -2.14837 -4.07039 15
      vertex -2.31631 -4.58728 0
      vertex -2.31631 -4.58728 15
    endloop
  endfacet
  facet normal 0.951057 -0.309014 0
    outer loop
      vertex -0.822396 -5.07268 15
      vertex -0.65445 -4.55579 0
      vertex -0.65445 -4.55579 15
    endloop
  endfacet
  facet normal 0.951057 -0.309014 0
    outer loop
      vertex -0.65445 -4.55579 0
      vertex -0.822396 -5.07268 15
      vertex -0.822396 -5.07268 0
    endloop
  endfacet
  facet normal 0.309016 -0.951057 0
    outer loop
      vertex 0.822396 -5.07268 0
      vertex 2.31631 -4.58728 15
      vertex 0.822396 -5.07268 15
    endloop
  endfacet
  facet normal 0.309016 -0.951057 0
    outer loop
      vertex 2.31631 -4.58728 15
      vertex 0.822396 -5.07268 0
      vertex 2.31631 -4.58728 0
    endloop
  endfacet
  facet normal -0.951057 -0.309014 0
    outer loop
      vertex 0.822396 -5.07268 0
      vertex 0.65445 -4.55579 15
      vertex 0.65445 -4.55579 0
    endloop
  endfacet
  facet normal -0.951057 -0.309014 0
    outer loop
      vertex 0.65445 -4.55579 15
      vertex 0.822396 -5.07268 0
      vertex 0.822396 -5.07268 15
    endloop
  endfacet
  facet normal 0.951061 0.309004 0
    outer loop
      vertex 2.31631 -4.58728 15
      vertex 2.14837 -4.07039 0
      vertex 2.14837 -4.07039 15
    endloop
  endfacet
  facet normal 0.951061 0.309004 0
    outer loop
      vertex 2.14837 -4.07039 0
      vertex 2.31631 -4.58728 15
      vertex 2.31631 -4.58728 0
    endloop
  endfacet
  facet normal 0.809017 -0.587785 0
    outer loop
      vertex 3.64698 -3.62049 15
      vertex 4.57027 -2.34969 0
      vertex 4.57027 -2.34969 15
    endloop
  endfacet
  facet normal 0.809017 -0.587785 0
    outer loop
      vertex 4.57027 -2.34969 0
      vertex 3.64698 -3.62049 15
      vertex 3.64698 -3.62049 0
    endloop
  endfacet
  facet normal 0.587781 0.80902 -0
    outer loop
      vertex 4.57027 -2.34969 0
      vertex 4.13058 -2.03024 15
      vertex 4.57027 -2.34969 15
    endloop
  endfacet
  facet normal 0.587781 0.80902 0
    outer loop
      vertex 4.13058 -2.03024 15
      vertex 4.57027 -2.34969 0
      vertex 4.13058 -2.03024 0
    endloop
  endfacet
  facet normal -0.587781 -0.80902 0
    outer loop
      vertex 3.20729 -3.30104 0
      vertex 3.64698 -3.62049 15
      vertex 3.20729 -3.30104 15
    endloop
  endfacet
  facet normal -0.587781 -0.80902 -0
    outer loop
      vertex 3.64698 -3.62049 15
      vertex 3.20729 -3.30104 0
      vertex 3.64698 -3.62049 0
    endloop
  endfacet
  facet normal 0.649441 0.760412 -0
    outer loop
      vertex 3.20729 3.30104 0
      vertex 2.7081 3.72738 15
      vertex 3.20729 3.30104 15
    endloop
  endfacet
  facet normal 0.649441 0.760412 0
    outer loop
      vertex 2.7081 3.72738 15
      vertex 3.20729 3.30104 0
      vertex 2.7081 3.72738 0
    endloop
  endfacet
  facet normal -0.923882 0.382677 0
    outer loop
      vertex -4.3818 1.42373 0
      vertex -4.13058 2.03024 15
      vertex -4.13058 2.03024 0
    endloop
  endfacet
  facet normal -0.923882 0.382677 0
    outer loop
      vertex -4.13058 2.03024 15
      vertex -4.3818 1.42373 0
      vertex -4.3818 1.42373 15
    endloop
  endfacet
  facet normal 0.923882 0.382677 0
    outer loop
      vertex 4.3818 1.42373 15
      vertex 4.13058 2.03024 0
      vertex 4.13058 2.03024 15
    endloop
  endfacet
  facet normal 0.923882 0.382677 0
    outer loop
      vertex 4.13058 2.03024 0
      vertex 4.3818 1.42373 15
      vertex 4.3818 1.42373 0
    endloop
  endfacet
  facet normal 0.0784646 0.996917 -0
    outer loop
      vertex 0.65445 4.55579 0
      vertex 0 4.6073 15
      vertex 0.65445 4.55579 15
    endloop
  endfacet
  facet normal 0.0784646 0.996917 0
    outer loop
      vertex 0 4.6073 15
      vertex 0.65445 4.55579 0
      vertex 0 4.6073 0
    endloop
  endfacet
  facet normal -0.0784646 0.996917 0
    outer loop
      vertex 0 4.6073 0
      vertex -0.65445 4.55579 15
      vertex 0 4.6073 15
    endloop
  endfacet
  facet normal -0.0784646 0.996917 0
    outer loop
      vertex -0.65445 4.55579 15
      vertex 0 4.6073 0
      vertex -0.65445 4.55579 0
    endloop
  endfacet
  facet normal -0.649441 0.760412 0
    outer loop
      vertex -2.7081 3.72738 0
      vertex -3.20729 3.30104 15
      vertex -2.7081 3.72738 15
    endloop
  endfacet
  facet normal -0.649441 0.760412 0
    outer loop
      vertex -3.20729 3.30104 15
      vertex -2.7081 3.72738 0
      vertex -3.20729 3.30104 0
    endloop
  endfacet
  facet normal 0.0784876 -0.996915 0
    outer loop
      vertex 0.499999 -4.56795 0
      vertex 0.65445 -4.55579 15
      vertex 0.499999 -4.56795 15
    endloop
  endfacet
  facet normal 0.0784876 -0.996915 0
    outer loop
      vertex 0.65445 -4.55579 15
      vertex 0.499999 -4.56795 0
      vertex 0.65445 -4.55579 0
    endloop
  endfacet
  facet normal -0.0784881 -0.996915 0
    outer loop
      vertex -0.65445 -4.55579 0
      vertex -0.5 -4.56795 15
      vertex -0.65445 -4.55579 15
    endloop
  endfacet
  facet normal -0.0784881 -0.996915 -0
    outer loop
      vertex -0.5 -4.56795 15
      vertex -0.65445 -4.55579 0
      vertex -0.5 -4.56795 0
    endloop
  endfacet
  facet normal -0.649441 -0.760412 0
    outer loop
      vertex -3.20729 -3.30104 0
      vertex -2.7081 -3.72738 15
      vertex -3.20729 -3.30104 15
    endloop
  endfacet
  facet normal -0.649441 -0.760412 -0
    outer loop
      vertex -2.7081 -3.72738 15
      vertex -3.20729 -3.30104 0
      vertex -2.7081 -3.72738 0
    endloop
  endfacet
  facet normal 0.97237 0.233445 0
    outer loop
      vertex 4.53505 0.785398 15
      vertex 4.3818 1.42373 0
      vertex 4.3818 1.42373 15
    endloop
  endfacet
  facet normal 0.97237 0.233445 0
    outer loop
      vertex 4.3818 1.42373 0
      vertex 4.53505 0.785398 15
      vertex 4.53505 0.785398 0
    endloop
  endfacet
  facet normal 0.522506 0.852635 -0
    outer loop
      vertex 2.7081 3.72738 0
      vertex 2.14837 4.07039 15
      vertex 2.7081 3.72738 15
    endloop
  endfacet
  facet normal 0.522506 0.852635 0
    outer loop
      vertex 2.14837 4.07039 15
      vertex 2.7081 3.72738 0
      vertex 2.14837 4.07039 0
    endloop
  endfacet
  facet normal -0.97237 0.233445 0
    outer loop
      vertex -4.53505 0.785398 0
      vertex -4.3818 1.42373 15
      vertex -4.3818 1.42373 0
    endloop
  endfacet
  facet normal -0.97237 0.233445 0
    outer loop
      vertex -4.3818 1.42373 15
      vertex -4.53505 0.785398 0
      vertex -4.53505 0.785398 15
    endloop
  endfacet
  facet normal -0.522506 0.852635 0
    outer loop
      vertex -2.14837 4.07039 0
      vertex -2.7081 3.72738 15
      vertex -2.14837 4.07039 15
    endloop
  endfacet
  facet normal -0.522506 0.852635 0
    outer loop
      vertex -2.7081 3.72738 15
      vertex -2.14837 4.07039 0
      vertex -2.7081 3.72738 0
    endloop
  endfacet
  facet normal 0.97237 -0.233445 0
    outer loop
      vertex 4.3818 -1.42373 15
      vertex 4.53505 -0.785398 0
      vertex 4.53505 -0.785398 15
    endloop
  endfacet
  facet normal 0.97237 -0.233445 0
    outer loop
      vertex 4.53505 -0.785398 0
      vertex 4.3818 -1.42373 15
      vertex 4.3818 -1.42373 0
    endloop
  endfacet
  facet normal 0.649441 -0.760412 0
    outer loop
      vertex 2.7081 -3.72738 0
      vertex 3.20729 -3.30104 15
      vertex 2.7081 -3.72738 15
    endloop
  endfacet
  facet normal 0.649441 -0.760412 0
    outer loop
      vertex 3.20729 -3.30104 15
      vertex 2.7081 -3.72738 0
      vertex 3.20729 -3.30104 0
    endloop
  endfacet
  facet normal -0.522506 -0.852635 0
    outer loop
      vertex -2.7081 -3.72738 0
      vertex -2.14837 -4.07039 15
      vertex -2.7081 -3.72738 15
    endloop
  endfacet
  facet normal -0.522506 -0.852635 -0
    outer loop
      vertex -2.14837 -4.07039 15
      vertex -2.7081 -3.72738 0
      vertex -2.14837 -4.07039 0
    endloop
  endfacet
  facet normal -0.97237 -0.233445 0
    outer loop
      vertex -4.3818 -1.42373 0
      vertex -4.53505 -0.785398 15
      vertex -4.53505 -0.785398 0
    endloop
  endfacet
  facet normal -0.97237 -0.233445 0
    outer loop
      vertex -4.53505 -0.785398 15
      vertex -4.3818 -1.42373 0
      vertex -4.3818 -1.42373 15
    endloop
  endfacet
  facet normal -0.923882 -0.382677 0
    outer loop
      vertex -4.13058 -2.03024 0
      vertex -4.3818 -1.42373 15
      vertex -4.3818 -1.42373 0
    endloop
  endfacet
  facet normal -0.923882 -0.382677 0
    outer loop
      vertex -4.3818 -1.42373 15
      vertex -4.13058 -2.03024 0
      vertex -4.13058 -2.03024 15
    endloop
  endfacet
  facet normal 0.522506 -0.852635 0
    outer loop
      vertex 2.14837 -4.07039 0
      vertex 2.7081 -3.72738 15
      vertex 2.14837 -4.07039 15
    endloop
  endfacet
  facet normal 0.522506 -0.852635 0
    outer loop
      vertex 2.7081 -3.72738 15
      vertex 2.14837 -4.07039 0
      vertex 2.7081 -3.72738 0
    endloop
  endfacet
  facet normal 0.923882 -0.382677 0
    outer loop
      vertex 4.13058 -2.03024 15
      vertex 4.3818 -1.42373 0
      vertex 4.3818 -1.42373 15
    endloop
  endfacet
  facet normal 0.923882 -0.382677 0
    outer loop
      vertex 4.3818 -1.42373 0
      vertex 4.13058 -2.03024 15
      vertex 4.13058 -2.03024 0
    endloop
  endfacet
  facet normal 1 -0 0
    outer loop
      vertex -0.5 -4.56795 15
      vertex -0.5 -2.51997 0
      vertex -0.5 -2.51997 15
    endloop
  endfacet
  facet normal 1 0 0
    outer loop
      vertex -0.5 -2.51997 0
      vertex -0.5 -4.56795 15
      vertex -0.5 -4.56795 0
    endloop
  endfacet
  facet normal -1 4.88286e-007 0
    outer loop
      vertex 0.499999 -4.56795 0
      vertex 0.5 -2.51997 15
      vertex 0.5 -2.51997 0
    endloop
  endfacet
  facet normal -1 4.88286e-007 0
    outer loop
      vertex 0.5 -2.51997 15
      vertex 0.499999 -4.56795 0
      vertex 0.499999 -4.56795 15
    endloop
  endfacet
endsolid OpenSCAD_Model
