solid OpenSCAD_Model
  facet normal 0 1 -0
    outer loop
      vertex 69.3134 5.4875 5.40846
      vertex 68.3367 5.4875 8.59154
      vertex 69.3278 5.4875 5.40846
    endloop
  endfacet
  facet normal 0 1 0
    outer loop
      vertex 68.3367 5.4875 8.59154
      vertex 69.3134 5.4875 5.40846
      vertex 68.3222 5.4875 8.59154
    endloop
  endfacet
  facet normal 0 1 -0
    outer loop
      vertex 64.3134 5.4875 5.40846
      vertex 63.3367 5.4875 8.59154
      vertex 64.3278 5.4875 5.40846
    endloop
  endfacet
  facet normal 0 1 0
    outer loop
      vertex 63.3367 5.4875 8.59154
      vertex 64.3134 5.4875 5.40846
      vertex 63.3222 5.4875 8.59154
    endloop
  endfacet
  facet normal 0 1 -0
    outer loop
      vertex 59.3134 5.4875 5.40846
      vertex 58.3367 5.4875 8.59154
      vertex 59.3278 5.4875 5.40846
    endloop
  endfacet
  facet normal 0 1 0
    outer loop
      vertex 58.3367 5.4875 8.59154
      vertex 59.3134 5.4875 5.40846
      vertex 58.3222 5.4875 8.59154
    endloop
  endfacet
  facet normal 0 1 -0
    outer loop
      vertex 54.3134 5.4875 5.40846
      vertex 53.3367 5.4875 8.59154
      vertex 54.3278 5.4875 5.40846
    endloop
  endfacet
  facet normal 0 1 0
    outer loop
      vertex 53.3367 5.4875 8.59154
      vertex 54.3134 5.4875 5.40846
      vertex 53.3222 5.4875 8.59154
    endloop
  endfacet
  facet normal 0 1 -0
    outer loop
      vertex 49.3134 5.4875 5.40846
      vertex 48.3367 5.4875 8.59154
      vertex 49.3278 5.4875 5.40846
    endloop
  endfacet
  facet normal 0 1 0
    outer loop
      vertex 48.3367 5.4875 8.59154
      vertex 49.3134 5.4875 5.40846
      vertex 48.3222 5.4875 8.59154
    endloop
  endfacet
  facet normal 0 1 -0
    outer loop
      vertex 44.3134 5.4875 5.40846
      vertex 43.3367 5.4875 8.59154
      vertex 44.3278 5.4875 5.40846
    endloop
  endfacet
  facet normal 0 1 0
    outer loop
      vertex 43.3367 5.4875 8.59154
      vertex 44.3134 5.4875 5.40846
      vertex 43.3222 5.4875 8.59154
    endloop
  endfacet
  facet normal 0 1 -0
    outer loop
      vertex 39.3134 5.4875 5.40846
      vertex 38.3367 5.4875 8.59154
      vertex 39.3278 5.4875 5.40846
    endloop
  endfacet
  facet normal 0 1 0
    outer loop
      vertex 38.3367 5.4875 8.59154
      vertex 39.3134 5.4875 5.40846
      vertex 38.3222 5.4875 8.59154
    endloop
  endfacet
  facet normal 0 1 -0
    outer loop
      vertex 34.3134 5.4875 5.40846
      vertex 33.3367 5.4875 8.59154
      vertex 34.3278 5.4875 5.40846
    endloop
  endfacet
  facet normal 0 1 0
    outer loop
      vertex 33.3367 5.4875 8.59154
      vertex 34.3134 5.4875 5.40846
      vertex 33.3222 5.4875 8.59154
    endloop
  endfacet
  facet normal 0 1 -0
    outer loop
      vertex 29.3134 5.4875 5.40846
      vertex 28.3367 5.4875 8.59154
      vertex 29.3278 5.4875 5.40846
    endloop
  endfacet
  facet normal 0 1 0
    outer loop
      vertex 28.3367 5.4875 8.59154
      vertex 29.3134 5.4875 5.40846
      vertex 28.3222 5.4875 8.59154
    endloop
  endfacet
  facet normal 0 1 -0
    outer loop
      vertex 24.3134 5.4875 5.40846
      vertex 23.3367 5.4875 8.59154
      vertex 24.3278 5.4875 5.40846
    endloop
  endfacet
  facet normal 0 1 0
    outer loop
      vertex 23.3367 5.4875 8.59154
      vertex 24.3134 5.4875 5.40846
      vertex 23.3222 5.4875 8.59154
    endloop
  endfacet
  facet normal 0 1 -0
    outer loop
      vertex 19.3134 5.4875 5.40846
      vertex 18.3367 5.4875 8.59154
      vertex 19.3278 5.4875 5.40846
    endloop
  endfacet
  facet normal 0 1 0
    outer loop
      vertex 18.3367 5.4875 8.59154
      vertex 19.3134 5.4875 5.40846
      vertex 18.3222 5.4875 8.59154
    endloop
  endfacet
  facet normal 0 1 -0
    outer loop
      vertex 14.3134 5.4875 5.40846
      vertex 13.3367 5.4875 8.59154
      vertex 14.3278 5.4875 5.40846
    endloop
  endfacet
  facet normal 0 1 0
    outer loop
      vertex 13.3367 5.4875 8.59154
      vertex 14.3134 5.4875 5.40846
      vertex 13.3222 5.4875 8.59154
    endloop
  endfacet
  facet normal 0 1 -0
    outer loop
      vertex 9.31336 5.4875 5.40846
      vertex 8.33665 5.4875 8.59154
      vertex 9.32779 5.4875 5.40846
    endloop
  endfacet
  facet normal 0 1 0
    outer loop
      vertex 8.33665 5.4875 8.59154
      vertex 9.31336 5.4875 5.40846
      vertex 8.32222 5.4875 8.59154
    endloop
  endfacet
  facet normal 0 1 -0
    outer loop
      vertex 4.31336 5.4875 5.40846
      vertex 3.33665 5.4875 8.59154
      vertex 4.32779 5.4875 5.40846
    endloop
  endfacet
  facet normal 0 1 0
    outer loop
      vertex 3.33665 5.4875 8.59154
      vertex 4.31336 5.4875 5.40846
      vertex 3.32222 5.4875 8.59154
    endloop
  endfacet
  facet normal 0 0 1
    outer loop
      vertex 0 2.6065 8.59154
      vertex 0 0 8.59154
      vertex 1.50486 0 8.59154
    endloop
  endfacet
  facet normal -0 0 1
    outer loop
      vertex 0 11 8.59154
      vertex 0 8.3935 8.59154
      vertex 1.50486 11 8.59154
    endloop
  endfacet
  facet normal -0 0 1
    outer loop
      vertex 4.84599 11 8.59154
      vertex 3.33665 5.5125 8.59154
      vertex 6.50486 11 8.59154
    endloop
  endfacet
  facet normal 0 0 1
    outer loop
      vertex 4.84599 11 8.59154
      vertex 3.32222 5.5125 8.59154
      vertex 3.33665 5.5125 8.59154
    endloop
  endfacet
  facet normal 0 0 1
    outer loop
      vertex 3.32222 5.5125 8.59154
      vertex 1.67056 5.5 8.59154
      vertex 3.32222 5.4875 8.59154
    endloop
  endfacet
  facet normal 0 0 1
    outer loop
      vertex 1.67056 5.5 8.59154
      vertex 3.32222 5.5125 8.59154
      vertex 4.84599 11 8.59154
    endloop
  endfacet
  facet normal 0 0 1
    outer loop
      vertex 3.32944 5.5 8.59154
      vertex 3.32222 5.5125 8.59154
      vertex 3.32222 5.4875 8.59154
    endloop
  endfacet
  facet normal 0 0 1
    outer loop
      vertex 3.33665 5.4875 8.59154
      vertex 4.84599 0 8.59154
      vertex 6.50486 0 8.59154
    endloop
  endfacet
  facet normal -0 0 1
    outer loop
      vertex 3.32222 5.4875 8.59154
      vertex 4.84599 0 8.59154
      vertex 3.33665 5.4875 8.59154
    endloop
  endfacet
  facet normal 0 0 1
    outer loop
      vertex 4.84599 0 8.59154
      vertex 3.32222 5.4875 8.59154
      vertex 1.67056 5.5 8.59154
    endloop
  endfacet
  facet normal -0.836158 0.482756 0.26036
    outer loop
      vertex 0.679428 5.5 5.40846
      vertex 4.84599 11 8.59154
      vertex 3.85485 11 5.40846
    endloop
  endfacet
  facet normal -0.836158 0.482756 0.26036
    outer loop
      vertex 4.84599 11 8.59154
      vertex 0.679428 5.5 5.40846
      vertex 1.67056 5.5 8.59154
    endloop
  endfacet
  facet normal -0 0 1
    outer loop
      vertex 2.496 11 5.40846
      vertex 0.679428 5.5 5.40846
      vertex 3.85485 11 5.40846
    endloop
  endfacet
  facet normal 0 -0 1
    outer loop
      vertex 0.679428 5.5 5.40846
      vertex 2.496 11 5.40846
      vertex 0 6.6768 5.40846
    endloop
  endfacet
  facet normal 0 0 1
    outer loop
      vertex 0.679428 5.5 5.40846
      vertex 2.496 0 5.40846
      vertex 3.85485 0 5.40846
    endloop
  endfacet
  facet normal 0 0 1
    outer loop
      vertex 0 4.3232 5.40846
      vertex 0.679428 5.5 5.40846
      vertex 0 6.6768 5.40846
    endloop
  endfacet
  facet normal 0 0 1
    outer loop
      vertex 0.679428 5.5 5.40846
      vertex 0 4.3232 5.40846
      vertex 2.496 0 5.40846
    endloop
  endfacet
  facet normal 0.836158 -0.482756 0.26036
    outer loop
      vertex 0 8.3935 8.59154
      vertex 2.496 11 5.40846
      vertex 1.50486 11 8.59154
    endloop
  endfacet
  facet normal 0.836158 -0.482756 0.26036
    outer loop
      vertex 2.496 11 5.40846
      vertex 0 8.3935 8.59154
      vertex 0 6.6768 5.40846
    endloop
  endfacet
  facet normal -0 0 1
    outer loop
      vertex 9.84599 11 8.59154
      vertex 8.33665 5.5125 8.59154
      vertex 11.5049 11 8.59154
    endloop
  endfacet
  facet normal 0 0 1
    outer loop
      vertex 9.84599 11 8.59154
      vertex 8.32222 5.5125 8.59154
      vertex 8.33665 5.5125 8.59154
    endloop
  endfacet
  facet normal 0 0 1
    outer loop
      vertex 8.32222 5.5125 8.59154
      vertex 6.67056 5.5 8.59154
      vertex 8.32222 5.4875 8.59154
    endloop
  endfacet
  facet normal 0 0 1
    outer loop
      vertex 6.67056 5.5 8.59154
      vertex 8.32222 5.5125 8.59154
      vertex 9.84599 11 8.59154
    endloop
  endfacet
  facet normal 0 0 1
    outer loop
      vertex 8.32944 5.5 8.59154
      vertex 8.32222 5.5125 8.59154
      vertex 8.32222 5.4875 8.59154
    endloop
  endfacet
  facet normal 0 0 1
    outer loop
      vertex 8.33665 5.4875 8.59154
      vertex 9.84599 0 8.59154
      vertex 11.5049 0 8.59154
    endloop
  endfacet
  facet normal -0 0 1
    outer loop
      vertex 8.32222 5.4875 8.59154
      vertex 9.84599 0 8.59154
      vertex 8.33665 5.4875 8.59154
    endloop
  endfacet
  facet normal 0 0 1
    outer loop
      vertex 9.84599 0 8.59154
      vertex 8.32222 5.4875 8.59154
      vertex 6.67056 5.5 8.59154
    endloop
  endfacet
  facet normal -0.836158 0.482756 0.26036
    outer loop
      vertex 5.67943 5.5 5.40846
      vertex 9.84599 11 8.59154
      vertex 8.85485 11 5.40846
    endloop
  endfacet
  facet normal -0.836158 0.482756 0.26036
    outer loop
      vertex 9.84599 11 8.59154
      vertex 5.67943 5.5 5.40846
      vertex 6.67056 5.5 8.59154
    endloop
  endfacet
  facet normal -0 0 1
    outer loop
      vertex 7.496 11 5.40846
      vertex 5.67943 5.5 5.40846
      vertex 8.85485 11 5.40846
    endloop
  endfacet
  facet normal 0 -0 1
    outer loop
      vertex 5.67943 5.5 5.40846
      vertex 7.496 11 5.40846
      vertex 4.32779 5.5125 5.40846
    endloop
  endfacet
  facet normal 0 0 1
    outer loop
      vertex 5.67943 5.5 5.40846
      vertex 7.496 0 5.40846
      vertex 8.85485 0 5.40846
    endloop
  endfacet
  facet normal 0 0 1
    outer loop
      vertex 4.32779 5.4875 5.40846
      vertex 5.67943 5.5 5.40846
      vertex 4.32779 5.5125 5.40846
    endloop
  endfacet
  facet normal 0 0 1
    outer loop
      vertex 5.67943 5.5 5.40846
      vertex 4.32779 5.4875 5.40846
      vertex 7.496 0 5.40846
    endloop
  endfacet
  facet normal 0 0 1
    outer loop
      vertex 4.32779 5.5125 5.40846
      vertex 4.32057 5.5 5.40846
      vertex 4.32779 5.4875 5.40846
    endloop
  endfacet
  facet normal 0 -0 1
    outer loop
      vertex 4.32057 5.5 5.40846
      vertex 4.32779 5.5125 5.40846
      vertex 4.31336 5.5125 5.40846
    endloop
  endfacet
  facet normal 0 0 1
    outer loop
      vertex 4.32779 5.4875 5.40846
      vertex 4.32057 5.5 5.40846
      vertex 4.31336 5.4875 5.40846
    endloop
  endfacet
  facet normal 0.83616 -0.482752 0.26036
    outer loop
      vertex 3.32222 5.4875 8.59154
      vertex 4.32057 5.5 5.40846
      vertex 3.32944 5.5 8.59154
    endloop
  endfacet
  facet normal 0.836166 -0.48274 0.260363
    outer loop
      vertex 4.32057 5.5 5.40846
      vertex 3.32222 5.4875 8.59154
      vertex 4.31336 5.4875 5.40846
    endloop
  endfacet
  facet normal 0.836158 -0.482756 0.26036
    outer loop
      vertex 3.33665 5.5125 8.59154
      vertex 7.496 11 5.40846
      vertex 6.50486 11 8.59154
    endloop
  endfacet
  facet normal 0.836158 -0.482756 0.26036
    outer loop
      vertex 7.496 11 5.40846
      vertex 3.33665 5.5125 8.59154
      vertex 4.32779 5.5125 5.40846
    endloop
  endfacet
  facet normal -0 0 1
    outer loop
      vertex 14.846 11 8.59154
      vertex 13.3367 5.5125 8.59154
      vertex 16.5049 11 8.59154
    endloop
  endfacet
  facet normal 0 0 1
    outer loop
      vertex 14.846 11 8.59154
      vertex 13.3222 5.5125 8.59154
      vertex 13.3367 5.5125 8.59154
    endloop
  endfacet
  facet normal 0 0 1
    outer loop
      vertex 13.3222 5.5125 8.59154
      vertex 11.6706 5.5 8.59154
      vertex 13.3222 5.4875 8.59154
    endloop
  endfacet
  facet normal 0 0 1
    outer loop
      vertex 11.6706 5.5 8.59154
      vertex 13.3222 5.5125 8.59154
      vertex 14.846 11 8.59154
    endloop
  endfacet
  facet normal 0 0 1
    outer loop
      vertex 13.3294 5.5 8.59154
      vertex 13.3222 5.5125 8.59154
      vertex 13.3222 5.4875 8.59154
    endloop
  endfacet
  facet normal 0 0 1
    outer loop
      vertex 13.3367 5.4875 8.59154
      vertex 14.846 0 8.59154
      vertex 16.5049 0 8.59154
    endloop
  endfacet
  facet normal -0 0 1
    outer loop
      vertex 13.3222 5.4875 8.59154
      vertex 14.846 0 8.59154
      vertex 13.3367 5.4875 8.59154
    endloop
  endfacet
  facet normal 0 0 1
    outer loop
      vertex 14.846 0 8.59154
      vertex 13.3222 5.4875 8.59154
      vertex 11.6706 5.5 8.59154
    endloop
  endfacet
  facet normal -0.836158 0.482756 0.26036
    outer loop
      vertex 10.6794 5.5 5.40846
      vertex 14.846 11 8.59154
      vertex 13.8549 11 5.40846
    endloop
  endfacet
  facet normal -0.836158 0.482756 0.26036
    outer loop
      vertex 14.846 11 8.59154
      vertex 10.6794 5.5 5.40846
      vertex 11.6706 5.5 8.59154
    endloop
  endfacet
  facet normal -0 0 1
    outer loop
      vertex 12.496 11 5.40846
      vertex 10.6794 5.5 5.40846
      vertex 13.8549 11 5.40846
    endloop
  endfacet
  facet normal 0 -0 1
    outer loop
      vertex 10.6794 5.5 5.40846
      vertex 12.496 11 5.40846
      vertex 9.32779 5.5125 5.40846
    endloop
  endfacet
  facet normal 0 0 1
    outer loop
      vertex 10.6794 5.5 5.40846
      vertex 12.496 0 5.40846
      vertex 13.8549 0 5.40846
    endloop
  endfacet
  facet normal 0 0 1
    outer loop
      vertex 9.32779 5.4875 5.40846
      vertex 10.6794 5.5 5.40846
      vertex 9.32779 5.5125 5.40846
    endloop
  endfacet
  facet normal 0 0 1
    outer loop
      vertex 10.6794 5.5 5.40846
      vertex 9.32779 5.4875 5.40846
      vertex 12.496 0 5.40846
    endloop
  endfacet
  facet normal 0 0 1
    outer loop
      vertex 9.32779 5.5125 5.40846
      vertex 9.32057 5.5 5.40846
      vertex 9.32779 5.4875 5.40846
    endloop
  endfacet
  facet normal 0 -0 1
    outer loop
      vertex 9.32057 5.5 5.40846
      vertex 9.32779 5.5125 5.40846
      vertex 9.31336 5.5125 5.40846
    endloop
  endfacet
  facet normal 0 0 1
    outer loop
      vertex 9.32779 5.4875 5.40846
      vertex 9.32057 5.5 5.40846
      vertex 9.31336 5.4875 5.40846
    endloop
  endfacet
  facet normal 0.836166 -0.48274 0.260362
    outer loop
      vertex 8.32222 5.4875 8.59154
      vertex 9.32057 5.5 5.40846
      vertex 8.32944 5.5 8.59154
    endloop
  endfacet
  facet normal 0.836166 -0.48274 0.260362
    outer loop
      vertex 9.32057 5.5 5.40846
      vertex 8.32222 5.4875 8.59154
      vertex 9.31336 5.4875 5.40846
    endloop
  endfacet
  facet normal 0.836158 -0.482756 0.26036
    outer loop
      vertex 8.33665 5.5125 8.59154
      vertex 12.496 11 5.40846
      vertex 11.5049 11 8.59154
    endloop
  endfacet
  facet normal 0.836158 -0.482756 0.26036
    outer loop
      vertex 12.496 11 5.40846
      vertex 8.33665 5.5125 8.59154
      vertex 9.32779 5.5125 5.40846
    endloop
  endfacet
  facet normal -0 0 1
    outer loop
      vertex 19.846 11 8.59154
      vertex 18.3367 5.5125 8.59154
      vertex 21.5049 11 8.59154
    endloop
  endfacet
  facet normal 0 0 1
    outer loop
      vertex 19.846 11 8.59154
      vertex 18.3222 5.5125 8.59154
      vertex 18.3367 5.5125 8.59154
    endloop
  endfacet
  facet normal 0 0 1
    outer loop
      vertex 18.3222 5.5125 8.59154
      vertex 16.6706 5.5 8.59154
      vertex 18.3222 5.4875 8.59154
    endloop
  endfacet
  facet normal 0 0 1
    outer loop
      vertex 16.6706 5.5 8.59154
      vertex 18.3222 5.5125 8.59154
      vertex 19.846 11 8.59154
    endloop
  endfacet
  facet normal 0 0 1
    outer loop
      vertex 18.3294 5.5 8.59154
      vertex 18.3222 5.5125 8.59154
      vertex 18.3222 5.4875 8.59154
    endloop
  endfacet
  facet normal 0 0 1
    outer loop
      vertex 18.3367 5.4875 8.59154
      vertex 19.846 0 8.59154
      vertex 21.5049 0 8.59154
    endloop
  endfacet
  facet normal -0 0 1
    outer loop
      vertex 18.3222 5.4875 8.59154
      vertex 19.846 0 8.59154
      vertex 18.3367 5.4875 8.59154
    endloop
  endfacet
  facet normal 0 0 1
    outer loop
      vertex 19.846 0 8.59154
      vertex 18.3222 5.4875 8.59154
      vertex 16.6706 5.5 8.59154
    endloop
  endfacet
  facet normal -0.836158 0.482756 0.26036
    outer loop
      vertex 15.6794 5.5 5.40846
      vertex 19.846 11 8.59154
      vertex 18.8549 11 5.40846
    endloop
  endfacet
  facet normal -0.836158 0.482756 0.26036
    outer loop
      vertex 19.846 11 8.59154
      vertex 15.6794 5.5 5.40846
      vertex 16.6706 5.5 8.59154
    endloop
  endfacet
  facet normal -0 0 1
    outer loop
      vertex 17.496 11 5.40846
      vertex 15.6794 5.5 5.40846
      vertex 18.8549 11 5.40846
    endloop
  endfacet
  facet normal 0 -0 1
    outer loop
      vertex 15.6794 5.5 5.40846
      vertex 17.496 11 5.40846
      vertex 14.3278 5.5125 5.40846
    endloop
  endfacet
  facet normal 0 0 1
    outer loop
      vertex 15.6794 5.5 5.40846
      vertex 17.496 0 5.40846
      vertex 18.8549 0 5.40846
    endloop
  endfacet
  facet normal 0 0 1
    outer loop
      vertex 14.3278 5.4875 5.40846
      vertex 15.6794 5.5 5.40846
      vertex 14.3278 5.5125 5.40846
    endloop
  endfacet
  facet normal 0 0 1
    outer loop
      vertex 15.6794 5.5 5.40846
      vertex 14.3278 5.4875 5.40846
      vertex 17.496 0 5.40846
    endloop
  endfacet
  facet normal 0 0 1
    outer loop
      vertex 14.3278 5.5125 5.40846
      vertex 14.3206 5.5 5.40846
      vertex 14.3278 5.4875 5.40846
    endloop
  endfacet
  facet normal 0 -0 1
    outer loop
      vertex 14.3206 5.5 5.40846
      vertex 14.3278 5.5125 5.40846
      vertex 14.3134 5.5125 5.40846
    endloop
  endfacet
  facet normal 0 0 1
    outer loop
      vertex 14.3278 5.4875 5.40846
      vertex 14.3206 5.5 5.40846
      vertex 14.3134 5.4875 5.40846
    endloop
  endfacet
  facet normal 0.836166 -0.48274 0.260362
    outer loop
      vertex 13.3222 5.4875 8.59154
      vertex 14.3206 5.5 5.40846
      vertex 13.3294 5.5 8.59154
    endloop
  endfacet
  facet normal 0.836166 -0.48274 0.260362
    outer loop
      vertex 14.3206 5.5 5.40846
      vertex 13.3222 5.4875 8.59154
      vertex 14.3134 5.4875 5.40846
    endloop
  endfacet
  facet normal 0.836158 -0.482756 0.26036
    outer loop
      vertex 13.3367 5.5125 8.59154
      vertex 17.496 11 5.40846
      vertex 16.5049 11 8.59154
    endloop
  endfacet
  facet normal 0.836158 -0.482756 0.26036
    outer loop
      vertex 17.496 11 5.40846
      vertex 13.3367 5.5125 8.59154
      vertex 14.3278 5.5125 5.40846
    endloop
  endfacet
  facet normal -0 0 1
    outer loop
      vertex 24.846 11 8.59154
      vertex 23.3367 5.5125 8.59154
      vertex 26.5049 11 8.59154
    endloop
  endfacet
  facet normal 0 0 1
    outer loop
      vertex 24.846 11 8.59154
      vertex 23.3222 5.5125 8.59154
      vertex 23.3367 5.5125 8.59154
    endloop
  endfacet
  facet normal 0 0 1
    outer loop
      vertex 23.3222 5.5125 8.59154
      vertex 21.6706 5.5 8.59154
      vertex 23.3222 5.4875 8.59154
    endloop
  endfacet
  facet normal 0 0 1
    outer loop
      vertex 21.6706 5.5 8.59154
      vertex 23.3222 5.5125 8.59154
      vertex 24.846 11 8.59154
    endloop
  endfacet
  facet normal 0 0 1
    outer loop
      vertex 23.3294 5.5 8.59154
      vertex 23.3222 5.5125 8.59154
      vertex 23.3222 5.4875 8.59154
    endloop
  endfacet
  facet normal 0 0 1
    outer loop
      vertex 23.3367 5.4875 8.59154
      vertex 24.846 0 8.59154
      vertex 26.5049 0 8.59154
    endloop
  endfacet
  facet normal -0 0 1
    outer loop
      vertex 23.3222 5.4875 8.59154
      vertex 24.846 0 8.59154
      vertex 23.3367 5.4875 8.59154
    endloop
  endfacet
  facet normal 0 0 1
    outer loop
      vertex 24.846 0 8.59154
      vertex 23.3222 5.4875 8.59154
      vertex 21.6706 5.5 8.59154
    endloop
  endfacet
  facet normal -0.836158 0.482756 0.26036
    outer loop
      vertex 20.6794 5.5 5.40846
      vertex 24.846 11 8.59154
      vertex 23.8549 11 5.40846
    endloop
  endfacet
  facet normal -0.836158 0.482756 0.26036
    outer loop
      vertex 24.846 11 8.59154
      vertex 20.6794 5.5 5.40846
      vertex 21.6706 5.5 8.59154
    endloop
  endfacet
  facet normal -0 0 1
    outer loop
      vertex 22.496 11 5.40846
      vertex 20.6794 5.5 5.40846
      vertex 23.8549 11 5.40846
    endloop
  endfacet
  facet normal 0 -0 1
    outer loop
      vertex 20.6794 5.5 5.40846
      vertex 22.496 11 5.40846
      vertex 19.3278 5.5125 5.40846
    endloop
  endfacet
  facet normal 0 0 1
    outer loop
      vertex 20.6794 5.5 5.40846
      vertex 22.496 0 5.40846
      vertex 23.8549 0 5.40846
    endloop
  endfacet
  facet normal 0 0 1
    outer loop
      vertex 19.3278 5.4875 5.40846
      vertex 20.6794 5.5 5.40846
      vertex 19.3278 5.5125 5.40846
    endloop
  endfacet
  facet normal 0 0 1
    outer loop
      vertex 20.6794 5.5 5.40846
      vertex 19.3278 5.4875 5.40846
      vertex 22.496 0 5.40846
    endloop
  endfacet
  facet normal 0 0 1
    outer loop
      vertex 19.3278 5.5125 5.40846
      vertex 19.3206 5.5 5.40846
      vertex 19.3278 5.4875 5.40846
    endloop
  endfacet
  facet normal 0 -0 1
    outer loop
      vertex 19.3206 5.5 5.40846
      vertex 19.3278 5.5125 5.40846
      vertex 19.3134 5.5125 5.40846
    endloop
  endfacet
  facet normal 0 0 1
    outer loop
      vertex 19.3278 5.4875 5.40846
      vertex 19.3206 5.5 5.40846
      vertex 19.3134 5.4875 5.40846
    endloop
  endfacet
  facet normal 0.83614 -0.482789 0.260354
    outer loop
      vertex 18.3222 5.4875 8.59154
      vertex 19.3206 5.5 5.40846
      vertex 18.3294 5.5 8.59154
    endloop
  endfacet
  facet normal 0.83614 -0.482789 0.260354
    outer loop
      vertex 19.3206 5.5 5.40846
      vertex 18.3222 5.4875 8.59154
      vertex 19.3134 5.4875 5.40846
    endloop
  endfacet
  facet normal 0.836158 -0.482756 0.26036
    outer loop
      vertex 18.3367 5.5125 8.59154
      vertex 22.496 11 5.40846
      vertex 21.5049 11 8.59154
    endloop
  endfacet
  facet normal 0.836158 -0.482756 0.26036
    outer loop
      vertex 22.496 11 5.40846
      vertex 18.3367 5.5125 8.59154
      vertex 19.3278 5.5125 5.40846
    endloop
  endfacet
  facet normal -0 0 1
    outer loop
      vertex 29.846 11 8.59154
      vertex 28.3367 5.5125 8.59154
      vertex 31.5049 11 8.59154
    endloop
  endfacet
  facet normal 0 0 1
    outer loop
      vertex 29.846 11 8.59154
      vertex 28.3222 5.5125 8.59154
      vertex 28.3367 5.5125 8.59154
    endloop
  endfacet
  facet normal 0 0 1
    outer loop
      vertex 28.3222 5.5125 8.59154
      vertex 26.6706 5.5 8.59154
      vertex 28.3222 5.4875 8.59154
    endloop
  endfacet
  facet normal 0 0 1
    outer loop
      vertex 26.6706 5.5 8.59154
      vertex 28.3222 5.5125 8.59154
      vertex 29.846 11 8.59154
    endloop
  endfacet
  facet normal 0 0 1
    outer loop
      vertex 28.3294 5.5 8.59154
      vertex 28.3222 5.5125 8.59154
      vertex 28.3222 5.4875 8.59154
    endloop
  endfacet
  facet normal 0 0 1
    outer loop
      vertex 28.3367 5.4875 8.59154
      vertex 29.846 0 8.59154
      vertex 31.5049 0 8.59154
    endloop
  endfacet
  facet normal -0 0 1
    outer loop
      vertex 28.3222 5.4875 8.59154
      vertex 29.846 0 8.59154
      vertex 28.3367 5.4875 8.59154
    endloop
  endfacet
  facet normal 0 0 1
    outer loop
      vertex 29.846 0 8.59154
      vertex 28.3222 5.4875 8.59154
      vertex 26.6706 5.5 8.59154
    endloop
  endfacet
  facet normal -0.836158 0.482756 0.26036
    outer loop
      vertex 25.6794 5.5 5.40846
      vertex 29.846 11 8.59154
      vertex 28.8549 11 5.40846
    endloop
  endfacet
  facet normal -0.836158 0.482756 0.26036
    outer loop
      vertex 29.846 11 8.59154
      vertex 25.6794 5.5 5.40846
      vertex 26.6706 5.5 8.59154
    endloop
  endfacet
  facet normal -0 0 1
    outer loop
      vertex 27.496 11 5.40846
      vertex 25.6794 5.5 5.40846
      vertex 28.8549 11 5.40846
    endloop
  endfacet
  facet normal 0 -0 1
    outer loop
      vertex 25.6794 5.5 5.40846
      vertex 27.496 11 5.40846
      vertex 24.3278 5.5125 5.40846
    endloop
  endfacet
  facet normal 0 0 1
    outer loop
      vertex 25.6794 5.5 5.40846
      vertex 27.496 0 5.40846
      vertex 28.8549 0 5.40846
    endloop
  endfacet
  facet normal 0 0 1
    outer loop
      vertex 24.3278 5.4875 5.40846
      vertex 25.6794 5.5 5.40846
      vertex 24.3278 5.5125 5.40846
    endloop
  endfacet
  facet normal 0 0 1
    outer loop
      vertex 25.6794 5.5 5.40846
      vertex 24.3278 5.4875 5.40846
      vertex 27.496 0 5.40846
    endloop
  endfacet
  facet normal 0 0 1
    outer loop
      vertex 24.3278 5.5125 5.40846
      vertex 24.3206 5.5 5.40846
      vertex 24.3278 5.4875 5.40846
    endloop
  endfacet
  facet normal 0 -0 1
    outer loop
      vertex 24.3206 5.5 5.40846
      vertex 24.3278 5.5125 5.40846
      vertex 24.3134 5.5125 5.40846
    endloop
  endfacet
  facet normal 0 0 1
    outer loop
      vertex 24.3278 5.4875 5.40846
      vertex 24.3206 5.5 5.40846
      vertex 24.3134 5.4875 5.40846
    endloop
  endfacet
  facet normal 0.83614 -0.482789 0.260354
    outer loop
      vertex 23.3222 5.4875 8.59154
      vertex 24.3206 5.5 5.40846
      vertex 23.3294 5.5 8.59154
    endloop
  endfacet
  facet normal 0.83614 -0.482789 0.260354
    outer loop
      vertex 24.3206 5.5 5.40846
      vertex 23.3222 5.4875 8.59154
      vertex 24.3134 5.4875 5.40846
    endloop
  endfacet
  facet normal 0.836158 -0.482756 0.26036
    outer loop
      vertex 23.3367 5.5125 8.59154
      vertex 27.496 11 5.40846
      vertex 26.5049 11 8.59154
    endloop
  endfacet
  facet normal 0.836158 -0.482756 0.26036
    outer loop
      vertex 27.496 11 5.40846
      vertex 23.3367 5.5125 8.59154
      vertex 24.3278 5.5125 5.40846
    endloop
  endfacet
  facet normal -0 0 1
    outer loop
      vertex 34.846 11 8.59154
      vertex 33.3367 5.5125 8.59154
      vertex 36.5049 11 8.59154
    endloop
  endfacet
  facet normal 0 0 1
    outer loop
      vertex 34.846 11 8.59154
      vertex 33.3222 5.5125 8.59154
      vertex 33.3367 5.5125 8.59154
    endloop
  endfacet
  facet normal 0 0 1
    outer loop
      vertex 33.3222 5.5125 8.59154
      vertex 31.6706 5.5 8.59154
      vertex 33.3222 5.4875 8.59154
    endloop
  endfacet
  facet normal 0 0 1
    outer loop
      vertex 31.6706 5.5 8.59154
      vertex 33.3222 5.5125 8.59154
      vertex 34.846 11 8.59154
    endloop
  endfacet
  facet normal 0 0 1
    outer loop
      vertex 33.3294 5.5 8.59154
      vertex 33.3222 5.5125 8.59154
      vertex 33.3222 5.4875 8.59154
    endloop
  endfacet
  facet normal 0 0 1
    outer loop
      vertex 33.3367 5.4875 8.59154
      vertex 34.846 0 8.59154
      vertex 36.5049 0 8.59154
    endloop
  endfacet
  facet normal -0 0 1
    outer loop
      vertex 33.3222 5.4875 8.59154
      vertex 34.846 0 8.59154
      vertex 33.3367 5.4875 8.59154
    endloop
  endfacet
  facet normal 0 0 1
    outer loop
      vertex 34.846 0 8.59154
      vertex 33.3222 5.4875 8.59154
      vertex 31.6706 5.5 8.59154
    endloop
  endfacet
  facet normal -0.836158 0.482756 0.26036
    outer loop
      vertex 30.6794 5.5 5.40846
      vertex 34.846 11 8.59154
      vertex 33.8549 11 5.40846
    endloop
  endfacet
  facet normal -0.836158 0.482756 0.26036
    outer loop
      vertex 34.846 11 8.59154
      vertex 30.6794 5.5 5.40846
      vertex 31.6706 5.5 8.59154
    endloop
  endfacet
  facet normal -0 0 1
    outer loop
      vertex 32.496 11 5.40846
      vertex 30.6794 5.5 5.40846
      vertex 33.8549 11 5.40846
    endloop
  endfacet
  facet normal 0 -0 1
    outer loop
      vertex 30.6794 5.5 5.40846
      vertex 32.496 11 5.40846
      vertex 29.3278 5.5125 5.40846
    endloop
  endfacet
  facet normal 0 0 1
    outer loop
      vertex 30.6794 5.5 5.40846
      vertex 32.496 0 5.40846
      vertex 33.8549 0 5.40846
    endloop
  endfacet
  facet normal 0 0 1
    outer loop
      vertex 29.3278 5.4875 5.40846
      vertex 30.6794 5.5 5.40846
      vertex 29.3278 5.5125 5.40846
    endloop
  endfacet
  facet normal 0 0 1
    outer loop
      vertex 30.6794 5.5 5.40846
      vertex 29.3278 5.4875 5.40846
      vertex 32.496 0 5.40846
    endloop
  endfacet
  facet normal 0 0 1
    outer loop
      vertex 29.3278 5.5125 5.40846
      vertex 29.3206 5.5 5.40846
      vertex 29.3278 5.4875 5.40846
    endloop
  endfacet
  facet normal 0 -0 1
    outer loop
      vertex 29.3206 5.5 5.40846
      vertex 29.3278 5.5125 5.40846
      vertex 29.3134 5.5125 5.40846
    endloop
  endfacet
  facet normal 0 0 1
    outer loop
      vertex 29.3278 5.4875 5.40846
      vertex 29.3206 5.5 5.40846
      vertex 29.3134 5.4875 5.40846
    endloop
  endfacet
  facet normal 0.83614 -0.482789 0.260354
    outer loop
      vertex 28.3222 5.4875 8.59154
      vertex 29.3206 5.5 5.40846
      vertex 28.3294 5.5 8.59154
    endloop
  endfacet
  facet normal 0.83614 -0.482789 0.260354
    outer loop
      vertex 29.3206 5.5 5.40846
      vertex 28.3222 5.4875 8.59154
      vertex 29.3134 5.4875 5.40846
    endloop
  endfacet
  facet normal 0.836158 -0.482756 0.26036
    outer loop
      vertex 28.3367 5.5125 8.59154
      vertex 32.496 11 5.40846
      vertex 31.5049 11 8.59154
    endloop
  endfacet
  facet normal 0.836158 -0.482756 0.26036
    outer loop
      vertex 32.496 11 5.40846
      vertex 28.3367 5.5125 8.59154
      vertex 29.3278 5.5125 5.40846
    endloop
  endfacet
  facet normal -0 0 1
    outer loop
      vertex 39.846 11 8.59154
      vertex 38.3367 5.5125 8.59154
      vertex 41.5049 11 8.59154
    endloop
  endfacet
  facet normal 0 0 1
    outer loop
      vertex 39.846 11 8.59154
      vertex 38.3222 5.5125 8.59154
      vertex 38.3367 5.5125 8.59154
    endloop
  endfacet
  facet normal 0 0 1
    outer loop
      vertex 38.3222 5.5125 8.59154
      vertex 36.6706 5.5 8.59154
      vertex 38.3222 5.4875 8.59154
    endloop
  endfacet
  facet normal 0 0 1
    outer loop
      vertex 36.6706 5.5 8.59154
      vertex 38.3222 5.5125 8.59154
      vertex 39.846 11 8.59154
    endloop
  endfacet
  facet normal 0 0 1
    outer loop
      vertex 38.3294 5.5 8.59154
      vertex 38.3222 5.5125 8.59154
      vertex 38.3222 5.4875 8.59154
    endloop
  endfacet
  facet normal 0 0 1
    outer loop
      vertex 38.3367 5.4875 8.59154
      vertex 39.846 0 8.59154
      vertex 41.5049 0 8.59154
    endloop
  endfacet
  facet normal -0 0 1
    outer loop
      vertex 38.3222 5.4875 8.59154
      vertex 39.846 0 8.59154
      vertex 38.3367 5.4875 8.59154
    endloop
  endfacet
  facet normal 0 0 1
    outer loop
      vertex 39.846 0 8.59154
      vertex 38.3222 5.4875 8.59154
      vertex 36.6706 5.5 8.59154
    endloop
  endfacet
  facet normal -0.836158 0.482756 0.26036
    outer loop
      vertex 35.6794 5.5 5.40846
      vertex 39.846 11 8.59154
      vertex 38.8549 11 5.40846
    endloop
  endfacet
  facet normal -0.836158 0.482756 0.26036
    outer loop
      vertex 39.846 11 8.59154
      vertex 35.6794 5.5 5.40846
      vertex 36.6706 5.5 8.59154
    endloop
  endfacet
  facet normal -0 0 1
    outer loop
      vertex 37.496 11 5.40846
      vertex 35.6794 5.5 5.40846
      vertex 38.8549 11 5.40846
    endloop
  endfacet
  facet normal 0 -0 1
    outer loop
      vertex 35.6794 5.5 5.40846
      vertex 37.496 11 5.40846
      vertex 34.3278 5.5125 5.40846
    endloop
  endfacet
  facet normal 0 0 1
    outer loop
      vertex 35.6794 5.5 5.40846
      vertex 37.496 0 5.40846
      vertex 38.8549 0 5.40846
    endloop
  endfacet
  facet normal 0 0 1
    outer loop
      vertex 34.3278 5.4875 5.40846
      vertex 35.6794 5.5 5.40846
      vertex 34.3278 5.5125 5.40846
    endloop
  endfacet
  facet normal 0 0 1
    outer loop
      vertex 35.6794 5.5 5.40846
      vertex 34.3278 5.4875 5.40846
      vertex 37.496 0 5.40846
    endloop
  endfacet
  facet normal 0 0 1
    outer loop
      vertex 34.3278 5.5125 5.40846
      vertex 34.3206 5.5 5.40846
      vertex 34.3278 5.4875 5.40846
    endloop
  endfacet
  facet normal 0 -0 1
    outer loop
      vertex 34.3206 5.5 5.40846
      vertex 34.3278 5.5125 5.40846
      vertex 34.3134 5.5125 5.40846
    endloop
  endfacet
  facet normal 0 0 1
    outer loop
      vertex 34.3278 5.4875 5.40846
      vertex 34.3206 5.5 5.40846
      vertex 34.3134 5.4875 5.40846
    endloop
  endfacet
  facet normal 0.83614 -0.482789 0.260354
    outer loop
      vertex 33.3222 5.4875 8.59154
      vertex 34.3206 5.5 5.40846
      vertex 33.3294 5.5 8.59154
    endloop
  endfacet
  facet normal 0.83614 -0.482789 0.260354
    outer loop
      vertex 34.3206 5.5 5.40846
      vertex 33.3222 5.4875 8.59154
      vertex 34.3134 5.4875 5.40846
    endloop
  endfacet
  facet normal 0.836158 -0.482756 0.26036
    outer loop
      vertex 33.3367 5.5125 8.59154
      vertex 37.496 11 5.40846
      vertex 36.5049 11 8.59154
    endloop
  endfacet
  facet normal 0.836158 -0.482756 0.26036
    outer loop
      vertex 37.496 11 5.40846
      vertex 33.3367 5.5125 8.59154
      vertex 34.3278 5.5125 5.40846
    endloop
  endfacet
  facet normal -0 0 1
    outer loop
      vertex 44.846 11 8.59154
      vertex 43.3367 5.5125 8.59154
      vertex 46.5049 11 8.59154
    endloop
  endfacet
  facet normal 0 0 1
    outer loop
      vertex 44.846 11 8.59154
      vertex 43.3222 5.5125 8.59154
      vertex 43.3367 5.5125 8.59154
    endloop
  endfacet
  facet normal 0 0 1
    outer loop
      vertex 43.3222 5.5125 8.59154
      vertex 41.6706 5.5 8.59154
      vertex 43.3222 5.4875 8.59154
    endloop
  endfacet
  facet normal 0 0 1
    outer loop
      vertex 41.6706 5.5 8.59154
      vertex 43.3222 5.5125 8.59154
      vertex 44.846 11 8.59154
    endloop
  endfacet
  facet normal 0 0 1
    outer loop
      vertex 43.3294 5.5 8.59154
      vertex 43.3222 5.5125 8.59154
      vertex 43.3222 5.4875 8.59154
    endloop
  endfacet
  facet normal 0 0 1
    outer loop
      vertex 43.3367 5.4875 8.59154
      vertex 44.846 0 8.59154
      vertex 46.5049 0 8.59154
    endloop
  endfacet
  facet normal -0 0 1
    outer loop
      vertex 43.3222 5.4875 8.59154
      vertex 44.846 0 8.59154
      vertex 43.3367 5.4875 8.59154
    endloop
  endfacet
  facet normal 0 0 1
    outer loop
      vertex 44.846 0 8.59154
      vertex 43.3222 5.4875 8.59154
      vertex 41.6706 5.5 8.59154
    endloop
  endfacet
  facet normal -0.836158 0.482756 0.26036
    outer loop
      vertex 40.6794 5.5 5.40846
      vertex 44.846 11 8.59154
      vertex 43.8549 11 5.40846
    endloop
  endfacet
  facet normal -0.836158 0.482756 0.26036
    outer loop
      vertex 44.846 11 8.59154
      vertex 40.6794 5.5 5.40846
      vertex 41.6706 5.5 8.59154
    endloop
  endfacet
  facet normal -0 0 1
    outer loop
      vertex 42.496 11 5.40846
      vertex 40.6794 5.5 5.40846
      vertex 43.8549 11 5.40846
    endloop
  endfacet
  facet normal 0 -0 1
    outer loop
      vertex 40.6794 5.5 5.40846
      vertex 42.496 11 5.40846
      vertex 39.3278 5.5125 5.40846
    endloop
  endfacet
  facet normal 0 0 1
    outer loop
      vertex 40.6794 5.5 5.40846
      vertex 42.496 0 5.40846
      vertex 43.8549 0 5.40846
    endloop
  endfacet
  facet normal 0 0 1
    outer loop
      vertex 39.3278 5.4875 5.40846
      vertex 40.6794 5.5 5.40846
      vertex 39.3278 5.5125 5.40846
    endloop
  endfacet
  facet normal 0 0 1
    outer loop
      vertex 40.6794 5.5 5.40846
      vertex 39.3278 5.4875 5.40846
      vertex 42.496 0 5.40846
    endloop
  endfacet
  facet normal 0 0 1
    outer loop
      vertex 39.3278 5.5125 5.40846
      vertex 39.3206 5.5 5.40846
      vertex 39.3278 5.4875 5.40846
    endloop
  endfacet
  facet normal 0 -0 1
    outer loop
      vertex 39.3206 5.5 5.40846
      vertex 39.3278 5.5125 5.40846
      vertex 39.3134 5.5125 5.40846
    endloop
  endfacet
  facet normal 0 0 1
    outer loop
      vertex 39.3278 5.4875 5.40846
      vertex 39.3206 5.5 5.40846
      vertex 39.3134 5.4875 5.40846
    endloop
  endfacet
  facet normal 0.83614 -0.482789 0.260354
    outer loop
      vertex 38.3222 5.4875 8.59154
      vertex 39.3206 5.5 5.40846
      vertex 38.3294 5.5 8.59154
    endloop
  endfacet
  facet normal 0.83614 -0.482789 0.260354
    outer loop
      vertex 39.3206 5.5 5.40846
      vertex 38.3222 5.4875 8.59154
      vertex 39.3134 5.4875 5.40846
    endloop
  endfacet
  facet normal 0.836158 -0.482756 0.26036
    outer loop
      vertex 38.3367 5.5125 8.59154
      vertex 42.496 11 5.40846
      vertex 41.5049 11 8.59154
    endloop
  endfacet
  facet normal 0.836158 -0.482756 0.26036
    outer loop
      vertex 42.496 11 5.40846
      vertex 38.3367 5.5125 8.59154
      vertex 39.3278 5.5125 5.40846
    endloop
  endfacet
  facet normal -0 0 1
    outer loop
      vertex 49.846 11 8.59154
      vertex 48.3367 5.5125 8.59154
      vertex 51.5049 11 8.59154
    endloop
  endfacet
  facet normal 0 0 1
    outer loop
      vertex 49.846 11 8.59154
      vertex 48.3222 5.5125 8.59154
      vertex 48.3367 5.5125 8.59154
    endloop
  endfacet
  facet normal 0 0 1
    outer loop
      vertex 48.3222 5.5125 8.59154
      vertex 46.6706 5.5 8.59154
      vertex 48.3222 5.4875 8.59154
    endloop
  endfacet
  facet normal 0 0 1
    outer loop
      vertex 46.6706 5.5 8.59154
      vertex 48.3222 5.5125 8.59154
      vertex 49.846 11 8.59154
    endloop
  endfacet
  facet normal 0 0 1
    outer loop
      vertex 48.3294 5.5 8.59154
      vertex 48.3222 5.5125 8.59154
      vertex 48.3222 5.4875 8.59154
    endloop
  endfacet
  facet normal 0 0 1
    outer loop
      vertex 48.3367 5.4875 8.59154
      vertex 49.846 0 8.59154
      vertex 51.5049 0 8.59154
    endloop
  endfacet
  facet normal -0 0 1
    outer loop
      vertex 48.3222 5.4875 8.59154
      vertex 49.846 0 8.59154
      vertex 48.3367 5.4875 8.59154
    endloop
  endfacet
  facet normal 0 0 1
    outer loop
      vertex 49.846 0 8.59154
      vertex 48.3222 5.4875 8.59154
      vertex 46.6706 5.5 8.59154
    endloop
  endfacet
  facet normal -0.836158 0.482756 0.26036
    outer loop
      vertex 45.6794 5.5 5.40846
      vertex 49.846 11 8.59154
      vertex 48.8549 11 5.40846
    endloop
  endfacet
  facet normal -0.836158 0.482756 0.26036
    outer loop
      vertex 49.846 11 8.59154
      vertex 45.6794 5.5 5.40846
      vertex 46.6706 5.5 8.59154
    endloop
  endfacet
  facet normal -0 0 1
    outer loop
      vertex 47.496 11 5.40846
      vertex 45.6794 5.5 5.40846
      vertex 48.8549 11 5.40846
    endloop
  endfacet
  facet normal 0 -0 1
    outer loop
      vertex 45.6794 5.5 5.40846
      vertex 47.496 11 5.40846
      vertex 44.3278 5.5125 5.40846
    endloop
  endfacet
  facet normal 0 0 1
    outer loop
      vertex 45.6794 5.5 5.40846
      vertex 47.496 0 5.40846
      vertex 48.8549 0 5.40846
    endloop
  endfacet
  facet normal 0 0 1
    outer loop
      vertex 44.3278 5.4875 5.40846
      vertex 45.6794 5.5 5.40846
      vertex 44.3278 5.5125 5.40846
    endloop
  endfacet
  facet normal 0 0 1
    outer loop
      vertex 45.6794 5.5 5.40846
      vertex 44.3278 5.4875 5.40846
      vertex 47.496 0 5.40846
    endloop
  endfacet
  facet normal 0 0 1
    outer loop
      vertex 44.3278 5.5125 5.40846
      vertex 44.3206 5.5 5.40846
      vertex 44.3278 5.4875 5.40846
    endloop
  endfacet
  facet normal 0 -0 1
    outer loop
      vertex 44.3206 5.5 5.40846
      vertex 44.3278 5.5125 5.40846
      vertex 44.3134 5.5125 5.40846
    endloop
  endfacet
  facet normal 0 0 1
    outer loop
      vertex 44.3278 5.4875 5.40846
      vertex 44.3206 5.5 5.40846
      vertex 44.3134 5.4875 5.40846
    endloop
  endfacet
  facet normal 0.83614 -0.482789 0.260354
    outer loop
      vertex 43.3222 5.4875 8.59154
      vertex 44.3206 5.5 5.40846
      vertex 43.3294 5.5 8.59154
    endloop
  endfacet
  facet normal 0.83614 -0.482789 0.260354
    outer loop
      vertex 44.3206 5.5 5.40846
      vertex 43.3222 5.4875 8.59154
      vertex 44.3134 5.4875 5.40846
    endloop
  endfacet
  facet normal 0.836158 -0.482756 0.26036
    outer loop
      vertex 43.3367 5.5125 8.59154
      vertex 47.496 11 5.40846
      vertex 46.5049 11 8.59154
    endloop
  endfacet
  facet normal 0.836158 -0.482756 0.26036
    outer loop
      vertex 47.496 11 5.40846
      vertex 43.3367 5.5125 8.59154
      vertex 44.3278 5.5125 5.40846
    endloop
  endfacet
  facet normal -0 0 1
    outer loop
      vertex 54.846 11 8.59154
      vertex 53.3367 5.5125 8.59154
      vertex 56.5049 11 8.59154
    endloop
  endfacet
  facet normal 0 0 1
    outer loop
      vertex 54.846 11 8.59154
      vertex 53.3222 5.5125 8.59154
      vertex 53.3367 5.5125 8.59154
    endloop
  endfacet
  facet normal 0 0 1
    outer loop
      vertex 53.3222 5.5125 8.59154
      vertex 51.6706 5.5 8.59154
      vertex 53.3222 5.4875 8.59154
    endloop
  endfacet
  facet normal 0 0 1
    outer loop
      vertex 51.6706 5.5 8.59154
      vertex 53.3222 5.5125 8.59154
      vertex 54.846 11 8.59154
    endloop
  endfacet
  facet normal 0 0 1
    outer loop
      vertex 53.3294 5.5 8.59154
      vertex 53.3222 5.5125 8.59154
      vertex 53.3222 5.4875 8.59154
    endloop
  endfacet
  facet normal 0 0 1
    outer loop
      vertex 53.3367 5.4875 8.59154
      vertex 54.846 0 8.59154
      vertex 56.5049 0 8.59154
    endloop
  endfacet
  facet normal -0 0 1
    outer loop
      vertex 53.3222 5.4875 8.59154
      vertex 54.846 0 8.59154
      vertex 53.3367 5.4875 8.59154
    endloop
  endfacet
  facet normal 0 0 1
    outer loop
      vertex 54.846 0 8.59154
      vertex 53.3222 5.4875 8.59154
      vertex 51.6706 5.5 8.59154
    endloop
  endfacet
  facet normal -0.836158 0.482756 0.26036
    outer loop
      vertex 50.6794 5.5 5.40846
      vertex 54.846 11 8.59154
      vertex 53.8549 11 5.40846
    endloop
  endfacet
  facet normal -0.836158 0.482756 0.26036
    outer loop
      vertex 54.846 11 8.59154
      vertex 50.6794 5.5 5.40846
      vertex 51.6706 5.5 8.59154
    endloop
  endfacet
  facet normal -0 0 1
    outer loop
      vertex 52.496 11 5.40846
      vertex 50.6794 5.5 5.40846
      vertex 53.8549 11 5.40846
    endloop
  endfacet
  facet normal 0 -0 1
    outer loop
      vertex 50.6794 5.5 5.40846
      vertex 52.496 11 5.40846
      vertex 49.3278 5.5125 5.40846
    endloop
  endfacet
  facet normal 0 0 1
    outer loop
      vertex 50.6794 5.5 5.40846
      vertex 52.496 0 5.40846
      vertex 53.8549 0 5.40846
    endloop
  endfacet
  facet normal 0 0 1
    outer loop
      vertex 49.3278 5.4875 5.40846
      vertex 50.6794 5.5 5.40846
      vertex 49.3278 5.5125 5.40846
    endloop
  endfacet
  facet normal 0 0 1
    outer loop
      vertex 50.6794 5.5 5.40846
      vertex 49.3278 5.4875 5.40846
      vertex 52.496 0 5.40846
    endloop
  endfacet
  facet normal 0 0 1
    outer loop
      vertex 49.3278 5.5125 5.40846
      vertex 49.3206 5.5 5.40846
      vertex 49.3278 5.4875 5.40846
    endloop
  endfacet
  facet normal 0 -0 1
    outer loop
      vertex 49.3206 5.5 5.40846
      vertex 49.3278 5.5125 5.40846
      vertex 49.3134 5.5125 5.40846
    endloop
  endfacet
  facet normal 0 0 1
    outer loop
      vertex 49.3278 5.4875 5.40846
      vertex 49.3206 5.5 5.40846
      vertex 49.3134 5.4875 5.40846
    endloop
  endfacet
  facet normal 0.83614 -0.482789 0.260354
    outer loop
      vertex 48.3222 5.4875 8.59154
      vertex 49.3206 5.5 5.40846
      vertex 48.3294 5.5 8.59154
    endloop
  endfacet
  facet normal 0.83614 -0.482789 0.260354
    outer loop
      vertex 49.3206 5.5 5.40846
      vertex 48.3222 5.4875 8.59154
      vertex 49.3134 5.4875 5.40846
    endloop
  endfacet
  facet normal 0.836158 -0.482756 0.26036
    outer loop
      vertex 48.3367 5.5125 8.59154
      vertex 52.496 11 5.40846
      vertex 51.5049 11 8.59154
    endloop
  endfacet
  facet normal 0.836158 -0.482756 0.26036
    outer loop
      vertex 52.496 11 5.40846
      vertex 48.3367 5.5125 8.59154
      vertex 49.3278 5.5125 5.40846
    endloop
  endfacet
  facet normal -0 0 1
    outer loop
      vertex 59.846 11 8.59154
      vertex 58.3367 5.5125 8.59154
      vertex 61.5049 11 8.59154
    endloop
  endfacet
  facet normal 0 0 1
    outer loop
      vertex 59.846 11 8.59154
      vertex 58.3222 5.5125 8.59154
      vertex 58.3367 5.5125 8.59154
    endloop
  endfacet
  facet normal 0 0 1
    outer loop
      vertex 58.3222 5.5125 8.59154
      vertex 56.6706 5.5 8.59154
      vertex 58.3222 5.4875 8.59154
    endloop
  endfacet
  facet normal 0 0 1
    outer loop
      vertex 56.6706 5.5 8.59154
      vertex 58.3222 5.5125 8.59154
      vertex 59.846 11 8.59154
    endloop
  endfacet
  facet normal 0 0 1
    outer loop
      vertex 58.3294 5.5 8.59154
      vertex 58.3222 5.5125 8.59154
      vertex 58.3222 5.4875 8.59154
    endloop
  endfacet
  facet normal 0 0 1
    outer loop
      vertex 58.3367 5.4875 8.59154
      vertex 59.846 0 8.59154
      vertex 61.5049 0 8.59154
    endloop
  endfacet
  facet normal -0 0 1
    outer loop
      vertex 58.3222 5.4875 8.59154
      vertex 59.846 0 8.59154
      vertex 58.3367 5.4875 8.59154
    endloop
  endfacet
  facet normal 0 0 1
    outer loop
      vertex 59.846 0 8.59154
      vertex 58.3222 5.4875 8.59154
      vertex 56.6706 5.5 8.59154
    endloop
  endfacet
  facet normal -0.836158 0.482756 0.26036
    outer loop
      vertex 55.6794 5.5 5.40846
      vertex 59.846 11 8.59154
      vertex 58.8549 11 5.40846
    endloop
  endfacet
  facet normal -0.836158 0.482756 0.26036
    outer loop
      vertex 59.846 11 8.59154
      vertex 55.6794 5.5 5.40846
      vertex 56.6706 5.5 8.59154
    endloop
  endfacet
  facet normal -0 0 1
    outer loop
      vertex 57.496 11 5.40846
      vertex 55.6794 5.5 5.40846
      vertex 58.8549 11 5.40846
    endloop
  endfacet
  facet normal 0 -0 1
    outer loop
      vertex 55.6794 5.5 5.40846
      vertex 57.496 11 5.40846
      vertex 54.3278 5.5125 5.40846
    endloop
  endfacet
  facet normal 0 0 1
    outer loop
      vertex 55.6794 5.5 5.40846
      vertex 57.496 0 5.40846
      vertex 58.8549 0 5.40846
    endloop
  endfacet
  facet normal 0 0 1
    outer loop
      vertex 54.3278 5.4875 5.40846
      vertex 55.6794 5.5 5.40846
      vertex 54.3278 5.5125 5.40846
    endloop
  endfacet
  facet normal 0 0 1
    outer loop
      vertex 55.6794 5.5 5.40846
      vertex 54.3278 5.4875 5.40846
      vertex 57.496 0 5.40846
    endloop
  endfacet
  facet normal 0 0 1
    outer loop
      vertex 54.3278 5.5125 5.40846
      vertex 54.3206 5.5 5.40846
      vertex 54.3278 5.4875 5.40846
    endloop
  endfacet
  facet normal 0 -0 1
    outer loop
      vertex 54.3206 5.5 5.40846
      vertex 54.3278 5.5125 5.40846
      vertex 54.3134 5.5125 5.40846
    endloop
  endfacet
  facet normal 0 0 1
    outer loop
      vertex 54.3278 5.4875 5.40846
      vertex 54.3206 5.5 5.40846
      vertex 54.3134 5.4875 5.40846
    endloop
  endfacet
  facet normal 0.83614 -0.482789 0.260354
    outer loop
      vertex 53.3222 5.4875 8.59154
      vertex 54.3206 5.5 5.40846
      vertex 53.3294 5.5 8.59154
    endloop
  endfacet
  facet normal 0.83614 -0.482789 0.260354
    outer loop
      vertex 54.3206 5.5 5.40846
      vertex 53.3222 5.4875 8.59154
      vertex 54.3134 5.4875 5.40846
    endloop
  endfacet
  facet normal 0.836158 -0.482756 0.26036
    outer loop
      vertex 53.3367 5.5125 8.59154
      vertex 57.496 11 5.40846
      vertex 56.5049 11 8.59154
    endloop
  endfacet
  facet normal 0.836158 -0.482756 0.26036
    outer loop
      vertex 57.496 11 5.40846
      vertex 53.3367 5.5125 8.59154
      vertex 54.3278 5.5125 5.40846
    endloop
  endfacet
  facet normal -0 0 1
    outer loop
      vertex 64.846 11 8.59154
      vertex 63.3367 5.5125 8.59154
      vertex 66.5049 11 8.59154
    endloop
  endfacet
  facet normal 0 0 1
    outer loop
      vertex 64.846 11 8.59154
      vertex 63.3222 5.5125 8.59154
      vertex 63.3367 5.5125 8.59154
    endloop
  endfacet
  facet normal 0 0 1
    outer loop
      vertex 63.3222 5.5125 8.59154
      vertex 61.6706 5.5 8.59154
      vertex 63.3222 5.4875 8.59154
    endloop
  endfacet
  facet normal 0 0 1
    outer loop
      vertex 61.6706 5.5 8.59154
      vertex 63.3222 5.5125 8.59154
      vertex 64.846 11 8.59154
    endloop
  endfacet
  facet normal 0 0 1
    outer loop
      vertex 63.3294 5.5 8.59154
      vertex 63.3222 5.5125 8.59154
      vertex 63.3222 5.4875 8.59154
    endloop
  endfacet
  facet normal 0 0 1
    outer loop
      vertex 63.3367 5.4875 8.59154
      vertex 64.846 0 8.59154
      vertex 66.5049 0 8.59154
    endloop
  endfacet
  facet normal -0 0 1
    outer loop
      vertex 63.3222 5.4875 8.59154
      vertex 64.846 0 8.59154
      vertex 63.3367 5.4875 8.59154
    endloop
  endfacet
  facet normal 0 0 1
    outer loop
      vertex 64.846 0 8.59154
      vertex 63.3222 5.4875 8.59154
      vertex 61.6706 5.5 8.59154
    endloop
  endfacet
  facet normal -0.836158 0.482756 0.260359
    outer loop
      vertex 60.6794 5.5 5.40846
      vertex 64.846 11 8.59154
      vertex 63.8549 11 5.40846
    endloop
  endfacet
  facet normal -0.836158 0.482755 0.26036
    outer loop
      vertex 64.846 11 8.59154
      vertex 60.6794 5.5 5.40846
      vertex 61.6706 5.5 8.59154
    endloop
  endfacet
  facet normal -0 0 1
    outer loop
      vertex 62.496 11 5.40846
      vertex 60.6794 5.5 5.40846
      vertex 63.8549 11 5.40846
    endloop
  endfacet
  facet normal 0 -0 1
    outer loop
      vertex 60.6794 5.5 5.40846
      vertex 62.496 11 5.40846
      vertex 59.3278 5.5125 5.40846
    endloop
  endfacet
  facet normal 0 0 1
    outer loop
      vertex 60.6794 5.5 5.40846
      vertex 62.496 0 5.40846
      vertex 63.8549 0 5.40846
    endloop
  endfacet
  facet normal 0 0 1
    outer loop
      vertex 59.3278 5.4875 5.40846
      vertex 60.6794 5.5 5.40846
      vertex 59.3278 5.5125 5.40846
    endloop
  endfacet
  facet normal 0 0 1
    outer loop
      vertex 60.6794 5.5 5.40846
      vertex 59.3278 5.4875 5.40846
      vertex 62.496 0 5.40846
    endloop
  endfacet
  facet normal 0 0 1
    outer loop
      vertex 59.3278 5.5125 5.40846
      vertex 59.3206 5.5 5.40846
      vertex 59.3278 5.4875 5.40846
    endloop
  endfacet
  facet normal 0 -0 1
    outer loop
      vertex 59.3206 5.5 5.40846
      vertex 59.3278 5.5125 5.40846
      vertex 59.3134 5.5125 5.40846
    endloop
  endfacet
  facet normal 0 0 1
    outer loop
      vertex 59.3278 5.4875 5.40846
      vertex 59.3206 5.5 5.40846
      vertex 59.3134 5.4875 5.40846
    endloop
  endfacet
  facet normal 0.83614 -0.482789 0.260354
    outer loop
      vertex 58.3222 5.4875 8.59154
      vertex 59.3206 5.5 5.40846
      vertex 58.3294 5.5 8.59154
    endloop
  endfacet
  facet normal 0.83614 -0.482789 0.260354
    outer loop
      vertex 59.3206 5.5 5.40846
      vertex 58.3222 5.4875 8.59154
      vertex 59.3134 5.4875 5.40846
    endloop
  endfacet
  facet normal 0.836158 -0.482756 0.26036
    outer loop
      vertex 58.3367 5.5125 8.59154
      vertex 62.496 11 5.40846
      vertex 61.5049 11 8.59154
    endloop
  endfacet
  facet normal 0.836158 -0.482756 0.26036
    outer loop
      vertex 62.496 11 5.40846
      vertex 58.3367 5.5125 8.59154
      vertex 59.3278 5.5125 5.40846
    endloop
  endfacet
  facet normal -0 0 1
    outer loop
      vertex 69.846 11 8.59154
      vertex 70 8.3935 8.59154
      vertex 70 11 8.59154
    endloop
  endfacet
  facet normal 0 0 1
    outer loop
      vertex 66.6706 5.5 8.59154
      vertex 70 8.3935 8.59154
      vertex 69.846 11 8.59154
    endloop
  endfacet
  facet normal 0 0 1
    outer loop
      vertex 70 8.3935 8.59154
      vertex 68.3222 5.5125 8.59154
      vertex 68.3367 5.5125 8.59154
    endloop
  endfacet
  facet normal 0 0 1
    outer loop
      vertex 68.3222 5.5125 8.59154
      vertex 66.6706 5.5 8.59154
      vertex 68.3222 5.4875 8.59154
    endloop
  endfacet
  facet normal 0 0 1
    outer loop
      vertex 70 8.3935 8.59154
      vertex 66.6706 5.5 8.59154
      vertex 68.3222 5.5125 8.59154
    endloop
  endfacet
  facet normal 0 0 1
    outer loop
      vertex 68.3294 5.5 8.59154
      vertex 68.3222 5.5125 8.59154
      vertex 68.3222 5.4875 8.59154
    endloop
  endfacet
  facet normal 0 0 1
    outer loop
      vertex 70 2.6065 8.59154
      vertex 69.846 0 8.59154
      vertex 70 0 8.59154
    endloop
  endfacet
  facet normal -0 0 1
    outer loop
      vertex 68.3222 5.4875 8.59154
      vertex 70 2.6065 8.59154
      vertex 68.3367 5.4875 8.59154
    endloop
  endfacet
  facet normal 0 0 1
    outer loop
      vertex 66.6706 5.5 8.59154
      vertex 70 2.6065 8.59154
      vertex 68.3222 5.4875 8.59154
    endloop
  endfacet
  facet normal 0 0 1
    outer loop
      vertex 70 2.6065 8.59154
      vertex 66.6706 5.5 8.59154
      vertex 69.846 0 8.59154
    endloop
  endfacet
  facet normal -0.836158 0.482755 0.26036
    outer loop
      vertex 65.6794 5.5 5.40846
      vertex 69.846 11 8.59154
      vertex 68.8549 11 5.40846
    endloop
  endfacet
  facet normal -0.836158 0.482755 0.26036
    outer loop
      vertex 69.846 11 8.59154
      vertex 65.6794 5.5 5.40846
      vertex 66.6706 5.5 8.59154
    endloop
  endfacet
  facet normal -0 0 1
    outer loop
      vertex 67.496 11 5.40846
      vertex 65.6794 5.5 5.40846
      vertex 68.8549 11 5.40846
    endloop
  endfacet
  facet normal 0 -0 1
    outer loop
      vertex 65.6794 5.5 5.40846
      vertex 67.496 11 5.40846
      vertex 64.3278 5.5125 5.40846
    endloop
  endfacet
  facet normal 0 0 1
    outer loop
      vertex 65.6794 5.5 5.40846
      vertex 67.496 0 5.40846
      vertex 68.8549 0 5.40846
    endloop
  endfacet
  facet normal 0 0 1
    outer loop
      vertex 64.3278 5.4875 5.40846
      vertex 65.6794 5.5 5.40846
      vertex 64.3278 5.5125 5.40846
    endloop
  endfacet
  facet normal 0 0 1
    outer loop
      vertex 65.6794 5.5 5.40846
      vertex 64.3278 5.4875 5.40846
      vertex 67.496 0 5.40846
    endloop
  endfacet
  facet normal 0 0 1
    outer loop
      vertex 64.3278 5.5125 5.40846
      vertex 64.3206 5.5 5.40846
      vertex 64.3278 5.4875 5.40846
    endloop
  endfacet
  facet normal 0 -0 1
    outer loop
      vertex 64.3206 5.5 5.40846
      vertex 64.3278 5.5125 5.40846
      vertex 64.3134 5.5125 5.40846
    endloop
  endfacet
  facet normal 0 0 1
    outer loop
      vertex 64.3278 5.4875 5.40846
      vertex 64.3206 5.5 5.40846
      vertex 64.3134 5.4875 5.40846
    endloop
  endfacet
  facet normal 0.83614 -0.482789 0.260354
    outer loop
      vertex 63.3222 5.4875 8.59154
      vertex 64.3206 5.5 5.40846
      vertex 63.3294 5.5 8.59154
    endloop
  endfacet
  facet normal 0.83614 -0.482789 0.260354
    outer loop
      vertex 64.3206 5.5 5.40846
      vertex 63.3222 5.4875 8.59154
      vertex 64.3134 5.4875 5.40846
    endloop
  endfacet
  facet normal 0.836158 -0.482755 0.26036
    outer loop
      vertex 63.3367 5.5125 8.59154
      vertex 67.496 11 5.40846
      vertex 66.5049 11 8.59154
    endloop
  endfacet
  facet normal 0.836158 -0.482755 0.26036
    outer loop
      vertex 67.496 11 5.40846
      vertex 63.3367 5.5125 8.59154
      vertex 64.3278 5.5125 5.40846
    endloop
  endfacet
  facet normal -0 0 1
    outer loop
      vertex 69.3278 5.5125 5.40846
      vertex 70 4.3232 5.40846
      vertex 70 6.6768 5.40846
    endloop
  endfacet
  facet normal 0 0 1
    outer loop
      vertex 69.3278 5.5125 5.40846
      vertex 69.3278 5.4875 5.40846
      vertex 70 4.3232 5.40846
    endloop
  endfacet
  facet normal 0 0 1
    outer loop
      vertex 69.3278 5.5125 5.40846
      vertex 69.3206 5.5 5.40846
      vertex 69.3278 5.4875 5.40846
    endloop
  endfacet
  facet normal 0 -0 1
    outer loop
      vertex 69.3206 5.5 5.40846
      vertex 69.3278 5.5125 5.40846
      vertex 69.3134 5.5125 5.40846
    endloop
  endfacet
  facet normal 0 0 1
    outer loop
      vertex 69.3278 5.4875 5.40846
      vertex 69.3206 5.5 5.40846
      vertex 69.3134 5.4875 5.40846
    endloop
  endfacet
  facet normal 0.83614 -0.482789 0.260354
    outer loop
      vertex 68.3222 5.4875 8.59154
      vertex 69.3206 5.5 5.40846
      vertex 68.3294 5.5 8.59154
    endloop
  endfacet
  facet normal 0.83614 -0.482789 0.260354
    outer loop
      vertex 69.3206 5.5 5.40846
      vertex 68.3222 5.4875 8.59154
      vertex 69.3134 5.4875 5.40846
    endloop
  endfacet
  facet normal 0.836158 -0.482756 0.26036
    outer loop
      vertex 68.3367 5.5125 8.59154
      vertex 70 6.6768 5.40846
      vertex 70 8.3935 8.59154
    endloop
  endfacet
  facet normal 0.836158 -0.482755 0.26036
    outer loop
      vertex 70 6.6768 5.40846
      vertex 68.3367 5.5125 8.59154
      vertex 69.3278 5.5125 5.40846
    endloop
  endfacet
  facet normal 0 -1 0
    outer loop
      vertex 69.3134 5.5125 5.40846
      vertex 68.3367 5.5125 8.59154
      vertex 68.3222 5.5125 8.59154
    endloop
  endfacet
  facet normal 0 -1 0
    outer loop
      vertex 68.3367 5.5125 8.59154
      vertex 69.3134 5.5125 5.40846
      vertex 69.3278 5.5125 5.40846
    endloop
  endfacet
  facet normal 0 -1 0
    outer loop
      vertex 64.3134 5.5125 5.40846
      vertex 63.3367 5.5125 8.59154
      vertex 63.3222 5.5125 8.59154
    endloop
  endfacet
  facet normal 0 -1 0
    outer loop
      vertex 63.3367 5.5125 8.59154
      vertex 64.3134 5.5125 5.40846
      vertex 64.3278 5.5125 5.40846
    endloop
  endfacet
  facet normal 0 -1 0
    outer loop
      vertex 59.3134 5.5125 5.40846
      vertex 58.3367 5.5125 8.59154
      vertex 58.3222 5.5125 8.59154
    endloop
  endfacet
  facet normal 0 -1 0
    outer loop
      vertex 58.3367 5.5125 8.59154
      vertex 59.3134 5.5125 5.40846
      vertex 59.3278 5.5125 5.40846
    endloop
  endfacet
  facet normal 0 -1 0
    outer loop
      vertex 54.3134 5.5125 5.40846
      vertex 53.3367 5.5125 8.59154
      vertex 53.3222 5.5125 8.59154
    endloop
  endfacet
  facet normal 0 -1 0
    outer loop
      vertex 53.3367 5.5125 8.59154
      vertex 54.3134 5.5125 5.40846
      vertex 54.3278 5.5125 5.40846
    endloop
  endfacet
  facet normal 0 -1 0
    outer loop
      vertex 49.3134 5.5125 5.40846
      vertex 48.3367 5.5125 8.59154
      vertex 48.3222 5.5125 8.59154
    endloop
  endfacet
  facet normal 0 -1 0
    outer loop
      vertex 48.3367 5.5125 8.59154
      vertex 49.3134 5.5125 5.40846
      vertex 49.3278 5.5125 5.40846
    endloop
  endfacet
  facet normal 0 -1 0
    outer loop
      vertex 44.3134 5.5125 5.40846
      vertex 43.3367 5.5125 8.59154
      vertex 43.3222 5.5125 8.59154
    endloop
  endfacet
  facet normal 0 -1 0
    outer loop
      vertex 43.3367 5.5125 8.59154
      vertex 44.3134 5.5125 5.40846
      vertex 44.3278 5.5125 5.40846
    endloop
  endfacet
  facet normal 0 -1 0
    outer loop
      vertex 39.3134 5.5125 5.40846
      vertex 38.3367 5.5125 8.59154
      vertex 38.3222 5.5125 8.59154
    endloop
  endfacet
  facet normal 0 -1 0
    outer loop
      vertex 38.3367 5.5125 8.59154
      vertex 39.3134 5.5125 5.40846
      vertex 39.3278 5.5125 5.40846
    endloop
  endfacet
  facet normal 0 -1 0
    outer loop
      vertex 34.3134 5.5125 5.40846
      vertex 33.3367 5.5125 8.59154
      vertex 33.3222 5.5125 8.59154
    endloop
  endfacet
  facet normal 0 -1 0
    outer loop
      vertex 33.3367 5.5125 8.59154
      vertex 34.3134 5.5125 5.40846
      vertex 34.3278 5.5125 5.40846
    endloop
  endfacet
  facet normal 0 -1 0
    outer loop
      vertex 29.3134 5.5125 5.40846
      vertex 28.3367 5.5125 8.59154
      vertex 28.3222 5.5125 8.59154
    endloop
  endfacet
  facet normal 0 -1 0
    outer loop
      vertex 28.3367 5.5125 8.59154
      vertex 29.3134 5.5125 5.40846
      vertex 29.3278 5.5125 5.40846
    endloop
  endfacet
  facet normal 0 -1 0
    outer loop
      vertex 24.3134 5.5125 5.40846
      vertex 23.3367 5.5125 8.59154
      vertex 23.3222 5.5125 8.59154
    endloop
  endfacet
  facet normal 0 -1 0
    outer loop
      vertex 23.3367 5.5125 8.59154
      vertex 24.3134 5.5125 5.40846
      vertex 24.3278 5.5125 5.40846
    endloop
  endfacet
  facet normal 0 -1 0
    outer loop
      vertex 19.3134 5.5125 5.40846
      vertex 18.3367 5.5125 8.59154
      vertex 18.3222 5.5125 8.59154
    endloop
  endfacet
  facet normal 0 -1 0
    outer loop
      vertex 18.3367 5.5125 8.59154
      vertex 19.3134 5.5125 5.40846
      vertex 19.3278 5.5125 5.40846
    endloop
  endfacet
  facet normal 0 -1 0
    outer loop
      vertex 14.3134 5.5125 5.40846
      vertex 13.3367 5.5125 8.59154
      vertex 13.3222 5.5125 8.59154
    endloop
  endfacet
  facet normal 0 -1 0
    outer loop
      vertex 13.3367 5.5125 8.59154
      vertex 14.3134 5.5125 5.40846
      vertex 14.3278 5.5125 5.40846
    endloop
  endfacet
  facet normal 0 -1 0
    outer loop
      vertex 9.31336 5.5125 5.40846
      vertex 8.33665 5.5125 8.59154
      vertex 8.32222 5.5125 8.59154
    endloop
  endfacet
  facet normal 0 -1 0
    outer loop
      vertex 8.33665 5.5125 8.59154
      vertex 9.31336 5.5125 5.40846
      vertex 9.32779 5.5125 5.40846
    endloop
  endfacet
  facet normal 0 -1 0
    outer loop
      vertex 4.31336 5.5125 5.40846
      vertex 3.33665 5.5125 8.59154
      vertex 3.32222 5.5125 8.59154
    endloop
  endfacet
  facet normal 0 -1 0
    outer loop
      vertex 3.33665 5.5125 8.59154
      vertex 4.31336 5.5125 5.40846
      vertex 4.32779 5.5125 5.40846
    endloop
  endfacet
  facet normal -0.836158 -0.482756 0.26036
    outer loop
      vertex 3.85485 0 5.40846
      vertex 1.67056 5.5 8.59154
      vertex 0.679428 5.5 5.40846
    endloop
  endfacet
  facet normal -0.836158 -0.482756 0.26036
    outer loop
      vertex 1.67056 5.5 8.59154
      vertex 3.85485 0 5.40846
      vertex 4.84599 0 8.59154
    endloop
  endfacet
  facet normal 0.836158 0.482756 0.26036
    outer loop
      vertex 2.496 0 5.40846
      vertex 0 2.6065 8.59154
      vertex 1.50486 0 8.59154
    endloop
  endfacet
  facet normal 0.836158 0.482756 0.26036
    outer loop
      vertex 0 2.6065 8.59154
      vertex 2.496 0 5.40846
      vertex 0 4.3232 5.40846
    endloop
  endfacet
  facet normal -0.836158 -0.482756 0.26036
    outer loop
      vertex 8.85485 0 5.40846
      vertex 6.67056 5.5 8.59154
      vertex 5.67943 5.5 5.40846
    endloop
  endfacet
  facet normal -0.836158 -0.482756 0.26036
    outer loop
      vertex 6.67056 5.5 8.59154
      vertex 8.85485 0 5.40846
      vertex 9.84599 0 8.59154
    endloop
  endfacet
  facet normal 0.83616 0.482752 0.260361
    outer loop
      vertex 3.32944 5.5 8.59154
      vertex 4.31336 5.5125 5.40846
      vertex 3.32222 5.5125 8.59154
    endloop
  endfacet
  facet normal 0.836166 0.48274 0.260362
    outer loop
      vertex 4.31336 5.5125 5.40846
      vertex 3.32944 5.5 8.59154
      vertex 4.32057 5.5 5.40846
    endloop
  endfacet
  facet normal 0.836158 0.482756 0.26036
    outer loop
      vertex 6.50486 0 8.59154
      vertex 4.32779 5.4875 5.40846
      vertex 3.33665 5.4875 8.59154
    endloop
  endfacet
  facet normal 0.836158 0.482756 0.26036
    outer loop
      vertex 4.32779 5.4875 5.40846
      vertex 6.50486 0 8.59154
      vertex 7.496 0 5.40846
    endloop
  endfacet
  facet normal -0.836158 -0.482756 0.26036
    outer loop
      vertex 13.8549 0 5.40846
      vertex 11.6706 5.5 8.59154
      vertex 10.6794 5.5 5.40846
    endloop
  endfacet
  facet normal -0.836158 -0.482756 0.26036
    outer loop
      vertex 11.6706 5.5 8.59154
      vertex 13.8549 0 5.40846
      vertex 14.846 0 8.59154
    endloop
  endfacet
  facet normal 0.836166 0.48274 0.260362
    outer loop
      vertex 8.32944 5.5 8.59154
      vertex 9.31336 5.5125 5.40846
      vertex 8.32222 5.5125 8.59154
    endloop
  endfacet
  facet normal 0.836166 0.48274 0.260362
    outer loop
      vertex 9.31336 5.5125 5.40846
      vertex 8.32944 5.5 8.59154
      vertex 9.32057 5.5 5.40846
    endloop
  endfacet
  facet normal 0.836158 0.482756 0.26036
    outer loop
      vertex 11.5049 0 8.59154
      vertex 9.32779 5.4875 5.40846
      vertex 8.33665 5.4875 8.59154
    endloop
  endfacet
  facet normal 0.836158 0.482756 0.26036
    outer loop
      vertex 9.32779 5.4875 5.40846
      vertex 11.5049 0 8.59154
      vertex 12.496 0 5.40846
    endloop
  endfacet
  facet normal -0.836158 -0.482756 0.26036
    outer loop
      vertex 18.8549 0 5.40846
      vertex 16.6706 5.5 8.59154
      vertex 15.6794 5.5 5.40846
    endloop
  endfacet
  facet normal -0.836158 -0.482756 0.26036
    outer loop
      vertex 16.6706 5.5 8.59154
      vertex 18.8549 0 5.40846
      vertex 19.846 0 8.59154
    endloop
  endfacet
  facet normal 0.836166 0.48274 0.260362
    outer loop
      vertex 13.3294 5.5 8.59154
      vertex 14.3134 5.5125 5.40846
      vertex 13.3222 5.5125 8.59154
    endloop
  endfacet
  facet normal 0.836166 0.48274 0.260362
    outer loop
      vertex 14.3134 5.5125 5.40846
      vertex 13.3294 5.5 8.59154
      vertex 14.3206 5.5 5.40846
    endloop
  endfacet
  facet normal 0.836158 0.482756 0.26036
    outer loop
      vertex 16.5049 0 8.59154
      vertex 14.3278 5.4875 5.40846
      vertex 13.3367 5.4875 8.59154
    endloop
  endfacet
  facet normal 0.836158 0.482756 0.26036
    outer loop
      vertex 14.3278 5.4875 5.40846
      vertex 16.5049 0 8.59154
      vertex 17.496 0 5.40846
    endloop
  endfacet
  facet normal -0.836158 -0.482756 0.26036
    outer loop
      vertex 23.8549 0 5.40846
      vertex 21.6706 5.5 8.59154
      vertex 20.6794 5.5 5.40846
    endloop
  endfacet
  facet normal -0.836158 -0.482756 0.26036
    outer loop
      vertex 21.6706 5.5 8.59154
      vertex 23.8549 0 5.40846
      vertex 24.846 0 8.59154
    endloop
  endfacet
  facet normal 0.83614 0.482789 0.260354
    outer loop
      vertex 18.3294 5.5 8.59154
      vertex 19.3134 5.5125 5.40846
      vertex 18.3222 5.5125 8.59154
    endloop
  endfacet
  facet normal 0.83614 0.482789 0.260354
    outer loop
      vertex 19.3134 5.5125 5.40846
      vertex 18.3294 5.5 8.59154
      vertex 19.3206 5.5 5.40846
    endloop
  endfacet
  facet normal 0.836158 0.482756 0.26036
    outer loop
      vertex 21.5049 0 8.59154
      vertex 19.3278 5.4875 5.40846
      vertex 18.3367 5.4875 8.59154
    endloop
  endfacet
  facet normal 0.836158 0.482756 0.26036
    outer loop
      vertex 19.3278 5.4875 5.40846
      vertex 21.5049 0 8.59154
      vertex 22.496 0 5.40846
    endloop
  endfacet
  facet normal -0.836158 -0.482756 0.26036
    outer loop
      vertex 28.8549 0 5.40846
      vertex 26.6706 5.5 8.59154
      vertex 25.6794 5.5 5.40846
    endloop
  endfacet
  facet normal -0.836158 -0.482756 0.26036
    outer loop
      vertex 26.6706 5.5 8.59154
      vertex 28.8549 0 5.40846
      vertex 29.846 0 8.59154
    endloop
  endfacet
  facet normal 0.83614 0.482789 0.260354
    outer loop
      vertex 23.3294 5.5 8.59154
      vertex 24.3134 5.5125 5.40846
      vertex 23.3222 5.5125 8.59154
    endloop
  endfacet
  facet normal 0.83614 0.482789 0.260354
    outer loop
      vertex 24.3134 5.5125 5.40846
      vertex 23.3294 5.5 8.59154
      vertex 24.3206 5.5 5.40846
    endloop
  endfacet
  facet normal 0.836158 0.482756 0.26036
    outer loop
      vertex 26.5049 0 8.59154
      vertex 24.3278 5.4875 5.40846
      vertex 23.3367 5.4875 8.59154
    endloop
  endfacet
  facet normal 0.836158 0.482756 0.26036
    outer loop
      vertex 24.3278 5.4875 5.40846
      vertex 26.5049 0 8.59154
      vertex 27.496 0 5.40846
    endloop
  endfacet
  facet normal -0.836158 -0.482756 0.26036
    outer loop
      vertex 33.8549 0 5.40846
      vertex 31.6706 5.5 8.59154
      vertex 30.6794 5.5 5.40846
    endloop
  endfacet
  facet normal -0.836158 -0.482756 0.26036
    outer loop
      vertex 31.6706 5.5 8.59154
      vertex 33.8549 0 5.40846
      vertex 34.846 0 8.59154
    endloop
  endfacet
  facet normal 0.83614 0.482789 0.260354
    outer loop
      vertex 28.3294 5.5 8.59154
      vertex 29.3134 5.5125 5.40846
      vertex 28.3222 5.5125 8.59154
    endloop
  endfacet
  facet normal 0.83614 0.482789 0.260354
    outer loop
      vertex 29.3134 5.5125 5.40846
      vertex 28.3294 5.5 8.59154
      vertex 29.3206 5.5 5.40846
    endloop
  endfacet
  facet normal 0.836158 0.482756 0.26036
    outer loop
      vertex 31.5049 0 8.59154
      vertex 29.3278 5.4875 5.40846
      vertex 28.3367 5.4875 8.59154
    endloop
  endfacet
  facet normal 0.836158 0.482756 0.26036
    outer loop
      vertex 29.3278 5.4875 5.40846
      vertex 31.5049 0 8.59154
      vertex 32.496 0 5.40846
    endloop
  endfacet
  facet normal -0.836158 -0.482756 0.26036
    outer loop
      vertex 38.8549 0 5.40846
      vertex 36.6706 5.5 8.59154
      vertex 35.6794 5.5 5.40846
    endloop
  endfacet
  facet normal -0.836158 -0.482756 0.26036
    outer loop
      vertex 36.6706 5.5 8.59154
      vertex 38.8549 0 5.40846
      vertex 39.846 0 8.59154
    endloop
  endfacet
  facet normal 0.83614 0.482789 0.260354
    outer loop
      vertex 33.3294 5.5 8.59154
      vertex 34.3134 5.5125 5.40846
      vertex 33.3222 5.5125 8.59154
    endloop
  endfacet
  facet normal 0.83614 0.482789 0.260354
    outer loop
      vertex 34.3134 5.5125 5.40846
      vertex 33.3294 5.5 8.59154
      vertex 34.3206 5.5 5.40846
    endloop
  endfacet
  facet normal 0.836158 0.482756 0.26036
    outer loop
      vertex 36.5049 0 8.59154
      vertex 34.3278 5.4875 5.40846
      vertex 33.3367 5.4875 8.59154
    endloop
  endfacet
  facet normal 0.836158 0.482756 0.26036
    outer loop
      vertex 34.3278 5.4875 5.40846
      vertex 36.5049 0 8.59154
      vertex 37.496 0 5.40846
    endloop
  endfacet
  facet normal -0.836158 -0.482756 0.26036
    outer loop
      vertex 43.8549 0 5.40846
      vertex 41.6706 5.5 8.59154
      vertex 40.6794 5.5 5.40846
    endloop
  endfacet
  facet normal -0.836158 -0.482756 0.26036
    outer loop
      vertex 41.6706 5.5 8.59154
      vertex 43.8549 0 5.40846
      vertex 44.846 0 8.59154
    endloop
  endfacet
  facet normal 0.83614 0.482789 0.260354
    outer loop
      vertex 38.3294 5.5 8.59154
      vertex 39.3134 5.5125 5.40846
      vertex 38.3222 5.5125 8.59154
    endloop
  endfacet
  facet normal 0.83614 0.482789 0.260354
    outer loop
      vertex 39.3134 5.5125 5.40846
      vertex 38.3294 5.5 8.59154
      vertex 39.3206 5.5 5.40846
    endloop
  endfacet
  facet normal 0.836158 0.482756 0.26036
    outer loop
      vertex 41.5049 0 8.59154
      vertex 39.3278 5.4875 5.40846
      vertex 38.3367 5.4875 8.59154
    endloop
  endfacet
  facet normal 0.836158 0.482756 0.26036
    outer loop
      vertex 39.3278 5.4875 5.40846
      vertex 41.5049 0 8.59154
      vertex 42.496 0 5.40846
    endloop
  endfacet
  facet normal -0.836158 -0.482756 0.26036
    outer loop
      vertex 48.8549 0 5.40846
      vertex 46.6706 5.5 8.59154
      vertex 45.6794 5.5 5.40846
    endloop
  endfacet
  facet normal -0.836158 -0.482756 0.26036
    outer loop
      vertex 46.6706 5.5 8.59154
      vertex 48.8549 0 5.40846
      vertex 49.846 0 8.59154
    endloop
  endfacet
  facet normal 0.83614 0.482789 0.260354
    outer loop
      vertex 43.3294 5.5 8.59154
      vertex 44.3134 5.5125 5.40846
      vertex 43.3222 5.5125 8.59154
    endloop
  endfacet
  facet normal 0.83614 0.482789 0.260354
    outer loop
      vertex 44.3134 5.5125 5.40846
      vertex 43.3294 5.5 8.59154
      vertex 44.3206 5.5 5.40846
    endloop
  endfacet
  facet normal 0.836158 0.482756 0.26036
    outer loop
      vertex 46.5049 0 8.59154
      vertex 44.3278 5.4875 5.40846
      vertex 43.3367 5.4875 8.59154
    endloop
  endfacet
  facet normal 0.836158 0.482756 0.26036
    outer loop
      vertex 44.3278 5.4875 5.40846
      vertex 46.5049 0 8.59154
      vertex 47.496 0 5.40846
    endloop
  endfacet
  facet normal -0.836158 -0.482756 0.26036
    outer loop
      vertex 53.8549 0 5.40846
      vertex 51.6706 5.5 8.59154
      vertex 50.6794 5.5 5.40846
    endloop
  endfacet
  facet normal -0.836158 -0.482756 0.26036
    outer loop
      vertex 51.6706 5.5 8.59154
      vertex 53.8549 0 5.40846
      vertex 54.846 0 8.59154
    endloop
  endfacet
  facet normal 0.83614 0.482789 0.260354
    outer loop
      vertex 48.3294 5.5 8.59154
      vertex 49.3134 5.5125 5.40846
      vertex 48.3222 5.5125 8.59154
    endloop
  endfacet
  facet normal 0.83614 0.482789 0.260354
    outer loop
      vertex 49.3134 5.5125 5.40846
      vertex 48.3294 5.5 8.59154
      vertex 49.3206 5.5 5.40846
    endloop
  endfacet
  facet normal 0.836158 0.482756 0.26036
    outer loop
      vertex 51.5049 0 8.59154
      vertex 49.3278 5.4875 5.40846
      vertex 48.3367 5.4875 8.59154
    endloop
  endfacet
  facet normal 0.836158 0.482756 0.26036
    outer loop
      vertex 49.3278 5.4875 5.40846
      vertex 51.5049 0 8.59154
      vertex 52.496 0 5.40846
    endloop
  endfacet
  facet normal -0.836158 -0.482756 0.26036
    outer loop
      vertex 58.8549 0 5.40846
      vertex 56.6706 5.5 8.59154
      vertex 55.6794 5.5 5.40846
    endloop
  endfacet
  facet normal -0.836158 -0.482756 0.26036
    outer loop
      vertex 56.6706 5.5 8.59154
      vertex 58.8549 0 5.40846
      vertex 59.846 0 8.59154
    endloop
  endfacet
  facet normal 0.83614 0.482789 0.260354
    outer loop
      vertex 53.3294 5.5 8.59154
      vertex 54.3134 5.5125 5.40846
      vertex 53.3222 5.5125 8.59154
    endloop
  endfacet
  facet normal 0.83614 0.482789 0.260354
    outer loop
      vertex 54.3134 5.5125 5.40846
      vertex 53.3294 5.5 8.59154
      vertex 54.3206 5.5 5.40846
    endloop
  endfacet
  facet normal 0.836158 0.482756 0.26036
    outer loop
      vertex 56.5049 0 8.59154
      vertex 54.3278 5.4875 5.40846
      vertex 53.3367 5.4875 8.59154
    endloop
  endfacet
  facet normal 0.836158 0.482756 0.26036
    outer loop
      vertex 54.3278 5.4875 5.40846
      vertex 56.5049 0 8.59154
      vertex 57.496 0 5.40846
    endloop
  endfacet
  facet normal -0.836158 -0.482756 0.26036
    outer loop
      vertex 63.8549 0 5.40846
      vertex 61.6706 5.5 8.59154
      vertex 60.6794 5.5 5.40846
    endloop
  endfacet
  facet normal -0.836158 -0.482756 0.260359
    outer loop
      vertex 61.6706 5.5 8.59154
      vertex 63.8549 0 5.40846
      vertex 64.846 0 8.59154
    endloop
  endfacet
  facet normal 0.83614 0.482789 0.260354
    outer loop
      vertex 58.3294 5.5 8.59154
      vertex 59.3134 5.5125 5.40846
      vertex 58.3222 5.5125 8.59154
    endloop
  endfacet
  facet normal 0.83614 0.482789 0.260354
    outer loop
      vertex 59.3134 5.5125 5.40846
      vertex 58.3294 5.5 8.59154
      vertex 59.3206 5.5 5.40846
    endloop
  endfacet
  facet normal 0.836158 0.482756 0.26036
    outer loop
      vertex 61.5049 0 8.59154
      vertex 59.3278 5.4875 5.40846
      vertex 58.3367 5.4875 8.59154
    endloop
  endfacet
  facet normal 0.836158 0.482756 0.26036
    outer loop
      vertex 59.3278 5.4875 5.40846
      vertex 61.5049 0 8.59154
      vertex 62.496 0 5.40846
    endloop
  endfacet
  facet normal -0.836158 -0.482755 0.26036
    outer loop
      vertex 68.8549 0 5.40846
      vertex 66.6706 5.5 8.59154
      vertex 65.6794 5.5 5.40846
    endloop
  endfacet
  facet normal -0.836158 -0.482755 0.26036
    outer loop
      vertex 66.6706 5.5 8.59154
      vertex 68.8549 0 5.40846
      vertex 69.846 0 8.59154
    endloop
  endfacet
  facet normal 0.83614 0.482789 0.260354
    outer loop
      vertex 63.3294 5.5 8.59154
      vertex 64.3134 5.5125 5.40846
      vertex 63.3222 5.5125 8.59154
    endloop
  endfacet
  facet normal 0.83614 0.482789 0.260354
    outer loop
      vertex 64.3134 5.5125 5.40846
      vertex 63.3294 5.5 8.59154
      vertex 64.3206 5.5 5.40846
    endloop
  endfacet
  facet normal 0.836158 0.482755 0.26036
    outer loop
      vertex 66.5049 0 8.59154
      vertex 64.3278 5.4875 5.40846
      vertex 63.3367 5.4875 8.59154
    endloop
  endfacet
  facet normal 0.836158 0.482755 0.26036
    outer loop
      vertex 64.3278 5.4875 5.40846
      vertex 66.5049 0 8.59154
      vertex 67.496 0 5.40846
    endloop
  endfacet
  facet normal 0.83614 0.482789 0.260354
    outer loop
      vertex 68.3294 5.5 8.59154
      vertex 69.3134 5.5125 5.40846
      vertex 68.3222 5.5125 8.59154
    endloop
  endfacet
  facet normal 0.83614 0.482789 0.260354
    outer loop
      vertex 69.3134 5.5125 5.40846
      vertex 68.3294 5.5 8.59154
      vertex 69.3206 5.5 5.40846
    endloop
  endfacet
  facet normal 0.836158 0.482755 0.26036
    outer loop
      vertex 68.3367 5.4875 8.59154
      vertex 70 4.3232 5.40846
      vertex 69.3278 5.4875 5.40846
    endloop
  endfacet
  facet normal 0.836158 0.482756 0.26036
    outer loop
      vertex 70 4.3232 5.40846
      vertex 68.3367 5.4875 8.59154
      vertex 70 2.6065 8.59154
    endloop
  endfacet
  facet normal -1 0 0
    outer loop
      vertex 0 6.6768 5.40846
      vertex 0 11 8.59154
      vertex 0 11 0
    endloop
  endfacet
  facet normal -1 0 0
    outer loop
      vertex 0 6.6768 5.40846
      vertex 0 11 0
      vertex 0 7.62132 0
    endloop
  endfacet
  facet normal -1 -0 0
    outer loop
      vertex 0 11 8.59154
      vertex 0 6.6768 5.40846
      vertex 0 8.3935 8.59154
    endloop
  endfacet
  facet normal -1 0 0
    outer loop
      vertex 0 5.5 2.12132
      vertex 0 6.6768 5.40846
      vertex 0 7.62132 0
    endloop
  endfacet
  facet normal -1 0 0
    outer loop
      vertex 0 5.5 2.12132
      vertex 0 4.3232 5.40846
      vertex 0 6.6768 5.40846
    endloop
  endfacet
  facet normal -1 0 0
    outer loop
      vertex 0 3.37868 0
      vertex 0 4.3232 5.40846
      vertex 0 5.5 2.12132
    endloop
  endfacet
  facet normal -1 0 0
    outer loop
      vertex 0 0 0
      vertex 0 4.3232 5.40846
      vertex 0 3.37868 0
    endloop
  endfacet
  facet normal -1 0 0
    outer loop
      vertex 0 0 8.59154
      vertex 0 4.3232 5.40846
      vertex 0 0 0
    endloop
  endfacet
  facet normal -1 0 0
    outer loop
      vertex 0 4.3232 5.40846
      vertex 0 0 8.59154
      vertex 0 2.6065 8.59154
    endloop
  endfacet
  facet normal 1 0 0
    outer loop
      vertex 70 6.6768 5.40846
      vertex 70 11 8.59154
      vertex 70 8.3935 8.59154
    endloop
  endfacet
  facet normal 1 0 0
    outer loop
      vertex 70 11 8.59154
      vertex 70 6.6768 5.40846
      vertex 70 11 0
    endloop
  endfacet
  facet normal 1 0 0
    outer loop
      vertex 70 11 0
      vertex 70 6.6768 5.40846
      vertex 70 7.62132 0
    endloop
  endfacet
  facet normal 1 0 0
    outer loop
      vertex 70 6.6768 5.40846
      vertex 70 5.5 2.12132
      vertex 70 7.62132 0
    endloop
  endfacet
  facet normal 1 -0 0
    outer loop
      vertex 70 4.3232 5.40846
      vertex 70 5.5 2.12132
      vertex 70 6.6768 5.40846
    endloop
  endfacet
  facet normal 1 0 0
    outer loop
      vertex 70 4.3232 5.40846
      vertex 70 3.37868 0
      vertex 70 5.5 2.12132
    endloop
  endfacet
  facet normal 1 -0 0
    outer loop
      vertex 70 0 8.59154
      vertex 70 4.3232 5.40846
      vertex 70 2.6065 8.59154
    endloop
  endfacet
  facet normal 1 0 0
    outer loop
      vertex 70 4.3232 5.40846
      vertex 70 0 8.59154
      vertex 70 0 0
    endloop
  endfacet
  facet normal 1 0 0
    outer loop
      vertex 70 4.3232 5.40846
      vertex 70 0 0
      vertex 70 3.37868 0
    endloop
  endfacet
  facet normal 0 1 0
    outer loop
      vertex 70 11 8.59154
      vertex 68.8549 11 5.40846
      vertex 69.846 11 8.59154
    endloop
  endfacet
  facet normal 0 1 0
    outer loop
      vertex 70 11 0
      vertex 67.496 11 5.40846
      vertex 68.8549 11 5.40846
    endloop
  endfacet
  facet normal 0 1 0
    outer loop
      vertex 67.496 11 5.40846
      vertex 70 11 0
      vertex 63.8549 11 5.40846
    endloop
  endfacet
  facet normal 0 1 0
    outer loop
      vertex 63.8549 11 5.40846
      vertex 70 11 0
      vertex 62.496 11 5.40846
    endloop
  endfacet
  facet normal 0 1 0
    outer loop
      vertex 62.496 11 5.40846
      vertex 70 11 0
      vertex 58.8549 11 5.40846
    endloop
  endfacet
  facet normal 0 1 0
    outer loop
      vertex 58.8549 11 5.40846
      vertex 70 11 0
      vertex 57.496 11 5.40846
    endloop
  endfacet
  facet normal 0 1 0
    outer loop
      vertex 57.496 11 5.40846
      vertex 70 11 0
      vertex 53.8549 11 5.40846
    endloop
  endfacet
  facet normal 0 1 0
    outer loop
      vertex 53.8549 11 5.40846
      vertex 70 11 0
      vertex 52.496 11 5.40846
    endloop
  endfacet
  facet normal 0 1 0
    outer loop
      vertex 52.496 11 5.40846
      vertex 70 11 0
      vertex 48.8549 11 5.40846
    endloop
  endfacet
  facet normal 0 1 0
    outer loop
      vertex 48.8549 11 5.40846
      vertex 70 11 0
      vertex 47.496 11 5.40846
    endloop
  endfacet
  facet normal 0 1 0
    outer loop
      vertex 47.496 11 5.40846
      vertex 70 11 0
      vertex 43.8549 11 5.40846
    endloop
  endfacet
  facet normal 0 1 0
    outer loop
      vertex 43.8549 11 5.40846
      vertex 70 11 0
      vertex 42.496 11 5.40846
    endloop
  endfacet
  facet normal 0 1 0
    outer loop
      vertex 42.496 11 5.40846
      vertex 70 11 0
      vertex 38.8549 11 5.40846
    endloop
  endfacet
  facet normal 0 1 0
    outer loop
      vertex 38.8549 11 5.40846
      vertex 70 11 0
      vertex 37.496 11 5.40846
    endloop
  endfacet
  facet normal 0 1 0
    outer loop
      vertex 37.496 11 5.40846
      vertex 70 11 0
      vertex 33.8549 11 5.40846
    endloop
  endfacet
  facet normal 0 1 0
    outer loop
      vertex 0 11 0
      vertex 33.8549 11 5.40846
      vertex 70 11 0
    endloop
  endfacet
  facet normal 0 1 0
    outer loop
      vertex 33.8549 11 5.40846
      vertex 0 11 0
      vertex 32.496 11 5.40846
    endloop
  endfacet
  facet normal 0 1 0
    outer loop
      vertex 32.496 11 5.40846
      vertex 0 11 0
      vertex 28.8549 11 5.40846
    endloop
  endfacet
  facet normal 0 1 0
    outer loop
      vertex 28.8549 11 5.40846
      vertex 0 11 0
      vertex 27.496 11 5.40846
    endloop
  endfacet
  facet normal 0 1 0
    outer loop
      vertex 27.496 11 5.40846
      vertex 0 11 0
      vertex 23.8549 11 5.40846
    endloop
  endfacet
  facet normal 0 1 0
    outer loop
      vertex 23.8549 11 5.40846
      vertex 0 11 0
      vertex 22.496 11 5.40846
    endloop
  endfacet
  facet normal 0 1 0
    outer loop
      vertex 22.496 11 5.40846
      vertex 0 11 0
      vertex 18.8549 11 5.40846
    endloop
  endfacet
  facet normal 0 1 0
    outer loop
      vertex 18.8549 11 5.40846
      vertex 0 11 0
      vertex 17.496 11 5.40846
    endloop
  endfacet
  facet normal 0 1 0
    outer loop
      vertex 17.496 11 5.40846
      vertex 0 11 0
      vertex 13.8549 11 5.40846
    endloop
  endfacet
  facet normal 0 1 0
    outer loop
      vertex 13.8549 11 5.40846
      vertex 0 11 0
      vertex 12.496 11 5.40846
    endloop
  endfacet
  facet normal 0 1 0
    outer loop
      vertex 12.496 11 5.40846
      vertex 0 11 0
      vertex 8.85485 11 5.40846
    endloop
  endfacet
  facet normal 0 1 0
    outer loop
      vertex 8.85485 11 5.40846
      vertex 0 11 0
      vertex 7.496 11 5.40846
    endloop
  endfacet
  facet normal 0 1 0
    outer loop
      vertex 7.496 11 5.40846
      vertex 0 11 0
      vertex 3.85485 11 5.40846
    endloop
  endfacet
  facet normal 0 1 -0
    outer loop
      vertex 70 11 0
      vertex 68.8549 11 5.40846
      vertex 70 11 8.59154
    endloop
  endfacet
  facet normal 0 1 0
    outer loop
      vertex 67.496 11 5.40846
      vertex 64.846 11 8.59154
      vertex 66.5049 11 8.59154
    endloop
  endfacet
  facet normal 0 1 0
    outer loop
      vertex 64.846 11 8.59154
      vertex 67.496 11 5.40846
      vertex 63.8549 11 5.40846
    endloop
  endfacet
  facet normal 0 1 0
    outer loop
      vertex 62.496 11 5.40846
      vertex 59.846 11 8.59154
      vertex 61.5049 11 8.59154
    endloop
  endfacet
  facet normal 0 1 0
    outer loop
      vertex 59.846 11 8.59154
      vertex 62.496 11 5.40846
      vertex 58.8549 11 5.40846
    endloop
  endfacet
  facet normal 0 1 0
    outer loop
      vertex 57.496 11 5.40846
      vertex 54.846 11 8.59154
      vertex 56.5049 11 8.59154
    endloop
  endfacet
  facet normal 0 1 0
    outer loop
      vertex 54.846 11 8.59154
      vertex 57.496 11 5.40846
      vertex 53.8549 11 5.40846
    endloop
  endfacet
  facet normal 0 1 0
    outer loop
      vertex 52.496 11 5.40846
      vertex 49.846 11 8.59154
      vertex 51.5049 11 8.59154
    endloop
  endfacet
  facet normal 0 1 0
    outer loop
      vertex 49.846 11 8.59154
      vertex 52.496 11 5.40846
      vertex 48.8549 11 5.40846
    endloop
  endfacet
  facet normal 0 1 0
    outer loop
      vertex 47.496 11 5.40846
      vertex 44.846 11 8.59154
      vertex 46.5049 11 8.59154
    endloop
  endfacet
  facet normal 0 1 0
    outer loop
      vertex 44.846 11 8.59154
      vertex 47.496 11 5.40846
      vertex 43.8549 11 5.40846
    endloop
  endfacet
  facet normal 0 1 0
    outer loop
      vertex 42.496 11 5.40846
      vertex 39.846 11 8.59154
      vertex 41.5049 11 8.59154
    endloop
  endfacet
  facet normal 0 1 0
    outer loop
      vertex 39.846 11 8.59154
      vertex 42.496 11 5.40846
      vertex 38.8549 11 5.40846
    endloop
  endfacet
  facet normal 0 1 0
    outer loop
      vertex 37.496 11 5.40846
      vertex 34.846 11 8.59154
      vertex 36.5049 11 8.59154
    endloop
  endfacet
  facet normal 0 1 0
    outer loop
      vertex 34.846 11 8.59154
      vertex 37.496 11 5.40846
      vertex 33.8549 11 5.40846
    endloop
  endfacet
  facet normal 0 1 0
    outer loop
      vertex 32.496 11 5.40846
      vertex 29.846 11 8.59154
      vertex 31.5049 11 8.59154
    endloop
  endfacet
  facet normal 0 1 0
    outer loop
      vertex 29.846 11 8.59154
      vertex 32.496 11 5.40846
      vertex 28.8549 11 5.40846
    endloop
  endfacet
  facet normal 0 1 0
    outer loop
      vertex 27.496 11 5.40846
      vertex 24.846 11 8.59154
      vertex 26.5049 11 8.59154
    endloop
  endfacet
  facet normal 0 1 0
    outer loop
      vertex 24.846 11 8.59154
      vertex 27.496 11 5.40846
      vertex 23.8549 11 5.40846
    endloop
  endfacet
  facet normal 0 1 0
    outer loop
      vertex 22.496 11 5.40846
      vertex 19.846 11 8.59154
      vertex 21.5049 11 8.59154
    endloop
  endfacet
  facet normal 0 1 0
    outer loop
      vertex 19.846 11 8.59154
      vertex 22.496 11 5.40846
      vertex 18.8549 11 5.40846
    endloop
  endfacet
  facet normal 0 1 0
    outer loop
      vertex 17.496 11 5.40846
      vertex 14.846 11 8.59154
      vertex 16.5049 11 8.59154
    endloop
  endfacet
  facet normal 0 1 0
    outer loop
      vertex 14.846 11 8.59154
      vertex 17.496 11 5.40846
      vertex 13.8549 11 5.40846
    endloop
  endfacet
  facet normal 0 1 0
    outer loop
      vertex 12.496 11 5.40846
      vertex 9.84599 11 8.59154
      vertex 11.5049 11 8.59154
    endloop
  endfacet
  facet normal 0 1 0
    outer loop
      vertex 9.84599 11 8.59154
      vertex 12.496 11 5.40846
      vertex 8.85485 11 5.40846
    endloop
  endfacet
  facet normal 0 1 0
    outer loop
      vertex 7.496 11 5.40846
      vertex 4.84599 11 8.59154
      vertex 6.50486 11 8.59154
    endloop
  endfacet
  facet normal 0 1 0
    outer loop
      vertex 4.84599 11 8.59154
      vertex 7.496 11 5.40846
      vertex 3.85485 11 5.40846
    endloop
  endfacet
  facet normal 0 1 0
    outer loop
      vertex 2.496 11 5.40846
      vertex 0 11 8.59154
      vertex 1.50486 11 8.59154
    endloop
  endfacet
  facet normal 0 1 0
    outer loop
      vertex 2.496 11 5.40846
      vertex 0 11 0
      vertex 0 11 8.59154
    endloop
  endfacet
  facet normal 0 1 0
    outer loop
      vertex 3.85485 11 5.40846
      vertex 0 11 0
      vertex 2.496 11 5.40846
    endloop
  endfacet
  facet normal 0 0 -1
    outer loop
      vertex 0 0 0
      vertex 70 3.37868 0
      vertex 70 0 0
    endloop
  endfacet
  facet normal -0 0 -1
    outer loop
      vertex 70 3.37868 0
      vertex 0 0 0
      vertex 0 3.37868 0
    endloop
  endfacet
  facet normal 0 0 -1
    outer loop
      vertex 0 7.62132 0
      vertex 70 11 0
      vertex 70 7.62132 0
    endloop
  endfacet
  facet normal -0 0 -1
    outer loop
      vertex 70 11 0
      vertex 0 7.62132 0
      vertex 0 11 0
    endloop
  endfacet
  facet normal 0 -1 0
    outer loop
      vertex 0 0 8.59154
      vertex 2.496 0 5.40846
      vertex 1.50486 0 8.59154
    endloop
  endfacet
  facet normal 0 -1 0
    outer loop
      vertex 0 0 0
      vertex 3.85485 0 5.40846
      vertex 2.496 0 5.40846
    endloop
  endfacet
  facet normal 0 -1 -0
    outer loop
      vertex 3.85485 0 5.40846
      vertex 0 0 0
      vertex 7.496 0 5.40846
    endloop
  endfacet
  facet normal 0 -1 -0
    outer loop
      vertex 7.496 0 5.40846
      vertex 0 0 0
      vertex 8.85485 0 5.40846
    endloop
  endfacet
  facet normal 0 -1 -0
    outer loop
      vertex 8.85485 0 5.40846
      vertex 0 0 0
      vertex 12.496 0 5.40846
    endloop
  endfacet
  facet normal 0 -1 -0
    outer loop
      vertex 12.496 0 5.40846
      vertex 0 0 0
      vertex 13.8549 0 5.40846
    endloop
  endfacet
  facet normal 0 -1 -0
    outer loop
      vertex 13.8549 0 5.40846
      vertex 0 0 0
      vertex 17.496 0 5.40846
    endloop
  endfacet
  facet normal 0 -1 -0
    outer loop
      vertex 17.496 0 5.40846
      vertex 0 0 0
      vertex 18.8549 0 5.40846
    endloop
  endfacet
  facet normal 0 -1 -0
    outer loop
      vertex 18.8549 0 5.40846
      vertex 0 0 0
      vertex 22.496 0 5.40846
    endloop
  endfacet
  facet normal 0 -1 -0
    outer loop
      vertex 22.496 0 5.40846
      vertex 0 0 0
      vertex 23.8549 0 5.40846
    endloop
  endfacet
  facet normal 0 -1 -0
    outer loop
      vertex 23.8549 0 5.40846
      vertex 0 0 0
      vertex 27.496 0 5.40846
    endloop
  endfacet
  facet normal 0 -1 -0
    outer loop
      vertex 27.496 0 5.40846
      vertex 0 0 0
      vertex 28.8549 0 5.40846
    endloop
  endfacet
  facet normal 0 -1 -0
    outer loop
      vertex 28.8549 0 5.40846
      vertex 0 0 0
      vertex 32.496 0 5.40846
    endloop
  endfacet
  facet normal 0 -1 -0
    outer loop
      vertex 32.496 0 5.40846
      vertex 0 0 0
      vertex 33.8549 0 5.40846
    endloop
  endfacet
  facet normal 0 -1 -0
    outer loop
      vertex 33.8549 0 5.40846
      vertex 0 0 0
      vertex 37.496 0 5.40846
    endloop
  endfacet
  facet normal 0 -1 0
    outer loop
      vertex 70 0 0
      vertex 37.496 0 5.40846
      vertex 0 0 0
    endloop
  endfacet
  facet normal 0 -1 0
    outer loop
      vertex 37.496 0 5.40846
      vertex 70 0 0
      vertex 38.8549 0 5.40846
    endloop
  endfacet
  facet normal 0 -1 0
    outer loop
      vertex 38.8549 0 5.40846
      vertex 70 0 0
      vertex 42.496 0 5.40846
    endloop
  endfacet
  facet normal 0 -1 0
    outer loop
      vertex 42.496 0 5.40846
      vertex 70 0 0
      vertex 43.8549 0 5.40846
    endloop
  endfacet
  facet normal 0 -1 0
    outer loop
      vertex 43.8549 0 5.40846
      vertex 70 0 0
      vertex 47.496 0 5.40846
    endloop
  endfacet
  facet normal 0 -1 0
    outer loop
      vertex 47.496 0 5.40846
      vertex 70 0 0
      vertex 48.8549 0 5.40846
    endloop
  endfacet
  facet normal 0 -1 0
    outer loop
      vertex 48.8549 0 5.40846
      vertex 70 0 0
      vertex 52.496 0 5.40846
    endloop
  endfacet
  facet normal 0 -1 0
    outer loop
      vertex 52.496 0 5.40846
      vertex 70 0 0
      vertex 53.8549 0 5.40846
    endloop
  endfacet
  facet normal 0 -1 0
    outer loop
      vertex 53.8549 0 5.40846
      vertex 70 0 0
      vertex 57.496 0 5.40846
    endloop
  endfacet
  facet normal 0 -1 0
    outer loop
      vertex 57.496 0 5.40846
      vertex 70 0 0
      vertex 58.8549 0 5.40846
    endloop
  endfacet
  facet normal 0 -1 0
    outer loop
      vertex 58.8549 0 5.40846
      vertex 70 0 0
      vertex 62.496 0 5.40846
    endloop
  endfacet
  facet normal 0 -1 0
    outer loop
      vertex 63.8549 0 5.40846
      vertex 70 0 0
      vertex 67.496 0 5.40846
    endloop
  endfacet
  facet normal 0 -1 0
    outer loop
      vertex 62.496 0 5.40846
      vertex 70 0 0
      vertex 63.8549 0 5.40846
    endloop
  endfacet
  facet normal 0 -1 0
    outer loop
      vertex 0 0 0
      vertex 2.496 0 5.40846
      vertex 0 0 8.59154
    endloop
  endfacet
  facet normal 0 -1 0
    outer loop
      vertex 3.85485 0 5.40846
      vertex 6.50486 0 8.59154
      vertex 4.84599 0 8.59154
    endloop
  endfacet
  facet normal 0 -1 -0
    outer loop
      vertex 6.50486 0 8.59154
      vertex 3.85485 0 5.40846
      vertex 7.496 0 5.40846
    endloop
  endfacet
  facet normal 0 -1 0
    outer loop
      vertex 8.85485 0 5.40846
      vertex 11.5049 0 8.59154
      vertex 9.84599 0 8.59154
    endloop
  endfacet
  facet normal 0 -1 -0
    outer loop
      vertex 11.5049 0 8.59154
      vertex 8.85485 0 5.40846
      vertex 12.496 0 5.40846
    endloop
  endfacet
  facet normal 0 -1 0
    outer loop
      vertex 13.8549 0 5.40846
      vertex 16.5049 0 8.59154
      vertex 14.846 0 8.59154
    endloop
  endfacet
  facet normal 0 -1 -0
    outer loop
      vertex 16.5049 0 8.59154
      vertex 13.8549 0 5.40846
      vertex 17.496 0 5.40846
    endloop
  endfacet
  facet normal 0 -1 0
    outer loop
      vertex 18.8549 0 5.40846
      vertex 21.5049 0 8.59154
      vertex 19.846 0 8.59154
    endloop
  endfacet
  facet normal 0 -1 -0
    outer loop
      vertex 21.5049 0 8.59154
      vertex 18.8549 0 5.40846
      vertex 22.496 0 5.40846
    endloop
  endfacet
  facet normal 0 -1 0
    outer loop
      vertex 23.8549 0 5.40846
      vertex 26.5049 0 8.59154
      vertex 24.846 0 8.59154
    endloop
  endfacet
  facet normal 0 -1 -0
    outer loop
      vertex 26.5049 0 8.59154
      vertex 23.8549 0 5.40846
      vertex 27.496 0 5.40846
    endloop
  endfacet
  facet normal 0 -1 0
    outer loop
      vertex 28.8549 0 5.40846
      vertex 31.5049 0 8.59154
      vertex 29.846 0 8.59154
    endloop
  endfacet
  facet normal 0 -1 -0
    outer loop
      vertex 31.5049 0 8.59154
      vertex 28.8549 0 5.40846
      vertex 32.496 0 5.40846
    endloop
  endfacet
  facet normal 0 -1 0
    outer loop
      vertex 33.8549 0 5.40846
      vertex 36.5049 0 8.59154
      vertex 34.846 0 8.59154
    endloop
  endfacet
  facet normal 0 -1 -0
    outer loop
      vertex 36.5049 0 8.59154
      vertex 33.8549 0 5.40846
      vertex 37.496 0 5.40846
    endloop
  endfacet
  facet normal 0 -1 0
    outer loop
      vertex 38.8549 0 5.40846
      vertex 41.5049 0 8.59154
      vertex 39.846 0 8.59154
    endloop
  endfacet
  facet normal 0 -1 -0
    outer loop
      vertex 41.5049 0 8.59154
      vertex 38.8549 0 5.40846
      vertex 42.496 0 5.40846
    endloop
  endfacet
  facet normal 0 -1 0
    outer loop
      vertex 43.8549 0 5.40846
      vertex 46.5049 0 8.59154
      vertex 44.846 0 8.59154
    endloop
  endfacet
  facet normal 0 -1 -0
    outer loop
      vertex 46.5049 0 8.59154
      vertex 43.8549 0 5.40846
      vertex 47.496 0 5.40846
    endloop
  endfacet
  facet normal 0 -1 0
    outer loop
      vertex 48.8549 0 5.40846
      vertex 51.5049 0 8.59154
      vertex 49.846 0 8.59154
    endloop
  endfacet
  facet normal 0 -1 -0
    outer loop
      vertex 51.5049 0 8.59154
      vertex 48.8549 0 5.40846
      vertex 52.496 0 5.40846
    endloop
  endfacet
  facet normal 0 -1 0
    outer loop
      vertex 53.8549 0 5.40846
      vertex 56.5049 0 8.59154
      vertex 54.846 0 8.59154
    endloop
  endfacet
  facet normal 0 -1 -0
    outer loop
      vertex 56.5049 0 8.59154
      vertex 53.8549 0 5.40846
      vertex 57.496 0 5.40846
    endloop
  endfacet
  facet normal 0 -1 0
    outer loop
      vertex 58.8549 0 5.40846
      vertex 61.5049 0 8.59154
      vertex 59.846 0 8.59154
    endloop
  endfacet
  facet normal 0 -1 -0
    outer loop
      vertex 61.5049 0 8.59154
      vertex 58.8549 0 5.40846
      vertex 62.496 0 5.40846
    endloop
  endfacet
  facet normal 0 -1 0
    outer loop
      vertex 63.8549 0 5.40846
      vertex 66.5049 0 8.59154
      vertex 64.846 0 8.59154
    endloop
  endfacet
  facet normal 0 -1 -0
    outer loop
      vertex 66.5049 0 8.59154
      vertex 63.8549 0 5.40846
      vertex 67.496 0 5.40846
    endloop
  endfacet
  facet normal 0 -1 0
    outer loop
      vertex 68.8549 0 5.40846
      vertex 70 0 8.59154
      vertex 69.846 0 8.59154
    endloop
  endfacet
  facet normal 0 -1 0
    outer loop
      vertex 68.8549 0 5.40846
      vertex 70 0 0
      vertex 70 0 8.59154
    endloop
  endfacet
  facet normal 0 -1 0
    outer loop
      vertex 67.496 0 5.40846
      vertex 70 0 0
      vertex 68.8549 0 5.40846
    endloop
  endfacet
  facet normal 0 0.707107 -0.707107
    outer loop
      vertex 0 3.37868 0
      vertex 70 5.5 2.12132
      vertex 70 3.37868 0
    endloop
  endfacet
  facet normal 0 0.707107 -0.707107
    outer loop
      vertex 70 5.5 2.12132
      vertex 0 3.37868 0
      vertex 0 5.5 2.12132
    endloop
  endfacet
  facet normal 0 -0.707107 -0.707107
    outer loop
      vertex 0 7.62132 0
      vertex 70 5.5 2.12132
      vertex 0 5.5 2.12132
    endloop
  endfacet
  facet normal 0 -0.707107 -0.707107
    outer loop
      vertex 70 5.5 2.12132
      vertex 0 7.62132 0
      vertex 70 7.62132 0
    endloop
  endfacet
endsolid OpenSCAD_Model
